<?xml version="1.0" encoding="UTF-8" standalone="no"?>
<svg
   sodipodi:docname="olsen-smygvanliga.svgz"
   inkscape:version="0.91 r13725"
   version="1.1"
   width="579.80017"
   height="899.99927"
   viewBox="0 0 579.8002 899.99929"
   id="svg13084"
   xmlns:inkscape="http://www.inkscape.org/namespaces/inkscape"
   xmlns:sodipodi="http://sodipodi.sourceforge.net/DTD/sodipodi-0.dtd"
   xmlns="http://www.w3.org/2000/svg"
   xmlns:svg="http://www.w3.org/2000/svg"
   xmlns:rdf="http://www.w3.org/1999/02/22-rdf-syntax-ns#"
   xmlns:cc="http://creativecommons.org/ns#"
   xmlns:dc="http://purl.org/dc/elements/1.1/">
  <sodipodi:namedview
     inkscape:snap-global="true"
     inkscape:snap-bbox="true"
     inkscape:snap-to-guides="false"
     inkscape:snap-tangential="true"
     inkscape:snap-perpendicular="true"
     inkscape:snap-grids="false"
     inkscape:guide-bbox="true"
     showguides="true"
     inkscape:showpageshadow="false"
     inkscape:current-layer="svg13084"
     inkscape:window-maximized="1"
     inkscape:window-y="0"
     inkscape:window-x="0"
     inkscape:cy="2050"
     inkscape:cx="6058.3246"
     inkscape:zoom="0.17154909"
     fit-margin-right="100"
     fit-margin-left="100"
     fit-margin-bottom="100"
     fit-margin-top="100"
     showgrid="false"
     id="namedview7847"
     inkscape:window-height="1016"
     inkscape:window-width="1920"
     inkscape:pageshadow="2"
     inkscape:pageopacity="0"
     guidetolerance="35"
     gridtolerance="10"
     objecttolerance="20"
     borderopacity="1"
     bordercolor="#666666"
     pagecolor="#ffffff"
     inkscape:object-nodes="true"
     inkscape:pagecheckerboard="0"
     inkscape:deskcolor="#d1d1d1">
    <inkscape:grid
       originy="-2093.184"
       originx="-498.86433"
       id="grid4407"
       type="xygrid"
       spacingy="1"
       spacingx="1"
       units="px"
       visible="false" />
  </sodipodi:namedview>
  <defs
     id="defs13142" />
  <metadata
     id="metadata13086">
    <rdf:RDF>
      <cc:Work
         about="">
        <dc:format>image/svg+xml</dc:format>
        <dc:type
           resource="http://purl.org/dc/dcmitype/StillImage"
           rdf:resource="http://purl.org/dc/dcmitype/StillImage" />
        <cc:license
           resource="http://www.gnu.org/licenses/lgpl.html" />
        <dc:title />
      </cc:Work>
    </rdf:RDF>
  </metadata>
  <g
     id="3_club"
     inkscape:label="#3_club"
     transform="translate(-1500,-2100.0007)">
    <rect
       style="font-style:normal;font-variant:normal;font-weight:500;font-stretch:normal;font-size:medium;line-height:125%;font-family:Gaelic;-inkscape-font-specification:'Gaelic Medium';letter-spacing:0px;word-spacing:0px;fill:#ffffff;fill-opacity:1;stroke:#000000;stroke-width:1.99863;stroke-linecap:butt;stroke-linejoin:miter;stroke-miterlimit:4;stroke-dasharray:none;stroke-opacity:1"
       id="rect5379"
       y="2101"
       x="1500.9993"
       ry="49.888187"
       rx="48.194115"
       height="898.00061"
       width="577.80151" />
    <rect
       width="498.45624"
       height="818.46259"
       rx="41.575974"
       ry="45.469467"
       x="1540.7122"
       y="2140.812"
       id="rect5381"
       style="fill:#ffffff;stroke:#000000;stroke-width:1.45202" />
    <rect
       style="fill:#ffffff;stroke:#000000;stroke-width:0.175631;stroke-opacity:1"
       id="rect5383"
       y="2180.0986"
       x="1515.0828"
       ry="6.6562381"
       rx="4.1552"
       height="119.81404"
       width="49.816887" />
    <rect
       transform="scale(-1)"
       width="49.816887"
       height="119.81404"
       rx="4.1552"
       ry="6.6562381"
       x="-2064.7275"
       y="-2919.9021"
       id="rect5393"
       style="fill:#ffffff;stroke:#000000;stroke-width:0.175631;stroke-opacity:1" />
    <path
       inkscape:connector-curvature="0"
       id="path5399"
       d="m 1780.3058,2289.3503 c 4.304,-10.567 7.432,-23.8867 7.432,-31.6478 v -8.6679 l -11.435,11.0346 c -15.411,14.8704 -27.416,16.833 -39.9003,6.5231 -13.4648,-11.119 -10.1265,-37.5813 5.5859,-44.2796 10.4984,-4.4752 15.5024,-3.8744 29.2324,3.5098 6.74,3.6249 12.255,5.7391 12.255,4.6983 0,-1.0409 -3.937,-7.5011 -8.748,-14.3562 -14.176,-20.1988 -13.313,-38.2552 2.279,-47.6524 7.769,-4.6829 22.217,-4.6829 29.987,0 15.592,9.3972 16.456,27.4536 2.28,47.6524 -4.812,6.8551 -8.748,13.3153 -8.748,14.3562 0,1.0408 5.514,-1.0734 12.254,-4.6983 13.73,-7.3842 18.734,-7.985 29.232,-3.5098 15.712,6.6983 19.051,33.1606 5.586,44.2796 -12.485,10.3099 -24.489,8.3473 -39.9,-6.5231 l -11.435,-11.0346 0.07,9.5571 c 0.04,5.2564 1.887,14.9285 4.108,21.4937 2.221,6.5651 3.659,12.3242 3.194,12.798 -0.465,0.4738 -3.296,-0.7774 -6.292,-2.7805 -4.931,-3.2969 -5.892,-3.3248 -10.131,-0.2945 -6.177,4.4139 -8.818,4.2387 -6.905,-0.4581 z"
       style="fill:#000000" />
    <circle
       r="7.4072628"
       cy="2238.396"
       cx="1791.9668"
       id="circle5401"
       style="opacity:1;fill:#ffffff;fill-opacity:1;stroke:#ffffff;stroke-width:1.18547;stroke-opacity:1" />
    <path
       style="fill:#000000"
       d="m 1780.3058,2810.6497 c 4.304,10.567 7.432,23.8867 7.432,31.6478 v 8.6679 l -11.435,-11.0346 c -15.411,-14.8704 -27.416,-16.833 -39.9003,-6.5231 -13.4648,11.119 -10.1265,37.5813 5.5859,44.2796 10.4984,4.4752 15.5024,3.8744 29.2324,-3.5098 6.74,-3.6249 12.255,-5.7391 12.255,-4.6983 0,1.0409 -3.937,7.5011 -8.748,14.3562 -14.176,20.1988 -13.313,38.2552 2.279,47.6524 7.769,4.6829 22.217,4.6829 29.987,0 15.592,-9.3972 16.456,-27.4536 2.28,-47.6524 -4.812,-6.8551 -8.748,-13.3153 -8.748,-14.3562 0,-1.0408 5.514,1.0734 12.254,4.6983 13.73,7.3842 18.734,7.985 29.232,3.5098 15.712,-6.6983 19.051,-33.1606 5.586,-44.2796 -12.485,-10.3099 -24.489,-8.3473 -39.9,6.5231 l -11.435,11.0346 0.07,-9.5571 c 0.04,-5.2564 1.887,-14.9285 4.108,-21.4937 2.221,-6.5651 3.659,-12.3242 3.194,-12.798 -0.465,-0.4738 -3.296,0.7774 -6.292,2.7805 -4.931,3.2969 -5.892,3.3248 -10.131,0.2945 -6.177,-4.4139 -8.818,-4.2387 -6.905,0.4581 z"
       id="path5411"
       inkscape:connector-curvature="0" />
    <circle
       transform="scale(1,-1)"
       style="opacity:1;fill:#ffffff;fill-opacity:1;stroke:#ffffff;stroke-width:1.18547;stroke-opacity:1"
       id="circle5413"
       cx="1791.9668"
       cy="-2861.604"
       r="7.4072628" />
    <path
       inkscape:connector-curvature="0"
       id="path5415"
       d="m 1536.7107,2292.9735 c 1.2105,-2.9719 2.0902,-6.7181 2.0902,-8.9009 v -2.4379 l -3.2161,3.1035 c -4.3343,4.1823 -7.7107,4.7343 -11.2219,1.8346 -3.787,-3.1272 -2.8481,-10.5697 1.571,-12.4536 2.9527,-1.2587 4.3601,-1.0897 8.2216,0.9871 1.8956,1.0195 3.4467,1.6141 3.4467,1.3214 0,-0.2927 -1.1072,-2.1097 -2.4603,-4.0377 -3.987,-5.6809 -3.7443,-10.7592 0.6409,-13.4022 2.1851,-1.3171 6.2486,-1.3171 8.4339,0 4.3852,2.643 4.6282,7.7213 0.6412,13.4022 -1.3534,1.928 -2.4604,3.745 -2.4604,4.0377 0,0.2927 1.5509,-0.3019 3.4465,-1.3214 3.8616,-2.0768 5.2689,-2.2458 8.2215,-0.9871 4.419,1.8839 5.3581,9.3264 1.5711,12.4536 -3.5115,2.8997 -6.8876,2.3477 -11.2219,-1.8346 l -3.2161,-3.1035 0.02,2.688 c 0.011,1.4783 0.5307,4.1986 1.1553,6.0451 0.6247,1.8464 1.0291,3.4661 0.8984,3.5994 -0.1308,0.1333 -0.927,-0.2186 -1.7697,-0.782 -1.3868,-0.9273 -1.6571,-0.9351 -2.8493,-0.083 -1.7373,1.2414 -2.4801,1.1921 -1.942,-0.1289 z"
       style="fill:#000000" />
    <circle
       r="2.0832932"
       cy="2278.6426"
       cx="1539.991"
       id="circle5417"
       style="opacity:1;fill:#ffffff;fill-opacity:1;stroke:#ffffff;stroke-width:0.333415;stroke-opacity:1" />
    <path
       inkscape:connector-curvature="0"
       id="path5419"
       d="m 2036.7107,2807.0265 c 1.2105,2.9719 2.0902,6.7181 2.0902,8.9009 v 2.4379 l -3.2161,-3.1035 c -4.3343,-4.1823 -7.7107,-4.7343 -11.2219,-1.8346 -3.787,3.1272 -2.8481,10.5697 1.571,12.4536 2.9527,1.2587 4.3601,1.0897 8.2216,-0.9871 1.8956,-1.0195 3.4467,-1.6141 3.4467,-1.3214 0,0.2927 -1.1072,2.1097 -2.4603,4.0377 -3.987,5.6809 -3.7443,10.7592 0.6409,13.4022 2.1851,1.3171 6.2486,1.3171 8.4339,0 4.3852,-2.643 4.6282,-7.7213 0.6412,-13.4022 -1.3534,-1.928 -2.4604,-3.745 -2.4604,-4.0377 0,-0.2927 1.5509,0.3019 3.4465,1.3214 3.8616,2.0768 5.2689,2.2458 8.2215,0.9871 4.419,-1.8839 5.3581,-9.3264 1.5711,-12.4536 -3.5115,-2.8997 -6.8876,-2.3477 -11.2219,1.8346 l -3.2161,3.1035 0.02,-2.688 c 0.011,-1.4783 0.5307,-4.1986 1.1553,-6.0451 0.6247,-1.8464 1.0291,-3.4661 0.8984,-3.5994 -0.1308,-0.1333 -0.927,0.2186 -1.7697,0.782 -1.3868,0.9273 -1.6571,0.9351 -2.8493,0.083 -1.7373,-1.2414 -2.4801,-1.1921 -1.942,0.1289 z"
       style="fill:#000000" />
    <circle
       transform="scale(1,-1)"
       r="2.0832932"
       cy="-2821.3574"
       cx="2039.9912"
       id="circle5421"
       style="opacity:1;fill:#ffffff;fill-opacity:1;stroke:#ffffff;stroke-width:0.333415;stroke-opacity:1" />
    <path
       style="fill:#000000"
       d="m 1780.3055,2610.3503 c 4.304,-10.567 7.432,-23.8867 7.432,-31.6478 v -8.6679 l -11.435,11.0346 c -15.411,14.8704 -27.416,16.833 -39.9003,6.5231 -13.4648,-11.119 -10.1265,-37.5813 5.5859,-44.2796 10.4984,-4.4752 15.5024,-3.8744 29.2324,3.5098 6.74,3.6249 12.255,5.7391 12.255,4.6983 0,-1.0409 -3.937,-7.5011 -8.748,-14.3562 -14.176,-20.1988 -13.313,-38.2552 2.279,-47.6524 7.769,-4.6829 22.217,-4.6829 29.987,0 15.592,9.3972 16.456,27.4536 2.28,47.6524 -4.812,6.8551 -8.748,13.3153 -8.748,14.3562 0,1.0408 5.514,-1.0734 12.254,-4.6983 13.73,-7.3842 18.734,-7.985 29.232,-3.5098 15.712,6.6983 19.051,33.1606 5.586,44.2796 -12.485,10.3099 -24.489,8.3473 -39.9,-6.5231 l -11.435,-11.0346 0.07,9.5571 c 0.04,5.2564 1.887,14.9285 4.108,21.4937 2.221,6.5651 3.659,12.3242 3.194,12.798 -0.465,0.4738 -3.296,-0.7774 -6.292,-2.7805 -4.931,-3.2969 -5.892,-3.3248 -10.131,-0.2945 -6.177,4.4139 -8.818,4.2387 -6.905,-0.4581 z"
       id="path5429"
       inkscape:connector-curvature="0" />
    <circle
       style="opacity:1;fill:#ffffff;fill-opacity:1;stroke:#ffffff;stroke-width:1.18547;stroke-opacity:1"
       id="circle5431"
       cx="1791.9662"
       cy="2559.396"
       r="7.4072628" />
    <path
       style="font-style:normal;font-variant:normal;font-weight:normal;font-stretch:normal;font-size:medium;line-height:125%;font-family:'Times New Roman';-inkscape-font-specification:'Times New Roman, ';letter-spacing:0px;word-spacing:0px;fill:#000000;fill-opacity:1;stroke:none;stroke-width:1px;stroke-linecap:butt;stroke-linejoin:miter;stroke-opacity:1"
       inkscape:connector-curvature="0"
       id="path5585"
       d="m 1521.0894,2200.1875 q 3.0092,-5.8381 7.5747,-8.9915 4.6174,-3.196 11.4656,-3.196 8.4566,0 12.9702,4.5171 3.4242,3.3664 3.4242,7.2017 0,6.3068 -9.65,13.0397 6.4852,2.0881 9.8055,5.9659 3.3204,3.8779 3.3204,9.1194 0,7.5 -5.8106,12.9971 -7.5747,7.1591 -21.9456,7.1591 -7.1077,0 -9.7016,-1.4488 -2.5422,-1.4489 -2.5422,-3.1108 0,-1.2358 1.1932,-2.1733 1.2451,-0.9375 2.9571,-0.9375 1.2971,0 2.646,0.3409 0.8821,0.213 3.9948,1.5767 3.1129,1.321 4.3061,1.5767 1.9196,0.4687 4.0986,0.4687 5.2919,0 9.1828,-3.3664 3.943,-3.3665 3.943,-7.9688 0,-3.3665 -1.8158,-6.5625 -1.3489,-2.3864 -2.9571,-3.6222 -2.231,-1.7045 -6.122,-3.0681 -3.8911,-1.4063 -7.9377,-1.4063 h -1.6603 v -1.2784 q 4.0986,-0.4261 8.1972,-2.429 4.1505,-2.0028 6.0182,-4.8153 1.8676,-2.8125 1.8676,-6.179 0,-4.3892 -3.3721,-7.0739 -3.3204,-2.7272 -8.301,-2.7272 -8.0414,0 -13.437,7.0738 z" />
    <path
       style="font-style:normal;font-variant:normal;font-weight:normal;font-stretch:normal;font-size:medium;line-height:125%;font-family:'Times New Roman';-inkscape-font-specification:'Times New Roman, ';letter-spacing:0px;word-spacing:0px;fill:#000000;fill-opacity:1;stroke:none;stroke-width:1px;stroke-linecap:butt;stroke-linejoin:miter;stroke-opacity:1"
       d="m 2058.9106,2899.8125 q -3.0092,5.8381 -7.5747,8.9915 -4.6174,3.196 -11.4656,3.196 -8.4566,0 -12.9702,-4.5171 -3.4242,-3.3664 -3.4242,-7.2017 0,-6.3068 9.65,-13.0397 -6.4852,-2.0881 -9.8055,-5.9659 -3.3204,-3.8779 -3.3204,-9.1194 0,-7.5 5.8106,-12.9971 7.5747,-7.1591 21.9455,-7.1591 7.1078,0 9.7017,1.4488 2.5422,1.4489 2.5422,3.1108 0,1.2358 -1.1932,2.1733 -1.2451,0.9375 -2.9572,0.9375 -1.297,0 -2.6459,-0.3409 -0.8821,-0.213 -3.9948,-1.5767 -3.1129,-1.321 -4.3061,-1.5767 -1.9196,-0.4687 -4.0986,-0.4687 -5.2919,0 -9.1828,3.3664 -3.9431,3.3665 -3.9431,7.9688 0,3.3665 1.8159,6.5625 1.3489,2.3864 2.9571,3.6222 2.231,1.7045 6.122,3.0681 3.891,1.4063 7.9377,1.4063 h 1.6603 v 1.2784 q -4.0986,0.4261 -8.1972,2.429 -4.1505,2.0028 -6.0182,4.8153 -1.8676,2.8125 -1.8676,6.179 0,4.3892 3.3721,7.0739 3.3203,2.7272 8.301,2.7272 8.0414,0 13.437,-7.0738 z"
       id="path5644"
       inkscape:connector-curvature="0" />
  </g>
</svg>
