<?xml version="1.0" encoding="UTF-8" standalone="no"?>
<svg
   sodipodi:docname="olsen-smygvanliga.svgz"
   inkscape:version="0.91 r13725"
   version="1.1"
   width="579.80017"
   height="899.99927"
   viewBox="0 0 579.8002 899.99929"
   id="svg13084"
   xmlns:inkscape="http://www.inkscape.org/namespaces/inkscape"
   xmlns:sodipodi="http://sodipodi.sourceforge.net/DTD/sodipodi-0.dtd"
   xmlns="http://www.w3.org/2000/svg"
   xmlns:svg="http://www.w3.org/2000/svg"
   xmlns:rdf="http://www.w3.org/1999/02/22-rdf-syntax-ns#"
   xmlns:cc="http://creativecommons.org/ns#"
   xmlns:dc="http://purl.org/dc/elements/1.1/">
  <sodipodi:namedview
     inkscape:snap-global="true"
     inkscape:snap-bbox="true"
     inkscape:snap-to-guides="false"
     inkscape:snap-tangential="true"
     inkscape:snap-perpendicular="true"
     inkscape:snap-grids="false"
     inkscape:guide-bbox="true"
     showguides="true"
     inkscape:showpageshadow="false"
     inkscape:current-layer="svg13084"
     inkscape:window-maximized="1"
     inkscape:window-y="0"
     inkscape:window-x="0"
     inkscape:cy="2050"
     inkscape:cx="6058.3246"
     inkscape:zoom="0.17154909"
     fit-margin-right="100"
     fit-margin-left="100"
     fit-margin-bottom="100"
     fit-margin-top="100"
     showgrid="false"
     id="namedview7847"
     inkscape:window-height="1016"
     inkscape:window-width="1920"
     inkscape:pageshadow="2"
     inkscape:pageopacity="0"
     guidetolerance="35"
     gridtolerance="10"
     objecttolerance="20"
     borderopacity="1"
     bordercolor="#666666"
     pagecolor="#ffffff"
     inkscape:object-nodes="true"
     inkscape:pagecheckerboard="0"
     inkscape:deskcolor="#d1d1d1">
    <inkscape:grid
       originy="-2093.184"
       originx="-2598.8643"
       id="grid4407"
       type="xygrid"
       spacingy="1"
       spacingx="1"
       units="px"
       visible="false" />
  </sodipodi:namedview>
  <defs
     id="defs13142" />
  <metadata
     id="metadata13086">
    <rdf:RDF>
      <cc:Work
         about="">
        <dc:format>image/svg+xml</dc:format>
        <dc:type
           resource="http://purl.org/dc/dcmitype/StillImage"
           rdf:resource="http://purl.org/dc/dcmitype/StillImage" />
        <cc:license
           resource="http://www.gnu.org/licenses/lgpl.html" />
        <dc:title />
      </cc:Work>
    </rdf:RDF>
  </metadata>
  <g
     id="6_club"
     inkscape:label="#6_club"
     transform="translate(-3600,-2100.0007)">
    <rect
       style="font-style:normal;font-variant:normal;font-weight:500;font-stretch:normal;font-size:medium;line-height:125%;font-family:Gaelic;-inkscape-font-specification:'Gaelic Medium';letter-spacing:0px;word-spacing:0px;fill:#ffffff;fill-opacity:1;stroke:#000000;stroke-width:1.99863;stroke-linecap:butt;stroke-linejoin:miter;stroke-miterlimit:4;stroke-dasharray:none;stroke-opacity:1"
       id="rect5198"
       y="2101"
       x="3600.9993"
       ry="49.888187"
       rx="48.194115"
       height="898.00061"
       width="577.80151" />
    <rect
       width="498.45624"
       height="818.46259"
       rx="41.575974"
       ry="45.469467"
       x="3640.7122"
       y="2140.812"
       id="rect5200"
       style="fill:#ffffff;stroke:#000000;stroke-width:1.45202" />
    <rect
       style="fill:#ffffff;stroke:#000000;stroke-width:0.175631;stroke-opacity:1"
       id="rect5202"
       y="2180.0986"
       x="3615.0828"
       ry="6.6562381"
       rx="4.1552"
       height="119.81404"
       width="49.816887" />
    <rect
       transform="scale(-1)"
       width="49.816887"
       height="119.81404"
       rx="4.1552"
       ry="6.6562381"
       x="-4164.7275"
       y="-2919.9021"
       id="rect5208"
       style="fill:#ffffff;stroke:#000000;stroke-width:0.175631;stroke-opacity:1" />
    <path
       inkscape:connector-curvature="0"
       id="path5214"
       d="m 3732.3055,2289.3503 c 4.304,-10.567 7.432,-23.8867 7.432,-31.6478 v -8.6679 l -11.435,11.0346 c -15.411,14.8704 -27.416,16.833 -39.9003,6.5231 -13.4648,-11.119 -10.1265,-37.5813 5.5859,-44.2796 10.4984,-4.4752 15.5024,-3.8744 29.2324,3.5098 6.74,3.6249 12.255,5.7391 12.255,4.6983 0,-1.0409 -3.937,-7.5011 -8.748,-14.3562 -14.176,-20.1988 -13.313,-38.2552 2.279,-47.6524 7.769,-4.6829 22.217,-4.6829 29.987,0 15.592,9.3972 16.456,27.4536 2.28,47.6524 -4.812,6.8551 -8.748,13.3153 -8.748,14.3562 0,1.0408 5.514,-1.0734 12.254,-4.6983 13.73,-7.3842 18.734,-7.985 29.232,-3.5098 15.712,6.6983 19.051,33.1606 5.586,44.2796 -12.485,10.3099 -24.489,8.3473 -39.9,-6.5231 l -11.435,-11.0346 0.07,9.5571 c 0.04,5.2564 1.887,14.9285 4.108,21.4937 2.221,6.5651 3.659,12.3242 3.194,12.798 -0.465,0.4738 -3.296,-0.7774 -6.292,-2.7805 -4.931,-3.2969 -5.892,-3.3248 -10.131,-0.2945 -6.177,4.4139 -8.818,4.2387 -6.905,-0.4581 z"
       style="fill:#000000" />
    <circle
       r="7.4072628"
       cy="2238.396"
       cx="3743.9666"
       id="circle5216"
       style="opacity:1;fill:#ffffff;fill-opacity:1;stroke:#ffffff;stroke-width:1.18547;stroke-opacity:1" />
    <path
       style="fill:#000000"
       d="m 4024.3055,2289.3503 c 4.304,-10.567 7.432,-23.8867 7.432,-31.6478 v -8.6679 l -11.435,11.0346 c -15.411,14.8704 -27.416,16.833 -39.9003,6.5231 -13.4648,-11.119 -10.1265,-37.5813 5.5859,-44.2796 10.4984,-4.4752 15.5024,-3.8744 29.2324,3.5098 6.74,3.6249 12.255,5.7391 12.255,4.6983 0,-1.0409 -3.937,-7.5011 -8.748,-14.3562 -14.176,-20.1988 -13.313,-38.2552 2.279,-47.6524 7.769,-4.6829 22.217,-4.6829 29.987,0 15.592,9.3972 16.456,27.4536 2.28,47.6524 -4.812,6.8551 -8.748,13.3153 -8.748,14.3562 0,1.0408 5.514,-1.0734 12.254,-4.6983 13.73,-7.3842 18.734,-7.985 29.232,-3.5098 15.712,6.6983 19.051,33.1606 5.586,44.2796 -12.485,10.3099 -24.489,8.3473 -39.9,-6.5231 l -11.435,-11.0346 0.07,9.5571 c 0.04,5.2564 1.887,14.9285 4.108,21.4937 2.221,6.5651 3.659,12.3242 3.194,12.798 -0.465,0.4738 -3.296,-0.7774 -6.292,-2.7805 -4.931,-3.2969 -5.892,-3.3248 -10.131,-0.2945 -6.177,4.4139 -8.818,4.2387 -6.905,-0.4581 z"
       id="path5218"
       inkscape:connector-curvature="0" />
    <circle
       style="opacity:1;fill:#ffffff;fill-opacity:1;stroke:#ffffff;stroke-width:1.18547;stroke-opacity:1"
       id="circle5220"
       cx="4035.9668"
       cy="2238.396"
       r="7.4072628" />
    <path
       style="fill:#000000"
       d="m 4024.3055,2810.6497 c 4.304,10.567 7.432,23.8867 7.432,31.6478 v 8.6679 l -11.435,-11.0346 c -15.411,-14.8704 -27.416,-16.833 -39.9003,-6.5231 -13.4648,11.119 -10.1265,37.5813 5.5859,44.2796 10.4984,4.4752 15.5024,3.8744 29.2324,-3.5098 6.74,-3.6249 12.255,-5.7391 12.255,-4.6983 0,1.0409 -3.937,7.5011 -8.748,14.3562 -14.176,20.1988 -13.313,38.2552 2.279,47.6524 7.769,4.6829 22.217,4.6829 29.987,0 15.592,-9.3972 16.456,-27.4536 2.28,-47.6524 -4.812,-6.8551 -8.748,-13.3153 -8.748,-14.3562 0,-1.0408 5.514,1.0734 12.254,4.6983 13.73,7.3842 18.734,7.985 29.232,3.5098 15.712,-6.6983 19.051,-33.1606 5.586,-44.2796 -12.485,-10.3099 -24.489,-8.3473 -39.9,6.5231 l -11.435,11.0346 0.07,-9.5571 c 0.04,-5.2564 1.887,-14.9285 4.108,-21.4937 2.221,-6.5651 3.659,-12.3242 3.194,-12.798 -0.465,-0.4738 -3.296,0.7774 -6.292,2.7805 -4.931,3.2969 -5.892,3.3248 -10.131,0.2945 -6.177,-4.4139 -8.818,-4.2387 -6.905,0.4581 z"
       id="path5222"
       inkscape:connector-curvature="0" />
    <circle
       transform="scale(1,-1)"
       style="opacity:1;fill:#ffffff;fill-opacity:1;stroke:#ffffff;stroke-width:1.18547;stroke-opacity:1"
       id="circle5224"
       cx="4035.9668"
       cy="-2861.604"
       r="7.4072628" />
    <path
       style="fill:#000000"
       d="m 3732.3055,2810.6497 c 4.304,10.567 7.432,23.8867 7.432,31.6478 v 8.6679 l -11.435,-11.0346 c -15.411,-14.8704 -27.416,-16.833 -39.9003,-6.5231 -13.4648,11.119 -10.1265,37.5813 5.5859,44.2796 10.4984,4.4752 15.5024,3.8744 29.2324,-3.5098 6.74,-3.6249 12.255,-5.7391 12.255,-4.6983 0,1.0409 -3.937,7.5011 -8.748,14.3562 -14.176,20.1988 -13.313,38.2552 2.279,47.6524 7.769,4.6829 22.217,4.6829 29.987,0 15.592,-9.3972 16.456,-27.4536 2.28,-47.6524 -4.812,-6.8551 -8.748,-13.3153 -8.748,-14.3562 0,-1.0408 5.514,1.0734 12.254,4.6983 13.73,7.3842 18.734,7.985 29.232,3.5098 15.712,-6.6983 19.051,-33.1606 5.586,-44.2796 -12.485,-10.3099 -24.489,-8.3473 -39.9,6.5231 l -11.435,11.0346 0.07,-9.5571 c 0.04,-5.2564 1.887,-14.9285 4.108,-21.4937 2.221,-6.5651 3.659,-12.3242 3.194,-12.798 -0.465,-0.4738 -3.296,0.7774 -6.292,2.7805 -4.931,3.2969 -5.892,3.3248 -10.131,0.2945 -6.177,-4.4139 -8.818,-4.2387 -6.905,0.4581 z"
       id="path5226"
       inkscape:connector-curvature="0" />
    <circle
       transform="scale(1,-1)"
       style="opacity:1;fill:#ffffff;fill-opacity:1;stroke:#ffffff;stroke-width:1.18547;stroke-opacity:1"
       id="circle5228"
       cx="3743.9666"
       cy="-2861.604"
       r="7.4072628" />
    <path
       inkscape:connector-curvature="0"
       id="path5240"
       d="m 3636.7107,2292.9735 c 1.2105,-2.9719 2.0902,-6.7181 2.0902,-8.9009 v -2.4379 l -3.2161,3.1035 c -4.3343,4.1823 -7.7107,4.7343 -11.2219,1.8346 -3.787,-3.1272 -2.8481,-10.5697 1.571,-12.4536 2.9527,-1.2587 4.3601,-1.0897 8.2216,0.9871 1.8956,1.0195 3.4467,1.6141 3.4467,1.3214 0,-0.2927 -1.1072,-2.1097 -2.4603,-4.0377 -3.987,-5.6809 -3.7443,-10.7592 0.6409,-13.4022 2.1851,-1.3171 6.2486,-1.3171 8.4339,0 4.3852,2.643 4.6282,7.7213 0.6412,13.4022 -1.3534,1.928 -2.4604,3.745 -2.4604,4.0377 0,0.2927 1.5509,-0.3019 3.4465,-1.3214 3.8616,-2.0768 5.2689,-2.2458 8.2215,-0.9871 4.419,1.8839 5.3581,9.3264 1.5711,12.4536 -3.5115,2.8997 -6.8876,2.3477 -11.2219,-1.8346 l -3.2161,-3.1035 0.02,2.688 c 0.011,1.4783 0.5307,4.1986 1.1553,6.0451 0.6247,1.8464 1.0291,3.4661 0.8984,3.5994 -0.1308,0.1333 -0.927,-0.2186 -1.7697,-0.782 -1.3868,-0.9273 -1.6571,-0.9351 -2.8493,-0.083 -1.7373,1.2414 -2.4801,1.1921 -1.942,-0.1289 z"
       style="fill:#000000" />
    <circle
       r="2.0832932"
       cy="2278.6426"
       cx="3639.991"
       id="circle5242"
       style="opacity:1;fill:#ffffff;fill-opacity:1;stroke:#ffffff;stroke-width:0.333415;stroke-opacity:1" />
    <path
       inkscape:connector-curvature="0"
       id="path5244"
       d="m 4136.7107,2807.0265 c 1.2105,2.9719 2.0902,6.7181 2.0902,8.9009 v 2.4379 l -3.2161,-3.1035 c -4.3343,-4.1823 -7.7107,-4.7343 -11.2219,-1.8346 -3.787,3.1272 -2.8481,10.5697 1.571,12.4536 2.9527,1.2587 4.3601,1.0897 8.2216,-0.9871 1.8956,-1.0195 3.4467,-1.6141 3.4467,-1.3214 0,0.2927 -1.1072,2.1097 -2.4603,4.0377 -3.987,5.6809 -3.7443,10.7592 0.6409,13.4022 2.1851,1.3171 6.2486,1.3171 8.4339,0 4.3852,-2.643 4.6282,-7.7213 0.6412,-13.4022 -1.3534,-1.928 -2.4604,-3.745 -2.4604,-4.0377 0,-0.2927 1.5509,0.3019 3.4465,1.3214 3.8616,2.0768 5.2689,2.2458 8.2215,0.9871 4.419,-1.8839 5.3581,-9.3264 1.5711,-12.4536 -3.5115,-2.8997 -6.8876,-2.3477 -11.2219,1.8346 l -3.2161,3.1035 0.02,-2.688 c 0.011,-1.4783 0.5307,-4.1986 1.1553,-6.0451 0.6247,-1.8464 1.0291,-3.4661 0.8984,-3.5994 -0.1308,-0.1333 -0.927,0.2186 -1.7697,0.782 -1.3868,0.9273 -1.6571,0.9351 -2.8493,0.083 -1.7373,-1.2414 -2.4801,-1.1921 -1.942,0.1289 z"
       style="fill:#000000" />
    <circle
       transform="scale(1,-1)"
       r="2.0832932"
       cy="-2821.3574"
       cx="4139.9912"
       id="circle5246"
       style="opacity:1;fill:#ffffff;fill-opacity:1;stroke:#ffffff;stroke-width:0.333415;stroke-opacity:1" />
    <path
       style="fill:#000000"
       d="m 3732.3055,2610.3503 c 4.304,-10.567 7.432,-23.8867 7.432,-31.6478 v -8.6679 l -11.435,11.0346 c -15.411,14.8704 -27.416,16.833 -39.9003,6.5231 -13.4648,-11.119 -10.1265,-37.5813 5.5859,-44.2796 10.4984,-4.4752 15.5024,-3.8744 29.2324,3.5098 6.74,3.6249 12.255,5.7391 12.255,4.6983 0,-1.0409 -3.937,-7.5011 -8.748,-14.3562 -14.176,-20.1988 -13.313,-38.2552 2.279,-47.6524 7.769,-4.6829 22.217,-4.6829 29.987,0 15.592,9.3972 16.456,27.4536 2.28,47.6524 -4.812,6.8551 -8.748,13.3153 -8.748,14.3562 0,1.0408 5.514,-1.0734 12.254,-4.6983 13.73,-7.3842 18.734,-7.985 29.232,-3.5098 15.712,6.6983 19.051,33.1606 5.586,44.2796 -12.485,10.3099 -24.489,8.3473 -39.9,-6.5231 l -11.435,-11.0346 0.07,9.5571 c 0.04,5.2564 1.887,14.9285 4.108,21.4937 2.221,6.5651 3.659,12.3242 3.194,12.798 -0.465,0.4738 -3.296,-0.7774 -6.292,-2.7805 -4.931,-3.2969 -5.892,-3.3248 -10.131,-0.2945 -6.177,4.4139 -8.818,4.2387 -6.905,-0.4581 z"
       id="path5254"
       inkscape:connector-curvature="0" />
    <circle
       style="opacity:1;fill:#ffffff;fill-opacity:1;stroke:#ffffff;stroke-width:1.18547;stroke-opacity:1"
       id="circle5256"
       cx="3743.9663"
       cy="2559.396"
       r="7.4072628" />
    <path
       style="fill:#000000"
       d="m 4024.3055,2610.3503 c 4.304,-10.567 7.432,-23.8867 7.432,-31.6478 v -8.6679 l -11.435,11.0346 c -15.411,14.8704 -27.416,16.833 -39.9003,6.5231 -13.4648,-11.119 -10.1265,-37.5813 5.5859,-44.2796 10.4984,-4.4752 15.5024,-3.8744 29.2324,3.5098 6.74,3.6249 12.255,5.7391 12.255,4.6983 0,-1.0409 -3.937,-7.5011 -8.748,-14.3562 -14.176,-20.1988 -13.313,-38.2552 2.279,-47.6524 7.769,-4.6829 22.217,-4.6829 29.987,0 15.592,9.3972 16.456,27.4536 2.28,47.6524 -4.812,6.8551 -8.748,13.3153 -8.748,14.3562 0,1.0408 5.514,-1.0734 12.254,-4.6983 13.73,-7.3842 18.734,-7.985 29.232,-3.5098 15.712,6.6983 19.051,33.1606 5.586,44.2796 -12.485,10.3099 -24.489,8.3473 -39.9,-6.5231 l -11.435,-11.0346 0.07,9.5571 c 0.04,5.2564 1.887,14.9285 4.108,21.4937 2.221,6.5651 3.659,12.3242 3.194,12.798 -0.465,0.4738 -3.296,-0.7774 -6.292,-2.7805 -4.931,-3.2969 -5.892,-3.3248 -10.131,-0.2945 -6.177,4.4139 -8.818,4.2387 -6.905,-0.4581 z"
       id="path5264"
       inkscape:connector-curvature="0" />
    <circle
       style="opacity:1;fill:#ffffff;fill-opacity:1;stroke:#ffffff;stroke-width:1.18547;stroke-opacity:1"
       id="circle5266"
       cx="4035.9663"
       cy="2559.396"
       r="7.4072628" />
    <path
       style="font-style:normal;font-variant:normal;font-weight:normal;font-stretch:normal;font-size:medium;line-height:125%;font-family:'Times New Roman';-inkscape-font-specification:'Times New Roman, ';letter-spacing:0px;word-spacing:0px;fill:#000000;fill-opacity:1;stroke:none;stroke-width:1px;stroke-linecap:butt;stroke-linejoin:miter;stroke-opacity:1"
       inkscape:connector-curvature="0"
       id="path5591"
       d="m 3658.7397,2188 v 1.5767 q -6.161,0.554 -10.0817,2.2585 -3.8739,1.662 -7.7012,5.1137 -3.7807,3.4517 -6.3011,7.713 -2.4737,4.2188 -4.154,10.0568 6.7211,-4.2187 13.4888,-4.2187 6.4878,0 11.2487,4.7727 4.7608,4.7727 4.7608,12.2727 0,7.2444 -4.8075,13.2103 -5.7876,7.2443 -15.3093,7.2443 -6.4876,0 -11.0151,-3.9205 -8.8681,-7.6278 -8.8681,-19.7727 0,-7.7557 3.4072,-14.7443 3.4072,-6.9886 9.7083,-12.4006 6.3477,-5.4119 12.1353,-7.2869 5.7877,-1.875 10.7818,-1.875 z m -29.0314,29.8295 q -0.8402,5.7529 -0.8402,9.2898 0,4.0909 1.6336,8.9063 1.6803,4.7727 4.9475,7.5852 2.3803,2.0028 5.7876,2.0028 4.0607,0 7.2346,-3.4943 3.2205,-3.4943 3.2205,-9.9716 0,-7.2869 -3.1738,-12.6136 -3.1739,-5.3267 -9.0082,-5.3267 -1.7736,0 -3.8273,0.6818 -2.0071,0.6818 -5.9743,2.9403 z" />
    <path
       style="font-style:normal;font-variant:normal;font-weight:normal;font-stretch:normal;font-size:medium;line-height:125%;font-family:'Times New Roman';-inkscape-font-specification:'Times New Roman, ';letter-spacing:0px;word-spacing:0px;fill:#000000;fill-opacity:1;stroke:none;stroke-width:1px;stroke-linecap:butt;stroke-linejoin:miter;stroke-opacity:1"
       d="m 4121.2603,2911.9999 v -1.5767 q 6.161,-0.554 10.0817,-2.2585 3.8739,-1.662 7.7012,-5.1137 3.7807,-3.4517 6.3011,-7.713 2.4737,-4.2188 4.154,-10.0568 -6.7211,4.2187 -13.4888,4.2187 -6.4878,0 -11.2487,-4.7727 -4.7608,-4.7727 -4.7608,-12.2727 0,-7.2444 4.8075,-13.2103 5.7876,-7.2443 15.3093,-7.2443 6.4876,0 11.0151,3.9205 8.8681,7.6278 8.8681,19.7727 0,7.7557 -3.4072,14.7443 -3.4072,6.9886 -9.7083,12.4006 -6.3477,5.4119 -12.1353,7.2869 -5.7877,1.875 -10.7818,1.875 z m 29.0314,-29.8295 q 0.8402,-5.7529 0.8402,-9.2898 0,-4.0909 -1.6336,-8.9063 -1.6803,-4.7727 -4.9475,-7.5852 -2.3803,-2.0028 -5.7876,-2.0028 -4.0607,0 -7.2346,3.4943 -3.2205,3.4943 -3.2205,9.9716 0,7.2869 3.1738,12.6136 3.1739,5.3267 9.0082,5.3267 1.7736,0 3.8273,-0.6818 2.0071,-0.6818 5.9743,-2.9403 z"
       id="path5650"
       inkscape:connector-curvature="0" />
  </g>
</svg>
