<?xml version="1.0" encoding="UTF-8" standalone="no"?>
<svg
   sodipodi:docname="olsen-smygvanliga.svgz"
   inkscape:version="0.91 r13725"
   version="1.1"
   width="580"
   height="899.99939"
   viewBox="0 0 580.00003 899.99941"
   id="svg13084"
   xmlns:inkscape="http://www.inkscape.org/namespaces/inkscape"
   xmlns:sodipodi="http://sodipodi.sourceforge.net/DTD/sodipodi-0.dtd"
   xmlns="http://www.w3.org/2000/svg"
   xmlns:svg="http://www.w3.org/2000/svg"
   xmlns:rdf="http://www.w3.org/1999/02/22-rdf-syntax-ns#"
   xmlns:cc="http://creativecommons.org/ns#"
   xmlns:dc="http://purl.org/dc/elements/1.1/">
  <sodipodi:namedview
     inkscape:snap-global="true"
     inkscape:snap-bbox="true"
     inkscape:snap-to-guides="false"
     inkscape:snap-tangential="true"
     inkscape:snap-perpendicular="true"
     inkscape:snap-grids="false"
     inkscape:guide-bbox="true"
     showguides="true"
     inkscape:showpageshadow="false"
     inkscape:current-layer="svg13084"
     inkscape:window-maximized="1"
     inkscape:window-y="0"
     inkscape:window-x="0"
     inkscape:cy="2050"
     inkscape:cx="6058.3246"
     inkscape:zoom="0.17154909"
     fit-margin-right="100"
     fit-margin-left="100"
     fit-margin-bottom="100"
     fit-margin-top="100"
     showgrid="false"
     id="namedview7847"
     inkscape:window-height="1016"
     inkscape:window-width="1920"
     inkscape:pageshadow="2"
     inkscape:pageopacity="0"
     guidetolerance="35"
     gridtolerance="10"
     objecttolerance="20"
     borderopacity="1"
     bordercolor="#666666"
     pagecolor="#ffffff"
     inkscape:object-nodes="true"
     inkscape:pagecheckerboard="0"
     inkscape:deskcolor="#d1d1d1">
    <inkscape:grid
       originy="-1093.183"
       originx="-1898.8644"
       id="grid4407"
       type="xygrid"
       spacingy="1"
       spacingx="1"
       units="px"
       visible="false" />
  </sodipodi:namedview>
  <defs
     id="defs13142" />
  <metadata
     id="metadata13086">
    <rdf:RDF>
      <cc:Work
         about="">
        <dc:format>image/svg+xml</dc:format>
        <dc:type
           resource="http://purl.org/dc/dcmitype/StillImage"
           rdf:resource="http://purl.org/dc/dcmitype/StillImage" />
        <cc:license
           resource="http://www.gnu.org/licenses/lgpl.html" />
        <dc:title />
      </cc:Work>
    </rdf:RDF>
  </metadata>
  <g
     id="5_diamond"
     inkscape:label="#5_diamond"
     transform="translate(-2900,-1099.9997)">
    <rect
       style="font-style:normal;font-variant:normal;font-weight:500;font-stretch:normal;font-size:medium;line-height:125%;font-family:Gaelic;-inkscape-font-specification:'Gaelic Medium';letter-spacing:0px;word-spacing:0px;fill:#ffffff;fill-opacity:1;stroke:#000000;stroke-width:1.99898;stroke-linecap:butt;stroke-linejoin:miter;stroke-miterlimit:4;stroke-dasharray:none;stroke-opacity:1"
       id="rect56899"
       y="1100.9991"
       x="2900.9995"
       ry="49.888176"
       rx="48.210754"
       height="898.00043"
       width="578.00104" />
    <rect
       width="498.62833"
       height="818.4624"
       rx="41.590328"
       ry="45.46946"
       x="2940.7261"
       y="1140.8112"
       id="rect56901"
       style="fill:#ffffff;stroke:#000000;stroke-width:1.45227" />
    <rect
       style="fill:#ffffff;stroke:#000000;stroke-width:0.175661;stroke-opacity:1"
       id="rect56903"
       y="1180.0978"
       x="2915.0879"
       ry="6.6562366"
       rx="4.1566348"
       height="119.81402"
       width="49.834087" />
    <rect
       transform="scale(-1)"
       width="49.834087"
       height="119.81402"
       rx="4.1566348"
       ry="6.6562366"
       x="-3464.9219"
       y="-1919.901"
       id="rect56905"
       style="fill:#ffffff;stroke:#000000;stroke-width:0.175661;stroke-opacity:1" />
    <path
       d="m 2960,1188.0001 -3.9445,7.3913 h -20.6321 l -4.5006,7.913 q 13.4008,1.6957 21.2389,8.5652 6.7257,5.9131 6.7257,13.9131 0,4.6521 -2.225,8.6087 -2.1745,3.9565 -5.5121,6.7391 -3.3374,2.7826 -7.4336,4.4782 -5.8154,2.3913 -11.9342,2.3913 -6.1693,0 -9.0012,-1.7826 -2.7813,-1.826 -2.7813,-4 0,-1.2174 1.1631,-2.1304 1.1631,-0.9565 2.933,-0.9565 1.3148,0 2.2756,0.3478 1.0114,0.3478 3.3881,1.7826 3.7926,2.2609 7.6864,2.2609 5.9165,0 10.3667,-3.8261 4.5006,-3.8696 4.5006,-9.3913 0,-5.3478 -3.9949,-9.9565 -3.995,-4.6522 -11.0241,-7.1739 -5.512,-1.9566 -15.0189,-2.2609 l 13.1478,-22.913 z"
       id="path57003"
       inkscape:connector-curvature="0"
       style="font-style:normal;font-variant:normal;font-weight:normal;font-stretch:normal;font-size:medium;line-height:125%;font-family:'Times New Roman';-inkscape-font-specification:'Times New Roman, ';letter-spacing:0px;word-spacing:0px;fill:#ff0000;fill-opacity:1;stroke:none;stroke-width:1px;stroke-linecap:butt;stroke-linejoin:miter;stroke-opacity:1" />
    <path
       inkscape:connector-curvature="0"
       id="path57039"
       d="m 3419.9999,1911.9999 3.9445,-7.3913 h 20.6321 l 4.5006,-7.913 q -13.4008,-1.6957 -21.2389,-8.5652 -6.7257,-5.9131 -6.7257,-13.9131 0,-4.6521 2.225,-8.6087 2.1745,-3.9565 5.5121,-6.7391 3.3374,-2.7826 7.4336,-4.4782 5.8154,-2.3913 11.9342,-2.3913 6.1693,0 9.0012,1.7826 2.7813,1.826 2.7813,4 0,1.2174 -1.1631,2.1304 -1.1631,0.9565 -2.933,0.9565 -1.3148,0 -2.2756,-0.3478 -1.0114,-0.3478 -3.3881,-1.7826 -3.7926,-2.2609 -7.6864,-2.2609 -5.9165,0 -10.3667,3.8261 -4.5006,3.8696 -4.5006,9.3913 0,5.3478 3.9949,9.9565 3.995,4.6522 11.0241,7.1739 5.512,1.9566 15.0189,2.2609 l -13.1478,22.913 z"
       style="font-style:normal;font-variant:normal;font-weight:normal;font-stretch:normal;font-size:medium;line-height:125%;font-family:'Times New Roman';-inkscape-font-specification:'Times New Roman, ';letter-spacing:0px;word-spacing:0px;fill:#ff0000;fill-opacity:1;stroke:none;stroke-width:1px;stroke-linecap:butt;stroke-linejoin:miter;stroke-opacity:1" />
    <path
       style="fill:#fe0303;image-rendering:auto"
       d="m 3043.1666,1292.1377 c -0.4586,-0.7195 -2.5405,-4.0289 -4.6269,-7.3541 -7.2111,-11.4937 -11.7964,-17.165 -22.4019,-27.7077 -10.6056,-10.5428 -16.3108,-15.1007 -27.8729,-22.269 -3.3453,-2.0739 -6.6743,-4.1436 -7.398,-4.5992 -1.1559,-0.728 -1.1559,-0.9294 0,-1.6571 0.7237,-0.4559 4.0521,-2.5264 7.3964,-4.601 21.8447,-13.5523 39.6571,-31.7495 52.7372,-53.876 l 2.9995,-5.0741 2.9993,5.0741 c 13.0802,22.1265 30.8926,40.3237 52.7374,53.876 3.3442,2.0746 6.6726,4.1451 7.3963,4.601 1.1559,0.7277 1.1559,0.9291 0,1.6571 -0.7237,0.4556 -4.0528,2.5253 -7.3981,4.5992 -11.5621,7.1683 -17.2672,11.7262 -27.8728,22.269 -10.6056,10.5427 -15.1909,16.214 -22.402,27.7077 -2.0862,3.3252 -4.1682,6.6346 -4.6268,7.3541 -0.732,1.1491 -0.9347,1.1491 -1.6667,0 z"
       id="path57127"
       inkscape:connector-curvature="0" />
    <path
       inkscape:connector-curvature="0"
       id="path57129"
       d="m 3335.1666,1292.1377 c -0.4586,-0.7195 -2.5405,-4.0289 -4.6269,-7.3541 -7.2111,-11.4937 -11.7964,-17.165 -22.4019,-27.7077 -10.6056,-10.5428 -16.3108,-15.1007 -27.8728,-22.269 -3.3454,-2.0739 -6.6744,-4.1436 -7.3981,-4.5992 -1.1559,-0.728 -1.1559,-0.9294 0,-1.6571 0.7237,-0.4559 4.0521,-2.5264 7.3964,-4.601 21.8447,-13.5523 39.6571,-31.7495 52.7372,-53.876 l 2.9995,-5.0741 2.9993,5.0741 c 13.0802,22.1265 30.8926,40.3237 52.7374,53.876 3.3442,2.0746 6.6726,4.1451 7.3963,4.601 1.1559,0.7277 1.1559,0.9291 0,1.6571 -0.7237,0.4556 -4.0528,2.5253 -7.3981,4.5992 -11.5621,7.1683 -17.2672,11.7262 -27.8728,22.269 -10.6056,10.5427 -15.1909,16.214 -22.402,27.7077 -2.0862,3.3252 -4.1682,6.6346 -4.6268,7.3541 -0.732,1.1491 -0.9347,1.1491 -1.6667,0 z"
       style="fill:#fe0303;image-rendering:auto" />
    <path
       style="fill:#fe0303;image-rendering:auto"
       d="m 3191.1666,1613.1382 c -0.4586,-0.7195 -2.5405,-4.0289 -4.6269,-7.3541 -7.2111,-11.4937 -11.7964,-17.165 -22.4019,-27.7077 -10.6056,-10.5428 -16.3108,-15.1007 -27.8728,-22.269 -3.3454,-2.0739 -6.6744,-4.1436 -7.3981,-4.5992 -1.1559,-0.728 -1.1559,-0.9294 0,-1.6571 0.7237,-0.4559 4.0521,-2.5264 7.3964,-4.601 21.8447,-13.5523 39.6571,-31.7495 52.7372,-53.876 L 3192,1486 l 2.9993,5.0741 c 13.0802,22.1265 30.8926,40.3237 52.7374,53.876 3.3442,2.0746 6.6726,4.1451 7.3963,4.601 1.1559,0.7277 1.1559,0.9291 0,1.6571 -0.7237,0.4556 -4.0528,2.5253 -7.3981,4.5992 -11.5621,7.1683 -17.2672,11.7262 -27.8728,22.269 -10.6056,10.5427 -15.1909,16.214 -22.402,27.7077 -2.0862,3.3252 -4.1682,6.6346 -4.6268,7.3541 -0.732,1.1491 -0.9347,1.1491 -1.6667,0 z"
       id="path57133"
       inkscape:connector-curvature="0" />
    <path
       style="fill:#fe0303;image-rendering:auto"
       d="m 3043.1666,1934.1382 c -0.4586,-0.7195 -2.5405,-4.0289 -4.6269,-7.3541 -7.2111,-11.4937 -11.7964,-17.165 -22.4019,-27.7077 -10.6056,-10.5428 -16.3108,-15.1007 -27.8729,-22.269 -3.3453,-2.0739 -6.6743,-4.1436 -7.398,-4.5992 -1.1559,-0.728 -1.1559,-0.9294 0,-1.6571 0.7237,-0.4559 4.0521,-2.5264 7.3964,-4.601 21.8447,-13.5523 39.6571,-31.7495 52.7372,-53.876 L 3044,1807 l 2.9993,5.0741 c 13.0802,22.1265 30.8926,40.3237 52.7374,53.876 3.3442,2.0746 6.6726,4.1451 7.3963,4.601 1.1559,0.7277 1.1559,0.9291 0,1.6571 -0.7237,0.4556 -4.0528,2.5253 -7.3981,4.5992 -11.5621,7.1683 -17.2672,11.7262 -27.8728,22.269 -10.6056,10.5427 -15.1909,16.214 -22.402,27.7077 -2.0862,3.3252 -4.1682,6.6346 -4.6268,7.3541 -0.732,1.1491 -0.9347,1.1491 -1.6667,0 z"
       id="path57135"
       inkscape:connector-curvature="0" />
    <path
       inkscape:connector-curvature="0"
       id="path57137"
       d="m 3335.1666,1934.1382 c -0.4586,-0.7195 -2.5405,-4.0289 -4.6269,-7.3541 -7.2111,-11.4937 -11.7964,-17.165 -22.4019,-27.7077 -10.6056,-10.5428 -16.3108,-15.1007 -27.8728,-22.269 -3.3454,-2.0739 -6.6744,-4.1436 -7.3981,-4.5992 -1.1559,-0.728 -1.1559,-0.9294 0,-1.6571 0.7237,-0.4559 4.0521,-2.5264 7.3964,-4.601 21.8447,-13.5523 39.6571,-31.7495 52.7372,-53.876 L 3336,1807 l 2.9993,5.0741 c 13.0802,22.1265 30.8926,40.3237 52.7374,53.876 3.3442,2.0746 6.6726,4.1451 7.3963,4.601 1.1559,0.7277 1.1559,0.9291 0,1.6571 -0.7237,0.4556 -4.0528,2.5253 -7.3981,4.5992 -11.5621,7.1683 -17.2672,11.7262 -27.8728,22.269 -10.6056,10.5427 -15.1909,16.214 -22.402,27.7077 -2.0862,3.3252 -4.1682,6.6346 -4.6268,7.3541 -0.732,1.1491 -0.9347,1.1491 -1.6667,0 z"
       style="fill:#fe0303;image-rendering:auto" />
    <path
       style="fill:#fe0303;image-rendering:auto"
       d="m 2940.2343,1258.2419 c 0.129,0.2023 0.7145,1.1331 1.3013,2.0683 2.0282,3.2326 3.3178,4.8277 6.3006,7.7928 2.9828,2.9652 4.5874,4.2471 7.8392,6.2632 0.9409,0.5832 1.8772,1.1653 2.0808,1.2935 0.3251,0.2047 0.3251,0.2614 0,0.466 -0.2035,0.1283 -1.1397,0.7106 -2.0803,1.2941 -6.1439,3.8116 -11.1535,8.9295 -14.8324,15.1526 l -0.8436,1.4271 -0.8435,-1.4271 c -3.6789,-6.2231 -8.6886,-11.341 -14.8324,-15.1526 -0.9406,-0.5835 -1.8767,-1.1658 -2.0803,-1.2941 -0.325,-0.2046 -0.325,-0.2613 0,-0.466 0.2036,-0.1282 1.1399,-0.7103 2.0808,-1.2935 3.2518,-2.0161 4.8564,-3.298 7.8392,-6.2632 2.9828,-2.9651 4.2724,-4.5602 6.3006,-7.7928 0.5867,-0.9352 1.1723,-1.866 1.3012,-2.0683 0.2059,-0.3232 0.2629,-0.3232 0.4688,0 z"
       id="path57200"
       inkscape:connector-curvature="0" />
    <path
       inkscape:connector-curvature="0"
       id="path5609"
       d="m 3440.2343,1806.2419 c 0.129,0.2023 0.7145,1.1331 1.3013,2.0683 2.0282,3.2326 3.3178,4.8277 6.3006,7.7928 2.9828,2.9652 4.5874,4.2471 7.8392,6.2632 0.9409,0.5832 1.8772,1.1653 2.0808,1.2935 0.3251,0.2047 0.3251,0.2614 0,0.466 -0.2035,0.1283 -1.1397,0.7106 -2.0803,1.2941 -6.1439,3.8116 -11.1535,8.9295 -14.8324,15.1526 l -0.8436,1.4271 -0.8435,-1.4271 c -3.6789,-6.2231 -8.6886,-11.341 -14.8324,-15.1526 -0.9406,-0.5835 -1.8767,-1.1658 -2.0803,-1.2941 -0.325,-0.2046 -0.325,-0.2613 0,-0.466 0.2036,-0.1282 1.1399,-0.7103 2.0808,-1.2935 3.2518,-2.0161 4.8564,-3.298 7.8392,-6.2632 2.9828,-2.9651 4.2724,-4.5602 6.3006,-7.7928 0.5867,-0.9352 1.1723,-1.866 1.3012,-2.0683 0.2059,-0.3232 0.2629,-0.3232 0.4688,0 z"
       style="fill:#fe0303;image-rendering:auto" />
  </g>
</svg>
