<?xml version="1.0" encoding="UTF-8" standalone="no"?>
<svg
   sodipodi:docname="olsen-smygvanliga.svgz"
   inkscape:version="0.91 r13725"
   version="1.1"
   width="580"
   height="899.99939"
   viewBox="0 0 580.00003 899.99941"
   id="svg13084"
   xmlns:inkscape="http://www.inkscape.org/namespaces/inkscape"
   xmlns:sodipodi="http://sodipodi.sourceforge.net/DTD/sodipodi-0.dtd"
   xmlns="http://www.w3.org/2000/svg"
   xmlns:svg="http://www.w3.org/2000/svg"
   xmlns:rdf="http://www.w3.org/1999/02/22-rdf-syntax-ns#"
   xmlns:cc="http://creativecommons.org/ns#"
   xmlns:dc="http://purl.org/dc/elements/1.1/">
  <sodipodi:namedview
     inkscape:snap-global="true"
     inkscape:snap-bbox="true"
     inkscape:snap-to-guides="false"
     inkscape:snap-tangential="true"
     inkscape:snap-perpendicular="true"
     inkscape:snap-grids="false"
     inkscape:guide-bbox="true"
     showguides="true"
     inkscape:showpageshadow="false"
     inkscape:current-layer="svg13084"
     inkscape:window-maximized="1"
     inkscape:window-y="0"
     inkscape:window-x="0"
     inkscape:cy="2050"
     inkscape:cx="6058.3246"
     inkscape:zoom="0.17154909"
     fit-margin-right="100"
     fit-margin-left="100"
     fit-margin-bottom="100"
     fit-margin-top="100"
     showgrid="false"
     id="namedview7847"
     inkscape:window-height="1016"
     inkscape:window-width="1920"
     inkscape:pageshadow="2"
     inkscape:pageopacity="0"
     guidetolerance="35"
     gridtolerance="10"
     objecttolerance="20"
     borderopacity="1"
     bordercolor="#666666"
     pagecolor="#ffffff"
     inkscape:object-nodes="true"
     inkscape:pagecheckerboard="0"
     inkscape:deskcolor="#d1d1d1">
    <inkscape:grid
       originy="-1093.183"
       originx="-1198.8644"
       id="grid4407"
       type="xygrid"
       spacingy="1"
       spacingx="1"
       units="px"
       visible="false" />
  </sodipodi:namedview>
  <defs
     id="defs13142" />
  <metadata
     id="metadata13086">
    <rdf:RDF>
      <cc:Work
         about="">
        <dc:format>image/svg+xml</dc:format>
        <dc:type
           resource="http://purl.org/dc/dcmitype/StillImage"
           rdf:resource="http://purl.org/dc/dcmitype/StillImage" />
        <cc:license
           resource="http://www.gnu.org/licenses/lgpl.html" />
        <dc:title />
      </cc:Work>
    </rdf:RDF>
  </metadata>
  <g
     id="4_diamond"
     inkscape:label="#4_diamond"
     transform="translate(-2200,-1099.9997)">
    <rect
       width="578.00104"
       height="898.00043"
       rx="48.210754"
       ry="49.888176"
       x="2200.9995"
       y="1100.9991"
       id="rect56921"
       style="font-style:normal;font-variant:normal;font-weight:500;font-stretch:normal;font-size:medium;line-height:125%;font-family:Gaelic;-inkscape-font-specification:'Gaelic Medium';letter-spacing:0px;word-spacing:0px;fill:#ffffff;fill-opacity:1;stroke:#000000;stroke-width:1.99898;stroke-linecap:butt;stroke-linejoin:miter;stroke-miterlimit:4;stroke-dasharray:none;stroke-opacity:1" />
    <rect
       style="fill:#ffffff;stroke:#000000;stroke-width:1.45227"
       id="rect56923"
       y="1140.8112"
       x="2240.7261"
       ry="45.46946"
       rx="41.590328"
       height="818.4624"
       width="498.62833" />
    <rect
       width="49.834087"
       height="119.81402"
       rx="4.1566348"
       ry="6.6562366"
       x="2215.0879"
       y="1180.0978"
       id="rect56925"
       style="fill:#ffffff;stroke:#000000;stroke-width:0.175661;stroke-opacity:1" />
    <rect
       style="fill:#ffffff;stroke:#000000;stroke-width:0.175661;stroke-opacity:1"
       id="rect56927"
       y="-1919.901"
       x="-2764.9219"
       ry="6.6562366"
       rx="4.1566348"
       height="119.81402"
       width="49.834087"
       transform="scale(-1)" />
    <path
       d="m 2260,1226.3237 v 6.156 h -7.9044 V 1248 h -7.1662 v -15.5203 H 2220 v -5.5491 L 2247.3181,1188 h 4.7775 v 38.3237 z m -15.0706,0 v -29.1763 l -20.6732,29.1763 z"
       id="path56999"
       inkscape:connector-curvature="0"
       style="font-style:normal;font-variant:normal;font-weight:normal;font-stretch:normal;font-size:medium;line-height:125%;font-family:'Times New Roman';-inkscape-font-specification:'Times New Roman, ';letter-spacing:0px;word-spacing:0px;fill:#ff0000;fill-opacity:1;stroke:none;stroke-width:1px;stroke-linecap:butt;stroke-linejoin:miter;stroke-opacity:1" />
    <path
       inkscape:connector-curvature="0"
       id="path57035"
       d="m 2720.0001,1873.6762 v -6.156 h 7.9044 v -15.5203 h 7.1662 v 15.5203 h 24.9294 v 5.5491 l -27.3181,38.9306 h -4.7775 v -38.3237 z m 15.0706,0 v 29.1763 l 20.6731,-29.1763 z"
       style="font-style:normal;font-variant:normal;font-weight:normal;font-stretch:normal;font-size:medium;line-height:125%;font-family:'Times New Roman';-inkscape-font-specification:'Times New Roman, ';letter-spacing:0px;word-spacing:0px;fill:#ff0000;fill-opacity:1;stroke:none;stroke-width:1px;stroke-linecap:butt;stroke-linejoin:miter;stroke-opacity:1" />
    <path
       inkscape:connector-curvature="0"
       id="path57145"
       d="m 2343.1666,1292.1377 c -0.4586,-0.7195 -2.5405,-4.0289 -4.6269,-7.3541 -7.2111,-11.4937 -11.7964,-17.165 -22.4019,-27.7077 -10.6056,-10.5428 -16.3108,-15.1007 -27.8729,-22.269 -3.3453,-2.0739 -6.6743,-4.1436 -7.398,-4.5992 -1.1559,-0.728 -1.1559,-0.9294 0,-1.6571 0.7237,-0.4559 4.0521,-2.5264 7.3964,-4.601 21.8447,-13.5523 39.6571,-31.7495 52.7372,-53.876 l 2.9995,-5.0741 2.9993,5.0741 c 13.0802,22.1265 30.8926,40.3237 52.7374,53.876 3.3442,2.0746 6.6726,4.1451 7.3963,4.601 1.1559,0.7277 1.1559,0.9291 0,1.6571 -0.7237,0.4556 -4.0528,2.5253 -7.3981,4.5992 -11.5621,7.1683 -17.2672,11.7262 -27.8728,22.269 -10.6056,10.5427 -15.1909,16.214 -22.402,27.7077 -2.0862,3.3252 -4.1682,6.6346 -4.6268,7.3541 -0.732,1.1491 -0.9347,1.1491 -1.6667,0 z"
       style="fill:#fe0303;image-rendering:auto" />
    <path
       style="fill:#fe0303;image-rendering:auto"
       d="m 2635.1666,1292.1377 c -0.4586,-0.7195 -2.5405,-4.0289 -4.6269,-7.3541 -7.2111,-11.4937 -11.7964,-17.165 -22.4019,-27.7077 -10.6056,-10.5428 -16.3108,-15.1007 -27.8728,-22.269 -3.3454,-2.0739 -6.6744,-4.1436 -7.3981,-4.5992 -1.1559,-0.728 -1.1559,-0.9294 0,-1.6571 0.7237,-0.4559 4.0521,-2.5264 7.3964,-4.601 21.8447,-13.5523 39.6571,-31.7495 52.7372,-53.876 l 2.9995,-5.0741 2.9993,5.0741 c 13.0802,22.1265 30.8926,40.3237 52.7374,53.876 3.3442,2.0746 6.6726,4.1451 7.3963,4.601 1.1559,0.7277 1.1559,0.9291 0,1.6571 -0.7237,0.4556 -4.0528,2.5253 -7.3981,4.5992 -11.5621,7.1683 -17.2672,11.7262 -27.8728,22.269 -10.6056,10.5427 -15.1909,16.214 -22.402,27.7077 -2.0862,3.3252 -4.1682,6.6346 -4.6268,7.3541 -0.732,1.1491 -0.9347,1.1491 -1.6667,0 z"
       id="path57147"
       inkscape:connector-curvature="0" />
    <path
       inkscape:connector-curvature="0"
       id="path57151"
       d="m 2343.1666,1934.1382 c -0.4586,-0.7195 -2.5405,-4.0289 -4.6269,-7.3541 -7.2111,-11.4937 -11.7964,-17.165 -22.4019,-27.7077 -10.6056,-10.5428 -16.3108,-15.1007 -27.8729,-22.269 -3.3453,-2.0739 -6.6743,-4.1436 -7.398,-4.5992 -1.1559,-0.728 -1.1559,-0.9294 0,-1.6571 0.7237,-0.4559 4.0521,-2.5264 7.3964,-4.601 21.8447,-13.5523 39.6571,-31.7495 52.7372,-53.876 L 2344,1807 l 2.9993,5.0741 c 13.0802,22.1265 30.8926,40.3237 52.7374,53.876 3.3442,2.0746 6.6726,4.1451 7.3963,4.601 1.1559,0.7277 1.1559,0.9291 0,1.6571 -0.7237,0.4556 -4.0528,2.5253 -7.3981,4.5992 -11.5621,7.1683 -17.2672,11.7262 -27.8728,22.269 -10.6056,10.5427 -15.1909,16.214 -22.402,27.7077 -2.0862,3.3252 -4.1682,6.6346 -4.6268,7.3541 -0.732,1.1491 -0.9347,1.1491 -1.6667,0 z"
       style="fill:#fe0303;image-rendering:auto" />
    <path
       style="fill:#fe0303;image-rendering:auto"
       d="m 2635.1666,1934.1382 c -0.4586,-0.7195 -2.5405,-4.0289 -4.6269,-7.3541 -7.2111,-11.4937 -11.7964,-17.165 -22.4019,-27.7077 -10.6056,-10.5428 -16.3108,-15.1007 -27.8728,-22.269 -3.3454,-2.0739 -6.6744,-4.1436 -7.3981,-4.5992 -1.1559,-0.728 -1.1559,-0.9294 0,-1.6571 0.7237,-0.4559 4.0521,-2.5264 7.3964,-4.601 21.8447,-13.5523 39.6571,-31.7495 52.7372,-53.876 L 2636,1807 l 2.9993,5.0741 c 13.0802,22.1265 30.8926,40.3237 52.7374,53.876 3.3442,2.0746 6.6726,4.1451 7.3963,4.601 1.1559,0.7277 1.1559,0.9291 0,1.6571 -0.7237,0.4556 -4.0528,2.5253 -7.3981,4.5992 -11.5621,7.1683 -17.2672,11.7262 -27.8728,22.269 -10.6056,10.5427 -15.1909,16.214 -22.402,27.7077 -2.0862,3.3252 -4.1682,6.6346 -4.6268,7.3541 -0.732,1.1491 -0.9347,1.1491 -1.6667,0 z"
       id="path57153"
       inkscape:connector-curvature="0" />
    <path
       inkscape:connector-curvature="0"
       id="path57198"
       d="m 2240.2442,1258.2419 c 0.129,0.2023 0.7145,1.1331 1.3013,2.0683 2.0282,3.2326 3.3178,4.8277 6.3006,7.7928 2.9828,2.9652 4.5874,4.2471 7.8392,6.2632 0.9409,0.5832 1.8772,1.1653 2.0808,1.2935 0.3251,0.2047 0.3251,0.2614 0,0.466 -0.2035,0.1283 -1.1397,0.7106 -2.0803,1.2941 -6.1439,3.8116 -11.1535,8.9295 -14.8324,15.1526 l -0.8436,1.4271 -0.8435,-1.4271 c -3.6789,-6.2231 -8.6886,-11.341 -14.8324,-15.1526 -0.9406,-0.5835 -1.8767,-1.1658 -2.0803,-1.2941 -0.325,-0.2046 -0.325,-0.2613 0,-0.466 0.2036,-0.1282 1.1399,-0.7103 2.0808,-1.2935 3.2518,-2.0161 4.8564,-3.298 7.8392,-6.2632 2.9828,-2.9651 4.2724,-4.5602 6.3006,-7.7928 0.5867,-0.9352 1.1723,-1.866 1.3012,-2.0683 0.2059,-0.3232 0.2629,-0.3232 0.4688,0 z"
       style="fill:#fe0303;image-rendering:auto" />
    <path
       style="fill:#fe0303;image-rendering:auto"
       d="m 2740.2442,1806.2419 c 0.129,0.2023 0.7145,1.1331 1.3013,2.0683 2.0282,3.2326 3.3178,4.8277 6.3006,7.7928 2.9828,2.9652 4.5874,4.2471 7.8392,6.2632 0.9409,0.5832 1.8772,1.1653 2.0808,1.2935 0.3251,0.2047 0.3251,0.2614 0,0.466 -0.2035,0.1283 -1.1397,0.7106 -2.0803,1.2941 -6.1439,3.8116 -11.1535,8.9295 -14.8324,15.1526 l -0.8436,1.4271 -0.8435,-1.4271 c -3.6789,-6.2231 -8.6886,-11.341 -14.8324,-15.1526 -0.9406,-0.5835 -1.8767,-1.1658 -2.0803,-1.2941 -0.325,-0.2046 -0.325,-0.2613 0,-0.466 0.2036,-0.1282 1.1399,-0.7103 2.0808,-1.2935 3.2518,-2.0161 4.8564,-3.298 7.8392,-6.2632 2.9828,-2.9651 4.2724,-4.5602 6.3006,-7.7928 0.5867,-0.9352 1.1723,-1.866 1.3012,-2.0683 0.2059,-0.3232 0.2629,-0.3232 0.4688,0 z"
       id="path5607"
       inkscape:connector-curvature="0" />
  </g>
</svg>
