<?xml version="1.0" encoding="UTF-8" standalone="no"?>
<svg
   sodipodi:docname="olsen-smygvanliga.svgz"
   inkscape:version="0.91 r13725"
   version="1.1"
   width="580"
   height="899.99939"
   viewBox="0 0 580.00003 899.99941"
   id="svg13084"
   xmlns:inkscape="http://www.inkscape.org/namespaces/inkscape"
   xmlns:sodipodi="http://sodipodi.sourceforge.net/DTD/sodipodi-0.dtd"
   xmlns="http://www.w3.org/2000/svg"
   xmlns:svg="http://www.w3.org/2000/svg"
   xmlns:rdf="http://www.w3.org/1999/02/22-rdf-syntax-ns#"
   xmlns:cc="http://creativecommons.org/ns#"
   xmlns:dc="http://purl.org/dc/elements/1.1/">
  <sodipodi:namedview
     inkscape:snap-global="true"
     inkscape:snap-bbox="true"
     inkscape:snap-to-guides="false"
     inkscape:snap-tangential="true"
     inkscape:snap-perpendicular="true"
     inkscape:snap-grids="false"
     inkscape:guide-bbox="true"
     showguides="true"
     inkscape:showpageshadow="false"
     inkscape:current-layer="svg13084"
     inkscape:window-maximized="1"
     inkscape:window-y="0"
     inkscape:window-x="0"
     inkscape:cy="2050"
     inkscape:cx="6058.3246"
     inkscape:zoom="0.17154909"
     fit-margin-right="100"
     fit-margin-left="100"
     fit-margin-bottom="100"
     fit-margin-top="100"
     showgrid="false"
     id="namedview7847"
     inkscape:window-height="1016"
     inkscape:window-width="1920"
     inkscape:pageshadow="2"
     inkscape:pageopacity="0"
     guidetolerance="35"
     gridtolerance="10"
     objecttolerance="20"
     borderopacity="1"
     bordercolor="#666666"
     pagecolor="#ffffff"
     inkscape:object-nodes="true"
     inkscape:pagecheckerboard="0"
     inkscape:deskcolor="#d1d1d1">
    <inkscape:grid
       originy="-93.182944"
       originx="-3298.8644"
       id="grid4407"
       type="xygrid"
       spacingy="1"
       spacingx="1"
       units="px"
       visible="false" />
  </sodipodi:namedview>
  <defs
     id="defs13142" />
  <metadata
     id="metadata13086">
    <rdf:RDF>
      <cc:Work
         about="">
        <dc:format>image/svg+xml</dc:format>
        <dc:type
           resource="http://purl.org/dc/dcmitype/StillImage"
           rdf:resource="http://purl.org/dc/dcmitype/StillImage" />
        <cc:license
           resource="http://www.gnu.org/licenses/lgpl.html" />
        <dc:title />
      </cc:Work>
    </rdf:RDF>
  </metadata>
  <g
     id="7_heart"
     inkscape:label="#7_heart"
     transform="translate(-4300,-99.999589)">
    <rect
       width="578.00104"
       height="898.00043"
       rx="48.210754"
       ry="49.888176"
       x="4300.9995"
       y="100.99908"
       id="rect6973"
       style="font-style:normal;font-variant:normal;font-weight:500;font-stretch:normal;font-size:medium;line-height:125%;font-family:Gaelic;-inkscape-font-specification:'Gaelic Medium';letter-spacing:0px;word-spacing:0px;fill:#ffffff;fill-opacity:1;stroke:#000000;stroke-width:1.99898;stroke-linecap:butt;stroke-linejoin:miter;stroke-miterlimit:4;stroke-dasharray:none;stroke-opacity:1" />
    <rect
       style="fill:#ffffff;stroke:#000000;stroke-width:1.45227"
       id="rect6975"
       y="140.8111"
       x="4340.7261"
       ry="45.46946"
       rx="41.590328"
       height="818.4624"
       width="498.62833" />
    <rect
       width="49.834087"
       height="119.81402"
       rx="4.1566348"
       ry="6.6562366"
       x="4315.0879"
       y="180.09772"
       id="rect6977"
       style="fill:#ffffff;stroke:#000000;stroke-width:0.175661;stroke-opacity:1" />
    <rect
       style="fill:#ffffff;stroke:#000000;stroke-width:0.175661;stroke-opacity:1"
       id="rect6979"
       y="-919.90094"
       x="-4864.9219"
       ry="6.6562366"
       rx="4.1566348"
       height="119.81402"
       width="49.834087"
       transform="scale(-1)" />
    <path
       inkscape:connector-curvature="0"
       id="path6981"
       d="m 4424.1139,272.25518 c -41.6318,-43.62644 -53.8401,-75.94725 -36.44,-96.47286 12.0997,-14.27298 33.2449,-14.39118 46.8826,-0.26207 8.4723,8.77765 10.4353,8.77765 18.9076,0 13.6377,-14.12911 34.7829,-14.01091 46.8825,0.26207 17.4261,20.55625 5.0382,53.2482 -36.5925,96.56842 L 4443.9102,293 Z"
       style="fill:#ff0000" />
    <path
       style="fill:#ff0000"
       d="m 4424.1139,827.74484 c -41.6318,43.62644 -53.8401,75.94725 -36.44,96.47286 12.0997,14.27298 33.2449,14.39118 46.8826,0.26207 8.4723,-8.77765 10.4353,-8.77765 18.9076,0 13.6377,14.12911 34.7829,14.01091 46.8825,-0.26207 17.4261,-20.55625 5.0382,-53.2482 -36.5925,-96.56842 l -19.8439,-20.64926 z"
       id="path6983"
       inkscape:connector-curvature="0" />
    <path
       style="fill:#ff0000"
       d="m 4716.1139,272.25518 c -41.6318,-43.62644 -53.8401,-75.94725 -36.44,-96.47286 12.0997,-14.27298 33.2449,-14.39118 46.8826,-0.26207 8.4723,8.77765 10.4353,8.77765 18.9076,0 13.6377,-14.12911 34.7829,-14.01091 46.8825,0.26207 17.4261,20.55625 5.0382,53.2482 -36.5925,96.56842 L 4735.9102,293 Z"
       id="path6985"
       inkscape:connector-curvature="0" />
    <path
       inkscape:connector-curvature="0"
       id="path6987"
       d="m 4716.1139,593.25518 c -41.6318,-43.62644 -53.8401,-75.94725 -36.44,-96.47286 12.0997,-14.27298 33.2449,-14.39118 46.8826,-0.26207 8.4723,8.77765 10.4353,8.77765 18.9076,0 13.6377,-14.12911 34.7829,-14.01091 46.8825,0.26207 17.4261,20.55625 5.0382,53.2482 -36.5925,96.56842 L 4735.9102,614 Z"
       style="fill:#ff0000" />
    <path
       inkscape:connector-curvature="0"
       id="path6989"
       d="m 4716.1139,827.74484 c -41.6318,43.62644 -53.8401,75.94725 -36.44,96.47286 12.0997,14.27298 33.2449,14.39118 46.8826,0.26207 8.4723,-8.77765 10.4353,-8.77765 18.9076,0 13.6377,14.12911 34.7829,14.01091 46.8825,-0.26207 17.4261,-20.55625 5.0382,-53.2482 -36.5925,-96.56842 l -19.8439,-20.64926 z"
       style="fill:#ff0000" />
    <path
       inkscape:connector-curvature="0"
       id="path6991"
       d="m 4424.1139,593.25518 c -41.6318,-43.62644 -53.8401,-75.94725 -36.44,-96.47286 12.0997,-14.27298 33.2449,-14.39118 46.8826,-0.26207 8.4723,8.77765 10.4353,8.77765 18.9076,0 13.6377,-14.12911 34.7829,-14.01091 46.8825,0.26207 17.4261,20.55625 5.0382,53.2482 -36.5925,96.56842 L 4443.9102,614 Z"
       style="fill:#ff0000" />
    <path
       inkscape:connector-curvature="0"
       id="path6993"
       d="m 4334.453,288.16552 c -11.7089,-12.26994 -15.1425,-21.36017 -10.2487,-27.133 3.4031,-4.01427 9.3501,-4.04752 13.1857,-0.0737 2.3829,2.46872 2.9349,2.46872 5.3178,0 3.8356,-3.97381 9.7827,-3.94056 13.1857,0.0737 4.9011,5.78145 1.417,14.97606 -10.2916,27.15988 L 4340.0207,294 Z"
       style="fill:#ff0000" />
    <path
       style="fill:#ff0000"
       d="m 4845.593,811.83422 c 11.7089,12.27 15.1425,21.3602 10.2487,27.133 -3.4031,4.0143 -9.3501,4.0476 -13.1857,0.074 -2.3829,-2.4687 -2.9349,-2.4687 -5.3178,0 -3.8356,3.9738 -9.7827,3.9406 -13.1857,-0.074 -4.9011,-5.7814 -1.417,-14.976 10.2916,-27.1598 l 5.5812,-5.8076 z"
       id="path6995"
       inkscape:connector-curvature="0" />
    <path
       style="fill:#ff0000"
       d="m 4572.1139,432.75518 c -41.6318,-43.62644 -53.8401,-75.94725 -36.44,-96.47286 12.0997,-14.27298 33.2449,-14.39118 46.8826,-0.26207 8.4723,8.77765 10.4353,8.77765 18.9076,0 13.6377,-14.12911 34.7829,-14.01091 46.8825,0.26207 17.4261,20.55625 5.0382,53.2482 -36.5925,96.56842 L 4591.9102,453.5 Z"
       id="path7014"
       inkscape:connector-curvature="0" />
    <path
       inkscape:connector-curvature="0"
       id="path7296"
       d="M 4326.0676,188 H 4360 v 1.6474 L 4338.9031,248 h -5.2275 l 18.9032,-52.93352 h -17.4095 q -5.2744,0 -7.5147,1.17052 -3.9207,1.99422 -6.301,6.15607 L 4320,201.91619 Z"
       style="font-style:normal;font-variant:normal;font-weight:normal;font-stretch:normal;font-size:medium;line-height:125%;font-family:'Times New Roman';-inkscape-font-specification:'Times New Roman, ';letter-spacing:0px;word-spacing:0px;fill:#ff0000;fill-opacity:1;stroke:none;stroke-width:1px;stroke-linecap:butt;stroke-linejoin:miter;stroke-opacity:1" />
    <path
       d="M 4853.9324,911.99997 H 4820 v -1.6474 l 21.0969,-58.3526 h 5.2275 l -18.9032,52.93352 h 17.4095 q 5.2744,0 7.5147,-1.17052 3.9207,-1.99422 6.301,-6.15607 l 1.3536,0.47688 z"
       id="path7346"
       inkscape:connector-curvature="0"
       style="font-style:normal;font-variant:normal;font-weight:normal;font-stretch:normal;font-size:medium;line-height:125%;font-family:'Times New Roman';-inkscape-font-specification:'Times New Roman, ';letter-spacing:0px;word-spacing:0px;fill:#ff0000;fill-opacity:1;stroke:none;stroke-width:1px;stroke-linecap:butt;stroke-linejoin:miter;stroke-opacity:1" />
  </g>
</svg>
