<?xml version="1.0" encoding="UTF-8" standalone="no"?>
<svg
   sodipodi:docname="olsen-smygvanliga.svgz"
   inkscape:version="0.91 r13725"
   version="1.1"
   width="580"
   height="899.99939"
   viewBox="0 0 580.00003 899.99941"
   id="svg13084"
   xmlns:inkscape="http://www.inkscape.org/namespaces/inkscape"
   xmlns:sodipodi="http://sodipodi.sourceforge.net/DTD/sodipodi-0.dtd"
   xmlns="http://www.w3.org/2000/svg"
   xmlns:svg="http://www.w3.org/2000/svg"
   xmlns:rdf="http://www.w3.org/1999/02/22-rdf-syntax-ns#"
   xmlns:cc="http://creativecommons.org/ns#"
   xmlns:dc="http://purl.org/dc/elements/1.1/">
  <sodipodi:namedview
     inkscape:snap-global="true"
     inkscape:snap-bbox="true"
     inkscape:snap-to-guides="false"
     inkscape:snap-tangential="true"
     inkscape:snap-perpendicular="true"
     inkscape:snap-grids="false"
     inkscape:guide-bbox="true"
     showguides="true"
     inkscape:showpageshadow="false"
     inkscape:current-layer="svg13084"
     inkscape:window-maximized="1"
     inkscape:window-y="0"
     inkscape:window-x="0"
     inkscape:cy="2050"
     inkscape:cx="6058.3246"
     inkscape:zoom="0.17154909"
     fit-margin-right="100"
     fit-margin-left="100"
     fit-margin-bottom="100"
     fit-margin-top="100"
     showgrid="false"
     id="namedview7847"
     inkscape:window-height="1016"
     inkscape:window-width="1920"
     inkscape:pageshadow="2"
     inkscape:pageopacity="0"
     guidetolerance="35"
     gridtolerance="10"
     objecttolerance="20"
     borderopacity="1"
     bordercolor="#666666"
     pagecolor="#ffffff"
     inkscape:object-nodes="true"
     inkscape:pagecheckerboard="0"
     inkscape:deskcolor="#d1d1d1">
    <inkscape:grid
       originy="-93.182944"
       originx="-1898.8644"
       id="grid4407"
       type="xygrid"
       spacingy="1"
       spacingx="1"
       units="px"
       visible="false" />
  </sodipodi:namedview>
  <defs
     id="defs13142" />
  <metadata
     id="metadata13086">
    <rdf:RDF>
      <cc:Work
         about="">
        <dc:format>image/svg+xml</dc:format>
        <dc:type
           resource="http://purl.org/dc/dcmitype/StillImage"
           rdf:resource="http://purl.org/dc/dcmitype/StillImage" />
        <cc:license
           resource="http://www.gnu.org/licenses/lgpl.html" />
        <dc:title />
      </cc:Work>
    </rdf:RDF>
  </metadata>
  <g
     id="5_heart"
     inkscape:label="#5_heart"
     transform="translate(-2900,-99.999589)">
    <rect
       width="578.00104"
       height="898.00043"
       rx="48.210754"
       ry="49.888176"
       x="2900.9995"
       y="100.99908"
       id="rect7053"
       style="font-style:normal;font-variant:normal;font-weight:500;font-stretch:normal;font-size:medium;line-height:125%;font-family:Gaelic;-inkscape-font-specification:'Gaelic Medium';letter-spacing:0px;word-spacing:0px;fill:#ffffff;fill-opacity:1;stroke:#000000;stroke-width:1.99898;stroke-linecap:butt;stroke-linejoin:miter;stroke-miterlimit:4;stroke-dasharray:none;stroke-opacity:1" />
    <rect
       style="fill:#ffffff;stroke:#000000;stroke-width:1.45227"
       id="rect7055"
       y="140.8111"
       x="2940.7261"
       ry="45.46946"
       rx="41.590328"
       height="818.4624"
       width="498.62833" />
    <rect
       width="49.834087"
       height="119.81402"
       rx="4.1566348"
       ry="6.6562366"
       x="2915.0879"
       y="180.09772"
       id="rect7057"
       style="fill:#ffffff;stroke:#000000;stroke-width:0.175661;stroke-opacity:1" />
    <rect
       style="fill:#ffffff;stroke:#000000;stroke-width:0.175661;stroke-opacity:1"
       id="rect7059"
       y="-919.90094"
       x="-3464.9219"
       ry="6.6562366"
       rx="4.1566348"
       height="119.81402"
       width="49.834087"
       transform="scale(-1)" />
    <path
       inkscape:connector-curvature="0"
       id="path7061"
       d="m 3024.1139,272.25518 c -41.6318,-43.62644 -53.8401,-75.94725 -36.44,-96.47286 12.0997,-14.27298 33.2449,-14.39118 46.8826,-0.26207 8.4723,8.77765 10.4353,8.77765 18.9076,0 13.6377,-14.12911 34.7829,-14.01091 46.8825,0.26207 17.4261,20.55625 5.0382,53.2482 -36.5925,96.56842 L 3043.9102,293 Z"
       style="fill:#ff0000" />
    <path
       style="fill:#ff0000"
       d="m 3024.1139,827.74484 c -41.6318,43.62644 -53.8401,75.94725 -36.44,96.47286 12.0997,14.27298 33.2449,14.39118 46.8826,0.26207 8.4723,-8.77765 10.4353,-8.77765 18.9076,0 13.6377,14.12911 34.7829,14.01091 46.8825,-0.26207 17.4261,-20.55625 5.0382,-53.2482 -36.5925,-96.56842 l -19.8439,-20.64926 z"
       id="path7063"
       inkscape:connector-curvature="0" />
    <path
       style="fill:#ff0000"
       d="m 3316.1139,272.25518 c -41.6318,-43.62644 -53.8401,-75.94725 -36.44,-96.47286 12.0997,-14.27298 33.2449,-14.39118 46.8826,-0.26207 8.4723,8.77765 10.4353,8.77765 18.9076,0 13.6377,-14.12911 34.7829,-14.01091 46.8825,0.26207 17.4261,20.55625 5.0382,53.2482 -36.5925,96.56842 L 3335.9102,293 Z"
       id="path7065"
       inkscape:connector-curvature="0" />
    <path
       inkscape:connector-curvature="0"
       id="path7069"
       d="m 3316.1139,827.74484 c -41.6318,43.62644 -53.8401,75.94725 -36.44,96.47286 12.0997,14.27298 33.2449,14.39118 46.8826,0.26207 8.4723,-8.77765 10.4353,-8.77765 18.9076,0 13.6377,14.12911 34.7829,14.01091 46.8825,-0.26207 17.4261,-20.55625 5.0382,-53.2482 -36.5925,-96.56842 l -19.8439,-20.64926 z"
       style="fill:#ff0000" />
    <path
       inkscape:connector-curvature="0"
       id="path7071"
       d="m 3172.1139,593.25518 c -41.6318,-43.62644 -53.8401,-75.94725 -36.44,-96.47286 12.0997,-14.27298 33.2449,-14.39118 46.8826,-0.26207 8.4723,8.77765 10.4353,8.77765 18.9076,0 13.6377,-14.12911 34.7829,-14.01091 46.8825,0.26207 17.4261,20.55625 5.0382,53.2482 -36.5925,96.56842 L 3191.9102,614 Z"
       style="fill:#ff0000" />
    <path
       inkscape:connector-curvature="0"
       id="path7073"
       d="m 2934.453,288.16552 c -11.7089,-12.26994 -15.1425,-21.36017 -10.2487,-27.133 3.4031,-4.01427 9.3501,-4.04752 13.1857,-0.0737 2.3829,2.46872 2.9349,2.46872 5.3178,0 3.8356,-3.97381 9.7827,-3.94056 13.1857,0.0737 4.9011,5.78145 1.417,14.97606 -10.2916,27.15988 L 2940.0207,294 Z"
       style="fill:#ff0000" />
    <path
       style="fill:#ff0000"
       d="m 3445.593,811.83422 c 11.7089,12.27 15.1425,21.3602 10.2487,27.133 -3.4031,4.0143 -9.3501,4.0476 -13.1857,0.074 -2.3829,-2.4687 -2.9349,-2.4687 -5.3178,0 -3.8356,3.9738 -9.7827,3.9406 -13.1857,-0.074 -4.9011,-5.7814 -1.417,-14.976 10.2916,-27.1598 l 5.5812,-5.8076 z"
       id="path7075"
       inkscape:connector-curvature="0" />
    <path
       inkscape:connector-curvature="0"
       id="path7274"
       d="m 2960,188 -3.9445,7.39131 h -20.6321 l -4.5006,7.91304 q 13.4008,1.69565 21.2389,8.56522 6.7257,5.91304 6.7257,13.91304 0,4.65217 -2.225,8.60869 -2.1745,3.95653 -5.5121,6.73913 -3.3374,2.78261 -7.4336,4.47826 Q 2937.9013,248 2931.7825,248 q -6.1693,0 -9.0012,-1.78261 -2.7813,-1.82609 -2.7813,-4 0,-1.21739 1.1631,-2.13043 1.1631,-0.95653 2.933,-0.95653 1.3148,0 2.2756,0.34783 1.0114,0.34783 3.3881,1.78261 3.7926,2.26087 7.6864,2.26087 5.9165,0 10.3667,-3.82609 4.5006,-3.86956 4.5006,-9.3913 0,-5.34783 -3.9949,-9.95652 -3.995,-4.65218 -11.0241,-7.17392 -5.512,-1.95651 -15.0189,-2.26086 L 2935.4234,188 Z"
       style="font-style:normal;font-variant:normal;font-weight:normal;font-stretch:normal;font-size:medium;line-height:125%;font-family:'Times New Roman';-inkscape-font-specification:'Times New Roman, ';letter-spacing:0px;word-spacing:0px;fill:#ff0000;fill-opacity:1;stroke:none;stroke-width:1px;stroke-linecap:butt;stroke-linejoin:miter;stroke-opacity:1" />
    <path
       d="m 3419.9999,911.9999 3.9445,-7.39131 h 20.6321 l 4.5006,-7.91304 q -13.4008,-1.69565 -21.2389,-8.56522 -6.7257,-5.91304 -6.7257,-13.91304 0,-4.65217 2.225,-8.60869 2.1745,-3.95653 5.5121,-6.73913 3.3374,-2.78261 7.4336,-4.47826 5.8154,-2.39131 11.9342,-2.39131 6.1693,0 9.0012,1.78261 2.7813,1.82609 2.7813,4 0,1.21739 -1.1631,2.13043 -1.1631,0.95653 -2.933,0.95653 -1.3148,0 -2.2756,-0.34783 -1.0114,-0.34783 -3.3881,-1.78261 -3.7926,-2.26087 -7.6864,-2.26087 -5.9165,0 -10.3667,3.82609 -4.5006,3.86956 -4.5006,9.3913 0,5.34783 3.9949,9.95652 3.995,4.65218 11.0241,7.17392 5.512,1.95651 15.0189,2.26086 l -13.1478,22.91305 z"
       id="path7338"
       inkscape:connector-curvature="0"
       style="font-style:normal;font-variant:normal;font-weight:normal;font-stretch:normal;font-size:medium;line-height:125%;font-family:'Times New Roman';-inkscape-font-specification:'Times New Roman, ';letter-spacing:0px;word-spacing:0px;fill:#ff0000;fill-opacity:1;stroke:none;stroke-width:1px;stroke-linecap:butt;stroke-linejoin:miter;stroke-opacity:1" />
  </g>
</svg>
