<?xml version="1.0" encoding="UTF-8" standalone="no"?>
<svg
   sodipodi:docname="olsen-smygvanliga.svgz"
   inkscape:version="0.91 r13725"
   version="1.1"
   width="580"
   height="899.99939"
   viewBox="0 0 580.00003 899.99941"
   id="svg13084"
   xmlns:inkscape="http://www.inkscape.org/namespaces/inkscape"
   xmlns:sodipodi="http://sodipodi.sourceforge.net/DTD/sodipodi-0.dtd"
   xmlns="http://www.w3.org/2000/svg"
   xmlns:svg="http://www.w3.org/2000/svg"
   xmlns:rdf="http://www.w3.org/1999/02/22-rdf-syntax-ns#"
   xmlns:cc="http://creativecommons.org/ns#"
   xmlns:dc="http://purl.org/dc/elements/1.1/">
  <sodipodi:namedview
     inkscape:snap-global="true"
     inkscape:snap-bbox="true"
     inkscape:snap-to-guides="false"
     inkscape:snap-tangential="true"
     inkscape:snap-perpendicular="true"
     inkscape:snap-grids="false"
     inkscape:guide-bbox="true"
     showguides="true"
     inkscape:showpageshadow="false"
     inkscape:current-layer="svg13084"
     inkscape:window-maximized="1"
     inkscape:window-y="0"
     inkscape:window-x="0"
     inkscape:cy="2050"
     inkscape:cx="6058.3246"
     inkscape:zoom="0.17154909"
     fit-margin-right="100"
     fit-margin-left="100"
     fit-margin-bottom="100"
     fit-margin-top="100"
     showgrid="false"
     id="namedview7847"
     inkscape:window-height="1016"
     inkscape:window-width="1920"
     inkscape:pageshadow="2"
     inkscape:pageopacity="0"
     guidetolerance="35"
     gridtolerance="10"
     objecttolerance="20"
     borderopacity="1"
     bordercolor="#666666"
     pagecolor="#ffffff"
     inkscape:object-nodes="true"
     inkscape:pagecheckerboard="0"
     inkscape:deskcolor="#d1d1d1">
    <inkscape:grid
       originy="-93.182944"
       originx="901.13562"
       id="grid4407"
       type="xygrid"
       spacingy="1"
       spacingx="1"
       units="px"
       visible="false" />
  </sodipodi:namedview>
  <defs
     id="defs13142" />
  <metadata
     id="metadata13086">
    <rdf:RDF>
      <cc:Work
         about="">
        <dc:format>image/svg+xml</dc:format>
        <dc:type
           resource="http://purl.org/dc/dcmitype/StillImage"
           rdf:resource="http://purl.org/dc/dcmitype/StillImage" />
        <cc:license
           resource="http://www.gnu.org/licenses/lgpl.html" />
        <dc:title />
      </cc:Work>
    </rdf:RDF>
  </metadata>
  <g
     id="1_heart"
     inkscape:label="#1_heart"
     transform="translate(-100,-99.999589)">
    <rect
       width="578.00104"
       height="898.00043"
       rx="48.210754"
       ry="49.888176"
       x="100.99949"
       y="100.99908"
       id="rect7173"
       style="font-style:normal;font-variant:normal;font-weight:500;font-stretch:normal;font-size:medium;line-height:125%;font-family:Gaelic;-inkscape-font-specification:'Gaelic Medium';letter-spacing:0px;word-spacing:0px;fill:#ffffff;fill-opacity:1;stroke:#000000;stroke-width:1.99898;stroke-linecap:butt;stroke-linejoin:miter;stroke-miterlimit:4;stroke-dasharray:none;stroke-opacity:1" />
    <rect
       style="fill:#ffffff;stroke:#000000;stroke-width:1.45227"
       id="rect7175"
       y="140.8111"
       x="140.72604"
       ry="45.46946"
       rx="41.590328"
       height="818.4624"
       width="498.62833" />
    <rect
       width="49.834087"
       height="119.81402"
       rx="4.1566348"
       ry="6.6562366"
       x="115.08787"
       y="180.09772"
       id="rect7177"
       style="fill:#ffffff;stroke:#000000;stroke-width:0.175661;stroke-opacity:1" />
    <rect
       style="fill:#ffffff;stroke:#000000;stroke-width:0.175661;stroke-opacity:1"
       id="rect7179"
       y="-919.90094"
       x="-664.92188"
       ry="6.6562366"
       rx="4.1566348"
       height="119.81402"
       width="49.834087"
       transform="scale(-1)" />
    <path
       inkscape:connector-curvature="0"
       id="path7185"
       d="m 372.11388,593.25518 c -41.6318,-43.62644 -53.8401,-75.94725 -36.44,-96.47286 12.0997,-14.27298 33.2449,-14.39118 46.8826,-0.26207 8.4723,8.77765 10.4353,8.77765 18.9076,0 13.6377,-14.12911 34.7829,-14.01091 46.8825,0.26207 17.4261,20.55625 5.0382,53.2482 -36.5925,96.56842 L 391.91018,614 Z"
       style="fill:#ff0000" />
    <path
       inkscape:connector-curvature="0"
       id="path7187"
       d="m 134.45298,288.16552 c -11.7089,-12.26994 -15.1425,-21.36017 -10.2487,-27.133 3.4031,-4.01427 9.3501,-4.04752 13.1857,-0.0737 2.3829,2.46872 2.9349,2.46872 5.3178,0 3.8356,-3.97381 9.7827,-3.94056 13.1857,0.0737 4.9011,5.78145 1.417,14.97606 -10.2916,27.15988 L 140.02068,294 Z"
       style="fill:#ff0000" />
    <path
       style="fill:#ff0000"
       d="m 645.59298,811.83422 c 11.7089,12.27 15.1425,21.3602 10.2487,27.133 -3.4031,4.0143 -9.3501,4.0476 -13.1857,0.074 -2.3829,-2.4687 -2.9349,-2.4687 -5.3178,0 -3.8356,3.9738 -9.7827,3.9406 -13.1857,-0.074 -4.9011,-5.7814 -1.417,-14.976 10.2916,-27.1598 l 5.5812,-5.8076 z"
       id="path7189"
       inkscape:connector-curvature="0" />
    <path
       inkscape:connector-curvature="0"
       id="path7318"
       d="m 133.28744,191.27434 v 23.71681 h 10.25817 q 3.99311,0 5.33563,-1.54867 1.79001,-2.0354 1.99656,-7.16814 h 1.27366 v 20.88495 h -1.27366 q -0.48194,-4.38053 -0.96386,-5.61946 -0.61963,-1.54868 -2.03098,-2.43363 -1.41136,-0.88496 -4.33735,-0.88496 H 133.28744 V 238 q 0,3.9823 0.27539,4.86726 0.27537,0.84071 0.96385,1.37168 0.68846,0.48673 2.61617,0.48673 h 7.91739 q 3.95869,0 5.74871,-0.70797 1.79001,-0.70796 3.44234,-2.78761 2.13425,-2.74336 4.37177,-8.27434 H 160 L 155.97246,248 H 120 v -1.63717 h 1.65232 q 1.65233,0 3.13254,-1.0177 1.10155,-0.70796 1.4802,-2.12389 0.41308,-1.41593 0.41308,-5.79646 v -38.9823 q 0,-5.70796 -0.89501,-7.0354 -1.23924,-1.76991 -4.13081,-1.76991 H 120 V 188 h 35.97246 l 0.51635,13.1416 h -1.34251 q -0.72289,-4.73452 -1.61791,-6.50443 -0.86058,-1.76991 -2.58175,-2.69911 -1.37694,-0.66372 -4.8537,-0.66372 z"
       style="font-style:normal;font-variant:normal;font-weight:normal;font-stretch:normal;font-size:medium;line-height:125%;font-family:'Times New Roman';-inkscape-font-specification:'Times New Roman, ';letter-spacing:0px;word-spacing:0px;fill:#ff0000;fill-opacity:1;stroke:none;stroke-width:1px;stroke-linecap:butt;stroke-linejoin:miter;stroke-opacity:1" />
    <path
       d="m 646.71256,908.72562 v -23.71681 h -10.25818 q -3.99311,0 -5.33562,1.54867 -1.79002,2.0354 -1.99656,7.16814 h -1.27367 v -20.88495 h 1.27367 q 0.48193,4.38053 0.96386,5.61946 0.61962,1.54868 2.03098,2.43363 1.41136,0.88496 4.33734,0.88496 h 10.25818 v -19.77876 q 0,-3.9823 -0.27539,-4.86726 -0.27538,-0.84071 -0.96385,-1.37168 -0.68847,-0.48673 -2.61617,-0.48673 h -7.91739 q -3.9587,0 -5.74871,0.70797 -1.79001,0.70796 -3.44234,2.78761 -2.13425,2.74336 -4.37177,8.27434 H 620 l 4.02754,-15.04425 H 660 v 1.63717 h -1.65232 q -1.65233,0 -3.13254,1.0177 -1.10155,0.70796 -1.4802,2.12389 -0.41308,1.41593 -0.41308,5.79646 v 38.9823 q 0,5.70796 0.895,7.0354 1.23925,1.76991 4.13082,1.76991 H 660 v 1.63717 h -35.97246 l -0.51635,-13.1416 h 1.34251 q 0.72289,4.73452 1.61791,6.50443 0.86058,1.76991 2.58175,2.69911 1.37693,0.66372 4.8537,0.66372 z"
       id="path7355"
       inkscape:connector-curvature="0"
       style="font-style:normal;font-variant:normal;font-weight:normal;font-stretch:normal;font-size:medium;line-height:125%;font-family:'Times New Roman';-inkscape-font-specification:'Times New Roman, ';letter-spacing:0px;word-spacing:0px;fill:#ff0000;fill-opacity:1;stroke:none;stroke-width:1px;stroke-linecap:butt;stroke-linejoin:miter;stroke-opacity:1" />
  </g>
</svg>
