<?xml version="1.0" encoding="UTF-8" standalone="no"?>
<svg
   sodipodi:docname="olsen-smygvanliga.svgz"
   inkscape:version="0.91 r13725"
   version="1.1"
   width="579.80017"
   height="899.99927"
   viewBox="0 0 579.8002 899.99929"
   id="svg13084"
   xmlns:inkscape="http://www.inkscape.org/namespaces/inkscape"
   xmlns:sodipodi="http://sodipodi.sourceforge.net/DTD/sodipodi-0.dtd"
   xmlns="http://www.w3.org/2000/svg"
   xmlns:svg="http://www.w3.org/2000/svg"
   xmlns:rdf="http://www.w3.org/1999/02/22-rdf-syntax-ns#"
   xmlns:cc="http://creativecommons.org/ns#"
   xmlns:dc="http://purl.org/dc/elements/1.1/">
  <sodipodi:namedview
     inkscape:snap-global="true"
     inkscape:snap-bbox="true"
     inkscape:snap-to-guides="false"
     inkscape:snap-tangential="true"
     inkscape:snap-perpendicular="true"
     inkscape:snap-grids="false"
     inkscape:guide-bbox="true"
     showguides="true"
     inkscape:showpageshadow="false"
     inkscape:current-layer="svg13084"
     inkscape:window-maximized="1"
     inkscape:window-y="0"
     inkscape:window-x="0"
     inkscape:cy="2050"
     inkscape:cx="6058.3246"
     inkscape:zoom="0.17154909"
     fit-margin-right="100"
     fit-margin-left="100"
     fit-margin-bottom="100"
     fit-margin-top="100"
     showgrid="false"
     id="namedview7847"
     inkscape:window-height="1016"
     inkscape:window-width="1920"
     inkscape:pageshadow="2"
     inkscape:pageopacity="0"
     guidetolerance="35"
     gridtolerance="10"
     objecttolerance="20"
     borderopacity="1"
     bordercolor="#666666"
     pagecolor="#ffffff"
     inkscape:object-nodes="true"
     inkscape:pagecheckerboard="0"
     inkscape:deskcolor="#d1d1d1">
    <inkscape:grid
       originy="-3093.184"
       originx="201.13561"
       id="grid4407"
       type="xygrid"
       spacingy="1"
       spacingx="1"
       units="px"
       visible="false" />
  </sodipodi:namedview>
  <defs
     id="defs13142" />
  <metadata
     id="metadata13086">
    <rdf:RDF>
      <cc:Work
         about="">
        <dc:format>image/svg+xml</dc:format>
        <dc:type
           resource="http://purl.org/dc/dcmitype/StillImage"
           rdf:resource="http://purl.org/dc/dcmitype/StillImage" />
        <cc:license
           resource="http://www.gnu.org/licenses/lgpl.html" />
        <dc:title />
      </cc:Work>
    </rdf:RDF>
  </metadata>
  <g
     id="2_spade"
     inkscape:label="#2_spade"
     transform="translate(-800.00001,-3100.0007)">
    <rect
       style="font-style:normal;font-variant:normal;font-weight:500;font-stretch:normal;font-size:medium;line-height:125%;font-family:Gaelic;-inkscape-font-specification:'Gaelic Medium';letter-spacing:0px;word-spacing:0px;fill:#ffffff;fill-opacity:1;stroke:#000000;stroke-width:1.99863;stroke-linecap:butt;stroke-linejoin:miter;stroke-miterlimit:4;stroke-dasharray:none;stroke-opacity:1"
       id="rect4496"
       y="3101"
       x="800.99933"
       ry="49.888187"
       rx="48.194115"
       height="898.00061"
       width="577.80151" />
    <rect
       width="498.45624"
       height="818.46259"
       rx="41.575974"
       ry="45.469467"
       x="840.71222"
       y="3140.812"
       id="rect4498"
       style="fill:#ffffff;stroke:#000000;stroke-width:1.45202" />
    <rect
       style="fill:#ffffff;stroke:#000000;stroke-width:0.175631;stroke-opacity:1"
       id="rect4500"
       y="3180.0986"
       x="815.08282"
       ry="6.6562381"
       rx="4.1552"
       height="119.81404"
       width="49.816887" />
    <rect
       transform="scale(-1)"
       width="49.816887"
       height="119.81404"
       rx="4.1552"
       ry="6.6562381"
       x="-1364.7275"
       y="-3919.9023"
       id="rect4502"
       style="fill:#ffffff;stroke:#000000;stroke-width:0.175631;stroke-opacity:1" />
    <path
       sodipodi:nodetypes="sssscssssssssscssscscss"
       inkscape:connector-curvature="0"
       id="path4504"
       d="m 1075.9803,3291.6747 c 2.3986,-2.4976 5.0337,-7.0458 7.9462,-13.7155 3.8859,-8.8988 6.3242,-24.8377 3.7997,-24.8377 -0.5709,0 -3.7676,2.2535 -7.1039,5.0077 -8.2373,6.8004 -12.5416,8.4517 -21.9066,8.4043 -6.2191,-0.031 -8.1847,-0.3967 -12.3482,-2.2944 -9.1561,-4.1736 -15.4217,-11.5284 -17.9031,-21.0157 -2.7116,-10.3672 6.6509,-24.9854 22.8759,-38.2423 23.6409,-19.3162 30.0643,-26.1742 36.3184,-34.4735 2.2827,-3.0292 4.2363,-5.5076 4.3414,-5.5076 0.1049,0 2.0586,2.4784 4.3412,5.5076 6.2541,8.2993 12.6775,15.1573 36.3185,34.4735 16.225,13.2569 25.587,27.8751 22.876,38.2423 -2.482,9.4873 -8.747,16.8421 -17.903,21.0157 -4.164,1.8977 -6.1294,2.263 -12.3485,2.2944 -9.365,0.048 -13.6693,-1.6039 -21.9066,-8.4043 -3.3363,-2.7542 -6.533,-5.0077 -7.1038,-5.0077 -2.5246,0 -0.086,15.9389 3.7997,24.8377 2.9124,6.6697 5.5475,11.2179 7.9461,13.7155 1.7596,1.8322 1.2533,1.8102 -8.0775,-0.3509 l -7.7755,-1.2208 -7.9421,1.2124 c -9.7313,1.4854 -9.9908,2.1779 -8.2443,0.3593 z"
       style="fill:#050505" />
    <path
       style="fill:#050505"
       d="m 1075.9803,3808.3253 c 2.3986,2.4976 5.0337,7.0458 7.9462,13.7155 3.8859,8.8988 6.3242,24.8377 3.7997,24.8377 -0.5709,0 -3.7676,-2.2535 -7.1039,-5.0077 -8.2373,-6.8004 -12.5416,-8.4517 -21.9066,-8.4043 -6.2191,0.031 -8.1847,0.3967 -12.3482,2.2944 -9.1561,4.1736 -15.4217,11.5284 -17.9031,21.0157 -2.7116,10.3672 6.6509,24.9854 22.8759,38.2423 23.6409,19.3162 30.0643,26.1742 36.3184,34.4735 2.2827,3.0292 4.2363,5.5076 4.3414,5.5076 0.1049,0 2.0586,-2.4784 4.3412,-5.5076 6.2541,-8.2993 12.6775,-15.1573 36.3185,-34.4735 16.225,-13.2569 25.587,-27.8751 22.876,-38.2423 -2.482,-9.4873 -8.747,-16.8421 -17.903,-21.0157 -4.164,-1.8977 -6.1294,-2.263 -12.3485,-2.2944 -9.365,-0.048 -13.6693,1.6039 -21.9066,8.4043 -3.3363,2.7542 -6.533,5.0077 -7.1038,5.0077 -2.5246,0 -0.086,-15.9389 3.7997,-24.8377 2.9124,-6.6697 5.5475,-11.2179 7.9461,-13.7155 1.7596,-1.8322 1.2533,-1.8102 -8.0775,0.3509 l -7.7755,1.2208 -7.9421,-1.2124 c -9.7313,-1.4854 -9.9908,-2.1779 -8.2443,-0.3593 z"
       id="path4508"
       inkscape:connector-curvature="0"
       sodipodi:nodetypes="sssscssssssssscssscscss" />
    <path
       style="fill:#050505"
       d="m 835.49415,3293.6273 c 0.6746,-0.7025 1.4157,-1.9817 2.2348,-3.8575 1.0929,-2.5028 1.7787,-6.9856 1.0687,-6.9856 -0.1606,0 -1.0596,0.6338 -1.998,1.4084 -2.3167,1.9126 -3.5273,2.377 -6.1612,2.3637 -1.7491,-0.01 -2.3019,-0.1116 -3.4729,-0.6453 -2.5752,-1.1738 -4.3374,-3.2424 -5.0353,-5.9107 -0.7626,-2.9157 1.8706,-7.0271 6.4339,-10.7556 6.649,-5.4327 8.4556,-7.3615 10.2145,-9.6957 0.642,-0.8519 1.1915,-1.549 1.221,-1.549 0.029,0 0.579,0.6971 1.221,1.549 1.759,2.3342 3.5655,4.263 10.2146,9.6957 4.5633,3.7285 7.1963,7.8399 6.4338,10.7556 -0.698,2.6683 -2.46,4.7369 -5.0352,5.9107 -1.1711,0.5337 -1.7239,0.6365 -3.473,0.6453 -2.6339,0.014 -3.8445,-0.4511 -6.1612,-2.3637 -0.9384,-0.7746 -1.8374,-1.4084 -1.998,-1.4084 -0.71,0 -0.024,4.4828 1.0687,6.9856 0.8191,1.8758 1.5602,3.155 2.2348,3.8575 0.4949,0.5153 0.3525,0.5091 -2.2718,-0.099 l -2.1868,-0.3434 -2.2337,0.341 c -2.737,0.4178 -2.8099,0.6125 -2.3187,0.1011 z"
       id="path4510"
       inkscape:connector-curvature="0"
       sodipodi:nodetypes="sssscssssssssscssscscss" />
    <path
       style="fill:#050505"
       d="m 1344.5051,3806.3727 c -0.6746,0.7025 -1.4157,1.9817 -2.2348,3.8575 -1.0929,2.5028 -1.7787,6.9856 -1.0687,6.9856 0.1606,0 1.0596,-0.6338 1.998,-1.4084 2.3167,-1.9126 3.5273,-2.377 6.1612,-2.3637 1.7491,0.01 2.3019,0.1116 3.4729,0.6453 2.5752,1.1738 4.3374,3.2424 5.0353,5.9107 0.7626,2.9157 -1.8706,7.0271 -6.4339,10.7556 -6.649,5.4327 -8.4556,7.3615 -10.2145,9.6957 -0.642,0.8519 -1.1915,1.549 -1.221,1.549 -0.029,0 -0.579,-0.6971 -1.221,-1.549 -1.759,-2.3342 -3.5655,-4.263 -10.2146,-9.6957 -4.5633,-3.7285 -7.1963,-7.8399 -6.4338,-10.7556 0.698,-2.6683 2.46,-4.7369 5.0352,-5.9107 1.1711,-0.5337 1.7239,-0.6365 3.473,-0.6453 2.6339,-0.014 3.8445,0.4511 6.1612,2.3637 0.9384,0.7746 1.8374,1.4084 1.998,1.4084 0.71,0 0.024,-4.4828 -1.0687,-6.9856 -0.8191,-1.8758 -1.5602,-3.155 -2.2348,-3.8575 -0.4949,-0.5153 -0.3525,-0.5091 2.2718,0.099 l 2.1868,0.3434 2.2337,-0.341 c 2.737,-0.4178 2.8099,-0.6125 2.3187,-0.1011 z"
       id="path4512"
       inkscape:connector-curvature="0"
       sodipodi:nodetypes="sssscssssssssscssscscss" />
    <path
       d="M 860,3236.685 855.75419,3248 H 820 v -1.604 q 15.77654,-13.9596 22.2123,-22.8035 6.43575,-8.8439 6.43575,-16.1705 0,-5.5925 -3.53072,-9.1908 -3.53073,-3.5982 -8.44693,-3.5982 -4.46927,0 -8.0447,2.5578 -3.53072,2.5144 -5.22904,7.4133 h -1.65364 q 1.11732,-8.0203 5.72067,-12.3122 4.64805,-4.2919 11.57542,-4.2919 7.37431,0 12.2905,4.5954 4.9609,4.5954 4.9609,10.8381 0,4.4654 -2.14526,8.9307 -3.30725,7.0231 -10.72625,14.8699 -11.12849,11.7919 -13.89943,14.2197 h 15.82123 q 4.8268,0 6.74859,-0.3468 1.96648,-0.3469 3.53072,-1.3873 1.56425,-1.0838 2.72626,-3.0347 z"
       id="path4397"
       inkscape:connector-curvature="0"
       style="font-style:normal;font-variant:normal;font-weight:normal;font-stretch:normal;font-size:medium;line-height:125%;font-family:'Times New Roman';-inkscape-font-specification:'Times New Roman, ';letter-spacing:0px;word-spacing:0px;fill:#000000;fill-opacity:1;stroke:none;stroke-width:1px;stroke-linecap:butt;stroke-linejoin:miter;stroke-opacity:1" />
    <path
       inkscape:connector-curvature="0"
       id="path4439"
       d="m 1320,3863.3147 4.2458,-11.315 H 1360 v 1.604 q -15.7766,13.9596 -22.2123,22.8035 -6.4358,8.8439 -6.4358,16.1705 0,5.5925 3.5308,9.1908 3.5307,3.5982 8.4469,3.5982 4.4693,0 8.0447,-2.5578 3.5307,-2.5144 5.229,-7.4133 h 1.6537 q -1.1173,8.0203 -5.7207,12.3122 -4.6481,4.2919 -11.5754,4.2919 -7.3743,0 -12.2905,-4.5954 -4.9609,-4.5954 -4.9609,-10.8381 0,-4.4654 2.1452,-8.9307 3.3073,-7.0231 10.7263,-14.8699 11.1285,-11.7919 13.8994,-14.2197 h -15.8212 q -4.8268,0 -6.7486,0.3468 -1.9665,0.3469 -3.5307,1.3873 -1.5643,1.0838 -2.7263,3.0347 z"
       style="font-style:normal;font-variant:normal;font-weight:normal;font-stretch:normal;font-size:medium;line-height:125%;font-family:'Times New Roman';-inkscape-font-specification:'Times New Roman, ';letter-spacing:0px;word-spacing:0px;fill:#000000;fill-opacity:1;stroke:none;stroke-width:1px;stroke-linecap:butt;stroke-linejoin:miter;stroke-opacity:1" />
  </g>
</svg>
