<?xml version="1.0" encoding="UTF-8" standalone="no"?>
<svg
   sodipodi:docname="olsen-smygvanliga.svgz"
   inkscape:version="0.91 r13725"
   version="1.1"
   width="579.80017"
   height="899.99927"
   viewBox="0 0 579.8002 899.99929"
   id="svg13084"
   xmlns:inkscape="http://www.inkscape.org/namespaces/inkscape"
   xmlns:sodipodi="http://sodipodi.sourceforge.net/DTD/sodipodi-0.dtd"
   xmlns="http://www.w3.org/2000/svg"
   xmlns:svg="http://www.w3.org/2000/svg"
   xmlns:rdf="http://www.w3.org/1999/02/22-rdf-syntax-ns#"
   xmlns:cc="http://creativecommons.org/ns#"
   xmlns:dc="http://purl.org/dc/elements/1.1/">
  <sodipodi:namedview
     inkscape:snap-global="true"
     inkscape:snap-bbox="true"
     inkscape:snap-to-guides="false"
     inkscape:snap-tangential="true"
     inkscape:snap-perpendicular="true"
     inkscape:snap-grids="false"
     inkscape:guide-bbox="true"
     showguides="true"
     inkscape:showpageshadow="false"
     inkscape:current-layer="svg13084"
     inkscape:window-maximized="1"
     inkscape:window-y="0"
     inkscape:window-x="0"
     inkscape:cy="2050"
     inkscape:cx="6058.3246"
     inkscape:zoom="0.17154909"
     fit-margin-right="100"
     fit-margin-left="100"
     fit-margin-bottom="100"
     fit-margin-top="100"
     showgrid="false"
     id="namedview7847"
     inkscape:window-height="1016"
     inkscape:window-width="1920"
     inkscape:pageshadow="2"
     inkscape:pageopacity="0"
     guidetolerance="35"
     gridtolerance="10"
     objecttolerance="20"
     borderopacity="1"
     bordercolor="#666666"
     pagecolor="#ffffff"
     inkscape:object-nodes="true"
     inkscape:pagecheckerboard="0"
     inkscape:deskcolor="#d1d1d1">
    <inkscape:grid
       originy="-3093.184"
       originx="901.13562"
       id="grid4407"
       type="xygrid"
       spacingy="1"
       spacingx="1"
       units="px"
       visible="false" />
  </sodipodi:namedview>
  <defs
     id="defs13142" />
  <metadata
     id="metadata13086">
    <rdf:RDF>
      <cc:Work
         about="">
        <dc:format>image/svg+xml</dc:format>
        <dc:type
           resource="http://purl.org/dc/dcmitype/StillImage"
           rdf:resource="http://purl.org/dc/dcmitype/StillImage" />
        <cc:license
           resource="http://www.gnu.org/licenses/lgpl.html" />
        <dc:title />
      </cc:Work>
    </rdf:RDF>
  </metadata>
  <g
     id="1_spade"
     inkscape:label="#1_spade"
     transform="translate(-99.999998,-3100.0007)">
    <rect
       width="577.80151"
       height="898.00061"
       rx="48.194115"
       ry="49.888187"
       x="100.99931"
       y="3101"
       id="rect4514"
       style="font-style:normal;font-variant:normal;font-weight:500;font-stretch:normal;font-size:medium;line-height:125%;font-family:Gaelic;-inkscape-font-specification:'Gaelic Medium';letter-spacing:0px;word-spacing:0px;fill:#ffffff;fill-opacity:1;stroke:#000000;stroke-width:1.99863;stroke-linecap:butt;stroke-linejoin:miter;stroke-miterlimit:4;stroke-dasharray:none;stroke-opacity:1" />
    <rect
       style="fill:#ffffff;stroke:#000000;stroke-width:1.45202"
       id="rect4516"
       y="3140.812"
       x="140.7122"
       ry="45.469467"
       rx="41.575974"
       height="818.46259"
       width="498.45624" />
    <rect
       width="49.816887"
       height="119.81404"
       rx="4.1552"
       ry="6.6562381"
       x="115.08281"
       y="3180.0986"
       id="rect4518"
       style="fill:#ffffff;stroke:#000000;stroke-width:0.175631;stroke-opacity:1" />
    <rect
       style="fill:#ffffff;stroke:#000000;stroke-width:0.175631;stroke-opacity:1"
       id="rect4520"
       y="-3919.9023"
       x="-664.72754"
       ry="6.6562381"
       rx="4.1552"
       height="119.81404"
       width="49.816887"
       transform="scale(-1)" />
    <path
       sodipodi:nodetypes="sssscssssssssscssscscss"
       inkscape:connector-curvature="0"
       id="path4524"
       d="m 375.97999,3612.6747 c 2.3986,-2.4976 5.0337,-7.0458 7.9462,-13.7155 3.8859,-8.8988 6.3242,-24.8377 3.7997,-24.8377 -0.5709,0 -3.7676,2.2535 -7.1039,5.0077 -8.2373,6.8004 -12.5416,8.4517 -21.9066,8.4043 -6.2191,-0.031 -8.1847,-0.3967 -12.3482,-2.2944 -9.1561,-4.1736 -15.4217,-11.5284 -17.9031,-21.0157 -2.7116,-10.3672 6.6509,-24.9854 22.8759,-38.2423 23.6409,-19.3162 30.0643,-26.1742 36.3184,-34.4735 2.2827,-3.0292 4.2363,-5.5076 4.3414,-5.5076 0.1049,0 2.0586,2.4784 4.3412,5.5076 6.2541,8.2993 12.6775,15.1573 36.3185,34.4735 16.225,13.2569 25.587,27.8751 22.876,38.2423 -2.482,9.4873 -8.747,16.8421 -17.903,21.0157 -4.164,1.8977 -6.1294,2.263 -12.3485,2.2944 -9.365,0.048 -13.6693,-1.6039 -21.9066,-8.4043 -3.3363,-2.7542 -6.533,-5.0077 -7.1038,-5.0077 -2.5246,0 -0.086,15.9389 3.7997,24.8377 2.9124,6.6697 5.5475,11.2179 7.9461,13.7155 1.7596,1.8322 1.2533,1.8102 -8.0775,-0.3509 l -7.7755,-1.2208 -7.9421,1.2124 c -9.7313,1.4854 -9.9908,2.1779 -8.2443,0.3593 z"
       style="fill:#050505" />
    <path
       sodipodi:nodetypes="sssscssssssssscssscscss"
       inkscape:connector-curvature="0"
       id="path4528"
       d="m 135.49414,3293.6273 c 0.6746,-0.7025 1.4157,-1.9817 2.2348,-3.8575 1.0929,-2.5028 1.7787,-6.9856 1.0687,-6.9856 -0.1606,0 -1.0596,0.6338 -1.998,1.4084 -2.3167,1.9126 -3.5273,2.377 -6.1612,2.3637 -1.7491,-0.01 -2.3019,-0.1116 -3.4729,-0.6453 -2.5752,-1.1738 -4.3374,-3.2424 -5.0353,-5.9107 -0.7626,-2.9157 1.8706,-7.0271 6.4339,-10.7556 6.649,-5.4327 8.4556,-7.3615 10.2145,-9.6957 0.642,-0.8519 1.1915,-1.549 1.221,-1.549 0.029,0 0.579,0.6971 1.221,1.549 1.759,2.3342 3.5655,4.263 10.2146,9.6957 4.5633,3.7285 7.1963,7.8399 6.4338,10.7556 -0.698,2.6683 -2.46,4.7369 -5.0352,5.9107 -1.1711,0.5337 -1.7239,0.6365 -3.473,0.6453 -2.6339,0.014 -3.8445,-0.4511 -6.1612,-2.3637 -0.9384,-0.7746 -1.8374,-1.4084 -1.998,-1.4084 -0.71,0 -0.024,4.4828 1.0687,6.9856 0.8191,1.8758 1.5602,3.155 2.2348,3.8575 0.4949,0.5153 0.3525,0.5091 -2.2718,-0.099 l -2.1868,-0.3434 -2.2337,0.341 c -2.737,0.4178 -2.8099,0.6125 -2.3187,0.1011 z"
       style="fill:#050505" />
    <path
       sodipodi:nodetypes="sssscssssssssscssscscss"
       inkscape:connector-curvature="0"
       id="path4530"
       d="m 644.50509,3806.3727 c -0.6746,0.7025 -1.4157,1.9817 -2.2348,3.8575 -1.0929,2.5028 -1.7787,6.9856 -1.0687,6.9856 0.1606,0 1.0596,-0.6338 1.998,-1.4084 2.3167,-1.9126 3.5273,-2.377 6.1612,-2.3637 1.7491,0.01 2.3019,0.1116 3.4729,0.6453 2.5752,1.1738 4.3374,3.2424 5.0353,5.9107 0.7626,2.9157 -1.8706,7.0271 -6.4339,10.7556 -6.649,5.4327 -8.4556,7.3615 -10.2145,9.6957 -0.642,0.8519 -1.1915,1.549 -1.221,1.549 -0.029,0 -0.579,-0.6971 -1.221,-1.549 -1.759,-2.3342 -3.5655,-4.263 -10.2146,-9.6957 -4.5633,-3.7285 -7.1963,-7.8399 -6.4338,-10.7556 0.698,-2.6683 2.46,-4.7369 5.0352,-5.9107 1.1711,-0.5337 1.7239,-0.6365 3.473,-0.6453 2.6339,-0.014 3.8445,0.4511 6.1612,2.3637 0.9384,0.7746 1.8374,1.4084 1.998,1.4084 0.71,0 0.024,-4.4828 -1.0687,-6.9856 -0.8191,-1.8758 -1.5602,-3.155 -2.2348,-3.8575 -0.4949,-0.5153 -0.3525,-0.5091 2.2718,0.099 l 2.1868,0.3434 2.2337,-0.341 c 2.737,-0.4178 2.8099,-0.6125 2.3187,-0.1011 z"
       style="fill:#050505" />
    <path
       d="m 133.28744,3191.2744 v 23.7168 h 10.25817 q 3.99311,0 5.33563,-1.5487 1.79001,-2.0354 1.99656,-7.1681 h 1.27366 v 20.8849 h -1.27366 q -0.48194,-4.3805 -0.96386,-5.6194 -0.61963,-1.5487 -2.03098,-2.4337 -1.41136,-0.8849 -4.33735,-0.8849 H 133.28744 V 3238 q 0,3.9823 0.27539,4.8673 0.27537,0.8407 0.96385,1.3717 0.68846,0.4867 2.61617,0.4867 h 7.91739 q 3.95869,0 5.74871,-0.708 1.79001,-0.7079 3.44234,-2.7876 2.13425,-2.7433 4.37177,-8.2743 H 160 L 155.97246,3248 H 120 v -1.6371 h 1.65232 q 1.65233,0 3.13254,-1.0177 1.10155,-0.708 1.4802,-2.1239 0.41308,-1.416 0.41308,-5.7965 v -38.9823 q 0,-5.708 -0.89501,-7.0354 -1.23924,-1.7699 -4.13081,-1.7699 H 120 V 3188 h 35.97246 l 0.51635,13.1416 h -1.34251 q -0.72289,-4.7345 -1.61791,-6.5044 -0.86058,-1.7699 -2.58175,-2.6991 -1.37694,-0.6637 -4.8537,-0.6637 z"
       id="path4395"
       inkscape:connector-curvature="0"
       style="font-style:normal;font-variant:normal;font-weight:normal;font-stretch:normal;font-size:medium;line-height:125%;font-family:'Times New Roman';-inkscape-font-specification:'Times New Roman, ';letter-spacing:0px;word-spacing:0px;fill:#000000;fill-opacity:1;stroke:none;stroke-width:1px;stroke-linecap:butt;stroke-linejoin:miter;stroke-opacity:1" />
    <path
       inkscape:connector-curvature="0"
       id="path4453"
       d="m 646.71256,3908.7253 v -23.7168 h -10.25818 q -3.99311,0 -5.33562,1.5487 -1.79002,2.0354 -1.99656,7.1681 h -1.27367 v -20.8849 h 1.27367 q 0.48193,4.3805 0.96386,5.6194 0.61962,1.5487 2.03098,2.4337 1.41136,0.8849 4.33734,0.8849 h 10.25818 v -19.7787 q 0,-3.9823 -0.27539,-4.8673 -0.27538,-0.8407 -0.96385,-1.3717 -0.68847,-0.4867 -2.61617,-0.4867 h -7.91739 q -3.9587,0 -5.74871,0.708 -1.79001,0.7079 -3.44234,2.7876 -2.13425,2.7433 -4.37177,8.2743 H 620 l 4.02754,-15.0442 H 660 v 1.6371 h -1.65232 q -1.65233,0 -3.13254,1.0177 -1.10155,0.708 -1.4802,2.1239 -0.41308,1.416 -0.41308,5.7965 v 38.9823 q 0,5.708 0.895,7.0354 1.23925,1.7699 4.13082,1.7699 H 660 v 1.6372 h -35.97246 l -0.51635,-13.1416 h 1.34251 q 0.72289,4.7345 1.61791,6.5044 0.86058,1.7699 2.58175,2.6991 1.37693,0.6637 4.8537,0.6637 z"
       style="font-style:normal;font-variant:normal;font-weight:normal;font-stretch:normal;font-size:medium;line-height:125%;font-family:'Times New Roman';-inkscape-font-specification:'Times New Roman, ';letter-spacing:0px;word-spacing:0px;fill:#000000;fill-opacity:1;stroke:none;stroke-width:1px;stroke-linecap:butt;stroke-linejoin:miter;stroke-opacity:1" />
  </g>
</svg>
