<?xml version="1.0" encoding="UTF-8" standalone="no"?>
<svg
   sodipodi:docname="olsen-smygvanliga.svgz"
   inkscape:version="0.91 r13725"
   version="1.1"
   width="579.80017"
   height="899.99927"
   viewBox="0 0 579.8002 899.99929"
   id="svg13084"
   xmlns:inkscape="http://www.inkscape.org/namespaces/inkscape"
   xmlns:sodipodi="http://sodipodi.sourceforge.net/DTD/sodipodi-0.dtd"
   xmlns="http://www.w3.org/2000/svg"
   xmlns:svg="http://www.w3.org/2000/svg"
   xmlns:rdf="http://www.w3.org/1999/02/22-rdf-syntax-ns#"
   xmlns:cc="http://creativecommons.org/ns#"
   xmlns:dc="http://purl.org/dc/elements/1.1/">
  <sodipodi:namedview
     inkscape:snap-global="true"
     inkscape:snap-bbox="true"
     inkscape:snap-to-guides="false"
     inkscape:snap-tangential="true"
     inkscape:snap-perpendicular="true"
     inkscape:snap-grids="false"
     inkscape:guide-bbox="true"
     showguides="true"
     inkscape:showpageshadow="false"
     inkscape:current-layer="svg13084"
     inkscape:window-maximized="1"
     inkscape:window-y="0"
     inkscape:window-x="0"
     inkscape:cy="2050"
     inkscape:cx="6058.3246"
     inkscape:zoom="0.17154909"
     fit-margin-right="100"
     fit-margin-left="100"
     fit-margin-bottom="100"
     fit-margin-top="100"
     showgrid="false"
     id="namedview7847"
     inkscape:window-height="1016"
     inkscape:window-width="1920"
     inkscape:pageshadow="2"
     inkscape:pageopacity="0"
     guidetolerance="35"
     gridtolerance="10"
     objecttolerance="20"
     borderopacity="1"
     bordercolor="#666666"
     pagecolor="#ffffff"
     inkscape:object-nodes="true"
     inkscape:pagecheckerboard="0"
     inkscape:deskcolor="#d1d1d1">
    <inkscape:grid
       originy="-3093.184"
       originx="-2598.8643"
       id="grid4407"
       type="xygrid"
       spacingy="1"
       spacingx="1"
       units="px"
       visible="false" />
  </sodipodi:namedview>
  <defs
     id="defs13142" />
  <metadata
     id="metadata13086">
    <rdf:RDF>
      <cc:Work
         about="">
        <dc:format>image/svg+xml</dc:format>
        <dc:type
           resource="http://purl.org/dc/dcmitype/StillImage"
           rdf:resource="http://purl.org/dc/dcmitype/StillImage" />
        <cc:license
           resource="http://www.gnu.org/licenses/lgpl.html" />
        <dc:title />
      </cc:Work>
    </rdf:RDF>
  </metadata>
  <g
     id="6_spade"
     inkscape:label="#6_spade"
     transform="translate(-3600,-3100.0007)">
    <rect
       width="577.80151"
       height="898.00061"
       rx="48.194115"
       ry="49.888187"
       x="3600.9993"
       y="3101"
       id="rect4402"
       style="font-style:normal;font-variant:normal;font-weight:500;font-stretch:normal;font-size:medium;line-height:125%;font-family:Gaelic;-inkscape-font-specification:'Gaelic Medium';letter-spacing:0px;word-spacing:0px;fill:#ffffff;fill-opacity:1;stroke:#000000;stroke-width:1.99863;stroke-linecap:butt;stroke-linejoin:miter;stroke-miterlimit:4;stroke-dasharray:none;stroke-opacity:1" />
    <rect
       style="fill:#ffffff;stroke:#000000;stroke-width:1.45202"
       id="rect4404"
       y="3140.812"
       x="3640.7122"
       ry="45.469467"
       rx="41.575974"
       height="818.46259"
       width="498.45624" />
    <rect
       width="49.816887"
       height="119.81404"
       rx="4.1552"
       ry="6.6562381"
       x="3615.0828"
       y="3180.0986"
       id="rect4406"
       style="fill:#ffffff;stroke:#000000;stroke-width:0.175631;stroke-opacity:1" />
    <rect
       style="fill:#ffffff;stroke:#000000;stroke-width:0.175631;stroke-opacity:1"
       id="rect4408"
       y="-3919.9023"
       x="-4164.7275"
       ry="6.6562381"
       rx="4.1552"
       height="119.81404"
       width="49.816887"
       transform="scale(-1)" />
    <path
       style="fill:#050505"
       d="m 3727.98,3291.6747 c 2.3986,-2.4976 5.0337,-7.0458 7.9462,-13.7155 3.8859,-8.8988 6.3242,-24.8377 3.7997,-24.8377 -0.5709,0 -3.7676,2.2535 -7.1039,5.0077 -8.2373,6.8004 -12.5416,8.4517 -21.9066,8.4043 -6.2191,-0.031 -8.1847,-0.3967 -12.3482,-2.2944 -9.1561,-4.1736 -15.4217,-11.5284 -17.9031,-21.0157 -2.7116,-10.3672 6.6509,-24.9854 22.8759,-38.2423 23.6409,-19.3162 30.0643,-26.1742 36.3184,-34.4735 2.2827,-3.0292 4.2363,-5.5076 4.3414,-5.5076 0.1049,0 2.0586,2.4784 4.3412,5.5076 6.2541,8.2993 12.6775,15.1573 36.3185,34.4735 16.225,13.2569 25.587,27.8751 22.876,38.2423 -2.482,9.4873 -8.747,16.8421 -17.903,21.0157 -4.164,1.8977 -6.1294,2.263 -12.3485,2.2944 -9.365,0.048 -13.6693,-1.6039 -21.9066,-8.4043 -3.3363,-2.7542 -6.533,-5.0077 -7.1038,-5.0077 -2.5246,0 -0.086,15.9389 3.7997,24.8377 2.9124,6.6697 5.5475,11.2179 7.9461,13.7155 1.7596,1.8322 1.2533,1.8102 -8.0775,-0.3509 l -7.7755,-1.2208 -7.9421,1.2124 c -9.7313,1.4854 -9.9908,2.1779 -8.2443,0.3593 z"
       id="path4410"
       inkscape:connector-curvature="0"
       sodipodi:nodetypes="sssscssssssssscssscscss" />
    <path
       sodipodi:nodetypes="sssscssssssssscssscscss"
       inkscape:connector-curvature="0"
       id="path4412"
       d="m 4019.98,3291.6747 c 2.3986,-2.4976 5.0337,-7.0458 7.9462,-13.7155 3.8859,-8.8988 6.3242,-24.8377 3.7997,-24.8377 -0.5709,0 -3.7676,2.2535 -7.1039,5.0077 -8.2373,6.8004 -12.5416,8.4517 -21.9066,8.4043 -6.2191,-0.031 -8.1847,-0.3967 -12.3482,-2.2944 -9.1561,-4.1736 -15.4217,-11.5284 -17.9031,-21.0157 -2.7116,-10.3672 6.6509,-24.9854 22.8759,-38.2423 23.6409,-19.3162 30.0643,-26.1742 36.3184,-34.4735 2.2827,-3.0292 4.2363,-5.5076 4.3414,-5.5076 0.1049,0 2.0586,2.4784 4.3412,5.5076 6.2541,8.2993 12.6775,15.1573 36.3185,34.4735 16.225,13.2569 25.587,27.8751 22.876,38.2423 -2.482,9.4873 -8.747,16.8421 -17.903,21.0157 -4.164,1.8977 -6.1294,2.263 -12.3485,2.2944 -9.365,0.048 -13.6693,-1.6039 -21.9066,-8.4043 -3.3363,-2.7542 -6.533,-5.0077 -7.1038,-5.0077 -2.5246,0 -0.086,15.9389 3.7997,24.8377 2.9124,6.6697 5.5475,11.2179 7.9461,13.7155 1.7596,1.8322 1.2533,1.8102 -8.0775,-0.3509 l -7.7755,-1.2208 -7.9421,1.2124 c -9.7313,1.4854 -9.9908,2.1779 -8.2443,0.3593 z"
       style="fill:#050505" />
    <path
       sodipodi:nodetypes="sssscssssssssscssscscss"
       inkscape:connector-curvature="0"
       id="path4414"
       d="m 3727.98,3612.6747 c 2.3986,-2.4976 5.0337,-7.0458 7.9462,-13.7155 3.8859,-8.8988 6.3242,-24.8377 3.7997,-24.8377 -0.5709,0 -3.7676,2.2535 -7.1039,5.0077 -8.2373,6.8004 -12.5416,8.4517 -21.9066,8.4043 -6.2191,-0.031 -8.1847,-0.3967 -12.3482,-2.2944 -9.1561,-4.1736 -15.4217,-11.5284 -17.9031,-21.0157 -2.7116,-10.3672 6.6509,-24.9854 22.8759,-38.2423 23.6409,-19.3162 30.0643,-26.1742 36.3184,-34.4735 2.2827,-3.0292 4.2363,-5.5076 4.3414,-5.5076 0.1049,0 2.0586,2.4784 4.3412,5.5076 6.2541,8.2993 12.6775,15.1573 36.3185,34.4735 16.225,13.2569 25.587,27.8751 22.876,38.2423 -2.482,9.4873 -8.747,16.8421 -17.903,21.0157 -4.164,1.8977 -6.1294,2.263 -12.3485,2.2944 -9.365,0.048 -13.6693,-1.6039 -21.9066,-8.4043 -3.3363,-2.7542 -6.533,-5.0077 -7.1038,-5.0077 -2.5246,0 -0.086,15.9389 3.7997,24.8377 2.9124,6.6697 5.5475,11.2179 7.9461,13.7155 1.7596,1.8322 1.2533,1.8102 -8.0775,-0.3509 l -7.7755,-1.2208 -7.9421,1.2124 c -9.7313,1.4854 -9.9908,2.1779 -8.2443,0.3593 z"
       style="fill:#050505" />
    <path
       style="fill:#050505"
       d="m 4019.98,3612.6747 c 2.3986,-2.4976 5.0337,-7.0458 7.9462,-13.7155 3.8859,-8.8988 6.3242,-24.8377 3.7997,-24.8377 -0.5709,0 -3.7676,2.2535 -7.1039,5.0077 -8.2373,6.8004 -12.5416,8.4517 -21.9066,8.4043 -6.2191,-0.031 -8.1847,-0.3967 -12.3482,-2.2944 -9.1561,-4.1736 -15.4217,-11.5284 -17.9031,-21.0157 -2.7116,-10.3672 6.6509,-24.9854 22.8759,-38.2423 23.6409,-19.3162 30.0643,-26.1742 36.3184,-34.4735 2.2827,-3.0292 4.2363,-5.5076 4.3414,-5.5076 0.1049,0 2.0586,2.4784 4.3412,5.5076 6.2541,8.2993 12.6775,15.1573 36.3185,34.4735 16.225,13.2569 25.587,27.8751 22.876,38.2423 -2.482,9.4873 -8.747,16.8421 -17.903,21.0157 -4.164,1.8977 -6.1294,2.263 -12.3485,2.2944 -9.365,0.048 -13.6693,-1.6039 -21.9066,-8.4043 -3.3363,-2.7542 -6.533,-5.0077 -7.1038,-5.0077 -2.5246,0 -0.086,15.9389 3.7997,24.8377 2.9124,6.6697 5.5475,11.2179 7.9461,13.7155 1.7596,1.8322 1.2533,1.8102 -8.0775,-0.3509 l -7.7755,-1.2208 -7.9421,1.2124 c -9.7313,1.4854 -9.9908,2.1779 -8.2443,0.3593 z"
       id="path4416"
       inkscape:connector-curvature="0"
       sodipodi:nodetypes="sssscssssssssscssscscss" />
    <path
       sodipodi:nodetypes="sssscssssssssscssscscss"
       inkscape:connector-curvature="0"
       id="path4418"
       d="m 3727.98,3808.3253 c 2.3986,2.4976 5.0337,7.0458 7.9462,13.7155 3.8859,8.8988 6.3242,24.8377 3.7997,24.8377 -0.5709,0 -3.7676,-2.2535 -7.1039,-5.0077 -8.2373,-6.8004 -12.5416,-8.4517 -21.9066,-8.4043 -6.2191,0.031 -8.1847,0.3967 -12.3482,2.2944 -9.1561,4.1736 -15.4217,11.5284 -17.9031,21.0157 -2.7116,10.3672 6.6509,24.9854 22.8759,38.2423 23.6409,19.3162 30.0643,26.1742 36.3184,34.4735 2.2827,3.0292 4.2363,5.5076 4.3414,5.5076 0.1049,0 2.0586,-2.4784 4.3412,-5.5076 6.2541,-8.2993 12.6775,-15.1573 36.3185,-34.4735 16.225,-13.2569 25.587,-27.8751 22.876,-38.2423 -2.482,-9.4873 -8.747,-16.8421 -17.903,-21.0157 -4.164,-1.8977 -6.1294,-2.263 -12.3485,-2.2944 -9.365,-0.048 -13.6693,1.6039 -21.9066,8.4043 -3.3363,2.7542 -6.533,5.0077 -7.1038,5.0077 -2.5246,0 -0.086,-15.9389 3.7997,-24.8377 2.9124,-6.6697 5.5475,-11.2179 7.9461,-13.7155 1.7596,-1.8322 1.2533,-1.8102 -8.0775,0.3509 l -7.7755,1.2208 -7.9421,-1.2124 c -9.7313,-1.4854 -9.9908,-2.1779 -8.2443,-0.3593 z"
       style="fill:#050505" />
    <path
       style="fill:#050505"
       d="m 4019.98,3808.3253 c 2.3986,2.4976 5.0337,7.0458 7.9462,13.7155 3.8859,8.8988 6.3242,24.8377 3.7997,24.8377 -0.5709,0 -3.7676,-2.2535 -7.1039,-5.0077 -8.2373,-6.8004 -12.5416,-8.4517 -21.9066,-8.4043 -6.2191,0.031 -8.1847,0.3967 -12.3482,2.2944 -9.1561,4.1736 -15.4217,11.5284 -17.9031,21.0157 -2.7116,10.3672 6.6509,24.9854 22.8759,38.2423 23.6409,19.3162 30.0643,26.1742 36.3184,34.4735 2.2827,3.0292 4.2363,5.5076 4.3414,5.5076 0.1049,0 2.0586,-2.4784 4.3412,-5.5076 6.2541,-8.2993 12.6775,-15.1573 36.3185,-34.4735 16.225,-13.2569 25.587,-27.8751 22.876,-38.2423 -2.482,-9.4873 -8.747,-16.8421 -17.903,-21.0157 -4.164,-1.8977 -6.1294,-2.263 -12.3485,-2.2944 -9.365,-0.048 -13.6693,1.6039 -21.9066,8.4043 -3.3363,2.7542 -6.533,5.0077 -7.1038,5.0077 -2.5246,0 -0.086,-15.9389 3.7997,-24.8377 2.9124,-6.6697 5.5475,-11.2179 7.9461,-13.7155 1.7596,-1.8322 1.2533,-1.8102 -8.0775,0.3509 l -7.7755,1.2208 -7.9421,-1.2124 c -9.7313,-1.4854 -9.9908,-2.1779 -8.2443,-0.3593 z"
       id="path4420"
       inkscape:connector-curvature="0"
       sodipodi:nodetypes="sssscssssssssscssscscss" />
    <path
       sodipodi:nodetypes="sssscssssssssscssscscss"
       inkscape:connector-curvature="0"
       id="path4424"
       d="m 3635.4941,3293.6273 c 0.6746,-0.7025 1.4157,-1.9817 2.2348,-3.8575 1.0929,-2.5028 1.7787,-6.9856 1.0687,-6.9856 -0.1606,0 -1.0596,0.6338 -1.998,1.4084 -2.3167,1.9126 -3.5273,2.377 -6.1612,2.3637 -1.7491,-0.01 -2.3019,-0.1116 -3.4729,-0.6453 -2.5752,-1.1738 -4.3374,-3.2424 -5.0353,-5.9107 -0.7626,-2.9157 1.8706,-7.0271 6.4339,-10.7556 6.649,-5.4327 8.4556,-7.3615 10.2145,-9.6957 0.642,-0.8519 1.1915,-1.549 1.221,-1.549 0.029,0 0.579,0.6971 1.221,1.549 1.759,2.3342 3.5655,4.263 10.2146,9.6957 4.5633,3.7285 7.1963,7.8399 6.4338,10.7556 -0.698,2.6683 -2.46,4.7369 -5.0352,5.9107 -1.1711,0.5337 -1.7239,0.6365 -3.473,0.6453 -2.6339,0.014 -3.8445,-0.4511 -6.1612,-2.3637 -0.9384,-0.7746 -1.8374,-1.4084 -1.998,-1.4084 -0.71,0 -0.024,4.4828 1.0687,6.9856 0.8191,1.8758 1.5602,3.155 2.2348,3.8575 0.4949,0.5153 0.3525,0.5091 -2.2718,-0.099 l -2.1868,-0.3434 -2.2337,0.341 c -2.737,0.4178 -2.8099,0.6125 -2.3187,0.1011 z"
       style="fill:#050505" />
    <path
       sodipodi:nodetypes="sssscssssssssscssscscss"
       inkscape:connector-curvature="0"
       id="path4426"
       d="m 4144.5051,3806.3727 c -0.6746,0.7025 -1.4157,1.9817 -2.2348,3.8575 -1.0929,2.5028 -1.7787,6.9856 -1.0687,6.9856 0.1606,0 1.0596,-0.6338 1.998,-1.4084 2.3167,-1.9126 3.5273,-2.377 6.1612,-2.3637 1.7491,0.01 2.3019,0.1116 3.4729,0.6453 2.5752,1.1738 4.3374,3.2424 5.0353,5.9107 0.7626,2.9157 -1.8706,7.0271 -6.4339,10.7556 -6.649,5.4327 -8.4556,7.3615 -10.2145,9.6957 -0.642,0.8519 -1.1915,1.549 -1.221,1.549 -0.029,0 -0.579,-0.6971 -1.221,-1.549 -1.759,-2.3342 -3.5655,-4.263 -10.2146,-9.6957 -4.5633,-3.7285 -7.1963,-7.8399 -6.4338,-10.7556 0.698,-2.6683 2.46,-4.7369 5.0352,-5.9107 1.1711,-0.5337 1.7239,-0.6365 3.473,-0.6453 2.6339,-0.014 3.8445,0.4511 6.1612,2.3637 0.9384,0.7746 1.8374,1.4084 1.998,1.4084 0.71,0 0.024,-4.4828 -1.0687,-6.9856 -0.8191,-1.8758 -1.5602,-3.155 -2.2348,-3.8575 -0.4949,-0.5153 -0.3525,-0.5091 2.2718,0.099 l 2.1868,0.3434 2.2337,-0.341 c 2.737,-0.4178 2.8099,-0.6125 2.3187,-0.1011 z"
       style="fill:#050505" />
    <path
       d="m 3658.7397,3188 v 1.5767 q -6.161,0.554 -10.0817,2.2585 -3.8739,1.662 -7.7012,5.1137 -3.7807,3.4517 -6.3011,7.713 -2.4737,4.2188 -4.154,10.0568 6.7211,-4.2187 13.4888,-4.2187 6.4878,0 11.2487,4.7727 4.7608,4.7727 4.7608,12.2727 0,7.2444 -4.8075,13.2103 -5.7876,7.2443 -15.3093,7.2443 -6.4876,0 -11.0151,-3.9205 -8.8681,-7.6278 -8.8681,-19.7727 0,-7.7557 3.4072,-14.7443 3.4072,-6.9886 9.7083,-12.4006 6.3477,-5.4119 12.1353,-7.2869 5.7877,-1.875 10.7818,-1.875 z m -29.0314,29.8295 q -0.8402,5.7529 -0.8402,9.2898 0,4.0909 1.6336,8.9063 1.6803,4.7727 4.9475,7.5852 2.3803,2.0028 5.7876,2.0028 4.0607,0 7.2346,-3.4943 3.2205,-3.4943 3.2205,-9.9716 0,-7.2869 -3.1738,-12.6136 -3.1739,-5.3267 -9.0082,-5.3267 -1.7736,0 -3.8273,0.6818 -2.0071,0.6818 -5.9743,2.9403 z"
       id="path4389"
       inkscape:connector-curvature="0"
       style="font-style:normal;font-variant:normal;font-weight:normal;font-stretch:normal;font-size:medium;line-height:125%;font-family:'Times New Roman';-inkscape-font-specification:'Times New Roman, ';letter-spacing:0px;word-spacing:0px;fill:#000000;fill-opacity:1;stroke:none;stroke-width:1px;stroke-linecap:butt;stroke-linejoin:miter;stroke-opacity:1" />
    <path
       inkscape:connector-curvature="0"
       id="path4447"
       d="m 4121.2603,3911.9996 v -1.5767 q 6.161,-0.554 10.0817,-2.2585 3.8739,-1.662 7.7012,-5.1137 3.7807,-3.4517 6.3011,-7.713 2.4737,-4.2188 4.154,-10.0568 -6.7211,4.2187 -13.4888,4.2187 -6.4878,0 -11.2487,-4.7727 -4.7608,-4.7727 -4.7608,-12.2727 0,-7.2444 4.8075,-13.2103 5.7876,-7.2443 15.3093,-7.2443 6.4876,0 11.0151,3.9205 8.8681,7.6278 8.8681,19.7727 0,7.7557 -3.4072,14.7443 -3.4072,6.9886 -9.7083,12.4006 -6.3477,5.4119 -12.1353,7.2869 -5.7877,1.875 -10.7818,1.875 z m 29.0314,-29.8295 q 0.8402,-5.7529 0.8402,-9.2898 0,-4.0909 -1.6336,-8.9063 -1.6803,-4.7727 -4.9475,-7.5852 -2.3803,-2.0028 -5.7876,-2.0028 -4.0607,0 -7.2346,3.4943 -3.2205,3.4943 -3.2205,9.9716 0,7.2869 3.1738,12.6136 3.1739,5.3267 9.0082,5.3267 1.7736,0 3.8273,-0.6818 2.0071,-0.6818 5.9743,-2.9403 z"
       style="font-style:normal;font-variant:normal;font-weight:normal;font-stretch:normal;font-size:medium;line-height:125%;font-family:'Times New Roman';-inkscape-font-specification:'Times New Roman, ';letter-spacing:0px;word-spacing:0px;fill:#000000;fill-opacity:1;stroke:none;stroke-width:1px;stroke-linecap:butt;stroke-linejoin:miter;stroke-opacity:1" />
  </g>
</svg>
