<?xml version="1.0" encoding="UTF-8" standalone="no"?>
<!-- Created with Inkscape (http://www.inkscape.org/) -->

<svg
   id="svg10047"
   height="122.98924"
   width="78.998276"
   version="1.1"
   viewBox="0 0 78.998276 122.98924"
   inkscape:version="0.91 r13725"
   sodipodi:docname="franzoesisches-bild.svgz"
   xmlns:inkscape="http://www.inkscape.org/namespaces/inkscape"
   xmlns:sodipodi="http://sodipodi.sourceforge.net/DTD/sodipodi-0.dtd"
   xmlns="http://www.w3.org/2000/svg"
   xmlns:svg="http://www.w3.org/2000/svg"
   xmlns:rdf="http://www.w3.org/1999/02/22-rdf-syntax-ns#"
   xmlns:cc="http://creativecommons.org/ns#"
   xmlns:dc="http://purl.org/dc/elements/1.1/">
  <sodipodi:namedview
     pagecolor="#ffffff"
     bordercolor="#666666"
     borderopacity="1"
     objecttolerance="10"
     gridtolerance="10"
     guidetolerance="10"
     inkscape:pageopacity="0"
     inkscape:pageshadow="2"
     inkscape:window-width="1920"
     inkscape:window-height="1016"
     id="namedview1491"
     showgrid="false"
     inkscape:zoom="1.3479675"
     inkscape:cx="513.5"
     inkscape:cy="307.5"
     inkscape:window-x="0"
     inkscape:window-y="0"
     inkscape:window-maximized="1"
     inkscape:current-layer="svg10047"
     showguides="true"
     inkscape:guide-bbox="true"
     inkscape:snap-grids="true"
     inkscape:showpageshadow="2"
     inkscape:pagecheckerboard="0"
     inkscape:deskcolor="#d1d1d1" />
  <metadata
     id="metadata16869">
    <rdf:RDF>
      <cc:Work
         rdf:about="">
        <dc:format>image/svg+xml</dc:format>
        <dc:type
           rdf:resource="http://purl.org/dc/dcmitype/StillImage" />
        <dc:title />
      </cc:Work>
    </rdf:RDF>
  </metadata>
  <defs
     id="defs10049" />
  <g
     transform="matrix(0.13625087,0,0,0.13665483,-109.0007,-286.97524)"
     id="club_2"
     inkscape:label="#club_2">
    <rect
       style="font-style:normal;font-variant:normal;font-weight:500;font-stretch:normal;font-size:medium;line-height:125%;font-family:Gaelic;-inkscape-font-specification:'Gaelic Medium';letter-spacing:0px;word-spacing:0px;fill:#ffffff;fill-opacity:1;stroke:#000000;stroke-width:1.99863;stroke-linecap:butt;stroke-linejoin:miter;stroke-miterlimit:4;stroke-dasharray:none;stroke-opacity:1"
       id="rect4983"
       y="2101"
       x="800.99933"
       ry="49.888187"
       rx="48.194115"
       height="898.00061"
       width="577.80151" />
    <path
       inkscape:connector-curvature="0"
       id="path5077"
       style="font-style:normal;font-variant:normal;font-weight:500;font-stretch:expanded;font-size:medium;line-height:125%;font-family:'Engravers MT';-inkscape-font-specification:'Engravers MT Medium Expanded';letter-spacing:0px;word-spacing:0px;fill:#000000;fill-opacity:1;stroke:none;stroke-width:1px;stroke-linecap:butt;stroke-linejoin:miter;stroke-opacity:1"
       d="m 880,2187.3579 -3.44542,22.6422 h -36.48579 q 0.20676,-4.132 3.68648,-9.1496 3.10088,-4.343 11.9208,-12.1012 4.85789,-4.3851 5.92591,-5.5236 0.20677,-0.253 0.48242,-0.548 0.27555,-0.3374 0.6201,-0.759 2.75623,-3.4998 3.96213,-6.9572 1.2058,-3.4575 1.2058,-7.8004 0,-7.4209 -2.9973,-11.3844 -2.963,-3.9634 -8.44108,-3.9634 -4.13431,0 -7.61413,2.0659 -3.47971,2.0661 -5.47798,5.608 -1.99837,3.5418 -1.99837,7.7582 0,4.5959 1.68822,4.5959 0.68909,0 0.79247,-1.2226 0.13778,-1.012 0.48232,-2.0662 0.93024,-2.6142 2.34281,-3.7948 1.44695,-1.2228 3.5831,-1.2228 1.7571,0 3.13527,0.9276 1.41256,0.9276 2.17054,2.6565 0.75797,1.6865 0.75797,3.7526 0,2.3611 -0.99923,4.3006 -0.96464,1.8976 -2.65286,2.9939 -1.65372,1.0962 -3.75527,1.0962 -3.89325,0 -6.40833,-3.2888 Q 840,2172.6846 840,2167.5827 q 0,-3.078 0.96454,-6.0295 0.99923,-2.9936 2.85972,-5.2705 5.03016,-6.2826 15.5039,-6.2826 4.34108,0 8.02756,1.3071 3.68648,1.265 6.33934,3.6684 2.65285,2.4033 4.06541,5.6501 1.41267,3.2466 1.41267,7.0413 0,5.5235 -3.13528,9.8665 -1.30918,1.9395 -3.03189,3.4575 -3.30755,2.6565 -9.92244,6.0296 -9.26794,4.7645 -12.98882,8.3064 -0.86136,0.7589 -3.30755,3.4574 h 22.49793 q 3.13518,0 4.75441,-0.6746 1.65382,-0.7168 2.58396,-2.5298 0.93025,-1.8132 1.61943,-5.4392 l 0.48232,-2.7829 z" />
    <path
       d="m 1340,2187.3579 -3.4454,22.6422 h -36.4858 q 0.2068,-4.132 3.6865,-9.1496 3.1009,-4.343 11.9208,-12.1012 4.8579,-4.3851 5.9259,-5.5236 0.2068,-0.253 0.4824,-0.548 0.2756,-0.3374 0.6201,-0.759 2.7562,-3.4998 3.9621,-6.9572 1.2058,-3.4575 1.2058,-7.8004 0,-7.4209 -2.9973,-11.3844 -2.963,-3.9634 -8.441,-3.9634 -4.1344,0 -7.6142,2.0659 -3.4797,2.0661 -5.478,5.608 -1.9983,3.5418 -1.9983,7.7582 0,4.5959 1.6882,4.5959 0.6891,0 0.7925,-1.2226 0.1377,-1.012 0.4823,-2.0662 0.9302,-2.6142 2.3428,-3.7948 1.4469,-1.2228 3.5831,-1.2228 1.7571,0 3.1353,0.9276 1.4125,0.9276 2.1705,2.6565 0.758,1.6865 0.758,3.7526 0,2.3611 -0.9993,4.3006 -0.9646,1.8976 -2.6528,2.9939 -1.6537,1.0962 -3.7553,1.0962 -3.8932,0 -6.4083,-3.2888 -2.4806,-3.2889 -2.4806,-8.3908 0,-3.078 0.9645,-6.0295 0.9993,-2.9936 2.8598,-5.2705 5.0301,-6.2826 15.5039,-6.2826 4.341,0 8.0275,1.3071 3.6865,1.265 6.3394,3.6684 2.6528,2.4033 4.0654,5.6501 1.4126,3.2466 1.4126,7.0413 0,5.5235 -3.1352,9.8665 -1.3092,1.9395 -3.0319,3.4575 -3.3076,2.6565 -9.9225,6.0296 -9.2679,4.7645 -12.9888,8.3064 -0.8613,0.7589 -3.3075,3.4574 h 22.4979 q 3.1352,0 4.7544,-0.6746 1.6538,-0.7168 2.584,-2.5298 0.9302,-1.8132 1.6194,-5.4392 l 0.4823,-2.7829 z"
       style="font-style:normal;font-variant:normal;font-weight:500;font-stretch:expanded;font-size:medium;line-height:125%;font-family:'Engravers MT';-inkscape-font-specification:'Engravers MT Medium Expanded';letter-spacing:0px;word-spacing:0px;fill:#000000;fill-opacity:1;stroke:none;stroke-width:1px;stroke-linecap:butt;stroke-linejoin:miter;stroke-opacity:1"
       id="path5079"
       inkscape:connector-curvature="0" />
    <path
       d="m 840,2912.6423 3.4454,-22.6422 h 36.4858 q -0.2068,4.132 -3.6865,9.1496 -3.1008,4.343 -11.9208,12.1012 -4.8579,4.3851 -5.9259,5.5236 -0.2068,0.253 -0.4824,0.548 -0.2755,0.3374 -0.6201,0.759 -2.7562,3.4998 -3.9621,6.9572 -1.2058,3.4575 -1.2058,7.8004 0,7.4209 2.9973,11.3844 2.963,3.9634 8.4411,3.9634 4.1343,0 7.6141,-2.0659 3.4797,-2.0661 5.478,-5.608 1.9983,-3.5418 1.9983,-7.7582 0,-4.5959 -1.6882,-4.5959 -0.6891,0 -0.7925,1.2226 -0.1377,1.012 -0.4823,2.0662 -0.9302,2.6142 -2.3428,3.7948 -1.4469,1.2228 -3.5831,1.2228 -1.7571,0 -3.1353,-0.9276 -1.4125,-0.9276 -2.1705,-2.6565 -0.758,-1.6865 -0.758,-3.7526 0,-2.3611 0.9993,-4.3006 0.9646,-1.8976 2.6528,-2.9939 1.6537,-1.0962 3.7553,-1.0962 3.8932,0 6.4083,3.2888 2.4806,3.2889 2.4806,8.3908 0,3.078 -0.9645,6.0295 -0.9993,2.9936 -2.8598,5.2705 -5.0301,6.2826 -15.5039,6.2826 -4.341,0 -8.0275,-1.3071 -3.6865,-1.265 -6.3394,-3.6684 -2.6528,-2.4033 -4.0654,-5.6501 -1.4126,-3.2466 -1.4126,-7.0413 0,-5.5235 3.1352,-9.8665 1.3092,-1.9395 3.0319,-3.4575 3.3076,-2.6565 9.9225,-6.0296 9.2679,-4.7645 12.9888,-8.3064 0.8613,-0.7589 3.3075,-3.4574 h -22.4979 q -3.1352,0 -4.7544,0.6746 -1.6538,0.7168 -2.584,2.5298 -0.9302,1.8132 -1.6194,5.4392 l -0.4823,2.7829 z"
       style="font-style:normal;font-variant:normal;font-weight:500;font-stretch:expanded;font-size:medium;line-height:125%;font-family:'Engravers MT';-inkscape-font-specification:'Engravers MT Medium Expanded';letter-spacing:0px;word-spacing:0px;fill:#000000;fill-opacity:1;stroke:none;stroke-width:1px;stroke-linecap:butt;stroke-linejoin:miter;stroke-opacity:1"
       id="path5081"
       inkscape:connector-curvature="0" />
    <path
       inkscape:connector-curvature="0"
       id="path5083"
       style="font-style:normal;font-variant:normal;font-weight:500;font-stretch:expanded;font-size:medium;line-height:125%;font-family:'Engravers MT';-inkscape-font-specification:'Engravers MT Medium Expanded';letter-spacing:0px;word-spacing:0px;fill:#000000;fill-opacity:1;stroke:none;stroke-width:1px;stroke-linecap:butt;stroke-linejoin:miter;stroke-opacity:1"
       d="m 1300,2912.6423 3.4454,-22.6422 h 36.4858 q -0.2068,4.132 -3.6865,9.1496 -3.1009,4.343 -11.9208,12.1012 -4.8579,4.3851 -5.9259,5.5236 -0.2068,0.253 -0.4824,0.548 -0.2756,0.3374 -0.6201,0.759 -2.7562,3.4998 -3.9621,6.9572 -1.2058,3.4575 -1.2058,7.8004 0,7.4209 2.9973,11.3844 2.963,3.9634 8.441,3.9634 4.1344,0 7.6142,-2.0659 3.4797,-2.0661 5.478,-5.608 1.9983,-3.5418 1.9983,-7.7582 0,-4.5959 -1.6882,-4.5959 -0.6891,0 -0.7925,1.2226 -0.1377,1.012 -0.4823,2.0662 -0.9302,2.6142 -2.3428,3.7948 -1.4469,1.2228 -3.5831,1.2228 -1.7571,0 -3.1353,-0.9276 -1.4125,-0.9276 -2.1705,-2.6565 -0.758,-1.6865 -0.758,-3.7526 0,-2.3611 0.9993,-4.3006 0.9646,-1.8976 2.6528,-2.9939 1.6537,-1.0962 3.7553,-1.0962 3.8932,0 6.4083,3.2888 2.4806,3.2889 2.4806,8.3908 0,3.078 -0.9645,6.0295 -0.9993,2.9936 -2.8598,5.2705 -5.0301,6.2826 -15.5039,6.2826 -4.341,0 -8.0275,-1.3071 -3.6865,-1.265 -6.3394,-3.6684 -2.6528,-2.4033 -4.0654,-5.6501 -1.4126,-3.2466 -1.4126,-7.0413 0,-5.5235 3.1352,-9.8665 1.3092,-1.9395 3.0319,-3.4575 3.3076,-2.6565 9.9225,-6.0296 9.2679,-4.7645 12.9888,-8.3064 0.8613,-0.7589 3.3075,-3.4574 h -22.4979 q -3.1352,0 -4.7544,0.6746 -1.6538,0.7168 -2.584,2.5298 -0.9302,1.8132 -1.6194,5.4392 l -0.4823,2.7829 z" />
    <path
       inkscape:connector-curvature="0"
       id="path6475"
       d="m 1063.5973,2317.7595 c -0.2106,-0.3408 2.1284,-3.9954 5.7051,-8.9124 4.0481,-5.5669 10.2055,-17.2152 12.8374,-24.2858 1.8685,-5.0223 2.4613,-8.5762 2.678,-16.0656 0.2828,-9.7977 -0.5517,-16.0763 -2.1374,-16.0763 -1.1485,0 -4.6098,2.7352 -10.036,7.9317 -6.5707,6.2931 -9.9829,8.961 -13.9116,10.878 -5.368,2.6193 -10.1212,2.9921 -15.7059,1.2315 -4.7532,-1.4987 -8.2557,-3.6732 -11.6338,-7.2239 -3.3269,-3.4965 -5.5325,-7.3611 -6.7662,-11.8527 -0.8947,-3.2593 -0.8205,-9.4187 0.1504,-12.5315 4.1554,-13.3183 16.8193,-20.4457 30.2314,-17.0149 5.6799,1.4527 11.4923,5.1785 16.2596,10.4218 5.1784,5.6954 7.1413,7.537 8.9106,8.3608 3.7713,1.7563 5.8264,0.4021 6.2487,-4.1164 0.4603,-4.9321 -1.6429,-8.8161 -9.701,-17.9155 -7.6158,-8.5992 -11.2206,-14.5907 -12.5475,-20.8504 -1.5186,-7.1697 1.002,-15.9197 6.0781,-21.0954 3.6199,-3.6916 7.7753,-5.849 14.7311,-7.6498 l 3.8354,-0.9927 2.4724,0.5754 c 7.8926,1.8366 12.2145,3.9457 16.1473,7.8791 2.1875,2.1883 3.019,3.3028 4.0872,5.48 1.7633,3.5915 2.6429,7.3444 2.6459,11.2823 0,7.9038 -3.6008,14.9663 -13.04,25.5324 -4.0039,4.4817 -6.7702,8.1431 -8.035,10.636 -1.0882,2.1458 -1.2417,2.7408 -1.3641,5.3051 -0.2327,4.8721 1.0271,6.9775 3.9769,6.645 2.0642,-0.2328 4.3761,-1.8915 7.5636,-5.4277 6.2316,-6.9136 9.2517,-9.4648 13.9898,-11.8198 13.6879,-6.803 28.0909,-2.1866 34.5039,11.0591 1.878,3.8795 2.382,6.4513 2.19,11.1729 -0.234,5.7802 -1.744,9.8891 -5.447,14.8258 -3.193,4.2571 -8.792,8.0188 -14.2681,9.5867 -3.7823,1.0827 -8.3981,1.0132 -11.8715,-0.1789 -5.1012,-1.7512 -8.701,-4.2855 -15.6468,-11.0164 -7.2797,-7.0544 -10.8865,-9.7165 -11.9597,-8.8255 -1.7041,1.4144 -2.2557,18.171 -0.8275,25.1084 1.7422,8.4606 8.9257,23.1486 16.0239,32.7674 2.7863,3.7753 4.5356,6.4966 4.5356,7.057 0,0.5386 -5.5757,0.4487 -9.6429,-0.1554 -5.3991,-0.8021 -22.3508,-0.9682 -28.446,-0.2787 -6.2627,0.7084 -12.5495,0.9779 -12.8143,0.5493 z"
       style="fill:#000000;fill-opacity:1" />
    <path
       style="fill:#000000;fill-opacity:1"
       d="m 1063.5973,2782.2405 c -0.2106,0.3408 2.1284,3.9954 5.7051,8.9124 4.0481,5.5669 10.2055,17.2152 12.8374,24.2858 1.8685,5.0223 2.4613,8.5762 2.678,16.0656 0.2828,9.7977 -0.5517,16.0763 -2.1374,16.0763 -1.1485,0 -4.6098,-2.7352 -10.036,-7.9317 -6.5707,-6.2931 -9.9829,-8.961 -13.9116,-10.878 -5.368,-2.6193 -10.1212,-2.9921 -15.7059,-1.2315 -4.7532,1.4987 -8.2557,3.6732 -11.6338,7.2239 -3.3269,3.4965 -5.5325,7.3611 -6.7662,11.8527 -0.8947,3.2593 -0.8205,9.4187 0.1504,12.5315 4.1554,13.3183 16.8193,20.4457 30.2314,17.0149 5.6799,-1.4527 11.4923,-5.1785 16.2596,-10.4218 5.1784,-5.6954 7.1413,-7.537 8.9106,-8.3608 3.7713,-1.7563 5.8264,-0.4021 6.2487,4.1164 0.4603,4.9321 -1.6429,8.8161 -9.701,17.9155 -7.6158,8.5992 -11.2206,14.5907 -12.5475,20.8504 -1.5186,7.1697 1.002,15.9197 6.0781,21.0954 3.6199,3.6916 7.7753,5.849 14.7311,7.6498 l 3.8354,0.9927 2.4724,-0.5754 c 7.8926,-1.8366 12.2145,-3.9457 16.1473,-7.8791 2.1875,-2.1883 3.019,-3.3028 4.0872,-5.48 1.7633,-3.5915 2.6429,-7.3444 2.6459,-11.2823 0,-7.9038 -3.6008,-14.9663 -13.04,-25.5324 -4.0039,-4.4817 -6.7702,-8.1431 -8.035,-10.636 -1.0882,-2.1458 -1.2417,-2.7408 -1.3641,-5.3051 -0.2327,-4.8721 1.0271,-6.9775 3.9769,-6.645 2.0642,0.2328 4.3761,1.8915 7.5636,5.4277 6.2316,6.9136 9.2517,9.4648 13.9898,11.8198 13.6879,6.803 28.0909,2.1866 34.5039,-11.0591 1.878,-3.8795 2.382,-6.4513 2.19,-11.1729 -0.234,-5.7802 -1.744,-9.8891 -5.447,-14.8258 -3.193,-4.2571 -8.792,-8.0188 -14.2681,-9.5867 -3.7823,-1.0827 -8.3981,-1.0132 -11.8715,0.1789 -5.1012,1.7512 -8.701,4.2855 -15.6468,11.0164 -7.2797,7.0544 -10.8865,9.7165 -11.9597,8.8255 -1.7041,-1.4144 -2.2557,-18.171 -0.8275,-25.1084 1.7422,-8.4606 8.9257,-23.1486 16.0239,-32.7674 2.7863,-3.7753 4.5356,-6.4966 4.5356,-7.057 0,-0.5386 -5.5757,-0.4487 -9.6429,0.1554 -5.3991,0.8021 -22.3508,0.9682 -28.446,0.2787 -6.2627,-0.7084 -12.5495,-0.9779 -12.8143,-0.5493 z"
       id="path6479"
       inkscape:connector-curvature="0" />
    <path
       style="fill:#000000;fill-opacity:1"
       d="m 852.01348,2295.9283 c -0.072,-0.1013 0.7204,-1.1878 1.9309,-2.6496 1.3702,-1.6551 3.4543,-5.118 4.345,-7.2201 0.6325,-1.4931 0.8331,-2.5497 0.9064,-4.7762 0.096,-2.9129 -0.1867,-4.7795 -0.7234,-4.7795 -0.3887,0 -1.5602,0.8132 -3.3968,2.358 -2.224,1.8709 -3.3788,2.6641 -4.7086,3.2341 -1.8169,0.7786 -3.4257,0.8895 -5.3159,0.366 -1.6088,-0.4455 -2.7943,-1.0919 -3.9377,-2.1475 -1.1259,-1.0396 -1.8725,-2.1885 -2.2901,-3.5238 -0.3028,-0.969 -0.2777,-2.8002 0.05,-3.7256 1.4066,-3.9595 5.6928,-6.0784 10.2324,-5.0585 1.9224,0.4319 3.8897,1.5396 5.5033,3.0983 1.7527,1.6933 2.4171,2.2408 3.0159,2.4857 1.2765,0.5222 1.972,0.1196 2.115,-1.2238 0.1558,-1.4663 -0.5561,-2.6209 -3.2835,-5.3262 -2.5776,-2.5565 -3.7977,-4.3378 -4.2469,-6.1988 -0.514,-2.1315 0.3392,-4.7329 2.0573,-6.2715 1.2251,-1.0976 2.6317,-1.7389 4.9859,-2.2743 l 1.2982,-0.2951 0.8369,0.171 c 2.6713,0.546 4.134,1.1731 5.4652,2.3425 0.7403,0.6505 1.0218,0.9819 1.3834,1.6291 0.5968,1.0678 0.8945,2.1835 0.8955,3.3542 0,2.3499 -1.2187,4.4495 -4.4136,7.5907 -1.3551,1.3324 -2.2915,2.421 -2.7195,3.1621 -0.3684,0.6379 -0.4204,0.8148 -0.4617,1.5772 -0.079,1.4484 0.3476,2.0744 1.346,1.9755 0.6986,-0.069 1.4812,-0.5624 2.56,-1.6136 2.1092,-2.0554 3.1314,-2.8139 4.7351,-3.514 4.6329,-2.0225 9.5078,-0.6501 11.6783,3.2879 0.6357,1.1533 0.8063,1.9179 0.7413,3.3216 -0.079,1.7185 -0.5903,2.94 -1.8436,4.4077 -1.0807,1.2655 -2.9758,2.3839 -4.8293,2.8501 -1.2802,0.3219 -2.8424,0.3012 -4.0181,-0.053 -1.7265,-0.5206 -2.945,-1.274 -5.2959,-3.2751 -2.4639,-2.0972 -3.6847,-2.8886 -4.048,-2.6238 -0.5767,0.4205 -0.7634,5.4023 -0.28,7.4647 0.5897,2.5153 3.0211,6.882 5.4236,9.7415 0.943,1.1225 1.5351,1.9316 1.5351,2.0981 0,0.1602 -1.8872,0.1334 -3.2638,-0.047 -1.8274,-0.2385 -7.565,-0.2879 -9.6281,-0.082 -2.1196,0.2105 -4.2474,0.2906 -4.3371,0.1633 z"
       id="path6524"
       inkscape:connector-curvature="0" />
    <path
       inkscape:connector-curvature="0"
       id="path6526"
       d="m 1310.4132,2295.9283 c -0.072,-0.1013 0.7204,-1.1878 1.9309,-2.6496 1.3702,-1.6551 3.4543,-5.118 4.345,-7.2201 0.6325,-1.4931 0.8331,-2.5497 0.9064,-4.7762 0.096,-2.9129 -0.1867,-4.7795 -0.7234,-4.7795 -0.3887,0 -1.5602,0.8132 -3.3968,2.358 -2.224,1.8709 -3.3788,2.6641 -4.7086,3.2341 -1.8169,0.7786 -3.4257,0.8895 -5.3159,0.366 -1.6088,-0.4455 -2.7943,-1.0919 -3.9377,-2.1475 -1.1259,-1.0396 -1.8725,-2.1885 -2.2901,-3.5238 -0.3028,-0.969 -0.2777,-2.8002 0.05,-3.7256 1.4066,-3.9595 5.6928,-6.0784 10.2324,-5.0585 1.9224,0.4319 3.8897,1.5396 5.5033,3.0983 1.7527,1.6933 2.4171,2.2408 3.0159,2.4857 1.2765,0.5222 1.972,0.1196 2.115,-1.2238 0.1558,-1.4663 -0.5561,-2.6209 -3.2835,-5.3262 -2.5776,-2.5565 -3.7977,-4.3378 -4.2469,-6.1988 -0.514,-2.1315 0.3392,-4.7329 2.0573,-6.2715 1.2251,-1.0976 2.6317,-1.7389 4.9859,-2.2743 l 1.2982,-0.2951 0.8369,0.171 c 2.6713,0.546 4.134,1.1731 5.4652,2.3425 0.7403,0.6505 1.0218,0.9819 1.3834,1.6291 0.5968,1.0678 0.8945,2.1835 0.8955,3.3542 0,2.3499 -1.2187,4.4495 -4.4136,7.5907 -1.3551,1.3324 -2.2915,2.421 -2.7195,3.1621 -0.3684,0.6379 -0.4204,0.8148 -0.4617,1.5772 -0.079,1.4484 0.3476,2.0744 1.346,1.9755 0.6986,-0.069 1.4812,-0.5624 2.56,-1.6136 2.1092,-2.0554 3.1314,-2.8139 4.7351,-3.514 4.6329,-2.0225 9.5078,-0.6501 11.6783,3.2879 0.6357,1.1533 0.8063,1.9179 0.7413,3.3216 -0.079,1.7185 -0.5903,2.94 -1.8436,4.4077 -1.0807,1.2655 -2.9758,2.3839 -4.8293,2.8501 -1.2802,0.3219 -2.8424,0.3012 -4.0181,-0.053 -1.7265,-0.5206 -2.945,-1.274 -5.2959,-3.2751 -2.4639,-2.0972 -3.6847,-2.8886 -4.048,-2.6238 -0.5767,0.4205 -0.7634,5.4023 -0.28,7.4647 0.5897,2.5153 3.0211,6.882 5.4236,9.7415 0.943,1.1225 1.5351,1.9316 1.5351,2.0981 0,0.1602 -1.8872,0.1334 -3.2638,-0.047 -1.8274,-0.2385 -7.565,-0.2879 -9.6281,-0.082 -2.1196,0.2105 -4.2474,0.2906 -4.3371,0.1633 z"
       style="fill:#000000;fill-opacity:1" />
    <path
       inkscape:connector-curvature="0"
       id="path6564"
       d="m 852.01348,2804.2716 c -0.072,0.1013 0.7204,1.1878 1.9309,2.6496 1.3702,1.6551 3.4543,5.118 4.345,7.2201 0.6325,1.4931 0.8331,2.5497 0.9064,4.7762 0.096,2.9129 -0.1867,4.7795 -0.7234,4.7795 -0.3887,0 -1.5602,-0.8132 -3.3968,-2.358 -2.224,-1.8709 -3.3788,-2.6641 -4.7086,-3.2341 -1.8169,-0.7786 -3.4257,-0.8895 -5.3159,-0.366 -1.6088,0.4455 -2.7943,1.0919 -3.9377,2.1475 -1.1259,1.0396 -1.8725,2.1885 -2.2901,3.5238 -0.3028,0.969 -0.2777,2.8002 0.05,3.7256 1.4066,3.9595 5.6928,6.0784 10.2324,5.0585 1.9224,-0.4319 3.8897,-1.5396 5.5033,-3.0983 1.7527,-1.6933 2.4171,-2.2408 3.0159,-2.4857 1.2765,-0.5222 1.972,-0.1196 2.115,1.2238 0.1558,1.4663 -0.5561,2.6209 -3.2835,5.3262 -2.5776,2.5565 -3.7977,4.3378 -4.2469,6.1988 -0.514,2.1315 0.3392,4.7329 2.0573,6.2715 1.2251,1.0976 2.6317,1.7389 4.9859,2.2743 l 1.2982,0.2951 0.8369,-0.171 c 2.6713,-0.546 4.134,-1.1731 5.4652,-2.3425 0.7403,-0.6505 1.0218,-0.9819 1.3834,-1.6291 0.5968,-1.0678 0.8945,-2.1835 0.8955,-3.3542 0,-2.3499 -1.2187,-4.4495 -4.4136,-7.5907 -1.3551,-1.3324 -2.2915,-2.421 -2.7195,-3.1621 -0.3684,-0.6379 -0.4204,-0.8148 -0.4617,-1.5772 -0.079,-1.4484 0.3476,-2.0744 1.346,-1.9755 0.6986,0.069 1.4812,0.5624 2.56,1.6136 2.1092,2.0554 3.1314,2.8139 4.7351,3.514 4.6329,2.0225 9.5078,0.6501 11.6783,-3.2879 0.6357,-1.1533 0.8063,-1.9179 0.7413,-3.3216 -0.079,-1.7185 -0.5903,-2.94 -1.8436,-4.4077 -1.0807,-1.2655 -2.9758,-2.3839 -4.8293,-2.8501 -1.2802,-0.3219 -2.8424,-0.3012 -4.0181,0.053 -1.7265,0.5206 -2.945,1.274 -5.2959,3.2751 -2.4639,2.0972 -3.6847,2.8886 -4.048,2.6238 -0.5767,-0.4205 -0.7634,-5.4023 -0.28,-7.4647 0.5897,-2.5153 3.0211,-6.882 5.4236,-9.7415 0.943,-1.1225 1.5351,-1.9316 1.5351,-2.0981 0,-0.1602 -1.8872,-0.1334 -3.2638,0.047 -1.8274,0.2385 -7.565,0.2879 -9.6281,0.082 -2.1196,-0.2105 -4.2474,-0.2906 -4.3371,-0.1633 z"
       style="fill:#000000;fill-opacity:1" />
    <path
       style="fill:#000000;fill-opacity:1"
       d="m 1310.4132,2804.2716 c -0.072,0.1013 0.7204,1.1878 1.9309,2.6496 1.3702,1.6551 3.4543,5.118 4.345,7.2201 0.6325,1.4931 0.8331,2.5497 0.9064,4.7762 0.096,2.9129 -0.1867,4.7795 -0.7234,4.7795 -0.3887,0 -1.5602,-0.8132 -3.3968,-2.358 -2.224,-1.8709 -3.3788,-2.6641 -4.7086,-3.2341 -1.8169,-0.7786 -3.4257,-0.8895 -5.3159,-0.366 -1.6088,0.4455 -2.7943,1.0919 -3.9377,2.1475 -1.1259,1.0396 -1.8725,2.1885 -2.2901,3.5238 -0.3028,0.969 -0.2777,2.8002 0.05,3.7256 1.4066,3.9595 5.6928,6.0784 10.2324,5.0585 1.9224,-0.4319 3.8897,-1.5396 5.5033,-3.0983 1.7527,-1.6933 2.4171,-2.2408 3.0159,-2.4857 1.2765,-0.5222 1.972,-0.1196 2.115,1.2238 0.1558,1.4663 -0.5561,2.6209 -3.2835,5.3262 -2.5776,2.5565 -3.7977,4.3378 -4.2469,6.1988 -0.514,2.1315 0.3392,4.7329 2.0573,6.2715 1.2251,1.0976 2.6317,1.7389 4.9859,2.2743 l 1.2982,0.2951 0.8369,-0.171 c 2.6713,-0.546 4.134,-1.1731 5.4652,-2.3425 0.7403,-0.6505 1.0218,-0.9819 1.3834,-1.6291 0.5968,-1.0678 0.8945,-2.1835 0.8955,-3.3542 0,-2.3499 -1.2187,-4.4495 -4.4136,-7.5907 -1.3551,-1.3324 -2.2915,-2.421 -2.7195,-3.1621 -0.3684,-0.6379 -0.4204,-0.8148 -0.4617,-1.5772 -0.079,-1.4484 0.3476,-2.0744 1.346,-1.9755 0.6986,0.069 1.4812,0.5624 2.56,1.6136 2.1092,2.0554 3.1314,2.8139 4.7351,3.514 4.6329,2.0225 9.5078,0.6501 11.6783,-3.2879 0.6357,-1.1533 0.8063,-1.9179 0.7413,-3.3216 -0.079,-1.7185 -0.5903,-2.94 -1.8436,-4.4077 -1.0807,-1.2655 -2.9758,-2.3839 -4.8293,-2.8501 -1.2802,-0.3219 -2.8424,-0.3012 -4.0181,0.053 -1.7265,0.5206 -2.945,1.274 -5.2959,3.2751 -2.4639,2.0972 -3.6847,2.8886 -4.048,2.6238 -0.5767,-0.4205 -0.7634,-5.4023 -0.28,-7.4647 0.5897,-2.5153 3.0211,-6.882 5.4236,-9.7415 0.943,-1.1225 1.5351,-1.9316 1.5351,-2.0981 0,-0.1602 -1.8872,-0.1334 -3.2638,0.047 -1.8274,0.2385 -7.565,0.2879 -9.6281,0.082 -2.1196,-0.2105 -4.2474,-0.2906 -4.3371,-0.1633 z"
       id="path6566"
       inkscape:connector-curvature="0" />
  </g>
</svg>
