<?xml version="1.0" encoding="UTF-8" standalone="no"?>
<!-- Created with Inkscape (http://www.inkscape.org/) -->

<svg
   id="svg10047"
   height="122.98924"
   width="78.998276"
   version="1.1"
   viewBox="0 0 78.998276 122.98924"
   inkscape:version="0.91 r13725"
   sodipodi:docname="franzoesisches-bild.svgz"
   xmlns:inkscape="http://www.inkscape.org/namespaces/inkscape"
   xmlns:sodipodi="http://sodipodi.sourceforge.net/DTD/sodipodi-0.dtd"
   xmlns="http://www.w3.org/2000/svg"
   xmlns:svg="http://www.w3.org/2000/svg"
   xmlns:rdf="http://www.w3.org/1999/02/22-rdf-syntax-ns#"
   xmlns:cc="http://creativecommons.org/ns#"
   xmlns:dc="http://purl.org/dc/elements/1.1/">
  <sodipodi:namedview
     pagecolor="#ffffff"
     bordercolor="#666666"
     borderopacity="1"
     objecttolerance="10"
     gridtolerance="10"
     guidetolerance="10"
     inkscape:pageopacity="0"
     inkscape:pageshadow="2"
     inkscape:window-width="1920"
     inkscape:window-height="1016"
     id="namedview1491"
     showgrid="false"
     inkscape:zoom="1.3479675"
     inkscape:cx="513.5"
     inkscape:cy="307.5"
     inkscape:window-x="0"
     inkscape:window-y="0"
     inkscape:window-maximized="1"
     inkscape:current-layer="svg10047"
     showguides="true"
     inkscape:guide-bbox="true"
     inkscape:snap-grids="true"
     inkscape:showpageshadow="2"
     inkscape:pagecheckerboard="0"
     inkscape:deskcolor="#d1d1d1" />
  <metadata
     id="metadata16869">
    <rdf:RDF>
      <cc:Work
         rdf:about="">
        <dc:format>image/svg+xml</dc:format>
        <dc:type
           rdf:resource="http://purl.org/dc/dcmitype/StillImage" />
        <dc:title />
      </cc:Work>
    </rdf:RDF>
  </metadata>
  <defs
     id="defs10049" />
  <g
     transform="matrix(0.13625087,0,0,0.13665483,-395.12752,-150.32042)"
     id="diamond_5"
     inkscape:label="#diamond_5">
    <rect
       width="577.80151"
       height="898.00061"
       rx="48.194115"
       ry="49.888187"
       x="2900.9993"
       y="1101.0001"
       id="rect6648"
       style="font-style:normal;font-variant:normal;font-weight:500;font-stretch:normal;font-size:medium;line-height:125%;font-family:Gaelic;-inkscape-font-specification:'Gaelic Medium';letter-spacing:0px;word-spacing:0px;fill:#ffffff;fill-opacity:1;stroke:#000000;stroke-width:1.99863;stroke-linecap:butt;stroke-linejoin:miter;stroke-miterlimit:4;stroke-dasharray:none;stroke-opacity:1" />
    <path
       d="m 2978.3849,1150.2063 0.1375,0.9898 q -1.7526,3.0927 -3.4022,4.8659 -1.6494,1.7319 -4.3642,3.4227 -3.127,1.8969 -7.0103,2.8866 -3.8488,0.9896 -8.2474,0.9896 -4.3987,0 -9.4846,-0.9071 l -2.0617,16.701 q 4.8453,-3.3403 7.8694,-4.4948 3.0583,-1.1546 7.1821,-1.1546 3.7113,0 6.8385,0.7835 3.1271,0.7422 5.6358,2.2268 2.5429,1.4844 4.433,3.7525 1.9586,2.3093 3.0239,5.3196 1.0653,2.9691 1.0653,6.0619 0,6.5155 -3.9519,11.0516 -6.1856,7.2989 -18.3505,7.2989 -3.6426,0 -7.2164,-0.9072 -3.5396,-0.9072 -5.6701,-2.3093 -2.3025,-1.6082 -3.5739,-3.9175 -1.2372,-2.3094 -1.2372,-4.9485 0,-3.0514 1.6839,-5.0309 1.6838,-1.9794 4.158,-1.9794 1.6496,0 2.921,0.866 1.2716,0.8248 2.0275,2.3093 0.756,1.4845 0.756,3.2989 0,3.629 -3.1615,5.6908 -1.3402,0.9073 -1.3402,1.6907 0,1.3609 2.8523,2.5155 2.8866,1.1134 6.3918,1.1134 6.426,0 9.4156,-4.1237 3.0242,-4.165 3.0242,-13.0309 0,-5.1547 -1.3403,-8.7424 -1.3058,-3.5875 -3.9518,-5.4845 -2.646,-1.897 -6.1856,-1.897 -2.3368,0 -4.3987,0.6187 -2.0618,0.6185 -4.3299,1.9794 -2.2336,1.3607 -4.7765,3.4638 h -1.2028 l 3.677,-31.1752 q 2.4742,0.9897 4.3643,1.3607 5.2233,1.1135 11.6838,1.1135 3.1615,0 5.9106,-0.2061 2.7492,-0.2476 5.2921,-0.7425 2.543,-0.5359 4.9141,-1.3195 z"
       style="font-style:normal;font-variant:normal;font-weight:500;font-stretch:expanded;font-size:medium;line-height:125%;font-family:'Engravers MT';-inkscape-font-specification:'Engravers MT Medium Expanded';letter-spacing:0px;word-spacing:0px;fill:#e24d46;fill-opacity:1;stroke:none;stroke-width:1px;stroke-linecap:butt;stroke-linejoin:miter;stroke-opacity:1"
       id="path6676"
       inkscape:connector-curvature="0" />
    <path
       inkscape:connector-curvature="0"
       id="path6678"
       style="font-style:normal;font-variant:normal;font-weight:500;font-stretch:expanded;font-size:medium;line-height:125%;font-family:'Engravers MT';-inkscape-font-specification:'Engravers MT Medium Expanded';letter-spacing:0px;word-spacing:0px;fill:#e24d46;fill-opacity:1;stroke:none;stroke-width:1px;stroke-linecap:butt;stroke-linejoin:miter;stroke-opacity:1"
       d="m 3438.3849,1150.2063 0.1375,0.9898 q -1.7526,3.0927 -3.4022,4.8659 -1.6494,1.7319 -4.3642,3.4227 -3.127,1.8969 -7.0103,2.8866 -3.8488,0.9896 -8.2474,0.9896 -4.3987,0 -9.4846,-0.9071 l -2.0617,16.701 q 4.8453,-3.3403 7.8694,-4.4948 3.0583,-1.1546 7.1821,-1.1546 3.7113,0 6.8385,0.7835 3.1271,0.7422 5.6358,2.2268 2.5429,1.4844 4.433,3.7525 1.9586,2.3093 3.0239,5.3196 1.0653,2.9691 1.0653,6.0619 0,6.5155 -3.9519,11.0516 -6.1856,7.2989 -18.3505,7.2989 -3.6426,0 -7.2164,-0.9072 -3.5396,-0.9072 -5.6701,-2.3093 -2.3025,-1.6082 -3.5739,-3.9175 -1.2372,-2.3094 -1.2372,-4.9485 0,-3.0514 1.6839,-5.0309 1.6838,-1.9794 4.158,-1.9794 1.6496,0 2.921,0.866 1.2716,0.8248 2.0275,2.3093 0.756,1.4845 0.756,3.2989 0,3.629 -3.1615,5.6908 -1.3402,0.9073 -1.3402,1.6907 0,1.3609 2.8523,2.5155 2.8866,1.1134 6.3918,1.1134 6.426,0 9.4156,-4.1237 3.0242,-4.165 3.0242,-13.0309 0,-5.1547 -1.3403,-8.7424 -1.3058,-3.5875 -3.9518,-5.4845 -2.646,-1.897 -6.1856,-1.897 -2.3368,0 -4.3987,0.6187 -2.0618,0.6185 -4.3299,1.9794 -2.2336,1.3607 -4.7765,3.4638 h -1.2028 l 3.677,-31.1752 q 2.4742,0.9897 4.3643,1.3607 5.2233,1.1135 11.6838,1.1135 3.1615,0 5.9106,-0.2061 2.7492,-0.2476 5.2921,-0.7425 2.543,-0.5359 4.9141,-1.3195 z" />
    <path
       inkscape:connector-curvature="0"
       id="path6680"
       style="font-style:normal;font-variant:normal;font-weight:500;font-stretch:expanded;font-size:medium;line-height:125%;font-family:'Engravers MT';-inkscape-font-specification:'Engravers MT Medium Expanded';letter-spacing:0px;word-spacing:0px;fill:#e24d46;fill-opacity:1;stroke:none;stroke-width:1px;stroke-linecap:butt;stroke-linejoin:miter;stroke-opacity:1"
       d="m 2941.6151,1949.7941 -0.1375,-0.9898 q 1.7526,-3.0927 3.4022,-4.8659 1.6494,-1.7319 4.3642,-3.4227 3.127,-1.8969 7.0103,-2.8866 3.8488,-0.9896 8.2474,-0.9896 4.3987,0 9.4846,0.9071 l 2.0617,-16.701 q -4.8453,3.3403 -7.8694,4.4948 -3.0583,1.1546 -7.1821,1.1546 -3.7113,0 -6.8385,-0.7835 -3.1271,-0.7422 -5.6358,-2.2268 -2.5429,-1.4844 -4.433,-3.7525 -1.9586,-2.3093 -3.0239,-5.3196 -1.0653,-2.9691 -1.0653,-6.0619 0,-6.5155 3.9519,-11.0516 6.1856,-7.2989 18.3505,-7.2989 3.6426,0 7.2164,0.9072 3.5396,0.9072 5.6701,2.3093 2.3025,1.6082 3.5739,3.9175 1.2372,2.3094 1.2372,4.9485 0,3.0514 -1.6839,5.0309 -1.6838,1.9794 -4.158,1.9794 -1.6496,0 -2.921,-0.866 -1.2716,-0.8248 -2.0275,-2.3093 -0.756,-1.4845 -0.756,-3.2989 0,-3.629 3.1615,-5.6908 1.3402,-0.9073 1.3402,-1.6907 0,-1.3609 -2.8523,-2.5155 -2.8866,-1.1134 -6.3918,-1.1134 -6.426,0 -9.4156,4.1237 -3.0242,4.165 -3.0242,13.0309 0,5.1547 1.3403,8.7424 1.3058,3.5875 3.9518,5.4845 2.646,1.897 6.1856,1.897 2.3368,0 4.3987,-0.6187 2.0618,-0.6185 4.3299,-1.9794 2.2336,-1.3607 4.7765,-3.4638 h 1.2028 l -3.677,31.1752 q -2.4742,-0.9897 -4.3643,-1.3607 -5.2233,-1.1135 -11.6838,-1.1135 -3.1615,0 -5.9106,0.2061 -2.7492,0.2476 -5.2921,0.7425 -2.543,0.5359 -4.9141,1.3195 z" />
    <path
       d="m 3401.6151,1949.7941 -0.1375,-0.9898 q 1.7526,-3.0927 3.4022,-4.8659 1.6494,-1.7319 4.3642,-3.4227 3.127,-1.8969 7.0103,-2.8866 3.8488,-0.9896 8.2474,-0.9896 4.3987,0 9.4846,0.9071 l 2.0617,-16.701 q -4.8453,3.3403 -7.8694,4.4948 -3.0583,1.1546 -7.1821,1.1546 -3.7113,0 -6.8385,-0.7835 -3.1271,-0.7422 -5.6358,-2.2268 -2.5429,-1.4844 -4.433,-3.7525 -1.9586,-2.3093 -3.0239,-5.3196 -1.0653,-2.9691 -1.0653,-6.0619 0,-6.5155 3.9519,-11.0516 6.1856,-7.2989 18.3505,-7.2989 3.6426,0 7.2164,0.9072 3.5396,0.9072 5.6701,2.3093 2.3025,1.6082 3.5739,3.9175 1.2372,2.3094 1.2372,4.9485 0,3.0514 -1.6839,5.0309 -1.6838,1.9794 -4.158,1.9794 -1.6496,0 -2.921,-0.866 -1.2716,-0.8248 -2.0275,-2.3093 -0.756,-1.4845 -0.756,-3.2989 0,-3.629 3.1615,-5.6908 1.3402,-0.9073 1.3402,-1.6907 0,-1.3609 -2.8523,-2.5155 -2.8866,-1.1134 -6.3918,-1.1134 -6.426,0 -9.4156,4.1237 -3.0242,4.165 -3.0242,13.0309 0,5.1547 1.3403,8.7424 1.3058,3.5875 3.9518,5.4845 2.646,1.897 6.1856,1.897 2.3368,0 4.3987,-0.6187 2.0618,-0.6185 4.3299,-1.9794 2.2336,-1.3607 4.7765,-3.4638 h 1.2028 l -3.677,31.1752 q -2.4742,-0.9897 -4.3643,-1.3607 -5.2233,-1.1135 -11.6838,-1.1135 -3.1615,0 -5.9106,0.2061 -2.7492,0.2476 -5.2921,0.7425 -2.543,0.5359 -4.9141,1.3195 z"
       style="font-style:normal;font-variant:normal;font-weight:500;font-stretch:expanded;font-size:medium;line-height:125%;font-family:'Engravers MT';-inkscape-font-specification:'Engravers MT Medium Expanded';letter-spacing:0px;word-spacing:0px;fill:#e24d46;fill-opacity:1;stroke:none;stroke-width:1px;stroke-linecap:butt;stroke-linejoin:miter;stroke-opacity:1"
       id="path6682"
       inkscape:connector-curvature="0" />
    <path
       inkscape:connector-curvature="0"
       id="path7280"
       d="m 3068.1977,1314.1818 c -19.4211,-26.0526 -39.9186,-46.1682 -65.6379,-64.416 -4.4525,-3.1589 -7.8456,-5.9771 -7.5408,-6.2625 0.3058,-0.2855 5.3572,-3.9901 11.227,-8.2322 27.5833,-19.9349 37.0125,-29.202 58.0865,-57.0921 l 10.7901,-14.279 1.9747,2.0901 c 1.087,1.1496 3.8834,4.7586 6.2162,8.0199 13.6696,19.113 32.2126,38.6329 48.6676,51.23 13.169,10.082 21.824,16.9327 22.683,17.955 1.231,1.4653 -0.544,3.1425 -11.677,11.0322 -24.674,17.4858 -37.111,29.8011 -57.7799,57.2162 -5.1643,6.8512 -9.475,12.4566 -9.5773,12.4566 -0.1066,0 -3.4475,-4.3732 -7.4322,-9.7182 z"
       style="fill:#e24d46;fill-opacity:1" />
    <path
       style="fill:#e24d46;fill-opacity:1"
       d="m 3298.1977,1314.1818 c -19.4211,-26.0526 -39.9186,-46.1682 -65.6379,-64.416 -4.4525,-3.1589 -7.8456,-5.9771 -7.5408,-6.2625 0.3058,-0.2855 5.3572,-3.9901 11.227,-8.2322 27.5833,-19.9349 37.0125,-29.202 58.0865,-57.0921 l 10.7901,-14.279 1.9747,2.0901 c 1.087,1.1496 3.8834,4.7586 6.2162,8.0199 13.6696,19.113 32.2126,38.6329 48.6676,51.23 13.169,10.082 21.824,16.9327 22.683,17.955 1.231,1.4653 -0.544,3.1425 -11.677,11.0322 -24.674,17.4858 -37.111,29.8011 -57.7799,57.2162 -5.1643,6.8512 -9.475,12.4566 -9.5773,12.4566 -0.1066,0 -3.4475,-4.3732 -7.4322,-9.7182 z"
       id="path7282"
       inkscape:connector-curvature="0" />
    <path
       style="fill:#e24d46;fill-opacity:1"
       d="m 3068.1977,1926.1818 c -19.4211,-26.0526 -39.9186,-46.1682 -65.6379,-64.416 -4.4525,-3.1589 -7.8456,-5.9771 -7.5408,-6.2625 0.3058,-0.2855 5.3572,-3.9901 11.227,-8.2322 27.5833,-19.9349 37.0125,-29.202 58.0865,-57.0921 l 10.7901,-14.279 1.9747,2.0901 c 1.087,1.1496 3.8834,4.7586 6.2162,8.0199 13.6696,19.113 32.2126,38.6329 48.6676,51.23 13.169,10.082 21.824,16.9327 22.683,17.955 1.231,1.4653 -0.544,3.1425 -11.677,11.0322 -24.674,17.4858 -37.111,29.8011 -57.7799,57.2162 -5.1643,6.8512 -9.475,12.4566 -9.5773,12.4566 -0.1066,0 -3.4475,-4.3732 -7.4322,-9.7182 z"
       id="path7293"
       inkscape:connector-curvature="0" />
    <path
       inkscape:connector-curvature="0"
       id="path7295"
       d="m 3298.1977,1926.1818 c -19.4211,-26.0526 -39.9186,-46.1682 -65.6379,-64.416 -4.4525,-3.1589 -7.8456,-5.9771 -7.5408,-6.2625 0.3058,-0.2855 5.3572,-3.9901 11.227,-8.2322 27.5833,-19.9349 37.0125,-29.202 58.0865,-57.0921 l 10.7901,-14.279 1.9747,2.0901 c 1.087,1.1496 3.8834,4.7586 6.2162,8.0199 13.6696,19.113 32.2126,38.6329 48.6676,51.23 13.169,10.082 21.824,16.9327 22.683,17.955 1.231,1.4653 -0.544,3.1425 -11.677,11.0322 -24.674,17.4858 -37.111,29.8011 -57.7799,57.2162 -5.1643,6.8512 -9.475,12.4566 -9.5773,12.4566 -0.1066,0 -3.4475,-4.3732 -7.4322,-9.7182 z"
       style="fill:#e24d46;fill-opacity:1" />
    <path
       style="fill:#e24d46;fill-opacity:1"
       d="m 3183.1977,1620.1818 c -19.4211,-26.0526 -39.9186,-46.1682 -65.6379,-64.416 -4.4525,-3.1589 -7.8456,-5.9771 -7.5408,-6.2625 0.3058,-0.2855 5.3572,-3.9901 11.227,-8.2322 27.5833,-19.9349 37.0125,-29.202 58.0865,-57.0921 l 10.7901,-14.279 1.9747,2.0901 c 1.087,1.1496 3.8834,4.7586 6.2162,8.0199 13.6696,19.113 32.2126,38.6329 48.6676,51.23 13.169,10.082 21.824,16.9327 22.683,17.955 1.231,1.4653 -0.544,3.1425 -11.677,11.0322 -24.674,17.4858 -37.111,29.8011 -57.7799,57.2162 -5.1643,6.8512 -9.475,12.4566 -9.5773,12.4566 -0.1066,0 -3.4475,-4.3732 -7.4322,-9.7182 z"
       id="path7297"
       inkscape:connector-curvature="0" />
    <path
       inkscape:connector-curvature="0"
       id="path7356"
       d="m 2958.8102,1293.0845 c -5.8264,-7.8157 -11.9755,-13.8504 -19.6913,-19.3248 -1.3358,-0.9477 -2.3537,-1.7931 -2.2622,-1.8787 0.091,-0.085 1.607,-1.197 3.368,-2.4696 8.275,-5.9806 11.1037,-8.7606 17.4259,-17.1276 l 3.237,-4.2838 0.5925,0.627 c 0.326,0.3449 1.1649,1.4276 1.8648,2.406 4.1009,5.734 9.6638,11.5898 14.6004,15.369 3.9506,3.0246 6.5471,5.0798 6.8048,5.3866 0.3693,0.4395 -0.1632,0.9427 -3.5031,3.3096 -7.4021,5.2456 -11.1333,8.9403 -17.3339,17.1648 -1.5493,2.0553 -2.8426,3.737 -2.8732,3.737 -0.032,0 -1.0343,-1.312 -2.2297,-2.9155 z"
       style="fill:#e24d46;fill-opacity:1" />
    <path
       style="fill:#e24d46;fill-opacity:1"
       d="m 3416.8102,1293.0845 c -5.8264,-7.8157 -11.9755,-13.8504 -19.6913,-19.3248 -1.3358,-0.9477 -2.3537,-1.7931 -2.2622,-1.8787 0.091,-0.085 1.607,-1.197 3.368,-2.4696 8.275,-5.9806 11.1037,-8.7606 17.4259,-17.1276 l 3.237,-4.2838 0.5925,0.627 c 0.326,0.3449 1.1649,1.4276 1.8648,2.406 4.1009,5.734 9.6638,11.5898 14.6004,15.369 3.9506,3.0246 6.5471,5.0798 6.8048,5.3866 0.3693,0.4395 -0.1632,0.9427 -3.5031,3.3096 -7.4021,5.2456 -11.1333,8.9403 -17.3339,17.1648 -1.5493,2.0553 -2.8426,3.737 -2.8732,3.737 -0.032,0 -1.0343,-1.312 -2.2297,-2.9155 z"
       id="path7358"
       inkscape:connector-curvature="0" />
    <path
       style="fill:#e24d46;fill-opacity:1"
       d="m 2958.8102,1849.2845 c -5.8264,-7.8157 -11.9755,-13.8504 -19.6913,-19.3248 -1.3358,-0.9477 -2.3537,-1.7931 -2.2622,-1.8787 0.091,-0.085 1.607,-1.197 3.368,-2.4696 8.275,-5.9806 11.1037,-8.7606 17.4259,-17.1276 l 3.237,-4.2838 0.5925,0.627 c 0.326,0.3449 1.1649,1.4276 1.8648,2.406 4.1009,5.734 9.6638,11.5898 14.6004,15.369 3.9506,3.0246 6.5471,5.0798 6.8048,5.3866 0.3693,0.4395 -0.1632,0.9427 -3.5031,3.3096 -7.4021,5.2456 -11.1333,8.9403 -17.3339,17.1648 -1.5493,2.0553 -2.8426,3.737 -2.8732,3.737 -0.032,0 -1.0343,-1.312 -2.2297,-2.9155 z"
       id="path7397"
       inkscape:connector-curvature="0" />
    <path
       inkscape:connector-curvature="0"
       id="path7399"
       d="m 3416.8102,1849.2845 c -5.8264,-7.8157 -11.9755,-13.8504 -19.6913,-19.3248 -1.3358,-0.9477 -2.3537,-1.7931 -2.2622,-1.8787 0.091,-0.085 1.607,-1.197 3.368,-2.4696 8.275,-5.9806 11.1037,-8.7606 17.4259,-17.1276 l 3.237,-4.2838 0.5925,0.627 c 0.326,0.3449 1.1649,1.4276 1.8648,2.406 4.1009,5.734 9.6638,11.5898 14.6004,15.369 3.9506,3.0246 6.5471,5.0798 6.8048,5.3866 0.3693,0.4395 -0.1632,0.9427 -3.5031,3.3096 -7.4021,5.2456 -11.1333,8.9403 -17.3339,17.1648 -1.5493,2.0553 -2.8426,3.737 -2.8732,3.737 -0.032,0 -1.0343,-1.312 -2.2297,-2.9155 z"
       style="fill:#e24d46;fill-opacity:1" />
  </g>
</svg>
