<?xml version="1.0" encoding="UTF-8" standalone="no"?>
<!-- Created with Inkscape (http://www.inkscape.org/) -->

<svg
   id="svg10047"
   height="122.98924"
   width="78.998276"
   version="1.1"
   viewBox="0 0 78.998276 122.98924"
   inkscape:version="0.91 r13725"
   sodipodi:docname="franzoesisches-bild.svgz"
   xmlns:inkscape="http://www.inkscape.org/namespaces/inkscape"
   xmlns:sodipodi="http://sodipodi.sourceforge.net/DTD/sodipodi-0.dtd"
   xmlns="http://www.w3.org/2000/svg"
   xmlns:svg="http://www.w3.org/2000/svg"
   xmlns:rdf="http://www.w3.org/1999/02/22-rdf-syntax-ns#"
   xmlns:cc="http://creativecommons.org/ns#"
   xmlns:dc="http://purl.org/dc/elements/1.1/">
  <sodipodi:namedview
     pagecolor="#ffffff"
     bordercolor="#666666"
     borderopacity="1"
     objecttolerance="10"
     gridtolerance="10"
     guidetolerance="10"
     inkscape:pageopacity="0"
     inkscape:pageshadow="2"
     inkscape:window-width="1920"
     inkscape:window-height="1016"
     id="namedview1491"
     showgrid="false"
     inkscape:zoom="1.3479675"
     inkscape:cx="513.5"
     inkscape:cy="307.5"
     inkscape:window-x="0"
     inkscape:window-y="0"
     inkscape:window-maximized="1"
     inkscape:current-layer="svg10047"
     showguides="true"
     inkscape:guide-bbox="true"
     inkscape:snap-grids="true"
     inkscape:showpageshadow="2"
     inkscape:pagecheckerboard="0"
     inkscape:deskcolor="#d1d1d1" />
  <metadata
     id="metadata16869">
    <rdf:RDF>
      <cc:Work
         rdf:about="">
        <dc:format>image/svg+xml</dc:format>
        <dc:type
           rdf:resource="http://purl.org/dc/dcmitype/StillImage" />
        <dc:title />
      </cc:Work>
    </rdf:RDF>
  </metadata>
  <defs
     id="defs10049" />
  <g
     transform="matrix(0.13625087,0,0,0.13665483,-13.625087,-150.32042)"
     id="diamond_1"
     inkscape:label="#diamond_1">
    <rect
       style="font-style:normal;font-variant:normal;font-weight:500;font-stretch:normal;font-size:medium;line-height:125%;font-family:Gaelic;-inkscape-font-specification:'Gaelic Medium';letter-spacing:0px;word-spacing:0px;fill:#ffffff;fill-opacity:1;stroke:#000000;stroke-width:1.99863;stroke-linecap:butt;stroke-linejoin:miter;stroke-miterlimit:4;stroke-dasharray:none;stroke-opacity:1"
       id="rect6656"
       y="1101.0001"
       x="100.99931"
       ry="49.888187"
       rx="48.194115"
       height="898.00061"
       width="577.80151" />
    <path
       d="m 155.55812,1163.7687 -9.6592,26.2316 h 19.56517 z m 3.73685,-13.7685 h 1.30428 l 19.81203,51.4526 q 0.95183,2.4001 2.11513,3.9581 1.19859,1.5577 2.67922,2.2736 1.48065,0.6737 3.4901,0.6737 H 190 v 1.642 h -28.5899 v -1.642 h 3.73674 q 2.78492,0 4.0541,-0.8843 1.30437,-0.9262 1.30437,-2.821 0,-1.179 -0.52881,-2.8632 -0.49351,-1.6842 -2.22091,-6.1052 -0.10578,-0.2527 -0.31735,-0.8421 -0.21146,-0.5895 -0.45831,-1.1369 l -0.81076,-2.1474 h -20.86955 l -1.58642,4.3789 q -0.77546,2.2316 -0.77546,4.5053 0,1.9369 0.88124,3.8317 0.91665,1.8946 2.36189,2.8631 0.95182,0.6737 1.6921,0.9263 0.77567,0.2105 2.18572,0.2948 v 1.642 H 130 v -1.642 q 2.18562,-0.2948 3.45469,-0.9264 1.30438,-0.6316 2.8907,-2.1052 3.73685,-3.4526 7.29732,-13.0105 z"
       style="font-style:normal;font-variant:normal;font-weight:500;font-stretch:expanded;font-size:medium;line-height:125%;font-family:'Engravers MT';-inkscape-font-specification:'Engravers MT Medium Expanded';letter-spacing:0px;word-spacing:0px;fill:#e24d46;fill-opacity:1;stroke:none;stroke-width:1px;stroke-linecap:butt;stroke-linejoin:miter;stroke-opacity:1"
       id="path6709"
       inkscape:connector-curvature="0" />
    <path
       inkscape:connector-curvature="0"
       id="path6711"
       style="font-style:normal;font-variant:normal;font-weight:500;font-stretch:expanded;font-size:medium;line-height:125%;font-family:'Engravers MT';-inkscape-font-specification:'Engravers MT Medium Expanded';letter-spacing:0px;word-spacing:0px;fill:#e24d46;fill-opacity:1;stroke:none;stroke-width:1px;stroke-linecap:butt;stroke-linejoin:miter;stroke-opacity:1"
       d="m 615.55812,1163.7687 -9.6592,26.2316 h 19.56517 z m 3.73685,-13.7685 h 1.30428 l 19.81203,51.4526 q 0.95183,2.4001 2.11513,3.9581 1.19859,1.5577 2.67922,2.2736 1.48065,0.6737 3.4901,0.6737 H 650 v 1.642 h -28.5899 v -1.642 h 3.73674 q 2.78492,0 4.0541,-0.8843 1.30437,-0.9262 1.30437,-2.821 0,-1.179 -0.52881,-2.8632 -0.49351,-1.6842 -2.22091,-6.1052 -0.10578,-0.2527 -0.31735,-0.8421 -0.21146,-0.5895 -0.45831,-1.1369 l -0.81076,-2.1474 h -20.86955 l -1.58642,4.3789 q -0.77546,2.2316 -0.77546,4.5053 0,1.9369 0.88124,3.8317 0.91665,1.8946 2.36189,2.8631 0.95182,0.6737 1.6921,0.9263 0.77567,0.2105 2.18572,0.2948 v 1.642 H 590 v -1.642 q 2.18562,-0.2948 3.45469,-0.9264 1.30438,-0.6316 2.8907,-2.1052 3.73685,-3.4526 7.29732,-13.0105 z" />
    <path
       inkscape:connector-curvature="0"
       id="path6713"
       style="font-style:normal;font-variant:normal;font-weight:500;font-stretch:expanded;font-size:medium;line-height:125%;font-family:'Engravers MT';-inkscape-font-specification:'Engravers MT Medium Expanded';letter-spacing:0px;word-spacing:0px;fill:#e24d46;fill-opacity:1;stroke:none;stroke-width:1px;stroke-linecap:butt;stroke-linejoin:miter;stroke-opacity:1"
       d="m 164.4419,1936.2317 9.6592,-26.2316 h -19.5652 z m -3.7369,13.7685 h -1.3043 l -19.812,-51.4526 q -0.9518,-2.4001 -2.1151,-3.9581 -1.1986,-1.5577 -2.6792,-2.2736 -1.4807,-0.6737 -3.4901,-0.6737 H 130 v -1.642 h 28.5899 v 1.642 h -3.7367 q -2.785,0 -4.0541,0.8843 -1.3044,0.9262 -1.3044,2.821 0,1.179 0.5288,2.8632 0.4935,1.6842 2.2209,6.1052 0.1058,0.2527 0.3174,0.8421 0.2114,0.5895 0.4583,1.1369 l 0.8107,2.1474 h 20.8696 l 1.5864,-4.3789 q 0.7755,-2.2316 0.7755,-4.5053 0,-1.9369 -0.8813,-3.8317 -0.9166,-1.8946 -2.3619,-2.8631 -0.9518,-0.6737 -1.6921,-0.9263 -0.7756,-0.2105 -2.1857,-0.2948 v -1.642 H 190 v 1.642 q -2.1856,0.2948 -3.4547,0.9264 -1.3044,0.6316 -2.8907,2.1052 -3.7368,3.4526 -7.2973,13.0105 z" />
    <path
       d="m 624.4419,1936.2317 9.6592,-26.2316 h -19.5652 z m -3.7369,13.7685 h -1.3043 l -19.812,-51.4526 q -0.9518,-2.4001 -2.1151,-3.9581 -1.1986,-1.5577 -2.6792,-2.2736 -1.4807,-0.6737 -3.4901,-0.6737 H 590 v -1.642 h 28.5899 v 1.642 h -3.7367 q -2.785,0 -4.0541,0.8843 -1.3044,0.9262 -1.3044,2.821 0,1.179 0.5288,2.8632 0.4935,1.6842 2.2209,6.1052 0.1058,0.2527 0.3174,0.8421 0.2114,0.5895 0.4583,1.1369 l 0.8107,2.1474 h 20.8696 l 1.5864,-4.3789 q 0.7755,-2.2316 0.7755,-4.5053 0,-1.9369 -0.8813,-3.8317 -0.9166,-1.8946 -2.3619,-2.8631 -0.9518,-0.6737 -1.6921,-0.9263 -0.7756,-0.2105 -2.1857,-0.2948 v -1.642 H 650 v 1.642 q -2.1856,0.2948 -3.4547,0.9264 -1.3044,0.6316 -2.8907,2.1052 -3.7368,3.4526 -7.2973,13.0105 z"
       style="font-style:normal;font-variant:normal;font-weight:500;font-stretch:expanded;font-size:medium;line-height:125%;font-family:'Engravers MT';-inkscape-font-specification:'Engravers MT Medium Expanded';letter-spacing:0px;word-spacing:0px;fill:#e24d46;fill-opacity:1;stroke:none;stroke-width:1px;stroke-linecap:butt;stroke-linejoin:miter;stroke-opacity:1"
       id="path6715"
       inkscape:connector-curvature="0" />
    <path
       inkscape:connector-curvature="0"
       id="path7335"
       d="m 383.19773,1620.1818 c -19.4211,-26.0526 -39.9186,-46.1682 -65.6379,-64.416 -4.4525,-3.1589 -7.8456,-5.9771 -7.5408,-6.2625 0.3058,-0.2855 5.3572,-3.9901 11.227,-8.2322 27.5833,-19.9349 37.0125,-29.202 58.0865,-57.0921 l 10.7901,-14.279 1.9747,2.0901 c 1.087,1.1496 3.8834,4.7586 6.2162,8.0199 13.6696,19.113 32.2126,38.6329 48.6676,51.23 13.169,10.082 21.824,16.9327 22.683,17.955 1.231,1.4653 -0.544,3.1425 -11.677,11.0322 -24.674,17.4858 -37.111,29.8011 -57.7799,57.2162 -5.1643,6.8512 -9.475,12.4566 -9.5773,12.4566 -0.1066,0 -3.4475,-4.3732 -7.4322,-9.7182 z"
       style="fill:#e24d46;fill-opacity:1" />
    <path
       inkscape:connector-curvature="0"
       id="path7381"
       d="m 158.81022,1293.0845 c -5.8264,-7.8157 -11.9755,-13.8504 -19.6913,-19.3248 -1.3358,-0.9477 -2.3537,-1.7931 -2.2622,-1.8787 0.091,-0.085 1.607,-1.197 3.368,-2.4696 8.275,-5.9806 11.1037,-8.7606 17.4259,-17.1276 l 3.237,-4.2838 0.5925,0.627 c 0.326,0.3449 1.1649,1.4276 1.8648,2.406 4.1009,5.734 9.6638,11.5898 14.6004,15.369 3.9506,3.0246 6.5471,5.0798 6.8048,5.3866 0.3693,0.4395 -0.1632,0.9427 -3.5031,3.3096 -7.4021,5.2456 -11.1333,8.9403 -17.3339,17.1648 -1.5493,2.0553 -2.8426,3.737 -2.8732,3.737 -0.032,0 -1.0343,-1.312 -2.2297,-2.9155 z"
       style="fill:#e24d46;fill-opacity:1" />
    <path
       style="fill:#e24d46;fill-opacity:1"
       d="m 616.8102,1293.0845 c -5.8264,-7.8157 -11.9755,-13.8504 -19.6913,-19.3248 -1.3358,-0.9477 -2.3537,-1.7931 -2.2622,-1.8787 0.091,-0.085 1.607,-1.197 3.368,-2.4696 8.275,-5.9806 11.1037,-8.7606 17.4259,-17.1276 l 3.237,-4.2838 0.5925,0.627 c 0.326,0.3449 1.1649,1.4276 1.8648,2.406 4.1009,5.734 9.6638,11.5898 14.6004,15.369 3.9506,3.0246 6.5471,5.0798 6.8048,5.3866 0.3693,0.4395 -0.1632,0.9427 -3.5031,3.3096 -7.4021,5.2456 -11.1333,8.9403 -17.3339,17.1648 -1.5493,2.0553 -2.8426,3.737 -2.8732,3.737 -0.032,0 -1.0343,-1.312 -2.2297,-2.9155 z"
       id="path7383"
       inkscape:connector-curvature="0" />
    <path
       style="fill:#e24d46;fill-opacity:1"
       d="m 158.81022,1849.2845 c -5.8264,-7.8157 -11.9755,-13.8504 -19.6913,-19.3248 -1.3358,-0.9477 -2.3537,-1.7931 -2.2622,-1.8787 0.091,-0.085 1.607,-1.197 3.368,-2.4696 8.275,-5.9806 11.1037,-8.7606 17.4259,-17.1276 l 3.237,-4.2838 0.5925,0.627 c 0.326,0.3449 1.1649,1.4276 1.8648,2.406 4.1009,5.734 9.6638,11.5898 14.6004,15.369 3.9506,3.0246 6.5471,5.0798 6.8048,5.3866 0.3693,0.4395 -0.1632,0.9427 -3.5031,3.3096 -7.4021,5.2456 -11.1333,8.9403 -17.3339,17.1648 -1.5493,2.0553 -2.8426,3.737 -2.8732,3.737 -0.032,0 -1.0343,-1.312 -2.2297,-2.9155 z"
       id="path7422"
       inkscape:connector-curvature="0" />
    <path
       inkscape:connector-curvature="0"
       id="path7424"
       d="m 616.8102,1849.2845 c -5.8264,-7.8157 -11.9755,-13.8504 -19.6913,-19.3248 -1.3358,-0.9477 -2.3537,-1.7931 -2.2622,-1.8787 0.091,-0.085 1.607,-1.197 3.368,-2.4696 8.275,-5.9806 11.1037,-8.7606 17.4259,-17.1276 l 3.237,-4.2838 0.5925,0.627 c 0.326,0.3449 1.1649,1.4276 1.8648,2.406 4.1009,5.734 9.6638,11.5898 14.6004,15.369 3.9506,3.0246 6.5471,5.0798 6.8048,5.3866 0.3693,0.4395 -0.1632,0.9427 -3.5031,3.3096 -7.4021,5.2456 -11.1333,8.9403 -17.3339,17.1648 -1.5493,2.0553 -2.8426,3.737 -2.8732,3.737 -0.032,0 -1.0343,-1.312 -2.2297,-2.9155 z"
       style="fill:#e24d46;fill-opacity:1" />
  </g>
</svg>
