<?xml version="1.0" encoding="UTF-8" standalone="no"?>
<!-- Created with Inkscape (http://www.inkscape.org/) -->

<svg
   id="svg10047"
   height="122.98924"
   width="78.998276"
   version="1.1"
   viewBox="0 0 78.998276 122.98924"
   inkscape:version="0.91 r13725"
   sodipodi:docname="franzoesisches-bild.svgz"
   xmlns:inkscape="http://www.inkscape.org/namespaces/inkscape"
   xmlns:sodipodi="http://sodipodi.sourceforge.net/DTD/sodipodi-0.dtd"
   xmlns="http://www.w3.org/2000/svg"
   xmlns:svg="http://www.w3.org/2000/svg"
   xmlns:rdf="http://www.w3.org/1999/02/22-rdf-syntax-ns#"
   xmlns:cc="http://creativecommons.org/ns#"
   xmlns:dc="http://purl.org/dc/elements/1.1/">
  <sodipodi:namedview
     pagecolor="#ffffff"
     bordercolor="#666666"
     borderopacity="1"
     objecttolerance="10"
     gridtolerance="10"
     guidetolerance="10"
     inkscape:pageopacity="0"
     inkscape:pageshadow="2"
     inkscape:window-width="1920"
     inkscape:window-height="1016"
     id="namedview1491"
     showgrid="false"
     inkscape:zoom="1.3479675"
     inkscape:cx="513.5"
     inkscape:cy="307.5"
     inkscape:window-x="0"
     inkscape:window-y="0"
     inkscape:window-maximized="1"
     inkscape:current-layer="svg10047"
     showguides="true"
     inkscape:guide-bbox="true"
     inkscape:snap-grids="true"
     inkscape:showpageshadow="2"
     inkscape:pagecheckerboard="0"
     inkscape:deskcolor="#d1d1d1" />
  <metadata
     id="metadata16869">
    <rdf:RDF>
      <cc:Work
         rdf:about="">
        <dc:format>image/svg+xml</dc:format>
        <dc:type
           rdf:resource="http://purl.org/dc/dcmitype/StillImage" />
        <dc:title />
      </cc:Work>
    </rdf:RDF>
  </metadata>
  <defs
     id="defs10049" />
  <g
     transform="matrix(0.13625087,0,0,0.13665483,-490.50313,-150.32042)"
     id="diamond_6"
     inkscape:label="#diamond_6">
    <rect
       width="577.80151"
       height="898.00061"
       rx="48.194115"
       ry="49.888187"
       x="3600.9993"
       y="1101.0001"
       id="rect6638"
       style="font-style:normal;font-variant:normal;font-weight:500;font-stretch:normal;font-size:medium;line-height:125%;font-family:Gaelic;-inkscape-font-specification:'Gaelic Medium';letter-spacing:0px;word-spacing:0px;fill:#ffffff;fill-opacity:1;stroke:#000000;stroke-width:1.99863;stroke-linecap:butt;stroke-linejoin:miter;stroke-miterlimit:4;stroke-dasharray:none;stroke-opacity:1" />
    <path
       inkscape:connector-curvature="0"
       id="path6640"
       style="font-style:normal;font-variant:normal;font-weight:500;font-stretch:expanded;font-size:medium;line-height:125%;font-family:'Engravers MT';-inkscape-font-specification:'Engravers MT Medium Expanded';letter-spacing:0px;word-spacing:0px;fill:#e24d46;fill-opacity:1;stroke:none;stroke-width:1px;stroke-linecap:butt;stroke-linejoin:miter;stroke-opacity:1"
       d="m 3660.3581,1208.5933 q 4.7481,0 6.7976,-4.0965 0.7856,-1.738 1.0931,-3.5587 0.2049,-0.9931 0.3416,-2.6483 0.1025,-1.6138 0.1707,-4.2207 0.068,-2.6069 0.068,-4.5517 0,-4.1379 -0.4098,-6.6621 -0.4441,-2.5241 -1.4006,-4.262 -1.7762,-3.3104 -5.8069,-3.3104 -4.0649,0 -6.5927,3.1448 -1.7421,2.0276 -2.4936,5.2138 -0.7857,3.2276 -0.7857,8.1518 0,5.7931 0.9907,9.4759 0.9564,3.724 2.9718,5.5034 1.9812,1.8207 5.0555,1.8207 z m -8.9497,-36.869 v 9.3104 h 0.1367 q 2.1179,-4.0139 4.9872,-5.8759 2.8693,-1.8207 6.9683,-1.8207 3.3477,0 6.3878,1.3655 3.0401,1.3655 5.3288,3.8069 2.2545,2.4414 3.5183,5.6276 1.2639,3.1862 1.2639,6.8275 0,5.3794 -2.4253,9.7242 -2.4253,4.3448 -6.7634,6.8276 -4.3382,2.4828 -9.5987,2.4828 -6.1144,0 -10.965,-3.7656 -4.8847,-3.7654 -7.549,-10.5103 -2.6986,-6.7448 -2.6986,-15.3517 0,-13.6552 6.8659,-22.2207 3.2452,-3.931 7.4808,-6.0414 4.2016,-2.1103 8.7447,-2.1103 7.0367,0 11.1016,4.8413 2.9377,3.4759 2.9377,7.6138 0,3.0621 -1.5372,5.0483 -1.5713,1.9862 -3.8941,1.9862 -2.4253,0 -3.9965,-1.7793 -1.6056,-1.7793 -1.6056,-4.6345 0,-1.9448 0.7857,-3.3104 0.7515,-1.324 2.4936,-2.3585 1.6738,-1.0345 1.6738,-2.069 0,-1.4897 -2.3229,-2.6483 -2.3569,-1.1586 -5.3628,-1.1586 -5.8754,0 -8.9155,5.131 -3.0402,5.1311 -3.0402,15.0621 z" />
    <path
       d="m 4120.3581,1208.5933 q 4.7481,0 6.7976,-4.0965 0.7856,-1.738 1.0931,-3.5587 0.2049,-0.9931 0.3416,-2.6483 0.1025,-1.6138 0.1707,-4.2207 0.068,-2.6069 0.068,-4.5517 0,-4.1379 -0.4098,-6.6621 -0.4441,-2.5241 -1.4006,-4.262 -1.7762,-3.3104 -5.8069,-3.3104 -4.0649,0 -6.5927,3.1448 -1.7421,2.0276 -2.4936,5.2138 -0.7857,3.2276 -0.7857,8.1518 0,5.7931 0.9907,9.4759 0.9564,3.724 2.9718,5.5034 1.9812,1.8207 5.0555,1.8207 z m -8.9497,-36.869 v 9.3104 h 0.1367 q 2.1179,-4.0139 4.9872,-5.8759 2.8693,-1.8207 6.9683,-1.8207 3.3477,0 6.3878,1.3655 3.0401,1.3655 5.3288,3.8069 2.2545,2.4414 3.5183,5.6276 1.2639,3.1862 1.2639,6.8275 0,5.3794 -2.4253,9.7242 -2.4253,4.3448 -6.7634,6.8276 -4.3382,2.4828 -9.5987,2.4828 -6.1144,0 -10.965,-3.7656 -4.8847,-3.7654 -7.549,-10.5103 -2.6986,-6.7448 -2.6986,-15.3517 0,-13.6552 6.8659,-22.2207 3.2452,-3.931 7.4808,-6.0414 4.2016,-2.1103 8.7447,-2.1103 7.0367,0 11.1016,4.8413 2.9377,3.4759 2.9377,7.6138 0,3.0621 -1.5372,5.0483 -1.5713,1.9862 -3.8941,1.9862 -2.4253,0 -3.9965,-1.7793 -1.6056,-1.7793 -1.6056,-4.6345 0,-1.9448 0.7857,-3.3104 0.7515,-1.324 2.4936,-2.3585 1.6738,-1.0345 1.6738,-2.069 0,-1.4897 -2.3229,-2.6483 -2.3569,-1.1586 -5.3628,-1.1586 -5.8754,0 -8.9155,5.131 -3.0402,5.1311 -3.0402,15.0621 z"
       style="font-style:normal;font-variant:normal;font-weight:500;font-stretch:expanded;font-size:medium;line-height:125%;font-family:'Engravers MT';-inkscape-font-specification:'Engravers MT Medium Expanded';letter-spacing:0px;word-spacing:0px;fill:#e24d46;fill-opacity:1;stroke:none;stroke-width:1px;stroke-linecap:butt;stroke-linejoin:miter;stroke-opacity:1"
       id="path6642"
       inkscape:connector-curvature="0" />
    <path
       d="m 4119.6407,1891.4071 q -4.7481,0 -6.7976,4.0965 -0.7856,1.738 -1.0931,3.5587 -0.2049,0.9931 -0.3416,2.6483 -0.1025,1.6138 -0.1707,4.2207 -0.068,2.6069 -0.068,4.5517 0,4.1379 0.4098,6.6621 0.4441,2.5241 1.4006,4.262 1.7762,3.3104 5.8069,3.3104 4.0649,0 6.5927,-3.1448 1.7421,-2.0276 2.4936,-5.2138 0.7857,-3.2276 0.7857,-8.1518 0,-5.7931 -0.9907,-9.4759 -0.9564,-3.724 -2.9718,-5.5034 -1.9812,-1.8207 -5.0555,-1.8207 z m 8.9497,36.869 v -9.3104 h -0.1367 q -2.1179,4.0139 -4.9872,5.8759 -2.8693,1.8207 -6.9683,1.8207 -3.3477,0 -6.3878,-1.3655 -3.0401,-1.3655 -5.3288,-3.8069 -2.2545,-2.4414 -3.5183,-5.6276 -1.2639,-3.1862 -1.2639,-6.8275 0,-5.3794 2.4253,-9.7242 2.4253,-4.3448 6.7634,-6.8276 4.3382,-2.4828 9.5987,-2.4828 6.1144,0 10.965,3.7656 4.8847,3.7654 7.549,10.5103 2.6986,6.7448 2.6986,15.3517 0,13.6552 -6.8659,22.2207 -3.2452,3.931 -7.4808,6.0414 -4.2016,2.1103 -8.7447,2.1103 -7.0367,0 -11.1016,-4.8413 -2.9377,-3.4759 -2.9377,-7.6138 0,-3.0621 1.5372,-5.0483 1.5713,-1.9862 3.8941,-1.9862 2.4253,0 3.9965,1.7793 1.6056,1.7793 1.6056,4.6345 0,1.9448 -0.7857,3.3104 -0.7515,1.324 -2.4936,2.3585 -1.6738,1.0345 -1.6738,2.069 0,1.4897 2.3229,2.6483 2.3569,1.1586 5.3628,1.1586 5.8754,0 8.9155,-5.131 3.0402,-5.1311 3.0402,-15.0621 z"
       style="font-style:normal;font-variant:normal;font-weight:500;font-stretch:expanded;font-size:medium;line-height:125%;font-family:'Engravers MT';-inkscape-font-specification:'Engravers MT Medium Expanded';letter-spacing:0px;word-spacing:0px;fill:#e24d46;fill-opacity:1;stroke:none;stroke-width:1px;stroke-linecap:butt;stroke-linejoin:miter;stroke-opacity:1"
       id="path6644"
       inkscape:connector-curvature="0" />
    <path
       inkscape:connector-curvature="0"
       id="path6646"
       style="font-style:normal;font-variant:normal;font-weight:500;font-stretch:expanded;font-size:medium;line-height:125%;font-family:'Engravers MT';-inkscape-font-specification:'Engravers MT Medium Expanded';letter-spacing:0px;word-spacing:0px;fill:#e24d46;fill-opacity:1;stroke:none;stroke-width:1px;stroke-linecap:butt;stroke-linejoin:miter;stroke-opacity:1"
       d="m 3659.6407,1891.4071 q -4.7481,0 -6.7976,4.0965 -0.7856,1.738 -1.0931,3.5587 -0.2049,0.9931 -0.3416,2.6483 -0.1025,1.6138 -0.1707,4.2207 -0.068,2.6069 -0.068,4.5517 0,4.1379 0.4098,6.6621 0.4441,2.5241 1.4006,4.262 1.7762,3.3104 5.8069,3.3104 4.0649,0 6.5927,-3.1448 1.7421,-2.0276 2.4936,-5.2138 0.7857,-3.2276 0.7857,-8.1518 0,-5.7931 -0.9907,-9.4759 -0.9564,-3.724 -2.9718,-5.5034 -1.9812,-1.8207 -5.0555,-1.8207 z m 8.9497,36.869 v -9.3104 h -0.1367 q -2.1179,4.0139 -4.9872,5.8759 -2.8693,1.8207 -6.9683,1.8207 -3.3477,0 -6.3878,-1.3655 -3.0401,-1.3655 -5.3288,-3.8069 -2.2545,-2.4414 -3.5183,-5.6276 -1.2639,-3.1862 -1.2639,-6.8275 0,-5.3794 2.4253,-9.7242 2.4253,-4.3448 6.7634,-6.8276 4.3382,-2.4828 9.5987,-2.4828 6.1144,0 10.965,3.7656 4.8847,3.7654 7.549,10.5103 2.6986,6.7448 2.6986,15.3517 0,13.6552 -6.8659,22.2207 -3.2452,3.931 -7.4808,6.0414 -4.2016,2.1103 -8.7447,2.1103 -7.0367,0 -11.1016,-4.8413 -2.9377,-3.4759 -2.9377,-7.6138 0,-3.0621 1.5372,-5.0483 1.5713,-1.9862 3.8941,-1.9862 2.4253,0 3.9965,1.7793 1.6056,1.7793 1.6056,4.6345 0,1.9448 -0.7857,3.3104 -0.7515,1.324 -2.4936,2.3585 -1.6738,1.0345 -1.6738,2.069 0,1.4897 2.3229,2.6483 2.3569,1.1586 5.3628,1.1586 5.8754,0 8.9155,-5.131 3.0402,-5.1311 3.0402,-15.0621 z" />
    <path
       inkscape:connector-curvature="0"
       id="path7265"
       d="m 3768.1977,1314.2818 c -19.4211,-26.0526 -39.9186,-46.1682 -65.6379,-64.416 -4.4525,-3.1589 -7.8456,-5.9771 -7.5408,-6.2625 0.3058,-0.2855 5.3572,-3.9901 11.227,-8.2322 27.5833,-19.9349 37.0125,-29.202 58.0865,-57.0921 l 10.7901,-14.279 1.9747,2.0901 c 1.087,1.1496 3.8834,4.7586 6.2162,8.0199 13.6696,19.113 32.2126,38.6329 48.6676,51.23 13.169,10.082 21.824,16.9327 22.683,17.955 1.231,1.4653 -0.544,3.1425 -11.677,11.0322 -24.674,17.4858 -37.111,29.8011 -57.7799,57.2162 -5.1643,6.8512 -9.475,12.4566 -9.5773,12.4566 -0.1066,0 -3.4475,-4.3732 -7.4322,-9.7182 z"
       style="fill:#e24d46;fill-opacity:1" />
    <path
       style="fill:#e24d46;fill-opacity:1"
       d="m 3998.1977,1314.2818 c -19.4211,-26.0526 -39.9186,-46.1682 -65.6379,-64.416 -4.4525,-3.1589 -7.8456,-5.9771 -7.5408,-6.2625 0.3058,-0.2855 5.3572,-3.9901 11.227,-8.2322 27.5833,-19.9349 37.0125,-29.202 58.0865,-57.0921 l 10.7901,-14.279 1.9747,2.0901 c 1.087,1.1496 3.8834,4.7586 6.2162,8.0199 13.6696,19.113 32.2126,38.6329 48.6676,51.23 13.169,10.082 21.824,16.9327 22.683,17.955 1.231,1.4653 -0.544,3.1425 -11.677,11.0322 -24.674,17.4858 -37.111,29.8011 -57.7799,57.2162 -5.1643,6.8512 -9.475,12.4566 -9.5773,12.4566 -0.1066,0 -3.4475,-4.3732 -7.4322,-9.7182 z"
       id="path7267"
       inkscape:connector-curvature="0" />
    <path
       style="fill:#e24d46;fill-opacity:1"
       d="m 3768.1977,1620.2818 c -19.4211,-26.0526 -39.9186,-46.1682 -65.6379,-64.416 -4.4525,-3.1589 -7.8456,-5.9771 -7.5408,-6.2625 0.3058,-0.2855 5.3572,-3.9901 11.227,-8.2322 27.5833,-19.9349 37.0125,-29.202 58.0865,-57.0921 l 10.7901,-14.279 1.9747,2.0901 c 1.087,1.1496 3.8834,4.7586 6.2162,8.0199 13.6696,19.113 32.2126,38.6329 48.6676,51.23 13.169,10.082 21.824,16.9327 22.683,17.955 1.231,1.4653 -0.544,3.1425 -11.677,11.0322 -24.674,17.4858 -37.111,29.8011 -57.7799,57.2162 -5.1643,6.8512 -9.475,12.4566 -9.5773,12.4566 -0.1066,0 -3.4475,-4.3732 -7.4322,-9.7182 z"
       id="path7269"
       inkscape:connector-curvature="0" />
    <path
       inkscape:connector-curvature="0"
       id="path7271"
       d="m 3998.1977,1620.2818 c -19.4211,-26.0526 -39.9186,-46.1682 -65.6379,-64.416 -4.4525,-3.1589 -7.8456,-5.9771 -7.5408,-6.2625 0.3058,-0.2855 5.3572,-3.9901 11.227,-8.2322 27.5833,-19.9349 37.0125,-29.202 58.0865,-57.0921 l 10.7901,-14.279 1.9747,2.0901 c 1.087,1.1496 3.8834,4.7586 6.2162,8.0199 13.6696,19.113 32.2126,38.6329 48.6676,51.23 13.169,10.082 21.824,16.9327 22.683,17.955 1.231,1.4653 -0.544,3.1425 -11.677,11.0322 -24.674,17.4858 -37.111,29.8011 -57.7799,57.2162 -5.1643,6.8512 -9.475,12.4566 -9.5773,12.4566 -0.1066,0 -3.4475,-4.3732 -7.4322,-9.7182 z"
       style="fill:#e24d46;fill-opacity:1" />
    <path
       style="fill:#e24d46;fill-opacity:1"
       d="m 3768.1977,1926.2818 c -19.4211,-26.0526 -39.9186,-46.1682 -65.6379,-64.416 -4.4525,-3.1589 -7.8456,-5.9771 -7.5408,-6.2625 0.3058,-0.2855 5.3572,-3.9901 11.227,-8.2322 27.5833,-19.9349 37.0125,-29.202 58.0865,-57.0921 l 10.7901,-14.279 1.9747,2.0901 c 1.087,1.1496 3.8834,4.7586 6.2162,8.0199 13.6696,19.113 32.2126,38.6329 48.6676,51.23 13.169,10.082 21.824,16.9327 22.683,17.955 1.231,1.4653 -0.544,3.1425 -11.677,11.0322 -24.674,17.4858 -37.111,29.8011 -57.7799,57.2162 -5.1643,6.8512 -9.475,12.4566 -9.5773,12.4566 -0.1066,0 -3.4475,-4.3732 -7.4322,-9.7182 z"
       id="path7273"
       inkscape:connector-curvature="0" />
    <path
       inkscape:connector-curvature="0"
       id="path7276"
       d="m 3998.1977,1926.2818 c -19.4211,-26.0526 -39.9186,-46.1682 -65.6379,-64.416 -4.4525,-3.1589 -7.8456,-5.9771 -7.5408,-6.2625 0.3058,-0.2855 5.3572,-3.9901 11.227,-8.2322 27.5833,-19.9349 37.0125,-29.202 58.0865,-57.0921 l 10.7901,-14.279 1.9747,2.0901 c 1.087,1.1496 3.8834,4.7586 6.2162,8.0199 13.6696,19.113 32.2126,38.6329 48.6676,51.23 13.169,10.082 21.824,16.9327 22.683,17.955 1.231,1.4653 -0.544,3.1425 -11.677,11.0322 -24.674,17.4858 -37.111,29.8011 -57.7799,57.2162 -5.1643,6.8512 -9.475,12.4566 -9.5773,12.4566 -0.1066,0 -3.4475,-4.3732 -7.4322,-9.7182 z"
       style="fill:#e24d46;fill-opacity:1" />
    <path
       style="fill:#e24d46;fill-opacity:1"
       d="m 3658.8097,1293.0845 c -5.8264,-7.8157 -11.9755,-13.8504 -19.6913,-19.3248 -1.3358,-0.9477 -2.3537,-1.7931 -2.2622,-1.8787 0.091,-0.085 1.607,-1.197 3.368,-2.4696 8.275,-5.9806 11.1037,-8.7606 17.4259,-17.1276 l 3.237,-4.2838 0.5925,0.627 c 0.326,0.3449 1.1649,1.4276 1.8648,2.406 4.1009,5.734 9.6638,11.5898 14.6004,15.369 3.9506,3.0246 6.5471,5.0798 6.8048,5.3866 0.3693,0.4395 -0.1632,0.9427 -3.5031,3.3096 -7.4021,5.2456 -11.1333,8.9403 -17.3339,17.1648 -1.5493,2.0553 -2.8426,3.737 -2.8732,3.737 -0.032,0 -1.0343,-1.312 -2.2297,-2.9155 z"
       id="path7360"
       inkscape:connector-curvature="0" />
    <path
       inkscape:connector-curvature="0"
       id="path7362"
       d="m 4116.8097,1293.0845 c -5.8264,-7.8157 -11.9755,-13.8504 -19.6913,-19.3248 -1.3358,-0.9477 -2.3537,-1.7931 -2.2622,-1.8787 0.091,-0.085 1.607,-1.197 3.368,-2.4696 8.275,-5.9806 11.1037,-8.7606 17.4259,-17.1276 l 3.237,-4.2838 0.5925,0.627 c 0.326,0.3449 1.1649,1.4276 1.8648,2.406 4.1009,5.734 9.6638,11.5898 14.6004,15.369 3.9506,3.0246 6.5471,5.0798 6.8048,5.3866 0.3693,0.4395 -0.1632,0.9427 -3.5031,3.3096 -7.4021,5.2456 -11.1333,8.9403 -17.3339,17.1648 -1.5493,2.0553 -2.8426,3.737 -2.8732,3.737 -0.032,0 -1.0343,-1.312 -2.2297,-2.9155 z"
       style="fill:#e24d46;fill-opacity:1" />
    <path
       inkscape:connector-curvature="0"
       id="path7401"
       d="m 3658.8097,1849.2845 c -5.8264,-7.8157 -11.9755,-13.8504 -19.6913,-19.3248 -1.3358,-0.9477 -2.3537,-1.7931 -2.2622,-1.8787 0.091,-0.085 1.607,-1.197 3.368,-2.4696 8.275,-5.9806 11.1037,-8.7606 17.4259,-17.1276 l 3.237,-4.2838 0.5925,0.627 c 0.326,0.3449 1.1649,1.4276 1.8648,2.406 4.1009,5.734 9.6638,11.5898 14.6004,15.369 3.9506,3.0246 6.5471,5.0798 6.8048,5.3866 0.3693,0.4395 -0.1632,0.9427 -3.5031,3.3096 -7.4021,5.2456 -11.1333,8.9403 -17.3339,17.1648 -1.5493,2.0553 -2.8426,3.737 -2.8732,3.737 -0.032,0 -1.0343,-1.312 -2.2297,-2.9155 z"
       style="fill:#e24d46;fill-opacity:1" />
    <path
       style="fill:#e24d46;fill-opacity:1"
       d="m 4116.8097,1849.2845 c -5.8264,-7.8157 -11.9755,-13.8504 -19.6913,-19.3248 -1.3358,-0.9477 -2.3537,-1.7931 -2.2622,-1.8787 0.091,-0.085 1.607,-1.197 3.368,-2.4696 8.275,-5.9806 11.1037,-8.7606 17.4259,-17.1276 l 3.237,-4.2838 0.5925,0.627 c 0.326,0.3449 1.1649,1.4276 1.8648,2.406 4.1009,5.734 9.6638,11.5898 14.6004,15.369 3.9506,3.0246 6.5471,5.0798 6.8048,5.3866 0.3693,0.4395 -0.1632,0.9427 -3.5031,3.3096 -7.4021,5.2456 -11.1333,8.9403 -17.3339,17.1648 -1.5493,2.0553 -2.8426,3.737 -2.8732,3.737 -0.032,0 -1.0343,-1.312 -2.2297,-2.9155 z"
       id="path7403"
       inkscape:connector-curvature="0" />
  </g>
</svg>
