<?xml version="1.0" encoding="UTF-8" standalone="no"?>
<!-- Created with Inkscape (http://www.inkscape.org/) -->

<svg
   id="svg10047"
   height="122.98924"
   width="78.998276"
   version="1.1"
   viewBox="0 0 78.998276 122.98924"
   inkscape:version="0.91 r13725"
   sodipodi:docname="franzoesisches-bild.svgz"
   xmlns:inkscape="http://www.inkscape.org/namespaces/inkscape"
   xmlns:sodipodi="http://sodipodi.sourceforge.net/DTD/sodipodi-0.dtd"
   xmlns="http://www.w3.org/2000/svg"
   xmlns:svg="http://www.w3.org/2000/svg"
   xmlns:rdf="http://www.w3.org/1999/02/22-rdf-syntax-ns#"
   xmlns:cc="http://creativecommons.org/ns#"
   xmlns:dc="http://purl.org/dc/elements/1.1/">
  <sodipodi:namedview
     pagecolor="#ffffff"
     bordercolor="#666666"
     borderopacity="1"
     objecttolerance="10"
     gridtolerance="10"
     guidetolerance="10"
     inkscape:pageopacity="0"
     inkscape:pageshadow="2"
     inkscape:window-width="1920"
     inkscape:window-height="1016"
     id="namedview1491"
     showgrid="false"
     inkscape:zoom="1.3479675"
     inkscape:cx="513.5"
     inkscape:cy="307.5"
     inkscape:window-x="0"
     inkscape:window-y="0"
     inkscape:window-maximized="1"
     inkscape:current-layer="svg10047"
     showguides="true"
     inkscape:guide-bbox="true"
     inkscape:snap-grids="true"
     inkscape:showpageshadow="2"
     inkscape:pagecheckerboard="0"
     inkscape:deskcolor="#d1d1d1" />
  <metadata
     id="metadata16869">
    <rdf:RDF>
      <cc:Work
         rdf:about="">
        <dc:format>image/svg+xml</dc:format>
        <dc:type
           rdf:resource="http://purl.org/dc/dcmitype/StillImage" />
        <dc:title />
      </cc:Work>
    </rdf:RDF>
  </metadata>
  <defs
     id="defs10049" />
  <g
     transform="matrix(0.13625087,0,0,0.13665483,-109.0007,-150.32042)"
     id="diamond_2"
     inkscape:label="#diamond_2">
    <rect
       width="577.80151"
       height="898.00061"
       rx="48.194115"
       ry="49.888187"
       x="800.99933"
       y="1101.0001"
       id="rect6654"
       style="font-style:normal;font-variant:normal;font-weight:500;font-stretch:normal;font-size:medium;line-height:125%;font-family:Gaelic;-inkscape-font-specification:'Gaelic Medium';letter-spacing:0px;word-spacing:0px;fill:#ffffff;fill-opacity:1;stroke:#000000;stroke-width:1.99863;stroke-linecap:butt;stroke-linejoin:miter;stroke-miterlimit:4;stroke-dasharray:none;stroke-opacity:1" />
    <path
       d="m 880,1187.358 -3.44542,22.6422 h -36.48579 q 0.20676,-4.132 3.68648,-9.1496 3.10088,-4.343 11.9208,-12.1012 4.85789,-4.3851 5.92591,-5.5236 0.20677,-0.253 0.48242,-0.548 0.27555,-0.3374 0.6201,-0.759 2.75623,-3.4998 3.96213,-6.9572 1.2058,-3.4575 1.2058,-7.8004 0,-7.4209 -2.9973,-11.3844 -2.963,-3.9634 -8.44108,-3.9634 -4.13431,0 -7.61413,2.0659 -3.47971,2.0661 -5.47798,5.608 -1.99837,3.5418 -1.99837,7.7582 0,4.5959 1.68822,4.5959 0.68909,0 0.79247,-1.2226 0.13778,-1.012 0.48232,-2.0662 0.93024,-2.6142 2.34281,-3.7948 1.44695,-1.2228 3.5831,-1.2228 1.7571,0 3.13527,0.9276 1.41256,0.9276 2.17054,2.6565 0.75797,1.6865 0.75797,3.7526 0,2.3611 -0.99923,4.3006 -0.96464,1.8976 -2.65286,2.9939 -1.65372,1.0962 -3.75527,1.0962 -3.89325,0 -6.40833,-3.2888 Q 840,1172.6847 840,1167.5828 q 0,-3.078 0.96454,-6.0295 0.99923,-2.9936 2.85972,-5.2705 5.03016,-6.2826 15.5039,-6.2826 4.34108,0 8.02756,1.3071 3.68648,1.265 6.33934,3.6684 2.65285,2.4033 4.06541,5.6501 1.41267,3.2466 1.41267,7.0413 0,5.5235 -3.13528,9.8665 -1.30918,1.9395 -3.03189,3.4575 -3.30755,2.6565 -9.92244,6.0296 -9.26794,4.7645 -12.98882,8.3064 -0.86136,0.7589 -3.30755,3.4574 h 22.49793 q 3.13518,0 4.75441,-0.6746 1.65382,-0.7168 2.58396,-2.5298 0.93025,-1.8132 1.61943,-5.4392 l 0.48232,-2.7829 z"
       style="font-style:normal;font-variant:normal;font-weight:500;font-stretch:expanded;font-size:medium;line-height:125%;font-family:'Engravers MT';-inkscape-font-specification:'Engravers MT Medium Expanded';letter-spacing:0px;word-spacing:0px;fill:#e24d46;fill-opacity:1;stroke:none;stroke-width:1px;stroke-linecap:butt;stroke-linejoin:miter;stroke-opacity:1"
       id="path6701"
       inkscape:connector-curvature="0" />
    <path
       inkscape:connector-curvature="0"
       id="path6703"
       style="font-style:normal;font-variant:normal;font-weight:500;font-stretch:expanded;font-size:medium;line-height:125%;font-family:'Engravers MT';-inkscape-font-specification:'Engravers MT Medium Expanded';letter-spacing:0px;word-spacing:0px;fill:#e24d46;fill-opacity:1;stroke:none;stroke-width:1px;stroke-linecap:butt;stroke-linejoin:miter;stroke-opacity:1"
       d="m 1340,1187.358 -3.4454,22.6422 h -36.4858 q 0.2068,-4.132 3.6865,-9.1496 3.1009,-4.343 11.9208,-12.1012 4.8579,-4.3851 5.9259,-5.5236 0.2068,-0.253 0.4824,-0.548 0.2756,-0.3374 0.6201,-0.759 2.7562,-3.4998 3.9621,-6.9572 1.2058,-3.4575 1.2058,-7.8004 0,-7.4209 -2.9973,-11.3844 -2.963,-3.9634 -8.441,-3.9634 -4.1344,0 -7.6142,2.0659 -3.4797,2.0661 -5.478,5.608 -1.9983,3.5418 -1.9983,7.7582 0,4.5959 1.6882,4.5959 0.6891,0 0.7925,-1.2226 0.1377,-1.012 0.4823,-2.0662 0.9302,-2.6142 2.3428,-3.7948 1.4469,-1.2228 3.5831,-1.2228 1.7571,0 3.1353,0.9276 1.4125,0.9276 2.1705,2.6565 0.758,1.6865 0.758,3.7526 0,2.3611 -0.9993,4.3006 -0.9646,1.8976 -2.6528,2.9939 -1.6537,1.0962 -3.7553,1.0962 -3.8932,0 -6.4083,-3.2888 -2.4806,-3.2889 -2.4806,-8.3908 0,-3.078 0.9645,-6.0295 0.9993,-2.9936 2.8598,-5.2705 5.0301,-6.2826 15.5039,-6.2826 4.341,0 8.0275,1.3071 3.6865,1.265 6.3394,3.6684 2.6528,2.4033 4.0654,5.6501 1.4126,3.2466 1.4126,7.0413 0,5.5235 -3.1352,9.8665 -1.3092,1.9395 -3.0319,3.4575 -3.3076,2.6565 -9.9225,6.0296 -9.2679,4.7645 -12.9888,8.3064 -0.8613,0.7589 -3.3075,3.4574 h 22.4979 q 3.1352,0 4.7544,-0.6746 1.6538,-0.7168 2.584,-2.5298 0.9302,-1.8132 1.6194,-5.4392 l 0.4823,-2.7829 z" />
    <path
       inkscape:connector-curvature="0"
       id="path6705"
       style="font-style:normal;font-variant:normal;font-weight:500;font-stretch:expanded;font-size:medium;line-height:125%;font-family:'Engravers MT';-inkscape-font-specification:'Engravers MT Medium Expanded';letter-spacing:0px;word-spacing:0px;fill:#e24d46;fill-opacity:1;stroke:none;stroke-width:1px;stroke-linecap:butt;stroke-linejoin:miter;stroke-opacity:1"
       d="m 840,1912.6424 3.4454,-22.6422 h 36.4858 q -0.2068,4.132 -3.6865,9.1496 -3.1008,4.343 -11.9208,12.1012 -4.8579,4.3851 -5.9259,5.5236 -0.2068,0.253 -0.4824,0.548 -0.2755,0.3374 -0.6201,0.759 -2.7562,3.4998 -3.9621,6.9572 -1.2058,3.4575 -1.2058,7.8004 0,7.4209 2.9973,11.3844 2.963,3.9634 8.4411,3.9634 4.1343,0 7.6141,-2.0659 3.4797,-2.0661 5.478,-5.608 1.9983,-3.5418 1.9983,-7.7582 0,-4.5959 -1.6882,-4.5959 -0.6891,0 -0.7925,1.2226 -0.1377,1.012 -0.4823,2.0662 -0.9302,2.6142 -2.3428,3.7948 -1.4469,1.2228 -3.5831,1.2228 -1.7571,0 -3.1353,-0.9276 -1.4125,-0.9276 -2.1705,-2.6565 -0.758,-1.6865 -0.758,-3.7526 0,-2.3611 0.9993,-4.3006 0.9646,-1.8976 2.6528,-2.9939 1.6537,-1.0962 3.7553,-1.0962 3.8932,0 6.4083,3.2888 2.4806,3.2889 2.4806,8.3908 0,3.078 -0.9645,6.0295 -0.9993,2.9936 -2.8598,5.2705 -5.0301,6.2826 -15.5039,6.2826 -4.341,0 -8.0275,-1.3071 -3.6865,-1.265 -6.3394,-3.6684 -2.6528,-2.4033 -4.0654,-5.6501 -1.4126,-3.2466 -1.4126,-7.0413 0,-5.5235 3.1352,-9.8665 1.3092,-1.9395 3.0319,-3.4575 3.3076,-2.6565 9.9225,-6.0296 9.2679,-4.7645 12.9888,-8.3064 0.8613,-0.7589 3.3075,-3.4574 h -22.4979 q -3.1352,0 -4.7544,0.6746 -1.6538,0.7168 -2.584,2.5298 -0.9302,1.8132 -1.6194,5.4392 l -0.4823,2.7829 z" />
    <path
       d="m 1300,1912.6424 3.4454,-22.6422 h 36.4858 q -0.2068,4.132 -3.6865,9.1496 -3.1009,4.343 -11.9208,12.1012 -4.8579,4.3851 -5.9259,5.5236 -0.2068,0.253 -0.4824,0.548 -0.2756,0.3374 -0.6201,0.759 -2.7562,3.4998 -3.9621,6.9572 -1.2058,3.4575 -1.2058,7.8004 0,7.4209 2.9973,11.3844 2.963,3.9634 8.441,3.9634 4.1344,0 7.6142,-2.0659 3.4797,-2.0661 5.478,-5.608 1.9983,-3.5418 1.9983,-7.7582 0,-4.5959 -1.6882,-4.5959 -0.6891,0 -0.7925,1.2226 -0.1377,1.012 -0.4823,2.0662 -0.9302,2.6142 -2.3428,3.7948 -1.4469,1.2228 -3.5831,1.2228 -1.7571,0 -3.1353,-0.9276 -1.4125,-0.9276 -2.1705,-2.6565 -0.758,-1.6865 -0.758,-3.7526 0,-2.3611 0.9993,-4.3006 0.9646,-1.8976 2.6528,-2.9939 1.6537,-1.0962 3.7553,-1.0962 3.8932,0 6.4083,3.2888 2.4806,3.2889 2.4806,8.3908 0,3.078 -0.9645,6.0295 -0.9993,2.9936 -2.8598,5.2705 -5.0301,6.2826 -15.5039,6.2826 -4.341,0 -8.0275,-1.3071 -3.6865,-1.265 -6.3394,-3.6684 -2.6528,-2.4033 -4.0654,-5.6501 -1.4126,-3.2466 -1.4126,-7.0413 0,-5.5235 3.1352,-9.8665 1.3092,-1.9395 3.0319,-3.4575 3.3076,-2.6565 9.9225,-6.0296 9.2679,-4.7645 12.9888,-8.3064 0.8613,-0.7589 3.3075,-3.4574 h -22.4979 q -3.1352,0 -4.7544,0.6746 -1.6538,0.7168 -2.584,2.5298 -0.9302,1.8132 -1.6194,5.4392 l -0.4823,2.7829 z"
       style="font-style:normal;font-variant:normal;font-weight:500;font-stretch:expanded;font-size:medium;line-height:125%;font-family:'Engravers MT';-inkscape-font-specification:'Engravers MT Medium Expanded';letter-spacing:0px;word-spacing:0px;fill:#e24d46;fill-opacity:1;stroke:none;stroke-width:1px;stroke-linecap:butt;stroke-linejoin:miter;stroke-opacity:1"
       id="path6707"
       inkscape:connector-curvature="0" />
    <path
       inkscape:connector-curvature="0"
       id="path7321"
       d="m 1083.1977,1314.1818 c -19.4211,-26.0526 -39.9186,-46.1682 -65.6379,-64.416 -4.4525,-3.1589 -7.8456,-5.9771 -7.5408,-6.2625 0.3058,-0.2855 5.3572,-3.9901 11.227,-8.2322 27.5833,-19.9349 37.0125,-29.202 58.0865,-57.0921 l 10.7901,-14.279 1.9747,2.0901 c 1.087,1.1496 3.8834,4.7586 6.2162,8.0199 13.6696,19.113 32.2126,38.6329 48.6676,51.23 13.169,10.082 21.824,16.9327 22.683,17.955 1.231,1.4653 -0.544,3.1425 -11.677,11.0322 -24.674,17.4858 -37.111,29.8011 -57.7799,57.2162 -5.1643,6.8512 -9.475,12.4566 -9.5773,12.4566 -0.1066,0 -3.4475,-4.3732 -7.4322,-9.7182 z"
       style="fill:#e24d46;fill-opacity:1" />
    <path
       style="fill:#e24d46;fill-opacity:1"
       d="m 1083.1977,1926.1818 c -19.4211,-26.0526 -39.9186,-46.1682 -65.6379,-64.416 -4.4525,-3.1589 -7.8456,-5.9771 -7.5408,-6.2625 0.3058,-0.2855 5.3572,-3.9901 11.227,-8.2322 27.5833,-19.9349 37.0125,-29.202 58.0865,-57.0921 l 10.7901,-14.279 1.9747,2.0901 c 1.087,1.1496 3.8834,4.7586 6.2162,8.0199 13.6696,19.113 32.2126,38.6329 48.6676,51.23 13.169,10.082 21.824,16.9327 22.683,17.955 1.231,1.4653 -0.544,3.1425 -11.677,11.0322 -24.674,17.4858 -37.111,29.8011 -57.7799,57.2162 -5.1643,6.8512 -9.475,12.4566 -9.5773,12.4566 -0.1066,0 -3.4475,-4.3732 -7.4322,-9.7182 z"
       id="path7323"
       inkscape:connector-curvature="0" />
    <path
       style="fill:#e24d46;fill-opacity:1"
       d="m 858.81022,1293.0845 c -5.8264,-7.8157 -11.9755,-13.8504 -19.6913,-19.3248 -1.3358,-0.9477 -2.3537,-1.7931 -2.2622,-1.8787 0.091,-0.085 1.607,-1.197 3.368,-2.4696 8.275,-5.9806 11.1037,-8.7606 17.4259,-17.1276 l 3.237,-4.2838 0.5925,0.627 c 0.326,0.3449 1.1649,1.4276 1.8648,2.406 4.1009,5.734 9.6638,11.5898 14.6004,15.369 3.9506,3.0246 6.5471,5.0798 6.8048,5.3866 0.3693,0.4395 -0.1632,0.9427 -3.5031,3.3096 -7.4021,5.2456 -11.1333,8.9403 -17.3339,17.1648 -1.5493,2.0553 -2.8426,3.737 -2.8732,3.737 -0.032,0 -1.0343,-1.312 -2.2297,-2.9155 z"
       id="path7368"
       inkscape:connector-curvature="0" />
    <path
       inkscape:connector-curvature="0"
       id="path7371"
       d="m 1316.8102,1293.0845 c -5.8264,-7.8157 -11.9755,-13.8504 -19.6913,-19.3248 -1.3358,-0.9477 -2.3537,-1.7931 -2.2622,-1.8787 0.091,-0.085 1.607,-1.197 3.368,-2.4696 8.275,-5.9806 11.1037,-8.7606 17.4259,-17.1276 l 3.237,-4.2838 0.5925,0.627 c 0.326,0.3449 1.1649,1.4276 1.8648,2.406 4.1009,5.734 9.6638,11.5898 14.6004,15.369 3.9506,3.0246 6.5471,5.0798 6.8048,5.3866 0.3693,0.4395 -0.1632,0.9427 -3.5031,3.3096 -7.4021,5.2456 -11.1333,8.9403 -17.3339,17.1648 -1.5493,2.0553 -2.8426,3.737 -2.8732,3.737 -0.032,0 -1.0343,-1.312 -2.2297,-2.9155 z"
       style="fill:#e24d46;fill-opacity:1" />
    <path
       inkscape:connector-curvature="0"
       id="path7410"
       d="m 858.81022,1849.2845 c -5.8264,-7.8157 -11.9755,-13.8504 -19.6913,-19.3248 -1.3358,-0.9477 -2.3537,-1.7931 -2.2622,-1.8787 0.091,-0.085 1.607,-1.197 3.368,-2.4696 8.275,-5.9806 11.1037,-8.7606 17.4259,-17.1276 l 3.237,-4.2838 0.5925,0.627 c 0.326,0.3449 1.1649,1.4276 1.8648,2.406 4.1009,5.734 9.6638,11.5898 14.6004,15.369 3.9506,3.0246 6.5471,5.0798 6.8048,5.3866 0.3693,0.4395 -0.1632,0.9427 -3.5031,3.3096 -7.4021,5.2456 -11.1333,8.9403 -17.3339,17.1648 -1.5493,2.0553 -2.8426,3.737 -2.8732,3.737 -0.032,0 -1.0343,-1.312 -2.2297,-2.9155 z"
       style="fill:#e24d46;fill-opacity:1" />
    <path
       style="fill:#e24d46;fill-opacity:1"
       d="m 1316.8102,1849.2845 c -5.8264,-7.8157 -11.9755,-13.8504 -19.6913,-19.3248 -1.3358,-0.9477 -2.3537,-1.7931 -2.2622,-1.8787 0.091,-0.085 1.607,-1.197 3.368,-2.4696 8.275,-5.9806 11.1037,-8.7606 17.4259,-17.1276 l 3.237,-4.2838 0.5925,0.627 c 0.326,0.3449 1.1649,1.4276 1.8648,2.406 4.1009,5.734 9.6638,11.5898 14.6004,15.369 3.9506,3.0246 6.5471,5.0798 6.8048,5.3866 0.3693,0.4395 -0.1632,0.9427 -3.5031,3.3096 -7.4021,5.2456 -11.1333,8.9403 -17.3339,17.1648 -1.5493,2.0553 -2.8426,3.737 -2.8732,3.737 -0.032,0 -1.0343,-1.312 -2.2297,-2.9155 z"
       id="path7412"
       inkscape:connector-curvature="0" />
  </g>
</svg>
