<?xml version="1.0" encoding="UTF-8" standalone="no"?>
<!-- Created with Inkscape (http://www.inkscape.org/) -->

<svg
   id="svg10047"
   height="122.98924"
   width="78.998276"
   version="1.1"
   viewBox="0 0 78.998276 122.98924"
   inkscape:version="0.91 r13725"
   sodipodi:docname="franzoesisches-bild.svgz"
   xmlns:inkscape="http://www.inkscape.org/namespaces/inkscape"
   xmlns:sodipodi="http://sodipodi.sourceforge.net/DTD/sodipodi-0.dtd"
   xmlns="http://www.w3.org/2000/svg"
   xmlns:svg="http://www.w3.org/2000/svg"
   xmlns:rdf="http://www.w3.org/1999/02/22-rdf-syntax-ns#"
   xmlns:cc="http://creativecommons.org/ns#"
   xmlns:dc="http://purl.org/dc/elements/1.1/">
  <sodipodi:namedview
     pagecolor="#ffffff"
     bordercolor="#666666"
     borderopacity="1"
     objecttolerance="10"
     gridtolerance="10"
     guidetolerance="10"
     inkscape:pageopacity="0"
     inkscape:pageshadow="2"
     inkscape:window-width="1920"
     inkscape:window-height="1016"
     id="namedview1491"
     showgrid="false"
     inkscape:zoom="1.3479675"
     inkscape:cx="513.5"
     inkscape:cy="307.5"
     inkscape:window-x="0"
     inkscape:window-y="0"
     inkscape:window-maximized="1"
     inkscape:current-layer="svg10047"
     showguides="true"
     inkscape:guide-bbox="true"
     inkscape:snap-grids="true"
     inkscape:showpageshadow="2"
     inkscape:pagecheckerboard="0"
     inkscape:deskcolor="#d1d1d1" />
  <metadata
     id="metadata16869">
    <rdf:RDF>
      <cc:Work
         rdf:about="">
        <dc:format>image/svg+xml</dc:format>
        <dc:type
           rdf:resource="http://purl.org/dc/dcmitype/StillImage" />
        <dc:title />
      </cc:Work>
    </rdf:RDF>
  </metadata>
  <defs
     id="defs10049" />
  <g
     transform="matrix(0.13625087,0,0,0.13665483,-204.3763,-150.32042)"
     id="diamond_3"
     inkscape:label="#diamond_3">
    <rect
       style="font-style:normal;font-variant:normal;font-weight:500;font-stretch:normal;font-size:medium;line-height:125%;font-family:Gaelic;-inkscape-font-specification:'Gaelic Medium';letter-spacing:0px;word-spacing:0px;fill:#ffffff;fill-opacity:1;stroke:#000000;stroke-width:1.99863;stroke-linecap:butt;stroke-linejoin:miter;stroke-miterlimit:4;stroke-dasharray:none;stroke-opacity:1"
       id="rect6652"
       y="1101.0001"
       x="1500.9993"
       ry="49.888187"
       rx="48.194115"
       height="898.00061"
       width="577.80151" />
    <path
       d="m 1563.5314,1178.0143 v -0.083 0.1655 q 5.3311,0.9517 7.708,2.2345 2.8862,1.3656 4.8217,3.3104 1.9695,1.9448 2.9542,4.4689 0.9847,2.4828 0.9847,5.338 0,4.8827 -2.7844,8.6483 -2.7504,3.7654 -7.8439,5.8344 -5.0593,2.0689 -11.477,2.0689 -3.6671,0 -7.2325,-0.9103 -3.5314,-0.9103 -5.6367,-2.3171 -2.275,-1.6553 -3.6673,-4.2622 -1.3582,-2.6068 -1.3582,-5.2552 0,-3.062 1.6299,-5.0896 1.6298,-2.0276 4.0746,-2.0276 2.411,0 3.905,1.8621 1.528,1.8207 1.528,4.5931 0,1.7379 -0.6791,3.0621 -0.6452,1.2827 -2.1731,2.5241 -1.4602,1.1173 -1.4602,2.0276 0,1.862 2.9542,3.0621 2.9881,1.2 7.4023,1.2 6.214,0 9.0663,-3.3931 3.056,-3.8897 2.6825,-11.2966 -0.4075,-8.4413 -3.0561,-11.5035 -2.7503,-3.2276 -7.8438,-3.2276 -1.2563,0 -4.584,0.3311 -0.9168,0.1655 -1.8336,0.1655 -1.9354,0 -1.9354,-1.4483 0,-1.4068 2.1731,-1.4068 0.4074,0 2.2751,0.2482 2.4108,0.3311 3.9727,0.3311 3.0222,0 4.8558,-1.1587 1.8336,-1.2 2.6486,-3.7654 0.8488,-2.5656 0.8488,-7.0346 0,-2.4827 -0.3396,-4.5104 -0.3395,-2.0689 -0.9847,-3.724 -0.6111,-1.6552 -1.528,-2.6897 -2.309,-2.8138 -6.6213,-2.8138 -2.5807,0 -4.8218,0.7034 -2.2411,0.7035 -3.6333,1.8622 -1.3582,1.1172 -1.3582,2.3585 0,0.6621 0.3395,1.1172 0.3396,0.4139 1.2564,1.0759 1.5959,0.9518 2.3089,2.2759 0.7133,1.2828 0.7133,3.269 0,2.731 -1.4942,4.5103 -1.4601,1.7379 -3.6673,1.7379 -2.3429,0 -3.9387,-1.9448 -1.562,-1.9862 -1.562,-4.8413 0,-3.9725 2.241,-7.1173 2.2751,-3.1449 6.3498,-4.8414 4.1086,-1.7379 9.3038,-1.7379 5.3651,0 9.3719,1.8207 4.0068,1.7793 6.214,5.131 2.2071,3.3104 2.2071,7.7794 0,2.8137 -0.9847,5.2137 -0.9509,2.3587 -2.8524,4.0966 -2.1731,1.9862 -6.112,3.1448 -0.9848,0.2897 -3.3277,0.8275 z"
       style="font-style:normal;font-variant:normal;font-weight:500;font-stretch:expanded;font-size:medium;line-height:125%;font-family:'Engravers MT';-inkscape-font-specification:'Engravers MT Medium Expanded';letter-spacing:0px;word-spacing:0px;fill:#e24d46;fill-opacity:1;stroke:none;stroke-width:1px;stroke-linecap:butt;stroke-linejoin:miter;stroke-opacity:1"
       id="path6693"
       inkscape:connector-curvature="0" />
    <path
       inkscape:connector-curvature="0"
       id="path6695"
       style="font-style:normal;font-variant:normal;font-weight:500;font-stretch:expanded;font-size:medium;line-height:125%;font-family:'Engravers MT';-inkscape-font-specification:'Engravers MT Medium Expanded';letter-spacing:0px;word-spacing:0px;fill:#e24d46;fill-opacity:1;stroke:none;stroke-width:1px;stroke-linecap:butt;stroke-linejoin:miter;stroke-opacity:1"
       d="m 2023.5314,1178.0143 v -0.083 0.1655 q 5.3311,0.9517 7.708,2.2345 2.8862,1.3656 4.8217,3.3104 1.9695,1.9448 2.9542,4.4689 0.9847,2.4828 0.9847,5.338 0,4.8827 -2.7844,8.6483 -2.7504,3.7654 -7.8439,5.8344 -5.0593,2.0689 -11.477,2.0689 -3.6671,0 -7.2325,-0.9103 -3.5314,-0.9103 -5.6367,-2.3171 -2.275,-1.6553 -3.6673,-4.2622 -1.3582,-2.6068 -1.3582,-5.2552 0,-3.062 1.6299,-5.0896 1.6298,-2.0276 4.0746,-2.0276 2.411,0 3.905,1.8621 1.528,1.8207 1.528,4.5931 0,1.7379 -0.6791,3.0621 -0.6452,1.2827 -2.1731,2.5241 -1.4602,1.1173 -1.4602,2.0276 0,1.862 2.9542,3.0621 2.9881,1.2 7.4023,1.2 6.214,0 9.0663,-3.3931 3.056,-3.8897 2.6825,-11.2966 -0.4075,-8.4413 -3.0561,-11.5035 -2.7503,-3.2276 -7.8438,-3.2276 -1.2563,0 -4.584,0.3311 -0.9168,0.1655 -1.8336,0.1655 -1.9354,0 -1.9354,-1.4483 0,-1.4068 2.1731,-1.4068 0.4074,0 2.2751,0.2482 2.4108,0.3311 3.9727,0.3311 3.0222,0 4.8558,-1.1587 1.8336,-1.2 2.6486,-3.7654 0.8488,-2.5656 0.8488,-7.0346 0,-2.4827 -0.3396,-4.5104 -0.3395,-2.0689 -0.9847,-3.724 -0.6111,-1.6552 -1.528,-2.6897 -2.309,-2.8138 -6.6213,-2.8138 -2.5807,0 -4.8218,0.7034 -2.2411,0.7035 -3.6333,1.8622 -1.3582,1.1172 -1.3582,2.3585 0,0.6621 0.3395,1.1172 0.3396,0.4139 1.2564,1.0759 1.5959,0.9518 2.3089,2.2759 0.7133,1.2828 0.7133,3.269 0,2.731 -1.4942,4.5103 -1.4601,1.7379 -3.6673,1.7379 -2.3429,0 -3.9387,-1.9448 -1.562,-1.9862 -1.562,-4.8413 0,-3.9725 2.241,-7.1173 2.2751,-3.1449 6.3498,-4.8414 4.1086,-1.7379 9.3038,-1.7379 5.3651,0 9.3719,1.8207 4.0068,1.7793 6.214,5.131 2.2071,3.3104 2.2071,7.7794 0,2.8137 -0.9847,5.2137 -0.9509,2.3587 -2.8524,4.0966 -2.1731,1.9862 -6.112,3.1448 -0.9848,0.2897 -3.3277,0.8275 z" />
    <path
       inkscape:connector-curvature="0"
       id="path6697"
       style="font-style:normal;font-variant:normal;font-weight:500;font-stretch:expanded;font-size:medium;line-height:125%;font-family:'Engravers MT';-inkscape-font-specification:'Engravers MT Medium Expanded';letter-spacing:0px;word-spacing:0px;fill:#e24d46;fill-opacity:1;stroke:none;stroke-width:1px;stroke-linecap:butt;stroke-linejoin:miter;stroke-opacity:1"
       d="m 1556.4686,1921.9861 v 0.083 -0.1655 q -5.3311,-0.9517 -7.708,-2.2345 -2.8862,-1.3656 -4.8217,-3.3104 -1.9695,-1.9448 -2.9542,-4.4689 -0.9847,-2.4828 -0.9847,-5.338 0,-4.8827 2.7844,-8.6483 2.7504,-3.7654 7.844,-5.8344 5.0592,-2.0689 11.4769,-2.0689 3.6671,0 7.2325,0.9103 3.5314,0.9103 5.6368,2.3171 2.275,1.6553 3.6673,4.2622 1.3581,2.6068 1.3581,5.2552 0,3.062 -1.6299,5.0896 -1.6297,2.0276 -4.0746,2.0276 -2.411,0 -3.9049,-1.8621 -1.5281,-1.8207 -1.5281,-4.5931 0,-1.7379 0.6792,-3.0621 0.6452,-1.2827 2.1731,-2.5241 1.4602,-1.1173 1.4602,-2.0276 0,-1.862 -2.9542,-3.0621 -2.9881,-1.2 -7.4023,-1.2 -6.214,0 -9.0663,3.3931 -3.056,3.8897 -2.6825,11.2966 0.4075,8.4413 3.0561,11.5035 2.7503,3.2276 7.8438,3.2276 1.2563,0 4.584,-0.3311 0.9168,-0.1655 1.8336,-0.1655 1.9354,0 1.9354,1.4483 0,1.4068 -2.1731,1.4068 -0.4074,0 -2.2751,-0.2482 -2.4108,-0.331 -3.9727,-0.331 -3.0222,0 -4.8558,1.1586 -1.8336,1.2 -2.6486,3.7655 -0.8488,2.5656 -0.8488,7.0346 0,2.4827 0.3396,4.5104 0.3395,2.0689 0.9847,3.724 0.6111,1.6552 1.528,2.6897 2.309,2.8138 6.6213,2.8138 2.5807,0 4.8218,-0.7034 2.2411,-0.7035 3.6333,-1.8622 1.3582,-1.1172 1.3582,-2.3585 0,-0.6621 -0.3395,-1.1172 -0.3396,-0.4139 -1.2564,-1.0759 -1.5959,-0.9518 -2.3089,-2.2759 -0.7133,-1.2828 -0.7133,-3.269 0,-2.731 1.4942,-4.5103 1.4601,-1.7379 3.6673,-1.7379 2.3429,0 3.9387,1.9448 1.562,1.9862 1.562,4.8413 0,3.9725 -2.241,7.1173 -2.2751,3.1449 -6.3498,4.8414 -4.1086,1.7379 -9.3038,1.7379 -5.3651,0 -9.3719,-1.8207 -4.0068,-1.7793 -6.214,-5.131 -2.2071,-3.3104 -2.2071,-7.7794 0,-2.8137 0.9847,-5.2137 0.9509,-2.3587 2.8524,-4.0966 2.1731,-1.9862 6.112,-3.1448 0.9848,-0.2897 3.3277,-0.8275 z" />
    <path
       d="m 2016.4686,1921.9861 v 0.083 -0.1655 q -5.3311,-0.9517 -7.708,-2.2345 -2.8862,-1.3656 -4.8217,-3.3104 -1.9695,-1.9448 -2.9542,-4.4689 -0.9847,-2.4828 -0.9847,-5.338 0,-4.8827 2.7844,-8.6483 2.7504,-3.7654 7.844,-5.8344 5.0592,-2.0689 11.4769,-2.0689 3.6671,0 7.2325,0.9103 3.5314,0.9103 5.6368,2.3171 2.275,1.6553 3.6673,4.2622 1.3581,2.6068 1.3581,5.2552 0,3.062 -1.6299,5.0896 -1.6297,2.0276 -4.0746,2.0276 -2.411,0 -3.9049,-1.8621 -1.5281,-1.8207 -1.5281,-4.5931 0,-1.7379 0.6792,-3.0621 0.6452,-1.2827 2.1731,-2.5241 1.4602,-1.1173 1.4602,-2.0276 0,-1.862 -2.9542,-3.0621 -2.9881,-1.2 -7.4023,-1.2 -6.214,0 -9.0663,3.3931 -3.056,3.8897 -2.6825,11.2966 0.4075,8.4413 3.0561,11.5035 2.7503,3.2276 7.8438,3.2276 1.2563,0 4.584,-0.3311 0.9168,-0.1655 1.8336,-0.1655 1.9354,0 1.9354,1.4483 0,1.4068 -2.1731,1.4068 -0.4074,0 -2.2751,-0.2482 -2.4108,-0.331 -3.9727,-0.331 -3.0222,0 -4.8558,1.1586 -1.8336,1.2 -2.6486,3.7655 -0.8488,2.5656 -0.8488,7.0346 0,2.4827 0.3396,4.5104 0.3395,2.0689 0.9847,3.724 0.6111,1.6552 1.528,2.6897 2.309,2.8138 6.6213,2.8138 2.5807,0 4.8218,-0.7034 2.2411,-0.7035 3.6333,-1.8622 1.3582,-1.1172 1.3582,-2.3585 0,-0.6621 -0.3395,-1.1172 -0.3396,-0.4139 -1.2564,-1.0759 -1.5959,-0.9518 -2.3089,-2.2759 -0.7133,-1.2828 -0.7133,-3.269 0,-2.731 1.4942,-4.5103 1.4601,-1.7379 3.6673,-1.7379 2.3429,0 3.9387,1.9448 1.562,1.9862 1.562,4.8413 0,3.9725 -2.241,7.1173 -2.2751,3.1449 -6.3498,4.8414 -4.1086,1.7379 -9.3038,1.7379 -5.3651,0 -9.3719,-1.8207 -4.0068,-1.7793 -6.214,-5.131 -2.2071,-3.3104 -2.2071,-7.7794 0,-2.8137 0.9847,-5.2137 0.9509,-2.3587 2.8524,-4.0966 2.1731,-1.9862 6.112,-3.1448 0.9848,-0.2897 3.3277,-0.8275 z"
       style="font-style:normal;font-variant:normal;font-weight:500;font-stretch:expanded;font-size:medium;line-height:125%;font-family:'Engravers MT';-inkscape-font-specification:'Engravers MT Medium Expanded';letter-spacing:0px;word-spacing:0px;fill:#e24d46;fill-opacity:1;stroke:none;stroke-width:1px;stroke-linecap:butt;stroke-linejoin:miter;stroke-opacity:1"
       id="path6699"
       inkscape:connector-curvature="0" />
    <path
       style="fill:#e24d46;fill-opacity:1"
       d="m 1783.1977,1314.1818 c -19.4211,-26.0526 -39.9186,-46.1682 -65.6379,-64.416 -4.4525,-3.1589 -7.8456,-5.9771 -7.5408,-6.2625 0.3058,-0.2855 5.3572,-3.9901 11.227,-8.2322 27.5833,-19.9349 37.0125,-29.202 58.0865,-57.0921 l 10.7901,-14.279 1.9747,2.0901 c 1.087,1.1496 3.8834,4.7586 6.2162,8.0199 13.6696,19.113 32.2126,38.6329 48.6676,51.23 13.169,10.082 21.824,16.9327 22.683,17.955 1.231,1.4653 -0.544,3.1425 -11.677,11.0322 -24.674,17.4858 -37.111,29.8011 -57.7799,57.2162 -5.1643,6.8512 -9.475,12.4566 -9.5773,12.4566 -0.1066,0 -3.4475,-4.3732 -7.4322,-9.7182 z"
       id="path7310"
       inkscape:connector-curvature="0" />
    <path
       inkscape:connector-curvature="0"
       id="path7314"
       d="m 1783.1977,1926.1818 c -19.4211,-26.0526 -39.9186,-46.1682 -65.6379,-64.416 -4.4525,-3.1589 -7.8456,-5.9771 -7.5408,-6.2625 0.3058,-0.2855 5.3572,-3.9901 11.227,-8.2322 27.5833,-19.9349 37.0125,-29.202 58.0865,-57.0921 l 10.7901,-14.279 1.9747,2.0901 c 1.087,1.1496 3.8834,4.7586 6.2162,8.0199 13.6696,19.113 32.2126,38.6329 48.6676,51.23 13.169,10.082 21.824,16.9327 22.683,17.955 1.231,1.4653 -0.544,3.1425 -11.677,11.0322 -24.674,17.4858 -37.111,29.8011 -57.7799,57.2162 -5.1643,6.8512 -9.475,12.4566 -9.5773,12.4566 -0.1066,0 -3.4475,-4.3732 -7.4322,-9.7182 z"
       style="fill:#e24d46;fill-opacity:1" />
    <path
       inkscape:connector-curvature="0"
       id="path7319"
       d="m 1783.1977,1620.1818 c -19.4211,-26.0526 -39.9186,-46.1682 -65.6379,-64.416 -4.4525,-3.1589 -7.8456,-5.9771 -7.5408,-6.2625 0.3058,-0.2855 5.3572,-3.9901 11.227,-8.2322 27.5833,-19.9349 37.0125,-29.202 58.0865,-57.0921 l 10.7901,-14.279 1.9747,2.0901 c 1.087,1.1496 3.8834,4.7586 6.2162,8.0199 13.6696,19.113 32.2126,38.6329 48.6676,51.23 13.169,10.082 21.824,16.9327 22.683,17.955 1.231,1.4653 -0.544,3.1425 -11.677,11.0322 -24.674,17.4858 -37.111,29.8011 -57.7799,57.2162 -5.1643,6.8512 -9.475,12.4566 -9.5773,12.4566 -0.1066,0 -3.4475,-4.3732 -7.4322,-9.7182 z"
       style="fill:#e24d46;fill-opacity:1" />
    <path
       inkscape:connector-curvature="0"
       id="path7373"
       d="m 1558.8097,1293.0845 c -5.8264,-7.8157 -11.9755,-13.8504 -19.6913,-19.3248 -1.3358,-0.9477 -2.3537,-1.7931 -2.2622,-1.8787 0.091,-0.085 1.607,-1.197 3.368,-2.4696 8.275,-5.9806 11.1037,-8.7606 17.4259,-17.1276 l 3.237,-4.2838 0.5925,0.627 c 0.326,0.3449 1.1649,1.4276 1.8648,2.406 4.1009,5.734 9.6638,11.5898 14.6004,15.369 3.9506,3.0246 6.5471,5.0798 6.8048,5.3866 0.3693,0.4395 -0.1632,0.9427 -3.5031,3.3096 -7.4021,5.2456 -11.1333,8.9403 -17.3339,17.1648 -1.5493,2.0553 -2.8426,3.737 -2.8732,3.737 -0.032,0 -1.0343,-1.312 -2.2297,-2.9155 z"
       style="fill:#e24d46;fill-opacity:1" />
    <path
       style="fill:#e24d46;fill-opacity:1"
       d="m 2016.8097,1293.0845 c -5.8264,-7.8157 -11.9755,-13.8504 -19.6913,-19.3248 -1.3358,-0.9477 -2.3537,-1.7931 -2.2622,-1.8787 0.091,-0.085 1.607,-1.197 3.368,-2.4696 8.275,-5.9806 11.1037,-8.7606 17.4259,-17.1276 l 3.237,-4.2838 0.5925,0.627 c 0.326,0.3449 1.1649,1.4276 1.8648,2.406 4.1009,5.734 9.6638,11.5898 14.6004,15.369 3.9506,3.0246 6.5471,5.0798 6.8048,5.3866 0.3693,0.4395 -0.1632,0.9427 -3.5031,3.3096 -7.4021,5.2456 -11.1333,8.9403 -17.3339,17.1648 -1.5493,2.0553 -2.8426,3.737 -2.8732,3.737 -0.032,0 -1.0343,-1.312 -2.2297,-2.9155 z"
       id="path7375"
       inkscape:connector-curvature="0" />
    <path
       style="fill:#e24d46;fill-opacity:1"
       d="m 1558.8097,1849.2845 c -5.8264,-7.8157 -11.9755,-13.8504 -19.6913,-19.3248 -1.3358,-0.9477 -2.3537,-1.7931 -2.2622,-1.8787 0.091,-0.085 1.607,-1.197 3.368,-2.4696 8.275,-5.9806 11.1037,-8.7606 17.4259,-17.1276 l 3.237,-4.2838 0.5925,0.627 c 0.326,0.3449 1.1649,1.4276 1.8648,2.406 4.1009,5.734 9.6638,11.5898 14.6004,15.369 3.9506,3.0246 6.5471,5.0798 6.8048,5.3866 0.3693,0.4395 -0.1632,0.9427 -3.5031,3.3096 -7.4021,5.2456 -11.1333,8.9403 -17.3339,17.1648 -1.5493,2.0553 -2.8426,3.737 -2.8732,3.737 -0.032,0 -1.0343,-1.312 -2.2297,-2.9155 z"
       id="path7414"
       inkscape:connector-curvature="0" />
    <path
       inkscape:connector-curvature="0"
       id="path7416"
       d="m 2016.8097,1849.2845 c -5.8264,-7.8157 -11.9755,-13.8504 -19.6913,-19.3248 -1.3358,-0.9477 -2.3537,-1.7931 -2.2622,-1.8787 0.091,-0.085 1.607,-1.197 3.368,-2.4696 8.275,-5.9806 11.1037,-8.7606 17.4259,-17.1276 l 3.237,-4.2838 0.5925,0.627 c 0.326,0.3449 1.1649,1.4276 1.8648,2.406 4.1009,5.734 9.6638,11.5898 14.6004,15.369 3.9506,3.0246 6.5471,5.0798 6.8048,5.3866 0.3693,0.4395 -0.1632,0.9427 -3.5031,3.3096 -7.4021,5.2456 -11.1333,8.9403 -17.3339,17.1648 -1.5493,2.0553 -2.8426,3.737 -2.8732,3.737 -0.032,0 -1.0343,-1.312 -2.2297,-2.9155 z"
       style="fill:#e24d46;fill-opacity:1" />
  </g>
</svg>
