<?xml version="1.0" encoding="UTF-8" standalone="no"?>
<!-- Created with Inkscape (http://www.inkscape.org/) -->

<svg
   id="svg10047"
   height="122.98924"
   width="78.998276"
   version="1.1"
   viewBox="0 0 78.998276 122.98924"
   inkscape:version="0.91 r13725"
   sodipodi:docname="franzoesisches-bild.svgz"
   xmlns:inkscape="http://www.inkscape.org/namespaces/inkscape"
   xmlns:sodipodi="http://sodipodi.sourceforge.net/DTD/sodipodi-0.dtd"
   xmlns="http://www.w3.org/2000/svg"
   xmlns:svg="http://www.w3.org/2000/svg"
   xmlns:rdf="http://www.w3.org/1999/02/22-rdf-syntax-ns#"
   xmlns:cc="http://creativecommons.org/ns#"
   xmlns:dc="http://purl.org/dc/elements/1.1/">
  <sodipodi:namedview
     pagecolor="#ffffff"
     bordercolor="#666666"
     borderopacity="1"
     objecttolerance="10"
     gridtolerance="10"
     guidetolerance="10"
     inkscape:pageopacity="0"
     inkscape:pageshadow="2"
     inkscape:window-width="1920"
     inkscape:window-height="1016"
     id="namedview1491"
     showgrid="false"
     inkscape:zoom="1.3479675"
     inkscape:cx="513.5"
     inkscape:cy="307.5"
     inkscape:window-x="0"
     inkscape:window-y="0"
     inkscape:window-maximized="1"
     inkscape:current-layer="svg10047"
     showguides="true"
     inkscape:guide-bbox="true"
     inkscape:snap-grids="true"
     inkscape:showpageshadow="2"
     inkscape:pagecheckerboard="0"
     inkscape:deskcolor="#d1d1d1" />
  <metadata
     id="metadata16869">
    <rdf:RDF>
      <cc:Work
         rdf:about="">
        <dc:format>image/svg+xml</dc:format>
        <dc:type
           rdf:resource="http://purl.org/dc/dcmitype/StillImage" />
        <dc:title />
      </cc:Work>
    </rdf:RDF>
  </metadata>
  <defs
     id="defs10049" />
  <g
     transform="matrix(0.13625087,0,0,0.13665483,-585.87877,-150.32042)"
     id="diamond_7"
     inkscape:label="#diamond_7">
    <rect
       style="font-style:normal;font-variant:normal;font-weight:500;font-stretch:normal;font-size:medium;line-height:125%;font-family:Gaelic;-inkscape-font-specification:'Gaelic Medium';letter-spacing:0px;word-spacing:0px;fill:#ffffff;fill-opacity:1;stroke:#000000;stroke-width:1.99863;stroke-linecap:butt;stroke-linejoin:miter;stroke-miterlimit:4;stroke-dasharray:none;stroke-opacity:1"
       id="rect6636"
       y="1101.0001"
       x="4300.9995"
       ry="49.888187"
       rx="48.194115"
       height="898.00061"
       width="577.80151" />
    <path
       d="m 4380,1150.0002 v 1.5869 l -1.0432,1.93 q -3.3812,6.476 -5.5395,11.1937 -2.1583,4.6747 -3.7411,9.2209 -1.5467,4.5032 -3.0215,10.0786 -2.1944,8.5775 -3.7411,17.1122 -0.7554,4.6319 -1.1151,8.8777 h -11.7625 q 0.8272,-5.1893 2.1223,-8.7919 1.7985,-4.975 3.4532,-8.3203 5.5036,-11.2794 13.9209,-24.789 l 4.2805,-6.8622 h -22.2302 q -3.7051,0 -5.7195,1.1151 -1.9783,1.0722 -3.0214,3.8171 -1.0073,2.7018 -1.5829,8.1916 H 4340 l 2.446,-24.3604 z"
       style="font-style:normal;font-variant:normal;font-weight:500;font-stretch:expanded;font-size:medium;line-height:125%;font-family:'Engravers MT';-inkscape-font-specification:'Engravers MT Medium Expanded';letter-spacing:0px;word-spacing:0px;fill:#e24d46;fill-opacity:1;stroke:none;stroke-width:1px;stroke-linecap:butt;stroke-linejoin:miter;stroke-opacity:1"
       id="path6663"
       inkscape:connector-curvature="0" />
    <path
       inkscape:connector-curvature="0"
       id="path6666"
       style="font-style:normal;font-variant:normal;font-weight:500;font-stretch:expanded;font-size:medium;line-height:125%;font-family:'Engravers MT';-inkscape-font-specification:'Engravers MT Medium Expanded';letter-spacing:0px;word-spacing:0px;fill:#e24d46;fill-opacity:1;stroke:none;stroke-width:1px;stroke-linecap:butt;stroke-linejoin:miter;stroke-opacity:1"
       d="m 4840,1150.0002 v 1.5869 l -1.0432,1.93 q -3.3812,6.476 -5.5395,11.1937 -2.1583,4.6747 -3.7411,9.2209 -1.5467,4.5032 -3.0215,10.0786 -2.1944,8.5775 -3.7411,17.1122 -0.7554,4.6319 -1.1151,8.8777 h -11.7625 q 0.8272,-5.1893 2.1223,-8.7919 1.7985,-4.975 3.4532,-8.3203 5.5036,-11.2794 13.9209,-24.789 l 4.2805,-6.8622 h -22.2302 q -3.7051,0 -5.7195,1.1151 -1.9783,1.0722 -3.0214,3.8171 -1.0073,2.7018 -1.5829,8.1916 H 4800 l 2.446,-24.3604 z" />
    <path
       inkscape:connector-curvature="0"
       id="path6668"
       style="font-style:normal;font-variant:normal;font-weight:500;font-stretch:expanded;font-size:medium;line-height:125%;font-family:'Engravers MT';-inkscape-font-specification:'Engravers MT Medium Expanded';letter-spacing:0px;word-spacing:0px;fill:#e24d46;fill-opacity:1;stroke:none;stroke-width:1px;stroke-linecap:butt;stroke-linejoin:miter;stroke-opacity:1"
       d="m 4340,1950.0002 v -1.5869 l 1.0432,-1.93 q 3.3812,-6.476 5.5395,-11.1937 2.1583,-4.6747 3.7411,-9.2209 1.5467,-4.5032 3.0215,-10.0786 2.1944,-8.5775 3.7411,-17.1122 0.7554,-4.6319 1.1151,-8.8777 h 11.7625 q -0.8272,5.1893 -2.1223,8.7919 -1.7985,4.975 -3.4532,8.3203 -5.5036,11.2794 -13.9209,24.789 l -4.2805,6.8622 h 22.2302 q 3.7051,0 5.7195,-1.1151 1.9783,-1.0722 3.0214,-3.8171 1.0073,-2.7018 1.5829,-8.1916 H 4380 l -2.446,24.3604 z" />
    <path
       d="m 4800,1950.0002 v -1.5869 l 1.0432,-1.93 q 3.3812,-6.476 5.5395,-11.1937 2.1583,-4.6747 3.7411,-9.2209 1.5467,-4.5032 3.0215,-10.0786 2.1944,-8.5775 3.7411,-17.1122 0.7554,-4.6319 1.1151,-8.8777 h 11.7625 q -0.8272,5.1893 -2.1223,8.7919 -1.7985,4.975 -3.4532,8.3203 -5.5036,11.2794 -13.9209,24.789 l -4.2805,6.8622 h 22.2302 q 3.7051,0 5.7195,-1.1151 1.9783,-1.0722 3.0214,-3.8171 1.0073,-2.7018 1.5829,-8.1916 H 4840 l -2.446,24.3604 z"
       style="font-style:normal;font-variant:normal;font-weight:500;font-stretch:expanded;font-size:medium;line-height:125%;font-family:'Engravers MT';-inkscape-font-specification:'Engravers MT Medium Expanded';letter-spacing:0px;word-spacing:0px;fill:#e24d46;fill-opacity:1;stroke:none;stroke-width:1px;stroke-linecap:butt;stroke-linejoin:miter;stroke-opacity:1"
       id="path6670"
       inkscape:connector-curvature="0" />
    <path
       style="fill:#e24d46;fill-opacity:1"
       d="m 4468.1977,1314.2818 c -19.4211,-26.0526 -39.9186,-46.1682 -65.6379,-64.416 -4.4525,-3.1589 -7.8456,-5.9771 -7.5408,-6.2625 0.3058,-0.2855 5.3572,-3.9901 11.227,-8.2322 27.5833,-19.9349 37.0125,-29.202 58.0865,-57.0921 l 10.7901,-14.279 1.9747,2.0901 c 1.087,1.1496 3.8834,4.7586 6.2162,8.0199 13.6696,19.113 32.2126,38.6329 48.6676,51.23 13.169,10.082 21.824,16.9327 22.683,17.955 1.231,1.4653 -0.544,3.1425 -11.677,11.0322 -24.674,17.4858 -37.111,29.8011 -57.7799,57.2162 -5.1643,6.8512 -9.475,12.4566 -9.5773,12.4566 -0.1066,0 -3.4475,-4.3732 -7.4322,-9.7182 z"
       id="path7247"
       inkscape:connector-curvature="0" />
    <path
       inkscape:connector-curvature="0"
       id="path7249"
       d="m 4698.1977,1314.2818 c -19.4211,-26.0526 -39.9186,-46.1682 -65.6379,-64.416 -4.4525,-3.1589 -7.8456,-5.9771 -7.5408,-6.2625 0.3058,-0.2855 5.3572,-3.9901 11.227,-8.2322 27.5833,-19.9349 37.0125,-29.202 58.0865,-57.0921 l 10.7901,-14.279 1.9747,2.0901 c 1.087,1.1496 3.8834,4.7586 6.2162,8.0199 13.6696,19.113 32.2126,38.6329 48.6676,51.23 13.169,10.082 21.824,16.9327 22.683,17.955 1.231,1.4653 -0.544,3.1425 -11.677,11.0322 -24.674,17.4858 -37.111,29.8011 -57.7799,57.2162 -5.1643,6.8512 -9.475,12.4566 -9.5773,12.4566 -0.1066,0 -3.4475,-4.3732 -7.4322,-9.7182 z"
       style="fill:#e24d46;fill-opacity:1" />
    <path
       inkscape:connector-curvature="0"
       id="path7251"
       d="m 4468.1977,1620.2818 c -19.4211,-26.0526 -39.9186,-46.1682 -65.6379,-64.416 -4.4525,-3.1589 -7.8456,-5.9771 -7.5408,-6.2625 0.3058,-0.2855 5.3572,-3.9901 11.227,-8.2322 27.5833,-19.9349 37.0125,-29.202 58.0865,-57.0921 l 10.7901,-14.279 1.9747,2.0901 c 1.087,1.1496 3.8834,4.7586 6.2162,8.0199 13.6696,19.113 32.2126,38.6329 48.6676,51.23 13.169,10.082 21.824,16.9327 22.683,17.955 1.231,1.4653 -0.544,3.1425 -11.677,11.0322 -24.674,17.4858 -37.111,29.8011 -57.7799,57.2162 -5.1643,6.8512 -9.475,12.4566 -9.5773,12.4566 -0.1066,0 -3.4475,-4.3732 -7.4322,-9.7182 z"
       style="fill:#e24d46;fill-opacity:1" />
    <path
       style="fill:#e24d46;fill-opacity:1"
       d="m 4698.1977,1620.2818 c -19.4211,-26.0526 -39.9186,-46.1682 -65.6379,-64.416 -4.4525,-3.1589 -7.8456,-5.9771 -7.5408,-6.2625 0.3058,-0.2855 5.3572,-3.9901 11.227,-8.2322 27.5833,-19.9349 37.0125,-29.202 58.0865,-57.0921 l 10.7901,-14.279 1.9747,2.0901 c 1.087,1.1496 3.8834,4.7586 6.2162,8.0199 13.6696,19.113 32.2126,38.6329 48.6676,51.23 13.169,10.082 21.824,16.9327 22.683,17.955 1.231,1.4653 -0.544,3.1425 -11.677,11.0322 -24.674,17.4858 -37.111,29.8011 -57.7799,57.2162 -5.1643,6.8512 -9.475,12.4566 -9.5773,12.4566 -0.1066,0 -3.4475,-4.3732 -7.4322,-9.7182 z"
       id="path7253"
       inkscape:connector-curvature="0" />
    <path
       inkscape:connector-curvature="0"
       id="path7255"
       d="m 4468.1977,1926.2818 c -19.4211,-26.0526 -39.9186,-46.1682 -65.6379,-64.416 -4.4525,-3.1589 -7.8456,-5.9771 -7.5408,-6.2625 0.3058,-0.2855 5.3572,-3.9901 11.227,-8.2322 27.5833,-19.9349 37.0125,-29.202 58.0865,-57.0921 l 10.7901,-14.279 1.9747,2.0901 c 1.087,1.1496 3.8834,4.7586 6.2162,8.0199 13.6696,19.113 32.2126,38.6329 48.6676,51.23 13.169,10.082 21.824,16.9327 22.683,17.955 1.231,1.4653 -0.544,3.1425 -11.677,11.0322 -24.674,17.4858 -37.111,29.8011 -57.7799,57.2162 -5.1643,6.8512 -9.475,12.4566 -9.5773,12.4566 -0.1066,0 -3.4475,-4.3732 -7.4322,-9.7182 z"
       style="fill:#e24d46;fill-opacity:1" />
    <path
       style="fill:#e24d46;fill-opacity:1"
       d="m 4698.1977,1926.2818 c -19.4211,-26.0526 -39.9186,-46.1682 -65.6379,-64.416 -4.4525,-3.1589 -7.8456,-5.9771 -7.5408,-6.2625 0.3058,-0.2855 5.3572,-3.9901 11.227,-8.2322 27.5833,-19.9349 37.0125,-29.202 58.0865,-57.0921 l 10.7901,-14.279 1.9747,2.0901 c 1.087,1.1496 3.8834,4.7586 6.2162,8.0199 13.6696,19.113 32.2126,38.6329 48.6676,51.23 13.169,10.082 21.824,16.9327 22.683,17.955 1.231,1.4653 -0.544,3.1425 -11.677,11.0322 -24.674,17.4858 -37.111,29.8011 -57.7799,57.2162 -5.1643,6.8512 -9.475,12.4566 -9.5773,12.4566 -0.1066,0 -3.4475,-4.3732 -7.4322,-9.7182 z"
       id="path7257"
       inkscape:connector-curvature="0" />
    <path
       style="fill:#e24d46;fill-opacity:1"
       d="m 4583.1977,1467.2818 c -19.4211,-26.0526 -39.9186,-46.1682 -65.6379,-64.416 -4.4525,-3.1589 -7.8456,-5.9771 -7.5408,-6.2625 0.3058,-0.2855 5.3572,-3.9901 11.227,-8.2322 27.5833,-19.9349 37.0125,-29.202 58.0865,-57.0921 l 10.7901,-14.279 1.9747,2.0901 c 1.087,1.1496 3.8834,4.7586 6.2162,8.0199 13.6696,19.113 32.2126,38.6329 48.6676,51.23 13.169,10.082 21.824,16.9327 22.683,17.955 1.231,1.4653 -0.544,3.1425 -11.677,11.0322 -24.674,17.4858 -37.111,29.8011 -57.7799,57.2162 -5.1643,6.8512 -9.475,12.4566 -9.5773,12.4566 -0.1066,0 -3.4475,-4.3732 -7.4322,-9.7182 z"
       id="path7261"
       inkscape:connector-curvature="0" />
    <path
       inkscape:connector-curvature="0"
       id="path7364"
       d="m 4358.8097,1293.0845 c -5.8264,-7.8157 -11.9755,-13.8504 -19.6913,-19.3248 -1.3358,-0.9477 -2.3537,-1.7931 -2.2622,-1.8787 0.091,-0.085 1.607,-1.197 3.368,-2.4696 8.275,-5.9806 11.1037,-8.7606 17.4259,-17.1276 l 3.237,-4.2838 0.5925,0.627 c 0.326,0.3449 1.1649,1.4276 1.8648,2.406 4.1009,5.734 9.6638,11.5898 14.6004,15.369 3.9506,3.0246 6.5471,5.0798 6.8048,5.3866 0.3693,0.4395 -0.1632,0.9427 -3.5031,3.3096 -7.4021,5.2456 -11.1333,8.9403 -17.3339,17.1648 -1.5493,2.0553 -2.8426,3.737 -2.8732,3.737 -0.032,0 -1.0343,-1.312 -2.2297,-2.9155 z"
       style="fill:#e24d46;fill-opacity:1" />
    <path
       style="fill:#e24d46;fill-opacity:1"
       d="m 4816.8097,1293.0845 c -5.8264,-7.8157 -11.9755,-13.8504 -19.6913,-19.3248 -1.3358,-0.9477 -2.3537,-1.7931 -2.2622,-1.8787 0.091,-0.085 1.607,-1.197 3.368,-2.4696 8.275,-5.9806 11.1037,-8.7606 17.4259,-17.1276 l 3.237,-4.2838 0.5925,0.627 c 0.326,0.3449 1.1649,1.4276 1.8648,2.406 4.1009,5.734 9.6638,11.5898 14.6004,15.369 3.9506,3.0246 6.5471,5.0798 6.8048,5.3866 0.3693,0.4395 -0.1632,0.9427 -3.5031,3.3096 -7.4021,5.2456 -11.1333,8.9403 -17.3339,17.1648 -1.5493,2.0553 -2.8426,3.737 -2.8732,3.737 -0.032,0 -1.0343,-1.312 -2.2297,-2.9155 z"
       id="path7366"
       inkscape:connector-curvature="0" />
    <path
       style="fill:#e24d46;fill-opacity:1"
       d="m 4358.8097,1849.2845 c -5.8264,-7.8157 -11.9755,-13.8504 -19.6913,-19.3248 -1.3358,-0.9477 -2.3537,-1.7931 -2.2622,-1.8787 0.091,-0.085 1.607,-1.197 3.368,-2.4696 8.275,-5.9806 11.1037,-8.7606 17.4259,-17.1276 l 3.237,-4.2838 0.5925,0.627 c 0.326,0.3449 1.1649,1.4276 1.8648,2.406 4.1009,5.734 9.6638,11.5898 14.6004,15.369 3.9506,3.0246 6.5471,5.0798 6.8048,5.3866 0.3693,0.4395 -0.1632,0.9427 -3.5031,3.3096 -7.4021,5.2456 -11.1333,8.9403 -17.3339,17.1648 -1.5493,2.0553 -2.8426,3.737 -2.8732,3.737 -0.032,0 -1.0343,-1.312 -2.2297,-2.9155 z"
       id="path7406"
       inkscape:connector-curvature="0" />
    <path
       inkscape:connector-curvature="0"
       id="path7408"
       d="m 4816.8097,1849.2845 c -5.8264,-7.8157 -11.9755,-13.8504 -19.6913,-19.3248 -1.3358,-0.9477 -2.3537,-1.7931 -2.2622,-1.8787 0.091,-0.085 1.607,-1.197 3.368,-2.4696 8.275,-5.9806 11.1037,-8.7606 17.4259,-17.1276 l 3.237,-4.2838 0.5925,0.627 c 0.326,0.3449 1.1649,1.4276 1.8648,2.406 4.1009,5.734 9.6638,11.5898 14.6004,15.369 3.9506,3.0246 6.5471,5.0798 6.8048,5.3866 0.3693,0.4395 -0.1632,0.9427 -3.5031,3.3096 -7.4021,5.2456 -11.1333,8.9403 -17.3339,17.1648 -1.5493,2.0553 -2.8426,3.737 -2.8732,3.737 -0.032,0 -1.0343,-1.312 -2.2297,-2.9155 z"
       style="fill:#e24d46;fill-opacity:1" />
  </g>
</svg>
