<?xml version="1.0" encoding="UTF-8" standalone="no"?>
<!-- Created with Inkscape (http://www.inkscape.org/) -->

<svg
   id="svg10047"
   height="122.98924"
   width="78.998276"
   version="1.1"
   viewBox="0 0 78.998276 122.98924"
   inkscape:version="0.91 r13725"
   sodipodi:docname="franzoesisches-bild.svgz"
   xmlns:inkscape="http://www.inkscape.org/namespaces/inkscape"
   xmlns:sodipodi="http://sodipodi.sourceforge.net/DTD/sodipodi-0.dtd"
   xmlns="http://www.w3.org/2000/svg"
   xmlns:svg="http://www.w3.org/2000/svg"
   xmlns:rdf="http://www.w3.org/1999/02/22-rdf-syntax-ns#"
   xmlns:cc="http://creativecommons.org/ns#"
   xmlns:dc="http://purl.org/dc/elements/1.1/">
  <sodipodi:namedview
     pagecolor="#ffffff"
     bordercolor="#666666"
     borderopacity="1"
     objecttolerance="10"
     gridtolerance="10"
     guidetolerance="10"
     inkscape:pageopacity="0"
     inkscape:pageshadow="2"
     inkscape:window-width="1920"
     inkscape:window-height="1016"
     id="namedview1491"
     showgrid="false"
     inkscape:zoom="1.3479675"
     inkscape:cx="513.5"
     inkscape:cy="307.5"
     inkscape:window-x="0"
     inkscape:window-y="0"
     inkscape:window-maximized="1"
     inkscape:current-layer="svg10047"
     showguides="true"
     inkscape:guide-bbox="true"
     inkscape:snap-grids="true"
     inkscape:showpageshadow="2"
     inkscape:pagecheckerboard="0"
     inkscape:deskcolor="#d1d1d1" />
  <metadata
     id="metadata16869">
    <rdf:RDF>
      <cc:Work
         rdf:about="">
        <dc:format>image/svg+xml</dc:format>
        <dc:type
           rdf:resource="http://purl.org/dc/dcmitype/StillImage" />
        <dc:title />
      </cc:Work>
    </rdf:RDF>
  </metadata>
  <defs
     id="defs10049" />
  <g
     transform="matrix(0.13625087,0,0,0.13665483,-395.12752,-13.665587)"
     id="heart_5"
     inkscape:label="#heart_5">
    <rect
       style="font-style:normal;font-variant:normal;font-weight:500;font-stretch:normal;font-size:medium;line-height:125%;font-family:Gaelic;-inkscape-font-specification:'Gaelic Medium';letter-spacing:0px;word-spacing:0px;fill:#ffffff;fill-opacity:1;stroke:#000000;stroke-width:1.99863;stroke-linecap:butt;stroke-linejoin:miter;stroke-miterlimit:4;stroke-dasharray:none;stroke-opacity:1"
       id="rect7473"
       y="101.00008"
       x="2900.9993"
       ry="49.888187"
       rx="48.194115"
       height="898.00061"
       width="577.80151" />
    <path
       inkscape:connector-curvature="0"
       id="path7500"
       style="font-style:normal;font-variant:normal;font-weight:500;font-stretch:expanded;font-size:medium;line-height:125%;font-family:'Engravers MT';-inkscape-font-specification:'Engravers MT Medium Expanded';letter-spacing:0px;word-spacing:0px;fill:#e24d46;fill-opacity:1;stroke:none;stroke-width:1px;stroke-linecap:butt;stroke-linejoin:miter;stroke-opacity:1"
       d="m 2978.3849,150.20625 0.1375,0.9898 q -1.7526,3.0927 -3.4022,4.8659 -1.6494,1.7319 -4.3642,3.4227 -3.127,1.8969 -7.0103,2.8866 -3.8488,0.9896 -8.2474,0.9896 -4.3987,0 -9.4846,-0.9071 l -2.0617,16.701 q 4.8453,-3.3403 7.8694,-4.4948 3.0583,-1.1546 7.1821,-1.1546 3.7113,0 6.8385,0.7835 3.1271,0.7422 5.6358,2.2268 2.5429,1.4844 4.433,3.7525 1.9586,2.3093 3.0239,5.3196 1.0653,2.9691 1.0653,6.0619 0,6.5155 -3.9519,11.0516 -6.1856,7.2989 -18.3505,7.2989 -3.6426,0 -7.2164,-0.9072 -3.5396,-0.9072 -5.6701,-2.3093 -2.3025,-1.6082 -3.5739,-3.9175 -1.2372,-2.3094 -1.2372,-4.9485 0,-3.0514 1.6839,-5.0309 1.6838,-1.9794 4.158,-1.9794 1.6496,0 2.921,0.866 1.2716,0.8248 2.0275,2.3093 0.756,1.4845 0.756,3.2989 0,3.629 -3.1615,5.6908 -1.3402,0.9073 -1.3402,1.6907 0,1.3609 2.8523,2.5155 2.8866,1.1134 6.3918,1.1134 6.426,0 9.4156,-4.1237 3.0242,-4.165 3.0242,-13.0309 0,-5.1547 -1.3403,-8.7424 -1.3058,-3.5875 -3.9518,-5.4845 -2.646,-1.897 -6.1856,-1.897 -2.3368,0 -4.3987,0.6187 -2.0618,0.6185 -4.3299,1.9794 -2.2336,1.3607 -4.7765,3.4638 h -1.2028 l 3.677,-31.1752 q 2.4742,0.9897 4.3643,1.3607 5.2233,1.1135 11.6838,1.1135 3.1615,0 5.9106,-0.2061 2.7492,-0.2476 5.2921,-0.7425 2.543,-0.5359 4.9141,-1.3195 z" />
    <path
       d="m 3438.3849,150.20625 0.1375,0.9898 q -1.7526,3.0927 -3.4022,4.8659 -1.6494,1.7319 -4.3642,3.4227 -3.127,1.8969 -7.0103,2.8866 -3.8488,0.9896 -8.2474,0.9896 -4.3987,0 -9.4846,-0.9071 l -2.0617,16.701 q 4.8453,-3.3403 7.8694,-4.4948 3.0583,-1.1546 7.1821,-1.1546 3.7113,0 6.8385,0.7835 3.1271,0.7422 5.6358,2.2268 2.5429,1.4844 4.433,3.7525 1.9586,2.3093 3.0239,5.3196 1.0653,2.9691 1.0653,6.0619 0,6.5155 -3.9519,11.0516 -6.1856,7.2989 -18.3505,7.2989 -3.6426,0 -7.2164,-0.9072 -3.5396,-0.9072 -5.6701,-2.3093 -2.3025,-1.6082 -3.5739,-3.9175 -1.2372,-2.3094 -1.2372,-4.9485 0,-3.0514 1.6839,-5.0309 1.6838,-1.9794 4.158,-1.9794 1.6496,0 2.921,0.866 1.2716,0.8248 2.0275,2.3093 0.756,1.4845 0.756,3.2989 0,3.629 -3.1615,5.6908 -1.3402,0.9073 -1.3402,1.6907 0,1.3609 2.8523,2.5155 2.8866,1.1134 6.3918,1.1134 6.426,0 9.4156,-4.1237 3.0242,-4.165 3.0242,-13.0309 0,-5.1547 -1.3403,-8.7424 -1.3058,-3.5875 -3.9518,-5.4845 -2.646,-1.897 -6.1856,-1.897 -2.3368,0 -4.3987,0.6187 -2.0618,0.6185 -4.3299,1.9794 -2.2336,1.3607 -4.7765,3.4638 h -1.2028 l 3.677,-31.1752 q 2.4742,0.9897 4.3643,1.3607 5.2233,1.1135 11.6838,1.1135 3.1615,0 5.9106,-0.2061 2.7492,-0.2476 5.2921,-0.7425 2.543,-0.5359 4.9141,-1.3195 z"
       style="font-style:normal;font-variant:normal;font-weight:500;font-stretch:expanded;font-size:medium;line-height:125%;font-family:'Engravers MT';-inkscape-font-specification:'Engravers MT Medium Expanded';letter-spacing:0px;word-spacing:0px;fill:#e24d46;fill-opacity:1;stroke:none;stroke-width:1px;stroke-linecap:butt;stroke-linejoin:miter;stroke-opacity:1"
       id="path7502"
       inkscape:connector-curvature="0" />
    <path
       d="m 2941.6151,949.79405 -0.1375,-0.9898 q 1.7526,-3.0927 3.4022,-4.8659 1.6494,-1.7319 4.3642,-3.4227 3.127,-1.8969 7.0103,-2.8866 3.8488,-0.9896 8.2474,-0.9896 4.3987,0 9.4846,0.9071 l 2.0617,-16.701 q -4.8453,3.3403 -7.8694,4.4948 -3.0583,1.1546 -7.1821,1.1546 -3.7113,0 -6.8385,-0.7835 -3.1271,-0.7422 -5.6358,-2.2268 -2.5429,-1.4844 -4.433,-3.7525 -1.9586,-2.3093 -3.0239,-5.3196 -1.0653,-2.9691 -1.0653,-6.0619 0,-6.5155 3.9519,-11.0516 6.1856,-7.2989 18.3505,-7.2989 3.6426,0 7.2164,0.9072 3.5396,0.9072 5.6701,2.3093 2.3025,1.6082 3.5739,3.9175 1.2372,2.3094 1.2372,4.9485 0,3.0514 -1.6839,5.0309 -1.6838,1.9794 -4.158,1.9794 -1.6496,0 -2.921,-0.866 -1.2716,-0.8248 -2.0275,-2.3093 -0.756,-1.4845 -0.756,-3.2989 0,-3.629 3.1615,-5.6908 1.3402,-0.9073 1.3402,-1.6907 0,-1.3609 -2.8523,-2.5155 -2.8866,-1.1134 -6.3918,-1.1134 -6.426,0 -9.4156,4.1237 -3.0242,4.165 -3.0242,13.0309 0,5.1547 1.3403,8.7424 1.3058,3.5875 3.9518,5.4845 2.646,1.897 6.1856,1.897 2.3368,0 4.3987,-0.6187 2.0618,-0.6185 4.3299,-1.9794 2.2336,-1.3607 4.7765,-3.4638 h 1.2028 l -3.677,31.1752 q -2.4742,-0.9897 -4.3643,-1.3607 -5.2233,-1.1135 -11.6838,-1.1135 -3.1615,0 -5.9106,0.2061 -2.7492,0.2476 -5.2921,0.7425 -2.543,0.5359 -4.9141,1.3195 z"
       style="font-style:normal;font-variant:normal;font-weight:500;font-stretch:expanded;font-size:medium;line-height:125%;font-family:'Engravers MT';-inkscape-font-specification:'Engravers MT Medium Expanded';letter-spacing:0px;word-spacing:0px;fill:#e24d46;fill-opacity:1;stroke:none;stroke-width:1px;stroke-linecap:butt;stroke-linejoin:miter;stroke-opacity:1"
       id="path7504"
       inkscape:connector-curvature="0" />
    <path
       inkscape:connector-curvature="0"
       id="path7506"
       style="font-style:normal;font-variant:normal;font-weight:500;font-stretch:expanded;font-size:medium;line-height:125%;font-family:'Engravers MT';-inkscape-font-specification:'Engravers MT Medium Expanded';letter-spacing:0px;word-spacing:0px;fill:#e24d46;fill-opacity:1;stroke:none;stroke-width:1px;stroke-linecap:butt;stroke-linejoin:miter;stroke-opacity:1"
       d="m 3401.6151,949.79405 -0.1375,-0.9898 q 1.7526,-3.0927 3.4022,-4.8659 1.6494,-1.7319 4.3642,-3.4227 3.127,-1.8969 7.0103,-2.8866 3.8488,-0.9896 8.2474,-0.9896 4.3987,0 9.4846,0.9071 l 2.0617,-16.701 q -4.8453,3.3403 -7.8694,4.4948 -3.0583,1.1546 -7.1821,1.1546 -3.7113,0 -6.8385,-0.7835 -3.1271,-0.7422 -5.6358,-2.2268 -2.5429,-1.4844 -4.433,-3.7525 -1.9586,-2.3093 -3.0239,-5.3196 -1.0653,-2.9691 -1.0653,-6.0619 0,-6.5155 3.9519,-11.0516 6.1856,-7.2989 18.3505,-7.2989 3.6426,0 7.2164,0.9072 3.5396,0.9072 5.6701,2.3093 2.3025,1.6082 3.5739,3.9175 1.2372,2.3094 1.2372,4.9485 0,3.0514 -1.6839,5.0309 -1.6838,1.9794 -4.158,1.9794 -1.6496,0 -2.921,-0.866 -1.2716,-0.8248 -2.0275,-2.3093 -0.756,-1.4845 -0.756,-3.2989 0,-3.629 3.1615,-5.6908 1.3402,-0.9073 1.3402,-1.6907 0,-1.3609 -2.8523,-2.5155 -2.8866,-1.1134 -6.3918,-1.1134 -6.426,0 -9.4156,4.1237 -3.0242,4.165 -3.0242,13.0309 0,5.1547 1.3403,8.7424 1.3058,3.5875 3.9518,5.4845 2.646,1.897 6.1856,1.897 2.3368,0 4.3987,-0.6187 2.0618,-0.6185 4.3299,-1.9794 2.2336,-1.3607 4.7765,-3.4638 h 1.2028 l -3.677,31.1752 q -2.4742,-0.9897 -4.3643,-1.3607 -5.2233,-1.1135 -11.6838,-1.1135 -3.1615,0 -5.9106,0.2061 -2.7492,0.2476 -5.2921,0.7425 -2.543,0.5359 -4.9141,1.3195 z" />
    <path
       inkscape:connector-curvature="0"
       id="path7896"
       d="m 3073.7714,303.13199 c -1.1781,-4.6684 -8.8121,-13.6918 -33.0211,-39.0304 -22.472,-23.5215 -25.2654,-27.1699 -28.1642,-36.7815 -3.6501,-12.1017 -3.4833,-17.6251 0.7994,-26.4294 4.1067,-8.4426 11.6557,-14.9726 20.4381,-17.6787 5.7803,-1.7809 10.2872,-1.6213 16.6549,0.5897 7.589,2.6353 11.7499,5.3135 18.8813,12.1541 3.5436,3.3995 6.5008,5.7662 6.7884,5.4325 11.7857,-13.6929 18.5575,-17.8974 30.0245,-18.6416 17.535,-1.1379 31.499,9.6386 33.525,25.8716 1.125,9.0334 -0.961,20.2696 -5.075,27.3297 -2.941,5.0463 -12.427,16.0199 -27.9,32.2752 -18.9608,19.9212 -26.868,28.8751 -29.8027,33.7461 l -2.4259,4.0274 z"
       style="fill:#e24d46;fill-opacity:1" />
    <path
       style="fill:#e24d46;fill-opacity:1"
       d="m 3303.7714,303.13199 c -1.1781,-4.6684 -8.8121,-13.6918 -33.0211,-39.0304 -22.472,-23.5215 -25.2654,-27.1699 -28.1642,-36.7815 -3.6501,-12.1017 -3.4833,-17.6251 0.7994,-26.4294 4.1067,-8.4426 11.6557,-14.9726 20.4381,-17.6787 5.7803,-1.7809 10.2872,-1.6213 16.6549,0.5897 7.589,2.6353 11.7499,5.3135 18.8813,12.1541 3.5436,3.3995 6.5008,5.7662 6.7884,5.4325 11.7857,-13.6929 18.5575,-17.8974 30.0245,-18.6416 17.535,-1.1379 31.499,9.6386 33.525,25.8716 1.125,9.0334 -0.961,20.2696 -5.075,27.3297 -2.941,5.0463 -12.427,16.0199 -27.9,32.2752 -18.9608,19.9212 -26.868,28.8751 -29.8027,33.7461 l -2.4259,4.0274 z"
       id="path7898"
       inkscape:connector-curvature="0" />
    <path
       style="fill:#e24d46;fill-opacity:1"
       d="m 3189.1294,609.1353 c -1.1781,-4.6684 -8.8121,-13.6918 -33.0211,-39.0304 -22.472,-23.5215 -25.2654,-27.1699 -28.1642,-36.7815 -3.6501,-12.1017 -3.4833,-17.6251 0.7994,-26.4294 4.1067,-8.4426 11.6557,-14.9726 20.4381,-17.6787 5.7803,-1.7809 10.2872,-1.6213 16.6549,0.5897 7.589,2.6353 11.7499,5.3135 18.8813,12.1541 3.5436,3.3995 6.5008,5.7662 6.7884,5.4325 11.7857,-13.6929 18.5575,-17.8974 30.0245,-18.6416 17.535,-1.1379 31.499,9.6386 33.525,25.8716 1.125,9.0334 -0.961,20.2696 -5.075,27.3297 -2.941,5.0463 -12.427,16.0199 -27.9,32.2752 -18.9608,19.9212 -26.868,28.8751 -29.8027,33.7461 L 3189.8521,612 Z"
       id="path7904"
       inkscape:connector-curvature="0" />
    <path
       style="fill:#e24d46;fill-opacity:1"
       d="m 3073.7714,796.86138 c -1.1781,4.6684 -8.8121,13.6918 -33.0211,39.0304 -22.472,23.5215 -25.2654,27.1699 -28.1642,36.7815 -3.6501,12.1017 -3.4833,17.6251 0.7994,26.4294 4.1067,8.4426 11.6557,14.9726 20.4381,17.6787 5.7803,1.7809 10.2872,1.6213 16.6549,-0.5897 7.589,-2.6353 11.7499,-5.3135 18.8813,-12.1541 3.5436,-3.3995 6.5008,-5.7662 6.7884,-5.4325 11.7857,13.6929 18.5575,17.8974 30.0245,18.6416 17.535,1.1379 31.499,-9.6386 33.525,-25.8716 1.125,-9.0334 -0.961,-20.2696 -5.075,-27.3297 -2.941,-5.0463 -12.427,-16.0199 -27.9,-32.2752 -18.9608,-19.9212 -26.868,-28.8751 -29.8027,-33.7461 l -2.4259,-4.0274 z"
       id="path7906"
       inkscape:connector-curvature="0" />
    <path
       inkscape:connector-curvature="0"
       id="path7908"
       d="m 3303.7714,796.86138 c -1.1781,4.6684 -8.8121,13.6918 -33.0211,39.0304 -22.472,23.5215 -25.2654,27.1699 -28.1642,36.7815 -3.6501,12.1017 -3.4833,17.6251 0.7994,26.4294 4.1067,8.4426 11.6557,14.9726 20.4381,17.6787 5.7803,1.7809 10.2872,1.6213 16.6549,-0.5897 7.589,-2.6353 11.7499,-5.3135 18.8813,-12.1541 3.5436,-3.3995 6.5008,-5.7662 6.7884,-5.4325 11.7857,13.6929 18.5575,17.8974 30.0245,18.6416 17.535,1.1379 31.499,-9.6386 33.525,-25.8716 1.125,-9.0334 -0.961,-20.2696 -5.075,-27.3297 -2.941,-5.0463 -12.427,-16.0199 -27.9,-32.2752 -18.9608,-19.9212 -26.868,-28.8751 -29.8027,-33.7461 l -2.4259,-4.0274 z"
       style="fill:#e24d46;fill-opacity:1" />
    <path
       inkscape:connector-curvature="0"
       id="path8004"
       d="m 2960.622,290.28329 c -0.3625,-1.43063 -2.7115,-4.19587 -10.1604,-11.96092 -6.9145,-7.2082 -7.774,-8.32625 -8.6659,-11.27175 -1.1231,-3.70858 -1.0718,-5.40123 0.2459,-8.09933 1.2636,-2.58725 3.5864,-4.58837 6.2887,-5.41767 1.7785,-0.54576 3.1653,-0.49684 5.1245,0.18072 2.3352,0.80759 3.6155,1.62833 5.8098,3.72465 1.0902,1.04177 2.0002,1.76706 2.0887,1.66479 3.6264,-4.19621 5.71,-5.48469 9.2383,-5.71275 5.3953,-0.34871 9.692,2.95377 10.3153,7.92839 0.3462,2.7683 -0.2956,6.21166 -1.5615,8.37523 -0.9049,1.54645 -3.8237,4.90932 -8.5846,9.89079 -5.8341,6.10488 -8.267,8.84882 -9.1701,10.34155 l -0.7463,1.2342 z"
       style="fill:#e24d46;fill-opacity:1" />
    <path
       inkscape:connector-curvature="0"
       id="path8006"
       d="m 3418.619,290.28329 c -0.3625,-1.43063 -2.7115,-4.19587 -10.1604,-11.96092 -6.9145,-7.2082 -7.774,-8.32625 -8.6659,-11.27175 -1.1231,-3.70858 -1.0718,-5.40123 0.2459,-8.09933 1.2636,-2.58725 3.5864,-4.58837 6.2887,-5.41767 1.7785,-0.54576 3.1653,-0.49684 5.1245,0.18072 2.3352,0.80759 3.6155,1.62833 5.8098,3.72465 1.0902,1.04177 2.0002,1.76706 2.0887,1.66479 3.6264,-4.19621 5.71,-5.48469 9.2383,-5.71275 5.3953,-0.34871 9.692,2.95377 10.3153,7.92839 0.3462,2.7683 -0.2956,6.21166 -1.5615,8.37523 -0.9049,1.54645 -3.8237,4.90932 -8.5846,9.89079 -5.8341,6.10488 -8.267,8.84882 -9.1701,10.34155 l -0.7463,1.2342 z"
       style="fill:#e24d46;fill-opacity:1" />
    <path
       style="fill:#e24d46;fill-opacity:1"
       d="m 2960.622,809.8779 c -0.3625,1.43063 -2.7115,4.19587 -10.1604,11.96092 -6.9145,7.2082 -7.774,8.32625 -8.6659,11.27175 -1.1231,3.70858 -1.0718,5.40123 0.2459,8.09933 1.2636,2.58725 3.5864,4.58837 6.2887,5.41767 1.7785,0.54576 3.1653,0.49684 5.1245,-0.18072 2.3352,-0.80759 3.6155,-1.62833 5.8098,-3.72465 1.0902,-1.04177 2.0002,-1.76706 2.0887,-1.66479 3.6264,4.19621 5.71,5.48469 9.2383,5.71275 5.3953,0.34871 9.692,-2.95377 10.3153,-7.92839 0.3462,-2.7683 -0.2956,-6.21166 -1.5615,-8.37523 -0.9049,-1.54645 -3.8237,-4.90932 -8.5846,-9.89079 -5.8341,-6.10488 -8.267,-8.84882 -9.1701,-10.34155 L 2960.8444,809 Z"
       id="path8058"
       inkscape:connector-curvature="0" />
    <path
       style="fill:#e24d46;fill-opacity:1"
       d="m 3418.619,809.8779 c -0.3625,1.43063 -2.7115,4.19587 -10.1604,11.96092 -6.9145,7.2082 -7.774,8.32625 -8.6659,11.27175 -1.1231,3.70858 -1.0718,5.40123 0.2459,8.09933 1.2636,2.58725 3.5864,4.58837 6.2887,5.41767 1.7785,0.54576 3.1653,0.49684 5.1245,-0.18072 2.3352,-0.80759 3.6155,-1.62833 5.8098,-3.72465 1.0902,-1.04177 2.0002,-1.76706 2.0887,-1.66479 3.6264,4.19621 5.71,5.48469 9.2383,5.71275 5.3953,0.34871 9.692,-2.95377 10.3153,-7.92839 0.3462,-2.7683 -0.2956,-6.21166 -1.5615,-8.37523 -0.9049,-1.54645 -3.8237,-4.90932 -8.5846,-9.89079 -5.8341,-6.10488 -8.267,-8.84882 -9.1701,-10.34155 L 3418.8414,809 Z"
       id="path8060"
       inkscape:connector-curvature="0" />
  </g>
</svg>
