<?xml version="1.0" encoding="UTF-8" standalone="no"?>
<!-- Created with Inkscape (http://www.inkscape.org/) -->

<svg
   id="svg10047"
   height="122.98924"
   width="78.998276"
   version="1.1"
   viewBox="0 0 78.998276 122.98924"
   inkscape:version="0.91 r13725"
   sodipodi:docname="franzoesisches-bild.svgz"
   xmlns:inkscape="http://www.inkscape.org/namespaces/inkscape"
   xmlns:sodipodi="http://sodipodi.sourceforge.net/DTD/sodipodi-0.dtd"
   xmlns="http://www.w3.org/2000/svg"
   xmlns:svg="http://www.w3.org/2000/svg"
   xmlns:rdf="http://www.w3.org/1999/02/22-rdf-syntax-ns#"
   xmlns:cc="http://creativecommons.org/ns#"
   xmlns:dc="http://purl.org/dc/elements/1.1/">
  <sodipodi:namedview
     pagecolor="#ffffff"
     bordercolor="#666666"
     borderopacity="1"
     objecttolerance="10"
     gridtolerance="10"
     guidetolerance="10"
     inkscape:pageopacity="0"
     inkscape:pageshadow="2"
     inkscape:window-width="1920"
     inkscape:window-height="1016"
     id="namedview1491"
     showgrid="false"
     inkscape:zoom="1.3479675"
     inkscape:cx="513.5"
     inkscape:cy="307.5"
     inkscape:window-x="0"
     inkscape:window-y="0"
     inkscape:window-maximized="1"
     inkscape:current-layer="svg10047"
     showguides="true"
     inkscape:guide-bbox="true"
     inkscape:snap-grids="true"
     inkscape:showpageshadow="2"
     inkscape:pagecheckerboard="0"
     inkscape:deskcolor="#d1d1d1" />
  <metadata
     id="metadata16869">
    <rdf:RDF>
      <cc:Work
         rdf:about="">
        <dc:format>image/svg+xml</dc:format>
        <dc:type
           rdf:resource="http://purl.org/dc/dcmitype/StillImage" />
        <dc:title />
      </cc:Work>
    </rdf:RDF>
  </metadata>
  <defs
     id="defs10049" />
  <g
     transform="matrix(0.13625087,0,0,0.13665483,-13.625087,-13.665587)"
     id="heart_1"
     inkscape:label="#heart_1">
    <rect
       width="577.80151"
       height="898.00061"
       rx="48.194115"
       ry="49.888187"
       x="100.99931"
       y="101.00008"
       id="rect7481"
       style="font-style:normal;font-variant:normal;font-weight:500;font-stretch:normal;font-size:medium;line-height:125%;font-family:Gaelic;-inkscape-font-specification:'Gaelic Medium';letter-spacing:0px;word-spacing:0px;fill:#ffffff;fill-opacity:1;stroke:#000000;stroke-width:1.99863;stroke-linecap:butt;stroke-linejoin:miter;stroke-miterlimit:4;stroke-dasharray:none;stroke-opacity:1" />
    <path
       inkscape:connector-curvature="0"
       id="path7532"
       style="font-style:normal;font-variant:normal;font-weight:500;font-stretch:expanded;font-size:medium;line-height:125%;font-family:'Engravers MT';-inkscape-font-specification:'Engravers MT Medium Expanded';letter-spacing:0px;word-spacing:0px;fill:#e24d46;fill-opacity:1;stroke:none;stroke-width:1px;stroke-linecap:butt;stroke-linejoin:miter;stroke-opacity:1"
       d="m 155.55812,163.76865 -9.6592,26.2316 h 19.56517 z m 3.73685,-13.7685 h 1.30428 l 19.81203,51.4526 q 0.95183,2.4001 2.11513,3.9581 1.19859,1.5577 2.67922,2.2736 1.48065,0.6737 3.4901,0.6737 H 190 v 1.642 h -28.5899 v -1.642 h 3.73674 q 2.78492,0 4.0541,-0.8843 1.30437,-0.9262 1.30437,-2.821 0,-1.179 -0.52881,-2.8632 -0.49351,-1.6842 -2.22091,-6.1052 -0.10578,-0.2527 -0.31735,-0.8421 -0.21146,-0.5895 -0.45831,-1.1369 l -0.81076,-2.1474 h -20.86955 l -1.58642,4.3789 q -0.77546,2.2316 -0.77546,4.5053 0,1.9369 0.88124,3.8317 0.91665,1.8946 2.36189,2.8631 0.95182,0.6737 1.6921,0.9263 0.77567,0.2105 2.18572,0.2948 v 1.642 H 130 v -1.642 q 2.18562,-0.2948 3.45469,-0.9264 1.30438,-0.6316 2.8907,-2.1052 3.73685,-3.4526 7.29732,-13.0105 z" />
    <path
       d="m 615.55812,163.76865 -9.6592,26.2316 h 19.56517 z m 3.73685,-13.7685 h 1.30428 l 19.81203,51.4526 q 0.95183,2.4001 2.11513,3.9581 1.19859,1.5577 2.67922,2.2736 1.48065,0.6737 3.4901,0.6737 H 650 v 1.642 h -28.5899 v -1.642 h 3.73674 q 2.78492,0 4.0541,-0.8843 1.30437,-0.9262 1.30437,-2.821 0,-1.179 -0.52881,-2.8632 -0.49351,-1.6842 -2.22091,-6.1052 -0.10578,-0.2527 -0.31735,-0.8421 -0.21146,-0.5895 -0.45831,-1.1369 l -0.81076,-2.1474 h -20.86955 l -1.58642,4.3789 q -0.77546,2.2316 -0.77546,4.5053 0,1.9369 0.88124,3.8317 0.91665,1.8946 2.36189,2.8631 0.95182,0.6737 1.6921,0.9263 0.77567,0.2105 2.18572,0.2948 v 1.642 H 590 v -1.642 q 2.18562,-0.2948 3.45469,-0.9264 1.30438,-0.6316 2.8907,-2.1052 3.73685,-3.4526 7.29732,-13.0105 z"
       style="font-style:normal;font-variant:normal;font-weight:500;font-stretch:expanded;font-size:medium;line-height:125%;font-family:'Engravers MT';-inkscape-font-specification:'Engravers MT Medium Expanded';letter-spacing:0px;word-spacing:0px;fill:#e24d46;fill-opacity:1;stroke:none;stroke-width:1px;stroke-linecap:butt;stroke-linejoin:miter;stroke-opacity:1"
       id="path7534"
       inkscape:connector-curvature="0" />
    <path
       d="m 164.4419,936.23165 9.6592,-26.2316 h -19.5652 z m -3.7369,13.7685 h -1.3043 l -19.812,-51.4526 q -0.9518,-2.4001 -2.1151,-3.9581 -1.1986,-1.5577 -2.6792,-2.2736 -1.4807,-0.6737 -3.4901,-0.6737 H 130 v -1.642 h 28.5899 v 1.642 h -3.7367 q -2.785,0 -4.0541,0.8843 -1.3044,0.9262 -1.3044,2.821 0,1.179 0.5288,2.8632 0.4935,1.6842 2.2209,6.1052 0.1058,0.2527 0.3174,0.8421 0.2114,0.5895 0.4583,1.1369 l 0.8107,2.1474 h 20.8696 l 1.5864,-4.3789 q 0.7755,-2.2316 0.7755,-4.5053 0,-1.9369 -0.8813,-3.8317 -0.9166,-1.8946 -2.3619,-2.8631 -0.9518,-0.6737 -1.6921,-0.9263 -0.7756,-0.2105 -2.1857,-0.2948 v -1.642 H 190 v 1.642 q -2.1856,0.2948 -3.4547,0.9264 -1.3044,0.6316 -2.8907,2.1052 -3.7368,3.4526 -7.2973,13.0105 z"
       style="font-style:normal;font-variant:normal;font-weight:500;font-stretch:expanded;font-size:medium;line-height:125%;font-family:'Engravers MT';-inkscape-font-specification:'Engravers MT Medium Expanded';letter-spacing:0px;word-spacing:0px;fill:#e24d46;fill-opacity:1;stroke:none;stroke-width:1px;stroke-linecap:butt;stroke-linejoin:miter;stroke-opacity:1"
       id="path7536"
       inkscape:connector-curvature="0" />
    <path
       inkscape:connector-curvature="0"
       id="path7538"
       style="font-style:normal;font-variant:normal;font-weight:500;font-stretch:expanded;font-size:medium;line-height:125%;font-family:'Engravers MT';-inkscape-font-specification:'Engravers MT Medium Expanded';letter-spacing:0px;word-spacing:0px;fill:#e24d46;fill-opacity:1;stroke:none;stroke-width:1px;stroke-linecap:butt;stroke-linejoin:miter;stroke-opacity:1"
       d="m 624.4419,936.23165 9.6592,-26.2316 h -19.5652 z m -3.7369,13.7685 h -1.3043 l -19.812,-51.4526 q -0.9518,-2.4001 -2.1151,-3.9581 -1.1986,-1.5577 -2.6792,-2.2736 -1.4807,-0.6737 -3.4901,-0.6737 H 590 v -1.642 h 28.5899 v 1.642 h -3.7367 q -2.785,0 -4.0541,0.8843 -1.3044,0.9262 -1.3044,2.821 0,1.179 0.5288,2.8632 0.4935,1.6842 2.2209,6.1052 0.1058,0.2527 0.3174,0.8421 0.2114,0.5895 0.4583,1.1369 l 0.8107,2.1474 h 20.8696 l 1.5864,-4.3789 q 0.7755,-2.2316 0.7755,-4.5053 0,-1.9369 -0.8813,-3.8317 -0.9166,-1.8946 -2.3619,-2.8631 -0.9518,-0.6737 -1.6921,-0.9263 -0.7756,-0.2105 -2.1857,-0.2948 v -1.642 H 650 v 1.642 q -2.1856,0.2948 -3.4547,0.9264 -1.3044,0.6316 -2.8907,2.1052 -3.7368,3.4526 -7.2973,13.0105 z" />
    <path
       inkscape:connector-curvature="0"
       id="path7980"
       d="m 389.12944,609.1353 c -1.1781,-4.6684 -8.8121,-13.6918 -33.0211,-39.0304 -22.472,-23.5215 -25.2654,-27.1699 -28.1642,-36.7815 -3.6501,-12.1017 -3.4833,-17.6251 0.7994,-26.4294 4.1067,-8.4426 11.6557,-14.9726 20.4381,-17.6787 5.7803,-1.7809 10.2872,-1.6213 16.6549,0.5897 7.589,2.6353 11.7499,5.3135 18.8813,12.1541 3.5436,3.3995 6.5008,5.7662 6.7884,5.4325 11.7857,-13.6929 18.5575,-17.8974 30.0245,-18.6416 17.535,-1.1379 31.499,9.6386 33.525,25.8716 1.125,9.0334 -0.961,20.2696 -5.075,27.3297 -2.941,5.0463 -12.427,16.0199 -27.9,32.2752 -18.9608,19.9212 -26.868,28.8751 -29.8027,33.7461 L 389.85214,612 Z"
       style="fill:#e24d46;fill-opacity:1" />
    <path
       inkscape:connector-curvature="0"
       id="path8020"
       d="m 160.62205,290.28329 c -0.3625,-1.43063 -2.7115,-4.19587 -10.1604,-11.96092 -6.9145,-7.2082 -7.774,-8.32625 -8.6659,-11.27175 -1.1231,-3.70858 -1.0718,-5.40123 0.2459,-8.09933 1.2636,-2.58725 3.5864,-4.58837 6.2887,-5.41767 1.7785,-0.54576 3.1653,-0.49684 5.1245,0.18072 2.3352,0.80759 3.6155,1.62833 5.8098,3.72465 1.0902,1.04177 2.0002,1.76706 2.0887,1.66479 3.6264,-4.19621 5.71,-5.48469 9.2383,-5.71275 5.3953,-0.34871 9.692,2.95377 10.3153,7.92839 0.3462,2.7683 -0.2956,6.21166 -1.5615,8.37523 -0.9049,1.54645 -3.8237,4.90932 -8.5846,9.89079 -5.8341,6.10488 -8.267,8.84882 -9.1701,10.34155 l -0.7463,1.2342 z"
       style="fill:#e24d46;fill-opacity:1" />
    <path
       inkscape:connector-curvature="0"
       id="path8022"
       d="m 618.619,290.28329 c -0.3625,-1.43063 -2.7115,-4.19587 -10.1604,-11.96092 -6.9145,-7.2082 -7.774,-8.32625 -8.6659,-11.27175 -1.1231,-3.70858 -1.0718,-5.40123 0.2459,-8.09933 1.2636,-2.58725 3.5864,-4.58837 6.2887,-5.41767 1.7785,-0.54576 3.1653,-0.49684 5.1245,0.18072 2.3352,0.80759 3.6155,1.62833 5.8098,3.72465 1.0902,1.04177 2.0002,1.76706 2.0887,1.66479 3.6264,-4.19621 5.71,-5.48469 9.2383,-5.71275 5.3953,-0.34871 9.692,2.95377 10.3153,7.92839 0.3462,2.7683 -0.2956,6.21166 -1.5615,8.37523 -0.9049,1.54645 -3.8237,4.90932 -8.5846,9.89079 -5.8341,6.10488 -8.267,8.84882 -9.1701,10.34155 l -0.7463,1.2342 z"
       style="fill:#e24d46;fill-opacity:1" />
    <path
       style="fill:#e24d46;fill-opacity:1"
       d="m 160.62205,809.8779 c -0.3625,1.43063 -2.7115,4.19587 -10.1604,11.96092 -6.9145,7.2082 -7.774,8.32625 -8.6659,11.27175 -1.1231,3.70858 -1.0718,5.40123 0.2459,8.09933 1.2636,2.58725 3.5864,4.58837 6.2887,5.41767 1.7785,0.54576 3.1653,0.49684 5.1245,-0.18072 2.3352,-0.80759 3.6155,-1.62833 5.8098,-3.72465 1.0902,-1.04177 2.0002,-1.76706 2.0887,-1.66479 3.6264,4.19621 5.71,5.48469 9.2383,5.71275 5.3953,0.34871 9.692,-2.95377 10.3153,-7.92839 0.3462,-2.7683 -0.2956,-6.21166 -1.5615,-8.37523 -0.9049,-1.54645 -3.8237,-4.90932 -8.5846,-9.89079 -5.8341,-6.10488 -8.267,-8.84882 -9.1701,-10.34155 L 160.84445,809 Z"
       id="path8074"
       inkscape:connector-curvature="0" />
    <path
       style="fill:#e24d46;fill-opacity:1"
       d="m 618.619,809.8779 c -0.3625,1.43063 -2.7115,4.19587 -10.1604,11.96092 -6.9145,7.2082 -7.774,8.32625 -8.6659,11.27175 -1.1231,3.70858 -1.0718,5.40123 0.2459,8.09933 1.2636,2.58725 3.5864,4.58837 6.2887,5.41767 1.7785,0.54576 3.1653,0.49684 5.1245,-0.18072 2.3352,-0.80759 3.6155,-1.62833 5.8098,-3.72465 1.0902,-1.04177 2.0002,-1.76706 2.0887,-1.66479 3.6264,4.19621 5.71,5.48469 9.2383,5.71275 5.3953,0.34871 9.692,-2.95377 10.3153,-7.92839 0.3462,-2.7683 -0.2956,-6.21166 -1.5615,-8.37523 -0.9049,-1.54645 -3.8237,-4.90932 -8.5846,-9.89079 -5.8341,-6.10488 -8.267,-8.84882 -9.1701,-10.34155 L 618.8414,809 Z"
       id="path8076"
       inkscape:connector-curvature="0" />
  </g>
</svg>
