<?xml version="1.0" encoding="UTF-8" standalone="no"?>
<!-- Created with Inkscape (http://www.inkscape.org/) -->

<svg
   id="svg10047"
   height="122.98924"
   width="78.998276"
   version="1.1"
   viewBox="0 0 78.998276 122.98924"
   inkscape:version="0.91 r13725"
   sodipodi:docname="franzoesisches-bild.svgz"
   xmlns:inkscape="http://www.inkscape.org/namespaces/inkscape"
   xmlns:sodipodi="http://sodipodi.sourceforge.net/DTD/sodipodi-0.dtd"
   xmlns="http://www.w3.org/2000/svg"
   xmlns:svg="http://www.w3.org/2000/svg"
   xmlns:rdf="http://www.w3.org/1999/02/22-rdf-syntax-ns#"
   xmlns:cc="http://creativecommons.org/ns#"
   xmlns:dc="http://purl.org/dc/elements/1.1/">
  <sodipodi:namedview
     pagecolor="#ffffff"
     bordercolor="#666666"
     borderopacity="1"
     objecttolerance="10"
     gridtolerance="10"
     guidetolerance="10"
     inkscape:pageopacity="0"
     inkscape:pageshadow="2"
     inkscape:window-width="1920"
     inkscape:window-height="1016"
     id="namedview1491"
     showgrid="false"
     inkscape:zoom="1.3479675"
     inkscape:cx="513.5"
     inkscape:cy="307.5"
     inkscape:window-x="0"
     inkscape:window-y="0"
     inkscape:window-maximized="1"
     inkscape:current-layer="svg10047"
     showguides="true"
     inkscape:guide-bbox="true"
     inkscape:snap-grids="true"
     inkscape:showpageshadow="2"
     inkscape:pagecheckerboard="0"
     inkscape:deskcolor="#d1d1d1" />
  <metadata
     id="metadata16869">
    <rdf:RDF>
      <cc:Work
         rdf:about="">
        <dc:format>image/svg+xml</dc:format>
        <dc:type
           rdf:resource="http://purl.org/dc/dcmitype/StillImage" />
        <dc:title />
      </cc:Work>
    </rdf:RDF>
  </metadata>
  <defs
     id="defs10049" />
  <g
     transform="matrix(0.13625087,0,0,0.13665483,-490.50313,-13.665587)"
     id="heart_6"
     inkscape:label="#heart_6">
    <g
       id="g8328">
      <rect
         width="577.80151"
         height="898.00061"
         rx="48.194115"
         ry="49.888187"
         x="3600.9993"
         y="101.00008"
         id="rect7462"
         style="font-style:normal;font-variant:normal;font-weight:500;font-stretch:normal;font-size:medium;line-height:125%;font-family:Gaelic;-inkscape-font-specification:'Gaelic Medium';letter-spacing:0px;word-spacing:0px;fill:#ffffff;fill-opacity:1;stroke:#000000;stroke-width:1.99863;stroke-linecap:butt;stroke-linejoin:miter;stroke-miterlimit:4;stroke-dasharray:none;stroke-opacity:1" />
      <path
         inkscape:connector-curvature="0"
         id="path7464"
         style="font-style:normal;font-variant:normal;font-weight:500;font-stretch:expanded;font-size:medium;line-height:125%;font-family:'Engravers MT';-inkscape-font-specification:'Engravers MT Medium Expanded';letter-spacing:0px;word-spacing:0px;fill:#e24d46;fill-opacity:1;stroke:none;stroke-width:1px;stroke-linecap:butt;stroke-linejoin:miter;stroke-opacity:1"
         d="m 3660.3581,208.59325 q 4.7481,0 6.7976,-4.0965 0.7856,-1.738 1.0931,-3.5587 0.2049,-0.9931 0.3416,-2.6483 0.1025,-1.6138 0.1707,-4.2207 0.068,-2.6069 0.068,-4.5517 0,-4.1379 -0.4098,-6.6621 -0.4441,-2.5241 -1.4006,-4.262 -1.7762,-3.3104 -5.8069,-3.3104 -4.0649,0 -6.5927,3.1448 -1.7421,2.0276 -2.4936,5.2138 -0.7857,3.2276 -0.7857,8.1518 0,5.7931 0.9907,9.4759 0.9564,3.724 2.9718,5.5034 1.9812,1.8207 5.0555,1.8207 z m -8.9497,-36.869 v 9.3104 h 0.1367 q 2.1179,-4.0139 4.9872,-5.8759 2.8693,-1.8207 6.9683,-1.8207 3.3477,0 6.3878,1.3655 3.0401,1.3655 5.3288,3.8069 2.2545,2.4414 3.5183,5.6276 1.2639,3.1862 1.2639,6.8275 0,5.3794 -2.4253,9.7242 -2.4253,4.3448 -6.7634,6.8276 -4.3382,2.4828 -9.5987,2.4828 -6.1144,0 -10.965,-3.7656 -4.8847,-3.7654 -7.549,-10.5103 -2.6986,-6.7448 -2.6986,-15.3517 0,-13.6552 6.8659,-22.2207 3.2452,-3.931 7.4808,-6.0414 4.2016,-2.1103 8.7447,-2.1103 7.0367,0 11.1016,4.8413 2.9377,3.4759 2.9377,7.6138 0,3.0621 -1.5372,5.0483 -1.5713,1.9862 -3.8941,1.9862 -2.4253,0 -3.9965,-1.7793 -1.6056,-1.7793 -1.6056,-4.6345 0,-1.9448 0.7857,-3.3104 0.7515,-1.324 2.4936,-2.3585 1.6738,-1.0345 1.6738,-2.069 0,-1.4897 -2.3229,-2.6483 -2.3569,-1.1586 -5.3628,-1.1586 -5.8754,0 -8.9155,5.131 -3.0402,5.1311 -3.0402,15.0621 z" />
      <path
         d="m 4120.3581,208.59325 q 4.7481,0 6.7976,-4.0965 0.7856,-1.738 1.0931,-3.5587 0.2049,-0.9931 0.3416,-2.6483 0.1025,-1.6138 0.1707,-4.2207 0.068,-2.6069 0.068,-4.5517 0,-4.1379 -0.4098,-6.6621 -0.4441,-2.5241 -1.4006,-4.262 -1.7762,-3.3104 -5.8069,-3.3104 -4.0649,0 -6.5927,3.1448 -1.7421,2.0276 -2.4936,5.2138 -0.7857,3.2276 -0.7857,8.1518 0,5.7931 0.9907,9.4759 0.9564,3.724 2.9718,5.5034 1.9812,1.8207 5.0555,1.8207 z m -8.9497,-36.869 v 9.3104 h 0.1367 q 2.1179,-4.0139 4.9872,-5.8759 2.8693,-1.8207 6.9683,-1.8207 3.3477,0 6.3878,1.3655 3.0401,1.3655 5.3288,3.8069 2.2545,2.4414 3.5183,5.6276 1.2639,3.1862 1.2639,6.8275 0,5.3794 -2.4253,9.7242 -2.4253,4.3448 -6.7634,6.8276 -4.3382,2.4828 -9.5987,2.4828 -6.1144,0 -10.965,-3.7656 -4.8847,-3.7654 -7.549,-10.5103 -2.6986,-6.7448 -2.6986,-15.3517 0,-13.6552 6.8659,-22.2207 3.2452,-3.931 7.4808,-6.0414 4.2016,-2.1103 8.7447,-2.1103 7.0367,0 11.1016,4.8413 2.9377,3.4759 2.9377,7.6138 0,3.0621 -1.5372,5.0483 -1.5713,1.9862 -3.8941,1.9862 -2.4253,0 -3.9965,-1.7793 -1.6056,-1.7793 -1.6056,-4.6345 0,-1.9448 0.7857,-3.3104 0.7515,-1.324 2.4936,-2.3585 1.6738,-1.0345 1.6738,-2.069 0,-1.4897 -2.3229,-2.6483 -2.3569,-1.1586 -5.3628,-1.1586 -5.8754,0 -8.9155,5.131 -3.0402,5.1311 -3.0402,15.0621 z"
         style="font-style:normal;font-variant:normal;font-weight:500;font-stretch:expanded;font-size:medium;line-height:125%;font-family:'Engravers MT';-inkscape-font-specification:'Engravers MT Medium Expanded';letter-spacing:0px;word-spacing:0px;fill:#e24d46;fill-opacity:1;stroke:none;stroke-width:1px;stroke-linecap:butt;stroke-linejoin:miter;stroke-opacity:1"
         id="path7466"
         inkscape:connector-curvature="0" />
      <path
         d="m 4119.6407,891.40705 q -4.7481,0 -6.7976,4.0965 -0.7856,1.738 -1.0931,3.5587 -0.2049,0.9931 -0.3416,2.6483 -0.1025,1.6138 -0.1707,4.2207 -0.068,2.6069 -0.068,4.5517 0,4.1379 0.4098,6.6621 0.4441,2.5241 1.4006,4.262 1.7762,3.3104 5.8069,3.3104 4.0649,0 6.5927,-3.1448 1.7421,-2.0276 2.4936,-5.2138 0.7857,-3.2276 0.7857,-8.1518 0,-5.7931 -0.9907,-9.4759 -0.9564,-3.724 -2.9718,-5.5034 -1.9812,-1.8207 -5.0555,-1.8207 z m 8.9497,36.869 v -9.3104 h -0.1367 q -2.1179,4.0139 -4.9872,5.8759 -2.8693,1.8207 -6.9683,1.8207 -3.3477,0 -6.3878,-1.3655 -3.0401,-1.3655 -5.3288,-3.8069 -2.2545,-2.4414 -3.5183,-5.6276 -1.2639,-3.1862 -1.2639,-6.8275 0,-5.3794 2.4253,-9.7242 2.4253,-4.3448 6.7634,-6.8276 4.3382,-2.4828 9.5987,-2.4828 6.1144,0 10.965,3.7656 4.8847,3.7654 7.549,10.5103 2.6986,6.7448 2.6986,15.3517 0,13.6552 -6.8659,22.2207 -3.2452,3.931 -7.4808,6.0414 -4.2016,2.1103 -8.7447,2.1103 -7.0367,0 -11.1016,-4.8413 -2.9377,-3.4759 -2.9377,-7.6138 0,-3.0621 1.5372,-5.0483 1.5713,-1.9862 3.8941,-1.9862 2.4253,0 3.9965,1.7793 1.6056,1.7793 1.6056,4.6345 0,1.9448 -0.7857,3.3104 -0.7515,1.324 -2.4936,2.3585 -1.6738,1.0345 -1.6738,2.069 0,1.4897 2.3229,2.6483 2.3569,1.1586 5.3628,1.1586 5.8754,0 8.9155,-5.131 3.0402,-5.1311 3.0402,-15.0621 z"
         style="font-style:normal;font-variant:normal;font-weight:500;font-stretch:expanded;font-size:medium;line-height:125%;font-family:'Engravers MT';-inkscape-font-specification:'Engravers MT Medium Expanded';letter-spacing:0px;word-spacing:0px;fill:#e24d46;fill-opacity:1;stroke:none;stroke-width:1px;stroke-linecap:butt;stroke-linejoin:miter;stroke-opacity:1"
         id="path7469"
         inkscape:connector-curvature="0" />
      <path
         inkscape:connector-curvature="0"
         id="path7471"
         style="font-style:normal;font-variant:normal;font-weight:500;font-stretch:expanded;font-size:medium;line-height:125%;font-family:'Engravers MT';-inkscape-font-specification:'Engravers MT Medium Expanded';letter-spacing:0px;word-spacing:0px;fill:#e24d46;fill-opacity:1;stroke:none;stroke-width:1px;stroke-linecap:butt;stroke-linejoin:miter;stroke-opacity:1"
         d="m 3659.6407,891.40705 q -4.7481,0 -6.7976,4.0965 -0.7856,1.738 -1.0931,3.5587 -0.2049,0.9931 -0.3416,2.6483 -0.1025,1.6138 -0.1707,4.2207 -0.068,2.6069 -0.068,4.5517 0,4.1379 0.4098,6.6621 0.4441,2.5241 1.4006,4.262 1.7762,3.3104 5.8069,3.3104 4.0649,0 6.5927,-3.1448 1.7421,-2.0276 2.4936,-5.2138 0.7857,-3.2276 0.7857,-8.1518 0,-5.7931 -0.9907,-9.4759 -0.9564,-3.724 -2.9718,-5.5034 -1.9812,-1.8207 -5.0555,-1.8207 z m 8.9497,36.869 v -9.3104 h -0.1367 q -2.1179,4.0139 -4.9872,5.8759 -2.8693,1.8207 -6.9683,1.8207 -3.3477,0 -6.3878,-1.3655 -3.0401,-1.3655 -5.3288,-3.8069 -2.2545,-2.4414 -3.5183,-5.6276 -1.2639,-3.1862 -1.2639,-6.8275 0,-5.3794 2.4253,-9.7242 2.4253,-4.3448 6.7634,-6.8276 4.3382,-2.4828 9.5987,-2.4828 6.1144,0 10.965,3.7656 4.8847,3.7654 7.549,10.5103 2.6986,6.7448 2.6986,15.3517 0,13.6552 -6.8659,22.2207 -3.2452,3.931 -7.4808,6.0414 -4.2016,2.1103 -8.7447,2.1103 -7.0367,0 -11.1016,-4.8413 -2.9377,-3.4759 -2.9377,-7.6138 0,-3.0621 1.5372,-5.0483 1.5713,-1.9862 3.8941,-1.9862 2.4253,0 3.9965,1.7793 1.6056,1.7793 1.6056,4.6345 0,1.9448 -0.7857,3.3104 -0.7515,1.324 -2.4936,2.3585 -1.6738,1.0345 -1.6738,2.069 0,1.4897 2.3229,2.6483 2.3569,1.1586 5.3628,1.1586 5.8754,0 8.9155,-5.131 3.0402,-5.1311 3.0402,-15.0621 z" />
      <path
         style="fill:#e24d46;fill-opacity:1"
         d="m 3773.7714,303.1323 c -1.1781,-4.6684 -8.8121,-13.6918 -33.0211,-39.0304 -22.472,-23.5215 -25.2654,-27.1699 -28.1642,-36.7815 -3.6501,-12.1017 -3.4833,-17.6251 0.7994,-26.4294 4.1067,-8.4426 11.6557,-14.9726 20.4381,-17.6787 5.7803,-1.7809 10.2872,-1.6213 16.6549,0.5897 7.589,2.6353 11.7499,5.3135 18.8813,12.1541 3.5436,3.3995 6.5008,5.7662 6.7884,5.4325 11.7857,-13.6929 18.5575,-17.8974 30.0245,-18.6416 17.535,-1.1379 31.499,9.6386 33.525,25.8716 1.125,9.0334 -0.961,20.2696 -5.075,27.3297 -2.941,5.0463 -12.427,16.0199 -27.9,32.2752 -18.9608,19.9212 -26.868,28.8751 -29.8027,33.7461 l -2.4259,4.0274 z"
         id="path7880"
         inkscape:connector-curvature="0" />
      <path
         inkscape:connector-curvature="0"
         id="path7882"
         d="m 4003.7714,303.1323 c -1.1781,-4.6684 -8.8121,-13.6918 -33.0211,-39.0304 -22.472,-23.5215 -25.2654,-27.1699 -28.1642,-36.7815 -3.6501,-12.1017 -3.4833,-17.6251 0.7994,-26.4294 4.1067,-8.4426 11.6557,-14.9726 20.4381,-17.6787 5.7803,-1.7809 10.2872,-1.6213 16.6549,0.5897 7.589,2.6353 11.7499,5.3135 18.8813,12.1541 3.5436,3.3995 6.5008,5.7662 6.7884,5.4325 11.7857,-13.6929 18.5575,-17.8974 30.0245,-18.6416 17.535,-1.1379 31.499,9.6386 33.525,25.8716 1.125,9.0334 -0.961,20.2696 -5.075,27.3297 -2.941,5.0463 -12.427,16.0199 -27.9,32.2752 -18.9608,19.9212 -26.868,28.8751 -29.8027,33.7461 l -2.4259,4.0274 z"
         style="fill:#e24d46;fill-opacity:1" />
      <path
         inkscape:connector-curvature="0"
         id="path7884"
         d="m 3773.7714,609.13561 c -1.1781,-4.6684 -8.8121,-13.6918 -33.0211,-39.0304 -22.472,-23.5215 -25.2654,-27.1699 -28.1642,-36.7815 -3.6501,-12.1017 -3.4833,-17.6251 0.7994,-26.4294 4.1067,-8.4426 11.6557,-14.9726 20.4381,-17.6787 5.7803,-1.7809 10.2872,-1.6213 16.6549,0.5897 7.589,2.6353 11.7499,5.3135 18.8813,12.1541 3.5436,3.3995 6.5008,5.7662 6.7884,5.4325 11.7857,-13.6929 18.5575,-17.8974 30.0245,-18.6416 17.535,-1.1379 31.499,9.6386 33.525,25.8716 1.125,9.0334 -0.961,20.2696 -5.075,27.3297 -2.941,5.0463 -12.427,16.0199 -27.9,32.2752 -18.9608,19.9212 -26.868,28.8751 -29.8027,33.7461 l -2.4259,4.0274 z"
         style="fill:#e24d46;fill-opacity:1" />
      <path
         style="fill:#e24d46;fill-opacity:1"
         d="m 4003.7714,609.13561 c -1.1781,-4.6684 -8.8121,-13.6918 -33.0211,-39.0304 -22.472,-23.5215 -25.2654,-27.1699 -28.1642,-36.7815 -3.6501,-12.1017 -3.4833,-17.6251 0.7994,-26.4294 4.1067,-8.4426 11.6557,-14.9726 20.4381,-17.6787 5.7803,-1.7809 10.2872,-1.6213 16.6549,0.5897 7.589,2.6353 11.7499,5.3135 18.8813,12.1541 3.5436,3.3995 6.5008,5.7662 6.7884,5.4325 11.7857,-13.6929 18.5575,-17.8974 30.0245,-18.6416 17.535,-1.1379 31.499,9.6386 33.525,25.8716 1.125,9.0334 -0.961,20.2696 -5.075,27.3297 -2.941,5.0463 -12.427,16.0199 -27.9,32.2752 -18.9608,19.9212 -26.868,28.8751 -29.8027,33.7461 l -2.4259,4.0274 z"
         id="path7886"
         inkscape:connector-curvature="0" />
      <path
         inkscape:connector-curvature="0"
         id="path7890"
         d="m 3773.7714,796.86169 c -1.1781,4.6684 -8.8121,13.6918 -33.0211,39.0304 -22.472,23.5215 -25.2654,27.1699 -28.1642,36.7815 -3.6501,12.1017 -3.4833,17.6251 0.7994,26.4294 4.1067,8.4426 11.6557,14.9726 20.4381,17.6787 5.7803,1.7809 10.2872,1.6213 16.6549,-0.5897 7.589,-2.6353 11.7499,-5.3135 18.8813,-12.1541 3.5436,-3.3995 6.5008,-5.7662 6.7884,-5.4325 11.7857,13.6929 18.5575,17.8974 30.0245,18.6416 17.535,1.1379 31.499,-9.6386 33.525,-25.8716 1.125,-9.0334 -0.961,-20.2696 -5.075,-27.3297 -2.941,-5.0463 -12.427,-16.0199 -27.9,-32.2752 -18.9608,-19.9212 -26.868,-28.8751 -29.8027,-33.7461 l -2.4259,-4.0274 z"
         style="fill:#e24d46;fill-opacity:1" />
      <path
         style="fill:#e24d46;fill-opacity:1"
         d="m 4003.7714,796.86169 c -1.1781,4.6684 -8.8121,13.6918 -33.0211,39.0304 -22.472,23.5215 -25.2654,27.1699 -28.1642,36.7815 -3.6501,12.1017 -3.4833,17.6251 0.7994,26.4294 4.1067,8.4426 11.6557,14.9726 20.4381,17.6787 5.7803,1.7809 10.2872,1.6213 16.6549,-0.5897 7.589,-2.6353 11.7499,-5.3135 18.8813,-12.1541 3.5436,-3.3995 6.5008,-5.7662 6.7884,-5.4325 11.7857,13.6929 18.5575,17.8974 30.0245,18.6416 17.535,1.1379 31.499,-9.6386 33.525,-25.8716 1.125,-9.0334 -0.961,-20.2696 -5.075,-27.3297 -2.941,-5.0463 -12.427,-16.0199 -27.9,-32.2752 -18.9608,-19.9212 -26.868,-28.8751 -29.8027,-33.7461 l -2.4259,-4.0274 z"
         id="path7892"
         inkscape:connector-curvature="0" />
      <path
         inkscape:connector-curvature="0"
         id="path8000"
         d="m 3660.622,290.28329 c -0.3625,-1.43063 -2.7115,-4.19587 -10.1604,-11.96092 -6.9145,-7.2082 -7.774,-8.32625 -8.6659,-11.27175 -1.1231,-3.70858 -1.0718,-5.40123 0.2459,-8.09933 1.2636,-2.58725 3.5864,-4.58837 6.2887,-5.41767 1.7785,-0.54576 3.1653,-0.49684 5.1245,0.18072 2.3352,0.80759 3.6155,1.62833 5.8098,3.72465 1.0902,1.04177 2.0002,1.76706 2.0887,1.66479 3.6264,-4.19621 5.71,-5.48469 9.2383,-5.71275 5.3953,-0.34871 9.692,2.95377 10.3153,7.92839 0.3462,2.7683 -0.2956,6.21166 -1.5615,8.37523 -0.9049,1.54645 -3.8237,4.90932 -8.5846,9.89079 -5.8341,6.10488 -8.267,8.84882 -9.1701,10.34155 l -0.7463,1.2342 z"
         style="fill:#e24d46;fill-opacity:1" />
      <path
         inkscape:connector-curvature="0"
         id="path8002"
         d="m 4118.619,290.28329 c -0.3625,-1.43063 -2.7115,-4.19587 -10.1604,-11.96092 -6.9145,-7.2082 -7.774,-8.32625 -8.6659,-11.27175 -1.1231,-3.70858 -1.0718,-5.40123 0.2459,-8.09933 1.2636,-2.58725 3.5864,-4.58837 6.2887,-5.41767 1.7785,-0.54576 3.1653,-0.49684 5.1245,0.18072 2.3352,0.80759 3.6155,1.62833 5.8098,3.72465 1.0902,1.04177 2.0002,1.76706 2.0887,1.66479 3.6264,-4.19621 5.71,-5.48469 9.2383,-5.71275 5.3953,-0.34871 9.692,2.95377 10.3153,7.92839 0.3462,2.7683 -0.2956,6.21166 -1.5615,8.37523 -0.9049,1.54645 -3.8237,4.90932 -8.5846,9.89079 -5.8341,6.10488 -8.267,8.84882 -9.1701,10.34155 l -0.7463,1.2342 z"
         style="fill:#e24d46;fill-opacity:1" />
      <path
         style="fill:#e24d46;fill-opacity:1"
         d="m 3660.622,809.8779 c -0.3625,1.43063 -2.7115,4.19587 -10.1604,11.96092 -6.9145,7.2082 -7.774,8.32625 -8.6659,11.27175 -1.1231,3.70858 -1.0718,5.40123 0.2459,8.09933 1.2636,2.58725 3.5864,4.58837 6.2887,5.41767 1.7785,0.54576 3.1653,0.49684 5.1245,-0.18072 2.3352,-0.80759 3.6155,-1.62833 5.8098,-3.72465 1.0902,-1.04177 2.0002,-1.76706 2.0887,-1.66479 3.6264,4.19621 5.71,5.48469 9.2383,5.71275 5.3953,0.34871 9.692,-2.95377 10.3153,-7.92839 0.3462,-2.7683 -0.2956,-6.21166 -1.5615,-8.37523 -0.9049,-1.54645 -3.8237,-4.90932 -8.5846,-9.89079 -5.8341,-6.10488 -8.267,-8.84882 -9.1701,-10.34155 L 3660.8444,809 Z"
         id="path8054"
         inkscape:connector-curvature="0" />
      <path
         style="fill:#e24d46;fill-opacity:1"
         d="m 4118.619,809.8779 c -0.3625,1.43063 -2.7115,4.19587 -10.1604,11.96092 -6.9145,7.2082 -7.774,8.32625 -8.6659,11.27175 -1.1231,3.70858 -1.0718,5.40123 0.2459,8.09933 1.2636,2.58725 3.5864,4.58837 6.2887,5.41767 1.7785,0.54576 3.1653,0.49684 5.1245,-0.18072 2.3352,-0.80759 3.6155,-1.62833 5.8098,-3.72465 1.0902,-1.04177 2.0002,-1.76706 2.0887,-1.66479 3.6264,4.19621 5.71,5.48469 9.2383,5.71275 5.3953,0.34871 9.692,-2.95377 10.3153,-7.92839 0.3462,-2.7683 -0.2956,-6.21166 -1.5615,-8.37523 -0.9049,-1.54645 -3.8237,-4.90932 -8.5846,-9.89079 -5.8341,-6.10488 -8.267,-8.84882 -9.1701,-10.34155 L 4118.8414,809 Z"
         id="path8056"
         inkscape:connector-curvature="0" />
    </g>
  </g>
</svg>
