<?xml version="1.0" encoding="UTF-8" standalone="no"?>
<!-- Created with Inkscape (http://www.inkscape.org/) -->

<svg
   id="svg10047"
   height="122.98924"
   width="78.998276"
   version="1.1"
   viewBox="0 0 78.998276 122.98924"
   inkscape:version="0.91 r13725"
   sodipodi:docname="franzoesisches-bild.svgz"
   xmlns:inkscape="http://www.inkscape.org/namespaces/inkscape"
   xmlns:sodipodi="http://sodipodi.sourceforge.net/DTD/sodipodi-0.dtd"
   xmlns="http://www.w3.org/2000/svg"
   xmlns:svg="http://www.w3.org/2000/svg"
   xmlns:rdf="http://www.w3.org/1999/02/22-rdf-syntax-ns#"
   xmlns:cc="http://creativecommons.org/ns#"
   xmlns:dc="http://purl.org/dc/elements/1.1/">
  <sodipodi:namedview
     pagecolor="#ffffff"
     bordercolor="#666666"
     borderopacity="1"
     objecttolerance="10"
     gridtolerance="10"
     guidetolerance="10"
     inkscape:pageopacity="0"
     inkscape:pageshadow="2"
     inkscape:window-width="1920"
     inkscape:window-height="1016"
     id="namedview1491"
     showgrid="false"
     inkscape:zoom="1.3479675"
     inkscape:cx="513.5"
     inkscape:cy="307.5"
     inkscape:window-x="0"
     inkscape:window-y="0"
     inkscape:window-maximized="1"
     inkscape:current-layer="svg10047"
     showguides="true"
     inkscape:guide-bbox="true"
     inkscape:snap-grids="true"
     inkscape:showpageshadow="2"
     inkscape:pagecheckerboard="0"
     inkscape:deskcolor="#d1d1d1" />
  <metadata
     id="metadata16869">
    <rdf:RDF>
      <cc:Work
         rdf:about="">
        <dc:format>image/svg+xml</dc:format>
        <dc:type
           rdf:resource="http://purl.org/dc/dcmitype/StillImage" />
        <dc:title />
      </cc:Work>
    </rdf:RDF>
  </metadata>
  <defs
     id="defs10049" />
  <g
     transform="matrix(0.13625087,0,0,0.13665483,-204.3763,-13.665587)"
     id="heart_3"
     inkscape:label="#heart_3">
    <rect
       width="577.80151"
       height="898.00061"
       rx="48.194115"
       ry="49.888187"
       x="1500.9993"
       y="101.00008"
       id="rect7477"
       style="font-style:normal;font-variant:normal;font-weight:500;font-stretch:normal;font-size:medium;line-height:125%;font-family:Gaelic;-inkscape-font-specification:'Gaelic Medium';letter-spacing:0px;word-spacing:0px;fill:#ffffff;fill-opacity:1;stroke:#000000;stroke-width:1.99863;stroke-linecap:butt;stroke-linejoin:miter;stroke-miterlimit:4;stroke-dasharray:none;stroke-opacity:1" />
    <path
       inkscape:connector-curvature="0"
       id="path7516"
       style="font-style:normal;font-variant:normal;font-weight:500;font-stretch:expanded;font-size:medium;line-height:125%;font-family:'Engravers MT';-inkscape-font-specification:'Engravers MT Medium Expanded';letter-spacing:0px;word-spacing:0px;fill:#e24d46;fill-opacity:1;stroke:none;stroke-width:1px;stroke-linecap:butt;stroke-linejoin:miter;stroke-opacity:1"
       d="m 1563.5314,178.01425 v -0.083 0.1655 q 5.3311,0.9517 7.708,2.2345 2.8862,1.3656 4.8217,3.3104 1.9695,1.9448 2.9542,4.4689 0.9847,2.4828 0.9847,5.338 0,4.8827 -2.7844,8.6483 -2.7504,3.7654 -7.8439,5.8344 -5.0593,2.0689 -11.477,2.0689 -3.6671,0 -7.2325,-0.9103 -3.5314,-0.9103 -5.6367,-2.3171 -2.275,-1.6553 -3.6673,-4.2622 -1.3582,-2.6068 -1.3582,-5.2552 0,-3.062 1.6299,-5.0896 1.6298,-2.0276 4.0746,-2.0276 2.411,0 3.905,1.8621 1.528,1.8207 1.528,4.5931 0,1.7379 -0.6791,3.0621 -0.6452,1.2827 -2.1731,2.5241 -1.4602,1.1173 -1.4602,2.0276 0,1.862 2.9542,3.0621 2.9881,1.2 7.4023,1.2 6.214,0 9.0663,-3.3931 3.056,-3.8897 2.6825,-11.2966 -0.4075,-8.4413 -3.0561,-11.5035 -2.7503,-3.2276 -7.8438,-3.2276 -1.2563,0 -4.584,0.3311 -0.9168,0.1655 -1.8336,0.1655 -1.9354,0 -1.9354,-1.4483 0,-1.4068 2.1731,-1.4068 0.4074,0 2.2751,0.2482 2.4108,0.3311 3.9727,0.3311 3.0222,0 4.8558,-1.1587 1.8336,-1.2 2.6486,-3.7654 0.8488,-2.5656 0.8488,-7.0346 0,-2.4827 -0.3396,-4.5104 -0.3395,-2.0689 -0.9847,-3.724 -0.6111,-1.6552 -1.528,-2.6897 -2.309,-2.8138 -6.6213,-2.8138 -2.5807,0 -4.8218,0.7034 -2.2411,0.7035 -3.6333,1.8622 -1.3582,1.1172 -1.3582,2.3585 0,0.6621 0.3395,1.1172 0.3396,0.4139 1.2564,1.0759 1.5959,0.9518 2.3089,2.2759 0.7133,1.2828 0.7133,3.269 0,2.731 -1.4942,4.5103 -1.4601,1.7379 -3.6673,1.7379 -2.3429,0 -3.9387,-1.9448 -1.562,-1.9862 -1.562,-4.8413 0,-3.9725 2.241,-7.1173 2.2751,-3.1449 6.3498,-4.8414 4.1086,-1.7379 9.3038,-1.7379 5.3651,0 9.3719,1.8207 4.0068,1.7793 6.214,5.131 2.2071,3.3104 2.2071,7.7794 0,2.8137 -0.9847,5.2137 -0.9509,2.3587 -2.8524,4.0966 -2.1731,1.9862 -6.112,3.1448 -0.9848,0.2897 -3.3277,0.8275 z" />
    <path
       d="m 2023.5314,178.01425 v -0.083 0.1655 q 5.3311,0.9517 7.708,2.2345 2.8862,1.3656 4.8217,3.3104 1.9695,1.9448 2.9542,4.4689 0.9847,2.4828 0.9847,5.338 0,4.8827 -2.7844,8.6483 -2.7504,3.7654 -7.8439,5.8344 -5.0593,2.0689 -11.477,2.0689 -3.6671,0 -7.2325,-0.9103 -3.5314,-0.9103 -5.6367,-2.3171 -2.275,-1.6553 -3.6673,-4.2622 -1.3582,-2.6068 -1.3582,-5.2552 0,-3.062 1.6299,-5.0896 1.6298,-2.0276 4.0746,-2.0276 2.411,0 3.905,1.8621 1.528,1.8207 1.528,4.5931 0,1.7379 -0.6791,3.0621 -0.6452,1.2827 -2.1731,2.5241 -1.4602,1.1173 -1.4602,2.0276 0,1.862 2.9542,3.0621 2.9881,1.2 7.4023,1.2 6.214,0 9.0663,-3.3931 3.056,-3.8897 2.6825,-11.2966 -0.4075,-8.4413 -3.0561,-11.5035 -2.7503,-3.2276 -7.8438,-3.2276 -1.2563,0 -4.584,0.3311 -0.9168,0.1655 -1.8336,0.1655 -1.9354,0 -1.9354,-1.4483 0,-1.4068 2.1731,-1.4068 0.4074,0 2.2751,0.2482 2.4108,0.3311 3.9727,0.3311 3.0222,0 4.8558,-1.1587 1.8336,-1.2 2.6486,-3.7654 0.8488,-2.5656 0.8488,-7.0346 0,-2.4827 -0.3396,-4.5104 -0.3395,-2.0689 -0.9847,-3.724 -0.6111,-1.6552 -1.528,-2.6897 -2.309,-2.8138 -6.6213,-2.8138 -2.5807,0 -4.8218,0.7034 -2.2411,0.7035 -3.6333,1.8622 -1.3582,1.1172 -1.3582,2.3585 0,0.6621 0.3395,1.1172 0.3396,0.4139 1.2564,1.0759 1.5959,0.9518 2.3089,2.2759 0.7133,1.2828 0.7133,3.269 0,2.731 -1.4942,4.5103 -1.4601,1.7379 -3.6673,1.7379 -2.3429,0 -3.9387,-1.9448 -1.562,-1.9862 -1.562,-4.8413 0,-3.9725 2.241,-7.1173 2.2751,-3.1449 6.3498,-4.8414 4.1086,-1.7379 9.3038,-1.7379 5.3651,0 9.3719,1.8207 4.0068,1.7793 6.214,5.131 2.2071,3.3104 2.2071,7.7794 0,2.8137 -0.9847,5.2137 -0.9509,2.3587 -2.8524,4.0966 -2.1731,1.9862 -6.112,3.1448 -0.9848,0.2897 -3.3277,0.8275 z"
       style="font-style:normal;font-variant:normal;font-weight:500;font-stretch:expanded;font-size:medium;line-height:125%;font-family:'Engravers MT';-inkscape-font-specification:'Engravers MT Medium Expanded';letter-spacing:0px;word-spacing:0px;fill:#e24d46;fill-opacity:1;stroke:none;stroke-width:1px;stroke-linecap:butt;stroke-linejoin:miter;stroke-opacity:1"
       id="path7518"
       inkscape:connector-curvature="0" />
    <path
       d="m 1556.4686,921.98605 v 0.083 -0.1655 q -5.3311,-0.9517 -7.708,-2.2345 -2.8862,-1.3656 -4.8217,-3.3104 -1.9695,-1.9448 -2.9542,-4.4689 -0.9847,-2.4828 -0.9847,-5.338 0,-4.8827 2.7844,-8.6483 2.7504,-3.7654 7.844,-5.8344 5.0592,-2.0689 11.4769,-2.0689 3.6671,0 7.2325,0.9103 3.5314,0.9103 5.6368,2.3171 2.275,1.6553 3.6673,4.2622 1.3581,2.6068 1.3581,5.2552 0,3.062 -1.6299,5.0896 -1.6297,2.0276 -4.0746,2.0276 -2.411,0 -3.9049,-1.8621 -1.5281,-1.8207 -1.5281,-4.5931 0,-1.7379 0.6792,-3.0621 0.6452,-1.2827 2.1731,-2.5241 1.4602,-1.1173 1.4602,-2.0276 0,-1.862 -2.9542,-3.0621 -2.9881,-1.2 -7.4023,-1.2 -6.214,0 -9.0663,3.3931 -3.056,3.8897 -2.6825,11.2966 0.4075,8.4413 3.0561,11.5035 2.7503,3.2276 7.8438,3.2276 1.2563,0 4.584,-0.3311 0.9168,-0.1655 1.8336,-0.1655 1.9354,0 1.9354,1.4483 0,1.4068 -2.1731,1.4068 -0.4074,0 -2.2751,-0.2482 -2.4108,-0.331 -3.9727,-0.331 -3.0222,0 -4.8558,1.1586 -1.8336,1.2 -2.6486,3.7655 -0.8488,2.5656 -0.8488,7.0346 0,2.4827 0.3396,4.5104 0.3395,2.0689 0.9847,3.724 0.6111,1.6552 1.528,2.6897 2.309,2.8138 6.6213,2.8138 2.5807,0 4.8218,-0.7034 2.2411,-0.7035 3.6333,-1.8622 1.3582,-1.1172 1.3582,-2.3585 0,-0.6621 -0.3395,-1.1172 -0.3396,-0.4139 -1.2564,-1.0759 -1.5959,-0.9518 -2.3089,-2.2759 -0.7133,-1.2828 -0.7133,-3.269 0,-2.731 1.4942,-4.5103 1.4601,-1.7379 3.6673,-1.7379 2.3429,0 3.9387,1.9448 1.562,1.9862 1.562,4.8413 0,3.9725 -2.241,7.1173 -2.2751,3.1449 -6.3498,4.8414 -4.1086,1.7379 -9.3038,1.7379 -5.3651,0 -9.3719,-1.8207 -4.0068,-1.7793 -6.214,-5.131 -2.2071,-3.3104 -2.2071,-7.7794 0,-2.8137 0.9847,-5.2137 0.9509,-2.3587 2.8524,-4.0966 2.1731,-1.9862 6.112,-3.1448 0.9848,-0.2897 3.3277,-0.8275 z"
       style="font-style:normal;font-variant:normal;font-weight:500;font-stretch:expanded;font-size:medium;line-height:125%;font-family:'Engravers MT';-inkscape-font-specification:'Engravers MT Medium Expanded';letter-spacing:0px;word-spacing:0px;fill:#e24d46;fill-opacity:1;stroke:none;stroke-width:1px;stroke-linecap:butt;stroke-linejoin:miter;stroke-opacity:1"
       id="path7520"
       inkscape:connector-curvature="0" />
    <path
       inkscape:connector-curvature="0"
       id="path7522"
       style="font-style:normal;font-variant:normal;font-weight:500;font-stretch:expanded;font-size:medium;line-height:125%;font-family:'Engravers MT';-inkscape-font-specification:'Engravers MT Medium Expanded';letter-spacing:0px;word-spacing:0px;fill:#e24d46;fill-opacity:1;stroke:none;stroke-width:1px;stroke-linecap:butt;stroke-linejoin:miter;stroke-opacity:1"
       d="m 2016.4686,921.98605 v 0.083 -0.1655 q -5.3311,-0.9517 -7.708,-2.2345 -2.8862,-1.3656 -4.8217,-3.3104 -1.9695,-1.9448 -2.9542,-4.4689 -0.9847,-2.4828 -0.9847,-5.338 0,-4.8827 2.7844,-8.6483 2.7504,-3.7654 7.844,-5.8344 5.0592,-2.0689 11.4769,-2.0689 3.6671,0 7.2325,0.9103 3.5314,0.9103 5.6368,2.3171 2.275,1.6553 3.6673,4.2622 1.3581,2.6068 1.3581,5.2552 0,3.062 -1.6299,5.0896 -1.6297,2.0276 -4.0746,2.0276 -2.411,0 -3.9049,-1.8621 -1.5281,-1.8207 -1.5281,-4.5931 0,-1.7379 0.6792,-3.0621 0.6452,-1.2827 2.1731,-2.5241 1.4602,-1.1173 1.4602,-2.0276 0,-1.862 -2.9542,-3.0621 -2.9881,-1.2 -7.4023,-1.2 -6.214,0 -9.0663,3.3931 -3.056,3.8897 -2.6825,11.2966 0.4075,8.4413 3.0561,11.5035 2.7503,3.2276 7.8438,3.2276 1.2563,0 4.584,-0.3311 0.9168,-0.1655 1.8336,-0.1655 1.9354,0 1.9354,1.4483 0,1.4068 -2.1731,1.4068 -0.4074,0 -2.2751,-0.2482 -2.4108,-0.331 -3.9727,-0.331 -3.0222,0 -4.8558,1.1586 -1.8336,1.2 -2.6486,3.7655 -0.8488,2.5656 -0.8488,7.0346 0,2.4827 0.3396,4.5104 0.3395,2.0689 0.9847,3.724 0.6111,1.6552 1.528,2.6897 2.309,2.8138 6.6213,2.8138 2.5807,0 4.8218,-0.7034 2.2411,-0.7035 3.6333,-1.8622 1.3582,-1.1172 1.3582,-2.3585 0,-0.6621 -0.3395,-1.1172 -0.3396,-0.4139 -1.2564,-1.0759 -1.5959,-0.9518 -2.3089,-2.2759 -0.7133,-1.2828 -0.7133,-3.269 0,-2.731 1.4942,-4.5103 1.4601,-1.7379 3.6673,-1.7379 2.3429,0 3.9387,1.9448 1.562,1.9862 1.562,4.8413 0,3.9725 -2.241,7.1173 -2.2751,3.1449 -6.3498,4.8414 -4.1086,1.7379 -9.3038,1.7379 -5.3651,0 -9.3719,-1.8207 -4.0068,-1.7793 -6.214,-5.131 -2.2071,-3.3104 -2.2071,-7.7794 0,-2.8137 0.9847,-5.2137 0.9509,-2.3587 2.8524,-4.0966 2.1731,-1.9862 6.112,-3.1448 0.9848,-0.2897 3.3277,-0.8275 z" />
    <path
       style="fill:#e24d46;fill-opacity:1"
       d="m 1788.7714,303.13199 c -1.1781,-4.6684 -8.8121,-13.6918 -33.0211,-39.0304 -22.472,-23.5215 -25.2654,-27.1699 -28.1642,-36.7815 -3.6501,-12.1017 -3.4833,-17.6251 0.7994,-26.4294 4.1067,-8.4426 11.6557,-14.9726 20.4381,-17.6787 5.7803,-1.7809 10.2872,-1.6213 16.6549,0.5897 7.589,2.6353 11.7499,5.3135 18.8813,12.1541 3.5436,3.3995 6.5008,5.7662 6.7884,5.4325 11.7857,-13.6929 18.5575,-17.8974 30.0245,-18.6416 17.535,-1.1379 31.499,9.6386 33.525,25.8716 1.125,9.0334 -0.961,20.2696 -5.075,27.3297 -2.941,5.0463 -12.427,16.0199 -27.9,32.2752 -18.9608,19.9212 -26.868,28.8751 -29.8027,33.7461 l -2.4259,4.0274 z"
       id="path7962"
       inkscape:connector-curvature="0" />
    <path
       inkscape:connector-curvature="0"
       id="path7966"
       d="m 1789.1294,609.1353 c -1.1781,-4.6684 -8.8121,-13.6918 -33.0211,-39.0304 -22.472,-23.5215 -25.2654,-27.1699 -28.1642,-36.7815 -3.6501,-12.1017 -3.4833,-17.6251 0.7994,-26.4294 4.1067,-8.4426 11.6557,-14.9726 20.4381,-17.6787 5.7803,-1.7809 10.2872,-1.6213 16.6549,0.5897 7.589,2.6353 11.7499,5.3135 18.8813,12.1541 3.5436,3.3995 6.5008,5.7662 6.7884,5.4325 11.7857,-13.6929 18.5575,-17.8974 30.0245,-18.6416 17.535,-1.1379 31.499,9.6386 33.525,25.8716 1.125,9.0334 -0.961,20.2696 -5.075,27.3297 -2.941,5.0463 -12.427,16.0199 -27.9,32.2752 -18.9608,19.9212 -26.868,28.8751 -29.8027,33.7461 L 1789.8521,612 Z"
       style="fill:#e24d46;fill-opacity:1" />
    <path
       inkscape:connector-curvature="0"
       id="path7968"
       d="m 1788.7714,796.86138 c -1.1781,4.6684 -8.8121,13.6918 -33.0211,39.0304 -22.472,23.5215 -25.2654,27.1699 -28.1642,36.7815 -3.6501,12.1017 -3.4833,17.6251 0.7994,26.4294 4.1067,8.4426 11.6557,14.9726 20.4381,17.6787 5.7803,1.7809 10.2872,1.6213 16.6549,-0.5897 7.589,-2.6353 11.7499,-5.3135 18.8813,-12.1541 3.5436,-3.3995 6.5008,-5.7662 6.7884,-5.4325 11.7857,13.6929 18.5575,17.8974 30.0245,18.6416 17.535,1.1379 31.499,-9.6386 33.525,-25.8716 1.125,-9.0334 -0.961,-20.2696 -5.075,-27.3297 -2.941,-5.0463 -12.427,-16.0199 -27.9,-32.2752 -18.9608,-19.9212 -26.868,-28.8751 -29.8027,-33.7461 l -2.4259,-4.0274 z"
       style="fill:#e24d46;fill-opacity:1" />
    <path
       inkscape:connector-curvature="0"
       id="path8012"
       d="m 1560.622,290.28329 c -0.3625,-1.43063 -2.7115,-4.19587 -10.1604,-11.96092 -6.9145,-7.2082 -7.774,-8.32625 -8.6659,-11.27175 -1.1231,-3.70858 -1.0718,-5.40123 0.2459,-8.09933 1.2636,-2.58725 3.5864,-4.58837 6.2887,-5.41767 1.7785,-0.54576 3.1653,-0.49684 5.1245,0.18072 2.3352,0.80759 3.6155,1.62833 5.8098,3.72465 1.0902,1.04177 2.0002,1.76706 2.0887,1.66479 3.6264,-4.19621 5.71,-5.48469 9.2383,-5.71275 5.3953,-0.34871 9.692,2.95377 10.3153,7.92839 0.3462,2.7683 -0.2956,6.21166 -1.5615,8.37523 -0.9049,1.54645 -3.8237,4.90932 -8.5846,9.89079 -5.8341,6.10488 -8.267,8.84882 -9.1701,10.34155 l -0.7463,1.2342 z"
       style="fill:#e24d46;fill-opacity:1" />
    <path
       inkscape:connector-curvature="0"
       id="path8014"
       d="m 2018.619,290.28329 c -0.3625,-1.43063 -2.7115,-4.19587 -10.1604,-11.96092 -6.9145,-7.2082 -7.774,-8.32625 -8.6659,-11.27175 -1.1231,-3.70858 -1.0718,-5.40123 0.2459,-8.09933 1.2636,-2.58725 3.5864,-4.58837 6.2887,-5.41767 1.7785,-0.54576 3.1653,-0.49684 5.1245,0.18072 2.3352,0.80759 3.6155,1.62833 5.8098,3.72465 1.0902,1.04177 2.0002,1.76706 2.0887,1.66479 3.6264,-4.19621 5.71,-5.48469 9.2383,-5.71275 5.3953,-0.34871 9.692,2.95377 10.3153,7.92839 0.3462,2.7683 -0.2956,6.21166 -1.5615,8.37523 -0.9049,1.54645 -3.8237,4.90932 -8.5846,9.89079 -5.8341,6.10488 -8.267,8.84882 -9.1701,10.34155 l -0.7463,1.2342 z"
       style="fill:#e24d46;fill-opacity:1" />
    <path
       style="fill:#e24d46;fill-opacity:1"
       d="m 1560.622,809.8779 c -0.3625,1.43063 -2.7115,4.19587 -10.1604,11.96092 -6.9145,7.2082 -7.774,8.32625 -8.6659,11.27175 -1.1231,3.70858 -1.0718,5.40123 0.2459,8.09933 1.2636,2.58725 3.5864,4.58837 6.2887,5.41767 1.7785,0.54576 3.1653,0.49684 5.1245,-0.18072 2.3352,-0.80759 3.6155,-1.62833 5.8098,-3.72465 1.0902,-1.04177 2.0002,-1.76706 2.0887,-1.66479 3.6264,4.19621 5.71,5.48469 9.2383,5.71275 5.3953,0.34871 9.692,-2.95377 10.3153,-7.92839 0.3462,-2.7683 -0.2956,-6.21166 -1.5615,-8.37523 -0.9049,-1.54645 -3.8237,-4.90932 -8.5846,-9.89079 -5.8341,-6.10488 -8.267,-8.84882 -9.1701,-10.34155 L 1560.8444,809 Z"
       id="path8066"
       inkscape:connector-curvature="0" />
    <path
       style="fill:#e24d46;fill-opacity:1"
       d="m 2018.619,809.8779 c -0.3625,1.43063 -2.7115,4.19587 -10.1604,11.96092 -6.9145,7.2082 -7.774,8.32625 -8.6659,11.27175 -1.1231,3.70858 -1.0718,5.40123 0.2459,8.09933 1.2636,2.58725 3.5864,4.58837 6.2887,5.41767 1.7785,0.54576 3.1653,0.49684 5.1245,-0.18072 2.3352,-0.80759 3.6155,-1.62833 5.8098,-3.72465 1.0902,-1.04177 2.0002,-1.76706 2.0887,-1.66479 3.6264,4.19621 5.71,5.48469 9.2383,5.71275 5.3953,0.34871 9.692,-2.95377 10.3153,-7.92839 0.3462,-2.7683 -0.2956,-6.21166 -1.5615,-8.37523 -0.9049,-1.54645 -3.8237,-4.90932 -8.5846,-9.89079 -5.8341,-6.10488 -8.267,-8.84882 -9.1701,-10.34155 L 2018.8414,809 Z"
       id="path8068"
       inkscape:connector-curvature="0" />
  </g>
</svg>
