<?xml version="1.0" encoding="UTF-8" standalone="no"?>
<!-- Created with Inkscape (http://www.inkscape.org/) -->

<svg
   id="svg10047"
   height="122.98924"
   width="78.998276"
   version="1.1"
   viewBox="0 0 78.998276 122.98924"
   inkscape:version="0.91 r13725"
   sodipodi:docname="franzoesisches-bild.svgz"
   xmlns:inkscape="http://www.inkscape.org/namespaces/inkscape"
   xmlns:sodipodi="http://sodipodi.sourceforge.net/DTD/sodipodi-0.dtd"
   xmlns="http://www.w3.org/2000/svg"
   xmlns:svg="http://www.w3.org/2000/svg"
   xmlns:rdf="http://www.w3.org/1999/02/22-rdf-syntax-ns#"
   xmlns:cc="http://creativecommons.org/ns#"
   xmlns:dc="http://purl.org/dc/elements/1.1/">
  <sodipodi:namedview
     pagecolor="#ffffff"
     bordercolor="#666666"
     borderopacity="1"
     objecttolerance="10"
     gridtolerance="10"
     guidetolerance="10"
     inkscape:pageopacity="0"
     inkscape:pageshadow="2"
     inkscape:window-width="1920"
     inkscape:window-height="1016"
     id="namedview1491"
     showgrid="false"
     inkscape:zoom="1.3479675"
     inkscape:cx="513.5"
     inkscape:cy="307.5"
     inkscape:window-x="0"
     inkscape:window-y="0"
     inkscape:window-maximized="1"
     inkscape:current-layer="svg10047"
     showguides="true"
     inkscape:guide-bbox="true"
     inkscape:snap-grids="true"
     inkscape:showpageshadow="2"
     inkscape:pagecheckerboard="0"
     inkscape:deskcolor="#d1d1d1" />
  <metadata
     id="metadata16869">
    <rdf:RDF>
      <cc:Work
         rdf:about="">
        <dc:format>image/svg+xml</dc:format>
        <dc:type
           rdf:resource="http://purl.org/dc/dcmitype/StillImage" />
        <dc:title />
      </cc:Work>
    </rdf:RDF>
  </metadata>
  <defs
     id="defs10049" />
  <g
     transform="matrix(0.13625087,0,0,0.13665483,-109.0007,-13.665587)"
     id="heart_2"
     inkscape:label="#heart_2">
    <rect
       style="font-style:normal;font-variant:normal;font-weight:500;font-stretch:normal;font-size:medium;line-height:125%;font-family:Gaelic;-inkscape-font-specification:'Gaelic Medium';letter-spacing:0px;word-spacing:0px;fill:#ffffff;fill-opacity:1;stroke:#000000;stroke-width:1.99863;stroke-linecap:butt;stroke-linejoin:miter;stroke-miterlimit:4;stroke-dasharray:none;stroke-opacity:1"
       id="rect7479"
       y="101.00008"
       x="800.99933"
       ry="49.888187"
       rx="48.194115"
       height="898.00061"
       width="577.80151" />
    <path
       inkscape:connector-curvature="0"
       id="path7524"
       style="font-style:normal;font-variant:normal;font-weight:500;font-stretch:expanded;font-size:medium;line-height:125%;font-family:'Engravers MT';-inkscape-font-specification:'Engravers MT Medium Expanded';letter-spacing:0px;word-spacing:0px;fill:#e24d46;fill-opacity:1;stroke:none;stroke-width:1px;stroke-linecap:butt;stroke-linejoin:miter;stroke-opacity:1"
       d="m 880,187.35795 -3.44542,22.6422 h -36.48579 q 0.20676,-4.132 3.68648,-9.1496 3.10088,-4.343 11.9208,-12.1012 4.85789,-4.3851 5.92591,-5.5236 0.20677,-0.253 0.48242,-0.548 0.27555,-0.3374 0.6201,-0.759 2.75623,-3.4998 3.96213,-6.9572 1.2058,-3.4575 1.2058,-7.8004 0,-7.4209 -2.9973,-11.3844 -2.963,-3.9634 -8.44108,-3.9634 -4.13431,0 -7.61413,2.0659 -3.47971,2.0661 -5.47798,5.608 -1.99837,3.5418 -1.99837,7.7582 0,4.5959 1.68822,4.5959 0.68909,0 0.79247,-1.2226 0.13778,-1.012 0.48232,-2.0662 0.93024,-2.6142 2.34281,-3.7948 1.44695,-1.2228 3.5831,-1.2228 1.7571,0 3.13527,0.9276 1.41256,0.9276 2.17054,2.6565 0.75797,1.6865 0.75797,3.7526 0,2.3611 -0.99923,4.3006 -0.96464,1.8976 -2.65286,2.9939 -1.65372,1.0962 -3.75527,1.0962 -3.89325,0 -6.40833,-3.2888 Q 840,172.68465 840,167.58275 q 0,-3.078 0.96454,-6.0295 0.99923,-2.9936 2.85972,-5.2705 5.03016,-6.2826 15.5039,-6.2826 4.34108,0 8.02756,1.3071 3.68648,1.265 6.33934,3.6684 2.65285,2.4033 4.06541,5.6501 1.41267,3.2466 1.41267,7.0413 0,5.5235 -3.13528,9.8665 -1.30918,1.9395 -3.03189,3.4575 -3.30755,2.6565 -9.92244,6.0296 -9.26794,4.7645 -12.98882,8.3064 -0.86136,0.7589 -3.30755,3.4574 h 22.49793 q 3.13518,0 4.75441,-0.6746 1.65382,-0.7168 2.58396,-2.5298 0.93025,-1.8132 1.61943,-5.4392 l 0.48232,-2.7829 z" />
    <path
       d="m 1340,187.35795 -3.4454,22.6422 h -36.4858 q 0.2068,-4.132 3.6865,-9.1496 3.1009,-4.343 11.9208,-12.1012 4.8579,-4.3851 5.9259,-5.5236 0.2068,-0.253 0.4824,-0.548 0.2756,-0.3374 0.6201,-0.759 2.7562,-3.4998 3.9621,-6.9572 1.2058,-3.4575 1.2058,-7.8004 0,-7.4209 -2.9973,-11.3844 -2.963,-3.9634 -8.441,-3.9634 -4.1344,0 -7.6142,2.0659 -3.4797,2.0661 -5.478,5.608 -1.9983,3.5418 -1.9983,7.7582 0,4.5959 1.6882,4.5959 0.6891,0 0.7925,-1.2226 0.1377,-1.012 0.4823,-2.0662 0.9302,-2.6142 2.3428,-3.7948 1.4469,-1.2228 3.5831,-1.2228 1.7571,0 3.1353,0.9276 1.4125,0.9276 2.1705,2.6565 0.758,1.6865 0.758,3.7526 0,2.3611 -0.9993,4.3006 -0.9646,1.8976 -2.6528,2.9939 -1.6537,1.0962 -3.7553,1.0962 -3.8932,0 -6.4083,-3.2888 -2.4806,-3.2889 -2.4806,-8.3908 0,-3.078 0.9645,-6.0295 0.9993,-2.9936 2.8598,-5.2705 5.0301,-6.2826 15.5039,-6.2826 4.341,0 8.0275,1.3071 3.6865,1.265 6.3394,3.6684 2.6528,2.4033 4.0654,5.6501 1.4126,3.2466 1.4126,7.0413 0,5.5235 -3.1352,9.8665 -1.3092,1.9395 -3.0319,3.4575 -3.3076,2.6565 -9.9225,6.0296 -9.2679,4.7645 -12.9888,8.3064 -0.8613,0.7589 -3.3075,3.4574 h 22.4979 q 3.1352,0 4.7544,-0.6746 1.6538,-0.7168 2.584,-2.5298 0.9302,-1.8132 1.6194,-5.4392 l 0.4823,-2.7829 z"
       style="font-style:normal;font-variant:normal;font-weight:500;font-stretch:expanded;font-size:medium;line-height:125%;font-family:'Engravers MT';-inkscape-font-specification:'Engravers MT Medium Expanded';letter-spacing:0px;word-spacing:0px;fill:#e24d46;fill-opacity:1;stroke:none;stroke-width:1px;stroke-linecap:butt;stroke-linejoin:miter;stroke-opacity:1"
       id="path7526"
       inkscape:connector-curvature="0" />
    <path
       d="m 840,912.64235 3.4454,-22.6422 h 36.4858 q -0.2068,4.132 -3.6865,9.1496 -3.1008,4.343 -11.9208,12.1012 -4.8579,4.3851 -5.9259,5.5236 -0.2068,0.253 -0.4824,0.548 -0.2755,0.3374 -0.6201,0.759 -2.7562,3.4998 -3.9621,6.9572 -1.2058,3.4575 -1.2058,7.8004 0,7.4209 2.9973,11.3844 2.963,3.9634 8.4411,3.9634 4.1343,0 7.6141,-2.0659 3.4797,-2.0661 5.478,-5.608 1.9983,-3.5418 1.9983,-7.7582 0,-4.5959 -1.6882,-4.5959 -0.6891,0 -0.7925,1.2226 -0.1377,1.012 -0.4823,2.0662 -0.9302,2.6142 -2.3428,3.7948 -1.4469,1.2228 -3.5831,1.2228 -1.7571,0 -3.1353,-0.9276 -1.4125,-0.9276 -2.1705,-2.6565 -0.758,-1.6865 -0.758,-3.7526 0,-2.3611 0.9993,-4.3006 0.9646,-1.8976 2.6528,-2.9939 1.6537,-1.0962 3.7553,-1.0962 3.8932,0 6.4083,3.2888 2.4806,3.2889 2.4806,8.3908 0,3.078 -0.9645,6.0295 -0.9993,2.9936 -2.8598,5.2705 -5.0301,6.2826 -15.5039,6.2826 -4.341,0 -8.0275,-1.3071 -3.6865,-1.265 -6.3394,-3.6684 -2.6528,-2.4033 -4.0654,-5.6501 -1.4126,-3.2466 -1.4126,-7.0413 0,-5.5235 3.1352,-9.8665 1.3092,-1.9395 3.0319,-3.4575 3.3076,-2.6565 9.9225,-6.0296 9.2679,-4.7645 12.9888,-8.3064 0.8613,-0.7589 3.3075,-3.4574 h -22.4979 q -3.1352,0 -4.7544,0.6746 -1.6538,0.7168 -2.584,2.5298 -0.9302,1.8132 -1.6194,5.4392 l -0.4823,2.7829 z"
       style="font-style:normal;font-variant:normal;font-weight:500;font-stretch:expanded;font-size:medium;line-height:125%;font-family:'Engravers MT';-inkscape-font-specification:'Engravers MT Medium Expanded';letter-spacing:0px;word-spacing:0px;fill:#e24d46;fill-opacity:1;stroke:none;stroke-width:1px;stroke-linecap:butt;stroke-linejoin:miter;stroke-opacity:1"
       id="path7528"
       inkscape:connector-curvature="0" />
    <path
       inkscape:connector-curvature="0"
       id="path7530"
       style="font-style:normal;font-variant:normal;font-weight:500;font-stretch:expanded;font-size:medium;line-height:125%;font-family:'Engravers MT';-inkscape-font-specification:'Engravers MT Medium Expanded';letter-spacing:0px;word-spacing:0px;fill:#e24d46;fill-opacity:1;stroke:none;stroke-width:1px;stroke-linecap:butt;stroke-linejoin:miter;stroke-opacity:1"
       d="m 1300,912.64235 3.4454,-22.6422 h 36.4858 q -0.2068,4.132 -3.6865,9.1496 -3.1009,4.343 -11.9208,12.1012 -4.8579,4.3851 -5.9259,5.5236 -0.2068,0.253 -0.4824,0.548 -0.2756,0.3374 -0.6201,0.759 -2.7562,3.4998 -3.9621,6.9572 -1.2058,3.4575 -1.2058,7.8004 0,7.4209 2.9973,11.3844 2.963,3.9634 8.441,3.9634 4.1344,0 7.6142,-2.0659 3.4797,-2.0661 5.478,-5.608 1.9983,-3.5418 1.9983,-7.7582 0,-4.5959 -1.6882,-4.5959 -0.6891,0 -0.7925,1.2226 -0.1377,1.012 -0.4823,2.0662 -0.9302,2.6142 -2.3428,3.7948 -1.4469,1.2228 -3.5831,1.2228 -1.7571,0 -3.1353,-0.9276 -1.4125,-0.9276 -2.1705,-2.6565 -0.758,-1.6865 -0.758,-3.7526 0,-2.3611 0.9993,-4.3006 0.9646,-1.8976 2.6528,-2.9939 1.6537,-1.0962 3.7553,-1.0962 3.8932,0 6.4083,3.2888 2.4806,3.2889 2.4806,8.3908 0,3.078 -0.9645,6.0295 -0.9993,2.9936 -2.8598,5.2705 -5.0301,6.2826 -15.5039,6.2826 -4.341,0 -8.0275,-1.3071 -3.6865,-1.265 -6.3394,-3.6684 -2.6528,-2.4033 -4.0654,-5.6501 -1.4126,-3.2466 -1.4126,-7.0413 0,-5.5235 3.1352,-9.8665 1.3092,-1.9395 3.0319,-3.4575 3.3076,-2.6565 9.9225,-6.0296 9.2679,-4.7645 12.9888,-8.3064 0.8613,-0.7589 3.3075,-3.4574 h -22.4979 q -3.1352,0 -4.7544,0.6746 -1.6538,0.7168 -2.584,2.5298 -0.9302,1.8132 -1.6194,5.4392 l -0.4823,2.7829 z" />
    <path
       inkscape:connector-curvature="0"
       id="path7972"
       d="m 1088.7714,303.13199 c -1.1781,-4.6684 -8.8121,-13.6918 -33.0211,-39.0304 -22.472,-23.5215 -25.2654,-27.1699 -28.1642,-36.7815 -3.6501,-12.1017 -3.4833,-17.6251 0.7994,-26.4294 4.1067,-8.4426 11.6557,-14.9726 20.4381,-17.6787 5.7803,-1.7809 10.2872,-1.6213 16.6549,0.5897 7.589,2.6353 11.7499,5.3135 18.8813,12.1541 3.5436,3.3995 6.5008,5.7662 6.7884,5.4325 11.7857,-13.6929 18.5575,-17.8974 30.0245,-18.6416 17.535,-1.1379 31.499,9.6386 33.525,25.8716 1.125,9.0334 -0.961,20.2696 -5.075,27.3297 -2.941,5.0463 -12.427,16.0199 -27.9,32.2752 -18.9608,19.9212 -26.868,28.8751 -29.8027,33.7461 l -2.4259,4.0274 z"
       style="fill:#e24d46;fill-opacity:1" />
    <path
       style="fill:#e24d46;fill-opacity:1"
       d="m 1088.7714,796.86138 c -1.1781,4.6684 -8.8121,13.6918 -33.0211,39.0304 -22.472,23.5215 -25.2654,27.1699 -28.1642,36.7815 -3.6501,12.1017 -3.4833,17.6251 0.7994,26.4294 4.1067,8.4426 11.6557,14.9726 20.4381,17.6787 5.7803,1.7809 10.2872,1.6213 16.6549,-0.5897 7.589,-2.6353 11.7499,-5.3135 18.8813,-12.1541 3.5436,-3.3995 6.5008,-5.7662 6.7884,-5.4325 11.7857,13.6929 18.5575,17.8974 30.0245,18.6416 17.535,1.1379 31.499,-9.6386 33.525,-25.8716 1.125,-9.0334 -0.961,-20.2696 -5.075,-27.3297 -2.941,-5.0463 -12.427,-16.0199 -27.9,-32.2752 -18.9608,-19.9212 -26.868,-28.8751 -29.8027,-33.7461 l -2.4259,-4.0274 z"
       id="path7976"
       inkscape:connector-curvature="0" />
    <path
       style="fill:#e24d46;fill-opacity:1"
       d="m 860.62205,290.28329 c -0.3625,-1.43063 -2.7115,-4.19587 -10.1604,-11.96092 -6.9145,-7.2082 -7.774,-8.32625 -8.6659,-11.27175 -1.1231,-3.70858 -1.0718,-5.40123 0.2459,-8.09933 1.2636,-2.58725 3.5864,-4.58837 6.2887,-5.41767 1.7785,-0.54576 3.1653,-0.49684 5.1245,0.18072 2.3352,0.80759 3.6155,1.62833 5.8098,3.72465 1.0902,1.04177 2.0002,1.76706 2.0887,1.66479 3.6264,-4.19621 5.71,-5.48469 9.2383,-5.71275 5.3953,-0.34871 9.692,2.95377 10.3153,7.92839 0.3462,2.7683 -0.2956,6.21166 -1.5615,8.37523 -0.9049,1.54645 -3.8237,4.90932 -8.5846,9.89079 -5.8341,6.10488 -8.267,8.84882 -9.1701,10.34155 l -0.7463,1.2342 z"
       id="path8016"
       inkscape:connector-curvature="0" />
    <path
       style="fill:#e24d46;fill-opacity:1"
       d="m 1318.619,290.28329 c -0.3625,-1.43063 -2.7115,-4.19587 -10.1604,-11.96092 -6.9145,-7.2082 -7.774,-8.32625 -8.6659,-11.27175 -1.1231,-3.70858 -1.0718,-5.40123 0.2459,-8.09933 1.2636,-2.58725 3.5864,-4.58837 6.2887,-5.41767 1.7785,-0.54576 3.1653,-0.49684 5.1245,0.18072 2.3352,0.80759 3.6155,1.62833 5.8098,3.72465 1.0902,1.04177 2.0002,1.76706 2.0887,1.66479 3.6264,-4.19621 5.71,-5.48469 9.2383,-5.71275 5.3953,-0.34871 9.692,2.95377 10.3153,7.92839 0.3462,2.7683 -0.2956,6.21166 -1.5615,8.37523 -0.9049,1.54645 -3.8237,4.90932 -8.5846,9.89079 -5.8341,6.10488 -8.267,8.84882 -9.1701,10.34155 l -0.7463,1.2342 z"
       id="path8018"
       inkscape:connector-curvature="0" />
    <path
       inkscape:connector-curvature="0"
       id="path8070"
       d="m 860.62205,809.8779 c -0.3625,1.43063 -2.7115,4.19587 -10.1604,11.96092 -6.9145,7.2082 -7.774,8.32625 -8.6659,11.27175 -1.1231,3.70858 -1.0718,5.40123 0.2459,8.09933 1.2636,2.58725 3.5864,4.58837 6.2887,5.41767 1.7785,0.54576 3.1653,0.49684 5.1245,-0.18072 2.3352,-0.80759 3.6155,-1.62833 5.8098,-3.72465 1.0902,-1.04177 2.0002,-1.76706 2.0887,-1.66479 3.6264,4.19621 5.71,5.48469 9.2383,5.71275 5.3953,0.34871 9.692,-2.95377 10.3153,-7.92839 0.3462,-2.7683 -0.2956,-6.21166 -1.5615,-8.37523 -0.9049,-1.54645 -3.8237,-4.90932 -8.5846,-9.89079 -5.8341,-6.10488 -8.267,-8.84882 -9.1701,-10.34155 L 860.84445,809 Z"
       style="fill:#e24d46;fill-opacity:1" />
    <path
       inkscape:connector-curvature="0"
       id="path8072"
       d="m 1318.619,809.8779 c -0.3625,1.43063 -2.7115,4.19587 -10.1604,11.96092 -6.9145,7.2082 -7.774,8.32625 -8.6659,11.27175 -1.1231,3.70858 -1.0718,5.40123 0.2459,8.09933 1.2636,2.58725 3.5864,4.58837 6.2887,5.41767 1.7785,0.54576 3.1653,0.49684 5.1245,-0.18072 2.3352,-0.80759 3.6155,-1.62833 5.8098,-3.72465 1.0902,-1.04177 2.0002,-1.76706 2.0887,-1.66479 3.6264,4.19621 5.71,5.48469 9.2383,5.71275 5.3953,0.34871 9.692,-2.95377 10.3153,-7.92839 0.3462,-2.7683 -0.2956,-6.21166 -1.5615,-8.37523 -0.9049,-1.54645 -3.8237,-4.90932 -8.5846,-9.89079 -5.8341,-6.10488 -8.267,-8.84882 -9.1701,-10.34155 L 1318.8414,809 Z"
       style="fill:#e24d46;fill-opacity:1" />
  </g>
</svg>
