<?xml version="1.0" encoding="UTF-8" standalone="no"?>
<!-- Created with Inkscape (http://www.inkscape.org/) -->

<svg
   id="svg10047"
   height="122.98924"
   width="78.998276"
   version="1.1"
   viewBox="0 0 78.998276 122.98924"
   inkscape:version="0.91 r13725"
   sodipodi:docname="franzoesisches-bild.svgz"
   xmlns:inkscape="http://www.inkscape.org/namespaces/inkscape"
   xmlns:sodipodi="http://sodipodi.sourceforge.net/DTD/sodipodi-0.dtd"
   xmlns="http://www.w3.org/2000/svg"
   xmlns:svg="http://www.w3.org/2000/svg"
   xmlns:rdf="http://www.w3.org/1999/02/22-rdf-syntax-ns#"
   xmlns:cc="http://creativecommons.org/ns#"
   xmlns:dc="http://purl.org/dc/elements/1.1/">
  <sodipodi:namedview
     pagecolor="#ffffff"
     bordercolor="#666666"
     borderopacity="1"
     objecttolerance="10"
     gridtolerance="10"
     guidetolerance="10"
     inkscape:pageopacity="0"
     inkscape:pageshadow="2"
     inkscape:window-width="1920"
     inkscape:window-height="1016"
     id="namedview1491"
     showgrid="false"
     inkscape:zoom="1.3479675"
     inkscape:cx="513.5"
     inkscape:cy="307.5"
     inkscape:window-x="0"
     inkscape:window-y="0"
     inkscape:window-maximized="1"
     inkscape:current-layer="svg10047"
     showguides="true"
     inkscape:guide-bbox="true"
     inkscape:snap-grids="true"
     inkscape:showpageshadow="2"
     inkscape:pagecheckerboard="0"
     inkscape:deskcolor="#d1d1d1" />
  <metadata
     id="metadata16869">
    <rdf:RDF>
      <cc:Work
         rdf:about="">
        <dc:format>image/svg+xml</dc:format>
        <dc:type
           rdf:resource="http://purl.org/dc/dcmitype/StillImage" />
        <dc:title />
      </cc:Work>
    </rdf:RDF>
  </metadata>
  <defs
     id="defs10049" />
  <g
     transform="matrix(0.13625087,0,0,0.13665483,-299.75191,-13.665587)"
     id="heart_4"
     inkscape:label="#heart_4">
    <rect
       width="577.80151"
       height="898.00061"
       rx="48.194115"
       ry="49.888187"
       x="2200.9993"
       y="101.00008"
       id="rect7475"
       style="font-style:normal;font-variant:normal;font-weight:500;font-stretch:normal;font-size:medium;line-height:125%;font-family:Gaelic;-inkscape-font-specification:'Gaelic Medium';letter-spacing:0px;word-spacing:0px;fill:#ffffff;fill-opacity:1;stroke:#000000;stroke-width:1.99863;stroke-linecap:butt;stroke-linejoin:miter;stroke-miterlimit:4;stroke-dasharray:none;stroke-opacity:1" />
    <path
       inkscape:connector-curvature="0"
       id="path7508"
       style="font-style:normal;font-variant:normal;font-weight:500;font-stretch:expanded;font-size:medium;line-height:125%;font-family:'Engravers MT';-inkscape-font-specification:'Engravers MT Medium Expanded';letter-spacing:0px;word-spacing:0px;fill:#e24d46;fill-opacity:1;stroke:none;stroke-width:1px;stroke-linecap:butt;stroke-linejoin:miter;stroke-opacity:1"
       d="m 2261.3885,160.79435 -19.8347,28.208 h 19.8347 z m 6.0165,-10.7942 h 2.5785 v 38.9179 H 2280 v 6.662 h -10.0165 v 3.2044 q 0,4.596 2.1156,7.1258 2.1158,2.53 5.8844,2.53 h 1.5537 v 1.5599 h -28.8926 v -1.5599 h 1.4215 q 3.2066,0 5.2893,-1.1385 2.0826,-1.1384 3.0413,-3.4997 0.9918,-2.4034 0.9918,-6.2403 v -1.9817 H 2240 v -6.662 z" />
    <path
       d="m 2721.3885,160.79435 -19.8347,28.208 h 19.8347 z m 6.0165,-10.7942 h 2.5785 v 38.9179 H 2740 v 6.662 h -10.0165 v 3.2044 q 0,4.596 2.1156,7.1258 2.1158,2.53 5.8844,2.53 h 1.5537 v 1.5599 h -28.8926 v -1.5599 h 1.4215 q 3.2066,0 5.2893,-1.1385 2.0826,-1.1384 3.0413,-3.4997 0.9918,-2.4034 0.9918,-6.2403 v -1.9817 H 2700 v -6.662 z"
       style="font-style:normal;font-variant:normal;font-weight:500;font-stretch:expanded;font-size:medium;line-height:125%;font-family:'Engravers MT';-inkscape-font-specification:'Engravers MT Medium Expanded';letter-spacing:0px;word-spacing:0px;fill:#e24d46;fill-opacity:1;stroke:none;stroke-width:1px;stroke-linecap:butt;stroke-linejoin:miter;stroke-opacity:1"
       id="path7510"
       inkscape:connector-curvature="0" />
    <path
       d="m 2258.6115,939.20595 19.8347,-28.208 h -19.8347 z m -6.0165,10.7942 h -2.5785 v -38.9179 H 2240 v -6.662 h 10.0165 v -3.2044 q 0,-4.596 -2.1156,-7.1258 -2.1158,-2.53 -5.8844,-2.53 h -1.5537 v -1.5599 h 28.8926 v 1.5599 h -1.4215 q -3.2066,0 -5.2893,1.1385 -2.0826,1.1384 -3.0413,3.4997 -0.9918,2.4034 -0.9918,6.2403 v 1.9817 H 2280 v 6.662 z"
       style="font-style:normal;font-variant:normal;font-weight:500;font-stretch:expanded;font-size:medium;line-height:125%;font-family:'Engravers MT';-inkscape-font-specification:'Engravers MT Medium Expanded';letter-spacing:0px;word-spacing:0px;fill:#e24d46;fill-opacity:1;stroke:none;stroke-width:1px;stroke-linecap:butt;stroke-linejoin:miter;stroke-opacity:1"
       id="path7512"
       inkscape:connector-curvature="0" />
    <path
       inkscape:connector-curvature="0"
       id="path7514"
       style="font-style:normal;font-variant:normal;font-weight:500;font-stretch:expanded;font-size:medium;line-height:125%;font-family:'Engravers MT';-inkscape-font-specification:'Engravers MT Medium Expanded';letter-spacing:0px;word-spacing:0px;fill:#e24d46;fill-opacity:1;stroke:none;stroke-width:1px;stroke-linecap:butt;stroke-linejoin:miter;stroke-opacity:1"
       d="m 2718.6115,939.20595 19.8347,-28.208 h -19.8347 z m -6.0165,10.7942 h -2.5785 v -38.9179 H 2700 v -6.662 h 10.0165 v -3.2044 q 0,-4.596 -2.1156,-7.1258 -2.1158,-2.53 -5.8844,-2.53 h -1.5537 v -1.5599 h 28.8926 v 1.5599 h -1.4215 q -3.2066,0 -5.2893,1.1385 -2.0826,1.1384 -3.0413,3.4997 -0.9918,2.4034 -0.9918,6.2403 v 1.9817 H 2740 v 6.662 z" />
    <path
       style="fill:#e24d46;fill-opacity:1"
       d="m 2373.7714,303.13199 c -1.1781,-4.6684 -8.8121,-13.6918 -33.0211,-39.0304 -22.472,-23.5215 -25.2654,-27.1699 -28.1642,-36.7815 -3.6501,-12.1017 -3.4833,-17.6251 0.7994,-26.4294 4.1067,-8.4426 11.6557,-14.9726 20.4381,-17.6787 5.7803,-1.7809 10.2872,-1.6213 16.6549,0.5897 7.589,2.6353 11.7499,5.3135 18.8813,12.1541 3.5436,3.3995 6.5008,5.7662 6.7884,5.4325 11.7857,-13.6929 18.5575,-17.8974 30.0245,-18.6416 17.535,-1.1379 31.499,9.6386 33.525,25.8716 1.125,9.0334 -0.961,20.2696 -5.075,27.3297 -2.941,5.0463 -12.427,16.0199 -27.9,32.2752 -18.9608,19.9212 -26.868,28.8751 -29.8027,33.7461 l -2.4259,4.0274 z"
       id="path7914"
       inkscape:connector-curvature="0" />
    <path
       inkscape:connector-curvature="0"
       id="path7916"
       d="m 2603.7714,303.13199 c -1.1781,-4.6684 -8.8121,-13.6918 -33.0211,-39.0304 -22.472,-23.5215 -25.2654,-27.1699 -28.1642,-36.7815 -3.6501,-12.1017 -3.4833,-17.6251 0.7994,-26.4294 4.1067,-8.4426 11.6557,-14.9726 20.4381,-17.6787 5.7803,-1.7809 10.2872,-1.6213 16.6549,0.5897 7.589,2.6353 11.7499,5.3135 18.8813,12.1541 3.5436,3.3995 6.5008,5.7662 6.7884,5.4325 11.7857,-13.6929 18.5575,-17.8974 30.0245,-18.6416 17.535,-1.1379 31.499,9.6386 33.525,25.8716 1.125,9.0334 -0.961,20.2696 -5.075,27.3297 -2.941,5.0463 -12.427,16.0199 -27.9,32.2752 -18.9608,19.9212 -26.868,28.8751 -29.8027,33.7461 l -2.4259,4.0274 z"
       style="fill:#e24d46;fill-opacity:1" />
    <path
       inkscape:connector-curvature="0"
       id="path7920"
       d="m 2373.7714,796.86138 c -1.1781,4.6684 -8.8121,13.6918 -33.0211,39.0304 -22.472,23.5215 -25.2654,27.1699 -28.1642,36.7815 -3.6501,12.1017 -3.4833,17.6251 0.7994,26.4294 4.1067,8.4426 11.6557,14.9726 20.4381,17.6787 5.7803,1.7809 10.2872,1.6213 16.6549,-0.5897 7.589,-2.6353 11.7499,-5.3135 18.8813,-12.1541 3.5436,-3.3995 6.5008,-5.7662 6.7884,-5.4325 11.7857,13.6929 18.5575,17.8974 30.0245,18.6416 17.535,1.1379 31.499,-9.6386 33.525,-25.8716 1.125,-9.0334 -0.961,-20.2696 -5.075,-27.3297 -2.941,-5.0463 -12.427,-16.0199 -27.9,-32.2752 -18.9608,-19.9212 -26.868,-28.8751 -29.8027,-33.7461 l -2.4259,-4.0274 z"
       style="fill:#e24d46;fill-opacity:1" />
    <path
       style="fill:#e24d46;fill-opacity:1"
       d="m 2603.7714,796.86138 c -1.1781,4.6684 -8.8121,13.6918 -33.0211,39.0304 -22.472,23.5215 -25.2654,27.1699 -28.1642,36.7815 -3.6501,12.1017 -3.4833,17.6251 0.7994,26.4294 4.1067,8.4426 11.6557,14.9726 20.4381,17.6787 5.7803,1.7809 10.2872,1.6213 16.6549,-0.5897 7.589,-2.6353 11.7499,-5.3135 18.8813,-12.1541 3.5436,-3.3995 6.5008,-5.7662 6.7884,-5.4325 11.7857,13.6929 18.5575,17.8974 30.0245,18.6416 17.535,1.1379 31.499,-9.6386 33.525,-25.8716 1.125,-9.0334 -0.961,-20.2696 -5.075,-27.3297 -2.941,-5.0463 -12.427,-16.0199 -27.9,-32.2752 -18.9608,-19.9212 -26.868,-28.8751 -29.8027,-33.7461 l -2.4259,-4.0274 z"
       id="path7922"
       inkscape:connector-curvature="0" />
    <path
       style="fill:#e24d46;fill-opacity:1"
       d="m 2260.622,290.28329 c -0.3625,-1.43063 -2.7115,-4.19587 -10.1604,-11.96092 -6.9145,-7.2082 -7.774,-8.32625 -8.6659,-11.27175 -1.1231,-3.70858 -1.0718,-5.40123 0.2459,-8.09933 1.2636,-2.58725 3.5864,-4.58837 6.2887,-5.41767 1.7785,-0.54576 3.1653,-0.49684 5.1245,0.18072 2.3352,0.80759 3.6155,1.62833 5.8098,3.72465 1.0902,1.04177 2.0002,1.76706 2.0887,1.66479 3.6264,-4.19621 5.71,-5.48469 9.2383,-5.71275 5.3953,-0.34871 9.692,2.95377 10.3153,7.92839 0.3462,2.7683 -0.2956,6.21166 -1.5615,8.37523 -0.9049,1.54645 -3.8237,4.90932 -8.5846,9.89079 -5.8341,6.10488 -8.267,8.84882 -9.1701,10.34155 l -0.7463,1.2342 z"
       id="path8008"
       inkscape:connector-curvature="0" />
    <path
       style="fill:#e24d46;fill-opacity:1"
       d="m 2718.619,290.28329 c -0.3625,-1.43063 -2.7115,-4.19587 -10.1604,-11.96092 -6.9145,-7.2082 -7.774,-8.32625 -8.6659,-11.27175 -1.1231,-3.70858 -1.0718,-5.40123 0.2459,-8.09933 1.2636,-2.58725 3.5864,-4.58837 6.2887,-5.41767 1.7785,-0.54576 3.1653,-0.49684 5.1245,0.18072 2.3352,0.80759 3.6155,1.62833 5.8098,3.72465 1.0902,1.04177 2.0002,1.76706 2.0887,1.66479 3.6264,-4.19621 5.71,-5.48469 9.2383,-5.71275 5.3953,-0.34871 9.692,2.95377 10.3153,7.92839 0.3462,2.7683 -0.2956,6.21166 -1.5615,8.37523 -0.9049,1.54645 -3.8237,4.90932 -8.5846,9.89079 -5.8341,6.10488 -8.267,8.84882 -9.1701,10.34155 l -0.7463,1.2342 z"
       id="path8010"
       inkscape:connector-curvature="0" />
    <path
       inkscape:connector-curvature="0"
       id="path8062"
       d="m 2260.622,809.8779 c -0.3625,1.43063 -2.7115,4.19587 -10.1604,11.96092 -6.9145,7.2082 -7.774,8.32625 -8.6659,11.27175 -1.1231,3.70858 -1.0718,5.40123 0.2459,8.09933 1.2636,2.58725 3.5864,4.58837 6.2887,5.41767 1.7785,0.54576 3.1653,0.49684 5.1245,-0.18072 2.3352,-0.80759 3.6155,-1.62833 5.8098,-3.72465 1.0902,-1.04177 2.0002,-1.76706 2.0887,-1.66479 3.6264,4.19621 5.71,5.48469 9.2383,5.71275 5.3953,0.34871 9.692,-2.95377 10.3153,-7.92839 0.3462,-2.7683 -0.2956,-6.21166 -1.5615,-8.37523 -0.9049,-1.54645 -3.8237,-4.90932 -8.5846,-9.89079 -5.8341,-6.10488 -8.267,-8.84882 -9.1701,-10.34155 L 2260.8444,809 Z"
       style="fill:#e24d46;fill-opacity:1" />
    <path
       inkscape:connector-curvature="0"
       id="path8064"
       d="m 2718.619,809.8779 c -0.3625,1.43063 -2.7115,4.19587 -10.1604,11.96092 -6.9145,7.2082 -7.774,8.32625 -8.6659,11.27175 -1.1231,3.70858 -1.0718,5.40123 0.2459,8.09933 1.2636,2.58725 3.5864,4.58837 6.2887,5.41767 1.7785,0.54576 3.1653,0.49684 5.1245,-0.18072 2.3352,-0.80759 3.6155,-1.62833 5.8098,-3.72465 1.0902,-1.04177 2.0002,-1.76706 2.0887,-1.66479 3.6264,4.19621 5.71,5.48469 9.2383,5.71275 5.3953,0.34871 9.692,-2.95377 10.3153,-7.92839 0.3462,-2.7683 -0.2956,-6.21166 -1.5615,-8.37523 -0.9049,-1.54645 -3.8237,-4.90932 -8.5846,-9.89079 -5.8341,-6.10488 -8.267,-8.84882 -9.1701,-10.34155 L 2718.8414,809 Z"
       style="fill:#e24d46;fill-opacity:1" />
  </g>
</svg>
