<?xml version="1.0" encoding="UTF-8" standalone="no"?>
<!-- Created with Inkscape (http://www.inkscape.org/) -->

<svg
   id="svg10047"
   height="123.00265"
   width="78.998276"
   version="1.1"
   viewBox="0 0 78.998276 123.00265"
   inkscape:version="0.91 r13725"
   sodipodi:docname="franzoesisches-bild.svgz"
   xmlns:inkscape="http://www.inkscape.org/namespaces/inkscape"
   xmlns:sodipodi="http://sodipodi.sourceforge.net/DTD/sodipodi-0.dtd"
   xmlns="http://www.w3.org/2000/svg"
   xmlns:svg="http://www.w3.org/2000/svg"
   xmlns:rdf="http://www.w3.org/1999/02/22-rdf-syntax-ns#"
   xmlns:cc="http://creativecommons.org/ns#"
   xmlns:dc="http://purl.org/dc/elements/1.1/">
  <sodipodi:namedview
     pagecolor="#ffffff"
     bordercolor="#666666"
     borderopacity="1"
     objecttolerance="10"
     gridtolerance="10"
     guidetolerance="10"
     inkscape:pageopacity="0"
     inkscape:pageshadow="2"
     inkscape:window-width="1920"
     inkscape:window-height="1016"
     id="namedview1491"
     showgrid="false"
     inkscape:zoom="1.3479675"
     inkscape:cx="513.5"
     inkscape:cy="307.5"
     inkscape:window-x="0"
     inkscape:window-y="0"
     inkscape:window-maximized="1"
     inkscape:current-layer="svg10047"
     showguides="true"
     inkscape:guide-bbox="true"
     inkscape:snap-grids="true"
     inkscape:showpageshadow="2"
     inkscape:pagecheckerboard="0"
     inkscape:deskcolor="#d1d1d1" />
  <metadata
     id="metadata16869">
    <rdf:RDF>
      <cc:Work
         rdf:about="">
        <dc:format>image/svg+xml</dc:format>
        <dc:type
           rdf:resource="http://purl.org/dc/dcmitype/StillImage" />
        <dc:title />
      </cc:Work>
    </rdf:RDF>
  </metadata>
  <defs
     id="defs10049" />
  <g
     transform="matrix(0.13625087,0,0,0.13666972,-585.87877,-423.67623)"
     id="spade_7"
     inkscape:label="#spade_7">
    <rect
       style="font-style:normal;font-variant:normal;font-weight:500;font-stretch:normal;font-size:medium;line-height:125%;font-family:Gaelic;-inkscape-font-specification:'Gaelic Medium';letter-spacing:0px;word-spacing:0px;fill:#ffffff;fill-opacity:1;stroke:#000000;stroke-width:1.99863;stroke-linecap:butt;stroke-linejoin:miter;stroke-miterlimit:4;stroke-dasharray:none;stroke-opacity:1"
       id="rect6846"
       y="3101"
       x="4300.9995"
       ry="49.888187"
       rx="48.194115"
       height="898.00061"
       width="577.80151" />
    <path
       inkscape:connector-curvature="0"
       id="path6850"
       d="m 4450.2577,3315.8537 c 0.7544,-1.2579 4.2655,-6.7773 7.8023,-12.2653 8.687,-13.4786 16.5862,-37.8389 12.2694,-37.8389 -0.5571,0 -4.1797,2.8571 -8.0518,6.3492 -9.4136,8.4917 -18.2677,10.912 -29.8908,8.1708 -15.0251,-3.5437 -24.9679,-19.506 -21.7966,-34.9957 2.8692,-14.0141 15.5766,-30.3874 32.3712,-41.7092 8.3081,-5.601 30.0958,-28.7809 30.0958,-32.0193 0,-0.8499 0.7711,-1.5453 1.7149,-1.5453 1.1131,0 1.7137,25.204 1.7137,71.999 v 71.9989 l -11.9017,2.0714 c -15.0328,2.6164 -16.0145,2.6016 -14.3264,-0.2156 z"
       style="fill:#1b1b1b" />
    <path
       style="fill:#1b1b1b"
       d="m 4499.7422,3315.8537 c -0.7544,-1.2579 -4.2655,-6.7773 -7.8023,-12.2653 -8.687,-13.4786 -16.5862,-37.8389 -12.2694,-37.8389 0.5571,0 4.1797,2.8571 8.0518,6.3492 9.4135,8.4917 18.2677,10.912 29.8908,8.1708 15.0251,-3.5437 24.9679,-19.506 21.7966,-34.9957 -2.8693,-14.0141 -15.5766,-30.3874 -32.3712,-41.7092 -8.3081,-5.601 -30.0958,-28.7809 -30.0958,-32.0193 0,-0.8499 -0.7711,-1.5453 -1.7149,-1.5453 -1.1132,0 -1.7138,25.204 -1.7138,71.999 v 71.9989 l 11.9018,2.0714 c 15.0328,2.6164 16.0145,2.6016 14.3264,-0.2156 z"
       id="path6852"
       inkscape:connector-curvature="0" />
    <path
       style="fill:#1b1b1b"
       d="m 4565.2577,3468.8537 c 0.7544,-1.2579 4.2655,-6.7773 7.8023,-12.2653 8.687,-13.4786 16.5862,-37.8389 12.2694,-37.8389 -0.5571,0 -4.1797,2.8571 -8.0518,6.3492 -9.4136,8.4917 -18.2677,10.912 -29.8908,8.1708 -15.0251,-3.5437 -24.9679,-19.506 -21.7966,-34.9957 2.8692,-14.0141 15.5766,-30.3874 32.3712,-41.7092 8.3081,-5.601 30.0958,-28.7809 30.0958,-32.0193 0,-0.8499 0.7711,-1.5453 1.7149,-1.5453 1.1131,0 1.7137,25.204 1.7137,71.999 v 71.9989 l -11.9017,2.0714 c -15.0328,2.6164 -16.0145,2.6016 -14.3264,-0.2156 z"
       id="path6856"
       inkscape:connector-curvature="0" />
    <path
       inkscape:connector-curvature="0"
       id="path6858"
       d="m 4614.7422,3468.8537 c -0.7544,-1.2579 -4.2655,-6.7773 -7.8023,-12.2653 -8.687,-13.4786 -16.5862,-37.8389 -12.2694,-37.8389 0.5571,0 4.1797,2.8571 8.0518,6.3492 9.4135,8.4917 18.2677,10.912 29.8908,8.1708 15.0251,-3.5437 24.9679,-19.506 21.7966,-34.9957 -2.8693,-14.0141 -15.5766,-30.3874 -32.3712,-41.7092 -8.3081,-5.601 -30.0958,-28.7809 -30.0958,-32.0193 0,-0.8499 -0.7711,-1.5453 -1.7149,-1.5453 -1.1132,0 -1.7138,25.204 -1.7138,71.999 v 71.9989 l 11.9018,2.0714 c 15.0328,2.6164 16.0145,2.6016 14.3264,-0.2156 z"
       style="fill:#1b1b1b" />
    <path
       style="fill:#1b1b1b"
       d="m 4450.2577,3621.8537 c 0.7544,-1.2579 4.2655,-6.7773 7.8023,-12.2653 8.687,-13.4786 16.5862,-37.8389 12.2694,-37.8389 -0.5571,0 -4.1797,2.8571 -8.0518,6.3492 -9.4136,8.4917 -18.2677,10.912 -29.8908,8.1708 -15.0251,-3.5437 -24.9679,-19.506 -21.7966,-34.9957 2.8692,-14.0141 15.5766,-30.3874 32.3712,-41.7092 8.3081,-5.601 30.0958,-28.7809 30.0958,-32.0193 0,-0.8499 0.7711,-1.5453 1.7149,-1.5453 1.1131,0 1.7137,25.204 1.7137,71.999 v 71.9989 l -11.9017,2.0714 c -15.0328,2.6164 -16.0145,2.6016 -14.3264,-0.2156 z"
       id="path6862"
       inkscape:connector-curvature="0" />
    <path
       inkscape:connector-curvature="0"
       id="path6864"
       d="m 4499.7422,3621.8537 c -0.7544,-1.2579 -4.2655,-6.7773 -7.8023,-12.2653 -8.687,-13.4786 -16.5862,-37.8389 -12.2694,-37.8389 0.5571,0 4.1797,2.8571 8.0518,6.3492 9.4135,8.4917 18.2677,10.912 29.8908,8.1708 15.0251,-3.5437 24.9679,-19.506 21.7966,-34.9957 -2.8693,-14.0141 -15.5766,-30.3874 -32.3712,-41.7092 -8.3081,-5.601 -30.0958,-28.7809 -30.0958,-32.0193 0,-0.8499 -0.7711,-1.5453 -1.7149,-1.5453 -1.1132,0 -1.7138,25.204 -1.7138,71.999 v 71.9989 l 11.9018,2.0714 c 15.0328,2.6164 16.0145,2.6016 14.3264,-0.2156 z"
       style="fill:#1b1b1b" />
    <path
       style="fill:#1b1b1b"
       d="m 4729.7424,3784.1463 c -0.7544,1.2579 -4.2655,6.7773 -7.8023,12.2653 -8.687,13.4786 -16.5862,37.8389 -12.2694,37.8389 0.5571,0 4.1797,-2.8571 8.0518,-6.3492 9.4136,-8.4917 18.2677,-10.912 29.8908,-8.1708 15.0251,3.5437 24.9679,19.506 21.7966,34.9957 -2.8692,14.0141 -15.5766,30.3874 -32.3712,41.7092 -8.3081,5.601 -30.0958,28.7809 -30.0958,32.0193 0,0.8499 -0.7711,1.5453 -1.7149,1.5453 -1.1131,0 -1.7137,-25.204 -1.7137,-71.999 v -71.9989 l 11.9017,-2.0714 c 15.0328,-2.6164 16.0145,-2.6016 14.3264,0.2156 z"
       id="path6868"
       inkscape:connector-curvature="0" />
    <path
       inkscape:connector-curvature="0"
       id="path6870"
       d="m 4680.2579,3784.1463 c 0.7544,1.2579 4.2655,6.7773 7.8023,12.2653 8.687,13.4786 16.5862,37.8389 12.2694,37.8389 -0.5571,0 -4.1797,-2.8571 -8.0518,-6.3492 -9.4135,-8.4917 -18.2677,-10.912 -29.8908,-8.1708 -15.0251,3.5437 -24.9679,19.506 -21.7966,34.9957 2.8693,14.0141 15.5766,30.3874 32.3712,41.7092 8.3081,5.601 30.0958,28.7809 30.0958,32.0193 0,0.8499 0.7711,1.5453 1.7149,1.5453 1.1132,0 1.7138,-25.204 1.7138,-71.999 v -71.9989 l -11.9018,-2.0714 c -15.0328,-2.6164 -16.0145,-2.6016 -14.3264,0.2156 z"
       style="fill:#1b1b1b" />
    <path
       inkscape:connector-curvature="0"
       id="path6874"
       d="m 4729.7424,3315.8537 c -0.7544,-1.2579 -4.2655,-6.7773 -7.8023,-12.2653 -8.687,-13.4786 -16.5862,-37.8389 -12.2694,-37.8389 0.5571,0 4.1797,2.8571 8.0518,6.3492 9.4136,8.4917 18.2677,10.912 29.8908,8.1708 15.0251,-3.5437 24.9679,-19.506 21.7966,-34.9957 -2.8692,-14.0141 -15.5766,-30.3874 -32.3712,-41.7092 -8.3081,-5.601 -30.0958,-28.7809 -30.0958,-32.0193 0,-0.8499 -0.7711,-1.5453 -1.7149,-1.5453 -1.1131,0 -1.7137,25.204 -1.7137,71.999 v 71.9989 l 11.9017,2.0714 c 15.0328,2.6164 16.0145,2.6016 14.3264,-0.2156 z"
       style="fill:#1b1b1b" />
    <path
       style="fill:#1b1b1b"
       d="m 4680.2579,3315.8537 c 0.7544,-1.2579 4.2655,-6.7773 7.8023,-12.2653 8.687,-13.4786 16.5862,-37.8389 12.2694,-37.8389 -0.5571,0 -4.1797,2.8571 -8.0518,6.3492 -9.4135,8.4917 -18.2677,10.912 -29.8908,8.1708 -15.0251,-3.5437 -24.9679,-19.506 -21.7966,-34.9957 2.8693,-14.0141 15.5766,-30.3874 32.3712,-41.7092 8.3081,-5.601 30.0958,-28.7809 30.0958,-32.0193 0,-0.8499 0.7711,-1.5453 1.7149,-1.5453 1.1132,0 1.7138,25.204 1.7138,71.999 v 71.9989 l -11.9018,2.0714 c -15.0328,2.6164 -16.0145,2.6016 -14.3264,-0.2156 z"
       id="path6876"
       inkscape:connector-curvature="0" />
    <path
       style="fill:#1b1b1b"
       d="m 4729.7424,3621.8537 c -0.7544,-1.2579 -4.2655,-6.7773 -7.8023,-12.2653 -8.687,-13.4786 -16.5862,-37.8389 -12.2694,-37.8389 0.5571,0 4.1797,2.8571 8.0518,6.3492 9.4136,8.4918 18.2677,10.912 29.8908,8.1708 15.0251,-3.5437 24.9679,-19.506 21.7966,-34.9957 -2.8692,-14.0141 -15.5766,-30.3874 -32.3712,-41.7092 -8.3081,-5.601 -30.0958,-28.7809 -30.0958,-32.0192 0,-0.85 -0.7711,-1.5454 -1.7149,-1.5454 -1.1131,0 -1.7137,25.204 -1.7137,71.999 v 71.9989 l 11.9017,2.0714 c 15.0328,2.6164 16.0145,2.6016 14.3264,-0.2156 z"
       id="path6880"
       inkscape:connector-curvature="0" />
    <path
       inkscape:connector-curvature="0"
       id="path6882"
       d="m 4680.2579,3621.8537 c 0.7544,-1.2579 4.2655,-6.7773 7.8023,-12.2653 8.687,-13.4786 16.5862,-37.8389 12.2694,-37.8389 -0.5571,0 -4.1797,2.8571 -8.0518,6.3492 -9.4135,8.4918 -18.2677,10.912 -29.8908,8.1708 -15.0251,-3.5437 -24.9679,-19.506 -21.7966,-34.9957 2.8693,-14.0141 15.5766,-30.3874 32.3712,-41.7092 8.3081,-5.601 30.0958,-28.7809 30.0958,-32.0192 0,-0.85 0.7711,-1.5454 1.7149,-1.5454 1.1132,0 1.7138,25.204 1.7138,71.999 v 71.9989 l -11.9018,2.0714 c -15.0328,2.6164 -16.0145,2.6016 -14.3264,-0.2156 z"
       style="fill:#1b1b1b" />
    <path
       inkscape:connector-curvature="0"
       id="path6886"
       d="m 4499.7424,3784.1463 c -0.7544,1.2579 -4.2655,6.7773 -7.8023,12.2653 -8.687,13.4786 -16.5862,37.8389 -12.2694,37.8389 0.5571,0 4.1797,-2.8571 8.0518,-6.3492 9.4136,-8.4917 18.2677,-10.912 29.8908,-8.1708 15.0251,3.5437 24.9679,19.506 21.7966,34.9957 -2.8692,14.0141 -15.5766,30.3874 -32.3712,41.7092 -8.3081,5.601 -30.0958,28.7809 -30.0958,32.0193 0,0.8499 -0.7711,1.5453 -1.7149,1.5453 -1.1131,0 -1.7137,-25.204 -1.7137,-71.999 v -71.9989 l 11.9017,-2.0714 c 15.0328,-2.6164 16.0145,-2.6016 14.3264,0.2156 z"
       style="fill:#1b1b1b" />
    <path
       style="fill:#1b1b1b"
       d="m 4450.2579,3784.1463 c 0.7544,1.2579 4.2655,6.7773 7.8023,12.2653 8.687,13.4786 16.5862,37.8389 12.2694,37.8389 -0.5571,0 -4.1797,-2.8571 -8.0518,-6.3492 -9.4135,-8.4917 -18.2677,-10.912 -29.8908,-8.1708 -15.0251,3.5437 -24.9679,19.506 -21.7966,34.9957 2.8693,14.0141 15.5766,30.3874 32.3712,41.7092 8.3081,5.601 30.0958,28.7809 30.0958,32.0193 0,0.8499 0.7711,1.5453 1.7149,1.5453 1.1132,0 1.7138,-25.204 1.7138,-71.999 v -71.9989 l -11.9018,-2.0714 c -15.0328,-2.6164 -16.0145,-2.6016 -14.3264,0.2156 z"
       id="path6888"
       inkscape:connector-curvature="0" />
    <path
       inkscape:connector-curvature="0"
       id="path6890"
       d="m 4352.3866,3295.3329 c 0.2321,-0.391 1.3125,-2.1065 2.4007,-3.8122 2.6729,-4.1893 5.1035,-11.7607 3.7752,-11.7607 -0.1714,0 -1.286,0.888 -2.4775,1.9734 -2.8964,2.6393 -5.6208,3.3915 -9.1971,2.5395 -4.6231,-1.1014 -7.6825,-6.0627 -6.7067,-10.877 0.8829,-4.3558 4.7928,-9.4448 9.9604,-12.9637 2.5563,-1.7408 9.2602,-8.9454 9.2602,-9.9519 0,-0.2642 0.2373,-0.4803 0.5277,-0.4803 0.3425,0 0.5273,7.8337 0.5273,22.378 v 22.3781 l -3.6621,0.6438 c -4.6255,0.8132 -4.9275,0.8086 -4.4081,-0.067 z"
       style="fill:#1b1b1b" />
    <path
       style="fill:#1b1b1b"
       d="m 4367.6126,3295.3329 c -0.2321,-0.391 -1.3125,-2.1065 -2.4007,-3.8122 -2.6729,-4.1893 -5.1034,-11.7607 -3.7752,-11.7607 0.1714,0 1.2861,0.888 2.4775,1.9734 2.8965,2.6393 5.6208,3.3915 9.1972,2.5395 4.6231,-1.1014 7.6824,-6.0627 6.7066,-10.877 -0.8829,-4.3558 -4.7928,-9.4448 -9.9604,-12.9637 -2.5563,-1.7408 -9.2602,-8.9454 -9.2602,-9.9519 0,-0.2642 -0.2373,-0.4803 -0.5277,-0.4803 -0.3425,0 -0.5273,7.8337 -0.5273,22.378 v 22.3781 l 3.6621,0.6438 c 4.6255,0.8132 4.9275,0.8086 4.4081,-0.067 z"
       id="path6892"
       inkscape:connector-curvature="0" />
    <path
       style="fill:#1b1b1b"
       d="m 4827.6126,3804.6677 c -0.2321,0.391 -1.3125,2.1065 -2.4007,3.8122 -2.6729,4.1893 -5.1035,11.7607 -3.7752,11.7607 0.1714,0 1.286,-0.888 2.4775,-1.9734 2.8964,-2.6393 5.6208,-3.3915 9.1971,-2.5395 4.6231,1.1014 7.6825,6.0627 6.7067,10.877 -0.8829,4.3558 -4.7928,9.4448 -9.9604,12.9637 -2.5563,1.7408 -9.2602,8.9454 -9.2602,9.9519 0,0.2642 -0.2373,0.4803 -0.5277,0.4803 -0.3425,0 -0.5273,-7.8337 -0.5273,-22.378 v -22.3781 l 3.6621,-0.6438 c 4.6255,-0.8132 4.9275,-0.8086 4.4081,0.067 z"
       id="path6894"
       inkscape:connector-curvature="0" />
    <path
       inkscape:connector-curvature="0"
       id="path6896"
       d="m 4812.3866,3804.6677 c 0.2321,0.391 1.3125,2.1065 2.4007,3.8122 2.6729,4.1893 5.1034,11.7607 3.7752,11.7607 -0.1714,0 -1.2861,-0.888 -2.4775,-1.9734 -2.8965,-2.6393 -5.6208,-3.3915 -9.1972,-2.5395 -4.6231,1.1014 -7.6824,6.0627 -6.7066,10.877 0.8829,4.3558 4.7928,9.4448 9.9604,12.9637 2.5563,1.7408 9.2602,8.9454 9.2602,9.9519 0,0.2642 0.2373,0.4803 0.5277,0.4803 0.3425,0 0.5273,-7.8337 0.5273,-22.378 v -22.3781 l -3.6621,-0.6438 c -4.6255,-0.8132 -4.9275,-0.8086 -4.4081,0.067 z"
       style="fill:#1b1b1b" />
    <path
       style="fill:#1b1b1b"
       d="m 4812.3866,3295.3329 c 0.2321,-0.391 1.3125,-2.1065 2.4007,-3.8122 2.6729,-4.1893 5.1035,-11.7607 3.7752,-11.7607 -0.1714,0 -1.286,0.888 -2.4775,1.9734 -2.8964,2.6393 -5.6208,3.3915 -9.1971,2.5395 -4.6231,-1.1014 -7.6825,-6.0627 -6.7067,-10.877 0.8829,-4.3558 4.7928,-9.4448 9.9604,-12.9637 2.5563,-1.7408 9.2602,-8.9454 9.2602,-9.9519 0,-0.2642 0.2373,-0.4803 0.5277,-0.4803 0.3425,0 0.5273,7.8337 0.5273,22.378 v 22.3781 l -3.6621,0.6438 c -4.6255,0.8132 -4.9275,0.8086 -4.4081,-0.067 z"
       id="path6900"
       inkscape:connector-curvature="0" />
    <path
       inkscape:connector-curvature="0"
       id="path6902"
       d="m 4827.6126,3295.3329 c -0.2321,-0.391 -1.3125,-2.1065 -2.4007,-3.8122 -2.6729,-4.1893 -5.1034,-11.7607 -3.7752,-11.7607 0.1714,0 1.2861,0.888 2.4775,1.9734 2.8965,2.6393 5.6208,3.3915 9.1972,2.5395 4.6231,-1.1014 7.6824,-6.0627 6.7066,-10.877 -0.8829,-4.3558 -4.7928,-9.4448 -9.9604,-12.9637 -2.5563,-1.7408 -9.2602,-8.9454 -9.2602,-9.9519 0,-0.2642 -0.2373,-0.4803 -0.5277,-0.4803 -0.3425,0 -0.5273,7.8337 -0.5273,22.378 v 22.3781 l 3.6621,0.6438 c 4.6255,0.8132 4.9275,0.8086 4.4081,-0.067 z"
       style="fill:#1b1b1b" />
    <path
       inkscape:connector-curvature="0"
       id="path6904"
       d="m 4367.6126,3804.6677 c -0.2321,0.391 -1.3125,2.1065 -2.4007,3.8122 -2.6729,4.1893 -5.1035,11.7607 -3.7752,11.7607 0.1714,0 1.286,-0.888 2.4775,-1.9734 2.8964,-2.6393 5.6208,-3.3915 9.1971,-2.5395 4.6231,1.1014 7.6825,6.0627 6.7067,10.877 -0.8829,4.3558 -4.7928,9.4448 -9.9604,12.9637 -2.5563,1.7408 -9.2602,8.9454 -9.2602,9.9519 0,0.2642 -0.2373,0.4803 -0.5277,0.4803 -0.3425,0 -0.5273,-7.8337 -0.5273,-22.378 v -22.3781 l 3.6621,-0.6438 c 4.6255,-0.8132 4.9275,-0.8086 4.4081,0.067 z"
       style="fill:#1b1b1b" />
    <path
       style="fill:#1b1b1b"
       d="m 4352.3866,3804.6677 c 0.2321,0.391 1.3125,2.1065 2.4007,3.8122 2.6729,4.1893 5.1034,11.7607 3.7752,11.7607 -0.1714,0 -1.2861,-0.888 -2.4775,-1.9734 -2.8965,-2.6393 -5.6208,-3.3915 -9.1972,-2.5395 -4.6231,1.1014 -7.6824,6.0627 -6.7066,10.877 0.8829,4.3558 4.7928,9.4448 9.9604,12.9637 2.5563,1.7408 9.2602,8.9454 9.2602,9.9519 0,0.2642 0.2373,0.4803 0.5277,0.4803 0.3425,0 0.5273,-7.8337 0.5273,-22.378 v -22.3781 l -3.6621,-0.6438 c -4.6255,-0.8132 -4.9275,-0.8086 -4.4081,0.067 z"
       id="path6906"
       inkscape:connector-curvature="0" />
    <path
       d="m 4380,3150 v 1.5869 l -1.0432,1.93 q -3.3812,6.476 -5.5395,11.1937 -2.1583,4.6747 -3.7411,9.2209 -1.5467,4.5032 -3.0215,10.0786 -2.1944,8.5775 -3.7411,17.1122 -0.7554,4.6319 -1.1151,8.8777 h -11.7625 q 0.8272,-5.1893 2.1223,-8.7919 1.7985,-4.975 3.4532,-8.3203 5.5036,-11.2794 13.9209,-24.789 l 4.2805,-6.8622 h -22.2302 q -3.7051,0 -5.7195,1.1151 -1.9783,1.0722 -3.0214,3.8171 -1.0073,2.7018 -1.5829,8.1916 H 4340 L 4342.446,3150 Z"
       style="font-style:normal;font-variant:normal;font-weight:500;font-stretch:expanded;font-size:medium;line-height:125%;font-family:'Engravers MT';-inkscape-font-specification:'Engravers MT Medium Expanded';letter-spacing:0px;word-spacing:0px;fill:#000000;fill-opacity:1;stroke:none;stroke-width:1px;stroke-linecap:butt;stroke-linejoin:miter;stroke-opacity:1"
       id="path6495"
       inkscape:connector-curvature="0" />
    <path
       inkscape:connector-curvature="0"
       id="path7376"
       style="font-style:normal;font-variant:normal;font-weight:500;font-stretch:expanded;font-size:medium;line-height:125%;font-family:'Engravers MT';-inkscape-font-specification:'Engravers MT Medium Expanded';letter-spacing:0px;word-spacing:0px;fill:#000000;fill-opacity:1;stroke:none;stroke-width:1px;stroke-linecap:butt;stroke-linejoin:miter;stroke-opacity:1"
       d="m 4840,3150 v 1.5869 l -1.0432,1.93 q -3.3812,6.476 -5.5395,11.1937 -2.1583,4.6747 -3.7411,9.2209 -1.5467,4.5032 -3.0215,10.0786 -2.1944,8.5775 -3.7411,17.1122 -0.7554,4.6319 -1.1151,8.8777 h -11.7625 q 0.8272,-5.1893 2.1223,-8.7919 1.7985,-4.975 3.4532,-8.3203 5.5036,-11.2794 13.9209,-24.789 l 4.2805,-6.8622 h -22.2302 q -3.7051,0 -5.7195,1.1151 -1.9783,1.0722 -3.0214,3.8171 -1.0073,2.7018 -1.5829,8.1916 H 4800 L 4802.446,3150 Z" />
    <path
       inkscape:connector-curvature="0"
       id="path7378"
       style="font-style:normal;font-variant:normal;font-weight:500;font-stretch:expanded;font-size:medium;line-height:125%;font-family:'Engravers MT';-inkscape-font-specification:'Engravers MT Medium Expanded';letter-spacing:0px;word-spacing:0px;fill:#000000;fill-opacity:1;stroke:none;stroke-width:1px;stroke-linecap:butt;stroke-linejoin:miter;stroke-opacity:1"
       d="m 4340,3950 v -1.5869 l 1.0432,-1.93 q 3.3812,-6.476 5.5395,-11.1937 2.1583,-4.6747 3.7411,-9.2209 1.5467,-4.5032 3.0215,-10.0786 2.1944,-8.5775 3.7411,-17.1122 0.7554,-4.6319 1.1151,-8.8777 h 11.7625 q -0.8272,5.1893 -2.1223,8.7919 -1.7985,4.975 -3.4532,8.3203 -5.5036,11.2794 -13.9209,24.789 l -4.2805,6.8622 h 22.2302 q 3.7051,0 5.7195,-1.1151 1.9783,-1.0722 3.0214,-3.8171 1.0073,-2.7018 1.5829,-8.1916 H 4380 L 4377.554,3950 Z" />
    <path
       d="m 4800,3950 v -1.5869 l 1.0432,-1.93 q 3.3812,-6.476 5.5395,-11.1937 2.1583,-4.6747 3.7411,-9.2209 1.5467,-4.5032 3.0215,-10.0786 2.1944,-8.5775 3.7411,-17.1122 0.7554,-4.6319 1.1151,-8.8777 h 11.7625 q -0.8272,5.1893 -2.1223,8.7919 -1.7985,4.975 -3.4532,8.3203 -5.5036,11.2794 -13.9209,24.789 l -4.2805,6.8622 h 22.2302 q 3.7051,0 5.7195,-1.1151 1.9783,-1.0722 3.0214,-3.8171 1.0073,-2.7018 1.5829,-8.1916 H 4840 L 4837.554,3950 Z"
       style="font-style:normal;font-variant:normal;font-weight:500;font-stretch:expanded;font-size:medium;line-height:125%;font-family:'Engravers MT';-inkscape-font-specification:'Engravers MT Medium Expanded';letter-spacing:0px;word-spacing:0px;fill:#000000;fill-opacity:1;stroke:none;stroke-width:1px;stroke-linecap:butt;stroke-linejoin:miter;stroke-opacity:1"
       id="path7380"
       inkscape:connector-curvature="0" />
  </g>
</svg>
