<?xml version="1.0" encoding="UTF-8" standalone="no"?>
<!-- Created with Inkscape (http://www.inkscape.org/) -->

<svg
   id="svg10047"
   height="123.00265"
   width="78.998276"
   version="1.1"
   viewBox="0 0 78.998276 123.00265"
   inkscape:version="0.91 r13725"
   sodipodi:docname="franzoesisches-bild.svgz"
   xmlns:inkscape="http://www.inkscape.org/namespaces/inkscape"
   xmlns:sodipodi="http://sodipodi.sourceforge.net/DTD/sodipodi-0.dtd"
   xmlns="http://www.w3.org/2000/svg"
   xmlns:svg="http://www.w3.org/2000/svg"
   xmlns:rdf="http://www.w3.org/1999/02/22-rdf-syntax-ns#"
   xmlns:cc="http://creativecommons.org/ns#"
   xmlns:dc="http://purl.org/dc/elements/1.1/">
  <sodipodi:namedview
     pagecolor="#ffffff"
     bordercolor="#666666"
     borderopacity="1"
     objecttolerance="10"
     gridtolerance="10"
     guidetolerance="10"
     inkscape:pageopacity="0"
     inkscape:pageshadow="2"
     inkscape:window-width="1920"
     inkscape:window-height="1016"
     id="namedview1491"
     showgrid="false"
     inkscape:zoom="1.3479675"
     inkscape:cx="513.5"
     inkscape:cy="307.5"
     inkscape:window-x="0"
     inkscape:window-y="0"
     inkscape:window-maximized="1"
     inkscape:current-layer="svg10047"
     showguides="true"
     inkscape:guide-bbox="true"
     inkscape:snap-grids="true"
     inkscape:showpageshadow="2"
     inkscape:pagecheckerboard="0"
     inkscape:deskcolor="#d1d1d1" />
  <metadata
     id="metadata16869">
    <rdf:RDF>
      <cc:Work
         rdf:about="">
        <dc:format>image/svg+xml</dc:format>
        <dc:type
           rdf:resource="http://purl.org/dc/dcmitype/StillImage" />
        <dc:title />
      </cc:Work>
    </rdf:RDF>
  </metadata>
  <defs
     id="defs10049" />
  <g
     transform="matrix(0.13625087,0,0,0.13666972,-109.0007,-423.67623)"
     id="spade_2"
     inkscape:label="#spade_2">
    <rect
       width="577.80151"
       height="898.00061"
       rx="48.194115"
       ry="49.888187"
       x="800.99933"
       y="3101"
       id="rect7234"
       style="font-style:normal;font-variant:normal;font-weight:500;font-stretch:normal;font-size:medium;line-height:125%;font-family:Gaelic;-inkscape-font-specification:'Gaelic Medium';letter-spacing:0px;word-spacing:0px;fill:#ffffff;fill-opacity:1;stroke:#000000;stroke-width:1.99863;stroke-linecap:butt;stroke-linejoin:miter;stroke-miterlimit:4;stroke-dasharray:none;stroke-opacity:1" />
    <path
       style="fill:#1b1b1b"
       d="m 1065.2576,3315.8537 c 0.7544,-1.2579 4.2655,-6.7773 7.8023,-12.2653 8.687,-13.4786 16.5862,-37.8389 12.2694,-37.8389 -0.5571,0 -4.1797,2.8571 -8.0518,6.3492 -9.4136,8.4917 -18.2677,10.912 -29.8908,8.1708 -15.0251,-3.5437 -24.9679,-19.506 -21.7966,-34.9957 2.8692,-14.0141 15.5766,-30.3874 32.3712,-41.7092 8.3081,-5.601 30.0958,-28.7809 30.0958,-32.0193 0,-0.8499 0.7711,-1.5453 1.7149,-1.5453 1.1131,0 1.7137,25.204 1.7137,71.999 v 71.9989 l -11.9017,2.0714 c -15.0328,2.6164 -16.0145,2.6016 -14.3264,-0.2156 z"
       id="path7238"
       inkscape:connector-curvature="0" />
    <path
       inkscape:connector-curvature="0"
       id="path7240"
       d="m 1114.7421,3315.8537 c -0.7544,-1.2579 -4.2655,-6.7773 -7.8023,-12.2653 -8.687,-13.4786 -16.5862,-37.8389 -12.2694,-37.8389 0.5571,0 4.1797,2.8571 8.0518,6.3492 9.4135,8.4917 18.2677,10.912 29.8908,8.1708 15.0251,-3.5437 24.9679,-19.506 21.7966,-34.9957 -2.8693,-14.0141 -15.5766,-30.3874 -32.3712,-41.7092 -8.3081,-5.601 -30.0958,-28.7809 -30.0958,-32.0193 0,-0.8499 -0.7711,-1.5453 -1.7149,-1.5453 -1.1132,0 -1.7138,25.204 -1.7138,71.999 v 71.9989 l 11.9018,2.0714 c 15.0328,2.6164 16.0145,2.6016 14.3264,-0.2156 z"
       style="fill:#1b1b1b" />
    <path
       style="fill:#1b1b1b"
       d="m 1114.7424,3784.1463 c -0.7544,1.2579 -4.2655,6.7773 -7.8023,12.2653 -8.687,13.4786 -16.5862,37.8389 -12.2694,37.8389 0.5571,0 4.1797,-2.8571 8.0518,-6.3492 9.4136,-8.4917 18.2677,-10.912 29.8908,-8.1708 15.0251,3.5437 24.9679,19.506 21.7966,34.9957 -2.8692,14.0141 -15.5766,30.3874 -32.3712,41.7092 -8.3081,5.601 -30.0958,28.7809 -30.0958,32.0193 0,0.8499 -0.7711,1.5453 -1.7149,1.5453 -1.1131,0 -1.7137,-25.204 -1.7137,-71.999 v -71.9989 l 11.9017,-2.0714 c 15.0328,-2.6164 16.0145,-2.6016 14.3264,0.2156 z"
       id="path7264"
       inkscape:connector-curvature="0" />
    <path
       inkscape:connector-curvature="0"
       id="path7266"
       d="m 1065.2579,3784.1463 c 0.7544,1.2579 4.2655,6.7773 7.8023,12.2653 8.687,13.4786 16.5862,37.8389 12.2694,37.8389 -0.5571,0 -4.1797,-2.8571 -8.0518,-6.3492 -9.4135,-8.4917 -18.2677,-10.912 -29.8908,-8.1708 -15.0251,3.5437 -24.9679,19.506 -21.7966,34.9957 2.8693,14.0141 15.5766,30.3874 32.3712,41.7092 8.3081,5.601 30.0958,28.7809 30.0958,32.0193 0,0.8499 0.7711,1.5453 1.7149,1.5453 1.1132,0 1.7138,-25.204 1.7138,-71.999 v -71.9989 l -11.9018,-2.0714 c -15.0328,-2.6164 -16.0145,-2.6016 -14.3264,0.2156 z"
       style="fill:#1b1b1b" />
    <path
       style="fill:#1b1b1b"
       d="m 852.38645,3295.3329 c 0.2321,-0.391 1.3125,-2.1065 2.4007,-3.8122 2.6729,-4.1893 5.1035,-11.7607 3.7752,-11.7607 -0.1714,0 -1.286,0.888 -2.4775,1.9734 -2.8964,2.6393 -5.6208,3.3915 -9.1971,2.5395 -4.6231,-1.1014 -7.6825,-6.0627 -6.7067,-10.877 0.8829,-4.3558 4.7928,-9.4448 9.9604,-12.9637 2.5563,-1.7408 9.2602,-8.9454 9.2602,-9.9519 0,-0.2642 0.2373,-0.4803 0.5277,-0.4803 0.3425,0 0.5273,7.8337 0.5273,22.378 v 22.3781 l -3.6621,0.6438 c -4.6255,0.8132 -4.9275,0.8086 -4.4081,-0.067 z"
       id="path7268"
       inkscape:connector-curvature="0" />
    <path
       inkscape:connector-curvature="0"
       id="path7270"
       d="m 867.61245,3295.3329 c -0.2321,-0.391 -1.3125,-2.1065 -2.4007,-3.8122 -2.6729,-4.1893 -5.1034,-11.7607 -3.7752,-11.7607 0.1714,0 1.2861,0.888 2.4775,1.9734 2.8965,2.6393 5.6208,3.3915 9.1972,2.5395 4.6231,-1.1014 7.6824,-6.0627 6.7066,-10.877 -0.8829,-4.3558 -4.7928,-9.4448 -9.9604,-12.9637 -2.5563,-1.7408 -9.2602,-8.9454 -9.2602,-9.9519 0,-0.2642 -0.2373,-0.4803 -0.5277,-0.4803 -0.3425,0 -0.5273,7.8337 -0.5273,22.378 v 22.3781 l 3.6621,0.6438 c 4.6255,0.8132 4.9275,0.8086 4.4081,-0.067 z"
       style="fill:#1b1b1b" />
    <path
       inkscape:connector-curvature="0"
       id="path7272"
       d="m 1327.6124,3804.6677 c -0.2321,0.391 -1.3125,2.1065 -2.4007,3.8122 -2.6729,4.1893 -5.1035,11.7607 -3.7752,11.7607 0.1714,0 1.286,-0.888 2.4775,-1.9734 2.8964,-2.6393 5.6208,-3.3915 9.1971,-2.5395 4.6231,1.1014 7.6825,6.0627 6.7067,10.877 -0.8829,4.3558 -4.7928,9.4448 -9.9604,12.9637 -2.5563,1.7408 -9.2602,8.9454 -9.2602,9.9519 0,0.2642 -0.2373,0.4803 -0.5277,0.4803 -0.3425,0 -0.5273,-7.8337 -0.5273,-22.378 v -22.3781 l 3.6621,-0.6438 c 4.6255,-0.8132 4.9275,-0.8086 4.4081,0.067 z"
       style="fill:#1b1b1b" />
    <path
       style="fill:#1b1b1b"
       d="m 1312.3864,3804.6677 c 0.2321,0.391 1.3125,2.1065 2.4007,3.8122 2.6729,4.1893 5.1034,11.7607 3.7752,11.7607 -0.1714,0 -1.2861,-0.888 -2.4775,-1.9734 -2.8965,-2.6393 -5.6208,-3.3915 -9.1972,-2.5395 -4.6231,1.1014 -7.6824,6.0627 -6.7066,10.877 0.8829,4.3558 4.7928,9.4448 9.9604,12.9637 2.5563,1.7408 9.2602,8.9454 9.2602,9.9519 0,0.2642 0.2373,0.4803 0.5277,0.4803 0.3425,0 0.5273,-7.8337 0.5273,-22.378 v -22.3781 l -3.6621,-0.6438 c -4.6255,-0.8132 -4.9275,-0.8086 -4.4081,0.067 z"
       id="path7275"
       inkscape:connector-curvature="0" />
    <path
       inkscape:connector-curvature="0"
       id="path7279"
       d="m 1312.3864,3295.3329 c 0.2321,-0.391 1.3125,-2.1065 2.4007,-3.8122 2.6729,-4.1893 5.1035,-11.7607 3.7752,-11.7607 -0.1714,0 -1.286,0.888 -2.4775,1.9734 -2.8964,2.6393 -5.6208,3.3915 -9.1971,2.5395 -4.6231,-1.1014 -7.6825,-6.0627 -6.7067,-10.877 0.8829,-4.3558 4.7928,-9.4448 9.9604,-12.9637 2.5563,-1.7408 9.2602,-8.9454 9.2602,-9.9519 0,-0.2642 0.2373,-0.4803 0.5277,-0.4803 0.3425,0 0.5273,7.8337 0.5273,22.378 v 22.3781 l -3.6621,0.6438 c -4.6255,0.8132 -4.9275,0.8086 -4.4081,-0.067 z"
       style="fill:#1b1b1b" />
    <path
       style="fill:#1b1b1b"
       d="m 1327.6124,3295.3329 c -0.2321,-0.391 -1.3125,-2.1065 -2.4007,-3.8122 -2.6729,-4.1893 -5.1034,-11.7607 -3.7752,-11.7607 0.1714,0 1.2861,0.888 2.4775,1.9734 2.8965,2.6393 5.6208,3.3915 9.1972,2.5395 4.6231,-1.1014 7.6824,-6.0627 6.7066,-10.877 -0.8829,-4.3558 -4.7928,-9.4448 -9.9604,-12.9637 -2.5563,-1.7408 -9.2602,-8.9454 -9.2602,-9.9519 0,-0.2642 -0.2373,-0.4803 -0.5277,-0.4803 -0.3425,0 -0.5273,7.8337 -0.5273,22.378 v 22.3781 l 3.6621,0.6438 c 4.6255,0.8132 4.9275,0.8086 4.4081,-0.067 z"
       id="path7281"
       inkscape:connector-curvature="0" />
    <path
       style="fill:#1b1b1b"
       d="m 867.61245,3804.6677 c -0.2321,0.391 -1.3125,2.1065 -2.4007,3.8122 -2.6729,4.1893 -5.1035,11.7607 -3.7752,11.7607 0.1714,0 1.286,-0.888 2.4775,-1.9734 2.8964,-2.6393 5.6208,-3.3915 9.1971,-2.5395 4.6231,1.1014 7.6825,6.0627 6.7067,10.877 -0.8829,4.3558 -4.7928,9.4448 -9.9604,12.9637 -2.5563,1.7408 -9.2602,8.9454 -9.2602,9.9519 0,0.2642 -0.2373,0.4803 -0.5277,0.4803 -0.3425,0 -0.5273,-7.8337 -0.5273,-22.378 v -22.3781 l 3.6621,-0.6438 c 4.6255,-0.8132 4.9275,-0.8086 4.4081,0.067 z"
       id="path7283"
       inkscape:connector-curvature="0" />
    <path
       inkscape:connector-curvature="0"
       id="path7286"
       d="m 852.38645,3804.6677 c 0.2321,0.391 1.3125,2.1065 2.4007,3.8122 2.6729,4.1893 5.1034,11.7607 3.7752,11.7607 -0.1714,0 -1.2861,-0.888 -2.4775,-1.9734 -2.8965,-2.6393 -5.6208,-3.3915 -9.1972,-2.5395 -4.6231,1.1014 -7.6824,6.0627 -6.7066,10.877 0.8829,4.3558 4.7928,9.4448 9.9604,12.9637 2.5563,1.7408 9.2602,8.9454 9.2602,9.9519 0,0.2642 0.2373,0.4803 0.5277,0.4803 0.3425,0 0.5273,-7.8337 0.5273,-22.378 v -22.3781 l -3.6621,-0.6438 c -4.6255,-0.8132 -4.9275,-0.8086 -4.4081,0.067 z"
       style="fill:#1b1b1b" />
    <path
       d="M 880,3187.3578 876.55458,3210 h -36.48579 q 0.20676,-4.132 3.68648,-9.1496 3.10088,-4.343 11.9208,-12.1012 4.85789,-4.3851 5.92591,-5.5236 0.20677,-0.253 0.48242,-0.548 0.27555,-0.3374 0.6201,-0.759 2.75623,-3.4998 3.96213,-6.9572 1.2058,-3.4575 1.2058,-7.8004 0,-7.4209 -2.9973,-11.3844 -2.963,-3.9634 -8.44108,-3.9634 -4.13431,0 -7.61413,2.0659 -3.47971,2.0661 -5.47798,5.608 -1.99837,3.5418 -1.99837,7.7582 0,4.5959 1.68822,4.5959 0.68909,0 0.79247,-1.2226 0.13778,-1.012 0.48232,-2.0662 0.93024,-2.6142 2.34281,-3.7948 1.44695,-1.2228 3.5831,-1.2228 1.7571,0 3.13527,0.9276 1.41256,0.9276 2.17054,2.6565 0.75797,1.6865 0.75797,3.7526 0,2.3611 -0.99923,4.3006 -0.96464,1.8976 -2.65286,2.9939 -1.65372,1.0962 -3.75527,1.0962 -3.89325,0 -6.40833,-3.2888 Q 840,3172.6845 840,3167.5826 q 0,-3.078 0.96454,-6.0295 0.99923,-2.9936 2.85972,-5.2705 5.03016,-6.2826 15.5039,-6.2826 4.34108,0 8.02756,1.3071 3.68648,1.265 6.33934,3.6684 2.65285,2.4033 4.06541,5.6501 1.41267,3.2466 1.41267,7.0413 0,5.5235 -3.13528,9.8665 -1.30918,1.9395 -3.03189,3.4575 -3.30755,2.6565 -9.92244,6.0296 -9.26794,4.7645 -12.98882,8.3064 -0.86136,0.7589 -3.30755,3.4574 h 22.49793 q 3.13518,0 4.75441,-0.6746 1.65382,-0.7168 2.58396,-2.5298 0.93025,-1.8132 1.61943,-5.4392 l 0.48232,-2.7829 z"
       style="font-style:normal;font-variant:normal;font-weight:500;font-stretch:expanded;font-size:medium;line-height:125%;font-family:'Engravers MT';-inkscape-font-specification:'Engravers MT Medium Expanded';letter-spacing:0px;word-spacing:0px;fill:#000000;fill-opacity:1;stroke:none;stroke-width:1px;stroke-linecap:butt;stroke-linejoin:miter;stroke-opacity:1"
       id="path6485-2"
       inkscape:connector-curvature="0" />
    <path
       inkscape:connector-curvature="0"
       id="path7468"
       style="font-style:normal;font-variant:normal;font-weight:500;font-stretch:expanded;font-size:medium;line-height:125%;font-family:'Engravers MT';-inkscape-font-specification:'Engravers MT Medium Expanded';letter-spacing:0px;word-spacing:0px;fill:#000000;fill-opacity:1;stroke:none;stroke-width:1px;stroke-linecap:butt;stroke-linejoin:miter;stroke-opacity:1"
       d="M 1340,3187.3578 1336.5546,3210 h -36.4858 q 0.2068,-4.132 3.6865,-9.1496 3.1009,-4.343 11.9208,-12.1012 4.8579,-4.3851 5.9259,-5.5236 0.2068,-0.253 0.4824,-0.548 0.2756,-0.3374 0.6201,-0.759 2.7562,-3.4998 3.9621,-6.9572 1.2058,-3.4575 1.2058,-7.8004 0,-7.4209 -2.9973,-11.3844 -2.963,-3.9634 -8.441,-3.9634 -4.1344,0 -7.6142,2.0659 -3.4797,2.0661 -5.478,5.608 -1.9983,3.5418 -1.9983,7.7582 0,4.5959 1.6882,4.5959 0.6891,0 0.7925,-1.2226 0.1377,-1.012 0.4823,-2.0662 0.9302,-2.6142 2.3428,-3.7948 1.4469,-1.2228 3.5831,-1.2228 1.7571,0 3.1353,0.9276 1.4125,0.9276 2.1705,2.6565 0.758,1.6865 0.758,3.7526 0,2.3611 -0.9993,4.3006 -0.9646,1.8976 -2.6528,2.9939 -1.6537,1.0962 -3.7553,1.0962 -3.8932,0 -6.4083,-3.2888 -2.4806,-3.2889 -2.4806,-8.3908 0,-3.078 0.9645,-6.0295 0.9993,-2.9936 2.8598,-5.2705 5.0301,-6.2826 15.5039,-6.2826 4.341,0 8.0275,1.3071 3.6865,1.265 6.3394,3.6684 2.6528,2.4033 4.0654,5.6501 1.4126,3.2466 1.4126,7.0413 0,5.5235 -3.1352,9.8665 -1.3092,1.9395 -3.0319,3.4575 -3.3076,2.6565 -9.9225,6.0296 -9.2679,4.7645 -12.9888,8.3064 -0.8613,0.7589 -3.3075,3.4574 h 22.4979 q 3.1352,0 4.7544,-0.6746 1.6538,-0.7168 2.584,-2.5298 0.9302,-1.8132 1.6194,-5.4392 l 0.4823,-2.7829 z" />
    <path
       inkscape:connector-curvature="0"
       id="path7470"
       style="font-style:normal;font-variant:normal;font-weight:500;font-stretch:expanded;font-size:medium;line-height:125%;font-family:'Engravers MT';-inkscape-font-specification:'Engravers MT Medium Expanded';letter-spacing:0px;word-spacing:0px;fill:#000000;fill-opacity:1;stroke:none;stroke-width:1px;stroke-linecap:butt;stroke-linejoin:miter;stroke-opacity:1"
       d="M 840,3912.6422 843.4454,3890 h 36.4858 q -0.2068,4.132 -3.6865,9.1496 -3.1008,4.343 -11.9208,12.1012 -4.8579,4.3851 -5.9259,5.5236 -0.2068,0.253 -0.4824,0.548 -0.2755,0.3374 -0.6201,0.759 -2.7562,3.4998 -3.9621,6.9572 -1.2058,3.4575 -1.2058,7.8004 0,7.4209 2.9973,11.3844 2.963,3.9634 8.4411,3.9634 4.1343,0 7.6141,-2.0659 3.4797,-2.0661 5.478,-5.608 1.9983,-3.5418 1.9983,-7.7582 0,-4.5959 -1.6882,-4.5959 -0.6891,0 -0.7925,1.2226 -0.1377,1.012 -0.4823,2.0662 -0.9302,2.6142 -2.3428,3.7948 -1.4469,1.2228 -3.5831,1.2228 -1.7571,0 -3.1353,-0.9276 -1.4125,-0.9276 -2.1705,-2.6565 -0.758,-1.6865 -0.758,-3.7526 0,-2.3611 0.9993,-4.3006 0.9646,-1.8976 2.6528,-2.9939 1.6537,-1.0962 3.7553,-1.0962 3.8932,0 6.4083,3.2888 2.4806,3.2889 2.4806,8.3908 0,3.078 -0.9645,6.0295 -0.9993,2.9936 -2.8598,5.2705 -5.0301,6.2826 -15.5039,6.2826 -4.341,0 -8.0275,-1.3071 -3.6865,-1.265 -6.3394,-3.6684 -2.6528,-2.4033 -4.0654,-5.6501 -1.4126,-3.2466 -1.4126,-7.0413 0,-5.5235 3.1352,-9.8665 1.3092,-1.9395 3.0319,-3.4575 3.3076,-2.6565 9.9225,-6.0296 9.2679,-4.7645 12.9888,-8.3064 0.8613,-0.7589 3.3075,-3.4574 h -22.4979 q -3.1352,0 -4.7544,0.6746 -1.6538,0.7168 -2.584,2.5298 -0.9302,1.8132 -1.6194,5.4392 l -0.4823,2.7829 z" />
    <path
       d="M 1300,3912.6422 1303.4454,3890 h 36.4858 q -0.2068,4.132 -3.6865,9.1496 -3.1009,4.343 -11.9208,12.1012 -4.8579,4.3851 -5.9259,5.5236 -0.2068,0.253 -0.4824,0.548 -0.2756,0.3374 -0.6201,0.759 -2.7562,3.4998 -3.9621,6.9572 -1.2058,3.4575 -1.2058,7.8004 0,7.4209 2.9973,11.3844 2.963,3.9634 8.441,3.9634 4.1344,0 7.6142,-2.0659 3.4797,-2.0661 5.478,-5.608 1.9983,-3.5418 1.9983,-7.7582 0,-4.5959 -1.6882,-4.5959 -0.6891,0 -0.7925,1.2226 -0.1377,1.012 -0.4823,2.0662 -0.9302,2.6142 -2.3428,3.7948 -1.4469,1.2228 -3.5831,1.2228 -1.7571,0 -3.1353,-0.9276 -1.4125,-0.9276 -2.1705,-2.6565 -0.758,-1.6865 -0.758,-3.7526 0,-2.3611 0.9993,-4.3006 0.9646,-1.8976 2.6528,-2.9939 1.6537,-1.0962 3.7553,-1.0962 3.8932,0 6.4083,3.2888 2.4806,3.2889 2.4806,8.3908 0,3.078 -0.9645,6.0295 -0.9993,2.9936 -2.8598,5.2705 -5.0301,6.2826 -15.5039,6.2826 -4.341,0 -8.0275,-1.3071 -3.6865,-1.265 -6.3394,-3.6684 -2.6528,-2.4033 -4.0654,-5.6501 -1.4126,-3.2466 -1.4126,-7.0413 0,-5.5235 3.1352,-9.8665 1.3092,-1.9395 3.0319,-3.4575 3.3076,-2.6565 9.9225,-6.0296 9.2679,-4.7645 12.9888,-8.3064 0.8613,-0.7589 3.3075,-3.4574 h -22.4979 q -3.1352,0 -4.7544,0.6746 -1.6538,0.7168 -2.584,2.5298 -0.9302,1.8132 -1.6194,5.4392 l -0.4823,2.7829 z"
       style="font-style:normal;font-variant:normal;font-weight:500;font-stretch:expanded;font-size:medium;line-height:125%;font-family:'Engravers MT';-inkscape-font-specification:'Engravers MT Medium Expanded';letter-spacing:0px;word-spacing:0px;fill:#000000;fill-opacity:1;stroke:none;stroke-width:1px;stroke-linecap:butt;stroke-linejoin:miter;stroke-opacity:1"
       id="path7472"
       inkscape:connector-curvature="0" />
  </g>
</svg>
