<?xml version="1.0" encoding="UTF-8" standalone="no"?>
<!-- Created with Inkscape (http://www.inkscape.org/) -->

<svg
   id="svg10047"
   height="123.00265"
   width="78.998276"
   version="1.1"
   viewBox="0 0 78.998276 123.00265"
   inkscape:version="0.91 r13725"
   sodipodi:docname="franzoesisches-bild.svgz"
   xmlns:inkscape="http://www.inkscape.org/namespaces/inkscape"
   xmlns:sodipodi="http://sodipodi.sourceforge.net/DTD/sodipodi-0.dtd"
   xmlns="http://www.w3.org/2000/svg"
   xmlns:svg="http://www.w3.org/2000/svg"
   xmlns:rdf="http://www.w3.org/1999/02/22-rdf-syntax-ns#"
   xmlns:cc="http://creativecommons.org/ns#"
   xmlns:dc="http://purl.org/dc/elements/1.1/">
  <sodipodi:namedview
     pagecolor="#ffffff"
     bordercolor="#666666"
     borderopacity="1"
     objecttolerance="10"
     gridtolerance="10"
     guidetolerance="10"
     inkscape:pageopacity="0"
     inkscape:pageshadow="2"
     inkscape:window-width="1920"
     inkscape:window-height="1016"
     id="namedview1491"
     showgrid="false"
     inkscape:zoom="1.3479675"
     inkscape:cx="513.5"
     inkscape:cy="307.5"
     inkscape:window-x="0"
     inkscape:window-y="0"
     inkscape:window-maximized="1"
     inkscape:current-layer="svg10047"
     showguides="true"
     inkscape:guide-bbox="true"
     inkscape:snap-grids="true"
     inkscape:showpageshadow="2"
     inkscape:pagecheckerboard="0"
     inkscape:deskcolor="#d1d1d1" />
  <metadata
     id="metadata16869">
    <rdf:RDF>
      <cc:Work
         rdf:about="">
        <dc:format>image/svg+xml</dc:format>
        <dc:type
           rdf:resource="http://purl.org/dc/dcmitype/StillImage" />
        <dc:title />
      </cc:Work>
    </rdf:RDF>
  </metadata>
  <defs
     id="defs10049" />
  <g
     transform="matrix(0.13625087,0,0,0.13666972,-13.625087,-423.67623)"
     id="spade_1"
     inkscape:label="#spade_1">
    <rect
       style="font-style:normal;font-variant:normal;font-weight:500;font-stretch:normal;font-size:medium;line-height:125%;font-family:Gaelic;-inkscape-font-specification:'Gaelic Medium';letter-spacing:0px;word-spacing:0px;fill:#ffffff;fill-opacity:1;stroke:#000000;stroke-width:1.99863;stroke-linecap:butt;stroke-linejoin:miter;stroke-miterlimit:4;stroke-dasharray:none;stroke-opacity:1"
       id="rect7294"
       y="3101"
       x="100.99931"
       ry="49.888187"
       rx="48.194115"
       height="898.00061"
       width="577.80151" />
    <path
       style="fill:#1b1b1b"
       d="m 365.25762,3621.8537 c 0.75437,-1.2579 4.2655,-6.7773 7.80225,-12.2653 8.68699,-13.4786 16.58619,-37.8389 12.26943,-37.8389 -0.55714,0 -4.1797,2.8571 -8.05185,6.3492 -9.41351,8.4917 -18.26765,10.912 -29.89079,8.1708 -15.02507,-3.5437 -24.96787,-19.506 -21.7966,-34.9957 2.86929,-14.0141 15.57664,-30.3874 32.3712,-41.7092 8.30813,-5.601 30.09582,-28.7809 30.09582,-32.0193 0,-0.8499 0.77109,-1.5453 1.71489,-1.5453 1.11317,0 1.71378,25.204 1.71378,71.999 v 71.9989 l -11.90172,2.0714 c -15.03287,2.6164 -16.01456,2.6016 -14.32641,-0.2156 z"
       id="path7304"
       inkscape:connector-curvature="0" />
    <path
       inkscape:connector-curvature="0"
       id="path7306"
       d="m 414.74207,3621.8537 c -0.75438,-1.2579 -4.2655,-6.7773 -7.80225,-12.2653 -8.687,-13.4786 -16.58619,-37.8389 -12.26944,-37.8389 0.55715,0 4.1797,2.8571 8.05185,6.3492 9.41351,8.4917 18.26765,10.912 29.8908,8.1708 15.02507,-3.5437 24.96787,-19.506 21.7966,-34.9957 -2.86929,-14.0141 -15.57664,-30.3874 -32.3712,-41.7092 -8.30814,-5.601 -30.09583,-28.7809 -30.09583,-32.0193 0,-0.8499 -0.77108,-1.5453 -1.71489,-1.5453 -1.11317,0 -1.71377,25.204 -1.71377,71.999 v 71.9989 l 11.90172,2.0714 c 15.03287,2.6164 16.01455,2.6016 14.32641,-0.2156 z"
       style="fill:#1b1b1b" />
    <path
       inkscape:connector-curvature="0"
       id="path7327"
       d="m 152.38644,3295.3329 c 0.2321,-0.391 1.3125,-2.1065 2.4007,-3.8122 2.6729,-4.1893 5.1035,-11.7607 3.7752,-11.7607 -0.1714,0 -1.286,0.888 -2.4775,1.9734 -2.8964,2.6393 -5.6208,3.3915 -9.1971,2.5395 -4.6231,-1.1014 -7.6825,-6.0627 -6.7067,-10.877 0.8829,-4.3558 4.7928,-9.4448 9.9604,-12.9637 2.5563,-1.7408 9.2602,-8.9454 9.2602,-9.9519 0,-0.2642 0.2373,-0.4803 0.5277,-0.4803 0.3425,0 0.5273,7.8337 0.5273,22.378 v 22.3781 l -3.6621,0.6438 c -4.6255,0.8132 -4.9275,0.8086 -4.4081,-0.067 z"
       style="fill:#1b1b1b" />
    <path
       style="fill:#1b1b1b"
       d="m 167.61244,3295.3329 c -0.2321,-0.391 -1.3125,-2.1065 -2.4007,-3.8122 -2.6729,-4.1893 -5.1034,-11.7607 -3.7752,-11.7607 0.1714,0 1.2861,0.888 2.4775,1.9734 2.8965,2.6393 5.6208,3.3915 9.1972,2.5395 4.6231,-1.1014 7.6824,-6.0627 6.7066,-10.877 -0.8829,-4.3558 -4.7928,-9.4448 -9.9604,-12.9637 -2.5563,-1.7408 -9.2602,-8.9454 -9.2602,-9.9519 0,-0.2642 -0.2373,-0.4803 -0.5277,-0.4803 -0.3425,0 -0.5273,7.8337 -0.5273,22.378 v 22.3781 l 3.6621,0.6438 c 4.6255,0.8132 4.9275,0.8086 4.4081,-0.067 z"
       id="path7329"
       inkscape:connector-curvature="0" />
    <path
       style="fill:#1b1b1b"
       d="m 627.61239,3804.6677 c -0.2321,0.391 -1.3125,2.1065 -2.4007,3.8122 -2.6729,4.1893 -5.1035,11.7607 -3.7752,11.7607 0.1714,0 1.286,-0.888 2.4775,-1.9734 2.8964,-2.6393 5.6208,-3.3915 9.1971,-2.5395 4.6231,1.1014 7.6825,6.0627 6.7067,10.877 -0.8829,4.3558 -4.7928,9.4448 -9.9604,12.9637 -2.5563,1.7408 -9.2602,8.9454 -9.2602,9.9519 0,0.2642 -0.2373,0.4803 -0.5277,0.4803 -0.3425,0 -0.5273,-7.8337 -0.5273,-22.378 v -22.3781 l 3.6621,-0.6438 c 4.6255,-0.8132 4.9275,-0.8086 4.4081,0.067 z"
       id="path7331"
       inkscape:connector-curvature="0" />
    <path
       inkscape:connector-curvature="0"
       id="path7333"
       d="m 612.38639,3804.6677 c 0.2321,0.391 1.3125,2.1065 2.4007,3.8122 2.6729,4.1893 5.1034,11.7607 3.7752,11.7607 -0.1714,0 -1.2861,-0.888 -2.4775,-1.9734 -2.8965,-2.6393 -5.6208,-3.3915 -9.1972,-2.5395 -4.6231,1.1014 -7.6824,6.0627 -6.7066,10.877 0.8829,4.3558 4.7928,9.4448 9.9604,12.9637 2.5563,1.7408 9.2602,8.9454 9.2602,9.9519 0,0.2642 0.2373,0.4803 0.5277,0.4803 0.3425,0 0.5273,-7.8337 0.5273,-22.378 v -22.3781 l -3.6621,-0.6438 c -4.6255,-0.8132 -4.9275,-0.8086 -4.4081,0.067 z"
       style="fill:#1b1b1b" />
    <path
       style="fill:#1b1b1b"
       d="m 612.38639,3295.3329 c 0.2321,-0.391 1.3125,-2.1065 2.4007,-3.8122 2.6729,-4.1893 5.1035,-11.7607 3.7752,-11.7607 -0.1714,0 -1.286,0.888 -2.4775,1.9734 -2.8964,2.6393 -5.6208,3.3915 -9.1971,2.5395 -4.6231,-1.1014 -7.6825,-6.0627 -6.7067,-10.877 0.8829,-4.3558 4.7928,-9.4448 9.9604,-12.9637 2.5563,-1.7408 9.2602,-8.9454 9.2602,-9.9519 0,-0.2642 0.2373,-0.4803 0.5277,-0.4803 0.3425,0 0.5273,7.8337 0.5273,22.378 v 22.3781 l -3.6621,0.6438 c -4.6255,0.8132 -4.9275,0.8086 -4.4081,-0.067 z"
       id="path7337"
       inkscape:connector-curvature="0" />
    <path
       inkscape:connector-curvature="0"
       id="path7339"
       d="m 627.61239,3295.3329 c -0.2321,-0.391 -1.3125,-2.1065 -2.4007,-3.8122 -2.6729,-4.1893 -5.1034,-11.7607 -3.7752,-11.7607 0.1714,0 1.2861,0.888 2.4775,1.9734 2.8965,2.6393 5.6208,3.3915 9.1972,2.5395 4.6231,-1.1014 7.6824,-6.0627 6.7066,-10.877 -0.8829,-4.3558 -4.7928,-9.4448 -9.9604,-12.9637 -2.5563,-1.7408 -9.2602,-8.9454 -9.2602,-9.9519 0,-0.2642 -0.2373,-0.4803 -0.5277,-0.4803 -0.3425,0 -0.5273,7.8337 -0.5273,22.378 v 22.3781 l 3.6621,0.6438 c 4.6255,0.8132 4.9275,0.8086 4.4081,-0.067 z"
       style="fill:#1b1b1b" />
    <path
       inkscape:connector-curvature="0"
       id="path7341"
       d="m 167.61244,3804.6677 c -0.2321,0.391 -1.3125,2.1065 -2.4007,3.8122 -2.6729,4.1893 -5.1035,11.7607 -3.7752,11.7607 0.1714,0 1.286,-0.888 2.4775,-1.9734 2.8964,-2.6393 5.6208,-3.3915 9.1971,-2.5395 4.6231,1.1014 7.6825,6.0627 6.7067,10.877 -0.8829,4.3558 -4.7928,9.4448 -9.9604,12.9637 -2.5563,1.7408 -9.2602,8.9454 -9.2602,9.9519 0,0.2642 -0.2373,0.4803 -0.5277,0.4803 -0.3425,0 -0.5273,-7.8337 -0.5273,-22.378 v -22.3781 l 3.6621,-0.6438 c 4.6255,-0.8132 4.9275,-0.8086 4.4081,0.067 z"
       style="fill:#1b1b1b" />
    <path
       style="fill:#1b1b1b"
       d="m 152.38644,3804.6677 c 0.2321,0.391 1.3125,2.1065 2.4007,3.8122 2.6729,4.1893 5.1034,11.7607 3.7752,11.7607 -0.1714,0 -1.2861,-0.888 -2.4775,-1.9734 -2.8965,-2.6393 -5.6208,-3.3915 -9.1972,-2.5395 -4.6231,1.1014 -7.6824,6.0627 -6.7066,10.877 0.8829,4.3558 4.7928,9.4448 9.9604,12.9637 2.5563,1.7408 9.2602,8.9454 9.2602,9.9519 0,0.2642 0.2373,0.4803 0.5277,0.4803 0.3425,0 0.5273,-7.8337 0.5273,-22.378 v -22.3781 l -3.6621,-0.6438 c -4.6255,-0.8132 -4.9275,-0.8086 -4.4081,0.067 z"
       id="path7343"
       inkscape:connector-curvature="0" />
    <path
       d="m 155.55812,3163.7685 -9.6592,26.2316 h 19.56517 z M 159.29497,3150 h 1.30428 l 19.81203,51.4526 q 0.95183,2.4001 2.11513,3.9581 1.19859,1.5577 2.67922,2.2736 1.48065,0.6737 3.4901,0.6737 H 190 V 3210 h -28.5899 v -1.642 h 3.73674 q 2.78492,0 4.0541,-0.8843 1.30437,-0.9262 1.30437,-2.821 0,-1.179 -0.52881,-2.8632 -0.49351,-1.6842 -2.22091,-6.1052 -0.10578,-0.2527 -0.31735,-0.8421 -0.21146,-0.5895 -0.45831,-1.1369 l -0.81076,-2.1474 h -20.86955 l -1.58642,4.3789 q -0.77546,2.2316 -0.77546,4.5053 0,1.9369 0.88124,3.8317 0.91665,1.8946 2.36189,2.8631 0.95182,0.6737 1.6921,0.9263 0.77567,0.2105 2.18572,0.2948 V 3210 H 130 v -1.642 q 2.18562,-0.2948 3.45469,-0.9264 1.30438,-0.6316 2.8907,-2.1052 3.73685,-3.4526 7.29732,-13.0105 z"
       style="font-style:normal;font-variant:normal;font-weight:500;font-stretch:expanded;font-size:medium;line-height:125%;font-family:'Engravers MT';-inkscape-font-specification:'Engravers MT Medium Expanded';letter-spacing:0px;word-spacing:0px;fill:#000000;fill-opacity:1;stroke:none;stroke-width:1px;stroke-linecap:butt;stroke-linejoin:miter;stroke-opacity:1"
       id="path6481-9"
       inkscape:connector-curvature="0" />
    <path
       inkscape:connector-curvature="0"
       id="path7491"
       style="font-style:normal;font-variant:normal;font-weight:500;font-stretch:expanded;font-size:medium;line-height:125%;font-family:'Engravers MT';-inkscape-font-specification:'Engravers MT Medium Expanded';letter-spacing:0px;word-spacing:0px;fill:#000000;fill-opacity:1;stroke:none;stroke-width:1px;stroke-linecap:butt;stroke-linejoin:miter;stroke-opacity:1"
       d="m 615.55812,3163.7685 -9.6592,26.2316 h 19.56517 z M 619.29497,3150 h 1.30428 l 19.81203,51.4526 q 0.95183,2.4001 2.11513,3.9581 1.19859,1.5577 2.67922,2.2736 1.48065,0.6737 3.4901,0.6737 H 650 V 3210 h -28.5899 v -1.642 h 3.73674 q 2.78492,0 4.0541,-0.8843 1.30437,-0.9262 1.30437,-2.821 0,-1.179 -0.52881,-2.8632 -0.49351,-1.6842 -2.22091,-6.1052 -0.10578,-0.2527 -0.31735,-0.8421 -0.21146,-0.5895 -0.45831,-1.1369 l -0.81076,-2.1474 h -20.86955 l -1.58642,4.3789 q -0.77546,2.2316 -0.77546,4.5053 0,1.9369 0.88124,3.8317 0.91665,1.8946 2.36189,2.8631 0.95182,0.6737 1.6921,0.9263 0.77567,0.2105 2.18572,0.2948 V 3210 H 590 v -1.642 q 2.18562,-0.2948 3.45469,-0.9264 1.30438,-0.6316 2.8907,-2.1052 3.73685,-3.4526 7.29732,-13.0105 z" />
    <path
       inkscape:connector-curvature="0"
       id="path7493"
       style="font-style:normal;font-variant:normal;font-weight:500;font-stretch:expanded;font-size:medium;line-height:125%;font-family:'Engravers MT';-inkscape-font-specification:'Engravers MT Medium Expanded';letter-spacing:0px;word-spacing:0px;fill:#000000;fill-opacity:1;stroke:none;stroke-width:1px;stroke-linecap:butt;stroke-linejoin:miter;stroke-opacity:1"
       d="m 164.4419,3936.2315 9.6592,-26.2316 H 154.5359 Z M 160.705,3950 h -1.3043 l -19.812,-51.4526 q -0.9518,-2.4001 -2.1151,-3.9581 -1.1986,-1.5577 -2.6792,-2.2736 -1.4807,-0.6737 -3.4901,-0.6737 H 130 V 3890 h 28.5899 v 1.642 h -3.7367 q -2.785,0 -4.0541,0.8843 -1.3044,0.9262 -1.3044,2.821 0,1.179 0.5288,2.8632 0.4935,1.6842 2.2209,6.1052 0.1058,0.2527 0.3174,0.8421 0.2114,0.5895 0.4583,1.1369 l 0.8107,2.1474 h 20.8696 l 1.5864,-4.3789 q 0.7755,-2.2316 0.7755,-4.5053 0,-1.9369 -0.8813,-3.8317 -0.9166,-1.8946 -2.3619,-2.8631 -0.9518,-0.6737 -1.6921,-0.9263 -0.7756,-0.2105 -2.1857,-0.2948 V 3890 H 190 v 1.642 q -2.1856,0.2948 -3.4547,0.9264 -1.3044,0.6316 -2.8907,2.1052 -3.7368,3.4526 -7.2973,13.0105 z" />
    <path
       d="m 624.4419,3936.2315 9.6592,-26.2316 H 614.5359 Z M 620.705,3950 h -1.3043 l -19.812,-51.4526 q -0.9518,-2.4001 -2.1151,-3.9581 -1.1986,-1.5577 -2.6792,-2.2736 -1.4807,-0.6737 -3.4901,-0.6737 H 590 V 3890 h 28.5899 v 1.642 h -3.7367 q -2.785,0 -4.0541,0.8843 -1.3044,0.9262 -1.3044,2.821 0,1.179 0.5288,2.8632 0.4935,1.6842 2.2209,6.1052 0.1058,0.2527 0.3174,0.8421 0.2114,0.5895 0.4583,1.1369 l 0.8107,2.1474 h 20.8696 l 1.5864,-4.3789 q 0.7755,-2.2316 0.7755,-4.5053 0,-1.9369 -0.8813,-3.8317 -0.9166,-1.8946 -2.3619,-2.8631 -0.9518,-0.6737 -1.6921,-0.9263 -0.7756,-0.2105 -2.1857,-0.2948 V 3890 H 650 v 1.642 q -2.1856,0.2948 -3.4547,0.9264 -1.3044,0.6316 -2.8907,2.1052 -3.7368,3.4526 -7.2973,13.0105 z"
       style="font-style:normal;font-variant:normal;font-weight:500;font-stretch:expanded;font-size:medium;line-height:125%;font-family:'Engravers MT';-inkscape-font-specification:'Engravers MT Medium Expanded';letter-spacing:0px;word-spacing:0px;fill:#000000;fill-opacity:1;stroke:none;stroke-width:1px;stroke-linecap:butt;stroke-linejoin:miter;stroke-opacity:1"
       id="path7495"
       inkscape:connector-curvature="0" />
  </g>
</svg>
