<?xml version="1.0" encoding="UTF-8" standalone="no"?>
<!-- Created with Inkscape (http://www.inkscape.org/) -->

<svg
   id="svg10047"
   height="123.00265"
   width="78.998276"
   version="1.1"
   viewBox="0 0 78.998276 123.00265"
   inkscape:version="0.91 r13725"
   sodipodi:docname="franzoesisches-bild.svgz"
   xmlns:inkscape="http://www.inkscape.org/namespaces/inkscape"
   xmlns:sodipodi="http://sodipodi.sourceforge.net/DTD/sodipodi-0.dtd"
   xmlns="http://www.w3.org/2000/svg"
   xmlns:svg="http://www.w3.org/2000/svg"
   xmlns:rdf="http://www.w3.org/1999/02/22-rdf-syntax-ns#"
   xmlns:cc="http://creativecommons.org/ns#"
   xmlns:dc="http://purl.org/dc/elements/1.1/">
  <sodipodi:namedview
     pagecolor="#ffffff"
     bordercolor="#666666"
     borderopacity="1"
     objecttolerance="10"
     gridtolerance="10"
     guidetolerance="10"
     inkscape:pageopacity="0"
     inkscape:pageshadow="2"
     inkscape:window-width="1920"
     inkscape:window-height="1016"
     id="namedview1491"
     showgrid="false"
     inkscape:zoom="1.3479675"
     inkscape:cx="513.5"
     inkscape:cy="307.5"
     inkscape:window-x="0"
     inkscape:window-y="0"
     inkscape:window-maximized="1"
     inkscape:current-layer="svg10047"
     showguides="true"
     inkscape:guide-bbox="true"
     inkscape:snap-grids="true"
     inkscape:showpageshadow="2"
     inkscape:pagecheckerboard="0"
     inkscape:deskcolor="#d1d1d1" />
  <metadata
     id="metadata16869">
    <rdf:RDF>
      <cc:Work
         rdf:about="">
        <dc:format>image/svg+xml</dc:format>
        <dc:type
           rdf:resource="http://purl.org/dc/dcmitype/StillImage" />
        <dc:title />
      </cc:Work>
    </rdf:RDF>
  </metadata>
  <defs
     id="defs10049" />
  <g
     transform="matrix(0.13625087,0,0,0.13666972,-490.50313,-423.67623)"
     id="spade_6"
     inkscape:label="#spade_6">
    <rect
       width="577.80151"
       height="898.00061"
       rx="48.194115"
       ry="49.888187"
       x="3600.9993"
       y="3101"
       id="rect6920"
       style="font-style:normal;font-variant:normal;font-weight:500;font-stretch:normal;font-size:medium;line-height:125%;font-family:Gaelic;-inkscape-font-specification:'Gaelic Medium';letter-spacing:0px;word-spacing:0px;fill:#ffffff;fill-opacity:1;stroke:#000000;stroke-width:1.99863;stroke-linecap:butt;stroke-linejoin:miter;stroke-miterlimit:4;stroke-dasharray:none;stroke-opacity:1" />
    <path
       style="fill:#1b1b1b"
       d="m 3750.2575,3315.8537 c 0.7544,-1.2579 4.2655,-6.7773 7.8023,-12.2653 8.687,-13.4786 16.5862,-37.8389 12.2694,-37.8389 -0.5571,0 -4.1797,2.8571 -8.0518,6.3492 -9.4136,8.4917 -18.2677,10.912 -29.8908,8.1708 -15.0251,-3.5437 -24.9679,-19.506 -21.7966,-34.9957 2.8692,-14.0141 15.5766,-30.3874 32.3712,-41.7092 8.3081,-5.601 30.0958,-28.7809 30.0958,-32.0193 0,-0.8499 0.7711,-1.5453 1.7149,-1.5453 1.1131,0 1.7137,25.204 1.7137,71.999 v 71.9989 l -11.9017,2.0714 c -15.0328,2.6164 -16.0145,2.6016 -14.3264,-0.2156 z"
       id="path6924"
       inkscape:connector-curvature="0" />
    <path
       inkscape:connector-curvature="0"
       id="path6926"
       d="m 3799.742,3315.8537 c -0.7544,-1.2579 -4.2655,-6.7773 -7.8023,-12.2653 -8.687,-13.4786 -16.5862,-37.8389 -12.2694,-37.8389 0.5571,0 4.1797,2.8571 8.0518,6.3492 9.4135,8.4917 18.2677,10.912 29.8908,8.1708 15.0251,-3.5437 24.9679,-19.506 21.7966,-34.9957 -2.8693,-14.0141 -15.5766,-30.3874 -32.3712,-41.7092 -8.3081,-5.601 -30.0958,-28.7809 -30.0958,-32.0193 0,-0.8499 -0.7711,-1.5453 -1.7149,-1.5453 -1.1132,0 -1.7138,25.204 -1.7138,71.999 v 71.9989 l 11.9018,2.0714 c 15.0328,2.6164 16.0145,2.6016 14.3264,-0.2156 z"
       style="fill:#1b1b1b" />
    <path
       inkscape:connector-curvature="0"
       id="path6936"
       d="m 3750.2575,3621.8537 c 0.7544,-1.2579 4.2655,-6.7773 7.8023,-12.2653 8.687,-13.4786 16.5862,-37.8389 12.2694,-37.8389 -0.5571,0 -4.1797,2.8571 -8.0518,6.3492 -9.4136,8.4917 -18.2677,10.912 -29.8908,8.1708 -15.0251,-3.5437 -24.9679,-19.506 -21.7966,-34.9957 2.8692,-14.0141 15.5766,-30.3874 32.3712,-41.7092 8.3081,-5.601 30.0958,-28.7809 30.0958,-32.0193 0,-0.8499 0.7711,-1.5453 1.7149,-1.5453 1.1131,0 1.7137,25.204 1.7137,71.999 v 71.9989 l -11.9017,2.0714 c -15.0328,2.6164 -16.0145,2.6016 -14.3264,-0.2156 z"
       style="fill:#1b1b1b" />
    <path
       style="fill:#1b1b1b"
       d="m 3799.742,3621.8537 c -0.7544,-1.2579 -4.2655,-6.7773 -7.8023,-12.2653 -8.687,-13.4786 -16.5862,-37.8389 -12.2694,-37.8389 0.5571,0 4.1797,2.8571 8.0518,6.3492 9.4135,8.4917 18.2677,10.912 29.8908,8.1708 15.0251,-3.5437 24.9679,-19.506 21.7966,-34.9957 -2.8693,-14.0141 -15.5766,-30.3874 -32.3712,-41.7092 -8.3081,-5.601 -30.0958,-28.7809 -30.0958,-32.0193 0,-0.8499 -0.7711,-1.5453 -1.7149,-1.5453 -1.1132,0 -1.7138,25.204 -1.7138,71.999 v 71.9989 l 11.9018,2.0714 c 15.0328,2.6164 16.0145,2.6016 14.3264,-0.2156 z"
       id="path6938"
       inkscape:connector-curvature="0" />
    <path
       inkscape:connector-curvature="0"
       id="path6942"
       d="m 4029.7424,3784.1463 c -0.7544,1.2579 -4.2655,6.7773 -7.8023,12.2653 -8.687,13.4786 -16.5862,37.8389 -12.2694,37.8389 0.5571,0 4.1797,-2.8571 8.0518,-6.3492 9.4136,-8.4917 18.2677,-10.912 29.8908,-8.1708 15.0251,3.5437 24.9679,19.506 21.7966,34.9957 -2.8692,14.0141 -15.5766,30.3874 -32.3712,41.7092 -8.3081,5.601 -30.0958,28.7809 -30.0958,32.0193 0,0.8499 -0.7711,1.5453 -1.7149,1.5453 -1.1131,0 -1.7137,-25.204 -1.7137,-71.999 v -71.9989 l 11.9017,-2.0714 c 15.0328,-2.6164 16.0145,-2.6016 14.3264,0.2156 z"
       style="fill:#1b1b1b" />
    <path
       style="fill:#1b1b1b"
       d="m 3980.2579,3784.1463 c 0.7544,1.2579 4.2655,6.7773 7.8023,12.2653 8.687,13.4786 16.5862,37.8389 12.2694,37.8389 -0.5571,0 -4.1797,-2.8571 -8.0518,-6.3492 -9.4135,-8.4917 -18.2677,-10.912 -29.8908,-8.1708 -15.0251,3.5437 -24.9679,19.506 -21.7966,34.9957 2.8693,14.0141 15.5766,30.3874 32.3712,41.7092 8.3081,5.601 30.0958,28.7809 30.0958,32.0193 0,0.8499 0.7711,1.5453 1.7149,1.5453 1.1132,0 1.7138,-25.204 1.7138,-71.999 v -71.9989 l -11.9018,-2.0714 c -15.0328,-2.6164 -16.0145,-2.6016 -14.3264,0.2156 z"
       id="path6944"
       inkscape:connector-curvature="0" />
    <path
       style="fill:#1b1b1b"
       d="m 4029.7424,3315.8537 c -0.7544,-1.2579 -4.2655,-6.7773 -7.8023,-12.2653 -8.687,-13.4786 -16.5862,-37.8389 -12.2694,-37.8389 0.5571,0 4.1797,2.8571 8.0518,6.3492 9.4136,8.4917 18.2677,10.912 29.8908,8.1708 15.0251,-3.5437 24.9679,-19.506 21.7966,-34.9957 -2.8692,-14.0141 -15.5766,-30.3874 -32.3712,-41.7092 -8.3081,-5.601 -30.0958,-28.7809 -30.0958,-32.0193 0,-0.8499 -0.7711,-1.5453 -1.7149,-1.5453 -1.1131,0 -1.7137,25.204 -1.7137,71.999 v 71.9989 l 11.9017,2.0714 c 15.0328,2.6164 16.0145,2.6016 14.3264,-0.2156 z"
       id="path6948"
       inkscape:connector-curvature="0" />
    <path
       inkscape:connector-curvature="0"
       id="path6951"
       d="m 3980.2579,3315.8537 c 0.7544,-1.2579 4.2655,-6.7773 7.8023,-12.2653 8.687,-13.4786 16.5862,-37.8389 12.2694,-37.8389 -0.5571,0 -4.1797,2.8571 -8.0518,6.3492 -9.4135,8.4917 -18.2677,10.912 -29.8908,8.1708 -15.0251,-3.5437 -24.9679,-19.506 -21.7966,-34.9957 2.8693,-14.0141 15.5766,-30.3874 32.3712,-41.7092 8.3081,-5.601 30.0958,-28.7809 30.0958,-32.0193 0,-0.8499 0.7711,-1.5453 1.7149,-1.5453 1.1132,0 1.7138,25.204 1.7138,71.999 v 71.9989 l -11.9018,2.0714 c -15.0328,2.6164 -16.0145,2.6016 -14.3264,-0.2156 z"
       style="fill:#1b1b1b" />
    <path
       inkscape:connector-curvature="0"
       id="path6955"
       d="m 4029.7424,3621.8537 c -0.7544,-1.2579 -4.2655,-6.7773 -7.8023,-12.2653 -8.687,-13.4786 -16.5862,-37.8389 -12.2694,-37.8389 0.5571,0 4.1797,2.8571 8.0518,6.3492 9.4136,8.4918 18.2677,10.912 29.8908,8.1708 15.0251,-3.5437 24.9679,-19.506 21.7966,-34.9957 -2.8692,-14.0141 -15.5766,-30.3874 -32.3712,-41.7092 -8.3081,-5.601 -30.0958,-28.7809 -30.0958,-32.0192 0,-0.85 -0.7711,-1.5454 -1.7149,-1.5454 -1.1131,0 -1.7137,25.204 -1.7137,71.999 v 71.9989 l 11.9017,2.0714 c 15.0328,2.6164 16.0145,2.6016 14.3264,-0.2156 z"
       style="fill:#1b1b1b" />
    <path
       style="fill:#1b1b1b"
       d="m 3980.2579,3621.8537 c 0.7544,-1.2579 4.2655,-6.7773 7.8023,-12.2653 8.687,-13.4786 16.5862,-37.8389 12.2694,-37.8389 -0.5571,0 -4.1797,2.8571 -8.0518,6.3492 -9.4135,8.4918 -18.2677,10.912 -29.8908,8.1708 -15.0251,-3.5437 -24.9679,-19.506 -21.7966,-34.9957 2.8693,-14.0141 15.5766,-30.3874 32.3712,-41.7092 8.3081,-5.601 30.0958,-28.7809 30.0958,-32.0192 0,-0.85 0.7711,-1.5454 1.7149,-1.5454 1.1132,0 1.7138,25.204 1.7138,71.999 v 71.9989 l -11.9018,2.0714 c -15.0328,2.6164 -16.0145,2.6016 -14.3264,-0.2156 z"
       id="path6957"
       inkscape:connector-curvature="0" />
    <path
       style="fill:#1b1b1b"
       d="m 3799.7424,3784.1463 c -0.7544,1.2579 -4.2655,6.7773 -7.8023,12.2653 -8.687,13.4786 -16.5862,37.8389 -12.2694,37.8389 0.5571,0 4.1797,-2.8571 8.0518,-6.3492 9.4136,-8.4917 18.2677,-10.912 29.8908,-8.1708 15.0251,3.5437 24.9679,19.506 21.7966,34.9957 -2.8692,14.0141 -15.5766,30.3874 -32.3712,41.7092 -8.3081,5.601 -30.0958,28.7809 -30.0958,32.0193 0,0.8499 -0.7711,1.5453 -1.7149,1.5453 -1.1131,0 -1.7137,-25.204 -1.7137,-71.999 v -71.9989 l 11.9017,-2.0714 c 15.0328,-2.6164 16.0145,-2.6016 14.3264,0.2156 z"
       id="path6961"
       inkscape:connector-curvature="0" />
    <path
       inkscape:connector-curvature="0"
       id="path6963"
       d="m 3750.2579,3784.1463 c 0.7544,1.2579 4.2655,6.7773 7.8023,12.2653 8.687,13.4786 16.5862,37.8389 12.2694,37.8389 -0.5571,0 -4.1797,-2.8571 -8.0518,-6.3492 -9.4135,-8.4917 -18.2677,-10.912 -29.8908,-8.1708 -15.0251,3.5437 -24.9679,19.506 -21.7966,34.9957 2.8693,14.0141 15.5766,30.3874 32.3712,41.7092 8.3081,5.601 30.0958,28.7809 30.0958,32.0193 0,0.8499 0.7711,1.5453 1.7149,1.5453 1.1132,0 1.7138,-25.204 1.7138,-71.999 v -71.9989 l -11.9018,-2.0714 c -15.0328,-2.6164 -16.0145,-2.6016 -14.3264,0.2156 z"
       style="fill:#1b1b1b" />
    <path
       style="fill:#1b1b1b"
       d="m 3652.3864,3295.3329 c 0.2321,-0.391 1.3125,-2.1065 2.4007,-3.8122 2.6729,-4.1893 5.1035,-11.7607 3.7752,-11.7607 -0.1714,0 -1.286,0.888 -2.4775,1.9734 -2.8964,2.6393 -5.6208,3.3915 -9.1971,2.5395 -4.6231,-1.1014 -7.6825,-6.0627 -6.7067,-10.877 0.8829,-4.3558 4.7928,-9.4448 9.9604,-12.9637 2.5563,-1.7408 9.2602,-8.9454 9.2602,-9.9519 0,-0.2642 0.2373,-0.4803 0.5277,-0.4803 0.3425,0 0.5273,7.8337 0.5273,22.378 v 22.3781 l -3.6621,0.6438 c -4.6255,0.8132 -4.9275,0.8086 -4.4081,-0.067 z"
       id="path6965"
       inkscape:connector-curvature="0" />
    <path
       inkscape:connector-curvature="0"
       id="path6967"
       d="m 3667.6124,3295.3329 c -0.2321,-0.391 -1.3125,-2.1065 -2.4007,-3.8122 -2.6729,-4.1893 -5.1034,-11.7607 -3.7752,-11.7607 0.1714,0 1.2861,0.888 2.4775,1.9734 2.8965,2.6393 5.6208,3.3915 9.1972,2.5395 4.6231,-1.1014 7.6824,-6.0627 6.7066,-10.877 -0.8829,-4.3558 -4.7928,-9.4448 -9.9604,-12.9637 -2.5563,-1.7408 -9.2602,-8.9454 -9.2602,-9.9519 0,-0.2642 -0.2373,-0.4803 -0.5277,-0.4803 -0.3425,0 -0.5273,7.8337 -0.5273,22.378 v 22.3781 l 3.6621,0.6438 c 4.6255,0.8132 4.9275,0.8086 4.4081,-0.067 z"
       style="fill:#1b1b1b" />
    <path
       inkscape:connector-curvature="0"
       id="path6969"
       d="m 4127.6124,3804.6677 c -0.2321,0.391 -1.3125,2.1065 -2.4007,3.8122 -2.6729,4.1893 -5.1035,11.7607 -3.7752,11.7607 0.1714,0 1.286,-0.888 2.4775,-1.9734 2.8964,-2.6393 5.6208,-3.3915 9.1971,-2.5395 4.6231,1.1014 7.6825,6.0627 6.7067,10.877 -0.8829,4.3558 -4.7928,9.4448 -9.9604,12.9637 -2.5563,1.7408 -9.2602,8.9454 -9.2602,9.9519 0,0.2642 -0.2373,0.4803 -0.5277,0.4803 -0.3425,0 -0.5273,-7.8337 -0.5273,-22.378 v -22.3781 l 3.6621,-0.6438 c 4.6255,-0.8132 4.9275,-0.8086 4.4081,0.067 z"
       style="fill:#1b1b1b" />
    <path
       style="fill:#1b1b1b"
       d="m 4112.3864,3804.6677 c 0.2321,0.391 1.3125,2.1065 2.4007,3.8122 2.6729,4.1893 5.1034,11.7607 3.7752,11.7607 -0.1714,0 -1.2861,-0.888 -2.4775,-1.9734 -2.8965,-2.6393 -5.6208,-3.3915 -9.1972,-2.5395 -4.6231,1.1014 -7.6824,6.0627 -6.7066,10.877 0.8829,4.3558 4.7928,9.4448 9.9604,12.9637 2.5563,1.7408 9.2602,8.9454 9.2602,9.9519 0,0.2642 0.2373,0.4803 0.5277,0.4803 0.3425,0 0.5273,-7.8337 0.5273,-22.378 v -22.3781 l -3.6621,-0.6438 c -4.6255,-0.8132 -4.9275,-0.8086 -4.4081,0.067 z"
       id="path6972"
       inkscape:connector-curvature="0" />
    <path
       inkscape:connector-curvature="0"
       id="path6974"
       style="font-style:normal;font-variant:normal;font-weight:500;font-stretch:expanded;font-size:medium;line-height:125%;font-family:'Engravers MT';-inkscape-font-specification:'Engravers MT Medium Expanded';letter-spacing:0px;word-spacing:0px;fill:#000000;fill-opacity:1;stroke:none;stroke-width:1px;stroke-linecap:butt;stroke-linejoin:miter;stroke-opacity:1"
       d="m 3660.3581,3208.5931 q 4.7481,0 6.7976,-4.0965 0.7856,-1.738 1.0931,-3.5587 0.2049,-0.9931 0.3416,-2.6483 0.1025,-1.6138 0.1707,-4.2207 0.068,-2.6069 0.068,-4.5517 0,-4.1379 -0.4098,-6.6621 -0.4441,-2.5241 -1.4006,-4.262 -1.7762,-3.3104 -5.8069,-3.3104 -4.0649,0 -6.5927,3.1448 -1.7421,2.0276 -2.4936,5.2138 -0.7857,3.2276 -0.7857,8.1518 0,5.7931 0.9907,9.4759 0.9564,3.724 2.9718,5.5034 1.9812,1.8207 5.0555,1.8207 z m -8.9497,-36.869 v 9.3104 h 0.1367 q 2.1179,-4.0139 4.9872,-5.8759 2.8693,-1.8207 6.9683,-1.8207 3.3477,0 6.3878,1.3655 3.0401,1.3655 5.3288,3.8069 2.2545,2.4414 3.5183,5.6276 1.2639,3.1862 1.2639,6.8275 0,5.3794 -2.4253,9.7242 -2.4253,4.3448 -6.7634,6.8276 -4.3382,2.4828 -9.5987,2.4828 -6.1144,0 -10.965,-3.7656 -4.8847,-3.7654 -7.549,-10.5103 -2.6986,-6.7448 -2.6986,-15.3517 0,-13.6552 6.8659,-22.2207 3.2452,-3.931 7.4808,-6.0414 4.2016,-2.1103 8.7447,-2.1103 7.0367,0 11.1016,4.8413 2.9377,3.4759 2.9377,7.6138 0,3.0621 -1.5372,5.0483 -1.5713,1.9862 -3.8941,1.9862 -2.4253,0 -3.9965,-1.7793 -1.6056,-1.7793 -1.6056,-4.6345 0,-1.9448 0.7857,-3.3104 0.7515,-1.324 2.4936,-2.3585 1.6738,-1.0345 1.6738,-2.069 0,-1.4897 -2.3229,-2.6483 -2.3569,-1.1586 -5.3628,-1.1586 -5.8754,0 -8.9155,5.131 -3.0402,5.1311 -3.0402,15.0621 z" />
    <path
       inkscape:connector-curvature="0"
       id="path6976"
       d="m 4112.3864,3295.3329 c 0.2321,-0.391 1.3125,-2.1065 2.4007,-3.8122 2.6729,-4.1893 5.1035,-11.7607 3.7752,-11.7607 -0.1714,0 -1.286,0.888 -2.4775,1.9734 -2.8964,2.6393 -5.6208,3.3915 -9.1971,2.5395 -4.6231,-1.1014 -7.6825,-6.0627 -6.7067,-10.877 0.8829,-4.3558 4.7928,-9.4448 9.9604,-12.9637 2.5563,-1.7408 9.2602,-8.9454 9.2602,-9.9519 0,-0.2642 0.2373,-0.4803 0.5277,-0.4803 0.3425,0 0.5273,7.8337 0.5273,22.378 v 22.3781 l -3.6621,0.6438 c -4.6255,0.8132 -4.9275,0.8086 -4.4081,-0.067 z"
       style="fill:#1b1b1b" />
    <path
       style="fill:#1b1b1b"
       d="m 4127.6124,3295.3329 c -0.2321,-0.391 -1.3125,-2.1065 -2.4007,-3.8122 -2.6729,-4.1893 -5.1034,-11.7607 -3.7752,-11.7607 0.1714,0 1.2861,0.888 2.4775,1.9734 2.8965,2.6393 5.6208,3.3915 9.1972,2.5395 4.6231,-1.1014 7.6824,-6.0627 6.7066,-10.877 -0.8829,-4.3558 -4.7928,-9.4448 -9.9604,-12.9637 -2.5563,-1.7408 -9.2602,-8.9454 -9.2602,-9.9519 0,-0.2642 -0.2373,-0.4803 -0.5277,-0.4803 -0.3425,0 -0.5273,7.8337 -0.5273,22.378 v 22.3781 l 3.6621,0.6438 c 4.6255,0.8132 4.9275,0.8086 4.4081,-0.067 z"
       id="path6978"
       inkscape:connector-curvature="0" />
    <path
       style="fill:#1b1b1b"
       d="m 3667.6124,3804.6677 c -0.2321,0.391 -1.3125,2.1065 -2.4007,3.8122 -2.6729,4.1893 -5.1035,11.7607 -3.7752,11.7607 0.1714,0 1.286,-0.888 2.4775,-1.9734 2.8964,-2.6393 5.6208,-3.3915 9.1971,-2.5395 4.6231,1.1014 7.6825,6.0627 6.7067,10.877 -0.8829,4.3558 -4.7928,9.4448 -9.9604,12.9637 -2.5563,1.7408 -9.2602,8.9454 -9.2602,9.9519 0,0.2642 -0.2373,0.4803 -0.5277,0.4803 -0.3425,0 -0.5273,-7.8337 -0.5273,-22.378 v -22.3781 l 3.6621,-0.6438 c 4.6255,-0.8132 4.9275,-0.8086 4.4081,0.067 z"
       id="path6980"
       inkscape:connector-curvature="0" />
    <path
       inkscape:connector-curvature="0"
       id="path6982"
       d="m 3652.3864,3804.6677 c 0.2321,0.391 1.3125,2.1065 2.4007,3.8122 2.6729,4.1893 5.1034,11.7607 3.7752,11.7607 -0.1714,0 -1.2861,-0.888 -2.4775,-1.9734 -2.8965,-2.6393 -5.6208,-3.3915 -9.1972,-2.5395 -4.6231,1.1014 -7.6824,6.0627 -6.7066,10.877 0.8829,4.3558 4.7928,9.4448 9.9604,12.9637 2.5563,1.7408 9.2602,8.9454 9.2602,9.9519 0,0.2642 0.2373,0.4803 0.5277,0.4803 0.3425,0 0.5273,-7.8337 0.5273,-22.378 v -22.3781 l -3.6621,-0.6438 c -4.6255,-0.8132 -4.9275,-0.8086 -4.4081,0.067 z"
       style="fill:#1b1b1b" />
    <path
       d="m 4120.3581,3208.5931 q 4.7481,0 6.7976,-4.0965 0.7856,-1.738 1.0931,-3.5587 0.2049,-0.9931 0.3416,-2.6483 0.1025,-1.6138 0.1707,-4.2207 0.068,-2.6069 0.068,-4.5517 0,-4.1379 -0.4098,-6.6621 -0.4441,-2.5241 -1.4006,-4.262 -1.7762,-3.3104 -5.8069,-3.3104 -4.0649,0 -6.5927,3.1448 -1.7421,2.0276 -2.4936,5.2138 -0.7857,3.2276 -0.7857,8.1518 0,5.7931 0.9907,9.4759 0.9564,3.724 2.9718,5.5034 1.9812,1.8207 5.0555,1.8207 z m -8.9497,-36.869 v 9.3104 h 0.1367 q 2.1179,-4.0139 4.9872,-5.8759 2.8693,-1.8207 6.9683,-1.8207 3.3477,0 6.3878,1.3655 3.0401,1.3655 5.3288,3.8069 2.2545,2.4414 3.5183,5.6276 1.2639,3.1862 1.2639,6.8275 0,5.3794 -2.4253,9.7242 -2.4253,4.3448 -6.7634,6.8276 -4.3382,2.4828 -9.5987,2.4828 -6.1144,0 -10.965,-3.7656 -4.8847,-3.7654 -7.549,-10.5103 -2.6986,-6.7448 -2.6986,-15.3517 0,-13.6552 6.8659,-22.2207 3.2452,-3.931 7.4808,-6.0414 4.2016,-2.1103 8.7447,-2.1103 7.0367,0 11.1016,4.8413 2.9377,3.4759 2.9377,7.6138 0,3.0621 -1.5372,5.0483 -1.5713,1.9862 -3.8941,1.9862 -2.4253,0 -3.9965,-1.7793 -1.6056,-1.7793 -1.6056,-4.6345 0,-1.9448 0.7857,-3.3104 0.7515,-1.324 2.4936,-2.3585 1.6738,-1.0345 1.6738,-2.069 0,-1.4897 -2.3229,-2.6483 -2.3569,-1.1586 -5.3628,-1.1586 -5.8754,0 -8.9155,5.131 -3.0402,5.1311 -3.0402,15.0621 z"
       style="font-style:normal;font-variant:normal;font-weight:500;font-stretch:expanded;font-size:medium;line-height:125%;font-family:'Engravers MT';-inkscape-font-specification:'Engravers MT Medium Expanded';letter-spacing:0px;word-spacing:0px;fill:#000000;fill-opacity:1;stroke:none;stroke-width:1px;stroke-linecap:butt;stroke-linejoin:miter;stroke-opacity:1"
       id="path6984"
       inkscape:connector-curvature="0" />
    <path
       d="m 4119.6407,3891.4069 q -4.7481,0 -6.7976,4.0965 -0.7856,1.738 -1.0931,3.5587 -0.2049,0.9931 -0.3416,2.6483 -0.1025,1.6138 -0.1707,4.2207 -0.068,2.6069 -0.068,4.5517 0,4.1379 0.4098,6.6621 0.4441,2.5241 1.4006,4.262 1.7762,3.3104 5.8069,3.3104 4.0649,0 6.5927,-3.1448 1.7421,-2.0276 2.4936,-5.2138 0.7857,-3.2276 0.7857,-8.1518 0,-5.7931 -0.9907,-9.4759 -0.9564,-3.724 -2.9718,-5.5034 -1.9812,-1.8207 -5.0555,-1.8207 z m 8.9497,36.869 v -9.3104 h -0.1367 q -2.1179,4.0139 -4.9872,5.8759 -2.8693,1.8207 -6.9683,1.8207 -3.3477,0 -6.3878,-1.3655 -3.0401,-1.3655 -5.3288,-3.8069 -2.2545,-2.4414 -3.5183,-5.6276 -1.2639,-3.1862 -1.2639,-6.8275 0,-5.3794 2.4253,-9.7242 2.4253,-4.3448 6.7634,-6.8276 4.3382,-2.4828 9.5987,-2.4828 6.1144,0 10.965,3.7656 4.8847,3.7654 7.549,10.5103 2.6986,6.7448 2.6986,15.3517 0,13.6552 -6.8659,22.2207 -3.2452,3.931 -7.4808,6.0414 -4.2016,2.1103 -8.7447,2.1103 -7.0367,0 -11.1016,-4.8413 -2.9377,-3.4759 -2.9377,-7.6138 0,-3.0621 1.5372,-5.0483 1.5713,-1.9862 3.8941,-1.9862 2.4253,0 3.9965,1.7793 1.6056,1.7793 1.6056,4.6345 0,1.9448 -0.7857,3.3104 -0.7515,1.324 -2.4936,2.3585 -1.6738,1.0345 -1.6738,2.069 0,1.4897 2.3229,2.6483 2.3569,1.1586 5.3628,1.1586 5.8754,0 8.9155,-5.131 3.0402,-5.1311 3.0402,-15.0621 z"
       style="font-style:normal;font-variant:normal;font-weight:500;font-stretch:expanded;font-size:medium;line-height:125%;font-family:'Engravers MT';-inkscape-font-specification:'Engravers MT Medium Expanded';letter-spacing:0px;word-spacing:0px;fill:#000000;fill-opacity:1;stroke:none;stroke-width:1px;stroke-linecap:butt;stroke-linejoin:miter;stroke-opacity:1"
       id="path6986"
       inkscape:connector-curvature="0" />
    <path
       inkscape:connector-curvature="0"
       id="path6988"
       style="font-style:normal;font-variant:normal;font-weight:500;font-stretch:expanded;font-size:medium;line-height:125%;font-family:'Engravers MT';-inkscape-font-specification:'Engravers MT Medium Expanded';letter-spacing:0px;word-spacing:0px;fill:#000000;fill-opacity:1;stroke:none;stroke-width:1px;stroke-linecap:butt;stroke-linejoin:miter;stroke-opacity:1"
       d="m 3659.6407,3891.4069 q -4.7481,0 -6.7976,4.0965 -0.7856,1.738 -1.0931,3.5587 -0.2049,0.9931 -0.3416,2.6483 -0.1025,1.6138 -0.1707,4.2207 -0.068,2.6069 -0.068,4.5517 0,4.1379 0.4098,6.6621 0.4441,2.5241 1.4006,4.262 1.7762,3.3104 5.8069,3.3104 4.0649,0 6.5927,-3.1448 1.7421,-2.0276 2.4936,-5.2138 0.7857,-3.2276 0.7857,-8.1518 0,-5.7931 -0.9907,-9.4759 -0.9564,-3.724 -2.9718,-5.5034 -1.9812,-1.8207 -5.0555,-1.8207 z m 8.9497,36.869 v -9.3104 h -0.1367 q -2.1179,4.0139 -4.9872,5.8759 -2.8693,1.8207 -6.9683,1.8207 -3.3477,0 -6.3878,-1.3655 -3.0401,-1.3655 -5.3288,-3.8069 -2.2545,-2.4414 -3.5183,-5.6276 -1.2639,-3.1862 -1.2639,-6.8275 0,-5.3794 2.4253,-9.7242 2.4253,-4.3448 6.7634,-6.8276 4.3382,-2.4828 9.5987,-2.4828 6.1144,0 10.965,3.7656 4.8847,3.7654 7.549,10.5103 2.6986,6.7448 2.6986,15.3517 0,13.6552 -6.8659,22.2207 -3.2452,3.931 -7.4808,6.0414 -4.2016,2.1103 -8.7447,2.1103 -7.0367,0 -11.1016,-4.8413 -2.9377,-3.4759 -2.9377,-7.6138 0,-3.0621 1.5372,-5.0483 1.5713,-1.9862 3.8941,-1.9862 2.4253,0 3.9965,1.7793 1.6056,1.7793 1.6056,4.6345 0,1.9448 -0.7857,3.3104 -0.7515,1.324 -2.4936,2.3585 -1.6738,1.0345 -1.6738,2.069 0,1.4897 2.3229,2.6483 2.3569,1.1586 5.3628,1.1586 5.8754,0 8.9155,-5.131 3.0402,-5.1311 3.0402,-15.0621 z" />
  </g>
</svg>
