<?xml version="1.0" encoding="UTF-8" standalone="no"?>
<!-- Created with Inkscape (http://www.inkscape.org/) -->

<svg
   id="svg10047"
   height="123.00265"
   width="78.998276"
   version="1.1"
   viewBox="0 0 78.998276 123.00265"
   inkscape:version="0.91 r13725"
   sodipodi:docname="franzoesisches-bild.svgz"
   xmlns:inkscape="http://www.inkscape.org/namespaces/inkscape"
   xmlns:sodipodi="http://sodipodi.sourceforge.net/DTD/sodipodi-0.dtd"
   xmlns="http://www.w3.org/2000/svg"
   xmlns:svg="http://www.w3.org/2000/svg"
   xmlns:rdf="http://www.w3.org/1999/02/22-rdf-syntax-ns#"
   xmlns:cc="http://creativecommons.org/ns#"
   xmlns:dc="http://purl.org/dc/elements/1.1/">
  <sodipodi:namedview
     pagecolor="#ffffff"
     bordercolor="#666666"
     borderopacity="1"
     objecttolerance="10"
     gridtolerance="10"
     guidetolerance="10"
     inkscape:pageopacity="0"
     inkscape:pageshadow="2"
     inkscape:window-width="1920"
     inkscape:window-height="1016"
     id="namedview1491"
     showgrid="false"
     inkscape:zoom="1.3479675"
     inkscape:cx="513.5"
     inkscape:cy="307.5"
     inkscape:window-x="0"
     inkscape:window-y="0"
     inkscape:window-maximized="1"
     inkscape:current-layer="svg10047"
     showguides="true"
     inkscape:guide-bbox="true"
     inkscape:snap-grids="true"
     inkscape:showpageshadow="2"
     inkscape:pagecheckerboard="0"
     inkscape:deskcolor="#d1d1d1" />
  <metadata
     id="metadata16869">
    <rdf:RDF>
      <cc:Work
         rdf:about="">
        <dc:format>image/svg+xml</dc:format>
        <dc:type
           rdf:resource="http://purl.org/dc/dcmitype/StillImage" />
        <dc:title />
      </cc:Work>
    </rdf:RDF>
  </metadata>
  <defs
     id="defs10049" />
  <g
     transform="matrix(0.13625087,0,0,0.13666972,-204.3763,-423.67623)"
     id="spade_3"
     inkscape:label="#spade_3">
    <rect
       style="font-style:normal;font-variant:normal;font-weight:500;font-stretch:normal;font-size:medium;line-height:125%;font-family:Gaelic;-inkscape-font-specification:'Gaelic Medium';letter-spacing:0px;word-spacing:0px;fill:#ffffff;fill-opacity:1;stroke:#000000;stroke-width:1.99863;stroke-linecap:butt;stroke-linejoin:miter;stroke-miterlimit:4;stroke-dasharray:none;stroke-opacity:1"
       id="rect7178"
       y="3101"
       x="1500.9993"
       ry="49.888187"
       rx="48.194115"
       height="898.00061"
       width="577.80151" />
    <path
       inkscape:connector-curvature="0"
       id="path7182"
       d="m 1765.2578,3315.8537 c 0.7544,-1.2579 4.2655,-6.7773 7.8023,-12.2653 8.687,-13.4786 16.5862,-37.8389 12.2694,-37.8389 -0.5571,0 -4.1797,2.8571 -8.0518,6.3492 -9.4136,8.4917 -18.2677,10.912 -29.8908,8.1708 -15.0251,-3.5437 -24.9679,-19.506 -21.7966,-34.9957 2.8692,-14.0141 15.5766,-30.3874 32.3712,-41.7092 8.3081,-5.601 30.0958,-28.7809 30.0958,-32.0193 0,-0.8499 0.7711,-1.5453 1.7149,-1.5453 1.1131,0 1.7137,25.204 1.7137,71.999 v 71.9989 l -11.9017,2.0714 c -15.0328,2.6164 -16.0145,2.6016 -14.3264,-0.2156 z"
       style="fill:#1b1b1b" />
    <path
       style="fill:#1b1b1b"
       d="m 1814.7423,3315.8537 c -0.7544,-1.2579 -4.2655,-6.7773 -7.8023,-12.2653 -8.687,-13.4786 -16.5862,-37.8389 -12.2694,-37.8389 0.5571,0 4.1797,2.8571 8.0518,6.3492 9.4135,8.4917 18.2677,10.912 29.8908,8.1708 15.0251,-3.5437 24.9679,-19.506 21.7966,-34.9957 -2.8693,-14.0141 -15.5766,-30.3874 -32.3712,-41.7092 -8.3081,-5.601 -30.0958,-28.7809 -30.0958,-32.0193 0,-0.8499 -0.7711,-1.5453 -1.7149,-1.5453 -1.1132,0 -1.7138,25.204 -1.7138,71.999 v 71.9989 l 11.9018,2.0714 c 15.0328,2.6164 16.0145,2.6016 14.3264,-0.2156 z"
       id="path7184"
       inkscape:connector-curvature="0" />
    <path
       style="fill:#1b1b1b"
       d="m 1765.2575,3621.8537 c 0.7544,-1.2579 4.2655,-6.7773 7.8023,-12.2653 8.687,-13.4786 16.5862,-37.8389 12.2694,-37.8389 -0.5571,0 -4.1797,2.8571 -8.0518,6.3492 -9.4136,8.4917 -18.2677,10.912 -29.8908,8.1708 -15.0251,-3.5437 -24.9679,-19.506 -21.7966,-34.9957 2.8692,-14.0141 15.5766,-30.3874 32.3712,-41.7092 8.3081,-5.601 30.0958,-28.7809 30.0958,-32.0193 0,-0.8499 0.7711,-1.5453 1.7149,-1.5453 1.1131,0 1.7137,25.204 1.7137,71.999 v 71.9989 l -11.9017,2.0714 c -15.0328,2.6164 -16.0145,2.6016 -14.3264,-0.2156 z"
       id="path7188"
       inkscape:connector-curvature="0" />
    <path
       inkscape:connector-curvature="0"
       id="path7190"
       d="m 1814.742,3621.8537 c -0.7544,-1.2579 -4.2655,-6.7773 -7.8023,-12.2653 -8.687,-13.4786 -16.5862,-37.8389 -12.2694,-37.8389 0.5571,0 4.1797,2.8571 8.0518,6.3492 9.4135,8.4917 18.2677,10.912 29.8908,8.1708 15.0251,-3.5437 24.9679,-19.506 21.7966,-34.9957 -2.8693,-14.0141 -15.5766,-30.3874 -32.3712,-41.7092 -8.3081,-5.601 -30.0958,-28.7809 -30.0958,-32.0193 0,-0.8499 -0.7711,-1.5453 -1.7149,-1.5453 -1.1132,0 -1.7138,25.204 -1.7138,71.999 v 71.9989 l 11.9018,2.0714 c 15.0328,2.6164 16.0145,2.6016 14.3264,-0.2156 z"
       style="fill:#1b1b1b" />
    <path
       inkscape:connector-curvature="0"
       id="path7206"
       d="m 1814.7424,3784.1463 c -0.7544,1.2579 -4.2655,6.7773 -7.8023,12.2653 -8.687,13.4786 -16.5862,37.8389 -12.2694,37.8389 0.5571,0 4.1797,-2.8571 8.0518,-6.3492 9.4136,-8.4917 18.2677,-10.912 29.8908,-8.1708 15.0251,3.5437 24.9679,19.506 21.7966,34.9957 -2.8692,14.0141 -15.5766,30.3874 -32.3712,41.7092 -8.3081,5.601 -30.0958,28.7809 -30.0958,32.0193 0,0.8499 -0.7711,1.5453 -1.7149,1.5453 -1.1131,0 -1.7137,-25.204 -1.7137,-71.999 v -71.9989 l 11.9017,-2.0714 c 15.0328,-2.6164 16.0145,-2.6016 14.3264,0.2156 z"
       style="fill:#1b1b1b" />
    <path
       style="fill:#1b1b1b"
       d="m 1765.2579,3784.1463 c 0.7544,1.2579 4.2655,6.7773 7.8023,12.2653 8.687,13.4786 16.5862,37.8389 12.2694,37.8389 -0.5571,0 -4.1797,-2.8571 -8.0518,-6.3492 -9.4135,-8.4917 -18.2677,-10.912 -29.8908,-8.1708 -15.0251,3.5437 -24.9679,19.506 -21.7966,34.9957 2.8693,14.0141 15.5766,30.3874 32.3712,41.7092 8.3081,5.601 30.0958,28.7809 30.0958,32.0193 0,0.8499 0.7711,1.5453 1.7149,1.5453 1.1132,0 1.7138,-25.204 1.7138,-71.999 v -71.9989 l -11.9018,-2.0714 c -15.0328,-2.6164 -16.0145,-2.6016 -14.3264,0.2156 z"
       id="path7208"
       inkscape:connector-curvature="0" />
    <path
       inkscape:connector-curvature="0"
       id="path7210"
       d="m 1552.3864,3295.3329 c 0.2321,-0.391 1.3125,-2.1065 2.4007,-3.8122 2.6729,-4.1893 5.1035,-11.7607 3.7752,-11.7607 -0.1714,0 -1.286,0.888 -2.4775,1.9734 -2.8964,2.6393 -5.6208,3.3915 -9.1971,2.5395 -4.6231,-1.1014 -7.6825,-6.0627 -6.7067,-10.877 0.8829,-4.3558 4.7928,-9.4448 9.9604,-12.9637 2.5563,-1.7408 9.2602,-8.9454 9.2602,-9.9519 0,-0.2642 0.2373,-0.4803 0.5277,-0.4803 0.3425,0 0.5273,7.8337 0.5273,22.378 v 22.3781 l -3.6621,0.6438 c -4.6255,0.8132 -4.9275,0.8086 -4.4081,-0.067 z"
       style="fill:#1b1b1b" />
    <path
       style="fill:#1b1b1b"
       d="m 1567.6124,3295.3329 c -0.2321,-0.391 -1.3125,-2.1065 -2.4007,-3.8122 -2.6729,-4.1893 -5.1034,-11.7607 -3.7752,-11.7607 0.1714,0 1.2861,0.888 2.4775,1.9734 2.8965,2.6393 5.6208,3.3915 9.1972,2.5395 4.6231,-1.1014 7.6824,-6.0627 6.7066,-10.877 -0.8829,-4.3558 -4.7928,-9.4448 -9.9604,-12.9637 -2.5563,-1.7408 -9.2602,-8.9454 -9.2602,-9.9519 0,-0.2642 -0.2373,-0.4803 -0.5277,-0.4803 -0.3425,0 -0.5273,7.8337 -0.5273,22.378 v 22.3781 l 3.6621,0.6438 c 4.6255,0.8132 4.9275,0.8086 4.4081,-0.067 z"
       id="path7212"
       inkscape:connector-curvature="0" />
    <path
       style="fill:#1b1b1b"
       d="m 2027.6124,3804.6677 c -0.2321,0.391 -1.3125,2.1065 -2.4007,3.8122 -2.6729,4.1893 -5.1035,11.7607 -3.7752,11.7607 0.1714,0 1.286,-0.888 2.4775,-1.9734 2.8964,-2.6393 5.6208,-3.3915 9.1971,-2.5395 4.6231,1.1014 7.6825,6.0627 6.7067,10.877 -0.8829,4.3558 -4.7928,9.4448 -9.9604,12.9637 -2.5563,1.7408 -9.2602,8.9454 -9.2602,9.9519 0,0.2642 -0.2373,0.4803 -0.5277,0.4803 -0.3425,0 -0.5273,-7.8337 -0.5273,-22.378 v -22.3781 l 3.6621,-0.6438 c 4.6255,-0.8132 4.9275,-0.8086 4.4081,0.067 z"
       id="path7214"
       inkscape:connector-curvature="0" />
    <path
       inkscape:connector-curvature="0"
       id="path7216"
       d="m 2012.3864,3804.6677 c 0.2321,0.391 1.3125,2.1065 2.4007,3.8122 2.6729,4.1893 5.1034,11.7607 3.7752,11.7607 -0.1714,0 -1.2861,-0.888 -2.4775,-1.9734 -2.8965,-2.6393 -5.6208,-3.3915 -9.1972,-2.5395 -4.6231,1.1014 -7.6824,6.0627 -6.7066,10.877 0.8829,4.3558 4.7928,9.4448 9.9604,12.9637 2.5563,1.7408 9.2602,8.9454 9.2602,9.9519 0,0.2642 0.2373,0.4803 0.5277,0.4803 0.3425,0 0.5273,-7.8337 0.5273,-22.378 v -22.3781 l -3.6621,-0.6438 c -4.6255,-0.8132 -4.9275,-0.8086 -4.4081,0.067 z"
       style="fill:#1b1b1b" />
    <path
       style="fill:#1b1b1b"
       d="m 2012.3864,3295.3329 c 0.2321,-0.391 1.3125,-2.1065 2.4007,-3.8122 2.6729,-4.1893 5.1035,-11.7607 3.7752,-11.7607 -0.1714,0 -1.286,0.888 -2.4775,1.9734 -2.8964,2.6393 -5.6208,3.3915 -9.1971,2.5395 -4.6231,-1.1014 -7.6825,-6.0627 -6.7067,-10.877 0.8829,-4.3558 4.7928,-9.4448 9.9604,-12.9637 2.5563,-1.7408 9.2602,-8.9454 9.2602,-9.9519 0,-0.2642 0.2373,-0.4803 0.5277,-0.4803 0.3425,0 0.5273,7.8337 0.5273,22.378 v 22.3781 l -3.6621,0.6438 c -4.6255,0.8132 -4.9275,0.8086 -4.4081,-0.067 z"
       id="path7220"
       inkscape:connector-curvature="0" />
    <path
       inkscape:connector-curvature="0"
       id="path7222"
       d="m 2027.6124,3295.3329 c -0.2321,-0.391 -1.3125,-2.1065 -2.4007,-3.8122 -2.6729,-4.1893 -5.1034,-11.7607 -3.7752,-11.7607 0.1714,0 1.2861,0.888 2.4775,1.9734 2.8965,2.6393 5.6208,3.3915 9.1972,2.5395 4.6231,-1.1014 7.6824,-6.0627 6.7066,-10.877 -0.8829,-4.3558 -4.7928,-9.4448 -9.9604,-12.9637 -2.5563,-1.7408 -9.2602,-8.9454 -9.2602,-9.9519 0,-0.2642 -0.2373,-0.4803 -0.5277,-0.4803 -0.3425,0 -0.5273,7.8337 -0.5273,22.378 v 22.3781 l 3.6621,0.6438 c 4.6255,0.8132 4.9275,0.8086 4.4081,-0.067 z"
       style="fill:#1b1b1b" />
    <path
       inkscape:connector-curvature="0"
       id="path7224"
       d="m 1567.6124,3804.6677 c -0.2321,0.391 -1.3125,2.1065 -2.4007,3.8122 -2.6729,4.1893 -5.1035,11.7607 -3.7752,11.7607 0.1714,0 1.286,-0.888 2.4775,-1.9734 2.8964,-2.6393 5.6208,-3.3915 9.1971,-2.5395 4.6231,1.1014 7.6825,6.0627 6.7067,10.877 -0.8829,4.3558 -4.7928,9.4448 -9.9604,12.9637 -2.5563,1.7408 -9.2602,8.9454 -9.2602,9.9519 0,0.2642 -0.2373,0.4803 -0.5277,0.4803 -0.3425,0 -0.5273,-7.8337 -0.5273,-22.378 v -22.3781 l 3.6621,-0.6438 c 4.6255,-0.8132 4.9275,-0.8086 4.4081,0.067 z"
       style="fill:#1b1b1b" />
    <path
       style="fill:#1b1b1b"
       d="m 1552.3864,3804.6677 c 0.2321,0.391 1.3125,2.1065 2.4007,3.8122 2.6729,4.1893 5.1034,11.7607 3.7752,11.7607 -0.1714,0 -1.2861,-0.888 -2.4775,-1.9734 -2.8965,-2.6393 -5.6208,-3.3915 -9.1972,-2.5395 -4.6231,1.1014 -7.6824,6.0627 -6.7066,10.877 0.8829,4.3558 4.7928,9.4448 9.9604,12.9637 2.5563,1.7408 9.2602,8.9454 9.2602,9.9519 0,0.2642 0.2373,0.4803 0.5277,0.4803 0.3425,0 0.5273,-7.8337 0.5273,-22.378 v -22.3781 l -3.6621,-0.6438 c -4.6255,-0.8132 -4.9275,-0.8086 -4.4081,0.067 z"
       id="path7226"
       inkscape:connector-curvature="0" />
    <path
       d="m 1563.5314,3178.0141 v -0.083 0.1655 q 5.3311,0.9517 7.708,2.2345 2.8862,1.3656 4.8217,3.3104 1.9695,1.9448 2.9542,4.4689 0.9847,2.4828 0.9847,5.338 0,4.8827 -2.7844,8.6483 -2.7504,3.7654 -7.8439,5.8344 -5.0593,2.0689 -11.477,2.0689 -3.6671,0 -7.2325,-0.9103 -3.5314,-0.9103 -5.6367,-2.3171 -2.275,-1.6553 -3.6673,-4.2622 -1.3582,-2.6068 -1.3582,-5.2552 0,-3.062 1.6299,-5.0896 1.6298,-2.0276 4.0746,-2.0276 2.411,0 3.905,1.8621 1.528,1.8207 1.528,4.5931 0,1.7379 -0.6791,3.0621 -0.6452,1.2827 -2.1731,2.5241 -1.4602,1.1173 -1.4602,2.0276 0,1.862 2.9542,3.0621 2.9881,1.2 7.4023,1.2 6.214,0 9.0663,-3.3931 3.056,-3.8897 2.6825,-11.2966 -0.4075,-8.4413 -3.0561,-11.5035 -2.7503,-3.2276 -7.8438,-3.2276 -1.2563,0 -4.584,0.3311 -0.9168,0.1655 -1.8336,0.1655 -1.9354,0 -1.9354,-1.4483 0,-1.4068 2.1731,-1.4068 0.4074,0 2.2751,0.2482 2.4108,0.3311 3.9727,0.3311 3.0222,0 4.8558,-1.1587 1.8336,-1.2 2.6486,-3.7654 0.8488,-2.5656 0.8488,-7.0346 0,-2.4827 -0.3396,-4.5104 -0.3395,-2.0689 -0.9847,-3.724 -0.6111,-1.6552 -1.528,-2.6897 -2.309,-2.8138 -6.6213,-2.8138 -2.5807,0 -4.8218,0.7034 -2.2411,0.7035 -3.6333,1.8622 -1.3582,1.1172 -1.3582,2.3585 0,0.6621 0.3395,1.1172 0.3396,0.4139 1.2564,1.0759 1.5959,0.9518 2.3089,2.2759 0.7133,1.2828 0.7133,3.269 0,2.731 -1.4942,4.5103 -1.4601,1.7379 -3.6673,1.7379 -2.3429,0 -3.9387,-1.9448 -1.562,-1.9862 -1.562,-4.8413 0,-3.9725 2.241,-7.1173 2.2751,-3.1449 6.3498,-4.8414 4.1086,-1.7379 9.3038,-1.7379 5.3651,0 9.3719,1.8207 4.0068,1.7793 6.214,5.131 2.2071,3.3104 2.2071,7.7794 0,2.8137 -0.9847,5.2137 -0.9509,2.3587 -2.8524,4.0966 -2.1731,1.9862 -6.112,3.1448 -0.9848,0.2897 -3.3277,0.8275 z"
       style="font-style:normal;font-variant:normal;font-weight:500;font-stretch:expanded;font-size:medium;line-height:125%;font-family:'Engravers MT';-inkscape-font-specification:'Engravers MT Medium Expanded';letter-spacing:0px;word-spacing:0px;fill:#000000;fill-opacity:1;stroke:none;stroke-width:1px;stroke-linecap:butt;stroke-linejoin:miter;stroke-opacity:1"
       id="path6487-7"
       inkscape:connector-curvature="0" />
    <path
       inkscape:connector-curvature="0"
       id="path7447"
       style="font-style:normal;font-variant:normal;font-weight:500;font-stretch:expanded;font-size:medium;line-height:125%;font-family:'Engravers MT';-inkscape-font-specification:'Engravers MT Medium Expanded';letter-spacing:0px;word-spacing:0px;fill:#000000;fill-opacity:1;stroke:none;stroke-width:1px;stroke-linecap:butt;stroke-linejoin:miter;stroke-opacity:1"
       d="m 2023.5314,3178.0141 v -0.083 0.1655 q 5.3311,0.9517 7.708,2.2345 2.8862,1.3656 4.8217,3.3104 1.9695,1.9448 2.9542,4.4689 0.9847,2.4828 0.9847,5.338 0,4.8827 -2.7844,8.6483 -2.7504,3.7654 -7.8439,5.8344 -5.0593,2.0689 -11.477,2.0689 -3.6671,0 -7.2325,-0.9103 -3.5314,-0.9103 -5.6367,-2.3171 -2.275,-1.6553 -3.6673,-4.2622 -1.3582,-2.6068 -1.3582,-5.2552 0,-3.062 1.6299,-5.0896 1.6298,-2.0276 4.0746,-2.0276 2.411,0 3.905,1.8621 1.528,1.8207 1.528,4.5931 0,1.7379 -0.6791,3.0621 -0.6452,1.2827 -2.1731,2.5241 -1.4602,1.1173 -1.4602,2.0276 0,1.862 2.9542,3.0621 2.9881,1.2 7.4023,1.2 6.214,0 9.0663,-3.3931 3.056,-3.8897 2.6825,-11.2966 -0.4075,-8.4413 -3.0561,-11.5035 -2.7503,-3.2276 -7.8438,-3.2276 -1.2563,0 -4.584,0.3311 -0.9168,0.1655 -1.8336,0.1655 -1.9354,0 -1.9354,-1.4483 0,-1.4068 2.1731,-1.4068 0.4074,0 2.2751,0.2482 2.4108,0.3311 3.9727,0.3311 3.0222,0 4.8558,-1.1587 1.8336,-1.2 2.6486,-3.7654 0.8488,-2.5656 0.8488,-7.0346 0,-2.4827 -0.3396,-4.5104 -0.3395,-2.0689 -0.9847,-3.724 -0.6111,-1.6552 -1.528,-2.6897 -2.309,-2.8138 -6.6213,-2.8138 -2.5807,0 -4.8218,0.7034 -2.2411,0.7035 -3.6333,1.8622 -1.3582,1.1172 -1.3582,2.3585 0,0.6621 0.3395,1.1172 0.3396,0.4139 1.2564,1.0759 1.5959,0.9518 2.3089,2.2759 0.7133,1.2828 0.7133,3.269 0,2.731 -1.4942,4.5103 -1.4601,1.7379 -3.6673,1.7379 -2.3429,0 -3.9387,-1.9448 -1.562,-1.9862 -1.562,-4.8413 0,-3.9725 2.241,-7.1173 2.2751,-3.1449 6.3498,-4.8414 4.1086,-1.7379 9.3038,-1.7379 5.3651,0 9.3719,1.8207 4.0068,1.7793 6.214,5.131 2.2071,3.3104 2.2071,7.7794 0,2.8137 -0.9847,5.2137 -0.9509,2.3587 -2.8524,4.0966 -2.1731,1.9862 -6.112,3.1448 -0.9848,0.2897 -3.3277,0.8275 z" />
    <path
       inkscape:connector-curvature="0"
       id="path7449"
       style="font-style:normal;font-variant:normal;font-weight:500;font-stretch:expanded;font-size:medium;line-height:125%;font-family:'Engravers MT';-inkscape-font-specification:'Engravers MT Medium Expanded';letter-spacing:0px;word-spacing:0px;fill:#000000;fill-opacity:1;stroke:none;stroke-width:1px;stroke-linecap:butt;stroke-linejoin:miter;stroke-opacity:1"
       d="m 1556.4686,3921.9859 v 0.083 -0.1655 q -5.3311,-0.9517 -7.708,-2.2345 -2.8862,-1.3656 -4.8217,-3.3104 -1.9695,-1.9448 -2.9542,-4.4689 -0.9847,-2.4828 -0.9847,-5.338 0,-4.8827 2.7844,-8.6483 2.7504,-3.7654 7.844,-5.8344 5.0592,-2.0689 11.4769,-2.0689 3.6671,0 7.2325,0.9103 3.5314,0.9103 5.6368,2.3171 2.275,1.6553 3.6673,4.2622 1.3581,2.6068 1.3581,5.2552 0,3.062 -1.6299,5.0896 -1.6297,2.0276 -4.0746,2.0276 -2.411,0 -3.9049,-1.8621 -1.5281,-1.8207 -1.5281,-4.5931 0,-1.7379 0.6792,-3.0621 0.6452,-1.2827 2.1731,-2.5241 1.4602,-1.1173 1.4602,-2.0276 0,-1.862 -2.9542,-3.0621 -2.9881,-1.2 -7.4023,-1.2 -6.214,0 -9.0663,3.3931 -3.056,3.8897 -2.6825,11.2966 0.4075,8.4413 3.0561,11.5035 2.7503,3.2276 7.8438,3.2276 1.2563,0 4.584,-0.3311 0.9168,-0.1655 1.8336,-0.1655 1.9354,0 1.9354,1.4483 0,1.4068 -2.1731,1.4068 -0.4074,0 -2.2751,-0.2482 -2.4108,-0.331 -3.9727,-0.331 -3.0222,0 -4.8558,1.1586 -1.8336,1.2 -2.6486,3.7655 -0.8488,2.5656 -0.8488,7.0346 0,2.4827 0.3396,4.5104 0.3395,2.0689 0.9847,3.724 0.6111,1.6552 1.528,2.6897 2.309,2.8138 6.6213,2.8138 2.5807,0 4.8218,-0.7034 2.2411,-0.7035 3.6333,-1.8622 1.3582,-1.1172 1.3582,-2.3585 0,-0.6621 -0.3395,-1.1172 -0.3396,-0.4139 -1.2564,-1.0759 -1.5959,-0.9518 -2.3089,-2.2759 -0.7133,-1.2828 -0.7133,-3.269 0,-2.731 1.4942,-4.5103 1.4601,-1.7379 3.6673,-1.7379 2.3429,0 3.9387,1.9448 1.562,1.9862 1.562,4.8413 0,3.9725 -2.241,7.1173 -2.2751,3.1449 -6.3498,4.8414 -4.1086,1.7379 -9.3038,1.7379 -5.3651,0 -9.3719,-1.8207 -4.0068,-1.7793 -6.214,-5.131 -2.2071,-3.3104 -2.2071,-7.7794 0,-2.8137 0.9847,-5.2137 0.9509,-2.3587 2.8524,-4.0966 2.1731,-1.9862 6.112,-3.1448 0.9848,-0.2897 3.3277,-0.8275 z" />
    <path
       d="m 2016.4686,3921.9859 v 0.083 -0.1655 q -5.3311,-0.9517 -7.708,-2.2345 -2.8862,-1.3656 -4.8217,-3.3104 -1.9695,-1.9448 -2.9542,-4.4689 -0.9847,-2.4828 -0.9847,-5.338 0,-4.8827 2.7844,-8.6483 2.7504,-3.7654 7.844,-5.8344 5.0592,-2.0689 11.4769,-2.0689 3.6671,0 7.2325,0.9103 3.5314,0.9103 5.6368,2.3171 2.275,1.6553 3.6673,4.2622 1.3581,2.6068 1.3581,5.2552 0,3.062 -1.6299,5.0896 -1.6297,2.0276 -4.0746,2.0276 -2.411,0 -3.9049,-1.8621 -1.5281,-1.8207 -1.5281,-4.5931 0,-1.7379 0.6792,-3.0621 0.6452,-1.2827 2.1731,-2.5241 1.4602,-1.1173 1.4602,-2.0276 0,-1.862 -2.9542,-3.0621 -2.9881,-1.2 -7.4023,-1.2 -6.214,0 -9.0663,3.3931 -3.056,3.8897 -2.6825,11.2966 0.4075,8.4413 3.0561,11.5035 2.7503,3.2276 7.8438,3.2276 1.2563,0 4.584,-0.3311 0.9168,-0.1655 1.8336,-0.1655 1.9354,0 1.9354,1.4483 0,1.4068 -2.1731,1.4068 -0.4074,0 -2.2751,-0.2482 -2.4108,-0.331 -3.9727,-0.331 -3.0222,0 -4.8558,1.1586 -1.8336,1.2 -2.6486,3.7655 -0.8488,2.5656 -0.8488,7.0346 0,2.4827 0.3396,4.5104 0.3395,2.0689 0.9847,3.724 0.6111,1.6552 1.528,2.6897 2.309,2.8138 6.6213,2.8138 2.5807,0 4.8218,-0.7034 2.2411,-0.7035 3.6333,-1.8622 1.3582,-1.1172 1.3582,-2.3585 0,-0.6621 -0.3395,-1.1172 -0.3396,-0.4139 -1.2564,-1.0759 -1.5959,-0.9518 -2.3089,-2.2759 -0.7133,-1.2828 -0.7133,-3.269 0,-2.731 1.4942,-4.5103 1.4601,-1.7379 3.6673,-1.7379 2.3429,0 3.9387,1.9448 1.562,1.9862 1.562,4.8413 0,3.9725 -2.241,7.1173 -2.2751,3.1449 -6.3498,4.8414 -4.1086,1.7379 -9.3038,1.7379 -5.3651,0 -9.3719,-1.8207 -4.0068,-1.7793 -6.214,-5.131 -2.2071,-3.3104 -2.2071,-7.7794 0,-2.8137 0.9847,-5.2137 0.9509,-2.3587 2.8524,-4.0966 2.1731,-1.9862 6.112,-3.1448 0.9848,-0.2897 3.3277,-0.8275 z"
       style="font-style:normal;font-variant:normal;font-weight:500;font-stretch:expanded;font-size:medium;line-height:125%;font-family:'Engravers MT';-inkscape-font-specification:'Engravers MT Medium Expanded';letter-spacing:0px;word-spacing:0px;fill:#000000;fill-opacity:1;stroke:none;stroke-width:1px;stroke-linecap:butt;stroke-linejoin:miter;stroke-opacity:1"
       id="path7451"
       inkscape:connector-curvature="0" />
  </g>
</svg>
