<?xml version="1.0" encoding="UTF-8" standalone="no"?>
<!-- Created with Inkscape (http://www.inkscape.org/) -->

<svg
   id="svg10047"
   height="123.00265"
   width="78.998276"
   version="1.1"
   viewBox="0 0 78.998276 123.00265"
   inkscape:version="0.91 r13725"
   sodipodi:docname="franzoesisches-bild.svgz"
   xmlns:inkscape="http://www.inkscape.org/namespaces/inkscape"
   xmlns:sodipodi="http://sodipodi.sourceforge.net/DTD/sodipodi-0.dtd"
   xmlns="http://www.w3.org/2000/svg"
   xmlns:svg="http://www.w3.org/2000/svg"
   xmlns:rdf="http://www.w3.org/1999/02/22-rdf-syntax-ns#"
   xmlns:cc="http://creativecommons.org/ns#"
   xmlns:dc="http://purl.org/dc/elements/1.1/">
  <sodipodi:namedview
     pagecolor="#ffffff"
     bordercolor="#666666"
     borderopacity="1"
     objecttolerance="10"
     gridtolerance="10"
     guidetolerance="10"
     inkscape:pageopacity="0"
     inkscape:pageshadow="2"
     inkscape:window-width="1920"
     inkscape:window-height="1016"
     id="namedview1491"
     showgrid="false"
     inkscape:zoom="1.3479675"
     inkscape:cx="513.5"
     inkscape:cy="307.5"
     inkscape:window-x="0"
     inkscape:window-y="0"
     inkscape:window-maximized="1"
     inkscape:current-layer="svg10047"
     showguides="true"
     inkscape:guide-bbox="true"
     inkscape:snap-grids="true"
     inkscape:showpageshadow="2"
     inkscape:pagecheckerboard="0"
     inkscape:deskcolor="#d1d1d1" />
  <metadata
     id="metadata16869">
    <rdf:RDF>
      <cc:Work
         rdf:about="">
        <dc:format>image/svg+xml</dc:format>
        <dc:type
           rdf:resource="http://purl.org/dc/dcmitype/StillImage" />
        <dc:title />
      </cc:Work>
    </rdf:RDF>
  </metadata>
  <defs
     id="defs10049" />
  <g
     transform="matrix(0.13625087,0,0,0.13666972,-395.12752,-423.67623)"
     id="spade_5"
     inkscape:label="#spade_5">
    <rect
       width="577.80151"
       height="898.00061"
       rx="48.194115"
       ry="49.888187"
       x="2900.9993"
       y="3101"
       id="rect7054"
       style="font-style:normal;font-variant:normal;font-weight:500;font-stretch:normal;font-size:medium;line-height:125%;font-family:Gaelic;-inkscape-font-specification:'Gaelic Medium';letter-spacing:0px;word-spacing:0px;fill:#ffffff;fill-opacity:1;stroke:#000000;stroke-width:1.99863;stroke-linecap:butt;stroke-linejoin:miter;stroke-miterlimit:4;stroke-dasharray:none;stroke-opacity:1" />
    <path
       style="fill:#1b1b1b"
       d="m 3050.2575,3315.8537 c 0.7544,-1.2579 4.2655,-6.7773 7.8023,-12.2653 8.687,-13.4786 16.5862,-37.8389 12.2694,-37.8389 -0.5571,0 -4.1797,2.8571 -8.0518,6.3492 -9.4136,8.4917 -18.2677,10.912 -29.8908,8.1708 -15.0251,-3.5437 -24.9679,-19.506 -21.7966,-34.9957 2.8692,-14.0141 15.5766,-30.3874 32.3712,-41.7092 8.3081,-5.601 30.0958,-28.7809 30.0958,-32.0193 0,-0.8499 0.7711,-1.5453 1.7149,-1.5453 1.1131,0 1.7137,25.204 1.7137,71.999 v 71.9989 l -11.9017,2.0714 c -15.0328,2.6164 -16.0145,2.6016 -14.3264,-0.2156 z"
       id="path7058"
       inkscape:connector-curvature="0" />
    <path
       inkscape:connector-curvature="0"
       id="path7060"
       d="m 3099.742,3315.8537 c -0.7544,-1.2579 -4.2655,-6.7773 -7.8023,-12.2653 -8.687,-13.4786 -16.5862,-37.8389 -12.2694,-37.8389 0.5571,0 4.1797,2.8571 8.0518,6.3492 9.4135,8.4917 18.2677,10.912 29.8908,8.1708 15.0251,-3.5437 24.9679,-19.506 21.7966,-34.9957 -2.8693,-14.0141 -15.5766,-30.3874 -32.3712,-41.7092 -8.3081,-5.601 -30.0958,-28.7809 -30.0958,-32.0193 0,-0.8499 -0.7711,-1.5453 -1.7149,-1.5453 -1.1132,0 -1.7138,25.204 -1.7138,71.999 v 71.9989 l 11.9018,2.0714 c 15.0328,2.6164 16.0145,2.6016 14.3264,-0.2156 z"
       style="fill:#1b1b1b" />
    <path
       inkscape:connector-curvature="0"
       id="path7064"
       d="m 3165.2575,3621.8537 c 0.7544,-1.2579 4.2655,-6.7773 7.8023,-12.2653 8.687,-13.4786 16.5862,-37.8389 12.2694,-37.8389 -0.5571,0 -4.1797,2.8571 -8.0518,6.3492 -9.4136,8.4917 -18.2677,10.912 -29.8908,8.1708 -15.0251,-3.5437 -24.9679,-19.506 -21.7966,-34.9957 2.8692,-14.0141 15.5766,-30.3874 32.3712,-41.7092 8.3081,-5.601 30.0958,-28.7809 30.0958,-32.0193 0,-0.8499 0.7711,-1.5453 1.7149,-1.5453 1.1131,0 1.7137,25.204 1.7137,71.999 v 71.9989 l -11.9017,2.0714 c -15.0328,2.6164 -16.0145,2.6016 -14.3264,-0.2156 z"
       style="fill:#1b1b1b" />
    <path
       style="fill:#1b1b1b"
       d="m 3214.742,3621.8537 c -0.7544,-1.2579 -4.2655,-6.7773 -7.8023,-12.2653 -8.687,-13.4786 -16.5862,-37.8389 -12.2694,-37.8389 0.5571,0 4.1797,2.8571 8.0518,6.3492 9.4135,8.4917 18.2677,10.912 29.8908,8.1708 15.0251,-3.5437 24.9679,-19.506 21.7966,-34.9957 -2.8693,-14.0141 -15.5766,-30.3874 -32.3712,-41.7092 -8.3081,-5.601 -30.0958,-28.7809 -30.0958,-32.0193 0,-0.8499 -0.7711,-1.5453 -1.7149,-1.5453 -1.1132,0 -1.7138,25.204 -1.7138,71.999 v 71.9989 l 11.9018,2.0714 c 15.0328,2.6164 16.0145,2.6016 14.3264,-0.2156 z"
       id="path7066"
       inkscape:connector-curvature="0" />
    <path
       inkscape:connector-curvature="0"
       id="path7076"
       d="m 3329.7424,3784.1463 c -0.7544,1.2579 -4.2655,6.7773 -7.8023,12.2653 -8.687,13.4786 -16.5862,37.8389 -12.2694,37.8389 0.5571,0 4.1797,-2.8571 8.0518,-6.3492 9.4136,-8.4917 18.2677,-10.912 29.8908,-8.1708 15.0251,3.5437 24.9679,19.506 21.7966,34.9957 -2.8692,14.0141 -15.5766,30.3874 -32.3712,41.7092 -8.3081,5.601 -30.0958,28.7809 -30.0958,32.0193 0,0.8499 -0.7711,1.5453 -1.7149,1.5453 -1.1131,0 -1.7137,-25.204 -1.7137,-71.999 v -71.9989 l 11.9017,-2.0714 c 15.0328,-2.6164 16.0145,-2.6016 14.3264,0.2156 z"
       style="fill:#1b1b1b" />
    <path
       style="fill:#1b1b1b"
       d="m 3280.2579,3784.1463 c 0.7544,1.2579 4.2655,6.7773 7.8023,12.2653 8.687,13.4786 16.5862,37.8389 12.2694,37.8389 -0.5571,0 -4.1797,-2.8571 -8.0518,-6.3492 -9.4135,-8.4917 -18.2677,-10.912 -29.8908,-8.1708 -15.0251,3.5437 -24.9679,19.506 -21.7966,34.9957 2.8693,14.0141 15.5766,30.3874 32.3712,41.7092 8.3081,5.601 30.0958,28.7809 30.0958,32.0193 0,0.8499 0.7711,1.5453 1.7149,1.5453 1.1132,0 1.7138,-25.204 1.7138,-71.999 v -71.9989 l -11.9018,-2.0714 c -15.0328,-2.6164 -16.0145,-2.6016 -14.3264,0.2156 z"
       id="path7078"
       inkscape:connector-curvature="0" />
    <path
       style="fill:#1b1b1b"
       d="m 3329.7424,3315.8537 c -0.7544,-1.2579 -4.2655,-6.7773 -7.8023,-12.2653 -8.687,-13.4786 -16.5862,-37.8389 -12.2694,-37.8389 0.5571,0 4.1797,2.8571 8.0518,6.3492 9.4136,8.4917 18.2677,10.912 29.8908,8.1708 15.0251,-3.5437 24.9679,-19.506 21.7966,-34.9957 -2.8692,-14.0141 -15.5766,-30.3874 -32.3712,-41.7092 -8.3081,-5.601 -30.0958,-28.7809 -30.0958,-32.0193 0,-0.8499 -0.7711,-1.5453 -1.7149,-1.5453 -1.1131,0 -1.7137,25.204 -1.7137,71.999 v 71.9989 l 11.9017,2.0714 c 15.0328,2.6164 16.0145,2.6016 14.3264,-0.2156 z"
       id="path7082"
       inkscape:connector-curvature="0" />
    <path
       inkscape:connector-curvature="0"
       id="path7084"
       d="m 3280.2579,3315.8537 c 0.7544,-1.2579 4.2655,-6.7773 7.8023,-12.2653 8.687,-13.4786 16.5862,-37.8389 12.2694,-37.8389 -0.5571,0 -4.1797,2.8571 -8.0518,6.3492 -9.4135,8.4917 -18.2677,10.912 -29.8908,8.1708 -15.0251,-3.5437 -24.9679,-19.506 -21.7966,-34.9957 2.8693,-14.0141 15.5766,-30.3874 32.3712,-41.7092 8.3081,-5.601 30.0958,-28.7809 30.0958,-32.0193 0,-0.8499 0.7711,-1.5453 1.7149,-1.5453 1.1132,0 1.7138,25.204 1.7138,71.999 v 71.9989 l -11.9018,2.0714 c -15.0328,2.6164 -16.0145,2.6016 -14.3264,-0.2156 z"
       style="fill:#1b1b1b" />
    <path
       style="fill:#1b1b1b"
       d="m 3099.7424,3784.1463 c -0.7544,1.2579 -4.2655,6.7773 -7.8023,12.2653 -8.687,13.4786 -16.5862,37.8389 -12.2694,37.8389 0.5571,0 4.1797,-2.8571 8.0518,-6.3492 9.4136,-8.4917 18.2677,-10.912 29.8908,-8.1708 15.0251,3.5437 24.9679,19.506 21.7966,34.9957 -2.8692,14.0141 -15.5766,30.3874 -32.3712,41.7092 -8.3081,5.601 -30.0958,28.7809 -30.0958,32.0193 0,0.8499 -0.7711,1.5453 -1.7149,1.5453 -1.1131,0 -1.7137,-25.204 -1.7137,-71.999 v -71.9989 l 11.9017,-2.0714 c 15.0328,-2.6164 16.0145,-2.6016 14.3264,0.2156 z"
       id="path7094"
       inkscape:connector-curvature="0" />
    <path
       inkscape:connector-curvature="0"
       id="path7096"
       d="m 3050.2579,3784.1463 c 0.7544,1.2579 4.2655,6.7773 7.8023,12.2653 8.687,13.4786 16.5862,37.8389 12.2694,37.8389 -0.5571,0 -4.1797,-2.8571 -8.0518,-6.3492 -9.4135,-8.4917 -18.2677,-10.912 -29.8908,-8.1708 -15.0251,3.5437 -24.9679,19.506 -21.7966,34.9957 2.8693,14.0141 15.5766,30.3874 32.3712,41.7092 8.3081,5.601 30.0958,28.7809 30.0958,32.0193 0,0.8499 0.7711,1.5453 1.7149,1.5453 1.1132,0 1.7138,-25.204 1.7138,-71.999 v -71.9989 l -11.9018,-2.0714 c -15.0328,-2.6164 -16.0145,-2.6016 -14.3264,0.2156 z"
       style="fill:#1b1b1b" />
    <path
       style="fill:#1b1b1b"
       d="m 2952.3864,3295.3329 c 0.2321,-0.391 1.3125,-2.1065 2.4007,-3.8122 2.6729,-4.1893 5.1035,-11.7607 3.7752,-11.7607 -0.1714,0 -1.286,0.888 -2.4775,1.9734 -2.8964,2.6393 -5.6208,3.3915 -9.1971,2.5395 -4.6231,-1.1014 -7.6825,-6.0627 -6.7067,-10.877 0.8829,-4.3558 4.7928,-9.4448 9.9604,-12.9637 2.5563,-1.7408 9.2602,-8.9454 9.2602,-9.9519 0,-0.2642 0.2373,-0.4803 0.5277,-0.4803 0.3425,0 0.5273,7.8337 0.5273,22.378 v 22.3781 l -3.6621,0.6438 c -4.6255,0.8132 -4.9275,0.8086 -4.4081,-0.067 z"
       id="path7098"
       inkscape:connector-curvature="0" />
    <path
       inkscape:connector-curvature="0"
       id="path7100"
       d="m 2967.6124,3295.3329 c -0.2321,-0.391 -1.3125,-2.1065 -2.4007,-3.8122 -2.6729,-4.1893 -5.1034,-11.7607 -3.7752,-11.7607 0.1714,0 1.2861,0.888 2.4775,1.9734 2.8965,2.6393 5.6208,3.3915 9.1972,2.5395 4.6231,-1.1014 7.6824,-6.0627 6.7066,-10.877 -0.8829,-4.3558 -4.7928,-9.4448 -9.9604,-12.9637 -2.5563,-1.7408 -9.2602,-8.9454 -9.2602,-9.9519 0,-0.2642 -0.2373,-0.4803 -0.5277,-0.4803 -0.3425,0 -0.5273,7.8337 -0.5273,22.378 v 22.3781 l 3.6621,0.6438 c 4.6255,0.8132 4.9275,0.8086 4.4081,-0.067 z"
       style="fill:#1b1b1b" />
    <path
       inkscape:connector-curvature="0"
       id="path7102"
       d="m 3427.6124,3804.6677 c -0.2321,0.391 -1.3125,2.1065 -2.4007,3.8122 -2.6729,4.1893 -5.1035,11.7607 -3.7752,11.7607 0.1714,0 1.286,-0.888 2.4775,-1.9734 2.8964,-2.6393 5.6208,-3.3915 9.1971,-2.5395 4.6231,1.1014 7.6825,6.0627 6.7067,10.877 -0.8829,4.3558 -4.7928,9.4448 -9.9604,12.9637 -2.5563,1.7408 -9.2602,8.9454 -9.2602,9.9519 0,0.2642 -0.2373,0.4803 -0.5277,0.4803 -0.3425,0 -0.5273,-7.8337 -0.5273,-22.378 v -22.3781 l 3.6621,-0.6438 c 4.6255,-0.8132 4.9275,-0.8086 4.4081,0.067 z"
       style="fill:#1b1b1b" />
    <path
       style="fill:#1b1b1b"
       d="m 3412.3864,3804.6677 c 0.2321,0.391 1.3125,2.1065 2.4007,3.8122 2.6729,4.1893 5.1034,11.7607 3.7752,11.7607 -0.1714,0 -1.2861,-0.888 -2.4775,-1.9734 -2.8965,-2.6393 -5.6208,-3.3915 -9.1972,-2.5395 -4.6231,1.1014 -7.6824,6.0627 -6.7066,10.877 0.8829,4.3558 4.7928,9.4448 9.9604,12.9637 2.5563,1.7408 9.2602,8.9454 9.2602,9.9519 0,0.2642 0.2373,0.4803 0.5277,0.4803 0.3425,0 0.5273,-7.8337 0.5273,-22.378 v -22.3781 l -3.6621,-0.6438 c -4.6255,-0.8132 -4.9275,-0.8086 -4.4081,0.067 z"
       id="path7104"
       inkscape:connector-curvature="0" />
    <path
       inkscape:connector-curvature="0"
       id="path7108"
       d="m 3412.3864,3295.3329 c 0.2321,-0.391 1.3125,-2.1065 2.4007,-3.8122 2.6729,-4.1893 5.1035,-11.7607 3.7752,-11.7607 -0.1714,0 -1.286,0.888 -2.4775,1.9734 -2.8964,2.6393 -5.6208,3.3915 -9.1971,2.5395 -4.6231,-1.1014 -7.6825,-6.0627 -6.7067,-10.877 0.8829,-4.3558 4.7928,-9.4448 9.9604,-12.9637 2.5563,-1.7408 9.2602,-8.9454 9.2602,-9.9519 0,-0.2642 0.2373,-0.4803 0.5277,-0.4803 0.3425,0 0.5273,7.8337 0.5273,22.378 v 22.3781 l -3.6621,0.6438 c -4.6255,0.8132 -4.9275,0.8086 -4.4081,-0.067 z"
       style="fill:#1b1b1b" />
    <path
       style="fill:#1b1b1b"
       d="m 3427.6124,3295.3329 c -0.2321,-0.391 -1.3125,-2.1065 -2.4007,-3.8122 -2.6729,-4.1893 -5.1034,-11.7607 -3.7752,-11.7607 0.1714,0 1.2861,0.888 2.4775,1.9734 2.8965,2.6393 5.6208,3.3915 9.1972,2.5395 4.6231,-1.1014 7.6824,-6.0627 6.7066,-10.877 -0.8829,-4.3558 -4.7928,-9.4448 -9.9604,-12.9637 -2.5563,-1.7408 -9.2602,-8.9454 -9.2602,-9.9519 0,-0.2642 -0.2373,-0.4803 -0.5277,-0.4803 -0.3425,0 -0.5273,7.8337 -0.5273,22.378 v 22.3781 l 3.6621,0.6438 c 4.6255,0.8132 4.9275,0.8086 4.4081,-0.067 z"
       id="path7110"
       inkscape:connector-curvature="0" />
    <path
       style="fill:#1b1b1b"
       d="m 2967.6124,3804.6677 c -0.2321,0.391 -1.3125,2.1065 -2.4007,3.8122 -2.6729,4.1893 -5.1035,11.7607 -3.7752,11.7607 0.1714,0 1.286,-0.888 2.4775,-1.9734 2.8964,-2.6393 5.6208,-3.3915 9.1971,-2.5395 4.6231,1.1014 7.6825,6.0627 6.7067,10.877 -0.8829,4.3558 -4.7928,9.4448 -9.9604,12.9637 -2.5563,1.7408 -9.2602,8.9454 -9.2602,9.9519 0,0.2642 -0.2373,0.4803 -0.5277,0.4803 -0.3425,0 -0.5273,-7.8337 -0.5273,-22.378 v -22.3781 l 3.6621,-0.6438 c 4.6255,-0.8132 4.9275,-0.8086 4.4081,0.067 z"
       id="path7112"
       inkscape:connector-curvature="0" />
    <path
       inkscape:connector-curvature="0"
       id="path7114"
       d="m 2952.3864,3804.6677 c 0.2321,0.391 1.3125,2.1065 2.4007,3.8122 2.6729,4.1893 5.1034,11.7607 3.7752,11.7607 -0.1714,0 -1.2861,-0.888 -2.4775,-1.9734 -2.8965,-2.6393 -5.6208,-3.3915 -9.1972,-2.5395 -4.6231,1.1014 -7.6824,6.0627 -6.7066,10.877 0.8829,4.3558 4.7928,9.4448 9.9604,12.9637 2.5563,1.7408 9.2602,8.9454 9.2602,9.9519 0,0.2642 0.2373,0.4803 0.5277,0.4803 0.3425,0 0.5273,-7.8337 0.5273,-22.378 v -22.3781 l -3.6621,-0.6438 c -4.6255,-0.8132 -4.9275,-0.8086 -4.4081,0.067 z"
       style="fill:#1b1b1b" />
    <path
       d="m 2978.3849,3150.2061 0.1375,0.9898 q -1.7526,3.0927 -3.4022,4.8659 -1.6494,1.7319 -4.3642,3.4227 -3.127,1.8969 -7.0103,2.8866 -3.8488,0.9896 -8.2474,0.9896 -4.3987,0 -9.4846,-0.9071 l -2.0617,16.701 q 4.8453,-3.3403 7.8694,-4.4948 3.0583,-1.1546 7.1821,-1.1546 3.7113,0 6.8385,0.7835 3.1271,0.7422 5.6358,2.2268 2.5429,1.4844 4.433,3.7525 1.9586,2.3093 3.0239,5.3196 1.0653,2.9691 1.0653,6.0619 0,6.5155 -3.9519,11.0516 -6.1856,7.2989 -18.3505,7.2989 -3.6426,0 -7.2164,-0.9072 -3.5396,-0.9072 -5.6701,-2.3093 -2.3025,-1.6082 -3.5739,-3.9175 -1.2372,-2.3094 -1.2372,-4.9485 0,-3.0514 1.6839,-5.0309 1.6838,-1.9794 4.158,-1.9794 1.6496,0 2.921,0.866 1.2716,0.8248 2.0275,2.3093 0.756,1.4845 0.756,3.2989 0,3.629 -3.1615,5.6908 -1.3402,0.9073 -1.3402,1.6907 0,1.3609 2.8523,2.5155 2.8866,1.1134 6.3918,1.1134 6.426,0 9.4156,-4.1237 3.0242,-4.165 3.0242,-13.0309 0,-5.1547 -1.3403,-8.7424 -1.3058,-3.5875 -3.9518,-5.4845 -2.646,-1.897 -6.1856,-1.897 -2.3368,0 -4.3987,0.6187 -2.0618,0.6185 -4.3299,1.9794 -2.2336,1.3607 -4.7765,3.4638 h -1.2028 L 2946.22,3150 q 2.4742,0.9897 4.3643,1.3607 5.2233,1.1135 11.6838,1.1135 3.1615,0 5.9106,-0.2061 2.7492,-0.2476 5.2921,-0.7425 2.543,-0.5359 4.9141,-1.3195 z"
       style="font-style:normal;font-variant:normal;font-weight:500;font-stretch:expanded;font-size:medium;line-height:125%;font-family:'Engravers MT';-inkscape-font-specification:'Engravers MT Medium Expanded';letter-spacing:0px;word-spacing:0px;fill:#000000;fill-opacity:1;stroke:none;stroke-width:1px;stroke-linecap:butt;stroke-linejoin:miter;stroke-opacity:1"
       id="path6491"
       inkscape:connector-curvature="0" />
    <path
       inkscape:connector-curvature="0"
       id="path7405"
       style="font-style:normal;font-variant:normal;font-weight:500;font-stretch:expanded;font-size:medium;line-height:125%;font-family:'Engravers MT';-inkscape-font-specification:'Engravers MT Medium Expanded';letter-spacing:0px;word-spacing:0px;fill:#000000;fill-opacity:1;stroke:none;stroke-width:1px;stroke-linecap:butt;stroke-linejoin:miter;stroke-opacity:1"
       d="m 3438.3849,3150.2061 0.1375,0.9898 q -1.7526,3.0927 -3.4022,4.8659 -1.6494,1.7319 -4.3642,3.4227 -3.127,1.8969 -7.0103,2.8866 -3.8488,0.9896 -8.2474,0.9896 -4.3987,0 -9.4846,-0.9071 l -2.0617,16.701 q 4.8453,-3.3403 7.8694,-4.4948 3.0583,-1.1546 7.1821,-1.1546 3.7113,0 6.8385,0.7835 3.1271,0.7422 5.6358,2.2268 2.5429,1.4844 4.433,3.7525 1.9586,2.3093 3.0239,5.3196 1.0653,2.9691 1.0653,6.0619 0,6.5155 -3.9519,11.0516 -6.1856,7.2989 -18.3505,7.2989 -3.6426,0 -7.2164,-0.9072 -3.5396,-0.9072 -5.6701,-2.3093 -2.3025,-1.6082 -3.5739,-3.9175 -1.2372,-2.3094 -1.2372,-4.9485 0,-3.0514 1.6839,-5.0309 1.6838,-1.9794 4.158,-1.9794 1.6496,0 2.921,0.866 1.2716,0.8248 2.0275,2.3093 0.756,1.4845 0.756,3.2989 0,3.629 -3.1615,5.6908 -1.3402,0.9073 -1.3402,1.6907 0,1.3609 2.8523,2.5155 2.8866,1.1134 6.3918,1.1134 6.426,0 9.4156,-4.1237 3.0242,-4.165 3.0242,-13.0309 0,-5.1547 -1.3403,-8.7424 -1.3058,-3.5875 -3.9518,-5.4845 -2.646,-1.897 -6.1856,-1.897 -2.3368,0 -4.3987,0.6187 -2.0618,0.6185 -4.3299,1.9794 -2.2336,1.3607 -4.7765,3.4638 h -1.2028 L 3406.22,3150 q 2.4742,0.9897 4.3643,1.3607 5.2233,1.1135 11.6838,1.1135 3.1615,0 5.9106,-0.2061 2.7492,-0.2476 5.2921,-0.7425 2.543,-0.5359 4.9141,-1.3195 z" />
    <path
       inkscape:connector-curvature="0"
       id="path7407"
       style="font-style:normal;font-variant:normal;font-weight:500;font-stretch:expanded;font-size:medium;line-height:125%;font-family:'Engravers MT';-inkscape-font-specification:'Engravers MT Medium Expanded';letter-spacing:0px;word-spacing:0px;fill:#000000;fill-opacity:1;stroke:none;stroke-width:1px;stroke-linecap:butt;stroke-linejoin:miter;stroke-opacity:1"
       d="m 2941.6151,3949.7939 -0.1375,-0.9898 q 1.7526,-3.0927 3.4022,-4.8659 1.6494,-1.7319 4.3642,-3.4227 3.127,-1.8969 7.0103,-2.8866 3.8488,-0.9896 8.2474,-0.9896 4.3987,0 9.4846,0.9071 l 2.0617,-16.701 q -4.8453,3.3403 -7.8694,4.4948 -3.0583,1.1546 -7.1821,1.1546 -3.7113,0 -6.8385,-0.7835 -3.1271,-0.7422 -5.6358,-2.2268 -2.5429,-1.4844 -4.433,-3.7525 -1.9586,-2.3093 -3.0239,-5.3196 -1.0653,-2.9691 -1.0653,-6.0619 0,-6.5155 3.9519,-11.0516 6.1856,-7.2989 18.3505,-7.2989 3.6426,0 7.2164,0.9072 3.5396,0.9072 5.6701,2.3093 2.3025,1.6082 3.5739,3.9175 1.2372,2.3094 1.2372,4.9485 0,3.0514 -1.6839,5.0309 -1.6838,1.9794 -4.158,1.9794 -1.6496,0 -2.921,-0.866 -1.2716,-0.8248 -2.0275,-2.3093 -0.756,-1.4845 -0.756,-3.2989 0,-3.629 3.1615,-5.6908 1.3402,-0.9073 1.3402,-1.6907 0,-1.3609 -2.8523,-2.5155 -2.8866,-1.1134 -6.3918,-1.1134 -6.426,0 -9.4156,4.1237 -3.0242,4.165 -3.0242,13.0309 0,5.1547 1.3403,8.7424 1.3058,3.5875 3.9518,5.4845 2.646,1.897 6.1856,1.897 2.3368,0 4.3987,-0.6187 2.0618,-0.6185 4.3299,-1.9794 2.2336,-1.3607 4.7765,-3.4638 h 1.2028 L 2973.78,3950 q -2.4742,-0.9897 -4.3643,-1.3607 -5.2233,-1.1135 -11.6838,-1.1135 -3.1615,0 -5.9106,0.2061 -2.7492,0.2476 -5.2921,0.7425 -2.543,0.5359 -4.9141,1.3195 z" />
    <path
       d="m 3401.6151,3949.7939 -0.1375,-0.9898 q 1.7526,-3.0927 3.4022,-4.8659 1.6494,-1.7319 4.3642,-3.4227 3.127,-1.8969 7.0103,-2.8866 3.8488,-0.9896 8.2474,-0.9896 4.3987,0 9.4846,0.9071 l 2.0617,-16.701 q -4.8453,3.3403 -7.8694,4.4948 -3.0583,1.1546 -7.1821,1.1546 -3.7113,0 -6.8385,-0.7835 -3.1271,-0.7422 -5.6358,-2.2268 -2.5429,-1.4844 -4.433,-3.7525 -1.9586,-2.3093 -3.0239,-5.3196 -1.0653,-2.9691 -1.0653,-6.0619 0,-6.5155 3.9519,-11.0516 6.1856,-7.2989 18.3505,-7.2989 3.6426,0 7.2164,0.9072 3.5396,0.9072 5.6701,2.3093 2.3025,1.6082 3.5739,3.9175 1.2372,2.3094 1.2372,4.9485 0,3.0514 -1.6839,5.0309 -1.6838,1.9794 -4.158,1.9794 -1.6496,0 -2.921,-0.866 -1.2716,-0.8248 -2.0275,-2.3093 -0.756,-1.4845 -0.756,-3.2989 0,-3.629 3.1615,-5.6908 1.3402,-0.9073 1.3402,-1.6907 0,-1.3609 -2.8523,-2.5155 -2.8866,-1.1134 -6.3918,-1.1134 -6.426,0 -9.4156,4.1237 -3.0242,4.165 -3.0242,13.0309 0,5.1547 1.3403,8.7424 1.3058,3.5875 3.9518,5.4845 2.646,1.897 6.1856,1.897 2.3368,0 4.3987,-0.6187 2.0618,-0.6185 4.3299,-1.9794 2.2336,-1.3607 4.7765,-3.4638 h 1.2028 L 3433.78,3950 q -2.4742,-0.9897 -4.3643,-1.3607 -5.2233,-1.1135 -11.6838,-1.1135 -3.1615,0 -5.9106,0.2061 -2.7492,0.2476 -5.2921,0.7425 -2.543,0.5359 -4.9141,1.3195 z"
       style="font-style:normal;font-variant:normal;font-weight:500;font-stretch:expanded;font-size:medium;line-height:125%;font-family:'Engravers MT';-inkscape-font-specification:'Engravers MT Medium Expanded';letter-spacing:0px;word-spacing:0px;fill:#000000;fill-opacity:1;stroke:none;stroke-width:1px;stroke-linecap:butt;stroke-linejoin:miter;stroke-opacity:1"
       id="path7409"
       inkscape:connector-curvature="0" />
  </g>
</svg>
