<?xml version="1.0" encoding="UTF-8" standalone="no"?>
<!-- Created with Inkscape (http://www.inkscape.org/) -->

<svg
   id="svg10047"
   height="123.0111"
   width="78.998512"
   version="1.1"
   viewBox="0 0 78.998512 123.0111"
   inkscape:version="0.91 r13725"
   sodipodi:docname="ramino-stretch.svgz"
   xmlns:inkscape="http://www.inkscape.org/namespaces/inkscape"
   xmlns:sodipodi="http://sodipodi.sourceforge.net/DTD/sodipodi-0.dtd"
   xmlns="http://www.w3.org/2000/svg"
   xmlns:svg="http://www.w3.org/2000/svg"
   xmlns:rdf="http://www.w3.org/1999/02/22-rdf-syntax-ns#"
   xmlns:cc="http://creativecommons.org/ns#"
   xmlns:dc="http://purl.org/dc/elements/1.1/">
  <sodipodi:namedview
     pagecolor="#ffffff"
     bordercolor="#666666"
     borderopacity="1"
     objecttolerance="10"
     gridtolerance="10"
     guidetolerance="10"
     inkscape:pageopacity="0"
     inkscape:pageshadow="2"
     inkscape:window-width="1920"
     inkscape:window-height="1016"
     id="namedview1491"
     showgrid="false"
     inkscape:zoom="1.3479675"
     inkscape:cx="513.5"
     inkscape:cy="307.5"
     inkscape:window-x="0"
     inkscape:window-y="0"
     inkscape:window-maximized="1"
     inkscape:current-layer="svg10047"
     showguides="false"
     inkscape:guide-bbox="true"
     inkscape:snap-grids="true"
     inkscape:showpageshadow="2"
     inkscape:pagecheckerboard="0"
     inkscape:deskcolor="#d1d1d1" />
  <metadata
     id="metadata16869">
    <rdf:RDF>
      <cc:Work
         rdf:about="">
        <dc:format>image/svg+xml</dc:format>
        <dc:type
           rdf:resource="http://purl.org/dc/dcmitype/StillImage" />
        <dc:title />
      </cc:Work>
    </rdf:RDF>
  </metadata>
  <defs
     id="defs10049" />
  <g
     id="club_6"
     transform="matrix(0.16458023,0,0,0.18223986,-488.7416,-287.0345)"
     inkscape:label="#club_6">
    <rect
       width="478.65921"
       height="673.65479"
       rx="22.895458"
       ry="23.039198"
       x="-3448.9548"
       y="-2249.3621"
       id="rect5233"
       style="display:inline;fill:#ffffff;fill-opacity:1;stroke:#000000;stroke-width:1.34079;stroke-miterlimit:4;stroke-dasharray:none;stroke-opacity:1"
       transform="scale(-1)" />
    <path
       d="m 2982.7123,1654.8833 c -0.8799,-6.0601 -0.8575,-21.7258 -0.1386,-26.36 2.219,-14.1971 7.6006,-20.694 16.6154,-22.8141 8.7562,-2.0658 21.0565,0.2343 23.7543,12.0999 l -7.3196,0.1418 c -3.9589,-8.0227 -13.9762,-5.8799 -19.6196,-2.3885 -4.5018,2.7799 -6.5371,14.3884 -5.6658,15.1028 0,0 8.514,-6.3542 15.2266,-5.8858 14.3437,1.5057 20.26,14.04 19.7587,25.8742 -0.4565,14.2372 -4.9362,25.6228 -20.1403,26.3799 -14.4552,-0.5629 -21.0785,-8.5029 -22.4704,-22.1513 v 0 z m 35.6505,-3.76 c 0.078,-9.8772 -4.3711,-17.28 -12.7985,-18.0915 -8.4191,-0.8171 -16.9136,7.4628 -16.3262,17.5314 0.5876,10.1114 4.4713,18.6171 14.6835,18.5713 10.9833,-0.044 14.3883,-10.9799 14.4412,-18.0112 z m 0,0"
       id="path5313"
       style="fill:#000000;fill-opacity:1;stroke-width:1;stroke-miterlimit:4;stroke-dasharray:none"
       inkscape:connector-curvature="0" />
    <path
       d="m 3435.8073,2170.1837 c 0.8799,6.0601 0.8575,21.7258 0.1386,26.36 -2.219,14.1971 -7.6006,20.694 -16.6154,22.8141 -8.7562,2.0658 -21.0565,-0.2343 -23.7543,-12.0999 l 7.3196,-0.1418 c 3.9589,8.0227 13.9762,5.8799 19.6196,2.3885 4.5018,-2.7799 6.5371,-14.3885 5.6658,-15.1028 0,0 -8.514,6.3542 -15.2266,5.8858 -14.3437,-1.5057 -20.26,-14.04 -19.7587,-25.8742 0.4565,-14.2372 4.9362,-25.6228 20.1403,-26.3799 14.4552,0.5629 21.0785,8.5029 22.4704,22.1513 v 0 z m -35.6505,3.76 c -0.078,9.8772 4.3711,17.28 12.7985,18.0914 8.4191,0.8171 16.9136,-7.4628 16.3262,-17.5314 -0.5876,-10.1113 -4.4713,-18.617 -14.6835,-18.5712 -10.9833,0.044 -14.3883,10.9799 -14.4412,18.0112 z m 0,0"
       id="path5335"
       style="fill:#000000;fill-opacity:1;stroke-width:1;stroke-miterlimit:4;stroke-dasharray:none"
       inkscape:connector-curvature="0" />
    <path
       d="m 3097.1333,1644.0347 c 20.9457,0.4658 30.338,24.6166 14.8254,43.371 -2.2498,2.7355 -2.4819,4.3054 1.6385,1.6777 10.444,-7.1523 30.4702,-2.4504 31.4958,19.4155 1.2666,26.9421 -35.4926,34.7048 -42.3944,6.0562 -0.3645,-3.0227 -2.763,-2.9537 -2.1849,1.3368 0.6294,11.6451 4.1806,22.5292 9.0617,33.1428 -8.2268,0 -17.4209,0 -24.9009,0 4.8809,-10.6136 8.4321,-21.4977 9.0615,-33.1428 0.5783,-4.2905 -1.8204,-4.3595 -2.1847,-1.3368 -6.902,28.6486 -43.6612,20.8859 -42.3944,-6.0562 1.0252,-21.8659 21.0516,-26.5678 31.4958,-19.4155 4.1205,2.6277 3.8884,1.0578 1.6386,-1.6777 -15.5127,-18.7544 -6.1204,-42.9052 14.8249,-43.371 0,-10e-5 0,10e-5 0.022,0 z"
       id="path5527"
       style="display:inline"
       inkscape:connector-curvature="0" />
    <path
       inkscape:connector-curvature="0"
       style="display:inline"
       id="path5529"
       d="m 3322.1333,1644.0347 c 20.9457,0.4658 30.338,24.6166 14.8254,43.371 -2.2498,2.7355 -2.4819,4.3054 1.6385,1.6777 10.444,-7.1523 30.4702,-2.4504 31.4958,19.4155 1.2666,26.9421 -35.4926,34.7048 -42.3944,6.0562 -0.3645,-3.0227 -2.763,-2.9537 -2.1849,1.3368 0.6294,11.6451 4.1806,22.5292 9.0617,33.1428 -8.2268,0 -17.4209,0 -24.9009,0 4.8809,-10.6136 8.4321,-21.4977 9.0615,-33.1428 0.5783,-4.2905 -1.8204,-4.3595 -2.1847,-1.3368 -6.902,28.6486 -43.6612,20.8859 -42.3944,-6.0562 1.0252,-21.8659 21.0516,-26.5678 31.4958,-19.4155 4.1205,2.6277 3.8884,1.0578 1.6386,-1.6777 -15.5127,-18.7544 -6.1204,-42.9052 14.8249,-43.371 0,-10e-5 0,10e-5 0.022,0 z" />
    <path
       inkscape:connector-curvature="0"
       style="display:inline"
       id="path5531"
       d="m 3097.1333,1860.0347 c 20.9457,0.4658 30.338,24.6166 14.8254,43.371 -2.2498,2.7355 -2.4819,4.3054 1.6385,1.6777 10.444,-7.1523 30.4702,-2.4504 31.4958,19.4155 1.2666,26.9421 -35.4926,34.7048 -42.3944,6.0562 -0.3645,-3.0227 -2.763,-2.9537 -2.1849,1.3368 0.6294,11.6451 4.1806,22.5292 9.0617,33.1428 -8.2268,0 -17.4209,0 -24.9009,0 4.8809,-10.6136 8.4321,-21.4977 9.0615,-33.1428 0.5783,-4.2905 -1.8204,-4.3595 -2.1847,-1.3368 -6.902,28.6486 -43.6612,20.8859 -42.3944,-6.0562 1.0252,-21.8659 21.0516,-26.5678 31.4958,-19.4155 4.1205,2.6277 3.8884,1.0578 1.6386,-1.6777 -15.5127,-18.7544 -6.1204,-42.9052 14.8249,-43.371 0,-10e-5 0,10e-5 0.022,0 z" />
    <path
       d="m 3322.1333,1860.0347 c 20.9457,0.4658 30.338,24.6166 14.8254,43.371 -2.2498,2.7355 -2.4819,4.3054 1.6385,1.6777 10.444,-7.1523 30.4702,-2.4504 31.4958,19.4155 1.2666,26.9421 -35.4926,34.7048 -42.3944,6.0562 -0.3645,-3.0227 -2.763,-2.9537 -2.1849,1.3368 0.6294,11.6451 4.1806,22.5292 9.0617,33.1428 -8.2268,0 -17.4209,0 -24.9009,0 4.8809,-10.6136 8.4321,-21.4977 9.0615,-33.1428 0.5783,-4.2905 -1.8204,-4.3595 -2.1847,-1.3368 -6.902,28.6486 -43.6612,20.8859 -42.3944,-6.0562 1.0252,-21.8659 21.0516,-26.5678 31.4958,-19.4155 4.1205,2.6277 3.8884,1.0578 1.6386,-1.6777 -15.5127,-18.7544 -6.1204,-42.9052 14.8249,-43.371 0,-10e-5 0,10e-5 0.022,0 z"
       id="path5533"
       style="display:inline"
       inkscape:connector-curvature="0" />
    <path
       inkscape:connector-curvature="0"
       style="display:inline"
       id="path5535"
       d="m 3097.1333,2181.0347 c 20.9457,-0.4658 30.338,-24.6166 14.8254,-43.371 -2.2498,-2.7355 -2.4819,-4.3054 1.6385,-1.6777 10.444,7.1523 30.4702,2.4504 31.4958,-19.4155 1.2666,-26.9421 -35.4926,-34.7048 -42.3944,-6.0562 -0.3645,3.0227 -2.763,2.9537 -2.1849,-1.3368 0.6294,-11.6451 4.1806,-22.5292 9.0617,-33.1428 -8.2268,0 -17.4209,0 -24.9009,0 4.8809,10.6136 8.4321,21.4977 9.0615,33.1428 0.5783,4.2905 -1.8204,4.3595 -2.1847,1.3368 -6.902,-28.6486 -43.6612,-20.8859 -42.3944,6.0562 1.0252,21.8659 21.0516,26.5678 31.4958,19.4155 4.1205,-2.6277 3.8884,-1.0578 1.6386,1.6777 -15.5127,18.7544 -6.1204,42.9052 14.8249,43.371 0,10e-5 0,-1e-4 0.022,0 z" />
    <path
       d="m 3322.1333,2181.0347 c 20.9457,-0.4658 30.338,-24.6166 14.8254,-43.371 -2.2498,-2.7355 -2.4819,-4.3054 1.6385,-1.6777 10.444,7.1523 30.4702,2.4504 31.4958,-19.4155 1.2666,-26.9421 -35.4926,-34.7048 -42.3944,-6.0562 -0.3645,3.0227 -2.763,2.9537 -2.1849,-1.3368 0.6294,-11.6451 4.1806,-22.5292 9.0617,-33.1428 -8.2268,0 -17.4209,0 -24.9009,0 4.8809,10.6136 8.4321,21.4977 9.0615,33.1428 0.5783,4.2905 -1.8204,4.3595 -2.1847,1.3368 -6.902,-28.6486 -43.6612,-20.8859 -42.3944,6.0562 1.0252,21.8659 21.0516,26.5678 31.4958,19.4155 4.1205,-2.6277 3.8884,-1.0578 1.6386,1.6777 -15.5127,18.7544 -6.1204,42.9052 14.8249,43.371 0,10e-5 0,-1e-4 0.022,0 z"
       id="path5537"
       style="display:inline"
       inkscape:connector-curvature="0" />
    <path
       inkscape:connector-curvature="0"
       style="display:inline"
       id="path5622"
       d="m 3004.1284,1690.5347 c 8.8365,0.1996 12.7988,10.55 6.2545,18.5876 -0.9491,1.1723 -1.0471,1.8451 0.6912,0.719 4.4061,-3.0653 12.8546,-1.0502 13.2873,8.3209 0.5343,11.5466 -14.9734,14.8735 -17.8851,2.5955 -0.1537,-1.2954 -1.1657,-1.2658 -0.9217,0.5729 0.2654,4.9908 1.7637,9.6554 3.8229,14.2041 -3.4707,0 -7.3495,0 -10.5051,0 2.0591,-4.5487 3.5573,-9.2133 3.8228,-14.2041 0.244,-1.8387 -0.768,-1.8683 -0.9216,-0.5729 -2.9118,12.278 -18.4196,8.9511 -17.8852,-2.5955 0.4325,-9.3711 8.8811,-11.3862 13.2873,-8.3209 1.7384,1.1261 1.6404,0.4533 0.6913,-0.719 -6.5444,-8.0376 -2.582,-18.388 6.2542,-18.5876 0,0 0,10e-5 0.01,0 z" />
    <path
       d="m 3415.1284,2134.5347 c 8.8365,-0.1996 12.7988,-10.55 6.2545,-18.5876 -0.9491,-1.1723 -1.0471,-1.8451 0.6912,-0.719 4.4061,3.0653 12.8546,1.0502 13.2873,-8.3209 0.5343,-11.5466 -14.9734,-14.8735 -17.8851,-2.5955 -0.1537,1.2954 -1.1657,1.2658 -0.9217,-0.5729 0.2654,-4.9908 1.7637,-9.6554 3.8229,-14.2041 -3.4707,0 -7.3495,0 -10.5051,0 2.0591,4.5487 3.5573,9.2133 3.8228,14.2041 0.244,1.8387 -0.768,1.8683 -0.9216,0.5729 -2.9118,-12.278 -18.4196,-8.9511 -17.8852,2.5955 0.4325,9.3711 8.8811,11.3862 13.2873,8.3209 1.7384,-1.1261 1.6404,-0.4533 0.6913,0.719 -6.5444,8.0376 -2.582,18.388 6.2542,18.5876 0,0 0,-1e-4 0.01,0 z"
       id="path5648-2"
       style="display:inline"
       inkscape:connector-curvature="0" />
    <path
       inkscape:connector-curvature="0"
       style="fill:#000000;fill-opacity:1;stroke-width:1;stroke-miterlimit:4;stroke-dasharray:none"
       id="path4702"
       d="m 3024.8096,2170.1848 c 0.8799,6.0601 0.8575,21.7258 0.1386,26.36 -2.219,14.1971 -7.6006,20.694 -16.6154,22.8141 -8.7562,2.0658 -21.0565,-0.2343 -23.7543,-12.0999 l 7.3196,-0.1418 c 3.9589,8.0227 13.9762,5.8799 19.6196,2.3885 4.5018,-2.7799 6.5371,-14.3885 5.6658,-15.1028 0,0 -8.514,6.3542 -15.2266,5.8858 -14.3437,-1.5057 -20.26,-14.04 -19.7587,-25.8742 0.4565,-14.2372 4.9362,-25.6228 20.1403,-26.3799 14.4552,0.5629 21.0785,8.5029 22.4704,22.1513 v 0 z m -35.6505,3.76 c -0.078,9.8772 4.3711,17.28 12.7985,18.0914 8.4191,0.8171 16.9136,-7.4628 16.3262,-17.5314 -0.5876,-10.1113 -4.4713,-18.617 -14.6835,-18.5712 -10.9833,0.044 -14.3883,10.9799 -14.4412,18.0112 z m 0,0" />
    <path
       inkscape:connector-curvature="0"
       style="fill:#000000;fill-opacity:1;stroke-width:1;stroke-miterlimit:4;stroke-dasharray:none"
       id="path4900-9"
       d="m 3393.8386,1654.8847 c -0.8799,-6.0601 -0.8575,-21.7258 -0.1386,-26.3601 2.219,-14.1971 7.6006,-20.694 16.6154,-22.8141 8.7562,-2.0657 21.0565,0.2344 23.7543,12.0999 l -7.3196,0.1419 c -3.9589,-8.0227 -13.9762,-5.8799 -19.6196,-2.3885 -4.5018,2.7799 -6.5371,14.3884 -5.6658,15.1028 0,0 8.514,-6.3542 15.2266,-5.8858 14.3437,1.5057 20.26,14.04 19.7587,25.8741 -0.4565,14.2373 -4.9362,25.6229 -20.1403,26.38 -14.4552,-0.563 -21.0785,-8.5029 -22.4704,-22.1513 v 0 z m 35.6505,-3.76 c 0.078,-9.8772 -4.3711,-17.28 -12.7985,-18.0915 -8.4191,-0.8171 -16.9136,7.4628 -16.3262,17.5314 0.5876,10.1114 4.4713,18.6171 14.6835,18.5713 10.9833,-0.044 14.3883,-10.98 14.4412,-18.0112 z m 0,0" />
    <path
       d="m 3415.1306,1690.5347 c 8.8365,0.1996 12.7988,10.55 6.2545,18.5876 -0.9491,1.1723 -1.0471,1.8451 0.6912,0.719 4.4061,-3.0653 12.8546,-1.0502 13.2873,8.3209 0.5343,11.5466 -14.9734,14.8735 -17.8851,2.5955 -0.1537,-1.2954 -1.1657,-1.2658 -0.9217,0.5729 0.2654,4.9908 1.7637,9.6554 3.8229,14.2041 -3.4707,0 -7.3495,0 -10.5051,0 2.0591,-4.5487 3.5573,-9.2133 3.8228,-14.2041 0.244,-1.8387 -0.768,-1.8683 -0.9216,-0.5729 -2.9118,12.278 -18.4196,8.9511 -17.8852,-2.5955 0.4325,-9.3711 8.8811,-11.3862 13.2873,-8.3209 1.7384,1.1261 1.6404,0.4533 0.6913,-0.719 -6.5444,-8.0376 -2.582,-18.388 6.2542,-18.5876 0,0 0,10e-5 0.01,0 z"
       id="path5025"
       style="display:inline"
       inkscape:connector-curvature="0" />
    <path
       inkscape:connector-curvature="0"
       style="display:inline"
       id="path5051"
       d="m 3004.1306,2134.5347 c 8.8365,-0.1996 12.7988,-10.55 6.2545,-18.5876 -0.9491,-1.1723 -1.0471,-1.8451 0.6912,-0.719 4.4061,3.0653 12.8546,1.0502 13.2873,-8.3209 0.5343,-11.5466 -14.9734,-14.8735 -17.8851,-2.5955 -0.1537,1.2954 -1.1657,1.2658 -0.9217,-0.5729 0.2654,-4.9908 1.7637,-9.6554 3.8229,-14.2041 -3.4707,0 -7.3495,0 -10.5051,0 2.0591,4.5487 3.5573,9.2133 3.8228,14.2041 0.244,1.8387 -0.768,1.8683 -0.9216,0.5729 -2.9118,-12.278 -18.4196,-8.9511 -17.8852,2.5955 0.4325,9.3711 8.8811,11.3862 13.2873,8.3209 1.7384,-1.1261 1.6404,-0.4533 0.6913,0.719 -6.5444,8.0376 -2.582,18.388 6.2542,18.5876 0,0 0,-1e-4 0.01,0 z" />
  </g>
</svg>
