<?xml version="1.0" encoding="UTF-8" standalone="no"?>
<!-- Created with Inkscape (http://www.inkscape.org/) -->

<svg
   id="svg10047"
   height="123.0111"
   width="78.998512"
   version="1.1"
   viewBox="0 0 78.998512 123.0111"
   inkscape:version="0.91 r13725"
   sodipodi:docname="ramino-stretch.svgz"
   xmlns:inkscape="http://www.inkscape.org/namespaces/inkscape"
   xmlns:sodipodi="http://sodipodi.sourceforge.net/DTD/sodipodi-0.dtd"
   xmlns="http://www.w3.org/2000/svg"
   xmlns:svg="http://www.w3.org/2000/svg"
   xmlns:rdf="http://www.w3.org/1999/02/22-rdf-syntax-ns#"
   xmlns:cc="http://creativecommons.org/ns#"
   xmlns:dc="http://purl.org/dc/elements/1.1/">
  <sodipodi:namedview
     pagecolor="#ffffff"
     bordercolor="#666666"
     borderopacity="1"
     objecttolerance="10"
     gridtolerance="10"
     guidetolerance="10"
     inkscape:pageopacity="0"
     inkscape:pageshadow="2"
     inkscape:window-width="1920"
     inkscape:window-height="1016"
     id="namedview1491"
     showgrid="false"
     inkscape:zoom="1.3479675"
     inkscape:cx="513.5"
     inkscape:cy="307.5"
     inkscape:window-x="0"
     inkscape:window-y="0"
     inkscape:window-maximized="1"
     inkscape:current-layer="svg10047"
     showguides="false"
     inkscape:guide-bbox="true"
     inkscape:snap-grids="true"
     inkscape:showpageshadow="2"
     inkscape:pagecheckerboard="0"
     inkscape:deskcolor="#d1d1d1" />
  <metadata
     id="metadata16869">
    <rdf:RDF>
      <cc:Work
         rdf:about="">
        <dc:format>image/svg+xml</dc:format>
        <dc:type
           rdf:resource="http://purl.org/dc/dcmitype/StillImage" />
        <dc:title />
      </cc:Work>
    </rdf:RDF>
  </metadata>
  <defs
     id="defs10049" />
  <g
     id="club_2"
     transform="matrix(0.16458023,0,0,0.18223986,-93.749011,-287.0345)"
     inkscape:label="#club_2">
    <rect
       width="478.65921"
       height="673.65479"
       rx="22.895458"
       ry="23.039198"
       x="-1048.9546"
       y="-2249.3621"
       id="rect5293"
       style="display:inline;fill:#ffffff;fill-opacity:1;stroke:#000000;stroke-width:1.34079;stroke-miterlimit:4;stroke-dasharray:none;stroke-opacity:1"
       transform="scale(-1)" />
    <path
       d="m 583.80066,1676.8792 0.34821,-4.44 c 1.09963,-13.7197 4.0256,-18.3482 20.62175,-32.671 8.05727,-6.9428 10.69936,-10.3684 11.06965,-14.3428 1.05524,-9.3742 -7.17743,-12.2998 -12.53957,-12.3428 -6.9492,-0.063 -14.81158,4.1972 -11.05861,14.1 l -7.79829,2.3514 c -1.56735,-9.237 0.0454,-17.9027 7.34181,-21.7484 9.74439,-5.0143 22.23936,-3.0485 28.54823,4.8515 4.2402,5.2998 5.20903,12.634 2.93442,18.3739 -6.6456,14.6627 -29.18855,21.1142 -31.04847,38.0798 h 24.915 v -9.4458 h 7.34181 v 17.3885 l -40.67594,-0.1549 z m 0,0"
       id="path5321"
       style="fill:#000000;fill-opacity:1"
       inkscape:connector-curvature="0" />
    <path
       d="m 1035.6006,2148.1877 -0.3482,4.44 c -1.0996,13.7198 -4.0256,18.3483 -20.6218,32.671 -8.0572,6.9428 -10.6993,10.3685 -11.0696,14.3429 -1.0552,9.3742 7.1774,12.2998 12.5396,12.3428 6.9492,0.063 14.8115,-4.1972 11.0586,-14.1 l 7.7983,-2.3514 c 1.5673,9.237 -0.045,17.9027 -7.3418,21.7484 -9.7444,5.0142 -22.2394,3.0484 -28.54826,-4.8515 -4.2402,-5.2999 -5.20902,-12.6341 -2.93442,-18.374 6.64558,-14.6627 29.18858,-21.1141 31.04848,-38.0797 h -24.915 v 9.4457 h -7.34182 v -17.3884 l 40.67592,0.1549 z m 0,0"
       id="path5343"
       style="fill:#000000;fill-opacity:1"
       inkscape:connector-curvature="0" />
    <path
       inkscape:connector-curvature="0"
       style="display:inline"
       id="path5573"
       d="m 809.63329,1644.0347 c 20.9457,0.4658 30.338,24.6166 14.8254,43.371 -2.2498,2.7355 -2.4819,4.3054 1.6385,1.6777 10.444,-7.1523 30.4702,-2.4504 31.4958,19.4155 1.2666,26.9421 -35.4926,34.7048 -42.3944,6.0562 -0.3645,-3.0227 -2.763,-2.9537 -2.1849,1.3368 0.6294,11.6451 4.1806,22.5292 9.0617,33.1428 -8.2268,0 -17.4209,0 -24.9009,0 4.8809,-10.6136 8.4321,-21.4977 9.0615,-33.1428 0.5783,-4.2905 -1.8204,-4.3595 -2.1847,-1.3368 -6.902,28.6486 -43.6612,20.8859 -42.3944,-6.0562 1.0252,-21.8659 21.0516,-26.5678 31.4958,-19.4155 4.1205,2.6277 3.8884,1.0578 1.6386,-1.6777 -15.5127,-18.7544 -6.1204,-42.9052 14.8249,-43.371 0,-10e-5 0,10e-5 0.022,0 z" />
    <path
       d="m 809.63329,2181.0347 c 20.9457,-0.4658 30.338,-24.6166 14.8254,-43.371 -2.2498,-2.7355 -2.4819,-4.3054 1.6385,-1.6777 10.444,7.1523 30.4702,2.4504 31.4958,-19.4155 1.2666,-26.9421 -35.4926,-34.7048 -42.3944,-6.0562 -0.3645,3.0227 -2.763,2.9537 -2.1849,-1.3368 0.6294,-11.6451 4.1806,-22.5292 9.0617,-33.1428 -8.2268,0 -17.4209,0 -24.9009,0 4.8809,10.6136 8.4321,21.4977 9.0615,33.1428 0.5783,4.2905 -1.8204,4.3595 -2.1847,1.3368 -6.902,-28.6486 -43.6612,-20.8859 -42.3944,6.0562 1.0252,21.8659 21.0516,26.5678 31.4958,19.4155 4.1205,-2.6277 3.8884,-1.0578 1.6386,1.6777 -15.5127,18.7544 -6.1204,42.9052 14.8249,43.371 0,10e-5 0,-1e-4 0.022,0 z"
       id="path5577"
       style="display:inline"
       inkscape:connector-curvature="0" />
    <path
       inkscape:connector-curvature="0"
       style="display:inline"
       id="path5630"
       d="m 604.12839,1690.5347 c 8.8365,0.1996 12.7988,10.55 6.2545,18.5876 -0.9491,1.1723 -1.0471,1.8451 0.6912,0.719 4.4061,-3.0653 12.8546,-1.0502 13.2873,8.3209 0.5343,11.5466 -14.9734,14.8735 -17.8851,2.5955 -0.1537,-1.2954 -1.1657,-1.2658 -0.9217,0.5729 0.2654,4.9908 1.7637,9.6554 3.8229,14.2041 -3.4707,0 -7.3495,0 -10.5051,0 2.0591,-4.5487 3.5573,-9.2133 3.8228,-14.2041 0.244,-1.8387 -0.768,-1.8683 -0.9216,-0.5729 -2.9118,12.278 -18.4196,8.9511 -17.8852,-2.5955 0.4325,-9.3711 8.8811,-11.3862 13.2873,-8.3209 1.7384,1.1261 1.6404,0.4533 0.6913,-0.719 -6.5444,-8.0376 -2.582,-18.388 6.2542,-18.5876 0,0 0,10e-5 0.01,0 z" />
    <path
       d="m 1015.1284,2134.5347 c 8.8365,-0.1996 12.7988,-10.55 6.2545,-18.5876 -0.9491,-1.1723 -1.0471,-1.8451 0.6912,-0.719 4.4061,3.0653 12.8546,1.0502 13.2873,-8.3209 0.5343,-11.5466 -14.9734,-14.8735 -17.8851,-2.5955 -0.1537,1.2954 -1.1657,1.2658 -0.9217,-0.5729 0.2654,-4.9908 1.7637,-9.6554 3.8229,-14.2041 -3.4707,0 -7.3495,0 -10.5051,0 2.0591,4.5487 3.5573,9.2133 3.8228,14.2041 0.244,1.8387 -0.768,1.8683 -0.9216,0.5729 -2.9118,-12.278 -18.4196,-8.9511 -17.8852,2.5955 0.4325,9.3711 8.8811,11.3862 13.2873,8.3209 1.7384,-1.1261 1.6404,-0.4533 0.6913,0.719 -6.5444,8.0376 -2.582,18.388 6.2542,18.5876 0,0 0,-1e-4 0.01,0 z"
       id="path5656-7"
       style="display:inline"
       inkscape:connector-curvature="0" />
    <path
       inkscape:connector-curvature="0"
       style="fill:#000000;fill-opacity:1"
       id="path4710"
       d="m 624.60069,2148.1889 -0.3482,4.44 c -1.0996,13.7197 -4.0256,18.3482 -20.6218,32.671 -8.0572,6.9428 -10.6993,10.3684 -11.0696,14.3428 -1.0552,9.3742 7.1774,12.2998 12.5396,12.3428 6.9492,0.063 14.8115,-4.1971 11.0586,-14.1 l 7.7983,-2.3513 c 1.5673,9.2369 -0.045,17.9027 -7.3418,21.7483 -9.7444,5.0143 -22.2394,3.0485 -28.54826,-4.8515 -4.2402,-5.2998 -5.20902,-12.634 -2.93442,-18.3739 6.64558,-14.6627 29.18858,-21.1142 31.04848,-38.0798 h -24.915 v 9.4458 h -7.34182 v -17.3885 l 40.67592,0.1549 z m 0,0" />
    <path
       inkscape:connector-curvature="0"
       style="fill:#000000;fill-opacity:1"
       id="path4908-8"
       d="m 994.92476,1676.8806 0.34821,-4.44 c 1.09963,-13.7197 4.0256,-18.3482 20.62173,-32.671 8.0573,-6.9428 10.6994,-10.3684 11.0697,-14.3429 1.0552,-9.3741 -7.1775,-12.2997 -12.5396,-12.3427 -6.9492,-0.063 -14.81158,4.1971 -11.0586,14.1 l -7.7983,2.3513 c -1.56735,-9.2369 0.0454,-17.9027 7.3418,-21.7483 9.7444,-5.0143 22.2394,-3.0485 28.5482,4.8515 4.2402,5.2998 5.2091,12.634 2.9345,18.3739 -6.6456,14.6627 -29.1886,21.1141 -31.0485,38.0798 h 24.915 v -9.4458 h 7.3418 v 17.3885 l -40.67594,-0.155 z m 0,0" />
    <path
       d="m 1015.1306,1690.5347 c 8.8365,0.1996 12.7988,10.55 6.2545,18.5876 -0.9491,1.1723 -1.0471,1.8451 0.6912,0.719 4.4061,-3.0653 12.8546,-1.0502 13.2873,8.3209 0.5343,11.5466 -14.9734,14.8735 -17.8851,2.5955 -0.1537,-1.2954 -1.1657,-1.2658 -0.9217,0.5729 0.2654,4.9908 1.7637,9.6554 3.8229,14.2041 -3.4707,0 -7.3495,0 -10.5051,0 2.0591,-4.5487 3.5573,-9.2133 3.8228,-14.2041 0.244,-1.8387 -0.768,-1.8683 -0.9216,-0.5729 -2.9118,12.278 -18.41963,8.9511 -17.88523,-2.5955 0.4325,-9.3711 8.88113,-11.3862 13.28733,-8.3209 1.7384,1.1261 1.6404,0.4533 0.6913,-0.719 -6.5444,-8.0376 -2.582,-18.388 6.2542,-18.5876 0,0 0,10e-5 0.01,0 z"
       id="path5033"
       style="display:inline"
       inkscape:connector-curvature="0" />
    <path
       inkscape:connector-curvature="0"
       style="display:inline"
       id="path5059"
       d="m 604.13058,2134.5347 c 8.8365,-0.1996 12.7988,-10.55 6.2545,-18.5876 -0.9491,-1.1723 -1.0471,-1.8451 0.6912,-0.719 4.4061,3.0653 12.8546,1.0502 13.2873,-8.3209 0.5343,-11.5466 -14.9734,-14.8735 -17.8851,-2.5955 -0.1537,1.2954 -1.1657,1.2658 -0.9217,-0.5729 0.2654,-4.9908 1.7637,-9.6554 3.8229,-14.2041 -3.4707,0 -7.3495,0 -10.5051,0 2.0591,4.5487 3.5573,9.2133 3.8228,14.2041 0.244,1.8387 -0.768,1.8683 -0.9216,0.5729 -2.9118,-12.278 -18.4196,-8.9511 -17.8852,2.5955 0.4325,9.3711 8.8811,11.3862 13.2873,8.3209 1.7384,-1.1261 1.6404,-0.4533 0.6913,0.719 -6.5444,8.0376 -2.582,18.388 6.2542,18.5876 0,0 0,-1e-4 0.01,0 z" />
  </g>
</svg>
