<?xml version="1.0" encoding="UTF-8" standalone="no"?>
<!-- Created with Inkscape (http://www.inkscape.org/) -->

<svg
   id="svg10047"
   height="123.0116"
   width="78.999344"
   version="1.1"
   viewBox="0 0 78.999344 123.0116"
   inkscape:version="0.91 r13725"
   sodipodi:docname="ramino-stretch.svgz"
   xmlns:inkscape="http://www.inkscape.org/namespaces/inkscape"
   xmlns:sodipodi="http://sodipodi.sourceforge.net/DTD/sodipodi-0.dtd"
   xmlns="http://www.w3.org/2000/svg"
   xmlns:svg="http://www.w3.org/2000/svg"
   xmlns:rdf="http://www.w3.org/1999/02/22-rdf-syntax-ns#"
   xmlns:cc="http://creativecommons.org/ns#"
   xmlns:dc="http://purl.org/dc/elements/1.1/">
  <sodipodi:namedview
     pagecolor="#ffffff"
     bordercolor="#666666"
     borderopacity="1"
     objecttolerance="10"
     gridtolerance="10"
     guidetolerance="10"
     inkscape:pageopacity="0"
     inkscape:pageshadow="2"
     inkscape:window-width="1920"
     inkscape:window-height="1016"
     id="namedview1491"
     showgrid="false"
     inkscape:zoom="1.3479675"
     inkscape:cx="513.5"
     inkscape:cy="307.5"
     inkscape:window-x="0"
     inkscape:window-y="0"
     inkscape:window-maximized="1"
     inkscape:current-layer="svg10047"
     showguides="false"
     inkscape:guide-bbox="true"
     inkscape:snap-grids="true"
     inkscape:showpageshadow="2"
     inkscape:pagecheckerboard="0"
     inkscape:deskcolor="#d1d1d1" />
  <metadata
     id="metadata16869">
    <rdf:RDF>
      <cc:Work
         rdf:about="">
        <dc:format>image/svg+xml</dc:format>
        <dc:type
           rdf:resource="http://purl.org/dc/dcmitype/StillImage" />
        <dc:title />
      </cc:Work>
    </rdf:RDF>
  </metadata>
  <defs
     id="defs10049" />
  <g
     id="club_1"
     transform="matrix(0.16458023,0,0,0.18223986,4.9995366,-287.03394)"
     inkscape:label="#club_1">
    <rect
       style="display:inline;fill:#ffffff;fill-opacity:1;stroke:#000000;stroke-width:1.3408;stroke-miterlimit:4;stroke-dasharray:none;stroke-opacity:1"
       id="rect5139"
       y="1575.7042"
       x="-29.707104"
       ry="23.039293"
       rx="22.8957"
       height="673.65753"
       width="478.66425" />
    <path
       d="m -17.751189,1677.0335 v -6.1565 h 5.830012 l 12.4196753,-65.8435 h 7.068863 l 13.6810337,65.8435 h 4.707893 v 6.1565 H 9.9142637 v -6.1565 h 4.3293653 l -1.728886,-10.0902 H -3.6691083 l -1.250111,10.0902 h 4.3291468 v 6.1565 z m 28.885035,-23.4343 -7.0355164,-35.2416 -6.5898764,35.2416 z m 0,0"
       id="path5323"
       style="fill:#000000;fill-opacity:1;stroke-width:1;stroke-miterlimit:4;stroke-dasharray:none"
       inkscape:connector-curvature="0" />
    <path
       d="m 437.0803,2148.0335 v 6.1564 h -5.83001 l -12.41968,65.8436 h -7.06886 l -13.68103,-65.8436 h -4.7079 v -6.1564 h 16.04203 v 6.1564 h -4.32937 l 1.72889,10.0903 h 16.18385 l 1.25011,-10.0903 h -4.32915 v -6.1564 z m -28.88504,23.4342 7.03552,35.2416 6.58988,-35.2416 z m 0,0"
       id="path5345"
       style="fill:#000000;fill-opacity:1;stroke-width:1;stroke-miterlimit:4;stroke-dasharray:none"
       inkscape:connector-curvature="0" />
    <path
       d="m 209.63119,1860.0347 c 20.9457,0.4658 30.338,24.6166 14.8254,43.371 -2.2498,2.7355 -2.4819,4.3054 1.6385,1.6777 10.444,-7.1523 30.4702,-2.4504 31.4958,19.4155 1.2666,26.9421 -35.4926,34.7048 -42.3944,6.0562 -0.3645,-3.0227 -2.763,-2.9537 -2.1849,1.3368 0.6294,11.6451 4.1806,22.5292 9.0617,33.1428 -8.2268,0 -17.4209,0 -24.9009,0 4.8809,-10.6136 8.4321,-21.4977 9.0615,-33.1428 0.5783,-4.2905 -1.8204,-4.3595 -2.1847,-1.3368 -6.902,28.6486 -43.6612,20.8859 -42.3944,-6.0562 1.0252,-21.8659 21.0516,-26.5678 31.4958,-19.4155 4.1205,2.6277 3.8884,1.0578 1.6386,-1.6777 -15.5127,-18.7544 -6.1204,-42.9052 14.8249,-43.371 0,-10e-5 0,10e-5 0.022,0 z"
       id="path5581"
       style="display:inline"
       inkscape:connector-curvature="0" />
    <path
       d="m 4.1263047,1690.5347 c 8.8365003,0.1996 12.7988003,10.55 6.2545003,18.5876 -0.9491003,1.1723 -1.0471003,1.8451 0.6912,0.719 4.4061,-3.0653 12.8546,-1.0502 13.2873,8.3209 0.5343,11.5466 -14.9734003,14.8735 -17.8851003,2.5955 -0.1537,-1.2954 -1.1657,-1.2658 -0.9217,0.5729 0.2654,4.9908 1.7637,9.6554 3.8229,14.2041 -3.4707,0 -7.3495,0 -10.5051,0 2.0591,-4.5487 3.5573,-9.2133 3.8228,-14.2041 0.244,-1.8387 -0.768,-1.8683 -0.9216,-0.5729 -2.9118,12.278 -18.4195997,8.9511 -17.8851997,-2.5955 0.4325,-9.3711 8.8810997,-11.3862 13.2872997,-8.3209 1.7384,1.1261 1.6404,0.4533 0.6913,-0.719 -6.5444,-8.0376 -2.582,-18.388 6.2542,-18.5876 0,0 0,10e-5 0.01,0 z"
       id="path5632-4"
       style="display:inline"
       inkscape:connector-curvature="0" />
    <path
       inkscape:connector-curvature="0"
       style="display:inline"
       id="path5658"
       d="m 415.12631,2134.5347 c 8.8365,-0.1996 12.7988,-10.55 6.2545,-18.5876 -0.9491,-1.1723 -1.0471,-1.8451 0.6912,-0.719 4.4061,3.0653 12.8546,1.0502 13.2873,-8.3209 0.5343,-11.5466 -14.9734,-14.8735 -17.8851,-2.5955 -0.1537,1.2954 -1.1657,1.2658 -0.9217,-0.5729 0.2654,-4.9908 1.7637,-9.6554 3.8229,-14.2041 -3.4707,0 -7.3495,0 -10.5051,0 2.0591,4.5487 3.5573,9.2133 3.8228,14.2041 0.244,1.8387 -0.768,1.8683 -0.9216,0.5729 -2.9118,-12.278 -18.4196,-8.9511 -17.8852,2.5955 0.4325,9.3711 8.8811,11.3862 13.2873,8.3209 1.7384,-1.1261 1.6404,-0.4533 0.6913,0.719 -6.5444,8.0376 -2.582,18.388 6.2542,18.5876 0,0 0,-1e-4 0.01,0 z" />
    <path
       inkscape:connector-curvature="0"
       style="fill:#000000;fill-opacity:1;stroke-width:1;stroke-miterlimit:4;stroke-dasharray:none"
       id="path4712"
       d="m 26.08248,2148.0346 v 6.1565 H 20.25247 L 7.83279,2220.0346 H 0.76393 l -13.68103,-65.8435 h -4.7079 v -6.1565 h 16.04203 v 6.1565 h -4.32937 l 1.72889,10.0902 H 12.0004 l 1.25011,-10.0902 H 8.92136 v -6.1565 z m -28.88504,23.4343 7.03552,35.2416 6.58988,-35.2416 z m 0,0" />
    <path
       d="m 26.08248,2148.0346 v 6.1565 H 20.25247 L 7.83279,2220.0346 H 0.76393 l -13.68103,-65.8435 h -4.7079 v -6.1565 h 16.04203 v 6.1565 h -4.32937 l 1.72889,10.0902 H 12.0004 l 1.25011,-10.0902 H 8.92136 v -6.1565 z m -28.88504,23.4343 7.03552,35.2416 6.58988,-35.2416 z m 0,0"
       id="path4720"
       style="fill:#000000;fill-opacity:1;stroke-width:1;stroke-miterlimit:4;stroke-dasharray:none"
       inkscape:connector-curvature="0" />
    <path
       inkscape:connector-curvature="0"
       style="fill:#000000;fill-opacity:1;stroke-width:1;stroke-miterlimit:4;stroke-dasharray:none"
       id="path4910-5"
       d="m 393.375,1677.0349 v -6.1565 h 5.83001 l 12.41968,-65.8435 h 7.06886 l 13.68103,65.8435 h 4.7079 v 6.1565 h -16.04203 v -6.1565 h 4.32937 l -1.72889,-10.0902 h -16.18385 l -1.25011,10.0902 h 4.32915 v 6.1565 z m 28.88504,-23.4343 -7.03552,-35.2416 -6.58988,35.2416 z m 0,0" />
    <path
       inkscape:connector-curvature="0"
       style="display:inline"
       id="path5035"
       d="m 415.12849,1690.5347 c 8.8365,0.1996 12.7988,10.55 6.2545,18.5876 -0.9491,1.1723 -1.0471,1.8451 0.6912,0.719 4.4061,-3.0653 12.8546,-1.0502 13.2873,8.3209 0.5343,11.5466 -14.9734,14.8735 -17.8851,2.5955 -0.1537,-1.2954 -1.1657,-1.2658 -0.9217,0.5729 0.2654,4.9908 1.7637,9.6554 3.8229,14.2041 -3.4707,0 -7.3495,0 -10.5051,0 2.0591,-4.5487 3.5573,-9.2133 3.8228,-14.2041 0.244,-1.8387 -0.768,-1.8683 -0.9216,-0.5729 -2.9118,12.278 -18.4196,8.9511 -17.8852,-2.5955 0.4325,-9.3711 8.8811,-11.3862 13.2873,-8.3209 1.7384,1.1261 1.6404,0.4533 0.6913,-0.719 -6.5444,-8.0376 -2.582,-18.388 6.2542,-18.5876 0,0 0,10e-5 0.01,0 z" />
    <path
       d="m 4.1284869,2134.5347 c 8.8365001,-0.1996 12.7988001,-10.55 6.2545001,-18.5876 -0.9491001,-1.1723 -1.0471001,-1.8451 0.6912,-0.719 4.4061,3.0653 12.8546,1.0502 13.2873,-8.3209 0.5343,-11.5466 -14.9734001,-14.8735 -17.8851001,-2.5955 -0.1537,1.2954 -1.1657,1.2658 -0.9217,-0.5729 0.2654,-4.9908 1.7637,-9.6554 3.8229,-14.2041 -3.4707,0 -7.3495,0 -10.5051,0 2.05909998,4.5487 3.5573,9.2133 3.8228,14.2041 0.244,1.8387 -0.768,1.8683 -0.9216,0.5729 -2.9118,-12.278 -18.4195999,-8.9511 -17.8851999,2.5955 0.4325,9.3711 8.8810999,11.3862 13.2872999,8.3209 1.7384,-1.1261 1.6404,-0.4533 0.6913,0.719 -6.5444,8.0376 -2.582,18.388 6.2542,18.5876 0,0 0,-1e-4 0.01,0 z"
       id="path5061"
       style="display:inline"
       inkscape:connector-curvature="0" />
  </g>
</svg>
