<?xml version="1.0" encoding="UTF-8" standalone="no"?>
<!-- Created with Inkscape (http://www.inkscape.org/) -->

<svg
   id="svg10047"
   height="123.0111"
   width="78.998512"
   version="1.1"
   viewBox="0 0 78.998512 123.0111"
   inkscape:version="0.91 r13725"
   sodipodi:docname="ramino-stretch.svgz"
   xmlns:inkscape="http://www.inkscape.org/namespaces/inkscape"
   xmlns:sodipodi="http://sodipodi.sourceforge.net/DTD/sodipodi-0.dtd"
   xmlns="http://www.w3.org/2000/svg"
   xmlns:svg="http://www.w3.org/2000/svg"
   xmlns:rdf="http://www.w3.org/1999/02/22-rdf-syntax-ns#"
   xmlns:cc="http://creativecommons.org/ns#"
   xmlns:dc="http://purl.org/dc/elements/1.1/">
  <sodipodi:namedview
     pagecolor="#ffffff"
     bordercolor="#666666"
     borderopacity="1"
     objecttolerance="10"
     gridtolerance="10"
     guidetolerance="10"
     inkscape:pageopacity="0"
     inkscape:pageshadow="2"
     inkscape:window-width="1920"
     inkscape:window-height="1016"
     id="namedview1491"
     showgrid="false"
     inkscape:zoom="1.3479675"
     inkscape:cx="513.5"
     inkscape:cy="307.5"
     inkscape:window-x="0"
     inkscape:window-y="0"
     inkscape:window-maximized="1"
     inkscape:current-layer="svg10047"
     showguides="false"
     inkscape:guide-bbox="true"
     inkscape:snap-grids="true"
     inkscape:showpageshadow="2"
     inkscape:pagecheckerboard="0"
     inkscape:deskcolor="#d1d1d1" />
  <metadata
     id="metadata16869">
    <rdf:RDF>
      <cc:Work
         rdf:about="">
        <dc:format>image/svg+xml</dc:format>
        <dc:type
           rdf:resource="http://purl.org/dc/dcmitype/StillImage" />
        <dc:title />
      </cc:Work>
    </rdf:RDF>
  </metadata>
  <defs
     id="defs10049" />
  <g
     id="club_3"
     transform="matrix(0.16458023,0,0,0.18223986,-192.49715,-287.0345)"
     inkscape:label="#club_3">
    <rect
       transform="scale(-1)"
       style="display:inline;fill:#ffffff;fill-opacity:1;stroke:#000000;stroke-width:1.34079;stroke-miterlimit:4;stroke-dasharray:none;stroke-opacity:1"
       id="rect5281"
       y="-2249.3621"
       x="-1648.9546"
       ry="23.039198"
       rx="22.895458"
       height="673.65479"
       width="478.65921" />
    <path
       d="m 1180.9843,1661.2509 5.5015,-4.0768 c 4.7746,7.8336 10.1143,12.993 18.2828,12.1074 12.2556,-0.8485 17.3337,-13.7928 14.7697,-23.5462 -2.4806,-8.7506 -12.6287,-13.013 -20.697,-8.3479 -1.9042,1.1058 -3.7416,2.0084 -4.1009,2.0084 -0.8462,0 -2.7617,-3.8396 -2.5,-5.0108 5.4149,-7.968 18.5642,-21.9266 18.5642,-21.9266 h -20.5438 v 9.3478 h -7.8844 v -16.7727 h 40.1519 v 5.6908 c 0,0 -10.7578,11.2418 -14.3129,17.3983 8.7559,0.3229 15.8135,5.9138 18.3471,14.753 1.4784,4.6538 0.8158,15.2985 -1.1193,19.8866 -3.2322,7.6477 -12.0607,13.853 -20.1315,14.21 -13.5502,0.917 -20.7387,-8.6477 -24.3274,-15.7213 z m 0,0"
       id="path5319"
       style="fill:#000000;fill-opacity:1;stroke-width:1;stroke-miterlimit:4;stroke-dasharray:none"
       inkscape:connector-curvature="0" />
    <path
       d="m 1638.4923,2163.8161 -5.5015,4.0767 c -4.7746,-7.8336 -10.1143,-12.9929 -18.2828,-12.1073 -12.2556,0.8485 -17.3337,13.7928 -14.7697,23.5462 2.4806,8.7506 12.6287,13.013 20.697,8.3478 1.9042,-1.1057 3.7416,-2.0083 4.1009,-2.0083 0.8462,0 2.7617,3.8395 2.5,5.0107 -5.4149,7.968 -18.5642,21.9266 -18.5642,21.9266 h 20.5438 v -9.3477 h 7.8844 v 16.7727 h -40.1519 v -5.6909 c 0,0 10.7578,-11.2418 14.3129,-17.3982 -8.7559,-0.3229 -15.8135,-5.9138 -18.3471,-14.753 -1.4784,-4.6539 -0.8158,-15.2985 1.1193,-19.8866 3.2322,-7.6478 12.0607,-13.8531 20.1315,-14.21 13.5502,-0.917 20.7387,8.6476 24.3274,15.7213 z m 0,0"
       id="path5341"
       style="fill:#000000;fill-opacity:1;stroke-width:1;stroke-miterlimit:4;stroke-dasharray:none"
       inkscape:connector-curvature="0" />
    <path
       d="m 1409.6333,1644.0347 c 20.9457,0.4658 30.338,24.6166 14.8254,43.371 -2.2498,2.7355 -2.4819,4.3054 1.6385,1.6777 10.444,-7.1523 30.4702,-2.4504 31.4958,19.4155 1.2666,26.9421 -35.4926,34.7048 -42.3944,6.0562 -0.3645,-3.0227 -2.763,-2.9537 -2.1849,1.3368 0.6294,11.6451 4.1806,22.5292 9.0617,33.1428 -8.2268,0 -17.4209,0 -24.9009,0 4.8809,-10.6136 8.4321,-21.4977 9.0615,-33.1428 0.5783,-4.2905 -1.8204,-4.3595 -2.1847,-1.3368 -6.902,28.6486 -43.6612,20.8859 -42.3944,-6.0562 1.0252,-21.8659 21.0516,-26.5678 31.4958,-19.4155 4.1205,2.6277 3.8884,1.0578 1.6386,-1.6777 -15.5127,-18.7544 -6.1204,-42.9052 14.8249,-43.371 0,-10e-5 0,10e-5 0.022,0 z"
       id="path5563"
       style="display:inline"
       inkscape:connector-curvature="0" />
    <path
       inkscape:connector-curvature="0"
       style="display:inline"
       id="path5567"
       d="m 1409.6333,1860.0347 c 20.9457,0.4658 30.338,24.6166 14.8254,43.371 -2.2498,2.7355 -2.4819,4.3054 1.6385,1.6777 10.444,-7.1523 30.4702,-2.4504 31.4958,19.4155 1.2666,26.9421 -35.4926,34.7048 -42.3944,6.0562 -0.3645,-3.0227 -2.763,-2.9537 -2.1849,1.3368 0.6294,11.6451 4.1806,22.5292 9.0617,33.1428 -8.2268,0 -17.4209,0 -24.9009,0 4.8809,-10.6136 8.4321,-21.4977 9.0615,-33.1428 0.5783,-4.2905 -1.8204,-4.3595 -2.1847,-1.3368 -6.902,28.6486 -43.6612,20.8859 -42.3944,-6.0562 1.0252,-21.8659 21.0516,-26.5678 31.4958,-19.4155 4.1205,2.6277 3.8884,1.0578 1.6386,-1.6777 -15.5127,-18.7544 -6.1204,-42.9052 14.8249,-43.371 0,-10e-5 0,10e-5 0.022,0 z" />
    <path
       inkscape:connector-curvature="0"
       style="display:inline"
       id="path5569"
       d="m 1409.6333,2181.0347 c 20.9457,-0.4658 30.338,-24.6166 14.8254,-43.371 -2.2498,-2.7355 -2.4819,-4.3054 1.6385,-1.6777 10.444,7.1523 30.4702,2.4504 31.4958,-19.4155 1.2666,-26.9421 -35.4926,-34.7048 -42.3944,-6.0562 -0.3645,3.0227 -2.763,2.9537 -2.1849,-1.3368 0.6294,-11.6451 4.1806,-22.5292 9.0617,-33.1428 -8.2268,0 -17.4209,0 -24.9009,0 4.8809,10.6136 8.4321,21.4977 9.0615,33.1428 0.5783,4.2905 -1.8204,4.3595 -2.1847,1.3368 -6.902,-28.6486 -43.6612,-20.8859 -42.3944,6.0562 1.0252,21.8659 21.0516,26.5678 31.4958,19.4155 4.1205,-2.6277 3.8884,-1.0578 1.6386,1.6777 -15.5127,18.7544 -6.1204,42.9052 14.8249,43.371 0,10e-5 0,-1e-4 0.022,0 z" />
    <path
       inkscape:connector-curvature="0"
       style="display:inline"
       id="path5628"
       d="m 1204.1284,1690.5347 c 8.8365,0.1996 12.7988,10.55 6.2545,18.5876 -0.9491,1.1723 -1.0471,1.8451 0.6912,0.719 4.4061,-3.0653 12.8546,-1.0502 13.2873,8.3209 0.5343,11.5466 -14.9734,14.8735 -17.8851,2.5955 -0.1537,-1.2954 -1.1657,-1.2658 -0.9217,0.5729 0.2654,4.9908 1.7637,9.6554 3.8229,14.2041 -3.4707,0 -7.3495,0 -10.5051,0 2.0591,-4.5487 3.5573,-9.2133 3.8228,-14.2041 0.244,-1.8387 -0.768,-1.8683 -0.9216,-0.5729 -2.9118,12.278 -18.4196,8.9511 -17.8852,-2.5955 0.4325,-9.3711 8.8811,-11.3862 13.2873,-8.3209 1.7384,1.1261 1.6404,0.4533 0.6913,-0.719 -6.5444,-8.0376 -2.582,-18.388 6.2542,-18.5876 0,0 0,10e-5 0.01,0 z" />
    <path
       d="m 1615.1284,2134.5347 c 8.8365,-0.1996 12.7988,-10.55 6.2545,-18.5876 -0.9491,-1.1723 -1.0471,-1.8451 0.6912,-0.719 4.4061,3.0653 12.8546,1.0502 13.2873,-8.3209 0.5343,-11.5466 -14.9734,-14.8735 -17.8851,-2.5955 -0.1537,1.2954 -1.1657,1.2658 -0.9217,-0.5729 0.2654,-4.9908 1.7637,-9.6554 3.8229,-14.2041 -3.4707,0 -7.3495,0 -10.5051,0 2.0591,4.5487 3.5573,9.2133 3.8228,14.2041 0.244,1.8387 -0.768,1.8683 -0.9216,0.5729 -2.9118,-12.278 -18.4196,-8.9511 -17.8852,2.5955 0.4325,9.3711 8.8811,11.3862 13.2873,8.3209 1.7384,-1.1261 1.6404,-0.4533 0.6913,0.719 -6.5444,8.0376 -2.582,18.388 6.2542,18.5876 0,0 0,-1e-4 0.01,0 z"
       id="path5654-9"
       style="display:inline"
       inkscape:connector-curvature="0" />
    <path
       inkscape:connector-curvature="0"
       style="fill:#000000;fill-opacity:1;stroke-width:1;stroke-miterlimit:4;stroke-dasharray:none"
       id="path4708"
       d="m 1227.4924,2163.8172 -5.5015,4.0768 c -4.7746,-7.8336 -10.1143,-12.993 -18.2828,-12.1074 -12.2556,0.8485 -17.3337,13.7928 -14.7697,23.5462 2.4806,8.7506 12.6287,13.013 20.697,8.3479 1.9042,-1.1058 3.7416,-2.0084 4.1009,-2.0084 0.8462,0 2.7617,3.8396 2.5,5.0108 -5.4149,7.968 -18.5642,21.9266 -18.5642,21.9266 h 20.5438 v -9.3478 h 7.8844 v 16.7727 h -40.1519 v -5.6908 c 0,0 10.7578,-11.2418 14.3129,-17.3983 -8.7559,-0.3229 -15.8135,-5.9138 -18.3471,-14.753 -1.4784,-4.6538 -0.8158,-15.2985 1.1193,-19.8866 3.2322,-7.6477 12.0607,-13.853 20.1315,-14.21 13.5502,-0.917 20.7387,8.6477 24.3274,15.7213 z m 0,0" />
    <path
       inkscape:connector-curvature="0"
       style="fill:#000000;fill-opacity:1;stroke-width:1;stroke-miterlimit:4;stroke-dasharray:none"
       id="path4906-4"
       d="m 1592.1084,1661.2522 5.5015,-4.0767 c 4.7746,7.8336 10.1143,12.993 18.2828,12.1074 12.2556,-0.8485 17.3337,-13.7928 14.7697,-23.5462 -2.4806,-8.7506 -12.6287,-13.013 -20.697,-8.3479 -1.9042,1.1058 -3.7416,2.0084 -4.1009,2.0084 -0.8462,0 -2.7617,-3.8396 -2.5,-5.0108 5.4149,-7.968 18.5642,-21.9266 18.5642,-21.9266 h -20.5438 v 9.3478 h -7.8844 v -16.7727 h 40.1519 v 5.6908 c 0,0 -10.7578,11.2418 -14.3129,17.3983 8.7559,0.3229 15.8135,5.9138 18.3471,14.753 1.4784,4.6538 0.8158,15.2984 -1.1193,19.8866 -3.2322,7.6477 -12.0607,13.853 -20.1315,14.21 -13.5502,0.917 -20.7387,-8.6477 -24.3274,-15.7214 z m 0,0" />
    <path
       d="m 1615.1306,1690.5347 c 8.8365,0.1996 12.7988,10.55 6.2545,18.5876 -0.9491,1.1723 -1.0471,1.8451 0.6912,0.719 4.4061,-3.0653 12.8546,-1.0502 13.2873,8.3209 0.5343,11.5466 -14.9734,14.8735 -17.8851,2.5955 -0.1537,-1.2954 -1.1657,-1.2658 -0.9217,0.5729 0.2654,4.9908 1.7637,9.6554 3.8229,14.2041 -3.4707,0 -7.3495,0 -10.5051,0 2.0591,-4.5487 3.5573,-9.2133 3.8228,-14.2041 0.244,-1.8387 -0.768,-1.8683 -0.9216,-0.5729 -2.9118,12.278 -18.4196,8.9511 -17.8852,-2.5955 0.4325,-9.3711 8.8811,-11.3862 13.2873,-8.3209 1.7384,1.1261 1.6404,0.4533 0.6913,-0.719 -6.5444,-8.0376 -2.582,-18.388 6.2542,-18.5876 0,0 0,10e-5 0.01,0 z"
       id="path5031"
       style="display:inline"
       inkscape:connector-curvature="0" />
    <path
       inkscape:connector-curvature="0"
       style="display:inline"
       id="path5057"
       d="m 1204.1306,2134.5347 c 8.8365,-0.1996 12.7988,-10.55 6.2545,-18.5876 -0.9491,-1.1723 -1.0471,-1.8451 0.6912,-0.719 4.4061,3.0653 12.8546,1.0502 13.2873,-8.3209 0.5343,-11.5466 -14.9734,-14.8735 -17.8851,-2.5955 -0.1537,1.2954 -1.1657,1.2658 -0.9217,-0.5729 0.2654,-4.9908 1.7637,-9.6554 3.8229,-14.2041 -3.4707,0 -7.3495,0 -10.5051,0 2.0591,4.5487 3.5573,9.2133 3.8228,14.2041 0.244,1.8387 -0.768,1.8683 -0.9216,0.5729 -2.9118,-12.278 -18.4196,-8.9511 -17.8852,2.5955 0.4325,9.3711 8.8811,11.3862 13.2873,8.3209 1.7384,-1.1261 1.6404,-0.4533 0.6913,0.719 -6.5444,8.0376 -2.582,18.388 6.2542,18.5876 0,0 0,-1e-4 0.01,0 z" />
  </g>
</svg>
