<?xml version="1.0" encoding="UTF-8" standalone="no"?>
<!-- Created with Inkscape (http://www.inkscape.org/) -->

<svg
   id="svg10047"
   height="122.975"
   width="78.998459"
   version="1.1"
   viewBox="0 0 78.998459 122.975"
   inkscape:version="0.91 r13725"
   sodipodi:docname="ramino-stretch.svgz"
   xmlns:inkscape="http://www.inkscape.org/namespaces/inkscape"
   xmlns:sodipodi="http://sodipodi.sourceforge.net/DTD/sodipodi-0.dtd"
   xmlns="http://www.w3.org/2000/svg"
   xmlns:svg="http://www.w3.org/2000/svg"
   xmlns:rdf="http://www.w3.org/1999/02/22-rdf-syntax-ns#"
   xmlns:cc="http://creativecommons.org/ns#"
   xmlns:dc="http://purl.org/dc/elements/1.1/">
  <sodipodi:namedview
     pagecolor="#ffffff"
     bordercolor="#666666"
     borderopacity="1"
     objecttolerance="10"
     gridtolerance="10"
     guidetolerance="10"
     inkscape:pageopacity="0"
     inkscape:pageshadow="2"
     inkscape:window-width="1920"
     inkscape:window-height="1016"
     id="namedview1491"
     showgrid="false"
     inkscape:zoom="1.3479675"
     inkscape:cx="513.5"
     inkscape:cy="307.5"
     inkscape:window-x="0"
     inkscape:window-y="0"
     inkscape:window-maximized="1"
     inkscape:current-layer="svg10047"
     showguides="false"
     inkscape:guide-bbox="true"
     inkscape:snap-grids="true"
     inkscape:showpageshadow="2"
     inkscape:pagecheckerboard="0"
     inkscape:deskcolor="#d1d1d1" />
  <metadata
     id="metadata16869">
    <rdf:RDF>
      <cc:Work
         rdf:about="">
        <dc:format>image/svg+xml</dc:format>
        <dc:type
           rdf:resource="http://purl.org/dc/dcmitype/StillImage" />
        <dc:title />
      </cc:Work>
    </rdf:RDF>
  </metadata>
  <defs
     id="defs10049" />
  <g
     id="club_king"
     transform="matrix(0.16458023,0,0,0.18223986,-1179.9785,-287.07098)"
     inkscape:label="#club_king">
    <rect
       transform="scale(-1)"
       width="478.65909"
       height="673.45691"
       rx="22.895517"
       ry="23.032383"
       x="-7648.9541"
       y="-2249.3643"
       id="rect6355-6-85-3-64-3-5"
       style="display:inline;fill:#ffffff;fill-opacity:1;stroke:#000000;stroke-width:1.34059;stroke-miterlimit:4;stroke-dasharray:none;stroke-opacity:1" />
    <path
       inkscape:connector-curvature="0"
       style="fill:#e2cf00;fill-opacity:1"
       id="path3450-5-0-3"
       d="m 7303.5557,2193.1309 176.4038,-0.8681 -22.4016,-42.9744 c -45.8481,4.1757 -86.0265,0.4623 -127.8824,-0.9203 z m 120.4772,-151.0954 c 0.1838,-0.2502 7.3388,-2.1213 6.6099,-3.7651 -18.6812,-40.4957 -27.0245,-73.4464 -34.8263,-115.0656 -3.9433,3.2407 -10.3226,3.1103 -10.3226,3.1103 3.1469,15.4554 -16.0962,17.3827 -16.2218,1.2132 -3.6938,-0.8675 -7.4931,-0.8804 -10.8276,-4.6584 -1.4985,45.4813 -17.6179,92.5387 -38.4343,125.1451 23.723,-9.5058 58.528,-33.1984 58.528,-33.1984 0,0 28.9638,12.1121 45.4947,27.2189 z m -144.1905,-4.8424 c 31.572,-30.3432 43.9282,-114.5739 41.6636,-115.7349 40.696,1.3747 53.03,-44.0443 17.7539,-68.5351 1.3941,-4.7502 4.8392,-8.6151 7.5085,-12.8119 -3.6381,-2.1092 -7.6104,-2.5597 -11.5778,-3.0016 -3.0122,-3.6131 -5.973,-7.7829 -9.2436,-8.1263 -3.5488,2.2635 -6.071,5.5759 -9.0268,8.4401 -3.6877,0.9497 -7.3452,2.001 -10.8445,3.6187 3.0996,4.3779 6.7738,8.8046 6.8682,12.9058 -30.6712,21.8892 -26.4619,51.6558 1.1878,66.8933 -8.2372,50.1277 -20.2518,82.1493 -34.1963,104.9207 z m 217.4372,-38.7281 c 4.0109,-1.9813 6.199,-6.1629 9.1095,-9.4442 3.9956,-0.1841 7.8437,-1.5661 11.65,-3.284 0,0 -9.1489,-12.793 -8.5826,-13.4811 29.6655,-19.6683 29.4231,-48.4166 0.9399,-67.3534 -4.8254,-40.9144 29.5184,-105.6624 31.2528,-103.7807 l 0.062,-13.387 c -24.4424,27.0416 -38.4019,75.8859 -39.7941,115.327 -48.812,3.2895 -50.5411,51.0283 -16.938,68.9849 2.5832,2.3979 -8.4485,13.4916 -8.4485,13.4916 2.8007,2.7916 7.4855,3.1083 11.5882,3.4513 2.5882,3.1308 4.8449,6.2526 9.1609,9.4756 z m -206.4481,-33.0388 c -6.9029,-15.54 -32.1147,3.395 -36.4891,-4.8737 -3.5508,-4.6896 -11.285,-5.17 -10.8652,2.7297 1.4527,7.8239 6.5413,9.5581 26.7291,6.1496 7.6582,-1.2929 10.7982,-2.0585 10.7515,1.4747 5.2977,6.4738 9.8414,-2.3321 9.8737,-5.4803 z m -23.4163,-22.6774 c 5.6599,0.01 6.6227,-22.3979 6.5402,-29.124 16.3874,-26.1971 -33.6165,-23.2191 -11.9917,5.3195 -0.7533,3.7291 2.7567,9.8093 2.6599,12.4979 1.7721,0.2283 2.5503,10.3437 2.7916,11.3066 z m 292.6799,-33.7885 c 0.5186,-6.7761 -4.3874,-27.34 -6.2084,-26.6427 -6.4077,10.446 -5.6458,19.3808 -4.9832,29.5827 -15.2629,29.7281 36.8636,17.5267 11.1916,-2.94 z m -95.1424,-4.7796 c 2.2774,-43.7566 12.8679,-86.6884 36.8646,-123.9187 -20.6564,9.7462 -40.7033,22.3213 -60.1028,33.0857 l -45.333,-28.4059 c -2.6255,1.1535 -4.4433,1.7211 -6.1835,3.4621 20.8909,30.9309 27.3564,75.4507 36.4582,115.7245 3.4636,-2.4854 9.9769,-3.7337 9.9769,-3.7337 0.4656,-13.969 14.9393,-18.4963 17.8954,-0.2777 z m 109.4158,-34.1369 c 4.8357,-0.31 8.4719,-12.4288 -5.226,-14.2237 -9.6666,-1.384 -22.0452,3.4337 -28.1854,1.2027 -7.139,-11.5279 -13.548,5.4415 -4.0072,8.21 10.2491,2.974 31.123,-4.7842 33.432,1.8094 1.1868,2.2513 2.6327,3.0883 3.9866,3.0016 z m -82.2219,-189.5308 27.3488,-48.9044 -174.8546,1.0667 22.8561,46.6454 c -0.3907,0.5174 76.3683,-9.2391 124.6497,1.1923 z" />
    <path
       inkscape:connector-curvature="0"
       style="fill:#d40000;fill-opacity:1"
       id="path3446-6-3-4"
       d="m 7454.8262,2144.6097 -3.4663,-6.365 c -40.9553,6.8331 -73.2066,7.8993 -115.578,-0.389 l -3.8684,6.629 c 38.6742,7.0562 78.1188,9.9703 122.9127,0.125 z m -38.6321,-95.8585 -35.7413,-23.4083 c 0,0 -17.1159,12.2448 -24.4114,17.4257 l 4.4286,6.5862 c 15.1154,-33.7385 41.6856,-7.0561 51.6479,8.8187 0,0 2.7065,-6.149 4.0762,-9.4223 z m -95.9961,-11.3252 c -2.4766,0.053 -3.8492,-0.9129 -5.0942,-3.4655 -1.4057,-2.882 -1.9424,-2.1716 -1.0386,1.4226 1.425,5.6675 -4.5195,9.3557 -10.12,5.5716 -4.044,-2.7323 -3.8672,-9.3435 0.552,-10.5684 3.569,-0.9892 3.6618,-1.9371 0.5265,-1.7826 -5.6254,0.2771 -7.1209,-7.3209 -3.1182,-11.0367 4.6018,-4.2721 10.4683,-1.2442 11.004,4.1136 0.2456,1.5149 0.5619,1.4937 1.0563,0.6358 1.4201,-2.4721 1.5512,-5.6864 1.2748,-8.596 l 8.3108,5.2201 c -2.9589,1.4828 -4.7624,2.3787 -6.9014,4.6282 -0.2794,0.2934 -0.4895,0.5083 -0.4869,0.6364 0,0.2288 0.9252,-0.078 2.6189,-0.2564 5.0211,-0.5298 8.8849,2.7657 7.8551,7.5515 -0.8762,4.072 -2.9586,5.8474 -6.4391,5.9258 z m 36.6475,-132.0511 c -9.0401,10.4711 -20.2665,17.1919 -35.8692,16.2521 -1.9829,43.8754 -17.0105,82.8906 -41.0762,118.0394 l 26.4757,16.1161 10.6221,-6.4883 c 24.4656,-36.8409 41.1815,-83.2409 39.8476,-143.9193 z m 198.439,102.5238 c 0,0 17.9218,-13.5913 26.2483,-20.1556 l -0.4026,-120.9814 -2.315,-0.8027 c -0.1648,-0.2581 0.202,1.7939 -0.8594,2.7321 -0.8679,0.767 -2.2443,1.6374 -3.0606,1.9383 -2.304,0.8489 -2.4062,2.4039 -0.2562,3.7483 1.668,1.0428 2.3029,2.6552 2.1114,5.3348 -0.1352,1.8909 -0.056,2.3035 0.7228,3.5875 0.9679,1.5956 1.0494,3.614 0.2265,5.7076 -0.3822,0.9724 -0.3455,1.2341 0.3361,2.5473 0.8679,1.672 0.9714,3.4736 0.3256,5.4133 -0.247,0.7416 -0.4257,2.363 -0.4027,3.6145 0.087,4.8185 -3.8418,8.015 -11.0984,9.0226 -2.8367,0.3939 -2.9236,0.5124 -1.6212,2.9211 7.3486,13.5903 -9.1613,20.672 -10.3965,18.4965 z m -226.1078,-6.748 c -6.7062,0.099 -12.2234,-5.318 -12.3208,-12.109 -0.097,-6.7909 5.2619,-12.378 11.9681,-12.4766 6.7063,-0.099 12.2235,5.3284 12.321,12.1194 0.097,6.7909 -5.2621,12.3675 -11.9683,12.4662 z m -0.1142,-2.1949 c 5.3696,-0.079 9.6546,-4.5461 9.5766,-9.9834 -0.078,-5.4375 -4.4893,-9.7871 -9.859,-9.7081 -5.3695,0.079 -9.6647,4.5566 -9.5867,9.994 0.078,5.4374 4.4996,9.7765 9.8691,9.6975 z m -0.2514,-3.1237 c -3.6411,0.053 -6.6416,-2.8878 -6.6946,-6.5749 -0.053,-3.6872 2.862,-6.7258 6.5032,-6.7794 3.6412,-0.054 6.6315,2.8982 6.6844,6.5855 0.053,3.6871 -2.8518,6.7152 -6.493,6.7688 z m 241.0623,-5.0515 c -0.4939,0.01 -1.0198,-0.067 -1.5528,-0.2386 -3.0261,-0.9739 -4.0835,-3.6721 -2.4444,-6.2295 1.2874,-2.0086 1.1397,-2.1809 -1.114,-1.3329 -1.7725,0.6669 -2.6753,0.4566 -4.0729,-0.9443 -4.1905,-4.2 2.0471,-11.2612 6.1489,-6.9833 2.0316,2.1187 2.225,1.4945 0.8163,-2.1458 -0.456,-1.1783 -1.2097,-3.0095 -1.2097,-3.0095 l 6.014,0.088 c 0,0 -0.9344,2.4276 -1.3657,3.5714 -1.0406,2.7592 -1.075,3.1628 1.0947,1.4273 4.8929,-3.9133 10.4406,2.7828 5.9387,7.1613 -0.9157,0.8906 -2.3857,0.9308 -4.4295,0.1175 -1.489,-0.5926 -1.669,-0.1807 -0.5503,1.2422 2.4332,3.0952 0.1838,7.2139 -3.2733,7.2759 z M 7445.24,1979.9388 c 2.4453,-16.2131 0.311,-38.9653 0.3632,-51.1234 -6.52,-1.258 -6.5931,-5.7553 -7.5948,-11.3453 -3.1692,1.1188 -10.0984,-3.6219 -11.0472,-3.2048 -0.7216,16.4496 7.7252,64.2 18.2788,65.6735 z m -108.1856,-16.2489 c -9.2563,-0.7515 -7.483,-7.9901 -4.7259,-10.9639 1.3057,-1.5254 1.0642,-2.211 -0.3703,-1.3335 -3.9093,2.3916 -7.0115,0.6642 -8.2715,-3.4555 -2.1527,-7.0379 6.9842,-13.1008 11.0582,-6.7836 1.3803,2.1403 2.2259,1.6562 1.8877,-0.5834 -0.2082,-2.1583 -2.2912,-6.6299 -2.2912,-6.6299 l 9.0823,0.824 c 0,0 -2.7747,4.6743 -3.262,5.9327 -1.0113,2.6116 -0.4773,3.3079 1.4628,1.2027 5.6795,-5.2628 13.5495,1.4753 9.8822,8.4525 -1.8079,3.4398 -5.1419,4.5526 -8.7434,1.8126 -2.4263,-1.6046 -2.9502,-0.909 -0.7805,1.0365 4.0551,3.636 0.5215,10.9312 -4.9284,10.4888 z m 232.379,-5.7463 c -0.1036,0 -0.2044,0.01 -0.3098,0 -0.7779,-0.015 -1.5933,-0.2337 -2.4063,-0.6967 -2.2565,-1.2851 -2.8751,-3.8197 -1.4602,-6.0243 0.8136,-1.2687 0.577,-2.0682 -0.369,-1.2393 -1.2666,1.1098 -4.0626,0.3721 -5.153,-1.3571 -2.8008,-4.4414 2.6714,-10.2527 6.1654,-6.5548 1.5423,1.6323 2.1326,1.6983 1.9537,0.6263 -0.5024,-2.012 -1.8103,-5.4448 -1.8103,-5.4448 l 6.2899,-0.1104 c 0,0 -1.358,3.6097 -1.6595,5.4415 -0.2314,1.4492 0.3394,1.2386 1.8374,-0.4739 1.457,-1.6654 2.7821,-1.8378 4.6397,-0.5912 4.5838,3.0763 0.9126,10.9739 -3.8678,8.3201 -1.6466,-0.9142 -1.8772,-0.3858 -0.5902,1.337 2.2985,3.0767 -0.047,6.6054 -3.26,6.7631 z m -326.5479,2.8208 c 10.1813,-10.6526 6.9881,-4.3552 2.2677,-12.4751 -0.017,-5.3545 -3.103,-9.5448 -0.6576,-17.995 0.7843,-1.6506 0.8533,-2.4367 0.4237,-4.0975 0.7468,-9.3347 8.131,-9.2155 15.3109,-10.6639 -1.1902,0.079 -11.3759,-18.9765 7.6281,-20.4677 l -0.2164,-77.4677 -29.7977,22.2455 0.1298,120.9214 z m 223.6057,-40.8998 c 8.4483,-5.5133 20.3162,-19.2901 35.2423,-16.2968 1.806,-48.3331 17.4707,-85.7509 39.8146,-117.9081 -7.7143,-4.6187 -16.2063,-10.162 -24.0959,-13.7153 -6.6705,3.4842 -10.4164,4.9363 -16.9627,10.3911 -26.8619,42.0185 -35.3803,87.952 -33.9983,137.5291 z m -70.1437,-8.8399 c -1.508,-24.8226 -5.4965,-48.3295 -18.2483,-67.1881 l -0.8628,52.7533 c 4.5441,1.1019 8.2666,4.0759 9.5927,12.5101 z m 92.1574,-14.6438 -8.5211,-0.2037 c 0,0 1.9333,-3.9005 2.7701,-6.0809 1.0165,-2.6648 0.534,-3.2077 -1.4086,-1.3556 -2.5287,2.4107 -6.5593,2.6345 -8.6799,0.4833 -5.6311,-5.7124 0.2582,-15.0217 6.9186,-10.938 2.8516,1.7483 3.3286,1.162 1.0657,-1.3127 -4.4015,-4.1357 0.1951,-10.0908 5.3386,-10.1168 3.7193,0.015 6.1291,3.0264 6.4214,6.3434 0.1426,2.0868 -0.8923,4.1806 -2.6808,5.1983 -1.8649,1.0612 -0.5292,1.7511 1.4967,0.6474 6.6142,-3.6033 11.0402,5.6514 6.0493,10.9175 -2.8779,3.0367 -5.9234,2.7538 -8.849,-0.1446 -2.0427,-2.0238 -2.7742,-1.8437 -2.1978,0.55 0.5806,2.6943 2.2768,6.0124 2.2768,6.0124 z m -230.0062,-7.2645 -6.1047,-0.01 c 0.6005,-1.5297 1.376,-3.0892 1.8634,-4.6013 0.525,-1.647 0.1405,-1.8572 -1.4767,-0.2644 -4.2081,2.861 -8.6965,0 -7.784,-4.533 0.6297,-3.1267 3.2151,-4.6602 6.2018,-3.3023 2.6334,1.1973 1.7883,0.6841 0.291,-1.1401 -1.7813,-2.1701 -1.3286,-4.7024 1.0266,-6.3789 4.1664,-2.9657 9.6672,1.9618 6.9109,6.2623 -1.625,2.5574 -0.88,2.2801 0.5999,1.0432 2.2212,-1.6454 5.5783,0.6836 5.6441,3.9125 0.2563,4.6448 -4.3735,7.2588 -7.6382,3.972 -1.5547,-1.3254 -1.9419,-1.1635 -1.2397,0.7644 0.6434,1.4005 0.851,2.9003 1.7056,4.2728 z m -0.327,-33.7802 -6.3985,0.074 c 0,0 0.089,-0.4954 1.075,-2.3704 1.1583,-2.2037 0.9814,-4.483 -0.228,-2.9359 -2.0408,2.611 -6.3759,1.8836 -7.7967,-1.3078 -1.6552,-3.7183 1.571,-7.8261 4.9199,-6.2645 2.1766,1.015 2.3261,0.7962 0.8797,-1.3203 -1.4074,-2.0594 -0.7833,-4.5897 1.5037,-6.0679 4.4931,-2.9043 9.8806,2.8933 6.1372,6.604 -1.0021,0.9933 -0.6872,1.4769 0.5281,0.808 4.9605,-2.7299 8.6188,4.0575 4.3294,8.0322 -1.8263,1.6924 -3.2226,1.5757 -6.2256,-0.5256 -0.9348,-0.654 -1.1144,0.02 -0.4408,1.6801 1.1479,2.8287 1.7166,3.5944 1.7166,3.5944 z m 237.5205,-4.064 c -7.1211,0.1047 -12.9718,-5.6502 -13.0752,-12.8614 -0.1034,-7.2111 5.5795,-13.1462 12.7007,-13.251 7.1213,-0.1047 12.9824,5.6606 13.0858,12.8717 0.1034,7.2112 -5.5901,13.136 -12.7113,13.2407 z m -0.147,-2.3304 c 5.8501,-0.086 10.5267,-4.9507 10.4417,-10.8747 -0.085,-5.9241 -4.8992,-10.6596 -10.7492,-10.5736 -5.8502,0.086 -10.5267,4.9612 -10.4418,10.8852 0.085,5.9241 4.8992,10.6492 10.7493,10.5631 z m -0.1211,-4.1193 c -3.6013,0.053 -6.5586,-2.856 -6.6109,-6.5029 -0.052,-3.6467 2.8202,-6.6519 6.4215,-6.7049 3.6013,-0.053 6.5691,2.8663 6.6215,6.5131 0.052,3.6469 -2.8307,6.6417 -6.4321,6.6947 z m 16.2089,-31.6364 -7.4439,-3.6847 c 0,0 3.5197,-2.9002 4.9207,-4.3945 1.7906,-1.9249 1.6664,-2.8263 -0.7513,-1.9055 -4.6103,1.756 -9.2273,-0.8733 -9.3138,-5.7189 -0.1155,-6.4666 7.4381,-9.5795 11.0652,-4.6829 1.0782,1.4558 2.3658,2.0614 1.8614,0.8722 -1.2278,-2.8942 -0.4771,-6.5387 1.6613,-8.0366 1.7119,-1.1991 4.845,-1.5514 6.4247,-0.722 5.4337,2.8523 5.7159,9.1922 0.5191,11.6967 -2.6127,1.2591 -2.6992,2.4391 -0.1293,1.7905 5.3508,-1.3504 8.471,5.2072 4.6118,9.712 -4.0961,4.7813 -10.7741,3.7923 -11.5125,-3.2824 -0.1313,-1.2587 -0.9786,-0.3481 -1.357,1.5799 -0.4546,1.4325 -0.5564,6.7762 -0.5564,6.7762 z m -69.3863,-10.6363 c 0,0 27.2582,-15.7061 26.428,-16.369 -0.1609,-0.096 -6.0413,-8.4756 -6.0413,-8.4756 -13.5234,31.0291 -45.91,5.3324 -51.098,-10.5099 -1.1253,-0.702 -1.3173,-0.5014 -2.5404,-1.0567 -0.1155,1.1182 -2.3617,12.122 -2.3617,12.122 z m 44.6808,-114.5732 4.3908,-6.334 c 1.5166,-0.653 -67.954,-12.5641 -122.7495,-0.4629 l 3.7909,7.2876 c 44.626,-11.5269 115.2588,-1.3036 114.5678,-0.4907 z" />
    <path
       inkscape:connector-curvature="0"
       style="fill:#131f67;fill-opacity:1"
       id="path3444-9-5-7"
       d="m 7585.8751,2197.5347 v -570 h -352.5 v 570 z m -105.688,-4.4068 -176.98,0.6905 32.7109,-56.7078 c -0.3132,2.9893 63.5974,12.1501 115.8318,0.9703 z m 100.7063,-1.3259 h -96.2439 l -32.4521,-58.8379 c 0,0 -1.9057,-3.6756 -0.7673,-7.5215 1.2424,-4.197 2.3105,-6.0599 3.4283,-8.2023 -0.112,1.2222 9.3513,2.4344 8.5594,-5.7698 -0.536,-5.5531 -7.4771,-8.6937 -12.6449,-4.3732 -0.826,0.07 -0.8195,-0.7061 -0.6391,-2.0616 0.4771,-3.1817 3.8135,-13.2782 6.1018,-13.9481 11.6502,9.6733 15.8073,-7.9924 7.9522,-11.5146 -4.5473,-2.0389 -11.5411,-0.3537 -14.8096,5.182 -2.5003,4.2345 -2.2233,3.5351 -3.0114,-1.6042 -0.293,-1.9111 -0.707,-4.1262 -0.9204,-5.1221 -0.667,-3.1148 -8e-4,-3.719 5.1768,-5.1324 4.1663,-1.6433 8.3891,-2.5507 12.6858,-3.4919 7.8525,-1.3039 11.866,-7.3019 12.0616,-14.6013 0.042,-1.5778 -0.012,-2.3076 0.3218,-2.7765 33.2215,-12.7678 68.17,-30.6338 105.201,-61.1414 z m -220.9312,-139.9249 c 1.2583,2.0607 5.2813,12.8808 6.3851,17.3947 2.8835,21.8869 3.4309,47.8677 6.5118,68.241 l -4.0588,-0.4608 c 0,0 -1.5262,-5.8991 -3.168,-21.8356 -0.8138,-7.9001 -1.6632,-24.3231 -2.3416,-31.8735 -1.0252,-11.2185 -6.0312,-29.1571 -9.1323,-33.6856 -5.0572,-7.3851 -15.223,-2.6082 -11.8232,6.1609 1.764,4.5496 8.595,3.8127 7.6477,-0.9085 -0.017,-0.8419 -0.649,0.6021 -1.6485,1.4896 -2.9518,1.1321 -6.2738,-1.9787 -4.5407,-5.7247 2.1522,-4.7824 8.5205,-2.5999 10.633,3.4282 2.5236,7.2008 -5.9783,12.5993 -12.3386,8.2076 -7.0852,-4.8922 -7.1002,-17.2947 -1.3938,-21.2091 9.6034,-3.5466 16.1328,3.5386 19.2679,10.7758 z m -23.7424,-9.1234 c 0.3869,0.2312 -0.013,0.9849 -0.4879,2.7751 -1.7759,6.6932 -0.6576,11.9165 3.6191,16.8392 2.3829,2.7425 3.2791,3.2245 2.0311,3.7218 -2.6453,1.0541 -8.4897,-3.2435 -10.0961,-7.4686 -1.5852,-4.1487 -1.9816,-8.4393 0.2502,-13.1298 1.5523,-1.0062 3.9664,-3.0246 4.6836,-2.7377 z m -7.2365,4.4576 c 0.01,0.783 -0.5139,3.253 -0.6337,4.4613 -0.4632,4.6701 1.694,9.4118 5.5101,13.1191 3.2026,3.1112 3.4964,3.4317 0.4656,3.4834 -7.8168,0.1331 -12.8023,-12.664 -9.195,-18.9689 0.929,-0.999 3.7608,-3.0436 3.853,-2.0949 z m -6.6188,4.3311 c -2.3016,10.91 8.1186,18.1814 8.3287,17.8413 -0.52,2.4448 -4.6581,1.0392 -6.068,0.088 -5.2677,-3.5815 -8.297,-12.9426 -5.0634,-18.2636 0.3515,-0.6531 0.7836,-1.0282 1.3519,-1.3804 1.0871,-0.6909 1.7279,-1.2469 1.9492,-0.7624 0.1676,0.3671 -0.4368,1.955 -0.4984,2.4771 z m 91.6781,35.3952 c -1.089,1.082 -1.4149,1.1131 -3.5075,0.3131 -6.5567,-2.5065 -11.7927,2.2566 -10.2457,7.2633 0.5602,1.813 3.0171,3.7807 4.529,3.9394 2.4703,0.2593 2.52,-1.0613 -0.1432,-2.0689 -3.2715,-1.2377 -3.6021,-4.7528 -0.721,-6.3384 3.3822,-2.313 8.9228,3.5578 12.9864,3.0619 1.9427,-0.5878 3.1861,-2.4273 2.076,-4.6746 -0.8663,-1.5759 -3.7892,-2.5304 -4.974,-1.4958 z m 7.2724,0.717 c 2.2737,1.0688 3.1397,1.0486 2.7049,3.5608 -0.2862,1.6535 -2.6146,12.7816 -3.7214,17.0831 -3.3147,12.8813 -0.2003,20.0216 9.1879,22.901 6.3625,1.9513 11.8404,0.9627 18.3228,-2.5284 l 1.1664,3.6421 c -27.1763,7.1991 -73.5555,5.6022 -73.3904,5.3235 -0.9153,-3.7039 -1.2641,-7.408 -1.6219,-11.1119 0,0 8.6895,4.3164 13.2229,5.7531 6.9838,2.1675 18.0214,-0.2095 19.9774,-4.2684 1.1091,-2.3015 0.532,-3.8362 -4.1603,-1.2777 -7.6798,4.1875 -23.3642,0.9966 -28.892,-3.4433 -1.2736,-1.0229 -1.2093,-1.2464 -1.2338,-2.4459 -0.037,-1.8289 -0.1433,-1.9361 2.3715,-0.5747 13.1807,6.8237 24.4441,6.0323 28.33,-2.9261 0.8947,0.2736 4.3126,0.8694 4.3126,0.8694 l -3.6698,-5.495 -0.6978,-5.7519 c 0,0 -5.9965,-3.3684 -9.3022,-4.7948 -3.2531,-1.3961 -1.3808,0.09 2.6129,2.9039 2.9319,2.0661 0.5997,2.728 -1.3343,1.9371 -3.9785,-0.924 -9.7955,-2.0974 -16.5274,2.2307 -2.0909,1.3442 -6.8769,0.178 -6.952,-0.4307 0,0 -0.6374,-5.0298 -1.27,-15.5252 -0.2992,-4.9647 -0.9027,-11.4503 -1.2457,-14.1127 -1.036,-8.0433 -1.3336,-8.5009 2.8463,-4.6442 1.4024,1.2941 3.7388,3.4406 3.766,3.3127 0.5301,-2.4942 -5.636,-6.8754 -7.0717,-8.3788 -2.179,-2.2818 -3.9276,-8.1229 -3.055,-8.4694 0.5526,-0.2193 6.41,4.8112 11.0209,9.3354 1.7273,1.6949 4.2998,3.9671 4.3734,3.8895 0.9532,-0.643 -2.9189,-5.0678 -6.545,-8.3761 -4.2314,-3.8607 -4.7205,-4.2063 -3.2981,-4.7881 2.6264,-1.0743 4.99,0.2618 11.3666,5.6003 0.6207,0.5196 3.0352,2.2541 3.1499,2.1293 0.5816,-0.7857 -5.3013,-6.4253 -6.6374,-6.9104 -2.4814,-0.9008 -3.1961,-3.328 -1.239,-4.2807 1.3063,-0.6359 6.1748,2.0657 10.0774,5.4895 0.6993,0.6135 2.6407,1.658 2.7693,1.5178 0.7741,-0.5036 -3.5895,-4.3242 -7.7523,-6.8626 -4.0755,-2.4851 -4.728,-3.0987 -3.6893,-5.1651 0.9678,-2.1279 9.913,2.7994 14.3878,7.8737 0.9522,1.0798 1.7043,1.5449 1.5147,1.1806 -1.9485,-5.4695 -8.3614,-9.3886 -13.1321,-10.9493 -0.8516,-0.2824 -2.0861,-0.6304 -2.6422,-1.0779 -1.3586,-1.0929 -1.0581,-2.2301 0.4142,-2.8708 5.0875,-1.4454 13.1102,4.7938 18.8493,11.33 0.6649,0.2785 0.268,-0.577 0.093,-0.8599 -4.7866,-7.7354 -13.9531,-13.621 -19.4732,-12.5225 -3.2274,0.6423 -5.8201,-0.3417 -5.8456,-1.4379 -0.021,-0.8986 1.7585,-2.3307 5.2295,-2.5812 7.8523,-0.5665 20.1204,8.1327 27.2966,19.2105 0.2237,0.3453 0.4888,0.4726 0.5061,0.263 0.1948,-2.3482 -4.2671,-8.1072 -7.6896,-11.4015 -10.1685,-9.7874 -19.7811,-13.095 -27.2794,-7.5813 -4.2275,3.3178 -8.3141,10.5713 -2.0159,12.9952 3.3353,1.2835 5.4446,-3.3655 2.5921,-2.0388 -3.748,0.4569 -4.5986,-1.5559 -4.1108,-3.4481 0.9546,-3.2491 4.1337,-3.7654 6.7184,-2.3996 4.4991,2.4673 3.5438,10.9236 -2.2803,12.4011 -5.2483,1.2833 -9.8275,-3.2219 -10.429,-7.4954 -0.9345,-6.6383 6.4613,-13.8221 12.3923,-15.609 20.2304,-6.0951 36.031,22.3696 36.1223,23.0137 1.015,1.9775 2.2359,3.0246 3.0058,0.7193 0.8283,-3.3386 5.394,-13.129 7.8366,-13.07 -0.7602,3.4538 -3.9618,9.2594 -3.185,14.3452 1.3505,-4.1764 4.1974,-13.0879 9.644,-17.834 1.4115,-1.3019 5.5551,-2.8358 2.7034,0.5147 -3.4428,4.9009 -7.9478,11.6021 -7.0152,17.8951 0.9139,-1.414 1.4117,-4.9941 2.4562,-7.358 2.6151,-5.9184 8.3281,-12.9415 12.1001,-14.0788 2.7855,-0.8399 2.5251,0.1122 -0.3267,3.1531 -3.0573,3.2602 -8.4704,12.8325 -8.1129,16.9594 0.154,1.8224 5.6155,-15.7634 15.8803,-20.5777 2.7718,-1.0263 4.3474,0.2656 4.3474,0.2656 -4.0354,2.3524 -15.1812,13.4785 -14.1288,26.1191 0,0 0.5942,-1.8715 1.4716,-4.6786 3.779,-12.0646 11.8987,-19.9968 18.2267,-20.6535 5.0517,-0.5245 8.5786,1.5389 7.3257,2.4504 -6.55,-0.049 -11.9326,2.2439 -16.1379,8.7082 -4.274,6.5703 -5.8669,17.1274 -3.2769,28.3007 2.3358,10.0766 2.8488,19.1376 3.6641,28.8238 -7.176,-2.482 -14.3963,-4.1334 -21.3839,-1.3685 0.7009,-2.8863 1.8675,-3.2448 3.7109,-5.4238 1.3375,-1.593 0.8805,-1.9718 -4.34,1.7614 -1.5192,1.0863 -2.067,1.957 -2.3415,1.6661 -0.4453,-0.4717 0.2476,-3.4432 1.7662,-9.3665 2.2709,-8.8571 1.6812,-9.4918 -6.7224,-12.8292 -1.5678,-0.6227 -2.1533,-1.2323 -2.7024,-1.8954 -0.2569,-0.3103 -1.636,-2.8247 -1.7667,-2.9132 -0.307,-0.2076 -0.2264,2.5636 -0.056,3.2643 0.4511,1.8607 1.4441,3.2573 2.3128,3.8079 1.6493,1.5383 4.0287,1.6738 5.5547,2.3812 z m -158.646,-115.5308 -0.084,9.1969 -8.8235,-6.3386 0.108,-3.0355 z m 15.0791,-1.9988 0.3239,170.1038 c 0,0 -6.7719,4.5566 -10.1567,6.8135 -2.1147,-6.7441 -2.1006,-21.2054 -1.3074,-27.6451 1.3252,-4.1939 1.9164,-22.859 0.4132,-32.3561 -1.1984,-7.5707 -0.978,-20.0919 0.1526,-26.0848 0.4417,-2.3416 0.1008,-13.3154 -0.7299,-23.4674 -0.6347,-7.7588 -0.452,-14.8123 0.4734,-18.8496 0.7292,-3.1816 0.4761,-14.5825 -0.3552,-18.9558 -1.2234,-6.4341 -1.4327,-27.1026 -0.8846,-28.2256 1.4543,-1.6674 12.8332,-1.9016 12.0707,-1.3329 z m -13.4161,178.0137 c 0,0 -6.8198,-4.5618 -10.1096,-6.8426 l -0.045,-7.3286 9.8565,6.5161 z m 101.8082,-11.842 -4.2178,-0.2656 c -1.6806,-8.8575 -2.4085,-18.9266 -3.0778,-29.0216 -0.214,-15.5653 -2.1117,-31.9818 -5.7211,-42.7421 l 3.1017,-3.2927 c 5.2799,12.3305 5.6957,31.7815 6.8735,44.9463 0.5159,14.8065 2.9207,30.2807 3.0415,30.3757 z m -102.6271,1.552 -9.1729,-6.2868 -0.095,-7.9706 9.2418,6.208 z m 96.5401,-2.1369 -3.7042,-0.4079 c -1.1269,-10.5164 -2.8545,-17.6528 -3.512,-29.2382 -0.8504,-14.9843 -3.4159,-27.288 -5.0103,-38.992 l 2.774,-0.9336 c 1.8575,-0.8665 4.9368,12.9651 6.3073,41.0021 0.4147,8.4853 1.8338,18.0296 3.1452,28.5696 z m -5.6035,-0.3954 -4.424,-0.8027 c -1.9563,-26.6208 -5.0479,-51.6224 -8.285,-65.9485 l 3.8473,-0.2575 c 4.771,20.4749 5.0813,44.1659 8.8617,67.0087 z m -6.3905,-0.9438 -4.0656,-0.7137 c -4.8908,-60.8793 -7.9083,-60.0939 -8.8519,-62.4871 l 4.4005,-1.8076 c 4.7572,17.4944 5.7172,42.1579 8.517,65.0084 z m -18.4588,-59.7972 c 0.6951,-2.0507 2.3436,-1.8598 4.1426,-2.0706 2.014,5.595 3.1908,12.2641 4.0352,18.7938 1.855,14.3429 2.5243,27.7917 4.4573,41.9462 l -4.8494,-0.5028 c 0.1573,-0.1082 -3.4416,-49.9204 -7.7857,-58.1666 z m 104.3477,53.511 c -6.3928,-0.3126 -11.6956,-3.2179 -12.2064,-7.4702 -0.1148,-0.9565 0.6344,-0.4917 1.4999,0.1799 5.498,4.2666 11.7543,5.5961 19.3089,2.8439 1.6463,-0.5998 2.9935,-1.5451 3.7292,-1.4146 0.661,0.4273 0.8655,1.4646 0.3601,2.32 -1.762,2.9822 -9.5282,3.6956 -12.6917,3.541 z m 14.8234,-8.5389 c -0.1367,-6.7052 1.4743,-10.402 4.9486,-11.9513 4.1932,-1.8699 9.5704,2.1346 6.9576,6.6143 -1.9754,3.3869 -5.3709,2.3662 -6.018,-1.1923 l -5.328,12.013 c 0,0 -0.5459,-3.8043 -0.5602,-5.4837 z m -194.6055,1.0752 0.058,-6.9107 9.8314,6.6537 -0.6561,6.6443 z m 174.4098,0.9007 c -4.8438,-1.9423 -6.6219,-4.3154 -6.8014,-5.3704 0.2798,-0.786 0.7637,-0.2495 4.3005,1.6835 5.4468,3.3825 12.5461,3.9341 18.7836,-0.3598 1.5547,-0.3112 1.7146,0.5817 0.1566,2.2778 -4.7527,3.7691 -11.3179,3.8226 -16.4393,1.7689 z m -36.7843,1.2941 c -4.2617,0.1361 -9.3562,-0.9603 -13.659,-3.1462 -1.9028,-0.9667 -3.6103,-1.5694 -4.8507,-2.6806 -0.9919,-0.5236 -1.0693,-2.803 -0.3434,-2.975 0.6484,-0.092 1.7093,0.4195 3.2965,1.5414 10.2244,6.7227 17.581,5.8952 23.4931,1.7569 0.3278,-0.2285 1.3441,-0.4642 1.7458,-0.4335 1.1271,0.086 1.1854,0.5533 0.7147,1.1718 -2.736,3.1309 -6.8267,4.6411 -10.397,4.7652 z m -127.7658,-4.8394 -9.8524,-6.9717 0.01,-6.8554 10.4754,7.3749 z m 177.8498,-2.7855 -1.4385,-0.042 c -3.3534,-8.2281 -7.5596,-3.987 -9.3072,-0.6924 l -1.7519,-0.2887 c 2.7422,-11.0211 13.9034,-5.2545 12.4976,1.023 z m 2.4491,-1.0971 c -1.6283,-0.1982 -1.5709,-2.0639 -2.0808,-3.4216 -1.1396,-3.0345 3.1816,-0.4668 3.9219,0.2724 1.2543,1.3364 -0.528,3.0119 -1.8411,3.1492 z m -48.7663,0.3208 c -4.2473,-6.544 -6.6976,-2.67 -9.1188,0.1799 l -1.154,-0.3733 c 0.3038,-4.6982 8.1146,-9.7068 11.8223,0.078 z m -13.0628,-0.7398 c -0.4552,-0.01 -1.3674,-0.3372 -2.2063,-0.6806 -2.323,-0.9512 -2.2007,-1.6483 0.3722,-2.807 4.1147,-1.8529 5.5453,-2.0929 4.3133,0.5246 -0.7093,1.1973 -1.1786,2.7832 -2.4792,2.963 z m 16.1402,-0.998 c -1.0355,-0.7705 -1.7158,-1.6232 -1.8351,-3.0098 -0.084,-0.9775 3.1283,0.1488 3.1225,1.706 -0.1021,0.9899 -0.6311,1.7923 -1.2874,1.3038 z m 28.4677,-0.3726 c -2.1109,-0.7918 -1.8579,-1.8102 -0.3876,-2.7336 2.6407,-1.4903 3.7711,-1.1969 2.0638,1.1463 -0.7875,1.0809 -0.9577,1.5649 -1.6762,1.5873 z m -162.417,-3.4495 -10.6703,-7.5944 0.094,-6.9728 10.661,7.3578 c 0.4959,2.9877 0.028,4.9968 -0.085,7.2094 z m 184.3972,-10.7923 c -0.5058,-0.013 -0.7057,-1.7065 -0.8243,-4.1823 -0.1971,-4.1164 3.9414,-9.8492 8.1247,-11.8239 5.0381,-2.3781 10.4327,0.9567 9.5298,5.8988 -0.8322,4.5549 -7.2228,4.7433 -7.4646,0.5349 0.6214,-1.1069 -0.2494,-2.0335 -0.6062,-1.9365 -1.6437,0.4467 -5.5196,3.9775 -7.0961,7.9282 -0.6144,1.5396 -0.9876,3.1239 -1.4271,3.4831 -0.085,0.07 -0.164,0.1 -0.2362,0.098 z m -184.11,1.2851 -10.6632,-7.8775 -0.047,-6.9281 10.574,7.3654 c 0.4177,3.0875 0.2361,5.2899 0.1365,7.4402 z m 129.3767,-10.9713 c 0.8059,-1.371 0.1447,-3.8275 -1.5076,-1.7351 -4.2484,5.0072 -10.4012,-1.2588 -7.1093,-5.2403 2.9876,-3.6136 6.6636,-2.4501 14.4274,0.5513 5.6557,2.1865 6.5469,1.4416 7.9412,-0.1376 1.1479,-1.3003 0.5633,-3.919 -0.9234,-3.8879 -4.5832,-1.0532 -8.5523,-2.0792 -13.2965,-3.0784 -10.028,-2.083 -16.1436,10.9965 -6.9832,15.8028 2.1913,1.1496 6.7269,-0.3444 7.4514,-2.2748 z m 44.2563,-1.5062 c 3.9099,-3.5499 0.7031,-12.8807 -5.0538,-13.7139 -1.2054,-0.1745 -3.005,-0.124 -5.0481,0.4729 -4.0284,1.1769 -8.466,3.5896 -8.648,4.9953 -0.8264,6.3867 8.5636,0.6596 9.8068,-0.098 2.9608,-1.82 6.0944,-1.5843 7.6725,0.5775 3.5566,4.8721 -2.8189,10.4624 -6.6907,4.502 -0.977,-1.5041 -0.6334,1.044 0.4323,2.7758 1.5045,2.4451 5.3905,2.2865 7.529,0.4879 z m -174.3389,2.0115 -10.0227,-7.1718 0.057,-6.6708 9.7173,7.0937 z m -0.7506,-9.7658 -9.4913,-6.9126 -0.1623,-6.9332 9.9609,6.6389 c -0.1949,2.496 -0.242,4.8421 -0.3073,7.2069 z m 53.2119,-3.9826 c -8.3441,-0.1388 -13.0528,-12.6233 -8.6521,-17.8179 1.3092,-1.5455 2.3539,-1.9592 2.9467,-1.3833 0.1276,0.124 -0.082,1.5204 -0.1671,3.0985 -0.2713,5.0323 0.7852,8.4772 4.421,12.2998 2.7272,2.8673 3.7582,3.7548 1.4515,3.8029 z m 102.7554,-1.9898 c 1.5761,-0.5687 3.2433,-1.7213 4.5345,-1.4369 1.2751,0.2809 1.8854,-0.3582 2.3847,-1.3707 1.9102,-3.8738 1.319,-5.1265 -2.467,-2.927 -1.7968,1.0438 -2.4254,0.6695 -7.234,-0.2493 -3.4363,-0.6565 -5.7738,-0.5917 -8.7976,0.2027 -3.7588,0.9872 -5.9997,1.0643 -7.9017,0.012 -1.9018,-1.0528 -3.2033,-2.5038 -3.2519,-1.3225 0.2117,1.3828 1.4034,4.9194 1.6781,6.0944 0.1321,0.5652 1.0673,0.068 1.9522,0 3.1159,-0.2289 6.8327,2.6092 9.2399,1.1088 1.9265,-1.2008 2.1812,-1.5156 4.8245,0.055 1.9683,1.1692 3.3322,0.4472 5.0383,-0.1683 z m -100.5122,-0.868 c -5.6504,-4.7782 -7.098,-9.0175 -6.5497,-12.4959 0.2803,-2.5303 0.4664,-5.3252 2.9152,-6.8483 0.4512,-0.2181 1.1249,-0.3532 1.7494,-0.4462 -1.8997,7.187 0.3393,13.6232 8.3275,20.4904 -2.3239,1.1649 -4.6941,0.7757 -6.4424,-0.7 z m 127.4487,0.012 c -0.2508,7e-4 -0.5271,-0.041 -0.8077,-0.1345 -0.9807,-0.3269 -1.1352,-2.925 -0.3635,-3.7393 0.7718,-0.8142 1.3951,-0.1426 2.2897,1.9224 0.6644,1.1245 -0.032,1.9481 -1.1185,1.9514 z m 5.2181,-2.0222 c -2.0627,0.043 -2.8451,-1.8701 -3.199,-3.3942 -0.3017,-1.299 0.079,-5.1765 1.1743,-3.8246 0.2629,0.8213 1.3838,3.4724 2.2804,4.1608 1.9971,1.5335 1.7987,3.015 -0.2557,3.058 z m 5.8084,-1.9264 c -0.3015,0.01 -0.6886,-0.029 -1.1584,-0.1084 -3.2206,-0.5461 -5.6872,-5.7371 -4.9379,-8.6822 1.7044,-3.1678 2.3353,-1.0319 2.8979,1.8402 0.4398,1.1907 1.7591,3.0569 2.5676,4.0205 1.6781,2.0002 1.9375,2.8927 0.6308,2.9299 z m -193.6549,1.5085 -9.8074,-7.1169 -0.015,-7.6181 10.2639,6.9854 c -0.2287,2.666 -0.3458,5.2188 -0.4413,7.7496 z m 200.026,-3.0874 c -4.803,0.083 -8.9041,-5.6633 -7.3898,-11.1145 1.8775,-5.685 11.2273,-4.4723 9.675,1.1965 -0.4466,1.6305 -2.165,2.8234 -3.8063,1.8027 -2.3705,-1.4742 -2.1097,0.925 -0.6047,1.7766 2.3232,1.3143 5.5171,0.5187 6.2288,-2.1417 2.481,-9.2744 -9.292,-12.4359 -15.7,-2.8548 -2.342,3.5018 -4.8902,7.2492 -6.2978,8.8474 -1.2645,1.436 -1.5346,1.2852 -1.3303,-0.5661 0.8167,-8.6172 6.7503,-19.3867 17.8788,-18.7975 10.8154,1.0401 14.1965,12.6579 6.0286,19.9102 -1.5261,1.168 -3.0179,1.9124 -4.6823,1.9412 z m -57.3085,-0.4697 c 3.9577,-1.9407 7.5439,-2.6749 11.4397,-0.9575 2.8798,1.2693 2.8347,-0.109 1.583,-1.2405 -3.618,-3.119 -10.198,-1.7074 -13.0167,0.048 -0.9146,0.5697 -1.2159,2.2197 -0.01,2.1497 z m -152.5561,-13.7743 -0.031,-6.9284 10.9485,7.4267 c 0.1728,1.6577 -0.011,4.1772 -0.3708,6.7789 z m 10.5543,-2.3141 -10.4258,-6.9508 -0.275,-6.867 10.1294,6.36 z m -0.728,-9.6302 -9.9579,-6.974 -0.1438,-7.4958 9.8663,6.5728 z m 242.8497,-7.881 6.0953,-18.6451 -3.9905,-0.2447 -2.6942,-4.9183 -2.7683,5.0405 -4.1993,0.3232 z m -243.2641,-2.4879 -9.5982,-6.6777 -0.1456,-6.923 9.9719,6.9793 z m 0.39,-8.4759 -9.8401,-7.1962 -0.1956,-7.3543 11.1519,7.5232 z m 220.1498,-4.1614 6.0352,-19.9622 -3.4019,0.4684 -3.1856,-5.3399 -3.216,4.796 -3.0496,-0.1749 z m 45.4272,-1.484 5.7476,-19.8429 -3.8526,0.015 -3.2532,-5.0042 -2.8538,4.8326 -4.3675,0.1164 z m -264.2957,-3.6534 -11.5481,-8.2026 -0.095,-7.8094 11.1938,7.5916 z m -11.4158,-18.5483 -0.1286,-6.8397 9.7168,7.0021 1.054,7.5948 z m 206.1396,-1.1776 7.0549,-20.1654 -4.7314,-0.045 -2.8687,-4.8426 -2.2955,4.8662 -3.8017,-0.038 z m -197.1912,-2.0106 -9.014,-6.2554 0.069,-7.0227 8.875,6.0198 z m 170.8438,-81.5995 5.1359,4.9977 c 0.063,0.408 -4.1992,2.4991 -6.8245,1.1687 -3.4661,-1.7565 -5.2466,-8.074 -1.3659,-11.3999 3.0881,-2.6466 7.8024,-0.4452 7.8951,-0.1339 z m 4.5708,8.2422 c -0.09,7.7206 3.9248,9.7022 7.2455,11.2662 0,0 0.5553,48.9246 0.4829,50.3865 0,-0.2135 0.8514,5.2984 0.9484,5.6238 h 10e-5 c -10e-5,0 0.7972,0.2151 0.7967,0.2066 -0.1396,-4.9606 -0.4598,-55.7972 -0.3818,-56.1268 6.2148,-0.7263 7.9507,-4.9861 8.5129,-10.7057 4.849,0.3682 8.0029,-2.5872 8.0999,-3.0775 1.7905,2.49 0.4563,6.1576 1.8698,8.7558 4.2959,-15.2127 -4.0592,-24.315 -11.3512,-23.4667 -1.1703,-14.6062 -17.0579,-17.247 -16.5176,0.4702 -19.2208,1.1423 -12.7087,19.0353 0.2944,16.6676 z m 90.307,61.4214 6.9574,-19.7561 -4.8776,0.5634 -1.7773,-3.6453 c -7.8131,6.9713 -11.7575,-3.7927 -7.7825,5.4385 z m -264.524,-35.1526 c -0.8977,0.067 -2.079,-0.7521 -2.315,-1.8692 -0.1707,-3.3353 4.2571,-2.5861 4.3973,-0.4799 0.099,1.4957 -1.2392,2.286 -2.0823,2.3491 z m -2.8925,-21.6905 c -1.9089,1.5859 -4.9478,0.69 -4.9966,-1.7001 -0.043,-2.1184 2.3552,-2.8161 4.2324,-1.6262 1.4548,0.8973 1.547,2.5726 0.7642,3.3263 z m -0.2696,-5.8783 c -10.4644,-0.8064 -18.2496,6.3899 -14.9149,11.5561 -2.8102,3.5773 -0.5171,5.6325 -1.2863,7.6838 -2.2212,2.3062 -0.3632,7.2653 0.1933,7.2834 0.4558,6.6549 2.3644,7.5076 5.2061,11.0532 0.8538,1.0276 -1.9901,2.0327 -3.0826,3.7994 3.3439,-0.8959 5.1344,0.8118 6.9471,3.0898 19.3783,-0.9144 36.7781,-2.2835 36.1214,-28.8888 2.7876,-11.2923 -1.9357,-21.3506 -15.4602,-18.2433 -2.961,2.6781 -1.0105,6.5599 -0.6476,8.425 1.1552,5.1326 -0.1784,8.4674 -0.5506,10.8719 -1.1512,7.437 -6.5329,14.3397 -7.1181,2.6833 -0.9436,1.4631 -0.4981,1.6793 -2.0554,2.2863 -3.7141,1.3557 -3.7086,-2.4447 -2.948,-3.9778 0.4889,-0.7882 1.2254,-0.7215 1.9814,-0.6333 1.0805,0.1311 2.4913,0.5361 2.5147,0.9373 0.2908,-1.21 -1.9642,-3.4614 -1.7285,-4.5965 0.2985,-1.0779 0.4884,-0.9904 -0.4974,-0.2767 -4.6614,3.3753 -7.5795,-4.1674 -0.8348,-3.3057 -3.3228,-1.796 1.5945,-7.0549 -1.8396,-9.7474 z m 6.8995,40.6041 c -3.6752,0.1894 -4.5551,0.2225 -4.3847,-1.7299 -0.6964,-3.6032 -1.5887,-5.2739 -6.2278,-4.8962 -4.6751,0.6161 -6.1586,0.9122 -1.4525,-1.9491 2.3758,-1.0602 3.148,-1.2663 5.9646,-1.0097 2.8394,0.2586 2.6224,0.5479 4.2435,-0.433 0.9059,-0.5482 1.8951,-1.2154 2.6323,-1.3507 1.0914,-0.2001 3.0152,-0.6259 3.0152,-0.6259 1.0927,-5.595 2.7562,-8.4123 5.0453,-11.0711 3.2394,-3.7269 4.8824,-4.3789 0.9109,-4.0999 -1.4684,-0.092 -0.7086,0.6527 -1.35,-5.3789 -0.2246,-2.1126 -0.6149,-4.5619 -0.9237,-5.384 -1.0326,-2.748 -1.1708,-4.1148 2.7548,-4.3098 9.7983,-0.7507 12.0859,8.9056 10.7816,13.8395 -0.1131,0.7762 -0.5597,3.3447 -0.6562,5.383 -0.053,1.1137 0.1694,2.0566 0.1418,3.1956 -0.2237,9.2007 -2.378,11.6252 -10.4442,17.6063 -2.4331,1.8042 -6.8011,2.1749 -10.0509,2.2138 z m -8.6069,-0.496 c -4.5232,0.095 -8.8929,-2.1057 -6.7131,-3.5335 1.4089,-0.9228 6.4973,-0.5396 7.9102,0.4782 1.8234,1.3133 1.1391,3.0066 -1.1971,3.0553 z m 201.7038,-7.8121 1.7925,-3.2166 c -0.8508,-7.0143 -0.9462,-10.6937 1.5389,-18.0133 l -3.7013,-4.9118 -2.9274,5.0929 -4.6062,-0.081 z m -211.4906,1.4927 c -2.9293,-0.5938 -3.0451,-3.3015 -2.3007,-4.968 1.637,-3.6651 12.5969,-5.438 12.5969,-5.4397 0.088,1.5738 -0.1286,3.0905 1.0111,4.8613 0,0 -7.2983,1.9335 -8.842,3.3586 -1.0309,0.9518 -1.6554,2.1568 -2.4653,2.1878 z m -2.1677,-8.3381 c -1.0617,-0.015 -1.6267,-0.7925 -1.9141,-2.3776 -0.1364,-0.8494 0.1801,-1.5741 0.8628,-2.502 2.7835,-3.0611 10.603,-5.181 13.4271,-4.4027 0.1993,0.2653 -0.2817,3.4893 -0.4861,4.9234 -3.7609,-0.115 -10.0938,3.2627 -11.8897,4.3589 z m 111.476,-18.8497 c 3.7365,5.4575 12.026,4.6574 11.1367,4.2754 -0.059,4.6744 0.7308,11.0942 7.7368,11.7772 7.0661,0.5417 10.6974,-8.897 8.016,-12.8926 4.3614,1.833 10.9018,-2.7619 10.9018,-3.1935 0.5568,-0.018 5.555,-13.3925 -9.5688,-14.0812 -1.3767,-6.3139 -3.7349,-9.3677 -8.5691,-11.9653 l -0.1194,-51.5332 -1.7076,-2.339 -0.1511,54.0046 c -7.7401,0.3471 -8.6946,9.3158 -8.1206,11.3837 -3.4379,-0.1518 -6.5603,0.5482 -9.1901,2.579 l -0.9049,-8.8029 c 0,0 -1.8156,3.1055 -1.4155,4.7531 3.3678,50.6113 -14.7123,105.3615 -38.4496,140.8508 -1.2689,1.4897 -1.6559,3.2685 -2.2844,3.2816 -5.7884,3.158 -9.4451,5.283 -9.4451,5.283 -9.5456,-4.6446 -26.5894,-15.856 -26.5894,-15.856 l -0.2768,-72.1189 c 0.2645,0.7095 -31.7603,3.6173 -31.2795,2.7411 0,0 2.8061,1.1119 2.849,3.0092 l 0.8335,168.7644 14.0105,9.2663 c 0,0 11.5193,-7.6219 14.7411,-10.2265 l -0.3522,-99.3577 24.8161,14.7201 c 0,0 -0.3971,3.5141 -0.4335,4.6545 0.3968,13.5577 6.9717,18.1072 19.4865,14.085 1.6771,-0.539 2.8432,-1.011 3.664,-0.3167 5.2692,15.598 7.6398,56.5877 7.6329,56.5873 l -35.3183,60.5859 -59.9148,0.3339 -1.035,-231.4844 -2.1678,-121.3347 30.58,-22.5508 0.4463,77.7251 c 0,0 4.3814,2.1206 5.5283,2.2636 0.431,0.034 0.9877,-0.9425 0.2085,-1.4454 -1.1235,-0.7251 -3.8887,-1.7415 -3.8887,-1.7415 l -0.649,-77.0366 c 0,0 11.8879,-8.1021 17.2043,-11.4772 9.9387,-5.5099 19.7178,-10.7534 29.9773,-15.3617 10.1125,-4.3995 32.4033,-13.7868 32.4033,-13.7868 1.9357,6.4688 21.053,21.583 42.5501,10.9012 1.9673,-0.7386 4.404,-1.3812 6.0474,-2.5366 8.1909,-1.5149 10.8898,-10.3816 12.1294,-19.0037 0.043,-0.3394 -0.6486,-0.2637 -0.6723,-0.2971 -0.088,-0.1241 -1.9518,8.2739 -2.6908,9.8628 -1.5782,3.3937 -3.5675,5.4246 -4.6213,5.7447 -0.4804,0.082 -0.8991,-0.6733 -0.2472,-1.8685 1.2959,-2.3753 2.3493,-7.4266 2.6637,-9.7041 0.2811,-2.1015 0.3372,-3.7888 -0.05,-3.8613 -0.068,-0.067 -1.903,6.3621 -2.7286,8.632 -2.152,5.917 -3.5094,8.3684 -5.5826,9.6305 -2.1259,1.2943 -2.6309,1.1125 -2.2115,-0.2632 3.1636,-6.2461 4.4679,-10.9696 5.0875,-17.6222 0.095,-1.3265 -0.5678,-1.3647 -1.0918,0.8326 -1.7328,6.9839 -4.1092,16.4302 -9.7289,19.2503 -2.3979,1.0975 -3.4629,1.0447 -3.2059,0.2611 6.691,-8.5571 8.3635,-18.0605 8.2845,-21.128 -0.026,-1.0237 -0.4355,-0.8203 -1.2936,1.3957 -2.2663,8.4339 -5.6252,15.6077 -9.6122,19.1266 -1.5428,1.3617 -3.4109,1.737 -4.9754,1.9334 -4.725,0.5935 -4.8858,-1.1798 -0.7732,-3.6046 4.6844,-2.7621 10.1027,-12.8125 10.7042,-20.3581 0.2081,-2.6113 -0.7041,-2.8944 -1.3492,0.5876 -2.7784,14.9981 -15.4772,24.9136 -25.6554,20.321 -4.5794,-2.0663 -5.4095,-4.9378 -1.4233,-3.6609 8.0695,2.5848 17.0294,-3.2051 20.7238,-11.2845 3.3398,-7.3043 3.2695,-11.141 0.9208,-20.9229 -1.6014,-9.0352 -4.7229,-20.5802 -3.6931,-29.4289 1.1096,-1.7203 4.6135,0.7071 8.7515,1.2227 2.4962,0.4731 5.5454,0.5927 8.1516,-0.4171 2.272,-0.8803 3.5607,-1.1001 3.9815,0.1373 0.1357,0.3994 -1.7526,2.3465 -2.5935,3.424 -1.3441,1.7221 -0.5734,1.9968 1.321,0.1269 0.9274,-0.9153 2.9208,-3.0565 3.467,-3.1684 1.1967,-0.245 1.2452,1.1207 0.2794,4.5971 -3.3886,13.498 -2.4815,13.727 3.3305,16.4609 5.7592,2.2211 3.9373,3.3408 6.4881,5.5499 1.7975,-1.4219 -2.3476,-7.9457 -7.0373,-9.3715 -3.8364,-1.1663 -3.3688,-3.1526 -1.689,-8.4953 1.7041,-7.4779 4.6117,-17.3759 2.9295,-24.017 -3.5342,-13.9531 -17.5248,-13.6689 -28.2411,-8.0293 l -1.3071,-3.5568 c 9.0597,-3.7144 56.8133,-6.8887 72.9065,-5.016 1.2435,4.4034 1.3676,5.536 1.8714,10.7198 0,0 -9.9414,-4.5454 -14.9041,-5.3338 -6.1951,-0.9843 -15.7371,-1.0306 -18.1804,4.7466 -0.748,1.6934 0.02,3.1254 2.1582,2.1441 3.9298,-1.8035 10.6472,-3.1382 16.0734,-2.799 4.5551,0.2848 11.0487,2.1365 13.8552,3.8481 1.3338,0.8135 2.4598,2.4043 1.4146,4.4025 -0.9261,0.2078 -2.1438,-0.8282 -2.8644,-1.2028 -8.2191,-4.1993 -12.7272,-5.015 -18.0878,-3.4043 -4.0663,1.2217 -9.5448,5.6634 -8.1919,6.9233 1.3735,-0.4836 5.9299,-4.3577 9.0713,-5.2027 6.4667,-1.7395 13.3615,0.9245 20.0791,5.33 2.0733,1.8213 1.1265,3.1488 -1.4126,1.693 -10.0624,-5.1289 -14.2584,-8.5311 -23.8867,-1.3332 -2.1509,1.6148 -3.3505,1.408 -4.6139,0.4301 -4.9992,-4.5338 -4.9836,-1.988 -1.3214,2.722 0.8319,1.07 1.5858,2.5683 2.0842,4.1636 0.3684,1.1793 0.4509,2.3598 1.1177,3.1356 1.1358,1.3215 3.1802,1.9627 5.5177,3.004 3.3754,1.5035 4.4966,0.7789 2.0061,-0.4501 -4.3619,-2.1526 -6.4859,-4.4607 -1.0683,-3.2165 4.9168,2.2268 13.126,0.9803 17.7704,-2.2837 3.6465,-1.8003 5.2527,-3.7277 6.1135,0.345 1.8034,8.5003 0.046,20.0324 2.4629,34.8658 0.4608,2.8279 1.0239,4.621 0.4394,5.0078 -0.7501,0.4965 -2.6215,-1.3341 -4.9425,-4.6335 -1.0578,-1.5036 -3.1596,-4.3974 -3.1473,-3.7955 -0.08,3.1412 4.7447,9.0356 8.727,11.3581 2.1877,1.2759 3.674,7.1732 1.1709,5.8754 -1.932,-0.9524 -11.985,-9.9013 -13.8991,-13.0908 -0.8892,-1.4817 -1.6407,-0.5365 -0.7,1.2057 0.5647,1.0454 2.9286,4.1164 5.2238,6.3857 4.0725,4.0268 4.5454,3.8383 3.7633,4.6635 -1.5474,1.6327 -4.8603,-0.4712 -10.7639,-5.8808 -1.5146,-1.9355 -3.5172,-3.6832 -3.271,-2.7216 -0.604,1.5066 5.307,7.9407 8.8132,9.6646 0.6556,0.4155 0.7449,0.8542 0.684,1.6538 -0.3333,3.0391 -7.1186,-1.4237 -12.7499,-6.6341 -2.1091,-1.9518 -0.3605,1.72 2.0823,4.2149 1.9201,1.9612 5.0158,4.3999 7.1147,5.2367 2.085,0.8706 2.2151,2.7108 0.58,3.4836 -5.6449,0.2413 -11.4717,-5.5993 -14.9452,-10.191 -0.9587,-1.2612 -1.838,-2.233 -0.8406,0.1543 3.2171,7.1894 9.9081,11.2398 14.5432,12.0608 3.7652,0.6671 3.682,4.1079 0.1437,3.7185 -3.8927,-0.4282 -10.2669,-3.9855 -15.6699,-9.4913 -1.5719,-1.6017 -4.2168,-5.2375 -3.6719,-3.1037 0.012,0.5811 1.6719,2.8572 3.5873,5.051 4.4201,4.445 9.5586,8.3737 15.0071,9.5439 2.5469,0.7294 10.1068,-0.7471 10.1522,0.5805 0.02,0.98 -0.7904,1.5675 -3.1981,2.3787 -9.3443,3.1484 -23.0218,-4.9805 -30.5034,-17.4776 -0.5354,-0.8944 -1.5487,-1.2744 -1.6105,-1.0731 3.6106,10.2126 14.8328,19.47 23.7591,21.0564 6.0714,0.9862 12.1925,-0.5822 15.1029,-4.725 3.2747,-4.6615 1.9932,-10.8971 -2.9243,-10.3974 -2.5804,0.2415 -2.3752,1.724 -2.3273,1.772 0.1753,0.1757 1.6757,-0.5378 2.603,-0.3535 3.3628,0.6685 3.0109,6.8263 -1.9118,6.2188 -5.6607,-0.6986 -6.4596,-9.7379 -0.1341,-11.6384 5.8383,-1.7542 7.9775,0.9456 9.5747,4.1485 2.3395,4.6913 -0.1716,12.2545 -4.2958,15.1544 -11.5438,8.1171 -26.1432,1.3144 -34.3933,-6.735 -4.0817,-3.9824 -7.0637,-8.717 -8.9372,-13.8221 -0.4812,-1.1866 -1.5101,-1.0644 -1.0382,0.1558 11.614,30.0295 46.2958,33.5308 51.3689,10.2167 8.3952,13.3268 15.7438,14.2573 26.9914,8.4411 11.4728,-4.8057 17.1198,-8.7219 27.7319,-13.7612 l 24.0611,13.0807 c 1.4183,24.2066 0.6092,48.4874 0.513,72.7244 -0.07,0.5655 5.2146,-0.3838 14.0122,-1.7809 23.3941,-4.7283 21.3866,7.9674 24.4431,8.6061 1.6354,0.3312 1.5146,-0.3786 1.9599,44.3009 0.1292,12.9771 0.3835,35.7913 0.5721,50.7003 0.1888,14.9089 0.2377,27.3285 0.1065,27.5911 -0.1311,0.2625 -1.4456,1.4046 -2.9597,2.4911 -5.7002,4.0903 -8.9017,6.5655 -21.3762,16.2027 -2.8251,2.1823 -3.5374,2.5518 -3.5374,2.5518 -1.432,-26.844 -0.1473,-55.0342 -0.8517,-78.111 l -1.0536,-0.01 0.409,77.4899 c 2.1518,0.5713 -49.1874,30.9923 -77.3225,40.8614 -0.5274,0.185 -1.8434,-0.4084 -1.8434,-0.4084 -16.1478,-20.0391 -58.6365,-13.9723 -62.0611,10.4243 -7.0397,-14.872 -37.967,-43.77 -52.0989,-8.9369 0,0 -5.1209,-10.0063 -9.5153,-10.6665 -9.876,-1.3275 -10.9711,0.2505 -32.7088,10.9262 24.8541,-38.1824 38.5589,-78.6094 40.3134,-127.5693 z m 13.2103,9.52 c -0.5435,-1.6862 -0.7278,-3.866 -0.2611,-5.5867 0.6347,-1.3448 1.5801,-1.3262 1.5801,-1.3262 l 4.8135,4.1658 4.7088,-4.4209 c 0,0 2.8807,2.939 1.2988,7.0138 -3.0111,5.6925 -9.9071,4.6649 -12.1401,0.1542 z m -124.3693,0.672 c -3.0815,0.1971 -1.4891,-3.393 3.0698,-5.825 2.861,-1.5262 5.233,-1.9575 6.26,-1.4054 0.5627,1.6857 0.086,3.2228 -0.2651,3.9066 -1.9451,1.0107 -7.2888,2.7854 -9.0647,3.3238 z m 198.933,-6.763 c -3.4213,0.084 -6.3865,-2.3837 -6.4964,-6.7551 -0.045,-1.7811 0.8582,-3.5468 0.8582,-3.5468 l 5.7163,4.2665 4.3676,-4.7147 c 0.7446,-0.2636 3.4195,3.1147 1.5806,6.7906 -1.3369,2.6723 -3.6854,3.9019 -6.0263,3.9595 z m -82.6576,-2.007 c -4.8088,-2.2076 -5.643,-9.0158 -0.966,-11.6387 2.2228,-1.2465 5.7206,-1.9411 7.3573,0.5809 l -4.7265,5.2183 5.4264,4.6223 c 0.2121,0.2148 -4.1563,2.5647 -7.0912,1.2172 z m -115.4311,1.7898 c -0.8286,0 -1.0395,-0.3198 -1.2775,-1.1033 -0.6754,-2.2237 1.0395,-4.4614 4,-5.1692 2.736,-0.6541 2.4754,-0.9781 3.771,1.497 1.0152,1.9395 1.2864,1.8579 -0.3025,2.4715 -1.9203,0.6314 -3.9746,1.3675 -6.191,2.304 z m 136.7745,-3.3397 c 0,0 3.4128,-3.5113 4.9053,-4.9793 l -5.1357,-5.4248 c -0.2475,-0.6593 5.9231,-3.4876 9.1697,0.779 2.1077,2.77 0.9208,8.0384 -2.0711,9.8463 -3.0561,1.8467 -7.4369,0.3125 -6.8682,-0.2212 z m -7.3551,0.613 c -3.031,0.045 -5.5192,-2.4029 -5.5632,-5.4722 -0.044,-3.0693 2.3728,-5.5995 5.4038,-5.6441 3.031,-0.045 5.5297,2.4134 5.5738,5.4827 0.044,3.0692 -2.3834,5.5891 -5.4144,5.6336 z m 75.0329,-9.3532 4.9237,-5.2193 -5.3251,-5.8673 c 0,0 4.2128,-0.697 5.7092,-0.4135 7.2483,1.3738 6.5392,9.9809 0.9333,12.2573 -2.3659,0.8403 -4.125,0.559 -6.2411,-0.7572 z m 96.6429,-1.7726 c 0,0 -0.9687,-11.0567 -1.8542,-14.8327 0.5831,-4.3096 3.3351,-7.2429 4.5737,-11.6672 0.6599,-1.9686 3.1411,-4.615 3.6199,-1.8418 1.7903,3.4264 0.079,7.6619 1.5599,10.102 1.133,2.3006 0.5252,3.5918 1.0257,5.9784 1.3928,1.9733 2.053,2.8652 1.8222,4.6173 0.2935,7.8164 2.2218,6.2669 5.6482,5.6279 13.2915,-1.1593 13.2852,-8.9104 12.4668,-18.7493 1.8869,-9.2245 -1.5907,-7.042 -1.4778,-8.7017 0.1788,-2.6311 -0.2436,-6.3157 -1.026,-6.7209 -4.741,-5.5027 -4.9741,-9.3161 -11.1413,-8.3713 -10.436,-0.8257 -27.0188,0.7449 -30.6032,13.6285 -2.2353,18.1677 -2.9251,35.4251 15.3861,30.9308 z m -103.7508,1.7801 c -2.9268,0.043 -5.3323,-2.3231 -5.3748,-5.2868 -0.042,-2.9638 2.2941,-5.3996 5.2209,-5.4426 2.9267,-0.043 5.3321,2.323 5.3746,5.2868 0.042,2.9638 -2.2941,5.3995 -5.2207,5.4426 z m 99.1816,-2.8184 c -1.9726,0.024 -4.2973,-0.3958 -6.2091,-2.2517 -4.096,-3.9758 -4.2734,-7.5806 -2.4561,-22.8811 0.512,-4.3103 2.0108,-7.9135 3.9958,-9.483 3.9874,-3.1526 8.8681,-5.4002 12.8918,-6.4026 2.1225,-0.5287 3.9688,-0.5405 5.405,-0.5292 1.5508,0.012 2.4555,0.7378 2.5704,2.0541 -0.3411,3.5627 3.2514,3.9096 5.3314,3.708 3.7092,-0.149 4.088,-0.544 1.7742,1.2709 -2.6406,2.0713 -8.727,2.1012 -9.8826,0.888 -2.3734,2.4062 -4.8496,2.687 -7.8789,3.0446 0.4488,0.6673 1.5345,3.3364 0.8162,5.0504 -1.5691,2.793 -4.2086,7.7207 -6.9796,9.5687 -2.7409,3.6292 -0.4129,1.9886 1.2878,1.9266 0.9716,-0.035 0.889,0.2886 1.0465,0.9469 0.6767,2.828 1.6513,8.1139 1.6593,11.2616 0,1.5171 -1.3995,1.8036 -3.3721,1.8278 z m 17.4621,-3.9177 c -1.071,-0.9642 -1.0577,-2.31 0.068,-3.3121 1.287,-1.1459 3.8428,-0.5135 3.9056,1.6429 -0.1705,2.1759 -2.676,2.7906 -3.9734,1.6692 z m -184.9312,-7.6598 c 4.4475,-0.2245 8.109,4.5932 6.432,9.3941 -0.9178,1.2998 -1.3136,1.1131 -1.3136,1.1131 l -5.063,-4.5798 -4.8567,5.1444 c -4.0012,-4.888 -0.5676,-10.7069 4.8013,-11.0718 z m 190.3484,7.4576 c 0.3644,-1.4048 -0.1146,-2.8052 -0.1747,-3.488 0.8811,-0.6355 4.6352,-1.7466 6.6482,-2.7498 1.3988,-0.4867 2.4119,0.8441 2.2181,2.0591 -0.53,2.263 -3.8179,3.7414 -6.2061,4.4425 -0.7367,0.1829 -1.9514,0.2513 -2.4855,-0.2638 z m -0.8235,-6.4759 c -1.3536,0.1653 -0.956,-2.8204 -0.4477,-4.3471 0.5047,-1.0914 1.9961,-1.0459 3.3364,-1.1251 2.3685,-0.1398 5.3527,-2.9058 6.6346,-2.4603 0.4244,0.199 0.7282,1.3364 0.7733,2.0596 -0.2781,3.986 -6.8169,5.4479 -10.2966,5.8729 z m -7.1557,-4.1519 c 0.4522,-0.6677 1.9038,-0.9906 3.1203,-0.6525 1.9888,0.5525 2.2945,3.4441 0.5492,4.4373 -3.083,1.0326 -4.9357,-1.8962 -3.6695,-3.7848 z m -196.5318,6.5826 2.6982,-4.1607 4.1017,0.076 -6.627,-20.5918 -3.0661,8.0468 c -0.4123,3.7 -0.8965,7.392 -1.2766,11.0956 z m 87.2416,-1.736 -5.2442,-4.3315 -4.4977,4.6562 c -3.346,-7.5533 0.5101,-11.0109 4.6116,-10.9197 4.5252,0.1008 9.3493,4.4428 5.1303,10.595 z m 115.1249,-7.8088 c -1.6615,0.3198 -0.9504,-4.2277 -0.7189,-4.3583 1.0603,-0.3964 5.6341,-1.0018 7.5598,-2.6457 4.102,-3.254 5.8524,-1.2684 3.9524,2.63 -1.799,2.2667 -8.4111,4.3307 -10.7933,4.374 z m -5.2192,-0.2161 c -1.8287,0.1731 -3.1098,-1.8746 -1.9939,-3.8255 1.5149,-1.426 4.1733,-0.3805 4.1625,1.6389 0.01,1.269 -1.0262,2.1199 -2.1686,2.1866 z m 2.6957,-11.5349 c -0.2507,-1.0613 0.1161,-0.733 2.0368,-1.306 1.0583,-0.3158 2.7228,-1.0312 4.4553,-1.9169 2.5412,-1.2989 3.2542,-1.9978 4.1568,-1.8498 0.7167,0.1585 1.543,0.4721 1.7645,1.2076 0.8852,2.938 -1.4781,5.9331 -6.9831,7.9901 -1.1449,0.4277 -3.1921,0.7734 -3.8931,0.8521 -1.8687,-0.01 0.1286,-2.9106 -1.5372,-4.9771 z m -3.2523,4.42 c -2.6609,0.039 -3.1598,-3.5375 -1.1687,-4.1664 4.6612,-1.2203 4.267,4.17 1.1687,4.1664 z m 3.2817,-13.1752 c -0.7489,-0.7275 -0.8546,-1.9203 -0.016,-2.5415 1.5372,-0.768 7.4404,-0.1139 7.4801,1.5636 0.022,1.1069 -1.9513,1.4815 -3.7854,1.5177 -1.8341,0.036 -3.0799,0.042 -3.6787,-0.5398 z m -266.5088,-1.8333 4.8635,-6.588 -6.5277,-16.5454 -5.9619,20.0343 4.6832,-1.8783 z m 275.1943,-16.9994 c -1.1257,-50.9555 -0.935,-167.7215 -0.935,-167.7215 l -14.3213,-9.8578 -15.0788,10.9722 c 0.1544,36.7533 0.3002,62.1055 0.4437,96.133 l -22.0947,-12.2896 c 0,0 -0.6782,-0.9899 -0.576,-5.5874 1.5266,-12.6982 -10.5995,-20.9412 -18.6453,-15.9279 -3.1045,1.3209 -3.3571,1.5555 -4.0144,0.5629 -1.8091,-2.732 -3.848,-14.4293 -4.1889,-21.8921 -0.5138,-11.2444 -3.4359,-34.17 -4.1403,-34.3238 l 35.9626,-61.3942 h 56.925 v 228.8889 c -2.9125,-3.4753 -4.466,-5.7542 -9.3366,-7.5627 z m -208.6721,4.9128 2.698,-4.1712 h 3.2538 l -5.708,-21.3271 -6.9107,20.8538 3.808,0.4774 z m 180.0671,-170.0666 c 0,0 6.9979,-5.0855 9.2334,-6.5472 1.175,-0.4462 1.7441,-0.5293 2.0229,0.6083 0.3427,1.3981 -0.2079,4.045 -0.6953,8.4199 -0.4506,4.045 -0.448,4.2729 0.2162,10.0381 0.694,6.0214 0.7768,6.2738 0.2143,14.222 -0.6271,8.8651 -0.7482,17.4736 -0.055,22.803 0.6591,5.0665 0.6498,16.6219 0.1451,23.072 -0.618,7.897 -0.4165,14.8254 0.6046,20.5548 1.8207,10.2151 2.1217,13.7327 0.2245,21.4182 -0.7099,2.876 -1.0629,4.4057 -0.9151,9.2214 0.1643,5.3545 0.2628,7.1026 2.156,18.9597 1.0898,6.8257 1.1733,7.763 0.1527,18.5637 -0.206,2.1794 -0.2761,3.6372 -1.0963,4.3289 -0.9576,0.8076 -10.9391,1.3957 -10.9391,1.3957 z m 26.247,164.9614 -10.8715,0.1196 c 0.8391,-3.447 1.0273,-6.07 1.1133,-8.5635 l 9.6569,6.4267 z m -0.1593,-4.4052 -9.5594,-6.3196 c -0.011,-2.6667 0.186,-5.2095 -0.1967,-7.8745 l 9.6903,6.5112 z m -0.017,-10.0274 -10.2321,-7.0821 c -0.399,-2.7586 -1.232,-5.5476 -1.5519,-8.027 l 11.5994,7.9477 z m -330.8478,-2.7907 -0.5361,-203.9105 h 101.842 l 32.2799,62.7855 c 0,0 -0.3285,5.7765 -1.1268,8.7242 -0.9649,3.5633 -1.2226,4.3398 -2.5762,4.5084 -3.6235,-1.9001 -7.6619,0.6269 -8.8981,3.4077 -1.5222,3.4244 1.5601,8.6073 6.2908,9.7302 2.0862,0.5027 4.365,-0.4468 6.6694,-2.2266 1.3384,-1.1314 1.6366,-1.2586 1.9035,-0.2746 0.6011,2.2162 -1.343,8.2415 -4.818,13.4135 -1.9328,2.8766 -2.4556,3.7032 -3.081,2.609 -2.5293,-4.4254 -7.954,-3.509 -10.012,-1.0088 -2.4904,3.0255 -1.9701,9.924 3.6716,11.7522 11.0383,3.5768 16.1054,-7.6393 15.9673,-7.6115 l 2.3631,13.4465 c -13.2881,3.2968 -20.9585,4.4622 -25.1787,8.5414 -3.3213,3.2104 -4.9044,8.7626 -4.4943,13.6995 0,0 -36.9133,15.183 -54.1873,24.6106 -29.7437,16.2331 -56.0791,37.8033 -56.0791,37.8033 z m 56.2069,-1.4744 2.7294,-4.8621 h 3.8734 l -7.8347,-20.5322 -5.9831,21.4362 3.7343,-0.3373 z m 274.1605,-5.8938 -11.7225,-8.185 c -0.2562,-2.6573 -0.5929,-5.0241 -0.2414,-8.0351 l 12.3403,8.2652 z m -228.709,2.5163 2.9186,-3.9236 3.362,0.3586 -6.5923,-20.3309 c -2.0049,5.8762 -3.8296,13.8549 -5.8111,19.7392 l 3.1173,-0.1503 z m 228.9152,-12.9687 -12.1294,-8.1354 c -0.046,-2.5122 -0.1639,-4.879 0.6998,-6.6539 l 11.448,7.4359 z m -251.6459,-1.1733 2.9442,-5.7334 3.9225,0.5386 -7.0141,-19.4879 -7.6663,19.3063 4.7477,-0.2581 z m 251.6237,-8.3028 -10.517,-7.8202 c -0.151,-0.1124 0.5876,-3.5676 0.4198,-5.5243 l 10.0056,6.2437 z m -0.2834,-9.6711 -9.8072,-6.8219 c -0.022,-2.5863 -0.1963,-5.0185 -0.5994,-7.2188 l 10.6464,6.9978 z m 0.1686,-9.8555 -11.3374,-8.1722 -0.5996,-6.5679 12.0109,7.6474 z m -93.3325,-2.738 c -10.8805,-4.1074 -21.0824,-25.0584 -20.7691,-52.1831 0.2174,-18.8311 -5.4011,-45.71 -5.2965,-45.3992 0,0 3.1556,-0.4279 4.0487,0.2812 4.098,13.8266 5.4636,28.4374 6.1103,40.4878 0.5308,10.0488 1.1016,19.9108 1.7303,22.2135 1.7883,8.1042 3.7251,17.5589 8.8401,23.7185 3.9859,4.6445 8.5297,5.4532 11.2453,0.2376 2.2243,-4.2722 -2.4588,-11.3418 -6.3472,-8.9918 -0.9396,0.5348 -1.5008,1.4404 -0.2688,1.4146 4.0357,-0.6058 6.7464,5.0471 4.1925,7.7412 -4.4977,4.7448 -12.3669,-5.8267 -8.7166,-11.6449 1.6078,-2.5162 5.813,-2.9603 9.1785,-2.0326 7.4844,3.6641 9.3619,12.6353 6.8569,18.5464 -1.9104,4.508 -6.1039,7.2002 -10.8044,5.6108 z m 13.162,-2.6935 c -0.8839,-0.042 -0.2815,-1.6924 0.5352,-4.2675 1.9253,-6.1721 -1.6855,-15.7598 -6.6858,-17.6702 -1.5004,-1.034 -1.4194,-1.4263 -0.4182,-1.9961 3.2646,-1.8576 9.1888,3.7132 10.7527,9.9186 1.1316,4.4897 0.8527,9.7886 -1.2787,12.0375 -1.1654,1.2296 -2.0911,1.8763 -2.7193,1.9645 -0.065,0.01 -0.1269,0.016 -0.1859,0.013 z m 80.2883,-3.6388 -12.1072,-8.0119 c -0.563,-2.5004 -0.3156,-5.165 0.063,-7.8562 l 12.1187,8.5507 z m -73.0569,0.1017 c -0.8979,0.029 -0.5632,-1.4946 -0.3133,-4.2752 0.5789,-6.4389 -1.3921,-11.1208 -5.8833,-15.0081 -1.8946,-1.6397 -2.414,-2.1538 -1.5985,-3.0142 1.1575,-1.2214 4.476,0.4153 7.0789,3.1627 4.7654,5.03 6.3444,14.5256 2.631,17.9665 -0.815,0.7552 -1.4445,1.1533 -1.9148,1.1683 z m -134.6598,-1.1171 c -5.1734,0.2035 -9.5403,-1.8282 -10.0207,-8.2294 -0.7035,-9.3722 7.9213,-14.4975 13.9376,-9.1166 5.3921,5.402 -0.073,13.8586 -6.3237,9.8965 -3.1425,-2.0073 0.6078,-6.583 3.1503,-4.2175 1.1467,1.0669 1.6501,0.4038 0.8351,-0.8281 -2.4604,-3.7192 -7.3052,-0.6263 -6.9583,2.6494 0.6818,6.4404 8.4974,6.3574 11.4404,3.8354 4.0272,-3.451 7.5748,-8.5335 10.221,-12.2368 2.1672,-3.213 2.6321,-3.1274 2.3121,0.8421 -0.8458,10.4899 -10.5232,17.0873 -18.5938,17.405 z m 140.8842,-2.0496 c -0.8239,0.03 -0.4968,-1.1662 -0.5597,-4.2503 -0.3323,-7.9178 -3.6286,-12.8473 -7.8096,-15.6061 -1.4009,-1.5669 0.3923,-2.6776 3.0289,-1.9196 6.0066,1.8732 12.139,14.9398 7.0479,20.5585 -0.7144,0.7885 -1.2759,1.2016 -1.7075,1.2175 z m 5.8401,-2.5962 c -0.8322,0.054 -0.3622,-1.6961 -0.4406,-4.9993 -0.1652,-6.9518 -2.2893,-10.2903 -7.3946,-14.5332 -1.6635,-1.3825 -1.8705,-1.2273 -1.2135,-1.9934 1.7485,-2.0391 7.6718,0.8475 10.1974,5.0111 3.0057,4.9552 3.4475,12.4299 0.6511,15.2541 -0.782,0.7898 -1.364,1.2327 -1.7998,1.2607 z m 5.8086,-3.3488 c -0.6893,0 -0.3047,-1.2596 -0.4108,-4.2616 -0.2575,-7.2794 -1.8991,-10.8823 -6.4609,-14.2497 -2.8663,-2.1157 -3.5627,-1.4814 -2.6863,-2.3183 1.5351,-1.4662 5.7345,-0.2068 8.8847,2.4856 4.7219,4.036 6.0473,13.9917 2.2091,17.4009 -0.6844,0.608 -1.1748,0.9449 -1.5358,0.9431 z m 54.9778,-1.0283 -11.6341,-8.1652 0.3289,-6.8942 11.5748,7.9325 z m -203.4125,-12.9285 c 4.7372,0.9822 6.5284,4.4432 5.9526,8.3646 -0.1923,1.3103 -0.9486,2.0594 -1.7602,0.3478 -0.6969,-2.7181 -2.4876,-6.4861 -4.9361,-7.218 -0.9858,-0.2946 -0.1623,-1.6822 0.7437,-1.4944 z m 101.8516,8.1398 c -5.3412,-13.6136 -5.246,-28.491 -6.1316,-42.5471 -1.1773,-18.6838 -4.4414,-31.267 -5.5078,-33.3879 0,0 5.2157,-0.061 5.4796,0.7041 0,0 4.9217,24.7772 4.1803,37.0297 -0.053,13.7114 2.5828,25.7642 4.1937,31.1803 1.7024,4.7991 1.7764,1.6288 -2.2142,7.0209 z m 101.6244,-5.3166 -11.1918,-7.4083 c 0.1582,-2.5355 0.1808,-5.0709 0.1491,-7.6063 l 10.971,7.8612 z m -150.5,0.634 c -0.01,-0.4125 -1.618,-0.7598 -4.1421,-0.1422 -2.8017,0.6856 -5.5933,0.5643 -7.7454,-0.034 -2.2891,-0.6365 -2.5408,0.1109 -0.4708,1.0258 1.0094,0.4461 2.6152,1.4615 5.0204,1.4181 2.4049,-0.043 7.3563,-1.3692 7.3379,-2.2673 z m -45.3365,0.2859 c -0.2729,-0.5085 -1.1249,-1.6519 -1.8855,-2.5454 -1.44,-1.6919 -1.8452,-1.7033 -1.1901,-2.3946 1.5088,-1.5919 4.6788,0.7158 5.0188,3.6586 0.2955,2.1492 -0.7634,3.5068 -1.9432,1.2814 z m 100.216,-0.5788 c -5.2264,-7.5431 -5.9978,-25.2345 -6.1049,-37.8098 -0.096,-11.3246 -3.8804,-32.073 -4.1857,-31.9839 1.0768,-0.6423 2.5255,-0.4173 3.8854,0.1137 1.3439,1.7731 2.1677,6.7432 3.7286,20.2013 0.4026,3.4722 1.1922,14.5178 1.3701,23.4111 0.1569,7.846 4.4852,24.8263 4.4852,24.8263 0,0 -1.6806,1.21 -3.1787,1.2413 z m 5.8184,-1.8864 c -4.7644,-10.7641 -5.5392,-21.4523 -5.7535,-34.422 -0.2027,-12.2681 -2.8936,-26.6404 -3.9115,-32.9825 1.6084,-0.169 3.3056,-0.3043 3.9799,0.4288 0.429,0.5948 0.769,1.5266 0.9795,2.7282 2.1673,10.6106 2.6849,22.1475 3.3068,31.9058 0.9318,15.123 1.1714,18.8658 3.289,26.405 1.2011,4.2762 1.6225,4.1867 0.7165,5.0093 -0.6893,0.6257 -2.0059,0.9395 -2.6067,0.9274 z m -53.5607,-2.4758 c -0.1314,-5.0095 -0.7678,-2.9683 -2.5143,-2.1699 -1.3157,0.1133 -2.3903,-0.6149 -4.8358,-1.5239 -3.114,-1.1575 -2.8332,-1.546 -5.0219,-0.4588 -1.3499,0.6706 -2.4263,0.9022 -3.0719,0.3711 -2.5591,-2.1049 -5.8619,-0.9196 -7.7201,0.7855 -1.4502,0.7667 -3.0337,0.3487 -4.2614,0.2346 -1.7709,-0.1647 -1.3097,0.9783 -1.528,3.2438 -0.1938,2.0116 0.5647,2.1879 2.6194,1.5096 2.1026,-0.6942 4.1902,-0.7936 6.015,-0.2296 4.6668,1.4423 8.0823,0.5056 10.3962,0.1372 5.4639,-0.8697 5.7552,-0.3116 6.994,0.481 0.9239,0.5912 2.4484,1.6808 2.9756,1.6481 0.5271,-0.033 0.3523,-1.8463 -0.047,-4.0286 z m -48.4744,2.3014 c -0.5197,0.2691 -0.7592,-0.4464 -1.4829,-1.4008 -1.2101,-1.5958 -1.5631,-2.3477 -0.5492,-2.4963 2.6834,-0.3933 3.3506,-0.1092 3.2563,1.5794 -0.075,1.3465 -0.3674,1.8742 -1.2242,2.3177 z m 107.6503,-2.3767 c -3.9392,-4.0187 -4.9385,-26.561 -5.3865,-31.4142 -1.42,-26.297 -3.8851,-30.0747 -2.6184,-32.0484 1.4908,0.025 2.011,-0.5336 2.9844,0.7862 3.3713,9.6329 3.1757,19.5324 3.7211,29.5818 0.7705,13.3097 2.0756,20.5189 3.9248,27.1149 1.2296,4.3855 1.2147,4.4583 -1.0033,5.663 -0.3935,0.2137 -1.268,0.3292 -1.6221,0.3167 z m 5.306,-3.1692 c -1.3867,-3.1947 -4.174,-17.7121 -4.5523,-30.246 -0.3004,-9.9518 -2.648,-29.4101 -3.0826,-29.5163 1.433,-0.1318 3.1531,0.1629 3.8492,1.2622 4.2968,19.1832 2.9276,37.7797 7.8948,57.07 -0.2958,0.9351 -1.8671,2.4774 -4.1091,1.4301 z m 78.7198,-2.3656 -11.6069,-8.4271 -0.2478,-7.1926 11.8457,8.5112 z m -172.5189,0.9072 c 6.5529,-2.5753 8.2493,-4.6885 7.2184,-6.5455 -0.8684,-1.5643 -3.4756,-1.0152 -10.4562,1.9344 -5.2171,2.2044 -6.8539,1.2422 -7.913,-2.0853 0.052,-4.9143 4.7588,-5.486 7.4149,-4.8105 1.1421,0.044 0.9722,-0.063 -0.2445,-1.6024 -5.4017,-4.2924 -12.0288,4.1002 -8.7263,9.4219 2.5848,4.8613 7.0569,6.2453 12.7067,3.6874 z m 41.1354,-1.9941 c 5.4066,-4.2967 3.475,-12.0374 -1.0246,-13.1991 -1.2524,-0.6441 -3.1186,-0.3403 -3.8506,0.1508 -0.6751,0.4529 -0.6691,1.1899 0.7124,1.4226 4.1774,0.7032 6.5501,3.8056 4.531,6.9517 -1.9594,3.0531 -5.5894,2.4668 -12.5686,-0.5787 -6.0342,-2.633 -8.6798,-1.8198 -9.3907,1.3409 -0.3138,1.3958 0.069,2.7041 2.9636,2.8128 8.0514,0.3022 13.39,5.2615 18.6275,1.099 z m -72.3671,-11.8502 c 0.3589,2.2281 3.9358,-0.058 6.3061,-4.0055 2.3317,-3.8836 2.5737,-4.439 3.0483,-0.4065 0.7077,6.0133 -5.4559,10.7166 -9.3011,10.8673 -4.6305,0.5406 -7.6722,-2.0821 -7.7906,-5.1043 -0.2331,-5.9494 6.7792,-6.0087 7.7373,-1.351 z m 204.0084,3.5511 -12.2923,-8.5468 c 0,0 -0.4152,-4.5817 -0.1507,-7.0434 l 12.3445,7.9979 z m -147.5934,-2.8709 c 5.3457,-3.6712 2.2039,-10.3709 -1.5354,-11.1249 -3.9421,-0.7949 -4.2192,1.991 -0.3005,2.8129 2.0952,0.8332 2.6315,2.853 1.8146,4.4126 -1.8691,3.0965 -5.3253,1.0923 -7.3356,0.127 -4.4608,-2.1491 -6.7723,-2.9348 -8.1807,-1.4486 -2.5032,2.6411 -0.2707,7.348 3.0356,5.6872 0.8923,-0.4481 1.5634,-0.8735 3.461,-0.3972 2.8802,0.6106 6.3369,1.2617 9.041,-0.069 z m 147.489,-7.2912 -12.0917,-8.3814 0.3689,-7.4109 11.3526,8.4333 z m -0.2494,-10.1873 -11.3726,-8.2065 c 0.168,-3.1317 0.09,-4.3784 -0.033,-6.3739 l 11.5009,7.5188 z m -201.1126,-1.5789 c -9.1203,-0.9026 -6.0974,-11.51 0.2701,-8.6465 1.6985,1.2934 2.2097,1.1891 4.0965,-3.4642 2.4132,-5.9516 3.0021,-5.4678 2.6705,1.4087 -0.2428,6.7326 -3.2975,10.6497 -7.0371,10.702 z m 71.8525,-1.6148 c -0.2153,-0.01 -0.3896,-0.042 -0.4976,-0.1286 -0.6158,-0.6999 1.2334,-3.4689 2.8013,-5.0936 1.1562,-0.768 3.9649,1.3058 3.2829,2.3169 -0.7966,0.9842 -4.1165,2.7545 -5.5866,2.9053 z m -12.1684,-5.4629 1.6294,-0.2366 c 2.4617,5.5521 7.5757,4.28 9.1545,-0.8752 l 2.2478,0.2589 c -2.2705,6.321 -10.368,10.1981 -13.0317,0.8529 z m -45.9177,-1.268 2.7578,-0.1673 c 2.4747,6.0242 5.9792,6.9242 8.9493,0.9732 l 2.1368,0.6249 c -3.6763,7.606 -9.8244,8.2165 -13.8439,-1.4308 z m 13.7898,6.871 c -1.4112,0.087 -1.2288,-0.5719 0.2402,-2.6053 1.2771,-1.7679 1.5875,-2.0456 2.8708,-1.0808 2.1047,1.5823 -1.3928,3.5688 -3.111,3.6861 z m -13.0699,-0.1775 c -0.2698,-0.016 -0.5843,-0.043 -0.9418,-0.1325 -2.8432,-0.7117 -4.1478,-2.0751 -2.7533,-3.8251 0.8691,-1.0909 1.7159,-1.5186 2.2883,-0.7881 1.9181,3.2029 2.9809,4.8416 1.4068,4.7457 z m 42.9517,-1.8959 c -0.2976,-1.1922 0.6347,-2.0393 1.6735,-1.0479 0.4231,0.4039 0.7908,1.0937 0.7385,1.6005 -0.6508,0.62 -2.2055,0.1052 -2.412,-0.5526 z m 143.7903,-4.0958 -11.693,-8.5036 c -0.3841,-2.9954 -0.463,-5.2703 -0.445,-7.316 l 12.0372,8.0765 z m -170.4418,-2.5767 c -6.7351,-4.6729 -14.6329,-4.6103 -19.573,-0.5061 -1.1042,0.9172 -2.0677,0.9567 -2.0858,0.075 0.7033,-3.2758 9.2923,-7.477 16.0008,-5.0959 3.6854,1.308 6.7133,2.6042 9.1314,6.09 1.4375,2.2701 -1.5201,0.8057 -3.4734,-0.563 z m 2.8506,-2.2773 c -9.8441,-8.5989 -17.6706,-6.2107 -23.6019,-1.8747 -0.8756,0.2217 -0.8901,-0.5765 -1.0852,-2.0612 -0.25,-1.902 1.3097,-2.8413 5.5745,-4.1344 8.2455,-2.5 17.9195,0.238 19.662,5.8373 0.2038,1.101 0.6222,2.5306 -0.5494,2.233 z m 167.6336,-5.1505 -11.8551,-8.2344 0.3776,-6.2927 11.5478,7.9051 z m -0.1899,-9.6411 -11.1907,-7.6808 0.036,-5.2088 10.886,7.852 z m -81.2844,-2.4445 c -47.7433,-10.9372 -81.5795,-5.7432 -114.7854,0.182 l -29.4189,-58.4242 177.281,-0.2405 c -11.5773,18.9874 -21.2092,39.7484 -33.0767,58.4827 z" />
    <path
       inkscape:connector-curvature="0"
       style="fill:#000000"
       id="path3442-2-7-0"
       d="m 7482.5519,2195.0657 c -5.1095,-8.8893 -9.1386,-18.0726 -13.7367,-27.166 l -0.7365,-0.4785 -1.1014,-2.1037 -0.1226,-1.0229 -2.7265,-4.4158 0.017,-0.9482 -11.5659,-21.7846 c -9.5396,3.6061 -87.8996,10.0988 -116.914,-0.5229 l -4.2258,7.2524 -1.0111,0.01 -7.452,13.2376 0.1187,1.1135 -2.5079,2.8954 -0.3641,1.3188 -8.2228,13.0305 -0.029,2.1006 -10.2853,17.3611 z m -177.4263,-2.4996 c 0,0 5.364,-10.4424 8.1282,-14.6629 2.2368,1.7865 8.7217,0.5736 8.3348,-6.3484 10.5715,4.055 13.1207,-8.7138 4.9471,-11.5882 4.1945,-3.7082 8.2031,0.4859 11.3832,3.3299 3.1106,-0.7802 9.5685,-3.0945 13.2255,3.7161 0,0 -1.5286,-0.8358 -3.054,-1.7435 -8.6471,-2.6619 -9.3443,9.1519 -2.9125,11.0862 0.8098,0.2156 2.3342,0.3033 2.3342,0.3033 -2.162,9.0849 11.7179,12.2564 11.9805,1.3386 0,0 1.6501,0.273 2.9022,0.042 7.3579,-1.358 5.6721,-12.3441 -1.8487,-11.8182 -1.0364,0.072 -1.9624,-0.115 -1.9624,-0.115 0.1227,-1.7595 9.2245,-5.1215 15.7814,0.9307 3.1095,-2.3981 8.0316,-5.4042 14.449,0.5752 -4.2204,0.174 -8.2674,1.39 -8.2212,6.2334 0.03,3.1536 2.8307,5.9684 6.8682,6.1183 0.229,3.5234 2.8202,6.8852 6.1866,7.1432 4.1085,-0.2428 6.2095,-3.5989 6.238,-7.1432 3.4937,-0.3654 6.7623,-3.4833 6.011,-7.0595 -1.0248,-4.879 -4.7374,-5.4792 -8.9751,-4.5496 5.1546,-8.3897 13.5464,-4.0135 16.1325,-1.3387 3.0812,-2.9105 8.4528,-6.8513 15.0687,-1.4642 -3.5259,0.6109 -7.4472,2.7051 -6.7856,7.6871 0.5214,3.9262 4.8738,5.0918 6.7649,4.8842 0,2.5941 1.9394,6.8741 6.5068,6.432 4.9836,-0.4824 4.6857,-6.8629 4.6269,-6.9132 4.1156,0.3436 7.1022,-4.5579 5.9284,-7.687 -1.4285,-3.8079 -4.4195,-4.9918 -9.915,-3.9638 6.4118,-6.0925 10.4843,-3.7277 13.9842,-2.4473 3.0978,-3.2873 7.234,-4.3475 11.4745,-1.4329 -9.4854,-0.4576 -7.9765,16.5213 3.274,10.3645 8.0012,9.5319 7.8563,5.2963 15.0274,19.317 z m 88.3981,-16.7337 c -0.4587,0.019 -0.9465,-0.077 -1.4252,-0.3242 -1.4836,-0.7644 -1.7617,-2.0982 -0.8573,-4.0685 0.3179,-0.692 0.777,-1.4858 0.7023,-2.2172 -10.4451,-19.5047 -33.4748,-10.7877 -35.6422,-1.7257 -0.1375,0.5747 0.1261,1.2039 0.4234,1.8199 0.8852,1.4908 0.7683,2.7117 -0.3821,3.7336 -2.4509,2.177 -5.9669,-0.3924 -4.5444,-3.3258 0.3755,-0.7739 0.7708,-1.6216 0.4855,-2.6565 -5.9131,-13.5934 -17.6859,-14.6147 -27.5658,-9.2349 4.5514,-8.2507 22.1924,-13.3095 29.6003,6.5575 11.8235,-16.1852 30.5863,-15.8796 39.1022,2.395 7.6591,-18.6922 30.7645,-19.1346 39.1745,-3.6081 7.655,-17.7622 25.4084,-13.7324 30.4368,-2.6148 -16.4917,-12.0846 -27.3583,0.5308 -29.3111,5.9092 0,0 0.3832,0.6279 0.9089,1.1504 2.1102,2.0971 2.0522,4.564 -0.1343,5.5431 -2.801,1.2542 -5.4244,-1.4687 -3.9866,-4.1416 0.4027,-0.7487 0.7601,-0.9128 0.4957,-1.5583 -5.1325,-12.112 -30.4086,-15.6312 -35.5286,1.3595 -0.1735,0.9708 -0.074,1.868 0.3615,2.6043 1.2013,2.0293 -0.3257,4.3193 -2.3135,4.4031 z m 73.7839,-6.8609 c -3.9869,-0.2292 -2.8748,-3.7004 -2.076,-3.9638 z m -148.0429,-2.165 c -0.027,-0.065 2.4581,-4.4972 2.4581,-4.4972 1.3161,2.1279 0.9745,4.777 -2.4581,4.4972 z m 13.4782,-22.3918 c 0,0 2.5458,-5.702 3.3876,-6.1811 47.2237,12.2492 113.1142,1.5986 114.7347,0.4184 l 2.9022,5.5326 c -41.4062,8.3766 -82.6904,6.5874 -121.0245,0.2301 z m 79.7741,-84.7356 c 4.5591,-17.8074 15.5969,-19.6193 28.929,-21.7852 16.5126,-2.6827 27.2738,3.4091 32.3062,12.7176 0,0 23.6161,-9.0361 32.234,-14.2865 -17.9182,-8.3125 -41.5914,-26.7185 -55.0486,-47.6179 -4.7944,-6.3727 -4.5523,-4.9308 -4.5444,-18.9092 0.019,-30.3131 -0.052,-41.5834 -0.052,-41.5834 -7.3929,-1.1216 -7.7978,-6.2695 -7.3949,-12.0516 -5.9338,2.6534 -11.6434,-0.5936 -11.618,-6.2636 0.047,-10.4218 10.1589,-7.5903 12.2591,-6.4418 -3.289,-9.186 0.5715,-12.9895 4.5124,-13.4406 4.8586,-0.5562 10.4318,1.8091 8.8073,12.3226 5.2965,-2.0838 12.0033,1.7026 12.9336,8.0327 l 0.2582,10.72 c -13.1005,24.9591 3.3451,45.2533 18.7867,51.9269 0,0 -4.3686,9.1462 -10.0182,11.7137 -0.5747,0.1755 3.4257,6.1161 10.1526,4.8214 3.0957,-0.065 2.3754,-0.043 5.2879,3.786 5.7572,7.5697 8.4677,8.0884 14.0772,-0.01 2.4692,-3.5651 3.0594,-3.6622 5.98,-3.7233 3.2176,-0.067 8.1549,-2.407 9.2126,-4.4972 0.2422,-0.4781 -1.0195,-0.9665 -2.6957,-2.9493 -2.4116,-2.8529 -6.133,-6.7719 -5.5461,-10.7619 12.7165,-5.2386 33.8104,-28.2261 11.6294,-57.6583 l 16.0396,-0.2092 0.7642,104.7743 11.1543,-6.2856 -0.4956,-82.0687 3.181,1.0669 c -0.2443,26.1775 0.1456,52.3375 0.9604,78.5022 l 29.4145,-21.7016 -1.3116,-123.0559 -3.1295,-0.6693 c -2.3212,-16.7668 -35.1215,-5.0404 -37.0366,-6.4948 l -0.3924,-68.3784 1.4356,-3.3885 -26.0991,-14.4434 -23.9405,12.5712 c 0,0 -3.2313,0.5887 -4.4411,1.2342 -9.927,5.2965 -17.325,4.1084 -22.7217,-3.6606 -3.3295,-4.7928 -3.8937,-5.5012 -3.8937,-5.5012 -2.0181,13.8283 -14.1273,18.9247 -25.8719,15.3114 -8.6386,-2.6576 -20.4419,-11.3739 -24.0542,-22.0153 0,0 -0.6494,-1.6014 -1.2909,-2.3219 l -0.4957,-0.2196 c 0.031,0.2772 0.5701,1.6036 0.7745,2.2486 12.1137,28.171 46.2507,32.4915 51.5165,9.4755 l 4.8336,6.8608 -25.4175,15.7821 -34.7334,-23.1449 c 0,0 1.6326,-8.1361 1.8178,-11.6509 l -0.599,-0.2824 c -0.24,4.2566 -1.4983,9.1219 -3.4909,12.7281 -0.8222,1.4867 -1.7745,2.6966 -2.8402,3.5978 -2.0744,1.22 -3.9984,1.0949 -6.1039,3.0958 l 5.0711,3.8383 0.1135,12.3202 -10.1937,-14.4538 c -3.2052,0.7507 -15.6892,4.5229 -23.0937,0.3452 -0.8361,-0.262 -11.6954,2.8726 -18.4562,-12.4667 l -32.5542,13.6903 c 0,0 -2.0754,1.1835 -2.0966,1.4955 32.461,12.1293 65.2364,55.0746 62.0822,55.7653 0,0 0.096,4.4066 -0.155,15.2173 -0.2627,12.0504 -0.1197,24.3517 -0.3202,36.4428 11.0473,3.5715 8.301,12.5871 8.301,12.5871 6.6405,-1.4751 7.6993,-0.1692 9.3808,1.0145 l 1.1463,11.4103 c -3.9821,3.4309 -6.3714,3.7504 -11.2989,2.6565 0,0 2.3891,4.9574 0.2169,9.0362 -1.829,3.2262 -6.6985,5.2625 -10.5862,2.9912 -5.0254,-3.4668 -3.4234,-10.7303 -2.706,-11.745 -5.2232,2.3691 -11.6089,-0.2712 -13.1787,-5.5012 -0.7821,15.4656 -2.1096,32.7794 -5.1743,46.2689 -5.6512,24.3467 -14.9029,49.8437 -26.4916,69.8947 -1.8955,3.3496 -4.3159,6.7053 -6.2692,9.8416 -1.8127,2.7932 -2.675,4.6018 -2.675,4.6018 0,0 2.4786,-1.3821 5.1022,-2.1232 3.7726,-1.0358 6.6132,-2.022 7.0438,-2.4577 2.7594,-2.352 6.3797,-4.0949 9.3364,-5.3966 10.4262,-4.1086 17.4352,2.0187 21.7639,11.3766 2.4097,-11.8847 13.1657,-21.941 29.0286,-15.6917 8.9626,4.8165 11.7803,7.8962 20.1616,20.4631 0.7039,1.2847 2.52,2.7611 2.52,2.7611 z m -0.3454,-1.9425 c -5.9314,-11.8739 -14.8102,-20.2869 -23.4412,-23.6499 -15.41,-5.1151 -25.5753,4.875 -28.4414,14.0533 l -2.9739,-5.0991 23.3323,-16.7742 35.2073,22.6642 c -0.5888,0.5464 -3.7372,8.5319 -3.6831,8.8057 z m -105.9512,-0.8186 10.452,-6.2333 c 0,0 6.9424,-11.3432 9.2746,-15.6147 12.1937,-21.8071 21.3468,-45.5318 26.1198,-69.0686 1.9285,-8.6188 3.9757,-24.3615 4.6579,-31.9301 1.0882,-12.0733 1.0363,-17.0305 0.723,-28.1022 l -0.8159,-0.8995 c 0,0 1.281,-2.2761 2.1998,-4.1939 2.4962,-5.212 3.106,-8.1596 2.9539,-14.2028 -0.348,-13.9058 -8.6965,-27.2167 -20.491,-32.6413 -0.6646,-0.3056 -1.5492,-0.7007 -1.5492,-0.7007 0,0 2.0217,-5.5355 5.6908,-9.4337 2.4476,-2.5999 2.9722,-2.7269 2.1069,-4.0056 -1.2034,-1.7793 -5.0887,-3.3244 -9.9149,-3.2526 -1.7081,0.025 -1.6976,0.03 -4.8542,-3.4513 -6.1626,-6.7962 -8.0153,-6.6567 -13.6228,1.0458 -1.6668,2.2896 -2.6155,2.8381 -5.0504,2.897 -3.5819,0.087 -10.1192,3.0138 -10.0906,4.3823 4.4102,1.9774 9.5191,12.1707 8.7066,12.2783 -24.1148,12.9205 -29.2248,39.7016 -11.612,59.3944 l -16.8212,0.2719 -0.6197,-106.8346 c -3.2936,2.2137 -10.7412,6.9759 -10.7412,6.9759 l 0.2463,83.1343 c -1.1567,-0.2222 -2.3352,-1.0612 -4.5841,-1.4317 l -0.661,-79.1614 c 0,0 -21.6131,15.4267 -31.8932,23.4798 l 0.6301,121.142 h 2.458 l -0.3924,-121.0792 28.5572,-21.116 0.1858,75.2497 c 0,0 -2.2559,0.3408 -3.0984,0.4601 -8.3582,1.1843 -12.2298,11.9768 -6.6822,19.0243 1.9692,2.5015 0.5719,2.3244 -3.6149,3.1375 -7.4253,0.6627 -11.5371,6.3458 -9.3779,10.3959 0.9263,1.7373 -0.2794,1.5497 -1.0638,3.2003 -0.5144,1.2982 -0.4177,2.9082 -0.1962,4.1835 0.2908,1.6735 -0.387,2.4145 -0.8056,3.4827 -0.6558,1.6732 -0.02,3.5637 1.0741,5.1352 1.1543,1.6584 0.8359,3.4387 0.8469,4.5389 0.05,2.4604 0.929,2.8117 3.5013,5.1876 1.9459,1.7973 0.3841,2.1894 -2.4788,3.6814 -4.5042,2.3473 -4.8144,10.6543 1.1773,14.1923 3.203,1.8911 9.0292,1.7369 21.6581,-0.2824 4.7879,-0.7656 10.4107,-1.276 10.4107,-1.276 0,0 0.042,47.3636 0.3718,71.7774 z m 0,-1.6733 c 0,0 -25.6407,-15.1894 -25.4382,-15.6147 8.6112,-11.9429 40.7294,-59.5303 40.9612,-117.0736 23.5527,2.9929 33.1962,-15.654 34.3409,-15.5833 3.0954,70.4347 -25.1342,120.828 -39.5978,142.216 z m 16.1737,-9.2664 0.083,-1.7256 5.0813,-7.6871 0.1343,7.6871 z m 7.8493,-2.6774 -0.1858,-12.3829 10.4108,-8.0531 0.6092,12.9163 z m 96.4954,-2.8342 -5.3499,-3.7442 0.1858,-12.2888 8.056,14.8407 z m -146.4523,-4.1417 -0.041,-8.8898 c 20.5261,-29.318 31.2964,-62.8048 34.5887,-105.2134 l 4.9989,0.1673 c -1.3227,42.1705 -15.3428,80.6473 -39.5463,113.9359 z m 139.0161,-0.9099 -12.6622,-8.3772 0.5474,-14.0146 11.4951,7.4674 1.0741,2.8657 z m -76.655,-0.5961 0.051,-13.0313 9.7806,-7.3525 0.4545,12.9373 z m 118.5458,-3.4095 c -1.4509,-0.018 -2.6099,-1.0876 -2.8816,-3.1167 -1.0739,-8.6611 -7.582,-6.1612 -9.13,-8.7643 -0.5855,-0.8881 0.8023,-1.6597 5.2569,-1.2968 8.1675,0.6186 14.1208,7.3078 9.946,11.7136 -1.073,0.9983 -2.1987,1.4764 -3.1913,1.4642 z m -56.443,-5.5849 -10.8136,-6.9759 0.031,-14.391 10.5965,6.5471 z m -49.3374,-0.042 -0.8366,-12.7281 11.8361,-7.9695 0.4234,12.6444 z m -22.5256,-0.052 6.796,-14.6525 39.6495,-28.8867 32.9052,21.5762 6.104,14.14 -38.3896,-25.3621 z m 106.9268,-5.815 c -10.5365,0.1308 -18.6222,-11.1936 -21.3895,-21.1159 -2.012,-6.5609 -2.3179,-8.9221 -2.5303,-19.338 -0.2172,-10.6103 -0.546,-12.4422 -2.5098,-13.9412 -1.2099,-0.9232 -1.5615,-0.6741 -1.7145,1.2026 -0.3413,4.1692 -5.2633,1.6002 -5.3499,-2.7924 -0.095,-4.8788 5.2088,-6.4464 9.13,-2.6983 2.0882,1.9956 2.1152,1.9764 2.7679,-1.9453 0.435,-2.6269 3.4583,-19.0733 -4.2655,-23.1658 -1.4542,-0.1394 -1.8027,1.0416 -0.7229,2.4159 2.1674,2.757 -2.1617,5.9385 -5.6908,4.1835 -4.2651,-2.1216 -3.8331,-9.0822 0.7229,-11.5568 5.2118,-2.831 11.9512,0.3864 15.0997,7.206 2.3105,5.0061 2.3004,11.947 -0.041,22.2559 -1.0793,4.7513 -1.5541,7.777 -1.7971,11.4208 -0.08,1.1962 -0.2197,2.4989 -0.3098,2.8971 -0.2513,1.1105 0.2898,1.1631 2.1585,0.2091 5.0998,-2.6033 10.6619,-0.7531 12.0323,4.0056 1.6384,5.6897 -4.6239,11.5679 -8.4897,7.9695 -1.4675,-1.3657 -1.2894,-2.7223 0.4648,-3.5978 3.0401,-1.5165 2.0017,-5.5063 -1.229,-4.7168 -10.6519,3.2279 -0.9131,33.495 11.0819,35.5907 7.9307,1.3855 14.1566,-7.7621 8.4174,-12.6549 -2.2483,-1.917 -4.53,-0.8883 -4.0382,1.8197 0.6847,3.7775 -4.2708,3.3694 -6.104,-0.502 -2.9821,-6.2998 4.7173,-11.4272 11.9084,-7.9381 12.9059,7.7607 4.0834,24.5489 -7.6015,24.7869 z m -47.7675,-2.4055 -10.6276,-7.2268 -0.093,-14.046 10.5553,6.338 z m -23.4137,-1.2132 -0.052,-12.8954 10.2559,-7.5511 v 13.7217 z m -27.6277,-8.4505 5.2468,-14.7989 33.1014,-22.9253 27.3075,17.3404 4.6993,13.6903 -32.172,-21.1055 z m 214.8347,-1.0773 0.01,-74.9149 c 10.7258,-0.4623 16.8835,-11.2053 8.8511,-21.3565 0,0 1.3999,-0.191 3.0365,-0.4183 7.2559,-1.0077 12.1164,-4.9022 11.1543,-9.622 -0.2946,-1.446 0,-2.9068 0.4132,-3.629 0.6459,-1.9398 0.4752,-3.4213 -0.3925,-5.0934 -0.6811,-1.3132 -0.5679,-1.841 -0.1859,-2.8133 0.823,-2.0936 0.6263,-3.7069 -0.3408,-5.3025 -1.1948,-1.1839 -0.863,-2.1398 -0.7023,-4.0371 0.1915,-2.6796 -0.2841,-3.7576 -1.952,-4.8004 -2.1501,-1.3444 -2.9514,-3.5489 -0.5061,-3.3678 1.2137,0.09 5.4842,-4.0788 5.4842,-4.0788 l 0.4029,120.2216 z m -58.1575,-9.6114 c -1.9195,0 -3.8961,-2.4368 -6.734,-6.5576 -1.7155,-2.9514 -1.7454,-2.551 -5.67,-2.3949 -4.0087,-0.2957 -6.4502,-1.3677 -7.4982,-2.5938 -0.3961,-0.4642 0.6553,-0.5852 3.1913,-3.1899 2.6292,-2.7011 2.994,-3.7751 4.7406,-6.7981 0.629,-1.0899 2.0014,-1.1928 2.644,-0.1987 0.5193,0.8044 -0.8107,3.4207 -3.305,6.5053 -3.5189,3.4392 -2.7795,3.7859 2.3342,3.2422 3.5923,-0.382 3.976,-0.2004 5.3396,2.008 4.067,8.1874 6.2274,7.9109 10.1215,-0.251 1.0622,-2.2841 0.6401,-2.1374 5.2467,-1.778 3.6276,0.283 4.525,-0.6437 2.4787,-2.5728 -3.196,-2.6566 -4.441,-8.9241 -4.2655,-8.8479 l 2.4685,-0.2302 c 0,0 0.7542,1.4115 1.0844,2.301 0.6691,1.8006 2.4679,4.5059 4.4204,6.6411 2.7656,3.0254 1.2463,4.6802 -4.9264,5.3549 -3.4403,0.3759 -3.5187,0.4239 -5.1022,2.7714 -2.7885,4.1354 -4.6492,6.584 -6.5686,6.589 z m -150.1498,-7.457 3.5632,-12.7804 28.237,-20.0491 22.9696,15.5205 3.0468,12.0169 -26.3882,-16.9219 z m 97.3525,-10.1239 c 0,0 -8.162,-16.1008 -11.1233,-26.5335 -2.576,-9.076 -6.158,-35.3538 -5.2156,-36.9712 2.0063,2.7881 8.637,2.1593 8.7271,2.1336 -0.5613,3.0785 1.8955,9.283 7.55,10.5109 z m -92.901,-5.8882 2.8195,-12.5816 24.0438,-17.6019 19.8402,13.7217 2.6027,12.1633 -21.9575,-14.8512 z m 139.7803,-0.7007 -3.1191,-1.0982 -0.5887,-22.7265 -24.0541,-4.0475 -0.5474,-3.8906 27.8549,4.5495 c 0.292,9.6919 0.4544,27.2133 0.4544,27.2133 z m 12.2078,-0.6799 -0.6714,-26.4288 c 0.2602,0.088 20.0523,-2.7687 27.6277,-4.7796 l -0.4442,3.6187 c 0,0 -13.7581,3.0299 -23.7235,4.1939 0,7.3904 0.057,15.1632 0.072,22.6952 z m -223.7891,-4.8632 c 0,0 -3.2732,-0.3082 -10.2764,0.9413 -18.0544,3.1987 -22.9443,1.9025 -25.2522,-3.7338 -2.5218,-8.7395 6.9404,-8.9509 8.6263,-3.403 1.0728,3.5956 4.9502,2.8082 17.8963,-0.2993 11.0718,-2.6576 18.0874,-0.53 17.9525,5.8214 -0.1387,6.5304 -7.485,7.1079 -8.9465,0.6734 z m 148.3734,4.7796 c -2.2325,0.033 -4.0782,-1.7763 -4.1106,-4.0371 -0.032,-2.2606 1.7542,-4.1192 3.9866,-4.1519 2.2326,-0.033 4.0678,1.7658 4.1003,4.0265 0.033,2.2607 -1.7439,4.1297 -3.9763,4.1625 z m 58.6532,-0.7217 -2.8505,-0.868 c 0,0 -0.4202,-17.2395 -0.5061,-17.2671 -6.1344,-1.3693 -19.014,-3.8174 -19.014,-3.8174 l -0.6817,-3.4096 c 5.3913,1.2816 22.5771,4.1312 22.5771,4.1312 0.5363,7.4763 0.4752,21.2309 0.4752,21.2309 z m 20.8111,-0.3242 c 0,0 -0.011,-13.7568 0.2169,-21.1473 -0.096,0.065 14.584,-2.3667 22.0401,-3.9324 l -0.5783,2.7611 c -5.8963,1.3481 -12.3138,2.7002 -18.8075,4.0788 0.1287,5.4111 0.1239,17.2777 0.1239,17.2777 z m -10.4831,-2.9598 c -1.7924,0.026 -3.2789,-1.4374 -3.3049,-3.2526 -0.026,-1.8151 1.4195,-3.2994 3.212,-3.3258 1.7925,-0.026 3.2583,1.4165 3.2844,3.2317 0.026,1.8152 -1.3989,3.3203 -3.1915,3.3467 z m -244.2799,-8.5864 c -1.9974,-2.9964 -3.6714,-2.907 -5.6392,-2.6148 0.4957,-0.1476 2.8184,-1.5382 2.6853,-1.9975 -0.066,-0.2297 0.98,-4.0176 -0.6093,-4.173 -5.9912,-0.5857 -2.9595,-6.8859 -3.6768,-7.8544 -1.6198,-1.8692 -2.8047,-3.0551 -1.6937,-5.3862 0.9852,-2.0692 2.4004,-2.0037 1.3013,-3.7755 -2.3873,-3.6339 0.9107,-4.3874 0.6196,-6.8609 -0.2006,-1.4934 -0.7196,-3.534 -0.1755,-4.6959 1.64,-3.5027 7.4323,-5.5001 13.8705,-5.7731 0.9174,-0.042 0.2215,1.4765 0.6507,2.4369 1.5918,1.019 0.7204,2.7357 0.1859,3.8592 -0.528,1.4914 -0.5326,1.4926 0.4545,2.2486 2.7476,1.7288 2.6063,2.5259 2.3858,3.7755 -0.6021,3.6935 -0.036,4.055 1.0638,4.6017 1.4087,0.7007 1.216,2.2588 0.5887,4.2567 -0.433,1.3812 -0.1264,1.7271 0.5371,2.9807 0.3904,0.7369 0.5068,1.1375 0.5164,1.6106 -0.198,1.9075 1.4897,1.9007 3.8523,0.031 2.0034,-3.4956 2.691,-8.0832 3.9454,-10.9815 0.9704,-2.2263 1.1243,-4.5522 -0.031,-9.6846 -2.2176,-7.8451 -0.5708,-9.1531 8.1488,-7.478 6.5574,1.6332 8.4944,8.7191 6.672,17.3927 -0.2949,1.4029 -0.214,2.7596 -0.082,3.8592 0.7135,5.9708 -0.8106,11.7061 -4.9265,15.6252 -6.8696,6.541 -10.2661,7.5375 -24.4673,6.6202 -5.5576,-0.3979 -5.9799,-0.753 -5.9799,-0.753 0,0 -0.024,2.7082 -0.1962,2.7298 z m 102.279,-1.7989 1.6526,-12.1634 13.3335,-9.5278 c 6.2779,5.0195 11.126,3.3473 15.5438,-2.029 3.4996,1.7968 10.4933,6.6935 10.4933,6.6935 l 1.7868,13.795 -19.3858,-13.6171 z m 141.7118,-2.8867 c -1.7921,0.026 -3.2583,-1.4269 -3.2844,-3.2421 -0.026,-1.8151 1.3994,-3.3099 3.1914,-3.3362 1.7925,-0.026 3.279,1.4165 3.305,3.2317 0.026,1.8151 -1.4195,3.3204 -3.212,3.3466 z m -139.4808,-12.4561 0.7332,-11.7137 4.7406,-3.6081 4.7716,0.4915 1.1258,7.2582 z m 139.5635,-0.094 c -1.7926,0.026 -3.2791,-1.4375 -3.305,-3.2527 -0.026,-1.8151 1.4195,-3.2995 3.2119,-3.3258 1.7925,-0.026 3.2583,1.4166 3.2844,3.2317 0.026,1.8152 -1.3989,3.3204 -3.1913,3.3468 z m -13.0755,-0.3661 c -1.7919,0.026 -3.2583,-1.4165 -3.2843,-3.2317 -0.026,-1.8152 1.3993,-3.31 3.1914,-3.3362 1.7925,-0.026 3.2682,1.4269 3.2947,3.2421 0.026,1.8151 -1.4092,3.2994 -3.2018,3.3258 z m 25.9958,-0.6275 c -1.7925,0.026 -3.2686,-1.427 -3.2946,-3.2422 -0.026,-1.8151 1.3989,-3.3099 3.1914,-3.3362 1.7924,-0.026 3.2789,1.427 3.305,3.2421 0.026,1.8152 -1.4092,3.3099 -3.2018,3.3363 z m -241.4603,-0.5334 c -0.9148,0.075 -2.2692,-1.2989 -1.6112,-3.3572 0.8815,-2.349 0.2623,-3.1477 -1.2085,-5.0515 -1.2442,-1.6108 -1.0244,-1.8343 -0.8365,-2.8657 0.2861,-6.7623 -4.016,-3.8398 -2.1483,-8.7538 0.4065,-1.0693 -0.1322,-2.5962 -0.3201,-3.8593 0.4202,1.1566 8.3342,1.0508 9.0061,-0.1254 1.1261,0.17 2.5526,7.6982 1.4149,8.691 -0.1463,0 -0.9706,-1.2908 -1.3943,-2.0185 -1.0629,-1.8255 -1.2916,-1.7588 -0.9605,0.3557 1.3146,8.3922 0.5273,16.933 -1.9416,16.9847 z m 202.3582,-0.5857 c -1.7924,0.026 -3.2687,-1.427 -3.2946,-3.2422 -0.026,-1.8151 1.4091,-3.2995 3.2017,-3.3258 1.7925,-0.026 3.2583,1.4166 3.2843,3.2318 0.026,1.8151 -1.3989,3.3098 -3.1914,3.3362 z m 52.5906,-0.6066 c -1.7925,0.026 -3.258,-1.427 -3.2843,-3.2422 -0.026,-1.8151 1.3988,-3.2995 3.1914,-3.3257 1.7922,-0.026 3.2789,1.4165 3.305,3.2317 0.026,1.8151 -1.4199,3.3098 -3.2121,3.3362 z m -127.3246,-0.9518 -9.7291,-6.3901 c -0.161,-2.0145 0.096,-4.8986 -0.5577,-5.8778 6.3495,0.5994 9.5635,-3.0641 9.5638,-3.0643 z m 69.3015,-10.218 0.7539,-3.4722 c 19.1696,4.9962 40.596,5.2593 61.07,-0.2301 l 1.5905,3.65 c -20.6789,6.3504 -42.6513,6.5836 -63.4144,0.052 z m 90.7632,0.2196 c -2.7916,0.049 -5.6443,-1.004 -7.6532,-3.2839 -3.7742,-4.282 -1.9579,-12.2227 3.3774,-14.7466 7.9837,-3.7773 16.3002,4.2995 12.91,12.6235 -1.4076,3.4562 -5.0451,5.344 -8.6342,5.407 z m -197.5866,-1.0144 0.1239,-3.4827 2.427,2.0499 z m 50.8038,-0.1569 c -3.5199,0.052 -6.4142,-2.8049 -6.4654,-6.3693 -0.051,-3.5643 2.7596,-6.4953 6.2794,-6.5471 3.5196,-0.052 6.4144,2.7946 6.4655,6.3589 0.051,3.5643 -2.7599,6.5058 -6.2795,6.5575 z m 146.6072,-0.2092 c 0.8577,-0.012 2.2851,-0.3671 2.9332,-0.9727 1.6989,-1.5874 -0.01,-1.6324 -2.2515,-2.0498 -3.9847,-0.7412 -5.0825,-4.2159 -4.72,-7.9695 0.3295,-3.4112 -0.8023,-3.3581 -1.7144,-2.0916 -3.7136,5.1548 -0.5434,12.6672 5.7527,13.0836 z m -184.9451,-1.7152 c 0.081,-0.043 0.1756,-0.1046 0.1756,-0.1046 -0.045,-0.038 -0.1055,0.01 -0.1756,0.1046 z m 125.9407,-2.0289 c -4.7687,0.1 -5.2689,-7.8411 -1.0534,-16.7128 1.2673,-2.6673 1.9141,-2.3354 3.305,1.6942 3.4282,9.9326 2.6835,14.9154 -2.2516,15.0186 z m -11.0304,-0.2301 c -0.9196,0.047 -1.8109,-0.3083 -2.5407,-1.1504 -2.5638,-2.9595 -0.5919,-7.7498 6.2382,-15.1232 1.6604,-1.7925 2.52,-2.4764 3.1293,-2.4892 1.71,-0.036 1.7026,0.2519 -0.2374,6.6517 -0.8556,2.8223 -1.7015,5.9207 -1.8797,6.8817 -0.5695,3.0751 -2.6866,5.1258 -4.7097,5.2294 z m 17.2583,-7.1014 c -0.4661,-2.1996 -1.2831,-5.2563 -1.8075,-6.7981 -0.5235,-1.5418 -0.8709,-3.0084 -0.7848,-3.2526 0.4212,-1.1838 3.4653,0.4255 5.639,2.9807 4.3772,5.1458 6.1224,9.6219 5.2175,12.0251 -1.3273,1.9245 -4.7228,2.7789 -6.2877,1.0959 -1.6153,-1.7371 -1.8559,-5.4603 -1.9765,-6.051 z m -30.1684,5.1247 c -4.6141,-2.7554 0.7016,-9.0464 11.0408,-14.2655 4.4236,-2.2333 4.1077,-1.2273 0.7539,3.1794 -1.2836,1.6865 -3.0026,4.4312 -3.8421,6.1078 -1.8558,3.7067 -3.7137,7.4148 -7.9526,4.9783 z m 46.0633,-0.021 c -1.4649,0.012 -2.9638,-1.5744 -5.7424,-5.6475 -1.2384,-1.8153 -3.2485,-4.3967 -4.4721,-5.7418 -1.2228,-1.3452 -2.1859,-2.6831 -2.1379,-2.9703 0.4768,-2.8557 14.87,6.191 15.9053,9.9984 0.3557,2.3219 -1.4486,4.3984 -3.5529,4.3612 z m -206.004,-8.2831 c -2.5956,-5.4055 -2.8192,-8.7659 -0.6713,-9.988 3.0508,-1.7365 6.9747,0.9116 7.054,4.7586 0.026,1.2925 1.339,5.8028 2.5407,8.733 0.9894,2.4113 1.1245,3.8996 0.3109,4.019 -3.1817,-0.5157 -7.8908,-4.9832 -9.2343,-7.5226 z m 17.2272,4.0998 c 1.0045,-3.09 2.0677,-7.9137 2.0553,-9.3187 0,-0.5522 0.3269,-1.6828 0.7229,-2.51 2.6359,-5.4951 8.8722,-1.0136 6.579,4.7273 -2.0686,5.1758 -7.3324,10.5636 -9.4063,10.742 -1.4189,0.1221 -0.093,-3.1878 0.049,-3.6406 z m -4.2012,2.9663 c -1.0398,0.1038 -1.912,-2.1976 -3.2557,-6.0726 -1.8151,-5.2344 -1.7395,-9.317 0.2169,-11.0547 4.1931,-3.7252 8.5933,1.6834 6.8992,8.4819 -1.3547,5.4335 -2.682,8.5276 -3.8604,8.6454 z m 140.6972,-0.9583 c -5.2199,-77.7976 34.1642,-137.6519 36.9701,-139.2848 l 13.4011,-7.4203 23.5081,12.9669 c -24.3597,33.8238 -38.9212,72.5909 -40.0238,117.6111 -22.5352,-2.2156 -34.1283,16.0458 -33.8555,16.1271 z m -129.1445,-0.247 c -1.644,0.4563 -0.4967,-0.9976 1.1339,-3.3785 1.74,-2.5407 3.9989,-9.4484 5.7902,-10.5549 4.0187,-1.9562 8.5661,1.7716 6.128,5.0111 -2.2449,2.9829 -8.842,7.7534 -13.0521,8.9223 z m -23.9074,-0.527 c -0.6309,0 -1.8093,-0.4185 -3.522,-1.2654 -8.3675,-4.1379 -12.4942,-9.5958 -8.9134,-12.2063 2.5142,-1.8331 5.2024,-0.4111 7.7154,4.4146 0.8528,1.6392 2.4112,4.0721 3.4496,5.4176 1.8831,2.4382 2.3212,3.6352 1.2704,3.6395 z m -47.0445,-2.7715 c -5.3774,0.079 -9.7956,-4.2601 -9.8737,-9.7055 -0.078,-5.4456 4.2174,-9.9299 9.5948,-10.0089 5.3776,-0.079 9.7955,4.281 9.8737,9.7265 0.078,5.4454 -4.2172,9.9088 -9.5948,9.9879 z m 2.9628,-2.5595 c 6.3276,-2.8385 4.4216,-12.8986 -1.0315,-14.3521 -2.303,-0.6526 -5.1051,0.3179 -3.9502,1.4397 7.2042,2.2894 7.2506,7.6671 4.3485,11.6029 -0.4663,0.6324 0.1591,1.5222 0.6332,1.3095 z m 263.5763,-13.8374 c 0.246,-5.6856 -0.9701,-12.2791 1.7124,-18.4511 4.0642,-9.4862 17.1207,-13.8209 24.0954,-12.9792 1.4527,0.6042 3.1454,1.1768 4.5778,0.5614 0.8666,-0.3723 1.9354,-0.3248 2.8598,0.1108 0.8917,0.4201 1.7476,-0.1303 2.6117,0.1854 1.0108,0.6916 2.6623,2.262 2.4684,3.4305 -0.3156,1.6477 -0.1899,2.8687 1.7145,3.4095 2.6388,0.749 3.1726,2.1923 2.3961,6.4215 -0.1678,0.9138 -0.3702,1.3276 0.2168,1.7257 1.9435,1.3191 2.6811,3.7583 1.4046,6.3275 -0.8322,1.4802 -1.4758,2.5258 0.02,3.7023 0.5912,1.3539 0.4877,1.8686 -0.7849,3.5978 -1.356,1.6413 -1.5926,1.8291 -0.7229,3.2317 1.9543,3.1524 -0.2602,5.4785 -2.8919,6.7771 -3.526,1.4646 -6.6069,2.2204 -10.3281,2.6565 -1.3842,-0.079 -1.3253,-1.3116 -2.1585,-2.4995 -1.2255,-1.9298 0.5023,-4.7209 -0.4958,-5.7105 -1.4417,-0.6736 -2.0969,-2.0189 -1.9831,-3.1689 0.05,-2.6789 -0.1095,-3.5954 -0.8261,-4.7168 -0.7937,-1.242 -1.0924,-3.5233 -0.3512,-5.0739 0.6598,-1.3803 0.5879,-1.2868 -0.2789,-2.1008 -0.8579,-0.8055 -1.2804,-4.8442 -0.9756,-4.7671 l -3.619,0.3356 c 0.3777,-0.4078 -1.361,7.552 -5.4858,13.7056 0.2273,4.8209 2.0412,9.2539 1.88,15.6207 -8.9405,3.2414 -15.3969,-4.4553 -15.0562,-12.3318 z m -138.8633,10.833 c -1.2908,-1.0263 -7.6975,-2.8321 -7.9319,-2.6251 0.2007,-3.1069 -1.6669,-9.1426 -8.3452,-11.1594 -0.08,-8.6596 -0.01,-48.6429 -0.01,-48.6429 9.3022,15.7838 15.0677,36.1597 16.2874,62.4274 z m 155.603,-1.412 c 0,0 -0.3544,-1.1521 -0.6816,-3.3781 -0.5712,-4.5483 0.045,-5.1692 1.2393,-2.0603 1.3987,3.6406 1.4712,0.8041 -0.1032,-7.5302 -0.3811,-2.0185 -0.3667,-2.4871 0.1239,-3.8488 0.3067,-0.8536 0.8538,-2.8374 1.2806,-4.3927 1.2582,-4.5754 1.9933,-5.8903 3.2844,-2.2485 0.6584,1.8567 1.2093,2.1461 0.7394,3.5999 -0.5876,1.8201 -0.4461,3.1841 0.7375,4.9552 0.1935,0.2894 0.6185,0.9525 0.6921,2.8343 -0.3638,4.225 1.4933,4.2648 1.8586,5.357 -0.062,1.6529 0.7002,5.6591 -0.4231,5.5513 -0.9249,-0.089 -4.2717,-0.1824 -5.856,0.4079 -0.702,0.2616 -2.8919,0.753 -2.8919,0.753 z m -138.6649,-0.5229 c -3.4547,0.051 -6.2913,-2.7454 -6.3415,-6.2438 -0.05,-3.4983 2.7113,-6.3708 6.1659,-6.4216 3.4547,-0.051 6.3016,2.7351 6.3518,6.2334 0.05,3.4983 -2.7215,6.3812 -6.1762,6.432 z m 96.5883,-3.8593 -4.7406,-0.9099 c -1.0563,-0.3564 -0.2863,-66.5435 37.6562,-114.3124 l 0.3305,11.0652 c -18.0544,26.46 -31.0554,58.9102 -33.2461,104.1571 z m -80.3835,-1.3909 -0.8676,-15.8134 c 2.6692,2.2985 9.4488,6.6016 9.3986,6.6935 l -0.031,5.8463 c -0.01,-0.012 -5.8268,-0.452 -8.5001,3.2736 z m 36.5408,-0.2196 c -1.1433,-0.4874 -2.1401,-1.6074 -3.1191,-2.416 l 3.0984,-2.1126 z m -108.6102,-0.7948 c -20.4682,-6.1478 -40.6244,-5.9698 -60.5537,-1.4747 l -1.3632,-3.8697 c 21.6238,-5.9358 43.1138,-5.5932 64.4679,1.3073 z m 99.129,-2.9598 -1.0948,-6.8191 11.5508,-7.571 -0.5617,10.353 -6.0213,3.9534 z m -102.2584,-5.6791 c -1.866,0.028 -3.4018,-1.4879 -3.429,-3.3782 -0.027,-1.8902 1.4701,-3.4447 3.3361,-3.4722 1.8666,-0.027 3.3914,1.4879 3.4185,3.3782 0.027,1.8902 -1.459,3.4448 -3.3256,3.4722 z m -52.5907,-0.2824 c -1.8667,0.028 -3.4018,-1.4878 -3.4289,-3.3781 -0.027,-1.8902 1.4693,-3.4448 3.336,-3.4723 1.8667,-0.027 3.3915,1.4879 3.4185,3.3782 0.027,1.8902 -1.4589,3.4448 -3.3256,3.4722 z m 98.499,-10.6389 c -1.5138,-5.4029 -1.184,-17.6117 0.7643,-25.893 0.5848,-2.4867 0.9399,-11.3137 0.9399,-11.3137 0.3614,-0.4619 -11.5937,10.0184 -15.4377,-3.7254 -1.3216,-4.7255 4.0496,-9.2057 7.645,-7.8944 0.7001,0.2554 0.4887,2.5955 -0.1807,3.9721 -1.994,4.1099 3.691,6.2465 6.9302,2.6041 7.4839,-8.4159 -0.2164,-29.7243 -11.9495,-31.7941 -9.7405,-1.7182 -17.5507,8.1006 -11.0511,13.9518 2.8426,2.5588 7.3898,-0.9683 5.3086,-4.2253 -2.2235,-3.4798 1.8707,-4.8677 4.9678,-1.642 5.4004,5.6248 -0.6629,14.091 -8.8202,12.132 -13.0401,-3.0024 -10.3571,-23.6455 3.3154,-24.8078 10.4552,-0.8888 17.4944,3.7234 21.9161,11.9018 4.1534,7.8589 4.4621,14.1223 2.5614,27.9037 -1.1289,8.1817 -0.2002,15.0759 2.045,15.029 1.2313,-0.026 2.1912,-0.6268 2.3858,-2.0918 0.398,-2.9972 0.738,-3.5569 2.5923,-2.4682 2.3547,1.3824 3.6634,5.835 -0.1859,8.848 -3.9463,3.0888 -9.06,-1.7316 -8.8512,-2.5624 -0.095,0.1529 -0.4926,0.9362 -1.0224,4.4449 -1.7242,11.416 2.1058,23.4773 6.8372,21.5448 1.0383,-0.4242 0.9136,-0.8997 -0.4442,-1.6735 -3.152,-1.7951 -0.3743,-6.3952 3.5839,-5.93 5.6053,0.6589 6.8794,8.5775 1.9416,12.0797 -7.7774,4.246 -14.1138,-2.4022 -15.7916,-8.3903 z m 38.2656,9.5094 c 0,0 -9.9437,-6.1412 -10.4727,-7.7184 -0.3387,-1.0113 -0.7436,-9.8207 -0.7436,-9.8207 l 17.2582,10.9397 24.7422,-15.4891 c -0.4048,3.3998 -2.1856,12.1528 -2.1856,12.1528 l -13.158,8.4297 c -0.065,-0.5077 -9.1018,-6.5475 -15.4405,1.506 z m -123.555,-0.5857 c -1.8666,0.027 -3.4018,-1.4878 -3.4289,-3.3781 -0.027,-1.8902 1.4589,-3.4448 3.3257,-3.4723 1.866,-0.027 3.4018,1.4774 3.4289,3.3676 0.027,1.8904 -1.4596,3.4554 -3.3257,3.4828 z m 26.3366,-0.052 c -1.8659,0.028 -3.4114,-1.4774 -3.4392,-3.3677 -0.027,-1.8902 1.4804,-3.4552 3.3463,-3.4827 1.8668,-0.027 3.3915,1.4879 3.4187,3.3782 0.027,1.8902 -1.459,3.4448 -3.3258,3.4722 z m -13.2405,-0.774 c -1.8667,0.027 -3.4121,-1.4878 -3.4393,-3.378 -0.027,-1.8903 1.4693,-3.4448 3.336,-3.4723 1.8667,-0.027 3.4012,1.4879 3.429,3.3781 0.027,1.8903 -1.459,3.4449 -3.3257,3.4722 z m 33.1531,-4.8527 c -8.9602,-1.8882 -17.9428,-3.8287 -26.5328,-4.7796 l -0.3512,-26.7008 2.5098,0.1464 0.3614,23.8561 c 8.2982,0.6013 16.1252,2.4049 23.4758,4.3299 z m -66.6264,-0.8681 0.4647,-3.1375 c 0,0 15.5026,-2.7172 23.5996,-3.7756 0.1292,-5.3748 0.1137,-23.3331 0.1137,-23.3331 l 3.0984,-0.5753 0.01,27.1819 c -9.1931,1.0121 -18.3745,2.0584 -27.2867,3.6396 z m 150.0051,-1.506 -18.2497,-12.2157 -2.1482,-12.9477 21.2758,14.3178 c 0,0 19.2862,-13.1456 26.5019,-18.0202 l -2.1999,12.2053 z m -84.2462,-2.416 c -7.3469,-1.5741 -14.6933,-3.2103 -22.0401,-3.8487 l -0.31,-21.482 3.3774,0.9099 0.2685,17.4345 c 5.7379,0.5031 11.631,1.6288 17.5578,2.897 z m -64.9947,-0.638 0.6197,-2.9179 c 0,0 11.7591,-1.795 17.8262,-2.897 0.5371,-0.1248 0.341,-18.9092 0.341,-18.9092 l 2.9021,-0.4497 0.3408,21.9317 z m 32.9363,-2.4054 c -1.8667,0.028 -3.3909,-1.4878 -3.4186,-3.3781 -0.027,-1.8903 1.459,-3.4448 3.3256,-3.4723 1.8667,-0.027 3.4013,1.4774 3.4289,3.3676 0.027,1.8904 -1.4692,3.4554 -3.3359,3.4828 z m 116.5835,-7.7498 -21.5755,-14.7466 c 0,0 -2.5011,-7.6801 -3.0364,-11.9334 l 24.8288,16.2318 31.0669,-20.8544 -3.5942,12.8849 z m 130.7743,-0.4498 c -1.2799,-0.017 -2.5571,-0.8843 -3.2224,-2.8761 -0.9367,-2.8033 -2.6837,-3.6316 -7.2813,-3.5454 -9.0265,0.4875 -18.4881,4.7826 -27.008,1.5583 -4.1407,-1.5447 -5.6155,-7.7292 -2.1482,-9.3395 3.7633,-1.7479 5.3672,-0.6498 6.6719,2.3427 1.2056,1.272 2.7037,1.0729 10.7929,-0.3347 3.5683,-0.5861 7.7615,-1.1125 11.2886,-1.4014 9.0179,-0.738 13.9976,2.1391 15.1203,7.572 0.7173,3.4738 -2.0811,6.0532 -4.2138,6.0241 z m -247.1719,-4.9887 c -1.8667,0.027 -3.4012,-1.4774 -3.4289,-3.3676 -0.027,-1.8903 1.4692,-3.4554 3.336,-3.4827 1.8666,-0.027 3.4018,1.4877 3.4289,3.378 0.027,1.8903 -1.4692,3.4448 -3.336,3.4723 z m 66.0997,-4.173 c -2.4277,0.036 -4.4264,-1.9339 -4.4616,-4.3926 -0.035,-2.4587 1.9099,-4.4824 4.3378,-4.5181 2.428,-0.036 4.4161,1.9339 4.4514,4.3926 0.035,2.4587 -1.8995,4.4825 -4.3276,4.5181 z m 50.2669,-3.1166 c 0,0 -17.7555,-12.0118 -25.9751,-17.56 l -4.5444,-13.2197 30.2406,19.9132 37.0032,-24.3782 -4.4387,13.5954 z m -128.1922,-4.1312 c -1.6111,-4.3927 -4.5322,-7.7394 -7.6221,-11.1384 0,0 1.7207,-3.3016 7.8595,-3.1062 3.3535,0.1067 3.5333,-0.4264 4.6787,-2.7297 1.8809,-2.9184 3.4113,-4.8253 4.6269,-5.7732 2.15,-1.6762 6.1801,0.8281 9.5019,5.9196 1.2104,1.8553 1.7117,2.2935 5.3603,2.2173 5.6023,-0.1172 7.6299,1.4561 4.7199,4.0056 -2.5373,3.1303 -4.3605,6.572 -6.6306,9.8625 l -2.52,-0.2929 c -0.1069,-0.3787 1.959,-6.6984 4.8645,-9.2663 1.4745,-1.6859 -0.5898,-2.2972 -4.1932,-1.527 -2.2856,0.697 -2.8716,0.4236 -4.565,-3.1166 -3.5273,-6.7529 -5.3608,-6.427 -9.5431,0.4183 -1.4608,3.0557 -1.4054,3.3589 -5.4223,2.4787 -4.3126,-0.4396 -5.6136,0.1087 -3.8421,1.6315 3.581,3.0772 5.5565,10.3331 5.5565,10.3331 z m 128.0373,-9.0467 c 0,0 -32.1108,-21.297 -32.0275,-20.8336 l -6.4343,-15.3531 37.6872,25.3829 46.0426,-30.3194 -6.8888,15.1964 z m -1.2394,-13.9832 -11.1957,-7.4569 0.031,-13.4184 11.4332,7.7812 z m 2.8712,-0.3869 -0.2066,-13.2406 10.0389,-6.0555 0.5577,12.4248 z m 12.7345,-8.5342 0.093,-0.5125 -0.2376,-0.1255 -0.083,-0.01 -0.3615,-11.9333 11.5469,-8.1054 -0.041,13.4811 z m -29.5693,-0.1464 -10.5243,-7.1119 -0.4338,-14.2028 11.4229,7.5721 z m -12.9927,-8.6703 -10.5553,-7.4255 -0.3718,-14.1819 10.7825,7.3524 z m 55.8646,-0.052 0.052,-13.1047 10.5036,-7.4256 0.4958,13.3871 z m -111.0889,-16.9116 c 2.0844,-2.2 2.8537,-1.9273 4.6373,1.7048 1.8516,3.7688 4.6291,5.5304 8.655,5.4594 5.0782,-0.09 1.758,3.2824 -3.6252,3.6814 -9.3077,0.4151 -14.0318,-5.9089 -9.6671,-10.8456 z m 124.505,7.6871 -0.2787,-13.1464 10.4519,-5.5013 0.3202,6.2333 -5.3809,9.5279 z m 13.4782,-17.5704 -0.3614,-2.395 1.9314,-0.7531 z m -125.7858,-94.755 c 43.9855,-9.5295 86.1559,-6.1626 116.4183,-0.4915 l 13.8293,-23.9293 0.9501,0.042 3.5633,-6.1915 -0.3822,-0.7112 c 0,0 11.4902,-22.3271 16.3287,-29.3677 -56.5294,0.5513 -180.6073,0.8262 -180.6073,0.8262 l 7.5602,15.3951 -0.4131,0.4184 7.4672,16.0748 2.4271,2.782 c 0,0 1.4825,2.9052 2.5923,6.0241 1.0209,2.8708 5.4016,10.7306 5.4016,10.7306 l 0.6197,-0.052 z m 114.8278,-3.3676 c -0.583,-0.4683 -56.3413,-11.1085 -114.1357,-0.1779 l -3.1605,-5.3548 c 50.5814,-11.7877 123.7682,-0.5279 120.88,0.5649 z m -0.9605,-10.5319 c -5.0987,0.1845 -10.2648,-2.5895 -13.7468,-7.2164 -1.108,-1.4724 -2.9227,-5.815 -2.9227,-5.815 0,0 -2.4402,4.0913 -4.8336,6.1392 -3.6198,3.0973 -8.3155,5.6836 -15.11,5.4385 -6.2548,-0.2256 -13.1412,-3.6545 -19.3549,-13.5648 -1.5683,5.7182 -22.1211,25.148 -39.0505,0.9203 -1.9362,6.4379 -10.996,19.2969 -25.6652,10.3122 -1.0017,-2.1714 -2.0347,-4.5599 -2.0347,-4.5599 8.6578,6.1395 22.9311,2.0214 26.3056,-7.5616 0.3026,-1.1671 -0.08,-1.7741 -0.5267,-2.9075 -4.4615,-6.4573 7.1469,-6.3023 3.7077,-1.0772 -0.6432,1.1878 -0.6959,2.1656 0.3306,3.7232 2.7223,4.131 10.9153,9.2727 16.9277,9.1409 6.9432,-0.1528 14.6366,-4.8183 17.2066,-9.0572 0.9483,-1.564 1.1639,-3.13 0.3305,-4.4972 -0.6052,-1.3785 -0.398,-2.5324 0.6197,-3.3781 2.3914,-1.9867 5.3949,0.3048 4.2448,3.2422 -0.7568,1.2941 -0.6401,2.8806 0.9089,5.0829 3.1112,4.4233 10.3717,9.0847 16.6902,8.9525 9.043,-0.2115 18.1777,-6.8064 17.5991,-12.2365 -0.2543,-2.3869 0.3902,-3.2765 2.3134,-3.0016 2.3391,0.3341 2.6044,2.5707 0.9503,4.3926 -0.2453,0.5836 -0.6415,1.9987 0.1135,3.0329 9.5488,13.077 23.8461,9.2655 27.1216,6.3379 -3.1825,5.5252 -7.6264,7.995 -12.1251,8.1577 z m 8.5,-9.078 c -3.5834,-0.03 -7.4426,-2.7732 -8.6653,-4.9156 -0.8855,0.9284 -8.9911,4.8434 -12.9308,-0.7529 10.318,0.7868 10.4447,-10.3008 2.8196,-11.3686 3.4771,-10.6968 -12.1113,-11.3432 -11.1233,-1.2969 -11.647,-1.743 -10.2101,13.2082 0.7539,11.63 -5.7438,4.2357 -9.6528,2.8682 -16.556,-1.9871 -2.3205,3.0594 -11.7837,5.919 -14.1081,0.5752 10.8468,0.6777 8.9993,-12.0422 0.8986,-12.1529 2.4067,-8.815 -13.5289,-12.0575 -11.0718,1.1086 -10.1148,-0.7179 -8.6502,13.1194 1.0431,11.9752 -0.7182,2.5176 -10.5561,3.6059 -14.9034,-1.2028 -3.9945,3.6923 -8.4044,6.2211 -16.37,0.9413 10.861,1.833 10.9959,-12.4445 0.9089,-11.5881 0.9414,-9.4553 -13.3201,-9.6144 -10.9375,1.3072 -10.8578,2.9675 -4.8874,14.7351 3.0882,11.494 -3.5503,4.2737 -9.5787,2.2583 -11.9703,1.3911 -7.3903,8.5654 -13.8293,1.4014 -13.8293,1.4014 12.8616,1.3601 10.0642,-17.2025 -2.4684,-10.4691 0.012,-3.8192 -1.6067,-7.1257 -6.7236,-7.6661 l -6.0832,-12.749 172.3837,-1.1504 -9.5114,16.9397 c -0.9613,-0.3065 -6.4583,-0.8126 -7.6412,5.7135 -11.3281,-3.6388 -12.0879,9.7175 -3.6252,11.8288 -1.0254,0.7167 -2.1828,1.0034 -3.3772,0.9935 z m 6.7235,-4.8319 c -1.1264,-1.8325 -0.1831,-3.0262 1.7558,-3.0748 0,0 -1.2611,1.855 -1.7558,3.0748 z m -141.815,-2.3636 -1.1154,-2.3741 c 1.207,0.4952 1.3554,1.0191 1.1155,2.3741 z" />
    <path
       inkscape:connector-curvature="0"
       style="display:inline"
       id="path5608"
       d="m 7297.1335,1644.0347 c 20.9457,0.4658 30.338,24.6166 14.8254,43.371 -2.2498,2.7355 -2.4819,4.3054 1.6385,1.6777 10.444,-7.1523 30.4702,-2.4504 31.4958,19.4155 1.2666,26.9421 -35.4926,34.7048 -42.3944,6.0562 -0.3645,-3.0227 -2.763,-2.9537 -2.1849,1.3368 0.6294,11.6451 4.1806,22.5292 9.0617,33.1428 -8.2268,0 -17.4209,0 -24.9009,0 4.8809,-10.6136 8.4321,-21.4977 9.0615,-33.1428 0.5783,-4.2905 -1.8204,-4.3595 -2.1847,-1.3368 -6.902,28.6486 -43.6612,20.8859 -42.3944,-6.0562 1.0252,-21.8659 21.0516,-26.5678 31.4958,-19.4155 4.1205,2.6277 3.8884,1.0578 1.6386,-1.6777 -15.5127,-18.7544 -6.1204,-42.9052 14.8249,-43.371 0,-10e-5 0,10e-5 0.022,0 z" />
    <path
       inkscape:connector-curvature="0"
       style="display:inline"
       id="path5614"
       d="m 7522.1335,2181.0347 c 20.9457,-0.4658 30.338,-24.6166 14.8254,-43.371 -2.2498,-2.7355 -2.4819,-4.3054 1.6385,-1.6777 10.444,7.1523 30.4702,2.4504 31.4958,-19.4155 1.2666,-26.9421 -35.4926,-34.7048 -42.3944,-6.0562 -0.3645,3.0227 -2.763,2.9537 -2.1849,-1.3368 0.6294,-11.6451 4.1806,-22.5292 9.0617,-33.1428 -8.2268,0 -17.4209,0 -24.9009,0 4.8809,10.6136 8.4321,21.4977 9.0615,33.1428 0.5783,4.2905 -1.8204,4.3595 -2.1847,1.3368 -6.902,-28.6486 -43.6612,-20.8859 -42.3944,6.0562 1.0252,21.8659 21.0516,26.5678 31.4958,19.4155 4.1205,-2.6277 3.8884,-1.0578 1.6386,1.6777 -15.5127,18.7544 -6.1204,42.9052 14.8249,43.371 0,10e-5 0,-1e-4 0.022,0 z" />
    <path
       inkscape:connector-curvature="0"
       style="display:inline"
       id="path5634"
       d="m 7204.1285,1690.5347 c 8.8365,0.1996 12.7988,10.55 6.2545,18.5876 -0.9491,1.1723 -1.0471,1.8451 0.6912,0.719 4.4061,-3.0653 12.8546,-1.0502 13.2873,8.3209 0.5343,11.5466 -14.9734,14.8735 -17.8851,2.5955 -0.1537,-1.2954 -1.1657,-1.2658 -0.9217,0.5729 0.2654,4.9908 1.7637,9.6554 3.8229,14.2041 -3.4707,0 -7.3495,0 -10.5051,0 2.0591,-4.5487 3.5573,-9.2133 3.8228,-14.2041 0.244,-1.8387 -0.768,-1.8683 -0.9216,-0.5729 -2.9118,12.278 -18.4196,8.9511 -17.8852,-2.5955 0.4325,-9.3711 8.8811,-11.3862 13.2873,-8.3209 1.7384,1.1261 1.6404,0.4533 0.6913,-0.719 -6.5444,-8.0376 -2.582,-18.388 6.2542,-18.5876 0,0 0,10e-5 0.01,0 z" />
    <path
       d="m 7615.1285,2134.5347 c 8.8365,-0.1996 12.7988,-10.55 6.2545,-18.5876 -0.9491,-1.1723 -1.0471,-1.8451 0.6912,-0.719 4.4061,3.0653 12.8546,1.0502 13.2873,-8.3209 0.5343,-11.5466 -14.9734,-14.8735 -17.8851,-2.5955 -0.1537,1.2954 -1.1657,1.2658 -0.9217,-0.5729 0.2654,-4.9908 1.7637,-9.6554 3.8229,-14.2041 -3.4707,0 -7.3495,0 -10.5051,0 2.0591,4.5487 3.5573,9.2133 3.8228,14.2041 0.244,1.8387 -0.768,1.8683 -0.9216,0.5729 -2.9118,-12.278 -18.4196,-8.9511 -17.8852,2.5955 0.4325,9.3711 8.8811,11.3862 13.2873,8.3209 1.7384,-1.1261 1.6404,-0.4533 0.6913,0.719 -6.5444,8.0376 -2.582,18.388 6.2542,18.5876 0,0 0,-1e-4 0.01,0 z"
       id="path5660-6"
       style="display:inline"
       inkscape:connector-curvature="0" />
    <path
       d="m 7613.5062,2155.9654 h -7.1886 l 10.5601,26.5854 8.0684,-11.23 -0.056,-15.3554 h -5.6659 v -7.9191 h 19.9679 v 7.9191 h -6.579 v 57.1732 l 6.579,-0.026 v 6.9221 h -20.2601 v -7.1564 h 5.5907 l 0.1196,-27.8653 -17.6848,28.0996 h 6.2421 v 6.9221 h -21.5548 v -6.9221 h 5.6878 l 14.5612,-22.963 -14.2576,-34.1958 h -6.3284 l -0.032,-7.9191 h 22.1645 l 0.068,7.9304 z m 0,0"
       id="path5668"
       style="fill:#000000;fill-opacity:1;stroke-width:1;stroke-miterlimit:4;stroke-dasharray:none"
       inkscape:connector-curvature="0" />
    <path
       d="m 7205.3495,1669.1037 h 7.1884 l -10.5601,-26.5855 -8.0685,11.2303 0.057,15.3552 h 5.6658 v 7.9191 h -19.9675 v -7.9191 h 6.5787 v -57.1733 l -6.5787,0.026 v -6.922 h 20.2599 v 7.1564 h -5.5906 l -0.1196,27.8653 17.6849,-28.0997 h -6.2421 v -6.922 h 21.5548 v 6.922 h -5.6878 l -14.5612,22.963 14.2577,34.1959 h 6.3281 l 0.032,7.9191 h -22.1645 l -0.068,-7.9305 z m 0,0"
       id="path5674"
       style="fill:#000000;fill-opacity:1"
       inkscape:connector-curvature="0" />
    <path
       inkscape:connector-curvature="0"
       style="fill:#000000;fill-opacity:1;stroke-width:1;stroke-miterlimit:4;stroke-dasharray:none"
       id="path4716"
       d="m 7202.5085,2155.9656 h -7.1886 l 10.5601,26.5855 8.0684,-11.23 -0.056,-15.3555 h -5.6659 v -7.9191 h 19.9679 v 7.9191 h -6.579 v 57.1733 l 6.579,-0.026 v 6.922 h -20.2601 v -7.1564 h 5.5907 l 0.1196,-27.8653 -17.6848,28.0997 h 6.2421 v 6.922 h -21.5548 v -6.922 h 5.6878 l 14.5612,-22.963 -14.2576,-34.1959 h -6.3284 l -0.032,-7.9191 h 22.1645 l 0.068,7.9305 z m 0,0" />
    <path
       inkscape:connector-curvature="0"
       style="fill:#000000;fill-opacity:1"
       id="path4914-1"
       d="m 7616.4758,1669.1038 h 7.1884 l -10.5601,-26.5854 -8.0685,11.2302 0.057,15.3552 h 5.6658 v 7.9191 h -19.9675 v -7.9191 h 6.5787 v -57.1732 l -6.5787,0.026 v -6.922 h 20.2599 v 7.1563 h -5.5906 l -0.1196,27.8653 17.6849,-28.0996 h -6.2421 v -6.922 h 21.5548 v 6.922 h -5.6878 l -14.5612,22.963 14.2577,34.1958 h 6.3281 l 0.032,7.9192 h -22.1645 l -0.068,-7.9305 z m 0,0" />
    <path
       d="m 7615.1307,1690.5347 c 8.8365,0.1996 12.7988,10.55 6.2545,18.5876 -0.9491,1.1723 -1.0471,1.8451 0.6912,0.719 4.4061,-3.0653 12.8546,-1.0502 13.2873,8.3209 0.5343,11.5466 -14.9734,14.8735 -17.8851,2.5955 -0.1537,-1.2954 -1.1657,-1.2658 -0.9217,0.5729 0.2654,4.9908 1.7637,9.6554 3.8229,14.2041 -3.4707,0 -7.3495,0 -10.5051,0 2.0591,-4.5487 3.5573,-9.2133 3.8228,-14.2041 0.244,-1.8387 -0.768,-1.8683 -0.9216,-0.5729 -2.9118,12.278 -18.4196,8.9511 -17.8852,-2.5955 0.4325,-9.3711 8.8811,-11.3862 13.2873,-8.3209 1.7384,1.1261 1.6404,0.4533 0.6913,-0.719 -6.5444,-8.0376 -2.582,-18.388 6.2542,-18.5876 0,0 0,10e-5 0.01,0 z"
       id="path5039"
       style="display:inline"
       inkscape:connector-curvature="0" />
    <path
       inkscape:connector-curvature="0"
       style="display:inline"
       id="path5065"
       d="m 7204.1307,2134.5347 c 8.8365,-0.1996 12.7988,-10.55 6.2545,-18.5876 -0.9491,-1.1723 -1.0471,-1.8451 0.6912,-0.719 4.4061,3.0653 12.8546,1.0502 13.2873,-8.3209 0.5343,-11.5466 -14.9734,-14.8735 -17.8851,-2.5955 -0.1537,1.2954 -1.1657,1.2658 -0.9217,-0.5729 0.2654,-4.9908 1.7637,-9.6554 3.8229,-14.2041 -3.4707,0 -7.3495,0 -10.5051,0 2.0591,4.5487 3.5573,9.2133 3.8228,14.2041 0.244,1.8387 -0.768,1.8683 -0.9216,0.5729 -2.9118,-12.278 -18.4196,-8.9511 -17.8852,2.5955 0.4325,9.3711 8.8811,11.3862 13.2873,8.3209 1.7384,-1.1261 1.6404,-0.4533 0.6913,0.719 -6.5444,8.0376 -2.582,18.388 6.2542,18.5876 0,0 0,-1e-4 0.01,0 z" />
  </g>
</svg>
