<?xml version="1.0" encoding="UTF-8" standalone="no"?>
<!-- Created with Inkscape (http://www.inkscape.org/) -->

<svg
   id="svg10047"
   height="123.0041"
   width="78.997345"
   version="1.1"
   viewBox="0 0 78.997345 123.0041"
   inkscape:version="0.91 r13725"
   sodipodi:docname="ramino-stretch.svgz"
   xmlns:inkscape="http://www.inkscape.org/namespaces/inkscape"
   xmlns:sodipodi="http://sodipodi.sourceforge.net/DTD/sodipodi-0.dtd"
   xmlns="http://www.w3.org/2000/svg"
   xmlns:svg="http://www.w3.org/2000/svg"
   xmlns:rdf="http://www.w3.org/1999/02/22-rdf-syntax-ns#"
   xmlns:cc="http://creativecommons.org/ns#"
   xmlns:dc="http://purl.org/dc/elements/1.1/">
  <sodipodi:namedview
     pagecolor="#ffffff"
     bordercolor="#666666"
     borderopacity="1"
     objecttolerance="10"
     gridtolerance="10"
     guidetolerance="10"
     inkscape:pageopacity="0"
     inkscape:pageshadow="2"
     inkscape:window-width="1920"
     inkscape:window-height="1016"
     id="namedview1491"
     showgrid="false"
     inkscape:zoom="1.3479675"
     inkscape:cx="513.5"
     inkscape:cy="307.5"
     inkscape:window-x="0"
     inkscape:window-y="0"
     inkscape:window-maximized="1"
     inkscape:current-layer="svg10047"
     showguides="false"
     inkscape:guide-bbox="true"
     inkscape:snap-grids="true"
     inkscape:showpageshadow="2"
     inkscape:pagecheckerboard="0"
     inkscape:deskcolor="#d1d1d1" />
  <metadata
     id="metadata16869">
    <rdf:RDF>
      <cc:Work
         rdf:about="">
        <dc:format>image/svg+xml</dc:format>
        <dc:type
           rdf:resource="http://purl.org/dc/dcmitype/StillImage" />
        <dc:title />
      </cc:Work>
    </rdf:RDF>
  </metadata>
  <defs
     id="defs10049" />
  <g
     id="diamond_3"
     transform="matrix(0.16457785,0,0,0.18222964,-192.49437,-150.33866)"
     inkscape:label="#diamond_3">
    <rect
       transform="scale(-1)"
       width="478.65826"
       height="673.65338"
       rx="22.895481"
       ry="23.039103"
       x="-1648.9541"
       y="-1499.3198"
       id="rect6554-0"
       style="display:inline;fill:#ffffff;fill-opacity:1;stroke:#000000;stroke-width:1.34161;stroke-miterlimit:4;stroke-dasharray:none;stroke-opacity:1" />
    <path
       inkscape:connector-curvature="0"
       style="display:inline;fill:#d40000"
       id="path8487"
       d="m 1204.1248,940.53465 c 4.9006,8.0294 10.0569,15.8335 16.5001,22.5001 -6.4432,6.6663 -11.5995,14.4704 -16.5001,22.5 -4.9008,-8.0296 -10.0566,-15.8337 -16.4999,-22.5 6.4433,-6.6666 11.5991,-14.4707 16.4999,-22.5001 z" />
    <path
       inkscape:connector-curvature="0"
       style="display:inline;fill:#d40000"
       id="path8489"
       d="m 1615.1249,1339.5348 c 4.9006,8.0293 10.0569,15.8335 16.5001,22.5 -6.4432,6.6664 -11.5995,14.4705 -16.5001,22.5 -4.9008,-8.0295 -10.0566,-15.8336 -16.4999,-22.5 6.4433,-6.6665 11.5991,-14.4707 16.4999,-22.5 z" />
    <path
       d="m 1409.6247,894.03475 c 11.1383,18.7355 22.8564,36.9449 37.5003,52.5 -14.6439,15.5548 -26.362,33.7642 -37.5003,52.5 -11.138,-18.7358 -22.8559,-36.9452 -37.4998,-52.5 14.6439,-15.5551 26.3618,-33.7645 37.4998,-52.5 z"
       id="path8493"
       style="display:inline;fill:#d40000"
       inkscape:connector-curvature="0" />
    <path
       inkscape:connector-curvature="0"
       style="display:inline;fill:#d40000"
       id="path8497"
       d="m 1409.6247,1326.0348 c 11.1383,18.7355 22.8564,36.9449 37.5003,52.5 -14.6439,15.5548 -26.362,33.7642 -37.5003,52.5 -11.138,-18.7358 -22.8559,-36.9452 -37.4998,-52.5 14.6439,-15.5551 26.3618,-33.7645 37.4998,-52.5 z" />
    <path
       inkscape:connector-curvature="0"
       style="display:inline;fill:#d40000"
       id="path8499"
       d="m 1409.6247,1110.0348 c 11.1383,18.7355 22.8564,36.9449 37.5003,52.5 -14.6439,15.5548 -26.362,33.7642 -37.5003,52.5 -11.138,-18.7358 -22.8559,-36.9452 -37.4998,-52.5 14.6439,-15.5551 26.3618,-33.7645 37.4998,-52.5 z" />
    <path
       inkscape:connector-curvature="0"
       style="fill:#d40000;fill-opacity:1;stroke-width:1;stroke-miterlimit:4;stroke-dasharray:none"
       id="path8575"
       d="m 1180.9843,911.25215 5.5015,-4.0767 c 4.7746,7.8336 10.1143,12.9929 18.2828,12.1073 12.2556,-0.8485 17.3337,-13.7928 14.7697,-23.5462 -2.4806,-8.7506 -12.6287,-13.013 -20.697,-8.3478 -1.9042,1.1057 -3.7416,2.0083 -4.1009,2.0083 -0.8462,0 -2.7617,-3.8395 -2.5,-5.0107 5.4149,-7.968 18.5642,-21.9266 18.5642,-21.9266 h -20.5438 v 9.3477 h -7.8844 v -16.7727 h 40.1519 v 5.6908 c 0,0 -10.7578,11.2419 -14.3129,17.3983 8.7559,0.3229 15.8135,5.9138 18.3471,14.753 1.4784,4.6538 0.8158,15.2985 -1.1193,19.8866 -3.2322,7.6477 -12.0607,13.8531 -20.1315,14.21 -13.5502,0.917 -20.7387,-8.6476 -24.3274,-15.7213 z m 0,0" />
    <path
       inkscape:connector-curvature="0"
       style="fill:#d40000;fill-opacity:1;stroke-width:1;stroke-miterlimit:4;stroke-dasharray:none"
       id="path8597"
       d="m 1638.4923,1413.8174 -5.5015,4.0767 c -4.7746,-7.8336 -10.1143,-12.9929 -18.2828,-12.1073 -12.2556,0.8485 -17.3337,13.7928 -14.7697,23.5462 2.4806,8.7506 12.6287,13.013 20.697,8.3478 1.9042,-1.1057 3.7416,-2.0083 4.1009,-2.0083 0.8462,0 2.7617,3.8395 2.5,5.0107 -5.4149,7.968 -18.5642,21.9266 -18.5642,21.9266 h 20.5438 v -9.3477 h 7.8844 v 16.7727 h -40.1519 v -5.6909 c 0,0 10.7578,-11.2418 14.3129,-17.3982 -8.7559,-0.3229 -15.8135,-5.9138 -18.3471,-14.753 -1.4784,-4.6538 -0.8158,-15.2985 1.1193,-19.8866 3.2322,-7.6478 12.0607,-13.8531 20.1315,-14.21 13.5502,-0.917 20.7387,8.6476 24.3274,15.7213 z m 0,0" />
    <path
       d="m 1227.4924,1413.8174 -5.5015,4.0768 c -4.7746,-7.8336 -10.1143,-12.993 -18.2828,-12.1074 -12.2556,0.8485 -17.3337,13.7928 -14.7697,23.5462 2.4806,8.7506 12.6287,13.013 20.697,8.3479 1.9042,-1.1058 3.7416,-2.0084 4.1009,-2.0084 0.8462,0 2.7617,3.8396 2.5,5.0108 -5.4149,7.968 -18.5642,21.9266 -18.5642,21.9266 h 20.5438 v -9.3478 h 7.8844 v 16.7727 h -40.1519 v -5.6908 c 0,0 10.7578,-11.2418 14.3129,-17.3983 -8.7559,-0.3229 -15.8135,-5.9138 -18.3471,-14.753 -1.4784,-4.6538 -0.8158,-15.2985 1.1193,-19.8866 3.2322,-7.6477 12.0607,-13.853 20.1315,-14.21 13.5502,-0.917 20.7387,8.6477 24.3274,15.7213 z m 0,0"
       id="path4678"
       style="fill:#d40000;fill-opacity:1;stroke-width:1;stroke-miterlimit:4;stroke-dasharray:none"
       inkscape:connector-curvature="0" />
    <path
       d="m 1204.125,1339.5348 c 4.9006,8.0293 10.0569,15.8335 16.5001,22.5 -6.4432,6.6664 -11.5995,14.4705 -16.5001,22.5 -4.9008,-8.0295 -10.0566,-15.8336 -16.4999,-22.5 6.4433,-6.6665 11.5991,-14.4707 16.4999,-22.5 z"
       id="path4794-8"
       style="display:inline;fill:#d40000"
       inkscape:connector-curvature="0" />
    <path
       d="m 1592.1084,911.25221 5.5015,-4.07673 c 4.7746,7.83361 10.1143,12.99295 18.2828,12.10735 12.2556,-0.84851 17.3337,-13.7928 14.7697,-23.54619 -2.4806,-8.75061 -12.6287,-13.01301 -20.697,-8.34785 -1.9042,1.10575 -3.7416,2.00836 -4.1009,2.00836 -0.8462,0 -2.7617,-3.83956 -2.5,-5.01076 5.4149,-7.968 18.5642,-21.92661 18.5642,-21.92661 h -20.5438 v 9.34777 h -7.8844 v -16.77273 h 40.1519 v 5.69085 c 0,0 -10.7578,11.24181 -14.3129,17.39825 8.7559,0.32291 15.8135,5.91382 18.3471,14.75302 1.4784,4.65382 0.8158,15.29847 -1.1193,19.88661 -3.2322,7.64772 -12.0607,13.85303 -20.1315,14.20997 -13.5502,0.91701 -20.7387,-8.64764 -24.3274,-15.72131 z m 0,0"
       id="path4878"
       style="fill:#d40000;fill-opacity:1;stroke-width:1;stroke-miterlimit:4;stroke-dasharray:none"
       inkscape:connector-curvature="0" />
    <path
       d="m 1615.1249,940.53465 c 4.9006,8.0294 10.0569,15.8335 16.5001,22.5001 -6.4432,6.6663 -11.5995,14.4704 -16.5001,22.5 -4.9008,-8.0296 -10.0566,-15.8337 -16.4999,-22.5 6.4433,-6.6666 11.5991,-14.4707 16.4999,-22.5001 z"
       id="path5005"
       style="display:inline;fill:#d40000"
       inkscape:connector-curvature="0" />
  </g>
</svg>
