<?xml version="1.0" encoding="UTF-8" standalone="no"?>
<!-- Created with Inkscape (http://www.inkscape.org/) -->

<svg
   id="svg10047"
   height="122.997"
   width="78.997345"
   version="1.1"
   viewBox="0 0 78.997345 122.997"
   inkscape:version="0.91 r13725"
   sodipodi:docname="ramino-stretch.svgz"
   xmlns:inkscape="http://www.inkscape.org/namespaces/inkscape"
   xmlns:sodipodi="http://sodipodi.sourceforge.net/DTD/sodipodi-0.dtd"
   xmlns="http://www.w3.org/2000/svg"
   xmlns:svg="http://www.w3.org/2000/svg"
   xmlns:rdf="http://www.w3.org/1999/02/22-rdf-syntax-ns#"
   xmlns:cc="http://creativecommons.org/ns#"
   xmlns:dc="http://purl.org/dc/elements/1.1/">
  <sodipodi:namedview
     pagecolor="#ffffff"
     bordercolor="#666666"
     borderopacity="1"
     objecttolerance="10"
     gridtolerance="10"
     guidetolerance="10"
     inkscape:pageopacity="0"
     inkscape:pageshadow="2"
     inkscape:window-width="1920"
     inkscape:window-height="1016"
     id="namedview1491"
     showgrid="false"
     inkscape:zoom="1.3479675"
     inkscape:cx="513.5"
     inkscape:cy="307.5"
     inkscape:window-x="0"
     inkscape:window-y="0"
     inkscape:window-maximized="1"
     inkscape:current-layer="svg10047"
     showguides="false"
     inkscape:guide-bbox="true"
     inkscape:snap-grids="true"
     inkscape:showpageshadow="2"
     inkscape:pagecheckerboard="0"
     inkscape:deskcolor="#d1d1d1" />
  <metadata
     id="metadata16869">
    <rdf:RDF>
      <cc:Work
         rdf:about="">
        <dc:format>image/svg+xml</dc:format>
        <dc:type
           rdf:resource="http://purl.org/dc/dcmitype/StillImage" />
        <dc:title />
      </cc:Work>
    </rdf:RDF>
  </metadata>
  <defs
     id="defs10049" />
  <g
     id="diamond_7"
     transform="matrix(0.16457785,0,0,0.18222964,-587.48119,-150.34576)"
     inkscape:label="#diamond_7">
    <rect
       width="478.65829"
       height="673.6145"
       rx="22.895481"
       ry="23.037773"
       x="3570.2957"
       y="825.70538"
       id="rect6826-9"
       style="display:inline;fill:#ffffff;fill-opacity:1;stroke:#000000;stroke-width:1.34157;stroke-miterlimit:4;stroke-dasharray:none;stroke-opacity:1" />
    <path
       inkscape:connector-curvature="0"
       style="display:inline;fill:#d40000"
       id="path8389"
       d="m 3604.1249,940.53465 c 4.9006,8.0294 10.0569,15.8335 16.5001,22.5001 -6.4432,6.6663 -11.5995,14.4704 -16.5001,22.5 -4.9008,-8.0296 -10.0566,-15.8337 -16.4999,-22.5 6.4433,-6.6666 11.5991,-14.4707 16.4999,-22.5001 z" />
    <path
       inkscape:connector-curvature="0"
       style="display:inline;fill:#d40000"
       id="path8391"
       d="m 4015.125,1339.5348 c 4.9006,8.0293 10.0569,15.8335 16.5001,22.5 -6.4432,6.6664 -11.5995,14.4705 -16.5001,22.5 -4.9008,-8.0295 -10.0566,-15.8336 -16.4999,-22.5 6.4433,-6.6665 11.5991,-14.4707 16.4999,-22.5 z" />
    <path
       inkscape:connector-curvature="0"
       style="display:inline;fill:#d40000"
       id="path8393"
       d="m 3922.125,894.03475 c 11.1383,18.7355 22.8564,36.9449 37.5003,52.5 -14.6439,15.5548 -26.362,33.7642 -37.5003,52.5 -11.138,-18.7358 -22.8559,-36.9452 -37.4998,-52.5 14.6439,-15.5551 26.3618,-33.7645 37.4998,-52.5 z" />
    <path
       d="m 3697.125,894.03475 c 11.1383,18.7355 22.8564,36.9449 37.5003,52.5 -14.6439,15.5548 -26.362,33.7642 -37.5003,52.5 -11.138,-18.7358 -22.8559,-36.9452 -37.4998,-52.5 14.6439,-15.5551 26.3618,-33.7645 37.4998,-52.5 z"
       id="path8395"
       style="display:inline;fill:#d40000"
       inkscape:connector-curvature="0" />
    <path
       d="m 3922.125,1326.0348 c 11.1383,18.7355 22.8564,36.9449 37.5003,52.5 -14.6439,15.5548 -26.362,33.7642 -37.5003,52.5 -11.138,-18.7358 -22.8559,-36.9452 -37.4998,-52.5 14.6439,-15.5551 26.3618,-33.7645 37.4998,-52.5 z"
       id="path8397"
       style="display:inline;fill:#d40000"
       inkscape:connector-curvature="0" />
    <path
       inkscape:connector-curvature="0"
       style="display:inline;fill:#d40000"
       id="path8399"
       d="m 3697.125,1326.0348 c 11.1383,18.7355 22.8564,36.9449 37.5003,52.5 -14.6439,15.5548 -26.362,33.7642 -37.5003,52.5 -11.138,-18.7358 -22.8559,-36.9452 -37.4998,-52.5 14.6439,-15.5551 26.3618,-33.7645 37.4998,-52.5 z" />
    <path
       d="m 3922.125,1110.0348 c 11.1383,18.7355 22.8564,36.9449 37.5003,52.5 -14.6439,15.5548 -26.362,33.7642 -37.5003,52.5 -11.138,-18.7358 -22.8559,-36.9452 -37.4998,-52.5 14.6439,-15.5551 26.3618,-33.7645 37.4998,-52.5 z"
       id="path8401"
       style="display:inline;fill:#d40000"
       inkscape:connector-curvature="0" />
    <path
       inkscape:connector-curvature="0"
       style="display:inline;fill:#d40000"
       id="path8403"
       d="m 3697.125,1110.0348 c 11.1383,18.7355 22.8564,36.9449 37.5003,52.5 -14.6439,15.5548 -26.362,33.7642 -37.5003,52.5 -11.138,-18.7358 -22.8559,-36.9452 -37.4998,-52.5 14.6439,-15.5551 26.3618,-33.7645 37.4998,-52.5 z" />
    <path
       d="m 3809.625,1002.0348 c 11.1383,18.7355 22.8564,36.9449 37.5003,52.5 -14.6439,15.5548 -26.362,33.7642 -37.5003,52.5 -11.138,-18.7358 -22.8559,-36.9452 -37.4998,-52.5 14.6439,-15.5551 26.3618,-33.7645 37.4998,-52.5 z"
       id="path8405"
       style="display:inline;fill:#d40000"
       inkscape:connector-curvature="0" />
    <path
       inkscape:connector-curvature="0"
       style="fill:#d40000;fill-opacity:1;stroke-width:1;stroke-miterlimit:4;stroke-dasharray:none"
       id="path8567"
       d="m 3593.3216,927.02685 c 4.6996,-25.0326 9.7025,-43.8255 22.8378,-64.2211 h -26.6992 v 8.7792 h -7.0884 v -16.5502 h 39.0522 l 4.8166,7.771 c -13.9511,15.3445 -26.7189,64.9468 -24.4582,64.2211 z m 0,0" />
    <path
       inkscape:connector-curvature="0"
       style="fill:#d40000;fill-opacity:1;stroke-width:1;stroke-miterlimit:4;stroke-dasharray:none"
       id="path8589"
       d="m 4026.4148,1398.0427 c -4.6996,25.0326 -9.7025,43.8255 -22.8378,64.2211 h 26.6992 v -8.7792 h 7.0884 v 16.5502 h -39.0522 l -4.8166,-7.771 c 13.9511,-15.3445 26.7189,-64.9468 24.4582,-64.2211 z m 0,0" />
    <path
       d="m 3615.4171,1398.0427 c -4.6996,25.0326 -9.7025,43.8255 -22.8378,64.2211 h 26.6992 v -8.7792 h 7.0884 v 16.5502 h -39.0522 l -4.8166,-7.771 c 13.9511,-15.3445 26.7189,-64.9468 24.4582,-64.2211 z m 0,0"
       id="path4670"
       style="fill:#d40000;fill-opacity:1;stroke-width:1;stroke-miterlimit:4;stroke-dasharray:none"
       inkscape:connector-curvature="0" />
    <path
       d="m 3604.1251,1339.5348 c 4.9006,8.0293 10.0569,15.8335 16.5001,22.5 -6.4432,6.6664 -11.5995,14.4705 -16.5001,22.5 -4.9008,-8.0295 -10.0566,-15.8336 -16.4999,-22.5 6.4433,-6.6665 11.5991,-14.4707 16.4999,-22.5 z"
       id="path4786-7"
       style="display:inline;fill:#d40000"
       inkscape:connector-curvature="0" />
    <path
       d="m 4004.4479,927.02694 c 4.6996,-25.03265 9.7025,-43.82551 22.8378,-64.22114 h -26.6992 v 8.77919 h -7.0884 v -16.55017 h 39.0522 l 4.8166,7.77098 c -13.9511,15.34451 -26.7189,64.94681 -24.4582,64.22114 z m 0,0"
       id="path4870-4"
       style="fill:#d40000;fill-opacity:1;stroke-width:1;stroke-miterlimit:4;stroke-dasharray:none"
       inkscape:connector-curvature="0" />
    <path
       d="m 4015.125,940.53465 c 4.9006,8.0294 10.0569,15.8335 16.5001,22.5001 -6.4432,6.6663 -11.5995,14.4704 -16.5001,22.5 -4.9008,-8.0296 -10.0566,-15.8337 -16.4999,-22.5 6.4433,-6.6666 11.5991,-14.4707 16.4999,-22.5001 z"
       id="path4997"
       style="display:inline;fill:#d40000"
       inkscape:connector-curvature="0" />
  </g>
</svg>
