<?xml version="1.0" encoding="UTF-8" standalone="no"?>
<!-- Created with Inkscape (http://www.inkscape.org/) -->

<svg
   id="svg10047"
   height="123.0041"
   width="78.99836"
   version="1.1"
   viewBox="0 0 78.99836 123.0041"
   inkscape:version="0.91 r13725"
   sodipodi:docname="ramino-stretch.svgz"
   xmlns:inkscape="http://www.inkscape.org/namespaces/inkscape"
   xmlns:sodipodi="http://sodipodi.sourceforge.net/DTD/sodipodi-0.dtd"
   xmlns="http://www.w3.org/2000/svg"
   xmlns:svg="http://www.w3.org/2000/svg"
   xmlns:rdf="http://www.w3.org/1999/02/22-rdf-syntax-ns#"
   xmlns:cc="http://creativecommons.org/ns#"
   xmlns:dc="http://purl.org/dc/elements/1.1/">
  <sodipodi:namedview
     pagecolor="#ffffff"
     bordercolor="#666666"
     borderopacity="1"
     objecttolerance="10"
     gridtolerance="10"
     guidetolerance="10"
     inkscape:pageopacity="0"
     inkscape:pageshadow="2"
     inkscape:window-width="1920"
     inkscape:window-height="1016"
     id="namedview1491"
     showgrid="false"
     inkscape:zoom="1.3479675"
     inkscape:cx="513.5"
     inkscape:cy="307.5"
     inkscape:window-x="0"
     inkscape:window-y="0"
     inkscape:window-maximized="1"
     inkscape:current-layer="svg10047"
     showguides="false"
     inkscape:guide-bbox="true"
     inkscape:snap-grids="true"
     inkscape:showpageshadow="2"
     inkscape:pagecheckerboard="0"
     inkscape:deskcolor="#d1d1d1" />
  <metadata
     id="metadata16869">
    <rdf:RDF>
      <cc:Work
         rdf:about="">
        <dc:format>image/svg+xml</dc:format>
        <dc:type
           rdf:resource="http://purl.org/dc/dcmitype/StillImage" />
        <dc:title />
      </cc:Work>
    </rdf:RDF>
  </metadata>
  <defs
     id="defs10049" />
  <g
     id="diamond_2"
     transform="matrix(0.16457785,0,0,0.18222964,-93.747652,-150.3387)"
     inkscape:label="#diamond_2">
    <rect
       transform="scale(-1)"
       width="478.66443"
       height="673.65338"
       rx="22.895775"
       ry="23.039103"
       x="-1048.9602"
       y="-1499.3201"
       id="rect6486-8"
       style="display:inline;fill:#ffffff;fill-opacity:1;stroke:#000000;stroke-width:1.34162;stroke-miterlimit:4;stroke-dasharray:none;stroke-opacity:1" />
    <path
       inkscape:connector-curvature="0"
       style="display:inline;fill:#d40000"
       id="path8501"
       d="m 809.62468,894.03475 c 11.1383,18.7355 22.8564,36.9449 37.5003,52.5 -14.6439,15.5548 -26.362,33.7642 -37.5003,52.5 -11.138,-18.7358 -22.8559,-36.9452 -37.4998,-52.5 14.6439,-15.5551 26.3618,-33.7645 37.4998,-52.5 z" />
    <path
       d="m 809.62468,1326.0348 c 11.1383,18.7355 22.8564,36.9449 37.5003,52.5 -14.6439,15.5548 -26.362,33.7642 -37.5003,52.5 -11.138,-18.7358 -22.8559,-36.9452 -37.4998,-52.5 14.6439,-15.5551 26.3618,-33.7645 37.4998,-52.5 z"
       id="path8503"
       style="display:inline;fill:#d40000"
       inkscape:connector-curvature="0" />
    <path
       inkscape:connector-curvature="0"
       style="display:inline;fill:#d40000"
       id="path8513"
       d="m 604.12476,940.53465 c 4.9006,8.0294 10.0569,15.8335 16.5001,22.5001 -6.4432,6.6663 -11.5995,14.4704 -16.5001,22.5 -4.9008,-8.0296 -10.0566,-15.8337 -16.4999,-22.5 6.4433,-6.6666 11.5991,-14.4707 16.4999,-22.5001 z" />
    <path
       inkscape:connector-curvature="0"
       style="display:inline;fill:#d40000"
       id="path8517"
       d="m 1015.1248,1339.5348 c 4.9006,8.0293 10.0569,15.8335 16.5001,22.5 -6.4432,6.6664 -11.5995,14.4705 -16.5001,22.5 -4.9008,-8.0295 -10.0566,-15.8336 -16.49993,-22.5 6.44333,-6.6665 11.59913,-14.4707 16.49993,-22.5 z" />
    <path
       inkscape:connector-curvature="0"
       style="fill:#d40000;fill-opacity:1"
       id="path8577"
       d="m 583.80062,926.88045 0.34821,-4.44 c 1.09963,-13.7197 4.0256,-18.3482 20.62175,-32.671 8.05727,-6.9427 10.69936,-10.3684 11.06965,-14.3428 1.05524,-9.3742 -7.17743,-12.2998 -12.53957,-12.3428 -6.9492,-0.063 -14.81158,4.1972 -11.05861,14.1 l -7.79829,2.3514 c -1.56735,-9.237 0.0454,-17.9027 7.34181,-21.7484 9.74439,-5.0143 22.23936,-3.0484 28.54823,4.8515 4.2402,5.2998 5.20903,12.634 2.93442,18.374 -6.6456,14.6627 -29.18855,21.1141 -31.04847,38.0797 h 24.915 v -9.4458 h 7.34181 v 17.3885 l -40.67594,-0.1549 z m 0,0" />
    <path
       inkscape:connector-curvature="0"
       style="fill:#d40000;fill-opacity:1"
       id="path8599"
       d="m 1035.6006,1398.189 -0.3482,4.4401 c -1.0996,13.7197 -4.0256,18.3482 -20.6218,32.671 -8.0572,6.9427 -10.6993,10.3684 -11.0696,14.3428 -1.0553,9.3742 7.1774,12.2998 12.5396,12.3428 6.9492,0.063 14.8115,-4.1972 11.0586,-14.1 l 7.7983,-2.3514 c 1.5673,9.237 -0.045,17.9027 -7.3418,21.7484 -9.7444,5.0143 -22.2394,3.0484 -28.5483,-4.8515 -4.2402,-5.2999 -5.20902,-12.634 -2.93442,-18.374 6.64562,-14.6627 29.18862,-21.1141 31.04852,-38.0797 h -24.9151 v 9.4457 h -7.34176 v -17.3884 l 40.67596,0.1549 z m 0,0" />
    <path
       d="m 624.60069,1398.1891 -0.3482,4.44 c -1.0996,13.7197 -4.0256,18.3482 -20.6218,32.671 -8.0572,6.9428 -10.6993,10.3684 -11.0696,14.3428 -1.0552,9.3742 7.1774,12.2998 12.5396,12.3428 6.9492,0.063 14.8115,-4.1971 11.0586,-14.1 l 7.7983,-2.3513 c 1.5673,9.2369 -0.045,17.9027 -7.3418,21.7483 -9.7444,5.0143 -22.2394,3.0485 -28.54826,-4.8515 -4.2402,-5.2998 -5.20902,-12.634 -2.93442,-18.3739 6.64558,-14.6627 29.18858,-21.1142 31.04848,-38.0798 h -24.915 v 9.4458 h -7.34182 v -17.3885 l 40.67592,0.1549 z m 0,0"
       id="path4680"
       style="fill:#d40000;fill-opacity:1"
       inkscape:connector-curvature="0" />
    <path
       d="m 604.12493,1339.5348 c 4.9006,8.0293 10.0569,15.8335 16.5001,22.5 -6.4432,6.6664 -11.5995,14.4705 -16.5001,22.5 -4.9008,-8.0295 -10.0566,-15.8336 -16.49993,-22.5 6.44333,-6.6665 11.59913,-14.4707 16.49993,-22.5 z"
       id="path4796-6"
       style="display:inline;fill:#d40000"
       inkscape:connector-curvature="0" />
    <path
       d="m 994.92476,926.88057 0.34821,-4.44001 c 1.09963,-13.71972 4.0256,-18.34823 20.62173,-32.671 8.0573,-6.94277 10.6994,-10.36844 11.0697,-14.34285 1.0552,-9.37419 -7.1775,-12.29978 -12.5396,-12.34277 -6.9492,-0.0632 -14.81158,4.19716 -11.0586,14.10001 l -7.7983,2.35135 c -1.56735,-9.23695 0.0454,-17.9027 7.3418,-21.74838 9.7444,-5.01426 22.2394,-3.04843 28.5482,4.8515 4.2402,5.29985 5.2091,12.63404 2.9345,18.37397 -6.6456,14.6627 -29.1886,21.11412 -31.0485,38.07973 h 24.915 v -9.44575 h 7.3418 v 17.38845 l -40.67594,-0.15491 z m 0,0"
       id="path4880-8"
       style="fill:#d40000;fill-opacity:1"
       inkscape:connector-curvature="0" />
    <path
       d="m 1015.1249,940.53465 c 4.9006,8.0294 10.0569,15.8335 16.5001,22.5001 -6.4432,6.6663 -11.5995,14.4704 -16.5001,22.5 -4.9008,-8.0296 -10.0566,-15.8337 -16.4999,-22.5 6.4433,-6.6666 11.5991,-14.4707 16.4999,-22.5001 z"
       id="path5007"
       style="display:inline;fill:#d40000"
       inkscape:connector-curvature="0" />
  </g>
</svg>
