<?xml version="1.0" encoding="UTF-8" standalone="no"?>
<!-- Created with Inkscape (http://www.inkscape.org/) -->

<svg
   id="svg10047"
   height="123.00014"
   width="78.997345"
   version="1.1"
   viewBox="0 0 78.997345 123.00014"
   inkscape:version="0.91 r13725"
   sodipodi:docname="ramino-stretch.svgz"
   xmlns:inkscape="http://www.inkscape.org/namespaces/inkscape"
   xmlns:sodipodi="http://sodipodi.sourceforge.net/DTD/sodipodi-0.dtd"
   xmlns="http://www.w3.org/2000/svg"
   xmlns:svg="http://www.w3.org/2000/svg"
   xmlns:rdf="http://www.w3.org/1999/02/22-rdf-syntax-ns#"
   xmlns:cc="http://creativecommons.org/ns#"
   xmlns:dc="http://purl.org/dc/elements/1.1/">
  <sodipodi:namedview
     pagecolor="#ffffff"
     bordercolor="#666666"
     borderopacity="1"
     objecttolerance="10"
     gridtolerance="10"
     guidetolerance="10"
     inkscape:pageopacity="0"
     inkscape:pageshadow="2"
     inkscape:window-width="1920"
     inkscape:window-height="1016"
     id="namedview1491"
     showgrid="false"
     inkscape:zoom="1.3479675"
     inkscape:cx="513.5"
     inkscape:cy="307.5"
     inkscape:window-x="0"
     inkscape:window-y="0"
     inkscape:window-maximized="1"
     inkscape:current-layer="svg10047"
     showguides="false"
     inkscape:guide-bbox="true"
     inkscape:snap-grids="true"
     inkscape:showpageshadow="2"
     inkscape:pagecheckerboard="0"
     inkscape:deskcolor="#d1d1d1" />
  <metadata
     id="metadata16869">
    <rdf:RDF>
      <cc:Work
         rdf:about="">
        <dc:format>image/svg+xml</dc:format>
        <dc:type
           rdf:resource="http://purl.org/dc/dcmitype/StillImage" />
        <dc:title />
      </cc:Work>
    </rdf:RDF>
  </metadata>
  <defs
     id="defs10049" />
  <g
     id="diamond_6"
     transform="matrix(0.16457785,0,0,0.18222964,-488.7345,-150.34261)"
     inkscape:label="#diamond_6">
    <rect
       transform="scale(-1)"
       width="478.65829"
       height="673.63171"
       rx="22.895481"
       ry="23.038363"
       x="-3448.9541"
       y="-1499.3198"
       id="rect6758-6"
       style="display:inline;fill:#ffffff;fill-opacity:1;stroke:#000000;stroke-width:1.34159;stroke-miterlimit:4;stroke-dasharray:none;stroke-opacity:1" />
    <path
       d="m 3004.1249,940.53465 c 4.9006,8.0294 10.0569,15.8335 16.5001,22.5001 -6.4432,6.6663 -11.5995,14.4704 -16.5001,22.5 -4.9008,-8.0296 -10.0566,-15.8337 -16.4999,-22.5 6.4433,-6.6666 11.5991,-14.4707 16.4999,-22.5001 z"
       id="path8409"
       style="display:inline;fill:#d40000"
       inkscape:connector-curvature="0" />
    <path
       d="m 3415.125,1339.5348 c 4.9006,8.0293 10.0569,15.8335 16.5001,22.5 -6.4432,6.6664 -11.5995,14.4705 -16.5001,22.5 -4.9008,-8.0295 -10.0566,-15.8336 -16.4999,-22.5 6.4433,-6.6665 11.5991,-14.4707 16.4999,-22.5 z"
       id="path8411"
       style="display:inline;fill:#d40000"
       inkscape:connector-curvature="0" />
    <path
       d="m 3322.125,894.03475 c 11.1383,18.7355 22.8564,36.9449 37.5003,52.5 -14.6439,15.5548 -26.362,33.7642 -37.5003,52.5 -11.138,-18.7358 -22.8559,-36.9452 -37.4998,-52.5 14.6439,-15.5551 26.3618,-33.7645 37.4998,-52.5 z"
       id="path8413"
       style="display:inline;fill:#d40000"
       inkscape:connector-curvature="0" />
    <path
       inkscape:connector-curvature="0"
       style="display:inline;fill:#d40000"
       id="path8415"
       d="m 3097.125,894.03475 c 11.1383,18.7355 22.8564,36.9449 37.5003,52.5 -14.6439,15.5548 -26.362,33.7642 -37.5003,52.5 -11.138,-18.7358 -22.8559,-36.9452 -37.4998,-52.5 14.6439,-15.5551 26.3618,-33.7645 37.4998,-52.5 z" />
    <path
       inkscape:connector-curvature="0"
       style="display:inline;fill:#d40000"
       id="path8417"
       d="m 3322.125,1326.0348 c 11.1383,18.7355 22.8564,36.9449 37.5003,52.5 -14.6439,15.5548 -26.362,33.7642 -37.5003,52.5 -11.138,-18.7358 -22.8559,-36.9452 -37.4998,-52.5 14.6439,-15.5551 26.3618,-33.7645 37.4998,-52.5 z" />
    <path
       d="m 3097.125,1326.0348 c 11.1383,18.7355 22.8564,36.9449 37.5003,52.5 -14.6439,15.5548 -26.362,33.7642 -37.5003,52.5 -11.138,-18.7358 -22.8559,-36.9452 -37.4998,-52.5 14.6439,-15.5551 26.3618,-33.7645 37.4998,-52.5 z"
       id="path8419"
       style="display:inline;fill:#d40000"
       inkscape:connector-curvature="0" />
    <path
       inkscape:connector-curvature="0"
       style="display:inline;fill:#d40000"
       id="path8421"
       d="m 3322.125,1110.0348 c 11.1383,18.7355 22.8564,36.9449 37.5003,52.5 -14.6439,15.5548 -26.362,33.7642 -37.5003,52.5 -11.138,-18.7358 -22.8559,-36.9452 -37.4998,-52.5 14.6439,-15.5551 26.3618,-33.7645 37.4998,-52.5 z" />
    <path
       d="m 3097.125,1110.0348 c 11.1383,18.7355 22.8564,36.9449 37.5003,52.5 -14.6439,15.5548 -26.362,33.7642 -37.5003,52.5 -11.138,-18.7358 -22.8559,-36.9452 -37.4998,-52.5 14.6439,-15.5551 26.3618,-33.7645 37.4998,-52.5 z"
       id="path8423"
       style="display:inline;fill:#d40000"
       inkscape:connector-curvature="0" />
    <path
       inkscape:connector-curvature="0"
       style="fill:#d40000;fill-opacity:1;stroke-width:1;stroke-miterlimit:4;stroke-dasharray:none"
       id="path8569"
       d="m 2982.7123,904.88455 c -0.8799,-6.0601 -0.8575,-21.7258 -0.1386,-26.36 2.219,-14.1971 7.6006,-20.694 16.6154,-22.8141 8.7562,-2.0658 21.0565,0.2343 23.7543,12.0999 l -7.3196,0.1418 c -3.9589,-8.0227 -13.9762,-5.8799 -19.6196,-2.3885 -4.5018,2.7799 -6.5371,14.3885 -5.6658,15.1028 0,0 8.514,-6.3542 15.2266,-5.8858 14.3437,1.5057 20.26,14.04 19.7587,25.8742 -0.4565,14.2372 -4.9362,25.6228 -20.1403,26.3799 -14.4552,-0.5629 -21.0785,-8.5029 -22.4704,-22.1513 v 0 z m 35.6505,-3.76 c 0.078,-9.8772 -4.3711,-17.28 -12.7985,-18.0914 -8.4191,-0.8171 -16.9136,7.4628 -16.3262,17.5314 0.5876,10.1113 4.4713,18.617 14.6835,18.5712 10.9833,-0.044 14.3883,-10.9799 14.4412,-18.0112 z m 0,0" />
    <path
       inkscape:connector-curvature="0"
       style="fill:#d40000;fill-opacity:1;stroke-width:1;stroke-miterlimit:4;stroke-dasharray:none"
       id="path8591"
       d="m 3435.8073,1420.185 c 0.8799,6.0601 0.8575,21.7258 0.1386,26.36 -2.219,14.1971 -7.6006,20.694 -16.6154,22.8141 -8.7562,2.0658 -21.0565,-0.2343 -23.7543,-12.0999 l 7.3196,-0.1418 c 3.9589,8.0227 13.9762,5.8799 19.6196,2.3885 4.5018,-2.7799 6.5371,-14.3885 5.6658,-15.1028 0,0 -8.514,6.3542 -15.2266,5.8858 -14.3437,-1.5057 -20.26,-14.04 -19.7587,-25.8742 0.4565,-14.2372 4.9362,-25.6228 20.1403,-26.3799 14.4552,0.5629 21.0785,8.5029 22.4704,22.1513 v 0 z m -35.6505,3.76 c -0.078,9.8772 4.3711,17.28 12.7985,18.0914 8.4191,0.8171 16.9136,-7.4628 16.3262,-17.5314 -0.5876,-10.1113 -4.4713,-18.617 -14.6835,-18.5712 -10.9833,0.044 -14.3883,10.9799 -14.4412,18.0112 z m 0,0" />
    <path
       d="m 3024.8096,1420.185 c 0.8799,6.0601 0.8575,21.7258 0.1386,26.36 -2.219,14.1971 -7.6006,20.694 -16.6154,22.8141 -8.7562,2.0658 -21.0565,-0.2343 -23.7543,-12.0999 l 7.3196,-0.1418 c 3.9589,8.0227 13.9762,5.8799 19.6196,2.3885 4.5018,-2.7799 6.5371,-14.3885 5.6658,-15.1028 0,0 -8.514,6.3542 -15.2266,5.8858 -14.3437,-1.5057 -20.26,-14.04 -19.7587,-25.8742 0.4565,-14.2372 4.9362,-25.6228 20.1403,-26.3799 14.4552,0.5629 21.0785,8.5029 22.4704,22.1513 v 0 z m -35.6505,3.76 c -0.078,9.8772 4.3711,17.28 12.7985,18.0914 8.4191,0.8171 16.9136,-7.4628 16.3262,-17.5314 -0.5876,-10.1113 -4.4713,-18.617 -14.6835,-18.5712 -10.9833,0.044 -14.3883,10.9799 -14.4412,18.0112 z m 0,0"
       id="path4672"
       style="fill:#d40000;fill-opacity:1;stroke-width:1;stroke-miterlimit:4;stroke-dasharray:none"
       inkscape:connector-curvature="0" />
    <path
       inkscape:connector-curvature="0"
       style="display:inline;fill:#d40000"
       id="path4788"
       d="m 3004.1251,1339.5348 c 4.9006,8.0293 10.0569,15.8335 16.5001,22.5 -6.4432,6.6664 -11.5995,14.4705 -16.5001,22.5 -4.9008,-8.0295 -10.0566,-15.8336 -16.4999,-22.5 6.4433,-6.6665 11.5991,-14.4707 16.4999,-22.5 z" />
    <path
       d="m 3393.8386,904.88465 c -0.8799,-6.06009 -0.8575,-21.72579 -0.1386,-26.36005 2.219,-14.19709 7.6006,-20.69399 16.6154,-22.8141 8.7562,-2.06578 21.0565,0.23434 23.7543,12.09991 l -7.3196,0.14182 c -3.9589,-8.02268 -13.9762,-5.87988 -19.6196,-2.38848 -4.5018,2.77989 -6.5371,14.38844 -5.6658,15.10278 0,0 8.514,-6.35421 15.2266,-5.88576 14.3437,1.50569 20.26,14.04 19.7587,25.87414 -0.4565,14.23724 -4.9362,25.62281 -20.1403,26.37991 -14.4552,-0.56292 -21.0785,-8.50289 -22.4704,-22.15126 v 0 z m 35.6505,-3.75999 c 0.078,-9.87724 -4.3711,-17.28004 -12.7985,-18.09147 -8.4191,-0.81711 -16.9136,7.4628 -16.3262,17.5314 0.5876,10.11135 4.4713,18.61708 14.6835,18.57127 10.9833,-0.0436 14.3883,-10.97996 14.4412,-18.0112 z m 0,0"
       id="path4872-4"
       style="fill:#d40000;fill-opacity:1;stroke-width:1;stroke-miterlimit:4;stroke-dasharray:none"
       inkscape:connector-curvature="0" />
    <path
       inkscape:connector-curvature="0"
       style="display:inline;fill:#d40000"
       id="path4999"
       d="m 3415.125,940.53465 c 4.9006,8.0294 10.0569,15.8335 16.5001,22.5001 -6.4432,6.6663 -11.5995,14.4704 -16.5001,22.5 -4.9008,-8.0296 -10.0566,-15.8337 -16.4999,-22.5 6.4433,-6.6666 11.5991,-14.4707 16.4999,-22.5001 z" />
  </g>
</svg>
