<?xml version="1.0" encoding="UTF-8" standalone="no"?>
<!-- Created with Inkscape (http://www.inkscape.org/) -->

<svg
   id="svg10047"
   height="122.997"
   width="78.997345"
   version="1.1"
   viewBox="0 0 78.997345 122.997"
   inkscape:version="0.91 r13725"
   sodipodi:docname="ramino-stretch.svgz"
   xmlns:inkscape="http://www.inkscape.org/namespaces/inkscape"
   xmlns:sodipodi="http://sodipodi.sourceforge.net/DTD/sodipodi-0.dtd"
   xmlns="http://www.w3.org/2000/svg"
   xmlns:svg="http://www.w3.org/2000/svg"
   xmlns:rdf="http://www.w3.org/1999/02/22-rdf-syntax-ns#"
   xmlns:cc="http://creativecommons.org/ns#"
   xmlns:dc="http://purl.org/dc/elements/1.1/">
  <sodipodi:namedview
     pagecolor="#ffffff"
     bordercolor="#666666"
     borderopacity="1"
     objecttolerance="10"
     gridtolerance="10"
     guidetolerance="10"
     inkscape:pageopacity="0"
     inkscape:pageshadow="2"
     inkscape:window-width="1920"
     inkscape:window-height="1016"
     id="namedview1491"
     showgrid="false"
     inkscape:zoom="1.3479675"
     inkscape:cx="513.5"
     inkscape:cy="307.5"
     inkscape:window-x="0"
     inkscape:window-y="0"
     inkscape:window-maximized="1"
     inkscape:current-layer="svg10047"
     showguides="false"
     inkscape:guide-bbox="true"
     inkscape:snap-grids="true"
     inkscape:showpageshadow="2"
     inkscape:pagecheckerboard="0"
     inkscape:deskcolor="#d1d1d1" />
  <metadata
     id="metadata16869">
    <rdf:RDF>
      <cc:Work
         rdf:about="">
        <dc:format>image/svg+xml</dc:format>
        <dc:type
           rdf:resource="http://purl.org/dc/dcmitype/StillImage" />
        <dc:title />
      </cc:Work>
    </rdf:RDF>
  </metadata>
  <defs
     id="defs10049" />
  <g
     id="diamond_queen"
     transform="matrix(0.16457785,0,0,0.18222964,-1081.2148,-150.34588)"
     inkscape:label="#diamond_queen">
    <rect
       transform="scale(-1)"
       width="478.65829"
       height="673.6145"
       rx="22.895481"
       ry="23.037773"
       x="-7048.9546"
       y="-1499.3206"
       id="rect7166-7"
       style="display:inline;fill:#ffffff;fill-opacity:1;stroke:#000000;stroke-width:1.34157;stroke-miterlimit:4;stroke-dasharray:none;stroke-opacity:1" />
    <path
       d="m 6588.114,903.30055 h -5.9134 v -8.122 h 5.9134 c 0,0 0.045,-4.3764 0.2151,-12.0965 0.3666,-16.4559 0.7745,-19.0105 5.5025,-23.5396 9.3374,-8.9507 24.9742,-1.6577 24.7893,11.8023 -0.2701,18.9964 -0.075,37.1071 -0.6257,39.6731 -0.9788,4.5177 -1.0779,4.7724 -0.6782,5.5983 0.8187,1.6578 7.8819,2.3764 7.8819,1.9123 v 8.0004 c -5.3952,0.4215 -7.6366,-0.089 -11.9536,-3.1939 -2.6934,2.6197 -10.8978,5.2505 -17.4232,2.1556 -4.9624,-2.3537 -8.7228,-8.433 -7.7081,-22.19 z m 19.987,14.1784 c -2.9305,-4.266 -7.8625,-10.0878 -12.5023,-12.1557 -0.2895,4.9052 0.1308,9.0185 1.8417,11.2307 2.7236,3.522 7.1264,4.3282 10.6606,0.925 z m 2.4316,-46.9206 c -2.1751,-6.2066 -7.7633,-8.3114 -11.8462,-4.4271 -2.5527,2.4159 -2.9607,4.959 -3.0159,18.7726 -0.032,8.5207 -0.032,12.1024 -0.032,12.1024 7.9481,2.5969 15.3777,11.9323 15.3142,11.8107 l 0.193,-25.7689 c 0.1544,-4.1811 -0.051,-8.368 -0.6119,-12.4897 v 0 z m 0,0"
       id="path37-3-27-1-5"
       style="fill:#d40000;fill-opacity:1"
       inkscape:connector-curvature="0" />
    <path
       inkscape:connector-curvature="0"
       style="display:inline;fill:#d40000"
       id="path8642"
       d="m 6697.1249,894.03475 c 11.1383,18.7355 22.8564,36.9449 37.5003,52.5 -14.6439,15.5548 -26.362,33.7642 -37.5003,52.5 -11.138,-18.7358 -22.8559,-36.9452 -37.4998,-52.5 14.6439,-15.5551 26.3618,-33.7645 37.4998,-52.5 z" />
    <path
       inkscape:connector-curvature="0"
       style="display:inline;fill:#d40000"
       id="path8648"
       d="m 6922.1249,1326.0348 c 11.1383,18.7355 22.8564,36.9449 37.5003,52.5 -14.6439,15.5548 -26.362,33.7642 -37.5003,52.5 -11.138,-18.7358 -22.8559,-36.9452 -37.4998,-52.5 14.6439,-15.5551 26.3618,-33.7645 37.4998,-52.5 z" />
    <path
       inkscape:connector-curvature="0"
       style="fill:#d40000;fill-opacity:1;stroke-width:1;stroke-miterlimit:4;stroke-dasharray:none"
       id="path8652"
       d="m 7030.8267,1421.8596 h 5.9718 v 8.2025 h -5.9718 c 0,0 -0.046,4.4199 -0.2175,12.2169 -0.3703,16.6195 -0.7822,19.1995 -5.5571,23.7737 -9.4295,9.0397 -25.2207,1.6741 -25.0341,-11.9197 0.273,-19.1853 0.075,-37.4762 0.6318,-40.0675 0.9886,-4.5629 1.0888,-4.8201 0.6849,-5.6542 -0.8267,-1.6743 -7.9596,-2.4 -7.9596,-1.9313 v -8.08 c 5.4486,-0.4256 7.712,0.09 12.0715,3.2256 2.7201,-2.6456 11.0056,-5.3027 17.5954,-2.177 5.0116,2.3771 8.8089,8.5169 7.7842,22.411 v 0 z m -20.1845,-14.3197 c 2.9596,4.3084 7.9404,10.1882 12.6258,12.2769 0.2924,-4.9543 -0.1326,-9.1085 -1.8599,-11.3427 -2.7504,-3.557 -7.1967,-4.3712 -10.7659,-0.9342 z m -2.4554,47.3873 c 2.1966,6.2684 7.8398,8.3941 11.9629,4.4714 2.5781,-2.4401 2.9903,-5.0086 3.0459,-18.9595 0.032,-8.6056 0.032,-12.2226 0.032,-12.2226 -8.0266,-2.6227 -15.5296,-12.0512 -15.4654,-11.9284 l -0.1958,26.0251 c -0.1566,4.2227 0.053,8.4513 0.618,12.614 v 0 z m 0,0" />
    <path
       d="m 6604.1251,940.53465 c 4.9006,8.0294 10.0569,15.8335 16.5001,22.5001 -6.4432,6.6663 -11.5995,14.4704 -16.5001,22.5 -4.9008,-8.0296 -10.0566,-15.8337 -16.4999,-22.5 6.4433,-6.6666 11.5991,-14.4707 16.4999,-22.5001 z"
       id="path8660"
       style="display:inline;fill:#d40000"
       inkscape:connector-curvature="0" />
    <path
       d="m 7015.125,1339.5348 c 4.9006,8.0293 10.0569,15.8335 16.5001,22.5 -6.4432,6.6664 -11.5995,14.4705 -16.5001,22.5 -4.9008,-8.0295 -10.0566,-15.8336 -16.4999,-22.5 6.4433,-6.6665 11.5991,-14.4707 16.4999,-22.5 z"
       id="path8689"
       style="display:inline;fill:#d40000"
       inkscape:connector-curvature="0" />
    <path
       d="m 6747.3696,1443.2797 c 0,0 -54.7395,-79.5744 -73.3041,-93.6976 -1.3651,-0.6441 -24.2531,3.7527 -24.2531,3.7527 11.7313,28.2451 19.2775,57.4671 11.6647,90.2286 z m -30.4168,-125.8496 c 37.7372,-10.7122 75.404,-20.786 116.3143,-3.3245 l 44.6777,-43.412 c 0.371,-1.1195 -53.9732,-24.7306 -54.8891,-21.9676 26.6422,-72.1118 -14.8961,-85.2046 -41.3418,-5.882 -34.618,4.5593 -76.1469,9.2808 -110.4706,33.2453 29.7108,17.9588 45.7405,41.5544 45.7095,41.3408 z m 226.9789,-12.8371 c 14.3027,8.8272 25.4822,-9.3401 15.0093,-18.4117 1.2311,-5.2993 1.6487,-13.1866 -3.4494,-16.6518 -4.6844,-2.9782 -13.4218,0.1107 -14.6831,0.078 -0.091,0 -0.2265,-9.5388 0.5017,-9.5143 1.3549,0.046 6.4694,4.4274 9.6241,5.3786 10.6602,3.2143 25.6547,4.8002 25.3895,4.247 -0.4448,-0.9278 2.6554,-3.1267 -9.2402,-10.6386 -4.4186,-2.7904 -18.3789,0.3524 -29.4973,-3.1748 -6.7739,-2.1489 -12.8593,-5.5774 -16.537,-3.7979 -9.6988,2.6653 -13.4906,15.4089 -12.826,15.3154 0.3238,0.385 29.3279,-7.5051 26.5997,-8.8892 l 0.089,11.0644 c -11.4397,-1.2662 -21.7647,7.0717 -10.5219,21.3668 -8.3727,8.37 3.3391,28.3183 19.5415,13.6282 z m -47.6595,-50.6056 c 28.1349,-28.5232 85.6437,-82.0539 85.6437,-82.0539 l -0.6155,-39.9513 -56.1829,-50.5627 c -4.4507,53.6747 -34.7796,103.7698 -63.6575,128.8301 -2.6523,7.6212 28.6963,41.0637 34.8122,43.7378 z m -200.4547,-9.8671 c 4.239,-33.0038 8.092,-78.0117 63.7645,-128.0411 -9.647,-16.5234 -21.9264,-33.3407 -39.5981,-41.3671 -1.2546,-2.8388 -51.0778,51.8509 -81.7289,77.7083 l 0.1619,35.025 z m 250.9149,-7.0849 c 0.1166,-0.7188 2.1718,-9.3879 2.7018,-9.1585 -0.041,-0.4719 -5.7013,2.1143 -6.341,4.4913 -0.5609,2.0842 -1.8587,4.9083 -1.9436,5.3073 1.276,8.9241 3.6889,2.5859 5.5828,-0.6401 z m 20.8413,-23.073 c 2.0226,-4.9122 3.915,-13.935 3.217,-19.8075 -9.9672,-5.0176 -12.6761,15.8548 -9.9955,17.85 1.6055,0.6822 5.4114,2.0056 6.7785,1.9575 z m -307.8205,-95.6999 c 0.9242,-4.1625 0.7291,-5.3972 -1.1132,-6.2096 -3.2256,-1.4224 -4.6763,0.2955 -7.2671,7.0744 -1.542,4.0347 -2.9162,10.1063 -1.6723,12.5204 6.1137,4.29 9.3447,-10.2413 10.0526,-13.3852 z m 174.3209,-35.0248 c 40.9085,-6.5176 81.8434,-10.5397 114.3307,-36.0263 -3.6608,0.4311 -43.0348,-36.7557 -45.0722,-41.9863 -60.1725,29.5609 -118.6158,7.232 -118.6158,7.232 l -44.0366,42.6835 c -1.6968,0.8084 47.8953,21.3543 57.2382,24.8172 -33.774,91.4306 19.7128,77.6898 36.1557,3.2799 z m -161.033,10.4389 c 2.6748,-2.1692 4.0203,-4.1352 6.1044,-6.9488 l -2.1009,-3.4166 -5.3831,5.9711 z m 38.5365,-38.4696 c -5.6703,2.573 -25.7978,12.3858 -26.6622,10.1174 l 0.4261,-9.8233 c 3.0794,1.0134 22.9528,-2.2904 11.4593,-22.9219 7.2383,-16.3893 -8.8916,-24.8419 -20.1909,-14.0051 -23.6812,-8.171 -20.5111,15.6593 -15.6249,19.5099 -3.8511,6.0158 0.9892,18.8252 3.3982,18.8695 0,0 -20.6649,-4.6854 -18.6442,-0.9852 0.9223,1.6891 2.0763,4.601 6.6688,7.6847 5.2928,3.554 14.5913,2.2641 22.1177,3.8476 8.0455,1.6928 13.2259,4.5871 19.9873,4.9952 10.2057,-0.9355 19.7316,-9.9455 17.0648,-17.2888 z m 230.2943,-77.34655 28.4729,-7.6531 c 0,0 -9.2102,-21.4954 -12.3967,-40.6623 -3.898,-23.4449 -0.7839,-48.9356 -0.7839,-48.9356 l -82.6384,-0.4205 z"
       id="path6307-8-5-8"
       style="fill:#e2cf00;fill-opacity:1;stroke:none"
       inkscape:connector-curvature="0" />
    <path
       d="m 6867.6689,880.48135 c 36.259,52.0477 69.8561,101.5574 114.4625,156.12475 0,0 -0.037,21.0898 -0.1944,42.0073 L 6844.9021,880.99415 Z m -73.4053,84.0361 c 1.168,9.8855 3.1701,21.715 6.049,31.8969 l -25.021,23.72605 c 2.7003,-21.20125 6.8453,-37.46725 18.972,-55.62295 z m -119.5797,74.78065 c -5.5994,-7.48 3.85,-11.6323 7.4182,-8.3035 7.234,6.7489 -3.3625,13.7218 -7.4182,8.3035 z m 248.0873,47.1053 c 4.1516,-2.6761 -7.461,65.2257 -39.3374,100.3181 -19.3886,-55.8539 14.8202,-87.1696 39.3374,-100.3181 z m -157.2604,0.2512 21.1708,5.7469 -9.9678,29.777 c 0,0 -20.4509,-4.6838 -18.7558,-10.8669 5.5186,-20.1288 7.5528,-24.657 7.5528,-24.657 z m 98.0046,11.4464 c -5.7324,9.4786 -10.0848,19.9288 -14.0917,30.6222 l -21.2079,0.4445 10.6569,-29.5101 z m -127.5944,41.786 c 16.385,32.8108 -2.9178,84.7433 -38.5681,99.0376 1.2843,-33.2736 11.5494,-66.9771 38.5681,-99.0376 z m 110.1249,9.3227 c -0.7213,11.6538 0.6062,23.8663 2.2089,34.6896 -22.5987,-5.2367 -47.2323,-8.7417 -74.5183,-9.9897 l -2.6036,-31.4132 c 24.2327,4.4649 48.8886,7.6537 74.913,6.7133 z m -54.127,47.8664 c -2.4122,9.7403 -5.504,19.2756 -9.7175,28.4725 l -25.8202,1.2095 c 0.1339,0.5064 11.0164,-17.2797 13.6237,-30.1187 4.1112,0.438 21.914,0.4367 21.914,0.4367 z m 48.9544,7.7649 c 7.5366,2.6747 17.8412,3.4219 21.8485,9.2835 l -7.8393,24.9836 -23.2181,-7.1633 z m -65.1575,238.3805 -18.1957,0.1747 c 0,0 -87.428,-112.507 -120.1959,-156.289 1.0918,-4.4565 -0.3658,-42.2232 -0.3658,-42.2232 46.4134,65.6914 138.7574,198.3375 138.7574,198.3375 z m 167.6559,-156.9789 c 4.8887,5.2782 -2.8862,9.9551 -6.1188,5.2388 -2.8472,-4.154 3.5405,-8.0224 6.1188,-5.2388 z m -98.0989,18.4464 c -0.2822,26.0718 -18.6653,57.0135 -18.4746,56.2229 0.2138,0.051 -2.6202,-25.4877 -6.153,-33.5241 0.9532,-1.416 23.7582,-24.3328 24.6276,-22.6988 z"
       id="path6309-7-5"
       style="fill:#d40000;fill-opacity:1"
       inkscape:connector-curvature="0" />
    <path
       d="M 6985.8751,1447.5348 V 877.53475 h -352.5 v 570.00005 z m -322.8476,-4.3302 c 2.8674,-31.5625 3.3684,-55.969 -12.9143,-88.7028 2.9414,-3.1021 25.0988,-3.9816 32.0818,-7.6548 0.1273,-0.8817 -1.7935,-2.4071 -1.7935,-2.4071 -7.3051,3.4094 -35.7905,6.5193 -35.7905,6.5193 11.9297,20.9122 21.7436,61.3972 14.3556,92.2454 h -21.3797 v -152.3135 c 0,0 -0.2515,-28.9524 -0.8608,-45.4814 10.9469,14.2278 25.0482,33.7152 34.5278,48.4667 11.5007,16.2714 24.3041,35.3593 37.4517,53.2668 3.8761,5.6419 9.4027,12.962 13.9123,19.5532 7.0803,10.1791 12.935,18.0778 20.278,29.0355 7.8412,11.3457 15.3582,21.6429 24.6788,34.8173 7.9005,11.2129 8.2679,12.6554 8.2679,12.6554 z m 135.0272,0 c -13.3277,-23.2936 -37.1842,-31.4441 -43.1868,-33.0149 l -3.4893,-5.1278 c 28.1262,5.5436 43.1892,23.7037 50.2618,34.9333 0.5501,0.8735 0.4883,3.2094 0.4883,3.2094 z m 13.1914,0 c 3.6861,-8.7957 8.8457,-14.1119 13.7357,-19.4386 l -0.1684,5.6572 c -0.1511,-0.3546 -7.3215,7.909 -9.7903,13.7813 z m -6.4531,0 c 0,0 -0.108,-1.7648 0.3377,-2.9997 2.825,-9.1712 20.3598,-26.5792 19.8554,-23.9705 l 0.1792,4.4906 c 0.078,-0.1931 -13.1724,12.9497 -16.6426,22.4796 z m 12.7518,0 c 1.3667,-2.5601 6.4648,-10.5547 6.9262,-8.4125 l -0.4528,8.4125 z m -40.0622,0 c -2.21,-3.2167 -4.2176,-5.8309 -6.5409,-9.1205 -0.433,-0.6272 -0.6942,-1.3684 -0.5853,-1.6505 0.3527,-0.9137 1.4027,-0.2352 4.305,2.3522 4.7609,4.2441 8.0005,8.4188 8.0005,8.4188 z m 17.7334,0 h -4.3064 c -8.9195,-14.8988 -24.9229,-23.0984 -30.463,-24.8321 -1.4774,-1.6381 -3.0705,-4.6343 -3.6898,-5.2968 14.9374,4.0687 31.6718,17.0319 38.4592,30.1289 z m -10.4726,0 c -4.7505,-6.8942 -12.1941,-11.9264 -16.3872,-15.2256 -2.2548,-1.7776 -5.2322,-5.4076 -4.9539,-6.1282 9.338,2.9679 20.259,13.6403 25.2712,21.3538 z m 18.3075,-4.4647 -2.5956,-4.1553 c 6.2886,-10.4283 14.1749,-19.8229 24.6923,-27.2279 l 0.056,5.4461 c -11.9353,8.6441 -17.0924,17.3306 -22.1536,25.9371 z m -4.2099,-6.0224 c -7.4974,-10.1575 -23.6552,-25.8779 -49.5678,-30.5755 0,0 -1.4711,-1.3368 -3.6176,-4.2761 -2.7232,-3.7286 -2.7661,-3.876 -3.1254,-9.9868 -0.2409,-11.1837 -3.8543,-26.3616 -7.4424,-35.9107 0.4445,-2.3741 0.8591,-3.5833 5.3101,-9.6294 18.5473,-25.1947 58.0609,-49.0248 77.5276,-16.4999 6.4921,10.4201 7.1238,30.3975 7.5356,42.8547 0,0 -0.1231,0.8764 -0.1705,1.1133 -0.4686,2.2614 -1.1113,1.9052 -4.6255,0.9366 -3.5626,-1.5379 -7.2721,-0.2957 -11.0424,0.7359 -4.2928,1.7438 -4.6497,0.3994 -0.5097,-3.4865 1.4316,-1.3439 3.1839,-3.398 2.9995,-3.2992 -0.1835,0.099 -2.5923,1.0878 -3.657,1.9028 -3.308,2.5326 -4.0898,1.5625 -2.8639,-1.2249 5.2007,-11.824 6.1236,-12.2951 -1.1915,-15.5794 -1.525,-0.6847 -2.5661,-1.4495 -3.4214,-2.2005 -5.0018,-4.7342 -3.2056,-2.1839 -1.8072,-0.01 2.1519,3.402 0.2073,5.2001 -3.4263,3.0934 -2.4274,-1.4077 -5.6164,-2.5438 -7.3506,-2.0051 -3.3659,1.1021 -4.3933,4.8103 -3.3946,8.8908 0.7992,2.2568 5.3986,6.2432 4.3378,2.071 -2.7642,0.1251 -5.1514,-3.8174 -2.7491,-6.4862 1.8127,-2.4585 5.0454,-1.1309 10.0033,2.1656 2.7395,2.0708 6.0662,1.0121 5.9371,-1.5349 -0.087,-1.7102 2.3211,-1.317 3.886,0.862 0.8687,1.21 0.2794,4.6937 -1.3531,7.9941 -10.2787,20.7828 -1.6128,40.9354 16.1878,35.2543 1.9572,-0.6247 3.7225,-1.1316 3.7225,-1.1316 l 0.097,7.9507 c -10.2204,7.1627 -21.0615,18.5849 -26.2267,28.0114 z m -10.3924,-37.3115 c 2.6836,-3.2583 1.7323,-6.1585 -4.1603,-3.2378 -4.7984,2.3783 -5.4632,2.6588 -10.693,2.8489 -7.4223,0.2698 -14.0831,-2.1046 -22.3267,-7.1907 -5.4638,-3.3708 -6.2598,-3.6258 -4.7768,-1.5137 4.4132,8.494 30.499,21.3898 41.9568,9.0933 z m 25.2055,-0.9725 c -5.1515,-1.3051 -10.095,-4.7269 -9.234,-6.1444 0.3096,-0.51 0.6089,-0.6071 1.2648,-0.2629 3.7686,1.8721 9.7753,4.9335 18.4593,1.1984 0.9572,-0.4116 1.4887,0.2269 1.4842,1.3877 0,2.2533 -3.7807,4.053 -7.7647,4.1983 -1.4184,0 -2.9641,-0.071 -4.2096,-0.3771 z m -29.9243,-6.5888 c 3.0705,-1.6048 4.1248,-2.4594 5.4295,-1.7423 3.1163,1.7132 2.458,0.3691 0.5227,-3.0801 -1.3659,-2.4339 -1.3527,-2.9343 -1.1499,-4.4258 0.2202,-1.6209 0.1878,-1.6836 -1.3796,-3.4165 -2.9307,-3.873 -5.846,-7.6092 -10.2336,-10.5474 -1.368,-0.9161 -3.196,-1.9582 -3.3339,-1.9625 -0.4368,-0.013 -0.2702,0.337 0.5121,1.1038 5.619,5.4361 10.0506,10.308 4.3288,8.2385 -6.6625,-2.1847 -12.9997,0.5374 -18.1956,2.3143 -2.1182,0.657 -4.3437,1.2111 -4.8956,1.2107 -4.7988,-0.01 -5.933,2.0041 -2.8642,5.067 10.381,11.7076 18.9958,14.4633 31.2593,7.2403 z m -24.6321,-2.1942 c -2.1465,-1.9935 -3.2775,-3.0761 -3.0628,-3.5954 0.2301,-0.5571 1.8824,0.3865 4.6514,1.8712 5.5702,2.9868 11.8854,3.6896 19.7764,1.3982 6.126,-1.779 4.3181,1.0447 -2.5085,3.7004 -5.4658,2.5348 -13.0066,1.7776 -18.8565,-3.3744 z m 57.2046,4.0327 c -4.6794,0.075 -9.5535,-1.4696 -12.8125,-4.2956 -2.2737,-1.9715 -0.6114,-2.4305 3.0835,-0.8936 5.5891,2.3248 10.2986,2.6953 14.8846,0.5362 1.4393,-0.6778 3.0997,-1.4843 3.5537,-1.4403 0.7666,0.5218 1.0927,2.0384 0.4288,3.1118 -1.8436,1.8194 -5.4984,2.9228 -9.1381,2.9815 z m -77.1274,-1.6149 c -0.3434,-0.015 -0.8611,-0.5642 -1.6306,-1.6504 -1.3999,-1.9764 -1.4529,-2.9524 -0.2927,-6.4127 1.4167,-4.2251 1.9852,-3.5396 2.3414,2.3548 0.2311,3.8244 0.2373,5.7368 -0.4181,5.7083 z m -4.6411,-6.3705 c -0.5339,0.076 -1.1566,-0.8708 -2.1532,-2.828 -0.6957,-1.3658 -0.5306,-1.7745 1.6411,-8.1681 0.9089,-2.6759 1.7644,-4.8068 1.7874,-4.8253 0.6685,-0.5295 0.5819,-0.4828 0.8676,-0.1156 1.5488,1.99 1.4378,5.8713 0.1036,10.523 -1.0104,3.5254 -1.5606,5.316 -2.2474,5.4139 z m 42.166,-0.4837 c -0.1685,0.015 -1.2067,-0.2128 -1.2067,-0.2128 0.108,-9.4702 -7.1743,-7.5651 -8.1381,-0.8384 0,0 -1.7966,0.1861 -2.0713,-0.2623 -0.8629,-1.4084 1.1411,-5.4598 4.1384,-6.7855 2.1876,-0.9819 5.1603,-0.7427 6.9363,0.9016 0.4968,0.9264 2.0018,4.4451 1.7212,5.9044 -0.3498,0.8521 -0.874,1.2492 -1.3798,1.293 z m 4.3388,-1.1063 c -0.076,0 -0.1447,0 -0.2196,0 -0.7146,-0.037 -1.2344,-0.2308 -1.5165,-1.1013 l -1.5602,-4.8107 c 1.1483,-1.3801 5.5101,1.4163 5.5016,3.5151 0,1.4493 -1.0889,2.3414 -2.2053,2.3969 z m 29.6086,0.01 c -1.1002,0.1073 -1.4887,-0.016 -1.6164,-1.0487 -0.3719,-3.1261 2.7371,-6.5233 6.7689,-6.708 3.9016,-0.4387 6.0082,2.6053 5.888,5.5735 0,2.2563 -1.9391,2.5386 -2.1536,0.755 -0.6189,-5.1501 -4.9941,-5.446 -6.9926,-2.6023 -0.7561,1.1145 -0.5836,3.8596 -1.8943,4.0305 z m -47.9123,-1.0478 c -0.3104,0.013 -0.7258,-0.1051 -1.3376,-0.3155 -4.0246,-1.2919 -4.1322,-1.9171 -0.69,-3.1642 4.1051,-1.4874 4.3713,-1.6818 3.4075,1.1984 -0.5376,1.6067 -0.6965,2.2528 -1.3799,2.2813 z m 42.6609,-0.4539 c -2.9833,-0.1858 -3.2338,-2.7248 -0.61,-3.5724 3.9073,-1.7341 5.2237,-1.6209 3.7099,0.9374 -0.8208,1.812 -1.5547,2.6004 -3.0999,2.635 z m 18.6648,-0.9128 c -0.3563,0 -0.7645,-0.1346 -1.2021,-0.4625 -0.4483,-1.3614 -1.2085,-2.4085 -1.8083,-3.8161 0.6128,-0.6115 2.074,-0.6016 3.0051,0.141 1.8687,1.4902 1.5485,4.1227 0,4.1376 z m -93.8018,-2.933 c -1.1587,-0.01 -2.3363,-1.8529 -2.7213,-3.2283 4.0481,-5.2299 3.4115,-14.9946 4.3528,-17.9428 0.8157,-2.3991 1.0788,-0.3284 3.3309,5.8851 0.9089,2.5081 -3.6731,14.9774 -4.7326,15.2545 -0.075,0.02 -0.1532,0.032 -0.2298,0.031 z m -4.1391,-5.3613 c -0.9012,-0.5173 -2.1252,-1.7051 -2.3415,-3.5743 -0.1252,-1.0847 0.4087,-2.5264 0.7526,-3.9527 0.8177,-3.391 1.923,-9.7972 2.3206,-15.7162 0.1683,-2.519 0.1598,-4.7846 0.2715,-5.0039 1.2183,-2.4002 3.7861,4.0578 3.5661,9.1994 -0.7979,4.1049 -1.2436,18.4837 -4.5693,19.0477 z m -5.7178,-7.3798 c -0.5719,-0.7993 -0.9347,-1.4113 -1.1108,-2.1005 -0.3064,-1.1978 -0.049,-2.6283 0.6509,-5.6787 1.8572,-8.0852 1.588,-16.7991 0.3764,-25.7452 -0.2548,-1.8821 1.0445,-0.9392 3.0103,2.3023 1.0901,1.7974 1.7875,4.2608 2.1219,7.1695 0.6849,6.3592 -0.6352,14.9799 -1.7586,21.7805 -0.4972,3.0098 -0.8435,5.662 -3.2901,2.2721 z m -3.0836,-4.9198 -3.2505,-3.9423 c 0,0 1.388,-9.063 1.3795,-13.8975 0.2268,-1.8107 -1.6155,-21.5033 -2.2157,-23.0958 1.9975,2.2505 2.9315,3.574 5.1216,6.4021 0.2489,-0.041 2.1454,19.4017 0.8362,26.8383 -0.7917,4.4979 -1.8711,7.6952 -1.8711,7.6952 z m -5.1007,-7.8319 c -0.5457,0.02 -1.2394,-0.5984 -2.1114,-1.8291 -0.7868,-1.1105 -1.17,-2.0229 -1.2125,-3.406 -0.03,-1.0082 0.4655,-1.7868 0.4808,-3.5849 0.093,-10.7118 -1.3477,-20.8213 -3.1591,-30.5681 -0.6391,-3.4871 0.6045,-2.0647 2.661,0.1415 1.885,2.0203 1.9191,2.7885 2.9257,5.6601 0.2008,0.573 2.208,20.3271 2.1908,21.8203 -0.072,6.1384 -0.2458,9.5574 -0.9496,11.0304 -0.2297,0.481 -0.4983,0.7239 -0.8257,0.7358 z m 11.8143,-21.5242 c 0,0 3.7844,-1.9588 4.7757,-1.2714 1.5982,4.3832 7.364,16.1169 7.4634,18.195 -0.1015,0.6826 -2.3633,3.7698 -2.3633,3.7698 -3.1863,-6.9509 -6.0533,-14.0625 -9.8758,-20.6934 z m 71.2246,14.0925 c 1.1417,-1.3481 2.5013,-0.7858 5.2534,0.43 1.4107,0.4356 1.1922,-0.1483 3.5234,-1.3665 1.8079,-0.9447 2.4429,-0.9689 3.6403,-0.9586 1.5797,0.014 2.1486,0.5703 2.1531,-0.5468 0,-0.6181 0.095,-3.4108 0.4677,-4.8544 0.5078,-1.9648 0.9515,-2.832 0.6723,-3.1729 -0.8034,-0.7402 -1.4783,-0.2887 -3.172,1.3569 -2.8098,2.7296 -4.705,1.9473 -7.8351,0.9322 -3.5601,-1.1544 -4.2963,-1.5799 -7.5521,-0.4353 -4.6127,1.6213 -7.3905,1.6229 -9.2272,0.4466 -3.1653,-2.0273 -4.1205,-1.9079 -2.8165,3.635 0.4204,1.7869 0.45,4.558 0.7089,5.0378 0.2934,0.5435 1.098,-1.0071 1.9405,-1.5771 1.61,-1.0896 2.4425,-1.0693 6.0729,0.1261 2.1501,0.7089 4.5607,3.0265 6.1704,0.947 z m -58.3838,-0.7233 c -1.4047,-3.3293 -6.9963,-14.454 -6.8262,-15.697 1.0892,-0.9835 2.5465,-1.7004 3.4108,-0.8208 2.7955,5.1301 3.6334,7.8956 5.9049,13.6533 0.6778,1.3763 -1.3496,4.8834 -2.4895,2.8645 z m -30.0288,0.409 c -0.3962,0.055 -1.2233,-0.7718 -1.8386,-1.5995 -1.9147,-2.576 -2.03,-2.8953 -2.0906,-5.6558 -0.2198,-10.009 -1.4708,-21.7904 -4.2751,-30.8752 -0.5518,-1.788 -1.5981,-3.9623 -1.4843,-4.2575 0.9402,-1.3784 5.3008,2.3127 6.6165,7.9264 1.8151,7.1285 2.8776,14.5664 3.4547,19.4078 0.7308,8.5156 0.7265,14.6096 -0.3826,15.0538 z m 33.5435,-5.5207 c -1.6109,-3.1239 -3.6399,-8.5143 -5.0062,-11.7484 -0.6228,-1.4043 2.5623,-2.511 3.2947,-2.0334 1.2723,0.9553 1.8747,3.6444 2.7098,5.2562 2.6584,5.845 3.1361,5.9676 1.6631,7.7884 -0.9072,1.2656 -1.9899,2.8165 -2.6614,0.7372 z m -39.8559,-3.5848 c -0.2338,-2e-4 -0.5365,-0.2289 -0.9197,-0.7254 -1.6804,-1.9975 -2.8221,-3.5236 -3.2612,-5.0039 -0.3189,-1.0742 -0.062,-1.8799 -0.177,-3.8266 -0.3006,-5.0989 -1.6319,-12.0585 -5.4041,-26.3022 -0.3679,-1.3891 -0.8672,-3.0327 -0.8049,-3.4796 0.3647,-2.6151 4.1786,1.6239 5.289,6.0027 1.2874,4.9703 3.6352,11.3183 4.3273,17.1878 1.4252,9.3167 2.2143,16.148 0.9513,16.1472 z m 43.215,-3.7657 c -3.1716,-7.4429 -3.4222,-7.4298 -1.4253,-8.0188 2.1106,-0.6226 2.2376,-0.4186 4.7168,4.6494 1.8092,3.6982 2.1668,4.1622 0.6454,5.4951 -2.3227,2.7528 -2.9322,0.1278 -3.9369,-2.1257 z m 44.1687,1.7751 c 0.3613,-0.01 1.4232,-0.8173 2.4913,-1.2426 2.6203,-1.0429 7.2727,-1.1145 10.1086,-0.2553 5.0256,2.029 3.6099,-0.6059 -0.8351,-2.2092 -3.4497,-1.1671 -10.2828,-0.2623 -11.3414,1.8997 -0.6516,0.6919 -0.8876,1.8168 -0.4234,1.8074 z m -38.2095,-3.9139 c -2.831,-4.4005 -3.682,-6.1579 -3.2036,-6.5003 0.4528,-0.455 2.6951,-1.3057 3.6166,-0.8515 1.1573,0.5702 2.1648,3.2874 2.6731,5.4178 -0.3547,1.0405 -2.2151,2.9063 -3.0861,1.934 z m 70.916,-1.8538 c -1.2654,0 -4.556,-4.4536 -3.8884,-5.2562 0.1856,-0.4125 1.4191,-0.02 4.3016,0.7834 0.9625,0.356 3.1382,0.6427 2.4498,2.0462 -0.3424,0.6377 -2.3593,2.4287 -2.863,2.4266 z m -67.8793,-6.0973 c 0.283,-0.7606 2.4176,-0.9393 3.3238,-0.883 0.7805,1.6315 0.985,2.4103 1.2021,3.4902 -0.2947,0.6483 -1.7568,2.3269 -2.4781,1.9973 -0.4321,-0.3878 -1.8274,-3.8004 -2.0478,-4.6045 z m -58.9006,4.2891 c -0.4515,-0.016 -1.2328,-0.8116 -2.3934,-2.4809 -2.1938,-3.1544 -1.8963,-2.9252 -3.4705,-10.4599 -1.787,-8.545 -3.9242,-14.6304 -6.0833,-23.3587 -0.03,-1.4485 0.5534,-1.0638 2.1532,-0.084 2.6133,1.6005 3.473,3.3785 4.296,8.0106 1.4045,7.6511 4.371,14.7299 5.5086,23.7687 0.601,2.9893 0.6494,4.6275 0,4.6044 z m 65.8429,-3.0529 c -1.5429,0.053 -1.3352,-2.3378 -0.8934,-2.725 1.1275,-0.9878 4.2353,-0.6929 4.7689,-0.7485 1.1937,1.8825 -2.8698,3.4097 -3.8755,3.4735 z m -73.6823,-8.1323 c -0.4538,-0.063 -1.6717,-1.7927 -3.951,-5.0143 -2.1899,-3.0956 -1.7102,-2.5899 -3.0209,-7.6847 -1.8542,-7.0402 -4.9231,-12.1177 -6.7211,-18.5966 0,-0.7409 0.8934,-0.6454 1.7458,-0.2944 1.6596,0.6995 3.1414,1.881 4.5467,3.0381 0.9619,1.0443 0.9543,2.3712 3.7942,12.1946 1.0249,3.5442 1.2916,4.4655 2.5714,9.8501 1.0703,4.5028 1.5494,6.5786 1.0349,6.5072 z m 237.4445,-21.0327 c -7.4462,-13.7814 -4.6898,-19.8927 11.3278,-21.8014 1.1563,0.1633 0.064,-7.0604 0.097,-10.2889 -8.0256,4.6171 -17.7293,5.6957 -26.6733,8.5943 2.4351,-7.8421 6.7103,-16.7294 19.6567,-15.3609 13.5322,10.5164 29.4598,4.198 40.2661,8.4675 5.8777,2.2022 8.1223,8.7681 8.1923,9.8941 -7.0489,-0.7101 -15.0072,-2.2288 -21.8377,-1.7318 7.4611,5.7805 5.279,13.7797 4.2274,17.4375 8.7302,11.0714 1.4418,23.5249 -11.2391,20.6292 -1.3105,-0.2993 -3.8979,-1.5811 -3.8979,-1.5811 -12.2323,11.0135 -26.4111,0.667 -20.1193,-14.2585 z m -247.4894,6.7043 c -0.5063,0.048 -1.625,-1.2814 -3.8675,-4.4364 -6.6515,-9.3585 -12.4109,-18.0646 -12.3237,-18.5545 0.2874,-1.6119 7.2194,1.2129 8.9685,3.5217 1.9923,2.6302 7.5968,16.1717 7.5885,18.3233 0,0.7182 -0.1015,1.1204 -0.3658,1.1459 z m 270.8898,-40.0842 c -3.4599,-0.511 -4.4262,-0.8052 -4.3899,-2.1656 -0.2961,-1.1549 8.3962,-1.3089 9.5744,-0.452 0.9411,0.6843 -0.2727,2.1844 -1.202,2.544 -1.347,0.4081 -2.6802,0.2656 -3.9825,0.073 z m -239.6157,-1.2405 c 48.5639,-23.0683 68.4306,-84.4233 43.9183,-131.4429 l 3.3741,-2.4503 c 24.033,49.712 6.1547,102.9828 -32.893,129.8859 -1.5813,1.1301 -5.0782,2.003 -6.7044,3.0868 0,0 15.9294,-3.6548 21.3214,-5.776 1.0936,0.037 4.3071,-1.1017 7.7594,-4.8664 3.0177,-2.812 12.4534,-15.8952 12.1517,-16.3504 l 25.0714,-1.0155 -0.021,-0.9318 -24.6077,0.5717 c 25.3396,-41.96 19.114,-81.8836 3.468,-109.8241 l -0.3864,-0.2616 c -0.9099,-0.6155 -3.3035,1.1456 -8.268,5.8766 -2.0451,1.9486 -4.6218,4.3691 -5.7281,5.3824 -3.0685,2.8274 -7.439,7.7048 -10.4421,11.2273 17.0385,34.9266 0.2306,80.9276 -39.641,101.6572 -0.07,1.1033 0.4251,4.4731 0.4251,4.4731 0,0 1.5065,1.3613 2.3967,1.2214 44.42,-19.679 62.217,-68.5466 44.1566,-112.9847 l 2.9791,-3.2601 c 22.6936,46.0184 -1.6662,103.5376 -44.1413,119.8324 0.021,1.0396 0.9406,2.3673 2.0823,1.5679 45.8551,-21.4114 65.8384,-76.0874 43.3764,-122.6931 l 2.8295,-2.5143 c 25.555,51.0287 -1.371,108.2102 -43.5843,127.7489 -1.2454,0.2904 1.1077,1.8396 1.1077,1.8396 z m 247.1678,-0.4755 c 0,0 0.3219,-2.7177 -0.6325,-3.6454 -0.4385,-1.9388 0.2624,-1.7283 1.9023,-1.3351 4.0373,0.968 0.8883,-1.3417 -2.4144,-3.2062 -3.2534,-1.8367 -2.8168,-1.7749 0.022,-3.5848 1.9076,-1.2167 1.7093,-1.6732 1.4527,-2.5966 -0.3804,-1.3706 -0.641,-0.458 -1.4318,0.2734 -1.6607,1.5353 -2.9874,1.919 -4.4634,1.9132 -2.2164,-0.01 -2.4409,-1.7933 -2.0486,-3.1853 0.8812,-2.9214 3.8718,-2.7657 6.3237,-2.0394 4.0115,1.1882 10.5635,8.1861 10.462,12.3048 0.2787,3.6901 -4.7416,5.2699 -9.1709,5.1014 z m -18.0361,-0.9016 c -1.555,-0.5748 -3.5121,-1.3431 -5.6653,-2.2497 -2.9732,-0.9501 -5.9863,-2.4966 -7.9294,-3.7994 -5.9166,-3.9668 -5.5556,-11.9007 -5.1286,-12.6889 l 30.569,-29.1365 c 0,0 1.7265,0.8482 3.3525,1.6827 5.1396,2.6374 6.375,4.027 3.5224,5.4875 -1.3836,0.7085 -1.8297,2.2316 -2.0277,3.7214 -0.2654,1.996 -0.1619,1.6556 -1.3483,2.565 -2.0655,1.5828 -2.164,2.2364 -2.1741,4.8673 0,1.7415 -0.1857,2.5436 -0.8155,3.6373 -0.4998,0.8682 -1.0268,2.6809 -1.3797,4.7622 -0.058,0.3417 -0.075,1.1964 -0.1424,1.4965 -0.361,1.6283 -0.874,2.1075 -1.2175,2.4772 -0.3424,0.3687 -0.8926,1.6239 -1.2751,2.7122 -0.853,2.4263 -0.6924,2.0664 -2.0696,1.7976 -2.001,-0.3905 -1.7141,-1.5643 -1.4948,-3.4271 0.1059,-0.9038 0.7052,-1.5381 0.5016,-1.335 -0.2733,0.2727 -1.5018,0.8563 -1.7559,0.9145 -0.6404,0.1469 -1.278,-0.074 -1.4425,-1.0827 -0.091,-0.562 0.1511,-1.5968 0.136,-2.3968 -0.041,-2.0733 -0.1251,-4.5569 -0.5957,-6.1919 -2.2693,-7.8783 -1.8178,-6.7871 -1.0453,-0.2313 0.1857,1.5693 0.4026,3.874 0.177,5.7924 -0.1576,1.3524 -0.5438,3.0271 -1.0661,3.9422 -1.3419,2.3513 -1.4149,2.8161 1.4946,3.9737 1.0813,0.4302 2.9223,1.1834 3.3031,1.9343 0.4662,0.9191 1.8525,2.1694 3.6586,2.5965 4.3914,1.0388 6.9473,5.306 6.3132,5.9396 -0.4155,0.4154 -2.1841,-0.1281 -3.3029,-0.1681 -4.0092,-0.1436 -4.8611,0.064 -6.6376,1.5979 -0.9458,0.8168 -1.3704,1.5435 -2.1231,1.5969 -0.7945,0.015 -1.8066,-0.5785 -2.3924,-0.7875 z m -208.0736,-4.7204 c 41.067,-33.4146 48.2646,-87.4677 27.7775,-129.1779 l 3.5454,-2.8015 c 25.7463,48.9257 8.4532,101.7041 -23.1776,130.5674 z m 237.0903,-3.9839 c -0.7249,0.068 -1.5176,-1.0008 -4.4008,-4.0999 -1.9418,-2.0874 -3.9642,-3.9007 -5.0275,-4.5099 -2.4123,-1.1616 -1.8848,-0.6778 0.1252,-2.5966 2.055,-2.3706 0.9199,-4.3202 3.376,-3.1327 6.3897,3.0166 10.8766,11.9044 6.7211,14.0447 -0.3134,0.1615 -0.5529,0.2716 -0.7943,0.2944 z m 3.1774,-9.3456 c -0.1555,0.012 -0.3241,-0.012 -0.4913,-0.052 -0.7879,-0.1935 -1.7436,-1.6835 -2.7699,-2.7228 -2.8402,-2.876 -4.1583,-4.1518 -6.4283,-5.1615 -2.2309,-0.9925 -2.2914,-1.2338 -0.7213,-2.9856 0.5712,-0.6372 0.9112,-1.4029 1.0453,-1.8292 0.1339,-0.4264 0.1685,-0.9692 0.648,-1.0618 2.4874,-0.4801 10.7547,4.5629 11.0799,8.0421 -0.2672,3.2541 -1.0838,5.673 -2.3624,5.7713 z m -17.5185,-0.9672 c -1.4343,0.037 -2.2763,-1.2483 -2.2684,-3.3325 0,-1.4437 0.8138,-2.0305 2.4566,-2.649 3.5112,-1.3222 5.6744,1.2046 3.2193,3.9946 -1.0318,1.1726 -2.4263,1.9616 -3.4075,1.9869 z m 2.1427,-8.4835 c -2.6486,-0.01 -3.4157,-2.2567 -1.4737,-4.1945 1.8241,-1.8203 5.5057,-1.8293 5.498,0.1681 0,1.5669 -2.3384,4.033 -4.0243,4.0263 z m 16.4227,-2.6874 c -1.7922,-0.5327 -6.1537,-3.6928 -8.0719,-4.0643 -0.1015,-1.0657 1.1742,-1.357 -0.6368,-3.3614 -0.8221,-0.9099 -0.8923,-1.5303 -0.177,-1.9132 2.188,-1.1726 9.7672,2.5335 10.275,6.3495 0.2466,1.8633 -0.3689,2.9225 -1.3887,2.9894 z m -9.8899,-4.5663 c -2.6076,-0.1094 -5.5575,-0.1871 -5.2471,-1.4402 0.2251,-0.9086 1.1581,-3.3085 2.3519,-2.8594 0.5801,0.2183 1.1438,0.7989 1.5469,1.1879 1.3915,1.3424 1.7613,3.1291 1.3483,3.1117 z m -98.6151,-10.8576 c -7.5963,-6.9168 -35.1939,-79.1686 22.3169,-131.8077 l 12.2045,-3.6775 c -55.2168,43.6043 -46.0308,105.5086 -31.1313,132.214 0,0.784 0.2163,0.6945 1.5907,-0.5572 1.2031,-1.0957 1.3311,-1.3324 0.8465,-1.5348 -16.839,-26.0592 -23.1323,-99.6627 43.2113,-135.1801 1.1127,-1.1623 -1.1402,-0.9854 -1.1402,-0.9854 -0.1166,0.956 -29.8727,8.2272 -27.7728,8.4108 -27.7332,24.6552 -51.8791,83.4525 -21.8211,134.7032 0.7256,0.4798 1.6955,-1.5853 1.6955,-1.5853 z m 9.58,-8.1805 0.3867,-1.6295 c -24.071,-47.5275 -1.094,-105.7556 43.6501,-127.3062 -0.737,-0.5435 -1.5542,-0.9182 -2.3763,-1.3055 -50.7588,27.4886 -65.3947,85.6662 -43.2528,130.7274 z m 4.0239,-3.3703 0.2806,-1.7248 c -19.9272,-40.4493 -4.1074,-96.5811 43.4522,-119.351 0.4513,-2.4485 0,-1.7332 -2.2317,-1.6172 -55.0292,29.6795 -60.2031,86.1208 -42.9845,122.7745 z m 3.4182,-4.8505 c 1.5542,-2.066 4.3999,-3.1359 5.3454,-5.7953 -15.987,-42.4935 4.6751,-83.3995 39.6524,-100.6419 0.028,-2.1388 1.5543,-7.43 -2.1493,-6.5843 -43.2138,19.6882 -62.0154,72.0191 -43.1209,113.2115 0,0 0.2461,-0.1806 0.2724,-0.1899 z m -217.0615,-82.1602 c -1.591,-0.1122 -3.0173,-0.5973 -4.4939,-0.7911 -5.3675,-0.6997 -8.85,-4.6356 -6.4511,-7.0295 0.788,-0.7863 1.8891,-0.3338 5.3764,1.3816 1.6022,0.7882 1.8593,1.5267 2.1908,3.3041 0.3974,2.1314 0.8204,2.347 1.3589,0.6938 0.544,-1.6707 1.13,-2.7071 2.9623,-2.2844 5.1465,1.2031 3.2012,4.7656 -0.9434,4.7255 z m 57.4188,-36.1788 c 12.8896,7.3563 28.807,20.6219 37.9066,35.694 4.5238,-8.5366 9.8391,-24.0726 9.8391,-24.0726 l 20.2311,5.6835 0.2381,-0.4236 -19.9961,-5.7952 1.9489,-6.7107 c 0.2115,-0.7252 3.307,-8.3631 3.307,-8.3631 l -31.2319,-14.6579 c 1.935,-3.0456 4.0461,-5.0149 6.7289,-7.8552 1.5163,-1.6017 1.5588,-3.6773 1.5588,-3.6773 l -43.3031,41.5412 c 0,0 -5.5861,-8.3313 -7.6641,-10.2207 -1.9486,-1.7718 -2.5539,-2.2007 -0.2807,-2.7299 10.1742,-1.4996 18.0708,-9.2476 15.3176,-19.6407 -0.4447,-1.1562 -1.3411,-0.7303 -3.2709,0.4898 -6.7552,6.1523 -23.2665,11.8481 -23.8303,10.4023 l -0.064,-6.6178 c 17.7761,-0.2587 15.9539,-13.402 14.6524,-20.4515 0,-0.152 5.1405,-4.6717 5.1405,-4.6717 -1.8179,-0.9587 -3.5978,-1.9505 -5.2778,-3.1319 1.5623,-8.7676 -5.8654,-21.476 -20.4566,-14.9706 -1.2614,-1.3015 -2.453,-2.6091 -3.8441,-4.243 -1.493,1.7388 -3.2143,5.8346 -3.2143,5.8346 -7.2476,-3.2983 -22.2861,4.0846 -14.5942,20.9956 l -4.2405,4.0673 4.0735,2.5823 c 0.1057,4.2996 0.7672,8.1413 3.3199,11.887 0,0 -6.8422,-1.7541 -11.9056,-2.0497 v 10e-5 c -3.1265,-0.2843 -5.7624,-0.3645 -5.4996,1.5366 0.078,0.5594 0.5444,3.296 0.85,4.193 1.5101,4.4296 9.3431,7.6819 16.9507,8.1116 1.2408,0.07 2.5776,0.031 2.843,0.3548 0.4972,0.6076 -0.3949,1.4702 -1.2125,1.3272 -4.1661,-0.729 -8.1734,2.3679 -8.8952,6.3075 -0.1425,0.6908 -0.9942,1.9557 -2.2158,3.3009 -2.1679,2.3868 -2.338,2.3242 -2.297,5.7727 0.028,2.3939 -0.3892,2.925 -1.4869,4.5295 -1.4167,2.288 -2.075,5.2729 -1.3628,8.3615 0.2257,0.9784 1.1478,2.363 0.3623,4.8018 -1.2774,3.967 1.5291,7.5952 5.2097,9.6621 0.2944,0.084 0.2051,-0.2058 0.4495,-0.4991 3.3388,-1.0454 7.4053,1.3609 7.4053,1.3609 0.839,0.4145 -2.8433,21.9334 -10.473,20.0111 -1.2684,-0.7737 -1.8049,-4.5133 -1.7091,-4.5793 -0.3513,0.01 -0.5413,2.2004 -0.047,3.664 0.5174,1.5335 1.7012,2.9956 3.9769,2.5633 1.7646,-0.3352 3.8016,-2.6905 4.7235,-3.872 3.5639,-4.5679 3.6045,-7.4839 4.795,-12.3434 0.5724,-2.2969 0.635,-2.1643 3.7958,0.3199 2.2687,1.783 3.3683,2.3527 2.5787,3.3984 -0.3547,0.4699 -1.8243,1.9548 -1.8243,1.9548 l -28.8955,26.7282 V 881.59095 h 157.4593 l -1.0929,35.2974 c -2.9308,24.1858 2.2253,74.975 6.1267,79.7518 -3.0091,3.39985 -12.3457,11.59625 -11.831,11.96615 l 1.2378,0.7363 4.9361,-4.5663 12.1903,3.7127 c 5.2,3.6118 10.5069,6.9513 16.0118,8.3725 8.9891,2.3208 26.3018,-5.073 26.3172,-5.1493 27.6581,-2.0597 49.8069,-13.35525 49.4967,-13.26895 1.2047,1.1121 2.7988,4.66305 2.8406,4.64185 14.2569,19.9544 28.2733,31.1314 47.4217,44.7708 l -24.2538,13.4743 57.4742,60.3935 0.5063,49.0413 -83.2586,80.0524 c -0.4909,1.3823 -26.5631,-18.5197 -36.2705,-34.7153 -1.8611,7.917 -5.3279,15.1061 -8.2164,22.8795 -0.3023,0.711 -16.5645,-6.0469 -21.3886,-6.3335 -0.7214,-0.043 -1.303,0.7223 -1.303,0.7223 l 21.4631,7.0196 -4.3902,12.6431 c 0,0 -1.5283,3.4352 0.1965,4.005 9.7838,3.1828 18.9648,8.7929 28.322,13.5729 0,0 -4.3707,4.8865 -4.4363,5.1027 -0.062,0.2034 -1.8337,2.8255 -1.4114,3.7294 4.7601,-4.6446 43.6047,-40.875 43.6047,-40.875 1.1051,6.2182 2.8422,8.3918 6.6186,12.2287 -2.0578,0.099 -5.2778,2.1446 -7.139,3.5083 -5.6928,4.1711 -8.7921,11.6138 -8.0466,15.9622 5.465,-1.7483 10.3995,-3.7987 17.2444,-5.0484 3.8461,-0.7022 7.4955,-2.4492 9.7078,-4.3233 l 0.3398,6.9381 c -0.021,-0.079 -9.2093,-1.6212 -13.4683,4.5855 -3.6704,5.3488 -2.1657,11.4712 -1.3228,14.5928 -0.095,0.6932 0.11,0.6154 -1.4738,2.0815 -1.1685,1.0824 -2.9894,2.4809 -2.9894,2.4809 -0.077,0.3938 4.7485,2.1928 5.5645,3.8361 -1.2851,12.8591 8.9303,17.8233 17.5774,15.5385 1.6161,-0.4903 2.3873,-0.7949 4.3092,1.3579 0.2863,0.3207 2.5922,2.7708 2.5922,2.7708 0,0 1.0177,-2.3613 1.5391,-3.3954 1.696,-3.363 2.1612,-2.3507 5.8169,-2.531 9.2611,-0.4565 13.3937,-7.9769 11.268,-17.2089 -0.4991,-2.167 -0.2753,-1.8329 1.1393,-4.5729 0.7226,-1.3994 1.9025,-3.1853 1.9025,-3.1853 0,0 -1.6987,-0.9467 -2.8433,-1.4612 -1.695,-0.7622 -1.7835,-1.654 -1.7768,-3.3535 -0.2367,-3.7465 -1.0542,-6.2547 -3.1958,-9.4726 7.2545,-0.168 12.8203,0.5132 19.389,2.7074 -1.0051,-10.159 -8.4514,-13.9421 -17.5714,-15.4307 0,0 0.9567,-0.899 1.9635,-1.2995 2.1336,-0.6219 3.4693,-2.5064 3.4495,-4.1946 0.307,-1.6121 1.3442,-3.2307 2.2995,-4.0921 1.42,-1.2359 2.5868,-2.9777 2.0278,-6.3467 0.1424,-2.4411 0.7298,-3.147 1.4424,-4.0789 1.431,-1.8716 1.9142,-3.7319 1.5573,-6.1919 -0.1662,-1.1446 -0.5174,-3.5955 -0.2821,-6.1287 0.3924,-4.2224 -1.1119,-5.8057 -3.0207,-8.7779 -1.237,-1.9256 -0.9759,-1.9772 -0.69,-3.3746 0.6867,-3.3551 1.4012,-5.08 2.1427,-7.632 1.6595,-5.7099 1.7229,-10.0393 0.366,-11.1537 -2.0447,-1.6793 -4.3595,-1.1739 -5.4367,-0.8395 -8.0685,2.5052 -6.6713,10.4739 -7.0964,15.8212 -0.2304,1.3748 -0.697,2.0354 -1.1504,1.9708 -2.2814,-2.6853 -4.6933,-4.2383 -7.7988,-5.9309 10.7383,-10.9911 17.614,-17.717 31.1884,-29.7074 v 267.9876 h -155.0899 c 0,0 -0.1619,-2.2425 0.2074,-11.9299 0.6706,-19.6885 1.4938,-40.3128 0.2094,-60.3837 -0.2159,-6.9462 -0.073,-13.8051 -1.0662,-20.678 -0.9665,-6.6956 -1.394,-13.9162 -4.5052,-20.1525 -1.2501,-3.3807 -1.2904,-3.1206 3.4732,-7.548 2.3369,-2.1718 4.3224,-4.4837 4.2356,-4.8913 -0.028,-0.1357 0.1036,-0.6449 -0.2552,-0.3566 -0.2386,0.1919 -1.9643,1.9101 -2.1556,2.1368 -1.2904,1.5302 -3.4499,-0.4337 -10.8169,-2.5236 -1.4448,-0.4099 -3.4806,-1.7781 -5.038,-2.9119 -11.012,-9.3327 -26.5067,-6.4226 -38.0896,-1.3327 -3.2871,1.4443 -4.0928,1.5935 -9.3756,2.2234 -19.5631,2.3326 -40.4661,10.9289 -40.4221,10.9023 l -2.553,-4.2074 c 0,0 -0.9614,0.1784 -1.6458,-0.8799 -11.2522,-21.3731 -47.9871,-45.7948 -47.3342,-44.6635 l 24.0113,-13.3691 c -17.4808,-21.7225 -57.6854,-58.5756 -57.6854,-58.5756 v -52.9675 c 10.7318,-8.6331 21.321,-18.5288 30.7576,-28.1922 2.7133,-2.7012 4.629,-4.2436 3.5984,-4.2948 -2.4493,0.3755 -4.565,-2.0537 -6.5584,-3.7389 -1.2626,-1.4157 -0.9575,-1.2872 0.499,-3.2211 1.0234,-1.3586 1.3983,-1.7516 1.4025,-2.7337 -0.037,-1.9003 -0.024,-3.1739 1.6587,-4.5991 1.0448,-1.3186 1.6415,-2.1636 1.8302,-3.7266 0.1879,-1.5605 0.1749,-2.5614 1.2417,-3.9419 1.8084,-0.3866 1.9796,-3.0348 1.6612,-4.2193 -1.8938,-1.8889 -1.0288,-3.9337 -1.2053,-3.5045 3.6169,-3.9483 7.414,-7.369 4.99,-1.8491 -1.0929,2.0552 -1.4737,3.7582 -1.4737,3.7582 0,0 1.7414,-1.8145 2.6528,-2.6712 1.3943,-1.2985 1.9047,-0.5338 1.9461,3.4965 0.1792,3.05 1.458,7.3057 1.9658,8.1187 0.284,0.4546 0.3319,-0.3326 0.1987,-3.2694 -0.1749,-3.863 -0.6329,-4.9837 0.7195,-8.8407 1.827,-5.2102 3.1267,-5.9481 0.1598,-5.7685 -2.8112,0.1706 -5.1873,0.2005 -6.4175,-1.4867 -0.4145,-0.5687 -0.948,-1.5432 -2.0837,-2.1173 -2.3127,-1.2711 -4.1526,-2.6814 -5.4379,-4.0871 -4.1578,-4.5471 -2.9646,-8.6117 5.0741,-5.8551 4.2324,1.4512 1.4604,3.2786 -3.0889,2.8557 -2.7944,-0.2633 -3.2648,0.7757 -0.8465,1.5199 4.4996,0.8367 5.2236,1.3471 8.1903,-2.2012 12.4595,1.24 19.4553,8.2445 22.8173,13.9516 1.4061,2.3868 1.8365,2.8429 0.8572,4.1945 -0.3856,0.5323 -0.1511,0.3696 0.5121,-0.3679 0.664,-0.7375 2.4738,-1.3553 3.0725,-1.8861 4.1853,-4.1993 8.4282,-8.7113 12.199,-12.1269 z m -54.2283,29.4139 c -2.1152,-0.2626 -2.0733,-2.0485 -0.1857,-3.7653 1.7742,-1.3511 2.9897,-1.6119 3.9903,-0.5973 1.7534,1.777 -0.5108,4.3757 -3.8048,4.3626 z m -6.1579,-1.2377 c -1.7046,0.01 -3.8792,-0.7818 -6.462,-2.9402 -3.083,-2.5764 -3.7872,-8.8168 -0.9562,-9.8965 1.1853,-0.4521 1.3697,-0.01 3.8972,2.4056 1.7041,1.6285 3.5525,3.1025 5.3725,3.9736 3.716,1.7787 4.1922,2.4511 1.6817,3.6625 -0.529,0.2724 -1.2134,0.9155 -1.5262,1.4192 -0.6449,1.0388 -0.8408,1.3709 -2.007,1.3758 z m 4.0142,-8.3075 c -0.493,-0.015 -1.1531,-0.3165 -2.1844,-0.8725 -6.2641,-3.4407 -9.3264,-8.834 -7.2062,-11.8789 1.3904,-1.9969 3.6526,-1.2346 5.3779,1.5974 0.9715,1.5952 3.5522,3.6371 6.4805,5.1302 3.3539,1.7099 3.4259,1.9547 1.0035,3.1222 -0.994,0.4791 -1.7403,1.1567 -2.2264,2.0184 -0.5639,0.9999 -0.6107,0.902 -1.2449,0.8832 z m -2.0072,-12.8532 c -4.7324,-4.7448 -4.1916,-7.3135 -1.1166,-9.2456 2.0983,-1.3186 5.4653,-1.6481 6.569,-0.5558 1.7836,1.5676 1.7369,3.3652 -0.2351,3.9422 -1.8391,0.3956 -1.1499,1.1368 0.5683,1.5754 6.1366,1.7513 9.9077,5.0266 3.238,4.3162 -1.9142,-0.2041 -3.7668,1.2921 -4.768,2.4869 -1.4472,1.7671 -3.4024,-1.6638 -4.2556,-2.5193 z m 322.7145,-1.8277 -137.8255,-197.88875 h 111.3688 c -3.9216,31.4744 3.9502,66.4046 14.363,89.1969 -11.3325,1.9331 -22.1281,4.9469 -32.9336,7.9401 l 2.1934,2.863 c 12.8928,-5.1813 24.789,-7.0764 35.9875,-8.3623 -14.8651,-25.4454 -20.1701,-60.5232 -15.7128,-91.6377 h 21.2282 v 153.63125 z m -24.6847,-29.4512 c -1.9503,0.077 -6.8104,-3.3735 -7.404,-5.9683 -0.1209,-0.5314 -1.3852,-3.7222 -2.8013,-6.6882 -0.028,-0.5477 -4.8161,-9.2425 -2.7124,-8.4848 4.1859,5.7198 11.6637,15.4599 13.5449,20.2057 0,0.6322 -0.082,0.9141 -0.6272,0.9356 z m -14.92,-8.6976 c -0.2616,-1.4371 -1.7095,-5.1943 -2.8531,-7.6698 -2.9808,-6.4527 -7.5966,-16.5683 -6.6583,-19.4482 0.6327,-1.9409 -0.021,-1.8391 1.6725,0.5572 0.8262,1.1722 3.4052,4.7892 4.0242,5.6242 1.5106,2.0375 0.4944,0.1685 1.3563,3.4858 2.0559,9.3839 5.3779,14.3139 7.5364,19.7968 0.7695,2.5742 -4.0891,-1.309 -5.078,-2.346 z m -2.6545,-1.431 c -0.4013,-0.2834 -5.875,-4.1542 -6.4282,-4.7096 -1.9408,-6.9391 -9.6978,-29.1698 -7.6898,-33.1419 0.6994,0.5506 3.6558,4.1365 4.0663,5.9832 0.8944,10.63 4.2484,18.2746 7.8463,26.1971 1.0121,2.3884 1.8077,4.7759 2.2054,5.6712 z m -10.2959,-7.8057 c -1.7331,-0.8505 -3.5264,-2.798 -4.5424,-4.5368 -0.679,-1.1802 -1.0271,-2.5691 -1.6664,-5.4915 -1.9836,-9.0698 -5.768,-18.2638 -4.066,-27.94225 1.0614,-1.4476 3.3704,1.8343 3.7003,5.067 1.0938,10.71815 2.0327,15.85245 5.7804,28.45725 0.7269,2.4454 1.277,4.3618 0.7941,4.4463 z m -8.7905,-8.3148 c -0.3701,-0.015 -1.1286,-0.7085 -2.3937,-1.9028 -2.4608,-2.3232 -2.8074,-3.1793 -2.8221,-7.0329 -0.08,-5.6643 -1.9561,-12.131 -2.2473,-17.85015 -0.1684,-3.2995 -0.7688,-11.8353 -0.2615,-12.3417 0.7164,-0.9934 3.8934,2.6236 3.6482,8.1681 -0.4049,6.665 -0.075,11.68095 2.749,23.21165 1.3056,5.3293 1.9664,7.6058 1.4006,7.7372 -0.021,0 -0.049,0.011 -0.073,0.011 z m -254.9912,33.664 c -9.8682,-6.371 -6.3885,-18.1293 -4.2761,-19.5745 -13.6264,-17.3158 7.5557,-26.1825 14.2776,-19.9574 9.9509,-9.9442 27.0266,-1.6099 20.4506,14.7807 0,0 12.4977,24.008 -12.1492,22.4041 0,0 -0.4244,9.7007 0.271,10.1443 8.7985,0.5946 20.7577,-7.9247 24.1455,-10.2812 1.8796,-1.1423 2.291,-0.597 2.291,-0.597 0.4691,5.0352 0.4813,7.3409 -1.5533,10.1485 -3.5508,4.8991 -9.4198,6.5557 -17.1299,8.258 -9.5413,-2.9542 -18.6264,-7.5928 -27.4669,-6.8709 -4.8684,-0.029 -9.8473,-0.82 -14.5656,-3.3665 -3.1844,-1.5105 -4.8416,-7.1774 -4.8416,-7.1774 4.9955,-2.6282 20.5469,2.0893 20.5469,2.0893 z m 4.6929,35.6026 c -0.041,1.7191 -1.9714,3.6359 -3.8727,3.4128 -2.6119,-0.1894 -2.9535,-3.3004 -0.6313,-4.4459 0.6709,-0.5458 2.8385,0.2595 2.957,-0.3446 -0.1597,-1.0594 0.9023,-0.613 1.1074,-0.2307 0.3597,0.4496 0.4413,1.0924 0.4396,1.6084 z m 1.5841,-6.7793 c -0.9593,0.6759 -1.7599,0.7354 -2.7254,0.8628 -1.4819,0.1816 -3.3771,-0.044 -3.7979,-1.6058 -0.413,-1.5329 2.5109,-2.4353 4.8764,-2.476 1.2042,-0.022 2.5977,-0.2564 2.9595,0.5935 0.3393,0.7971 -0.8281,2.2658 -1.3126,2.6255 z m 298.6777,109.4969 c -1.9045,6.6559 -0.7153,10.3823 -3.8884,18.5862 l -7.7244,-2.5861 c 0,0 -0.3277,-8.0467 1.2293,-12.53 1.5593,-4.4793 6.6821,-8.0516 10.3835,-3.4701 z m -57.5417,-180.0053 c -0.9122,-0.1102 -3.1502,-3.3151 -4.16,-6.2444 -0.9271,-2.7158 -0.6209,-6.1662 -1.2963,-9.0933 -1.5165,-10.03055 -1.4267,-20.07945 -1.0242,-23.11695 0.2008,-1.5128 1.1706,-0.8963 2.4982,0.5466 1.9306,2.0983 1.6638,2.1429 1.6411,7.9684 -0.022,4.9925 1.0816,17.33045 1.5888,19.83725 0.9377,4.636 1.3278,9.0591 1.1078,9.8185 -0.061,0.213 -0.1857,0.3043 -0.3554,0.2839 z m -90.3466,-1.2003 c -9.9478,-1.5931 -17.901,-8.4231 -22.4579,-19.66695 -4.399,-11.4335 -5.4822,-27.0326 -6.1651,-41.3747 0.047,-3.4311 1.4537,-2.5649 5.1383,-0.4327 4.0259,1.9777 4.882,1.4048 10.7582,0.052 3.6667,-0.8442 3.3353,1.6636 -2.6969,5.8239 -2.0538,1.3476 -4.4437,3.1475 -3.6582,3.4166 0.3981,0.1364 2.2357,-0.3604 3.5641,-1.4402 5.9186,-4.8105 7.5236,-5.9808 5.8169,-1.3035 -0.4312,1.1819 -1.8023,4.462 -2.3754,6.0323 -2.1439,5.8771 0.3267,8.3921 7.6071,12.1122 1.822,0.9311 3.02,2.4836 1.202,-0.7673 -1.4868,-2.6587 1.5871,-4.8035 5.3936,-1.6925 2.6457,2.162 7.9619,0.7219 9.6781,-1.9765 1.6622,-2.613 0.7729,-7.4894 -2.5036,-9.0689 -2.8873,-1.2506 -3.9642,-0.3504 -1.1717,1.5968 3.5915,2.5044 2.8929,6.7303 -1.1406,6.7142 -0.9961,0 -2.7561,-1.1206 -7.2036,-3.5522 -3.1824,-1.7317 -5.4483,-0.9995 -5.452,1.5864 0,1.7307 -0.9867,1.5887 -3.0799,0.5485 -2.819,-1.401 -2.5101,-2.671 -1.021,-6.5878 1.0046,-2.7354 1.5044,-5.8449 2.425,-8.7042 2.3746,-9.6249 2.6904,-20.5255 0.064,-23.923 -6.9836,-9.0364 -14.401,-8.0786 -20.7513,-2.1071 l 0.2718,-9.8956 c 6.4751,-5.2271 14.0401,-8.7895 25.7192,-28.1654 4.0726,5.1456 21.5487,26.1789 49.5713,30.9308 l 6.3058,8.6774 c -0.1081,0.5381 4.7118,32.2716 7.8636,43.0751 0,0 -3.4669,5.2941 -6.6162,9.1966 -12.5815,15.59 -33.8488,33.43165 -55.0862,30.89605 z m 36.5464,-9.007 c 1.0779,-0.3437 1.4277,1.8177 0.8415,2.2291 -1.2958,0.109 -1.754,0.068 -3.0529,-0.028 -0.9804,-0.061 -0.9573,-1.1912 2.2114,-2.2014 z m 47.2884,1.6186 c -1.3993,-1.0024 -3.1067,-3.7013 -4.7769,-6.1603 -0.924,-1.36045 -0.4,-3.61775 -0.5436,-5.84505 -0.2029,-3.1577 -0.5521,-8.3645 -0.7736,-11.5637 -0.4316,-6.2392 0.149,-11.4576 1.0558,-13.3403 0.9264,-2.2526 2.8056,-0.696 3.2718,2.3863 0.1123,0.7408 -0.5009,8.392 -0.5017,12.5939 0,7.2269 1.8364,16.14585 2.2682,21.92915 z m -42.4169,0.044 c -0.4942,0.028 -0.8705,0.011 -1.1976,-0.4113 -1.5087,-1.9439 -2.1212,-3.1198 -0.7466,-4.1851 1.8219,-1.5294 3.48,-1.1442 4.491,1.7617 0.6501,2.0695 -0.8849,2.7222 -2.5468,2.8347 z m 5.6182,-1.7132 c -1.6263,-1.0963 -3.2404,-3.9826 -3.4093,-6.06515 0.1037,-0.5716 0.6037,-1.0564 1.6957,-1.9435 1.0823,-0.9975 1.4241,-0.933 2.6325,0.9834 1.895,2.97755 2.7821,4.93815 2.4106,5.96565 -0.947,0.9896 -2.1791,1.3847 -3.3295,1.0596 z m -66.2399,-0.3771 c -2.7156,-0.2317 -5.3974,-1.4792 -8.0399,-2.1074 l 4.0316,-3.92025 c 1.1989,2.00925 2.5639,4.01845 4.0083,6.02765 z m 72.2661,-2.0436 c -1.4891,-1.9498 -4.0858,-7.04875 -3.9475,-8.94345 0.38,-0.6451 0.9688,-1.2206 1.5927,-1.5814 0.4958,-0.1353 0.9416,0.7377 2.622,3.7267 2.9214,5.19695 3.7768,6.66215 2.2602,7.28695 -0.7968,0.088 -2.01,0.05 -2.5274,-0.4888 z m 5.8899,-1.2089 c -1.6249,-1.4536 -5.5227,-9.19765 -5.6352,-11.37625 0.045,-0.6129 0.2262,-1.1443 0.5874,-1.5568 2.4512,-2.651 1.8304,-2.224 5.4796,5.3306 3.0814,6.21325 3.8945,6.82595 1.857,7.52525 -0.4506,0.1546 -1.5787,0.359 -2.2888,0.077 z m 5.8587,-2.02025 c -1.0695,0.015 -1.3702,-1.7843 -3.4554,-5.8808 -3.4908,-7.7464 -4.8009,-8.8237 -4.0102,-9.6515 0.9737,-1.2351 1.5432,-2.1036 2.4684,-0.6027 2.105,3.4427 4.1937,7.8349 6.1536,11.6907 1.5692,2.8783 1.7095,3.2275 0.7015,3.9318 -0.5782,0.4037 -1.4394,0.5062 -1.8579,0.5125 z m -62.308,-2.2008 c 1.3113,-0.3709 6.586,-2.051 3.3552,-2.3548 -0.6528,-0.061 -2.3075,0.3548 -3.4701,0.4355 -3.2658,0.2266 -10.0583,-0.3919 -9.815,0.2374 0.6197,2.3593 8.1504,2.1405 9.9299,1.6819 z m 66.8744,-0.7251 c 0,-0.1307 -0.8467,-1.6403 -1.6892,-3.1193 -4.9616,-9.6406 -7.7202,-13.1511 -6.8385,-14.6749 0.7252,-0.9198 1.846,-2.0774 2.509,-1.8029 1.067,0.4421 2.4891,3.5976 6.0394,10.7403 3.6695,7.3816 4.0516,7.9341 2.1651,8.8925 -0.7723,0.3596 -1.7095,0.627 -2.1858,-0.035 z m 4.9561,-3.4009 c -2.2806,-3.7272 -1.981,-3.2373 -1.9548,-15.3692 0.021,-7.5498 0.981,-12.3658 2.2369,-14.2234 0.6577,-0.9729 1.8181,-0.4007 2.3938,1.5032 0.2631,0.8711 -0.4868,2.1647 -0.6272,3.5428 -0.8876,9.0848 -0.2677,18.1637 -0.2885,26.7616 -0.6883,0.071 -1.3919,-1.607 -1.7602,-2.215 z m -58.8171,-2.975 c -1.0618,-1.5247 -0.8023,-2.7535 -0.7942,-4.8042 0.021,-2.9003 -0.1966,-3.1141 -2.1882,-1.6497 -1.7648,1.2982 -1.9065,1.3818 -5.0556,-0.7674 -1.868,-1.2748 -4.2241,-1.4194 -5.7488,-0.011 -1.074,0.9924 -1.4457,0.5452 -2.885,0.1683 -1.5659,-0.8752 -2.0113,-1.01 -5.3726,0.6308 -2.2694,1.0095 -2.3612,1.1549 -3.7108,0.4406 -2.3742,-2.1046 -2.7248,-1.3432 -2.404,1.4087 0,0.9605 -0.2831,2.7554 -0.5644,3.9212 -1.1814,4.8949 0.7319,4.9483 3.2612,1.8291 0.9795,-1.208 3.1629,-1.7315 5.2264,-0.7569 2.955,1.396 7.5675,0.8314 10.9778,0.2546 4.0343,-0.6823 5.9024,0.4363 7.5232,1.8269 0.9185,0.7882 3.0171,1.4915 3.2496,0.8881 0.2327,-0.6033 -0.2431,-1.5541 -1.5146,-3.3796 z m 54.1028,-6.8647 c -0.5052,0.1096 -1.28,-1.3952 -2.4144,-4.5834 -1.464,-4.1148 1.0946,-18.4195 2.634,-20.7621 0.8144,-1.2292 1.3373,-1.9831 3.0103,0.2943 0.6655,1.001 0.1468,1.3192 -0.5121,4.1314 -1.004,4.2794 -1.8494,11.2024 -1.9025,14.4232 -0.021,4.1796 -0.2427,6.3724 -0.8153,6.4966 z m -5.1426,-13.8764 c -0.3635,-0.026 -0.7885,-0.8507 -1.3694,-2.481 -0.8227,-2.2395 -0.423,-6.5564 0.6585,-9.8607 0.6263,-1.9247 1.2219,-3.9762 2.2891,-5.6978 0.3636,-0.9656 2.2254,-0.6279 2.7386,1.5138 0.3249,1.3552 -0.7959,3.0367 -1.3378,5.1932 -0.5447,2.1662 -1.1659,4.921 -1.4739,6.3075 -0.5683,3.385 -0.9737,5.0625 -1.5051,5.025 z m -39.8036,-6.3391 c 0.045,0.01 0.087,0 0.1145,-0.011 0,0.013 0.021,-0.022 0.032,-0.032 0.085,-0.085 -3.8804,-4.4304 -4.9442,-5.6452 -0.5561,-0.4736 -5.3332,-6.3143 -2.3621,-4.9725 7.4954,3.1246 16.2671,1.591 21.6681,-3.6478 0.6766,-0.6562 1.2354,0.015 3.2821,0.1681 4.1954,0.3145 5.7187,-1.3586 3.1671,-3.4375 -0.3906,-0.3184 -1.2059,-0.4615 -1.5741,-0.972 -0.3377,-0.4685 -0.2371,-1.3085 -0.4128,-1.543 -8.1121,-10.8303 -23.137,-12.9378 -32.5693,-5.8635 -1.1866,0.89 -1.8523,1.2036 -2.9581,0.8725 -2.194,-0.6568 -2.3879,1.1916 -0.4495,3.7741 0.8453,1.126 1.8861,2.425 1.2796,2.7988 -1.1979,1.0364 -1.7904,2.7296 0.2926,3.364 1.436,0.4374 3.0457,2.0441 3.8528,4.2865 0.9424,2.6193 10.1818,10.6684 11.5814,10.8594 z m 36.8247,-4.7411 c -1.7627,0.041 -1.8446,-10.4338 0.1036,-13.6137 1.0013,-1.2037 3.2914,1.0347 2.9476,3.3325 -0.2614,1.7469 -2.1337,9.6211 -2.561,10.0289 -0.1727,0.1653 -0.3417,0.2488 -0.4911,0.2523 z m -35.9468,-6.5388 c -1.4798,0.015 -3.5055,-0.6514 -5.116,-2.1144 -0.8707,-0.7911 -2.3952,-4.2172 -1.7617,-5.5597 0.177,-0.6824 2.0057,-0.6423 2.1715,-0.1423 1.005,6.9132 6.5781,7.9165 8.3477,1.4629 0,0 1.1468,-0.9801 1.2932,0.9094 -0.3966,3.6641 -2.1093,5.4157 -4.9347,5.4442 z m -44.8729,-0.5992 c -1.7711,0.033 -3.46,-0.8622 -4.3273,-2.7647 -0.6048,-1.3265 -0.671,-2.4428 -0.431,-3.0251 0.1792,-0.4349 0.7762,-0.2461 0.7762,-0.2461 2.8286,7.8016 6.677,4.1935 8.0715,-0.1191 0,0 1.4554,-0.4517 1.6365,0.013 0.1814,0.4665 0.069,1.3434 -0.5102,2.558 -1.1049,2.3188 -3.2085,3.547 -5.2157,3.5847 z m 37.8384,-0.4839 c -1.0015,0.055 -2.7163,-0.7644 -3.9983,-2.0641 -1.3023,-1.3201 -1.4303,-2.1086 -0.378,-3.087 0.6321,-0.589 2.8793,-1.1704 3.3148,-0.1477 l 1.8923,4.4459 c 0.1792,0.4228 -0.3755,0.8283 -0.8308,0.853 z m 13.6302,-0.2101 c -1.1214,0 -1.3583,-0.2594 0.4026,-4.3789 0.3763,-0.8805 4.8941,0.3984 4.0333,2.0974 -1.292,1.3524 -3.3144,2.2835 -4.4359,2.2815 z m -45.2493,-0.3258 c -0.4511,0.022 -0.8179,-0.044 -0.972,-0.2524 0.4037,-0.146 2.1113,-4.4888 2.1113,-4.4888 1.6119,0.1958 3.5397,-0.033 3.8884,1.293 0.3293,1.253 -0.3213,2.0157 -2.5923,2.891 -0.6872,0.2511 -1.6836,0.5223 -2.4354,0.5572 z m -13.2206,-1.1145 c -1.7108,-0.6303 -2.1107,-2.0867 -1.892,-2.8382 0.1663,-0.569 0.9742,-0.5748 1.5472,-0.1367 0.5447,0.6365 1.3472,1.7201 1.2857,2.4493 -0.1792,0.7258 -0.3957,0.7338 -0.9409,0.5256 z m 85.2183,-4.0123 c -0.5256,-0.9952 -1.4751,-6.6346 -0.366,-6.4896 1.0762,0.2792 1.5777,1.9805 1.7664,3.5112 0.039,0.3154 -0.9195,2.9415 -1.4004,2.9784 z m -18.8252,-3.0099 c -0.4981,0.071 -1.7527,-0.3706 -3.6167,-1.4298 -6.1337,-2.9801 -12.4215,-3.4016 -19.1004,-1.9019 -3.8519,1.0051 -4.8345,1.5943 -5.3787,0.9295 -0.9244,-1.1291 0.5345,-2.2588 5.9739,-4.0973 5.9647,-2.0163 12.1534,-1.6761 20.2916,4.0991 2.1869,1.5518 2.4705,2.3084 1.8303,2.4004 z m -68.0659,-1.5549 c -1.0096,-1.8945 2.4282,-3.6919 4.1695,-4.1982 3.7006,-1.0762 9.3067,-0.5738 12.4731,1.3396 0.2658,0.1607 0.5205,0.3317 0.763,0.513 2.5749,1.9279 1.5089,3.3057 -1.3589,1.8187 -3.0839,-1.599 -9.3602,-1.8929 -12.6885,-0.2783 -1.6683,0.8092 -2.8146,1.8253 -3.3582,0.8052 z m 76.1665,-3.5332 c 0.3422,-0.076 -0.2364,-0.9465 -1.4319,-2.2496 -8.3908,-9.4714 -28.4095,-14.6097 -39.6616,-4.8481 -3.5243,3.3261 -2.9873,4.8229 2.5711,2.1656 6.1465,-2.0344 14.8816,-2.3008 22.4359,-1.1756 3.7151,0.5047 9.7657,1.9368 12.8358,4.1945 1.9339,1.422 2.9491,1.9807 3.2507,1.9132 z m -57.8552,-0.2838 c -0.5121,-0.041 -1.4101,-0.2324 -3.3579,-1.2513 -2.8432,-1.4869 -9.2991,-0.9776 -11.4129,-0.1929 -4.4544,1.6532 -5.3683,-0.4474 -1.1485,-2.7923 4.7016,-2.8625 11.1915,-1.7433 14.9787,1.9448 1.1725,1.0569 1.8066,2.3727 1.2919,2.4782 -0.049,0.011 -0.2781,-0.1804 -0.3513,-0.1865 z m 55.6262,-16.7528 c -16.5236,-1.5185 -41.4599,-18.9091 -51.1833,-38.7181 h 5.596 c 9.7687,15.5891 24.7987,29.0363 42.6355,33.7173 0.7054,0.5462 3.33,4.3097 2.9518,5.0008 z m -73.3433,-3.629 0.763,-5.4768 c 2.7689,-2.2822 12.9189,-10.7397 20.447,-23.9816 1.5679,0.073 2.3281,1.9745 2.0666,3.2687 -6.0269,11.952 -13.2333,18.5514 -23.2766,26.1898 z m 66.7807,-4.2862 c -3.7908,0.262 -28.4552,-13.9599 -36.7605,-30.8029 h 4.5466 c 9.343,12.2363 19.7264,21.1193 28.9433,24.3223 2.241,2.3772 4.6948,6.3767 3.2706,6.4807 z m -66.0177,-3.8104 0.041,-7.4011 c 5.9011,-5.7775 10.2142,-12.4892 13.5911,-19.5913 h 4.5822 c 0,0 1.0181,2.9299 0.6634,4.1947 -5.2079,9.4262 -10.1954,16.289 -18.8786,22.7978 z m 37.4683,-26.9925 h 4.434 c 3.7425,5.3211 9.3022,11.3413 14.4059,14.3879 2.0914,2.607 4.4349,5.8234 3.4918,6.3452 -0.056,1.9249 -19.6821,-12.313 -22.3317,-20.7331 z m -37.5642,15.9545 0.095,-4.2788 c 3.0012,-3.8598 5.5163,-7.9974 7.9191,-11.6757 h 3.7787 c -3.4458,7.4816 -12.102,17.9772 -11.7937,15.9546 z m 50.8925,-8.2854 c -1.3677,-0.3627 -6.3643,-6.0617 -6.2045,-7.669 h 2.249 c 1.2617,1.6021 2.7579,4.2352 3.6453,5.8749 0.5557,1.0375 0.9119,1.998 0.3102,1.7941 z m -50.0231,-1.3231 c -0.021,0 -0.021,0 -0.032,0 0,0 0.043,-6.3459 0.043,-6.3459 h 3.7933 c 0.4085,0.075 -1.8368,5.0124 -3.8052,6.3459 z"
       id="path6311-0-6"
       style="fill:#131f67;fill-opacity:1"
       inkscape:connector-curvature="0" />
    <path
       d="m 6777.0655,1443.9317 -141.2066,-201.4978 -0.1145,44.7622 45.3141,58.8117 c -10.3129,3.1987 -22.9058,5.4085 -32.8214,6.297 12.7353,28.393 19.105,55.0587 13.4944,91.6058 39.5842,0.4768 79.3338,0.3966 115.334,0.021 z m -112.9821,-0.9567 c 1.1053,-12.9021 2.5577,-27.2903 0.2298,-43.2695 7.3485,2.6987 9.0719,-1.9112 10.2906,-2.3962 1.3827,3.1003 6.5045,8.4643 12.3037,2.1598 3.0148,-3.2776 1.5499,-9.4425 -5.4486,-12.2231 8.0139,-0.6187 12.1788,6.2698 13.5851,13.3742 4.3316,2.7884 8.8847,5.5447 9.3183,15.3218 l -2.221,-0.3732 c 0.7384,-6.8215 -6.3091,-10.2955 -10.4335,-7.0396 -2.6668,2.0547 -2.9523,5.2257 -1.9006,10.1513 -2.1417,0.4412 -7.1588,2.5534 -5.8326,9.0356 1.8311,8.9487 10.9703,7.8984 15.1458,2.013 3.4709,4.3209 9.8343,5.1226 12.3863,-1.5872 1.4217,-3.7377 -1.8175,-7.9347 -5.4979,-8.7464 8.1736,-1.5762 12.295,9.7582 12.752,17.4296 l 3.3867,6.0447 c -22.0974,0.1291 -31.7608,0.1032 -58.0641,0.1052 z m 110.6825,-0.2207 -16.4001,-0.01 -119.6927,-155.7741 -0.2509,-38.7805 z m -41.4653,-0.01 -2.6133,-0.031 c -2.0487,-13.7108 -9.8888,-23.6374 -23.2989,-28.4679 -0.6961,-11.2016 -6.0669,-26.4177 -26.445,-31.5585 0.6006,-12.6482 -7.4785,-24.7347 -16.1283,-30.5282 0,3e-4 2.3349,-0.5813 4.1599,-0.7569 11.6292,9.2733 14.4951,22.9274 15.6478,28.5624 0.3934,0.8136 1.5018,1.0109 2.3831,1.2089 9.9527,3.5357 18.3287,11.7571 21.752,21.7924 l 2.1531,9.8502 c 0,1.2653 0.2507,0.6709 3.2091,1.7661 7.6766,2.842 14.7741,11.1951 17.9574,21.1722 1.6741,5.2456 1.2231,6.9907 1.2231,6.9907 z m 10.5466,-0.031 -9.1879,-0.01 c 0,0 -0.054,-1.63 -0.1879,-2.6911 -1.2361,-9.8225 -10.0058,-22.1498 -18.9507,-26.2393 -1.2653,-0.5784 -3.0267,-1.3909 -3.4388,-1.7765 -2.5002,-16.102 -9.7579,-25.8 -25.0758,-32.4416 -0.2437,-0.2542 -0.9344,-0.4155 -1.1393,-0.7359 -2.0884,-9.9573 -6.6521,-21.5006 -15.334,-27.8475 l 3.7525,-0.3891 z m -44.8818,-16.8998 c -2.0774,0 -3.763,-1.6953 -3.763,-3.7845 0,-2.0893 1.6856,-3.774 3.763,-3.774 2.0772,0 3.7629,1.6847 3.7629,3.774 0,2.0892 -1.6857,3.7845 -3.7629,3.7845 z m 126.8094,-20.651 c -0.2174,-0.5465 51.3898,-44.4496 46.3676,-127.0538 l 1.4947,-1.6821 -0.4075,-0.5886 c 1.7042,-1.9453 3.3455,-3.5065 5.2054,-5.4034 -10.7017,-6.8593 -29.3551,-14.3464 -29.4136,-14.1499 l 3.5644,-8.3048 -22.2956,-7.2431 2.9897,-7.8949 c 0,0 15.5112,5.1721 21.9399,7.3272 3.1716,-7.0721 5.0914,-14.5412 7.4005,-21.8975 0.2174,-0.593 0.7241,-0.3078 1.5156,0.841 11.5815,19.8644 35.3685,34.1982 34.5666,32.7779 l 84.3527,-80.4941 0.5749,-49.7451 -58.3778,-60.5099 c 0,0 16.8937,-8.3609 24.8877,-13.845 -6.2162,-5.102 -13.2522,-9.0308 -19.4314,-13.8554 -12.7832,-9.0667 -21.4104,-22.3949 -29.6959,-31.4218 -39.0732,19.4834 -78.4229,18.3984 -112.4075,6.5703 3.9595,-4.1897 8.3781,-7.8196 12.4596,-12.36275 -9.8784,-26.0671 -6.7168,-77.8355 -6.2193,-79.2431 -20.5658,21.1291 -51.1596,66.4364 -47.0787,130.22875 l -8.6546,8.7253 c 0.1576,0.4473 21.6498,12.0175 30.6055,14.5369 l -2.4775,7.9284 21.4486,6.7385 -2.3935,6.2969 -21.3652,-6.2234 c -4.0456,9.9883 -8.3306,23.979 -8.3306,23.979 -8.5319,-12.8374 -17.9367,-24.5136 -37.2951,-36.3943 l -83.8718,80.7044 0.5437,51.8897 57.1025,57.4297 -23.7691,12.4573 c 2.2838,1.8526 5.5949,3.6104 7.9438,5.4665 0.1685,0.1324 -0.4715,0.5321 -0.303,0.6623 0.5965,0.4614 1.033,0.836 1.641,1.2615 0.136,0.095 0.5653,-0.5263 0.7004,-0.431 8.0657,5.6886 16.1342,11.2861 22.4834,18.0919 0.1598,0.1721 -0.075,0.8798 0.085,1.0513 3.2996,3.5454 6.5843,6.8444 9.9403,10.3338 1.5564,1.5799 4.1287,5.3298 4.1287,5.3298 l 0.1468,1.2405 3.6062,4.5624 c 11.6126,-6.8886 61.1229,-24.1791 109.0312,-5.0354 l -9.1042,9.1563 c 2.4235,5.881 3.9954,12.4438 4.6201,17.8187 2.5054,21.5557 1.547,60.3731 1.547,60.3731 z m -151.0194,-12.2048 c -2.192,0 -3.972,-1.7904 -3.972,-3.9948 0,-2.2046 1.78,-3.9948 3.972,-3.9948 2.1921,0 3.9616,1.7902 3.9616,3.9948 0,2.2044 -1.7695,3.9948 -3.9616,3.9948 z m -12.423,-4.7517 c -2.0216,-9.9283 -6.4672,-24.345 -10.8965,-34.0628 l 5.2763,-0.5885 c 4.296,2.8072 8.8363,6.903 9.3129,12.7127 11.6171,-0.09 15.0143,18.2356 10.771,16.0362 0.541,-6.2603 -3.924,-8.7276 -8.3058,-8.1132 -3.7722,0.5287 -7.033,5.7674 -2.5442,11.55 -1.995,0.7806 -2.9703,1.3705 -3.6137,2.4656 z m 164.634,-29.3615 c -0.7695,-12.6967 -3.2477,-21.9563 -5.5608,-31.5479 l 22.9539,-21.7818 c -1.7903,19.8815 -7.5965,37.6492 -17.3931,53.3297 z m -110.087,-41.8186 -2.9161,-4.205 c 33.1716,-19.5907 89.7886,-20.9754 124.2814,-4.4573 l -4.5782,4.3837 c -30.3304,-13.774 -79.7116,-14.7973 -116.7871,4.2786 z m 215.439,-6.5388 c 3.3422,0.041 7.1998,-1.2404 11.2886,-4.3732 15.2175,6.9724 25.1846,-9.3263 15.773,-20.1208 1.3933,-7.7698 2.4479,-9.2169 -3.3657,-17.0828 6.1756,-0.7905 13.9711,0.8342 20.602,1.8607 -1.1205,-11.506 -17.5029,-14.1846 -24.3231,-12.9199 -7.3633,1.605 -14.31,-2.0596 -14.6127,-2.1445 -4.3294,-1.2157 -7.0194,-3.3117 -11.2889,-4.3206 -7.0412,-1.6848 -17.3523,6.6144 -18.8461,14.4966 -0.1403,1.059 -0.4666,2.0179 0.1144,2.1762 4.8133,-1.2381 10.1017,-2.9834 14.7904,-4.0158 4.592,-1.1333 8.053,-2.2512 11.5501,-5.0039 l 0.2928,9.5032 c -23.8393,-1.1408 -13.4645,21.6545 -12.1147,22.6334 -4.4295,8.9941 0.8988,19.1971 10.1392,19.3114 z m -216.6828,-0.7148 -5.1844,-12.5414 13.7765,-4.6991 3.5224,12.2786 z m 217.6757,-0.3785 c -8.103,-0.079 -15.35,-8.6611 -7.5678,-18.2707 -15.0854,-13.3806 4.2475,-27.7192 13.4526,-17.766 12.2553,-11.2869 25.2747,0.5021 18.4279,12.7937 13.0697,11.7623 -3.0482,27.5383 -14.0587,17.377 -2.7044,4.1804 -6.5709,5.9019 -10.254,5.866 z m -94.0737,-4.5939 c -1.9395,0 -3.512,-1.5814 -3.512,-3.5322 0,-1.9508 1.5725,-3.5322 3.512,-3.5322 1.9401,0 3.5121,1.5814 3.5121,3.5322 0,1.9508 -1.572,3.5322 -3.5121,3.5322 z m 89.7568,-0.2628 c 0.2007,0 0.4402,-0.093 0.7003,-0.3259 0.3929,-0.037 1.246,-1.5099 3.3866,-4.0053 3.7203,-4.3368 4.1218,-4.3778 4.1218,-4.3778 3.9638,1.3043 6.614,0.6 9.2262,-1.0616 0,0 2.9775,0.5674 7.0868,4.0203 1.8742,1.5757 2.8827,1.9173 3.209,1.0722 0.3475,-0.9004 -0.5025,-1.7871 -4.0975,-4.2471 -4.975,-3.4041 -4.6663,-3.1438 -4.6663,-3.1438 0.3077,-2.9917 -0.1748,-5.4234 -1.2999,-7.6878 0,0 0.8766,-2.1249 4.4088,-6.7767 0.9987,-1.3148 1.8167,-2.7445 1.8187,-3.1749 0,-1.8098 -1.5632,-0.5932 -5.1739,3.9948 -1.4151,1.7984 -3.3568,4.373 -3.3568,4.373 -4.2411,-1.4771 -5.7268,-0.5787 -8.3857,0.3718 0,0 -0.9117,-0.6817 -3.2243,-2.5359 -4.2314,-3.3927 -5.1469,-3.7537 -5.6667,-3.3232 -0.7,0.5797 -0.6074,0.7692 0.9929,1.9343 4.7729,3.4753 6.4146,5.4833 6.4146,5.4833 -0.9707,3.8018 0.091,6.9468 1.1316,8.9302 0,0 -0.075,0.4843 -2.7692,3.5103 -1.9785,2.2224 -4.6861,5.7292 -4.5156,6.2339 -0.045,0.314 0.2178,0.7409 0.6586,0.7359 z m -97.6797,-0.7674 -12.4073,-3.8791 2.7385,-12.9725 13.2227,4.2892 z m -89.788,-3.1853 -3.4599,-12.657 12.9091,-3.4481 2.1114,13.4349 z m -9.0623,-0.2103 c -1.9403,0 -3.5121,-1.5814 -3.5121,-3.5321 0,-1.9509 1.5718,-3.5323 3.5121,-3.5323 1.9396,0 3.5121,1.5814 3.5121,3.5323 0,1.9507 -1.5725,3.5321 -3.5121,3.5321 z m -29.3405,-0.452 -10.85,-9.7136 12.0416,-6.1182 5.8011,12.657 z m 102.3101,-2.8068 -12.6059,-1.4928 0.5121,-13.6242 14.4666,1.9448 z m 43.7336,-0.1472 -14.0273,-6.1919 5.059,-14.2129 14.362,6.2024 z m -36.1554,-1.1038 c -5.1698,-0.8139 -3.779,-6.949 0,-7.0645 1.9397,0 3.512,1.5815 3.512,3.5322 0,1.9508 -1.5723,3.5323 -3.512,3.5323 z m -45.354,-0.01 -1.7247,-13.6348 13.0868,-0.7989 0.2822,13.8554 z m -8.9996,-1.556 c -1.9397,0 -3.5122,-1.5813 -3.5122,-3.5322 0,-1.9506 1.5725,-3.5322 3.5122,-3.5322 1.9402,0 3.512,1.5816 3.512,3.5322 0,1.9509 -1.5718,3.5322 -3.512,3.5322 z m 182.1874,-1.279 c -2.0012,0 -3.6271,-1.6248 -3.6271,-3.6371 0,-2.0125 1.6259,-3.648 3.6271,-3.648 2.0004,0 3.6167,1.6355 3.6167,3.648 0,2.0123 -1.6163,3.6371 -3.6167,3.6371 z m -154.9688,0.1333 c -1.9397,0 -3.5122,-1.5816 -3.5122,-3.5322 0,-1.9509 1.5725,-3.5324 3.5122,-3.5324 1.9402,0 3.512,1.5815 3.512,3.5324 0,1.9506 -1.5718,3.5322 -3.512,3.5322 z m -61.6391,-0.8726 -5.1009,-14.0132 14.2992,-4.636 4.0451,14.3916 z m -10.0346,-0.3784 c -1.9396,0 -3.512,-1.5816 -3.512,-3.5322 0,-1.9509 1.5724,-3.5324 3.512,-3.5324 1.9402,0 3.5122,1.5815 3.5122,3.5324 0,1.9506 -1.572,3.5322 -3.5122,3.5322 z m -24.7203,-3.9737 -9.2402,-6.5704 4.5782,-2.5651 c 1.1999,2.8883 3.3186,6.3129 4.662,9.1355 z m 132.0792,-1.2721 -13.6407,-2.9751 2.0801,-14.3706 14.8845,2.9857 z m 40.5665,-0.7884 -7.2435,-3.4272 4.7768,-11.9737 11.7173,6.276 z m -32.3821,-0.778 c -1.9401,0 -3.5121,-1.5814 -3.5121,-3.5322 0,-1.9507 1.572,-3.5322 3.5121,-3.5322 1.9397,0 3.5121,1.5815 3.5121,3.5322 0,1.9508 -1.5724,3.5322 -3.5121,3.5322 z m -78.7813,-0.7885 -2.4356,-14.3705 15.3863,-2.1761 0.9512,14.6544 z m -57.6046,-0.2733 c -1.9398,0 -3.512,-1.5813 -3.512,-3.5322 0,-1.9507 1.5722,-3.5322 3.512,-3.5322 1.9397,0 3.5122,1.5815 3.5122,3.5322 0,1.9509 -1.5725,3.5322 -3.5122,3.5322 z m 10.9127,-0.1051 -5.0903,-12.6674 15.0515,-6.3287 4.4528,12.6781 z m 38.382,-0.9146 c -1.9403,0 -3.512,-1.5813 -3.512,-3.5322 0,-1.9507 1.5717,-3.5321 3.512,-3.5321 1.9396,0 3.5121,1.5814 3.5121,3.5321 0,1.9509 -1.5725,3.5322 -3.5121,3.5322 z m 50.831,-1.4402 -14.4037,-0.2628 0.1662,-14.5283 15.773,0.4415 z m -115.1982,-1.0092 -5.6652,-3.9527 c 58.3048,-37.707 140.2107,-42.3816 204.129,-5.2667 0,0 -2.6118,2.618 -4.0974,4.1524 -57.6209,-34.6812 -141.7434,-29.8144 -194.3664,5.067 z m 123.0063,-1.6399 c -1.94,0 -3.5121,-1.5815 -3.5121,-3.5322 0,-1.9508 1.5721,-3.5322 3.5121,-3.5322 1.9397,0 3.5121,1.5814 3.5121,3.5322 0,1.9507 -1.5724,3.5322 -3.5121,3.5322 z m -29.5704,-0.7989 c -1.9396,0 -3.5121,-1.5815 -3.5121,-3.5322 0,-1.9508 1.5725,-3.5322 3.5121,-3.5322 1.9399,0 3.5121,1.5814 3.5121,3.5322 0,1.9507 -1.5722,3.5322 -3.5121,3.5322 z m 68.6004,-1.9449 -15.0413,-4.3732 2.5611,-11.9422 16.494,4.7727 z m 9.9509,-0.084 c -1.94,0 -3.512,-1.5813 -3.512,-3.5322 0,-1.9506 1.572,-3.5322 3.512,-3.5322 1.9397,0 3.5122,1.5816 3.5122,3.5322 0,1.9509 -1.5725,3.5322 -3.5122,3.5322 z m -116.8288,-2.544 -3.5957,-13.4033 16.63,-3.5743 2.0071,13.1827 z m -9.5536,-1.9447 c -1.9401,0 -3.512,-1.5816 -3.512,-3.5322 0,-1.9509 1.5719,-3.5322 3.512,-3.5322 1.9395,0 3.5121,1.5813 3.5121,3.5322 0,1.9506 -1.5726,3.5322 -3.5121,3.5322 z m 217.2575,-2.0815 0.032,-9.3982 c 2.7579,2.2864 5.8734,4.7201 9.0622,7.18 -3.2527,-0.1737 -6.276,0.729 -9.0938,2.2182 z m 34.2531,-0.2313 c -0.7588,0.01 -2.5353,-0.6165 -4.6514,-0.6097 -6.772,0.022 -19.4214,-2.1031 -23.1628,-5.1932 -1.2469,-1.0262 -3.1131,-1.9376 -4.129,-3.5953 0,-0.7905 1.1149,-0.8108 2.7491,0.2103 3.1352,1.9585 8.3523,3.7045 15.334,4.6779 1.2616,0.176 1.4187,0.1245 1.4216,-0.4729 0,-0.7386 -1.1627,-1.1698 -4.8395,-1.7767 -4.7585,-0.7854 -5.771,-1.255 -6.8255,-1.5452 -2.826,-0.7784 -1.0203,-1.818 1.8887,-2.0974 11.8723,-1.1186 20.7605,4.0189 22.5492,9.887 0.1447,0.385 0,0.5119 -0.3344,0.5152 z m -165.3916,-0.2103 -14.9368,-1.9449 0.6794,-12.5729 16.348,1.8817 z m 127.0201,-1.0933 c -2.6093,-2.0601 -0.8145,-8.3061 0.6063,-10.1445 0.9198,-1.0326 3.074,-0.4851 3.0626,0.9671 -0.3252,1.3042 0.1339,7.5161 -0.1469,9.4403 -1.0399,0.5956 -2.5718,0.4275 -3.5224,-0.2629 z m -173.0951,-0.5571 -0.7736,-12.962 16.2957,-0.7464 -0.1253,12.7306 z m 54.9806,-0.8726 c -1.9395,0 -3.5121,-1.5814 -3.5121,-3.5322 0,-1.9508 1.5726,-3.5321 3.5121,-3.5321 1.9401,0 3.512,1.5813 3.512,3.5321 0,1.9508 -1.5719,3.5322 -3.512,3.5322 z m 90.8018,-0.1787 c -0.6017,-9.5115 13.9242,-15.9659 19.3582,-13.046 2.4063,1.2929 1.4053,2.0896 -3.3656,3.0592 -6.1737,1.6436 -10.2395,3.2447 -10.2435,4.4046 0,0.7116 0.9327,0.6258 3.4492,-0.3154 3.8748,-1.3089 7.9029,-1.8715 11.6024,-3.5427 2.7657,-1.2628 3.8416,-1.7053 4.4633,-0.9461 1.3028,1.5916 -4.8422,5.6078 -11.2156,6.6754 -4.7818,0.801 -9.6032,3.3646 -14.0484,3.711 z m -154.7718,-1.1879 c -1.9399,0 -3.5121,-1.5814 -3.5121,-3.5322 0,-1.9508 1.5722,-3.5321 3.5121,-3.5321 1.9403,0 3.5121,1.5813 3.5121,3.5321 0,1.9508 -1.5718,3.5322 -3.5121,3.5322 z m 32.6645,-2.5861 c -1.94,0 -3.5121,-1.5813 -3.5121,-3.5322 0,-1.9507 1.5721,-3.5321 3.5121,-3.5321 1.9399,0 3.5122,1.5814 3.5122,3.5321 0,1.9509 -1.5723,3.5322 -3.5122,3.5322 z m -78.2587,-6.0025 c -23.5061,-22.5099 -49.2703,-48.424 -70.5237,-69.7399 0.03,-11.1532 0.093,-33.4612 0.093,-33.4612 l 81.1543,-77.5717 c 14.6955,9.0227 27.1357,20.3022 38.591,40.3364 -1.2915,1.1211 -2.428,1.8335 -3.4076,3.0592 l 4.2333,-2.5441 c 14.9704,24.0802 21.3201,72.0572 -4.1078,110.5178 l 25.6923,-0.9462 -4.1914,8.799 -27.9711,1.5349 -11.3099,12.2049 c 0,0 -3.5839,0.6669 -6.5536,1.3562 -2.9461,0.6838 -8.9596,2.4141 -13.369,3.8475 -4.4091,1.4335 -8.1617,2.6078 -8.3308,2.6072 z m 189.7253,-6.234 c 0,0 -24.1545,-13.2027 -37.5666,-39.6426 43.3545,-37.507 59.6968,-81.1842 63.3846,-126.6439 23.5969,22.1971 35.5209,34.4754 56.8413,56.0316 l -0.7736,32.1682 z m -91.1885,-4.1944 c 6.2494,-13.4375 11.6261,-28.1582 16.4419,-43.9317 l 6.7211,1.9973 c 0,0 -4.3474,1.8282 -6.2821,2.9856 l 3.4911,5.6557 -6.6165,2.7333 3.9093,4.7937 -6.7104,3.9106 3.3552,4.2365 -6.1462,3.0907 3.8152,4.4152 -6.4492,3.6163 3.3657,4.226 z m -2.0591,-0.032 c 0,0 -0.8655,-0.1658 -1.8816,-0.3679 -0.244,0.094 1.2112,-3.5212 1.0557,-3.648 -2.3474,-0.4858 -2.4842,-0.3546 -3.188,-0.5676 l -1.7874,3.7215 -2.9372,-0.5571 c 5.9248,-13.4485 12.2612,-28.1622 15.8985,-44.0895 l 3.4597,0.7254 c 0,0 -1.0108,3.3584 -1.0138,3.8055 0.4061,0.086 2.3542,0.9113 2.958,1.1564 0.2073,-0.5253 1.4425,-4.4152 1.4425,-4.4152 l 2.7385,0.073 c -4.4823,17.3902 -12.2965,36.6742 -16.7449,44.1629 z m -11.2576,-0.5151 -6.1357,-5.1091 6.9615,-2.7227 -3.6062,-4.8253 7.3795,-2.6807 -4.2331,-5.0143 7.3062,-2.7123 -4.3588,-6.0657 7.5991,-2.5756 -4.7977,-5.3298 6.8568,-3.2273 -4.1077,-4.0894 c 0,0 4.2785,-1.4186 4.526,-1.4823 0.6878,-0.1771 3.5642,0.5362 3.5642,0.5362 -4.3344,15.5199 -9.6903,31.2515 -16.9541,45.2983 z m 149.2739,-2.5861 c 1.6942,-1.1058 0.7277,-3.5141 2.8535,-5.5716 0.3392,-0.3687 0.3683,-1.2157 0.5015,-1.9553 0.1015,-0.5611 1.7806,-7.2768 1.7806,-7.2768 0,0 -0.4242,0.5131 -1.0966,2.655 -0.5738,1.828 -1.0719,5.2973 -1.3828,5.8764 -1.5668,0.4812 -1.8045,5.6208 -3.3934,4.917 -0.9178,-0.4065 -0.7425,-1.2465 -0.2245,-3.2176 1.1309,-3.9391 1.5748,-5.5989 -0.3659,-2.9119 -2.8991,3.5096 -3.1822,6.6774 0.085,7.3482 0.3443,0.066 1.0441,0.1297 1.244,0.1366 z m -43.8384,-1.4612 75.8338,-71.6111 0.2299,-26.7227 -26.3929,-26.9015 -18.7311,-18.2602 c -6.7994,40.8955 -22.3986,79.9095 -60.8029,113.6716 5.8846,9.5161 15.9654,21.5037 29.8632,29.8239 z m -204.4113,-0.7359 c 44.5578,-21.0614 54.8039,-64.2562 41.0058,-103.3587 -21.2341,27.4655 -37.8998,53.2694 -41.0058,103.3587 z m 158.5871,-2.1866 -20.2364,-6.5493 7.6202,-26.134 18.2189,5.5611 1.8604,4.6255 z m -156.3503,-0.6833 c 1.9364,-34.948 15.0395,-69.0804 37.8386,-95.8634 11.528,28.6021 4.5942,74.3314 -37.8386,95.8634 z m 108.9895,-0.1892 1.2751,-3.2484 -2.8011,-0.7989 -1.1918,3.3009 z m 2.8013,-7.6741 1.1497,-3.301 -2.8743,-0.9776 -1.0767,3.3534 z m -119.3688,-0.5992 c 6.2371,-48.4766 32.2781,-92.5909 59.7888,-115.0698 -8.7669,-14.302 -19.0752,-23.5011 -29.5494,-31.18 l -77.4957,74.6597 0.3032,24.9041 z m 204.7876,-12.8673 c 0.4758,-1.7724 0.6447,-2.6733 0.6447,-2.6733 0,0 -0.8925,0.8292 -3.2485,2.1257 -15.2267,7.6381 -10.3137,-3.9773 -3.1392,-8.2734 1.6033,-0.8585 3.2518,-1.8786 3.2518,-1.8786 0,0 -1.5242,-0.3467 -3.175,-0.6549 -9.241,-1.9313 -7.2739,-7.3674 2.364,-6.5213 1.425,0.1252 3.0995,0.3963 3.0999,0.3162 0,-0.08 -0.5775,-2.1216 -1.2447,-3.8115 -3.2491,-8.2305 2.8119,-8.8707 6.7986,-3.6381 0.5551,0.7284 1.8131,2.7389 1.8131,2.7389 0,0 0.393,-1.5207 0.6328,-2.9913 3.4443,-12.8996 11.9414,-12.5724 8.7697,0.5152 -0.397,1.3525 -0.8802,3.7731 -0.8802,3.7731 0,0 1.9106,-1.1611 3.9899,-2.0947 11.0048,-4.9418 12.7912,0.1439 2.7944,7.5803 -2.8444,2.116 -3.8084,2.947 -3.8084,2.947 1.7703,0.1361 3.403,0.409 4.8443,0.773 7.9749,2.0129 10.101,6.8074 -2.6769,6.5823 -1.8874,-0.038 -3.8099,-0.1641 -3.8099,-0.1641 0,0 0.63,2.7563 1.2959,4.8329 3.0825,9.6156 -3.1299,10.7599 -8.3706,2.146 -1.1151,-1.832 -1.4348,-1.8438 -1.4348,-1.8438 0.1619,-0.01 -0.3292,3.2802 -1.599,6.3193 -6.3445,11.8187 -8.8287,1.0316 -6.9119,-6.105 z m -137.0546,9.5663 c 5.3228,-9.458 9.9638,-18.8619 12.1771,-28.6675 l 20.7067,0.3575 c -1.4325,8.6942 -5.0901,17.7376 -9.4598,27.3009 -8.4283,0.2315 -16.0311,0.604 -23.424,1.0091 z m 54.6671,-4.1945 1.1915,-3.4795 -2.9999,-0.9252 -1.087,3.385 z m 154.8448,-6.5282 c 2.2184,-5.7975 2.9606,-12.2543 4.1916,-17.4297 0.5194,-2.9998 0,-4.2492 -1.7979,-4.9199 -2.5439,-0.9545 -6.2148,0.3462 -8.268,3.301 -1.1576,1.6665 -1.9982,5.1079 -2.1741,11.1852 l -0.1986,5.414 c 3.1472,0.5882 5.2963,1.4363 8.247,2.4494 z m -152.0435,-0.7569 0.9929,-3.1958 -2.8954,-1.0828 -1.108,3.2273 z m -134.1071,-1.1985 c -3.5227,-0.087 -4.1777,-0.4048 -7.3689,-2.3021 l -6.1568,-6.3707 c 1.6137,-1.554 2.6237,-3.7369 2.6237,-6.1602 0,-4.7129 -3.8016,-8.5362 -8.4876,-8.5362 -2.3218,0 -5.958,2.4599 -5.958,2.4599 l -9.7571,-10.1632 c 5.6875,-2.5059 11.2576,3.2596 13.3521,5.5406 0.4913,0.5351 0.6179,0.9024 0.6179,0.9024 0,0 -0.087,-0.2806 0.1166,-1.4082 0.8176,-4.5254 5.2556,-17.8802 9.4991,-17.1686 4.779,0.8016 -0.087,19.8925 -0.1383,19.4523 3.2854,-3.4933 19.2959,-7.2125 18.1743,-3.312 -2.2281,7.7482 -14.2034,10.7344 -15.7788,12.0804 6.3681,3.8524 14.4404,14.5358 9.2616,14.9856 z m 285.3772,-0.2507 c -2.0277,-0.1432 -3.4192,-0.3895 -4.7977,-0.9687 -0.6419,-0.1726 -0.6708,-0.7122 -0.7421,-1.2194 -0.021,-2.2882 -0.5827,-9.0037 1.526,-9.0723 2.3424,0.049 4.5409,-0.4558 6.0835,-1.6399 1.2403,-0.9523 1.6517,-0.2643 1.317,2.176 -0.3244,2.3646 -1.4929,7.3338 -1.9965,9.3456 -0.08,0.8299 -0.736,1.416 -1.3902,1.3787 z m -63.2695,-0.085 c 4.6859,0 8.4873,-3.8232 8.4873,-8.5361 0,-4.7129 -3.8014,-8.5361 -8.4873,-8.5361 -4.6862,0 -8.4876,3.8232 -8.4876,8.5361 0,4.7129 3.8014,8.5361 8.4876,8.5361 z m 0,-2.9855 c -3.046,0 -5.5191,-2.4872 -5.5191,-5.5506 0,-3.0633 2.4731,-5.54 5.5191,-5.54 3.0457,0 5.5189,2.4767 5.5189,5.54 0,3.0634 -2.4732,5.5506 -5.5189,5.5506 z m -43.7934,-0.1036 c -19.4541,-33.7731 -17.2001,-80.1299 5.7354,-113.8518 l -24.6578,1.7346 3.2403,-6.3496 26.2882,-2.5755 c 4.0167,-3.6974 7.6726,-7.9244 11.6233,-11.8791 l 0.041,-1.3982 c 9.0122,-2.1045 18.0326,-4.5272 27.2186,-7.8567 4.849,4.788 13.9695,14.3615 13.9097,14.6021 l -0.5863,3.0991 c -62.52,32.0795 -44.2305,96.4151 -39.8289,101.7053 -6.7068,8.0989 -14.7125,15.7206 -22.9845,22.7698 z m -173.5165,-6.1408 c -2.5323,0 -4.5782,-2.0682 -4.5782,-4.615 0,-2.5468 2.0459,-4.615 4.5782,-4.615 2.5323,0 4.5888,2.0682 4.5888,4.615 0,2.5468 -2.0565,4.615 -4.5888,4.615 z m -20.3825,-1.2405 -7.6827,-7.958 c 0.9972,-0.9897 2.3657,-1.6084 3.8778,-1.6084 3.046,0 5.5189,2.4767 5.5189,5.5402 0,1.58 -0.6589,3.0149 -1.714,4.0262 z m 263.8762,-0.9882 c -2.5323,0 -4.5784,-2.0577 -4.5784,-4.6045 0,-2.5468 2.0461,-4.6149 4.5784,-4.6149 2.5318,0 4.5886,2.0681 4.5886,4.6149 0,2.5468 -2.0568,4.6045 -4.5886,4.6045 z m 34.1173,-1.9342 c -2.1474,-0.7223 -1.6469,-2.74 1.1274,-4.5153 1.7953,-1.1485 3.4395,-1.402 5.0187,-0.5518 2.9922,1.6111 -3.2163,6.1186 -6.1461,5.0671 z m -35.4449,-11.2905 27.6262,-26.8804 c -1.7382,4.4663 -1.8023,8.9205 -1.9336,13.3823 -8.3131,-0.8617 -11.7937,3.3797 -10.5782,12.1104 -5.3694,-0.3222 -10.9341,0.2471 -15.1144,1.3877 z m -44.2669,-3.0697 c -12.8098,-36.7341 -1.6841,-75.6094 38.382,-98.1235 -1.6494,35.2 -16.3399,68.8539 -38.382,98.1235 z m -36.49,-3.2167 c -21.987,-5.7882 -47.0155,-8.4861 -73.0011,-8.5047 -0.1943,-9.9443 -0.6706,-20.4608 -2.6968,-30.6124 22.1358,5.8235 46.8596,8.5307 73.8686,8.0527 -1.1207,10.5104 0.6732,22.4325 1.8293,31.0644 z m -163.0398,-5.435 23.4138,-27.5322 -0.9825,15.0329 c -7.8858,-1.01 -10.6944,3.1733 -9.5328,11.4375 -4.3016,-0.5354 -8.597,0.2224 -12.8985,1.0618 z m 227.5116,-1.5243 1.8501,-10.9961 c 4.6727,-0.1273 9.2594,-1.796 9.1983,-12.2891 l 13.9645,0.1683 z m -257.6778,-2.0289 c -2.5323,0 -4.5782,-2.0683 -4.5782,-4.6151 0,-2.5466 2.0459,-4.6149 4.5782,-4.6149 2.5323,0 4.5886,2.0683 4.5886,4.6149 0,2.5468 -2.0563,4.6151 -4.5886,4.6151 z m 278.9174,-1.3982 c -2.5323,0 -4.5886,-2.0682 -4.5886,-4.6149 0,-2.5468 2.0563,-4.6045 4.5886,-4.6045 2.5323,0 4.5888,2.0577 4.5888,4.6045 0,2.5467 -2.0565,4.6149 -4.5888,4.6149 z m -268.6843,-4.7306 2.4459,-16.6518 c 6.3791,0.5639 11.7037,-0.4249 10.0659,-11.7109 5.3975,0.5307 12.893,-0.7515 17.9157,-1.188 z m 22.8598,-3.0172 c -2.5322,0 -4.5886,-2.0681 -4.5886,-4.6149 0,-2.5468 2.0564,-4.6045 4.5886,-4.6045 2.5323,0 4.5888,2.0577 4.5888,4.6045 0,2.5468 -2.0565,4.6149 -4.5888,4.6149 z m 279.4401,-3.5741 c -2.5322,0 -4.5886,-2.0683 -4.5886,-4.6151 0,-2.5467 2.0564,-4.6044 4.5886,-4.6044 2.5323,0 4.5782,2.0577 4.5782,4.6044 0,2.5468 -2.0459,4.6151 -4.5782,4.6151 z m -15.2086,-5.456 c -5.8565,-1.3219 -3.1472,-15.052 -1.8292,-18.7858 0.1,-0.1008 -16.3403,8.6622 -17.3199,4.7937 -0.6423,-7.7555 13.6092,-13.1617 13.6092,-13.1617 0,0 -9.6055,-8.3915 -9.8778,-13.6662 -0.024,-3.4127 4.0163,-2.7797 9.2612,1.5454 2.2417,2.2149 3.9765,3.8745 5.519,5.4139 -1.8016,1.5655 -2.9372,3.8839 -2.9372,6.4652 0,4.7127 3.8014,8.5361 8.4875,8.5361 2.588,0 4.9028,-1.1686 6.4596,-3.0066 1.2164,1.1782 2.5931,2.552 4.4424,4.3101 3.0298,2.8492 5.1562,5.1135 4.8501,6.1393 -3.9975,2.8305 -11.9485,-4.7744 -12.6582,-5.4665 0.5957,1.4826 -3.8014,16.0945 -8.0067,16.8831 z m 8.0067,-16.8831 c -0.032,-0.079 -0.075,-0.1261 -0.136,-0.1261 0,0 0.1037,0.093 0.136,0.1261 z m -249.671,6.1604 c -2.7861,0.039 -2.6125,-6.3383 -1.6202,-9.6505 0.6786,-2.5254 1.3483,-4.594 1.3483,-4.594 0,0 -2.3477,1.8444 -3.3867,2.3338 -7.5811,3.5707 -10.4071,-0.4725 -6.5849,-5.1616 1.8366,-2.412 4.342,-2.9468 6.376,-4.9725 -2.8976,-0.1327 -6.2252,-0.7784 -8.7279,-2.2601 -1.9463,-1.1703 -3.4741,-2.5886 -3.4702,-3.4692 0,-1.9711 4.8211,-3.0334 9.3235,-2.5229 1.9157,-0.042 5.5192,0.9882 5.5192,0.9882 0,0 -1.4938,-2.5277 -2.0384,-4.0368 -1.6808,-4.6915 -1.0916,-10.1858 1.338,-10.1762 4.0661,1.0932 6.0509,5.6393 7.6408,8.9041 1.3053,-3.6388 2.5703,-7.534 5.4772,-10.2392 2.8825,-2.6822 4.3608,-0.4548 4.2125,4.0894 -0.058,1.8077 -1.3799,7.2011 -1.3799,7.2011 17.0772,-5.7982 15.8089,2.046 2.4814,8.916 8.2091,3.937 13.1964,7.4795 -0.7672,8.2824 0.3697,0.3362 2.808,7.8574 0.1987,9.6189 -2.4244,1.6367 -7.5913,-3.9846 -7.8394,-4.2576 0.1037,0.5558 -1.3608,4.9595 -3.8152,8.0001 -1.8816,2.142 -3.2778,2.9925 -4.2856,3.0066 z m 15.7415,-16.368 c -0.021,-0.015 -0.034,-0.017 -0.041,0 0,0 0.039,-3e-4 0.041,0 z m -74.7585,4.9678 c 2.9743,-0.2724 4.8239,-2.9261 6.1996,-5.2406 0.279,-0.4692 0.794,-0.636 0.9855,-1.2561 1.2325,-3.9902 2.3077,-8.77 2.9667,-14.7204 -1.8844,-0.779 -6.1343,-2.0932 -8.014,-1.3864 -0.5289,0.2226 -0.3648,1.5974 -0.5436,2.0504 -2.965,7.508 -4.4303,13.1211 -4.4309,16.5703 0,2.7811 0.951,4.1556 2.8367,3.9828 z m 305.5732,0.341 c -3.0459,0 -5.5189,-2.4875 -5.5189,-5.5506 0,-1.7609 0.817,-3.3274 2.0903,-4.3417 3.5545,3.5649 5.3743,5.432 7.7559,7.7793 -1.011,1.2865 -2.5718,2.113 -4.3273,2.113 z m -306.6249,-2.6425 c -0.7455,-1.8207 1.6506,-3.798 4.7522,-3.7858 1.8447,0.01 2.4452,-0.2547 1.6238,1.3539 -0.9776,1.9563 -4.949,5.9163 -6.376,2.4319 z m 41.6094,1.2864 c -2.5324,0 -4.5888,-2.0685 -4.5888,-4.615 0,-2.5468 2.057,-4.6045 4.5888,-4.6045 2.5323,0 4.5886,2.0577 4.5886,4.6045 0,2.5468 -2.0563,4.615 -4.5886,4.615 z m 241.8839,-0.3259 c -2.5323,0 -4.5887,-2.0577 -4.5887,-4.6045 0,-2.5466 2.0564,-4.6149 4.5887,-4.6149 2.5322,0 4.5783,2.0685 4.5783,4.6149 0,2.5468 -2.0461,4.6045 -4.5783,4.6045 z m -216.9335,-1.8712 c 4.6859,0 8.4875,-3.8233 8.4875,-8.5362 0,-4.7128 -3.8016,-8.5361 -8.4875,-8.5361 -4.686,0 -8.4876,3.8233 -8.4876,8.5361 0,4.7129 3.8016,8.5362 8.4876,8.5362 z m 113.4317,-1.1458 c 2.2315,-9.8358 5.6658,-19.2385 10.0031,-28.5415 8.1823,-0.4959 17.0261,-0.8801 22.86,-1.7135 -9.7154,17.1132 -9.9503,21.1367 -13.5466,30.2024 z m -14.0588,-1.3878 c -2.2978,-0.2729 -4.8166,-0.6223 -7.0868,-1.0617 4.1763,-14.7843 9.6986,-29.9634 16.8287,-44.573 l 4.3169,0.6729 2.0486,2.544 -6.8568,2.7542 5.3414,5.4875 -8.8536,2.6913 5.446,5.4034 -8.7489,2.1971 4.6828,5.7188 -7.85,3.0801 4.9859,6.4757 -8.3619,2.3128 z m -99.3729,-0.452 c -3.046,0 -5.519,-2.4872 -5.519,-5.5506 0,-3.0633 2.473,-5.54 5.519,-5.54 3.0459,0 5.5188,2.4766 5.5188,5.54 0,3.0634 -2.4729,5.5506 -5.5188,5.5506 z m 90.7183,-0.841 -2.9165,-0.473 0.8991,-3.1433 -3.3241,-0.7149 -1.0764,3.3957 c 0,0 -2.6733,-0.2481 -2.9582,-0.4627 3.4817,-14.2719 15.7931,-44.1426 15.9508,-43.9842 l 3.167,0.473 -0.8362,3.0172 2.9477,0.4205 v 0.032 l 1.4215,-3.2799 3.1461,0.2627 c -7.6226,17.4947 -12.812,30.925 -16.4208,44.4574 z m -154.9288,-1.1354 c -2.3376,0.011 -2.1957,-1.2013 -0.5017,-5.6347 1.5919,-4.1653 2.1881,-5.834 2.961,-6.3733 1.8425,-1.315 5.8106,-0.2121 5.4889,1.7049 -1.0439,6.2235 -1.4148,8.8771 -3.0118,9.7221 -1.664,0.3299 -3.2856,0.5737 -4.9364,0.581 z m 143.201,-0.515 -7.6098,-1.4823 6.3657,-3.8055 -4.0451,-4.7517 7.8187,-3.3534 -4.7456,-4.9409 7.5469,-3.1012 -4.5888,-5.4349 7.8291,-3.322 -5.3309,-4.6465 8.801,-2.7964 -3.3344,-5.151 3.3135,-1.8608 4.087,0.6413 c -6.7841,15.9167 -11.144,29.0096 -16.1073,44.0053 z m -18.6998,-3.8055 -14.9054,-4.0789 -2.9791,-5.3509 6.9929,-23.7477 19.86,5.866 z m 29.6227,-2.2917 1.4215,-3.9002 -3.2822,-0.6833 -1.2647,4.0158 z m 2.8849,-8.9567 1.4214,-3.9001 -3.0835,-0.6097 -1.4528,3.9421 z m 2.9058,-7.8738 1.4528,-3.8791 -2.9998,-0.6203 -1.432,3.8896 z m -140.0401,-7.138 c 0,-2e-4 1.5212,-1.1094 1.9221,-1.6007 -0.3316,-0.8902 -1.2936,-2.258 -1.1501,-3.1558 0.1317,-0.6754 0.8796,-1.2201 2.0044,-2.4236 2.8059,-3.285 3.793,-2.9271 2.1636,0.5783 -0.5358,1.1018 -0.7733,2.1234 -0.7733,2.1234 0.649,-0.9138 1.1379,-1.997 1.5776,-2.855 0.9258,-1.7925 1.7887,-3.4864 1.7887,-3.4864 -1.7872,-0.6205 -2.9752,-1.9568 -4.1292,-2.8231 0,0 -0.5876,1.5893 -0.9933,3.1093 -0.5659,2.1199 -1.6824,2.9925 -3.0522,3.7214 -0.8638,0.4608 -1.6884,1.2981 -1.6884,1.2981 1.5074,1.5462 1.68,3.7575 2.3301,5.5141 z m 143.1445,-0.9567 1.5366,-4.1314 -2.9896,-0.7359 -1.6618,4.2156 z m 168.6425,-10.3864 c 0.2727,-16.4511 -0.2694,-27.2832 0.3031,-45.0249 l -44.2878,-57.72415 6.9093,-2.3337 c 0,0 0.076,-0.8006 0.4493,-0.9041 9.4639,-2.6177 24.8145,-5.2247 24.8145,-5.2247 -11.4169,-26.2183 -18.8212,-59.0038 -13.7137,-91.7531 l -114.6234,0.3049 z m -242.417,-27.879 3.9511,-3.9843 c 58.2929,31.7296 138.5802,31.6048 197.1674,-6.8121 l 4.7769,3.5217 c -63.9449,41.202 -142.6146,40.9436 -205.8954,7.2747 z m 240.2742,22.1077 -134.9119,-194.91205 15.8462,-0.2313 118.9506,156.49945 z m -289.5269,-3.5217 c 0,0 3.8961,-1.0163 7.1703,-2.0709 9.3741,-3.0191 13.76,-8.4713 12.8987,-16.0421 -0.2546,-2.2366 -0.831,-2.205 -4.6514,0.2208 -8.9399,5.6754 -9.4986,5.9263 -20.6336,9.209 -0.8612,0.2537 -2.1112,0.063 -2.1112,0.063 l 0.4911,-8.841 c 18.5609,0.07 17.5473,-14.7571 12.2086,-22.4652 1.8689,-3.5642 5.9581,-16.0075 -7.5047,-20.7411 -6.7154,-1.3451 -13.8286,4.1423 -13.6094,4.4258 -12.3873,-5.8922 -26.7633,3.9864 -15.5537,21.0985 -4.2147,7.4629 -1.2431,13.0027 2.7806,17.7661 0,0 -0.68,-0.059 -6.5434,-1.1459 -8.894,-1.65 -12.2924,-1.3561 -12.2924,-1.3561 -0.021,8.0507 6.6183,11.6473 20.4454,12.7411 9.7931,-1.3894 26.9051,7.2074 26.9051,7.138 z m 149.3469,-0.9356 c -0.6696,0 -1.3315,0 -1.9965,-0.011 l 0.6482,-13.7503 15.0621,-0.6939 0.9826,13.6976 c -5.1877,0.3601 -10.009,0.7407 -14.6964,0.7571 z m -18.0517,-0.3363 -16.1599,-1.9764 2.4461,-12.8568 14.8845,1.6084 z m -131.005,-0.1589 c -1.3373,-0.1529 -0.9086,-1.709 0.9223,-2.0699 2.9051,-0.5719 10.3545,-4.9334 10.3585,-6.0657 0,-0.7301 -0.3666,-0.625 -3.094,0.841 -1.3631,0.7325 -4.2079,1.9811 -6.3134,2.7858 -2.1055,0.8054 -4.5131,1.7748 -5.3516,2.1551 -2.5045,1.1362 -3.7457,0.3507 -2.8433,-1.7977 0.5966,-1.4205 0.8326,-1.532 6.6375,-3.385 5.2528,-1.6755 6.2168,-2.1094 9.5538,-4.2575 1.2446,-0.8017 3.4501,-2.0818 4.9022,-2.8384 3.4311,-1.7868 4.1275,-1.7938 4.1184,0.6097 0.1878,7.1223 -7.6454,12.4664 -18.2608,14.0027 -0.2768,0.063 -0.6335,0.03 -0.6296,0.019 z m 139.7957,-1.6599 c -2.0202,0 -3.6584,-1.6476 -3.6584,-3.6794 0,-2.0323 1.6382,-3.6794 3.6584,-3.6794 2.0205,0 3.6585,1.6471 3.6585,3.6794 0,2.0318 -1.638,3.6794 -3.6585,3.6794 z m 39.9813,-0.9777 -1.2022,-12.4783 14.8114,-3.8265 3.3866,12.8882 c -5.6663,1.3961 -11.3295,2.3771 -16.9958,3.4166 z m -190.8021,-0.9461 c -4.06,-0.6214 -3.7379,-9.9735 -1.662,-11.5953 3.1955,-2.3143 5.1577,2.526 3.7317,8.9462 -0.4016,1.9306 -1.1419,2.6049 -2.0697,2.6491 z m 182.3981,-0.5046 c -2.0205,0 -3.6585,-1.6478 -3.6585,-3.6794 0,-2.0327 1.638,-3.6793 3.6585,-3.6793 2.0202,0 3.6584,1.6466 3.6584,3.6793 0,2.0316 -1.6382,3.6794 -3.6584,3.6794 z m -72.353,-1.0723 -16.745,-4.594 4.0974,-13.0354 15.7101,4.4468 z m 9.1147,-0.2523 c -2.0206,0 -3.6585,-1.6472 -3.6585,-3.6793 0,-2.0321 1.6379,-3.6794 3.6585,-3.6794 2.0203,0 3.6585,1.6473 3.6585,3.6794 0,2.0321 -1.6382,3.6793 -3.6585,3.6793 z m -136.9815,-1.0933 c -7.2139,-0.076 -16.7276,-3.7149 -16.7451,-9.3245 0.1468,-1.594 15.1124,0.5225 22.0237,3.3219 2.4523,0.993 5.4405,4.0151 5.4354,5.2772 0,0.7503 -1.4632,0.6967 -2.0593,-0.032 -0.9724,-1.1891 -4.418,-2.4307 -12.3341,-4.4363 -6.0802,-1.5403 -6.686,-1.6007 -6.6895,-0.6729 0,0.8448 3.5906,2.0097 7.4841,2.6597 1.9578,0.3222 3.7848,0.9166 6.794,1.1774 1.4032,0 1.7451,0.8907 0.5749,1.4928 -1.2744,0.3809 -2.8192,0.5537 -4.4841,0.5361 z m 12.7418,-2.9014 c -1.8197,-0.8584 -2.4767,-2.5684 -3.4808,-3.4692 1.2481,-0.5947 1.8055,-1.1945 3.8257,-1.3455 -0.036,1.3424 0.3276,2.9448 -0.3449,4.8147 z m 219.2854,-1.0092 c -2.0203,0 -3.6585,-1.6476 -3.6585,-3.6794 0,-2.0321 1.6382,-3.6794 3.6585,-3.6794 2.0204,0 3.6584,1.6473 3.6584,3.6794 0,2.0318 -1.638,3.6794 -3.6584,3.6794 z m 9.8462,-1.0408 -3.951,-12.741 14.1528,-6.1919 5.0173,12.6255 c -4.8925,2.5868 -10.2442,4.4661 -15.2191,6.3074 z m -65.4437,-2.0814 c 0,0 -11.2744,-0.015 -15.1668,-0.063 l 0.9095,-14.3811 14.069,-0.105 z m 15.0622,-0.7885 -0.7839,-14.36 13.5466,-1.8292 2.6759,14.4442 z m -85.6487,-0.126 c -2.0202,0 -3.6585,-1.6476 -3.6585,-3.6794 0,-2.0321 1.6383,-3.6794 3.6585,-3.6794 2.0204,0 3.6584,1.6473 3.6584,3.6794 0,2.0318 -1.638,3.6794 -3.6584,3.6794 z m -98.0141,-0.3364 c -8.2483,-0.036 -16.1154,-9.5788 -7.9648,-19.5742 -13.3683,-10.344 1.1654,-27.7309 12.9819,-17.598 16.8966,-16.6909 26.3401,5.9736 19.348,11.9843 10.3261,17.065 -2.3608,27.849 -15.4492,20.3206 -2.4099,3.4385 -5.6883,4.8812 -8.9159,4.8673 z m 138.0685,-0.41 -14.8636,-3.3219 2.9894,-14.2024 14.5186,2.9645 z m -49.1901,-0.3469 -13.5882,-6.791 10.5362,-10.1972 7.8289,3.9212 z m 87.1226,-1.6084 c -2.0206,0 -3.6584,-1.6476 -3.6584,-3.6794 0,-2.0321 1.6378,-3.6794 3.6584,-3.6794 2.0205,0 3.6584,1.6473 3.6584,3.6794 0,2.0318 -1.6379,3.6794 -3.6584,3.6794 z m -29.3613,-0.4625 c -2.0207,0 -3.6586,-1.6477 -3.6586,-3.6794 0,-2.0323 1.6379,-3.6794 3.6586,-3.6794 5.3843,0.8478 3.9356,7.2383 0,7.3588 z m 67.6806,-2.071 -3.3135,-14.2024 13.766,-4.6781 4.9232,13.8345 z m -9.4595,-1.0092 c -2.0205,0 -3.6585,-1.6473 -3.6585,-3.6794 0,-2.0317 1.638,-3.6794 3.6585,-3.6794 2.0204,0 3.6582,1.6477 3.6582,3.6794 0,2.0321 -1.6378,3.6794 -3.6582,3.6794 z m -203.7737,-6.5493 c 1.0354,-1.2941 2.3961,-2.8189 2.3961,-2.8189 3.4248,1.4202 6.7445,0.8535 8.9657,-0.679 0,0 2.3599,1.8924 4.5156,3.645 3.7356,3.0353 4.9813,3.7293 4.9858,2.46 0,-0.2633 -1.2679,-1.5621 -2.8116,-2.891 -4.2123,-3.6247 -5.0737,-4.9312 -5.0737,-4.9312 1.0123,-3.2894 1.002,-5.8666 -0.9323,-8.6322 0,0 -0.079,-0.3601 1.3988,-1.9297 2.684,-2.8469 5.4516,-7.2429 4.8144,-7.8892 -0.7921,-0.8027 -3.0346,1.1219 -5.8492,4.9458 -2.0053,2.7258 -2.6083,2.7851 -2.6083,2.7851 -3.4216,-0.9285 -5.317,-1.769 -8.7374,1.0703 0,0 -1.2906,-0.3935 -3.8681,-2.5329 -4.0164,-3.3345 -5.4588,-4.0527 -5.8952,-2.9225 -0.3558,0.9218 0.1728,1.5389 3.5748,4.142 2.2153,1.695 4.6788,3.6805 4.6788,3.6805 -0.7238,1.195 -1.237,5.4405 1.2396,8.3464 0,0 -0.098,-0.1915 -3.7595,4.5825 -2.437,3.1753 -2.8593,3.577 -2.0517,4.2576 1.0763,1.4173 4.6548,-4.2366 5.0174,-4.6886 z m 106.167,4.0684 -13.4106,-5.6663 4.7978,-14.0973 12.9507,5.3194 z m 147.5596,-0.9461 c -2.0206,0 -3.6585,-1.6478 -3.6585,-3.6795 0,-2.0324 1.6379,-3.6794 3.6585,-3.6794 2.0199,0 3.6584,1.647 3.6584,3.6794 0,2.0317 -1.6383,3.6795 -3.6584,3.6795 z m -137.1904,-0.3785 c -2.0205,0 -3.6586,-1.6477 -3.6586,-3.6794 0,-2.0321 1.6381,-3.6794 3.6586,-3.6794 2.0204,0 3.6584,1.6473 3.6584,3.6794 0,2.0317 -1.638,3.6794 -3.6584,3.6794 z m 146.556,-1.0093 -4.3902,-10.9329 9.9823,7.4849 z m -110.0556,-2.8173 -13.3583,-1.5874 2.1113,-12.8042 11.5188,1.0513 z m 14.5814,-0.032 0.1361,-13.1616 12.6896,-0.5467 1.0764,13.1405 z m 65.287,-2.3969 c -2.0201,0 -3.6586,-1.6476 -3.6586,-3.6793 0,-2.0324 1.6385,-3.6794 3.6586,-3.6794 2.0206,0 3.6584,1.647 3.6584,3.6794 0,2.0317 -1.6378,3.6793 -3.6584,3.6793 z m 10.1182,-0.2628 -5.1637,-13.2247 8.0067,-3.8896 10.7349,10.2181 z m -47.758,-0.1681 -2.0697,-12.5834 13.2331,-3.2904 3.209,12.8041 z m -189.1401,-0.126 c -2.8801,0 -5.2158,-2.3492 -5.2158,-5.2458 0,-2.8968 2.3357,-5.2457 5.2158,-5.2457 2.8801,0 5.2158,2.3488 5.2158,5.2457 0,2.8966 -2.3357,5.2458 -5.2158,5.2458 z m 154.8347,-0.3995 c -2.0205,0 -3.6585,-1.6473 -3.6585,-3.6793 0,-2.0322 1.638,-3.6795 3.6585,-3.6795 2.0204,0 3.6582,1.6473 3.6582,3.6795 0,2.032 -1.6378,3.6793 -3.6582,3.6793 z m -36.0406,-1.3561 -14.1112,-4.594 4.7455,-11.3641 12.1877,3.3221 z m 62.5378,-0.4731 c -2.0204,0 -3.6584,-1.6473 -3.6584,-3.6793 0,-2.0321 1.638,-3.6794 3.6584,-3.6794 2.0205,0 3.6585,1.6473 3.6585,3.6794 0,2.032 -1.638,3.6793 -3.6585,3.6793 z m -53.6532,-1.3561 c -2.0202,0 -3.6584,-1.6476 -3.6584,-3.6793 0,-2.0323 1.6382,-3.6795 3.6584,-3.6795 2.0206,0 3.6584,1.6472 3.6584,3.6795 0,2.0317 -1.6378,3.6793 -3.6584,3.6793 z m 89.5997,-4.3101 -4.8604,-11.2484 13.2748,-5.7714 5.7804,11.4693 z m -9.4073,-0.6728 c -2.0202,0 -3.6584,-1.6479 -3.6584,-3.6794 0,-2.0326 1.6382,-3.6794 3.6584,-3.6794 2.0206,0 3.6584,1.6468 3.6584,3.6794 0,2.0315 -1.6378,3.6794 -3.6584,3.6794 z m -48.9077,-3.3956 c -21.7935,0.045 -41.4665,-4.5367 -57.2595,-11.1116 l 4.7037,-4.4364 c 51.2245,17.7035 84.7229,9.7277 119.0762,-5.4243 l 3.4701,4.3101 c -24.2814,11.9456 -48.1973,16.6167 -69.9905,16.6622 z m -57.9493,-0.1366 c -2.0206,0 -3.6585,-1.6476 -3.6585,-3.6795 0,-2.032 1.6379,-3.6792 3.6585,-3.6792 2.0204,0 3.6584,1.6472 3.6584,3.6792 0,2.0319 -1.638,3.6795 -3.6584,3.6795 z m 133.4903,-8.0736 c -2.9391,-0.1744 -3.2202,-5.6903 -1.8501,-4.1 l 3.2716,3.8056 c -0.5313,0.229 -1.0015,0.3192 -1.4215,0.2944 z m -136.9398,-2.2813 c 0.1079,-4.1825 4.0478,-32.21675 17.3411,-51.49025 0.8068,9.7485 3.1456,21.4037 5.7594,29.1827 0,0 -14.3041,13.29265 -23.1005,22.30755 z m 170.0536,-42.48095 -69.1753,-93.8134 7.2644,0.053 c 1.5181,6.8886 3.7146,13.9373 8.0277,19.2063 3.5022,4.2782 6.6386,7.5016 12.9194,10.3758 3.7796,1.7278 4.2665,1.3601 4.505,4.2786 1.141,16.408 14.3521,26.7272 24.4697,30.6544 0.9764,9.9177 5.4281,19.6748 16.5883,27.8896 z m 6.7357,-2.2463 c -6.3203,-4.3689 -13.2475,-8.1582 -16.9796,-25.3815 -0.2807,-3.6013 -0.5003,-3.218 -3.313,-4.2776 -11.0246,-3.2501 -20.6152,-16.5765 -21.4698,-28.2261 0,-3.5136 -1.1302,-3.8256 -5.4354,-5.6452 -5.2865,-2.2329 -10.7746,-6.9565 -13.8809,-11.6058 -4.6208,-6.6841 -6.2519,-16.8066 -5.8536,-16.3258 l 3.8049,-0.022 c 2.714,17.1623 13.4503,24.008 24.8063,27.2148 -0.8842,24.2288 17.8472,31.7901 24.389,32.9277 -0.3843,17.4514 10.8428,24.6501 18.0881,30.5067 -1.3512,0.534 -4.156,0.834 -4.156,0.834 z m 11.1899,-2.4069 c -5.6582,-1.8598 -9.9465,-9.7892 -9.5112,-13.4388 -7.4634,-0.9458 -15.3045,-8.2015 -13.5835,-15.7592 0.5521,-0.3202 1.4236,-0.3851 2.2866,0.4827 -2.0002,14.6621 19.7635,7.4037 11.0669,-3.2045 l 3.8884,-2.5545 c 3.1274,14.6735 6.9778,22.9867 11.1569,33.5858 -1.5244,0.4049 -5.3041,0.8885 -5.3041,0.8885 z m -18.0197,-30.7424 c -1.933,0 -3.4912,-1.5776 -3.4912,-3.5216 0,-1.9441 1.5582,-3.5218 3.4912,-3.5218 1.9329,0 3.5018,1.5777 3.5018,3.5218 0,1.944 -1.5689,3.5216 -3.5018,3.5216 z m -18.6838,-15.8262 c -8.3105,-2.3644 -11,-10.8248 -10.7262,-13.9031 l 1.8161,0.041 c 2.9218,13.4049 18.1131,6.1125 11.7715,-4.5776 8.1207,-3.0184 7.4799,-10.557 5.089,-13.5376 -3.3005,-4.1143 -11.7147,-3.9848 -14.2795,2.3472 -7.8954,-10.2713 -18.7879,1.2541 -9.1776,10.8279 -7.8705,-2.9157 -9.1332,-13.5208 -7.9502,-16.8332 -3.6533,-1.2532 -7.8626,-7.0845 -7.3001,-7.0513 l 58.9737,-0.011 c 0,0 -2.8548,23.9334 0.1771,41.9974 -3.9238,-0.9493 -6.555,-1.9032 -11.0693,3.4271 -7.306,-6.0838 -12.5565,-1.4923 -12.1774,3.7635 0.5614,3.6756 2.4499,5.5014 5.5818,7.4427 -6.3945,1.5811 -11.2297,-9.5425 -10.7295,-13.934 z m -6.58,-16.8614 c -1.9918,0 -3.6062,-1.6239 -3.6062,-3.6269 0,-2.0029 1.6144,-3.6268 3.6062,-3.6268 1.9915,0 3.6059,1.6239 3.6059,3.6268 0,2.003 -1.6144,3.6269 -3.6059,3.6269 z"
       id="path6313-8-1"
       style="fill:#000000;fill-opacity:1;stroke:none"
       inkscape:connector-curvature="0" />
    <path
       d="m 6619.9197,1421.8599 h 5.9718 v 8.2026 h -5.9718 c 0,0 -0.046,4.4199 -0.2175,12.2168 -0.3703,16.6196 -0.7822,19.1996 -5.5571,23.7738 -9.4295,9.0396 -25.2207,1.6741 -25.0341,-11.9197 0.273,-19.1854 0.075,-37.4762 0.6318,-40.0676 0.9886,-4.5628 1.0888,-4.82 0.6849,-5.6542 -0.8267,-1.6743 -7.9596,-2.3999 -7.9596,-1.9313 v -8.0799 c 5.4486,-0.4257 7.712,0.09 12.0715,3.2256 2.7201,-2.6457 11.0056,-5.3027 17.5954,-2.177 5.0116,2.3771 8.8089,8.5169 7.7842,22.4109 v 0 z m -20.1845,-14.3197 c 2.9596,4.3085 7.9404,10.1882 12.6258,12.2769 0.2924,-4.9543 -0.1326,-9.1084 -1.8599,-11.3426 -2.7504,-3.557 -7.1967,-4.3713 -10.7659,-0.9343 z m -2.4554,47.3873 c 2.1966,6.2684 7.8398,8.3941 11.9629,4.4714 2.5781,-2.4401 2.9903,-5.0085 3.0459,-18.9595 0.032,-8.6055 0.032,-12.2225 0.032,-12.2225 -8.0266,-2.6228 -15.5296,-12.0513 -15.4654,-11.9285 l -0.1958,26.0252 c -0.1566,4.2227 0.053,8.4512 0.618,12.6139 v 0 z m 0,0"
       id="path4688"
       style="fill:#d40000;fill-opacity:1;stroke-width:1;stroke-miterlimit:4;stroke-dasharray:none"
       inkscape:connector-curvature="0" />
    <path
       inkscape:connector-curvature="0"
       style="display:inline;fill:#d40000"
       id="path4804"
       d="m 6604.1251,1339.5348 c 4.9006,8.0293 10.0569,15.8335 16.5001,22.5 -6.4432,6.6664 -11.5995,14.4705 -16.5001,22.5 -4.9008,-8.0295 -10.0566,-15.8336 -16.4999,-22.5 6.4433,-6.6665 11.5991,-14.4707 16.4999,-22.5 z" />
    <path
       d="m 6999.3625,903.20994 h -5.9721 v -8.20275 h 5.9721 c 0,0 0.045,-4.41992 0.2175,-12.21686 0.37,-16.61953 0.7819,-19.19954 5.5569,-23.77372 9.4294,-9.03969 25.2206,-1.6741 25.034,11.9197 -0.273,19.18536 -0.076,37.47619 -0.6319,40.06774 -0.9885,4.56262 -1.0886,4.81985 -0.6847,5.65396 0.8268,1.67431 7.9597,2.39999 7.9597,1.93135 v 8.07991 c -5.4487,0.42568 -7.7121,-0.0896 -12.0717,-3.22559 -2.7201,2.64566 -11.0056,5.30269 -17.5954,2.17701 -5.0115,-2.3771 -8.8089,-8.51692 -7.7839,-22.41075 v 0 z m 20.1842,14.31949 c -2.9595,-4.30843 -7.9403,-10.18821 -12.6256,-12.27664 -0.2925,4.95403 0.1327,9.10822 1.8598,11.34238 2.7504,3.55703 7.1966,4.37126 10.7658,0.93426 z m 2.4555,-47.38731 c -2.1967,-6.26835 -7.8398,-8.39409 -11.963,-4.47118 -2.5778,2.43991 -2.9902,5.00836 -3.0459,18.95931 -0.032,8.60553 -0.032,12.22276 -0.032,12.22276 8.0267,2.62277 15.5297,12.05105 15.4656,11.92821 l 0.1958,-26.02514 c 0.1567,-4.22269 -0.052,-8.45126 -0.6179,-12.61396 v 0 z m 0,0"
       id="path4888-0"
       style="fill:#d40000;fill-opacity:1"
       inkscape:connector-curvature="0" />
    <path
       inkscape:connector-curvature="0"
       style="display:inline;fill:#d40000"
       id="path5015"
       d="m 7015.1252,940.53465 c 4.9006,8.0294 10.0569,15.8335 16.5001,22.5001 -6.4432,6.6663 -11.5995,14.4704 -16.5001,22.5 -4.9008,-8.0296 -10.0566,-15.8337 -16.4999,-22.5 6.4433,-6.6666 11.5991,-14.4707 16.4999,-22.5001 z" />
  </g>
</svg>
