<?xml version="1.0" encoding="UTF-8" standalone="no"?>
<!-- Created with Inkscape (http://www.inkscape.org/) -->

<svg
   id="svg10047"
   height="123.0041"
   width="78.998199"
   version="1.1"
   viewBox="0 0 78.998199 123.0041"
   inkscape:version="0.91 r13725"
   sodipodi:docname="ramino-stretch.svgz"
   xmlns:inkscape="http://www.inkscape.org/namespaces/inkscape"
   xmlns:sodipodi="http://sodipodi.sourceforge.net/DTD/sodipodi-0.dtd"
   xmlns="http://www.w3.org/2000/svg"
   xmlns:svg="http://www.w3.org/2000/svg"
   xmlns:rdf="http://www.w3.org/1999/02/22-rdf-syntax-ns#"
   xmlns:cc="http://creativecommons.org/ns#"
   xmlns:dc="http://purl.org/dc/elements/1.1/">
  <sodipodi:namedview
     pagecolor="#ffffff"
     bordercolor="#666666"
     borderopacity="1"
     objecttolerance="10"
     gridtolerance="10"
     guidetolerance="10"
     inkscape:pageopacity="0"
     inkscape:pageshadow="2"
     inkscape:window-width="1920"
     inkscape:window-height="1016"
     id="namedview1491"
     showgrid="false"
     inkscape:zoom="1.3479675"
     inkscape:cx="513.5"
     inkscape:cy="307.5"
     inkscape:window-x="0"
     inkscape:window-y="0"
     inkscape:window-maximized="1"
     inkscape:current-layer="svg10047"
     showguides="false"
     inkscape:guide-bbox="true"
     inkscape:snap-grids="true"
     inkscape:showpageshadow="2"
     inkscape:pagecheckerboard="0"
     inkscape:deskcolor="#d1d1d1" />
  <metadata
     id="metadata16869">
    <rdf:RDF>
      <cc:Work
         rdf:about="">
        <dc:format>image/svg+xml</dc:format>
        <dc:type
           rdf:resource="http://purl.org/dc/dcmitype/StillImage" />
        <dc:title />
      </cc:Work>
    </rdf:RDF>
  </metadata>
  <defs
     id="defs10049" />
  <g
     id="diamond_1"
     transform="matrix(0.16457785,0,0,0.18222964,4.9990521,-150.34357)"
     inkscape:label="#diamond_1">
    <rect
       width="478.66342"
       height="673.65338"
       rx="22.895725"
       ry="23.039103"
       x="-29.704191"
       y="825.69342"
       id="rect6367-6"
       style="display:inline;fill:#ffffff;fill-opacity:1;stroke:#000000;stroke-width:1.34162;stroke-miterlimit:4;stroke-dasharray:none;stroke-opacity:1" />
    <path
       inkscape:connector-curvature="0"
       style="display:inline;fill:#d40000"
       id="path8511"
       d="m 209.62467,1110.0348 c 11.1383,18.7355 22.8564,36.9449 37.5003,52.5 -14.6439,15.5548 -26.362,33.7642 -37.5003,52.5 -11.138,-18.7358 -22.8559,-36.9452 -37.4998,-52.5 14.6439,-15.5551 26.3618,-33.7645 37.4998,-52.5 z" />
    <path
       d="m 4.124759,940.53465 c 4.9006,8.0294 10.0569,15.8335 16.5001,22.5001 -6.4432,6.6663 -11.5995,14.4704 -16.5001,22.5 -4.90079999,-8.0296 -10.0566002,-15.8337 -16.4999,-22.5 6.4432998,-6.6666 11.59910001,-14.4707 16.4999,-22.5001 z"
       id="path8515"
       style="display:inline;fill:#d40000"
       inkscape:connector-curvature="0" />
    <path
       d="m 415.12477,1339.5348 c 4.9006,8.0293 10.0569,15.8335 16.5001,22.5 -6.4432,6.6664 -11.5995,14.4705 -16.5001,22.5 -4.9008,-8.0295 -10.0566,-15.8336 -16.4999,-22.5 6.4433,-6.6665 11.5991,-14.4707 16.4999,-22.5 z"
       id="path8519"
       style="display:inline;fill:#d40000"
       inkscape:connector-curvature="0" />
    <path
       inkscape:connector-curvature="0"
       style="fill:#d40000;fill-opacity:1;stroke-width:1;stroke-miterlimit:4;stroke-dasharray:none"
       id="path8579"
       d="m -17.749148,927.03475 v -6.1564 h 5.830012 L 0.50053941,855.03475 H 7.5694024 l 13.6810336,65.8436 h 4.707893 v 6.1564 H 9.9163048 v -6.1564 H 14.24567 l -1.728886,-10.0903 H -3.6670672 l -1.250111,10.0903 h 4.32914681 v 6.1564 z m 28.885035,-23.4343 -7.0355163,-35.2416 -6.5898764,35.2416 z m 0,0" />
    <path
       inkscape:connector-curvature="0"
       style="fill:#d40000;fill-opacity:1;stroke-width:1;stroke-miterlimit:4;stroke-dasharray:none"
       id="path8601"
       d="m 437.08235,1398.0348 v 6.1564 h -5.83001 l -12.41968,65.8436 h -7.06886 l -13.68103,-65.8436 h -4.7079 v -6.1564 h 16.04203 v 6.1564 h -4.32937 l 1.72889,10.0903 h 16.18385 l 1.25011,-10.0903 h -4.32915 v -6.1564 z m -28.88504,23.4342 7.03552,35.2416 6.58988,-35.2416 z m 0,0" />
    <path
       d="m 26.08248,1398.0348 v 6.1565 H 20.25247 L 7.83279,1470.0348 H 0.76393 l -13.68103,-65.8435 h -4.7079 v -6.1565 h 16.04203 v 6.1565 h -4.32937 l 1.72889,10.0902 H 12.0004 l 1.25011,-10.0902 H 8.92136 v -6.1565 z m -28.88504,23.4343 7.03552,35.2416 6.58988,-35.2416 z m 0,0"
       id="path4682"
       style="fill:#d40000;fill-opacity:1;stroke-width:1;stroke-miterlimit:4;stroke-dasharray:none"
       inkscape:connector-curvature="0" />
    <path
       inkscape:connector-curvature="0"
       style="fill:#d40000;fill-opacity:1;stroke-width:1;stroke-miterlimit:4;stroke-dasharray:none"
       id="path4690"
       d="m 26.08248,1398.0348 v 6.1565 H 20.25247 L 7.83279,1470.0348 H 0.76393 l -13.68103,-65.8435 h -4.7079 v -6.1565 h 16.04203 v 6.1565 h -4.32937 l 1.72889,10.0902 H 12.0004 l 1.25011,-10.0902 H 8.92136 v -6.1565 z m -28.88504,23.4343 7.03552,35.2416 6.58988,-35.2416 z m 0,0" />
    <path
       inkscape:connector-curvature="0"
       style="display:inline;fill:#d40000"
       id="path4798-8"
       d="m 4.1249,1339.5348 c 4.9006,8.0293 10.0569,15.8335 16.5001,22.5 -6.4432,6.6664 -11.5995,14.4705 -16.5001,22.5 -4.9008,-8.0295 -10.0566,-15.8336 -16.4999,-22.5 6.4433,-6.6665 11.5991,-14.4707 16.4999,-22.5 z" />
    <path
       d="m 393.375,927.03482 v -6.15644 h 5.83001 l 12.41968,-65.84356 h 7.06886 l 13.68103,65.84356 h 4.7079 v 6.15644 h -16.04203 v -6.15644 h 4.32937 l -1.72889,-10.09025 h -16.18385 l -1.25011,10.09025 h 4.32915 v 6.15644 z m 28.88504,-23.43425 -7.03552,-35.2416 -6.58988,35.2416 z m 0,0"
       id="path4882-4"
       style="fill:#d40000;fill-opacity:1;stroke-width:1;stroke-miterlimit:4;stroke-dasharray:none"
       inkscape:connector-curvature="0" />
    <path
       inkscape:connector-curvature="0"
       style="display:inline;fill:#d40000"
       id="path5009"
       d="m 415.1249,940.53465 c 4.9006,8.0294 10.0569,15.8335 16.5001,22.5001 -6.4432,6.6663 -11.5995,14.4704 -16.5001,22.5 -4.9008,-8.0296 -10.0566,-15.8337 -16.4999,-22.5 6.4433,-6.6666 11.5991,-14.4707 16.4999,-22.5001 z" />
  </g>
</svg>
