<?xml version="1.0" encoding="UTF-8" standalone="no"?>
<!-- Created with Inkscape (http://www.inkscape.org/) -->

<svg
   id="svg10047"
   height="123.00014"
   width="78.997345"
   version="1.1"
   viewBox="0 0 78.997345 123.00014"
   inkscape:version="0.91 r13725"
   sodipodi:docname="ramino-stretch.svgz"
   xmlns:inkscape="http://www.inkscape.org/namespaces/inkscape"
   xmlns:sodipodi="http://sodipodi.sourceforge.net/DTD/sodipodi-0.dtd"
   xmlns="http://www.w3.org/2000/svg"
   xmlns:svg="http://www.w3.org/2000/svg"
   xmlns:rdf="http://www.w3.org/1999/02/22-rdf-syntax-ns#"
   xmlns:cc="http://creativecommons.org/ns#"
   xmlns:dc="http://purl.org/dc/elements/1.1/">
  <sodipodi:namedview
     pagecolor="#ffffff"
     bordercolor="#666666"
     borderopacity="1"
     objecttolerance="10"
     gridtolerance="10"
     guidetolerance="10"
     inkscape:pageopacity="0"
     inkscape:pageshadow="2"
     inkscape:window-width="1920"
     inkscape:window-height="1016"
     id="namedview1491"
     showgrid="false"
     inkscape:zoom="1.3479675"
     inkscape:cx="513.5"
     inkscape:cy="307.5"
     inkscape:window-x="0"
     inkscape:window-y="0"
     inkscape:window-maximized="1"
     inkscape:current-layer="svg10047"
     showguides="false"
     inkscape:guide-bbox="true"
     inkscape:snap-grids="true"
     inkscape:showpageshadow="2"
     inkscape:pagecheckerboard="0"
     inkscape:deskcolor="#d1d1d1" />
  <metadata
     id="metadata16869">
    <rdf:RDF>
      <cc:Work
         rdf:about="">
        <dc:format>image/svg+xml</dc:format>
        <dc:type
           rdf:resource="http://purl.org/dc/dcmitype/StillImage" />
        <dc:title />
      </cc:Work>
    </rdf:RDF>
  </metadata>
  <defs
     id="defs10049" />
  <g
     id="diamond_5"
     transform="matrix(0.16457785,0,0,0.18222964,-389.98779,-150.34261)"
     inkscape:label="#diamond_5">
    <rect
       transform="scale(-1)"
       width="478.65829"
       height="673.63171"
       rx="22.895481"
       ry="23.038363"
       x="-2848.9541"
       y="-1499.3198"
       id="rect6690-8"
       style="display:inline;fill:#ffffff;fill-opacity:1;stroke:#000000;stroke-width:1.34159;stroke-miterlimit:4;stroke-dasharray:none;stroke-opacity:1" />
    <path
       inkscape:connector-curvature="0"
       style="display:inline;fill:#d40000"
       id="path8457"
       d="m 2404.1248,940.53465 c 4.9006,8.0294 10.0569,15.8335 16.5001,22.5001 -6.4432,6.6663 -11.5995,14.4704 -16.5001,22.5 -4.9008,-8.0296 -10.0566,-15.8337 -16.4999,-22.5 6.4433,-6.6666 11.5991,-14.4707 16.4999,-22.5001 z" />
    <path
       inkscape:connector-curvature="0"
       style="display:inline;fill:#d40000"
       id="path8459"
       d="m 2815.1249,1339.5348 c 4.9006,8.0293 10.0569,15.8335 16.5001,22.5 -6.4432,6.6664 -11.5995,14.4705 -16.5001,22.5 -4.9008,-8.0295 -10.0566,-15.8336 -16.4999,-22.5 6.4433,-6.6665 11.5991,-14.4707 16.4999,-22.5 z" />
    <path
       inkscape:connector-curvature="0"
       style="display:inline;fill:#d40000"
       id="path8461"
       d="m 2722.1249,894.03475 c 11.1383,18.7355 22.8564,36.9449 37.5003,52.5 -14.6439,15.5548 -26.362,33.7642 -37.5003,52.5 -11.138,-18.7358 -22.8559,-36.9452 -37.4998,-52.5 14.6439,-15.5551 26.3618,-33.7645 37.4998,-52.5 z" />
    <path
       d="m 2497.1249,894.03475 c 11.1383,18.7355 22.8564,36.9449 37.5003,52.5 -14.6439,15.5548 -26.362,33.7642 -37.5003,52.5 -11.138,-18.7358 -22.8559,-36.9452 -37.4998,-52.5 14.6439,-15.5551 26.3618,-33.7645 37.4998,-52.5 z"
       id="path8463"
       style="display:inline;fill:#d40000"
       inkscape:connector-curvature="0" />
    <path
       d="m 2722.1249,1326.0348 c 11.1383,18.7355 22.8564,36.9449 37.5003,52.5 -14.6439,15.5548 -26.362,33.7642 -37.5003,52.5 -11.138,-18.7358 -22.8559,-36.9452 -37.4998,-52.5 14.6439,-15.5551 26.3618,-33.7645 37.4998,-52.5 z"
       id="path8465"
       style="display:inline;fill:#d40000"
       inkscape:connector-curvature="0" />
    <path
       inkscape:connector-curvature="0"
       style="display:inline;fill:#d40000"
       id="path8467"
       d="m 2497.1249,1326.0348 c 11.1383,18.7355 22.8564,36.9449 37.5003,52.5 -14.6439,15.5548 -26.362,33.7642 -37.5003,52.5 -11.138,-18.7358 -22.8559,-36.9452 -37.4998,-52.5 14.6439,-15.5551 26.3618,-33.7645 37.4998,-52.5 z" />
    <path
       d="m 2609.6249,1110.0348 c 11.1383,18.7355 22.8564,36.9449 37.5003,52.5 -14.6439,15.5548 -26.362,33.7642 -37.5003,52.5 -11.138,-18.7358 -22.8559,-36.9452 -37.4998,-52.5 14.6439,-15.5551 26.3618,-33.7645 37.4998,-52.5 z"
       id="path8469"
       style="display:inline;fill:#d40000"
       inkscape:connector-curvature="0" />
    <path
       inkscape:connector-curvature="0"
       style="fill:#d40000;fill-opacity:1;stroke-width:1;stroke-miterlimit:4;stroke-dasharray:none"
       id="path8571"
       d="m 2381.5651,908.39475 7.0047,-0.068 c 1.3363,4.346 4.293,8.7631 8.3077,9.9888 11.3422,2.7345 18.6393,-3.7715 21.0421,-11.2714 2.9148,-9.0976 -0.065,-21.8721 -7.8736,-26.4063 -6.4702,-3.7602 -16.0836,-0.5887 -20.4989,7.4544 l -4.9056,-3.0801 2.6336,-29.9777 h 32.0474 v 7.0859 h -25.9697 l -0.412,12.4887 c 5.5905,-4.0285 14.182,-3.9858 19.7695,-1.1599 10.5823,5.1801 15.4989,16.9573 13.4444,30.8376 -2.8507,13.8061 -9.1372,21.6289 -23.3166,22.7463 -15.7718,0.1461 -21.3399,-10.9831 -21.273,-18.6375 v 0 z m 0,0" />
    <path
       inkscape:connector-curvature="0"
       style="fill:#d40000;fill-opacity:1;stroke-width:1;stroke-miterlimit:4;stroke-dasharray:none"
       id="path8593"
       d="m 2837.7368,1416.6744 -7.0047,0.068 c -1.3363,-4.3459 -4.293,-8.763 -8.3077,-9.9887 -11.3422,-2.7345 -18.6393,3.7714 -21.0421,11.2714 -2.9148,9.0975 0.065,21.8721 7.8736,26.4063 6.4702,3.7602 16.0836,0.5887 20.4989,-7.4544 l 4.9056,3.0801 -2.6336,29.9777 h -32.0474 v -7.0859 h 25.9697 l 0.412,-12.4887 c -5.5905,4.0285 -14.182,3.9857 -19.7695,1.1599 -10.5823,-5.1801 -15.4989,-16.9573 -13.4444,-30.8376 2.8507,-13.8061 9.1372,-21.629 23.3166,-22.7463 15.7718,-0.1462 21.3399,10.9831 21.273,18.6375 v 0 z m 0,0" />
    <path
       d="m 2426.7369,1416.6744 -7.0047,0.068 c -1.3363,-4.3459 -4.293,-8.763 -8.3077,-9.9887 -11.3422,-2.7345 -18.6393,3.7714 -21.0421,11.2714 -2.9148,9.0975 0.065,21.8721 7.8736,26.4063 6.4702,3.7602 16.0836,0.5887 20.4989,-7.4544 l 4.9056,3.0801 -2.6336,29.9777 h -32.0474 v -7.0859 h 25.9697 l 0.412,-12.4887 c -5.5905,4.0285 -14.182,3.9857 -19.7695,1.1599 -10.5823,-5.1801 -15.4989,-16.9573 -13.4444,-30.8376 2.8507,-13.8061 9.1372,-21.629 23.3166,-22.7463 15.7718,-0.1462 21.3399,10.9831 21.273,18.6375 v 0 z m 0,0"
       id="path4674"
       style="fill:#d40000;fill-opacity:1;stroke-width:1;stroke-miterlimit:4;stroke-dasharray:none"
       inkscape:connector-curvature="0" />
    <path
       d="m 2404.125,1339.5348 c 4.9006,8.0293 10.0569,15.8335 16.5001,22.5 -6.4432,6.6664 -11.5995,14.4705 -16.5001,22.5 -4.9008,-8.0295 -10.0566,-15.8336 -16.4999,-22.5 6.4433,-6.6665 11.5991,-14.4707 16.4999,-22.5 z"
       id="path4790-3"
       style="display:inline;fill:#d40000"
       inkscape:connector-curvature="0" />
    <path
       d="m 2792.6892,908.39486 7.0047,-0.0677 c 1.3363,4.34596 4.293,8.76305 8.3077,9.98879 11.3422,2.73446 18.6393,-3.77149 21.0421,-11.27147 2.9148,-9.09752 -0.065,-21.87204 -7.8736,-26.40629 -6.4702,-3.76014 -16.0836,-0.58866 -20.4989,7.45439 l -4.9056,-3.08007 2.6336,-29.9777 h 32.0474 v 7.08589 h -25.9697 l -0.412,12.4887 c 5.5905,-4.0285 14.182,-3.98574 19.7695,-1.15985 10.5823,5.18006 15.4989,16.95728 13.4444,30.83755 -2.8507,13.80608 -9.1372,21.62897 -23.3166,22.74629 -15.7718,0.14618 -21.3399,-10.98304 -21.273,-18.6375 v 0 z m 0,0"
       id="path4874-0"
       style="fill:#d40000;fill-opacity:1;stroke-width:1;stroke-miterlimit:4;stroke-dasharray:none"
       inkscape:connector-curvature="0" />
    <path
       d="m 2815.1249,940.53465 c 4.9006,8.0294 10.0569,15.8335 16.5001,22.5001 -6.4432,6.6663 -11.5995,14.4704 -16.5001,22.5 -4.9008,-8.0296 -10.0566,-15.8337 -16.4999,-22.5 6.4433,-6.6666 11.5991,-14.4707 16.4999,-22.5001 z"
       id="path5001"
       style="display:inline;fill:#d40000"
       inkscape:connector-curvature="0" />
  </g>
</svg>
