<?xml version="1.0" encoding="UTF-8" standalone="no"?>
<!-- Created with Inkscape (http://www.inkscape.org/) -->

<svg
   id="svg10047"
   height="122.997"
   width="78.997345"
   version="1.1"
   viewBox="0 0 78.997345 122.997"
   inkscape:version="0.91 r13725"
   sodipodi:docname="ramino-stretch.svgz"
   xmlns:inkscape="http://www.inkscape.org/namespaces/inkscape"
   xmlns:sodipodi="http://sodipodi.sourceforge.net/DTD/sodipodi-0.dtd"
   xmlns="http://www.w3.org/2000/svg"
   xmlns:svg="http://www.w3.org/2000/svg"
   xmlns:rdf="http://www.w3.org/1999/02/22-rdf-syntax-ns#"
   xmlns:cc="http://creativecommons.org/ns#"
   xmlns:dc="http://purl.org/dc/elements/1.1/">
  <sodipodi:namedview
     pagecolor="#ffffff"
     bordercolor="#666666"
     borderopacity="1"
     objecttolerance="10"
     gridtolerance="10"
     guidetolerance="10"
     inkscape:pageopacity="0"
     inkscape:pageshadow="2"
     inkscape:window-width="1920"
     inkscape:window-height="1016"
     id="namedview1491"
     showgrid="false"
     inkscape:zoom="1.3479675"
     inkscape:cx="513.5"
     inkscape:cy="307.5"
     inkscape:window-x="0"
     inkscape:window-y="0"
     inkscape:window-maximized="1"
     inkscape:current-layer="svg10047"
     showguides="false"
     inkscape:guide-bbox="true"
     inkscape:snap-grids="true"
     inkscape:showpageshadow="2"
     inkscape:pagecheckerboard="0"
     inkscape:deskcolor="#d1d1d1" />
  <metadata
     id="metadata16869">
    <rdf:RDF>
      <cc:Work
         rdf:about="">
        <dc:format>image/svg+xml</dc:format>
        <dc:type
           rdf:resource="http://purl.org/dc/dcmitype/StillImage" />
        <dc:title />
      </cc:Work>
    </rdf:RDF>
  </metadata>
  <defs
     id="defs10049" />
  <g
     id="diamond_king"
     transform="matrix(0.16457785,0,0,0.18222964,-1179.9615,-150.34588)"
     inkscape:label="#diamond_king">
    <rect
       transform="scale(-1)"
       width="478.65829"
       height="673.6145"
       rx="22.895481"
       ry="23.037773"
       x="-7648.9541"
       y="-1499.3206"
       id="rect7234-2"
       style="display:inline;fill:#ffffff;fill-opacity:1;stroke:#000000;stroke-width:1.34157;stroke-miterlimit:4;stroke-dasharray:none;stroke-opacity:1" />
    <path
       d="m 7205.409,919.03795 h 7.1183 l -10.4569,-26.3236 -7.9895,11.1197 0.056,15.2039 h 5.6104 v 7.8412 h -19.7724 v -7.8412 h 6.5145 v -56.6101 l -6.5145,0.026 v -6.8538 h 20.0619 v 7.0858 h -5.5361 l -0.1179,27.5909 17.5119,-27.8229 h -6.181 v -6.8538 h 21.3439 v 6.8538 h -5.6321 l -14.4188,22.7368 14.1182,33.8591 h 6.2663 l 0.032,7.8411 h -21.9477 l -0.066,-7.8523 z m 0,0"
       id="path12546-3"
       style="fill:#d40000;fill-opacity:1"
       inkscape:connector-curvature="0" />
    <path
       d="m 7297.1249,894.03475 c 11.1383,18.7355 22.8564,36.9449 37.5003,52.5 -14.6439,15.5548 -26.362,33.7642 -37.5003,52.5 -11.138,-18.7358 -22.8559,-36.9452 -37.4998,-52.5 14.6439,-15.5551 26.3618,-33.7645 37.4998,-52.5 z"
       id="path8644"
       style="display:inline;fill:#d40000"
       inkscape:connector-curvature="0" />
    <path
       d="m 7522.1249,1326.0348 c 11.1383,18.7355 22.8564,36.9449 37.5003,52.5 -14.6439,15.5548 -26.362,33.7642 -37.5003,52.5 -11.138,-18.7358 -22.8559,-36.9452 -37.4998,-52.5 14.6439,-15.5551 26.3618,-33.7645 37.4998,-52.5 z"
       id="path8650"
       style="display:inline;fill:#d40000"
       inkscape:connector-curvature="0" />
    <path
       inkscape:connector-curvature="0"
       style="fill:#d40000;fill-opacity:1;stroke-width:1;stroke-miterlimit:4;stroke-dasharray:none"
       id="path8654"
       d="m 7613.5062,1405.9655 h -7.1886 l 10.5601,26.5854 8.0684,-11.23 -0.056,-15.3554 h -5.6659 v -7.9191 h 19.9679 v 7.9191 h -6.579 v 57.1732 l 6.579,-0.026 v 6.9221 h -20.2601 v -7.1564 h 5.5907 l 0.1196,-27.8653 -17.6848,28.0996 h 6.2421 v 6.9221 h -21.5548 v -6.9221 h 5.6878 l 14.5612,-22.963 -14.2576,-34.1958 h -6.3284 l -0.032,-7.9191 h 22.1645 l 0.068,7.9304 z m 0,0" />
    <path
       inkscape:connector-curvature="0"
       style="display:inline;fill:#d40000"
       id="path8658"
       d="m 7204.1251,940.53465 c 4.9006,8.0294 10.0568,15.8335 16.5,22.5001 -6.4432,6.6663 -11.5994,14.4704 -16.5,22.5 -4.9008,-8.0296 -10.0567,-15.8337 -16.5,-22.5 6.4433,-6.6666 11.5992,-14.4707 16.5,-22.5001 z" />
    <path
       inkscape:connector-curvature="0"
       style="display:inline;fill:#d40000"
       id="path8683"
       d="m 7615.1251,1339.5348 c 4.9006,8.0293 10.0568,15.8335 16.5,22.5 -6.4432,6.6664 -11.5994,14.4705 -16.5,22.5 -4.9008,-8.0295 -10.0567,-15.8336 -16.5,-22.5 6.4433,-6.6665 11.5992,-14.4707 16.5,-22.5 z" />
    <path
       d="m 7585.8442,1447.5348 c -0.1834,-171.9241 0.1253,-382.75 0,-570.00005 h -352.4691 v 570.00005 z m -103.1615,-3.2354 c -60.8304,-1.6658 -122.0377,0.1356 -183.3189,-0.3461 0,0 22.2646,-39.1272 29.0127,-51.442 1.4774,-2.7082 1.6279,-4.6244 0.8316,-5.7473 -1.2318,-1.7375 -1.1303,-4.6766 0.2497,-6.3765 0.5912,-0.7283 0.8597,-1.2001 0.9044,-1.6361 0.045,-0.435 -0.3424,-0.9116 -0.6551,-1.699 -1.0895,-3.7512 1.723,-6.3471 4.6676,-7.5511 1.9749,-0.8076 6.3708,-1.3405 9.6155,-1.1851 20.3362,0.9735 60.2198,18.3127 76.654,19.6643 11.4035,3.2123 26.1386,2.0891 38.2853,1.3949 2.2935,-0.1391 1.8921,5.2543 1.8921,5.2543 1.9138,17.8128 14.4189,33.3211 21.8611,49.6697 z m -186.6246,-1.9613 h -58.1819 v -9.0927 l 24.6262,-25.0131 c 2.2776,-2.3394 4.0749,-4.279 4.0749,-4.279 l 0.1446,-22.5695 c 16.4893,8.9387 19.7748,19.6201 22.7864,31.3686 27.5634,-20.5163 28.8535,-65.4133 -1.2372,-88.5264 -0.2461,10.04 -7.8295,29.7684 -21.2685,31.2323 l -0.1878,-78.2066 16.5281,16.2874 35.9362,-0.472 c -5.9237,9.6982 -6.058,17.4007 -2.2244,26.4918 6.461,14.8523 16.4301,48.7557 15.6654,48.6419 0,0 -0.2863,0.729 -1.1021,0.9124 -2.9787,0.6699 -4.8732,3.5709 -4.0227,7.0582 0.1619,1.1231 0.1553,0.8591 -0.6029,2.3178 -2.924,5.0337 0.5613,10.4982 0.5613,10.4982 z m 190.6578,0 -21.57,-39.4756 c 0,0 0.2813,-1.8039 0.1664,-2.8631 -0.1706,-1.5235 -0.6745,-2.8795 -1.5386,-4.2999 -0.5715,-0.9396 -0.9933,-2.2232 -1.1228,-3.4085 -0.2136,-1.9526 -0.2136,-1.954 -3.0457,-4.5307 -0.5949,-0.5414 -0.709,-0.8745 -0.4886,-1.4368 0.9375,-2.39 0.3882,-7.2757 -1.4656,-13.1096 -2.3416,-7.368 -2.9463,-7.2716 1.4137,-17.1263 0.9095,-2.0584 2.0093,-4.8052 3.1914,-7.331 5.3837,-11.1545 6.2138,-14.1798 -3.025,-20.1258 -2.6013,-1.6741 -3.3629,-3.126 -2.7131,-6.4604 0.5111,-2.6232 0.6154,-4.2996 -0.6343,-5.7787 -0.8099,-0.9589 -1.5441,-1.1167 -1.3409,-1.8564 0.1381,-0.5033 0.7424,-2.6853 0.5407,-4.5202 -0.5438,-4.9436 5.1162,-12.2254 10.2808,-14.7771 1.0334,-0.7392 1.3285,0.1631 1.9127,1.1957 5.3505,9.4531 18.669,5.6226 19.5533,-5.6529 0.2336,-2.9814 0.1426,-4.2743 0.9042,-4.9083 0.2585,-0.2148 1.0396,-0.6607 1.0396,-0.6607 0,0 19.9316,-13.0782 32.6096,-19.8007 0.8268,-0.4383 1.5687,-1.1612 2.152,-1.2795 0.6736,-0.1368 1.1736,-0.014 1.5903,0.409 4.6793,8.9796 2.0855,19.5859 1.6841,23.3456 0.1015,1.3319 1.2297,1.574 2.9315,1.5941 2.8818,0.034 7.0298,-2.9153 7.9314,-5.6634 0.7666,-2.3363 1.259,-3.8488 1.9543,-3.8385 0.699,0.01 1.0395,0.9527 2.7757,4.321 3.6121,7.0082 4.1698,7.896 7.5469,11.9664 2.6933,3.2465 4.9901,3.6772 7.63,1.2585 1.8352,-1.6815 1.7746,-0.2202 3.3368,0.6293 2.6965,1.8516 6.7503,0.1941 6.8506,-2.4122 0.084,-2.1867 0.1015,-3.8306 2.2972,-3.9748 2.4446,-0.1606 3.5053,-3.3455 2.817,-7.8867 -0.3623,-2.39 -0.4334,-2.7742 0.291,-3.6497 2.3642,-2.8571 2.6729,-4.8308 1.3723,-8.8202 -3.7073,-11.371 -9.079,-19.0255 -14.1271,-29.3654 0,0 12.4611,-7.3425 20.073,-11.6099 v 211.9034 z m -249.2244,-11.379 -0.3013,-183.786 27.5264,27.2994 c 0,0 0.5364,35.2185 0.5093,49.6171 -0.028,14.3986 -0.2342,28.796 -0.177,31.4736 0.058,2.6775 -0.1426,14.0713 -0.2288,25.7682 -0.1814,24.5048 2.042,21.4759 -2.4741,26.1772 z m 53.7952,-22.0346 -1.5179,-4.4364 c 11.5355,-6.6715 25.6476,-43.8265 -0.2596,-71.1064 l 0.5197,-5.6213 c 27.1548,24.8495 22.1293,60.4863 1.2578,81.1641 z m -1.975,-5.2439 c -3.9591,-8.2432 -8.4641,-15.5418 -14.6053,-20.0105 3.3072,-7.9646 4.7298,-16.7509 -0.8732,-28.5999 3.93,-2.1756 9.3906,-7.9498 15.0418,-19.7798 20.4438,20.836 15.8932,51.0448 0.4367,68.3902 z m 152.0918,-15.5742 c -11.338,-0.019 -23.1639,-1.885 -34.0028,-5.1809 -6.8372,-34.8694 -18.845,-58.3128 -18.7945,-71.9665 0,0 0.9465,0.1602 2.9626,1.6257 4.9388,3.5973 11.4239,1.5901 14.8964,-2.9891 3.292,-4.3408 -0.024,-10.3782 1.663,-12.9103 3.1931,-4.7212 11.4099,-13.4507 12.7862,-13.162 1.0012,0.21 0.8399,0.6518 -2.6819,6.1038 -3.6679,5.6784 -6.4808,10.8242 -5.2704,12.0818 0.5136,0.5337 0.7863,-0.5939 3.524,-5.3906 6.4255,-11.2587 12.0762,-18.22 14.314,-17.3152 1.0479,0.4236 0.5059,1.3565 -4.2514,7.698 -5.3731,7.1618 -6.8641,11.6416 -6.3307,13.6235 0.4102,1.5231 1.2412,-0.9383 3.472,-5.3382 2.3763,-4.657 6.6723,-9.8462 10.1456,-14.8296 1.1012,-1.8036 2.5146,-2.8481 4.3246,-3.6707 1.3413,-0.5865 3.4789,-1.5447 4.7193,-1.3844 0.6373,0.082 0.1965,0.4605 -0.6758,1.3214 -6.8543,7.1215 -12.7473,15.0624 -16.0916,22.6849 -0.5167,0.9997 0.224,2.4229 1.0707,1.3739 5.1283,-9.1045 12.2681,-20.4634 20.0209,-25.4746 1.6642,-1.0738 4.1671,-1.9847 6.4244,-1.7934 3.8163,0.1103 2.4668,0.9673 -1.0083,3.2197 -7.4392,4.8216 -17.8778,18.6836 -19.5638,23.5868 -0.3983,1.1588 0.045,1.8211 0.7796,1.741 6.1207,-9.8787 14.207,-20.7485 23.6074,-25.2963 5.066,-2.4514 11.4534,-2.9342 14.5949,-1.3843 2.302,1.1355 1.7247,1.5266 -2.3597,1.7933 -9.8292,0.9779 -21.3452,10.2865 -27.0483,20.1364 -3.3385,5.4535 -0.9957,4.2011 2.8171,-1.0593 6.5083,-8.9787 19.4308,-17.5866 27.4434,-16.9061 8.1034,0.4838 12.7671,6.8194 11.7256,12.2496 -0.6299,3.2852 -2.9422,6.6335 -7.4741,7.593 -7.761,1.6434 -12.8414,-10.7599 -5.738,-13.0991 2.4192,-0.7966 3.3396,-0.1925 2.4637,0.7866 -5.2691,2.3263 -2.9271,8.713 1.5175,9.3655 2.7966,0.4105 6.038,-1.4893 6.1748,-5.8626 -0.082,-3.26 -2.741,-6.4473 -8.077,-6.5234 -6.3265,-0.09 -16.0331,4.5042 -21.9234,12.9628 -4.1802,6.4648 -0.3304,4.2821 2.786,-0.031 2.7494,-3.8062 11.6308,-9.1307 12.3077,-8.9355 l -0.3015,4.3838 c -0.1359,-0.7576 -13.673,8.5937 -12.8795,15.5533 0.5078,5.0517 -0.224,6.5967 -5.4368,6.5338 -3.897,-0.047 -8.8515,-1.4263 -10.2912,-3.2302 -1.4845,-1.7846 -3.1478,-2.3478 -2.4116,0.6607 1.1946,4.8826 -0.2363,5.6877 2.5675,4.7614 1.935,-0.6392 3.6526,0.9281 5.5926,2.3178 2.1344,1.5287 4.8344,2.1829 8.0564,2.066 2.4067,-0.087 3.4924,0.059 3.1081,2.3493 -0.2709,1.6155 -0.5781,3.0839 -0.1144,4.1426 0.7542,1.7216 3.7679,3.5004 7.1726,6.0304 4.0201,2.9873 3.2758,3.1632 -5.2911,23.0834 -3.5969,8.3639 -3.6121,10.0805 -1.4553,16.2559 3.4085,9.7583 3.9441,13.6662 -2.4427,15.0289 -3.6158,0.4186 -7.3437,0.625 -11.1228,0.6187 z m -36.2689,-5.6529 -3.316,-0.9544 c -0.026,0 -10.3538,-35.6652 -16.2684,-53.078 -1.8049,-5.3128 -3.1793,-12.4913 -3.5241,-19.2344 0.1621,-9.2845 5.344,-15.9466 11.6632,-16.6754 4.4738,-0.516 9.3277,1.8252 11.5493,6.8483 1.8747,4.7768 0.4616,10.4108 -4.9379,12.3546 -9.3466,3.3648 -16.1923,-8.6703 -7.027,-12.3755 4.7409,-1.9165 9.2461,1.5377 7.1102,5.5585 -1.497,2.8187 -5.7089,2.513 -6.7048,-0.3986 -0.8117,-3.0989 -2.155,-1.6373 -1.5799,0.4615 1.7382,6.6858 10.2522,5.1107 10.9355,-1.0488 0,-7.6315 -8.2822,-9.4243 -13.2227,-5.1389 -3.8278,3.4255 -4.2301,9.6158 -3.2744,14.9869 1.3143,11.1565 7.5737,25.626 12.0168,42.1395 2.2186,8.2455 5.4324,18.0762 6.5802,26.5547 z m -131.9459,-0.3985 -6.2266,-2.4855 0.1445,-20.7027 5.2809,-1.8354 c 6.9098,10.6518 1.163,25.0142 0.8003,25.0236 z m 126.2079,-1.3424 -4.5636,-1.7724 c -2.4994,-14.6136 -14.2827,-42.549 -18.441,-63.398 -1.1586,-12.531 -1.3442,-16.208 7.0687,-22.8842 v 0.094 h 4.5531 c 0,0 0.021,0.2802 -1.9752,1.7829 -11.018,8.3133 -4.4419,26.6331 -0.2806,40.7131 7.2499,22.4868 13.728,45.4923 13.6386,45.4641 z m 42.6513,-1.4578 c 0.578,-0.01 1.1647,-0.031 1.7567,-0.063 6.883,-0.3729 8.0135,-0.818 8.0356,-2.3283 0.041,-2.8445 -1.1141,-4.1065 -7.5158,-3.4085 -5.5404,0.6042 -13.5661,-0.2632 -19.096,-2.6638 -6.308,-2.7385 -7.8057,-3.3847 -10.0729,-4.5622 -5.6916,-2.9561 -4.6974,-0.015 0.447,3.398 10.5095,6.9726 17.7736,9.7331 26.4454,9.6277 z m -49.6577,-1.0068 -4.283,-1.6465 c 0,0 -1.1322,-3.3686 -1.5385,-5.2964 -4.1676,-18.6554 -15.5032,-39.6354 -16.8297,-61.4577 -0.2996,-7.1513 0.916,-13.8184 6.1124,-17.0425 h 3.919 c -4.1897,4.2042 -6.9819,5.4184 -5.8108,20.0314 1.8542,18.7674 14.1246,42.2177 18.4306,65.4117 z m -7.5989,-3.031 -3.9502,-1.4682 c -4.5487,-25.1926 -27.1008,-62.8341 -12.7446,-80.9963 h 3.5864 c -3.2025,5.0395 -4.5238,9.466 -4.0436,16.2663 1.3957,22.8914 12.97,45.1075 17.152,66.1982 z m -6.6218,-2.3178 -4.2516,-1.3109 c -5.7722,-25.5244 -27.9537,-67.3518 -12.1414,-78.9197 l 3.1184,0.084 c -11.9137,22.4684 6.1466,45.7193 13.2746,80.1468 z m -7.4118,-2.3806 c -1.3057,-0.7326 -3.1717,-1.0834 -4.5945,-1.4998 -4.4742,-19.2998 -12.6514,-38.2803 -16.3726,-56.2558 -1.2527,-9.8414 0.8878,-17.2108 7.0169,-20.0105 h 1.3099 c -5.5,8.377 -4.4627,18.9434 -1.5282,30.3617 3.9465,15.3561 11.6133,32.2503 14.1685,47.4044 z m 66.9865,-0.3356 c 1.9752,0.019 4.0414,-0.2837 6.2266,-0.9859 2.2383,-0.8532 1.9631,-2.6333 -0.1143,-2.2653 -0.7044,0.1248 -1.9501,0.3477 -2.7756,0.493 -5.1001,0.8971 -11.3858,-0.9574 -19.0024,-5.611 -1.8393,-1.1238 -3.8387,-2.2066 -4.3347,-2.58 -1.3995,-1.0533 -2.8926,-1.0491 -2.3806,0.2937 0.2051,0.5375 3.1413,2.8331 5.7382,4.2999 5.554,3.3872 10.717,6.2991 16.6426,6.3556 z m -74.2112,-1.678 -4.2826,-0.6607 c -8.0562,-37.3517 -25.7394,-60.5609 -10.6137,-74.4206 h 3.784 c -4.1386,4.2649 -6.0081,10.9425 -4.6362,18.8358 1.4004,8.0571 5.5275,20.8463 8.9502,32.0923 3.9678,13.0371 7.1623,24.0613 6.7983,24.1532 z m -6.1434,-1.0489 -3.6278,-0.6817 c -4.2501,-15.1828 -11.4667,-34.0038 -15.8113,-49.6801 -2.6718,-9.6406 -1.598,-21.5145 4.3661,-23.7021 l 3.0666,-0.052 c -5.0624,6.8242 -5.7844,13.9327 -3.472,23.1254 4.7467,18.8684 11.931,35.335 15.4784,50.991 z m -22.3913,-0.021 c -3.6656,-15.74 -12.4623,-39.7528 -15.6238,-48.0441 -4.2058,-8.4673 -2.9444,-21.005 3.3784,-25.9674 l 2.9937,-0.063 c -3.6165,3.4117 -4.8586,9.1571 -4.2829,15.1128 1.6276,16.8305 13.4369,40.173 17.7135,58.1017 z m 15.915,-0.7447 -3.7422,-0.3461 c -3.7474,-16.4638 -11.0372,-32.4678 -15.7695,-48.9354 -0.8813,-3.717 -1.6495,-8.2574 -1.3411,-11.5994 0.6471,-7.0066 3.5238,-12.5328 6.0501,-12.5328 h 2.5782 c -5.2655,6.3298 -5.0086,14.9602 -2.7549,24.237 3.7248,15.3319 12.7345,33.8175 14.9794,49.1767 z m 97.4339,-0.084 c 1.5594,-0.01 1.5869,-1.4486 -0.9042,-3.6497 -1.5239,-1.3466 -1.407,-0.8974 -1.3202,-1.7514 0.3705,-3.6465 -0.1986,-6.9839 -1.6841,-3.2303 -0.3967,1.0025 -0.9778,2.1331 -1.5592,1.9928 -1.0983,-0.3419 -0.5405,-2.3784 -1.0707,-3.4086 -0.8962,-1.8165 0.056,-2.2609 2.2348,-1.699 1.5683,0.4045 1.6571,-0.4518 2.6301,-1.5417 1.7039,-1.9079 1.4261,-3.0471 -1.1954,-2.4541 -0.4324,0.097 -0.798,-0.027 -1.133,-0.1048 -0.8179,-0.1896 -1.5655,-0.713 -3.5136,-2.2129 -2.5027,-1.927 -6.0483,-4.495 -8.3474,-4.8873 -3.6827,-0.6284 -2.8614,1.1515 0.1554,2.3178 2.585,0.999 5.7909,3.7734 5.7797,4.5411 0,0.5897 -0.8202,0.2399 -5.478,1.5313 -2.0209,0.5602 -4.863,1.8136 -6.0604,2.3702 -1.9773,0.9187 -2.0709,0.9112 -5.1665,0.8179 -5.2725,-0.1588 -6.077,0.023 -2.3805,2.7898 7.47,5.5917 17.4385,9.2314 22.7237,6.9114 1.6028,-0.7035 1.5654,-0.2724 2.7238,0.3985 1.5136,0.8769 2.7485,1.2733 3.5653,1.269 z m -106.9245,-0.5034 c -5.1783,-20.1235 -15.1942,-38.1537 -17.6303,-57.2417 -0.5513,-5.4599 0.3567,-10.7941 4.8545,-15.4065 l 3.0353,-0.052 c 0.4451,-0.01 -4.2376,7.2978 -3.8358,13.5501 -0.1208,3.3358 0.2432,6.9134 1.1852,10.4457 5.8833,16.9706 11.6762,32.3516 16.1748,48.5265 z m 93.177,-6.6521 c -1.1783,-0.218 -1.1912,-0.7907 -0.8056,-1.4863 0.609,-1.0985 1.684,-3.2092 1.684,-3.2092 0,0 1.4319,-0.284 1.7255,0.084 0.4867,0.7131 -1.1656,4.1247 -2.1136,4.6033 -0.1598,0.091 -0.3344,0.037 -0.4903,0.01 z m -3.2589,-0.6054 c -0.1577,0 -0.3507,-0.078 -0.6549,-0.1992 -1.3557,-0.5404 -3.7091,-1.6492 -2.6924,-2.5066 1.2045,-1.0156 5.8714,-1.4722 5.6447,-1.0488 l -1.5594,2.9051 c -0.3308,0.6174 -0.4768,0.8456 -0.738,0.8495 z m 14.2934,-17.5878 c 0.1209,-0.01 0.2223,-0.036 0.3015,-0.084 0.2706,-0.1633 -0.3423,-1.2572 -1.237,-2.4961 -4.1292,-5.6205 1.5869,-7.2873 5.6342,-4.2789 3.8423,3.0143 9.7749,2.7306 8.9189,-0.43 -0.3016,-1.1143 0,-1.6567 -2.1516,-1.6886 -1.9062,-0.028 -2.3983,-0.1356 -4.1167,-1.3213 -6.5714,-4.5348 -15.0625,1.5355 -10.9149,8.044 0.7831,1.2286 2.7205,2.3031 3.5656,2.2548 z m -16.2164,-8.7782 c 2.3863,0 3.8927,-1.7957 0.9041,-2.3333 -10.6748,-1.9337 -3.5158,-13.1004 4.0129,-7.3468 6.7841,6.1782 15.8582,6.1352 15.9667,1.7514 0.021,-1.1033 -0.034,-1.1408 -1.6423,-1.4473 -3.7814,-0.7207 -9.4285,-2.4556 -11.5907,-3.5553 -1.2713,-0.6466 -2.6085,-1.2508 -2.9729,-1.3424 -4.5214,-1.6577 -10.32,0.4966 -11.4674,4.3382 -1.0503,3.5161 -0.2029,9.9355 6.7896,9.9355 z m 133.9001,-35.9307 c -1.4292,-0.017 -2.9489,-1.2789 -4.0333,-3.1254 -2.5058,-4.267 -5.5516,-11.4417 -7.4949,-15.3959 -0.4898,-0.9968 -0.5089,-1.8864 -0.4781,-2.3597 -0.1534,-2.3182 -0.9234,-3.1939 -2.2872,-2.15 -1.3409,1.0266 -3.2016,2.7446 -1.0185,3.0205 2.1947,1.6683 3.4172,4.1189 2.0581,5.6108 -1.0001,1.0982 -0.6089,1.8117 0.1965,1.8564 3.0755,0.046 7.6597,9.2756 5.499,11.2637 -2.9149,2.6827 -6.1406,-0.6402 -13.0043,-14.3786 -3.0244,-6.0671 -3.1646,-12.7072 -0.5718,-9.4179 0.8813,0.8289 0.7027,0.3996 1.7361,-2.2129 0.7768,-1.9639 1.4148,-2.8952 4.3763,-5.7682 3.6064,-3.4987 5.7925,-6.2632 5.8734,-6.8694 0.1555,-1.1588 -1.9483,-0.078 -3.4825,1.9402 -3.427,3.3772 -3.5548,4.2775 -3.5239,-0.1993 0.028,-4.049 0.2343,-4.7888 -0.4885,-4.7614 -1.127,0.043 -1.7297,3.2459 -2.2559,7.1106 -0.6283,3.4812 -2.421,5.2371 -5.4055,7.1737 -0.8192,0.5316 -0.8331,0.8982 -0.6756,2.4331 0.551,4.9176 -2.2206,14.0871 -3.4825,11.8196 -0.177,-0.5103 -0.7259,-1.703 -1.0187,-2.5381 -0.2359,-1.2942 -1.0433,-2.7547 -2.2763,-2.8526 -1.5327,-1.1571 -1.5273,-1.7825 -2.0585,-6.02 -0.1726,-1.3832 -0.7801,-3.4587 -1.2059,-4.5621 -0.7924,-2.0539 -1.5011,-3.257 -1.0602,-3.8699 0.28,-0.3019 0.8734,-0.8705 0.8734,-0.8705 l 24.9897,-14.945 c 0,0 1.9619,-1.0942 2.6716,-1.3948 1.9805,-0.9022 3.1844,-0.2352 4.1581,1.2586 5.2956,7.9563 8.9306,16.8949 12.651,25.1389 2.2338,4.8935 0.047,8.13 -2.838,4.1846 -1.1213,-1.5335 -0.548,-2.5112 0,-5.4746 0.1015,-0.5361 -0.3927,-0.3311 -1.3201,-0.4824 -1.4596,0.1582 -2.1637,-1.1565 -2.1102,-3.3875 0.9216,-3.1966 -0.353,-1.4704 -0.9564,-1.311 -1.1551,-0.017 -1.4112,-0.7175 -2.0582,-2.0451 -0.4042,-1.8719 -1.2203,-1.3298 -2.4119,-0.094 -0.9845,1.021 -0.9876,0.9959 0.9982,3.3875 3.43,3.7494 8.1866,12.2137 9.4178,17.3676 0.3399,1.4218 0.2161,2.5575 -0.041,3.3141 -1.5497,3.5205 -3.7076,3.5326 -6.0603,-1.3843 -0.4005,-0.8367 -1.1881,-2.1853 -1.7465,-2.9995 -0.9046,-1.3196 -1.4651,-2.4527 -1.4344,-4.5516 0.6957,-1.7588 0.8088,-1.7942 0.2072,-2.0347 -1.4918,-0.595 -4.1429,-3.314 -4.262,-5.7472 -0.1209,-2.4718 -0.5359,-3.7844 -2.4637,-2.3178 -2.1981,1.6721 -1.2622,2.3447 0.9044,4.4887 2.2708,2.7265 2.4075,5.0904 1.0603,7.0583 -0.2204,0.6603 -0.1274,0.847 0.7069,0.7656 2.6372,-0.2575 5.2011,3.1117 3.368,5.6738 -0.8437,1.5011 -0.7449,1.8881 0.447,1.9296 0.6212,0.022 1.6465,-0.098 2.1518,0.1888 0.7795,1.4746 2.4076,3.5358 2.391,5.223 -0.7691,2.3724 -1.9615,3.3293 -3.2226,3.3141 z m -156.624,-0.1259 c -4.3328,-2.6805 -8.6237,-5.4709 -13.4928,-6.7436 11.2808,-20.4989 29.4238,-31.4828 44.6057,-35.7735 -0.5168,-2.6236 -0.8832,-5.2383 -3.3995,-6.8484 0.087,0.3965 1.2008,5.0525 0.9564,6.0094 -20.9145,5.3878 -39.3259,26.059 -44.0338,36.7174 l -91.9143,1.0068 c 68.1386,-65.9449 70.8545,-158.7566 15.2603,-236.5496 l 6.393,-3.7651 c 42.8388,64.7389 42.4026,127.1128 29.5533,168.8832 -9.1101,29.6158 -25.4573,52.2401 -37.88,65.1704 0,0 49.834,0.691 74.6375,-0.2307 3.6034,-5.5616 6.9545,-10.1039 11.7984,-15.3541 0,0 -12.6022,12.2786 -12.2766,14.4102 -22.9872,0.012 -46.6918,1.3523 -69.6477,-0.2623 26.8634,-32.4352 40.1047,-65.9198 42.4019,-97.42 0.087,-4.0972 0.3308,-1.8079 1.6736,-3.3141 l 4.2413,-6.6387 3.3993,6.9009 c 2.3106,0.753 6.8549,-0.4617 8.7838,0.2412 9.4509,-42.538 -0.1,-93.8789 -12.5366,-127.3833 0,0 3.1225,-1.7647 6.9648,-1.4683 4.2057,0.9423 5.2339,-0.2287 8.8774,-0.9753 4.1899,-0.8041 5.6522,-0.7986 6.5803,-1.8668 0.5161,-0.594 1.449,-1.4237 2.5052,-2.0032 10.2065,-3.7406 22.1833,-17.7663 22.1833,-17.5669 l 11.2372,5.0866 c -10.354,20.5141 -22.5058,27.8966 -43.8677,37.0005 l 1.9855,9.1663 c 22.7523,-8.5509 37.2309,-18.788 48.6494,-38.6786 13.8548,0.1984 69.9736,0.5967 70.0323,0.4195 -22.891,26.2627 -40.9382,65.8752 -42.9112,96.7593 -0.484,6.0156 0.35,3.1237 -2.2871,4.9187 l -4.1477,4.9817 -3.2535,-4.9082 c 0,0 -2.3563,-3.0258 -3.8464,-0.5034 -4.1744,43.0678 0.2415,92.1767 20.8114,126.4079 -3.6496,0.2431 -7.2844,0.345 -10.7799,-1.7409 -8.0452,-18.3813 -12.7867,-41.0901 -14.8445,-58.1123 -2.6044,-21.5449 -2.2368,-45.8458 0.416,-66.4814 l -1.3722,-0.1889 c -4.0093,26.8185 -2.6507,55.3417 1.029,80.2727 1.8889,13.006 7.971,33.347 12.1522,42.7373 1.1552,2.5947 2.0519,3.2655 0.9561,3.6498 -25.0665,2.128 -36.5882,10.5662 -45.5931,24.0377 z m 69.5022,-2.2653 c -1.9177,0 -3.4722,-1.5683 -3.4722,-3.5029 0,-1.9346 1.5545,-3.5029 3.4722,-3.5029 1.9175,0 3.4719,1.5683 3.4719,3.5029 0,1.9346 -1.5544,3.5029 -3.4719,3.5029 z m -188.4023,-1.7829 c 7.3388,-6.7016 13.2345,-13.6469 19.4287,-21.0488 -18.3309,-25.4321 -38.7023,-53.0021 -55.8325,-75.0289 0,0 -5.9286,3.544 -5.9045,3.9854 0.021,0.2324 0.474,1.4037 0.5821,1.1431 0.2544,-0.6118 4.8026,-3.1778 4.8026,-3.1778 l 54.2109,71.7777 c 0,0 -2.9382,3.5497 -3.8463,4.667 -4.2125,1.3971 -15.9327,16.0435 -16.5075,15.742 -9.1835,-7.0976 -36.88,-37.1846 -47.5475,-46.4079 l -0.1361,-83.5134 c 1.104,-3.3415 30.6321,-16.2175 51.4874,-64.258 10.487,-5.9285 22.106,-9.1182 32.9111,-14.2737 0,0 -2.7503,-4.3635 -4.0956,-5.5585 1.6508,3.5985 1.9425,4.2856 -1.7985,5.8207 l -78.0365,32.0923 0.1447,-6.4814 c 7.8244,-6.1071 59.5746,-43.8756 75.4903,-52.7963 74.6678,105.0269 27.0705,194.8379 -16.4457,236.834 z m 243.1537,-5.6739 c -2.0375,-0.034 -1.5228,-4.8016 -0.7694,-6.4499 1.5047,-1.1926 3.0057,-0.1333 2.973,2.0976 0,0.7273 0.1295,1.4144 0.312,1.5312 1.1289,0.7273 -0.7606,2.8472 -2.5156,2.8211 z m -45.6036,-2.9784 c -1.7157,-1.3138 -2.3506,-3.0634 -2.9835,-4.8139 2.3144,0.3668 8.5098,2.1588 5.603,3.5553 z m 11.2786,-6.1983 c -53.8536,-82.1697 -51.4438,-169.4416 8.6593,-235.5951 l -76.0407,0.1154 c -9.6792,19.2692 -25.8034,31.0138 -46.4353,38.2486 l -1.7984,-6.0514 c 23.7116,-7.6799 35.7086,-20.4105 45.2501,-38.0493 h 90.6877 c -34.8427,37.8228 -50.8048,69.7729 -53.3171,112.9942 -2.3924,41.162 7.9878,78.7542 39.5121,123.9853 z m -15.177,-0.9439 -12.7028,-6.0514 1.8816,-13.1515 13.3056,6.1877 z m 22.9006,-3.6917 c -67.9197,-103.6575 -38.7894,-176.5708 15.4368,-237.2522 l 9.9898,-0.1678 23.2852,21.8248 -0.426,-132.61665 c 0,0 22.7033,-22.4383 25.3121,-25.1286 2.5772,-2.5032 4.5115,1.3425 4.5115,1.3425 l -0.062,175.80495 -1.0082,6.8904 -0.312,37.8815 -14.47,7.6979 -54.2627,-71.7567 c 0,0 2.1797,-3.2417 3.1912,-3.8174 -1.1572,-2.6124 -5.005,3.9003 -5.3328,4.9501 19.6841,24.6025 56.2795,72.774 56.2795,72.774 l 15.2393,-8.0231 c 0,0 -0.4411,31.4508 -0.1662,43.524 -0.5853,2.8478 -2.7016,2.0847 -4.1269,3.356 -19.8183,12.9911 -36.156,31.6469 -50.0528,63.4818 -10.5587,3.4685 -21.6419,8.3926 -32.2459,12.816 l 15.2706,23.1254 z m 41.6223,-1.3214 c 0.5729,0.01 2.0305,-0.6599 4.0023,-2.4645 3.6399,-3.3319 8.4361,-8.8064 8.4512,-9.848 -0.9763,-0.3554 -1.8407,0.2108 -2.6195,1.0068 -3.0445,4.5338 -7.7513,6.3067 -10.5098,10.2779 -0.4285,0.7345 0.024,1.0371 0.6758,1.0278 z m -34.2103,-4.8138 c 0,0 -10.5372,-15.4876 -13.2333,-19.6015 27.7669,-11.092 56.8224,-25.7421 82.5586,-35.2176 v 6.2087 c 0,0 -48.3329,36.5599 -69.3253,48.6104 z m -41.3106,-10.236 -10.3848,-5.4116 2.9314,-11.8197 10.4784,5.9152 z m -8.5657,-19.6644 -8.5345,-6.2716 3.8983,-10.0262 8.5969,5.9675 z m 69.6373,-7.3519 c 0,0 1.3154,-4.6484 3.5241,-8.8096 10.5611,-18.5127 20.8949,-34.9645 42.2459,-49.2501 0.8128,0.7294 3.1393,4.8348 3.1393,4.8348 l 0.2072,5.485 c -11.3195,9.1742 -21.0888,15.9086 -36.0816,42.8317 l -4.3452,1.7829 -3.7006,-1.615 -2.5053,4.5096 z m -44.4184,-0.042 c 9.8395,-21.06 19.5214,-42.7816 35.198,-59.1924 l -42.901,-60.4195 c -14.1164,42.6593 -8.8758,82.6407 7.703,119.6119 z m 53.982,-4.5936 2.0583,-3.5973 -3.5656,-2.0766 -2.0583,3.5974 z m 5.8212,-0.3881 c 7.7727,-17.5324 19.4388,-31.0217 34.7512,-40.7236 l 0.5924,25.7263 z m -2.734,-5.2333 2.0585,-3.5973 -3.5656,-2.0765 -2.0583,3.5972 z m -87.683,-0.7551 -7.7342,-7.4043 4.5946,-8.1699 7.9316,6.6178 z m -118.4844,-3.6392 c 0,0 0.022,-0.013 0.022,-0.022 13.5919,-42.6225 9.5104,-83.3347 -9.1374,-118.7729 -9.1491,22.9713 -16.6599,38.3439 -34.5224,62.8001 10.9996,14.5299 42.5334,56.4536 43.6391,55.9937 z m 209.2031,-0.6818 2.162,-3.5342 -3.5031,-2.1815 -2.1623,3.5343 z m -59.3046,-4.971 c -12.2532,-29.5513 -11.1726,-56.1959 -4.657,-79.2869 l 30.6033,39.0037 c -11.2118,14.0407 -18.6579,27.3354 -25.9463,40.2832 z m 62.4645,-0.1049 2.3181,-3.4295 -3.3992,-2.3493 -2.318,3.4401 z m 3.4201,-4.9083 2.5364,-3.2826 -3.2433,-2.5589 -2.5364,3.2826 z m -100.8229,-3.4924 -6.9336,-6.6386 4.3766,-8.6104 7.0373,6.4918 z m 104.8252,-1.615 2.6612,-3.1568 -3.1291,-2.6848 -2.6612,3.1567 z m -223.538,-0.9335 -30.8737,-40.1887 c 10.327,-12.4002 18.9087,-27.0098 26.5804,-42.7583 8.602,27.1937 12.4844,53.9131 4.2933,82.947 z m 227.8726,-4.0691 2.8483,-2.9995 -2.9729,-2.8737 -2.8485,2.9995 z m -72.1217,-4.0168 14.1271,-20.6083 -16.1958,-20.86 c -1.7424,11.292 -2.1339,24.4002 2.0687,41.4683 z m 76.7268,-0.6713 3.0354,-2.8106 -2.786,-3.0625 -3.0354,2.8107 z m 4.4595,-4.0167 3.2016,-2.622 -2.5985,-3.2302 -3.1916,2.622 z m -120.6569,-2.129 -5.8004,-6.838 5.8837,-7.0373 5.5095,6.2508 z m -73.7431,-1.2271 -3.9397,-0.1468 c 6.4617,-64.3006 -6.2386,-96.8347 -17.4744,-125.1285 0,0 0.026,-1.1343 0.4052,-1.4683 1.8302,-0.6358 5.5335,-1.3231 8.5034,1.311 15.1164,39.1996 18.4136,87.486 12.5055,125.4326 z m 199.5872,-0.8285 3.337,-2.4332 -2.4117,-3.3665 -3.3369,2.4332 z m -246.927,-2.2863 c 1.0023,0 1.8735,-26.4547 -1.9022,-39.3707 l -14.2103,19.4231 z m 36.7365,-4.3629 -4.7504,-6.4394 5.0416,-6.9324 5.1559,6.5653 z m 214.047,-1.7515 c -0.238,0.038 -0.6292,-0.632 -1.3928,-1.1641 -0.7101,-0.7489 -0.6078,-0.6928 0.1879,-1.3319 1.2427,-0.9994 1.6133,-0.8383 1.5905,0.7237 -0.1058,1.2851 -0.1986,1.7429 -0.3847,1.7723 z m -129.9813,-4.8348 -5.2493,-7.5826 5.8108,-7.5406 4.969,7.9392 z m -83.6498,-9.6067 -5.5302,-6.796 4.7506,-7.4567 6.0397,7.1212 z m -128.0478,-1.4368 -0.4887,-7.8343 1.9129,2.8632 3.5134,-2.7164 -2.4531,-3.2826 -3.0666,2.4121 -0.1879,-3.1568 c 19.477,-14.2008 27.8777,-30.512 35.7801,-42.7477 l 3.5136,-1.4998 4.0021,1.2796 1.9544,-3.4924 3.3992,-0.8076 c 0.1036,0.022 -6.8246,14.995 -18.6801,30.236 -10.5571,13.5716 -29.1449,28.8717 -29.2002,28.7467 z m -2.2558,-12.2601 -0.1663,-27.8553 34.8556,-13.5842 c -9.0461,15.5506 -19.7132,29.9823 -34.6893,41.4395 z m 8.6592,3.3875 3.1812,-2.6324 -2.7444,-3.1778 -3.1708,2.6325 z m 4.8963,-4.195 3.0663,-2.7583 -2.8585,-3.0729 -3.0667,2.7793 z m 116.3947,-1.5418 -6.5696,-7.0581 4.8128,-8.3377 6.84,6.6177 z m -111.4466,-2.968 2.8794,-2.968 -3.1498,-3.0519 -2.8795,2.968 z m 4.5322,-4.6879 2.7652,-3.0834 -3.3473,-2.9261 -2.7651,3.0834 z m 4.5531,-5.2544 2.5675,-3.2511 -3.4822,-2.7164 -2.5676,3.2617 z m 100.1055,-4.9921 -8.2123,-5.3801 4.0126,-9.8585 8.2019,6.3031 z m -96.1346,-0.042 2.4118,-3.377 -3.7112,-2.559 -2.4428,3.4924 z m 3.7112,-5.3278 2.235,-3.4924 -3.7526,-2.4331 -2.2247,3.6078 z m 3.3159,-5.2753 2.0582,-3.5972 -3.8877,-2.2339 -2.0581,3.6392 z m 2.994,-5.4536 2.0582,-3.5972 -4.3037,-1.8773 -1.7047,3.4294 z m 81.6643,-2.2233 -8.4098,-5.7472 3.7217,-10.3305 8.8774,6.3346 z m -121.6651,-10.1626 V 882.99335 h 91.8933 c 0,0 4.3294,7.712 13.3889,25.4693 3.836,7.5177 7.0792,10.7114 7.4119,16.6648 -0.3468,3.4964 1.2552,7.4632 4.0959,9.0614 0.9537,0.5368 2.55,-0.1117 2.0164,1.3844 -0.5867,1.6466 1.2137,4.1811 1.7048,4.7195 0.5604,0.9525 0.2117,1.1848 0.2704,4.7299 0.058,3.4266 0.2386,4.8595 0.9668,7.4463 1.8397,6.5368 2.2484,9.8033 1.1954,13.1934 -2.7346,8.5981 -5.5855,15.193 -9.2726,23.2093 -2.144,4.6918 -1.8169,6.5247 4.7611,9.9318 4.9252,2.55105 5.5796,2.52435 4.9584,6.25075 -0.2911,1.7459 -0.5614,2.847 -0.1965,3.6916 0.2216,0.5146 1.0394,1.2339 1.5176,1.6466 0.6428,0.5544 0.4497,1.6978 -0.2072,2.5485 -0.6453,0.8348 -0.6504,2.0271 0,4.0168 1.3457,4.1848 -1.6995,9.7296 -7.4532,13.5606 -2.5434,1.6932 -2.4723,1.3425 -5.1249,-1.4684 -7.7523,-8.2145 -19.2712,-3.0538 -19.2934,8.5265 0,3.6096 1.2117,3.3948 -2.1727,5.097 -11.4695,7.3631 -35.0105,20.7545 -34.8551,20.3881 -1.5328,-3.152 -2.045,-5.8442 -3.0146,-9.2396 -0.8377,-2.911 -0.728,-3.1337 -0.4157,-8.7992 0.2822,-5.1203 0.4349,-6.3106 -0.7588,-6.6387 -6.7944,-0.7542 -8.3447,1.6697 -9.6468,6.0934 -0.5628,1.9545 -1.6471,1.5575 -2.3181,0.7341 -2.5854,-4.7464 -5.8558,-9.6826 -8.0044,-13.0572 -2.6842,-4.3081 -7.2067,-6.4508 -9.574,-4.4153 -0.4978,1.6744 -0.9083,1.7264 -3.9084,1.0383 -3.6381,-0.8344 -5.7112,1.222 -6.0604,3.9224 -0.1404,1.0772 0.6385,1.033 -1.3098,2.0975 -4.8328,3.609 -2.9904,8.5373 -2.2661,11.5051 -0.062,-0.1569 -2.0659,1.2285 -2.1103,4.0062 -0.2311,14.4248 12.1603,35.1986 11.8816,34.6617 z m 116.6235,-8.3062 -9.8337,-4.7929 2.3181,-11.8511 10.104,4.5832 z m -95.6876,-4.4048 c -5.6626,-6.6254 -9.7592,-17.6708 -11.8713,-24.8663 -1.0429,-3.5842 -1.1698,-7.6748 -0.2391,-8.2433 0.9191,-0.5617 1.3481,0.04 1.1747,2.1814 -0.1447,1.784 -0.1963,3.1661 0.5614,3.1463 2.1974,-0.5725 2.2832,2.7869 2.0581,3.5763 -0.151,0.5274 -0.4211,0.8984 -0.5405,1.1851 -0.5418,1.3016 0.8731,1.1256 2.339,1.1432 1.2968,-0.032 1.6315,0.7634 1.5698,2.0031 0.036,1.3752 1.8421,1.1066 2.8688,0.063 0.9385,-0.9538 0.7416,-2.0775 -0.5301,-2.8631 -1.8264,-1.1282 -3.5523,-3.902 -7.8067,-13.4661 -2.4699,-5.5525 -1.7378,-9.4932 1.2058,-9.4495 2.0412,0.061 4.419,5.7019 6.3411,9.8584 0.4965,1.0738 -0.7482,2.2744 -1.1851,2.8527 -1.1297,1.4952 -0.9585,1.9678 0.7174,1.9927 1.5687,0.023 2.235,-0.1173 3.1808,1.8353 0.3562,0.735 0.6141,1.8561 0.4887,2.5695 -0.8085,2.1533 0.8521,2.6733 2.4636,1.8458 2.0309,-0.8542 2.0158,-2.6822 -1.0813,-5.6738 -1.9946,-3.3018 -1.4737,-3.0723 0.4159,-5.2963 0.3951,-0.785 0.1577,-1.2674 -0.6756,-1.2795 -2.3963,0.738 -5.0062,-3.616 -4.2933,-5.1075 0.7342,-0.6412 2.7414,-2.9635 0.8005,-2.517 -3.9454,1.0822 -6.3467,-4.7462 -4.023,-6.7226 3.4662,-1.7541 4.2875,-1.2059 9.626,9.5543 1.6577,3.3413 3.6529,6.9317 3.8982,7.2994 0.2452,0.3676 0.3537,1.3546 0.3431,2.1499 -0.2326,1.9468 0.5905,2.3885 2.2661,1.6152 1.2587,-0.304 2.3945,-1.3479 0.8002,-2.3388 -1.861,-3.2396 -2.5195,-3.7614 -1.4967,-4.5831 2.3277,-1.87 1.3179,-1.7945 -1.289,-2.3178 -1.2762,-0.387 -1.9253,-1.0503 -2.2766,-1.8459 -1.3471,-3.0514 -3.7345,-7.3558 -3.971,-8.2328 -0.7896,-2.2383 0.6365,-3.2431 2.5884,-3.1462 2.0428,-0.049 2.9778,1.5783 3.971,2.968 3.7138,5.2061 6.388,10.3639 10.1769,16.2768 l -0.5094,5.527 c 0,0 -0.9931,-0.2171 -1.5487,0.052 -1.0907,0.5289 -1.738,2.2556 -2.3599,4.5515 -0.9962,1.9963 -6.8769,6.5375 -9.127,8.9775 -0.4156,0.2758 -0.7643,0.7313 -0.7693,1.0069 0.021,0.8939 2.5514,0.2964 4.2204,-1.6361 2.4525,-2.1966 3.4982,-1.4431 3.4202,1.3633 0.2412,3.466 2.3374,1.7285 2.4429,-1.657 0.2698,-2.6743 1.1908,-4.3032 3.0458,-5.7997 3.5011,-2.8243 2.9175,-2.109 2.7547,-6.0304 -0.2838,-6.8389 2.3324,-12.4637 4.0436,-8.7362 0.6078,1.3238 1.3196,2.8274 2.8485,2.8946 1.0826,0.048 1.6182,1.1187 2.214,3.7651 0.8861,4.2813 2.1239,7.0372 3.2537,10.9806 z m 87.1634,-14.7352 -11.3306,-4.5517 2.1206,-11.9559 11.2269,4.3314 z m -86.394,-1.1012 c 0.075,0 0.164,-0.023 0.2597,-0.063 3.192,-2.4337 6.1367,-5.164 9.6156,-7.2574 1.3045,-0.7774 2.8286,-2.7874 2.8377,-3.3246 0,-0.5237 -1.5486,-0.5113 -3.0663,0.1572 -1.4406,0.6343 -9.6585,8.4195 -9.6676,9.1348 -0.5666,0.63 -0.5117,1.3874 0.021,1.353 z m 104.0453,-14.5149 c -2.6792,0.01 -1.1163,-0.7957 4.7297,-4.8874 5.707,-3.9943 15.1138,-16.6245 16.2061,-21.311 0.4958,-2.1281 -0.8424,-2.293 -2.3494,0.6294 -6.9292,13.4375 -20.0374,25.716 -32.0379,25.1704 -5.8793,-0.2673 -9.0552,-1.8675 -4.1893,-2.5694 13.3406,-1.6519 23.3109,-9.3273 32.0379,-24.6251 0,-0.343 -0.7909,-0.3259 -1.7047,0.2622 -7.988,9.8527 -16.9875,22.9019 -32.7969,21.8457 -11.4038,-0.693 -14.6437,-14.3751 -5.1767,-19.0456 8.253,-4.0713 15.8635,5.8436 9.023,11.7252 -2.221,1.9098 -3.609,1.0717 -1.4762,-0.8809 4.5773,-4.1902 -1.0339,-11.6534 -6.6113,-8.8202 -3.3941,1.435 -4.7693,6.3363 -1.7774,10.0368 6.6546,8.2317 20.9885,1.9726 30.9776,-11.3268 1.0471,-1.3993 1.9541,-4.4382 1.0707,-4.1111 -1.5504,0.6445 -2.4871,1.8711 -3.3991,3.2512 -3.5658,4.988 -6.3051,7.4913 -11.1333,10.173 -3.7299,2.0718 -3.96,1.6833 -2.5678,-1.9087 0.5866,-1.5135 1.057,-2.0164 2.5054,-2.9576 6.082,-4.1908 9.8597,-9.8051 10.0104,-13.3822 0.1102,-2.6117 -1.7846,-6.0227 0.2704,-6.7226 3.4837,-1.6604 12.9863,-0.306 15.551,2.9995 1.8447,2.3773 2.56,1.0006 1.1747,-2.8631 -0.9147,-2.5518 -0.8754,-3.994 -2.2558,-3.7336 -1.7457,0.9321 -2.9444,0.7137 -6.3305,-1.1538 -1.6323,-0.9 -4.5262,-1.7395 -6.289,-2.1499 -3.2142,-0.748 -3.886,-0.432 -3.815,-1.8353 0.021,-0.4302 -0.1254,-1.6402 -0.03,-2.4017 0.5215,-4.22695 -2.9761,-5.66445 -7.7445,-8.44265 -2.7865,-1.6234 -1.6865,-3.2941 1.5385,-11.3372 1.6762,-3.6385 3.108,-8.5337 5.1767,-12.2286 1.9332,-4.1511 2.0986,-8.6953 0.8525,-13.8752 -2.3127,-9.6132 -3.9777,-14.4984 0.1447,-15.3644 10.6103,-1.6195 34.0472,-1.5534 46.8409,3.4084 3.2726,24.7768 20.6134,61.53865 18.3889,71.04355 -4.438,-6.7506 -23.0477,-4.9646 -17.443,13.9068 0,0 -1.5246,2.3015 -4.5532,5.4011 -7.8106,7.9937 -9.7383,9.3157 -6.029,2.2758 2.8516,-5.4123 6.4881,-12.4748 6.5697,-13.8437 0.064,-1.0906 -0.7778,-1.3437 -1.4345,-0.472 -0.4871,0.646 -1.0648,2.2157 -1.5699,3.4085 -4.6548,10.995 -12.6131,20.9067 -18.098,23.2932 -1.4124,0.6145 -1.3408,-0.04 -0.3638,-1.2481 6.4534,-8.1006 11.382,-15.5918 14.886,-25.3696 0.1556,-1.0084 -1.2625,-1.4295 -1.7152,-0.472 -6.0534,12.7986 -7.8633,15.703 -15.3017,24.7195 -2.924,3.5442 -5.6436,5.3326 -7.8172,5.1388 -1.8799,-0.1674 -1.3234,-0.4791 0.4158,-2.3491 1.3283,-1.4286 3.2908,-3.4153 6.4659,-7.4463 5.5991,-7.1087 11.2314,-18.6752 9.158,-18.0703 -0.3571,-0.963 -2.1239,2.1104 -3.6175,5.0446 -4.0922,6.9318 -8.4383,16.0918 -18.1575,22.1149 -2.0299,0.8475 -4.2483,1.3344 -6.2087,1.3566 z m 187.9654,-2.2339 -17.308,-17.4516 -34.8135,0.451 c 5.7413,-9.0006 2.6753,-22.9528 -0.4885,-31.1064 -6.2024,-15.98445 -15.2933,-42.37355 -14.6258,-42.75835 0,0 5.0622,-1.313 5.5197,-4.5517 0.6781,-4.8005 -1.3846,-4.4438 1.5905,-8.7781 0.6692,-0.975 0.2385,-2.8158 -0.4782,-4.279 -0.4722,-1.0726 -0.9229,-2.687 -0.041,-3.9433 l 30.7072,-55.2019 h 58.8368 v 10.7027 l -29.7406,29.8059 0.3535,21.9297 c -15.9153,-4.773 -21.3806,-21.3395 -22.7447,-33.6129 -28.7483,26.4685 -28.0379,66.317 -0.8732,91.31625 5.2952,-26.42255 24.2616,-31.91335 23.8465,-31.38975 z m -216.5001,-3.1358 c -1.8623,-0.1356 -4.3758,-0.4376 -6.0815,-1.3635 1.155,-0.6973 1.9763,-1.5274 2.7444,-2.3807 0.9326,1.6694 2.1892,2.5813 3.3371,3.7442 z m -48.2546,-0.1889 c -1.5502,0 -3.4526,-4.5716 -2.3597,-5.6424 0.6159,-0.6035 2.6135,-0.8318 3.3267,-0.3776 0.9137,0.6837 0.4476,6.015 -0.967,6.02 z m 54.9073,-7.9392 c -1.9979,0 -3.6174,-1.634 -3.6174,-3.6497 0,-2.0157 1.6195,-3.6497 3.6174,-3.6497 1.9978,0 3.6177,1.634 3.6177,3.6497 0,2.0157 -1.6199,3.6497 -3.6177,3.6497 z m 153.1105,-5.2019 -2.6092,-0.063 c 4.7428,-6.3971 5.3823,-11.9042 3.7007,-19.8847 -1.891,-8.9803 -16.3138,-42.73365 -17.2457,-52.02935 -0.041,-0.4203 -0.084,-1.6046 -0.084,-1.6046 l 3.5447,-0.2412 c 0,0 0.2649,0.961 0.3744,1.3319 4.9605,16.8294 9.8978,29.6646 13.3473,39.47565 3.4375,10.5795 8.7004,26.2655 -1.0292,33.0152 z m -19.0646,-0.063 c -0.024,0 -0.045,0 -0.062,-0.011 l -2.5053,-0.022 c 0.093,-0.056 3.74,-7.9457 4.0021,-12.7321 0.2974,-5.4256 -1.003,-11.3354 -2.7857,-17.1683 -4.2095,-12.61895 -10.3708,-26.67315 -13.7945,-42.60095 -0.039,-0.1855 -0.4158,-1.7305 -0.4158,-1.7305 l 3.7111,0.5034 c 0,0 0.364,1.6307 0.4052,1.8564 2.5627,14.0095 9.7089,28.5596 13.9713,42.34925 2.1838,6.2683 3.7019,13.9734 2.921,19.8636 -0.5508,4.1551 -4.6832,9.6094 -5.4471,9.6907 z m -30.302,-0.032 c 2.6534,-4.1451 5.0692,-9.3401 5.2391,-13.4138 0.1533,-7.5785 -2.0352,-13.9758 -4.2205,-20.67125 -6.728,-20.6141 -9.9922,-31.49 -13.3577,-48.023 l 3.5758,1.5416 c 0,0 0.1383,0.9286 0.2184,1.1957 1.9105,10.3527 2.0309,9.4497 13.254,44.2684 2.6298,8.35715 5.1364,15.68515 4.6467,22.64305 -0.1123,3.9636 -3.5392,11.8119 -7.152,12.4382 z m -4.2933,0 h -3.337 c 0,0 1.8376,-1.9627 2.3703,-2.6954 5.829,-8.1566 4.1421,-16.9082 1.2476,-27.3413 -3.9831,-14.35555 -11.3468,-30.41015 -15.1979,-52.29165 -0.072,-0.405 0,-2.5171 0,-2.5171 l 3.9708,1.6151 c 3.608,20.0627 12.5091,40.865 16.7987,58.90945 2.5225,10.5953 1.8048,17.292 -4.0229,23.0624 -1.4602,1.1381 -1.8296,1.2585 -1.8296,1.2585 z m 40.718,-0.1152 h -2.4949 c 0,0 4.1719,-6.9121 4.1686,-10.9807 0.6971,-7.284 -1.9167,-15.3315 -4.917,-23.76505 -4.6114,-12.9617 -10.7064,-28.6351 -12.5783,-36.8852 -0.074,-0.3241 -0.3221,-1.8038 -0.3221,-1.8038 l 4.3555,0.2307 c 0,0 0.2283,1.9972 0.4885,2.9155 5.0269,17.7403 9.9231,29.2152 15.6968,45.41165 0.8739,2.4515 2.2688,12.1448 0.6238,18.4269 -1.2914,4.9312 -5.0209,6.45 -5.0209,6.45 z m 6.684,-0.011 -2.6925,-0.073 c 0,0 0.405,-0.7377 1.4347,-2.5171 4.9126,-8.9738 2.7111,-17.1651 -0.3325,-26.2926 -4.0615,-12.17855 -10.4376,-27.04925 -14.4182,-41.12215 -0.2245,-0.7936 -0.5302,-3.1883 -0.5302,-3.1883 l 3.8879,0.052 c 0,0 0.7899,2.8668 0.8418,3.1778 2.1873,13.0451 14.0046,34.7885 17.0795,51.33725 1.6855,8.8768 0.2371,14.3749 -5.2705,18.6262 z m -36.0607,0 c 0,0 4.248,-7.4301 4.6361,-11.568 0.7613,-8.1141 -1.7902,-14.8325 -4.7089,-23.98535 -5.0357,-15.791 -12.1415,-34.3202 -12.7759,-42.7898 -0.021,-0.2794 -0.1252,-1.3109 -0.1252,-1.3109 l 4.3763,1.5731 c 0,0 0.1966,0.8839 0.2808,1.1957 3.8145,15.3254 8.3247,30.5885 14.3869,47.79225 1.495,5.8042 3.4577,11.6441 3.2849,16.6335 -0.8885,6.6627 -2.0123,8.4599 -5.9461,12.4069 z m -19.2519,-0.011 -3.5239,-0.073 c 0,0 1.0524,-0.5697 3.5653,-3.2721 13.9023,-12.8165 -8.6536,-49.00325 -13.8567,-81.95075 -0.056,-0.3531 -0.2184,-1.5941 -0.2184,-1.5941 l 3.8774,1.4054 c 0.3671,1.6409 0.6427,3.6386 1.0916,5.4325 4.215,16.8425 9.8389,34.1605 15.0003,49.86895 2.8956,11.4459 3.9538,21.5271 -1.2475,27.1631 -1.6293,1.947 -4.6881,3.0204 -4.6881,3.0204 z m 36.2478,-0.022 -3.7526,-0.1049 c 2.7122,-3.4305 4.3035,-8.775 4.4492,-13.5292 0.1446,-5.6229 -1.3457,-11.0901 -3.1809,-16.8746 -3.7636,-11.86385 -9.1378,-24.75755 -12.8275,-40.76565 -0.2075,-1.06 -0.3824,-1.7398 -0.4784,-2.2024 -0.1533,-0.7338 -0.5716,-1.8982 -0.5716,-1.8982 l 3.9604,0.797 c 0,0 0.409,1.0373 0.6758,1.5836 0.4002,0.8197 0.7659,1.8645 1.0914,3.1149 1.918,8.3506 8.9768,27.299 13.2748,40.58735 3.4085,8.3737 4.337,23.0091 -2.6406,29.2921 z m -46.8509,-0.1469 c -4.8001,0.1778 -9.1401,-3.9308 -10.1666,-7.7924 -0.996,-4.0999 0.2788,-8.727 4.7505,-11.012 7.2511,-3.7052 15.0574,6.1521 9.3351,11.5784 -4.3371,4.1124 -10.7524,1.0688 -9.3556,-4.1951 0.9006,-3.4268 6.052,-3.6477 6.9022,-0.1887 0.233,1.1512 0.8059,2.3007 1.2162,1.6676 2.6667,-6.318 -6.2981,-9.2769 -10.0208,-3.3981 -2.2075,4.712 1.9951,10.7813 8.1809,9.6277 8.4817,-1.5815 9.4576,-12.441 5.9357,-25.1074 -4.913,-20.02085 -16.6321,-46.94815 -16.6116,-59.30785 0,-0.1632 -0.041,-0.6713 -0.041,-0.6713 l 3.7215,1.1222 c 0,0 0.026,0.2081 0.051,0.3881 2.2314,17.2624 14.9412,45.843 18.5865,67.81325 1.5799,10.0174 -2.2879,17.2885 -10.9877,19.2764 -0.5032,0.1153 -1.0003,0.1808 -1.4969,0.1993 z m 36.7987,-0.1573 c 2.6105,-3.5194 4.3166,-8.8089 4.3974,-12.5852 0.08,-5.5311 -1.8888,-10.9165 -3.5136,-16.6754 -4.1124,-14.22195 -13.719,-40.48335 -13.3683,-45.40125 -0.1,-0.5281 -0.3637,-2.1604 -0.3637,-2.1604 l 3.711,1.1117 c 0,0 0.1468,0.2364 0.4262,0.9124 1.2367,4.8816 7.1206,25.7975 13.7111,43.88045 2.5361,7.2707 3.7701,12.9351 3.5967,17.7557 -0.5356,6.651 -2.4229,9.4278 -5.3118,13.1306 z m -70.6662,-23.5763 c 9.6193,-0.5535 8.6935,-12.38465 2.7338,-14.38915 -2.1323,-0.5929 -3.3829,-0.08 -3.7215,0.3881 -0.3848,0.5329 0.045,1.3474 1.4451,1.5521 4.0441,1.3397 5.4892,6.14255 1.8372,8.15705 -1.9943,1.0545 -5.1789,0.3764 -9.0203,-2.4936 -6.8633,-5.12815 -15.2765,-5.45035 -14.1791,-0.2622 0.2664,1.2586 0.8047,1.4279 5.8318,2.1185 4.0827,0.5609 5.9228,1.8632 7.7029,2.8317 2.8053,1.5264 5.2771,2.1599 7.3701,2.0975 z m 137.7152,-11.00165 c -24.8507,-24.486 -21.1679,-62.863 0.062,-82.0765 0.4368,1.5512 1.3646,5.3515 1.4658,5.2438 -15.966,16.7603 -23.4859,44.2356 -0.3742,72.3965 -0.1209,-0.1077 -0.5139,2.0323 -1.154,4.4362 z m -155.7509,-0.6506 c 0.2349,0 0.4407,-0.031 0.6238,-0.094 6.4355,-1.7759 7.7697,-8.193 3.5967,-10.8338 -2.5585,-1.6189 -4.5236,-0.6265 -1.341,1.3319 2.7284,1.6791 1.3827,6.0903 -1.9232,6.041 -1.4448,-0.022 -2.4286,-0.6549 -6.102,-3.3875 -3.0234,-2.2493 -5.8713,-2.4283 -6.5175,0.6187 -0.3859,1.818 0.217,2.6257 2.1412,2.15 0.8512,-0.2105 1.3508,0.2922 2.5053,1.1013 2.5679,1.7992 5.3732,3.1096 7.0167,3.0728 z m 158.3186,-4.8033 c -22.4007,-26.2311 -15.2097,-53.5886 -0.1036,-69.6172 4.1476,12.3481 14.3142,20.0525 14.3142,20.0525 -3.8311,8.5752 -6.1153,17.5313 1.0498,28.8411 -6.6655,6.0767 -12.1897,12.7543 -15.2599,20.7236 z m -145.5428,-9.5752 c 1.051,0.019 0.7094,-1.0032 -1.7671,-2.7478 -5.9041,-4.0513 -6.4088,-4.7831 -0.6862,-4.688 1.4504,0.086 3.7233,-0.9512 5.0104,-1.3844 7.4692,-2.5137 7.8302,-2.3136 11.4036,-1.4683 1.1911,0.2804 2.3989,0.7842 2.921,0.3041 0.807,-0.7419 1.7122,-1.2324 0.6965,-2.3387 -0.7406,-0.8065 -2.1186,-1.4228 -3.7943,-2.3911 -8.6728,-5.0127 -9.4606,-6.213 -19.6573,-6.4814 -1.1677,-0.031 -1.7676,0.5794 -2.4533,0.5873 -1.6653,0.019 -2.5374,-0.3907 -4.2202,-1.9402 -3.0816,-2.8371 -3.226,-0.7751 -1.3931,2.947 0.9612,1.9519 1.8018,2.417 1.3306,3.9014 -1.0747,3.3848 0.4565,4.0578 2.4637,1.0592 1.5043,-2.3475 1.6746,-2.2932 3.0977,0.7237 1.8867,3.7676 1.0007,5.5065 -1.8607,3.0519 -2.1686,-1.8602 -2.722,-0.477 -3.5654,0.9963 -1.1094,1.937 -0.9412,3.675 1.0392,3.5239 1.1391,-0.087 2.2032,0.4418 3.0979,1.4263 1.7538,1.9299 5.1158,4.3513 8.337,4.9188 z m -2.4533,-10.1941 c -0.2356,-0.013 -0.399,-0.11 -0.4782,-0.3566 -0.021,-1.2407 0.8252,-3.7765 1.5178,-5.1075 0.2215,-0.5927 0.6009,-0.6668 1.1331,-0.776 1.7874,-0.3333 1.9119,0.2248 1.5902,1.3424 -0.6555,1.725 -1.1971,4.1793 -3.5029,4.8872 -0.095,0.011 -0.1814,0.015 -0.26,0.011 z m 4.5425,-0.86 c -0.7235,0.054 -0.7471,-0.2499 -0.4571,-0.9124 0.516,-1.1178 1.4245,-2.1758 2.0997,-3.0519 1.4327,-0.9349 3.7655,1.9235 2.7337,2.6639 -1.4396,0.5742 -2.5219,1.1651 -4.0229,1.2585 -0.1338,0.023 -0.2499,0.034 -0.3534,0.042 z m 160.4704,-1.8668 c -0.3856,0 -0.7792,-0.077 -1.185,-0.2517 -5.4208,-7.3824 -5.0513,-18.6186 -0.8421,-24.8348 0.3139,-0.4644 0.6341,-0.5478 1.1644,-0.3671 1.8116,1.082 4.1127,1.4831 5.8317,2.1081 v 21.6151 c -1.7704,0.3783 -3.2976,1.7346 -4.969,1.7304 z m -142.8506,-1.7619 c 0.4142,-0.019 0.5865,-0.3031 0.062,-0.8495 -7.9047,-5.7707 -18.7818,-12.4594 -28.8155,-9.8689 -0.9211,0.2015 -1.6635,0.7096 -1.4864,1.6675 0.11,0.597 1.1302,1.1122 2.235,0.8181 2.3006,-0.6125 6.7128,-0.6916 8.524,-0.3986 6.8998,1.1425 12.9946,5.5944 18.2954,8.2014 0.3933,0.3029 0.863,0.4447 1.185,0.43 z m 2.3078,-5.506 c 0.3534,0.017 0.3263,-0.3393 0.1036,-1.0068 -1.1127,-3.3426 -12.2986,-11.1321 -21.1332,-13.7074 -7.5855,-2.2111 -18.4825,-0.037 -17.8488,3.5972 0.3308,1.8957 1.7097,2.3486 6.5491,1.7305 10.6576,-2.0894 20.9165,2.3072 28.7012,7.1946 2.0982,1.3334 3.1735,2.1708 3.6278,2.1919 z m 69.7934,-4.5727 c -4.6548,0.056 -9.2701,-0.3253 -14.2624,-1.1642 -9.7111,-1.6715 -20.9664,-4.7063 -30.4888,-9.1556 -16.1826,-6.1282 -36.5292,-10.8554 -53.7951,-10.215 -4.2144,-0.1181 -11.8312,0.244 -13.3059,0.7341 -3.8489,0.8708 -4.9128,0.046 -5.8317,-4.7719 -0.1619,-1.0481 -0.4825,-1.3523 -1.819,-2.2653 -2.0448,-1.3968 -1.7037,-2.7782 -1.4554,-5.8626 0.2093,-2.595 -1.3454,-4.0523 -7.5783,-15.6581 -7.0934,-13.2089 -14.0126,-28.558 -14.0126,-28.558 62.1814,0.043 121.5048,2.3708 185.1276,0.3775 -5.7218,13.6873 -21.3231,38.3703 -31.1001,58.1826 2.3645,6.0965 -0.5555,7.1326 0.6693,8.5782 1.9807,3.3884 0.5516,8.1413 -3.6341,9.212 -2.9162,0.3383 -5.7206,0.5327 -8.5135,0.5663 z"
       id="path6351-0-9"
       style="fill:#131f67;fill-opacity:1"
       inkscape:connector-curvature="0" />
    <path
       d="m 7517.217,882.25795 c 0,0 -20.3765,41.5608 -28.9621,54.0118 -12.3527,15.7976 -68.1066,-6.8663 -95.8345,-12.5286 -11.2699,-2.1921 -37.3938,-1.1644 -37.3938,-1.1644 l -21.8365,-39.7077 z m 42.3123,47.222 0.8636,129.38295 -6.3799,-4.0163 -1.462,-129.96175 27.575,-26.6376 0.151,7.8036 z m -16.69,14.7636 c -6.5676,13.3369 0.7644,29.6236 0.7632,29.6171 -3.8089,-0.9481 -14.426,19.3767 -15.369,18.7902 -16.2473,-20.1023 -19.0632,-50.0553 0.7878,-68.6184 5.0107,12.9032 13.7536,20.2111 13.818,20.2111 z m -12.1275,91.50665 c -12.3448,12.7281 -22.1345,22.6423 -31.9193,36.8856 -0.8013,1.1586 52.0844,68.9306 51.2622,70.1183 -8.1584,9.0966 -19.0946,15.7808 -27.6031,26.7652 0,0 -43.3713,-57.2796 -44.3691,-56.7762 -4.3944,17.9253 -7.6124,34.154 -6.7735,52.8909 2.6763,47.938 22.9816,77.2852 23.1386,76.708 6.8656,-44.0442 74.3462,-110.7565 87.6326,-106.0031 l 0.075,30.7791 c -0.8033,-1.5402 -42.7498,27.2292 -53.8108,65.2501 -0.7948,2.7315 -33.3433,13.2397 -33.1153,13.6415 1.3769,3.5692 15.6156,23.8916 15.6156,23.8916 0,0 -5.7516,2.703 -6.3905,2.6934 -18.4575,-23.1542 -32.3853,-53.6571 -37.1246,-82.7031 -5.7501,-31.2848 -9.4676,-90.0978 52.7131,-154.3293 z m -186.4083,80.9353 c 9.7299,30.4681 9.4644,62.0122 4.9902,84.0369 -6.8265,39.9089 -31.8267,68.4851 -51.8782,90.2753 h -8.698 c 0,0 10.3996,-10.8577 14.1841,-14.8085 6.4942,-7.5165 15.9012,-23.1961 15.9012,-23.1961 l -51.8917,-68.4309 -29.578,6.4495 c 0,0 0.892,-30.6124 -0.026,-30.6124 22.9875,-19.1968 39.5081,-36.5708 51.3669,-64.5395 7.2687,-2.7118 31.366,-13.1933 31.366,-13.1933 11.4557,2.8252 -34.0864,74.8615 -25.4253,76.0822 3.5678,2.969 43.0699,56.7319 43.8408,56.6208 18.21,-56.2476 0.4458,-115.3167 -31.5916,-156.5724 3.6368,-2.3769 6.9278,-4.2274 6.6264,-3.6699 13.7227,19.2069 25.7466,42.139 30.812,61.5624 z m 94.7979,28.2013 c -2.0528,-3.2066 -11.2849,68.6452 12.9795,126.1596 -2.309,1.7653 -22.3263,5.6286 -22.3263,5.6286 l -5.3877,-17.2208 13.6555,-5.8333 -2.5209,-8.0723 c -10.6002,5.1875 -33.5568,12.8457 -47.6781,36.5112 0,0 -68.6149,0.5941 -70.0755,0.4707 -1.4235,-0.1203 13.9941,-15.0265 28.6164,-45.2028 6.679,-13.7835 11.9926,-31.6178 13.0997,-52.542 0.2187,-4.1349 15.699,19.4388 15.699,19.4388 -3.8587,19.9181 -14.1776,39.5258 -24.4613,59.1352 0,0 15.7784,0.905 26.8017,0.5797 17.1425,-18.8998 27.8911,-28.8608 53.737,-37.8867 -9.4258,-30.4619 -67.0817,-45.1034 -54.2596,-42.3191 2.619,0.6225 5.9393,-28.0041 3.1648,-60.26 -0.5354,-25.7916 -14.2905,-68.786 -14.7744,-68.4399 0,0 9.1685,-2.083 9.9038,-0.5997 -1.5462,0.3745 13.6408,-3.5039 13.6408,-3.5039 l 5.4317,16.0239 -14.6973,6.8224 2.377,9.0443 c 0.058,0 32.4317,-9.8838 48.2889,-38.3755 l 70.9144,-0.082 c -27.3488,29.9391 -38.5038,59.5509 -44.4434,98.7002 -5.8021,-1.0498 -17.6857,1.8236 -17.6857,1.8236 z m -174.4026,258.4781 c -8.9168,7.5275 -26.8121,27.1302 -26.8121,27.1302 l -0.2334,-10.0435 20.3103,-21.3094 -0.2051,-131.5667 6.8711,6.6436 z m 9.3864,-48.1542 c 3.6579,-1.7579 10.9481,-10.4055 14.4237,-20.1222 23.5297,21.2091 13.8398,60.186 0.9587,68.3 -3.7371,-8.5106 -14.5606,-19.7935 -14.3101,-19.5564 2.4871,-8.9115 4.3936,-17.9514 -1.0723,-28.6214 z m 208.3317,88.3228 -181.472,-0.3213 c 10.3515,-20.5628 19.8485,-37.1845 30.8509,-57.4279 5.7246,-6.9675 129.6507,22.4987 130.2325,19.5636 z"
       id="path6353-8-1"
       style="fill:#e2cf00;fill-opacity:1"
       inkscape:connector-curvature="0" />
    <path
       d="m 7580.512,908.44765 1.2107,172.75295 -20.6281,-20.2163 -1.2249,-132.66545 z m -94.6519,33.4762 c 4.2694,-0.6572 1.8529,3.3301 1.0727,7.1204 -0.4344,2.1119 1.5909,4.0989 1.5816,4.7438 -0.054,3.75 -2.8392,5.3327 -15.4574,5.1851 -29.7489,-2.0826 -45.1283,-11.6902 -62.1925,-16.1569 -16.3415,-4.2774 -32.5407,-4.1911 -50.5731,-3.772 -1.3198,-0.7675 -6.1543,-13.3285 -5.2558,-14.5857 40.7927,-8.1099 92.8469,22.1046 130.8245,17.4653 z m -73.5212,89.45405 c 4.2978,3.1417 8.3316,3.7236 12.3184,4.4059 -6.9957,12.4147 -15.4679,23.7284 -29.6177,30.8082 l -6.5848,-16.4349 c 8.3225,-4.3162 16.4923,-9.4548 23.8841,-18.7792 z m 85.9368,42.6804 c 0,0 6.1057,-10.07 11.8679,-14.968 17.1316,23.1746 55.4386,72.5163 55.4386,72.5163 l 16.2553,-8.3038 c 0,0 0.065,9.5522 -0.3033,10.2208 -43.9047,22.8249 -74.0301,65.9653 -87.2963,106.3622 0,0 -7.0686,-7.2772 -6.1392,-10.3558 11.8715,-31.8653 32.1713,-63.8214 62.023,-87.7875 z m -54.7578,47.0116 -55.4275,-0.079 -2.4545,-19.4394 c 21.2244,-7.1751 38.7404,-21.8327 55.1182,-38.7866 l 26.2903,0.462 c -8.6195,19.0527 -20.5945,38.3806 -23.5265,57.8431 z m -205.2098,81.899 c -1.793,-5.4807 0.021,-11.3928 -0.6754,-11.1448 66.3918,-33.1262 85.364,-105.8328 85.364,-105.8328 0,0 6.3032,10.0676 6.0154,11.6251 -34.364,77.0565 -57.355,79.3512 -61.772,87.7196 l 52.2656,68.2407 -11.8226,16.2215 -56.0588,-73.596 c -5.5721,2.5891 -8.7481,4.7578 -13.3162,6.7667 z m 32.7358,-99.6887 c -11.2582,20.4272 -22.8727,32.3014 -34.4424,40.471 l 0.5617,-26.9587 z m 310.3937,80.1751 -0.289,26.154 -34.1983,14.848 c 9.4556,-20.7946 22.2913,-31.9387 34.4873,-41.002 z m -152.3562,23.5148 2.0222,18.3957 c -20.7604,9.1357 -39.1014,21.3545 -53.9078,38.078 -15.9068,0.7708 -26.7712,-0.3164 -26.6849,-0.098 -0.028,0.032 15.1316,-22.3979 25.1682,-57.7125 z m -172.0032,193.2343 -18.8961,19.2633 -0.596,-172.246 18.9804,18.5585 z m 166.076,-139.9811 5.9959,17.0443 c -9.4311,3.5656 -16.571,11.3329 -23.2225,19.0246 -4.5093,-4.072 -10.3287,-5.5053 -12.3488,-6.2882 -2.7649,-0.6518 19.1196,-27.1614 29.5754,-29.7807 z m 35.4278,129.0792 c 0,0 2.3579,1.3768 2.099,3.3168 -0.7804,2.5131 2.5193,8.2024 2.5205,8.2022 -40.2418,12.3169 -98.8407,-22.3438 -133.62,-15.0533 0.2904,-2.4502 -0.1101,-5.3721 0.876,-7.682 -1.0956,-4.9101 -1.8692,-5.0682 2.8829,-8.0661 24.4341,-6.9751 50.1847,7.898 74.0513,15.0082 19.4709,6.1867 35.2859,4.6105 51.1903,4.2742 z"
       id="path6355-9-7"
       style="fill:#d40000;fill-opacity:1"
       inkscape:connector-curvature="0" />
    <path
       d="m 7484.4914,1445.9577 -7.3503,-13.9657 1.271,-0.8696 c -2.0012,-3.364 -3.7019,-7.1491 -5.7484,-10.4858 l -1.4768,0.1716 c -2.4144,-4.6673 -3.3922,-6.3939 -6.5509,-11.9236 l 1.4261,0.01 c -0.7341,-2.4582 -2.6179,-4.0911 -2.6564,-5.8553 -0.021,-2.1949 0.5405,-4.4228 -0.796,-5.9086 -1.5831,-1.76 -1.773,-2.2476 -1.4475,-3.2787 0.8638,-2.739 -1.5963,-5.7709 -4.0926,-5.4992 -17.5923,2.3721 -35.5192,0.3593 -53.4396,-5.1041 -12.888,-4.1002 -24.3281,-8.6927 -35.1591,-11.9216 -3.4148,-1.0288 -10.3171,-2.651 -16.2578,-3.09 -16.4798,-1.2179 -25.7275,2.1694 -22.9518,9.0841 0.2199,0.5537 0.7149,0.9597 0.7582,1.2445 0.079,0.526 -6e-4,1.0951 -0.9358,1.8686 -2.7041,2.7857 -1.1938,4.8135 0.4545,7.8978 0,0 -21.1634,38.1417 -31.7336,57.1468 z m -183.2338,-3.4275 15.4456,-26.9029 c 8.2565,1.5092 10.197,-5.4961 10.3222,-6.4813 10.723,2.7732 9.0764,-11.2542 3.697,-12.2019 -0.3478,-2.0348 8.814,-4.5628 13.6422,0.2039 -7.4197,-1.0026 -10.0474,8.9012 -0.9845,11.102 -11.9483,8.9609 10.4685,22.3776 10.7351,3.8403 10.5407,1.8727 9.1705,-12.1798 2.4848,-13.2724 3.4201,-3.8042 13.4756,-3.9099 18.7319,4.1088 -8.9409,-4.6848 -13.7785,7.4068 -4.4909,10.7919 -11.4628,10.1414 10.9832,19.4917 10.4578,3.1043 8.4607,5.0586 14.2782,-7.8378 2.9833,-9.8165 0.644,-2.3207 15.4356,-2.3389 19.1894,3.6602 -10.4876,-2.4144 -10.9702,10.4672 -1.7152,11.5155 -9.2897,11.8943 14.2914,17.9102 10.3329,1.6781 9.1108,3.6353 12.5526,-7.8247 3.68,-11.505 -0.4927,-1.8237 14.3682,-3.3752 19.5697,3.2037 -11.4218,1.7292 -7.4251,12.8967 -0.026,12.0034 0,0 -0.1058,0.3213 -0.5234,1.4078 -3.4931,11.2101 15.2872,12.1469 12.6858,0.2597 -0.4164,-1.0942 -0.8766,-2.5519 -0.8766,-2.5519 5.1771,1.0639 8.3408,-1.0635 7.966,-5.9641 -1.2892,-6.5068 -4.6959,-6.0259 -9.0541,-4.7299 -1.828,-1.9271 10.5147,-8.3695 18.2636,-2.6172 -9.4902,2.7513 -4.6827,13.9716 3.2584,12.4569 0.3286,3.5812 4.1865,8.6045 9.2165,6.154 l 5.3224,10.5611 z m -15.5215,-149.4606 11.1491,-0.1658 c 7.8307,-8.0661 64.5383,-60.7658 54.9881,-140.37 -4.0848,-34.0475 -13.5091,-63.5042 -38.7049,-98.3023 l -6.7328,3.9871 -1.03,-0.696 -69.8222,40.5231 -0.036,12.3057 81.0479,-34.3033 c 1.6079,1.726 2.5534,3.6515 3.9072,5.7766 l -32.4784,13.9269 c 0,0 -0.7791,1.9906 -1.0299,2.9067 -10.6776,27.2557 -32.3699,46.9872 -51.2542,62.2317 0.1,26.8345 0.2243,83.0152 0.2243,83.0152 l 48.8328,49.0648 c 6.2621,-5.7761 11.8147,-11.718 17.3691,-18.1637 l -56.0657,-74.4547 4.9702,-3.2635 55.4752,74.0683 c -6.5695,7.9707 -13.701,14.9209 -20.8094,21.9132 z m -49.8107,-48.4089 c 0,0 0.2698,127.8309 0.6383,189.5576 h -10e-5 l 29.0975,-30.1179 -0.1123,-129.5711 z m 2.4743,177.3878 20.5583,-21.4007 -0.2303,-131.705 5.2832,5.2542 v 128.1598 l -25.6822,27.1484 z m 200.0672,3.1701 c -0.6145,-1.0933 -0.3484,-2.608 0.6394,-3.844 4.2045,-5.2616 -9.0016,-14.4052 -18.5036,-12.816 -7.2321,1.2095 -13.3976,5.5912 -10.7382,8.9251 2.166,2.7152 0.7517,5.4614 -1.8503,5.4431 -2.6759,-0.019 -4.8245,-2.1663 -2.5053,-5.1076 5.1596,-6.5429 -2.7086,-14.2197 -14.7402,-14.3785 -8.508,-0.1124 -11.3424,2.0018 -10.8838,8.1174 0.2159,2.8639 -0.3425,3.6555 -2.3182,4.0901 -3.1552,0.6943 -4.7472,-2.9538 -2.1309,-5.7367 5.6497,-6.0094 -0.7706,-14.8466 -11.4554,-15.4168 -3.9096,-0.2087 -4.6816,0 -9.0441,2.4855 -3.4091,1.9416 -4.6123,4.874 -2.9418,7.1526 2.1503,2.9326 -0.7485,6.4354 -4.0957,4.9921 -2.3921,-1.0315 -3.5705,-2.8826 -0.9243,-6.0202 3.4761,-4.122 1.8296,-7.5221 -4.8657,-9.8161 -5.2153,-1.787 -8.8267,-1.5653 -11.2683,0.6817 -0.7598,0.6992 -2.4501,2.1596 -2.4253,1.7135 1.6411,-2.8594 3.0947,-5.5135 3.0947,-5.5135 10.9241,-4.9167 19.4511,4.2848 19.1705,4.6282 11.2539,-6.5515 21.2327,-5.1694 29.6647,5.8363 2.1925,-1.2257 17.8893,-4.1115 29.2212,8.4356 11.4341,-5.7879 22.0636,-3.3605 31.5091,3.1122 6.9799,-6.6476 14.3379,-7.6992 21.9829,-4.5066 l 2.2646,4.5953 c -0.5712,0.216 -3.0358,-4.608 -15.0003,-2.3597 -4.0172,0.7547 -10.9287,7.5658 -7.0584,10.8862 1.7723,2.5286 1.8251,3.6687 0.2601,5.2018 -1.54,1.5104 -4.1694,0.7328 -5.0574,-0.781 z m 29.3092,-6.0255 c -0.6676,-1.3043 -0.7568,-3.4727 -0.021,-2.171 0.3884,0.6869 2.4141,3.7551 2.3183,3.8491 -0.9427,0.079 -1.8775,-0.9021 -2.2975,-1.6781 z m -229.3853,-1.0476 -0.1338,-169.9626 17.5073,17.5227 0.8411,133.1483 z m 202.7444,-8.2304 -5.5133,-3.4972 9.8718,0.06 z m -30.9908,-2.9249 -4.6288,-4.536 9.7316,2.0588 z m -86.7157,-2.354 2.0685,-4.2789 c 1.1934,1.3456 1.5402,4.2021 -2.0685,4.2789 z m -34.9825,-70.6576 c -3.5138,7.9582 -8.2146,18.0932 -15.824,21.3167 5.6644,11.3558 4.9286,22.7077 0.9096,28.9316 5.7471,5.3972 11.6462,11.863 15.3075,21.1606 18.1591,-16.1756 21.0776,-49.4012 -0.3931,-71.4089 z m 0.5436,68.3015 -1.2497,-3.107 c 16.1724,-19.9675 11.1792,-46.1801 -0.5343,-60.1681 l 1.6825,-3.5233 c 14.3155,15.2326 20.5824,47.4305 0.1015,66.7984 z m 96.6779,-11.2956 c -18.7385,-5.5469 -33.7467,-14.1943 -55.412,-6.4906 l -0.1015,-4.255 c 13.7892,-8.9304 41.2605,0.5049 59.8187,7.4155 29.831,11.1083 53.0466,10.4606 69.6319,9.1914 1.46,0.2884 2.6208,4.135 0.2818,4.1611 -31.0159,0.345 -26.0046,4.2499 -74.2192,-10.0224 z m -4.2339,7.5269 -6.1539,-6.5863 c 4.6218,1.4629 9.1154,3.0876 13.2955,5.1075 z m -93.9269,-1.625 -1.2058,-1.678 c -0.5223,-0.7266 3.403,-1.1035 2.7442,-0.2517 z m 105.7351,-12.0538 c -22.3684,-8.4742 -46.9987,-16.9313 -63.1624,-9.3466 0,0 -0.1015,-3.2292 1.7458,-4.1437 0,0 1.7047,-1.3908 7.4095,-2.1826 26.1538,-2.1655 43.1305,8.7582 64.2405,15.214 8.0076,2.4488 20.8725,5.4158 34.0819,5.9679 7.844,0.3599 19.8445,-0.7762 19.8445,-0.7762 2.6139,0.2196 2.576,1.7768 2.5988,3.3036 -22.7394,3.0591 -43.6495,0.7765 -66.7586,-8.0364 z m -108.1677,8.1242 c -0.2884,0.013 -0.5827,-0.01 -0.8732,-0.052 l -2.2869,-2.9471 2.7131,-4.3523 c 0,0 2.3932,2.2227 3.6072,4.4048 0.6689,1.4129 -1.1405,2.8524 -3.1602,2.947 z m 65.9056,-0.8291 -7.0838,-5.3939 c 5.3254,-0.2638 11.3195,-0.4642 17.2521,1.9132 z m -59.9972,-2.7469 c -0.5579,0.013 -1.1436,-0.5811 -1.8295,-1.7619 -1.3188,-2.2699 -1.1445,-2.7048 1.4137,-3.5343 3.36,-1.0894 3.6238,-0.8502 2.5364,2.1919 -0.7404,2.0717 -1.4032,3.087 -2.1206,3.1043 z m -10.7595,-1.3915 -4.7885,-4.0549 c 2.6446,-6.9418 4.3753,-15.753 -0.9363,-28.4015 0.5896,-0.039 4.0314,-3.4661 5.1116,-4.0509 3.0336,1.2827 9.7111,26.3452 0.6132,36.5073 z m 5.4472,-5.3101 1.2164,-7.6769 c 0.1,-0.6296 5.2979,3.6349 4.8128,5.7682 -0.9256,2.5335 -4.0906,1.993 -6.0292,1.9087 z m 8.5934,-2.695 c -0.6283,0 -1.6152,-1.5389 -2.8273,-3.5449 -0.9455,-1.5649 -0.7518,-2.156 1.3409,-4.0586 3.0814,-3.1431 3.687,-2.1171 3.0043,3.2302 -0.3374,2.6421 -0.8053,4.3786 -1.5179,4.3733 z m -6.372,-6.9569 c -0.4181,-0.01 -0.7839,-0.1104 -1.05,-0.3252 l -0.3535,-7.4776 c -0.032,-0.6751 5.7848,0.2659 6.5492,3.1148 0.9657,1.824 -2.8878,4.7348 -5.1457,4.688 z m 7.6782,-6.3205 c -0.4167,0.06 -1.7203,-0.8149 -2.9522,-1.5522 -2.1419,-1.2819 -2.1881,-1.8458 -0.3432,-4.2369 2.1672,-2.8091 3.2437,-2.3586 3.576,2.5274 0.1208,1.7939 0.2552,3.1848 -0.2806,3.2617 z m -8.5374,-2.8598 c -0.1879,10e-5 -0.3555,-0.054 -0.499,-0.1783 -1.0306,-0.8892 -2.6066,-8.3843 -1.9437,-9.1663 0.9438,-1.1139 5.909,0.3675 7.0166,2.1291 1.054,1.6761 -2.7632,7.2142 -4.5739,7.2155 z m 6.0773,-8.8237 c -0.5706,0.039 -1.5976,-0.3569 -3.1497,-1.1117 -0.9336,-0.454 -2.4919,-1.3083 -2.8366,-2.0367 -0.6059,-1.2819 0.4014,-3.182 1.7035,-4.7594 0.8613,-1.0436 1.6675,-0.2672 3.3368,3.2302 1.3427,2.813 1.897,4.6121 0.946,4.6776 z m -10.024,-3.3522 c -0.1145,0 -0.2179,-0.021 -0.3118,-0.073 -1.6909,-0.9456 -1.4076,-3.7539 0.5924,-5.8311 2.4005,-2.4935 4.4859,-0.6152 2.8276,2.5484 -1.0506,2.004 -2.3078,3.3369 -3.1082,3.3561 z m 139.5024,-69.7302 c 1.4624,-0.066 3.744,-1.4024 4.7402,-2.6954 1.2587,-1.6338 2.357,-1.4202 3.7525,-1.3004 1.6607,0.025 4.1875,-0.3458 7.6093,-1.9193 1.9391,-0.8916 2.8234,-1.0926 5.6653,-1.2375 1.8551,-0.094 3.7142,-0.3478 4.1271,-0.5664 0.4127,-0.2185 1.7479,-0.6899 2.9625,-1.0487 2.4832,-0.7336 1.5994,-1.4446 0.1749,-4.6736 -7.2463,-18.7431 -12.4388,-40.5828 -14.331,-58.3709 -2.1242,-20.4076 -1.4813,-45.1546 1.3474,-64.0533 6.9367,-0.047 11.2929,0.3117 18.5983,0.1874 4.9823,-40.8692 18.5037,-73.3227 45.5241,-102.5092 l -73.0462,-0.1876 c -8.3689,22.5193 -46.5606,39.6955 -47.816,38.4288 l -2.0121,-8.2186 c 0,0 27.4734,-3.9607 45.9763,-39.1337 -1.8923,1.155 -8.7832,0.354 -13.3326,-4.4104 -9.086,11.6232 -23.9914,19.218 -24.0883,19.0395 l -0.499,1.4019 c 0,0 -2.7326,0.9371 -5.1352,1.3983 -0.7708,0.148 -2.3503,0.4479 -3.3992,0.8181 -1.6212,0.5725 -2.4255,1.1815 -4.9273,0.9649 -5.2078,-0.5022 -10.4346,1.0225 -10.3242,1.0504 15.5057,43.144 19.17,82.09 13.113,127.3322 -5.7128,-0.045 -18.2391,-0.2619 -18.2391,-0.2619 -1.2602,12.7115 -2.8557,25.4303 -6.7258,37.4321 -4.969,15.4093 -10.9615,29.7332 -20.6097,42.831 -5.4481,8.2258 -10.2057,14.0794 -15.8373,21.7891 l 71.5045,-0.1669 c 9.4629,-16.0456 27.6948,-29.4465 42.3481,-35.0297 4.9874,-1.8902 5.6914,-1.6108 6.5179,0.7552 1.4765,4.2272 1.4058,4.048 -2.495,5.1704 -1.3026,0.3748 -5.4708,2.5891 -11.9752,5.6634 -13.8036,7.069 -23.2954,20.0111 -28.8779,28.7467 -2.2211,3.4502 -0.7296,2.6711 3.0668,2.7058 3.4774,0.2743 5.066,1.3589 8.1912,4.2999 1.1519,1.0839 1.647,1.8562 2.1728,1.7934 4.0809,-5.9133 10.9327,-13.7142 16.2787,-16.0251 z m -16.7813,13.6601 c -3.2133,-3.4714 -7.0275,-5.5022 -12.0468,-6.1635 8.0218,-12.6995 17.8202,-22.6301 29.082,-28.6674 l 5.7254,16.2475 c -14.0351,6.5926 -17.7869,13.1963 -22.7606,18.5834 z m -116.5496,-5.1684 c 75.6232,-70.5362 71.174,-159.461 18.2172,-231.6924 l 5.5487,-3.3661 c 49.7371,67.2427 58.7356,166.7146 -17.2588,235.3593 z m 47.6747,-8.6032 -18.5387,0.038 12.6208,-16.5038 16.9337,0.063 z m 2.9048,-0.1368 10.3096,-16.3996 27.8108,-0.3611 c 16.641,-20.6982 34.516,-30.7952 52.7122,-37.6853 l 3.5512,17.6738 c 2e-4,-10e-5 -28.8105,7.0092 -47.4699,36.9962 z m 28.2599,-1.3563 6.4448,-7.1946 -6.6944,-6.8694 -6.1123,6.9742 z m -14.5948,0.1677 6.5281,-6.8484 -5.0938,-6.8904 -6.7672,6.6911 z m 32.1938,-1.248 1.1124,-10.7709 -8.3995,-2.7792 -1.2265,9.2082 z m -51.0961,-0.4015 6.0954,-9.6142 -9.1789,-0.1469 -6.4177,9.5724 z m 95.9576,-2.4567 -5.949,-16.6366 5.2233,-2.5415 5.2992,17.3741 z m 7.0414,-2.6688 -6.1331,-17.2103 5.1353,-1.7095 5.6342,17.913 z m -7.3492,-67.9496 c -0.6845,-23.935 -1.0243,-38.3637 2.9418,-59.4022 0.2074,-1.0996 4.4677,-0.1255 4.4677,-0.1255 -0.5391,-0.1812 -2.4005,23.775 -2.2525,38.8224 0.2816,28.6557 5.0974,57.0039 16.2443,85.4034 -2.125,1.3114 -7.3656,1.9803 -7.3656,1.9803 -7.0348,-21.5356 -13.2706,-44.7024 -14.0357,-66.6783 z m 74.2469,66.3623 c -24.413,-32.6778 -41.8622,-77.0119 -38.943,-120.7543 2.7962,-50.8648 21.9104,-80.1791 55.4796,-115.4025 l 8.6609,-0.2031 c -39.7375,38.441 -57.3198,71.3383 -58.7057,114.7414 -1.594,49.9183 13.5165,83.1186 38.9678,118.4999 z m 78.0878,-44.9212 -0.085,-11.9035 -83.1737,35.9894 11.996,17.829 z m -194.9341,38.9889 9.0542,-0.4615 -0.3015,-9.2187 -9.4387,0.2307 z m -80.7082,1.7515 -53.899,-71.3058 13.3371,-9.9947 51.3834,67.0057 z m 42.2451,-4.8703 -16.1333,-0.2517 6.238,-10.4418 15.5927,0.1258 z m 2.9793,-0.2571 c 7.4176,-13.9181 17.6495,-29.7879 23.3951,-55.4357 l 53.1092,-0.045 c 0.1,5.8557 0.8502,11.7113 1.7153,17.567 -22.8857,8.4501 -40.6125,21.0808 -53.6495,37.7762 z m -9.821,-0.735 6.923,-4.0273 -4.2307,-4.9082 -7.63,2.947 z m 63.2157,-5.1288 2.2868,-9.0824 -8.6071,-3.3455 -1.5907,10.7918 z m -49.5225,-6.7855 -15.4785,-0.094 6.5178,-13.1306 15.3328,0.2307 z m -36.8527,1.7191 -51.0042,-66.7026 4.7817,-3.8167 49.8452,65.2004 z m 30.9791,-2.7784 6.9753,-5.8626 -5.2496,-6.1143 -6.4344,5.1809 c -0.1362,0.1093 4.7087,6.796 4.7087,6.796 z m 67.6934,-0.4824 2.1416,-8.8306 -8.9502,-2.4017 -1.6009,9.4704 z m 12.3808,-5.8731 1.8191,-8.6943 -8.4304,-2.2968 -1.7776,8.3796 z m 69.6058,0.8722 c -0.4325,0.087 1.4092,-10.3476 4.1205,-12.2288 1.2956,-0.8987 1.9664,-0.7005 3.0902,0.5235 0.7738,0.8429 4.2809,6.614 4.2809,6.614 l -2.9956,1.519 c -3.6354,-5.8645 -3.6323,-3.028 -5.0081,1.9702 z m 13.9788,-6.0105 c -1.1872,0.01 -2.6256,-1.4796 -4.2514,-4.363 -2.3513,-4.1694 -2.273,-4.4413 1.5902,-5.6423 6.9545,-1.8566 9.5408,-2.3016 7.4014,2.3283 -2.3032,4.9846 -3.2136,7.6657 -4.7402,7.677 z m -20.7024,0.827 -4.7592,-8.2186 c 19.0835,-49.0226 49.8643,-84.1888 92.233,-105.468 l 0.097,8.1447 c -49.9528,28.6859 -70.4353,62.5724 -87.5708,105.5419 z m -129.7543,-3.544 -15.021,-0.2727 4.0125,-11.5888 15.9669,0.1153 z m 154.9695,0.5061 c 12.2264,-29.3949 28.932,-55.0416 62.3338,-76.6939 l 0.1339,7.8089 c -37.511,22.8069 -53.725,65.5273 -53.7226,65.5405 z m -189.8558,0.05 c -8.8937,-0.2461 -18.246,-10.0279 -17.2975,-18.0912 0.6685,-5.6824 -0.4106,-9.8986 -1.9438,-7.5722 -3.3883,5.1407 -13.3707,1.7235 -13.2807,-4.4494 0.047,-3.2852 2.2238,-3.825 3.472,-0.86 1.8447,4.3815 7.027,4.4897 7.792,-0.1022 0.7169,-4.3042 -2.9006,-7.4665 -12.568,-10.9911 -11.3281,-2.6809 -18.1472,-12.9252 -14.1186,-18.8143 1.3992,-1.5568 2.2419,-1.9397 2.5053,-1.1327 0.075,0.2315 0.3534,1.4464 0.6133,2.6954 1.2849,6.1717 4.2165,8.7646 7.779,6.6452 1.7853,-1.0622 1.5584,-2.4686 0.5171,-4.3235 -1.3868,-2.4699 -0.5186,-3.4292 1.9645,-2.171 3.9202,1.9873 5.2163,6.6958 1.4151,8.8681 -4.5195,1.8232 -2.9892,2.2159 2.7862,4.1846 12.2926,4.2372 17.5668,12.0092 18.2122,26.8169 -0.2361,6.7498 0.679,9.1568 3.8254,10.0787 2.8809,0.8441 6.1429,-2.848 4.0749,-4.7929 -1.1233,-1.0565 -2.0407,-2.0173 -1.4448,-2.6009 1.9103,-1.8715 6.6901,1.1665 6.6424,4.4258 -0.03,2.1308 -0.8306,2.5703 -3.9918,5.076 -0.8768,0.695 -0.1295,2.0051 1.154,2.0241 4.8318,-1.5708 4.491,4.8765 1.8918,5.0865 z m 27.8457,-1.7089 7.5094,-4.3542 -3.9106,-5.5132 -8.3149,3.94 z m 146.1042,-4.279 c -0.8627,1e-4 -1.5696,-0.7028 -1.5696,-1.5732 0,-0.8703 0.7069,-1.5836 1.5696,-1.5836 0.8627,0 1.5592,0.7133 1.5592,1.5836 3e-4,0.8704 -0.6965,1.5732 -1.5592,1.5732 z m -15.3923,-0.6823 c -15.8489,-34.8966 -19.618,-74.8015 -8.5894,-114.6795 l 42.7999,56.1793 c -16.4204,18.6514 -27.4594,40.0047 -34.2105,58.5002 z m 57.8828,-2.5625 38.1902,-16.1882 0.2118,-28.8899 c -21.3374,14.6906 -30.387,29.7303 -38.4016,45.0781 z m -36.7089,0.2408 c -3.7634,0.1179 -1.9066,-10.1309 2.9801,-13.6279 1.7925,-1.389 3.0004,-1.2188 3.5914,1.5591 0.3062,1.4394 1.8088,4.4863 3.7017,6.9388 2.2018,2.8532 2.1764,2.9232 -1.0397,3.1254 -3.5511,-0.054 -6.4624,1.666 -9.2335,2.0046 z m 3.7196,-4.3554 c 2.7761,0.041 3.6076,-1.2692 1.9543,-3.0623 -1.3921,-1.51 -2.4968,-1.1863 -3.4304,0.9963 -0.5691,1.3303 -0.06,2.0433 1.4761,2.066 z m 68.8814,-37.476 -0.093,24.5202 -32.6594,13.8737 c 6.5518,-14.3266 18.6794,-28.5314 32.7528,-38.3939 z m -290.1341,-19.8087 4.3516,-4.4127 42.1619,55.4509 -2.6418,6.9997 z m 231.0657,56.0892 c -1.4141,-0.021 -4.6202,-4.966 -5.5198,-8.5161 -0.6671,-2.6335 0.039,-3.19 4.9899,-3.9328 2.0511,-0.5665 7.5912,-0.019 7.1412,1.4683 -0.8039,2.1478 -6.1126,10.9881 -6.6113,10.9806 z m -152.7431,-0.5661 -15.3848,-0.1677 3.5239,-12.7321 16.1125,0.2413 z m -6.7984,-0.776 7.1623,-5.0027 -5.6654,-5.6319 -7.5883,4.73 z m -24.135,-5.4776 -42.6515,-55.8468 c 12.7254,-16.3297 25.4171,-35.0884 33.7608,-59.8835 15.1855,35.8344 20.7452,70.715 8.8907,115.7303 z m 173.2261,-4.7515 c -0.8627,0 -1.5695,-0.7027 -1.5695,-1.5732 -3e-4,-0.8704 0.7068,-1.5836 1.5695,-1.5836 0.8628,0 1.5593,0.7132 1.5593,1.5836 0,0.8704 -0.6965,1.5732 -1.5593,1.5732 z m 4.9062,-2.129 c -2.663,-0.1904 -0.1489,-8.7456 3.8584,-11.8661 3.1593,-2.4595 4.5176,-1.3187 5.2478,3.1823 0.264,1.6265 1.9586,4.3902 3.4504,6.5719 1.6665,2.4374 0.9799,2.8254 -3.2433,1.8458 -2.9482,-0.5768 -6.588,0.1291 -9.3133,0.2661 z m -142.5437,-2.0907 -16.1307,-0.098 2.4836,-19.3341 z m 157.1694,-0.8953 c -2.5421,-2.3906 -5.7525,-10.7782 -4.1059,-11.3821 1.9157,-0.7024 10.5892,0.3131 11.5597,1.3214 0.6685,0.6946 0.6704,0.6983 -0.7485,2.6114 -0.7802,1.0523 -2.2655,3.1512 -3.3057,4.6671 -0.937,1.1071 -1.9749,4.1086 -3.3996,2.7822 z m -8.981,-0.2862 c 2.4567,-0.083 2.6205,-0.4227 1.4553,-3.0938 -0.9506,-2.179 -1.6097,-2.3733 -3.2432,-0.9439 -2.2728,1.9888 -1.3189,4.1428 1.7879,4.0377 z m -283.1373,-1.6783 -0.5821,-9.5333 c 62.0077,-31.0301 85.2288,-104.2908 85.5627,-104.2895 l 4.5009,8.4531 c -28.4526,70.7376 -66.2945,91.2202 -89.4815,105.3697 z m 292.1876,-11.2743 c -3.6923,0.078 -4.7708,0.3318 -4.7507,-1.0488 -0.043,-3.712 3.3967,-8.9821 7.5989,-10.9701 2.829,-1.3383 2.8926,-1.3696 3.2122,1.9928 0.2458,2.5869 1.0819,5.9167 2.4116,8.5684 0.4174,0.9832 2.0202,3.2379 0,2.5964 -2.0145,-0.6416 -6.1752,-1.1871 -8.4774,-1.1387 z m -8.2827,0.8622 c -0.8628,0 -1.5592,-0.7028 -1.5592,-1.5733 0,-0.8704 0.6964,-1.5731 1.5592,-1.5731 0.8627,0 1.5593,0.7027 1.5593,1.5731 2e-4,0.8705 -0.6966,1.5733 -1.5593,1.5733 z m 19.759,-2.1732 c -0.6697,0.019 -1.307,-1.3678 -2.0685,-3.4084 -1.6563,-4.4372 -2.1637,-6.8429 -1.6738,-7.8867 0.7552,-1.6087 10.9318,-0.5701 12.6612,1.227 0.3293,-0.2486 -7.4858,9.1766 -8.9189,10.0681 z m -7.3286,-1.1011 c 1.4587,-0.1007 0.6866,-0.9869 -0.3951,-3.5554 -0.7486,-1.7781 -1.762,-2.0643 -2.921,-0.8179 -1.5503,1.6671 -1.7593,2.9917 -0.7811,3.7035 1.4365,0.582 2.4973,0.662 4.0972,0.6698 z m -296.7697,-9.6435 -0.054,-3.1935 c 2.415,0.727 3.911,1.7587 6.6646,2.6829 1.6877,0.5716 2.6851,0.9783 1.1944,2.7712 -2.3354,2.8092 -4.8409,4.566 -7.6871,6.3064 l -0.021,-3.6176 c 4.5503,-2.0343 4.1085,-3.9116 -0.1015,-4.9494 z m 179.2418,3.2459 h -17.1314 v -11.4105 h -13.3993 l 1.0397,-13.0047 h 12.3596 v -11.4107 h 17.1314 l -2e-4,11.4107 h 12.2352 l -0.9875,13.0047 h -11.2477 z m -38.6908,-0.039 c 8.6757,-43.3666 0.7175,-89.4072 -12.6666,-126.9176 l 6.7539,-0.75 c 10.4323,29.997 18.7252,72.7032 10.2903,127.6432 0,0 -3.0226,0.055 -4.3776,0.024 z m -127.1539,-0.8416 c -0.8624,0 -1.5593,-0.7027 -1.5593,-1.5731 0,-0.8705 0.6966,-1.5732 1.5593,-1.5732 0.8627,0 1.5595,0.7027 1.5592,1.5732 3e-4,0.8704 -0.6965,1.5731 -1.5592,1.5731 z m 301.3666,-3.6392 c -0.5679,0.017 -2.3102,-0.741 -3.8567,-1.1746 -2.3253,-0.6522 -4.159,-0.9342 -6.2786,-0.9754 -4.2582,-0.083 -4.816,-0.044 -2.9835,-3.5763 1.3204,-2.5445 4.2927,-5.9076 6.3722,-6.9324 2.9451,-1.586 4.0737,-1.371 3.8984,1.5522 -0.021,1.9823 0.8322,5.4291 1.9438,7.8867 0.8645,1.9109 1.8508,3.1911 0.9044,3.2198 z m -18.0161,-1.3928 c -0.8627,0 -1.5695,-0.7027 -1.5695,-1.5731 0,-0.8704 0.7068,-1.5836 1.5695,-1.5837 0.8629,0 1.5593,0.7133 1.5593,1.5837 2e-4,0.8704 -0.6964,1.5731 -1.5593,1.5731 z m -288.2464,0.2078 c -1.2077,0.026 -3.2779,-0.7206 -5.1664,-1.6466 -5.0075,-2.455 -4.8734,-3.0186 1.9127,-7.8763 4.9271,-3.7719 6.093,-4.1945 6.2683,1.7515 0.177,5.011 -0.3584,7.7141 -3.0146,7.7714 z m 308.8302,-1.4368 c -1.9876,-0.029 -4.1877,-10.4695 -2.4013,-11.4002 2.7812,-1.4491 11.3967,1.3745 11.362,3.7546 0,0.7743 -8.084,7.6585 -8.9607,7.6456 z m -302.8427,0.4299 c -1.188,0.052 -1.346,-0.8871 -1.237,-4.216 0.058,-1.7626 -0.2422,-4.6377 -0.3639,-5.978 -0.2524,-2.7826 -0.022,-2.9743 2.1622,-1.7304 1.3952,0.7974 4.2298,2.1021 7.2973,2.3701 2.5137,0.2196 2.6974,1.2625 1.9186,2.9346 -2.2199,3.7048 -6.24,6.3052 -9.7772,6.6197 z m 295.4622,-1.5731 c 1.7342,0.013 1.3046,-0.918 0.2286,-3.5344 -0.7624,-1.854 -2.0833,-2.0309 -3.4408,-0.4509 -1.9009,2.2123 -1.5273,3.3829 1.2369,3.807 0.5848,0.089 1.5748,0.1755 1.9753,0.1783 z m -293.165,-2.4856 c 0.7216,-0.068 1.7085,-0.6428 2.1831,-0.9543 1.6302,-1.0311 2.2927,-1.7731 -0.073,-2.5905 -2.1049,-0.7273 -3.2233,-1.0438 -3.0561,0.7866 0.1015,1.1026 0.021,2.7025 0.9458,2.7582 z m 160.7928,-1.3529 v -11.3687 h -13.6386 v 11.3687 z m -148.6096,-0.9858 c -0.8627,0 -1.5592,-0.7028 -1.5592,-1.5732 0,-0.8704 0.6965,-1.5732 1.5592,-1.5732 0.8628,0 1.5593,0.7028 1.5594,1.5732 0,0.8705 -0.6966,1.5732 -1.5594,1.5732 z m 255.3055,-1.7724 -43.0251,-55.7148 2.8581,-7.2637 44.3147,58.8148 z m -284.5471,0.2621 -0.095,-7.2808 c 4.8613,-3.5881 35.7287,-26.1553 51.6986,-64.1405 l 8.3598,-3.5911 c -11.7692,32.6914 -36.9391,60.6919 -59.9642,75.0124 z m 327.3025,-3.0835 c -2.801,-0.8593 -5.4752,-2.8243 -8.1186,-3.1777 -3.0391,-0.3733 -4.0875,-0.1781 -3.2641,-1.7619 1.8431,-3.5465 5.3211,-7.2606 8.9918,-8.4741 2.6242,-0.8679 3.8639,-0.5434 3.4512,1.1012 -0.7727,3.0792 -0.9049,5.6063 -0.8004,8.4112 -0.4157,1.5287 0.8789,3.6708 -0.2599,3.9013 z m 3.285,-0.6501 c -1.7858,-1.5405 -1.4315,-11.2761 0.5612,-13.3718 1.0419,-1.0956 4.0644,-0.095 8.5968,2.4961 2.9631,1.6937 3.5161,2.7273 2.0375,3.7651 -2.5062,1.535 -9.8471,7.475 -11.1955,7.1106 z m -307.3853,-0.2096 c -0.9286,0.019 -2.0776,-0.1422 -3.4617,-0.4615 -5.362,-1.2153 -6.5573,-2.4505 -1.9855,-6.1143 1.6901,-1.3544 3.4813,-3.037 4.0021,-3.6812 2.4594,-3.0425 4.1708,-0.8363 4.7091,4.688 0.3768,3.8669 -0.2008,6.0682 -3.264,5.569 z m 6.7152,-0.5245 c -0.8712,0 -1.4297,-0.4587 -1.4138,-1.5521 0.021,-1.397 -0.9732,-7.4391 -1.5281,-9.1033 -0.9663,-2.8299 -0.2655,-3.4688 2.0581,-2.2339 1.6927,0.9206 6.1733,1.6188 8.5971,1.4264 2.7578,-0.2186 2.6784,0.5262 1.871,2.863 -1.4307,4.1414 -6.9708,8.5979 -9.5843,8.5999 z m 294.7656,-2.0136 c 1.0478,0 1.0913,-1.422 0.374,-4.688 -0.2278,-1.0392 -1.1138,-0.9752 -2.7857,0.2097 -1.9782,1.4013 -1.8972,2.2813 0.3327,3.6288 0.9184,0.5551 1.6026,0.848 2.079,0.8494 z m -12.1935,-0.3565 c -0.8629,0 -1.5593,-0.7029 -1.5593,-1.5733 0,-0.8703 0.6964,-1.5731 1.5593,-1.5731 0.8627,0 1.5592,0.7028 1.5592,1.5731 1e-4,0.8704 -0.6965,1.5733 -1.5592,1.5733 z m -277.4786,-6.1144 c -0.7489,-0.7361 -3.515,-0.7055 -3.9916,-0.2622 -0.7308,0.6799 -0.3909,3.8369 0.2183,4.2161 1.5585,0.5351 4.7071,-2.7892 3.7733,-3.9539 z m 258.237,-6.0094 c -0.9407,-4.5013 -7.2152,-4.2527 -6.5072,0.4405 0.4132,2.7401 0.5094,2.6831 -0.8527,2.6219 -6.4787,-0.3202 -5.3557,-10.6235 2.1102,-9.8269 1.5578,-0.1878 1.7653,-0.8313 0.4472,-1.3845 -1.3095,-0.5498 -6.3268,-1.8484 -7.0999,-1.8458 -8.1232,0.028 -19.8417,-12.5721 -19.5533,-23.7545 0.1878,-7.3132 -2.2691,-12.5765 -4.7818,-13.1725 -1.9979,-0.474 -4.8977,1.358 -4.6467,3.5972 0.3465,3.0891 -2.143,2.1248 -3.5758,-0.094 -2.1867,-3.0659 0.6343,-7.4889 5.8419,-7.1422 2.216,-0.4359 -1.628,-1.8553 -4.4769,-2.6857 -2.5844,-0.149 -0.4004,-3.3598 0.08,-3.932 1.4605,-1.7114 6.2465,-0.404 10.0002,2.6535 4.6084,3.7542 6.5874,8.7852 7.1311,18.668 0.3495,6.353 0.819,7.644 2.6508,5.0235 3.2933,-5.8437 11.1778,-2.9842 12.1623,3.1883 0.5516,3.2681 -2.3012,5.6266 -3.2225,2.6639 -2.4442,-6.157 -8.4266,-4.6776 -7.4534,1.4368 0.6421,4.0341 4.6427,6.2597 12.547,8.5055 9.5021,2.6998 12.3272,5.9812 14.179,13.8438 0.8198,3.48 0.6901,5.3013 -1.1331,7.1211 -0.9005,0.8994 -2.0478,1.8143 -2.0478,1.8143 0,0 -1.2683,-5.2896 -1.7985,-7.74 z m -248.5534,4.99 c -0.8627,0 -1.5593,-0.7027 -1.5593,-1.5731 -1e-4,-0.8705 0.6966,-1.5732 1.5593,-1.5732 0.8629,0 1.5593,0.7027 1.5593,1.5732 0,0.8704 -0.6964,1.5731 -1.5593,1.5731 z m 298.2418,-1.495 c -2.8291,-1.0337 -5.2605,-2.5648 -8.1776,-3.5663 -1.8927,-0.6492 -1.3756,-2.1778 0.5852,-4.3483 2.1861,-2.6037 4.3343,-3.8844 7.3643,-5.3354 l -0.032,4.4014 c -3.6831,1.297 -6.0266,4.3925 0.1598,5.3843 z m -305.6041,-2.4564 c -1.0714,-0.011 -2.5888,-0.049 -4.3691,-0.4198 -4.5087,-0.94 -5.037,-1.3445 -2.3286,-4.5412 1.0043,-1.185 2.4983,-2.9721 3.3161,-3.9748 2.6662,-3.7471 4.102,-2.4616 5.3433,2.3806 1.5408,5.056 1.8921,6.9949 -1.9617,6.5552 z m 291.4668,-1.8039 c -0.8627,0 -1.5592,-0.7027 -1.5592,-1.5732 0,-0.8704 0.6965,-1.5731 1.5592,-1.5731 0.8629,0 1.5593,0.7027 1.5593,1.5731 2e-4,0.8705 -0.6964,1.5732 -1.5593,1.5732 z m -286.9219,-3.4255 c -0.4299,-1.5973 -1.0829,-3.6312 -1.5807,-5.0727 -2.4465,-5.4442 -0.8987,-3.339 3.4856,-2.8587 2.9471,0.3228 7.6382,-0.1734 8.7986,0.6484 0.5061,0.6631 0.039,2.4117 -0.906,4.3842 -1.3308,2.7762 -3.7495,5.1429 -5.5541,6.2166 -4.5708,2.1298 -3.5057,-0.578 -4.2434,-3.3178 z m 263.4227,1.9363 -49.145,-65.5556 3.8534,-5.5427 50.5499,67.4034 z m -307.9945,-0.245 c 25.5461,-18.6254 35.3575,-41.2305 37.3497,-44.184 l -37.4535,14.5778 z m 48.7765,-2.1359 c 1.4004,-0.3885 3.4112,-3.009 2.5468,-4.0379 -0.5169,-0.5367 -2.5772,-0.6069 -3.5656,-0.2411 -1.5206,0.5629 -0.4821,4.2867 1.0188,4.279 z m 215.3675,-70.8968 10.4678,-13.3089 54.5433,71.1799 -13.7631,10.0263 z m -261.4202,69.1817 -0.3858,-24.4653 32.0352,-13.4747 c -10.7271,18.2828 -21.2347,29.5856 -31.6494,37.94 z m 219.0466,-2.0746 -12.8306,-16.8531 15.678,0.3596 z m -162.2396,-1.3791 c -0.8627,1e-4 -1.5593,-0.7028 -1.5593,-1.5732 0,-0.8703 0.6966,-1.5731 1.5593,-1.5731 0.8627,0 1.5592,0.7028 1.5592,1.5731 2e-4,0.8704 -0.6965,1.5732 -1.5592,1.5732 z m -9.4028,-3.9871 c -5.8685,-0.081 -7.8262,-0.4019 -6.1205,-3.3114 2.277,-2.84 3.6215,-5.5381 6.1057,-8.1648 1.4335,-1.4722 3.226,1.5638 4.7237,6.4211 1.2097,3.9225 0.5969,4.9107 -1.7007,4.9433 -2.2977,0.032 -2.6884,0.1161 -3.0082,0.1118 z m 6.7777,-5.3067 c -0.4799,-1.5497 -1.6027,-4.0977 -2.495,-5.653 -0.8924,-1.5552 -1.8927,-3.2835 -1.8308,-3.5846 0.1512,-0.7297 0.8354,-0.786 2.3806,-0.1993 3.3439,1.5209 11.2032,-0.087 11.4108,0.6632 1.1676,1.678 -0.5835,6.2542 -3.8836,9.424 -1.6121,1.5482 -3.088,2.5552 -3.9411,2.5703 -0.8531,0.015 -1.008,-1.1763 -1.6409,-3.2206 z m 274.1321,1.2045 -55.4993,-72.7164 3.8408,-4.7159 56.1225,74.1199 c 0,0 8.8626,-4.3795 11.4689,-5.8409 l -0.3517,-37.6098 1.5176,0.073 -0.2269,-190.49435 -30.969,31.155 0.403,129.25635 c -6.5712,-6.2367 -12.1942,-12.8889 -19.7149,-19.0017 l -12.8794,0.1023 c -33.6223,34.5012 -52.037,64.0283 -56.0788,116.903 -2.7036,35.3731 8.9457,79.8547 39.8414,122.963 l 7.5447,-4.6224 -14.9068,-22.6639 31.5762,-14.1181 c 12.576,-26.7492 27.4849,-51.4365 54.7538,-65.5744 l 0.1533,-34.6214 0.4765,-0.7157 -0.3604,-10.8707 z m -271.3498,-2.4832 c 1.4736,-0.1115 3.7792,-3.3186 2.7236,-4.4153 -1.2442,-0.5954 -3.1628,-0.5534 -3.9653,0.5209 -0.5491,1.052 -0.4094,3.2792 1.2417,3.8944 z m 165.5608,-7.4891 -16.2995,-0.094 4.2618,-14.106 15.8736,0.3031 z m -154.831,0.062 c -0.8627,10e-5 -1.5592,-0.7028 -1.5592,-1.5731 -1e-4,-0.8704 0.6965,-1.5732 1.5592,-1.5732 0.8627,-10e-5 1.5593,0.7028 1.5593,1.5732 0,0.8703 -0.6966,1.5732 -1.5593,1.5731 z m 83.0381,-0.4296 -2.1069,-18.3191 c 17.7779,-6.5215 36.9462,-17.5852 53.7114,-37.9278 2.8646,0.1897 25.725,-0.1993 25.725,-0.1993 -0.5719,-0.082 -21.1821,39.1539 -23.5552,56.1839 z m 64.5548,-1.7065 7.4742,-5.1809 -5.8423,-6.2821 -7.734,5.2858 z m -155.5541,-0.076 c -1.5892,0.01 -3.72,-0.1878 -5.4272,-0.4925 -2.7552,-0.5387 -3.1607,-0.5913 -2.2323,-2.8855 1.2397,-3.0436 4.0341,-8.5314 4.74,-8.9687 2.5253,-1.5783 8.1346,9.7427 6.2219,11.7001 -0.5062,0.4012 -1.5789,0.6381 -3.3024,0.6466 z m 7.1469,-3.4814 c -0.7223,0.063 -1.685,-1.3523 -1.9698,-2.5733 -0.3459,-1.4822 -2.8902,-5.2187 -4.4936,-7.0099 -2.0162,-2.2523 -1.9106,-2.5675 0.9771,-2.8003 3.4392,-0.2767 6.7984,-0.9592 8.7346,-1.669 3.0016,-1.1003 3.4097,-0.8573 3.025,2.6834 -0.5791,5.3288 -4.1072,11.1797 -6.2733,11.3691 z m 2.6349,-11.0231 c -0.3752,-1.0316 -5.0309,0.8631 -5.2898,2.1015 0.043,0.5554 1.8704,3.7693 2.9701,3.9154 1.8627,-0.2938 2.6431,-4.5565 2.3197,-6.0169 z m 157.2791,0.7237 -15.4057,-0.1468 5.0521,-12.8054 15.2289,0.042 z m -6.8967,-1.7164 7.3807,-4.7089 -5.7486,-5.6109 -7.0687,4.9187 z m -156.6612,-2.3214 c -1.3079,0.013 -2.6924,-0.1141 -2.9832,-0.5978 -0.818,-1.3594 2.5153,-8.9582 2.5153,-8.9582 l 5.43,-2.1719 c 1.1677,2.4243 3.1641,4.9438 3.6481,7.5705 0.1921,1.1478 -0.3829,1.5669 -1.64,2.2786 -1.8735,1.0608 -4.7898,1.8575 -6.9702,1.8788 z m 14.5451,-0.6209 c -0.8626,10e-5 -1.5593,-0.7027 -1.5593,-1.5731 0,-0.8704 0.6967,-1.5731 1.5593,-1.5731 0.8627,-10e-5 1.5593,0.7027 1.5593,1.5731 0,0.8704 -0.6966,1.5731 -1.5593,1.5731 z m 70.2523,-0.2186 c 0,0 -3.3294,-18.9758 -3.5095,-16.885 25.6926,-9.7617 40.7195,-24.1674 47.8401,-38.2206 l 48.2033,0.035 -10.7588,16.8431 -28.5365,0.1454 c -13.7933,16.8865 -30.8096,30.3547 -53.2386,38.0817 z m 6.1711,-4.4673 2.3803,-7.6664 -7.2039,-4.6356 -2.713,8.2328 z m -78.9616,-0.1483 c -0.6111,0.057 -1.2152,-0.9809 -2.4534,-3.1988 -0.915,-1.6392 -2.1196,-4.0214 -2.1196,-4.0214 l 2.1559,-0.8093 c 1.7377,5.9934 3.3327,3.7649 3.519,-1.5248 l 2.9538,-1.1874 c 0,0 -0.3208,5.0991 -2.008,8.0778 -0.9697,1.7119 -1.5086,2.6136 -2.0477,2.6639 z m 157.1227,-5.2423 -14.9379,-0.1887 6.2477,-13.0572 15.1873,0.4195 z m -65.1569,-1.0489 1.185,-9.6905 -8.0457,-1.7201 -1.102,9.2082 z m 58.8056,-0.1154 7.3807,-4.8138 -4.8443,-6.429 -7.1001,4.8138 z m -47.267,-8.4846 1.5281,-8.9249 -7.5468,-1.7306 -1.7152,8.9775 z m 164.0151,-0.5243 -18.8873,-18.8879 -1.0404,-131.77815 18.7828,-19.0043 z m -102.7625,-4.8243 c 0.066,-0.1055 -15.067,-0.4369 -15.067,-0.4369 l 6.0574,-11.0296 5.1735,0.2342 -6.809,4.6879 4.3661,5.6319 6.9958,-4.6041 -3.8981,-5.6948 10.2189,0.2202 z m -97.4321,-3.2629 -5.1291,-17.0982 6.1661,-1.0805 4.6325,16.0872 c -1.8898,0.9868 -3.7795,1.474 -5.6695,2.0915 z m 48.4563,-1.0686 -0.1036,-10.257 -8.2332,-0.7026 -0.3223,9.6173 z m -40.9265,-1.6372 -4.6919,-16.2446 3.9133,-1.1239 5.606,15.4206 c -1.5339,0.9153 -3.1369,1.586 -4.8274,1.9479 z m 7.1434,-3.3525 -6.0294,-15.9052 c 8.3298,-3.4072 16.9669,-10.7006 23.4689,-17.9805 4.8198,3.5731 7.6558,3.9475 10.6291,4.7556 -8.2001,15.4128 -17.8845,23.5044 -28.0686,29.1301 z m 91.0058,-3.9877 -15.8423,-0.4825 11.0191,-16.602 17.9211,0.022 z m -47.1603,-0.6187 1.0293,-9.7116 -8.4827,-5.0551 -1.2889,9.9738 z m 10.2184,-1.3635 6.0295,-6.429 -6.4035,-7.3728 -5.8734,7.6981 z m 13.4828,-0.3356 7.1622,-6.6282 -5.6967,-7.4987 -6.549,7.5406 z m 91.2531,-6.1829 -0.7015,-128.73715 26.316,-25.7306 0.1964,6.9247 -20.9209,22.0404 c -0.024,43.5457 0.1145,87.09095 0.2583,130.63635 z m -70.0158,4.159 7.2662,-9.9948 -8.6177,-0.022 -6.2475,9.6801 z m 44.8134,-62.29705 c 2.8656,-10.4017 16.0751,-21.6837 16.3113,-21.4931 -6.5401,-9.4562 -6.3196,-22.9391 -0.5519,-29.5819 -0.028,0.1491 -10.514,-8.6325 -11.9857,-13.1935 -0.8301,-1.8162 -1.1632,-4.028 -2.2144,-5.8311 -0.278,-0.4772 -1.1648,-1.6638 -1.1648,-1.6638 -25.6153,26.206 -13.4173,56.9175 -0.3945,71.7634 z m -0.384,-2.7189 c -24.8715,-31.1317 -8.4744,-59.6266 0.203,-67.5754 l 1.6572,2.7616 c -18.4817,21.67 -10.6488,48.2913 0.1187,60.8951 z m 2.6918,-6.0593 c -0.1662,-0.5054 -1.134,-1.9719 -0.4157,-1.8772 l 1.2475,0.2516 z m 0.1879,-3.4714 c -0.5402,10e-5 -0.9921,-0.1699 -1.237,-0.5454 -0.5066,-0.85 2.0637,-8.0079 3.6519,-6.3396 0.4786,0.9449 1.0425,1.7647 1.483,2.7437 0.5177,1.168 0.177,1.7316 -1.008,2.8932 -0.8172,0.8008 -1.9891,1.247 -2.8899,1.2481 z m -3.5757,-1.9402 c -1.2578,-0.098 -3.046,-4.0906 -3.2123,-6.9429 -0.078,-0.2958 4.2457,0.6708 5.3952,2.0032 -0.1382,1.1687 -1.2235,4.1401 -2.1829,4.9397 z m 9.7287,-3.2581 c -7.4882,-15.1906 -7.0196,-27.0553 -0.4259,-37.9641 l 5.165,4.4574 c -3.4734,8.295 -5.1922,17.1506 0.6558,28.4238 z m -5.051,-3.8002 c -0.5184,0.046 -2.1179,-0.1934 -3.5343,-0.6502 -5.0118,-1.616 -5.1989,-4.9244 -0.3742,-7.3518 1.9984,-1.0054 2.6215,-0.5605 3.7733,4.4991 0.5697,2.5022 0.9994,3.4269 0.1361,3.5029 z m -9.6778,-5.8206 c -0.9663,0 -1.4106,-1.8373 -1.5281,-5.0131 -0.1124,-3.0163 0.5235,-3.2532 2.9313,-1.1012 2.6032,2.3262 3.0511,2.8787 0.6654,4.7929 -0.6987,0.5603 -1.6296,1.3193 -2.0686,1.3214 z m 6.8296,-4.9816 c -0.4761,0.042 -1.86,-0.8485 -3.2122,-1.8878 -3.4265,-2.6339 -2.6665,-4.4414 1.2266,-5.7158 2.6971,-0.8826 2.5636,-0.994 2.4948,3.7126 -0.034,2.3273 0.1039,3.8373 -0.5092,3.891 z m -45.3648,-4.2852 c 4.1824,-1.0708 5.939,-4.835 4.5512,-8.2234 -0.6304,-1.5394 -1.5894,-1.5522 -0.465,-2.494 1.2559,-1.4618 1.9228,-4.8466 0.5415,-6.0788 -1.63,-0.9424 -2.0489,0.6824 -0.3323,-2.4992 l 31.507,-58.3884 -189.1205,0.3539 22.7299,42.9506 c -0.051,0.061 -1.8175,7.0864 1.8187,7.9331 1.1682,0.272 1.8363,1.3664 2.0731,2.4147 -0.2961,2.9881 1.0488,4.2594 2.1815,5.8026 17.9782,-2.5617 33.5941,-1.2856 46.4943,1.6419 18.5821,4.217 31.8633,11.5176 40.4991,13.8109 11.9093,3.1626 26.282,4.5369 37.5215,2.7761 z m -10.1872,-0.4029 c -14.6537,0.088 -31.0566,-4.4365 -42.537,-9.4492 -11.9108,-4.9633 -24.5289,-8.6622 -37.2771,-10.561 -10.5217,-1.3354 -21.0163,-0.6645 -31.0784,0.1411 -1.1002,0.1664 -2.2399,0.015 -3.0592,-0.8647 -2.0851,-2.3381 -0.6651,-3.8025 4.5529,-4.2895 8.3781,-0.6978 18.7679,-0.3991 27.9837,0.9963 14.5935,1.6918 30.0632,6.1433 43.4106,11.7252 16.6805,6.3147 32.0006,8.4285 44.1066,6.5653 6.6481,-1.0231 7.6253,-1.1835 7.5991,0.6188 -0.052,3.5151 -2.9343,5.1205 -13.7012,5.1179 z m 48.0159,-10.1924 c 0.6432,-1.4889 5.201,3.3853 5.1549,4.7604 -0.098,0.6061 -3.7858,3.035 -5.2499,4.0222 -0.7079,0.5482 -0.662,0.2631 -0.671,-0.3806 -0.026,-1.8369 0.1187,-6.5813 0.766,-8.402 z m 7.0162,3.5957 c -2.1028,-0.2853 -5.5608,-6.0135 -2.5154,-6.9009 2.696,-0.7856 5.1485,-1.2911 5.4772,0.5338 -1.3884,4.4808 -1.9104,6.2541 -2.7123,6.3567 -0.082,0.011 -0.1683,0.011 -0.2495,0.011 z m -122.296,-19.5618 c -13.4241,-2.3421 -31.0439,-3.7441 -42.5611,-2.836 -6.6023,0.6701 -7.9928,0.4554 -7.9522,-2.3216 0.026,-1.7398 -0.1642,-1.6971 8.3578,-1.6886 7.0811,-0.4763 13.4568,0.29 20.3121,0.6472 14.1842,0.7109 27.0708,3.1626 38.9819,7.334 13.2124,3.4574 24.6598,10.1019 37.5889,11.4734 11.8576,1.1731 22.5234,-0.9448 24.7603,-2.1981 0.7464,0.011 1.1366,1.1265 1.0925,2.1562 -0.043,1.0071 -0.4153,1.8149 -1.2486,2.4574 -33.9862,8.6498 -52.1823,-9.8767 -79.3316,-15.0239 z m 117.8573,11.4549 c -1.1324,-0.013 -0.7725,-1.7032 1.0811,-5.2859 1.5759,-3.0455 2.1965,-3.0298 3.0873,0.094 0.952,3.3374 0.8604,3.7064 -1.029,4.1951 -1.1124,0.2695 -2.0528,0.8559 -3.1394,0.9963 z m 7.9315,-1.699 c -1.3277,-0.019 -3.2123,-6.0851 -2.2454,-7.226 0.7644,-0.9018 3.5286,-0.2899 4.3344,0.7754 1.296,1.7138 -0.3619,6.4758 -2.089,6.4506 z m -59.4159,-1.6391 c -5.2717,0.053 -10.5262,-0.5152 -15.3562,-1.3531 2.7811,-1.0369 5.549,-1.9941 8.437,-3.6776 1.9942,1.7295 4.2601,3.4131 6.9192,5.0307 z m -6.8503,-7.3612 c -18.6311,10.4801 -26.4969,-3.9887 -29.1892,-6.3217 -16.2881,3.637 -19.4771,1.8452 -28.5643,-8.0592 -16.3096,8.0455 -24.2166,1.2059 -31.0242,-3.1207 -7.9872,7.5298 -18.1132,7.7374 -23.3909,3.9583 -0.9883,-1.6658 -2.3594,-3.7798 -2.4717,-4.4106 -0.089,-0.4912 0.6582,0.081 2.4943,1.4061 9.5786,6.9147 25.4742,-1.6963 21.227,-10.8128 -1.1437,-2.456 -0.9618,-3.514 0.7482,-4.4992 2.4295,-1.6582 5.4139,1.0931 3.7214,3.9014 -2.8255,4.6888 -0.6983,8.6136 6.1749,12.2391 9.6872,5.1098 25.5125,-0.6144 22.256,-8.1489 -2.084,-2.4062 -0.1511,-4.1031 2.5989,-4.0167 3.1137,0.097 4.1694,2.1997 2.1725,4.4467 -2.4914,2.8695 -1.8369,5.778 1.0651,9.0916 8.698,12.5003 26.2979,7.544 23.9671,-3.4093 -1.0221,-2.7219 1.8862,-3.8194 4.9059,-2.6094 1.9217,0.7695 1.6343,3.7666 -0.4676,4.8243 -2.4198,0.247 -2.763,3.7819 -2.4741,6.0515 0.42,3.3015 5.2475,6.5562 10.0215,8.2815 3.4555,1.249 6.6654,1.517 9.199,1.2832 5.3486,-0.4935 8.334,-4.1575 7.4534,-9.6486 -0.5195,-3.2398 0.3787,-6.5979 4.1476,-4.8169 2.0625,0.9747 1.5445,3.3289 -0.5612,5.4985 -7.4052,7.296 7.5055,16.1742 16.5073,10.0577 1.5261,-1.2656 2.6398,-1.4859 2.6398,-1.4859 -5.6453,14.1781 -23.3211,0.9 -23.1567,0.32 z m -24.5371,1.9096 -11.2497,-4.2741 c 2.5945,-0.5167 4.4215,-1.2546 6.2593,-1.9894 z m 29.3813,-4.61 c 10.382,1.9846 10.9472,-9.7193 4.1812,-11.6288 9.3076,-12.9015 -15.0664,-17.9091 -10.5949,-1.9896 -12.3504,-2.2446 -10.1163,11.9346 -0.9323,11.8046 -2.1482,5.2827 -19.1016,1.2795 -18.371,-2.6454 11.4619,-1.2263 6.8814,-11.7611 1.9226,-11.7729 11.9857,-11.4478 -11.9986,-22.0013 -11.3615,-4.7443 -9.6224,-2.0407 -10.7545,10.8458 -1.505,11.6936 -3.3877,4.8083 -15.4856,1.7768 -18.8408,-3.7223 9.5487,-1.2777 8.9518,-9.739 1.4796,-11.1057 9.4701,-12.1656 -13.8376,-16.662 -11.4152,-2.5192 -8.3516,-2.897 -12.9357,8.3449 -2.1149,11.5586 -11.0842,6.6613 -23.12,-3.2684 -21.8163,-3.4707 12.649,0.7547 10.131,-12.0326 0.9774,-11.3386 5.8235,-13.2785 -17.254,-14.0175 -11.4011,-0.2462 -10.3797,-0.1921 -9.4693,11.9425 0.4748,12.7532 -6.2618,4.6059 -13.3226,5.0097 -17.8654,0.7004 9.4644,-2.5117 5.532,-13.6098 -3.9888,-10.5374 -0.8808,-9.2865 -8.3651,-7.3165 -8.5319,-7.0361 l -6.6962,-12.6052 181.4599,-0.2934 -15.4876,28.8378 c -9.1544,-0.4734 -8.8275,8.4167 -8.4258,8.6348 -6.0872,-4.3847 -12.634,6.5139 -3.7275,9.638 -7.2753,7.681 -18.0647,0.5867 -17.4193,0.035 z m 59.0727,0.8039 c 0.3791,-0.3911 0.477,-0.625 1.102,-0.042 1.5819,1.8263 -2.7209,1.9793 -1.102,0.042 z m -37.522,-4.8303 c -0.7995,-0.6603 -0.2498,-2.4679 0.3993,-3.0861 1.6354,-1.7669 2.1872,-1.6263 0.7476,1.4243 -0.4243,0.9233 -0.8268,1.672 -1.1469,1.6618 z m -79.5004,-0.8177 -9.4346,-2.3014 4.48,-2.5488 c 1.6546,1.8133 3.2481,3.3797 4.9546,4.8502 z m -29.4871,-3.8329 -10.2601,-0.6607 c 1.3558,-0.9308 2.6861,-1.7965 4.3453,-3.4925 1.2914,1.3844 3.7384,2.7688 5.9148,4.1532 z m -34.1831,-10.5565 c -0.5706,-1.2005 -2.8357,-5.3761 -2.6225,-5.4853 3.3187,-0.5833 4.2074,4.3986 2.6225,5.4853 z"
       id="path6357-5-7"
       style="fill:#100f08"
       inkscape:connector-curvature="0" />
    <path
       d="m 7202.5085,1405.9658 h -7.1886 l 10.5601,26.5855 8.0684,-11.23 -0.056,-15.3555 h -5.6659 v -7.9191 h 19.9679 v 7.9191 h -6.579 v 57.1733 l 6.579,-0.026 v 6.922 h -20.2601 v -7.1564 h 5.5907 l 0.1196,-27.8653 -17.6848,28.0997 h 6.2421 v 6.922 h -21.5548 v -6.922 h 5.6878 l 14.5612,-22.963 -14.2576,-34.1959 h -6.3284 l -0.032,-7.9191 h 22.1645 l 0.068,7.9305 z m 0,0"
       id="path4686"
       style="fill:#d40000;fill-opacity:1;stroke-width:1;stroke-miterlimit:4;stroke-dasharray:none"
       inkscape:connector-curvature="0" />
    <path
       d="m 7204.1252,1339.5348 c 4.9006,8.0293 10.0568,15.8335 16.5,22.5 -6.4432,6.6664 -11.5994,14.4705 -16.5,22.5 -4.9008,-8.0295 -10.0567,-15.8336 -16.5,-22.5 6.4433,-6.6665 11.5992,-14.4707 16.5,-22.5 z"
       id="path4800-1"
       style="display:inline;fill:#d40000"
       inkscape:connector-curvature="0" />
    <path
       d="m 7616.4758,919.10378 h 7.1884 l -10.5601,-26.58544 -8.0685,11.23024 0.057,15.3552 h 5.6658 v 7.91912 h -19.9675 v -7.91912 h 6.5787 v -57.17322 l -6.5787,0.0263 v -6.92204 h 20.2599 v 7.15637 h -5.5906 l -0.1196,27.8653 17.6849,-28.09963 h -6.2421 v -6.92204 h 21.5548 v 6.92204 h -5.6878 l -14.5612,22.96298 14.2577,34.19586 h 6.3281 l 0.032,7.91912 h -22.1645 l -0.068,-7.93048 z m 0,0"
       id="path4886-4"
       style="fill:#d40000;fill-opacity:1"
       inkscape:connector-curvature="0" />
    <path
       d="m 7615.1252,940.53465 c 4.9006,8.0294 10.0568,15.8335 16.5,22.5001 -6.4432,6.6663 -11.5994,14.4704 -16.5,22.5 -4.9008,-8.0296 -10.0567,-15.8337 -16.5,-22.5 6.4433,-6.6666 11.5992,-14.4707 16.5,-22.5001 z"
       id="path5011"
       style="display:inline;fill:#d40000"
       inkscape:connector-curvature="0" />
  </g>
</svg>
