<?xml version="1.0" encoding="UTF-8" standalone="no"?>
<!-- Created with Inkscape (http://www.inkscape.org/) -->

<svg
   id="svg10047"
   height="123.01011"
   width="78.999939"
   version="1.1"
   viewBox="0 0 78.999939 123.01011"
   inkscape:version="0.91 r13725"
   sodipodi:docname="ramino-stretch.svgz"
   xmlns:inkscape="http://www.inkscape.org/namespaces/inkscape"
   xmlns:sodipodi="http://sodipodi.sourceforge.net/DTD/sodipodi-0.dtd"
   xmlns="http://www.w3.org/2000/svg"
   xmlns:svg="http://www.w3.org/2000/svg"
   xmlns:rdf="http://www.w3.org/1999/02/22-rdf-syntax-ns#"
   xmlns:cc="http://creativecommons.org/ns#"
   xmlns:dc="http://purl.org/dc/elements/1.1/">
  <sodipodi:namedview
     pagecolor="#ffffff"
     bordercolor="#666666"
     borderopacity="1"
     objecttolerance="10"
     gridtolerance="10"
     guidetolerance="10"
     inkscape:pageopacity="0"
     inkscape:pageshadow="2"
     inkscape:window-width="1920"
     inkscape:window-height="1016"
     id="namedview1491"
     showgrid="false"
     inkscape:zoom="1.3479675"
     inkscape:cx="513.5"
     inkscape:cy="307.5"
     inkscape:window-x="0"
     inkscape:window-y="0"
     inkscape:window-maximized="1"
     inkscape:current-layer="svg10047"
     showguides="false"
     inkscape:guide-bbox="true"
     inkscape:snap-grids="true"
     inkscape:showpageshadow="2"
     inkscape:pagecheckerboard="0"
     inkscape:deskcolor="#d1d1d1" />
  <metadata
     id="metadata16869">
    <rdf:RDF>
      <cc:Work
         rdf:about="">
        <dc:format>image/svg+xml</dc:format>
        <dc:type
           rdf:resource="http://purl.org/dc/dcmitype/StillImage" />
        <dc:title />
      </cc:Work>
    </rdf:RDF>
  </metadata>
  <defs
     id="defs10049" />
  <g
     id="heart_3"
     transform="matrix(0.16458147,0,0,0.18223729,-192.4986,-13.673775)"
     inkscape:label="#heart_3">
    <rect
       width="478.66342"
       height="673.65802"
       rx="22.895662"
       ry="23.039309"
       x="-1648.9592"
       y="-749.36163"
       id="rect5464"
       style="display:inline;fill:#ffffff;fill-opacity:1;stroke:#000000;stroke-width:1.34162;stroke-miterlimit:4;stroke-dasharray:none;stroke-opacity:1"
       transform="scale(-1)" />
    <path
       inkscape:connector-curvature="0"
       style="display:inline;fill:#d40000;stroke:none"
       id="path5466"
       d="m 1409.6272,249.03496 c 0,0 10.0112,-16.74633 23.5158,-36.43557 9.0345,-13.17588 16.2573,-27.4429 16.9287,-39.73176 0.7702,-14.03786 -6.5203,-28.12114 -19.7194,-28.80371 -13.1912,-0.68217 -18.5455,10.82381 -20.7251,20.31009 -2.1797,-9.48628 -7.5339,-20.99226 -20.7251,-20.31009 -13.1991,0.68257 -20.4896,14.76585 -19.7194,28.80371 0.6713,12.28886 7.8941,26.55588 16.9286,39.73176 13.5045,19.68924 23.5159,36.43557 23.5159,36.43557 z" />
    <path
       d="m 1409.6272,576.03501 c 0,0 -10.0112,16.7463 -23.5158,36.4356 -9.0345,13.1759 -16.2573,27.4429 -16.9287,39.7317 -0.7702,14.0379 6.5203,28.1212 19.7194,28.8037 13.1912,0.6822 18.5455,-10.8238 20.7251,-20.31 2.1797,9.4862 7.5339,20.9922 20.7251,20.31 13.1991,-0.6825 20.4896,-14.7658 19.7194,-28.8037 -0.6713,-12.2888 -7.8941,-26.5558 -16.9286,-39.7317 -13.5045,-19.6893 -23.5159,-36.4356 -23.5159,-36.4356 z"
       id="path5472"
       style="display:inline;fill:#d40000;stroke:none"
       inkscape:connector-curvature="0" />
    <path
       inkscape:connector-curvature="0"
       style="display:inline;fill:#d40000;stroke:none"
       id="path5478"
       d="m 1204.1274,235.53497 c 0,0 4.264,-7.177 10.016,-15.61525 3.848,-5.6468 6.9244,-11.76124 7.2103,-17.0279 0.3281,-6.01622 -2.7771,-12.05191 -8.3989,-12.34444 -5.6185,-0.29236 -7.8991,4.63878 -8.8274,8.70432 -0.9284,-4.06554 -3.2089,-8.99668 -8.8274,-8.70432 -5.6219,0.29253 -8.7271,6.32822 -8.399,12.34444 0.2859,5.26666 3.3623,11.3811 7.2103,17.0279 5.752,8.43825 10.0161,15.61525 10.0161,15.61525 z" />
    <path
       inkscape:connector-curvature="0"
       style="display:inline;fill:#d40000;stroke:none"
       id="path5484"
       d="m 1615.1272,589.53018 c 0,0 -4.264,7.177 -10.016,15.61525 -3.848,5.6468 -6.9244,11.76124 -7.2103,17.0279 -0.3281,6.01622 2.7771,12.05191 8.3989,12.34444 5.6185,0.29236 7.8991,-4.63878 8.8274,-8.70432 0.9284,4.06554 3.2089,8.99668 8.8274,8.70432 5.6219,-0.29253 8.7271,-6.32822 8.399,-12.34444 -0.2859,-5.26666 -3.3623,-11.3811 -7.2103,-17.0279 -5.752,-8.43825 -10.0161,-15.61525 -10.0161,-15.61525 z" />
    <path
       d="m 1409.6272,465.03469 c 0,0 10.0112,-16.74633 23.5158,-36.43557 9.0345,-13.17588 16.2573,-27.4429 16.9287,-39.73176 0.7702,-14.03786 -6.5203,-28.12114 -19.7194,-28.80371 -13.1912,-0.68217 -18.5455,10.82381 -20.7251,20.31009 -2.1797,-9.48628 -7.5339,-20.99226 -20.7251,-20.31009 -13.1991,0.68257 -20.4896,14.76585 -19.7194,28.80371 0.6713,12.28886 7.8941,26.55588 16.9286,39.73176 13.5045,19.68924 23.5159,36.43557 23.5159,36.43557 z"
       id="path5490"
       style="display:inline;fill:#d40000;stroke:none"
       inkscape:connector-curvature="0" />
    <path
       d="m 1180.9844,161.25208 5.5015,-4.07673 c 4.7746,7.83361 10.1143,12.99295 18.2828,12.10735 12.2556,-0.84851 17.3337,-13.7928 14.7697,-23.54619 -2.4806,-8.75061 -12.6287,-13.01301 -20.697,-8.34785 -1.9042,1.10575 -3.7416,2.00836 -4.1009,2.00836 -0.8462,0 -2.7617,-3.83956 -2.5,-5.01076 5.4149,-7.968 18.5642,-21.92661 18.5642,-21.92661 h -20.5438 v 9.34777 h -7.8844 v -16.77273 h 40.1519 v 5.69085 c 0,0 -10.7578,11.24181 -14.3129,17.39825 8.7559,0.32291 15.8135,5.91382 18.3471,14.75302 1.4784,4.65382 0.8158,15.29847 -1.1193,19.88661 -3.2322,7.64772 -12.0607,13.85303 -20.1315,14.20997 -13.5502,0.91701 -20.7387,-8.64764 -24.3274,-15.72131 z m 0,0"
       id="path17-2-9-8-4"
       style="fill:#d40000;fill-opacity:1;stroke-width:1;stroke-miterlimit:4;stroke-dasharray:none"
       inkscape:connector-curvature="0" />
    <path
       d="m 1638.4924,663.81729 -5.5015,4.07673 c -4.7746,-7.83361 -10.1143,-12.99295 -18.2828,-12.10735 -12.2556,0.84851 -17.3337,13.7928 -14.7697,23.54619 2.4806,8.75061 12.6287,13.01301 20.697,8.34785 1.9042,-1.10575 3.7416,-2.00836 4.1009,-2.00836 0.8462,0 2.7617,3.83956 2.5,5.01076 -5.4149,7.968 -18.5642,21.92661 -18.5642,21.92661 h 20.5438 v -9.34777 h 7.8844 v 16.77273 h -40.1519 v -5.69085 c 0,0 10.7578,-11.24181 14.3129,-17.39825 -8.7559,-0.32291 -15.8135,-5.91382 -18.3471,-14.75302 -1.4784,-4.65382 -0.8158,-15.29847 1.1193,-19.88661 3.2322,-7.64772 12.0607,-13.85303 20.1315,-14.20997 13.5502,-0.91701 20.7387,8.64764 24.3274,15.72131 z m 0,0"
       id="path17-2-9-8-4-3"
       style="fill:#d40000;fill-opacity:1;stroke-width:1;stroke-miterlimit:4;stroke-dasharray:none"
       inkscape:connector-curvature="0" />
    <path
       inkscape:connector-curvature="0"
       style="fill:#d40000;fill-opacity:1;stroke-width:1;stroke-miterlimit:4;stroke-dasharray:none"
       id="path4648"
       d="m 1227.4924,663.81729 -5.5015,4.07673 c -4.7746,-7.83361 -10.1143,-12.99295 -18.2828,-12.10735 -12.2556,0.84851 -17.3337,13.7928 -14.7697,23.54619 2.4806,8.75061 12.6287,13.01301 20.697,8.34785 1.9042,-1.10575 3.7416,-2.00836 4.1009,-2.00836 0.8462,0 2.7617,3.83956 2.5,5.01076 -5.4149,7.968 -18.5642,21.92661 -18.5642,21.92661 h 20.5438 v -9.34777 h 7.8844 v 16.77273 h -40.1519 v -5.69085 c 0,0 10.7578,-11.24181 14.3129,-17.39825 -8.7559,-0.32291 -15.8135,-5.91382 -18.3471,-14.75302 -1.4784,-4.65382 -0.8158,-15.29847 1.1193,-19.88661 3.2322,-7.64772 12.0607,-13.85303 20.1315,-14.20997 13.5502,-0.91701 20.7387,8.64764 24.3274,15.72131 z m 0,0" />
    <path
       d="m 1204.1249,589.53018 c 0,0 -4.264,7.177 -10.016,15.61525 -3.848,5.6468 -6.9244,11.76124 -7.2103,17.0279 -0.3281,6.01622 2.7771,12.05191 8.3989,12.34444 5.6185,0.29236 7.8991,-4.63878 8.8274,-8.70432 0.9284,4.06554 3.2089,8.99668 8.8274,8.70432 5.6219,-0.29253 8.7271,-6.32822 8.399,-12.34444 -0.2859,-5.26666 -3.3623,-11.3811 -7.2103,-17.0279 -5.752,-8.43825 -10.0161,-15.61525 -10.0161,-15.61525 z"
       id="path4766"
       style="display:inline;fill:#d40000;stroke:none"
       inkscape:connector-curvature="0" />
    <path
       inkscape:connector-curvature="0"
       style="fill:#d40000;fill-opacity:1;stroke-width:1;stroke-miterlimit:4;stroke-dasharray:none"
       id="path4850"
       d="m 1592.1084,161.25208 5.5015,-4.07673 c 4.7746,7.83361 10.1143,12.99295 18.2828,12.10735 12.2556,-0.84851 17.3337,-13.7928 14.7697,-23.54619 -2.4806,-8.75061 -12.6287,-13.01301 -20.697,-8.34785 -1.9042,1.10575 -3.7416,2.00836 -4.1009,2.00836 -0.8462,0 -2.7617,-3.83956 -2.5,-5.01076 5.4149,-7.968 18.5642,-21.92661 18.5642,-21.92661 h -20.5438 v 9.34777 h -7.8844 v -16.77273 h 40.1519 v 5.69085 c 0,0 -10.7578,11.24181 -14.3129,17.39825 8.7559,0.32291 15.8135,5.91382 18.3471,14.75302 1.4784,4.65382 0.8158,15.29847 -1.1193,19.88661 -3.2322,7.64772 -12.0607,13.85303 -20.1315,14.20997 -13.5502,0.91701 -20.7387,-8.64764 -24.3274,-15.72131 z m 0,0" />
    <path
       d="m 1615.1272,235.53497 c 0,0 4.264,-7.177 10.016,-15.61525 3.848,-5.6468 6.9244,-11.76124 7.2103,-17.0279 0.3281,-6.01622 -2.7771,-12.05191 -8.3989,-12.34444 -5.6185,-0.29236 -7.8991,4.63878 -8.8274,8.70432 -0.9284,-4.06554 -3.2089,-8.99668 -8.8274,-8.70432 -5.6219,0.29253 -8.7271,6.32822 -8.399,12.34444 0.2859,5.26666 3.3623,11.3811 7.2103,17.0279 5.752,8.43825 10.0161,15.61525 10.0161,15.61525 z"
       id="path4960"
       style="display:inline;fill:#d40000;stroke:none"
       inkscape:connector-curvature="0" />
    <rect
       transform="scale(-1)"
       style="display:inline;fill:#ffffff;fill-opacity:1;stroke:#000000;stroke-width:1.34162;stroke-miterlimit:4;stroke-dasharray:none;stroke-opacity:1"
       id="rect4916"
       y="-749.36163"
       x="-1648.9592"
       ry="23.039309"
       rx="22.895662"
       height="673.65802"
       width="478.66342" />
    <path
       d="m 1409.6272,249.03496 c 0,0 10.0112,-16.74633 23.5158,-36.43557 9.0345,-13.17588 16.2573,-27.4429 16.9287,-39.73176 0.7702,-14.03786 -6.5203,-28.12114 -19.7194,-28.80371 -13.1912,-0.68217 -18.5455,10.82381 -20.7251,20.31009 -2.1797,-9.48628 -7.5339,-20.99226 -20.7251,-20.31009 -13.1991,0.68257 -20.4896,14.76585 -19.7194,28.80371 0.6713,12.28886 7.8941,26.55588 16.9286,39.73176 13.5045,19.68924 23.5159,36.43557 23.5159,36.43557 z"
       id="path4919"
       style="display:inline;fill:#d40000;stroke:none"
       inkscape:connector-curvature="0" />
    <path
       inkscape:connector-curvature="0"
       style="display:inline;fill:#d40000;stroke:none"
       id="path4921"
       d="m 1409.6272,576.03501 c 0,0 -10.0112,16.7463 -23.5158,36.4356 -9.0345,13.1759 -16.2573,27.4429 -16.9287,39.7317 -0.7702,14.0379 6.5203,28.1212 19.7194,28.8037 13.1912,0.6822 18.5455,-10.8238 20.7251,-20.31 2.1797,9.4862 7.5339,20.9922 20.7251,20.31 13.1991,-0.6825 20.4896,-14.7658 19.7194,-28.8037 -0.6713,-12.2888 -7.8941,-26.5558 -16.9286,-39.7317 -13.5045,-19.6893 -23.5159,-36.4356 -23.5159,-36.4356 z" />
    <path
       d="m 1204.1274,235.53497 c 0,0 4.264,-7.177 10.016,-15.61525 3.848,-5.6468 6.9244,-11.76124 7.2103,-17.0279 0.3281,-6.01622 -2.7771,-12.05191 -8.3989,-12.34444 -5.6185,-0.29236 -7.8991,4.63878 -8.8274,8.70432 -0.9284,-4.06554 -3.2089,-8.99668 -8.8274,-8.70432 -5.6219,0.29253 -8.7271,6.32822 -8.399,12.34444 0.2859,5.26666 3.3623,11.3811 7.2103,17.0279 5.752,8.43825 10.0161,15.61525 10.0161,15.61525 z"
       id="path4923"
       style="display:inline;fill:#d40000;stroke:none"
       inkscape:connector-curvature="0" />
    <path
       d="m 1615.1272,589.53018 c 0,0 -4.264,7.177 -10.016,15.61525 -3.848,5.6468 -6.9244,11.76124 -7.2103,17.0279 -0.3281,6.01622 2.7771,12.05191 8.3989,12.34444 5.6185,0.29236 7.8991,-4.63878 8.8274,-8.70432 0.9284,4.06554 3.2089,8.99668 8.8274,8.70432 5.6219,-0.29253 8.7271,-6.32822 8.399,-12.34444 -0.2859,-5.26666 -3.3623,-11.3811 -7.2103,-17.0279 -5.752,-8.43825 -10.0161,-15.61525 -10.0161,-15.61525 z"
       id="path4925"
       style="display:inline;fill:#d40000;stroke:none"
       inkscape:connector-curvature="0" />
    <path
       inkscape:connector-curvature="0"
       style="display:inline;fill:#d40000;stroke:none"
       id="path4927"
       d="m 1409.6272,465.03469 c 0,0 10.0112,-16.74633 23.5158,-36.43557 9.0345,-13.17588 16.2573,-27.4429 16.9287,-39.73176 0.7702,-14.03786 -6.5203,-28.12114 -19.7194,-28.80371 -13.1912,-0.68217 -18.5455,10.82381 -20.7251,20.31009 -2.1797,-9.48628 -7.5339,-20.99226 -20.7251,-20.31009 -13.1991,0.68257 -20.4896,14.76585 -19.7194,28.80371 0.6713,12.28886 7.8941,26.55588 16.9286,39.73176 13.5045,19.68924 23.5159,36.43557 23.5159,36.43557 z" />
    <path
       inkscape:connector-curvature="0"
       style="fill:#d40000;fill-opacity:1;stroke-width:1;stroke-miterlimit:4;stroke-dasharray:none"
       id="path4929"
       d="m 1180.9844,161.25208 5.5015,-4.07673 c 4.7746,7.83361 10.1143,12.99295 18.2828,12.10735 12.2556,-0.84851 17.3337,-13.7928 14.7697,-23.54619 -2.4806,-8.75061 -12.6287,-13.01301 -20.697,-8.34785 -1.9042,1.10575 -3.7416,2.00836 -4.1009,2.00836 -0.8462,0 -2.7617,-3.83956 -2.5,-5.01076 5.4149,-7.968 18.5642,-21.92661 18.5642,-21.92661 h -20.5438 v 9.34777 h -7.8844 v -16.77273 h 40.1519 v 5.69085 c 0,0 -10.7578,11.24181 -14.3129,17.39825 8.7559,0.32291 15.8135,5.91382 18.3471,14.75302 1.4784,4.65382 0.8158,15.29847 -1.1193,19.88661 -3.2322,7.64772 -12.0607,13.85303 -20.1315,14.20997 -13.5502,0.91701 -20.7387,-8.64764 -24.3274,-15.72131 z m 0,0" />
    <path
       inkscape:connector-curvature="0"
       style="fill:#d40000;fill-opacity:1;stroke-width:1;stroke-miterlimit:4;stroke-dasharray:none"
       id="path4931"
       d="m 1638.4924,663.81729 -5.5015,4.07673 c -4.7746,-7.83361 -10.1143,-12.99295 -18.2828,-12.10735 -12.2556,0.84851 -17.3337,13.7928 -14.7697,23.54619 2.4806,8.75061 12.6287,13.01301 20.697,8.34785 1.9042,-1.10575 3.7416,-2.00836 4.1009,-2.00836 0.8462,0 2.7617,3.83956 2.5,5.01076 -5.4149,7.968 -18.5642,21.92661 -18.5642,21.92661 h 20.5438 v -9.34777 h 7.8844 v 16.77273 h -40.1519 v -5.69085 c 0,0 10.7578,-11.24181 14.3129,-17.39825 -8.7559,-0.32291 -15.8135,-5.91382 -18.3471,-14.75302 -1.4784,-4.65382 -0.8158,-15.29847 1.1193,-19.88661 3.2322,-7.64772 12.0607,-13.85303 20.1315,-14.20997 13.5502,-0.91701 20.7387,8.64764 24.3274,15.72131 z m 0,0" />
    <path
       d="m 1227.4924,663.81729 -5.5015,4.07673 c -4.7746,-7.83361 -10.1143,-12.99295 -18.2828,-12.10735 -12.2556,0.84851 -17.3337,13.7928 -14.7697,23.54619 2.4806,8.75061 12.6287,13.01301 20.697,8.34785 1.9042,-1.10575 3.7416,-2.00836 4.1009,-2.00836 0.8462,0 2.7617,3.83956 2.5,5.01076 -5.4149,7.968 -18.5642,21.92661 -18.5642,21.92661 h 20.5438 v -9.34777 h 7.8844 v 16.77273 h -40.1519 v -5.69085 c 0,0 10.7578,-11.24181 14.3129,-17.39825 -8.7559,-0.32291 -15.8135,-5.91382 -18.3471,-14.75302 -1.4784,-4.65382 -0.8158,-15.29847 1.1193,-19.88661 3.2322,-7.64772 12.0607,-13.85303 20.1315,-14.20997 13.5502,-0.91701 20.7387,8.64764 24.3274,15.72131 z m 0,0"
       id="path4933"
       style="fill:#d40000;fill-opacity:1;stroke-width:1;stroke-miterlimit:4;stroke-dasharray:none"
       inkscape:connector-curvature="0" />
    <path
       inkscape:connector-curvature="0"
       style="display:inline;fill:#d40000;stroke:none"
       id="path4935"
       d="m 1204.1249,589.53018 c 0,0 -4.264,7.177 -10.016,15.61525 -3.848,5.6468 -6.9244,11.76124 -7.2103,17.0279 -0.3281,6.01622 2.7771,12.05191 8.3989,12.34444 5.6185,0.29236 7.8991,-4.63878 8.8274,-8.70432 0.9284,4.06554 3.2089,8.99668 8.8274,8.70432 5.6219,-0.29253 8.7271,-6.32822 8.399,-12.34444 -0.2859,-5.26666 -3.3623,-11.3811 -7.2103,-17.0279 -5.752,-8.43825 -10.0161,-15.61525 -10.0161,-15.61525 z" />
    <path
       d="m 1592.1084,161.25208 5.5015,-4.07673 c 4.7746,7.83361 10.1143,12.99295 18.2828,12.10735 12.2556,-0.84851 17.3337,-13.7928 14.7697,-23.54619 -2.4806,-8.75061 -12.6287,-13.01301 -20.697,-8.34785 -1.9042,1.10575 -3.7416,2.00836 -4.1009,2.00836 -0.8462,0 -2.7617,-3.83956 -2.5,-5.01076 5.4149,-7.968 18.5642,-21.92661 18.5642,-21.92661 h -20.5438 v 9.34777 h -7.8844 v -16.77273 h 40.1519 v 5.69085 c 0,0 -10.7578,11.24181 -14.3129,17.39825 8.7559,0.32291 15.8135,5.91382 18.3471,14.75302 1.4784,4.65382 0.8158,15.29847 -1.1193,19.88661 -3.2322,7.64772 -12.0607,13.85303 -20.1315,14.20997 -13.5502,0.91701 -20.7387,-8.64764 -24.3274,-15.72131 z m 0,0"
       id="path4937"
       style="fill:#d40000;fill-opacity:1;stroke-width:1;stroke-miterlimit:4;stroke-dasharray:none"
       inkscape:connector-curvature="0" />
    <path
       inkscape:connector-curvature="0"
       style="display:inline;fill:#d40000;stroke:none"
       id="path4939"
       d="m 1615.1272,235.53497 c 0,0 4.264,-7.177 10.016,-15.61525 3.848,-5.6468 6.9244,-11.76124 7.2103,-17.0279 0.3281,-6.01622 -2.7771,-12.05191 -8.3989,-12.34444 -5.6185,-0.29236 -7.8991,4.63878 -8.8274,8.70432 -0.9284,-4.06554 -3.2089,-8.99668 -8.8274,-8.70432 -5.6219,0.29253 -8.7271,6.32822 -8.399,12.34444 0.2859,5.26666 3.3623,11.3811 7.2103,17.0279 5.752,8.43825 10.0161,15.61525 10.0161,15.61525 z" />
  </g>
</svg>
