<?xml version="1.0" encoding="UTF-8" standalone="no"?>
<!-- Created with Inkscape (http://www.inkscape.org/) -->

<svg
   id="svg10047"
   height="123.01011"
   width="78.999939"
   version="1.1"
   viewBox="0 0 78.999939 123.01011"
   inkscape:version="0.91 r13725"
   sodipodi:docname="ramino-stretch.svgz"
   xmlns:inkscape="http://www.inkscape.org/namespaces/inkscape"
   xmlns:sodipodi="http://sodipodi.sourceforge.net/DTD/sodipodi-0.dtd"
   xmlns="http://www.w3.org/2000/svg"
   xmlns:svg="http://www.w3.org/2000/svg"
   xmlns:rdf="http://www.w3.org/1999/02/22-rdf-syntax-ns#"
   xmlns:cc="http://creativecommons.org/ns#"
   xmlns:dc="http://purl.org/dc/elements/1.1/">
  <sodipodi:namedview
     pagecolor="#ffffff"
     bordercolor="#666666"
     borderopacity="1"
     objecttolerance="10"
     gridtolerance="10"
     guidetolerance="10"
     inkscape:pageopacity="0"
     inkscape:pageshadow="2"
     inkscape:window-width="1920"
     inkscape:window-height="1016"
     id="namedview1491"
     showgrid="false"
     inkscape:zoom="1.3479675"
     inkscape:cx="513.5"
     inkscape:cy="307.5"
     inkscape:window-x="0"
     inkscape:window-y="0"
     inkscape:window-maximized="1"
     inkscape:current-layer="svg10047"
     showguides="false"
     inkscape:guide-bbox="true"
     inkscape:snap-grids="true"
     inkscape:showpageshadow="2"
     inkscape:pagecheckerboard="0"
     inkscape:deskcolor="#d1d1d1" />
  <metadata
     id="metadata16869">
    <rdf:RDF>
      <cc:Work
         rdf:about="">
        <dc:format>image/svg+xml</dc:format>
        <dc:type
           rdf:resource="http://purl.org/dc/dcmitype/StillImage" />
        <dc:title />
      </cc:Work>
    </rdf:RDF>
  </metadata>
  <defs
     id="defs10049" />
  <g
     id="heart_5"
     transform="matrix(0.16458147,0,0,0.18223729,-389.99641,-13.673719)"
     inkscape:label="#heart_5">
    <rect
       width="478.66342"
       height="673.65802"
       rx="22.895662"
       ry="23.039309"
       x="-2848.9595"
       y="-749.36133"
       id="rect5412"
       style="display:inline;fill:#ffffff;fill-opacity:1;stroke:#000000;stroke-width:1.34162;stroke-miterlimit:4;stroke-dasharray:none;stroke-opacity:1"
       transform="scale(-1)" />
    <path
       inkscape:connector-curvature="0"
       style="display:inline;fill:#d40000;stroke:none"
       id="path5414"
       d="m 2497.1274,249.03468 c 0,0 10.0112,-16.74633 23.5158,-36.43557 9.0345,-13.17588 16.2573,-27.4429 16.9287,-39.73176 0.7702,-14.03786 -6.5203,-28.12114 -19.7194,-28.80371 -13.1912,-0.68217 -18.5455,10.82381 -20.7251,20.31009 -2.1797,-9.48628 -7.5339,-20.99226 -20.7251,-20.31009 -13.1991,0.68257 -20.4896,14.76585 -19.7194,28.80371 0.6713,12.28886 7.8941,26.55588 16.9286,39.73176 13.5045,19.68924 23.5159,36.43557 23.5159,36.43557 z" />
    <path
       d="m 2497.1274,576.03473 c 0,0 -10.0112,16.7463 -23.5158,36.4356 -9.0345,13.1759 -16.2573,27.4429 -16.9287,39.7317 -0.7702,14.0379 6.5203,28.1212 19.7194,28.8037 13.1912,0.6822 18.5455,-10.8238 20.7251,-20.31 2.1797,9.4862 7.5339,20.9922 20.7251,20.31 13.1991,-0.6825 20.4896,-14.7658 19.7194,-28.8037 -0.6713,-12.2888 -7.8941,-26.5558 -16.9286,-39.7317 -13.5045,-19.6893 -23.5159,-36.4356 -23.5159,-36.4356 z"
       id="path5420"
       style="display:inline;fill:#d40000;stroke:none"
       inkscape:connector-curvature="0" />
    <path
       d="m 2722.1275,249.03468 c 0,0 10.0112,-16.74633 23.5158,-36.43557 9.0345,-13.17588 16.2573,-27.4429 16.9287,-39.73176 0.7702,-14.03786 -6.5203,-28.12114 -19.7194,-28.80371 -13.1912,-0.68217 -18.5455,10.82381 -20.7251,20.31009 -2.1797,-9.48628 -7.5339,-20.99226 -20.7251,-20.31009 -13.1991,0.68257 -20.4896,14.76585 -19.7194,28.80371 0.6713,12.28886 7.8941,26.55588 16.9286,39.73176 13.5045,19.68924 23.5159,36.43557 23.5159,36.43557 z"
       id="path5424"
       style="display:inline;fill:#d40000;stroke:none"
       inkscape:connector-curvature="0" />
    <path
       inkscape:connector-curvature="0"
       style="display:inline;fill:#d40000;stroke:none"
       id="path5426"
       d="m 2722.1275,576.03473 c 0,0 -10.0112,16.7463 -23.5158,36.4356 -9.0345,13.1759 -16.2573,27.4429 -16.9287,39.7317 -0.7702,14.0379 6.5203,28.1212 19.7194,28.8037 13.1912,0.6822 18.5455,-10.8238 20.7251,-20.31 2.1797,9.4862 7.5339,20.9922 20.7251,20.31 13.1991,-0.6825 20.4896,-14.7658 19.7194,-28.8037 -0.6713,-12.2888 -7.8941,-26.5558 -16.9286,-39.7317 -13.5045,-19.6893 -23.5159,-36.4356 -23.5159,-36.4356 z" />
    <path
       inkscape:connector-curvature="0"
       style="display:inline;fill:#d40000;stroke:none"
       id="path5428"
       d="m 2609.625,465.03469 c 0,0 10.0112,-16.74633 23.5158,-36.43557 9.0345,-13.17588 16.2573,-27.4429 16.9287,-39.73176 0.7702,-14.03786 -6.5203,-28.12114 -19.7194,-28.80371 -13.1912,-0.68217 -18.5455,10.82381 -20.7251,20.31009 -2.1797,-9.48628 -7.5339,-20.99226 -20.7251,-20.31009 -13.1991,0.68257 -20.4896,14.76585 -19.7194,28.80371 0.6713,12.28886 7.8941,26.55588 16.9286,39.73176 13.5045,19.68924 23.5159,36.43557 23.5159,36.43557 z" />
    <path
       inkscape:connector-curvature="0"
       style="display:inline;fill:#d40000;stroke:none"
       id="path5430"
       d="m 2404.1276,235.53469 c 0,0 4.264,-7.177 10.016,-15.61525 3.848,-5.6468 6.9244,-11.76124 7.2103,-17.0279 0.3281,-6.01622 -2.7771,-12.05191 -8.3989,-12.34444 -5.6185,-0.29236 -7.8991,4.63878 -8.8274,8.70432 -0.9284,-4.06554 -3.2089,-8.99668 -8.8274,-8.70432 -5.6219,0.29253 -8.7271,6.32822 -8.399,12.34444 0.2859,5.26666 3.3623,11.3811 7.2103,17.0279 5.752,8.43825 10.0161,15.61525 10.0161,15.61525 z" />
    <path
       inkscape:connector-curvature="0"
       style="display:inline;fill:#d40000;stroke:none"
       id="path5436"
       d="m 2815.1274,589.5299 c 0,0 -4.264,7.177 -10.016,15.61525 -3.848,5.6468 -6.9244,11.76124 -7.2103,17.0279 -0.3281,6.01622 2.7771,12.05191 8.3989,12.34444 5.6185,0.29236 7.8991,-4.63878 8.8274,-8.70432 0.9284,4.06554 3.2089,8.99668 8.8274,8.70432 5.6219,-0.29253 8.7271,-6.32822 8.399,-12.34444 -0.2859,-5.26666 -3.3623,-11.3811 -7.2103,-17.0279 -5.752,-8.43825 -10.0161,-15.61525 -10.0161,-15.61525 z" />
    <path
       d="m 2381.5652,158.39473 7.0047,-0.0677 c 1.3363,4.34596 4.293,8.76305 8.3077,9.98879 11.3422,2.73446 18.6393,-3.77149 21.0421,-11.27147 2.9148,-9.09752 -0.065,-21.87204 -7.8736,-26.40629 -6.4702,-3.76014 -16.0836,-0.58866 -20.4989,7.45439 l -4.9056,-3.08007 2.6336,-29.9777 h 32.0474 v 7.08589 h -25.9697 l -0.412,12.4887 c 5.5905,-4.0285 14.182,-3.98574 19.7695,-1.15985 10.5823,5.18006 15.4989,16.95728 13.4444,30.83755 -2.8507,13.80608 -9.1372,21.62897 -23.3166,22.74629 -15.7718,0.14618 -21.3399,-10.98304 -21.273,-18.6375 v 0 z m 0,0"
       id="path21-9-5-1-8"
       style="fill:#d40000;fill-opacity:1;stroke-width:1;stroke-miterlimit:4;stroke-dasharray:none"
       inkscape:connector-curvature="0" />
    <path
       d="m 2837.7369,666.67429 -7.0047,0.068 c -1.3363,-4.3459 -4.293,-8.763 -8.3077,-9.9887 -11.3422,-2.7345 -18.6393,3.7714 -21.0421,11.2714 -2.9148,9.0975 0.065,21.8721 7.8736,26.4063 6.4702,3.7602 16.0836,0.5887 20.4989,-7.4544 l 4.9056,3.0801 -2.6336,29.9777 h -32.0474 v -7.0859 h 25.9697 l 0.412,-12.4887 c -5.5905,4.0285 -14.182,3.9857 -19.7695,1.1599 -10.5823,-5.1801 -15.4989,-16.9573 -13.4444,-30.8376 2.8507,-13.8061 9.1372,-21.629 23.3166,-22.7463 15.7718,-0.1462 21.3399,10.9831 21.273,18.6375 v 0 z m 0,0"
       id="path21-9-5-1-8-9"
       style="fill:#d40000;fill-opacity:1;stroke-width:1;stroke-miterlimit:4;stroke-dasharray:none"
       inkscape:connector-curvature="0" />
    <path
       inkscape:connector-curvature="0"
       style="fill:#d40000;fill-opacity:1;stroke-width:1;stroke-miterlimit:4;stroke-dasharray:none"
       id="path4644"
       d="m 2426.7369,666.67429 -7.0047,0.068 c -1.3363,-4.3459 -4.293,-8.763 -8.3077,-9.9887 -11.3422,-2.7345 -18.6393,3.7714 -21.0421,11.2714 -2.9148,9.0975 0.065,21.8721 7.8736,26.4063 6.4702,3.7602 16.0836,0.5887 20.4989,-7.4544 l 4.9056,3.0801 -2.6336,29.9777 h -32.0474 v -7.0859 h 25.9697 l 0.412,-12.4887 c -5.5905,4.0285 -14.182,3.9857 -19.7695,1.1599 -10.5823,-5.1801 -15.4989,-16.9573 -13.4444,-30.8376 2.8507,-13.8061 9.1372,-21.629 23.3166,-22.7463 15.7718,-0.1462 21.3399,10.9831 21.273,18.6375 v 0 z m 0,0" />
    <path
       d="m 2404.1251,589.5299 c 0,0 -4.264,7.177 -10.016,15.61525 -3.848,5.6468 -6.9244,11.76124 -7.2103,17.0279 -0.3281,6.01622 2.7771,12.05191 8.3989,12.34444 5.6185,0.29236 7.8991,-4.63878 8.8274,-8.70432 0.9284,4.06554 3.2089,8.99668 8.8274,8.70432 5.6219,-0.29253 8.7271,-6.32822 8.399,-12.34444 -0.2859,-5.26666 -3.3623,-11.3811 -7.2103,-17.0279 -5.752,-8.43825 -10.0161,-15.61525 -10.0161,-15.61525 z"
       id="path4762"
       style="display:inline;fill:#d40000;stroke:none"
       inkscape:connector-curvature="0" />
    <path
       inkscape:connector-curvature="0"
       style="fill:#d40000;fill-opacity:1;stroke-width:1;stroke-miterlimit:4;stroke-dasharray:none"
       id="path4846"
       d="m 2792.6892,158.39473 7.0047,-0.0677 c 1.3363,4.34596 4.293,8.76305 8.3077,9.98879 11.3422,2.73446 18.6393,-3.77149 21.0421,-11.27147 2.9148,-9.09752 -0.065,-21.87204 -7.8736,-26.40629 -6.4702,-3.76014 -16.0836,-0.58866 -20.4989,7.45439 l -4.9056,-3.08007 2.6336,-29.9777 h 32.0474 v 7.08589 h -25.9697 l -0.412,12.4887 c 5.5905,-4.0285 14.182,-3.98574 19.7695,-1.15985 10.5823,5.18006 15.4989,16.95728 13.4444,30.83755 -2.8507,13.80608 -9.1372,21.62897 -23.3166,22.74629 -15.7718,0.14618 -21.3399,-10.98304 -21.273,-18.6375 v 0 z m 0,0" />
    <path
       d="m 2815.1274,235.53469 c 0,0 4.264,-7.177 10.016,-15.61525 3.848,-5.6468 6.9244,-11.76124 7.2103,-17.0279 0.3281,-6.01622 -2.7771,-12.05191 -8.3989,-12.34444 -5.6185,-0.29236 -7.8991,4.63878 -8.8274,8.70432 -0.9284,-4.06554 -3.2089,-8.99668 -8.8274,-8.70432 -5.6219,0.29253 -8.7271,6.32822 -8.399,12.34444 0.2859,5.26666 3.3623,11.3811 7.2103,17.0279 5.752,8.43825 10.0161,15.61525 10.0161,15.61525 z"
       id="path4956"
       style="display:inline;fill:#d40000;stroke:none"
       inkscape:connector-curvature="0" />
    <rect
       transform="scale(-1)"
       style="display:inline;fill:#ffffff;fill-opacity:1;stroke:#000000;stroke-width:1.34162;stroke-miterlimit:4;stroke-dasharray:none;stroke-opacity:1"
       id="rect4967"
       y="-749.36133"
       x="-2848.9595"
       ry="23.039309"
       rx="22.895662"
       height="673.65802"
       width="478.66342" />
    <path
       d="m 2497.1274,249.03468 c 0,0 10.0112,-16.74633 23.5158,-36.43557 9.0345,-13.17588 16.2573,-27.4429 16.9287,-39.73176 0.7702,-14.03786 -6.5203,-28.12114 -19.7194,-28.80371 -13.1912,-0.68217 -18.5455,10.82381 -20.7251,20.31009 -2.1797,-9.48628 -7.5339,-20.99226 -20.7251,-20.31009 -13.1991,0.68257 -20.4896,14.76585 -19.7194,28.80371 0.6713,12.28886 7.8941,26.55588 16.9286,39.73176 13.5045,19.68924 23.5159,36.43557 23.5159,36.43557 z"
       id="path4969"
       style="display:inline;fill:#d40000;stroke:none"
       inkscape:connector-curvature="0" />
    <path
       inkscape:connector-curvature="0"
       style="display:inline;fill:#d40000;stroke:none"
       id="path4971"
       d="m 2497.1274,576.03473 c 0,0 -10.0112,16.7463 -23.5158,36.4356 -9.0345,13.1759 -16.2573,27.4429 -16.9287,39.7317 -0.7702,14.0379 6.5203,28.1212 19.7194,28.8037 13.1912,0.6822 18.5455,-10.8238 20.7251,-20.31 2.1797,9.4862 7.5339,20.9922 20.7251,20.31 13.1991,-0.6825 20.4896,-14.7658 19.7194,-28.8037 -0.6713,-12.2888 -7.8941,-26.5558 -16.9286,-39.7317 -13.5045,-19.6893 -23.5159,-36.4356 -23.5159,-36.4356 z" />
    <path
       inkscape:connector-curvature="0"
       style="display:inline;fill:#d40000;stroke:none"
       id="path4973"
       d="m 2722.1275,249.03468 c 0,0 10.0112,-16.74633 23.5158,-36.43557 9.0345,-13.17588 16.2573,-27.4429 16.9287,-39.73176 0.7702,-14.03786 -6.5203,-28.12114 -19.7194,-28.80371 -13.1912,-0.68217 -18.5455,10.82381 -20.7251,20.31009 -2.1797,-9.48628 -7.5339,-20.99226 -20.7251,-20.31009 -13.1991,0.68257 -20.4896,14.76585 -19.7194,28.80371 0.6713,12.28886 7.8941,26.55588 16.9286,39.73176 13.5045,19.68924 23.5159,36.43557 23.5159,36.43557 z" />
    <path
       d="m 2722.1275,576.03473 c 0,0 -10.0112,16.7463 -23.5158,36.4356 -9.0345,13.1759 -16.2573,27.4429 -16.9287,39.7317 -0.7702,14.0379 6.5203,28.1212 19.7194,28.8037 13.1912,0.6822 18.5455,-10.8238 20.7251,-20.31 2.1797,9.4862 7.5339,20.9922 20.7251,20.31 13.1991,-0.6825 20.4896,-14.7658 19.7194,-28.8037 -0.6713,-12.2888 -7.8941,-26.5558 -16.9286,-39.7317 -13.5045,-19.6893 -23.5159,-36.4356 -23.5159,-36.4356 z"
       id="path4975"
       style="display:inline;fill:#d40000;stroke:none"
       inkscape:connector-curvature="0" />
    <path
       d="m 2609.625,465.03469 c 0,0 10.0112,-16.74633 23.5158,-36.43557 9.0345,-13.17588 16.2573,-27.4429 16.9287,-39.73176 0.7702,-14.03786 -6.5203,-28.12114 -19.7194,-28.80371 -13.1912,-0.68217 -18.5455,10.82381 -20.7251,20.31009 -2.1797,-9.48628 -7.5339,-20.99226 -20.7251,-20.31009 -13.1991,0.68257 -20.4896,14.76585 -19.7194,28.80371 0.6713,12.28886 7.8941,26.55588 16.9286,39.73176 13.5045,19.68924 23.5159,36.43557 23.5159,36.43557 z"
       id="path4977"
       style="display:inline;fill:#d40000;stroke:none"
       inkscape:connector-curvature="0" />
    <path
       d="m 2404.1276,235.53469 c 0,0 4.264,-7.177 10.016,-15.61525 3.848,-5.6468 6.9244,-11.76124 7.2103,-17.0279 0.3281,-6.01622 -2.7771,-12.05191 -8.3989,-12.34444 -5.6185,-0.29236 -7.8991,4.63878 -8.8274,8.70432 -0.9284,-4.06554 -3.2089,-8.99668 -8.8274,-8.70432 -5.6219,0.29253 -8.7271,6.32822 -8.399,12.34444 0.2859,5.26666 3.3623,11.3811 7.2103,17.0279 5.752,8.43825 10.0161,15.61525 10.0161,15.61525 z"
       id="path4979"
       style="display:inline;fill:#d40000;stroke:none"
       inkscape:connector-curvature="0" />
    <path
       d="m 2815.1274,589.5299 c 0,0 -4.264,7.177 -10.016,15.61525 -3.848,5.6468 -6.9244,11.76124 -7.2103,17.0279 -0.3281,6.01622 2.7771,12.05191 8.3989,12.34444 5.6185,0.29236 7.8991,-4.63878 8.8274,-8.70432 0.9284,4.06554 3.2089,8.99668 8.8274,8.70432 5.6219,-0.29253 8.7271,-6.32822 8.399,-12.34444 -0.2859,-5.26666 -3.3623,-11.3811 -7.2103,-17.0279 -5.752,-8.43825 -10.0161,-15.61525 -10.0161,-15.61525 z"
       id="path4981"
       style="display:inline;fill:#d40000;stroke:none"
       inkscape:connector-curvature="0" />
    <path
       inkscape:connector-curvature="0"
       style="fill:#d40000;fill-opacity:1;stroke-width:1;stroke-miterlimit:4;stroke-dasharray:none"
       id="path4983"
       d="m 2381.5652,158.39473 7.0047,-0.0677 c 1.3363,4.34596 4.293,8.76305 8.3077,9.98879 11.3422,2.73446 18.6393,-3.77149 21.0421,-11.27147 2.9148,-9.09752 -0.065,-21.87204 -7.8736,-26.40629 -6.4702,-3.76014 -16.0836,-0.58866 -20.4989,7.45439 l -4.9056,-3.08007 2.6336,-29.9777 h 32.0474 v 7.08589 h -25.9697 l -0.412,12.4887 c 5.5905,-4.0285 14.182,-3.98574 19.7695,-1.15985 10.5823,5.18006 15.4989,16.95728 13.4444,30.83755 -2.8507,13.80608 -9.1372,21.62897 -23.3166,22.74629 -15.7718,0.14618 -21.3399,-10.98304 -21.273,-18.6375 v 0 z m 0,0" />
    <path
       inkscape:connector-curvature="0"
       style="fill:#d40000;fill-opacity:1;stroke-width:1;stroke-miterlimit:4;stroke-dasharray:none"
       id="path4985"
       d="m 2837.7369,666.67429 -7.0047,0.068 c -1.3363,-4.3459 -4.293,-8.763 -8.3077,-9.9887 -11.3422,-2.7345 -18.6393,3.7714 -21.0421,11.2714 -2.9148,9.0975 0.065,21.8721 7.8736,26.4063 6.4702,3.7602 16.0836,0.5887 20.4989,-7.4544 l 4.9056,3.0801 -2.6336,29.9777 h -32.0474 v -7.0859 h 25.9697 l 0.412,-12.4887 c -5.5905,4.0285 -14.182,3.9857 -19.7695,1.1599 -10.5823,-5.1801 -15.4989,-16.9573 -13.4444,-30.8376 2.8507,-13.8061 9.1372,-21.629 23.3166,-22.7463 15.7718,-0.1462 21.3399,10.9831 21.273,18.6375 v 0 z m 0,0" />
    <path
       d="m 2426.7369,666.67429 -7.0047,0.068 c -1.3363,-4.3459 -4.293,-8.763 -8.3077,-9.9887 -11.3422,-2.7345 -18.6393,3.7714 -21.0421,11.2714 -2.9148,9.0975 0.065,21.8721 7.8736,26.4063 6.4702,3.7602 16.0836,0.5887 20.4989,-7.4544 l 4.9056,3.0801 -2.6336,29.9777 h -32.0474 v -7.0859 h 25.9697 l 0.412,-12.4887 c -5.5905,4.0285 -14.182,3.9857 -19.7695,1.1599 -10.5823,-5.1801 -15.4989,-16.9573 -13.4444,-30.8376 2.8507,-13.8061 9.1372,-21.629 23.3166,-22.7463 15.7718,-0.1462 21.3399,10.9831 21.273,18.6375 v 0 z m 0,0"
       id="path4987"
       style="fill:#d40000;fill-opacity:1;stroke-width:1;stroke-miterlimit:4;stroke-dasharray:none"
       inkscape:connector-curvature="0" />
    <path
       inkscape:connector-curvature="0"
       style="display:inline;fill:#d40000;stroke:none"
       id="path4989"
       d="m 2404.1251,589.5299 c 0,0 -4.264,7.177 -10.016,15.61525 -3.848,5.6468 -6.9244,11.76124 -7.2103,17.0279 -0.3281,6.01622 2.7771,12.05191 8.3989,12.34444 5.6185,0.29236 7.8991,-4.63878 8.8274,-8.70432 0.9284,4.06554 3.2089,8.99668 8.8274,8.70432 5.6219,-0.29253 8.7271,-6.32822 8.399,-12.34444 -0.2859,-5.26666 -3.3623,-11.3811 -7.2103,-17.0279 -5.752,-8.43825 -10.0161,-15.61525 -10.0161,-15.61525 z" />
    <path
       d="m 2792.6892,158.39473 7.0047,-0.0677 c 1.3363,4.34596 4.293,8.76305 8.3077,9.98879 11.3422,2.73446 18.6393,-3.77149 21.0421,-11.27147 2.9148,-9.09752 -0.065,-21.87204 -7.8736,-26.40629 -6.4702,-3.76014 -16.0836,-0.58866 -20.4989,7.45439 l -4.9056,-3.08007 2.6336,-29.9777 h 32.0474 v 7.08589 h -25.9697 l -0.412,12.4887 c 5.5905,-4.0285 14.182,-3.98574 19.7695,-1.15985 10.5823,5.18006 15.4989,16.95728 13.4444,30.83755 -2.8507,13.80608 -9.1372,21.62897 -23.3166,22.74629 -15.7718,0.14618 -21.3399,-10.98304 -21.273,-18.6375 v 0 z m 0,0"
       id="path4992"
       style="fill:#d40000;fill-opacity:1;stroke-width:1;stroke-miterlimit:4;stroke-dasharray:none"
       inkscape:connector-curvature="0" />
    <path
       inkscape:connector-curvature="0"
       style="display:inline;fill:#d40000;stroke:none"
       id="path4994"
       d="m 2815.1274,235.53469 c 0,0 4.264,-7.177 10.016,-15.61525 3.848,-5.6468 6.9244,-11.76124 7.2103,-17.0279 0.3281,-6.01622 -2.7771,-12.05191 -8.3989,-12.34444 -5.6185,-0.29236 -7.8991,4.63878 -8.8274,8.70432 -0.9284,-4.06554 -3.2089,-8.99668 -8.8274,-8.70432 -5.6219,0.29253 -8.7271,6.32822 -8.399,12.34444 0.2859,5.26666 3.3623,11.3811 7.2103,17.0279 5.752,8.43825 10.0161,15.61525 10.0161,15.61525 z" />
  </g>
</svg>
