<?xml version="1.0" encoding="UTF-8" standalone="no"?>
<!-- Created with Inkscape (http://www.inkscape.org/) -->

<svg
   id="svg10047"
   height="123.01011"
   width="78.999939"
   version="1.1"
   viewBox="0 0 78.999939 123.01011"
   inkscape:version="0.91 r13725"
   sodipodi:docname="ramino-stretch.svgz"
   xmlns:inkscape="http://www.inkscape.org/namespaces/inkscape"
   xmlns:sodipodi="http://sodipodi.sourceforge.net/DTD/sodipodi-0.dtd"
   xmlns="http://www.w3.org/2000/svg"
   xmlns:svg="http://www.w3.org/2000/svg"
   xmlns:rdf="http://www.w3.org/1999/02/22-rdf-syntax-ns#"
   xmlns:cc="http://creativecommons.org/ns#"
   xmlns:dc="http://purl.org/dc/elements/1.1/">
  <sodipodi:namedview
     pagecolor="#ffffff"
     bordercolor="#666666"
     borderopacity="1"
     objecttolerance="10"
     gridtolerance="10"
     guidetolerance="10"
     inkscape:pageopacity="0"
     inkscape:pageshadow="2"
     inkscape:window-width="1920"
     inkscape:window-height="1016"
     id="namedview1491"
     showgrid="false"
     inkscape:zoom="1.3479675"
     inkscape:cx="513.5"
     inkscape:cy="307.5"
     inkscape:window-x="0"
     inkscape:window-y="0"
     inkscape:window-maximized="1"
     inkscape:current-layer="svg10047"
     showguides="false"
     inkscape:guide-bbox="true"
     inkscape:snap-grids="true"
     inkscape:showpageshadow="2"
     inkscape:pagecheckerboard="0"
     inkscape:deskcolor="#d1d1d1" />
  <metadata
     id="metadata16869">
    <rdf:RDF>
      <cc:Work
         rdf:about="">
        <dc:format>image/svg+xml</dc:format>
        <dc:type
           rdf:resource="http://purl.org/dc/dcmitype/StillImage" />
        <dc:title />
      </cc:Work>
    </rdf:RDF>
  </metadata>
  <defs
     id="defs10049" />
  <g
     id="heart_1"
     transform="matrix(0.16458147,0,0,0.18223729,4.9991628,-13.673775)"
     inkscape:label="#heart_1">
    <rect
       width="478.66342"
       height="673.65802"
       rx="22.895662"
       ry="23.039309"
       x="-448.95923"
       y="-749.36163"
       id="rect5512"
       style="display:inline;fill:#ffffff;fill-opacity:1;stroke:#000000;stroke-width:1.34162;stroke-miterlimit:4;stroke-dasharray:none;stroke-opacity:1"
       transform="scale(-1)" />
    <path
       inkscape:connector-curvature="0"
       style="display:inline;fill:#d40000;stroke:none"
       id="path5522"
       d="m 4.1274493,235.53497 c 0,0 4.264,-7.177 10.0159997,-15.61525 3.848,-5.6468 6.9244,-11.76124 7.2103,-17.0279 0.3281,-6.01622 -2.7771,-12.05191 -8.3989,-12.34444 -5.6184997,-0.29236 -7.8990997,4.63878 -8.8273997,8.70432 -0.9284,-4.06554 -3.20889997,-8.99668 -8.8274,-8.70432 -5.6219003,0.29253 -8.7271003,6.32822 -8.3990003,12.34444 0.2859,5.26666 3.3623003,11.3811 7.2103003,17.0279 5.75200003,8.43825 10.0161,15.61525 10.0161,15.61525 z" />
    <path
       inkscape:connector-curvature="0"
       style="display:inline;fill:#d40000;stroke:none"
       id="path5528"
       d="m 415.12722,589.53018 c 0,0 -4.264,7.177 -10.016,15.61525 -3.84798,5.6468 -6.92438,11.76124 -7.21028,17.0279 -0.3281,6.01622 2.7771,12.05191 8.39888,12.34444 5.6185,0.29236 7.8991,-4.63878 8.8274,-8.70432 0.9284,4.06554 3.2089,8.99668 8.8274,8.70432 5.6219,-0.29253 8.7271,-6.32822 8.399,-12.34444 -0.2859,-5.26666 -3.3623,-11.3811 -7.2103,-17.0279 -5.752,-8.43825 -10.0161,-15.61525 -10.0161,-15.61525 z" />
    <path
       d="m 209.62724,465.03469 c 0,0 10.0112,-16.74633 23.5158,-36.43557 9.0345,-13.17588 16.2573,-27.4429 16.9287,-39.73176 0.7702,-14.03786 -6.5203,-28.12114 -19.7194,-28.80371 -13.1912,-0.68217 -18.5455,10.82381 -20.7251,20.31009 -2.1797,-9.48628 -7.5339,-20.99226 -20.7251,-20.31009 -13.1991,0.68257 -20.4896,14.76585 -19.7194,28.80371 0.6713,12.28886 7.8941,26.55588 16.9286,39.73176 13.5045,19.68924 23.5159,36.43557 23.5159,36.43557 z"
       id="path5530"
       style="display:inline;fill:#d40000;stroke:none"
       inkscape:connector-curvature="0" />
    <path
       d="m -17.749001,177.03469 v -6.15644 h 5.830012 L 0.50068693,105.03469 H 7.5695499 l 13.6810331,65.84356 h 4.707893 v 6.15644 H 9.9164523 v -6.15644 H 14.245818 L 12.516932,160.788 H -3.6669197 l -1.250111,10.09025 h 4.32914683 v 6.15644 z m 28.885036,-23.43425 -7.0355168,-35.2416 -6.5898764,35.2416 z m 0,0"
       id="path41-87-8-3-9"
       style="fill:#d40000;fill-opacity:1;stroke-width:1;stroke-miterlimit:4;stroke-dasharray:none"
       inkscape:connector-curvature="0" />
    <path
       d="m 437.08249,648.03468 v 6.15644 h -5.83001 l -12.41968,65.84356 h -7.06886 l -13.68103,-65.84356 h -4.7079 v -6.15644 h 16.04203 v 6.15644 h -4.32937 l 1.72889,10.09025 h 16.18385 l 1.25011,-10.09025 h -4.32915 v -6.15644 z m -28.88504,23.43425 7.03552,35.2416 6.58988,-35.2416 z m 0,0"
       id="path41-87-8-3-9-1"
       style="fill:#d40000;fill-opacity:1;stroke-width:1;stroke-miterlimit:4;stroke-dasharray:none"
       inkscape:connector-curvature="0" />
    <path
       d="m 415.12722,589.53018 c 0,0 -4.264,7.177 -10.016,15.61525 -3.84798,5.6468 -6.92438,11.76124 -7.21028,17.0279 -0.3281,6.01622 2.7771,12.05191 8.39888,12.34444 5.6185,0.29236 7.8991,-4.63878 8.8274,-8.70432 0.9284,4.06554 3.2089,8.99668 8.8274,8.70432 5.6219,-0.29253 8.7271,-6.32822 8.399,-12.34444 -0.2859,-5.26666 -3.3623,-11.3811 -7.2103,-17.0279 -5.752,-8.43825 -10.0161,-15.61525 -10.0161,-15.61525 z"
       id="path4627"
       style="display:inline;fill:#d40000;stroke:none"
       inkscape:connector-curvature="0" />
    <path
       inkscape:connector-curvature="0"
       style="fill:#d40000;fill-opacity:1;stroke-width:1;stroke-miterlimit:4;stroke-dasharray:none"
       id="path4629"
       d="m 437.08249,648.03468 v 6.15644 h -5.83001 l -12.41968,65.84356 h -7.06886 l -13.68103,-65.84356 h -4.7079 v -6.15644 h 16.04203 v 6.15644 h -4.32937 l 1.72889,10.09025 h 16.18385 l 1.25011,-10.09025 h -4.32915 v -6.15644 z m -28.88504,23.43425 7.03552,35.2416 6.58988,-35.2416 z m 0,0" />
    <path
       inkscape:connector-curvature="0"
       style="fill:#d40000;fill-opacity:1;stroke-width:1;stroke-miterlimit:4;stroke-dasharray:none"
       id="path4652"
       d="m 26.08248,648.03468 v 6.15644 H 20.25247 L 7.83279,720.03468 H 0.76393 L -12.9171,654.19112 h -4.7079 v -6.15644 h 16.04203 v 6.15644 h -4.32937 l 1.72889,10.09025 H 12.0004 l 1.25011,-10.09025 H 8.92136 v -6.15644 z m -28.88504,23.43425 7.03552,35.2416 6.58988,-35.2416 z m 0,0" />
    <path
       d="m 26.08248,648.03468 v 6.15644 H 20.25247 L 7.83279,720.03468 H 0.76393 L -12.9171,654.19112 h -4.7079 v -6.15644 h 16.04203 v 6.15644 h -4.32937 l 1.72889,10.09025 H 12.0004 l 1.25011,-10.09025 H 8.92136 v -6.15644 z m -28.88504,23.43425 7.03552,35.2416 6.58988,-35.2416 z m 0,0"
       id="path4660"
       style="fill:#d40000;fill-opacity:1;stroke-width:1;stroke-miterlimit:4;stroke-dasharray:none"
       inkscape:connector-curvature="0" />
    <path
       d="m 4.1248969,589.53018 c 0,0 -4.264,7.177 -10.016,15.61525 -3.84798,5.6468 -6.9243799,11.76124 -7.2102799,17.0279 -0.3281,6.01622 2.7771,12.05191 8.3988799,12.34444 5.6185,0.29236 7.8991,-4.63878 8.8274,-8.70432 0.9284,4.06554 3.2089,8.99668 8.8274001,8.70432 5.6219,-0.29253 8.7271,-6.32822 8.399,-12.34444 -0.2859,-5.26666 -3.3623,-11.3811 -7.2103,-17.0279 C 8.3889969,596.70718 4.1248969,589.53018 4.1248969,589.53018 Z"
       id="path4770"
       style="display:inline;fill:#d40000;stroke:none"
       inkscape:connector-curvature="0" />
    <path
       inkscape:connector-curvature="0"
       style="display:inline;fill:#d40000;stroke:none"
       id="path4778"
       d="m 4.1248969,589.53018 c 0,0 -4.264,7.177 -10.016,15.61525 -3.84798,5.6468 -6.9243799,11.76124 -7.2102799,17.0279 -0.3281,6.01622 2.7771,12.05191 8.3988799,12.34444 5.6185,0.29236 7.8991,-4.63878 8.8274,-8.70432 0.9284,4.06554 3.2089,8.99668 8.8274001,8.70432 5.6219,-0.29253 8.7271,-6.32822 8.399,-12.34444 -0.2859,-5.26666 -3.3623,-11.3811 -7.2103,-17.0279 C 8.3889969,596.70718 4.1248969,589.53018 4.1248969,589.53018 Z" />
    <path
       inkscape:connector-curvature="0"
       style="fill:#d40000;fill-opacity:1;stroke-width:1;stroke-miterlimit:4;stroke-dasharray:none"
       id="path4854"
       d="m 393.375,177.03469 v -6.15644 h 5.83001 l 12.41968,-65.84356 h 7.06886 l 13.68103,65.84356 h 4.7079 v 6.15644 h -16.04203 v -6.15644 h 4.32937 L 423.64093,160.788 h -16.18385 l -1.25011,10.09025 h 4.32915 v 6.15644 z m 28.88504,-23.43425 -7.03552,-35.2416 -6.58988,35.2416 z m 0,0" />
    <path
       d="m 415.12727,235.53497 c 0,0 4.264,-7.177 10.016,-15.61525 3.848,-5.6468 6.9244,-11.76124 7.2103,-17.0279 0.3281,-6.01622 -2.7771,-12.05191 -8.3989,-12.34444 -5.6185,-0.29236 -7.8991,4.63878 -8.8274,8.70432 -0.9284,-4.06554 -3.2089,-8.99668 -8.8274,-8.70432 -5.6219,0.29253 -8.7271,6.32822 -8.399,12.34444 0.2859,5.26666 3.3623,11.3811 7.2103,17.0279 5.752,8.43825 10.0161,15.61525 10.0161,15.61525 z"
       id="path4964"
       style="display:inline;fill:#d40000;stroke:none"
       inkscape:connector-curvature="0" />
  </g>
</svg>
