<?xml version="1.0" encoding="UTF-8" standalone="no"?>
<!-- Created with Inkscape (http://www.inkscape.org/) -->

<svg
   id="svg10047"
   height="123.01011"
   width="78.999939"
   version="1.1"
   viewBox="0 0 78.999939 123.01011"
   inkscape:version="0.91 r13725"
   sodipodi:docname="ramino-stretch.svgz"
   xmlns:inkscape="http://www.inkscape.org/namespaces/inkscape"
   xmlns:sodipodi="http://sodipodi.sourceforge.net/DTD/sodipodi-0.dtd"
   xmlns="http://www.w3.org/2000/svg"
   xmlns:svg="http://www.w3.org/2000/svg"
   xmlns:rdf="http://www.w3.org/1999/02/22-rdf-syntax-ns#"
   xmlns:cc="http://creativecommons.org/ns#"
   xmlns:dc="http://purl.org/dc/elements/1.1/">
  <sodipodi:namedview
     pagecolor="#ffffff"
     bordercolor="#666666"
     borderopacity="1"
     objecttolerance="10"
     gridtolerance="10"
     guidetolerance="10"
     inkscape:pageopacity="0"
     inkscape:pageshadow="2"
     inkscape:window-width="1920"
     inkscape:window-height="1016"
     id="namedview1491"
     showgrid="false"
     inkscape:zoom="1.3479675"
     inkscape:cx="513.5"
     inkscape:cy="307.5"
     inkscape:window-x="0"
     inkscape:window-y="0"
     inkscape:window-maximized="1"
     inkscape:current-layer="svg10047"
     showguides="false"
     inkscape:guide-bbox="true"
     inkscape:snap-grids="true"
     inkscape:showpageshadow="2"
     inkscape:pagecheckerboard="0"
     inkscape:deskcolor="#d1d1d1" />
  <metadata
     id="metadata16869">
    <rdf:RDF>
      <cc:Work
         rdf:about="">
        <dc:format>image/svg+xml</dc:format>
        <dc:type
           rdf:resource="http://purl.org/dc/dcmitype/StillImage" />
        <dc:title />
      </cc:Work>
    </rdf:RDF>
  </metadata>
  <defs
     id="defs10049" />
  <g
     id="heart_4"
     transform="matrix(0.16458147,0,0,0.18223729,-291.24752,-13.673775)"
     inkscape:label="#heart_4">
    <rect
       transform="scale(-1)"
       style="display:inline;fill:#ffffff;fill-opacity:1;stroke:#000000;stroke-width:1.34162;stroke-miterlimit:4;stroke-dasharray:none;stroke-opacity:1"
       id="rect5438"
       y="-749.36163"
       x="-2248.9595"
       ry="23.039309"
       rx="22.895662"
       height="673.65802"
       width="478.66342" />
    <path
       d="m 1897.1273,249.03496 c 0,0 10.0112,-16.74633 23.5158,-36.43557 9.0345,-13.17588 16.2573,-27.4429 16.9287,-39.73176 0.7702,-14.03786 -6.5203,-28.12114 -19.7194,-28.80371 -13.1912,-0.68217 -18.5455,10.82381 -20.7251,20.31009 -2.1797,-9.48628 -7.5339,-20.99226 -20.7251,-20.31009 -13.1991,0.68257 -20.4896,14.76585 -19.7194,28.80371 0.6713,12.28886 7.8941,26.55588 16.9286,39.73176 13.5045,19.68924 23.5159,36.43557 23.5159,36.43557 z"
       id="path5440"
       style="display:inline;fill:#d40000;stroke:none"
       inkscape:connector-curvature="0" />
    <path
       inkscape:connector-curvature="0"
       style="display:inline;fill:#d40000;stroke:none"
       id="path5446"
       d="m 1897.1273,576.03501 c 0,0 -10.0112,16.7463 -23.5158,36.4356 -9.0345,13.1759 -16.2573,27.4429 -16.9287,39.7317 -0.7702,14.0379 6.5203,28.1212 19.7194,28.8037 13.1912,0.6822 18.5455,-10.8238 20.7251,-20.31 2.1797,9.4862 7.5339,20.9922 20.7251,20.31 13.1991,-0.6825 20.4896,-14.7658 19.7194,-28.8037 -0.6713,-12.2888 -7.8941,-26.5558 -16.9286,-39.7317 -13.5045,-19.6893 -23.5159,-36.4356 -23.5159,-36.4356 z" />
    <path
       inkscape:connector-curvature="0"
       style="display:inline;fill:#d40000;stroke:none"
       id="path5448"
       d="m 2122.1274,249.03496 c 0,0 10.0112,-16.74633 23.5158,-36.43557 9.0345,-13.17588 16.2573,-27.4429 16.9287,-39.73176 0.7702,-14.03786 -6.5203,-28.12114 -19.7194,-28.80371 -13.1912,-0.68217 -18.5455,10.82381 -20.7251,20.31009 -2.1797,-9.48628 -7.5339,-20.99226 -20.7251,-20.31009 -13.1991,0.68257 -20.4896,14.76585 -19.7194,28.80371 0.6713,12.28886 7.8941,26.55588 16.9286,39.73176 13.5045,19.68924 23.5159,36.43557 23.5159,36.43557 z" />
    <path
       d="m 2122.1274,576.03501 c 0,0 -10.0112,16.7463 -23.5158,36.4356 -9.0345,13.1759 -16.2573,27.4429 -16.9287,39.7317 -0.7702,14.0379 6.5203,28.1212 19.7194,28.8037 13.1912,0.6822 18.5455,-10.8238 20.7251,-20.31 2.1797,9.4862 7.5339,20.9922 20.7251,20.31 13.1991,-0.6825 20.4896,-14.7658 19.7194,-28.8037 -0.6713,-12.2888 -7.8941,-26.5558 -16.9286,-39.7317 -13.5045,-19.6893 -23.5159,-36.4356 -23.5159,-36.4356 z"
       id="path5450"
       style="display:inline;fill:#d40000;stroke:none"
       inkscape:connector-curvature="0" />
    <path
       d="m 1804.1275,235.53497 c 0,0 4.264,-7.177 10.016,-15.61525 3.848,-5.6468 6.9244,-11.76124 7.2103,-17.0279 0.3281,-6.01622 -2.7771,-12.05191 -8.3989,-12.34444 -5.6185,-0.29236 -7.8991,4.63878 -8.8274,8.70432 -0.9284,-4.06554 -3.2089,-8.99668 -8.8274,-8.70432 -5.6219,0.29253 -8.7271,6.32822 -8.399,12.34444 0.2859,5.26666 3.3623,11.3811 7.2103,17.0279 5.752,8.43825 10.0161,15.61525 10.0161,15.61525 z"
       id="path5454"
       style="display:inline;fill:#d40000;stroke:none"
       inkscape:connector-curvature="0" />
    <path
       d="m 2215.1273,589.53018 c 0,0 -4.264,7.177 -10.016,15.61525 -3.848,5.6468 -6.9244,11.76124 -7.2103,17.0279 -0.3281,6.01622 2.7771,12.05191 8.3989,12.34444 5.6185,0.29236 7.8991,-4.63878 8.8274,-8.70432 0.9284,4.06554 3.2089,8.99668 8.8274,8.70432 5.6219,-0.29253 8.7271,-6.32822 8.399,-12.34444 -0.2859,-5.26666 -3.3623,-11.3811 -7.2103,-17.0279 -5.752,-8.43825 -10.0161,-15.61525 -10.0161,-15.61525 z"
       id="path5460"
       style="display:inline;fill:#d40000;stroke:none"
       inkscape:connector-curvature="0" />
    <path
       d="m 1804.0581,177.02573 v -6.36334 h 5.6998 v -10.4968 h -28.5101 v -7.40648 l 30.8503,-47.7702 5.0395,0.0262 v 47.74444 h 8.728 v 7.40648 h -8.728 l -0.1647,10.4968 h 4.7777 v 6.37186 h -17.6927 z m 5.6998,-54.54793 -19.587,30.28415 h 19.587 z m 0,0"
       id="path19-4-46-0-1-9"
       style="fill:#d40000;fill-opacity:1"
       inkscape:connector-curvature="0" />
    <path
       d="m 2214.1794,647.99779 v 6.3633 h -5.6998 v 10.4968 h 28.5101 v 7.4065 l -30.8503,47.7702 -5.0395,-0.026 v -47.7445 h -8.728 v -7.4064 h 8.728 l 0.1647,-10.4968 h -4.7777 v -6.3719 h 17.6927 z m -5.6998,54.5479 19.587,-30.2842 h -19.587 z m 0,0"
       id="path19-4-46-0-1-9-7"
       style="fill:#d40000;fill-opacity:1"
       inkscape:connector-curvature="0" />
    <path
       inkscape:connector-curvature="0"
       style="fill:#d40000;fill-opacity:1"
       id="path4646"
       d="m 1803.1794,647.99779 v 6.3633 h -5.6998 v 10.4968 h 28.5101 v 7.4065 l -30.8503,47.7702 -5.0395,-0.026 v -47.7445 h -8.728 v -7.4064 h 8.728 l 0.1647,-10.4968 h -4.7777 v -6.3719 h 17.6927 z m -5.6998,54.5479 19.587,-30.2842 h -19.587 z m 0,0" />
    <path
       inkscape:connector-curvature="0"
       style="display:inline;fill:#d40000;stroke:none"
       id="path4764"
       d="m 1804.125,589.53018 c 0,0 -4.264,7.177 -10.016,15.61525 -3.848,5.6468 -6.9244,11.76124 -7.2103,17.0279 -0.3281,6.01622 2.7771,12.05191 8.3989,12.34444 5.6185,0.29236 7.8991,-4.63878 8.8274,-8.70432 0.9284,4.06554 3.2089,8.99668 8.8274,8.70432 5.6219,-0.29253 8.7271,-6.32822 8.399,-12.34444 -0.2859,-5.26666 -3.3623,-11.3811 -7.2103,-17.0279 -5.752,-8.43825 -10.0161,-15.61525 -10.0161,-15.61525 z" />
    <path
       inkscape:connector-curvature="0"
       style="fill:#d40000;fill-opacity:1"
       id="path4848"
       d="m 2215.1821,177.02573 v -6.36334 h 5.6998 v -10.4968 h -28.5101 v -7.40648 l 30.8503,-47.7702 5.0395,0.0262 v 47.74444 h 8.728 v 7.40648 h -8.728 l -0.1647,10.4968 h 4.7777 v 6.37186 h -17.6927 z m 5.6998,-54.54793 -19.587,30.28415 h 19.587 z m 0,0" />
    <path
       inkscape:connector-curvature="0"
       style="display:inline;fill:#d40000;stroke:none"
       id="path4958"
       d="m 2215.1273,235.53497 c 0,0 4.264,-7.177 10.016,-15.61525 3.848,-5.6468 6.9244,-11.76124 7.2103,-17.0279 0.3281,-6.01622 -2.7771,-12.05191 -8.3989,-12.34444 -5.6185,-0.29236 -7.8991,4.63878 -8.8274,8.70432 -0.9284,-4.06554 -3.2089,-8.99668 -8.8274,-8.70432 -5.6219,0.29253 -8.7271,6.32822 -8.399,12.34444 0.2859,5.26666 3.3623,11.3811 7.2103,17.0279 5.752,8.43825 10.0161,15.61525 10.0161,15.61525 z" />
    <rect
       width="478.66342"
       height="673.65802"
       rx="22.895662"
       ry="23.039309"
       x="-2248.9595"
       y="-749.36163"
       id="rect4941"
       style="display:inline;fill:#ffffff;fill-opacity:1;stroke:#000000;stroke-width:1.34162;stroke-miterlimit:4;stroke-dasharray:none;stroke-opacity:1"
       transform="scale(-1)" />
    <path
       inkscape:connector-curvature="0"
       style="display:inline;fill:#d40000;stroke:none"
       id="path4943"
       d="m 1897.1273,249.03496 c 0,0 10.0112,-16.74633 23.5158,-36.43557 9.0345,-13.17588 16.2573,-27.4429 16.9287,-39.73176 0.7702,-14.03786 -6.5203,-28.12114 -19.7194,-28.80371 -13.1912,-0.68217 -18.5455,10.82381 -20.7251,20.31009 -2.1797,-9.48628 -7.5339,-20.99226 -20.7251,-20.31009 -13.1991,0.68257 -20.4896,14.76585 -19.7194,28.80371 0.6713,12.28886 7.8941,26.55588 16.9286,39.73176 13.5045,19.68924 23.5159,36.43557 23.5159,36.43557 z" />
    <path
       d="m 1897.1273,576.03501 c 0,0 -10.0112,16.7463 -23.5158,36.4356 -9.0345,13.1759 -16.2573,27.4429 -16.9287,39.7317 -0.7702,14.0379 6.5203,28.1212 19.7194,28.8037 13.1912,0.6822 18.5455,-10.8238 20.7251,-20.31 2.1797,9.4862 7.5339,20.9922 20.7251,20.31 13.1991,-0.6825 20.4896,-14.7658 19.7194,-28.8037 -0.6713,-12.2888 -7.8941,-26.5558 -16.9286,-39.7317 -13.5045,-19.6893 -23.5159,-36.4356 -23.5159,-36.4356 z"
       id="path4945"
       style="display:inline;fill:#d40000;stroke:none"
       inkscape:connector-curvature="0" />
    <path
       d="m 2122.1274,249.03496 c 0,0 10.0112,-16.74633 23.5158,-36.43557 9.0345,-13.17588 16.2573,-27.4429 16.9287,-39.73176 0.7702,-14.03786 -6.5203,-28.12114 -19.7194,-28.80371 -13.1912,-0.68217 -18.5455,10.82381 -20.7251,20.31009 -2.1797,-9.48628 -7.5339,-20.99226 -20.7251,-20.31009 -13.1991,0.68257 -20.4896,14.76585 -19.7194,28.80371 0.6713,12.28886 7.8941,26.55588 16.9286,39.73176 13.5045,19.68924 23.5159,36.43557 23.5159,36.43557 z"
       id="path4947"
       style="display:inline;fill:#d40000;stroke:none"
       inkscape:connector-curvature="0" />
    <path
       inkscape:connector-curvature="0"
       style="display:inline;fill:#d40000;stroke:none"
       id="path4949"
       d="m 2122.1274,576.03501 c 0,0 -10.0112,16.7463 -23.5158,36.4356 -9.0345,13.1759 -16.2573,27.4429 -16.9287,39.7317 -0.7702,14.0379 6.5203,28.1212 19.7194,28.8037 13.1912,0.6822 18.5455,-10.8238 20.7251,-20.31 2.1797,9.4862 7.5339,20.9922 20.7251,20.31 13.1991,-0.6825 20.4896,-14.7658 19.7194,-28.8037 -0.6713,-12.2888 -7.8941,-26.5558 -16.9286,-39.7317 -13.5045,-19.6893 -23.5159,-36.4356 -23.5159,-36.4356 z" />
    <path
       inkscape:connector-curvature="0"
       style="display:inline;fill:#d40000;stroke:none"
       id="path4951"
       d="m 1804.1275,235.53497 c 0,0 4.264,-7.177 10.016,-15.61525 3.848,-5.6468 6.9244,-11.76124 7.2103,-17.0279 0.3281,-6.01622 -2.7771,-12.05191 -8.3989,-12.34444 -5.6185,-0.29236 -7.8991,4.63878 -8.8274,8.70432 -0.9284,-4.06554 -3.2089,-8.99668 -8.8274,-8.70432 -5.6219,0.29253 -8.7271,6.32822 -8.399,12.34444 0.2859,5.26666 3.3623,11.3811 7.2103,17.0279 5.752,8.43825 10.0161,15.61525 10.0161,15.61525 z" />
    <path
       inkscape:connector-curvature="0"
       style="display:inline;fill:#d40000;stroke:none"
       id="path4953"
       d="m 2215.1273,589.53018 c 0,0 -4.264,7.177 -10.016,15.61525 -3.848,5.6468 -6.9244,11.76124 -7.2103,17.0279 -0.3281,6.01622 2.7771,12.05191 8.3989,12.34444 5.6185,0.29236 7.8991,-4.63878 8.8274,-8.70432 0.9284,4.06554 3.2089,8.99668 8.8274,8.70432 5.6219,-0.29253 8.7271,-6.32822 8.399,-12.34444 -0.2859,-5.26666 -3.3623,-11.3811 -7.2103,-17.0279 -5.752,-8.43825 -10.0161,-15.61525 -10.0161,-15.61525 z" />
    <path
       inkscape:connector-curvature="0"
       style="fill:#d40000;fill-opacity:1"
       id="path4955"
       d="m 1804.0581,177.02573 v -6.36334 h 5.6998 v -10.4968 h -28.5101 v -7.40648 l 30.8503,-47.7702 5.0395,0.0262 v 47.74444 h 8.728 v 7.40648 h -8.728 l -0.1647,10.4968 h 4.7777 v 6.37186 h -17.6927 z m 5.6998,-54.54793 -19.587,30.28415 h 19.587 z m 0,0" />
    <path
       inkscape:connector-curvature="0"
       style="fill:#d40000;fill-opacity:1"
       id="path4957"
       d="m 2214.1794,647.99779 v 6.3633 h -5.6998 v 10.4968 h 28.5101 v 7.4065 l -30.8503,47.7702 -5.0395,-0.026 v -47.7445 h -8.728 v -7.4064 h 8.728 l 0.1647,-10.4968 h -4.7777 v -6.3719 h 17.6927 z m -5.6998,54.5479 19.587,-30.2842 h -19.587 z m 0,0" />
    <path
       d="m 1803.1794,647.99779 v 6.3633 h -5.6998 v 10.4968 h 28.5101 v 7.4065 l -30.8503,47.7702 -5.0395,-0.026 v -47.7445 h -8.728 v -7.4064 h 8.728 l 0.1647,-10.4968 h -4.7777 v -6.3719 h 17.6927 z m -5.6998,54.5479 19.587,-30.2842 h -19.587 z m 0,0"
       id="path4959"
       style="fill:#d40000;fill-opacity:1"
       inkscape:connector-curvature="0" />
    <path
       d="m 1804.125,589.53018 c 0,0 -4.264,7.177 -10.016,15.61525 -3.848,5.6468 -6.9244,11.76124 -7.2103,17.0279 -0.3281,6.01622 2.7771,12.05191 8.3989,12.34444 5.6185,0.29236 7.8991,-4.63878 8.8274,-8.70432 0.9284,4.06554 3.2089,8.99668 8.8274,8.70432 5.6219,-0.29253 8.7271,-6.32822 8.399,-12.34444 -0.2859,-5.26666 -3.3623,-11.3811 -7.2103,-17.0279 -5.752,-8.43825 -10.0161,-15.61525 -10.0161,-15.61525 z"
       id="path4961"
       style="display:inline;fill:#d40000;stroke:none"
       inkscape:connector-curvature="0" />
    <path
       d="m 2215.1821,177.02573 v -6.36334 h 5.6998 v -10.4968 h -28.5101 v -7.40648 l 30.8503,-47.7702 5.0395,0.0262 v 47.74444 h 8.728 v 7.40648 h -8.728 l -0.1647,10.4968 h 4.7777 v 6.37186 h -17.6927 z m 5.6998,-54.54793 -19.587,30.28415 h 19.587 z m 0,0"
       id="path4963"
       style="fill:#d40000;fill-opacity:1"
       inkscape:connector-curvature="0" />
    <path
       d="m 2215.1273,235.53497 c 0,0 4.264,-7.177 10.016,-15.61525 3.848,-5.6468 6.9244,-11.76124 7.2103,-17.0279 0.3281,-6.01622 -2.7771,-12.05191 -8.3989,-12.34444 -5.6185,-0.29236 -7.8991,4.63878 -8.8274,8.70432 -0.9284,-4.06554 -3.2089,-8.99668 -8.8274,-8.70432 -5.6219,0.29253 -8.7271,6.32822 -8.399,12.34444 0.2859,5.26666 3.3623,11.3811 7.2103,17.0279 5.752,8.43825 10.0161,15.61525 10.0161,15.61525 z"
       id="path4965"
       style="display:inline;fill:#d40000;stroke:none"
       inkscape:connector-curvature="0" />
  </g>
</svg>
