<?xml version="1.0" encoding="UTF-8" standalone="no"?>
<!-- Created with Inkscape (http://www.inkscape.org/) -->

<svg
   id="svg10047"
   height="123.01011"
   width="78.999939"
   version="1.1"
   viewBox="0 0 78.999939 123.01011"
   inkscape:version="0.91 r13725"
   sodipodi:docname="ramino-stretch.svgz"
   xmlns:inkscape="http://www.inkscape.org/namespaces/inkscape"
   xmlns:sodipodi="http://sodipodi.sourceforge.net/DTD/sodipodi-0.dtd"
   xmlns="http://www.w3.org/2000/svg"
   xmlns:svg="http://www.w3.org/2000/svg"
   xmlns:rdf="http://www.w3.org/1999/02/22-rdf-syntax-ns#"
   xmlns:cc="http://creativecommons.org/ns#"
   xmlns:dc="http://purl.org/dc/elements/1.1/">
  <sodipodi:namedview
     pagecolor="#ffffff"
     bordercolor="#666666"
     borderopacity="1"
     objecttolerance="10"
     gridtolerance="10"
     guidetolerance="10"
     inkscape:pageopacity="0"
     inkscape:pageshadow="2"
     inkscape:window-width="1920"
     inkscape:window-height="1016"
     id="namedview1491"
     showgrid="false"
     inkscape:zoom="1.3479675"
     inkscape:cx="513.5"
     inkscape:cy="307.5"
     inkscape:window-x="0"
     inkscape:window-y="0"
     inkscape:window-maximized="1"
     inkscape:current-layer="svg10047"
     showguides="false"
     inkscape:guide-bbox="true"
     inkscape:snap-grids="true"
     inkscape:showpageshadow="2"
     inkscape:pagecheckerboard="0"
     inkscape:deskcolor="#d1d1d1" />
  <metadata
     id="metadata16869">
    <rdf:RDF>
      <cc:Work
         rdf:about="">
        <dc:format>image/svg+xml</dc:format>
        <dc:type
           rdf:resource="http://purl.org/dc/dcmitype/StillImage" />
        <dc:title />
      </cc:Work>
    </rdf:RDF>
  </metadata>
  <defs
     id="defs10049" />
  <g
     id="heart_7"
     transform="matrix(0.16458147,0,0,0.18223729,-587.49413,-13.673719)"
     inkscape:label="#heart_7">
    <rect
       transform="scale(-1)"
       width="478.66342"
       height="673.65802"
       rx="22.895662"
       ry="23.039309"
       x="-4048.9592"
       y="-749.36133"
       id="rect4703"
       style="display:inline;fill:#ffffff;fill-opacity:1;stroke:#000000;stroke-width:1.34162;stroke-miterlimit:4;stroke-dasharray:none;stroke-opacity:1" />
    <path
       inkscape:connector-curvature="0"
       style="display:inline;fill:#d40000;stroke:none"
       id="path4705"
       d="m 3697.1272,249.03468 c 0,0 10.0112,-16.74633 23.5158,-36.43557 9.0345,-13.17588 16.2573,-27.4429 16.9287,-39.73176 0.7702,-14.03786 -6.5203,-28.12114 -19.7194,-28.80371 -13.1912,-0.68217 -18.5455,10.82381 -20.7251,20.31009 -2.1797,-9.48628 -7.5339,-20.99226 -20.7251,-20.31009 -13.1991,0.68257 -20.4896,14.76585 -19.7194,28.80371 0.6713,12.28886 7.8941,26.55588 16.9286,39.73176 13.5045,19.68924 23.5159,36.43557 23.5159,36.43557 z" />
    <path
       d="m 3697.1272,576.03473 c 0,0 -10.0112,16.7463 -23.5158,36.4356 -9.0345,13.1759 -16.2573,27.4429 -16.9287,39.7317 -0.7702,14.0379 6.5203,28.1212 19.7194,28.8037 13.1912,0.6822 18.5455,-10.8238 20.7251,-20.31 2.1797,9.4862 7.5339,20.9922 20.7251,20.31 13.1991,-0.6825 20.4896,-14.7658 19.7194,-28.8037 -0.6713,-12.2888 -7.8941,-26.5558 -16.9286,-39.7317 -13.5045,-19.6893 -23.5159,-36.4356 -23.5159,-36.4356 z"
       id="path4717"
       style="display:inline;fill:#d40000;stroke:none"
       inkscape:connector-curvature="0" />
    <path
       d="m 3697.1272,465.03469 c 0,0 10.0112,-16.74633 23.5158,-36.43557 9.0345,-13.17588 16.2573,-27.4429 16.9287,-39.73176 0.7702,-14.03786 -6.5203,-28.12114 -19.7194,-28.80371 -13.1912,-0.68217 -18.5455,10.82381 -20.7251,20.31009 -2.1797,-9.48628 -7.5339,-20.99226 -20.7251,-20.31009 -13.1991,0.68257 -20.4896,14.76585 -19.7194,28.80371 0.6713,12.28886 7.8941,26.55588 16.9286,39.73176 13.5045,19.68924 23.5159,36.43557 23.5159,36.43557 z"
       id="path4719"
       style="display:inline;fill:#d40000;stroke:none"
       inkscape:connector-curvature="0" />
    <path
       d="m 3922.1273,249.03468 c 0,0 10.0112,-16.74633 23.5158,-36.43557 9.0345,-13.17588 16.2573,-27.4429 16.9287,-39.73176 0.7702,-14.03786 -6.5203,-28.12114 -19.7194,-28.80371 -13.1912,-0.68217 -18.5455,10.82381 -20.7251,20.31009 -2.1797,-9.48628 -7.5339,-20.99226 -20.7251,-20.31009 -13.1991,0.68257 -20.4896,14.76585 -19.7194,28.80371 0.6713,12.28886 7.8941,26.55588 16.9286,39.73176 13.5045,19.68924 23.5159,36.43557 23.5159,36.43557 z"
       id="path4721"
       style="display:inline;fill:#d40000;stroke:none"
       inkscape:connector-curvature="0" />
    <path
       inkscape:connector-curvature="0"
       style="display:inline;fill:#d40000;stroke:none"
       id="path4723"
       d="m 3922.1273,576.03473 c 0,0 -10.0112,16.7463 -23.5158,36.4356 -9.0345,13.1759 -16.2573,27.4429 -16.9287,39.7317 -0.7702,14.0379 6.5203,28.1212 19.7194,28.8037 13.1912,0.6822 18.5455,-10.8238 20.7251,-20.31 2.1797,9.4862 7.5339,20.9922 20.7251,20.31 13.1991,-0.6825 20.4896,-14.7658 19.7194,-28.8037 -0.6713,-12.2888 -7.8941,-26.5558 -16.9286,-39.7317 -13.5045,-19.6893 -23.5159,-36.4356 -23.5159,-36.4356 z" />
    <path
       inkscape:connector-curvature="0"
       style="display:inline;fill:#d40000;stroke:none"
       id="path4725"
       d="m 3922.1273,465.03469 c 0,0 10.0112,-16.74633 23.5158,-36.43557 9.0345,-13.17588 16.2573,-27.4429 16.9287,-39.73176 0.7702,-14.03786 -6.5203,-28.12114 -19.7194,-28.80371 -13.1912,-0.68217 -18.5455,10.82381 -20.7251,20.31009 -2.1797,-9.48628 -7.5339,-20.99226 -20.7251,-20.31009 -13.1991,0.68257 -20.4896,14.76585 -19.7194,28.80371 0.6713,12.28886 7.8941,26.55588 16.9286,39.73176 13.5045,19.68924 23.5159,36.43557 23.5159,36.43557 z" />
    <path
       inkscape:connector-curvature="0"
       style="display:inline;fill:#d40000;stroke:none"
       id="path4727"
       d="m 3604.1274,235.53469 c 0,0 4.264,-7.177 10.016,-15.61525 3.848,-5.6468 6.9244,-11.76124 7.2103,-17.0279 0.3281,-6.01622 -2.7771,-12.05191 -8.3989,-12.34444 -5.6185,-0.29236 -7.8991,4.63878 -8.8274,8.70432 -0.9284,-4.06554 -3.2089,-8.99668 -8.8274,-8.70432 -5.6219,0.29253 -8.7271,6.32822 -8.399,12.34444 0.2859,5.26666 3.3623,11.3811 7.2103,17.0279 5.752,8.43825 10.0161,15.61525 10.0161,15.61525 z" />
    <path
       d="m 3809.6273,357.03469 c 0,0 10.0112,-16.74633 23.5158,-36.43557 9.0345,-13.17588 16.2573,-27.4429 16.9287,-39.73176 0.7702,-14.03786 -6.5203,-28.12114 -19.7194,-28.80371 -13.1912,-0.68217 -18.5455,10.82381 -20.7251,20.31009 -2.1797,-9.48628 -7.5339,-20.99226 -20.7251,-20.31009 -13.1991,0.68257 -20.4896,14.76585 -19.7194,28.80371 0.6713,12.28886 7.8941,26.55588 16.9286,39.73176 13.5045,19.68924 23.5159,36.43557 23.5159,36.43557 z"
       id="path4729"
       style="display:inline;fill:#d40000;stroke:none"
       inkscape:connector-curvature="0" />
    <path
       inkscape:connector-curvature="0"
       style="display:inline;fill:#d40000;stroke:none"
       id="path4743"
       d="m 4015.1272,589.5299 c 0,0 -4.264,7.177 -10.016,15.61525 -3.848,5.6468 -6.9244,11.76124 -7.2103,17.0279 -0.3281,6.01622 2.7771,12.05191 8.3989,12.34444 5.6185,0.29236 7.8991,-4.63878 8.8274,-8.70432 0.9284,4.06554 3.2089,8.99668 8.8274,8.70432 5.6219,-0.29253 8.7271,-6.32822 8.399,-12.34444 -0.2859,-5.26666 -3.3623,-11.3811 -7.2103,-17.0279 -5.752,-8.43825 -10.0161,-15.61525 -10.0161,-15.61525 z" />
    <path
       d="m 3593.3239,177.02681 c 4.6996,-25.03265 9.7025,-43.82551 22.8378,-64.22114 h -26.6992 v 8.77919 h -7.0884 v -16.55017 h 39.0522 l 4.8166,7.77098 c -13.9511,15.34451 -26.7189,64.94681 -24.4582,64.22114 z m 0,0"
       id="path25-43-2-3-9"
       style="fill:#d40000;fill-opacity:1;stroke-width:1;stroke-miterlimit:4;stroke-dasharray:none"
       inkscape:connector-curvature="0" />
    <path
       d="m 4026.4171,648.04257 c -4.6996,25.0326 -9.7025,43.8255 -22.8378,64.2211 h 26.6992 v -8.7792 h 7.0884 v 16.5502 h -39.0522 l -4.8166,-7.771 c 13.9511,-15.3445 26.7189,-64.9468 24.4582,-64.2211 z m 0,0"
       id="path25-43-2-3-9-2"
       style="fill:#d40000;fill-opacity:1;stroke-width:1;stroke-miterlimit:4;stroke-dasharray:none"
       inkscape:connector-curvature="0" />
    <path
       inkscape:connector-curvature="0"
       style="fill:#d40000;fill-opacity:1;stroke-width:1;stroke-miterlimit:4;stroke-dasharray:none"
       id="path4640"
       d="m 3615.4171,648.04257 c -4.6996,25.0326 -9.7025,43.8255 -22.8378,64.2211 h 26.6992 v -8.7792 h 7.0884 v 16.5502 h -39.0522 l -4.8166,-7.771 c 13.9511,-15.3445 26.7189,-64.9468 24.4582,-64.2211 z m 0,0" />
    <path
       d="m 3604.1249,589.5299 c 0,0 -4.264,7.177 -10.016,15.61525 -3.848,5.6468 -6.9244,11.76124 -7.2103,17.0279 -0.3281,6.01622 2.7771,12.05191 8.3989,12.34444 5.6185,0.29236 7.8991,-4.63878 8.8274,-8.70432 0.9284,4.06554 3.2089,8.99668 8.8274,8.70432 5.6219,-0.29253 8.7271,-6.32822 8.399,-12.34444 -0.2859,-5.26666 -3.3623,-11.3811 -7.2103,-17.0279 -5.752,-8.43825 -10.0161,-15.61525 -10.0161,-15.61525 z"
       id="path4758"
       style="display:inline;fill:#d40000;stroke:none"
       inkscape:connector-curvature="0" />
    <path
       inkscape:connector-curvature="0"
       style="fill:#d40000;fill-opacity:1;stroke-width:1;stroke-miterlimit:4;stroke-dasharray:none"
       id="path4842"
       d="m 4004.4479,177.02681 c 4.6996,-25.03265 9.7025,-43.82551 22.8378,-64.22114 h -26.6992 v 8.77919 h -7.0884 v -16.55017 h 39.0522 l 4.8166,7.77098 c -13.9511,15.34451 -26.7189,64.94681 -24.4582,64.22114 z m 0,0" />
    <path
       d="m 4015.1272,235.53469 c 0,0 4.264,-7.177 10.016,-15.61525 3.848,-5.6468 6.9244,-11.76124 7.2103,-17.0279 0.3281,-6.01622 -2.7771,-12.05191 -8.3989,-12.34444 -5.6185,-0.29236 -7.8991,4.63878 -8.8274,8.70432 -0.9284,-4.06554 -3.2089,-8.99668 -8.8274,-8.70432 -5.6219,0.29253 -8.7271,6.32822 -8.399,12.34444 0.2859,5.26666 3.3623,11.3811 7.2103,17.0279 5.752,8.43825 10.0161,15.61525 10.0161,15.61525 z"
       id="path4952"
       style="display:inline;fill:#d40000;stroke:none"
       inkscape:connector-curvature="0" />
  </g>
</svg>
