<?xml version="1.0" encoding="UTF-8" standalone="no"?>
<!-- Created with Inkscape (http://www.inkscape.org/) -->

<svg
   id="svg10047"
   height="123.01011"
   width="78.999939"
   version="1.1"
   viewBox="0 0 78.999939 123.01011"
   inkscape:version="0.91 r13725"
   sodipodi:docname="ramino-stretch.svgz"
   xmlns:inkscape="http://www.inkscape.org/namespaces/inkscape"
   xmlns:sodipodi="http://sodipodi.sourceforge.net/DTD/sodipodi-0.dtd"
   xmlns="http://www.w3.org/2000/svg"
   xmlns:svg="http://www.w3.org/2000/svg"
   xmlns:rdf="http://www.w3.org/1999/02/22-rdf-syntax-ns#"
   xmlns:cc="http://creativecommons.org/ns#"
   xmlns:dc="http://purl.org/dc/elements/1.1/">
  <sodipodi:namedview
     pagecolor="#ffffff"
     bordercolor="#666666"
     borderopacity="1"
     objecttolerance="10"
     gridtolerance="10"
     guidetolerance="10"
     inkscape:pageopacity="0"
     inkscape:pageshadow="2"
     inkscape:window-width="1920"
     inkscape:window-height="1016"
     id="namedview1491"
     showgrid="false"
     inkscape:zoom="1.3479675"
     inkscape:cx="513.5"
     inkscape:cy="307.5"
     inkscape:window-x="0"
     inkscape:window-y="0"
     inkscape:window-maximized="1"
     inkscape:current-layer="svg10047"
     showguides="false"
     inkscape:guide-bbox="true"
     inkscape:snap-grids="true"
     inkscape:showpageshadow="2"
     inkscape:pagecheckerboard="0"
     inkscape:deskcolor="#d1d1d1" />
  <metadata
     id="metadata16869">
    <rdf:RDF>
      <cc:Work
         rdf:about="">
        <dc:format>image/svg+xml</dc:format>
        <dc:type
           rdf:resource="http://purl.org/dc/dcmitype/StillImage" />
        <dc:title />
      </cc:Work>
    </rdf:RDF>
  </metadata>
  <defs
     id="defs10049" />
  <g
     id="heart_6"
     transform="matrix(0.16458147,0,0,0.18223729,-488.74525,-13.673719)"
     inkscape:label="#heart_6">
    <rect
       transform="scale(-1)"
       style="display:inline;fill:#ffffff;fill-opacity:1;stroke:#000000;stroke-width:1.34162;stroke-miterlimit:4;stroke-dasharray:none;stroke-opacity:1"
       id="rect4749"
       y="-749.36133"
       x="-3448.9592"
       ry="23.039309"
       rx="22.895662"
       height="673.65802"
       width="478.66342" />
    <path
       d="m 3097.1272,249.03468 c 0,0 10.0112,-16.74633 23.5158,-36.43557 9.0345,-13.17588 16.2573,-27.4429 16.9287,-39.73176 0.7702,-14.03786 -6.5203,-28.12114 -19.7194,-28.80371 -13.1912,-0.68217 -18.5455,10.82381 -20.7251,20.31009 -2.1797,-9.48628 -7.5339,-20.99226 -20.7251,-20.31009 -13.1991,0.68257 -20.4896,14.76585 -19.7194,28.80371 0.6713,12.28886 7.8941,26.55588 16.9286,39.73176 13.5045,19.68924 23.5159,36.43557 23.5159,36.43557 z"
       id="path4751"
       style="display:inline;fill:#d40000;stroke:none"
       inkscape:connector-curvature="0" />
    <path
       inkscape:connector-curvature="0"
       style="display:inline;fill:#d40000;stroke:none"
       id="path4763"
       d="m 3097.1272,576.03473 c 0,0 -10.0112,16.7463 -23.5158,36.4356 -9.0345,13.1759 -16.2573,27.4429 -16.9287,39.7317 -0.7702,14.0379 6.5203,28.1212 19.7194,28.8037 13.1912,0.6822 18.5455,-10.8238 20.7251,-20.31 2.1797,9.4862 7.5339,20.9922 20.7251,20.31 13.1991,-0.6825 20.4896,-14.7658 19.7194,-28.8037 -0.6713,-12.2888 -7.8941,-26.5558 -16.9286,-39.7317 -13.5045,-19.6893 -23.5159,-36.4356 -23.5159,-36.4356 z" />
    <path
       inkscape:connector-curvature="0"
       style="display:inline;fill:#d40000;stroke:none"
       id="path4765"
       d="m 3097.1272,465.03469 c 0,0 10.0112,-16.74633 23.5158,-36.43557 9.0345,-13.17588 16.2573,-27.4429 16.9287,-39.73176 0.7702,-14.03786 -6.5203,-28.12114 -19.7194,-28.80371 -13.1912,-0.68217 -18.5455,10.82381 -20.7251,20.31009 -2.1797,-9.48628 -7.5339,-20.99226 -20.7251,-20.31009 -13.1991,0.68257 -20.4896,14.76585 -19.7194,28.80371 0.6713,12.28886 7.8941,26.55588 16.9286,39.73176 13.5045,19.68924 23.5159,36.43557 23.5159,36.43557 z" />
    <path
       inkscape:connector-curvature="0"
       style="display:inline;fill:#d40000;stroke:none"
       id="path4767"
       d="m 3322.1273,249.03468 c 0,0 10.0112,-16.74633 23.5158,-36.43557 9.0345,-13.17588 16.2573,-27.4429 16.9287,-39.73176 0.7702,-14.03786 -6.5203,-28.12114 -19.7194,-28.80371 -13.1912,-0.68217 -18.5455,10.82381 -20.7251,20.31009 -2.1797,-9.48628 -7.5339,-20.99226 -20.7251,-20.31009 -13.1991,0.68257 -20.4896,14.76585 -19.7194,28.80371 0.6713,12.28886 7.8941,26.55588 16.9286,39.73176 13.5045,19.68924 23.5159,36.43557 23.5159,36.43557 z" />
    <path
       d="m 3322.1273,576.03473 c 0,0 -10.0112,16.7463 -23.5158,36.4356 -9.0345,13.1759 -16.2573,27.4429 -16.9287,39.7317 -0.7702,14.0379 6.5203,28.1212 19.7194,28.8037 13.1912,0.6822 18.5455,-10.8238 20.7251,-20.31 2.1797,9.4862 7.5339,20.9922 20.7251,20.31 13.1991,-0.6825 20.4896,-14.7658 19.7194,-28.8037 -0.6713,-12.2888 -7.8941,-26.5558 -16.9286,-39.7317 -13.5045,-19.6893 -23.5159,-36.4356 -23.5159,-36.4356 z"
       id="path4769"
       style="display:inline;fill:#d40000;stroke:none"
       inkscape:connector-curvature="0" />
    <path
       d="m 3322.1273,465.03469 c 0,0 10.0112,-16.74633 23.5158,-36.43557 9.0345,-13.17588 16.2573,-27.4429 16.9287,-39.73176 0.7702,-14.03786 -6.5203,-28.12114 -19.7194,-28.80371 -13.1912,-0.68217 -18.5455,10.82381 -20.7251,20.31009 -2.1797,-9.48628 -7.5339,-20.99226 -20.7251,-20.31009 -13.1991,0.68257 -20.4896,14.76585 -19.7194,28.80371 0.6713,12.28886 7.8941,26.55588 16.9286,39.73176 13.5045,19.68924 23.5159,36.43557 23.5159,36.43557 z"
       id="path4771"
       style="display:inline;fill:#d40000;stroke:none"
       inkscape:connector-curvature="0" />
    <path
       d="m 3004.1274,235.53469 c 0,0 4.264,-7.177 10.016,-15.61525 3.848,-5.6468 6.9244,-11.76124 7.2103,-17.0279 0.3281,-6.01622 -2.7771,-12.05191 -8.3989,-12.34444 -5.6185,-0.29236 -7.8991,4.63878 -8.8274,8.70432 -0.9284,-4.06554 -3.2089,-8.99668 -8.8274,-8.70432 -5.6219,0.29253 -8.7271,6.32822 -8.399,12.34444 0.2859,5.26666 3.3623,11.3811 7.2103,17.0279 5.752,8.43825 10.0161,15.61525 10.0161,15.61525 z"
       id="path4773"
       style="display:inline;fill:#d40000;stroke:none"
       inkscape:connector-curvature="0" />
    <path
       d="m 3415.1272,589.5299 c 0,0 -4.264,7.177 -10.016,15.61525 -3.848,5.6468 -6.9244,11.76124 -7.2103,17.0279 -0.3281,6.01622 2.7771,12.05191 8.3989,12.34444 5.6185,0.29236 7.8991,-4.63878 8.8274,-8.70432 0.9284,4.06554 3.2089,8.99668 8.8274,8.70432 5.6219,-0.29253 8.7271,-6.32822 8.399,-12.34444 -0.2859,-5.26666 -3.3623,-11.3811 -7.2103,-17.0279 -5.752,-8.43825 -10.0161,-15.61525 -10.0161,-15.61525 z"
       id="path4787"
       style="display:inline;fill:#d40000;stroke:none"
       inkscape:connector-curvature="0" />
    <path
       d="m 2982.7146,154.88452 c -0.8799,-6.06009 -0.8575,-21.72579 -0.1386,-26.36005 2.219,-14.19709 7.6006,-20.69399 16.6154,-22.8141 8.7562,-2.06578 21.0565,0.23434 23.7543,12.09991 l -7.3196,0.14182 c -3.9589,-8.02268 -13.9762,-5.87988 -19.6196,-2.38848 -4.5018,2.77989 -6.5371,14.38844 -5.6658,15.10278 0,0 8.514,-6.35421 15.2266,-5.88576 14.3437,1.50569 20.26,14.04 19.7587,25.87414 -0.4565,14.23724 -4.9362,25.62281 -20.1403,26.37991 -14.4552,-0.56292 -21.0785,-8.50289 -22.4704,-22.15126 v 0 z m 35.6505,-3.75999 c 0.078,-9.87724 -4.3711,-17.28004 -12.7985,-18.09147 -8.4191,-0.81711 -16.9136,7.4628 -16.3262,17.5314 0.5876,10.11135 4.4713,18.61708 14.6835,18.57127 10.9833,-0.0436 14.3883,-10.97996 14.4412,-18.0112 z m 0,0"
       id="path23-5-2-7-3"
       style="fill:#d40000;fill-opacity:1;stroke-width:1;stroke-miterlimit:4;stroke-dasharray:none"
       inkscape:connector-curvature="0" />
    <path
       d="m 3435.8096,670.18489 c 0.8799,6.0601 0.8575,21.7258 0.1386,26.36 -2.219,14.1971 -7.6006,20.694 -16.6154,22.8141 -8.7562,2.0658 -21.0565,-0.2343 -23.7543,-12.0999 l 7.3196,-0.1418 c 3.9589,8.0227 13.9762,5.8799 19.6196,2.3885 4.5018,-2.7799 6.5371,-14.3885 5.6658,-15.1028 0,0 -8.514,6.3542 -15.2266,5.8858 -14.3437,-1.5057 -20.26,-14.04 -19.7587,-25.8742 0.4565,-14.2372 4.9362,-25.6228 20.1403,-26.3799 14.4552,0.5629 21.0785,8.5029 22.4704,22.1513 v 0 z m -35.6505,3.76 c -0.078,9.8772 4.3711,17.28 12.7985,18.0914 8.4191,0.8171 16.9136,-7.4628 16.3262,-17.5314 -0.5876,-10.1113 -4.4713,-18.617 -14.6835,-18.5712 -10.9833,0.044 -14.3883,10.9799 -14.4412,18.0112 z m 0,0"
       id="path23-5-2-7-3-8"
       style="fill:#d40000;fill-opacity:1;stroke-width:1;stroke-miterlimit:4;stroke-dasharray:none"
       inkscape:connector-curvature="0" />
    <path
       inkscape:connector-curvature="0"
       style="fill:#d40000;fill-opacity:1;stroke-width:1;stroke-miterlimit:4;stroke-dasharray:none"
       id="path4642"
       d="m 3024.8096,670.18489 c 0.8799,6.0601 0.8575,21.7258 0.1386,26.36 -2.219,14.1971 -7.6006,20.694 -16.6154,22.8141 -8.7562,2.0658 -21.0565,-0.2343 -23.7543,-12.0999 l 7.3196,-0.1418 c 3.9589,8.0227 13.9762,5.8799 19.6196,2.3885 4.5018,-2.7799 6.5371,-14.3885 5.6658,-15.1028 0,0 -8.514,6.3542 -15.2266,5.8858 -14.3437,-1.5057 -20.26,-14.04 -19.7587,-25.8742 0.4565,-14.2372 4.9362,-25.6228 20.1403,-26.3799 14.4552,0.5629 21.0785,8.5029 22.4704,22.1513 v 0 z m -35.6505,3.76 c -0.078,9.8772 4.3711,17.28 12.7985,18.0914 8.4191,0.8171 16.9136,-7.4628 16.3262,-17.5314 -0.5876,-10.1113 -4.4713,-18.617 -14.6835,-18.5712 -10.9833,0.044 -14.3883,10.9799 -14.4412,18.0112 z m 0,0" />
    <path
       inkscape:connector-curvature="0"
       style="display:inline;fill:#d40000;stroke:none"
       id="path4760"
       d="m 3004.1249,589.5299 c 0,0 -4.264,7.177 -10.016,15.61525 -3.848,5.6468 -6.9244,11.76124 -7.2103,17.0279 -0.3281,6.01622 2.7771,12.05191 8.3989,12.34444 5.6185,0.29236 7.8991,-4.63878 8.8274,-8.70432 0.9284,4.06554 3.2089,8.99668 8.8274,8.70432 5.6219,-0.29253 8.7271,-6.32822 8.399,-12.34444 -0.2859,-5.26666 -3.3623,-11.3811 -7.2103,-17.0279 -5.752,-8.43825 -10.0161,-15.61525 -10.0161,-15.61525 z" />
    <path
       inkscape:connector-curvature="0"
       style="fill:#d40000;fill-opacity:1;stroke-width:1;stroke-miterlimit:4;stroke-dasharray:none"
       id="path4844"
       d="m 3393.8386,154.88452 c -0.8799,-6.06009 -0.8575,-21.72579 -0.1386,-26.36005 2.219,-14.19709 7.6006,-20.69399 16.6154,-22.8141 8.7562,-2.06578 21.0565,0.23434 23.7543,12.09991 l -7.3196,0.14182 c -3.9589,-8.02268 -13.9762,-5.87988 -19.6196,-2.38848 -4.5018,2.77989 -6.5371,14.38844 -5.6658,15.10278 0,0 8.514,-6.35421 15.2266,-5.88576 14.3437,1.50569 20.26,14.04 19.7587,25.87414 -0.4565,14.23724 -4.9362,25.62281 -20.1403,26.37991 -14.4552,-0.56292 -21.0785,-8.50289 -22.4704,-22.15126 v 0 z m 35.6505,-3.75999 c 0.078,-9.87724 -4.3711,-17.28004 -12.7985,-18.09147 -8.4191,-0.81711 -16.9136,7.4628 -16.3262,17.5314 0.5876,10.11135 4.4713,18.61708 14.6835,18.57127 10.9833,-0.0436 14.3883,-10.97996 14.4412,-18.0112 z m 0,0" />
    <path
       inkscape:connector-curvature="0"
       style="display:inline;fill:#d40000;stroke:none"
       id="path4954"
       d="m 3415.1272,235.53469 c 0,0 4.264,-7.177 10.016,-15.61525 3.848,-5.6468 6.9244,-11.76124 7.2103,-17.0279 0.3281,-6.01622 -2.7771,-12.05191 -8.3989,-12.34444 -5.6185,-0.29236 -7.8991,4.63878 -8.8274,8.70432 -0.9284,-4.06554 -3.2089,-8.99668 -8.8274,-8.70432 -5.6219,0.29253 -8.7271,6.32822 -8.399,12.34444 0.2859,5.26666 3.3623,11.3811 7.2103,17.0279 5.752,8.43825 10.0161,15.61525 10.0161,15.61525 z" />
    <rect
       width="478.66342"
       height="673.65802"
       rx="22.895662"
       ry="23.039309"
       x="-3448.9592"
       y="-749.36133"
       id="rect4996"
       style="display:inline;fill:#ffffff;fill-opacity:1;stroke:#000000;stroke-width:1.34162;stroke-miterlimit:4;stroke-dasharray:none;stroke-opacity:1"
       transform="scale(-1)" />
    <path
       inkscape:connector-curvature="0"
       style="display:inline;fill:#d40000;stroke:none"
       id="path4998"
       d="m 3097.1272,249.03468 c 0,0 10.0112,-16.74633 23.5158,-36.43557 9.0345,-13.17588 16.2573,-27.4429 16.9287,-39.73176 0.7702,-14.03786 -6.5203,-28.12114 -19.7194,-28.80371 -13.1912,-0.68217 -18.5455,10.82381 -20.7251,20.31009 -2.1797,-9.48628 -7.5339,-20.99226 -20.7251,-20.31009 -13.1991,0.68257 -20.4896,14.76585 -19.7194,28.80371 0.6713,12.28886 7.8941,26.55588 16.9286,39.73176 13.5045,19.68924 23.5159,36.43557 23.5159,36.43557 z" />
    <path
       d="m 3097.1272,576.03473 c 0,0 -10.0112,16.7463 -23.5158,36.4356 -9.0345,13.1759 -16.2573,27.4429 -16.9287,39.7317 -0.7702,14.0379 6.5203,28.1212 19.7194,28.8037 13.1912,0.6822 18.5455,-10.8238 20.7251,-20.31 2.1797,9.4862 7.5339,20.9922 20.7251,20.31 13.1991,-0.6825 20.4896,-14.7658 19.7194,-28.8037 -0.6713,-12.2888 -7.8941,-26.5558 -16.9286,-39.7317 -13.5045,-19.6893 -23.5159,-36.4356 -23.5159,-36.4356 z"
       id="path5000"
       style="display:inline;fill:#d40000;stroke:none"
       inkscape:connector-curvature="0" />
    <path
       d="m 3097.1272,465.03469 c 0,0 10.0112,-16.74633 23.5158,-36.43557 9.0345,-13.17588 16.2573,-27.4429 16.9287,-39.73176 0.7702,-14.03786 -6.5203,-28.12114 -19.7194,-28.80371 -13.1912,-0.68217 -18.5455,10.82381 -20.7251,20.31009 -2.1797,-9.48628 -7.5339,-20.99226 -20.7251,-20.31009 -13.1991,0.68257 -20.4896,14.76585 -19.7194,28.80371 0.6713,12.28886 7.8941,26.55588 16.9286,39.73176 13.5045,19.68924 23.5159,36.43557 23.5159,36.43557 z"
       id="path5030"
       style="display:inline;fill:#d40000;stroke:none"
       inkscape:connector-curvature="0" />
    <path
       d="m 3322.1273,249.03468 c 0,0 10.0112,-16.74633 23.5158,-36.43557 9.0345,-13.17588 16.2573,-27.4429 16.9287,-39.73176 0.7702,-14.03786 -6.5203,-28.12114 -19.7194,-28.80371 -13.1912,-0.68217 -18.5455,10.82381 -20.7251,20.31009 -2.1797,-9.48628 -7.5339,-20.99226 -20.7251,-20.31009 -13.1991,0.68257 -20.4896,14.76585 -19.7194,28.80371 0.6713,12.28886 7.8941,26.55588 16.9286,39.73176 13.5045,19.68924 23.5159,36.43557 23.5159,36.43557 z"
       id="path5032"
       style="display:inline;fill:#d40000;stroke:none"
       inkscape:connector-curvature="0" />
    <path
       inkscape:connector-curvature="0"
       style="display:inline;fill:#d40000;stroke:none"
       id="path5034"
       d="m 3322.1273,576.03473 c 0,0 -10.0112,16.7463 -23.5158,36.4356 -9.0345,13.1759 -16.2573,27.4429 -16.9287,39.7317 -0.7702,14.0379 6.5203,28.1212 19.7194,28.8037 13.1912,0.6822 18.5455,-10.8238 20.7251,-20.31 2.1797,9.4862 7.5339,20.9922 20.7251,20.31 13.1991,-0.6825 20.4896,-14.7658 19.7194,-28.8037 -0.6713,-12.2888 -7.8941,-26.5558 -16.9286,-39.7317 -13.5045,-19.6893 -23.5159,-36.4356 -23.5159,-36.4356 z" />
    <path
       inkscape:connector-curvature="0"
       style="display:inline;fill:#d40000;stroke:none"
       id="path5036"
       d="m 3322.1273,465.03469 c 0,0 10.0112,-16.74633 23.5158,-36.43557 9.0345,-13.17588 16.2573,-27.4429 16.9287,-39.73176 0.7702,-14.03786 -6.5203,-28.12114 -19.7194,-28.80371 -13.1912,-0.68217 -18.5455,10.82381 -20.7251,20.31009 -2.1797,-9.48628 -7.5339,-20.99226 -20.7251,-20.31009 -13.1991,0.68257 -20.4896,14.76585 -19.7194,28.80371 0.6713,12.28886 7.8941,26.55588 16.9286,39.73176 13.5045,19.68924 23.5159,36.43557 23.5159,36.43557 z" />
    <path
       inkscape:connector-curvature="0"
       style="display:inline;fill:#d40000;stroke:none"
       id="path5038"
       d="m 3004.1274,235.53469 c 0,0 4.264,-7.177 10.016,-15.61525 3.848,-5.6468 6.9244,-11.76124 7.2103,-17.0279 0.3281,-6.01622 -2.7771,-12.05191 -8.3989,-12.34444 -5.6185,-0.29236 -7.8991,4.63878 -8.8274,8.70432 -0.9284,-4.06554 -3.2089,-8.99668 -8.8274,-8.70432 -5.6219,0.29253 -8.7271,6.32822 -8.399,12.34444 0.2859,5.26666 3.3623,11.3811 7.2103,17.0279 5.752,8.43825 10.0161,15.61525 10.0161,15.61525 z" />
    <path
       inkscape:connector-curvature="0"
       style="display:inline;fill:#d40000;stroke:none"
       id="path5040"
       d="m 3415.1272,589.5299 c 0,0 -4.264,7.177 -10.016,15.61525 -3.848,5.6468 -6.9244,11.76124 -7.2103,17.0279 -0.3281,6.01622 2.7771,12.05191 8.3989,12.34444 5.6185,0.29236 7.8991,-4.63878 8.8274,-8.70432 0.9284,4.06554 3.2089,8.99668 8.8274,8.70432 5.6219,-0.29253 8.7271,-6.32822 8.399,-12.34444 -0.2859,-5.26666 -3.3623,-11.3811 -7.2103,-17.0279 -5.752,-8.43825 -10.0161,-15.61525 -10.0161,-15.61525 z" />
    <path
       inkscape:connector-curvature="0"
       style="fill:#d40000;fill-opacity:1;stroke-width:1;stroke-miterlimit:4;stroke-dasharray:none"
       id="path5042"
       d="m 2982.7146,154.88452 c -0.8799,-6.06009 -0.8575,-21.72579 -0.1386,-26.36005 2.219,-14.19709 7.6006,-20.69399 16.6154,-22.8141 8.7562,-2.06578 21.0565,0.23434 23.7543,12.09991 l -7.3196,0.14182 c -3.9589,-8.02268 -13.9762,-5.87988 -19.6196,-2.38848 -4.5018,2.77989 -6.5371,14.38844 -5.6658,15.10278 0,0 8.514,-6.35421 15.2266,-5.88576 14.3437,1.50569 20.26,14.04 19.7587,25.87414 -0.4565,14.23724 -4.9362,25.62281 -20.1403,26.37991 -14.4552,-0.56292 -21.0785,-8.50289 -22.4704,-22.15126 v 0 z m 35.6505,-3.75999 c 0.078,-9.87724 -4.3711,-17.28004 -12.7985,-18.09147 -8.4191,-0.81711 -16.9136,7.4628 -16.3262,17.5314 0.5876,10.11135 4.4713,18.61708 14.6835,18.57127 10.9833,-0.0436 14.3883,-10.97996 14.4412,-18.0112 z m 0,0" />
    <path
       inkscape:connector-curvature="0"
       style="fill:#d40000;fill-opacity:1;stroke-width:1;stroke-miterlimit:4;stroke-dasharray:none"
       id="path5044"
       d="m 3435.8096,670.18489 c 0.8799,6.0601 0.8575,21.7258 0.1386,26.36 -2.219,14.1971 -7.6006,20.694 -16.6154,22.8141 -8.7562,2.0658 -21.0565,-0.2343 -23.7543,-12.0999 l 7.3196,-0.1418 c 3.9589,8.0227 13.9762,5.8799 19.6196,2.3885 4.5018,-2.7799 6.5371,-14.3885 5.6658,-15.1028 0,0 -8.514,6.3542 -15.2266,5.8858 -14.3437,-1.5057 -20.26,-14.04 -19.7587,-25.8742 0.4565,-14.2372 4.9362,-25.6228 20.1403,-26.3799 14.4552,0.5629 21.0785,8.5029 22.4704,22.1513 v 0 z m -35.6505,3.76 c -0.078,9.8772 4.3711,17.28 12.7985,18.0914 8.4191,0.8171 16.9136,-7.4628 16.3262,-17.5314 -0.5876,-10.1113 -4.4713,-18.617 -14.6835,-18.5712 -10.9833,0.044 -14.3883,10.9799 -14.4412,18.0112 z m 0,0" />
    <path
       d="m 3024.8096,670.18489 c 0.8799,6.0601 0.8575,21.7258 0.1386,26.36 -2.219,14.1971 -7.6006,20.694 -16.6154,22.8141 -8.7562,2.0658 -21.0565,-0.2343 -23.7543,-12.0999 l 7.3196,-0.1418 c 3.9589,8.0227 13.9762,5.8799 19.6196,2.3885 4.5018,-2.7799 6.5371,-14.3885 5.6658,-15.1028 0,0 -8.514,6.3542 -15.2266,5.8858 -14.3437,-1.5057 -20.26,-14.04 -19.7587,-25.8742 0.4565,-14.2372 4.9362,-25.6228 20.1403,-26.3799 14.4552,0.5629 21.0785,8.5029 22.4704,22.1513 v 0 z m -35.6505,3.76 c -0.078,9.8772 4.3711,17.28 12.7985,18.0914 8.4191,0.8171 16.9136,-7.4628 16.3262,-17.5314 -0.5876,-10.1113 -4.4713,-18.617 -14.6835,-18.5712 -10.9833,0.044 -14.3883,10.9799 -14.4412,18.0112 z m 0,0"
       id="path5046"
       style="fill:#d40000;fill-opacity:1;stroke-width:1;stroke-miterlimit:4;stroke-dasharray:none"
       inkscape:connector-curvature="0" />
    <path
       d="m 3004.1249,589.5299 c 0,0 -4.264,7.177 -10.016,15.61525 -3.848,5.6468 -6.9244,11.76124 -7.2103,17.0279 -0.3281,6.01622 2.7771,12.05191 8.3989,12.34444 5.6185,0.29236 7.8991,-4.63878 8.8274,-8.70432 0.9284,4.06554 3.2089,8.99668 8.8274,8.70432 5.6219,-0.29253 8.7271,-6.32822 8.399,-12.34444 -0.2859,-5.26666 -3.3623,-11.3811 -7.2103,-17.0279 -5.752,-8.43825 -10.0161,-15.61525 -10.0161,-15.61525 z"
       id="path5048"
       style="display:inline;fill:#d40000;stroke:none"
       inkscape:connector-curvature="0" />
    <path
       d="m 3393.8386,154.88452 c -0.8799,-6.06009 -0.8575,-21.72579 -0.1386,-26.36005 2.219,-14.19709 7.6006,-20.69399 16.6154,-22.8141 8.7562,-2.06578 21.0565,0.23434 23.7543,12.09991 l -7.3196,0.14182 c -3.9589,-8.02268 -13.9762,-5.87988 -19.6196,-2.38848 -4.5018,2.77989 -6.5371,14.38844 -5.6658,15.10278 0,0 8.514,-6.35421 15.2266,-5.88576 14.3437,1.50569 20.26,14.04 19.7587,25.87414 -0.4565,14.23724 -4.9362,25.62281 -20.1403,26.37991 -14.4552,-0.56292 -21.0785,-8.50289 -22.4704,-22.15126 v 0 z m 35.6505,-3.75999 c 0.078,-9.87724 -4.3711,-17.28004 -12.7985,-18.09147 -8.4191,-0.81711 -16.9136,7.4628 -16.3262,17.5314 0.5876,10.11135 4.4713,18.61708 14.6835,18.57127 10.9833,-0.0436 14.3883,-10.97996 14.4412,-18.0112 z m 0,0"
       id="path5050"
       style="fill:#d40000;fill-opacity:1;stroke-width:1;stroke-miterlimit:4;stroke-dasharray:none"
       inkscape:connector-curvature="0" />
    <path
       d="m 3415.1272,235.53469 c 0,0 4.264,-7.177 10.016,-15.61525 3.848,-5.6468 6.9244,-11.76124 7.2103,-17.0279 0.3281,-6.01622 -2.7771,-12.05191 -8.3989,-12.34444 -5.6185,-0.29236 -7.8991,4.63878 -8.8274,8.70432 -0.9284,-4.06554 -3.2089,-8.99668 -8.8274,-8.70432 -5.6219,0.29253 -8.7271,6.32822 -8.399,12.34444 0.2859,5.26666 3.3623,11.3811 7.2103,17.0279 5.752,8.43825 10.0161,15.61525 10.0161,15.61525 z"
       id="path5052"
       style="display:inline;fill:#d40000;stroke:none"
       inkscape:connector-curvature="0" />
  </g>
</svg>
