<?xml version="1.0" encoding="UTF-8" standalone="no"?>
<!-- Created with Inkscape (http://www.inkscape.org/) -->

<svg
   id="svg10047"
   height="123.01011"
   width="78.999939"
   version="1.1"
   viewBox="0 0 78.999939 123.01011"
   inkscape:version="0.91 r13725"
   sodipodi:docname="ramino-stretch.svgz"
   xmlns:inkscape="http://www.inkscape.org/namespaces/inkscape"
   xmlns:sodipodi="http://sodipodi.sourceforge.net/DTD/sodipodi-0.dtd"
   xmlns="http://www.w3.org/2000/svg"
   xmlns:svg="http://www.w3.org/2000/svg"
   xmlns:rdf="http://www.w3.org/1999/02/22-rdf-syntax-ns#"
   xmlns:cc="http://creativecommons.org/ns#"
   xmlns:dc="http://purl.org/dc/elements/1.1/">
  <sodipodi:namedview
     pagecolor="#ffffff"
     bordercolor="#666666"
     borderopacity="1"
     objecttolerance="10"
     gridtolerance="10"
     guidetolerance="10"
     inkscape:pageopacity="0"
     inkscape:pageshadow="2"
     inkscape:window-width="1920"
     inkscape:window-height="1016"
     id="namedview1491"
     showgrid="false"
     inkscape:zoom="1.3479675"
     inkscape:cx="513.5"
     inkscape:cy="307.5"
     inkscape:window-x="0"
     inkscape:window-y="0"
     inkscape:window-maximized="1"
     inkscape:current-layer="svg10047"
     showguides="false"
     inkscape:guide-bbox="true"
     inkscape:snap-grids="true"
     inkscape:showpageshadow="2"
     inkscape:pagecheckerboard="0"
     inkscape:deskcolor="#d1d1d1" />
  <metadata
     id="metadata16869">
    <rdf:RDF>
      <cc:Work
         rdf:about="">
        <dc:format>image/svg+xml</dc:format>
        <dc:type
           rdf:resource="http://purl.org/dc/dcmitype/StillImage" />
        <dc:title />
      </cc:Work>
    </rdf:RDF>
  </metadata>
  <defs
     id="defs10049" />
  <g
     id="heart_2"
     transform="matrix(0.16458147,0,0,0.18223729,-93.749719,-13.673775)"
     inkscape:label="#heart_2">
    <rect
       transform="scale(-1)"
       style="display:inline;fill:#ffffff;fill-opacity:1;stroke:#000000;stroke-width:1.34162;stroke-miterlimit:4;stroke-dasharray:none;stroke-opacity:1"
       id="rect5492"
       y="-749.36163"
       x="-1048.9592"
       ry="23.039309"
       rx="22.895662"
       height="673.65802"
       width="478.66342" />
    <path
       d="m 809.62724,249.03496 c 0,0 10.0112,-16.74633 23.5158,-36.43557 9.0345,-13.17588 16.2573,-27.4429 16.9287,-39.73176 0.7702,-14.03786 -6.5203,-28.12114 -19.7194,-28.80371 -13.1912,-0.68217 -18.5455,10.82381 -20.7251,20.31009 -2.1797,-9.48628 -7.5339,-20.99226 -20.7251,-20.31009 -13.1991,0.68257 -20.4896,14.76585 -19.7194,28.80371 0.6713,12.28886 7.8941,26.55588 16.9286,39.73176 13.5045,19.68924 23.5159,36.43557 23.5159,36.43557 z"
       id="path5494"
       style="display:inline;fill:#d40000;stroke:none"
       inkscape:connector-curvature="0" />
    <path
       inkscape:connector-curvature="0"
       style="display:inline;fill:#d40000;stroke:none"
       id="path5500"
       d="m 809.62724,576.03501 c 0,0 -10.0112,16.7463 -23.5158,36.4356 -9.0345,13.1759 -16.2573,27.4429 -16.9287,39.7317 -0.7702,14.0379 6.5203,28.1212 19.7194,28.8037 13.1912,0.6822 18.5455,-10.8238 20.7251,-20.31 2.1797,9.4862 7.5339,20.9922 20.7251,20.31 13.1991,-0.6825 20.4896,-14.7658 19.7194,-28.8037 -0.6713,-12.2888 -7.8941,-26.5558 -16.9286,-39.7317 -13.5045,-19.6893 -23.5159,-36.4356 -23.5159,-36.4356 z" />
    <path
       d="m 604.12744,235.53497 c 0,0 4.264,-7.177 10.016,-15.61525 3.848,-5.6468 6.9244,-11.76124 7.2103,-17.0279 0.3281,-6.01622 -2.7771,-12.05191 -8.3989,-12.34444 -5.6185,-0.29236 -7.8991,4.63878 -8.8274,8.70432 -0.9284,-4.06554 -3.2089,-8.99668 -8.8274,-8.70432 -5.6219,0.29253 -8.7271,6.32822 -8.399,12.34444 0.2859,5.26666 3.3623,11.3811 7.2103,17.0279 5.752,8.43825 10.0161,15.61525 10.0161,15.61525 z"
       id="path5502"
       style="display:inline;fill:#d40000;stroke:none"
       inkscape:connector-curvature="0" />
    <path
       d="m 1015.1272,589.53018 c 0,0 -4.264,7.177 -10.016,15.61525 -3.848,5.6468 -6.92436,11.76124 -7.21026,17.0279 -0.3281,6.01622 2.77706,12.05191 8.39886,12.34444 5.6185,0.29236 7.8991,-4.63878 8.8274,-8.70432 0.9284,4.06554 3.2089,8.99668 8.8274,8.70432 5.6219,-0.29253 8.7271,-6.32822 8.399,-12.34444 -0.2859,-5.26666 -3.3623,-11.3811 -7.2103,-17.0279 -5.752,-8.43825 -10.0161,-15.61525 -10.0161,-15.61525 z"
       id="path5508"
       style="display:inline;fill:#d40000;stroke:none"
       inkscape:connector-curvature="0" />
    <path
       d="m 583.80076,176.88044 0.34821,-4.44001 c 1.09963,-13.71972 4.0256,-18.34823 20.62175,-32.671 8.05727,-6.94277 10.69936,-10.36844 11.06965,-14.34285 1.05524,-9.37419 -7.17743,-12.29978 -12.53957,-12.34277 -6.9492,-0.0632 -14.81158,4.19716 -11.05861,14.10001 l -7.79829,2.35135 c -1.56735,-9.23695 0.0454,-17.9027 7.34181,-21.74838 9.74439,-5.01426 22.23936,-3.04843 28.54823,4.8515 4.2402,5.29985 5.20903,12.63404 2.93442,18.37397 -6.6456,14.6627 -29.18855,21.11412 -31.04847,38.07973 h 24.915 v -9.44575 h 7.34181 v 17.38845 l -40.67594,-0.15491 z m 0,0"
       id="path15-5-4-5-2-7"
       style="fill:#d40000;fill-opacity:1"
       inkscape:connector-curvature="0" />
    <path
       d="m 1035.6007,648.18893 -0.3482,4.44001 c -1.0996,13.71972 -4.0256,18.34823 -20.6218,32.671 -8.0572,6.94277 -10.6993,10.36844 -11.0696,14.34285 -1.0552,9.37419 7.1774,12.29978 12.5396,12.34277 6.9492,0.0632 14.8115,-4.19716 11.0586,-14.10001 l 7.7983,-2.35135 c 1.5673,9.23695 -0.045,17.9027 -7.3418,21.74838 -9.7444,5.01426 -22.2394,3.04843 -28.54826,-4.8515 -4.2402,-5.29985 -5.20902,-12.63404 -2.93442,-18.37397 6.64558,-14.6627 29.18858,-21.11412 31.04848,-38.07973 h -24.915 v 9.44575 h -7.34182 v -17.38845 l 40.67592,0.15491 z m 0,0"
       id="path15-5-4-5-2-7-6"
       style="fill:#d40000;fill-opacity:1"
       inkscape:connector-curvature="0" />
    <path
       inkscape:connector-curvature="0"
       style="fill:#d40000;fill-opacity:1"
       id="path4650"
       d="m 624.60069,648.18893 -0.3482,4.44001 c -1.0996,13.71972 -4.0256,18.34823 -20.6218,32.671 -8.0572,6.94277 -10.6993,10.36844 -11.0696,14.34285 -1.0552,9.37419 7.1774,12.29978 12.5396,12.34277 6.9492,0.0632 14.8115,-4.19716 11.0586,-14.10001 l 7.7983,-2.35135 c 1.5673,9.23695 -0.045,17.9027 -7.3418,21.74838 -9.7444,5.01426 -22.2394,3.04843 -28.54826,-4.8515 -4.2402,-5.29985 -5.20902,-12.63404 -2.93442,-18.37397 6.64558,-14.6627 29.18858,-21.11412 31.04848,-38.07973 h -24.915 v 9.44575 h -7.34182 v -17.38845 l 40.67592,0.15491 z m 0,0" />
    <path
       inkscape:connector-curvature="0"
       style="display:inline;fill:#d40000;stroke:none"
       id="path4768"
       d="m 604.12488,589.53018 c 0,0 -4.264,7.177 -10.016,15.61525 -3.848,5.6468 -6.92436,11.76124 -7.21026,17.0279 -0.3281,6.01622 2.77706,12.05191 8.39886,12.34444 5.6185,0.29236 7.8991,-4.63878 8.8274,-8.70432 0.9284,4.06554 3.2089,8.99668 8.8274,8.70432 5.6219,-0.29253 8.7271,-6.32822 8.399,-12.34444 -0.2859,-5.26666 -3.3623,-11.3811 -7.2103,-17.0279 -5.752,-8.43825 -10.0161,-15.61525 -10.0161,-15.61525 z" />
    <path
       inkscape:connector-curvature="0"
       style="fill:#d40000;fill-opacity:1"
       id="path4852"
       d="m 994.92476,176.88044 0.34821,-4.44001 c 1.09963,-13.71972 4.0256,-18.34823 20.62173,-32.671 8.0573,-6.94277 10.6994,-10.36844 11.0697,-14.34285 1.0552,-9.37419 -7.1775,-12.29978 -12.5396,-12.34277 -6.9492,-0.0632 -14.81158,4.19716 -11.0586,14.10001 l -7.7983,2.35135 c -1.56735,-9.23695 0.0454,-17.9027 7.3418,-21.74838 9.7444,-5.01426 22.2394,-3.04843 28.5482,4.8515 4.2402,5.29985 5.2091,12.63404 2.9345,18.37397 -6.6456,14.6627 -29.1886,21.11412 -31.0485,38.07973 h 24.915 v -9.44575 h 7.3418 v 17.38845 l -40.67594,-0.15491 z m 0,0" />
    <path
       inkscape:connector-curvature="0"
       style="display:inline;fill:#d40000;stroke:none"
       id="path4962"
       d="m 1015.1273,235.53497 c 0,0 4.264,-7.177 10.016,-15.61525 3.848,-5.6468 6.9244,-11.76124 7.2103,-17.0279 0.3281,-6.01622 -2.7771,-12.05191 -8.3989,-12.34444 -5.6185,-0.29236 -7.8991,4.63878 -8.8274,8.70432 -0.9284,-4.06554 -3.2089,-8.99668 -8.8274,-8.70432 -5.6219,0.29253 -8.72714,6.32822 -8.39904,12.34444 0.2859,5.26666 3.36234,11.3811 7.21034,17.0279 5.752,8.43825 10.0161,15.61525 10.0161,15.61525 z" />
  </g>
</svg>
