<?xml version="1.0" encoding="UTF-8" standalone="no"?>
<!-- Created with Inkscape (http://www.inkscape.org/) -->

<svg
   id="svg10047"
   height="123.01138"
   width="78.999084"
   version="1.1"
   viewBox="0 0 78.999084 123.01138"
   inkscape:version="0.91 r13725"
   sodipodi:docname="ramino-stretch.svgz"
   xmlns:inkscape="http://www.inkscape.org/namespaces/inkscape"
   xmlns:sodipodi="http://sodipodi.sourceforge.net/DTD/sodipodi-0.dtd"
   xmlns="http://www.w3.org/2000/svg"
   xmlns:svg="http://www.w3.org/2000/svg"
   xmlns:rdf="http://www.w3.org/1999/02/22-rdf-syntax-ns#"
   xmlns:cc="http://creativecommons.org/ns#"
   xmlns:dc="http://purl.org/dc/elements/1.1/">
  <sodipodi:namedview
     pagecolor="#ffffff"
     bordercolor="#666666"
     borderopacity="1"
     objecttolerance="10"
     gridtolerance="10"
     guidetolerance="10"
     inkscape:pageopacity="0"
     inkscape:pageshadow="2"
     inkscape:window-width="1920"
     inkscape:window-height="1016"
     id="namedview1491"
     showgrid="false"
     inkscape:zoom="1.3479675"
     inkscape:cx="513.5"
     inkscape:cy="307.5"
     inkscape:window-x="0"
     inkscape:window-y="0"
     inkscape:window-maximized="1"
     inkscape:current-layer="svg10047"
     showguides="false"
     inkscape:guide-bbox="true"
     inkscape:snap-grids="true"
     inkscape:showpageshadow="2"
     inkscape:pagecheckerboard="0"
     inkscape:deskcolor="#d1d1d1" />
  <metadata
     id="metadata16869">
    <rdf:RDF>
      <cc:Work
         rdf:about="">
        <dc:format>image/svg+xml</dc:format>
        <dc:type
           rdf:resource="http://purl.org/dc/dcmitype/StillImage" />
        <dc:title />
      </cc:Work>
    </rdf:RDF>
  </metadata>
  <defs
     id="defs10049" />
  <g
     id="spade_6"
     transform="matrix(0.16458142,0,0,0.18224028,-488.74514,-423.71537)"
     inkscape:label="#spade_6">
    <rect
       transform="scale(-1)"
       style="display:inline;fill:#ffffff;fill-opacity:1;stroke:#000000;stroke-width:1.34079;stroke-miterlimit:4;stroke-dasharray:none;stroke-opacity:1"
       id="rect4038"
       y="-2999.3621"
       x="-3448.9548"
       ry="23.039198"
       rx="22.895458"
       height="673.65479"
       width="478.65921" />
    <path
       inkscape:connector-curvature="0"
       style="display:inline"
       id="path4040"
       d="m 3097.1259,2394.0333 c 20.1163,28.7812 41.6397,45.3438 41.9979,67.7979 0.1295,7.2711 -3.7984,19.6294 -16.0718,21.9949 -7.9615,1.5276 -18.925,-4.9383 -19.1537,-18.0743 0.043,-2.6153 -2.7603,-2.5473 -2.7344,1.0363 0.3755,10.3615 3.6429,22.4252 9.1376,32.2452 -8.7837,0 -17.5674,0 -26.3512,0 5.4947,-9.82 8.7643,-21.8837 9.1399,-32.2452 0.021,-3.5836 -2.769,-3.6516 -2.7344,-1.0363 -0.2288,13.136 -11.1923,19.6019 -19.1559,18.0743 -12.2735,-2.3655 -16.1906,-14.7238 -16.0719,-21.9949 0.3583,-22.4541 21.8817,-39.0167 41.9979,-67.7979 z" />
    <path
       d="m 3322.1258,2394.0333 c 20.1163,28.7812 41.6396,45.3438 41.9979,67.7979 0.1295,7.2711 -3.7984,19.6294 -16.0719,21.9949 -7.9614,1.5276 -18.9249,-4.9383 -19.1537,-18.0743 0.043,-2.6153 -2.7603,-2.5473 -2.7344,1.0363 0.3756,10.3615 3.643,22.4252 9.1377,32.2452 -8.7837,0 -17.5675,0 -26.3512,0 5.4947,-9.82 8.7643,-21.8837 9.1398,-32.2452 0.022,-3.5836 -2.7689,-3.6516 -2.7343,-1.0363 -0.2288,13.136 -11.1923,19.6019 -19.1559,18.0743 -12.2735,-2.3655 -16.1906,-14.7238 -16.0719,-21.9949 0.3583,-22.4541 21.8817,-39.0167 41.9979,-67.7979 z"
       id="path4042"
       style="display:inline"
       inkscape:connector-curvature="0" />
    <path
       d="m 3097.1259,2610.0333 c 20.1163,28.7812 41.6397,45.3438 41.9979,67.7979 0.1295,7.271 -3.7984,19.6294 -16.0718,21.9948 -7.9615,1.5276 -18.925,-4.9382 -19.1537,-18.0742 0.043,-2.6153 -2.7603,-2.5473 -2.7344,1.0362 0.3755,10.3616 3.6429,22.4253 9.1376,32.2453 -8.7837,0 -17.5674,0 -26.3512,0 5.4947,-9.82 8.7643,-21.8837 9.1399,-32.2453 0.021,-3.5835 -2.769,-3.6515 -2.7344,-1.0362 -0.2288,13.136 -11.1923,19.6018 -19.1559,18.0742 -12.2735,-2.3654 -16.1906,-14.7238 -16.0719,-21.9948 0.3583,-22.4541 21.8817,-39.0167 41.9979,-67.7979 z"
       id="path4044"
       style="display:inline"
       inkscape:connector-curvature="0" />
    <path
       inkscape:connector-curvature="0"
       style="display:inline"
       id="path4046"
       d="m 3322.1258,2610.0333 c 20.1163,28.7812 41.6396,45.3438 41.9979,67.7979 0.1295,7.271 -3.7984,19.6294 -16.0719,21.9948 -7.9614,1.5276 -18.9249,-4.9382 -19.1537,-18.0742 0.043,-2.6153 -2.7603,-2.5473 -2.7344,1.0362 0.3756,10.3616 3.643,22.4253 9.1377,32.2453 -8.7837,0 -17.5675,0 -26.3512,0 5.4947,-9.82 8.7643,-21.8837 9.1398,-32.2453 0.022,-3.5835 -2.7689,-3.6515 -2.7343,-1.0362 -0.2288,13.136 -11.1923,19.6018 -19.1559,18.0742 -12.2735,-2.3654 -16.1906,-14.7238 -16.0719,-21.9948 0.3583,-22.4541 21.8817,-39.0167 41.9979,-67.7979 z" />
    <path
       d="m 3097.1259,2931.0333 c 20.1163,-28.7812 41.6397,-45.3438 41.9979,-67.7979 0.1295,-7.271 -3.7984,-19.6294 -16.0718,-21.9948 -7.9615,-1.5276 -18.925,4.9382 -19.1537,18.0742 0.043,2.6153 -2.7603,2.5473 -2.7344,-1.0362 0.3755,-10.3616 3.6429,-22.4253 9.1376,-32.2453 -8.7837,0 -17.5674,0 -26.3512,0 5.4947,9.82 8.7643,21.8837 9.1399,32.2453 0.021,3.5835 -2.769,3.6515 -2.7344,1.0362 -0.2288,-13.136 -11.1923,-19.6018 -19.1559,-18.0742 -12.2735,2.3654 -16.1906,14.7238 -16.0719,21.9948 0.3583,22.4541 21.8817,39.0167 41.9979,67.7979 z"
       id="path4048"
       style="display:inline"
       inkscape:connector-curvature="0" />
    <path
       inkscape:connector-curvature="0"
       style="display:inline"
       id="path4050"
       d="m 3322.1258,2931.0333 c 20.1163,-28.7812 41.6396,-45.3438 41.9979,-67.7979 0.1295,-7.271 -3.7984,-19.6294 -16.0719,-21.9948 -7.9614,-1.5276 -18.9249,4.9382 -19.1537,18.0742 0.043,2.6153 -2.7603,2.5473 -2.7344,-1.0362 0.3756,-10.3616 3.643,-22.4253 9.1377,-32.2453 -8.7837,0 -17.5675,0 -26.3512,0 5.4947,9.82 8.7643,21.8837 9.1398,32.2453 0.022,3.5835 -2.7689,3.6515 -2.7343,1.0362 -0.2288,-13.136 -11.1923,-19.6018 -19.1559,-18.0742 -12.2735,2.3654 -16.1906,14.7238 -16.0719,21.9948 0.3583,22.4541 21.8817,39.0167 41.9979,67.7979 z" />
    <path
       inkscape:connector-curvature="0"
       style="display:inline"
       id="path4054"
       d="m 3004.1254,2440.5333 c 8.6211,12.3348 17.8452,19.433 17.9987,29.0562 0.056,3.1162 -1.6278,8.4126 -6.8877,9.4264 -3.4121,0.6547 -8.1106,-2.1164 -8.2086,-7.7461 0.018,-1.1208 -1.183,-1.0917 -1.1719,0.4441 0.1609,4.4407 1.5612,9.6108 3.9161,13.8194 -3.7644,0 -7.5288,0 -11.2932,0 2.3548,-4.2086 3.7561,-9.3787 3.917,-13.8194 0.01,-1.5358 -1.1867,-1.5649 -1.1719,-0.4441 -0.098,5.6297 -4.7966,8.4008 -8.2094,7.7461 -5.26,-1.0138 -6.9388,-6.3102 -6.8879,-9.4264 0.1536,-9.6232 9.3777,-16.7214 17.9988,-29.0562 z" />
    <path
       inkscape:connector-curvature="0"
       style="display:inline"
       id="path4056"
       d="m 3415.1255,2884.5333 c -8.6211,-12.3348 -17.8452,-19.433 -17.9987,-29.0562 -0.056,-3.1162 1.6278,-8.4126 6.8877,-9.4264 3.4121,-0.6547 8.1106,2.1164 8.2086,7.7461 -0.018,1.1208 1.183,1.0917 1.1719,-0.4441 -0.1609,-4.4407 -1.5612,-9.6108 -3.9161,-13.8194 3.7644,0 7.5288,0 11.2932,0 -2.3548,4.2086 -3.7561,9.3787 -3.917,13.8194 -0.01,1.5358 1.1867,1.5649 1.1719,0.4441 0.098,-5.6297 4.7966,-8.4008 8.2093,-7.7461 5.26,1.0138 6.9388,6.3102 6.8879,9.4264 -0.1536,9.6232 -9.3777,16.7214 -17.9987,29.0562 z" />
    <path
       inkscape:connector-curvature="0"
       style="fill:#000000;fill-opacity:1;stroke-width:1;stroke-miterlimit:4;stroke-dasharray:none"
       id="path5012"
       d="m 2982.7123,2404.8832 c -0.8799,-6.0601 -0.8575,-21.7258 -0.1386,-26.3601 2.219,-14.1971 7.6006,-20.694 16.6154,-22.8141 8.7562,-2.0658 21.0565,0.2343 23.7543,12.0999 l -7.3196,0.1418 c -3.9589,-8.0226 -13.9762,-5.8798 -19.6196,-2.3884 -4.5018,2.7798 -6.5371,14.3884 -5.6658,15.1027 0,0 8.514,-6.3542 15.2266,-5.8857 14.3437,1.5057 20.26,14.04 19.7587,25.8741 -0.4565,14.2373 -4.9362,25.6228 -20.1403,26.3799 -14.4552,-0.5629 -21.0785,-8.5029 -22.4704,-22.1512 v 0 z m 35.6505,-3.76 c 0.078,-9.8773 -4.3711,-17.2801 -12.7985,-18.0915 -8.4191,-0.8171 -16.9136,7.4628 -16.3262,17.5314 0.5876,10.1113 4.4713,18.6171 14.6835,18.5713 10.9833,-0.044 14.3883,-10.98 14.4412,-18.0112 z m 0,0" />
    <path
       inkscape:connector-curvature="0"
       style="fill:#000000;fill-opacity:1;stroke-width:1;stroke-miterlimit:4;stroke-dasharray:none"
       id="path5068"
       d="m 3435.8073,2920.1835 c 0.8799,6.0601 0.8575,21.7258 0.1386,26.36 -2.219,14.1971 -7.6006,20.694 -16.6154,22.8141 -8.7562,2.0658 -21.0565,-0.2343 -23.7543,-12.0999 l 7.3196,-0.1418 c 3.9589,8.0227 13.9762,5.8799 19.6196,2.3885 4.5018,-2.7799 6.5371,-14.3885 5.6658,-15.1028 0,0 -8.514,6.3542 -15.2266,5.8858 -14.3437,-1.5057 -20.26,-14.04 -19.7587,-25.8742 0.4565,-14.2372 4.9362,-25.6228 20.1403,-26.3799 14.4552,0.5629 21.0785,8.5029 22.4704,22.1513 v 0 z m -35.6505,3.76 c -0.078,9.8772 4.3711,17.28 12.7985,18.0914 8.4191,0.8171 16.9136,-7.4628 16.3262,-17.5314 -0.5876,-10.1113 -4.4713,-18.617 -14.6835,-18.5712 -10.9833,0.044 -14.3883,10.9799 -14.4412,18.0112 z m 0,0" />
    <path
       d="m 3024.8096,2920.1848 c 0.8799,6.0601 0.8575,21.7258 0.1386,26.36 -2.219,14.1971 -7.6006,20.694 -16.6154,22.8141 -8.7562,2.0658 -21.0565,-0.2343 -23.7543,-12.0999 l 7.3196,-0.1418 c 3.9589,8.0227 13.9762,5.8799 19.6196,2.3885 4.5018,-2.7799 6.5371,-14.3885 5.6658,-15.1028 0,0 -8.514,6.3542 -15.2266,5.8858 -14.3437,-1.5057 -20.26,-14.04 -19.7587,-25.8742 0.4565,-14.2372 4.9362,-25.6228 20.1403,-26.3799 14.4552,0.5629 21.0785,8.5029 22.4704,22.1513 v 0 z m -35.6505,3.76 c -0.078,9.8772 4.3711,17.28 12.7985,18.0914 8.4191,0.8171 16.9136,-7.4628 16.3262,-17.5314 -0.5876,-10.1113 -4.4713,-18.617 -14.6835,-18.5712 -10.9833,0.044 -14.3883,10.9799 -14.4412,18.0112 z m 0,0"
       id="path4732"
       style="fill:#000000;fill-opacity:1;stroke-width:1;stroke-miterlimit:4;stroke-dasharray:none"
       inkscape:connector-curvature="0" />
    <path
       d="m 3393.8386,2404.8847 c -0.8799,-6.0601 -0.8575,-21.7258 -0.1386,-26.3601 2.219,-14.1971 7.6006,-20.694 16.6154,-22.8141 8.7562,-2.0657 21.0565,0.2344 23.7543,12.0999 l -7.3196,0.1419 c -3.9589,-8.0227 -13.9762,-5.8799 -19.6196,-2.3885 -4.5018,2.7799 -6.5371,14.3884 -5.6658,15.1028 0,0 8.514,-6.3542 15.2266,-5.8858 14.3437,1.5057 20.26,14.04 19.7587,25.8741 -0.4565,14.2373 -4.9362,25.6229 -20.1403,26.38 -14.4552,-0.563 -21.0785,-8.5029 -22.4704,-22.1513 v 0 z m 35.6505,-3.76 c 0.078,-9.8772 -4.3711,-17.28 -12.7985,-18.0915 -8.4191,-0.8171 -16.9136,7.4628 -16.3262,17.5314 0.5876,10.1114 4.4713,18.6171 14.6835,18.5713 10.9833,-0.044 14.3883,-10.98 14.4412,-18.0112 z m 0,0"
       id="path4928"
       style="fill:#000000;fill-opacity:1;stroke-width:1;stroke-miterlimit:4;stroke-dasharray:none"
       inkscape:connector-curvature="0" />
    <path
       d="m 3408.8373,2440.5333 c 8.6211,12.3348 17.8452,19.433 17.9987,29.0562 0.056,3.1162 -1.6278,8.4126 -6.8877,9.4264 -3.4121,0.6547 -8.1106,-2.1164 -8.2086,-7.7461 0.018,-1.1208 -1.183,-1.0917 -1.1719,0.4441 0.1609,4.4407 1.5612,9.6108 3.9161,13.8194 -3.7644,0 -7.5288,0 -11.2932,0 2.3548,-4.2086 3.7561,-9.3787 3.917,-13.8194 0.01,-1.5358 -1.1867,-1.5649 -1.1719,-0.4441 -0.098,5.6297 -4.7966,8.4008 -8.2094,7.7461 -5.26,-1.0138 -6.9388,-6.3102 -6.8879,-9.4264 0.1536,-9.6232 9.3777,-16.7214 17.9988,-29.0562 z"
       id="path5077"
       style="display:inline"
       inkscape:connector-curvature="0" />
    <path
       d="m 3010.0089,2884.5333 c -8.6211,-12.3348 -17.8452,-19.433 -17.9987,-29.0562 -0.056,-3.1162 1.6278,-8.4126 6.8877,-9.4264 3.4121,-0.6547 8.1106,2.1164 8.2086,7.7461 -0.018,1.1208 1.183,1.0917 1.1719,-0.4441 -0.1609,-4.4407 -1.5612,-9.6108 -3.9161,-13.8194 3.7644,0 7.5288,0 11.2932,0 -2.3548,4.2086 -3.7561,9.3787 -3.917,13.8194 -0.01,1.5358 1.1867,1.5649 1.1719,0.4441 0.098,-5.6297 4.7966,-8.4008 8.2093,-7.7461 5.26,1.0138 6.9388,6.3102 6.8879,9.4264 -0.1536,9.6232 -9.3777,16.7214 -17.9987,29.0562 z"
       id="path5103"
       style="display:inline"
       inkscape:connector-curvature="0" />
  </g>
</svg>
