<?xml version="1.0" encoding="UTF-8" standalone="no"?>
<!-- Created with Inkscape (http://www.inkscape.org/) -->

<svg
   id="svg10047"
   height="123.01138"
   width="78.999084"
   version="1.1"
   viewBox="0 0 78.999084 123.01138"
   inkscape:version="0.91 r13725"
   sodipodi:docname="ramino-stretch.svgz"
   xmlns:inkscape="http://www.inkscape.org/namespaces/inkscape"
   xmlns:sodipodi="http://sodipodi.sourceforge.net/DTD/sodipodi-0.dtd"
   xmlns="http://www.w3.org/2000/svg"
   xmlns:svg="http://www.w3.org/2000/svg"
   xmlns:rdf="http://www.w3.org/1999/02/22-rdf-syntax-ns#"
   xmlns:cc="http://creativecommons.org/ns#"
   xmlns:dc="http://purl.org/dc/elements/1.1/">
  <sodipodi:namedview
     pagecolor="#ffffff"
     bordercolor="#666666"
     borderopacity="1"
     objecttolerance="10"
     gridtolerance="10"
     guidetolerance="10"
     inkscape:pageopacity="0"
     inkscape:pageshadow="2"
     inkscape:window-width="1920"
     inkscape:window-height="1016"
     id="namedview1491"
     showgrid="false"
     inkscape:zoom="1.3479675"
     inkscape:cx="513.5"
     inkscape:cy="307.5"
     inkscape:window-x="0"
     inkscape:window-y="0"
     inkscape:window-maximized="1"
     inkscape:current-layer="svg10047"
     showguides="false"
     inkscape:guide-bbox="true"
     inkscape:snap-grids="true"
     inkscape:showpageshadow="2"
     inkscape:pagecheckerboard="0"
     inkscape:deskcolor="#d1d1d1" />
  <metadata
     id="metadata16869">
    <rdf:RDF>
      <cc:Work
         rdf:about="">
        <dc:format>image/svg+xml</dc:format>
        <dc:type
           rdf:resource="http://purl.org/dc/dcmitype/StillImage" />
        <dc:title />
      </cc:Work>
    </rdf:RDF>
  </metadata>
  <defs
     id="defs10049" />
  <g
     id="spade_4"
     transform="matrix(0.16458142,0,0,0.18224028,-291.24743,-423.71537)"
     inkscape:label="#spade_4">
    <rect
       transform="scale(-1)"
       style="display:inline;fill:#ffffff;fill-opacity:1;stroke:#000000;stroke-width:1.34079;stroke-miterlimit:4;stroke-dasharray:none;stroke-opacity:1"
       id="rect4078"
       y="-2999.3621"
       x="-2248.9548"
       ry="23.039198"
       rx="22.895458"
       height="673.65479"
       width="478.65921" />
    <path
       inkscape:connector-curvature="0"
       style="display:inline"
       id="path4080"
       d="m 1897.1259,2394.0333 c 20.1163,28.7812 41.6397,45.3438 41.9979,67.7979 0.1295,7.2711 -3.7984,19.6294 -16.0718,21.9949 -7.9615,1.5276 -18.925,-4.9383 -19.1537,-18.0743 0.043,-2.6153 -2.7603,-2.5473 -2.7344,1.0363 0.3755,10.3615 3.6429,22.4252 9.1376,32.2452 -8.7837,0 -17.5674,0 -26.3512,0 5.4947,-9.82 8.7643,-21.8837 9.1399,-32.2452 0.021,-3.5836 -2.769,-3.6516 -2.7344,-1.0363 -0.2288,13.136 -11.1923,19.6019 -19.1559,18.0743 -12.2735,-2.3655 -16.1906,-14.7238 -16.0719,-21.9949 0.3583,-22.4541 21.8817,-39.0167 41.9979,-67.7979 z" />
    <path
       d="m 2122.1258,2394.0333 c 20.1163,28.7812 41.6396,45.3438 41.9979,67.7979 0.1295,7.2711 -3.7984,19.6294 -16.0719,21.9949 -7.9614,1.5276 -18.9249,-4.9383 -19.1537,-18.0743 0.043,-2.6153 -2.7603,-2.5473 -2.7344,1.0363 0.3756,10.3615 3.643,22.4252 9.1377,32.2452 -8.7837,0 -17.5675,0 -26.3512,0 5.4947,-9.82 8.7643,-21.8837 9.1398,-32.2452 0.022,-3.5836 -2.7689,-3.6516 -2.7343,-1.0363 -0.2288,13.136 -11.1923,19.6019 -19.1559,18.0743 -12.2735,-2.3655 -16.1906,-14.7238 -16.0719,-21.9949 0.3583,-22.4541 21.8817,-39.0167 41.9979,-67.7979 z"
       id="path4082"
       style="display:inline"
       inkscape:connector-curvature="0" />
    <path
       d="m 1897.1259,2931.0333 c 20.1163,-28.7812 41.6397,-45.3438 41.9979,-67.7979 0.1295,-7.271 -3.7984,-19.6294 -16.0718,-21.9948 -7.9615,-1.5276 -18.925,4.9382 -19.1537,18.0742 0.043,2.6153 -2.7603,2.5473 -2.7344,-1.0362 0.3755,-10.3616 3.6429,-22.4253 9.1376,-32.2453 -8.7837,0 -17.5674,0 -26.3512,0 5.4947,9.82 8.7643,21.8837 9.1399,32.2453 0.021,3.5835 -2.769,3.6515 -2.7344,1.0362 -0.2288,-13.136 -11.1923,-19.6018 -19.1559,-18.0742 -12.2735,2.3654 -16.1906,14.7238 -16.0719,21.9948 0.3583,22.4541 21.8817,39.0167 41.9979,67.7979 z"
       id="path4086"
       style="display:inline"
       inkscape:connector-curvature="0" />
    <path
       inkscape:connector-curvature="0"
       style="display:inline"
       id="path4088"
       d="m 2122.1258,2931.0333 c 20.1163,-28.7812 41.6396,-45.3438 41.9979,-67.7979 0.1295,-7.271 -3.7984,-19.6294 -16.0719,-21.9948 -7.9614,-1.5276 -18.9249,4.9382 -19.1537,18.0742 0.043,2.6153 -2.7603,2.5473 -2.7344,-1.0362 0.3756,-10.3616 3.643,-22.4253 9.1377,-32.2453 -8.7837,0 -17.5675,0 -26.3512,0 5.4947,9.82 8.7643,21.8837 9.1398,32.2453 0.022,3.5835 -2.7689,3.6515 -2.7343,1.0362 -0.2288,-13.136 -11.1923,-19.6018 -19.1559,-18.0742 -12.2735,2.3654 -16.1906,14.7238 -16.0719,21.9948 0.3583,22.4541 21.8817,39.0167 41.9979,67.7979 z" />
    <path
       inkscape:connector-curvature="0"
       style="display:inline"
       id="path4090"
       d="m 1804.1254,2440.5333 c 8.6211,12.3348 17.8452,19.433 17.9987,29.0562 0.056,3.1162 -1.6278,8.4126 -6.8877,9.4264 -3.4121,0.6547 -8.1106,-2.1164 -8.2086,-7.7461 0.018,-1.1208 -1.183,-1.0917 -1.1719,0.4441 0.1609,4.4407 1.5612,9.6108 3.9161,13.8194 -3.7644,0 -7.5288,0 -11.2932,0 2.3548,-4.2086 3.7561,-9.3787 3.917,-13.8194 0.01,-1.5358 -1.1867,-1.5649 -1.1719,-0.4441 -0.098,5.6297 -4.7966,8.4008 -8.2094,7.7461 -5.26,-1.0138 -6.9388,-6.3102 -6.8879,-9.4264 0.1536,-9.6232 9.3777,-16.7214 17.9988,-29.0562 z" />
    <path
       inkscape:connector-curvature="0"
       style="display:inline"
       id="path4092"
       d="m 2215.1255,2884.5333 c -8.6211,-12.3348 -17.8452,-19.433 -17.9987,-29.0562 -0.056,-3.1162 1.6278,-8.4126 6.8877,-9.4264 3.4121,-0.6547 8.1106,2.1164 8.2086,7.7461 -0.018,1.1208 1.183,1.0917 1.1719,-0.4441 -0.1609,-4.4407 -1.5612,-9.6108 -3.9161,-13.8194 3.7644,0 7.5288,0 11.2932,0 -2.3548,4.2086 -3.7561,9.3787 -3.917,13.8194 -0.01,1.5358 1.1867,1.5649 1.1719,0.4441 0.098,-5.6297 4.7966,-8.4008 8.2093,-7.7461 5.26,1.0138 6.9388,6.3102 6.8879,9.4264 -0.1536,9.6232 -9.3777,16.7214 -17.9987,29.0562 z" />
    <path
       inkscape:connector-curvature="0"
       style="fill:#000000;fill-opacity:1"
       id="path5016"
       d="m 1804.058,2427.0244 v -6.3634 h 5.6998 v -10.4968 h -28.5101 v -7.4065 l 30.8503,-47.7702 5.0395,0.026 v 47.7445 h 8.728 v 7.4065 h -8.728 l -0.1647,10.4968 h 4.7777 v 6.3718 h -17.6927 z m 5.6998,-54.548 -19.587,30.2842 h 19.587 z m 0,0" />
    <path
       inkscape:connector-curvature="0"
       style="fill:#000000;fill-opacity:1"
       id="path5072"
       d="m 2214.1793,2897.9964 v 6.3633 h -5.6998 v 10.4968 h 28.5101 v 7.4065 l -30.8503,47.7702 -5.0395,-0.026 v -47.7445 h -8.728 v -7.4064 h 8.728 l 0.1647,-10.4968 h -4.7777 v -6.3719 h 17.6927 z m -5.6998,54.5479 19.587,-30.2842 h -19.587 z m 0,0" />
    <path
       d="m 1803.1794,2897.9977 v 6.3633 h -5.6998 v 10.4968 h 28.5101 v 7.4065 l -30.8503,47.7702 -5.0395,-0.026 v -47.7445 h -8.728 v -7.4064 h 8.728 l 0.1647,-10.4968 h -4.7777 v -6.3719 h 17.6927 z m -5.6998,54.5479 19.587,-30.2842 h -19.587 z m 0,0"
       id="path4736"
       style="fill:#000000;fill-opacity:1"
       inkscape:connector-curvature="0" />
    <path
       d="m 2215.1821,2427.0259 v -6.3633 h 5.6998 v -10.4968 h -28.5101 v -7.4065 l 30.8503,-47.7702 5.0395,0.026 v 47.7444 h 8.728 v 7.4065 h -8.728 l -0.1647,10.4968 h 4.7777 v 6.3719 h -17.6927 z m 5.6998,-54.5479 -19.587,30.2841 h 19.587 z m 0,0"
       id="path4932"
       style="fill:#000000;fill-opacity:1"
       inkscape:connector-curvature="0" />
    <path
       d="m 2208.8373,2440.5333 c 8.6211,12.3348 17.8452,19.433 17.9987,29.0562 0.056,3.1162 -1.6278,8.4126 -6.8877,9.4264 -3.4121,0.6547 -8.1106,-2.1164 -8.2086,-7.7461 0.018,-1.1208 -1.183,-1.0917 -1.1719,0.4441 0.1609,4.4407 1.5612,9.6108 3.9161,13.8194 -3.7644,0 -7.5288,0 -11.2932,0 2.3548,-4.2086 3.7561,-9.3787 3.917,-13.8194 0.01,-1.5358 -1.1867,-1.5649 -1.1719,-0.4441 -0.098,5.6297 -4.7966,8.4008 -8.2094,7.7461 -5.26,-1.0138 -6.9388,-6.3102 -6.8879,-9.4264 0.1536,-9.6232 9.3777,-16.7214 17.9988,-29.0562 z"
       id="path5081"
       style="display:inline"
       inkscape:connector-curvature="0" />
    <path
       d="m 1810.0089,2884.5333 c -8.6211,-12.3348 -17.8452,-19.433 -17.9987,-29.0562 -0.056,-3.1162 1.6278,-8.4126 6.8877,-9.4264 3.4121,-0.6547 8.1106,2.1164 8.2086,7.7461 -0.018,1.1208 1.183,1.0917 1.1719,-0.4441 -0.1609,-4.4407 -1.5612,-9.6108 -3.9161,-13.8194 3.7644,0 7.5288,0 11.2932,0 -2.3548,4.2086 -3.7561,9.3787 -3.917,13.8194 -0.01,1.5358 1.1867,1.5649 1.1719,0.4441 0.098,-5.6297 4.7966,-8.4008 8.2093,-7.7461 5.26,1.0138 6.9388,6.3102 6.8879,9.4264 -0.1536,9.6232 -9.3777,16.7214 -17.9987,29.0562 z"
       id="path5107"
       style="display:inline"
       inkscape:connector-curvature="0" />
  </g>
</svg>
