<?xml version="1.0" encoding="UTF-8" standalone="no"?>
<!-- Created with Inkscape (http://www.inkscape.org/) -->

<svg
   id="svg10047"
   height="123.01138"
   width="78.999084"
   version="1.1"
   viewBox="0 0 78.999084 123.01138"
   inkscape:version="0.91 r13725"
   sodipodi:docname="ramino-stretch.svgz"
   xmlns:inkscape="http://www.inkscape.org/namespaces/inkscape"
   xmlns:sodipodi="http://sodipodi.sourceforge.net/DTD/sodipodi-0.dtd"
   xmlns="http://www.w3.org/2000/svg"
   xmlns:svg="http://www.w3.org/2000/svg"
   xmlns:rdf="http://www.w3.org/1999/02/22-rdf-syntax-ns#"
   xmlns:cc="http://creativecommons.org/ns#"
   xmlns:dc="http://purl.org/dc/elements/1.1/">
  <sodipodi:namedview
     pagecolor="#ffffff"
     bordercolor="#666666"
     borderopacity="1"
     objecttolerance="10"
     gridtolerance="10"
     guidetolerance="10"
     inkscape:pageopacity="0"
     inkscape:pageshadow="2"
     inkscape:window-width="1920"
     inkscape:window-height="1016"
     id="namedview1491"
     showgrid="false"
     inkscape:zoom="1.3479675"
     inkscape:cx="513.5"
     inkscape:cy="307.5"
     inkscape:window-x="0"
     inkscape:window-y="0"
     inkscape:window-maximized="1"
     inkscape:current-layer="svg10047"
     showguides="false"
     inkscape:guide-bbox="true"
     inkscape:snap-grids="true"
     inkscape:showpageshadow="2"
     inkscape:pagecheckerboard="0"
     inkscape:deskcolor="#d1d1d1" />
  <metadata
     id="metadata16869">
    <rdf:RDF>
      <cc:Work
         rdf:about="">
        <dc:format>image/svg+xml</dc:format>
        <dc:type
           rdf:resource="http://purl.org/dc/dcmitype/StillImage" />
        <dc:title />
      </cc:Work>
    </rdf:RDF>
  </metadata>
  <defs
     id="defs10049" />
  <g
     id="spade_2"
     transform="matrix(0.16458142,0,0,0.18224028,-93.749689,-423.71537)"
     inkscape:label="#spade_2">
    <rect
       transform="scale(-1)"
       style="display:inline;fill:#ffffff;fill-opacity:1;stroke:#000000;stroke-width:1.34079;stroke-miterlimit:4;stroke-dasharray:none;stroke-opacity:1"
       id="rect4111"
       y="-2999.3621"
       x="-1048.9546"
       ry="23.039198"
       rx="22.895458"
       height="673.65479"
       width="478.65921" />
    <path
       inkscape:connector-curvature="0"
       style="display:inline"
       id="path4113"
       d="m 809.62539,2394.0333 c 20.1163,28.7812 41.6397,45.3438 41.9979,67.7979 0.1295,7.2711 -3.7984,19.6294 -16.0718,21.9949 -7.9615,1.5276 -18.925,-4.9383 -19.1537,-18.0743 0.043,-2.6153 -2.7603,-2.5473 -2.7344,1.0363 0.3755,10.3615 3.6429,22.4252 9.1376,32.2452 -8.7837,0 -17.5674,0 -26.3512,0 5.4947,-9.82 8.7643,-21.8837 9.1399,-32.2452 0.021,-3.5836 -2.769,-3.6516 -2.7344,-1.0363 -0.2288,13.136 -11.1923,19.6019 -19.1559,18.0743 -12.2735,-2.3655 -16.1906,-14.7238 -16.0719,-21.9949 0.3583,-22.4541 21.8817,-39.0167 41.9979,-67.7979 z" />
    <path
       d="m 809.62539,2931.0333 c 20.1163,-28.7812 41.6397,-45.3438 41.9979,-67.7979 0.1295,-7.271 -3.7984,-19.6294 -16.0718,-21.9948 -7.9615,-1.5276 -18.925,4.9382 -19.1537,18.0742 0.043,2.6153 -2.7603,2.5473 -2.7344,-1.0362 0.3755,-10.3616 3.6429,-22.4253 9.1376,-32.2453 -8.7837,0 -17.5674,0 -26.3512,0 5.4947,9.82 8.7643,21.8837 9.1399,32.2453 0.021,3.5835 -2.769,3.6515 -2.7344,1.0362 -0.2288,-13.136 -11.1923,-19.6018 -19.1559,-18.0742 -12.2735,2.3654 -16.1906,14.7238 -16.0719,21.9948 0.3583,22.4541 21.8817,39.0167 41.9979,67.7979 z"
       id="path4115"
       style="display:inline"
       inkscape:connector-curvature="0" />
    <path
       inkscape:connector-curvature="0"
       style="display:inline"
       id="path4117"
       d="m 604.12539,2440.5333 c 8.6211,12.3348 17.8452,19.433 17.9987,29.0562 0.056,3.1162 -1.6278,8.4126 -6.8877,9.4264 -3.4121,0.6547 -8.1106,-2.1164 -8.2086,-7.7461 0.018,-1.1208 -1.183,-1.0917 -1.1719,0.4441 0.1609,4.4407 1.5612,9.6108 3.9161,13.8194 -3.7644,0 -7.5288,0 -11.2932,0 2.3548,-4.2086 3.7561,-9.3787 3.917,-13.8194 0.01,-1.5358 -1.1867,-1.5649 -1.1719,-0.4441 -0.098,5.6297 -4.7966,8.4008 -8.2094,7.7461 -5.26,-1.0138 -6.9388,-6.3102 -6.8879,-9.4264 0.1536,-9.6232 9.3777,-16.7214 17.9988,-29.0562 z" />
    <path
       inkscape:connector-curvature="0"
       style="display:inline"
       id="path4119"
       d="m 1015.1254,2884.5333 c -8.6211,-12.3348 -17.84511,-19.433 -17.99861,-29.0562 -0.056,-3.1162 1.6278,-8.4126 6.88771,-9.4264 3.412,-0.6547 8.1105,2.1164 8.2085,7.7461 -0.018,1.1208 1.183,1.0917 1.1719,-0.4441 -0.1609,-4.4407 -1.5612,-9.6108 -3.9161,-13.8194 3.7644,0 7.5288,0 11.2932,0 -2.3548,4.2086 -3.7561,9.3787 -3.917,13.8194 -0.01,1.5358 1.1867,1.5649 1.1719,0.4441 0.098,-5.6297 4.7966,-8.4008 8.2093,-7.7461 5.26,1.0138 6.9388,6.3102 6.8879,9.4264 -0.1536,9.6232 -9.3777,16.7214 -17.9987,29.0562 z" />
    <path
       inkscape:connector-curvature="0"
       style="fill:#000000;fill-opacity:1"
       id="path5020"
       d="m 583.80069,2426.8791 0.3482,-4.44 c 1.0996,-13.7198 4.0256,-18.3483 20.6217,-32.671 8.0573,-6.9428 10.6994,-10.3685 11.0697,-14.3429 1.0552,-9.3742 -7.1774,-12.2998 -12.5396,-12.3428 -6.9492,-0.063 -14.8116,4.1972 -11.0586,14.1001 l -7.7983,2.3513 c -1.5673,-9.2369 0.045,-17.9027 7.3418,-21.7484 9.7444,-5.0142 22.2394,-3.0484 28.5483,4.8515 4.2402,5.2999 5.209,12.6341 2.9344,18.374 -6.6456,14.6627 -29.1886,21.1141 -31.0485,38.0797 h 24.915 v -9.4457 h 7.3418 v 17.3884 l -40.6759,-0.1549 z m 0,0" />
    <path
       inkscape:connector-curvature="0"
       style="fill:#000000;fill-opacity:1"
       id="path5076"
       d="m 1035.6006,2898.1875 -0.3482,4.44 c -1.0996,13.7198 -4.0256,18.3483 -20.6218,32.671 -8.0572,6.9428 -10.6993,10.3685 -11.0696,14.3429 -1.0552,9.3742 7.1774,12.2998 12.5396,12.3428 6.9492,0.063 14.8115,-4.1972 11.0586,-14.1 l 7.7983,-2.3514 c 1.5673,9.237 -0.045,17.9027 -7.3418,21.7484 -9.7444,5.0142 -22.2394,3.0484 -28.54821,-4.8515 -4.2402,-5.2999 -5.2091,-12.6341 -2.9345,-18.374 6.64561,-14.6627 29.18861,-21.1141 31.04851,-38.0797 h -24.915 v 9.4457 h -7.34181 v -17.3884 l 40.67591,0.1549 z m 0,0" />
    <path
       d="m 624.60069,2898.1889 -0.3482,4.44 c -1.0996,13.7197 -4.0256,18.3482 -20.6218,32.671 -8.0572,6.9428 -10.6993,10.3684 -11.0696,14.3428 -1.0552,9.3742 7.1774,12.2998 12.5396,12.3428 6.9492,0.063 14.8115,-4.1971 11.0586,-14.1 l 7.7983,-2.3513 c 1.5673,9.2369 -0.045,17.9027 -7.3418,21.7483 -9.7444,5.0143 -22.2394,3.0485 -28.54826,-4.8515 -4.2402,-5.2998 -5.20902,-12.634 -2.93442,-18.3739 6.64558,-14.6627 29.18858,-21.1142 31.04848,-38.0798 h -24.915 v 9.4458 h -7.34182 v -17.3885 l 40.67592,0.1549 z m 0,0"
       id="path4740"
       style="fill:#000000;fill-opacity:1"
       inkscape:connector-curvature="0" />
    <path
       d="m 994.92476,2426.8806 0.34821,-4.44 c 1.09963,-13.7197 4.0256,-18.3482 20.62173,-32.671 8.0573,-6.9428 10.6994,-10.3684 11.0697,-14.3429 1.0552,-9.3741 -7.1775,-12.2997 -12.5396,-12.3427 -6.9492,-0.063 -14.81158,4.1971 -11.0586,14.1 l -7.7983,2.3513 c -1.56735,-9.2369 0.0454,-17.9027 7.3418,-21.7483 9.7444,-5.0143 22.2394,-3.0485 28.5482,4.8515 4.2402,5.2998 5.2091,12.634 2.9345,18.3739 -6.6456,14.6627 -29.1886,21.1141 -31.0485,38.0798 h 24.915 v -9.4458 h 7.3418 v 17.3885 l -40.67594,-0.155 z m 0,0"
       id="path4936"
       style="fill:#000000;fill-opacity:1"
       inkscape:connector-curvature="0" />
    <path
       d="m 1008.8372,2440.5333 c 8.6211,12.3348 17.8452,19.433 17.9987,29.0562 0.056,3.1162 -1.6278,8.4126 -6.8877,9.4264 -3.4121,0.6547 -8.1106,-2.1164 -8.2086,-7.7461 0.018,-1.1208 -1.183,-1.0917 -1.1719,0.4441 0.1609,4.4407 1.5612,9.6108 3.9161,13.8194 -3.7644,0 -7.5288,0 -11.2932,0 2.3548,-4.2086 3.7561,-9.3787 3.917,-13.8194 0.01,-1.5358 -1.1867,-1.5649 -1.1719,-0.4441 -0.098,5.6297 -4.7966,8.4008 -8.20935,7.7461 -5.26,-1.0138 -6.9388,-6.3102 -6.8879,-9.4264 0.1536,-9.6232 9.37765,-16.7214 17.99875,-29.0562 z"
       id="path5085"
       style="display:inline"
       inkscape:connector-curvature="0" />
    <path
       d="m 610.00884,2884.5333 c -8.6211,-12.3348 -17.84511,-19.433 -17.99861,-29.0562 -0.056,-3.1162 1.6278,-8.4126 6.88771,-9.4264 3.412,-0.6547 8.1105,2.1164 8.2085,7.7461 -0.018,1.1208 1.183,1.0917 1.1719,-0.4441 -0.1609,-4.4407 -1.5612,-9.6108 -3.9161,-13.8194 3.7644,0 7.5288,0 11.2932,0 -2.3548,4.2086 -3.7561,9.3787 -3.917,13.8194 -0.01,1.5358 1.1867,1.5649 1.1719,0.4441 0.098,-5.6297 4.7966,-8.4008 8.2093,-7.7461 5.26,1.0138 6.9388,6.3102 6.8879,9.4264 -0.1536,9.6232 -9.3777,16.7214 -17.9987,29.0562 z"
       id="path5111"
       style="display:inline"
       inkscape:connector-curvature="0" />
  </g>
</svg>
