<?xml version="1.0" encoding="UTF-8" standalone="no"?>
<!-- Created with Inkscape (http://www.inkscape.org/) -->

<svg
   id="svg10047"
   height="123.01138"
   width="78.999084"
   version="1.1"
   viewBox="0 0 78.999084 123.01138"
   inkscape:version="0.91 r13725"
   sodipodi:docname="ramino-stretch.svgz"
   xmlns:inkscape="http://www.inkscape.org/namespaces/inkscape"
   xmlns:sodipodi="http://sodipodi.sourceforge.net/DTD/sodipodi-0.dtd"
   xmlns="http://www.w3.org/2000/svg"
   xmlns:svg="http://www.w3.org/2000/svg"
   xmlns:rdf="http://www.w3.org/1999/02/22-rdf-syntax-ns#"
   xmlns:cc="http://creativecommons.org/ns#"
   xmlns:dc="http://purl.org/dc/elements/1.1/">
  <sodipodi:namedview
     pagecolor="#ffffff"
     bordercolor="#666666"
     borderopacity="1"
     objecttolerance="10"
     gridtolerance="10"
     guidetolerance="10"
     inkscape:pageopacity="0"
     inkscape:pageshadow="2"
     inkscape:window-width="1920"
     inkscape:window-height="1016"
     id="namedview1491"
     showgrid="false"
     inkscape:zoom="1.3479675"
     inkscape:cx="513.5"
     inkscape:cy="307.5"
     inkscape:window-x="0"
     inkscape:window-y="0"
     inkscape:window-maximized="1"
     inkscape:current-layer="svg10047"
     showguides="false"
     inkscape:guide-bbox="true"
     inkscape:snap-grids="true"
     inkscape:showpageshadow="2"
     inkscape:pagecheckerboard="0"
     inkscape:deskcolor="#d1d1d1" />
  <metadata
     id="metadata16869">
    <rdf:RDF>
      <cc:Work
         rdf:about="">
        <dc:format>image/svg+xml</dc:format>
        <dc:type
           rdf:resource="http://purl.org/dc/dcmitype/StillImage" />
        <dc:title />
      </cc:Work>
    </rdf:RDF>
  </metadata>
  <defs
     id="defs10049" />
  <g
     id="spade_5"
     transform="matrix(0.16458142,0,0,0.18224028,-389.99628,-423.71537)"
     inkscape:label="#spade_5">
    <rect
       width="478.65921"
       height="673.65479"
       rx="22.895458"
       ry="23.039198"
       x="-2848.9548"
       y="-2999.3621"
       id="rect4058"
       style="display:inline;fill:#ffffff;fill-opacity:1;stroke:#000000;stroke-width:1.34079;stroke-miterlimit:4;stroke-dasharray:none;stroke-opacity:1"
       transform="scale(-1)" />
    <path
       d="m 2497.1259,2394.0333 c 20.1163,28.7812 41.6397,45.3438 41.9979,67.7979 0.1295,7.2711 -3.7984,19.6294 -16.0718,21.9949 -7.9615,1.5276 -18.925,-4.9383 -19.1537,-18.0743 0.043,-2.6153 -2.7603,-2.5473 -2.7344,1.0363 0.3755,10.3615 3.6429,22.4252 9.1376,32.2452 -8.7837,0 -17.5674,0 -26.3512,0 5.4947,-9.82 8.7643,-21.8837 9.1399,-32.2452 0.021,-3.5836 -2.769,-3.6516 -2.7344,-1.0363 -0.2288,13.136 -11.1923,19.6019 -19.1559,18.0743 -12.2735,-2.3655 -16.1906,-14.7238 -16.0719,-21.9949 0.3583,-22.4541 21.8817,-39.0167 41.9979,-67.7979 z"
       id="path4060"
       style="display:inline"
       inkscape:connector-curvature="0" />
    <path
       inkscape:connector-curvature="0"
       style="display:inline"
       id="path4062"
       d="m 2722.1258,2394.0333 c 20.1163,28.7812 41.6396,45.3438 41.9979,67.7979 0.1295,7.2711 -3.7984,19.6294 -16.0719,21.9949 -7.9614,1.5276 -18.9249,-4.9383 -19.1537,-18.0743 0.043,-2.6153 -2.7603,-2.5473 -2.7344,1.0363 0.3756,10.3615 3.643,22.4252 9.1377,32.2452 -8.7837,0 -17.5675,0 -26.3512,0 5.4947,-9.82 8.7643,-21.8837 9.1398,-32.2452 0.022,-3.5836 -2.7689,-3.6516 -2.7343,-1.0363 -0.2288,13.136 -11.1923,19.6019 -19.1559,18.0743 -12.2735,-2.3655 -16.1906,-14.7238 -16.0719,-21.9949 0.3583,-22.4541 21.8817,-39.0167 41.9979,-67.7979 z" />
    <path
       d="m 2609.6276,2610.0333 c 20.11,28.7812 41.64,45.3438 41.99,67.7979 0.13,7.271 -3.79,19.6294 -16.07,21.9948 -7.96,1.5276 -18.92,-4.9382 -19.15,-18.0742 0,-2.6153 -2.76,-2.5473 -2.74,1.0362 0.38,10.3616 3.65,22.4253 9.14,32.2453 -8.78,0 -17.57,0 -26.35,0 5.49,-9.82 8.76,-21.8837 9.14,-32.2453 0,-3.5835 -2.77,-3.6515 -2.73,-1.0362 -0.23,13.136 -11.2,19.6018 -19.16,18.0742 -12.27,-2.3654 -16.19,-14.7238 -16.07,-21.9948 0.36,-22.4541 21.88,-39.0167 42,-67.7979 z"
       id="path4066"
       style="display:inline"
       inkscape:connector-curvature="0" />
    <path
       inkscape:connector-curvature="0"
       style="display:inline"
       id="path4068"
       d="m 2497.1259,2931.0333 c 20.1163,-28.7812 41.6397,-45.3438 41.9979,-67.7979 0.1295,-7.271 -3.7984,-19.6294 -16.0718,-21.9948 -7.9615,-1.5276 -18.925,4.9382 -19.1537,18.0742 0.043,2.6153 -2.7603,2.5473 -2.7344,-1.0362 0.3755,-10.3616 3.6429,-22.4253 9.1376,-32.2453 -8.7837,0 -17.5674,0 -26.3512,0 5.4947,9.82 8.7643,21.8837 9.1399,32.2453 0.021,3.5835 -2.769,3.6515 -2.7344,1.0362 -0.2288,-13.136 -11.1923,-19.6018 -19.1559,-18.0742 -12.2735,2.3654 -16.1906,14.7238 -16.0719,21.9948 0.3583,22.4541 21.8817,39.0167 41.9979,67.7979 z" />
    <path
       d="m 2722.1258,2931.0333 c 20.1163,-28.7812 41.6396,-45.3438 41.9979,-67.7979 0.1295,-7.271 -3.7984,-19.6294 -16.0719,-21.9948 -7.9614,-1.5276 -18.9249,4.9382 -19.1537,18.0742 0.043,2.6153 -2.7603,2.5473 -2.7344,-1.0362 0.3756,-10.3616 3.643,-22.4253 9.1377,-32.2453 -8.7837,0 -17.5675,0 -26.3512,0 5.4947,9.82 8.7643,21.8837 9.1398,32.2453 0.022,3.5835 -2.7689,3.6515 -2.7343,1.0362 -0.2288,-13.136 -11.1923,-19.6018 -19.1559,-18.0742 -12.2735,2.3654 -16.1906,14.7238 -16.0719,21.9948 0.3583,22.4541 21.8817,39.0167 41.9979,67.7979 z"
       id="path4070"
       style="display:inline"
       inkscape:connector-curvature="0" />
    <path
       d="m 2404.1254,2440.5333 c 8.6211,12.3348 17.8452,19.433 17.9987,29.0562 0.056,3.1162 -1.6278,8.4126 -6.8877,9.4264 -3.4121,0.6547 -8.1106,-2.1164 -8.2086,-7.7461 0.018,-1.1208 -1.183,-1.0917 -1.1719,0.4441 0.1609,4.4407 1.5612,9.6108 3.9161,13.8194 -3.7644,0 -7.5288,0 -11.2932,0 2.3548,-4.2086 3.7561,-9.3787 3.917,-13.8194 0.01,-1.5358 -1.1867,-1.5649 -1.1719,-0.4441 -0.098,5.6297 -4.7966,8.4008 -8.2094,7.7461 -5.26,-1.0138 -6.9388,-6.3102 -6.8879,-9.4264 0.1536,-9.6232 9.3777,-16.7214 17.9988,-29.0562 z"
       id="path4072"
       style="display:inline"
       inkscape:connector-curvature="0" />
    <path
       d="m 2815.1255,2884.5333 c -8.6211,-12.3348 -17.8452,-19.433 -17.9987,-29.0562 -0.056,-3.1162 1.6278,-8.4126 6.8877,-9.4264 3.4121,-0.6547 8.1106,2.1164 8.2086,7.7461 -0.018,1.1208 1.183,1.0917 1.1719,-0.4441 -0.1609,-4.4407 -1.5612,-9.6108 -3.9161,-13.8194 3.7644,0 7.5288,0 11.2932,0 -2.3548,4.2086 -3.7561,9.3787 -3.917,13.8194 -0.01,1.5358 1.1867,1.5649 1.1719,0.4441 0.098,-5.6297 4.7966,-8.4008 8.2093,-7.7461 5.26,1.0138 6.9388,6.3102 6.8879,9.4264 -0.1536,9.6232 -9.3777,16.7214 -17.9987,29.0562 z"
       id="path4074"
       style="display:inline"
       inkscape:connector-curvature="0" />
    <path
       inkscape:connector-curvature="0"
       style="fill:#000000;fill-opacity:1;stroke-width:1;stroke-miterlimit:4;stroke-dasharray:none"
       id="path5014"
       d="m 2381.5651,2408.3934 7.0047,-0.068 c 1.3363,4.3459 4.293,8.763 8.3077,9.9888 11.3422,2.7344 18.6393,-3.7715 21.0421,-11.2715 2.9148,-9.0975 -0.065,-21.8721 -7.8736,-26.4063 -6.4702,-3.7601 -16.0836,-0.5887 -20.4989,7.4544 l -4.9056,-3.0801 2.6336,-29.9777 h 32.0474 v 7.0859 h -25.9697 l -0.412,12.4887 c 5.5905,-4.0285 14.182,-3.9857 19.7695,-1.1598 10.5823,5.18 15.4989,16.9572 13.4444,30.8375 -2.8507,13.8061 -9.1372,21.629 -23.3166,22.7463 -15.7718,0.1462 -21.3399,-10.983 -21.273,-18.6375 v 0 z m 0,0" />
    <path
       inkscape:connector-curvature="0"
       style="fill:#000000;fill-opacity:1;stroke-width:1;stroke-miterlimit:4;stroke-dasharray:none"
       id="path5070"
       d="m 2837.7368,2916.6729 -7.0047,0.068 c -1.3363,-4.3459 -4.293,-8.763 -8.3077,-9.9887 -11.3422,-2.7345 -18.6393,3.7714 -21.0421,11.2714 -2.9148,9.0975 0.065,21.8721 7.8736,26.4063 6.4702,3.7602 16.0836,0.5887 20.4989,-7.4544 l 4.9056,3.0801 -2.6336,29.9777 h -32.0474 v -7.0859 h 25.9697 l 0.412,-12.4887 c -5.5905,4.0285 -14.182,3.9857 -19.7695,1.1599 -10.5823,-5.1801 -15.4989,-16.9573 -13.4444,-30.8376 2.8507,-13.8061 9.1372,-21.629 23.3166,-22.7463 15.7718,-0.1462 21.3399,10.9831 21.273,18.6375 v 0 z m 0,0" />
    <path
       d="m 2426.7369,2916.6742 -7.0047,0.068 c -1.3363,-4.3459 -4.293,-8.763 -8.3077,-9.9887 -11.3422,-2.7345 -18.6393,3.7714 -21.0421,11.2714 -2.9148,9.0975 0.065,21.8721 7.8736,26.4063 6.4702,3.7602 16.0836,0.5887 20.4989,-7.4544 l 4.9056,3.0801 -2.6336,29.9777 h -32.0474 v -7.0859 h 25.9697 l 0.412,-12.4887 c -5.5905,4.0285 -14.182,3.9857 -19.7695,1.1599 -10.5823,-5.1801 -15.4989,-16.9573 -13.4444,-30.8376 2.8507,-13.8061 9.1372,-21.629 23.3166,-22.7463 15.7718,-0.1462 21.3399,10.9831 21.273,18.6375 v 0 z m 0,0"
       id="path4734"
       style="fill:#000000;fill-opacity:1;stroke-width:1;stroke-miterlimit:4;stroke-dasharray:none"
       inkscape:connector-curvature="0" />
    <path
       d="m 2792.6892,2408.3949 7.0047,-0.068 c 1.3363,4.346 4.293,8.763 8.3077,9.9888 11.3422,2.7344 18.6393,-3.7715 21.0421,-11.2715 2.9148,-9.0975 -0.065,-21.872 -7.8736,-26.4063 -6.4702,-3.7601 -16.0836,-0.5886 -20.4989,7.4544 l -4.9056,-3.0801 2.6336,-29.9777 h 32.0474 v 7.0859 h -25.9697 l -0.412,12.4887 c 5.5905,-4.0285 14.182,-3.9857 19.7695,-1.1598 10.5823,5.18 15.4989,16.9573 13.4444,30.8375 -2.8507,13.8061 -9.1372,21.629 -23.3166,22.7463 -15.7718,0.1462 -21.3399,-10.983 -21.273,-18.6375 v 0 z m 0,0"
       id="path4930"
       style="fill:#000000;fill-opacity:1;stroke-width:1;stroke-miterlimit:4;stroke-dasharray:none"
       inkscape:connector-curvature="0" />
    <path
       inkscape:connector-curvature="0"
       style="display:inline"
       id="path5079"
       d="m 2808.8373,2440.5333 c 8.6211,12.3348 17.8452,19.433 17.9987,29.0562 0.056,3.1162 -1.6278,8.4126 -6.8877,9.4264 -3.4121,0.6547 -8.1106,-2.1164 -8.2086,-7.7461 0.018,-1.1208 -1.183,-1.0917 -1.1719,0.4441 0.1609,4.4407 1.5612,9.6108 3.9161,13.8194 -3.7644,0 -7.5288,0 -11.2932,0 2.3548,-4.2086 3.7561,-9.3787 3.917,-13.8194 0.01,-1.5358 -1.1867,-1.5649 -1.1719,-0.4441 -0.098,5.6297 -4.7966,8.4008 -8.2094,7.7461 -5.26,-1.0138 -6.9388,-6.3102 -6.8879,-9.4264 0.1536,-9.6232 9.3777,-16.7214 17.9988,-29.0562 z" />
    <path
       inkscape:connector-curvature="0"
       style="display:inline"
       id="path5105"
       d="m 2410.0089,2884.5333 c -8.6211,-12.3348 -17.8452,-19.433 -17.9987,-29.0562 -0.056,-3.1162 1.6278,-8.4126 6.8877,-9.4264 3.4121,-0.6547 8.1106,2.1164 8.2086,7.7461 -0.018,1.1208 1.183,1.0917 1.1719,-0.4441 -0.1609,-4.4407 -1.5612,-9.6108 -3.9161,-13.8194 3.7644,0 7.5288,0 11.2932,0 -2.3548,4.2086 -3.7561,9.3787 -3.917,13.8194 -0.01,1.5358 1.1867,1.5649 1.1719,0.4441 0.098,-5.6297 4.7966,-8.4008 8.2093,-7.7461 5.26,1.0138 6.9388,6.3102 6.8879,9.4264 -0.1536,9.6232 -9.3777,16.7214 -17.9987,29.0562 z" />
  </g>
</svg>
