<?xml version="1.0" encoding="UTF-8" standalone="no"?>
<!-- Created with Inkscape (http://www.inkscape.org/) -->

<svg
   id="svg10047"
   height="123.01138"
   width="78.999084"
   version="1.1"
   viewBox="0 0 78.999084 123.01138"
   inkscape:version="0.91 r13725"
   sodipodi:docname="ramino-stretch.svgz"
   xmlns:inkscape="http://www.inkscape.org/namespaces/inkscape"
   xmlns:sodipodi="http://sodipodi.sourceforge.net/DTD/sodipodi-0.dtd"
   xmlns="http://www.w3.org/2000/svg"
   xmlns:svg="http://www.w3.org/2000/svg"
   xmlns:rdf="http://www.w3.org/1999/02/22-rdf-syntax-ns#"
   xmlns:cc="http://creativecommons.org/ns#"
   xmlns:dc="http://purl.org/dc/elements/1.1/">
  <sodipodi:namedview
     pagecolor="#ffffff"
     bordercolor="#666666"
     borderopacity="1"
     objecttolerance="10"
     gridtolerance="10"
     guidetolerance="10"
     inkscape:pageopacity="0"
     inkscape:pageshadow="2"
     inkscape:window-width="1920"
     inkscape:window-height="1016"
     id="namedview1491"
     showgrid="false"
     inkscape:zoom="1.3479675"
     inkscape:cx="513.5"
     inkscape:cy="307.5"
     inkscape:window-x="0"
     inkscape:window-y="0"
     inkscape:window-maximized="1"
     inkscape:current-layer="svg10047"
     showguides="false"
     inkscape:guide-bbox="true"
     inkscape:snap-grids="true"
     inkscape:showpageshadow="2"
     inkscape:pagecheckerboard="0"
     inkscape:deskcolor="#d1d1d1" />
  <metadata
     id="metadata16869">
    <rdf:RDF>
      <cc:Work
         rdf:about="">
        <dc:format>image/svg+xml</dc:format>
        <dc:type
           rdf:resource="http://purl.org/dc/dcmitype/StillImage" />
        <dc:title />
      </cc:Work>
    </rdf:RDF>
  </metadata>
  <defs
     id="defs10049" />
  <g
     id="spade_3"
     transform="matrix(0.16458142,0,0,0.18224028,-192.49856,-423.71537)"
     inkscape:label="#spade_3">
    <rect
       width="478.65921"
       height="673.65479"
       rx="22.895458"
       ry="23.039198"
       x="-1648.9547"
       y="-2999.3621"
       id="rect4094"
       style="display:inline;fill:#ffffff;fill-opacity:1;stroke:#000000;stroke-width:1.34079;stroke-miterlimit:4;stroke-dasharray:none;stroke-opacity:1"
       transform="scale(-1)" />
    <path
       d="m 1409.6254,2394.0333 c 20.1163,28.7812 41.6397,45.3438 41.9979,67.7979 0.1295,7.2711 -3.7984,19.6294 -16.0718,21.9949 -7.9615,1.5276 -18.925,-4.9383 -19.1537,-18.0743 0.043,-2.6153 -2.7603,-2.5473 -2.7344,1.0363 0.3755,10.3615 3.6429,22.4252 9.1376,32.2452 -8.7837,0 -17.5674,0 -26.3512,0 5.4947,-9.82 8.7643,-21.8837 9.1399,-32.2452 0.021,-3.5836 -2.769,-3.6516 -2.7344,-1.0363 -0.2288,13.136 -11.1923,19.6019 -19.1559,18.0743 -12.2735,-2.3655 -16.1906,-14.7238 -16.0719,-21.9949 0.3583,-22.4541 21.8817,-39.0167 41.9979,-67.7979 z"
       id="path4096"
       style="display:inline"
       inkscape:connector-curvature="0" />
    <path
       inkscape:connector-curvature="0"
       style="display:inline"
       id="path4100"
       d="m 1409.6254,2931.0333 c 20.1163,-28.7812 41.6397,-45.3438 41.9979,-67.7979 0.1295,-7.271 -3.7984,-19.6294 -16.0718,-21.9948 -7.9615,-1.5276 -18.925,4.9382 -19.1537,18.0742 0.043,2.6153 -2.7603,2.5473 -2.7344,-1.0362 0.3755,-10.3616 3.6429,-22.4253 9.1376,-32.2453 -8.7837,0 -17.5674,0 -26.3512,0 5.4947,9.82 8.7643,21.8837 9.1399,32.2453 0.021,3.5835 -2.769,3.6515 -2.7344,1.0362 -0.2288,-13.136 -11.1923,-19.6018 -19.1559,-18.0742 -12.2735,2.3654 -16.1906,14.7238 -16.0719,21.9948 0.3583,22.4541 21.8817,39.0167 41.9979,67.7979 z" />
    <path
       d="m 1204.1254,2440.5333 c 8.6211,12.3348 17.8452,19.433 17.9987,29.0562 0.056,3.1162 -1.6278,8.4126 -6.8877,9.4264 -3.4121,0.6547 -8.1106,-2.1164 -8.2086,-7.7461 0.018,-1.1208 -1.183,-1.0917 -1.1719,0.4441 0.1609,4.4407 1.5612,9.6108 3.9161,13.8194 -3.7644,0 -7.5288,0 -11.2932,0 2.3548,-4.2086 3.7561,-9.3787 3.917,-13.8194 0.01,-1.5358 -1.1867,-1.5649 -1.1719,-0.4441 -0.098,5.6297 -4.7966,8.4008 -8.2094,7.7461 -5.26,-1.0138 -6.9388,-6.3102 -6.8879,-9.4264 0.1536,-9.6232 9.3777,-16.7214 17.9988,-29.0562 z"
       id="path4105"
       style="display:inline"
       inkscape:connector-curvature="0" />
    <path
       d="m 1615.1255,2884.5333 c -8.6211,-12.3348 -17.8452,-19.433 -17.9987,-29.0562 -0.056,-3.1162 1.6278,-8.4126 6.8877,-9.4264 3.4121,-0.6547 8.1106,2.1164 8.2086,7.7461 -0.018,1.1208 1.183,1.0917 1.1719,-0.4441 -0.1609,-4.4407 -1.5612,-9.6108 -3.9161,-13.8194 3.7644,0 7.5288,0 11.2932,0 -2.3548,4.2086 -3.7561,9.3787 -3.917,13.8194 -0.01,1.5358 1.1867,1.5649 1.1719,0.4441 0.098,-5.6297 4.7966,-8.4008 8.2093,-7.7461 5.26,1.0138 6.9388,6.3102 6.8879,9.4264 -0.1536,9.6232 -9.3777,16.7214 -17.9987,29.0562 z"
       id="path4107"
       style="display:inline"
       inkscape:connector-curvature="0" />
    <path
       inkscape:connector-curvature="0"
       style="display:inline"
       id="path4109"
       d="m 1409.6254,2610.0333 c 20.1163,28.7812 41.6397,45.3438 41.9979,67.7979 0.1295,7.271 -3.7984,19.6294 -16.0718,21.9948 -7.9615,1.5276 -18.925,-4.9382 -19.1537,-18.0742 0.043,-2.6153 -2.7603,-2.5473 -2.7344,1.0362 0.3755,10.3616 3.6429,22.4253 9.1376,32.2453 -8.7837,0 -17.5674,0 -26.3512,0 5.4947,-9.82 8.7643,-21.8837 9.1399,-32.2453 0.021,-3.5835 -2.769,-3.6515 -2.7344,-1.0362 -0.2288,13.136 -11.1923,19.6018 -19.1559,18.0742 -12.2735,-2.3654 -16.1906,-14.7238 -16.0719,-21.9948 0.3583,-22.4541 21.8817,-39.0167 41.9979,-67.7979 z" />
    <path
       inkscape:connector-curvature="0"
       style="fill:#000000;fill-opacity:1;stroke-width:1;stroke-miterlimit:4;stroke-dasharray:none"
       id="path5018"
       d="m 1180.9843,2411.2507 5.5015,-4.0767 c 4.7746,7.8336 10.1143,12.9929 18.2828,12.1073 12.2556,-0.8485 17.3337,-13.7928 14.7697,-23.5462 -2.4806,-8.7506 -12.6287,-13.013 -20.697,-8.3478 -1.9042,1.1057 -3.7416,2.0084 -4.1009,2.0084 -0.8462,0 -2.7617,-3.8396 -2.5,-5.0108 5.4149,-7.968 18.5642,-21.9266 18.5642,-21.9266 h -20.5438 v 9.3478 h -7.8844 v -16.7728 h 40.1519 v 5.6909 c 0,0 -10.7578,11.2418 -14.3129,17.3982 8.7559,0.3229 15.8135,5.9138 18.3471,14.753 1.4784,4.6539 0.8158,15.2985 -1.1193,19.8867 -3.2322,7.6477 -12.0607,13.853 -20.1315,14.2099 -13.5502,0.917 -20.7387,-8.6476 -24.3274,-15.7213 z m 0,0" />
    <path
       inkscape:connector-curvature="0"
       style="fill:#000000;fill-opacity:1;stroke-width:1;stroke-miterlimit:4;stroke-dasharray:none"
       id="path5074"
       d="m 1638.4923,2913.8159 -5.5015,4.0767 c -4.7746,-7.8336 -10.1143,-12.9929 -18.2828,-12.1073 -12.2556,0.8485 -17.3337,13.7928 -14.7697,23.5462 2.4806,8.7506 12.6287,13.013 20.697,8.3478 1.9042,-1.1057 3.7416,-2.0083 4.1009,-2.0083 0.8462,0 2.7617,3.8395 2.5,5.0107 -5.4149,7.968 -18.5642,21.9266 -18.5642,21.9266 h 20.5438 v -9.3477 h 7.8844 v 16.7727 h -40.1519 v -5.6909 c 0,0 10.7578,-11.2418 14.3129,-17.3982 -8.7559,-0.3229 -15.8135,-5.9138 -18.3471,-14.753 -1.4784,-4.6539 -0.8158,-15.2985 1.1193,-19.8866 3.2322,-7.6478 12.0607,-13.8531 20.1315,-14.21 13.5502,-0.917 20.7387,8.6476 24.3274,15.7213 z m 0,0" />
    <path
       d="m 1227.4924,2913.8172 -5.5015,4.0768 c -4.7746,-7.8336 -10.1143,-12.993 -18.2828,-12.1074 -12.2556,0.8485 -17.3337,13.7928 -14.7697,23.5462 2.4806,8.7506 12.6287,13.013 20.697,8.3479 1.9042,-1.1058 3.7416,-2.0084 4.1009,-2.0084 0.8462,0 2.7617,3.8396 2.5,5.0108 -5.4149,7.968 -18.5642,21.9266 -18.5642,21.9266 h 20.5438 v -9.3478 h 7.8844 v 16.7727 h -40.1519 v -5.6908 c 0,0 10.7578,-11.2418 14.3129,-17.3983 -8.7559,-0.3229 -15.8135,-5.9138 -18.3471,-14.753 -1.4784,-4.6538 -0.8158,-15.2985 1.1193,-19.8866 3.2322,-7.6477 12.0607,-13.853 20.1315,-14.21 13.5502,-0.917 20.7387,8.6477 24.3274,15.7213 z m 0,0"
       id="path4738"
       style="fill:#000000;fill-opacity:1;stroke-width:1;stroke-miterlimit:4;stroke-dasharray:none"
       inkscape:connector-curvature="0" />
    <path
       d="m 1592.1084,2411.2522 5.5015,-4.0767 c 4.7746,7.8336 10.1143,12.993 18.2828,12.1074 12.2556,-0.8485 17.3337,-13.7928 14.7697,-23.5462 -2.4806,-8.7506 -12.6287,-13.013 -20.697,-8.3479 -1.9042,1.1058 -3.7416,2.0084 -4.1009,2.0084 -0.8462,0 -2.7617,-3.8396 -2.5,-5.0108 5.4149,-7.968 18.5642,-21.9266 18.5642,-21.9266 h -20.5438 v 9.3478 h -7.8844 v -16.7727 h 40.1519 v 5.6908 c 0,0 -10.7578,11.2418 -14.3129,17.3983 8.7559,0.3229 15.8135,5.9138 18.3471,14.753 1.4784,4.6538 0.8158,15.2984 -1.1193,19.8866 -3.2322,7.6477 -12.0607,13.853 -20.1315,14.21 -13.5502,0.917 -20.7387,-8.6477 -24.3274,-15.7214 z m 0,0"
       id="path4934"
       style="fill:#000000;fill-opacity:1;stroke-width:1;stroke-miterlimit:4;stroke-dasharray:none"
       inkscape:connector-curvature="0" />
    <path
       inkscape:connector-curvature="0"
       style="display:inline"
       id="path5083"
       d="m 1608.8373,2440.5333 c 8.6211,12.3348 17.8452,19.433 17.9987,29.0562 0.056,3.1162 -1.6278,8.4126 -6.8877,9.4264 -3.4121,0.6547 -8.1106,-2.1164 -8.2086,-7.7461 0.018,-1.1208 -1.183,-1.0917 -1.1719,0.4441 0.1609,4.4407 1.5612,9.6108 3.9161,13.8194 -3.7644,0 -7.5288,0 -11.2932,0 2.3548,-4.2086 3.7561,-9.3787 3.917,-13.8194 0.01,-1.5358 -1.1867,-1.5649 -1.1719,-0.4441 -0.098,5.6297 -4.7966,8.4008 -8.2094,7.7461 -5.26,-1.0138 -6.9388,-6.3102 -6.8879,-9.4264 0.1536,-9.6232 9.3777,-16.7214 17.9988,-29.0562 z" />
    <path
       inkscape:connector-curvature="0"
       style="display:inline"
       id="path5109"
       d="m 1210.0089,2884.5333 c -8.6211,-12.3348 -17.8452,-19.433 -17.9987,-29.0562 -0.056,-3.1162 1.6278,-8.4126 6.8877,-9.4264 3.4121,-0.6547 8.1106,2.1164 8.2086,7.7461 -0.018,1.1208 1.183,1.0917 1.1719,-0.4441 -0.1609,-4.4407 -1.5612,-9.6108 -3.9161,-13.8194 3.7644,0 7.5288,0 11.2932,0 -2.3548,4.2086 -3.7561,9.3787 -3.917,13.8194 -0.01,1.5358 1.1867,1.5649 1.1719,0.4441 0.098,-5.6297 4.7966,-8.4008 8.2093,-7.7461 5.26,1.0138 6.9388,6.3102 6.8879,9.4264 -0.1536,9.6232 -9.3777,16.7214 -17.9987,29.0562 z" />
  </g>
</svg>
