<?xml version="1.0" encoding="UTF-8" standalone="no"?>
<!-- Created with Inkscape (http://www.inkscape.org/) -->

<svg
   id="svg10047"
   height="122.87411"
   width="78.870903"
   version="1.1"
   viewBox="0 0 78.870903 122.87411"
   inkscape:version="0.91 r13725"
   sodipodi:docname="ancient-french.svgz"
   xmlns:inkscape="http://www.inkscape.org/namespaces/inkscape"
   xmlns:sodipodi="http://sodipodi.sourceforge.net/DTD/sodipodi-0.dtd"
   xmlns="http://www.w3.org/2000/svg"
   xmlns:svg="http://www.w3.org/2000/svg"
   xmlns:rdf="http://www.w3.org/1999/02/22-rdf-syntax-ns#"
   xmlns:cc="http://creativecommons.org/ns#"
   xmlns:dc="http://purl.org/dc/elements/1.1/">
  <sodipodi:namedview
     pagecolor="#ffffff"
     bordercolor="#666666"
     borderopacity="1"
     objecttolerance="10"
     gridtolerance="10"
     guidetolerance="10"
     inkscape:pageopacity="0"
     inkscape:pageshadow="2"
     inkscape:window-width="1920"
     inkscape:window-height="1016"
     id="namedview1491"
     showgrid="false"
     inkscape:zoom="1.3479675"
     inkscape:cx="407.78528"
     inkscape:cy="307.5"
     inkscape:window-x="0"
     inkscape:window-y="0"
     inkscape:window-maximized="1"
     inkscape:current-layer="svg10047"
     showguides="true"
     inkscape:guide-bbox="true"
     inkscape:snap-grids="true"
     inkscape:showpageshadow="2"
     inkscape:pagecheckerboard="0"
     inkscape:deskcolor="#d1d1d1" />
  <metadata
     id="metadata16869">
    <rdf:RDF>
      <cc:Work
         rdf:about="">
        <dc:format>image/svg+xml</dc:format>
        <dc:type
           rdf:resource="http://purl.org/dc/dcmitype/StillImage" />
        <dc:title />
      </cc:Work>
    </rdf:RDF>
  </metadata>
  <defs
     id="defs10049" />
  <g
     id="club_7"
     transform="translate(-473.88203,-0.11466654)"
     inkscape:label="#club_7">
    <rect
       transform="scale(-1)"
       style="fill:#ffffff;stroke:#000000;stroke-width:0.223273"
       id="rect142-3-7-5-9-2-7-8-0-6-5-8-9-7-2-0-9-3-3-3-6-5-3-5-1"
       y="-122.87714"
       x="-552.6413"
       ry="6.8138328"
       rx="6.559958"
       height="122.65083"
       width="78.647629" />
    <g
       transform="matrix(-0.46229609,0,0,-0.49525575,481.01612,26.160746)"
       id="use1298-9-8-0-6-2-8-3-2-8-8">
      <path
         d="m 3.35,4.66 c 0,-1.81 -1.51,-3.28 -3.38,-3.28 -1.87,0 -3.38,1.47 -3.38,3.28 0,1.81 1.51,3.28 3.38,3.28 1.87,0 3.38,-1.47 3.38,-3.28 z"
         id="path7964"
         inkscape:connector-curvature="0" />
      <path
         d="m 7.71,-1.55 c 0,-1.81 -1.51,-3.28 -3.38,-3.28 -1.87,0 -3.38,1.47 -3.38,3.28 0,1.81 1.51,3.28 3.38,3.28 1.87,0 3.38,-1.47 3.38,-3.28 z"
         id="path7966"
         inkscape:connector-curvature="0" />
      <path
         d="m -0.95,-1.57 c 0,-0.66 -0.2,-1.28 -0.55,-1.8 -0.6,-0.89 -1.65,-1.48 -2.83,-1.48 -1.87,0 -3.38,1.47 -3.38,3.28 0,1.81 1.51,3.28 3.38,3.28 1.87,0 3.38,-1.47 3.38,-3.28 z"
         id="path7968"
         inkscape:connector-curvature="0" />
      <path
         d="m 3.94,-7.94 c -1.67,0 -2.55,1.36 -3.01,2.72 -0.46,1.36 -0.5,2.72 -0.5,2.72 h -0.86 c 0,0 -0.16,-5.43 -3.5,-5.44 z"
         id="path7970"
         inkscape:connector-curvature="0" />
      <path
         d="m -2.32,2.25 c 1.9,-1.9 1.9,-4.75 1.9,-4.75 l 0.85,-0.01 c 0,0 0,2.91 1.85,4.76"
         id="path7972"
         inkscape:connector-curvature="0" />
      <path
         d="m -1.94,-3.85 c 1.9,1.9 4.75,1.9 4.75,1.9 v 0.85 c 0,0 -2.91,0 -4.76,1.85"
         id="path7974"
         inkscape:connector-curvature="0" />
      <path
         d="m 1.87,-3.86 c -1.9,1.9 -4.75,1.9 -4.75,1.9 v 0.85 c 0,0 2.91,0 4.76,1.85"
         id="path7976"
         inkscape:connector-curvature="0" />
    </g>
    <g
       transform="matrix(-1.0979532,0,0,-1.1762324,494.82783,18.050316)"
       id="use898-6-3-4-8-6-54-1-5">
      <path
         d="m 3.35,4.66 c 0,-1.81 -1.51,-3.28 -3.38,-3.28 -1.87,0 -3.38,1.47 -3.38,3.28 0,1.81 1.51,3.28 3.38,3.28 1.87,0 3.38,-1.47 3.38,-3.28 z"
         id="path7980"
         inkscape:connector-curvature="0" />
      <path
         d="m 7.71,-1.55 c 0,-1.81 -1.51,-3.28 -3.38,-3.28 -1.87,0 -3.38,1.47 -3.38,3.28 0,1.81 1.51,3.28 3.38,3.28 1.87,0 3.38,-1.47 3.38,-3.28 z"
         id="path7982"
         inkscape:connector-curvature="0" />
      <path
         d="m -0.95,-1.57 c 0,-0.66 -0.2,-1.28 -0.55,-1.8 -0.6,-0.89 -1.65,-1.48 -2.83,-1.48 -1.87,0 -3.38,1.47 -3.38,3.28 0,1.81 1.51,3.28 3.38,3.28 1.87,0 3.38,-1.47 3.38,-3.28 z"
         id="path7984"
         inkscape:connector-curvature="0" />
      <path
         d="m 3.94,-7.94 c -1.67,0 -2.55,1.36 -3.01,2.72 -0.46,1.36 -0.5,2.72 -0.5,2.72 h -0.86 c 0,0 -0.16,-5.43 -3.5,-5.44 z"
         id="path7986"
         inkscape:connector-curvature="0" />
      <path
         d="m -2.32,2.25 c 1.9,-1.9 1.9,-4.75 1.9,-4.75 l 0.85,-0.01 c 0,0 0,2.91 1.85,4.76"
         id="path7988"
         inkscape:connector-curvature="0" />
      <path
         d="m -1.94,-3.85 c 1.9,1.9 4.75,1.9 4.75,1.9 v 0.85 c 0,0 -2.91,0 -4.76,1.85"
         id="path7990"
         inkscape:connector-curvature="0" />
      <path
         d="m 1.87,-3.86 c -1.9,1.9 -4.75,1.9 -4.75,1.9 v 0.85 c 0,0 2.91,0 4.76,1.85"
         id="path7992"
         inkscape:connector-curvature="0" />
    </g>
    <g
       transform="matrix(1.0979532,0,0,1.1762324,494.81826,105.04228)"
       id="use898-6-3-4-8-6-5-0-2-0">
      <path
         d="m 3.35,4.66 c 0,-1.81 -1.51,-3.28 -3.38,-3.28 -1.87,0 -3.38,1.47 -3.38,3.28 0,1.81 1.51,3.28 3.38,3.28 1.87,0 3.38,-1.47 3.38,-3.28 z"
         id="path7996"
         inkscape:connector-curvature="0" />
      <path
         d="m 7.71,-1.55 c 0,-1.81 -1.51,-3.28 -3.38,-3.28 -1.87,0 -3.38,1.47 -3.38,3.28 0,1.81 1.51,3.28 3.38,3.28 1.87,0 3.38,-1.47 3.38,-3.28 z"
         id="path7998"
         inkscape:connector-curvature="0" />
      <path
         d="m -0.95,-1.57 c 0,-0.66 -0.2,-1.28 -0.55,-1.8 -0.6,-0.89 -1.65,-1.48 -2.83,-1.48 -1.87,0 -3.38,1.47 -3.38,3.28 0,1.81 1.51,3.28 3.38,3.28 1.87,0 3.38,-1.47 3.38,-3.28 z"
         id="path8000"
         inkscape:connector-curvature="0" />
      <path
         d="m 3.94,-7.94 c -1.67,0 -2.55,1.36 -3.01,2.72 -0.46,1.36 -0.5,2.72 -0.5,2.72 h -0.86 c 0,0 -0.16,-5.43 -3.5,-5.44 z"
         id="path8002"
         inkscape:connector-curvature="0" />
      <path
         d="m -2.32,2.25 c 1.9,-1.9 1.9,-4.75 1.9,-4.75 l 0.85,-0.01 c 0,0 0,2.91 1.85,4.76"
         id="path8004"
         inkscape:connector-curvature="0" />
      <path
         d="m -1.94,-3.85 c 1.9,1.9 4.75,1.9 4.75,1.9 v 0.85 c 0,0 -2.91,0 -4.76,1.85"
         id="path8006"
         inkscape:connector-curvature="0" />
      <path
         d="m 1.87,-3.86 c -1.9,1.9 -4.75,1.9 -4.75,1.9 v 0.85 c 0,0 2.91,0 4.76,1.85"
         id="path8008"
         inkscape:connector-curvature="0" />
    </g>
    <g
       transform="matrix(-1.0979532,0,0,-1.1762324,531.81697,18.061226)"
       id="use898-6-3-4-8-6-8-4-3-6">
      <path
         d="m 3.35,4.66 c 0,-1.81 -1.51,-3.28 -3.38,-3.28 -1.87,0 -3.38,1.47 -3.38,3.28 0,1.81 1.51,3.28 3.38,3.28 1.87,0 3.38,-1.47 3.38,-3.28 z"
         id="path8012"
         inkscape:connector-curvature="0" />
      <path
         d="m 7.71,-1.55 c 0,-1.81 -1.51,-3.28 -3.38,-3.28 -1.87,0 -3.38,1.47 -3.38,3.28 0,1.81 1.51,3.28 3.38,3.28 1.87,0 3.38,-1.47 3.38,-3.28 z"
         id="path8014"
         inkscape:connector-curvature="0" />
      <path
         d="m -0.95,-1.57 c 0,-0.66 -0.2,-1.28 -0.55,-1.8 -0.6,-0.89 -1.65,-1.48 -2.83,-1.48 -1.87,0 -3.38,1.47 -3.38,3.28 0,1.81 1.51,3.28 3.38,3.28 1.87,0 3.38,-1.47 3.38,-3.28 z"
         id="path8016"
         inkscape:connector-curvature="0" />
      <path
         d="m 3.94,-7.94 c -1.67,0 -2.55,1.36 -3.01,2.72 -0.46,1.36 -0.5,2.72 -0.5,2.72 h -0.86 c 0,0 -0.16,-5.43 -3.5,-5.44 z"
         id="path8018"
         inkscape:connector-curvature="0" />
      <path
         d="m -2.32,2.25 c 1.9,-1.9 1.9,-4.75 1.9,-4.75 l 0.85,-0.01 c 0,0 0,2.91 1.85,4.76"
         id="path8020"
         inkscape:connector-curvature="0" />
      <path
         d="m -1.94,-3.85 c 1.9,1.9 4.75,1.9 4.75,1.9 v 0.85 c 0,0 -2.91,0 -4.76,1.85"
         id="path8022"
         inkscape:connector-curvature="0" />
      <path
         d="m 1.87,-3.86 c -1.9,1.9 -4.75,1.9 -4.75,1.9 v 0.85 c 0,0 2.91,0 4.76,1.85"
         id="path8024"
         inkscape:connector-curvature="0" />
    </g>
    <g
       transform="matrix(1.0979532,0,0,1.1762324,531.80754,105.05313)"
       id="use898-6-3-4-8-6-5-89-6-6-4">
      <path
         d="m 3.35,4.66 c 0,-1.81 -1.51,-3.28 -3.38,-3.28 -1.87,0 -3.38,1.47 -3.38,3.28 0,1.81 1.51,3.28 3.38,3.28 1.87,0 3.38,-1.47 3.38,-3.28 z"
         id="path8028"
         inkscape:connector-curvature="0" />
      <path
         d="m 7.71,-1.55 c 0,-1.81 -1.51,-3.28 -3.38,-3.28 -1.87,0 -3.38,1.47 -3.38,3.28 0,1.81 1.51,3.28 3.38,3.28 1.87,0 3.38,-1.47 3.38,-3.28 z"
         id="path8030"
         inkscape:connector-curvature="0" />
      <path
         d="m -0.95,-1.57 c 0,-0.66 -0.2,-1.28 -0.55,-1.8 -0.6,-0.89 -1.65,-1.48 -2.83,-1.48 -1.87,0 -3.38,1.47 -3.38,3.28 0,1.81 1.51,3.28 3.38,3.28 1.87,0 3.38,-1.47 3.38,-3.28 z"
         id="path8032"
         inkscape:connector-curvature="0" />
      <path
         d="m 3.94,-7.94 c -1.67,0 -2.55,1.36 -3.01,2.72 -0.46,1.36 -0.5,2.72 -0.5,2.72 h -0.86 c 0,0 -0.16,-5.43 -3.5,-5.44 z"
         id="path8034"
         inkscape:connector-curvature="0" />
      <path
         d="m -2.32,2.25 c 1.9,-1.9 1.9,-4.75 1.9,-4.75 l 0.85,-0.01 c 0,0 0,2.91 1.85,4.76"
         id="path8036"
         inkscape:connector-curvature="0" />
      <path
         d="m -1.94,-3.85 c 1.9,1.9 4.75,1.9 4.75,1.9 v 0.85 c 0,0 -2.91,0 -4.76,1.85"
         id="path8038"
         inkscape:connector-curvature="0" />
      <path
         d="m 1.87,-3.86 c -1.9,1.9 -4.75,1.9 -4.75,1.9 v 0.85 c 0,0 2.91,0 4.76,1.85"
         id="path8040"
         inkscape:connector-curvature="0" />
    </g>
    <g
       transform="matrix(-1.0979532,0,0,-1.1762324,531.81697,61.551756)"
       id="use898-6-3-4-8-6-4-7-9-8-6">
      <path
         d="m 3.35,4.66 c 0,-1.81 -1.51,-3.28 -3.38,-3.28 -1.87,0 -3.38,1.47 -3.38,3.28 0,1.81 1.51,3.28 3.38,3.28 1.87,0 3.38,-1.47 3.38,-3.28 z"
         id="path8044"
         inkscape:connector-curvature="0" />
      <path
         d="m 7.71,-1.55 c 0,-1.81 -1.51,-3.28 -3.38,-3.28 -1.87,0 -3.38,1.47 -3.38,3.28 0,1.81 1.51,3.28 3.38,3.28 1.87,0 3.38,-1.47 3.38,-3.28 z"
         id="path8046"
         inkscape:connector-curvature="0" />
      <path
         d="m -0.95,-1.57 c 0,-0.66 -0.2,-1.28 -0.55,-1.8 -0.6,-0.89 -1.65,-1.48 -2.83,-1.48 -1.87,0 -3.38,1.47 -3.38,3.28 0,1.81 1.51,3.28 3.38,3.28 1.87,0 3.38,-1.47 3.38,-3.28 z"
         id="path8048"
         inkscape:connector-curvature="0" />
      <path
         d="m 3.94,-7.94 c -1.67,0 -2.55,1.36 -3.01,2.72 -0.46,1.36 -0.5,2.72 -0.5,2.72 h -0.86 c 0,0 -0.16,-5.43 -3.5,-5.44 z"
         id="path8050"
         inkscape:connector-curvature="0" />
      <path
         d="m -2.32,2.25 c 1.9,-1.9 1.9,-4.75 1.9,-4.75 l 0.85,-0.01 c 0,0 0,2.91 1.85,4.76"
         id="path8052"
         inkscape:connector-curvature="0" />
      <path
         d="m -1.94,-3.85 c 1.9,1.9 4.75,1.9 4.75,1.9 v 0.85 c 0,0 -2.91,0 -4.76,1.85"
         id="path8054"
         inkscape:connector-curvature="0" />
      <path
         d="m 1.87,-3.86 c -1.9,1.9 -4.75,1.9 -4.75,1.9 v 0.85 c 0,0 2.91,0 4.76,1.85"
         id="path8056"
         inkscape:connector-curvature="0" />
    </g>
    <g
       transform="matrix(-1.0979532,0,0,-1.1762324,494.82783,61.551756)"
       id="use898-6-3-4-8-6-8-6-2-2-2">
      <path
         d="m 3.35,4.66 c 0,-1.81 -1.51,-3.28 -3.38,-3.28 -1.87,0 -3.38,1.47 -3.38,3.28 0,1.81 1.51,3.28 3.38,3.28 1.87,0 3.38,-1.47 3.38,-3.28 z"
         id="path8060"
         inkscape:connector-curvature="0" />
      <path
         d="m 7.71,-1.55 c 0,-1.81 -1.51,-3.28 -3.38,-3.28 -1.87,0 -3.38,1.47 -3.38,3.28 0,1.81 1.51,3.28 3.38,3.28 1.87,0 3.38,-1.47 3.38,-3.28 z"
         id="path8062"
         inkscape:connector-curvature="0" />
      <path
         d="m -0.95,-1.57 c 0,-0.66 -0.2,-1.28 -0.55,-1.8 -0.6,-0.89 -1.65,-1.48 -2.83,-1.48 -1.87,0 -3.38,1.47 -3.38,3.28 0,1.81 1.51,3.28 3.38,3.28 1.87,0 3.38,-1.47 3.38,-3.28 z"
         id="path8064"
         inkscape:connector-curvature="0" />
      <path
         d="m 3.94,-7.94 c -1.67,0 -2.55,1.36 -3.01,2.72 -0.46,1.36 -0.5,2.72 -0.5,2.72 h -0.86 c 0,0 -0.16,-5.43 -3.5,-5.44 z"
         id="path8066"
         inkscape:connector-curvature="0" />
      <path
         d="m -2.32,2.25 c 1.9,-1.9 1.9,-4.75 1.9,-4.75 l 0.85,-0.01 c 0,0 0,2.91 1.85,4.76"
         id="path8068"
         inkscape:connector-curvature="0" />
      <path
         d="m -1.94,-3.85 c 1.9,1.9 4.75,1.9 4.75,1.9 v 0.85 c 0,0 -2.91,0 -4.76,1.85"
         id="path8070"
         inkscape:connector-curvature="0" />
      <path
         d="m 1.87,-3.86 c -1.9,1.9 -4.75,1.9 -4.75,1.9 v 0.85 c 0,0 2.91,0 4.76,1.85"
         id="path8072"
         inkscape:connector-curvature="0" />
    </g>
    <g
       transform="matrix(0.46229607,0,0,0.49525575,545.61895,96.942723)"
       id="use1298-9-8-0-0-6-3-7-1-5">
      <path
         d="m 3.35,4.66 c 0,-1.81 -1.51,-3.28 -3.38,-3.28 -1.87,0 -3.38,1.47 -3.38,3.28 0,1.81 1.51,3.28 3.38,3.28 1.87,0 3.38,-1.47 3.38,-3.28 z"
         id="path8076"
         inkscape:connector-curvature="0" />
      <path
         d="m 7.71,-1.55 c 0,-1.81 -1.51,-3.28 -3.38,-3.28 -1.87,0 -3.38,1.47 -3.38,3.28 0,1.81 1.51,3.28 3.38,3.28 1.87,0 3.38,-1.47 3.38,-3.28 z"
         id="path8078"
         inkscape:connector-curvature="0" />
      <path
         d="m -0.95,-1.57 c 0,-0.66 -0.2,-1.28 -0.55,-1.8 -0.6,-0.89 -1.65,-1.48 -2.83,-1.48 -1.87,0 -3.38,1.47 -3.38,3.28 0,1.81 1.51,3.28 3.38,3.28 1.87,0 3.38,-1.47 3.38,-3.28 z"
         id="path8080"
         inkscape:connector-curvature="0" />
      <path
         d="m 3.94,-7.94 c -1.67,0 -2.55,1.36 -3.01,2.72 -0.46,1.36 -0.5,2.72 -0.5,2.72 h -0.86 c 0,0 -0.16,-5.43 -3.5,-5.44 z"
         id="path8082"
         inkscape:connector-curvature="0" />
      <path
         d="m -2.32,2.25 c 1.9,-1.9 1.9,-4.75 1.9,-4.75 l 0.85,-0.01 c 0,0 0,2.91 1.85,4.76"
         id="path8084"
         inkscape:connector-curvature="0" />
      <path
         d="m -1.94,-3.85 c 1.9,1.9 4.75,1.9 4.75,1.9 v 0.85 c 0,0 -2.91,0 -4.76,1.85"
         id="path8087"
         inkscape:connector-curvature="0" />
      <path
         d="m 1.87,-3.86 c -1.9,1.9 -4.75,1.9 -4.75,1.9 v 0.85 c 0,0 2.91,0 4.76,1.85"
         id="path8090"
         inkscape:connector-curvature="0" />
    </g>
    <g
       transform="matrix(-1.0979532,0,0,-1.1762324,513.31766,39.801036)"
       id="use898-6-3-4-8-6-8-6-2-5-6">
      <path
         d="m 3.35,4.66 c 0,-1.81 -1.51,-3.28 -3.38,-3.28 -1.87,0 -3.38,1.47 -3.38,3.28 0,1.81 1.51,3.28 3.38,3.28 1.87,0 3.38,-1.47 3.38,-3.28 z"
         id="path8094"
         inkscape:connector-curvature="0" />
      <path
         d="m 7.71,-1.55 c 0,-1.81 -1.51,-3.28 -3.38,-3.28 -1.87,0 -3.38,1.47 -3.38,3.28 0,1.81 1.51,3.28 3.38,3.28 1.87,0 3.38,-1.47 3.38,-3.28 z"
         id="path8096"
         inkscape:connector-curvature="0" />
      <path
         d="m -0.95,-1.57 c 0,-0.66 -0.2,-1.28 -0.55,-1.8 -0.6,-0.89 -1.65,-1.48 -2.83,-1.48 -1.87,0 -3.38,1.47 -3.38,3.28 0,1.81 1.51,3.28 3.38,3.28 1.87,0 3.38,-1.47 3.38,-3.28 z"
         id="path8099"
         inkscape:connector-curvature="0" />
      <path
         d="m 3.94,-7.94 c -1.67,0 -2.55,1.36 -3.01,2.72 -0.46,1.36 -0.5,2.72 -0.5,2.72 h -0.86 c 0,0 -0.16,-5.43 -3.5,-5.44 z"
         id="path8102"
         inkscape:connector-curvature="0" />
      <path
         d="m -2.32,2.25 c 1.9,-1.9 1.9,-4.75 1.9,-4.75 l 0.85,-0.01 c 0,0 0,2.91 1.85,4.76"
         id="path8105"
         inkscape:connector-curvature="0" />
      <path
         d="m -1.94,-3.85 c 1.9,1.9 4.75,1.9 4.75,1.9 v 0.85 c 0,0 -2.91,0 -4.76,1.85"
         id="path8108"
         inkscape:connector-curvature="0" />
      <path
         d="m 1.87,-3.86 c -1.9,1.9 -4.75,1.9 -4.75,1.9 v 0.85 c 0,0 2.91,0 4.76,1.85"
         id="path8111"
         inkscape:connector-curvature="0" />
    </g>
    <path
       d="m 547.73267,116.60441 h -4.77826 l 0.94884,-3.41069 q 0.0341,-0.19062 0.47098,-1.73546 0.43005,-1.53481 0.60754,-2.53794 0.17748,-0.99313 0.17748,-1.66523 0,-0.59184 -0.18432,-1.48467 -0.19113,-0.89278 -0.19113,-1.32414 0,-0.40124 0.19797,-0.76241 0.19112,-0.35108 0.5256,-0.35108 0.38227,0 0.628,0.44138 0.2389,0.4414 0.2389,1.16364 0,0.75237 -0.32083,1.91603 l -2.21847,7.88473 h 3.25603 q 0.47784,0 0.60754,-0.1806 0.12285,-0.17053 0.27303,-1.01317 l 0.10923,-0.61189 h 0.34812 z"
       style="font-style:normal;font-variant:normal;font-weight:normal;font-stretch:normal;font-size:medium;line-height:125%;font-family:'Bodoni MT';-inkscape-font-specification:'Bodoni MT';letter-spacing:0px;word-spacing:0px;fill:#000000;fill-opacity:1;stroke:none;stroke-width:1px;stroke-linecap:butt;stroke-linejoin:miter;stroke-opacity:1"
       id="path8644"
       inkscape:connector-curvature="0" />
    <path
       d="m 479.04768,6.4991163 h 4.77822 l -0.94879,3.41069 q -0.0341,0.1905997 -0.47101,1.7354587 -0.43005,1.53481 -0.60751,2.53793 -0.17748,0.99314 -0.17748,1.66524 0,0.59184 0.1843,1.48464 0.19112,0.8928 0.19112,1.32417 0,0.40126 -0.19794,0.76238 -0.19113,0.3511 -0.52561,0.3511 -0.38225,0 -0.62799,-0.44138 -0.23892,-0.44139 -0.23892,-1.16364 0,-0.75236 0.32082,-1.91603 l 2.21847,-7.8846987 h -3.25603 q -0.47782,0 -0.60751,0.18055 -0.12288,0.17055 -0.27306,1.01318 l -0.1092,0.6119187 h -0.34813 z"
       style="font-style:normal;font-variant:normal;font-weight:normal;font-stretch:normal;font-size:medium;line-height:125%;font-family:'Bodoni MT';-inkscape-font-specification:'Bodoni MT';letter-spacing:0px;word-spacing:0px;fill:#000000;fill-opacity:1;stroke:none;stroke-width:1px;stroke-linecap:butt;stroke-linejoin:miter;stroke-opacity:1"
       id="path8602"
       inkscape:connector-curvature="0" />
  </g>
</svg>
