<?xml version="1.0" encoding="UTF-8" standalone="no"?>
<!-- Created with Inkscape (http://www.inkscape.org/) -->

<svg
   id="svg10047"
   height="122.87411"
   width="78.870903"
   version="1.1"
   viewBox="0 0 78.870903 122.87411"
   inkscape:version="0.91 r13725"
   sodipodi:docname="ancient-french.svgz"
   xmlns:inkscape="http://www.inkscape.org/namespaces/inkscape"
   xmlns:sodipodi="http://sodipodi.sourceforge.net/DTD/sodipodi-0.dtd"
   xmlns="http://www.w3.org/2000/svg"
   xmlns:svg="http://www.w3.org/2000/svg"
   xmlns:rdf="http://www.w3.org/1999/02/22-rdf-syntax-ns#"
   xmlns:cc="http://creativecommons.org/ns#"
   xmlns:dc="http://purl.org/dc/elements/1.1/">
  <sodipodi:namedview
     pagecolor="#ffffff"
     bordercolor="#666666"
     borderopacity="1"
     objecttolerance="10"
     gridtolerance="10"
     guidetolerance="10"
     inkscape:pageopacity="0"
     inkscape:pageshadow="2"
     inkscape:window-width="1920"
     inkscape:window-height="1016"
     id="namedview1491"
     showgrid="false"
     inkscape:zoom="1.3479675"
     inkscape:cx="407.78528"
     inkscape:cy="307.5"
     inkscape:window-x="0"
     inkscape:window-y="0"
     inkscape:window-maximized="1"
     inkscape:current-layer="svg10047"
     showguides="true"
     inkscape:guide-bbox="true"
     inkscape:snap-grids="true"
     inkscape:showpageshadow="2"
     inkscape:pagecheckerboard="0"
     inkscape:deskcolor="#d1d1d1" />
  <metadata
     id="metadata16869">
    <rdf:RDF>
      <cc:Work
         rdf:about="">
        <dc:format>image/svg+xml</dc:format>
        <dc:type
           rdf:resource="http://purl.org/dc/dcmitype/StillImage" />
        <dc:title />
      </cc:Work>
    </rdf:RDF>
  </metadata>
  <defs
     id="defs10049" />
  <g
     id="club_6"
     transform="translate(-394.79432,-0.11466654)"
     inkscape:label="#club_6">
    <rect
       transform="scale(-1)"
       style="fill:#ffffff;stroke:#000000;stroke-width:0.223273"
       id="rect142-3-7-5-9-2-7-8-0-6-5-8-9-7-2-0-9-3-3-3-6-5-3-5-1-8"
       y="-122.87714"
       x="-473.55359"
       ry="6.8138328"
       rx="6.559958"
       height="122.65083"
       width="78.647629" />
    <g
       transform="matrix(-0.46229609,0,0,-0.49525575,402.75493,26.160746)"
       id="use1298-9-8-0-6-2-8-3-2-8-8-7">
      <path
         d="m 3.35,4.66 c 0,-1.81 -1.51,-3.28 -3.38,-3.28 -1.87,0 -3.38,1.47 -3.38,3.28 0,1.81 1.51,3.28 3.38,3.28 1.87,0 3.38,-1.47 3.38,-3.28 z"
         id="path7836"
         inkscape:connector-curvature="0" />
      <path
         d="m 7.71,-1.55 c 0,-1.81 -1.51,-3.28 -3.38,-3.28 -1.87,0 -3.38,1.47 -3.38,3.28 0,1.81 1.51,3.28 3.38,3.28 1.87,0 3.38,-1.47 3.38,-3.28 z"
         id="path7838"
         inkscape:connector-curvature="0" />
      <path
         d="m -0.95,-1.57 c 0,-0.66 -0.2,-1.28 -0.55,-1.8 -0.6,-0.89 -1.65,-1.48 -2.83,-1.48 -1.87,0 -3.38,1.47 -3.38,3.28 0,1.81 1.51,3.28 3.38,3.28 1.87,0 3.38,-1.47 3.38,-3.28 z"
         id="path7840"
         inkscape:connector-curvature="0" />
      <path
         d="m 3.94,-7.94 c -1.67,0 -2.55,1.36 -3.01,2.72 -0.46,1.36 -0.5,2.72 -0.5,2.72 h -0.86 c 0,0 -0.16,-5.43 -3.5,-5.44 z"
         id="path7842"
         inkscape:connector-curvature="0" />
      <path
         d="m -2.32,2.25 c 1.9,-1.9 1.9,-4.75 1.9,-4.75 l 0.85,-0.01 c 0,0 0,2.91 1.85,4.76"
         id="path7844"
         inkscape:connector-curvature="0" />
      <path
         d="m -1.94,-3.85 c 1.9,1.9 4.75,1.9 4.75,1.9 v 0.85 c 0,0 -2.91,0 -4.76,1.85"
         id="path7846"
         inkscape:connector-curvature="0" />
      <path
         d="m 1.87,-3.86 c -1.9,1.9 -4.75,1.9 -4.75,1.9 v 0.85 c 0,0 2.91,0 4.76,1.85"
         id="path7848"
         inkscape:connector-curvature="0" />
    </g>
    <g
       transform="matrix(-1.0979532,0,0,-1.1762324,415.74015,18.050316)"
       id="use898-6-3-4-8-6-54-1-5-2">
      <path
         d="m 3.35,4.66 c 0,-1.81 -1.51,-3.28 -3.38,-3.28 -1.87,0 -3.38,1.47 -3.38,3.28 0,1.81 1.51,3.28 3.38,3.28 1.87,0 3.38,-1.47 3.38,-3.28 z"
         id="path7852"
         inkscape:connector-curvature="0" />
      <path
         d="m 7.71,-1.55 c 0,-1.81 -1.51,-3.28 -3.38,-3.28 -1.87,0 -3.38,1.47 -3.38,3.28 0,1.81 1.51,3.28 3.38,3.28 1.87,0 3.38,-1.47 3.38,-3.28 z"
         id="path7854"
         inkscape:connector-curvature="0" />
      <path
         d="m -0.95,-1.57 c 0,-0.66 -0.2,-1.28 -0.55,-1.8 -0.6,-0.89 -1.65,-1.48 -2.83,-1.48 -1.87,0 -3.38,1.47 -3.38,3.28 0,1.81 1.51,3.28 3.38,3.28 1.87,0 3.38,-1.47 3.38,-3.28 z"
         id="path7856"
         inkscape:connector-curvature="0" />
      <path
         d="m 3.94,-7.94 c -1.67,0 -2.55,1.36 -3.01,2.72 -0.46,1.36 -0.5,2.72 -0.5,2.72 h -0.86 c 0,0 -0.16,-5.43 -3.5,-5.44 z"
         id="path7858"
         inkscape:connector-curvature="0" />
      <path
         d="m -2.32,2.25 c 1.9,-1.9 1.9,-4.75 1.9,-4.75 l 0.85,-0.01 c 0,0 0,2.91 1.85,4.76"
         id="path7860"
         inkscape:connector-curvature="0" />
      <path
         d="m -1.94,-3.85 c 1.9,1.9 4.75,1.9 4.75,1.9 v 0.85 c 0,0 -2.91,0 -4.76,1.85"
         id="path7862"
         inkscape:connector-curvature="0" />
      <path
         d="m 1.87,-3.86 c -1.9,1.9 -4.75,1.9 -4.75,1.9 v 0.85 c 0,0 2.91,0 4.76,1.85"
         id="path7864"
         inkscape:connector-curvature="0" />
    </g>
    <g
       transform="matrix(1.0979532,0,0,1.1762324,415.73051,105.04225)"
       id="use898-6-3-4-8-6-5-0-2-0-4">
      <path
         d="m 3.35,4.66 c 0,-1.81 -1.51,-3.28 -3.38,-3.28 -1.87,0 -3.38,1.47 -3.38,3.28 0,1.81 1.51,3.28 3.38,3.28 1.87,0 3.38,-1.47 3.38,-3.28 z"
         id="path7868"
         inkscape:connector-curvature="0" />
      <path
         d="m 7.71,-1.55 c 0,-1.81 -1.51,-3.28 -3.38,-3.28 -1.87,0 -3.38,1.47 -3.38,3.28 0,1.81 1.51,3.28 3.38,3.28 1.87,0 3.38,-1.47 3.38,-3.28 z"
         id="path7870"
         inkscape:connector-curvature="0" />
      <path
         d="m -0.95,-1.57 c 0,-0.66 -0.2,-1.28 -0.55,-1.8 -0.6,-0.89 -1.65,-1.48 -2.83,-1.48 -1.87,0 -3.38,1.47 -3.38,3.28 0,1.81 1.51,3.28 3.38,3.28 1.87,0 3.38,-1.47 3.38,-3.28 z"
         id="path7872"
         inkscape:connector-curvature="0" />
      <path
         d="m 3.94,-7.94 c -1.67,0 -2.55,1.36 -3.01,2.72 -0.46,1.36 -0.5,2.72 -0.5,2.72 h -0.86 c 0,0 -0.16,-5.43 -3.5,-5.44 z"
         id="path7874"
         inkscape:connector-curvature="0" />
      <path
         d="m -2.32,2.25 c 1.9,-1.9 1.9,-4.75 1.9,-4.75 l 0.85,-0.01 c 0,0 0,2.91 1.85,4.76"
         id="path7876"
         inkscape:connector-curvature="0" />
      <path
         d="m -1.94,-3.85 c 1.9,1.9 4.75,1.9 4.75,1.9 v 0.85 c 0,0 -2.91,0 -4.76,1.85"
         id="path7878"
         inkscape:connector-curvature="0" />
      <path
         d="m 1.87,-3.86 c -1.9,1.9 -4.75,1.9 -4.75,1.9 v 0.85 c 0,0 2.91,0 4.76,1.85"
         id="path7880"
         inkscape:connector-curvature="0" />
    </g>
    <g
       transform="matrix(-1.0979532,0,0,-1.1762324,452.72929,18.061206)"
       id="use898-6-3-4-8-6-8-4-3-6-0">
      <path
         d="m 3.35,4.66 c 0,-1.81 -1.51,-3.28 -3.38,-3.28 -1.87,0 -3.38,1.47 -3.38,3.28 0,1.81 1.51,3.28 3.38,3.28 1.87,0 3.38,-1.47 3.38,-3.28 z"
         id="path7884"
         inkscape:connector-curvature="0" />
      <path
         d="m 7.71,-1.55 c 0,-1.81 -1.51,-3.28 -3.38,-3.28 -1.87,0 -3.38,1.47 -3.38,3.28 0,1.81 1.51,3.28 3.38,3.28 1.87,0 3.38,-1.47 3.38,-3.28 z"
         id="path7886"
         inkscape:connector-curvature="0" />
      <path
         d="m -0.95,-1.57 c 0,-0.66 -0.2,-1.28 -0.55,-1.8 -0.6,-0.89 -1.65,-1.48 -2.83,-1.48 -1.87,0 -3.38,1.47 -3.38,3.28 0,1.81 1.51,3.28 3.38,3.28 1.87,0 3.38,-1.47 3.38,-3.28 z"
         id="path7888"
         inkscape:connector-curvature="0" />
      <path
         d="m 3.94,-7.94 c -1.67,0 -2.55,1.36 -3.01,2.72 -0.46,1.36 -0.5,2.72 -0.5,2.72 h -0.86 c 0,0 -0.16,-5.43 -3.5,-5.44 z"
         id="path7890"
         inkscape:connector-curvature="0" />
      <path
         d="m -2.32,2.25 c 1.9,-1.9 1.9,-4.75 1.9,-4.75 l 0.85,-0.01 c 0,0 0,2.91 1.85,4.76"
         id="path7892"
         inkscape:connector-curvature="0" />
      <path
         d="m -1.94,-3.85 c 1.9,1.9 4.75,1.9 4.75,1.9 v 0.85 c 0,0 -2.91,0 -4.76,1.85"
         id="path7894"
         inkscape:connector-curvature="0" />
      <path
         d="m 1.87,-3.86 c -1.9,1.9 -4.75,1.9 -4.75,1.9 v 0.85 c 0,0 2.91,0 4.76,1.85"
         id="path7896"
         inkscape:connector-curvature="0" />
    </g>
    <g
       transform="matrix(1.0979532,0,0,1.1762324,452.71982,105.05313)"
       id="use898-6-3-4-8-6-5-89-6-6-4-6">
      <path
         d="m 3.35,4.66 c 0,-1.81 -1.51,-3.28 -3.38,-3.28 -1.87,0 -3.38,1.47 -3.38,3.28 0,1.81 1.51,3.28 3.38,3.28 1.87,0 3.38,-1.47 3.38,-3.28 z"
         id="path7900"
         inkscape:connector-curvature="0" />
      <path
         d="m 7.71,-1.55 c 0,-1.81 -1.51,-3.28 -3.38,-3.28 -1.87,0 -3.38,1.47 -3.38,3.28 0,1.81 1.51,3.28 3.38,3.28 1.87,0 3.38,-1.47 3.38,-3.28 z"
         id="path7902"
         inkscape:connector-curvature="0" />
      <path
         d="m -0.95,-1.57 c 0,-0.66 -0.2,-1.28 -0.55,-1.8 -0.6,-0.89 -1.65,-1.48 -2.83,-1.48 -1.87,0 -3.38,1.47 -3.38,3.28 0,1.81 1.51,3.28 3.38,3.28 1.87,0 3.38,-1.47 3.38,-3.28 z"
         id="path7904"
         inkscape:connector-curvature="0" />
      <path
         d="m 3.94,-7.94 c -1.67,0 -2.55,1.36 -3.01,2.72 -0.46,1.36 -0.5,2.72 -0.5,2.72 h -0.86 c 0,0 -0.16,-5.43 -3.5,-5.44 z"
         id="path7906"
         inkscape:connector-curvature="0" />
      <path
         d="m -2.32,2.25 c 1.9,-1.9 1.9,-4.75 1.9,-4.75 l 0.85,-0.01 c 0,0 0,2.91 1.85,4.76"
         id="path7908"
         inkscape:connector-curvature="0" />
      <path
         d="m -1.94,-3.85 c 1.9,1.9 4.75,1.9 4.75,1.9 v 0.85 c 0,0 -2.91,0 -4.76,1.85"
         id="path7910"
         inkscape:connector-curvature="0" />
      <path
         d="m 1.87,-3.86 c -1.9,1.9 -4.75,1.9 -4.75,1.9 v 0.85 c 0,0 2.91,0 4.76,1.85"
         id="path7912"
         inkscape:connector-curvature="0" />
    </g>
    <g
       transform="matrix(-1.0979532,0,0,-1.1762324,452.72929,61.551756)"
       id="use898-6-3-4-8-6-4-7-9-8-6-2">
      <path
         d="m 3.35,4.66 c 0,-1.81 -1.51,-3.28 -3.38,-3.28 -1.87,0 -3.38,1.47 -3.38,3.28 0,1.81 1.51,3.28 3.38,3.28 1.87,0 3.38,-1.47 3.38,-3.28 z"
         id="path7916"
         inkscape:connector-curvature="0" />
      <path
         d="m 7.71,-1.55 c 0,-1.81 -1.51,-3.28 -3.38,-3.28 -1.87,0 -3.38,1.47 -3.38,3.28 0,1.81 1.51,3.28 3.38,3.28 1.87,0 3.38,-1.47 3.38,-3.28 z"
         id="path7918"
         inkscape:connector-curvature="0" />
      <path
         d="m -0.95,-1.57 c 0,-0.66 -0.2,-1.28 -0.55,-1.8 -0.6,-0.89 -1.65,-1.48 -2.83,-1.48 -1.87,0 -3.38,1.47 -3.38,3.28 0,1.81 1.51,3.28 3.38,3.28 1.87,0 3.38,-1.47 3.38,-3.28 z"
         id="path7920"
         inkscape:connector-curvature="0" />
      <path
         d="m 3.94,-7.94 c -1.67,0 -2.55,1.36 -3.01,2.72 -0.46,1.36 -0.5,2.72 -0.5,2.72 h -0.86 c 0,0 -0.16,-5.43 -3.5,-5.44 z"
         id="path7922"
         inkscape:connector-curvature="0" />
      <path
         d="m -2.32,2.25 c 1.9,-1.9 1.9,-4.75 1.9,-4.75 l 0.85,-0.01 c 0,0 0,2.91 1.85,4.76"
         id="path7924"
         inkscape:connector-curvature="0" />
      <path
         d="m -1.94,-3.85 c 1.9,1.9 4.75,1.9 4.75,1.9 v 0.85 c 0,0 -2.91,0 -4.76,1.85"
         id="path7926"
         inkscape:connector-curvature="0" />
      <path
         d="m 1.87,-3.86 c -1.9,1.9 -4.75,1.9 -4.75,1.9 v 0.85 c 0,0 2.91,0 4.76,1.85"
         id="path7928"
         inkscape:connector-curvature="0" />
    </g>
    <g
       transform="matrix(-1.0979532,0,0,-1.1762324,415.74015,61.551726)"
       id="use898-6-3-4-8-6-8-6-2-2-2-9">
      <path
         d="m 3.35,4.66 c 0,-1.81 -1.51,-3.28 -3.38,-3.28 -1.87,0 -3.38,1.47 -3.38,3.28 0,1.81 1.51,3.28 3.38,3.28 1.87,0 3.38,-1.47 3.38,-3.28 z"
         id="path7932"
         inkscape:connector-curvature="0" />
      <path
         d="m 7.71,-1.55 c 0,-1.81 -1.51,-3.28 -3.38,-3.28 -1.87,0 -3.38,1.47 -3.38,3.28 0,1.81 1.51,3.28 3.38,3.28 1.87,0 3.38,-1.47 3.38,-3.28 z"
         id="path7934"
         inkscape:connector-curvature="0" />
      <path
         d="m -0.95,-1.57 c 0,-0.66 -0.2,-1.28 -0.55,-1.8 -0.6,-0.89 -1.65,-1.48 -2.83,-1.48 -1.87,0 -3.38,1.47 -3.38,3.28 0,1.81 1.51,3.28 3.38,3.28 1.87,0 3.38,-1.47 3.38,-3.28 z"
         id="path7936"
         inkscape:connector-curvature="0" />
      <path
         d="m 3.94,-7.94 c -1.67,0 -2.55,1.36 -3.01,2.72 -0.46,1.36 -0.5,2.72 -0.5,2.72 h -0.86 c 0,0 -0.16,-5.43 -3.5,-5.44 z"
         id="path7938"
         inkscape:connector-curvature="0" />
      <path
         d="m -2.32,2.25 c 1.9,-1.9 1.9,-4.75 1.9,-4.75 l 0.85,-0.01 c 0,0 0,2.91 1.85,4.76"
         id="path7940"
         inkscape:connector-curvature="0" />
      <path
         d="m -1.94,-3.85 c 1.9,1.9 4.75,1.9 4.75,1.9 v 0.85 c 0,0 -2.91,0 -4.76,1.85"
         id="path7942"
         inkscape:connector-curvature="0" />
      <path
         d="m 1.87,-3.86 c -1.9,1.9 -4.75,1.9 -4.75,1.9 v 0.85 c 0,0 2.91,0 4.76,1.85"
         id="path7944"
         inkscape:connector-curvature="0" />
    </g>
    <g
       transform="matrix(0.46229607,0,0,0.49525575,466.53122,96.942703)"
       id="use1298-9-8-0-0-6-3-7-1-5-9">
      <path
         d="m 3.35,4.66 c 0,-1.81 -1.51,-3.28 -3.38,-3.28 -1.87,0 -3.38,1.47 -3.38,3.28 0,1.81 1.51,3.28 3.38,3.28 1.87,0 3.38,-1.47 3.38,-3.28 z"
         id="path7948"
         inkscape:connector-curvature="0" />
      <path
         d="m 7.71,-1.55 c 0,-1.81 -1.51,-3.28 -3.38,-3.28 -1.87,0 -3.38,1.47 -3.38,3.28 0,1.81 1.51,3.28 3.38,3.28 1.87,0 3.38,-1.47 3.38,-3.28 z"
         id="path7950"
         inkscape:connector-curvature="0" />
      <path
         d="m -0.95,-1.57 c 0,-0.66 -0.2,-1.28 -0.55,-1.8 -0.6,-0.89 -1.65,-1.48 -2.83,-1.48 -1.87,0 -3.38,1.47 -3.38,3.28 0,1.81 1.51,3.28 3.38,3.28 1.87,0 3.38,-1.47 3.38,-3.28 z"
         id="path7952"
         inkscape:connector-curvature="0" />
      <path
         d="m 3.94,-7.94 c -1.67,0 -2.55,1.36 -3.01,2.72 -0.46,1.36 -0.5,2.72 -0.5,2.72 h -0.86 c 0,0 -0.16,-5.43 -3.5,-5.44 z"
         id="path7954"
         inkscape:connector-curvature="0" />
      <path
         d="m -2.32,2.25 c 1.9,-1.9 1.9,-4.75 1.9,-4.75 l 0.85,-0.01 c 0,0 0,2.91 1.85,4.76"
         id="path7956"
         inkscape:connector-curvature="0" />
      <path
         d="m -1.94,-3.85 c 1.9,1.9 4.75,1.9 4.75,1.9 v 0.85 c 0,0 -2.91,0 -4.76,1.85"
         id="path7958"
         inkscape:connector-curvature="0" />
      <path
         d="m 1.87,-3.86 c -1.9,1.9 -4.75,1.9 -4.75,1.9 v 0.85 c 0,0 2.91,0 4.76,1.85"
         id="path7960"
         inkscape:connector-curvature="0" />
    </g>
    <path
       d="m 465.29323,116.60441 v -0.5941 q 2.97334,-0.53661 3.31241,-5.13617 l -0.0261,-0.0383 q -0.59985,1.01573 -1.42795,1.01573 -1.00418,0 -1.72796,-1.22654 -0.7303,-1.21696 -0.7303,-2.83641 0,-1.74398 0.789,-3.10468 0.78246,-1.35113 1.87137,-1.35113 1.18674,0 1.96919,1.54279 0.78247,1.55233 0.78247,3.90001 0,3.11428 -1.35627,5.28947 -1.36277,2.18478 -3.45586,2.53935 z m 3.38414,-6.61187 0.0391,-1.69607 q 0,-3.50715 -0.48251,-4.00543 -0.48252,-0.48871 -0.88025,-0.48871 -0.61292,0 -0.93894,0.75701 -0.33254,0.7666 -0.33254,3.11428 0,2.48183 0.30644,3.09512 0.29994,0.61326 0.8542,0.61326 0.76941,0 1.43451,-1.38946 z"
       style="font-style:normal;font-variant:normal;font-weight:normal;font-stretch:normal;font-size:medium;line-height:125%;font-family:'Bodoni MT';-inkscape-font-specification:'Bodoni MT';letter-spacing:0px;word-spacing:0px;fill:#000000;fill-opacity:1;stroke:none;stroke-width:1px;stroke-linecap:butt;stroke-linejoin:miter;stroke-opacity:1"
       id="path8647"
       inkscape:connector-curvature="0" />
    <path
       d="m 404.90245,6.4991363 v 0.5941 q -2.97333,0.53662 -3.3124,5.1361787 l 0.0261,0.0383 q 0.5999,-1.01574 1.428,-1.01574 1.00414,0 1.72791,1.22655 0.7303,1.21698 0.7303,2.8364 0,1.744 -0.78898,3.10469 -0.78245,1.35112 -1.87138,1.35112 -1.18674,0 -1.96917,-1.54277 -0.78246,-1.55235 -0.78246,-3.90004 0,-3.11428 1.35626,-5.2894687 1.36279,-2.18481 3.45584,-2.53934 z m -3.38412,6.6118387 -0.0391,1.6961 q 0,3.50715 0.48252,4.00543 0.48252,0.48871 0.88026,0.48871 0.61292,0 0.93898,-0.75701 0.33253,-0.76659 0.33253,-3.11428 0,-2.48183 -0.30648,-3.09512 -0.29994,-0.61326 -0.85415,-0.61326 -0.76944,0 -1.43453,1.38943 z"
       style="font-style:normal;font-variant:normal;font-weight:normal;font-stretch:normal;font-size:medium;line-height:125%;font-family:'Bodoni MT';-inkscape-font-specification:'Bodoni MT';letter-spacing:0px;word-spacing:0px;fill:#000000;fill-opacity:1;stroke:none;stroke-width:1px;stroke-linecap:butt;stroke-linejoin:miter;stroke-opacity:1"
       id="path8605"
       inkscape:connector-curvature="0" />
  </g>
</svg>
