<?xml version="1.0" encoding="UTF-8" standalone="no"?>
<!-- Created with Inkscape (http://www.inkscape.org/) -->

<svg
   id="svg10047"
   height="122.87411"
   width="78.870903"
   version="1.1"
   viewBox="0 0 78.870903 122.87411"
   inkscape:version="0.91 r13725"
   sodipodi:docname="ancient-french.svgz"
   xmlns:inkscape="http://www.inkscape.org/namespaces/inkscape"
   xmlns:sodipodi="http://sodipodi.sourceforge.net/DTD/sodipodi-0.dtd"
   xmlns="http://www.w3.org/2000/svg"
   xmlns:svg="http://www.w3.org/2000/svg"
   xmlns:rdf="http://www.w3.org/1999/02/22-rdf-syntax-ns#"
   xmlns:cc="http://creativecommons.org/ns#"
   xmlns:dc="http://purl.org/dc/elements/1.1/">
  <sodipodi:namedview
     pagecolor="#ffffff"
     bordercolor="#666666"
     borderopacity="1"
     objecttolerance="10"
     gridtolerance="10"
     guidetolerance="10"
     inkscape:pageopacity="0"
     inkscape:pageshadow="2"
     inkscape:window-width="1920"
     inkscape:window-height="1016"
     id="namedview1491"
     showgrid="false"
     inkscape:zoom="1.3479675"
     inkscape:cx="407.78528"
     inkscape:cy="307.5"
     inkscape:window-x="0"
     inkscape:window-y="0"
     inkscape:window-maximized="1"
     inkscape:current-layer="svg10047"
     showguides="true"
     inkscape:guide-bbox="true"
     inkscape:snap-grids="true"
     inkscape:showpageshadow="2"
     inkscape:pagecheckerboard="0"
     inkscape:deskcolor="#d1d1d1" />
  <metadata
     id="metadata16869">
    <rdf:RDF>
      <cc:Work
         rdf:about="">
        <dc:format>image/svg+xml</dc:format>
        <dc:type
           rdf:resource="http://purl.org/dc/dcmitype/StillImage" />
        <dc:title />
      </cc:Work>
    </rdf:RDF>
  </metadata>
  <defs
     id="defs10049" />
  <g
     id="club_3"
     transform="translate(-157.72038,-0.12589701)"
     inkscape:label="#club_3">
    <rect
       transform="scale(-1)"
       style="fill:#ffffff;stroke:#000000;stroke-width:0.223273"
       id="rect142-3-7-5-9-2-7-8-0-6-5-8-9-7-2-0-9-3-3-3-6-5-3-5-1-8-4"
       y="-122.88837"
       x="-236.47964"
       ry="6.8138328"
       rx="6.559958"
       height="122.65083"
       width="78.647629" />
    <g
       transform="matrix(-0.46229609,0,0,-0.49525575,164.85452,26.171936)"
       id="use1298-9-8-0-6-2-8-3-2-8-8-7-0">
      <path
         d="m 3.35,4.66 c 0,-1.81 -1.51,-3.28 -3.38,-3.28 -1.87,0 -3.38,1.47 -3.38,3.28 0,1.81 1.51,3.28 3.38,3.28 1.87,0 3.38,-1.47 3.38,-3.28 z"
         id="path7548"
         inkscape:connector-curvature="0" />
      <path
         d="m 7.71,-1.55 c 0,-1.81 -1.51,-3.28 -3.38,-3.28 -1.87,0 -3.38,1.47 -3.38,3.28 0,1.81 1.51,3.28 3.38,3.28 1.87,0 3.38,-1.47 3.38,-3.28 z"
         id="path7550"
         inkscape:connector-curvature="0" />
      <path
         d="m -0.95,-1.57 c 0,-0.66 -0.2,-1.28 -0.55,-1.8 -0.6,-0.89 -1.65,-1.48 -2.83,-1.48 -1.87,0 -3.38,1.47 -3.38,3.28 0,1.81 1.51,3.28 3.38,3.28 1.87,0 3.38,-1.47 3.38,-3.28 z"
         id="path7552"
         inkscape:connector-curvature="0" />
      <path
         d="m 3.94,-7.94 c -1.67,0 -2.55,1.36 -3.01,2.72 -0.46,1.36 -0.5,2.72 -0.5,2.72 h -0.86 c 0,0 -0.16,-5.43 -3.5,-5.44 z"
         id="path7554"
         inkscape:connector-curvature="0" />
      <path
         d="m -2.32,2.25 c 1.9,-1.9 1.9,-4.75 1.9,-4.75 l 0.85,-0.01 c 0,0 0,2.91 1.85,4.76"
         id="path7556"
         inkscape:connector-curvature="0" />
      <path
         d="m -1.94,-3.85 c 1.9,1.9 4.75,1.9 4.75,1.9 v 0.85 c 0,0 -2.91,0 -4.76,1.85"
         id="path7558"
         inkscape:connector-curvature="0" />
      <path
         d="m 1.87,-3.86 c -1.9,1.9 -4.75,1.9 -4.75,1.9 v 0.85 c 0,0 2.91,0 4.76,1.85"
         id="path7560"
         inkscape:connector-curvature="0" />
    </g>
    <g
       transform="matrix(-1.0979532,0,0,-1.1762324,197.16544,18.061526)"
       id="use898-6-3-4-8-6-54-1-5-2-4">
      <path
         d="m 3.35,4.66 c 0,-1.81 -1.51,-3.28 -3.38,-3.28 -1.87,0 -3.38,1.47 -3.38,3.28 0,1.81 1.51,3.28 3.38,3.28 1.87,0 3.38,-1.47 3.38,-3.28 z"
         id="path7564"
         inkscape:connector-curvature="0" />
      <path
         d="m 7.71,-1.55 c 0,-1.81 -1.51,-3.28 -3.38,-3.28 -1.87,0 -3.38,1.47 -3.38,3.28 0,1.81 1.51,3.28 3.38,3.28 1.87,0 3.38,-1.47 3.38,-3.28 z"
         id="path7566"
         inkscape:connector-curvature="0" />
      <path
         d="m -0.95,-1.57 c 0,-0.66 -0.2,-1.28 -0.55,-1.8 -0.6,-0.89 -1.65,-1.48 -2.83,-1.48 -1.87,0 -3.38,1.47 -3.38,3.28 0,1.81 1.51,3.28 3.38,3.28 1.87,0 3.38,-1.47 3.38,-3.28 z"
         id="path7568"
         inkscape:connector-curvature="0" />
      <path
         d="m 3.94,-7.94 c -1.67,0 -2.55,1.36 -3.01,2.72 -0.46,1.36 -0.5,2.72 -0.5,2.72 h -0.86 c 0,0 -0.16,-5.43 -3.5,-5.44 z"
         id="path7570"
         inkscape:connector-curvature="0" />
      <path
         d="m -2.32,2.25 c 1.9,-1.9 1.9,-4.75 1.9,-4.75 l 0.85,-0.01 c 0,0 0,2.91 1.85,4.76"
         id="path7572"
         inkscape:connector-curvature="0" />
      <path
         d="m -1.94,-3.85 c 1.9,1.9 4.75,1.9 4.75,1.9 v 0.85 c 0,0 -2.91,0 -4.76,1.85"
         id="path7574"
         inkscape:connector-curvature="0" />
      <path
         d="m 1.87,-3.86 c -1.9,1.9 -4.75,1.9 -4.75,1.9 v 0.85 c 0,0 2.91,0 4.76,1.85"
         id="path7576"
         inkscape:connector-curvature="0" />
    </g>
    <g
       transform="matrix(1.0979532,0,0,1.1762324,197.15584,105.05345)"
       id="use898-6-3-4-8-6-5-0-2-0-4-6">
      <path
         d="m 3.35,4.66 c 0,-1.81 -1.51,-3.28 -3.38,-3.28 -1.87,0 -3.38,1.47 -3.38,3.28 0,1.81 1.51,3.28 3.38,3.28 1.87,0 3.38,-1.47 3.38,-3.28 z"
         id="path7580"
         inkscape:connector-curvature="0" />
      <path
         d="m 7.71,-1.55 c 0,-1.81 -1.51,-3.28 -3.38,-3.28 -1.87,0 -3.38,1.47 -3.38,3.28 0,1.81 1.51,3.28 3.38,3.28 1.87,0 3.38,-1.47 3.38,-3.28 z"
         id="path7582"
         inkscape:connector-curvature="0" />
      <path
         d="m -0.95,-1.57 c 0,-0.66 -0.2,-1.28 -0.55,-1.8 -0.6,-0.89 -1.65,-1.48 -2.83,-1.48 -1.87,0 -3.38,1.47 -3.38,3.28 0,1.81 1.51,3.28 3.38,3.28 1.87,0 3.38,-1.47 3.38,-3.28 z"
         id="path7584"
         inkscape:connector-curvature="0" />
      <path
         d="m 3.94,-7.94 c -1.67,0 -2.55,1.36 -3.01,2.72 -0.46,1.36 -0.5,2.72 -0.5,2.72 h -0.86 c 0,0 -0.16,-5.43 -3.5,-5.44 z"
         id="path7586"
         inkscape:connector-curvature="0" />
      <path
         d="m -2.32,2.25 c 1.9,-1.9 1.9,-4.75 1.9,-4.75 l 0.85,-0.01 c 0,0 0,2.91 1.85,4.76"
         id="path7588"
         inkscape:connector-curvature="0" />
      <path
         d="m -1.94,-3.85 c 1.9,1.9 4.75,1.9 4.75,1.9 v 0.85 c 0,0 -2.91,0 -4.76,1.85"
         id="path7590"
         inkscape:connector-curvature="0" />
      <path
         d="m 1.87,-3.86 c -1.9,1.9 -4.75,1.9 -4.75,1.9 v 0.85 c 0,0 2.91,0 4.76,1.85"
         id="path7592"
         inkscape:connector-curvature="0" />
    </g>
    <g
       transform="matrix(-1.0979532,0,0,-1.1762324,197.16544,61.562926)"
       id="use898-6-3-4-8-6-8-6-2-2-2-9-5">
      <path
         d="m 3.35,4.66 c 0,-1.81 -1.51,-3.28 -3.38,-3.28 -1.87,0 -3.38,1.47 -3.38,3.28 0,1.81 1.51,3.28 3.38,3.28 1.87,0 3.38,-1.47 3.38,-3.28 z"
         id="path7596"
         inkscape:connector-curvature="0" />
      <path
         d="m 7.71,-1.55 c 0,-1.81 -1.51,-3.28 -3.38,-3.28 -1.87,0 -3.38,1.47 -3.38,3.28 0,1.81 1.51,3.28 3.38,3.28 1.87,0 3.38,-1.47 3.38,-3.28 z"
         id="path7598"
         inkscape:connector-curvature="0" />
      <path
         d="m -0.95,-1.57 c 0,-0.66 -0.2,-1.28 -0.55,-1.8 -0.6,-0.89 -1.65,-1.48 -2.83,-1.48 -1.87,0 -3.38,1.47 -3.38,3.28 0,1.81 1.51,3.28 3.38,3.28 1.87,0 3.38,-1.47 3.38,-3.28 z"
         id="path7600"
         inkscape:connector-curvature="0" />
      <path
         d="m 3.94,-7.94 c -1.67,0 -2.55,1.36 -3.01,2.72 -0.46,1.36 -0.5,2.72 -0.5,2.72 h -0.86 c 0,0 -0.16,-5.43 -3.5,-5.44 z"
         id="path7602"
         inkscape:connector-curvature="0" />
      <path
         d="m -2.32,2.25 c 1.9,-1.9 1.9,-4.75 1.9,-4.75 l 0.85,-0.01 c 0,0 0,2.91 1.85,4.76"
         id="path7604"
         inkscape:connector-curvature="0" />
      <path
         d="m -1.94,-3.85 c 1.9,1.9 4.75,1.9 4.75,1.9 v 0.85 c 0,0 -2.91,0 -4.76,1.85"
         id="path7606"
         inkscape:connector-curvature="0" />
      <path
         d="m 1.87,-3.86 c -1.9,1.9 -4.75,1.9 -4.75,1.9 v 0.85 c 0,0 2.91,0 4.76,1.85"
         id="path7608"
         inkscape:connector-curvature="0" />
    </g>
    <g
       transform="matrix(0.46229607,0,0,0.49525575,229.45735,96.953913)"
       id="use1298-9-8-0-0-6-3-7-1-5-9-6">
      <path
         d="m 3.35,4.66 c 0,-1.81 -1.51,-3.28 -3.38,-3.28 -1.87,0 -3.38,1.47 -3.38,3.28 0,1.81 1.51,3.28 3.38,3.28 1.87,0 3.38,-1.47 3.38,-3.28 z"
         id="path7612"
         inkscape:connector-curvature="0" />
      <path
         d="m 7.71,-1.55 c 0,-1.81 -1.51,-3.28 -3.38,-3.28 -1.87,0 -3.38,1.47 -3.38,3.28 0,1.81 1.51,3.28 3.38,3.28 1.87,0 3.38,-1.47 3.38,-3.28 z"
         id="path7614"
         inkscape:connector-curvature="0" />
      <path
         d="m -0.95,-1.57 c 0,-0.66 -0.2,-1.28 -0.55,-1.8 -0.6,-0.89 -1.65,-1.48 -2.83,-1.48 -1.87,0 -3.38,1.47 -3.38,3.28 0,1.81 1.51,3.28 3.38,3.28 1.87,0 3.38,-1.47 3.38,-3.28 z"
         id="path7616"
         inkscape:connector-curvature="0" />
      <path
         d="m 3.94,-7.94 c -1.67,0 -2.55,1.36 -3.01,2.72 -0.46,1.36 -0.5,2.72 -0.5,2.72 h -0.86 c 0,0 -0.16,-5.43 -3.5,-5.44 z"
         id="path7618"
         inkscape:connector-curvature="0" />
      <path
         d="m -2.32,2.25 c 1.9,-1.9 1.9,-4.75 1.9,-4.75 l 0.85,-0.01 c 0,0 0,2.91 1.85,4.76"
         id="path7620"
         inkscape:connector-curvature="0" />
      <path
         d="m -1.94,-3.85 c 1.9,1.9 4.75,1.9 4.75,1.9 v 0.85 c 0,0 -2.91,0 -4.76,1.85"
         id="path7622"
         inkscape:connector-curvature="0" />
      <path
         d="m 1.87,-3.86 c -1.9,1.9 -4.75,1.9 -4.75,1.9 v 0.85 c 0,0 2.91,0 4.76,1.85"
         id="path7624"
         inkscape:connector-curvature="0" />
    </g>
    <path
       d="m 228.56149,110.53196 v -0.0395 q -1.46935,-0.17745 -2.03294,-1.18322 -0.5636,-0.99583 -0.5636,-2.20863 0,-1.5283 0.87892,-2.64247 0.87895,-1.11419 2.1135,-1.11419 0.96614,0 1.59681,0.7592 0.63069,0.75923 0.63069,1.66637 0,0.51271 -0.19456,0.85782 -0.19459,0.35498 -0.4898,0.35498 -0.27508,0 -0.46296,-0.30568 -0.18784,-0.2958 -0.18784,-0.71979 0,-0.67048 0.36229,-0.9367 0.22815,-0.1479 0.22815,-0.23666 0,-0.18733 -0.41601,-0.55214 -0.4227,-0.35499 -0.93931,-0.35499 -1.6371,0 -1.6371,2.92845 0,2.11005 0.60383,2.75095 0.59716,0.6409 1.30836,0.6409 l 0.58372,-0.0592 q 0.32203,0 0.32203,0.31552 0,0.30567 -0.27507,0.30567 -0.0873,0 -0.4227,-0.0493 -0.34217,-0.0493 -0.3489,-0.0493 -0.20797,0 -0.60384,0.3254 -0.40255,0.32535 -0.59043,0.85781 -0.19456,0.54229 -0.19456,1.70578 0,1.54803 0.29522,2.06073 0.28849,0.52259 0.83198,0.52259 0.49647,0 0.84535,-0.29579 0.34891,-0.28593 0.34891,-0.53242 0,-0.1085 -0.26168,-0.32541 -0.26836,-0.20705 -0.26836,-0.72963 0,-0.36484 0.19456,-0.64091 0.19457,-0.26622 0.43612,-0.26622 0.27507,0 0.45623,0.33526 0.17445,0.33522 0.17445,0.77892 0,0.80853 -0.58372,1.47902 -0.58371,0.68036 -1.50291,0.68036 -1.02654,0 -1.7176,-0.85787 -0.69109,-0.84793 -0.69109,-2.07059 0,-2.32697 2.17386,-3.1552 z"
       style="font-style:normal;font-variant:normal;font-weight:normal;font-stretch:normal;font-size:medium;line-height:125%;font-family:'Bodoni MT';-inkscape-font-specification:'Bodoni MT';letter-spacing:0px;word-spacing:0px;fill:#000000;fill-opacity:1;stroke:none;stroke-width:1px;stroke-linecap:butt;stroke-linejoin:miter;stroke-opacity:1"
       id="path8656"
       inkscape:connector-curvature="0" />
    <path
       d="m 163.98535,12.593945 v 0.0395 q 1.46936,0.17749 2.03295,1.1832 0.56359,0.99586 0.56359,2.20865 0,1.5283 -0.87892,2.64251 -0.87895,1.11417 -2.11347,1.11417 -0.96617,0 -1.59684,-0.75921 -0.63069,-0.75923 -0.63069,-1.66635 0,-0.51273 0.19457,-0.85783 0.19459,-0.35496 0.48979,-0.35496 0.27508,0 0.46295,0.30567 0.18787,0.29579 0.18787,0.71977 0,0.67048 -0.36231,0.9367 -0.22812,0.14789 -0.22812,0.23664 0,0.18735 0.41597,0.55216 0.4227,0.35498 0.93934,0.35498 1.63708,0 1.63708,-2.92845 0,-2.11003 -0.60385,-2.75095 -0.59714,-0.6409 -1.30834,-0.6409 l -0.58371,0.0592 q -0.32204,0 -0.32204,-0.31552 0,-0.30565 0.27508,-0.30565 0.0873,0 0.4227,0.0493 0.34216,0.0493 0.34888,0.0493 0.20799,0 0.60384,-0.32536 0.40256,-0.32538 0.59043,-0.85785 0.19457,-0.54228 0.19457,-1.7057687 0,-1.54802 -0.29521,-2.06076 -0.28851,-0.52259 -0.83196,-0.52259 -0.4965,0 -0.84538,0.29583 -0.3489,0.28592 -0.3489,0.53243 0,0.10844 0.26167,0.32538 0.26838,0.20706 0.26838,0.72964 0,0.36483 -0.19458,0.64091 -0.19457,0.26621 -0.43612,0.26621 -0.27508,0 -0.45624,-0.33522 -0.17443,-0.33526 -0.17443,-0.77895 0,-0.80853 0.58371,-1.47902 0.58371,-0.68033 1.50291,-0.68033 1.02654,0 1.71761,0.85781 0.69108,0.84797 0.69108,2.07061 0,2.3269687 -2.17386,3.1552087 z"
       style="font-style:normal;font-variant:normal;font-weight:normal;font-stretch:normal;font-size:medium;line-height:125%;font-family:'Bodoni MT';-inkscape-font-specification:'Bodoni MT';letter-spacing:0px;word-spacing:0px;fill:#000000;fill-opacity:1;stroke:none;stroke-width:1px;stroke-linecap:butt;stroke-linejoin:miter;stroke-opacity:1"
       id="path8614"
       inkscape:connector-curvature="0" />
  </g>
</svg>
