<?xml version="1.0" encoding="UTF-8" standalone="no"?>
<!-- Created with Inkscape (http://www.inkscape.org/) -->

<svg
   id="svg10047"
   height="122.87411"
   width="78.870903"
   version="1.1"
   viewBox="0 0 78.870903 122.87411"
   inkscape:version="0.91 r13725"
   sodipodi:docname="ancient-french.svgz"
   xmlns:inkscape="http://www.inkscape.org/namespaces/inkscape"
   xmlns:sodipodi="http://sodipodi.sourceforge.net/DTD/sodipodi-0.dtd"
   xmlns="http://www.w3.org/2000/svg"
   xmlns:svg="http://www.w3.org/2000/svg"
   xmlns:rdf="http://www.w3.org/1999/02/22-rdf-syntax-ns#"
   xmlns:cc="http://creativecommons.org/ns#"
   xmlns:dc="http://purl.org/dc/elements/1.1/">
  <sodipodi:namedview
     pagecolor="#ffffff"
     bordercolor="#666666"
     borderopacity="1"
     objecttolerance="10"
     gridtolerance="10"
     guidetolerance="10"
     inkscape:pageopacity="0"
     inkscape:pageshadow="2"
     inkscape:window-width="1920"
     inkscape:window-height="1016"
     id="namedview1491"
     showgrid="false"
     inkscape:zoom="1.3479675"
     inkscape:cx="407.78528"
     inkscape:cy="307.5"
     inkscape:window-x="0"
     inkscape:window-y="0"
     inkscape:window-maximized="1"
     inkscape:current-layer="svg10047"
     showguides="true"
     inkscape:guide-bbox="true"
     inkscape:snap-grids="true"
     inkscape:showpageshadow="2"
     inkscape:pagecheckerboard="0"
     inkscape:deskcolor="#d1d1d1" />
  <metadata
     id="metadata16869">
    <rdf:RDF>
      <cc:Work
         rdf:about="">
        <dc:format>image/svg+xml</dc:format>
        <dc:type
           rdf:resource="http://purl.org/dc/dcmitype/StillImage" />
        <dc:title />
      </cc:Work>
    </rdf:RDF>
  </metadata>
  <defs
     id="defs10049" />
  <g
     id="club_1"
     transform="translate(3.2633543e-6,-0.12589701)">
    <rect
       transform="scale(-1)"
       style="fill:#ffffff;stroke:#000000;stroke-width:0.223273"
       id="rect142-3-7-5-9-2-7-8-0-6-5-8-9-7-2-0-9-3-3-3-6-5-3-5-1-8-4-6"
       y="-122.88837"
       x="-78.759262"
       ry="6.8138328"
       rx="6.559958"
       height="122.65083"
       width="78.647629" />
    <path
       inkscape:connector-curvature="0"
       id="path7432"
       d="m 5.5854003,23.864044 c 0,0.896413 0.6980671,1.624439 1.5625608,1.624439 0.8644937,0 1.5625608,-0.728026 1.5625608,-1.624439 0,-0.896413 -0.6980671,-1.624439 -1.5625608,-1.624439 -0.8644937,0 -1.5625608,0.728026 -1.5625608,1.624439 z" />
    <path
       inkscape:connector-curvature="0"
       id="path7434"
       d="m 3.5697893,26.939582 c 0,0.896413 0.6980671,1.624439 1.5625608,1.624439 0.8644937,0 1.5625608,-0.728026 1.5625608,-1.624439 0,-0.896412 -0.6980671,-1.624438 -1.5625608,-1.624438 -0.8644937,0 -1.5625608,0.728026 -1.5625608,1.624438 z" />
    <path
       inkscape:connector-curvature="0"
       id="path7436"
       d="m 7.5732735,26.949488 c 0,0.326868 0.092459,0.633927 0.2542628,0.89146 0.2773777,0.440777 0.7627886,0.732978 1.308298,0.732978 0.8644937,0 1.5625607,-0.728026 1.5625607,-1.624438 0,-0.896413 -0.698067,-1.624439 -1.5625607,-1.624439 -0.8644937,0 -1.5625608,0.728026 -1.5625608,1.624439 z" />
    <path
       inkscape:connector-curvature="0"
       id="path7438"
       d="m 5.3126456,30.104267 c 0.7720345,0 1.178855,-0.673548 1.3915112,-1.347096 0.2126562,-0.673548 0.2311481,-1.347096 0.2311481,-1.347096 h 0.3975746 c 0,0 0.073967,2.689239 1.6180363,2.694192 z" />
    <path
       inkscape:connector-curvature="0"
       id="path7440"
       d="m 8.2066191,25.057611 c -0.8783625,0.940985 -0.8783625,2.352464 -0.8783625,2.352464 l -0.3929517,0.005 c 0,0 0,-1.441194 -0.8552478,-2.357417" />
    <path
       inkscape:connector-curvature="0"
       id="path7442"
       d="M 8.0309466,28.078671 C 7.152584,27.137685 5.8350402,27.137685 5.8350402,27.137685 v -0.420968 c 0,0 1.3452816,0 2.2005294,-0.916223" />
    <path
       inkscape:connector-curvature="0"
       id="path7444"
       d="M 6.2695985,28.083623 C 7.1479611,27.142637 8.4655049,27.142637 8.4655049,27.142637 V 26.72167 c 0,0 -1.3452816,0 -2.2005293,-0.916223" />
    <path
       inkscape:connector-curvature="0"
       id="path7448"
       d="m 35.766909,56.081683 c 0,2.128981 1.657909,3.858042 3.711082,3.858042 2.053172,0 3.711081,-1.729061 3.711081,-3.858042 0,-2.128981 -1.657909,-3.858042 -3.711081,-3.858042 -2.053173,0 -3.711082,1.729061 -3.711082,3.858042 z" />
    <path
       inkscape:connector-curvature="0"
       id="path7450"
       d="m 30.979833,63.386086 c 0,2.128981 1.657909,3.858042 3.711082,3.858042 2.053172,0 3.711081,-1.729061 3.711081,-3.858042 0,-2.12898 -1.657909,-3.858042 -3.711081,-3.858042 -2.053173,0 -3.711082,1.729062 -3.711082,3.858042 z" />
    <path
       inkscape:connector-curvature="0"
       id="path7452"
       d="m 40.488108,63.409611 c 0,0.776313 0.21959,1.505577 0.603874,2.117218 0.658772,1.046847 1.811623,1.740824 3.107207,1.740824 2.053173,0 3.711082,-1.729061 3.711082,-3.858042 0,-2.128981 -1.657909,-3.858042 -3.711082,-3.858042 -2.053172,0 -3.711081,1.729061 -3.711081,3.858042 z" />
    <path
       inkscape:connector-curvature="0"
       id="path7454"
       d="m 35.119116,70.902211 c 1.833582,0 2.799781,-1.599676 3.30484,-3.199352 0.505058,-1.599676 0.548976,-3.199352 0.548976,-3.199352 h 0.94424 c 0,0 0.175672,6.386942 3.842836,6.398704 z" />
    <path
       inkscape:connector-curvature="0"
       id="path7456"
       d="m 41.992303,58.916403 c -2.086111,2.234842 -2.086111,5.587104 -2.086111,5.587104 l -0.93326,0.01176 c 0,0 0,-3.422836 -2.031213,-5.598866" />
    <path
       inkscape:connector-curvature="0"
       id="path7458"
       d="M 41.575081,66.091421 C 39.48897,63.856579 36.359804,63.856579 36.359804,63.856579 v -0.999797 c 0,0 3.195043,0 5.226257,-2.17603" />
    <path
       inkscape:connector-curvature="0"
       id="path7460"
       d="m 37.39188,66.103183 c 2.086111,-2.234841 5.215277,-2.234841 5.215277,-2.234841 v -0.999798 c 0,0 -3.195044,0 -5.226257,-2.17603" />
    <path
       inkscape:connector-curvature="0"
       id="path7464"
       d="m 73.285654,99.261805 c 0,-0.896413 -0.698067,-1.624439 -1.562561,-1.624439 -0.864494,0 -1.562561,0.728026 -1.562561,1.624439 0,0.896415 0.698067,1.624435 1.562561,1.624435 0.864494,0 1.562561,-0.72802 1.562561,-1.624435 z" />
    <path
       inkscape:connector-curvature="0"
       id="path7466"
       d="m 75.301265,96.186267 c 0,-0.896413 -0.698067,-1.624439 -1.562561,-1.624439 -0.864494,0 -1.562561,0.728026 -1.562561,1.624439 0,0.896412 0.698067,1.624438 1.562561,1.624438 0.864494,0 1.562561,-0.728026 1.562561,-1.624438 z" />
    <path
       inkscape:connector-curvature="0"
       id="path7468"
       d="m 71.297781,96.176361 c 0,-0.326868 -0.09246,-0.633927 -0.254263,-0.89146 -0.277378,-0.440777 -0.762789,-0.732978 -1.308298,-0.732978 -0.864494,0 -1.562561,0.728026 -1.562561,1.624438 0,0.896413 0.698067,1.624439 1.562561,1.624439 0.864494,0 1.562561,-0.728026 1.562561,-1.624439 z" />
    <path
       inkscape:connector-curvature="0"
       id="path7470"
       d="m 73.558409,93.021582 c -0.772035,0 -1.178855,0.673548 -1.391512,1.347096 -0.212656,0.673548 -0.231148,1.347096 -0.231148,1.347096 h -0.397574 c 0,0 -0.07397,-2.689239 -1.618037,-2.694192 z" />
    <path
       inkscape:connector-curvature="0"
       id="path7472"
       d="m 70.664435,98.068238 c 0.878363,-0.940985 0.878363,-2.352464 0.878363,-2.352464 l 0.392951,-0.005 c 0,0 0,1.441194 0.855248,2.357417" />
    <path
       inkscape:connector-curvature="0"
       id="path7474"
       d="m 70.840108,95.047178 c 0.878362,0.940986 2.195906,0.940986 2.195906,0.940986 v 0.420968 c 0,0 -1.345282,0 -2.200529,0.916223" />
    <path
       inkscape:connector-curvature="0"
       id="path7476"
       d="m 72.601456,95.042226 c -0.878363,0.940986 -2.195907,0.940986 -2.195907,0.940986 v 0.420967 c 0,0 1.345282,0 2.20053,0.916223" />
    <path
       inkscape:connector-curvature="0"
       id="path7480"
       d="m 44.067978,79.343788 c 0.515874,0.233081 -0.02026,0.561199 0,0 m -7.130288,0 c 0,0.861795 0.598477,0.144923 0,0 m 1.013047,-0.547007 c 0.314044,-0.0073 0.815502,0.439498 0.272743,0.590011 -0.354566,0.09848 -0.76524,-0.484222 -0.272743,-0.590011 m 2.571579,0.590011 c -1.037983,-0.363811 0.2443,-1.268179 0,0 m -3.662552,-0.903078 c 0.196375,0.45455 0.31833,1.249258 0.896156,1.247108 -0.22248,-0.34446 -0.409115,-0.46186 -0.46756,-0.903078 0.119618,0.103639 0.704068,0.705261 0.644454,0.856204 -0.29807,0.758155 -1.096039,-0.0034 -1.384757,-0.290705 -0.746927,-0.740954 -0.823295,-0.746975 0.311707,-0.909529 m -1.355924,-0.06193 c 0.109098,0.242111 -0.04948,0.311347 0,0 m 6.849752,-0.282104 c -0.04364,0.09547 -0.108708,0.152663 -0.194817,0.172015 0.02494,-0.104499 0.09585,-0.165995 0.194817,-0.172015 m -0.389633,0.043 c -0.103253,-0.05676 -0.207285,-0.07096 -0.311707,-0.043 0.09468,0.09805 0.146892,0.212868 0.155853,0.344029 h -0.194816 c 0.151567,0.586571 0.136761,1.020048 -0.344046,1.431594 -0.194817,0.166854 -0.501848,0.409825 -0.602373,0.11654 0.16988,-0.285975 0.684975,-2.961235 1.297089,-1.849159 M 35.340194,78.3117 c -0.09819,0.726332 -1.193446,0.05547 -1.168899,-0.430037 0.386906,0.190936 0.757836,0.23136 1.168899,0.430037 m 5.883462,-0.430037 c -0.09234,0.245551 -0.241963,0.438637 -0.46756,0.516044 -0.01208,-0.264043 0.163256,-0.690209 0.46756,-0.516044 m -5.727608,-0.08601 c 0.214298,0.316507 -0.289887,0.402515 0,0 m 2.220909,0.516045 c 0.009,0.137611 -1.886994,0.202977 -1.831276,-0.258023 0.450416,0.125571 0.285211,-0.375852 0.784331,-0.227059 0.207675,0.06193 0.462105,0.04515 0.651467,0.141052 0.186634,0.210718 0.135203,0.341449 0.395478,0.34403 m 8.182297,-0.430037 c 0.187803,0.0073 0.368593,-0.04903 0.545487,-0.129011 -0.185466,-0.03612 -0.385348,0.01247 -0.545487,0.129011 m -3.584625,-0.172015 0.03896,0.043 c -0.05065,0.230499 -0.363138,0.304896 -0.03896,-0.043 m -3.584626,-0.258022 c 0.153516,0.215448 0.298459,0.513464 0.46756,0.645055 0.120786,-0.262322 -0.17027,-0.82094 -0.46756,-0.645055 m 0.428597,1.1611 c -0.360411,-0.09934 -1.142405,-0.962853 -0.703288,-1.302152 0.706794,-0.546147 1.044217,0.47261 1.144742,0.994245 0.05182,0.269633 1.082401,1.696066 0.571202,1.757131 -0.287939,0.02322 -1.286179,-1.15981 -1.012656,-1.449224 m 6.078278,-1.677145 c 0.05377,0.01849 0.0826,0.236091 0.194816,0 -0.08182,-0.04773 -0.125072,0.01376 -0.194816,0 M 33.002395,76.204518 c -0.04481,0.23222 -0.03156,0.46143 0.03896,0.68806 -0.250923,-0.170725 -0.750823,-0.940491 -0.03896,-0.68806 m 10.831803,-0.129011 c 0.245079,1.224316 -1.535934,0.432617 -1.519569,1.419122 -0.605101,-0.861794 0.713418,-1.671123 0.545486,-0.860074 0.331578,-0.162554 0.63705,-0.396494 0.974083,-0.559048 M 31.132156,75.559463 c 0.439506,0.374562 0.995513,0.531526 1.361378,0.996396 0.06351,0.08042 0.413401,0.488092 0.0023,0.422726 -0.139878,0.04042 -0.27586,-0.319088 -0.314824,-0.358221 -0.377944,-0.2391 -0.956549,-0.590441 -1.048892,-1.060901 m 12.000702,0.602052 c -0.207674,-0.04128 -0.408725,-0.305757 -0.272743,-0.558188 0.252482,-0.468311 0.513926,0.204267 0.272743,0.558188 m -2.104019,-0.903078 c -0.01286,0.143202 -0.02611,0.286835 -0.03896,0.430037 -0.15975,-0.137182 -0.125073,-0.318657 0.03896,-0.430037 m -0.35067,-0.08601 c 0.01403,0.207277 -0.0035,0.430467 0,0.645055 -0.16949,-0.167284 -0.163646,-0.457559 0,-0.645055 m 5.143158,-0.258023 c -0.03623,0.102779 -0.07793,0.182766 -0.07793,0.301026 0.102863,-0.03397 0.167932,-0.11998 0.194816,-0.258022 -0.0019,-0.0034 -0.117669,-0.08214 -0.11689,-0.043 m -15.000878,0 c 0.17066,0.147933 0.273133,0.320808 0.272743,0.559048 -0.213129,-0.09977 -0.324564,-0.314787 -0.272743,-0.559048 m 15.58537,-0.430038 c -0.02611,0.11482 -0.05182,0.22921 -0.07793,0.34403 0.13793,-0.140622 0.08455,-0.404665 0.07793,-0.34403 m 0.623413,-0.258022 c -0.20183,0.656237 -0.970186,1.054451 -1.090973,1.591137 0.342878,-0.104069 0.696665,-0.161694 1.05201,-0.172015 -0.155074,-0.132021 -0.366645,-0.08859 -0.58445,-0.08601 0.204558,-0.330699 0.569254,-0.389614 0.81823,-0.602052 h -0.155853 c 0.112993,-0.108369 0.19092,-0.23738 0.23378,-0.387033 -0.06507,0.01419 -0.129748,0.02881 -0.194817,0.043 -0.01909,-0.988225 0.007,-0.114819 -0.07793,-0.387033 m 5.026269,-0.430037 c -0.05026,0.57969 -0.307421,1.607048 -1.034866,1.518031 -0.635882,-0.07784 -0.958498,1.210124 -1.585807,0.400364 -0.288329,-0.0787 -0.896157,0.238671 -1.022398,-0.06924 -0.20144,-0.490242 1.544506,-0.457129 1.733868,-0.387033 -0.319889,-0.501853 0.449247,-0.46659 0.70134,-0.34403 0.05533,-0.58055 0.791345,-0.825671 1.207863,-1.118096 M 32.145202,73.409278 c 0.07559,0.251141 0.279757,0.500133 0.194817,0.774066 -0.195207,-0.03956 -0.390413,-0.06795 -0.58445,-0.043 0.32885,0.633014 0.902001,0.09977 1.1689,0.81707 -0.370931,0.01548 -0.518992,-0.22964 -0.896157,-0.215018 0.09819,0.129011 0.199882,0.100198 0.35067,0.129011 -0.119617,0.205127 -0.223649,0.155243 -0.272743,0.344029 0.396257,-0.0215 1.159548,-0.171154 1.402679,0.301026 -0.214298,0.03784 -0.39314,0.02494 -0.545486,0.172015 0.22326,0.0026 0.443792,-0.02107 0.662376,-0.07096 0.321837,0.22878 0.627699,0.488522 0.974083,0.673008 -0.132865,-0.183626 -0.275081,-0.435198 -0.272743,-0.688059 -0.370541,0.01505 -0.333916,-0.01032 -0.45704,-0.418856 -0.232611,-0.773207 -0.563799,-0.976615 -0.2443,-0.01118 -0.685365,-0.10794 -0.928496,-1.406221 -1.480606,-1.763152 m 13.286492,2.967255 c 0.0639,-0.334139 -0.347942,0.319518 0.07793,-0.387033 -0.352229,0.185776 -0.769136,0.159544 -1.090973,0.387033 0.144943,-0.153093 0.217026,-0.324248 0.23378,-0.559048 -0.388854,0.165564 -0.622634,0.676018 -0.155853,0.81707 -0.06663,0.410256 -0.476132,0.401655 -0.76485,0.513465 -0.357294,0.138471 -0.787839,0.683328 -1.10539,0.733643 0.317551,-0.681609 0.653415,-0.646776 1.165003,-1.175722 0.125073,-0.129011 0.654195,-1.508139 0.218195,-1.262158 -0.240404,0.135462 -0.7329,-0.03225 -0.623413,-0.440358 0.225598,-0.717302 0.691599,0.144922 0.954601,0.083 0.233391,0.166855 0.370931,0.3522 0.662377,0.22663 0.526394,-0.22663 0.313265,-1.204964 0.779266,-1.406651 0.14884,-0.06451 0.332357,0.222329 0.526005,0.177605 0.39275,-0.09117 0.455871,-0.860504 0.798748,-0.905658 0.334695,-0.128581 0.295342,0.381443 0.545486,0.511314 0.353398,0.184056 0.671338,-0.422296 0.915638,0.06365 0.121566,0.241251 -0.01675,0.394774 -0.13715,0.590011 -0.547045,0.442508 -0.453533,0.440358 -0.524447,1.130137 -0.119617,0.358221 -0.983044,1.345156 -1.345013,1.358487 -0.42509,-0.202117 -0.429376,-0.359081 -0.834984,-0.06235 -0.173387,0.329408 -0.4999,0.940061 -0.883689,0.532386 -0.242351,-0.736654 -0.06974,-0.870825 0.588736,-0.92544 m 6.039315,-2.494214 c -0.02689,-0.05289 -0.03974,-0.11052 -0.03896,-0.172015 -0.23456,0.242541 -0.344436,0.605062 -0.70134,0.731063 0.02805,-0.165565 0.0055,-0.334569 0.07793,-0.516045 -0.197154,0.34618 -0.236897,0.745254 -0.662376,0.817071 -0.03585,-0.188357 0.0031,-0.360371 0.11689,-0.516045 -0.367035,0.408965 -0.474184,0.974034 -0.662377,0.172015 -0.142605,0.08085 -0.460936,1.220015 -0.935119,0.807609 -0.355735,-0.309196 0.38223,-1.306452 0.662376,-1.468576 0.578995,0.04429 0.697444,-0.405525 1.129937,-0.633014 0.335474,-0.176316 0.619906,0.06665 1.009149,-0.08214 0.267289,-0.102349 0.746148,-0.187067 0.743031,0.258022 -0.0023,0.393054 -0.490548,0.431327 -0.739134,0.602052 M 26.846191,72.635211 c -0.0713,0.223619 0.07559,0.480782 0.194816,0.645056 -0.33976,-0.169865 -0.673676,-0.46358 -1.013046,-0.559048 0.218584,0.365531 0.57315,0.556468 0.81823,0.860074 -0.108708,0.02408 -0.142217,0.03956 -0.23378,0.043 v 0.08601 c 0.80693,0.03311 1.382029,0.601191 2.181946,0.81707 -0.259886,-0.415416 -0.628868,-0.937481 -1.013047,-1.204104 0.07247,0.255442 0.251314,0.436918 0.35067,0.68806 -0.730172,-0.210288 -0.81784,-0.979195 -1.285789,-1.376119 m 8.143333,4.128355 c -0.598086,-0.205127 -1.565156,0.0039 -1.714386,-0.903077 -1.0937,0.399074 -1.138118,-0.162984 -1.968427,-0.751275 -0.08884,-0.153093 -0.09858,-0.291995 -0.166763,-0.452829 0.08533,-0.491102 -0.529121,-0.727622 -0.435999,-1.075092 0.08338,-0.312207 0.09195,-0.23136 0.429765,-0.255012 0.459767,-0.03182 0.47886,-0.261893 0.646791,-0.713002 0.509641,-0.35349 0.778488,0.363812 0.880182,0.795569 0.306641,0.322098 0.761343,0.08343 1.037593,0.378002 0.247027,0.263613 0.07247,0.662257 0.317551,0.941351 0.457819,0.520345 0.526784,-0.0215 0.491328,0.766326 -0.01169,0.260603 0.214298,0.304896 0.351449,0.497553 0.08884,0.218029 0.06351,0.537546 0.130916,0.771486 m 15.974962,-4.472384 c -0.01442,0.908668 -1.082012,0.381012 0,0 m 0.779266,-0.68806 c 0.02065,0.431758 -0.250534,0.33844 0,0 M 49.2501,72.549204 c -0.416908,-0.06752 -0.63783,-0.900928 -0.11689,-0.899208 0.857582,0.359081 -0.0035,0.370692 0.11689,0.899208 M 28.872283,71.560119 c -0.213908,0.146212 -0.737575,0.03569 -0.623413,-0.386173 0.03234,-0.354781 0.724718,-0.195667 0.623413,0.386173 m 22.715616,-0.817071 c -0.01013,0.22577 -0.03429,0.359081 -0.194817,0.387034 -0.01013,-0.169005 0.04948,-0.34403 0.194817,-0.387034 m -1.798157,-0.129011 c 0.436778,0.34661 0.31794,1.204964 -0.325344,0.943071 -0.487821,-0.198677 0.02805,-0.847602 0.325344,-0.943071 m 4.019066,-0.199967 c 0.617958,0.043 0.229884,0.600332 -0.06507,0.80847 -0.676403,0.478201 -0.337032,-0.651506 0.06507,-0.80847 m -1.675423,-0.01505 c 0.188193,0.34919 0.13793,0.912968 -0.194816,1.118096 0.03273,-0.332419 -0.09819,-0.914689 0.194816,-1.118096 M 28.755393,69.925978 c 0.379503,1.62339 -1.198122,0.393914 0,0 m 23.884515,-0.258022 c -0.0019,0.08644 -0.03507,0.184916 -0.07793,0.258022 -0.146892,-0.04085 -0.217416,-0.03741 -0.194817,-0.172015 0.09117,-0.02881 0.181959,-0.05719 0.272743,-0.08601 M 26.144851,69.452937 c 0.261444,0.152664 0.351839,0.744394 0.389633,1.032089 -0.24391,-0.04902 -0.398595,-0.768906 -0.389633,-1.032089 m -2.065056,-0.750844 c 0.441844,0.03698 0.759395,0.564208 0.194816,0.707411 -0.506133,0.05634 -0.815112,-0.528516 -0.194816,-0.707411 m 1.831276,0.2348 c -0.302745,-0.376282 0.197544,-0.542277 0,0 m -2.104019,-1.032089 c -0.0752,0.286835 0.07052,0.279094 0.272743,0.387034 -0.358073,1.127127 -1.012267,-0.429177 -0.272743,-0.387034 m 0.974083,-1.376118 c 0.250144,0.263613 0.49834,0.520775 0.701339,0.81707 -0.356904,0.10923 -0.635491,-0.551307 -0.701339,-0.81707 m 27.508104,-0.258022 c 0.08416,0.574529 0.145333,1.293981 -0.11689,1.806155 0.0016,-0.11697 -0.05299,-0.196957 -0.155854,-0.215018 0.0074,0.0959 0,0.971883 0.207675,0.840292 0.154295,-0.09805 0.522888,-1.04241 0.571592,-1.270329 -0.111046,0.101918 -0.26612,0.305756 -0.311707,0.387033 -0.116111,-0.513464 0.120007,-0.854914 0.23378,-1.333115 -0.187024,0.23136 -0.293783,0.09547 -0.311706,-0.215018 h -0.11689 m 2.220909,-0.043 c -0.05221,0.358221 -0.104032,0.716872 -0.155853,1.075092 0.183127,-0.2348 0.288328,-0.890606 0.155853,-1.075092 m -0.07793,-0.946081 c 0.0074,0.162123 0.03039,0.81406 -0.311706,0.602051 0.06273,-0.244261 0.141047,-0.490242 0.311706,-0.602051 m -30.31346,-0.430041 c 0.433662,0.412835 0.402881,0.570659 0.194817,1.118096 -0.288718,-0.260603 -0.496393,-0.797719 -0.194817,-1.118096 m 30.079683,3.311284 c 0.125462,-0.195666 0.294953,-0.219748 0.506523,-0.301025 -0.59497,-0.215019 0.36197,-0.889747 0.662377,-0.989086 -0.508082,-0.136321 0.378334,-1.081543 0.545486,-1.333114 -0.287939,0.156103 -0.416128,0.519054 -0.701339,0.688059 0.009,-0.221469 0.04792,-0.436488 0.11689,-0.645056 -0.288719,0.334999 -0.390023,0.950382 -0.600815,1.38386 -0.26495,0.545286 -0.617569,1.012737 -0.957718,1.497388 0.236117,0.304897 -0.155854,0.492393 -0.411843,0.587431 -0.857972,0.318227 -0.131696,-0.387033 0.08299,-0.7001 0.186245,-0.271354 0.532629,-0.69838 0.532629,-1.048431 -0.155853,-0.298445 -0.317551,-0.620543 -0.150399,-0.93705 0.125462,-0.237381 0.333526,-0.218459 0.570034,-0.276514 0.288328,-0.23566 0.175724,-0.268343 0.247807,-0.70225 0.163256,-0.981345 0.708742,-0.3393 1.290854,-0.454549 0.687313,-0.135892 0.799528,0.289414 0.285601,0.865234 -0.09429,0.381873 0.189752,0.708271 0.101305,1.068212 -0.07637,0.311777 -0.618348,0.23222 -0.834984,0.334999 -0.797579,0.677738 -0.06,0.985644 -1.2854,0.961992 m -0.35067,-3.698318 c 0.05065,0.123421 0.02766,0.242541 -0.07793,0.301026 -0.0012,-0.104069 0.02688,-0.212008 0.07793,-0.301026 M 24.703208,64.292493 c 0.0678,0.594312 0.263782,1.414392 0.896156,1.376119 -0.05767,0.330268 -0.926158,0.858784 -0.990058,0.315217 -0.02533,-0.213728 0.121176,-0.401225 0.08611,-0.616243 -0.142216,-0.530666 -0.474963,-0.611513 0.0078,-1.075093 m 29.378343,-0.08601 c 0.115332,0.106649 0.124683,0.216309 0,0.301026 -0.05922,-0.11568 -0.05922,-0.215879 0,-0.301026 M 25.014915,64.72253 c -0.06468,-0.231789 -0.100136,-0.457559 -0.03896,-0.688059 0.305862,0.07397 0.33002,0.596032 0.03896,0.688059 m 27.508103,-1.063051 c 0.473405,-0.0559 0.724329,0.591301 0.23378,0.590011 -0.323395,0.03784 -0.536914,-0.430467 -0.23378,-0.590011 m 1.324753,-0.141052 c 0.120007,0.196527 0.197934,0.411545 0.23378,0.645055 -0.187803,-0.136321 -0.310148,-0.409825 -0.23378,-0.645055 m -29.066636,-0.34403 c 1.156821,0.427887 -0.241573,0.942641 0,0 m 29.1056,-0.387033 c -0.01286,0.0572 -0.02611,0.11482 -0.03896,0.172015 0.118838,0.04257 0.235728,0.02795 0.35067,-0.043 0.0074,0.218459 0.0055,0.434767 -0.03896,0.645056 -0.211961,-0.174165 -0.54198,-0.596032 -0.272743,-0.774067 m -29.45627,0 c 0.05299,0.196527 0.07909,0.396924 0.07793,0.602052 -0.271574,-0.03268 -0.167152,-0.454979 -0.07793,-0.602052 m 30.819986,-0.101919 c 0.303914,0.0701 0.771084,0.760736 0.23378,0.854484 -0.409505,0.07139 -0.455481,-0.633445 -0.23378,-0.854484 m -2.454689,0.703971 c -0.72316,0.430037 -0.597308,-0.629574 -0.300018,-0.661827 0.482366,-0.05204 0.13871,0.321237 0.300018,0.661827 m -26.884691,0.08601 c -1.141625,0.394774 -0.333916,-1.98161 0,0 m -0.03896,-0.903078 c -0.858362,-0.156533 0.830308,-1.127127 0,0 m -1.28579,-0.774066 c 0.298069,0.180615 0.268847,0.633444 0.311707,0.946081 -0.295342,-0.205557 -0.427818,-0.58829 -0.311707,-0.946081 m -0.740303,3.053263 c -0.304304,-0.205558 -0.157801,-0.6958 -0.03896,-1.032089 -0.504575,0.58184 -0.378724,-0.447669 -0.272744,-0.903078 -0.07559,0.08687 -0.107538,0.03827 -0.194816,0.172015 -0.299628,-0.470461 -0.633154,-1.097885 -0.311707,0.08601 -0.125851,0.05461 -0.255989,0.03999 -0.389633,-0.043 0.257937,0.346179 0.564189,0.666987 0.623413,1.161099 -0.165204,-0.05934 -0.364307,-0.127291 -0.545486,-0.129011 0.130916,0.191797 0.397036,0.386174 0.623413,0.301026 0.156632,0.45756 0.2969,0.822661 0.506523,1.247108 -0.254431,0.07956 -0.505744,0.0916 -0.672117,-0.129012 -0.119618,-0.633444 -0.485094,-0.523355 -0.659649,-1.032088 -0.04247,-0.123851 0.03234,-0.298016 0.04792,-0.404235 0.05767,-0.399074 -0.228325,-0.452399 -0.363918,-0.762456 -0.193258,-0.442508 0.357683,-0.752564 0.253262,-1.253988 -0.295342,-1.418692 0.759784,0.178466 1.121754,0.313497 0.348721,0.374563 0.140268,0.427887 0.314044,0.92458 0.07676,0.219749 0.390413,0.287695 0.444572,0.495403 0.07442,0.305326 -0.315214,0.788687 -0.485873,0.988225 m 0.70134,-3.698319 c 0.06935,0.137612 0.147671,0.189647 0.07793,0.301026 -0.167542,-0.05504 -0.131306,-0.173735 -0.194816,-0.301026 h 0.11689 m 29.57316,1.333115 c -0.259496,-0.165564 -0.236897,-0.375852 -0.23378,-0.731063 -0.198324,-0.396064 -0.330409,-0.322528 -0.237287,-0.759875 0.295732,-1.38859 0.462105,1.300432 0.471067,1.490938 M 24.859061,61.153223 c -0.270405,-1.953658 0.799528,-0.834701 0,0 m 29.027674,-1.892162 c 0.02883,0.252431 0.04598,0.516474 0.03896,0.774066 -0.271574,-0.22921 -0.334305,-0.567649 -0.03896,-0.774066 m -29.22249,-0.08601 c 0.109097,0.282534 0.08104,0.602052 0,0.903078 -0.327292,-0.253292 -0.158581,-0.681179 0,-0.903078 m 28.092553,-0.08601 c -0.01948,0.258452 -0.08455,0.502283 -0.194816,0.731063 -0.283653,-0.09719 -0.366645,-0.295866 -0.545487,-0.08601 0.165205,0.06322 0.575099,0.410256 0.760564,0.304896 0.153126,-0.08687 0.221702,-0.897057 -0.02026,-0.949951 M 25.248694,59.60509 c -0.257937,-0.184486 -0.532628,-0.692359 -0.545486,-1.032089 0.324175,0.191797 0.496003,0.635595 0.545486,1.032089 m -1.753349,-1.63414 c -0.04286,0.254581 -0.04364,1.05703 -0.521329,0.495832 -0.338591,-0.397784 0.215077,-0.524215 0.521329,-0.495832 m 32.417482,0.344029 c -0.260664,0.02408 -0.853686,0.34962 -0.676793,-0.301026 0.578995,-0.858784 0.492107,-0.06236 0.676793,0.301026 m -2.259872,-0.731063 c 0.01247,0.05333 0.0012,0.09676 -0.03896,0.129011 -0.09624,-0.09461 -0.09702,-0.145782 0.03896,-0.129011 M 24.820098,57.067872 c 0.188582,0.282104 0.164425,0.596461 0.03896,0.903078 -0.28677,-0.192657 -0.251313,-0.642046 -0.03896,-0.903078 M 23.495345,56.80985 c -0.04637,0.07999 -0.07247,0.165994 -0.07793,0.258022 0.42548,-0.03096 -0.187803,0.81965 -0.480417,0.626564 -0.359242,-0.236951 0.165594,-1.335695 0.558344,-0.884586 m 29.57316,3.827329 c 0.141826,0.450249 0.389244,0.846743 0.545486,1.290111 -0.726276,-0.101059 -0.640557,-0.881146 -1.266307,-1.009297 -0.630427,-0.129011 -0.404829,-0.707411 -0.681859,-1.183462 -0.128579,-0.221039 -0.462884,-0.277374 -0.419245,-0.602912 0.378724,-0.835992 0.720822,-0.276083 1.237475,0.08601 0.0678,-0.309197 0.360021,-1.263879 0.07793,-1.419122 -0.03507,0.212438 -0.06156,0.433477 -0.07793,0.645055 -0.292614,-0.381873 -0.185076,-0.965863 -0.35067,-1.376118 -0.07871,0.596891 0.08884,1.177011 0.155854,1.763152 -0.483535,-0.302747 -1.316571,-0.890177 -0.873948,-1.570926 0.462495,-0.384453 0.374438,-0.559048 0.456261,-1.089713 0.0752,-0.485942 0.756278,-0.10708 0.823684,0.209428 0.0639,0.298875 -0.08299,0.577969 0.197544,0.795138 0.214688,0.166424 0.258717,0.372842 0.129748,0.623554 -0.250534,0.487662 0.247028,0.558188 0.388854,0.946081 0.119228,0.326398 -0.278198,0.565069 -0.248586,0.903078 0.183128,0.328978 0.432883,0.894477 -0.09429,0.989945 M 25.209731,56.293805 c -0.168711,-0.0658 -0.24391,-0.23781 -0.194816,-0.430037 0.165983,0.06752 0.197154,0.209858 0.194816,0.430037 m 1.75335,-0.860074 c 0.167152,0.386604 0.325343,0.238671 0.584449,0.129011 0.02611,0.236951 -7.79e-4,0.46616 -0.08065,0.68806 0.04754,0.224909 0.187414,0.405524 0.178063,0.645055 -0.0055,0.140192 -0.218974,0.211148 -0.283653,0.34833 -0.0826,0.175025 -7.8e-4,0.446378 0.0051,0.640755 -0.273912,0.522925 -0.559513,0.137182 -0.678741,0.860074 -0.317162,0.264903 -0.547045,0.241681 -0.932782,0.301026 0,-0.215448 0.09507,-0.226629 0.155853,-0.417996 0.479639,-0.473901 0.176114,-0.04988 0.282874,-0.485082 0.06351,-0.258882 0.283263,-0.371552 0.417687,-0.572809 0.06663,-0.58012 0.398595,-1.04929 0.663155,-1.534372 -0.267678,0.109229 -0.381061,0.402945 -0.623413,0.602052 -0.284042,-0.381013 -0.178062,0.70096 -0.428596,0.903078 -0.02961,-0.243401 -0.05572,-0.486802 -0.07793,-0.731063 -0.20144,0.225339 -0.193258,0.652366 0.07793,0.774066 -0.206895,0.497983 -0.487821,1.243667 -0.81823,1.591137 -0.165204,-0.537546 0.818619,-1.413962 0.23378,-1.591137 v 0.473041 c -0.397815,-0.282964 -0.231832,-0.437778 -0.155853,-0.753855 0.324954,-0.23695 0.208454,-0.515614 0.342877,-0.879426 0.172607,-0.254151 0.405219,-0.178035 0.669779,-0.294575 0.222091,-0.157824 0.277419,-0.512174 0.46834,-0.69537 m 26.027497,0.688059 c -0.729003,-0.184055 0.455871,-1.39547 0,0 m -0.311706,-1.247107 c -0.12819,-0.04945 -0.199103,-0.155243 -0.194817,-0.301026 0.17027,0.02838 0.245859,0.120411 0.194817,0.301026 M 26.066924,54.573657 c -0.01598,0.125141 -0.08104,0.211148 -0.194816,0.258022 -0.05416,-0.172014 0.07247,-0.169004 0.194816,-0.258022 m 25.910608,-0.602052 v 0.08601 h -0.07793 c -0.0012,-0.05075 0.03,-0.07698 0.07793,-0.08601 m 0.155853,-0.258022 c -0.01403,0.102779 -0.03351,0.167285 -0.11689,0.215019 0.02883,-0.159974 -0.01091,-0.242971 0.11689,-0.215019 m -24.858598,0.559048 c -0.294952,0.01892 -0.557955,-0.23738 -0.494444,-0.58055 0.155463,-0.843302 0.819009,-0.2391 0.494444,0.58055 m 24.624818,-1.032088 c 0.739135,-0.181046 0.1278,0.849323 0,0 M 27.78131,53.756587 c -0.410283,-0.08085 -0.321057,-0.762026 0.0565,-0.834272 0.890312,-0.169864 0.06078,0.648496 -0.0565,0.834272 m 23.689699,-0.989085 c 0.10559,0.186206 0.102473,0.433047 0.03896,0.645055 -0.251703,-0.131591 -0.182348,-0.393053 -0.03896,-0.645055 m -2.065056,-0.215019 c 0.210402,0.505294 0.164815,0.936191 0.571202,1.351177 0.256379,0.261892 0.358852,0.762455 0.753551,0.799008 0.0043,-0.388753 -0.147671,-0.879855 -0.545487,-0.888886 -0.391971,-0.353921 -0.499899,-0.437778 -0.23378,-1.003276 -0.176893,-0.09891 -0.358462,-0.184916 -0.545486,-0.258023 m 1.636459,-0.043 c 0.02844,0.09418 0.0012,0.172875 -0.07793,0.215018 0.0035,-0.09633 0.01013,-0.157393 0.07793,-0.215018 m 1.909203,-0.68806 c 0.123903,0.520345 0.400153,1.084124 0.311707,1.634141 -0.14884,-0.172015 -0.317552,-0.315217 -0.506524,-0.430037 0.208844,0.383593 0.543928,0.703111 0.740303,1.118096 0.17027,0.03311 0.475743,-1.008867 0.545487,-1.1611 -0.172218,-4.3e-4 -0.315213,0.07139 -0.428597,0.215019 -0.01948,-0.35134 0.409895,-1.03854 -0.07793,-1.1611 -0.04832,0.194807 -0.0752,0.403375 -0.07793,0.602052 C 53.258646,52.39595 53.134353,51.987415 52.951615,51.82142 M 28.01509,51.176365 c 0.77537,0.167284 -0.09117,0.590871 0,0 m 21.624643,-0.301026 c 0.04364,0.207708 0.02416,0.384453 0.155853,0.473041 -0.0058,-0.245121 -0.0023,-0.387894 -0.155853,-0.473041 M 49.01632,50.402298 c 0.03468,0.185776 0.09975,0.357791 0.194816,0.516045 0.04792,-0.195237 -0.03624,-0.408965 -0.194816,-0.516045 m 3.156029,0.68806 c 0.08689,-0.46272 0.196375,-0.528946 0.527953,-0.473471 0.192478,0.03225 0.283263,0.381873 0.351449,0.559478 0.255209,0.292425 0.517043,0.213298 0.834984,0.304466 0.140268,0.11654 0.141047,0.203838 0.255209,0.340589 -0.09156,0.644626 0.427818,0.394344 0.538084,0.860074 0.0487,0.205128 -0.190141,0.435628 -0.261834,0.602052 -0.05728,0.378863 0.353398,0.654517 0.175335,1.003707 -0.216246,0.423586 -0.414569,0.502283 -0.266898,1.017467 -0.115332,0.378863 -0.59575,0.613663 -0.400543,1.075093 0.218973,-0.281675 0.561461,-0.587431 0.672117,-0.946082 0.02727,-0.513894 0.358462,-0.916839 0.316772,-1.39805 -0.02805,-0.322098 -0.250924,-0.58399 -0.08026,-0.878566 0.134813,-0.23222 0.187803,-0.532815 0.03857,-0.763745 -0.337422,-0.521205 -0.472625,-0.92501 -0.947198,-1.254418 -0.596529,-0.006 -0.732511,-0.652796 -1.322026,-0.796429 -0.57354,-0.139332 -0.677182,0.262753 -0.431713,0.747835 m -4.6756,-0.989086 c 0.0826,0.05676 -0.0051,0.09031 0.155853,0.08601 -0.0413,-0.05806 -0.09312,-0.08687 -0.155853,-0.08601 m 0.779267,-0.08601 c 0.02766,0.05333 0.150788,0.455409 0.11689,0.387033 -0.216247,0.05891 -0.452365,-0.169864 -0.662377,-0.215018 0.386906,0.322528 0.824074,0.627854 1.246826,0.903078 -0.206116,-0.366392 -0.48821,-0.701391 -0.701339,-1.075093 M 26.261741,50.91834 c -0.03857,-0.03354 -0.167153,-0.141052 -0.23378,-0.172015 -0.0062,0.46444 -0.0039,0.893617 -0.194817,1.333115 -0.170269,-0.213299 -0.146112,-0.999836 -0.410283,-0.946082 -0.07403,0.01505 0.120396,1.597158 0.05961,1.806156 -0.145722,-0.178466 -0.200271,-0.486802 -0.467559,-0.34403 0.302745,0.534106 0.295731,1.087564 0.350669,1.677144 0.133645,-0.161264 0.214688,-0.535396 0.272744,-0.81621 0.181569,-0.308336 0.561461,-0.46573 0.790955,-0.742674 0.679131,-0.82051 -0.554058,0.258022 -0.674065,0.355211 0.09156,-0.791268 0.792903,-1.181312 1.129936,-1.806156 -0.260665,-0.02408 -0.441455,0.318228 -0.623413,0.473041 0.214688,-0.714721 0.597697,-2.680851 0,-0.8175 m 2.571579,-0.129011 c 0.650298,-0.07741 1.239033,0.249851 1.870239,0.344029 -0.09351,-0.11912 -0.231442,-0.222759 -0.35067,-0.301026 0.46795,-0.23222 0.70173,0.172015 1.129937,0.172015 -0.08221,-0.12213 -0.152737,-0.338869 -0.23378,-0.430037 0.273522,-0.06321 0.540421,0.02666 0.818229,0.043 -0.142216,-0.202548 -0.103252,-0.34575 0.11689,-0.430037 -0.680299,-0.174165 -0.485483,0.106219 -1.129936,0.266193 -0.311706,0.08687 -0.457429,-0.171155 -0.857193,0.131591 -0.157801,0.03311 -0.245079,-0.160834 -0.390412,-0.139762 -0.344436,0.159114 -0.721211,0.210718 -1.090194,0.149653 -0.172608,0.150513 -0.242352,0.248991 -0.46756,0.23738 0.207675,-0.188786 0.432103,-0.4739 0.694716,-0.606352 0.199882,-0.100628 0.413011,0.0052 0.591074,-0.09719 0.460156,-0.264903 0.379113,-0.911249 0.972524,-0.541847 0.342098,0.212869 0.31872,0.190507 0.725887,0.01419 0.591073,-0.255872 0.408335,0.0516 0.931613,0.129872 0.131306,0.01978 0.990447,-0.165135 0.738355,0.362091 -0.146502,0.306616 -0.394309,0.377142 -0.611335,0.630434 -0.156243,0.182336 -0.244689,0.626564 -0.459377,0.726332 -0.33002,0.153524 -0.650298,-0.151373 -0.975642,0.116971 -0.370151,0.304896 -0.620296,-0.233511 -0.990837,-0.271784 -0.428597,-0.04386 -0.906677,0.166424 -1.032528,-0.505723 m -2.376763,-1.490509 c 0.23417,0.0073 0.365476,0.200828 0.482366,0.415416 0.0082,0.456699 0.433272,0.69064 0.441455,1.075093 0.0086,0.399934 -0.308979,0.579259 -0.261055,1.022628 0.08689,0.805459 -0.596138,1.493518 -1.168899,1.86206 -0.277029,0.4696 -0.203389,0.69709 -0.70134,0.985645 -0.257547,-4.3e-4 -0.282484,-0.563349 -0.36158,-0.747835 -0.117279,-0.272643 -0.369761,-0.483791 -0.378723,-0.800299 -0.007,-0.248991 0.226377,-0.397354 0.247807,-0.645055 -0.323785,-1.106915 0.0066,-0.492822 0.444961,-1.290111 0.285991,-0.520775 -0.07403,-0.661827 0.61562,-0.948232 0.511978,-0.213298 0.189362,-0.727622 0.639388,-0.92931 m 23.066286,2.823623 c -0.240793,-0.04902 -0.634323,-0.358651 -0.974083,-0.456269 -0.393919,0.160404 -0.683417,0.121701 -0.880571,-0.270493 -0.198324,-0.395204 -0.453144,-0.083 -0.745369,-0.329839 -0.165204,-0.139332 -0.644453,-1.135727 -0.606269,-1.265598 0.165984,-0.565499 0.995903,-0.22448 1.375016,-0.387034 0.05455,0.367252 0.473014,0.274794 0.740303,0.34403 -0.229104,-0.954252 -1.0411,-0.374132 -1.675423,-0.46143 -0.997071,0.22663 -0.495613,0.733213 -0.276639,1.351176 0.260664,0.734504 0.71108,0.701391 1.254229,1.135728 0.277029,0.221469 0.566526,0.158684 0.89226,0.05935 0.240793,0.139762 0.60549,0.479061 0.896546,0.280384 m 1.052009,-3.182273 c -0.11611,0.270923 -0.331188,0.213728 -0.545486,0.07139 -0.06546,-0.04343 -0.0826,-0.146643 -0.05299,-0.211148 0.107539,-0.234801 0.462494,0.108799 0.598476,0.139762 m -20.33885,-0.172014 c 0.0027,-0.851904 0.706016,-0.03698 0,0 m -1.441642,-0.731063 c 0.04753,0.343599 0.02688,0.70397 -0.07793,1.032089 -0.198323,-0.277374 -0.19092,-0.863945 0.07793,-1.032089 m 2.493652,-0.430037 c -0.02299,0.183196 -0.113773,0.34618 -0.272743,0.387033 -0.03663,-0.190076 0.09663,-0.316937 0.272743,-0.387033 M 50.06794,47.467296 c 0.307031,0.292855 0.359241,1.247537 -0.259496,1.032519 -0.3608,-0.125141 -0.162867,-1.019618 0.259496,-1.032519 M 29.924293,46.875995 c -0.117669,0.557328 -0.213519,1.226465 -0.662377,1.591137 0.03156,-0.479061 0.321448,-1.286241 0.662377,-1.591137 M 43.171822,46.70398 c -0.23378,0.01763 -0.35067,-0.107939 -0.428597,0.129011 0.459767,0.07827 1.237865,0.438638 0.682248,-0.402944 -0.220143,-0.08644 -0.225987,0.06106 -0.253651,0.273933 m -9.27327,0.301026 c 0.320278,0.208138 0.584839,0.134602 0.93395,0.240821 0.427038,0.129871 0.81862,0.368541 1.247995,0.490242 -0.221701,-0.611513 0.718874,0.06795 0.896157,0.172015 -0.07949,-0.584851 0.56302,-0.389184 0.81823,-0.516045 -0.502238,-0.03311 -1.028632,0.118261 -1.51957,-0.08601 0.08728,-0.173735 0.277029,-0.247701 0.46756,-0.34403 -0.450416,0.0069 -0.862258,0.45541 -1.28579,0.215019 0.03195,-0.159114 0.122735,-0.273934 0.272744,-0.34403 -0.273913,0.127721 -1.241372,0.503574 -1.453722,0.08601 -0.327292,-0.644196 1.547623,-0.525076 1.552688,-0.527226 0.333526,-0.135461 0.278978,-0.154813 0.600036,8.6e-4 0.330408,0.159974 0.84901,-0.212868 1.079673,-0.0056 0.257548,0.481641 0.22326,0.488092 0.714587,0.632584 0.09897,0.09461 0.283264,0.244261 0.267289,0.415416 -0.04052,0.434337 -0.465222,0.365101 -0.731731,0.549587 -0.182738,0.126861 -0.326513,0.393484 -0.548604,0.432188 -0.217805,0.03784 -0.401712,-0.185776 -0.623413,-0.148793 -0.614062,0.101918 -0.349891,0.537976 -0.898105,0.04085 -0.367424,-0.333278 -0.740692,-0.196527 -1.12526,-0.57969 -0.216247,-0.217168 -0.57393,-0.46874 -0.664714,-0.724182 m 8.494003,-0.81707 c -0.0047,0.173305 0.0086,0.345319 0.03896,0.516044 -0.305862,-0.159114 -0.412232,0.07698 -0.35067,0.430037 0.02844,-0.03053 1.241761,-0.824811 0.311706,-0.946081 m 3.000176,-0.08601 v 0.08601 h 0.311706 c -0.08572,-0.07612 -0.189751,-0.104929 -0.311706,-0.08601 m -3.818405,0.043 c -0.520161,-0.442938 -0.443793,0.337579 -0.194817,0.387033 0.02689,-0.05289 0.04013,-0.110519 0.03896,-0.172014 0.250924,0.09074 0.471456,0.217598 0.740303,0.215018 -0.114552,-0.310487 -0.536525,-1.118526 -0.584449,-0.430037 m 4.636635,-0.688059 c 0.0086,0.131591 0.06078,0.245981 0.155853,0.344029 0.109097,-0.215878 -0.04715,-0.214588 -0.155853,-0.344029 m -0.46756,0 c -0.182349,0.0069 -0.02922,0.09762 -0.389633,0.043 0.188192,0.199537 0.585618,0.301455 0.467559,0.645055 0.407167,-0.02752 0.667442,-0.07182 0.46756,0.34403 0.220922,0.04515 0.441455,0.04515 0.662377,0 -0.338981,-0.478632 -0.783553,-0.661397 -1.207863,-1.032089 M 32.651725,45.241854 c -0.05338,0.419716 -0.0097,0.897488 -0.389633,1.118097 0.0094,-0.410686 -0.725887,-0.765896 -0.33976,-1.229476 0.225208,-0.270063 0.518212,8.6e-4 0.729393,0.111379 m 10.0915,0.043 c 0.06935,0.196527 0.14845,0.494543 0.311707,0.648066 0.340539,0.131161 0.653025,0.528945 0.954601,0.615813 0.242352,0.06967 0.91369,0.11783 0.413791,0.561198 -0.321448,0.285115 -0.5638,0.180186 -0.939796,0.22835 -0.296121,0.301456 -0.278588,0.421006 -0.647181,0.172445 -0.577826,-0.389184 -0.193258,0.09074 -0.794462,0.0099 -0.559123,-0.204267 -0.454702,-0.453259 -1.023956,-0.261462 -0.540421,0.182336 -0.497172,-0.266193 -0.460156,-0.684619 -0.157412,-0.396494 -0.420025,-0.257592 -0.736797,-0.46487 -0.525615,-0.34446 0.471456,-1.000696 0.623413,-1.341285 0.165594,0.06408 0.604711,0.378002 0.770695,0.369401 0.0713,-0.0034 0.167542,-0.384453 0.319109,-0.326398 0.257938,0.09891 0.274692,0.46315 0.585229,0.619254 0.236118,0.07182 0.402881,-0.08988 0.623803,-0.145783 m 1.013046,0 c 0.167153,-0.46874 0.763292,0.594741 0.686145,0.913829 -0.09585,0.396494 -1.281114,-0.997686 -1.419434,-1.116806 -0.200661,-0.173305 -1.014215,0.184485 -0.889143,-0.266193 0.238845,-0.860504 1.415148,0.285114 1.622432,0.46917 m -6.000351,-0.81707 v 0.08601 c 0.124683,0.05848 0.241573,0.05848 0.35067,0 -0.09936,-0.07655 -0.225208,-0.105359 -0.35067,-0.08601 m 9.468087,2.365203 H 47.02919 v 0.08601 c 0.727446,0 0.0078,-0.665698 0.215857,-0.985645 0.129358,-0.510024 0.809658,0.965863 0.826802,1.157659 -0.283264,0.80804 -0.06819,0.500564 -0.886805,0.622694 -0.16988,-0.06451 -0.281705,-0.06451 -0.398205,-0.23523 -0.331189,-0.485082 -0.640947,0.07354 -1.057855,-0.215449 -0.289497,-0.597321 -0.629257,-0.222759 -0.935119,-0.688059 -0.141827,-0.613663 -0.147671,-0.93232 -0.562241,-1.429873 -0.151567,-0.181906 -0.356125,-0.339299 -0.124683,-0.564209 0.190141,-0.185776 0.628868,0.02752 0.81823,0.08386 0.582112,-0.296296 0.726666,-0.159544 1.207863,0.212008 0.229494,0.11869 0.490159,0.03741 0.648739,0.267913 0.238845,0.34661 0.470288,1.225175 0.442234,1.688325 M 37.05458,43.951743 c -0.443792,0.876416 -1.292803,1.346876 0.389634,1.075093 -0.400543,-0.0069 -0.448079,-0.06451 -0.389634,-0.387033 -0.135982,0.11783 -0.278977,0.160833 -0.428596,0.129011 0.196765,-0.214159 0.510419,-0.646346 0.428596,-0.817071 m 0.58445,-0.344029 c -0.151957,0.244691 -0.261054,0.525505 -0.311706,0.81707 0.09156,8.6e-4 0.194427,-0.03655 0.272743,-0.08601 -0.07247,-0.267053 0.171828,-0.620114 0.03896,-0.731063 m -5.961388,3.612311 c 0.187024,-0.07096 0.351449,-0.234371 0.506523,-0.387034 0.260275,-0.140622 0.487042,0.03139 0.740304,-0.215018 -0.167932,0.02967 -0.336644,0.04429 -0.506524,0.043 0.158971,-0.81578 0.74381,-0.489812 1.1689,-0.860074 -0.975642,0.07096 -0.04792,-0.547867 0.311707,-0.645055 -0.374828,-0.140622 -0.220533,-0.196097 -0.11689,-0.602052 -0.139879,0.209428 -0.445351,0.595171 -0.389634,0 -0.124293,0.201257 -0.24352,1.1611 -0.545486,1.1611 -0.326123,0 0.104032,-1.546413 0.155853,-1.720148 0.491717,0.340589 0.621465,-0.08214 1.05201,-0.319517 0.360411,-0.199108 0.714977,0.0215 0.646401,0.460999 -0.106759,0.684619 0.05961,1.364938 -0.622634,1.757131 -0.174166,0.404235 -0.196764,0.645916 -0.617179,0.81363 -0.257157,0.102349 -0.345994,0.03569 -0.455091,0.298446 -0.136761,0.329408 -0.38301,0.34962 -0.677183,0.431757 -0.567306,0.158254 -0.686533,0.525935 -0.842387,-0.11654 -0.241962,-0.996396 0.960446,-1.096164 0.19131,-0.100628 M 38.73,43.478697 c -0.04169,0.04945 -0.0678,0.107079 -0.07793,0.172014 0.08377,-0.02752 0.11611,-0.08902 0.07793,-0.172014 m 2.844323,0.81707 c 0.121175,-0.08687 0.340929,-0.681179 0.577046,-0.451969 0.12741,0.123851 -0.151957,0.717302 0.280147,0.365962 0.02688,0.777506 -1.512167,0.104069 -1.456839,-0.557758 0.02727,-0.323818 0.417297,-0.57367 0.676014,-0.386604 0.316771,0.22964 -0.169491,0.737514 -0.07637,1.030369 m -0.93512,-1.118096 c 0.146502,0.256302 0.617568,1.267749 0.474183,1.505129 -0.12702,0.210288 -0.598086,-0.09246 -0.766408,-0.06924 -0.308979,0.04257 -0.503796,0.46315 -0.677183,0.703111 -0.45626,0.631294 -0.13715,0.923289 0.497562,1.096594 0.131696,0.208138 -0.05884,0.420576 0.02844,0.677738 0.214688,0.475191 0.487042,0.476051 0.869662,0.372843 0.374827,-0.101059 0.267678,-0.07354 0.555227,0.168144 0.317941,0.267053 0.546266,0.167284 0.927327,0.04601 0.26495,0.02967 0.496393,0.382303 0.799527,0.205988 0.207285,-0.120841 0.311707,-0.291565 0.526005,-0.379723 0.629647,0.101919 0.961615,-0.689779 1.47671,-0.456269 0.181569,0.08214 0.178062,0.425736 0.393529,0.538406 0.697054,0.215449 0.647571,-0.35005 1.129937,0.450679 -0.610945,-0.178466 -0.963174,0.09375 -1.544506,0.193086 -0.450416,0.07698 -1.074998,-0.05375 -1.416707,0.279955 0.450416,-0.149223 1.342676,-0.03354 0.70134,0.645055 0.278588,-0.307046 0.605101,-0.501853 0.949926,-0.709131 0.646791,-0.389183 1.053958,-0.01634 1.69997,-0.23523 0.247417,0.212008 0.620685,0.23781 0.839659,0.442938 0.217805,0.446808 0.336254,1.05015 0.835763,1.018758 0.242742,0.185776 0.483535,0.419286 0.740303,0.601191 0.434441,0.08773 0.476911,-0.104499 0.601984,0.407675 0.07987,0.327259 -0.01013,0.727193 0.05455,0.968444 0.194038,0.358651 0.387685,0.533246 0.240014,0.946081 -0.299628,-0.208998 -0.452753,-0.749984 -0.818229,-0.774067 0.21157,0.3436 0.409504,0.697951 0.644843,1.023059 0.223649,0.309196 0.239624,0.82395 0.601983,0.654086 -0.02922,0.23136 0.06546,0.380583 0.272743,0.430037 -0.08533,0.174595 -0.154295,0.372842 -0.194816,0.559048 0.178452,-0.02236 0.334305,0.03483 0.467559,0.172015 -0.172607,-0.399935 0.0452,-0.838142 0.35067,-1.075093 -0.08026,0.259743 0.120007,0.589581 -0.155853,0.645056 0.04013,0.330698 0.06351,0.187496 0.11689,0.344029 0.09858,-0.04085 0.189751,-0.09805 0.272743,-0.172015 -0.06156,0.374993 -0.178452,0.722893 -0.506523,0.301026 0.201051,1.084124 0.540421,-0.127721 0.779266,-0.043 -0.125072,0.574099 -0.155853,0.855773 -0.623413,1.258288 -0.123513,0.263183 -0.176893,0.444658 -0.135592,0.762886 -0.08572,0.222759 -0.302745,0.345749 -0.423142,0.563778 -0.413011,0.748695 0.161698,0.680749 0.207675,1.199373 0.04676,0.525505 -0.718484,0.630435 -0.152736,1.204534 0.365865,0.371552 0.273132,0.836422 0.581332,1.289681 0.217805,0.202547 0.561462,0.208998 0.794462,0.387893 0.09001,0.507874 0.472625,0.611083 0.838881,0.860074 0.156243,0.283825 0.10637,0.650646 0.09624,0.977474 -0.0187,0.596032 0.02649,2.241353 -0.287939,2.54797 -0.05611,-0.362092 -0.116111,-0.726333 -0.116111,-1.095305 0,-0.476481 0.253652,-0.798578 0.132476,-1.28323 -0.13793,-0.551738 -0.550552,-0.806749 -0.756668,-1.27678 -0.504965,0.427887 -0.750823,1.891303 -0.02883,2.285217 0.116501,0.06364 0.315603,0.0129 0.405219,0.107079 0.171828,0.180185 0.173776,1.087563 0.169101,1.306022 -0.444962,-0.345319 -0.837322,-0.958982 -1.313064,-0.205557 -0.251703,0.398644 0.04325,0.754715 -0.310928,1.114225 -0.03896,0.252862 0.124293,0.669138 0.02844,0.854484 -0.176115,0.340159 -0.665494,0.648496 -0.379503,1.090574 0.220532,0.341019 0.479249,0.368542 0.611334,0.801589 0.01987,0.242541 -0.245469,0.591731 -0.311706,0.81707 0.270016,-0.285114 0.515874,-0.648066 0.740303,-0.989085 -0.192479,-0.07784 -0.895377,-0.605062 -0.948757,-0.860074 -0.04052,-0.192657 0.05221,-0.305756 0.130527,-0.46702 0.334305,-0.296296 0.449637,-0.313927 0.321448,-0.757295 -0.07169,-0.248132 0.111045,-1.27592 0.25482,-1.530502 0.217805,-0.385743 0.478469,-0.322958 0.719263,0.0086 0.132085,0.443798 0.569254,0.610222 0.646011,1.026498 -0.128579,0.563779 -0.361969,0.805029 0.04598,1.247107 -0.05065,0.384453 -0.177283,0.617103 -0.545486,0.731063 0.0094,-0.04902 0.04169,-0.334999 0.03896,-0.301026 -0.554058,0.530666 0.07598,0.81148 -0.511588,1.215285 -0.978759,0.673008 -1.230852,2.053857 -2.099344,2.784059 -0.06468,-0.427886 -0.04598,-0.872545 0.06156,-1.290111 -0.120786,-0.326828 -0.168322,-0.680748 -0.139489,-1.032088 -0.513147,0.373272 -1.896734,1.644461 -1.390211,2.44949 0.852128,1.354617 -1.426058,0.361231 -1.843744,0.592161 -0.168712,0.152663 -0.444182,0.8089 -0.683027,0.738804 -0.217416,-0.06365 -0.315214,-0.216309 -0.5638,-0.132452 -0.33976,0.294146 -0.529511,1.429874 -0.935509,1.395901 -0.305083,-0.02537 -0.327292,-0.219749 -0.23339,-0.528516 -0.686924,0.04257 -1.612302,-0.03526 -1.909592,0.838142 -0.293394,0.862654 -1.079674,2.725145 -2.181557,2.215121 0.432103,-0.677738 1.570612,-1.223025 1.02006,-2.180288 -0.363528,-0.631724 -1.120975,-0.441648 -1.692177,-0.424876 -0.714977,0.02107 -1.350079,-0.102779 -2.046743,-0.257592 -2.181946,-0.485512 -1.599834,2.141584 0.147281,2.346711 -0.351449,-0.415845 -0.932003,-0.602051 -1.289296,-1.118096 -0.188193,-0.3565 -0.208454,-1.000696 0.27625,-0.998546 0.539642,0.0022 1.358261,-0.182335 1.795819,0.305327 0.19092,0.212438 0.0413,0.559478 0.3082,0.650216 0.02922,-0.650646 0.01792,-0.974034 0.389633,-0.301026 0.05961,-0.569369 0.290277,-0.417996 0.428597,0.08601 0.165204,-0.01333 0.101304,-0.374132 0.272743,-0.516044 0,0.204697 0.02611,0.405525 0.07793,0.602051 0.218584,-0.150943 0.03117,-0.462289 0.23378,-0.602051 0.07208,0.364671 -0.121176,0.81836 0.03896,0.989085 -0.153905,0.272213 -0.375217,0.506153 -0.46756,0.774066 0.268457,-0.248991 0.601594,-0.554317 0.93512,-0.688059 0.159749,0.488952 -0.663935,1.259148 -1.05201,1.296992 -0.142606,0.01376 -0.497172,-0.336289 -0.632375,-0.402085 -0.586787,-0.285974 -0.842387,-0.494972 -1.198901,-1.109925 0.687313,0.131591 1.4132,0.325538 2.104019,0.129011 -0.642505,-0.11267 -2.805748,-0.944362 -3.233955,-0.215019 0.49912,0 0.369372,-0.185776 0.651077,0.262753 0.216636,0.34532 0.479249,0.268773 0.71147,0.546147 0.355346,0.424446 -0.119617,0.528515 -0.310538,0.868245 0.14884,0.0086 0.248586,0.09977 0.272744,0.258022 -0.612114,-0.162124 -1.359431,-0.11138 -1.927126,-0.400365 -0.44613,-0.227059 -0.549383,-0.522065 -0.95616,-0.459709 0.228325,-0.249422 0.05299,-1.029509 -0.07637,-1.352467 -0.272743,-0.682038 -0.05728,-0.799008 -0.663935,-1.313763 -0.268457,-0.514324 -0.67991,-1.217434 -1.324753,-1.090143 -0.302355,-0.215019 -0.391192,-0.622694 -0.728614,-0.832552 -0.708743,-0.440358 -0.80732,0.336289 -1.258515,0.637315 -0.311707,-0.02881 -0.704457,0.02795 -0.798748,0.425306 -0.118838,0.500133 0.468728,0.58098 0.448078,0.989085 -0.35106,-0.178035 -0.81862,-0.457129 -1.105779,-0.774066 -0.217805,-0.585711 -0.695495,-0.841153 -0.89265,-1.440624 -0.125072,-0.380153 0.500679,-0.786968 0.560682,-1.245817 0.08923,-0.680319 -0.381451,-1.203244 -0.666272,-1.74294 -0.09273,0.23867 -0.238456,0.421436 -0.394309,0.627424 -0.315993,0.417136 -0.260275,1.201953 -0.735628,0.70569 0.126631,0.421437 0.254431,0.848033 0.455871,1.235067 0.167542,0.321667 0.479639,0.526795 0.632375,0.831691 0.119617,0.239101 -0.100526,0.337149 -0.308979,0.34102 -0.03156,-0.101489 -0.102864,-0.180186 -0.194817,-0.215019 -0.06585,0.548727 0.302745,0.616243 0.720042,0.607212 0.321448,-0.0069 0.380672,0.138902 0.568475,0.441648 0.322616,0.519915 0.314824,0.792128 0.893039,1.015318 -0.0865,0.08386 -0.138319,0.184056 -0.155853,0.301026 -0.400153,-0.2219 -0.695106,-0.536257 -1.013046,-0.817071 0.0526,0.439928 0.493275,0.615383 0.272743,0.989085 0.582112,-0.187926 1.189161,0.307907 1.558533,0.774067 0.656921,-0.264043 -0.532629,0.242971 -0.428597,0.215018 h 0.389633 c -0.446909,0.275224 0.119618,0.614093 0.11689,1.118097 0.172998,-0.148363 1.051231,-0.667418 0.867324,0.043 -0.198323,0.766756 -2.040899,-0.142772 -1.685553,-1.118096 -0.261444,0.08816 -0.494055,0.01505 -0.70134,0.129011 0.320668,0.01548 0.336643,0.211148 0.363917,0.516045 0.196375,0.439067 0.591464,0.736223 1.018112,0.842872 0.450806,0.11267 0.921872,0.0473 1.199681,-0.379292 0.329629,-0.506154 0.672506,-0.362952 1.197732,-0.205558 -0.01753,-0.211578 -0.06234,-0.483792 -0.07793,-0.645056 0.306252,0.197387 1.546065,0.609793 1.792313,0.172015 0.06312,0.252862 -0.04169,0.441648 -0.311706,0.430037 0.01286,0.171155 0.09078,0.314787 0.233779,0.430037 -0.278977,-0.0301 -1.191498,0.04859 -0.974083,-0.559048 -0.197154,-0.07225 -0.412232,0.106649 -0.506523,0.258022 0.08767,0.132452 0.1917,0.247272 0.311707,0.34403 -0.107149,0.03827 -0.105201,0.03225 -0.194817,0.043 0.622244,0.782237 -0.40366,0.719021 -0.194816,0.043 -0.239625,-0.0034 -0.407946,0.161694 -0.342878,0.408535 0.03974,0.150513 0.175335,0.268344 0.303914,0.34102 0.591853,0.09246 1.0524,-0.141052 1.592821,0.313497 0.384568,0.323388 -0.749265,0.616243 -0.404439,0.913398 0.344825,0.297156 1.157989,0.490673 1.500087,0.173735 -0.342487,0.0095 -0.863037,0.147933 -0.506523,-0.344029 -0.188193,0.08472 -0.383009,0.141912 -0.58445,0.172014 -0.05611,-1.338275 1.226566,-0.542706 1.611134,-0.0129 0.822515,1.133148 1.491516,-0.442938 2.226753,-0.688059 0.284822,-0.09504 0.62692,0.707411 0.772253,0.902648 0.507693,0.517334 1.20124,0.384883 1.746336,0.0215 0.188583,-0.126001 0.487821,-0.602912 0.725497,-0.405955 0.363139,0.301456 0.469508,0.962423 1.061751,0.785247 -0.481587,-0.08386 -1.202018,-0.870825 -0.46756,-1.204103 0.08143,0.327258 0.888753,1.506419 1.090973,0.989085 -0.482366,-0.07225 -0.909793,-0.561198 -0.896156,-1.118096 0.300407,0.140192 1.139677,1.017467 1.480606,0.887596 0.352618,-0.134602 0.220922,-0.544427 -0.04052,-0.688489 -0.542759,-0.298446 -1.364495,0.140622 -1.791144,-0.681179 -0.0826,-0.159544 0.02455,-0.100198 0.03974,-0.241681 0.125072,-0.09117 0.262613,-0.135031 0.412232,-0.131591 0.18001,-0.140622 0.06624,-0.424877 0.289108,-0.606782 -0.01403,0.223189 0.07987,0.378862 0.272743,0.430037 -0.06,-0.803739 0.540811,-0.822661 0.984603,-0.454979 0.929275,0.770196 2.160516,0.723322 3.262399,0.669997 -0.547825,-0.184486 -0.899274,0.0052 -1.453722,-0.110949 -0.531849,-0.11138 -1.398783,-0.06537 -0.788617,-0.643766 0.154294,-0.146212 0.245079,-0.502713 0.450026,-0.568078 0.142216,-0.04558 0.405608,0.224049 0.624582,0.216308 0.507302,-0.0172 0.811996,0.156534 1.282283,-0.172015 0.14806,0.02408 0.161698,-0.02193 0.268067,0.138902 0.109098,0.165134 0.203389,0.485512 0.279757,0.675158 0.03078,0.07612 0.259496,0.05204 0.279757,0.207278 -0.02844,0.220609 -0.198713,0.236951 -0.357684,0.316077 -0.12663,0.128581 -0.2443,0.266623 -0.353007,0.414126 -0.373269,0.09676 -0.611724,-0.08816 -0.979928,0.07784 -0.645232,0.291135 -0.95616,-0.468741 -1.628277,0.03612 -0.614451,0.08214 -0.790566,-1.353757 -1.675423,-1.189052 0.272354,0.310056 0.710302,0.387463 0.971356,0.833411 0.09546,0.162984 0.177673,0.402515 0.353397,0.499703 0.317941,0.07096 0.727445,-0.183626 0.981097,-0.11353 0.432882,0.795999 0.980317,0.169865 1.569832,0.191797 0.54198,0.02021 1.036814,-0.357791 1.428395,-0.756865 0.2443,-0.249422 0.150009,-0.387464 0.05961,-0.622264 -0.441454,-0.23437 -0.540811,-0.852333 -1.038762,-0.93189 -0.251314,-0.03999 -0.597308,0.433477 -0.783552,0.168575 -0.230663,-0.334999 0.263392,-0.58098 0.430155,-0.682469 0.232221,-0.162124 0.167152,-0.221899 0.38223,-0.247701 0.353787,0.433907 0.981875,0.05504 1.427616,0.193516 0.699781,0.218029 0.82875,-0.457989 1.385925,-0.509164 0.566916,-0.05203 0.544707,-0.317367 1.016553,-0.666557 0.71225,-0.526365 0.896546,-2.507976 -0.357683,-2.046116 -0.125852,0.04644 -0.710691,0.310057 -0.664714,-0.105789 0.04052,-0.367682 0.207284,-0.941781 0.513536,-1.139598 0.0078,0.390043 -0.276639,0.731063 0.23378,0.731063 0.451585,-0.191367 0.863817,-0.484652 1.207863,-0.860074 0.644064,-0.0172 0.987331,-0.243401 1.400342,-0.774067 0.32846,-0.759015 -0.613673,-0.397784 -0.803814,-0.220609 -0.460546,0.429177 -0.990837,1.604468 -1.665682,1.553724 0.681079,-1.058751 0.698613,-2.112342 1.79621,-2.857596 0.501457,-0.340589 0.675234,-0.760735 1.298647,-0.57582 0.490548,-0.218028 0.471067,-0.7044 0.81823,-1.019187 0.497172,-0.09934 1.00915,-0.494973 0.951484,-1.104765 -0.01792,-0.191367 -0.178062,-0.482502 -0.147281,-0.656667 0.04559,-0.258022 0.249365,-0.430037 0.304693,-0.709561 0.0019,-0.567649 -0.474963,-0.606352 -0.86031,-0.495832 -0.457819,0.131161 -0.727835,-0.156534 -1.222669,0.02279 0.160529,-0.743964 0.761343,-0.904797 1.285789,-1.230335 0.618348,-0.560339 0.158971,-1.290541 0.272744,-1.994942 -0.337423,0.315217 -0.925379,0.268773 -1.090973,0.81707 0.375996,-0.214588 0.82797,-0.602052 1.013046,0.129011 -0.478859,0.135032 -0.598866,0.123421 -1.090973,-0.043 -0.217805,0.397784 -0.249365,0.778797 -0.05338,1.204103 -0.05922,0.324678 -0.548603,0.80976 -0.725886,1.1611 -0.06741,-0.873405 0.03701,-1.959678 0.244689,-2.815882 0.141437,-0.58227 0.334695,-1.147339 0.478859,-1.728749 0.162867,-0.655376 0.357684,-0.179755 0.600815,-0.658817 -0.285601,0.02451 -1.107727,-0.424876 -0.740303,-0.858353 0.232611,-0.410686 0.946808,0.338439 0.935119,0.686339 0.647181,-0.449819 0.333137,-1.727459 0.311707,-2.408208 -0.307421,0.121701 -1.03019,0.877276 -1.203967,1.176152 -0.294173,0.505723 -0.238845,0.900927 -0.03351,1.447074 -0.02143,0.181476 -0.08104,0.34661 -0.178452,0.494973 -0.32963,0.253292 -0.243521,0.549587 -0.415349,0.924149 -0.639388,-1.186472 -0.678741,-3.233018 -0.46756,-4.558392 -0.344436,0.02709 -0.544318,0.04601 -0.655363,-0.473041 0.20144,-0.603772 -0.128189,-0.866094 -0.353397,-1.372678 -0.120007,-0.270493 -0.44613,-0.302316 -0.527564,-0.605492 -0.07715,-0.288985 0.248586,-0.550017 0.04715,-0.81449 -0.659259,-0.616243 -0.156633,-0.608072 -0.381061,-1.378699 -0.172997,0.136322 -0.273133,0.424447 -0.35067,0.68806 -0.596529,-0.46057 -0.177283,-0.970164 -0.35067,-1.634141 0.161698,-0.797719 -0.245469,-0.889316 -0.454702,-1.575655 -0.154295,-0.505724 -0.103253,-1.27506 -0.37171,-1.712838 -0.168711,-0.275224 -0.56341,-0.35349 -0.810048,-0.495833 -0.142995,0.780088 -0.330798,2.08525 0.70134,2.220282 0.601984,0.562058 0.32963,1.298711 0.58445,2.037515 -0.41379,0.083 -0.388075,-1.294842 -0.857193,-1.548133 0.04559,1.021768 -0.760564,-0.614093 -0.866544,-0.866095 -0.373658,-0.889746 -0.379113,-0.201687 -0.847842,-0.03698 0.492107,-1.736059 -0.285212,-2.879098 -1.415537,-3.961501 -0.667053,-0.638605 -1.316181,-0.444658 -2.052199,-0.435197 -0.47769,-0.23222 -1.119805,-0.0701 -1.129936,0.569369 -0.342861,-0.266178 -0.691193,-0.52291 -1.035629,-0.786093 -0.14845,-0.211148 -0.124293,-0.494113 -0.262613,-0.719022 -0.466001,-0.566789 -1.238254,-0.496693 -1.857381,-0.387893 m -2.727433,0.989085 c 0.142996,-0.100629 1.052789,-1.908504 1.350859,-0.944361 0.05728,0.185346 -0.07052,0.291135 -0.158971,0.439497 -0.16988,0.285545 0.06702,0.541417 -0.09975,0.798579 -0.120396,0.186206 -0.421193,0.204268 -0.572371,0.285115 -0.107539,0.08386 -0.08533,0.282534 -0.164815,0.390903 -0.227156,0.310057 -0.852127,0.184486 -1.163055,0.35005 -0.341708,0.181906 -0.765239,0.237811 -0.984213,-0.11611 -0.192089,-0.831691 0.386126,-0.676878 0.288718,-1.462125 0.273522,-0.382733 0.518212,-0.270494 0.847842,-0.610653 0.155853,-0.104499 0.162087,-0.574529 0.428986,-0.251572 0.462495,0.559479 0.321447,0.276084 0.226766,1.120677 m -8.961563,5.590481 c -0.189751,-0.993386 1.133832,-2.184588 1.324753,-3.182274 -0.720822,-0.343169 -0.900832,1.212704 -1.207863,1.419122 -0.01637,-0.473041 0.136761,-1.029508 -0.389633,-1.075092 -0.118059,0.92845 -0.193258,1.86249 -0.27664,2.79567 -0.05221,0.58227 -0.313265,0.519055 -0.385737,0.988655 -0.559123,-0.642045 -1.589703,-2.604304 -2.105967,-0.838572 -0.09351,0.319518 -0.655753,0.325968 -0.831478,0.624414 -0.353397,0.600331 -0.05338,0.603772 -0.702898,1.086273 -0.183127,0.34145 0.04013,0.623554 0.01675,0.977044 -0.349501,0.793849 0.133255,1.327095 0.411453,2.064178 0.293784,0.777937 -0.195985,1.899903 -0.321058,2.684291 -0.157801,0.991235 -0.278587,1.990211 -0.363138,2.992197 -0.05883,-0.196097 -0.108318,-0.508733 -0.255599,-0.688059 -0.193258,-0.110949 -0.413401,-0.264473 -0.418466,-0.536256 -0.0051,-0.262753 0.237286,-0.294575 0.377944,-0.46573 0.300407,-0.366392 0.168322,-0.778797 0.05844,-1.205824 -0.09351,-0.363381 -0.282874,-1.106055 -0.603542,-1.298712 -0.167542,-0.100628 -0.479249,0.706121 -0.544707,0.857494 -0.524446,1.211414 0.386906,1.764442 0.684975,2.821043 -0.220532,-0.05074 -0.370151,-0.172875 -0.58445,-0.172015 0.344826,0.537976 0.959667,0.385313 1.12643,1.205394 0.126631,0.622693 0.377944,1.069932 0.39314,1.761861 -0.361969,-0.434337 -0.805372,-0.824811 -1.222669,-1.17056 -0.275081,-0.22792 -0.710302,-0.205128 -0.891091,0.138472 -0.04987,0.09461 -0.0374,0.23867 -0.06819,0.344029 0.152346,0.553028 -0.04637,0.727623 -0.22287,1.247108 -7.8e-4,0.255442 0.0265,0.306186 0.18001,0.546577 0.27664,0.432617 0.05572,0.381872 0.09624,0.829541 0.03702,0.410255 0.481586,0.483362 0.668221,0.774927 0.200661,0.313067 0.09312,0.454119 0.447298,0.663547 0.617569,-0.11439 1.166562,0.769766 1.50905,1.221735 0.542759,0.716441 0.755109,1.679724 1.023566,2.543239 -0.624971,-0.158684 0.211181,0.562488 0.272743,0.645055 -0.767577,0.170295 -1.363326,-0.785677 -1.293582,-1.505129 -0.195206,-1.100035 -0.799137,-0.967584 -1.405017,-1.50513 -0.337033,0.11353 -0.255599,1.346876 -0.07091,1.721008 0.204167,0.413266 0.596918,0.613233 1.015773,0.529376 0.399764,0.171154 0.802645,0.534106 1.15799,0.808039 0.421194,0.325108 1.861278,1.499539 0.559514,1.644892 -0.466391,0.05203 -0.568865,0.106649 -0.817841,0.516044 -0.255599,0.420146 0.29846,0.717302 0.397426,1.037679 0.145723,0.472611 0.07091,0.821371 0.534187,1.113366 0.484704,0.155674 0.651857,0.143633 1.117468,0.410256 0.421194,0.24125 0.625751,-0.197817 0.986552,-0.09246 0.423141,0.269203 0.51977,0.611942 1.052009,0.482501 -0.367424,-0.365101 -0.943691,-0.81406 -1.458007,-0.553457 -0.481976,0.244261 -0.732121,-0.372843 -1.189161,-0.433048 -0.545486,-0.07182 -0.559902,-0.327258 -0.706405,-0.881146 -0.09039,-0.340589 -0.638998,-0.755145 -0.463273,-1.090573 0.203778,-0.389614 0.373268,-0.187066 0.777707,-0.252432 0.525616,-0.161264 0.484314,-0.525075 0.906287,0.200827 0.370541,0.203408 0.341319,-0.0017 0.769136,-0.043 -0.34989,-0.191366 -0.464053,-0.47132 -0.506523,-0.946081 -0.08299,0.06924 -0.121955,0.169435 -0.11689,0.301026 -0.401322,-0.215879 -0.757447,-0.572809 -0.93512,-1.032089 0.256379,0.236951 0.42509,-0.08687 0.46756,-0.215018 0.04987,0.340159 0.01792,0.655806 0.194817,0.81707 0,-0.727623 0.0051,-0.731063 -0.176114,-1.183462 -0.242742,-0.393484 -0.598087,-0.782237 -0.778877,-1.181742 -0.121955,-0.269203 0.181959,-0.35091 -0.08221,-0.644625 -0.189751,-0.210718 -0.444182,-0.1217 -0.56263,-0.473471 -0.06039,-0.260602 0.248586,-0.438207 0.221701,-0.688059 -0.417687,-0.798579 -0.08884,-0.668277 0.153905,-1.354616 0.111046,-0.313497 -0.176504,-0.57152 0.06858,-0.80933 0.427817,-0.415416 0.780825,0.517764 1.077725,0.721602 0.88213,-0.149223 0.546656,0.397354 0.699781,0.9263 0.08728,0.301456 0.309759,0.393054 0.367425,0.688059 0.01675,0.08687 -0.156633,0.210288 -0.151568,0.301026 0.02727,0.107079 0.227936,0.597751 0.185076,0.688059 -0.06039,0.126861 -0.23339,0.240391 -0.324954,0.34489 -0.07637,0.175455 0.07715,0.345749 0.04637,0.536686 -0.01286,0.08128 -0.07715,0.299306 -0.198713,0.257162 -0.327292,-0.1131 -0.109876,-1.199373 -0.03896,-1.439764 -0.08143,0.07225 -0.171049,0.165564 -0.23378,0.258022 -0.193258,-0.526365 -0.110266,-0.940921 0.07793,-1.462126 -0.181959,-0.02322 -0.342488,0.192657 -0.428597,0.34403 -0.120396,-0.406815 0.0058,-0.592591 0.03896,-0.989085 -0.107539,0.0095 -0.139489,0.09117 -0.194817,0.172015 -0.134034,-0.205128 -0.224429,-0.765036 -0.506523,-0.688059 0.07559,0.225769 0.140657,0.454979 0.194816,0.688059 -0.133254,-0.08601 -0.27625,-0.143633 -0.428596,-0.172015 0.227156,0.422726 0.58406,0.668708 0.70134,1.1611 -0.196765,-0.09203 -0.693937,-0.481212 -0.857193,-0.215019 0.513536,0.161264 0.932002,0.595602 1.090973,1.1611 -0.24508,-0.07268 -0.349891,-0.169004 -0.58445,-0.172015 0.338981,0.415846 0.687313,0.480782 0.805761,1.076813 0.08338,0.420146 0.109487,0.960273 0.324175,1.288391 0.156243,-0.910388 1.065647,-1.669404 0.826802,-2.623226 0.05767,-0.46444 0.287549,-0.459709 0.03117,-0.890176 -0.242741,-0.408105 -0.348332,-1.056601 -0.630037,-1.377839 -0.224039,-0.255442 -0.429375,-0.194377 -0.695495,-0.34618 -0.203388,-0.279524 -0.486262,-0.485511 -0.804203,-0.565928 -0.593801,-0.150513 -1.067205,0.488952 -0.979927,-0.732353 0.02494,-0.05289 0.04052,-0.08902 0.07793,-0.129011 0.487821,-0.01204 0.749655,-0.169865 0.969797,-0.656237 0.271575,-0.600762 0.09117,-1.217435 0.07403,-1.839268 -0.250145,0.458419 -0.875896,0.447668 -1.27488,0.784817 -0.416908,-0.129011 -0.05611,-1.193782 0.08728,-1.472876 -0.009,-0.372842 0.0097,-0.861364 0.235728,-1.1611 0.30742,-0.407675 0.727835,-0.193947 1.11474,-0.399935 0.283653,-0.150943 0.335085,-0.242971 0.369762,-0.545717 0.239625,-0.259312 0.534577,-0.313497 0.629648,-0.725042 0.08104,-0.35005 0.352618,-0.502283 0.411063,-0.823951 0.05883,-0.325538 -0.03117,-0.651936 0.0051,-0.987795 0.0452,-0.420576 -0.02377,-0.570229 -0.370541,-0.81578 -0.207285,-0.07784 -0.837322,-0.269633 -1.031749,-0.11095 -0.214298,0.81019 -0.240793,0.602052 -0.682637,0.931461 -0.267678,0.199967 -0.324175,0.06838 -0.421584,0.492822 -0.06585,0.285975 -0.04325,0.473901 -0.31872,0.533246 0.36158,-0.999406 0.91369,-1.897753 1.324753,-2.881248 1.027853,1.021768 1.804002,-0.506584 2.10402,-1.419122 -0.578606,-0.135462 -1.074998,0.07999 -1.61542,0.228779 0.0413,-0.434337 0.652246,-0.734933 1.007592,-0.898347 0.515874,-0.23738 0.174166,-0.219319 0.435999,-0.560338 0.155074,-0.202117 0.490549,0.169435 0.561462,0.219319 0.237676,0.06795 0.325344,0.06623 0.587956,-0.0099 0.44613,-0.129011 0.547045,0.136322 0.98772,0.08214 0.384179,-0.04687 0.515875,-0.250711 0.911742,-0.225769 0.387685,0.02451 0.611724,-0.139762 0.877454,-0.448529 0.227546,-0.264473 1.005254,-0.690209 0.926548,-1.143038 -0.126241,-0.724613 -1.270204,-0.80976 -1.836731,-0.758586 -0.481587,0.285115 -0.676403,0.402085 -1.071491,-0.03354 -0.07949,-0.08773 -0.0826,-0.167715 -0.02026,-0.272214 0.281705,-0.47175 1.282283,-0.863514 1.735426,-1.115086 0.902001,-0.500563 1.429175,-0.848893 2.187011,0.03354 0.315993,0.368112 0.556396,0.452399 1.026684,0.474761 0.167542,0.151803 0.32924,0.35263 0.545486,0.401224 0.252872,0.05676 0.532239,-0.12471 0.740303,-0.271353 0.207285,0.06838 0.551331,0.140192 0.758616,0.03999 0.240793,-0.11611 0.922651,-0.545287 1.099155,-0.741814 0.135982,-0.151373 0.12819,-0.359081 0.05884,-0.548727 -0.173387,-0.473901 -0.661597,-0.3479 -0.875506,-0.859214 -0.379113,-0.234801 -0.57315,0.04171 -0.963173,-0.0129 -0.59536,-0.341879 -0.630427,-0.06063 -1.227345,-0.05375 -0.189751,0.0022 -0.420804,-0.07741 -0.410283,-0.318228 0.01987,-0.452398 0.84979,0.0082 1.017332,-0.0645 1.1576,-0.500993 2.28403,-0.03483 3.150964,-1.315053 0.21235,-0.634305 0.631595,-1.893883 -0.45704,-1.717138 -0.39314,0.06365 -0.500679,0.150083 -0.878623,0.0065 -0.291835,-0.11095 -0.423531,-0.07698 -0.688872,0.0658 -0.183517,0.07225 -0.398205,0.383593 -0.633543,0.489382 -0.621855,0.280384 -0.302356,0.710852 -0.783553,1.167551 -0.04481,0.09633 -0.05026,0.499273 -0.154684,0.531526 -0.645622,0.199537 -0.510419,-0.666988 -0.561851,-1.177872 -0.08728,-0.868675 -0.838101,-0.895337 -1.368781,-0.304896 -0.299239,0.333279 -0.64796,-0.05332 -0.9246,0.261032 -0.183907,0.208568 -0.21274,0.523355 -0.430155,0.682899 -0.330019,0.242111 -0.73329,0.278234 -0.792514,0.81191 0.06312,0.360371 0.337812,0.632584 0.04091,0.9306 -0.230273,0.23136 -0.443012,0.206418 -0.454312,0.596031 -0.03195,1.108636 -1.755297,1.844859 -2.235715,2.818033"
       style="fill:#008000" />
    <path
       d="m 71.093252,116.61562 v -12.75769 h -1.58401 v -0.51394 h 4.46401 v 0.51394 h -1.57714 v 11.83059 h 1.57714 v 0.51394 h -0.24 q -1.50172,0 -2.64,0.41316 z"
       style="font-style:normal;font-variant:normal;font-weight:normal;font-stretch:normal;font-size:medium;line-height:125%;font-family:'Bodoni MT';-inkscape-font-specification:'Bodoni MT';letter-spacing:0px;word-spacing:0px;fill:#000000;fill-opacity:1;stroke:none;stroke-width:1px;stroke-linecap:butt;stroke-linejoin:miter;stroke-opacity:1"
       id="path8662"
       inkscape:connector-curvature="0" />
    <path
       d="M 7.7862622,6.5103263 V 19.268005 h 1.584 v 0.51393 h -4.46401 v -0.51393 h 1.57715 V 7.4374163 h -1.57715 v -0.51394 h 0.24001 q 1.50171,0 2.64,-0.41315 z"
       style="font-style:normal;font-variant:normal;font-weight:normal;font-stretch:normal;font-size:medium;line-height:125%;font-family:'Bodoni MT';-inkscape-font-specification:'Bodoni MT';letter-spacing:0px;word-spacing:0px;fill:#000000;fill-opacity:1;stroke:none;stroke-width:1px;stroke-linecap:butt;stroke-linejoin:miter;stroke-opacity:1"
       id="path8620"
       inkscape:connector-curvature="0" />
  </g>
</svg>
