<?xml version="1.0" encoding="UTF-8" standalone="no"?>
<!-- Created with Inkscape (http://www.inkscape.org/) -->

<svg
   id="svg10047"
   height="122.87411"
   width="78.870903"
   version="1.1"
   viewBox="0 0 78.870903 122.87411"
   inkscape:version="0.91 r13725"
   sodipodi:docname="ancient-french.svgz"
   xmlns:inkscape="http://www.inkscape.org/namespaces/inkscape"
   xmlns:sodipodi="http://sodipodi.sourceforge.net/DTD/sodipodi-0.dtd"
   xmlns="http://www.w3.org/2000/svg"
   xmlns:svg="http://www.w3.org/2000/svg"
   xmlns:rdf="http://www.w3.org/1999/02/22-rdf-syntax-ns#"
   xmlns:cc="http://creativecommons.org/ns#"
   xmlns:dc="http://purl.org/dc/elements/1.1/">
  <sodipodi:namedview
     pagecolor="#ffffff"
     bordercolor="#666666"
     borderopacity="1"
     objecttolerance="10"
     gridtolerance="10"
     guidetolerance="10"
     inkscape:pageopacity="0"
     inkscape:pageshadow="2"
     inkscape:window-width="1920"
     inkscape:window-height="1016"
     id="namedview1491"
     showgrid="false"
     inkscape:zoom="1.3479675"
     inkscape:cx="407.78528"
     inkscape:cy="307.5"
     inkscape:window-x="0"
     inkscape:window-y="0"
     inkscape:window-maximized="1"
     inkscape:current-layer="svg10047"
     showguides="true"
     inkscape:guide-bbox="true"
     inkscape:snap-grids="true"
     inkscape:showpageshadow="2"
     inkscape:pagecheckerboard="0"
     inkscape:deskcolor="#d1d1d1" />
  <metadata
     id="metadata16869">
    <rdf:RDF>
      <cc:Work
         rdf:about="">
        <dc:format>image/svg+xml</dc:format>
        <dc:type
           rdf:resource="http://purl.org/dc/dcmitype/StillImage" />
        <dc:title />
      </cc:Work>
    </rdf:RDF>
  </metadata>
  <defs
     id="defs10049" />
  <g
     id="club_5"
     transform="translate(-315.93412,-0.11466654)"
     inkscape:label="#club_5">
    <rect
       transform="scale(-1)"
       style="fill:#ffffff;stroke:#000000;stroke-width:0.223273"
       id="rect142-3-7-5-9-2-7-8-0-6-5-8-9-7-2-0-9-3-3-3-6-5-3-5-1-8-1"
       y="-122.87714"
       x="-394.69339"
       ry="6.8138328"
       rx="6.559958"
       height="122.65083"
       width="78.647629" />
    <g
       transform="matrix(-0.46229609,0,0,-0.49525575,323.06817,26.160726)"
       id="use1298-9-8-0-6-2-8-3-2-8-8-7-1">
      <path
         d="m 3.35,4.66 c 0,-1.81 -1.51,-3.28 -3.38,-3.28 -1.87,0 -3.38,1.47 -3.38,3.28 0,1.81 1.51,3.28 3.38,3.28 1.87,0 3.38,-1.47 3.38,-3.28 z"
         id="path7724"
         inkscape:connector-curvature="0" />
      <path
         d="m 7.71,-1.55 c 0,-1.81 -1.51,-3.28 -3.38,-3.28 -1.87,0 -3.38,1.47 -3.38,3.28 0,1.81 1.51,3.28 3.38,3.28 1.87,0 3.38,-1.47 3.38,-3.28 z"
         id="path7726"
         inkscape:connector-curvature="0" />
      <path
         d="m -0.95,-1.57 c 0,-0.66 -0.2,-1.28 -0.55,-1.8 -0.6,-0.89 -1.65,-1.48 -2.83,-1.48 -1.87,0 -3.38,1.47 -3.38,3.28 0,1.81 1.51,3.28 3.38,3.28 1.87,0 3.38,-1.47 3.38,-3.28 z"
         id="path7728"
         inkscape:connector-curvature="0" />
      <path
         d="m 3.94,-7.94 c -1.67,0 -2.55,1.36 -3.01,2.72 -0.46,1.36 -0.5,2.72 -0.5,2.72 h -0.86 c 0,0 -0.16,-5.43 -3.5,-5.44 z"
         id="path7730"
         inkscape:connector-curvature="0" />
      <path
         d="m -2.32,2.25 c 1.9,-1.9 1.9,-4.75 1.9,-4.75 l 0.85,-0.01 c 0,0 0,2.91 1.85,4.76"
         id="path7732"
         inkscape:connector-curvature="0" />
      <path
         d="m -1.94,-3.85 c 1.9,1.9 4.75,1.9 4.75,1.9 v 0.85 c 0,0 -2.91,0 -4.76,1.85"
         id="path7734"
         inkscape:connector-curvature="0" />
      <path
         d="m 1.87,-3.86 c -1.9,1.9 -4.75,1.9 -4.75,1.9 v 0.85 c 0,0 2.91,0 4.76,1.85"
         id="path7736"
         inkscape:connector-curvature="0" />
    </g>
    <g
       transform="matrix(-1.0979532,0,0,-1.1762324,336.87988,18.050316)"
       id="use898-6-3-4-8-6-54-1-5-2-1">
      <path
         d="m 3.35,4.66 c 0,-1.81 -1.51,-3.28 -3.38,-3.28 -1.87,0 -3.38,1.47 -3.38,3.28 0,1.81 1.51,3.28 3.38,3.28 1.87,0 3.38,-1.47 3.38,-3.28 z"
         id="path7740"
         inkscape:connector-curvature="0" />
      <path
         d="m 7.71,-1.55 c 0,-1.81 -1.51,-3.28 -3.38,-3.28 -1.87,0 -3.38,1.47 -3.38,3.28 0,1.81 1.51,3.28 3.38,3.28 1.87,0 3.38,-1.47 3.38,-3.28 z"
         id="path7742"
         inkscape:connector-curvature="0" />
      <path
         d="m -0.95,-1.57 c 0,-0.66 -0.2,-1.28 -0.55,-1.8 -0.6,-0.89 -1.65,-1.48 -2.83,-1.48 -1.87,0 -3.38,1.47 -3.38,3.28 0,1.81 1.51,3.28 3.38,3.28 1.87,0 3.38,-1.47 3.38,-3.28 z"
         id="path7744"
         inkscape:connector-curvature="0" />
      <path
         d="m 3.94,-7.94 c -1.67,0 -2.55,1.36 -3.01,2.72 -0.46,1.36 -0.5,2.72 -0.5,2.72 h -0.86 c 0,0 -0.16,-5.43 -3.5,-5.44 z"
         id="path7746"
         inkscape:connector-curvature="0" />
      <path
         d="m -2.32,2.25 c 1.9,-1.9 1.9,-4.75 1.9,-4.75 l 0.85,-0.01 c 0,0 0,2.91 1.85,4.76"
         id="path7748"
         inkscape:connector-curvature="0" />
      <path
         d="m -1.94,-3.85 c 1.9,1.9 4.75,1.9 4.75,1.9 v 0.85 c 0,0 -2.91,0 -4.76,1.85"
         id="path7750"
         inkscape:connector-curvature="0" />
      <path
         d="m 1.87,-3.86 c -1.9,1.9 -4.75,1.9 -4.75,1.9 v 0.85 c 0,0 2.91,0 4.76,1.85"
         id="path7752"
         inkscape:connector-curvature="0" />
    </g>
    <g
       transform="matrix(1.0979532,0,0,1.1762324,336.8703,105.04225)"
       id="use898-6-3-4-8-6-5-0-2-0-4-0">
      <path
         d="m 3.35,4.66 c 0,-1.81 -1.51,-3.28 -3.38,-3.28 -1.87,0 -3.38,1.47 -3.38,3.28 0,1.81 1.51,3.28 3.38,3.28 1.87,0 3.38,-1.47 3.38,-3.28 z"
         id="path7756"
         inkscape:connector-curvature="0" />
      <path
         d="m 7.71,-1.55 c 0,-1.81 -1.51,-3.28 -3.38,-3.28 -1.87,0 -3.38,1.47 -3.38,3.28 0,1.81 1.51,3.28 3.38,3.28 1.87,0 3.38,-1.47 3.38,-3.28 z"
         id="path7758"
         inkscape:connector-curvature="0" />
      <path
         d="m -0.95,-1.57 c 0,-0.66 -0.2,-1.28 -0.55,-1.8 -0.6,-0.89 -1.65,-1.48 -2.83,-1.48 -1.87,0 -3.38,1.47 -3.38,3.28 0,1.81 1.51,3.28 3.38,3.28 1.87,0 3.38,-1.47 3.38,-3.28 z"
         id="path7760"
         inkscape:connector-curvature="0" />
      <path
         d="m 3.94,-7.94 c -1.67,0 -2.55,1.36 -3.01,2.72 -0.46,1.36 -0.5,2.72 -0.5,2.72 h -0.86 c 0,0 -0.16,-5.43 -3.5,-5.44 z"
         id="path7762"
         inkscape:connector-curvature="0" />
      <path
         d="m -2.32,2.25 c 1.9,-1.9 1.9,-4.75 1.9,-4.75 l 0.85,-0.01 c 0,0 0,2.91 1.85,4.76"
         id="path7764"
         inkscape:connector-curvature="0" />
      <path
         d="m -1.94,-3.85 c 1.9,1.9 4.75,1.9 4.75,1.9 v 0.85 c 0,0 -2.91,0 -4.76,1.85"
         id="path7766"
         inkscape:connector-curvature="0" />
      <path
         d="m 1.87,-3.86 c -1.9,1.9 -4.75,1.9 -4.75,1.9 v 0.85 c 0,0 2.91,0 4.76,1.85"
         id="path7768"
         inkscape:connector-curvature="0" />
    </g>
    <g
       transform="matrix(-1.0979532,0,0,-1.1762324,373.86903,18.061206)"
       id="use898-6-3-4-8-6-8-4-3-6-0-3">
      <path
         d="m 3.35,4.66 c 0,-1.81 -1.51,-3.28 -3.38,-3.28 -1.87,0 -3.38,1.47 -3.38,3.28 0,1.81 1.51,3.28 3.38,3.28 1.87,0 3.38,-1.47 3.38,-3.28 z"
         id="path7772"
         inkscape:connector-curvature="0" />
      <path
         d="m 7.71,-1.55 c 0,-1.81 -1.51,-3.28 -3.38,-3.28 -1.87,0 -3.38,1.47 -3.38,3.28 0,1.81 1.51,3.28 3.38,3.28 1.87,0 3.38,-1.47 3.38,-3.28 z"
         id="path7774"
         inkscape:connector-curvature="0" />
      <path
         d="m -0.95,-1.57 c 0,-0.66 -0.2,-1.28 -0.55,-1.8 -0.6,-0.89 -1.65,-1.48 -2.83,-1.48 -1.87,0 -3.38,1.47 -3.38,3.28 0,1.81 1.51,3.28 3.38,3.28 1.87,0 3.38,-1.47 3.38,-3.28 z"
         id="path7776"
         inkscape:connector-curvature="0" />
      <path
         d="m 3.94,-7.94 c -1.67,0 -2.55,1.36 -3.01,2.72 -0.46,1.36 -0.5,2.72 -0.5,2.72 h -0.86 c 0,0 -0.16,-5.43 -3.5,-5.44 z"
         id="path7778"
         inkscape:connector-curvature="0" />
      <path
         d="m -2.32,2.25 c 1.9,-1.9 1.9,-4.75 1.9,-4.75 l 0.85,-0.01 c 0,0 0,2.91 1.85,4.76"
         id="path7780"
         inkscape:connector-curvature="0" />
      <path
         d="m -1.94,-3.85 c 1.9,1.9 4.75,1.9 4.75,1.9 v 0.85 c 0,0 -2.91,0 -4.76,1.85"
         id="path7782"
         inkscape:connector-curvature="0" />
      <path
         d="m 1.87,-3.86 c -1.9,1.9 -4.75,1.9 -4.75,1.9 v 0.85 c 0,0 2.91,0 4.76,1.85"
         id="path7784"
         inkscape:connector-curvature="0" />
    </g>
    <g
       transform="matrix(1.0979532,0,0,1.1762324,373.85962,105.05313)"
       id="use898-6-3-4-8-6-5-89-6-6-4-6-4">
      <path
         d="m 3.35,4.66 c 0,-1.81 -1.51,-3.28 -3.38,-3.28 -1.87,0 -3.38,1.47 -3.38,3.28 0,1.81 1.51,3.28 3.38,3.28 1.87,0 3.38,-1.47 3.38,-3.28 z"
         id="path7788"
         inkscape:connector-curvature="0" />
      <path
         d="m 7.71,-1.55 c 0,-1.81 -1.51,-3.28 -3.38,-3.28 -1.87,0 -3.38,1.47 -3.38,3.28 0,1.81 1.51,3.28 3.38,3.28 1.87,0 3.38,-1.47 3.38,-3.28 z"
         id="path7790"
         inkscape:connector-curvature="0" />
      <path
         d="m -0.95,-1.57 c 0,-0.66 -0.2,-1.28 -0.55,-1.8 -0.6,-0.89 -1.65,-1.48 -2.83,-1.48 -1.87,0 -3.38,1.47 -3.38,3.28 0,1.81 1.51,3.28 3.38,3.28 1.87,0 3.38,-1.47 3.38,-3.28 z"
         id="path7792"
         inkscape:connector-curvature="0" />
      <path
         d="m 3.94,-7.94 c -1.67,0 -2.55,1.36 -3.01,2.72 -0.46,1.36 -0.5,2.72 -0.5,2.72 h -0.86 c 0,0 -0.16,-5.43 -3.5,-5.44 z"
         id="path7794"
         inkscape:connector-curvature="0" />
      <path
         d="m -2.32,2.25 c 1.9,-1.9 1.9,-4.75 1.9,-4.75 l 0.85,-0.01 c 0,0 0,2.91 1.85,4.76"
         id="path7796"
         inkscape:connector-curvature="0" />
      <path
         d="m -1.94,-3.85 c 1.9,1.9 4.75,1.9 4.75,1.9 v 0.85 c 0,0 -2.91,0 -4.76,1.85"
         id="path7798"
         inkscape:connector-curvature="0" />
      <path
         d="m 1.87,-3.86 c -1.9,1.9 -4.75,1.9 -4.75,1.9 v 0.85 c 0,0 2.91,0 4.76,1.85"
         id="path7800"
         inkscape:connector-curvature="0" />
    </g>
    <g
       transform="matrix(-1.0979532,0,0,-1.1762324,355.36961,61.551726)"
       id="use898-6-3-4-8-6-8-6-2-2-2-9-3">
      <path
         d="m 3.35,4.66 c 0,-1.81 -1.51,-3.28 -3.38,-3.28 -1.87,0 -3.38,1.47 -3.38,3.28 0,1.81 1.51,3.28 3.38,3.28 1.87,0 3.38,-1.47 3.38,-3.28 z"
         id="path7804"
         inkscape:connector-curvature="0" />
      <path
         d="m 7.71,-1.55 c 0,-1.81 -1.51,-3.28 -3.38,-3.28 -1.87,0 -3.38,1.47 -3.38,3.28 0,1.81 1.51,3.28 3.38,3.28 1.87,0 3.38,-1.47 3.38,-3.28 z"
         id="path7806"
         inkscape:connector-curvature="0" />
      <path
         d="m -0.95,-1.57 c 0,-0.66 -0.2,-1.28 -0.55,-1.8 -0.6,-0.89 -1.65,-1.48 -2.83,-1.48 -1.87,0 -3.38,1.47 -3.38,3.28 0,1.81 1.51,3.28 3.38,3.28 1.87,0 3.38,-1.47 3.38,-3.28 z"
         id="path7808"
         inkscape:connector-curvature="0" />
      <path
         d="m 3.94,-7.94 c -1.67,0 -2.55,1.36 -3.01,2.72 -0.46,1.36 -0.5,2.72 -0.5,2.72 h -0.86 c 0,0 -0.16,-5.43 -3.5,-5.44 z"
         id="path7810"
         inkscape:connector-curvature="0" />
      <path
         d="m -2.32,2.25 c 1.9,-1.9 1.9,-4.75 1.9,-4.75 l 0.85,-0.01 c 0,0 0,2.91 1.85,4.76"
         id="path7812"
         inkscape:connector-curvature="0" />
      <path
         d="m -1.94,-3.85 c 1.9,1.9 4.75,1.9 4.75,1.9 v 0.85 c 0,0 -2.91,0 -4.76,1.85"
         id="path7814"
         inkscape:connector-curvature="0" />
      <path
         d="m 1.87,-3.86 c -1.9,1.9 -4.75,1.9 -4.75,1.9 v 0.85 c 0,0 2.91,0 4.76,1.85"
         id="path7816"
         inkscape:connector-curvature="0" />
    </g>
    <g
       transform="matrix(0.46229607,0,0,0.49525575,387.67104,96.942703)"
       id="use1298-9-8-0-0-6-3-7-1-5-9-9">
      <path
         d="m 3.35,4.66 c 0,-1.81 -1.51,-3.28 -3.38,-3.28 -1.87,0 -3.38,1.47 -3.38,3.28 0,1.81 1.51,3.28 3.38,3.28 1.87,0 3.38,-1.47 3.38,-3.28 z"
         id="path7820"
         inkscape:connector-curvature="0" />
      <path
         d="m 7.71,-1.55 c 0,-1.81 -1.51,-3.28 -3.38,-3.28 -1.87,0 -3.38,1.47 -3.38,3.28 0,1.81 1.51,3.28 3.38,3.28 1.87,0 3.38,-1.47 3.38,-3.28 z"
         id="path7822"
         inkscape:connector-curvature="0" />
      <path
         d="m -0.95,-1.57 c 0,-0.66 -0.2,-1.28 -0.55,-1.8 -0.6,-0.89 -1.65,-1.48 -2.83,-1.48 -1.87,0 -3.38,1.47 -3.38,3.28 0,1.81 1.51,3.28 3.38,3.28 1.87,0 3.38,-1.47 3.38,-3.28 z"
         id="path7824"
         inkscape:connector-curvature="0" />
      <path
         d="m 3.94,-7.94 c -1.67,0 -2.55,1.36 -3.01,2.72 -0.46,1.36 -0.5,2.72 -0.5,2.72 h -0.86 c 0,0 -0.16,-5.43 -3.5,-5.44 z"
         id="path7826"
         inkscape:connector-curvature="0" />
      <path
         d="m -2.32,2.25 c 1.9,-1.9 1.9,-4.75 1.9,-4.75 l 0.85,-0.01 c 0,0 0,2.91 1.85,4.76"
         id="path7828"
         inkscape:connector-curvature="0" />
      <path
         d="m -1.94,-3.85 c 1.9,1.9 4.75,1.9 4.75,1.9 v 0.85 c 0,0 -2.91,0 -4.76,1.85"
         id="path7830"
         inkscape:connector-curvature="0" />
      <path
         d="m 1.87,-3.86 c -1.9,1.9 -4.75,1.9 -4.75,1.9 v 0.85 c 0,0 2.91,0 4.76,1.85"
         id="path7832"
         inkscape:connector-curvature="0" />
    </g>
    <path
       d="m 389.16514,114.30465 0.10431,-3.59343 q -0.69116,0.31622 -1.3432,0.31622 -1.23237,0 -2.05397,-1.06364 -0.82157,-1.05407 -0.82157,-2.64472 0,-1.68651 0.8933,-2.83639 0.89333,-1.1499 2.11265,-1.1499 1.00415,0 1.53884,0.75701 0.53468,0.75701 0.53468,1.73442 0,0.43122 -0.18259,0.73786 -0.18258,0.30662 -0.50207,0.30662 -0.26082,0 -0.43686,-0.2683 -0.17608,-0.26833 -0.17608,-0.67076 0,-0.68996 0.41733,-0.94867 0.16952,-0.10539 0.16952,-0.21081 0,-0.26831 -0.34559,-0.57496 -0.35209,-0.30663 -0.88023,-0.30663 -1.70186,0 -1.70186,3.09511 0,3.51673 1.81921,3.51673 0.52815,0 0.8281,-0.22995 0.29342,-0.2204 0.35864,-0.2204 0.13038,0 0.12388,0.37372 l -0.12388,3.88087 q -0.0326,1.15946 -0.18911,1.41817 -0.163,0.26833 -0.95852,0.26833 h -1.4019 q -0.6325,0 -0.78898,0.0863 -0.15648,0.0863 -0.22821,0.52703 h -0.28038 q 0.0391,-1.5907 0.33254,-1.94522 0.2869,-0.35454 0.99113,-0.35454 h 2.19087 z"
       style="font-style:normal;font-variant:normal;font-weight:normal;font-stretch:normal;font-size:medium;line-height:125%;font-family:'Bodoni MT';-inkscape-font-specification:'Bodoni MT';letter-spacing:0px;word-spacing:0px;fill:#000000;fill-opacity:1;stroke:none;stroke-width:1px;stroke-linecap:butt;stroke-linejoin:miter;stroke-opacity:1"
       id="path8650"
       inkscape:connector-curvature="0" />
    <path
       d="m 321.41274,8.7989263 -0.10433,3.5933987 q 0.69117,-0.31624 1.34322,-0.31624 1.23239,0 2.05396,1.06364 0.82159,1.05409 0.82159,2.64477 0,1.68648 -0.89333,2.83638 -0.89329,1.14988 -2.11263,1.14988 -1.00413,0 -1.53882,-0.757 -0.53467,-0.75702 -0.53467,-1.73443 0,-0.43119 0.18256,-0.73782 0.18255,-0.30666 0.50208,-0.30666 0.26081,0 0.43687,0.2683 0.17605,0.26831 0.17605,0.67078 0,0.68994 -0.41731,0.94867 -0.16953,0.1054 -0.16953,0.21079 0,0.26831 0.34559,0.57496 0.35211,0.30664 0.88026,0.30664 1.70185,0 1.70185,-3.09512 0,-3.51675 -1.81923,-3.51675 -0.52814,0 -0.8281,0.22997 -0.29341,0.2204 -0.35862,0.2204 -0.13043,0 -0.1239,-0.3737 l 0.1239,-3.8808587 q 0.0326,-1.15949 0.1891,-1.41822 0.16299,-0.26831 0.95851,-0.26831 h 1.4019 q 0.63248,0 0.78898,-0.0863 0.1565,-0.0863 0.2282,-0.52704 h 0.28039 q -0.0391,1.59068 -0.33254,1.94522 -0.28691,0.35457 -0.99111,0.35457 h -2.19089 z"
       style="font-style:normal;font-variant:normal;font-weight:normal;font-stretch:normal;font-size:medium;line-height:125%;font-family:'Bodoni MT';-inkscape-font-specification:'Bodoni MT';letter-spacing:0px;word-spacing:0px;fill:#000000;fill-opacity:1;stroke:none;stroke-width:1px;stroke-linecap:butt;stroke-linejoin:miter;stroke-opacity:1"
       id="path8608"
       inkscape:connector-curvature="0" />
  </g>
</svg>
