<?xml version="1.0" encoding="UTF-8" standalone="no"?>
<!-- Created with Inkscape (http://www.inkscape.org/) -->

<svg
   id="svg10047"
   height="122.87411"
   width="78.870903"
   version="1.1"
   viewBox="0 0 78.870903 122.87411"
   inkscape:version="0.91 r13725"
   sodipodi:docname="ancient-french.svgz"
   xmlns:inkscape="http://www.inkscape.org/namespaces/inkscape"
   xmlns:sodipodi="http://sodipodi.sourceforge.net/DTD/sodipodi-0.dtd"
   xmlns="http://www.w3.org/2000/svg"
   xmlns:svg="http://www.w3.org/2000/svg"
   xmlns:rdf="http://www.w3.org/1999/02/22-rdf-syntax-ns#"
   xmlns:cc="http://creativecommons.org/ns#"
   xmlns:dc="http://purl.org/dc/elements/1.1/">
  <sodipodi:namedview
     pagecolor="#ffffff"
     bordercolor="#666666"
     borderopacity="1"
     objecttolerance="10"
     gridtolerance="10"
     guidetolerance="10"
     inkscape:pageopacity="0"
     inkscape:pageshadow="2"
     inkscape:window-width="1920"
     inkscape:window-height="1016"
     id="namedview1491"
     showgrid="false"
     inkscape:zoom="1.3479675"
     inkscape:cx="407.78528"
     inkscape:cy="307.5"
     inkscape:window-x="0"
     inkscape:window-y="0"
     inkscape:window-maximized="1"
     inkscape:current-layer="svg10047"
     showguides="true"
     inkscape:guide-bbox="true"
     inkscape:snap-grids="true"
     inkscape:showpageshadow="2"
     inkscape:pagecheckerboard="0"
     inkscape:deskcolor="#d1d1d1" />
  <metadata
     id="metadata16869">
    <rdf:RDF>
      <cc:Work
         rdf:about="">
        <dc:format>image/svg+xml</dc:format>
        <dc:type
           rdf:resource="http://purl.org/dc/dcmitype/StillImage" />
        <dc:title />
      </cc:Work>
    </rdf:RDF>
  </metadata>
  <defs
     id="defs10049" />
  <g
     id="club_2"
     transform="translate(-78.860196,-0.12589701)"
     inkscape:label="#club_2">
    <rect
       transform="scale(-1)"
       style="fill:#ffffff;stroke:#000000;stroke-width:0.223273"
       id="rect142-3-7-5-9-2-7-8-0-6-5-8-9-7-2-0-9-3-3-3-6-5-3-5-1-8-4-8"
       y="-122.88837"
       x="-157.61946"
       ry="6.8138328"
       rx="6.559958"
       height="122.65083"
       width="78.647629" />
    <g
       transform="matrix(-0.46229609,0,0,-0.49525575,85.994262,26.171936)"
       id="use1298-9-8-0-6-2-8-3-2-8-8-7-0-7">
      <path
         d="m 3.35,4.66 c 0,-1.81 -1.51,-3.28 -3.38,-3.28 -1.87,0 -3.38,1.47 -3.38,3.28 0,1.81 1.51,3.28 3.38,3.28 1.87,0 3.38,-1.47 3.38,-3.28 z"
         id="path7484"
         inkscape:connector-curvature="0" />
      <path
         d="m 7.71,-1.55 c 0,-1.81 -1.51,-3.28 -3.38,-3.28 -1.87,0 -3.38,1.47 -3.38,3.28 0,1.81 1.51,3.28 3.38,3.28 1.87,0 3.38,-1.47 3.38,-3.28 z"
         id="path7486"
         inkscape:connector-curvature="0" />
      <path
         d="m -0.95,-1.57 c 0,-0.66 -0.2,-1.28 -0.55,-1.8 -0.6,-0.89 -1.65,-1.48 -2.83,-1.48 -1.87,0 -3.38,1.47 -3.38,3.28 0,1.81 1.51,3.28 3.38,3.28 1.87,0 3.38,-1.47 3.38,-3.28 z"
         id="path7488"
         inkscape:connector-curvature="0" />
      <path
         d="m 3.94,-7.94 c -1.67,0 -2.55,1.36 -3.01,2.72 -0.46,1.36 -0.5,2.72 -0.5,2.72 h -0.86 c 0,0 -0.16,-5.43 -3.5,-5.44 z"
         id="path7490"
         inkscape:connector-curvature="0" />
      <path
         d="m -2.32,2.25 c 1.9,-1.9 1.9,-4.75 1.9,-4.75 l 0.85,-0.01 c 0,0 0,2.91 1.85,4.76"
         id="path7492"
         inkscape:connector-curvature="0" />
      <path
         d="m -1.94,-3.85 c 1.9,1.9 4.75,1.9 4.75,1.9 v 0.85 c 0,0 -2.91,0 -4.76,1.85"
         id="path7494"
         inkscape:connector-curvature="0" />
      <path
         d="m 1.87,-3.86 c -1.9,1.9 -4.75,1.9 -4.75,1.9 v 0.85 c 0,0 2.91,0 4.76,1.85"
         id="path7496"
         inkscape:connector-curvature="0" />
    </g>
    <g
       transform="matrix(-1.0979532,0,0,-1.1762324,118.30526,18.061526)"
       id="use898-6-3-4-8-6-54-1-5-2-4-2">
      <path
         d="m 3.35,4.66 c 0,-1.81 -1.51,-3.28 -3.38,-3.28 -1.87,0 -3.38,1.47 -3.38,3.28 0,1.81 1.51,3.28 3.38,3.28 1.87,0 3.38,-1.47 3.38,-3.28 z"
         id="path7500"
         inkscape:connector-curvature="0" />
      <path
         d="m 7.71,-1.55 c 0,-1.81 -1.51,-3.28 -3.38,-3.28 -1.87,0 -3.38,1.47 -3.38,3.28 0,1.81 1.51,3.28 3.38,3.28 1.87,0 3.38,-1.47 3.38,-3.28 z"
         id="path7502"
         inkscape:connector-curvature="0" />
      <path
         d="m -0.95,-1.57 c 0,-0.66 -0.2,-1.28 -0.55,-1.8 -0.6,-0.89 -1.65,-1.48 -2.83,-1.48 -1.87,0 -3.38,1.47 -3.38,3.28 0,1.81 1.51,3.28 3.38,3.28 1.87,0 3.38,-1.47 3.38,-3.28 z"
         id="path7504"
         inkscape:connector-curvature="0" />
      <path
         d="m 3.94,-7.94 c -1.67,0 -2.55,1.36 -3.01,2.72 -0.46,1.36 -0.5,2.72 -0.5,2.72 h -0.86 c 0,0 -0.16,-5.43 -3.5,-5.44 z"
         id="path7506"
         inkscape:connector-curvature="0" />
      <path
         d="m -2.32,2.25 c 1.9,-1.9 1.9,-4.75 1.9,-4.75 l 0.85,-0.01 c 0,0 0,2.91 1.85,4.76"
         id="path7508"
         inkscape:connector-curvature="0" />
      <path
         d="m -1.94,-3.85 c 1.9,1.9 4.75,1.9 4.75,1.9 v 0.85 c 0,0 -2.91,0 -4.76,1.85"
         id="path7510"
         inkscape:connector-curvature="0" />
      <path
         d="m 1.87,-3.86 c -1.9,1.9 -4.75,1.9 -4.75,1.9 v 0.85 c 0,0 2.91,0 4.76,1.85"
         id="path7512"
         inkscape:connector-curvature="0" />
    </g>
    <g
       transform="matrix(1.0979532,0,0,1.1762324,118.29565,105.05345)"
       id="use898-6-3-4-8-6-5-0-2-0-4-6-8">
      <path
         d="m 3.35,4.66 c 0,-1.81 -1.51,-3.28 -3.38,-3.28 -1.87,0 -3.38,1.47 -3.38,3.28 0,1.81 1.51,3.28 3.38,3.28 1.87,0 3.38,-1.47 3.38,-3.28 z"
         id="path7516"
         inkscape:connector-curvature="0" />
      <path
         d="m 7.71,-1.55 c 0,-1.81 -1.51,-3.28 -3.38,-3.28 -1.87,0 -3.38,1.47 -3.38,3.28 0,1.81 1.51,3.28 3.38,3.28 1.87,0 3.38,-1.47 3.38,-3.28 z"
         id="path7518"
         inkscape:connector-curvature="0" />
      <path
         d="m -0.95,-1.57 c 0,-0.66 -0.2,-1.28 -0.55,-1.8 -0.6,-0.89 -1.65,-1.48 -2.83,-1.48 -1.87,0 -3.38,1.47 -3.38,3.28 0,1.81 1.51,3.28 3.38,3.28 1.87,0 3.38,-1.47 3.38,-3.28 z"
         id="path7520"
         inkscape:connector-curvature="0" />
      <path
         d="m 3.94,-7.94 c -1.67,0 -2.55,1.36 -3.01,2.72 -0.46,1.36 -0.5,2.72 -0.5,2.72 h -0.86 c 0,0 -0.16,-5.43 -3.5,-5.44 z"
         id="path7522"
         inkscape:connector-curvature="0" />
      <path
         d="m -2.32,2.25 c 1.9,-1.9 1.9,-4.75 1.9,-4.75 l 0.85,-0.01 c 0,0 0,2.91 1.85,4.76"
         id="path7524"
         inkscape:connector-curvature="0" />
      <path
         d="m -1.94,-3.85 c 1.9,1.9 4.75,1.9 4.75,1.9 v 0.85 c 0,0 -2.91,0 -4.76,1.85"
         id="path7526"
         inkscape:connector-curvature="0" />
      <path
         d="m 1.87,-3.86 c -1.9,1.9 -4.75,1.9 -4.75,1.9 v 0.85 c 0,0 2.91,0 4.76,1.85"
         id="path7528"
         inkscape:connector-curvature="0" />
    </g>
    <g
       transform="matrix(0.46229607,0,0,0.49525575,150.59715,96.953913)"
       id="use1298-9-8-0-0-6-3-7-1-5-9-6-9">
      <path
         d="m 3.35,4.66 c 0,-1.81 -1.51,-3.28 -3.38,-3.28 -1.87,0 -3.38,1.47 -3.38,3.28 0,1.81 1.51,3.28 3.38,3.28 1.87,0 3.38,-1.47 3.38,-3.28 z"
         id="path7532"
         inkscape:connector-curvature="0" />
      <path
         d="m 7.71,-1.55 c 0,-1.81 -1.51,-3.28 -3.38,-3.28 -1.87,0 -3.38,1.47 -3.38,3.28 0,1.81 1.51,3.28 3.38,3.28 1.87,0 3.38,-1.47 3.38,-3.28 z"
         id="path7534"
         inkscape:connector-curvature="0" />
      <path
         d="m -0.95,-1.57 c 0,-0.66 -0.2,-1.28 -0.55,-1.8 -0.6,-0.89 -1.65,-1.48 -2.83,-1.48 -1.87,0 -3.38,1.47 -3.38,3.28 0,1.81 1.51,3.28 3.38,3.28 1.87,0 3.38,-1.47 3.38,-3.28 z"
         id="path7536"
         inkscape:connector-curvature="0" />
      <path
         d="m 3.94,-7.94 c -1.67,0 -2.55,1.36 -3.01,2.72 -0.46,1.36 -0.5,2.72 -0.5,2.72 h -0.86 c 0,0 -0.16,-5.43 -3.5,-5.44 z"
         id="path7538"
         inkscape:connector-curvature="0" />
      <path
         d="m -2.32,2.25 c 1.9,-1.9 1.9,-4.75 1.9,-4.75 l 0.85,-0.01 c 0,0 0,2.91 1.85,4.76"
         id="path7540"
         inkscape:connector-curvature="0" />
      <path
         d="m -1.94,-3.85 c 1.9,1.9 4.75,1.9 4.75,1.9 v 0.85 c 0,0 -2.91,0 -4.76,1.85"
         id="path7542"
         inkscape:connector-curvature="0" />
      <path
         d="m 1.87,-3.86 c -1.9,1.9 -4.75,1.9 -4.75,1.9 v 0.85 c 0,0 2.91,0 4.76,1.85"
         id="path7544"
         inkscape:connector-curvature="0" />
    </g>
    <path
       d="m 147.92118,107.08262 0.22628,-3.73863 h 5.14286 v 1.19919 q -0.80228,1.32009 -2.35199,3.43629 -1.55658,2.11621 -1.55658,4.67582 0,1.441 0.432,2.32781 0.43201,0.8868 1.22743,0.8868 0.70629,0 1.152,-0.6651 0.44571,-0.65503 0.44571,-1.42088 0,-0.393 -0.12342,-0.393 -0.0274,0 -0.10972,0.0706 -0.22628,0.22168 -0.43886,0.22168 -0.26743,0 -0.45257,-0.31239 -0.192,-0.30231 -0.192,-0.71546 0,-0.42325 0.20572,-0.73564 0.20571,-0.30234 0.50743,-0.30234 0.42514,0 0.70629,0.53412 0.28114,0.54417 0.28114,1.35032 0,1.22944 -0.68571,2.1666 -0.69259,0.94727 -1.77601,0.94727 -1.06286,0 -1.83086,-0.86666 -0.76801,-0.86664 -0.76801,-2.26735 0,-1.49142 0.67886,-2.73092 0.67886,-1.23948 2.0023,-3.04331 1.31657,-1.8038 1.872,-2.6906 h -3.12001 q -0.87085,0 -0.94629,0.21162 -0.0823,0.21163 -0.13028,0.98756 l -0.0617,0.86666 h -0.33599 z"
       style="font-style:normal;font-variant:normal;font-weight:normal;font-stretch:normal;font-size:medium;line-height:125%;font-family:'Bodoni MT';-inkscape-font-specification:'Bodoni MT';letter-spacing:0px;word-spacing:0px;fill:#000000;fill-opacity:1;stroke:none;stroke-width:1px;stroke-linecap:butt;stroke-linejoin:miter;stroke-opacity:1"
       id="path8659"
       inkscape:connector-curvature="0" />
    <path
       d="m 88.687342,16.043335 -0.22628,3.73863 h -5.14287 v -1.19918 q 0.80229,-1.32011 2.35201,-3.43633 1.55657,-2.1162 1.55657,-4.67579 0,-1.4410287 -0.432,-2.3278287 -0.432,-0.88678 -1.22743,-0.88678 -0.70629,0 -1.152,0.66507 -0.44572,0.65504 -0.44572,1.42089 0,0.39302 0.12343,0.39302 0.0274,0 0.10972,-0.0706 0.22628,-0.2217 0.43885,-0.2217 0.26743,0 0.45257,0.31238 0.192,0.3023397 0.192,0.7154887 0,0.42324 -0.20571,0.73564 -0.20571,0.30231 -0.50743,0.30231 -0.42514,0 -0.70628,-0.53408 -0.28115,-0.54418 -0.28115,-1.3503487 0,-1.2294 0.68572,-2.16661 0.69257,-0.94723 1.776,-0.94723 1.06286,0 1.83086,0.86663 0.768,0.86663 0.768,2.26735 0,1.4914287 -0.67886,2.7309287 -0.67885,1.23949 -2.00228,3.04329 -1.31658,1.80381 -1.87201,2.69061 h 3.12001 q 0.87086,0 0.94628,-0.21163 0.0823,-0.2116 0.13029,-0.98755 l 0.0617,-0.86664 h 0.336 z"
       style="font-style:normal;font-variant:normal;font-weight:normal;font-stretch:normal;font-size:medium;line-height:125%;font-family:'Bodoni MT';-inkscape-font-specification:'Bodoni MT';letter-spacing:0px;word-spacing:0px;fill:#000000;fill-opacity:1;stroke:none;stroke-width:1px;stroke-linecap:butt;stroke-linejoin:miter;stroke-opacity:1"
       id="path8617"
       inkscape:connector-curvature="0" />
  </g>
</svg>
