<?xml version="1.0" encoding="UTF-8" standalone="no"?>
<!-- Created with Inkscape (http://www.inkscape.org/) -->

<svg
   id="svg10047"
   height="123.00011"
   width="78.928314"
   version="1.1"
   viewBox="0 0 78.928314 123.00011"
   inkscape:version="0.91 r13725"
   sodipodi:docname="ancient-french.svgz"
   xmlns:inkscape="http://www.inkscape.org/namespaces/inkscape"
   xmlns:sodipodi="http://sodipodi.sourceforge.net/DTD/sodipodi-0.dtd"
   xmlns="http://www.w3.org/2000/svg"
   xmlns:svg="http://www.w3.org/2000/svg"
   xmlns:rdf="http://www.w3.org/1999/02/22-rdf-syntax-ns#"
   xmlns:cc="http://creativecommons.org/ns#"
   xmlns:dc="http://purl.org/dc/elements/1.1/">
  <sodipodi:namedview
     pagecolor="#ffffff"
     bordercolor="#666666"
     borderopacity="1"
     objecttolerance="10"
     gridtolerance="10"
     guidetolerance="10"
     inkscape:pageopacity="0"
     inkscape:pageshadow="2"
     inkscape:window-width="1920"
     inkscape:window-height="1016"
     id="namedview1491"
     showgrid="false"
     inkscape:zoom="1.3479675"
     inkscape:cx="407.78528"
     inkscape:cy="307.5"
     inkscape:window-x="0"
     inkscape:window-y="0"
     inkscape:window-maximized="1"
     inkscape:current-layer="svg10047"
     showguides="true"
     inkscape:guide-bbox="true"
     inkscape:snap-grids="true"
     inkscape:showpageshadow="2"
     inkscape:pagecheckerboard="0"
     inkscape:deskcolor="#d1d1d1" />
  <metadata
     id="metadata16869">
    <rdf:RDF>
      <cc:Work
         rdf:about="">
        <dc:format>image/svg+xml</dc:format>
        <dc:type
           rdf:resource="http://purl.org/dc/dcmitype/StillImage" />
        <dc:title />
      </cc:Work>
    </rdf:RDF>
  </metadata>
  <defs
     id="defs10049" />
  <g
     id="diamond_7"
     transform="matrix(0.99999989,0,0,1.0010252,-473.82447,-123.25208)"
     inkscape:label="#diamond_7">
    <rect
       transform="scale(-1)"
       style="fill:#ffffff;stroke:#000000;stroke-width:0.223354"
       id="rect142-3-7-5-9-2-7-8-0-6-5-8-9-7-2-0-9-3-3-3-6-5-1-5-1-5-4"
       y="-245.88832"
       x="-552.64117"
       ry="6.8138309"
       rx="6.5647407"
       height="122.65079"
       width="78.704971" />
    <path
       d="m 478.76231,129.54261 h 4.78173 l -0.94952,3.41069 q -0.0342,0.1906 -0.47134,1.73544 -0.43034,1.53481 -0.60798,2.53796 -0.17758,0.99311 -0.17758,1.66522 0,0.59186 0.18442,1.48466 0.19128,0.89279 0.19128,1.32415 0,0.40125 -0.19812,0.76239 -0.19125,0.3511 -0.52599,0.3511 -0.38254,0 -0.62845,-0.44138 -0.23908,-0.44139 -0.23908,-1.16365 0,-0.75236 0.32106,-1.91601 l 2.22009,-7.88473 h -3.2584 q -0.47817,0 -0.60796,0.18057 -0.12296,0.17054 -0.27323,1.01318 l -0.10931,0.61192 h -0.3484 z"
       style="font-style:normal;font-variant:normal;font-weight:normal;font-stretch:normal;font-size:medium;line-height:125%;font-family:'Bodoni MT';-inkscape-font-specification:'Bodoni MT';letter-spacing:0px;word-spacing:0px;fill:#ff0000;fill-opacity:1;stroke:none;stroke-width:1px;stroke-linecap:butt;stroke-linejoin:miter;stroke-opacity:1"
       id="path8104"
       inkscape:connector-curvature="0" />
    <path
       d="m 547.729,239.61557 h -4.7817 l 0.9495,-3.4107 q 0.0342,-0.1906 0.47134,-1.73544 0.43036,-1.53481 0.60798,-2.53796 0.17758,-0.99311 0.17758,-1.66522 0,-0.59186 -0.18442,-1.48466 -0.19128,-0.89279 -0.19128,-1.32415 0,-0.40125 0.19812,-0.76239 0.19127,-0.3511 0.52598,-0.3511 0.38255,0 0.62846,0.44139 0.2391,0.44138 0.2391,1.16364 0,0.75237 -0.32106,1.91601 l -2.22009,7.88472 h 3.2584 q 0.47817,0 0.60796,-0.18056 0.12294,-0.17054 0.27324,-1.01318 l 0.1093,-0.61192 h 0.34837 z"
       style="font-style:normal;font-variant:normal;font-weight:normal;font-stretch:normal;font-size:medium;line-height:125%;font-family:'Bodoni MT';-inkscape-font-specification:'Bodoni MT';letter-spacing:0px;word-spacing:0px;fill:#ff0000;fill-opacity:1;stroke:none;stroke-width:1px;stroke-linecap:butt;stroke-linejoin:miter;stroke-opacity:1"
       id="path8560"
       inkscape:connector-curvature="0" />
    <path
       style="fill:#fe0505"
       d="m 494.07173,149.0254 c -1.29777,-2.93452 -3.8483,-5.74636 -6.51012,-7.17708 -0.68619,-0.36885 -1.24761,-0.72289 -1.24761,-0.78677 0,-0.064 0.56142,-0.41795 1.24761,-0.78677 2.66182,-1.43076 5.21235,-4.2426 6.51012,-7.17709 0.33457,-0.75648 0.65571,-1.37542 0.71366,-1.37542 0.058,0 0.37911,0.61894 0.71366,1.37542 1.29779,2.93449 3.84831,5.74633 6.51012,7.17709 0.68618,0.36882 1.24762,0.72286 1.24762,0.78677 0,0.064 -0.56144,0.41792 -1.24762,0.78677 -2.66181,1.43072 -5.21233,4.24256 -6.51012,7.17708 -0.33455,0.75649 -0.6557,1.37543 -0.71366,1.37543 -0.058,0 -0.37909,-0.61894 -0.71366,-1.37543 z"
       id="path11289"
       inkscape:connector-curvature="0" />
    <path
       inkscape:connector-curvature="0"
       id="path11291"
       d="m 531.07849,149.0254 c -1.29779,-2.93452 -3.84831,-5.74636 -6.51012,-7.17708 -0.6862,-0.36885 -1.24762,-0.72289 -1.24762,-0.78677 0,-0.064 0.56142,-0.41795 1.24762,-0.78677 2.66181,-1.43076 5.21233,-4.2426 6.51012,-7.17709 0.33455,-0.75648 0.6557,-1.37542 0.71364,-1.37542 0.058,0 0.37911,0.61894 0.71368,1.37542 1.29777,2.93449 3.8483,5.74633 6.51011,7.17709 0.68618,0.36882 1.24762,0.72286 1.24762,0.78677 0,0.064 -0.56144,0.41792 -1.24762,0.78677 -2.66181,1.43072 -5.21234,4.24256 -6.51011,7.17708 -0.33457,0.75649 -0.65571,1.37543 -0.71368,1.37543 -0.058,0 -0.37909,-0.61894 -0.71364,-1.37543 z"
       style="fill:#fe0505" />
    <path
       inkscape:connector-curvature="0"
       id="path11293"
       d="m 494.07173,192.52678 c -1.29777,-2.93451 -3.8483,-5.74635 -6.51012,-7.17708 -0.68619,-0.36885 -1.24761,-0.72289 -1.24761,-0.78677 0,-0.064 0.56142,-0.41795 1.24761,-0.78677 2.66182,-1.43075 5.21235,-4.24259 6.51012,-7.17708 0.33457,-0.75649 0.65571,-1.37543 0.71366,-1.37543 0.058,0 0.37911,0.61894 0.71366,1.37543 1.29779,2.93449 3.84831,5.74633 6.51012,7.17708 0.68618,0.36882 1.24762,0.72286 1.24762,0.78677 0,0.064 -0.56144,0.41792 -1.24762,0.78677 -2.66181,1.43073 -5.21233,4.24257 -6.51012,7.17708 -0.33455,0.7565 -0.6557,1.37543 -0.71366,1.37543 -0.058,0 -0.37909,-0.61893 -0.71366,-1.37543 z"
       style="fill:#fe0505" />
    <path
       style="fill:#fe0505"
       d="m 531.07849,192.52678 c -1.29779,-2.93451 -3.84831,-5.74635 -6.51012,-7.17708 -0.6862,-0.36885 -1.24762,-0.72289 -1.24762,-0.78677 0,-0.064 0.56142,-0.41795 1.24762,-0.78677 2.66181,-1.43075 5.21233,-4.24259 6.51012,-7.17708 0.33455,-0.75649 0.6557,-1.37543 0.71364,-1.37543 0.058,0 0.37911,0.61894 0.71368,1.37543 1.29777,2.93449 3.8483,5.74633 6.51011,7.17708 0.68618,0.36882 1.24762,0.72286 1.24762,0.78677 0,0.064 -0.56144,0.41792 -1.24762,0.78677 -2.66181,1.43073 -5.21234,4.24257 -6.51011,7.17708 -0.33457,0.7565 -0.65571,1.37543 -0.71368,1.37543 -0.058,0 -0.37909,-0.61893 -0.71364,-1.37543 z"
       id="path11295"
       inkscape:connector-curvature="0" />
    <path
       inkscape:connector-curvature="0"
       id="path11301"
       d="m 494.07173,236.02817 c -1.29777,-2.93452 -3.8483,-5.74636 -6.51012,-7.17709 -0.68619,-0.36884 -1.24761,-0.72288 -1.24761,-0.78677 0,-0.064 0.56142,-0.41795 1.24761,-0.78676 2.66182,-1.43076 5.21235,-4.2426 6.51012,-7.17709 0.33457,-0.75649 0.65571,-1.37543 0.71366,-1.37543 0.058,0 0.37911,0.61894 0.71366,1.37543 1.29779,2.93449 3.84831,5.74633 6.51012,7.17709 0.68618,0.36881 1.24762,0.72286 1.24762,0.78676 0,0.064 -0.56144,0.41793 -1.24762,0.78677 -2.66181,1.43073 -5.21233,4.24257 -6.51012,7.17709 -0.33455,0.75649 -0.6557,1.37543 -0.71366,1.37543 -0.058,0 -0.37909,-0.61894 -0.71366,-1.37543 z"
       style="fill:#fe0505" />
    <path
       style="fill:#fe0505"
       d="m 531.07849,236.02816 c -1.29779,-2.93452 -3.84831,-5.74636 -6.51012,-7.17708 -0.6862,-0.36885 -1.24762,-0.72289 -1.24762,-0.78677 0,-0.064 0.56142,-0.41795 1.24762,-0.78677 2.66181,-1.43076 5.21233,-4.2426 6.51012,-7.17708 0.33455,-0.7565 0.6557,-1.37544 0.71364,-1.37544 0.058,0 0.37911,0.61894 0.71368,1.37544 1.29777,2.93448 3.8483,5.74632 6.51011,7.17708 0.68618,0.36882 1.24762,0.72286 1.24762,0.78677 0,0.064 -0.56144,0.41792 -1.24762,0.78677 -2.66181,1.43072 -5.21234,4.24256 -6.51011,7.17708 -0.33457,0.75649 -0.65571,1.37543 -0.71368,1.37543 -0.058,0 -0.37909,-0.61894 -0.71364,-1.37543 z"
       id="path11303"
       inkscape:connector-curvature="0" />
    <path
       style="fill:#fe0505"
       d="m 480.66325,152.52518 c -0.54643,-1.23559 -1.62033,-2.41952 -2.74103,-3.02193 -0.28904,-0.15531 -0.52548,-0.30438 -0.52548,-0.33128 0,-0.0269 0.23644,-0.17597 0.52548,-0.33126 1.1207,-0.60243 2.1946,-1.78636 2.74103,-3.02194 0.14085,-0.31852 0.27611,-0.57912 0.3004,-0.57912 0.0245,0 0.15979,0.2606 0.30063,0.57912 0.54642,1.23558 1.62032,2.41951 2.74103,3.02194 0.28904,0.15529 0.52525,0.30436 0.52525,0.33126 0,0.027 -0.23621,0.17597 -0.52525,0.33128 -1.12071,0.60241 -2.19461,1.78634 -2.74103,3.02193 -0.14084,0.31852 -0.27611,0.57913 -0.30063,0.57913 -0.0243,0 -0.15955,-0.26061 -0.3004,-0.57913 z"
       id="path11376"
       inkscape:connector-curvature="0" />
    <path
       style="fill:#fe0505"
       d="m 545.31268,223.30711 c -0.54644,-1.23558 -1.62034,-2.41952 -2.7411,-3.02193 -0.28892,-0.1553 -0.52532,-0.30437 -0.52532,-0.33127 0,-0.0269 0.2364,-0.17598 0.52532,-0.33127 1.12076,-0.60242 2.19466,-1.78635 2.7411,-3.02193 0.14087,-0.31852 0.27609,-0.57913 0.30047,-0.57913 0.0244,0 0.15963,0.26061 0.30051,0.57913 0.54643,1.23558 1.62034,2.41951 2.74108,3.02193 0.28892,0.15529 0.52532,0.30436 0.52532,0.33127 0,0.027 -0.2364,0.17597 -0.52532,0.33127 -1.12074,0.60242 -2.19465,1.78635 -2.74108,3.02193 -0.14088,0.31853 -0.27611,0.57913 -0.30051,0.57913 -0.0244,0 -0.1596,-0.2606 -0.30047,-0.57913 z"
       id="path11394"
       inkscape:connector-curvature="0" />
    <path
       style="fill:#fe0505"
       d="m 512.55773,170.79457 c -1.29777,-2.93451 -3.8483,-5.74635 -6.51012,-7.17708 -0.68619,-0.36885 -1.24761,-0.72289 -1.24761,-0.78677 0,-0.064 0.56142,-0.41795 1.24761,-0.78677 2.66182,-1.43075 5.21235,-4.24259 6.51012,-7.17708 0.33457,-0.75649 0.65571,-1.37543 0.71366,-1.37543 0.058,0 0.37911,0.61894 0.71366,1.37543 1.29779,2.93449 3.84831,5.74633 6.51012,7.17708 0.68618,0.36882 1.24762,0.72286 1.24762,0.78677 0,0.064 -0.56144,0.41792 -1.24762,0.78677 -2.66181,1.43073 -5.21233,4.24257 -6.51012,7.17708 -0.33455,0.7565 -0.6557,1.37543 -0.71366,1.37543 -0.058,0 -0.37909,-0.61893 -0.71366,-1.37543 z"
       id="path9796"
       inkscape:connector-curvature="0" />
  </g>
</svg>
