<?xml version="1.0" encoding="UTF-8" standalone="no"?>
<!-- Created with Inkscape (http://www.inkscape.org/) -->

<svg
   id="svg10047"
   height="123.00011"
   width="78.928314"
   version="1.1"
   viewBox="0 0 78.928314 123.00011"
   inkscape:version="0.91 r13725"
   sodipodi:docname="ancient-french.svgz"
   xmlns:inkscape="http://www.inkscape.org/namespaces/inkscape"
   xmlns:sodipodi="http://sodipodi.sourceforge.net/DTD/sodipodi-0.dtd"
   xmlns="http://www.w3.org/2000/svg"
   xmlns:svg="http://www.w3.org/2000/svg"
   xmlns:rdf="http://www.w3.org/1999/02/22-rdf-syntax-ns#"
   xmlns:cc="http://creativecommons.org/ns#"
   xmlns:dc="http://purl.org/dc/elements/1.1/">
  <sodipodi:namedview
     pagecolor="#ffffff"
     bordercolor="#666666"
     borderopacity="1"
     objecttolerance="10"
     gridtolerance="10"
     guidetolerance="10"
     inkscape:pageopacity="0"
     inkscape:pageshadow="2"
     inkscape:window-width="1920"
     inkscape:window-height="1016"
     id="namedview1491"
     showgrid="false"
     inkscape:zoom="1.3479675"
     inkscape:cx="407.78528"
     inkscape:cy="307.5"
     inkscape:window-x="0"
     inkscape:window-y="0"
     inkscape:window-maximized="1"
     inkscape:current-layer="svg10047"
     showguides="true"
     inkscape:guide-bbox="true"
     inkscape:snap-grids="true"
     inkscape:showpageshadow="2"
     inkscape:pagecheckerboard="0"
     inkscape:deskcolor="#d1d1d1" />
  <metadata
     id="metadata16869">
    <rdf:RDF>
      <cc:Work
         rdf:about="">
        <dc:format>image/svg+xml</dc:format>
        <dc:type
           rdf:resource="http://purl.org/dc/dcmitype/StillImage" />
        <dc:title />
      </cc:Work>
    </rdf:RDF>
  </metadata>
  <defs
     id="defs10049" />
  <g
     id="diamond_5"
     transform="matrix(0.99999989,0,0,1.0010252,-315.67077,-123.14852)"
     inkscape:label="#diamond_5">
    <rect
       transform="scale(-1)"
       style="fill:#ffffff;stroke:#000000;stroke-width:0.223354"
       id="rect142-3-7-5-9-2-7-8-0-6-5-8-9-7-2-0-9-3-3-3-6-5-1-5-1-9"
       y="-245.78487"
       x="-394.48746"
       ry="6.8138309"
       rx="6.5647407"
       height="122.65079"
       width="78.704971" />
    <path
       d="m 321.23407,131.73891 -0.1044,3.59339 q 0.69167,-0.31621 1.34422,-0.31621 1.23326,0 2.05545,1.06364 0.82217,1.05407 0.82217,2.64474 0,1.68651 -0.89396,2.83639 -0.89395,1.14989 -2.11418,1.14989 -1.0049,0 -1.53995,-0.75701 -0.53508,-0.75701 -0.53508,-1.73441 0,-0.43121 0.18271,-0.73785 0.18272,-0.30663 0.50246,-0.30663 0.261,0 0.43718,0.2683 0.17619,0.26831 0.17619,0.67077 0,0.68993 -0.41763,0.94866 -0.16967,0.1054 -0.16967,0.21081 0,0.26831 0.34586,0.57494 0.35237,0.30664 0.8809,0.30664 1.7031,0 1.7031,-3.09511 0,-3.51674 -1.82055,-3.51674 -0.52855,0 -0.8287,0.22998 -0.29363,0.22039 -0.35889,0.22039 -0.1305,0 -0.12398,-0.37371 l 0.12398,-3.88087 q 0.0326,-1.15947 0.18924,-1.41819 0.16313,-0.26831 0.95918,-0.26831 h 1.40295 q 0.63293,0 0.78954,-0.0863 0.15663,-0.0863 0.22838,-0.52704 h 0.28061 q -0.0392,1.59068 -0.3328,1.94523 -0.28711,0.35455 -0.99183,0.35455 h -2.1925 z"
       style="font-style:normal;font-variant:normal;font-weight:normal;font-stretch:normal;font-size:medium;line-height:125%;font-family:'Bodoni MT';-inkscape-font-specification:'Bodoni MT';letter-spacing:0px;word-spacing:0px;fill:#ff0000;fill-opacity:1;stroke:none;stroke-width:1px;stroke-linecap:butt;stroke-linejoin:miter;stroke-opacity:1"
       id="path8110"
       inkscape:connector-curvature="0" />
    <path
       d="m 388.95516,237.21231 0.10438,-3.5934 q -0.69165,0.31622 -1.34418,0.31622 -1.23326,0 -2.05546,-1.06364 -0.82218,-1.05406 -0.82218,-2.64474 0,-1.6865 0.89396,-2.83639 0.89398,-1.14989 2.11419,-1.14989 1.00488,0 1.53996,0.75701 0.53506,0.75701 0.53506,1.73441 0,0.43121 -0.18271,0.73785 -0.18271,0.30664 -0.50243,0.30664 -0.26102,0 -0.43719,-0.26831 -0.1762,-0.26831 -0.1762,-0.67077 0,-0.68993 0.41764,-0.94865 0.16963,-0.10541 0.16963,-0.21082 0,-0.2683 -0.34583,-0.57494 -0.35235,-0.30664 -0.88089,-0.30664 -1.70309,0 -1.70309,3.09512 0,3.51673 1.82054,3.51673 0.52852,0 0.8287,-0.22997 0.29363,-0.2204 0.3589,-0.2204 0.13048,0 0.12397,0.37371 l -0.12397,3.88087 q -0.0327,1.15947 -0.18924,1.4182 -0.16313,0.2683 -0.95923,0.2683 h -1.40292 q -0.63296,0 -0.78955,0.0862 -0.1566,0.0862 -0.22837,0.52703 h -0.2806 q 0.0392,-1.59068 0.33279,-1.94523 0.28711,-0.35455 0.99185,-0.35455 h 2.19247 z"
       style="font-style:normal;font-variant:normal;font-weight:normal;font-stretch:normal;font-size:medium;line-height:125%;font-family:'Bodoni MT';-inkscape-font-specification:'Bodoni MT';letter-spacing:0px;word-spacing:0px;fill:#ff0000;fill-opacity:1;stroke:none;stroke-width:1px;stroke-linecap:butt;stroke-linejoin:miter;stroke-opacity:1"
       id="path8566"
       inkscape:connector-curvature="0" />
    <path
       style="fill:#fe0505"
       d="m 335.91796,148.92194 c -1.29778,-2.93451 -3.84831,-5.74635 -6.51012,-7.17708 -0.68619,-0.36884 -1.24761,-0.72288 -1.24761,-0.78677 0,-0.064 0.56142,-0.41795 1.24761,-0.78676 2.66181,-1.43076 5.21234,-4.2426 6.51012,-7.17709 0.33457,-0.75649 0.65571,-1.37543 0.71365,-1.37543 0.058,0 0.37911,0.61894 0.71367,1.37543 1.29779,2.93449 3.84831,5.74633 6.51012,7.17709 0.68617,0.36881 1.24761,0.72286 1.24761,0.78676 0,0.064 -0.56144,0.41793 -1.24761,0.78677 -2.66181,1.43073 -5.21233,4.24257 -6.51012,7.17708 -0.33456,0.7565 -0.65571,1.37544 -0.71367,1.37544 -0.058,0 -0.37908,-0.61894 -0.71365,-1.37544 z"
       id="path11319"
       inkscape:connector-curvature="0" />
    <path
       inkscape:connector-curvature="0"
       id="path11321"
       d="m 372.92472,148.92194 c -1.29779,-2.93451 -3.84831,-5.74635 -6.51012,-7.17708 -0.6862,-0.36884 -1.24762,-0.72288 -1.24762,-0.78677 0,-0.064 0.56142,-0.41795 1.24762,-0.78676 2.66181,-1.43076 5.21233,-4.2426 6.51012,-7.17709 0.33455,-0.75649 0.6557,-1.37543 0.71364,-1.37543 0.058,0 0.37911,0.61894 0.71367,1.37543 1.29778,2.93449 3.8483,5.74633 6.51012,7.17709 0.68618,0.36881 1.24762,0.72286 1.24762,0.78676 0,0.064 -0.56144,0.41793 -1.24762,0.78677 -2.66182,1.43073 -5.21234,4.24257 -6.51012,7.17708 -0.33456,0.7565 -0.6557,1.37544 -0.71367,1.37544 -0.058,0 -0.37909,-0.61894 -0.71364,-1.37544 z"
       style="fill:#fe0505" />
    <path
       inkscape:connector-curvature="0"
       id="path11323"
       d="m 354.4214,192.42333 c -1.29778,-2.93451 -3.8483,-5.74635 -6.51011,-7.17708 -0.68619,-0.36885 -1.24763,-0.72289 -1.24763,-0.78677 0,-0.064 0.56144,-0.41795 1.24763,-0.78677 2.66181,-1.43075 5.21233,-4.2426 6.51011,-7.17708 0.33456,-0.7565 0.65571,-1.37543 0.71365,-1.37543 0.058,0 0.37911,0.61893 0.71368,1.37543 1.29777,2.93448 3.8483,5.74633 6.51012,7.17708 0.68616,0.36882 1.24761,0.72286 1.24761,0.78677 0,0.064 -0.56145,0.41792 -1.24761,0.78677 -2.66182,1.43073 -5.21235,4.24257 -6.51012,7.17708 -0.33457,0.75649 -0.65572,1.37543 -0.71368,1.37543 -0.058,0 -0.37909,-0.61894 -0.71365,-1.37543 z"
       style="fill:#fe0505" />
    <path
       inkscape:connector-curvature="0"
       id="path11327"
       d="m 335.91796,235.92471 c -1.29778,-2.93451 -3.84831,-5.74635 -6.51012,-7.17708 -0.68619,-0.36884 -1.24761,-0.72288 -1.24761,-0.78677 0,-0.064 0.56142,-0.41795 1.24761,-0.78677 2.66181,-1.43075 5.21234,-4.24259 6.51012,-7.17708 0.33457,-0.75649 0.65571,-1.37543 0.71365,-1.37543 0.058,0 0.37911,0.61894 0.71367,1.37543 1.29779,2.93449 3.84831,5.74633 6.51012,7.17708 0.68617,0.36882 1.24761,0.72286 1.24761,0.78677 0,0.064 -0.56144,0.41793 -1.24761,0.78677 -2.66181,1.43073 -5.21233,4.24257 -6.51012,7.17708 -0.33456,0.7565 -0.65571,1.37544 -0.71367,1.37544 -0.058,0 -0.37908,-0.61894 -0.71365,-1.37544 z"
       style="fill:#fe0505" />
    <path
       style="fill:#fe0505"
       d="m 372.92472,235.92471 c -1.29779,-2.93452 -3.84831,-5.74636 -6.51012,-7.17708 -0.6862,-0.36885 -1.24762,-0.72289 -1.24762,-0.78678 0,-0.064 0.56142,-0.41794 1.24762,-0.78676 2.66181,-1.43076 5.21233,-4.2426 6.51012,-7.17708 0.33455,-0.7565 0.6557,-1.37544 0.71364,-1.37544 0.058,0 0.37911,0.61894 0.71367,1.37544 1.29778,2.93448 3.8483,5.74632 6.51012,7.17708 0.68618,0.36882 1.24762,0.72286 1.24762,0.78676 0,0.064 -0.56144,0.41793 -1.24762,0.78678 -2.66182,1.43072 -5.21234,4.24256 -6.51012,7.17708 -0.33456,0.75649 -0.6557,1.37543 -0.71367,1.37543 -0.058,0 -0.37909,-0.61894 -0.71364,-1.37543 z"
       id="path11329"
       inkscape:connector-curvature="0" />
    <path
       style="fill:#fe0505"
       d="m 322.50926,152.42172 c -0.54643,-1.23558 -1.62034,-2.41951 -2.74104,-3.02192 -0.28903,-0.15531 -0.52548,-0.30438 -0.52548,-0.33128 0,-0.0269 0.23645,-0.17598 0.52548,-0.33127 1.1207,-0.60242 2.19461,-1.78635 2.74104,-3.02193 0.14084,-0.31852 0.27611,-0.57912 0.3004,-0.57912 0.0245,0 0.15978,0.2606 0.30062,0.57912 0.54642,1.23558 1.62033,2.41951 2.74104,3.02193 0.28903,0.15529 0.52525,0.30437 0.52525,0.33127 0,0.027 -0.23622,0.17597 -0.52525,0.33128 -1.12071,0.60241 -2.19462,1.78634 -2.74104,3.02192 -0.14084,0.31853 -0.27611,0.57913 -0.30062,0.57913 -0.0243,0 -0.15956,-0.2606 -0.3004,-0.57913 z"
       id="path11380"
       inkscape:connector-curvature="0" />
    <path
       style="fill:#fe0505"
       d="m 387.15851,223.20366 c -0.54645,-1.23558 -1.62036,-2.41952 -2.7411,-3.02193 -0.28892,-0.1553 -0.52532,-0.30437 -0.52532,-0.33127 0,-0.0269 0.2364,-0.17598 0.52532,-0.33127 1.12074,-0.60243 2.19465,-1.78636 2.7411,-3.02193 0.14086,-0.31852 0.27609,-0.57913 0.30047,-0.57913 0.0244,0 0.15962,0.26061 0.30051,0.57913 0.54642,1.23557 1.62032,2.4195 2.74108,3.02193 0.28892,0.15529 0.52532,0.30436 0.52532,0.33127 0,0.027 -0.2364,0.17597 -0.52532,0.33127 -1.12076,0.60241 -2.19466,1.78635 -2.74108,3.02193 -0.14089,0.31853 -0.27611,0.57913 -0.30051,0.57913 -0.0244,0 -0.15961,-0.2606 -0.30047,-0.57913 z"
       id="path11398"
       inkscape:connector-curvature="0" />
  </g>
</svg>
