<?xml version="1.0" encoding="UTF-8" standalone="no"?>
<!-- Created with Inkscape (http://www.inkscape.org/) -->

<svg
   id="svg10047"
   height="123.00011"
   width="78.928314"
   version="1.1"
   viewBox="0 0 78.928314 123.00011"
   inkscape:version="0.91 r13725"
   sodipodi:docname="ancient-french.svgz"
   xmlns:inkscape="http://www.inkscape.org/namespaces/inkscape"
   xmlns:sodipodi="http://sodipodi.sourceforge.net/DTD/sodipodi-0.dtd"
   xmlns="http://www.w3.org/2000/svg"
   xmlns:svg="http://www.w3.org/2000/svg"
   xmlns:rdf="http://www.w3.org/1999/02/22-rdf-syntax-ns#"
   xmlns:cc="http://creativecommons.org/ns#"
   xmlns:dc="http://purl.org/dc/elements/1.1/">
  <sodipodi:namedview
     pagecolor="#ffffff"
     bordercolor="#666666"
     borderopacity="1"
     objecttolerance="10"
     gridtolerance="10"
     guidetolerance="10"
     inkscape:pageopacity="0"
     inkscape:pageshadow="2"
     inkscape:window-width="1920"
     inkscape:window-height="1016"
     id="namedview1491"
     showgrid="false"
     inkscape:zoom="1.3479675"
     inkscape:cx="407.78528"
     inkscape:cy="307.5"
     inkscape:window-x="0"
     inkscape:window-y="0"
     inkscape:window-maximized="1"
     inkscape:current-layer="svg10047"
     showguides="true"
     inkscape:guide-bbox="true"
     inkscape:snap-grids="true"
     inkscape:showpageshadow="2"
     inkscape:pagecheckerboard="0"
     inkscape:deskcolor="#d1d1d1" />
  <metadata
     id="metadata16869">
    <rdf:RDF>
      <cc:Work
         rdf:about="">
        <dc:format>image/svg+xml</dc:format>
        <dc:type
           rdf:resource="http://purl.org/dc/dcmitype/StillImage" />
        <dc:title />
      </cc:Work>
    </rdf:RDF>
  </metadata>
  <defs
     id="defs10049" />
  <g
     id="diamond_6"
     transform="matrix(0.99999989,0,0,1.0010252,-394.76555,-123.25208)"
     inkscape:label="#diamond_6">
    <rect
       transform="scale(-1)"
       style="fill:#ffffff;stroke:#000000;stroke-width:0.223354"
       id="rect142-3-7-5-9-2-7-8-0-6-5-8-9-7-2-0-9-3-3-3-6-5-1-5-1"
       y="-245.88832"
       x="-473.58224"
       ry="6.8138309"
       rx="6.5647407"
       height="122.65079"
       width="78.704971" />
    <path
       d="m 404.01239,129.54259 v 0.59411 q -2.97551,0.53661 -3.31483,5.13615 l 0.0261,0.0384 q 0.60032,-1.01573 1.42901,-1.01573 1.00489,0 1.72919,1.22654 0.73084,1.21696 0.73084,2.83639 0,1.74399 -0.78956,3.10469 -0.78305,1.35112 -1.87275,1.35112 -1.1876,0 -1.97063,-1.54276 -0.78302,-1.55235 -0.78302,-3.90004 0,-3.11428 1.35724,-5.28948 1.36378,-2.18479 3.45838,-2.53933 z m -3.38658,6.61185 -0.0392,1.69608 q 0,3.50716 0.48287,4.00544 0.48286,0.4887 0.88089,0.4887 0.61337,0 0.93962,-0.757 0.3328,-0.7666 0.3328,-3.11428 0,-2.48184 -0.30668,-3.09511 -0.30016,-0.61328 -0.85483,-0.61328 -0.76997,0 -1.43552,1.38945 z"
       style="font-style:normal;font-variant:normal;font-weight:normal;font-stretch:normal;font-size:medium;line-height:125%;font-family:'Bodoni MT';-inkscape-font-specification:'Bodoni MT';letter-spacing:0px;word-spacing:0px;fill:#ff0000;fill-opacity:1;stroke:none;stroke-width:1px;stroke-linecap:butt;stroke-linejoin:miter;stroke-opacity:1"
       id="path8107"
       inkscape:connector-curvature="0" />
    <path
       d="m 464.48861,239.61554 v -0.59411 q 2.97549,-0.53661 3.3148,-5.13616 l -0.0261,-0.0383 q -0.60032,1.01573 -1.42903,1.01573 -1.00489,0 -1.72917,-1.22655 -0.73083,-1.21696 -0.73083,-2.83638 0,-1.744 0.78955,-3.1047 0.78303,-1.35111 1.87273,-1.35111 1.1876,0 1.97065,1.54276 0.783,1.55235 0.783,3.90003 0,3.11428 -1.35724,5.28948 -1.36378,2.18479 -3.45836,2.53934 z m 3.38659,-6.61185 0.0392,-1.69608 q 0,-3.50716 -0.48286,-4.00544 -0.48287,-0.48871 -0.88092,-0.48871 -0.61337,0 -0.93962,0.75701 -0.3328,0.76659 -0.3328,3.11428 0,2.48184 0.30668,3.09511 0.30018,0.61328 0.8548,0.61328 0.77001,0 1.43558,-1.38945 z"
       style="font-style:normal;font-variant:normal;font-weight:normal;font-stretch:normal;font-size:medium;line-height:125%;font-family:'Bodoni MT';-inkscape-font-specification:'Bodoni MT';letter-spacing:0px;word-spacing:0px;fill:#ff0000;fill-opacity:1;stroke:none;stroke-width:1px;stroke-linecap:butt;stroke-linejoin:miter;stroke-opacity:1"
       id="path8563"
       inkscape:connector-curvature="0" />
    <path
       inkscape:connector-curvature="0"
       id="path11307"
       d="m 415.01277,149.0254 c -1.29778,-2.93452 -3.8483,-5.74636 -6.51012,-7.17708 -0.68619,-0.36885 -1.24761,-0.72289 -1.24761,-0.78677 0,-0.064 0.56142,-0.41795 1.24761,-0.78677 2.66182,-1.43076 5.21234,-4.2426 6.51012,-7.17709 0.33457,-0.75648 0.65572,-1.37542 0.71365,-1.37542 0.058,0 0.37911,0.61894 0.71368,1.37542 1.29778,2.93449 3.8483,5.74633 6.51011,7.17709 0.68617,0.36882 1.24761,0.72286 1.24761,0.78677 0,0.064 -0.56144,0.41792 -1.24761,0.78677 -2.66181,1.43072 -5.21233,4.24256 -6.51011,7.17708 -0.33457,0.75649 -0.65572,1.37543 -0.71368,1.37543 -0.058,0 -0.37908,-0.61894 -0.71365,-1.37543 z"
       style="fill:#fe0505" />
    <path
       style="fill:#fe0505"
       d="m 452.01952,149.0254 c -1.29777,-2.93452 -3.8483,-5.74636 -6.51011,-7.17708 -0.6862,-0.36885 -1.24762,-0.72289 -1.24762,-0.78677 0,-0.064 0.56142,-0.41795 1.24762,-0.78677 2.66181,-1.43076 5.21234,-4.2426 6.51011,-7.17709 0.33457,-0.75648 0.65571,-1.37542 0.71365,-1.37542 0.058,0 0.37912,0.61894 0.71367,1.37542 1.29778,2.93449 3.84831,5.74633 6.51012,7.17709 0.68618,0.36882 1.24762,0.72286 1.24762,0.78677 0,0.064 -0.56144,0.41792 -1.24762,0.78677 -2.66181,1.43072 -5.21234,4.24256 -6.51012,7.17708 -0.33455,0.75649 -0.6557,1.37543 -0.71367,1.37543 -0.058,0 -0.37908,-0.61894 -0.71365,-1.37543 z"
       id="path11309"
       inkscape:connector-curvature="0" />
    <path
       style="fill:#fe0505"
       d="m 415.01277,192.52678 c -1.29778,-2.93451 -3.8483,-5.74635 -6.51012,-7.17708 -0.68619,-0.36885 -1.24761,-0.72289 -1.24761,-0.78677 0,-0.064 0.56142,-0.41795 1.24761,-0.78677 2.66182,-1.43075 5.21234,-4.24259 6.51012,-7.17708 0.33457,-0.75649 0.65572,-1.37543 0.71365,-1.37543 0.058,0 0.37911,0.61894 0.71368,1.37543 1.29778,2.93449 3.8483,5.74633 6.51011,7.17708 0.68617,0.36882 1.24761,0.72286 1.24761,0.78677 0,0.064 -0.56144,0.41792 -1.24761,0.78677 -2.66181,1.43073 -5.21233,4.24257 -6.51011,7.17708 -0.33457,0.7565 -0.65572,1.37543 -0.71368,1.37543 -0.058,0 -0.37908,-0.61893 -0.71365,-1.37543 z"
       id="path11311"
       inkscape:connector-curvature="0" />
    <path
       inkscape:connector-curvature="0"
       id="path11313"
       d="m 452.01952,192.52678 c -1.29777,-2.93451 -3.8483,-5.74635 -6.51011,-7.17708 -0.6862,-0.36885 -1.24762,-0.72289 -1.24762,-0.78677 0,-0.064 0.56142,-0.41795 1.24762,-0.78677 2.66181,-1.43075 5.21234,-4.24259 6.51011,-7.17708 0.33457,-0.75649 0.65571,-1.37543 0.71365,-1.37543 0.058,0 0.37912,0.61894 0.71367,1.37543 1.29778,2.93449 3.84831,5.74633 6.51012,7.17708 0.68618,0.36882 1.24762,0.72286 1.24762,0.78677 0,0.064 -0.56144,0.41792 -1.24762,0.78677 -2.66181,1.43073 -5.21234,4.24257 -6.51012,7.17708 -0.33455,0.7565 -0.6557,1.37543 -0.71367,1.37543 -0.058,0 -0.37908,-0.61893 -0.71365,-1.37543 z"
       style="fill:#fe0505" />
    <path
       style="fill:#fe0505"
       d="m 415.01277,236.02817 c -1.29778,-2.93452 -3.8483,-5.74636 -6.51012,-7.17709 -0.68619,-0.36884 -1.24761,-0.72288 -1.24761,-0.78677 0,-0.064 0.56142,-0.41795 1.24761,-0.78676 2.66182,-1.43076 5.21234,-4.2426 6.51012,-7.17709 0.33457,-0.75649 0.65572,-1.37543 0.71365,-1.37543 0.058,0 0.37911,0.61894 0.71368,1.37543 1.29778,2.93449 3.8483,5.74633 6.51011,7.17709 0.68617,0.36881 1.24761,0.72286 1.24761,0.78676 0,0.064 -0.56144,0.41793 -1.24761,0.78677 -2.66181,1.43073 -5.21233,4.24257 -6.51011,7.17709 -0.33457,0.75649 -0.65572,1.37543 -0.71368,1.37543 -0.058,0 -0.37908,-0.61894 -0.71365,-1.37543 z"
       id="path11315"
       inkscape:connector-curvature="0" />
    <path
       inkscape:connector-curvature="0"
       id="path11317"
       d="m 452.01952,236.02816 c -1.29777,-2.93452 -3.8483,-5.74636 -6.51011,-7.17708 -0.6862,-0.36885 -1.24762,-0.72289 -1.24762,-0.78677 0,-0.064 0.56142,-0.41795 1.24762,-0.78677 2.66181,-1.43076 5.21234,-4.2426 6.51011,-7.17708 0.33457,-0.7565 0.65571,-1.37544 0.71365,-1.37544 0.058,0 0.37912,0.61894 0.71367,1.37544 1.29778,2.93448 3.84831,5.74632 6.51012,7.17708 0.68618,0.36882 1.24762,0.72286 1.24762,0.78677 0,0.064 -0.56144,0.41792 -1.24762,0.78677 -2.66181,1.43072 -5.21234,4.24256 -6.51012,7.17708 -0.33455,0.75649 -0.6557,1.37543 -0.71367,1.37543 -0.058,0 -0.37908,-0.61894 -0.71365,-1.37543 z"
       style="fill:#fe0505" />
    <path
       inkscape:connector-curvature="0"
       id="path11378"
       d="m 401.60423,152.52518 c -0.54643,-1.23559 -1.62034,-2.41952 -2.74104,-3.02193 -0.28904,-0.15531 -0.52548,-0.30438 -0.52548,-0.33128 0,-0.0269 0.23644,-0.17597 0.52548,-0.33126 1.1207,-0.60243 2.19461,-1.78636 2.74104,-3.02194 0.14084,-0.31852 0.27611,-0.57912 0.3004,-0.57912 0.0245,0 0.15978,0.2606 0.30061,0.57912 0.54643,1.23558 1.62034,2.41951 2.74104,3.02194 0.28904,0.15529 0.52526,0.30436 0.52526,0.33126 0,0.027 -0.23622,0.17597 -0.52526,0.33128 -1.1207,0.60241 -2.19461,1.78634 -2.74104,3.02193 -0.14083,0.31852 -0.2761,0.57913 -0.30061,0.57913 -0.0243,0 -0.15956,-0.26061 -0.3004,-0.57913 z"
       style="fill:#fe0505" />
    <path
       inkscape:connector-curvature="0"
       id="path11396"
       d="m 466.25355,223.30711 c -0.54645,-1.23558 -1.62036,-2.41952 -2.74111,-3.02193 -0.28892,-0.1553 -0.52531,-0.30437 -0.52531,-0.33127 0,-0.0269 0.23639,-0.17598 0.52531,-0.33127 1.12075,-0.60242 2.19466,-1.78635 2.74111,-3.02193 0.14086,-0.31852 0.27609,-0.57913 0.30046,-0.57913 0.0244,0 0.15963,0.26061 0.30052,0.57913 0.54641,1.23558 1.62032,2.41951 2.74108,3.02193 0.28892,0.15529 0.52531,0.30436 0.52531,0.33127 0,0.027 -0.23639,0.17597 -0.52531,0.33127 -1.12076,0.60242 -2.19467,1.78635 -2.74108,3.02193 -0.14089,0.31853 -0.27611,0.57913 -0.30052,0.57913 -0.0244,0 -0.1596,-0.2606 -0.30046,-0.57913 z"
       style="fill:#fe0505" />
  </g>
</svg>
