<?xml version="1.0" encoding="UTF-8" standalone="no"?>
<!-- Created with Inkscape (http://www.inkscape.org/) -->

<svg
   id="svg10047"
   height="123.00011"
   width="78.928314"
   version="1.1"
   viewBox="0 0 78.928314 123.00011"
   inkscape:version="0.91 r13725"
   sodipodi:docname="ancient-french.svgz"
   xmlns:inkscape="http://www.inkscape.org/namespaces/inkscape"
   xmlns:sodipodi="http://sodipodi.sourceforge.net/DTD/sodipodi-0.dtd"
   xmlns="http://www.w3.org/2000/svg"
   xmlns:svg="http://www.w3.org/2000/svg"
   xmlns:rdf="http://www.w3.org/1999/02/22-rdf-syntax-ns#"
   xmlns:cc="http://creativecommons.org/ns#"
   xmlns:dc="http://purl.org/dc/elements/1.1/">
  <sodipodi:namedview
     pagecolor="#ffffff"
     bordercolor="#666666"
     borderopacity="1"
     objecttolerance="10"
     gridtolerance="10"
     guidetolerance="10"
     inkscape:pageopacity="0"
     inkscape:pageshadow="2"
     inkscape:window-width="1920"
     inkscape:window-height="1016"
     id="namedview1491"
     showgrid="false"
     inkscape:zoom="1.3479675"
     inkscape:cx="407.78528"
     inkscape:cy="307.5"
     inkscape:window-x="0"
     inkscape:window-y="0"
     inkscape:window-maximized="1"
     inkscape:current-layer="svg10047"
     showguides="true"
     inkscape:guide-bbox="true"
     inkscape:snap-grids="true"
     inkscape:showpageshadow="2"
     inkscape:pagecheckerboard="0"
     inkscape:deskcolor="#d1d1d1" />
  <metadata
     id="metadata16869">
    <rdf:RDF>
      <cc:Work
         rdf:about="">
        <dc:format>image/svg+xml</dc:format>
        <dc:type
           rdf:resource="http://purl.org/dc/dcmitype/StillImage" />
        <dc:title />
      </cc:Work>
    </rdf:RDF>
  </metadata>
  <defs
     id="defs10049" />
  <g
     id="diamond_1"
     transform="matrix(0.99999989,0,0,1.0010252,-1.8477438e-6,-123.14852)"
     inkscape:label="#diamond_1">
    <g
       id="g9786">
      <rect
         width="78.704971"
         height="122.65079"
         rx="6.5647407"
         ry="6.8138309"
         x="-78.81665"
         y="-245.78487"
         id="rect142-3-7-5-9-2-7-8-0-6-5-8-9-7-2-0-9-3-3-3-6-5-1-5-1-9-6-5"
         style="fill:#ffffff;stroke:#000000;stroke-width:0.223354"
         transform="scale(-1)" />
      <path
         style="fill:#fe0505"
         d="m 38.750504,192.42334 c -1.29778,-2.93451 -3.84832,-5.74635 -6.51011,-7.17708 -0.6862,-0.36884 -1.24763,-0.72288 -1.24763,-0.78677 0,-0.064 0.56143,-0.41795 1.24763,-0.78677 2.66179,-1.43075 5.21233,-4.24259 6.51011,-7.17708 0.33455,-0.75649 0.6557,-1.37543 0.71366,-1.37543 0.058,0 0.3791,0.61894 0.71366,1.37543 1.29777,2.93449 3.84831,5.74633 6.5101,7.17708 0.6862,0.36882 1.24763,0.72286 1.24763,0.78677 0,0.064 -0.56143,0.41793 -1.24763,0.78677 -2.66179,1.43073 -5.21233,4.24257 -6.5101,7.17708 -0.33456,0.7565 -0.65571,1.37544 -0.71366,1.37544 -0.058,0 -0.37911,-0.61894 -0.71366,-1.37544 z"
         id="path11150"
         inkscape:connector-curvature="0" />
      <path
         inkscape:connector-curvature="0"
         id="path8122"
         style="font-style:normal;font-variant:normal;font-weight:normal;font-stretch:normal;font-size:medium;line-height:125%;font-family:'Bodoni MT';-inkscape-font-specification:'Bodoni MT';letter-spacing:0px;word-spacing:0px;fill:#ff0000;fill-opacity:1;stroke:none;stroke-width:1px;stroke-linecap:butt;stroke-linejoin:miter;stroke-opacity:1"
         d="m 7.7919242,129.40688 v 12.75768 h 1.58515 v 0.51393 h -4.46726 v -0.51393 h 1.57829 v -11.83059 h -1.57829 v -0.51393 h 0.24017 q 1.50282,0 2.64194,-0.41316 z" />
      <path
         inkscape:connector-curvature="0"
         id="path8578"
         style="font-style:normal;font-variant:normal;font-weight:normal;font-stretch:normal;font-size:medium;line-height:125%;font-family:'Bodoni MT';-inkscape-font-specification:'Bodoni MT';letter-spacing:0px;word-spacing:0px;fill:#ff0000;fill-opacity:1;stroke:none;stroke-width:1px;stroke-linecap:butt;stroke-linejoin:miter;stroke-opacity:1"
         d="m 71.145054,239.51211 v -12.75769 h -1.58516 v -0.51393 h 4.46726 v 0.51393 h -1.57829 v 11.83059 h 1.57829 v 0.51393 h -0.24017 q -1.50282,0 -2.64193,0.41317 z" />
      <path
         inkscape:connector-curvature="0"
         id="path11388"
         d="m 6.8382542,152.42172 c -0.54642,-1.23558 -1.62033,-2.41951 -2.74105,-3.02192 -0.28903,-0.15531 -0.52547,-0.30438 -0.52547,-0.33128 0,-0.0269 0.23644,-0.17598 0.52547,-0.33127 1.12072,-0.60242 2.19463,-1.78635 2.74105,-3.02193 0.14084,-0.31852 0.27611,-0.57912 0.3004,-0.57912 0.0245,0 0.15978,0.2606 0.30063,0.57912 0.54643,1.23558 1.62032,2.41951 2.7410298,3.02193 0.28903,0.15529 0.52525,0.30437 0.52525,0.33127 0,0.027 -0.23622,0.17597 -0.52525,0.33128 -1.1207098,0.60241 -2.1945998,1.78634 -2.7410298,3.02192 -0.14085,0.31853 -0.27611,0.57913 -0.30063,0.57913 -0.0243,0 -0.15956,-0.2606 -0.3004,-0.57913 z"
         style="fill:#fe0505" />
      <path
         inkscape:connector-curvature="0"
         id="path11406"
         d="m 71.487584,223.20366 c -0.54644,-1.23558 -1.62034,-2.41952 -2.7411,-3.02193 -0.28892,-0.1553 -0.52532,-0.30437 -0.52532,-0.33127 0,-0.0269 0.2364,-0.17598 0.52532,-0.33127 1.12076,-0.60243 2.19466,-1.78636 2.7411,-3.02193 0.14087,-0.31852 0.2761,-0.57913 0.30048,-0.57913 0.0244,0 0.15962,0.26061 0.30051,0.57913 0.54642,1.23557 1.62032,2.4195 2.74106,3.02193 0.28892,0.15529 0.52533,0.30436 0.52533,0.33127 0,0.027 -0.23641,0.17597 -0.52533,0.33127 -1.12074,0.60241 -2.19464,1.78635 -2.74106,3.02193 -0.14089,0.31853 -0.27611,0.57913 -0.30051,0.57913 -0.0244,0 -0.15961,-0.2606 -0.30048,-0.57913 z"
         style="fill:#fe0505" />
    </g>
  </g>
</svg>
