<?xml version="1.0" encoding="UTF-8" standalone="no"?>
<!-- Created with Inkscape (http://www.inkscape.org/) -->

<svg
   id="svg10047"
   height="123.00011"
   width="78.928314"
   version="1.1"
   viewBox="0 0 78.928314 123.00011"
   inkscape:version="0.91 r13725"
   sodipodi:docname="ancient-french.svgz"
   xmlns:inkscape="http://www.inkscape.org/namespaces/inkscape"
   xmlns:sodipodi="http://sodipodi.sourceforge.net/DTD/sodipodi-0.dtd"
   xmlns="http://www.w3.org/2000/svg"
   xmlns:svg="http://www.w3.org/2000/svg"
   xmlns:rdf="http://www.w3.org/1999/02/22-rdf-syntax-ns#"
   xmlns:cc="http://creativecommons.org/ns#"
   xmlns:dc="http://purl.org/dc/elements/1.1/">
  <sodipodi:namedview
     pagecolor="#ffffff"
     bordercolor="#666666"
     borderopacity="1"
     objecttolerance="10"
     gridtolerance="10"
     guidetolerance="10"
     inkscape:pageopacity="0"
     inkscape:pageshadow="2"
     inkscape:window-width="1920"
     inkscape:window-height="1016"
     id="namedview1491"
     showgrid="false"
     inkscape:zoom="1.3479675"
     inkscape:cx="407.78528"
     inkscape:cy="307.5"
     inkscape:window-x="0"
     inkscape:window-y="0"
     inkscape:window-maximized="1"
     inkscape:current-layer="svg10047"
     showguides="true"
     inkscape:guide-bbox="true"
     inkscape:snap-grids="true"
     inkscape:showpageshadow="2"
     inkscape:pagecheckerboard="0"
     inkscape:deskcolor="#d1d1d1" />
  <metadata
     id="metadata16869">
    <rdf:RDF>
      <cc:Work
         rdf:about="">
        <dc:format>image/svg+xml</dc:format>
        <dc:type
           rdf:resource="http://purl.org/dc/dcmitype/StillImage" />
        <dc:title />
      </cc:Work>
    </rdf:RDF>
  </metadata>
  <defs
     id="defs10049" />
  <g
     id="diamond_3"
     transform="matrix(0.99999989,0,0,1.0010252,-157.83537,-123.14852)"
     inkscape:label="#diamond_3">
    <rect
       transform="scale(-1)"
       style="fill:#ffffff;stroke:#000000;stroke-width:0.223354"
       id="rect142-3-7-5-9-2-7-8-0-6-5-8-9-7-2-0-9-3-3-3-6-5-1-5-1-9-6"
       y="-245.78487"
       x="-236.65204"
       ry="6.8138309"
       rx="6.5647407"
       height="122.65079"
       width="78.704971" />
    <path
       d="m 164.92464,135.49051 v 0.0395 q 1.47045,0.17748 2.03443,1.1832 0.564,0.99587 0.564,2.20865 0,1.52831 -0.87956,2.64249 -0.87959,1.11418 -2.11501,1.11418 -0.96685,0 -1.59801,-0.75922 -0.63114,-0.75922 -0.63114,-1.66634 0,-0.51272 0.19471,-0.85783 0.19473,-0.35496 0.49015,-0.35496 0.27527,0 0.46328,0.30566 0.18801,0.2958 0.18801,0.71979 0,0.67048 -0.36257,0.9367 -0.22829,0.1479 -0.22829,0.23664 0,0.18734 0.41628,0.55216 0.423,0.35496 0.94001,0.35496 1.63828,0 1.63828,-2.92843 0,-2.11005 -0.60428,-2.75095 -0.59756,-0.6409 -1.3093,-0.6409 l -0.58414,0.0592 q -0.32228,0 -0.32228,-0.31553 0,-0.30565 0.27528,-0.30565 0.0873,0 0.42302,0.0493 0.34241,0.0493 0.34913,0.0493 0.20815,0 0.60429,-0.32539 0.40285,-0.32538 0.59086,-0.85782 0.1947,-0.5423 0.1947,-1.70578 0,-1.54803 -0.29542,-2.06076 -0.28872,-0.52257 -0.83257,-0.52257 -0.49686,0 -0.846,0.2958 -0.34915,0.28594 -0.34915,0.53244 0,0.10846 0.26186,0.32538 0.26858,0.20706 0.26858,0.72965 0,0.36481 -0.19473,0.6409 -0.19471,0.26622 -0.43644,0.26622 -0.27527,0 -0.45656,-0.33525 -0.17457,-0.33523 -0.17457,-0.77894 0,-0.80853 0.58414,-1.47901 0.58414,-0.68033 1.504,-0.68033 1.0273,0 1.71887,0.85782 0.69158,0.84796 0.69158,2.07061 0,2.32696 -2.17544,3.1552 z"
       style="font-style:normal;font-variant:normal;font-weight:normal;font-stretch:normal;font-size:medium;line-height:125%;font-family:'Bodoni MT';-inkscape-font-specification:'Bodoni MT';letter-spacing:0px;word-spacing:0px;fill:#ff0000;fill-opacity:1;stroke:none;stroke-width:1px;stroke-linecap:butt;stroke-linejoin:miter;stroke-opacity:1"
       id="path8116"
       inkscape:connector-curvature="0" />
    <path
       d="m 228.72812,233.42846 v -0.0394 q -1.47044,-0.17748 -2.03442,-1.18321 -0.56401,-0.99586 -0.56401,-2.20865 0,-1.5283 0.87958,-2.64249 0.87956,-1.11418 2.11499,-1.11418 0.96688,0 1.598,0.75922 0.63118,0.75922 0.63118,1.66635 0,0.51272 -0.19475,0.85782 -0.1947,0.35496 -0.49013,0.35496 -0.27529,0 -0.46329,-0.30566 -0.18799,-0.2958 -0.18799,-0.71978 0,-0.67048 0.36258,-0.93671 0.22828,-0.1479 0.22828,-0.23664 0,-0.18734 -0.4163,-0.55216 -0.42298,-0.35496 -0.94,-0.35496 -1.63829,0 -1.63829,2.92843 0,2.11005 0.60427,2.75095 0.5976,0.6409 1.3093,0.6409 l 0.58414,-0.0592 q 0.32231,0 0.32231,0.31553 0,0.30566 -0.27531,0.30566 -0.0873,0 -0.42299,-0.0493 -0.34244,-0.0493 -0.34914,-0.0493 -0.20814,0 -0.6043,0.32538 -0.40284,0.32538 -0.59086,0.85782 -0.19471,0.5423 -0.19471,1.70579 0,1.54802 0.29541,2.06075 0.28873,0.52258 0.83259,0.52258 0.49686,0 0.84602,-0.2958 0.34914,-0.28595 0.34914,-0.53245 0,-0.10846 -0.26187,-0.32538 -0.26855,-0.20706 -0.26855,-0.72964 0,-0.36482 0.1947,-0.6409 0.19472,-0.26622 0.43642,-0.26622 0.27529,0 0.45657,0.33524 0.17459,0.33524 0.17459,0.77894 0,0.80852 -0.58415,1.47901 -0.58414,0.68034 -1.50402,0.68034 -1.02727,0 -1.71885,-0.85782 -0.69156,-0.84797 -0.69156,-2.07061 0,-2.32697 2.17542,-3.15522 z"
       style="font-style:normal;font-variant:normal;font-weight:normal;font-stretch:normal;font-size:medium;line-height:125%;font-family:'Bodoni MT';-inkscape-font-specification:'Bodoni MT';letter-spacing:0px;word-spacing:0px;fill:#ff0000;fill-opacity:1;stroke:none;stroke-width:1px;stroke-linecap:butt;stroke-linejoin:miter;stroke-opacity:1"
       id="path8572"
       inkscape:connector-curvature="0" />
    <path
       style="fill:#fe0505"
       d="m 196.58589,148.92194 c -1.29778,-2.93451 -3.8483,-5.74635 -6.51012,-7.17708 -0.6862,-0.36884 -1.24762,-0.72288 -1.24762,-0.78677 0,-0.064 0.56142,-0.41795 1.24762,-0.78676 2.66182,-1.43076 5.21234,-4.2426 6.51012,-7.17709 0.33456,-0.75649 0.6557,-1.37543 0.71365,-1.37543 0.058,0 0.37911,0.61894 0.71367,1.37543 1.29778,2.93449 3.84831,5.74633 6.51012,7.17709 0.68617,0.36881 1.24761,0.72286 1.24761,0.78676 0,0.064 -0.56144,0.41793 -1.24761,0.78677 -2.66181,1.43073 -5.21234,4.24257 -6.51012,7.17708 -0.33456,0.7565 -0.65571,1.37544 -0.71367,1.37544 -0.058,0 -0.37909,-0.61894 -0.71365,-1.37544 z"
       id="path11341"
       inkscape:connector-curvature="0" />
    <path
       inkscape:connector-curvature="0"
       id="path11343"
       d="m 196.58589,192.42333 c -1.29778,-2.93451 -3.8483,-5.74635 -6.51012,-7.17708 -0.6862,-0.36885 -1.24762,-0.72289 -1.24762,-0.78677 0,-0.064 0.56142,-0.41795 1.24762,-0.78677 2.66182,-1.43075 5.21234,-4.2426 6.51012,-7.17708 0.33456,-0.7565 0.6557,-1.37543 0.71365,-1.37543 0.058,0 0.37911,0.61893 0.71367,1.37543 1.29778,2.93448 3.84831,5.74633 6.51012,7.17708 0.68617,0.36882 1.24761,0.72286 1.24761,0.78677 0,0.064 -0.56144,0.41792 -1.24761,0.78677 -2.66181,1.43073 -5.21234,4.24257 -6.51012,7.17708 -0.33456,0.75649 -0.65571,1.37543 -0.71367,1.37543 -0.058,0 -0.37909,-0.61894 -0.71365,-1.37543 z"
       style="fill:#fe0505" />
    <path
       inkscape:connector-curvature="0"
       id="path11345"
       d="m 196.58589,235.92471 c -1.29778,-2.93451 -3.8483,-5.74635 -6.51012,-7.17708 -0.6862,-0.36884 -1.24762,-0.72288 -1.24762,-0.78677 0,-0.064 0.56142,-0.41795 1.24762,-0.78677 2.66182,-1.43075 5.21234,-4.24259 6.51012,-7.17708 0.33456,-0.75649 0.6557,-1.37543 0.71365,-1.37543 0.058,0 0.37911,0.61894 0.71367,1.37543 1.29778,2.93449 3.84831,5.74633 6.51012,7.17708 0.68617,0.36882 1.24761,0.72286 1.24761,0.78677 0,0.064 -0.56144,0.41793 -1.24761,0.78677 -2.66181,1.43073 -5.21234,4.24257 -6.51012,7.17708 -0.33456,0.7565 -0.65571,1.37544 -0.71367,1.37544 -0.058,0 -0.37909,-0.61894 -0.71365,-1.37544 z"
       style="fill:#fe0505" />
    <path
       style="fill:#fe0505"
       d="m 164.67362,152.42172 c -0.54643,-1.23558 -1.62034,-2.41951 -2.74105,-3.02192 -0.28903,-0.15531 -0.52548,-0.30438 -0.52548,-0.33128 0,-0.0269 0.23645,-0.17598 0.52548,-0.33127 1.12071,-0.60242 2.19462,-1.78635 2.74105,-3.02193 0.14085,-0.31852 0.27611,-0.57912 0.3004,-0.57912 0.0245,0 0.15979,0.2606 0.30063,0.57912 0.54642,1.23558 1.62031,2.41951 2.74103,3.02193 0.28903,0.15529 0.52525,0.30437 0.52525,0.33127 0,0.027 -0.23622,0.17597 -0.52525,0.33128 -1.12072,0.60241 -2.19461,1.78634 -2.74103,3.02192 -0.14084,0.31853 -0.27611,0.57913 -0.30063,0.57913 -0.0243,0 -0.15955,-0.2606 -0.3004,-0.57913 z"
       id="path11384"
       inkscape:connector-curvature="0" />
    <path
       style="fill:#fe0505"
       d="m 229.32304,223.20366 c -0.54645,-1.23558 -1.62035,-2.41952 -2.7411,-3.02193 -0.28892,-0.1553 -0.52532,-0.30437 -0.52532,-0.33127 0,-0.0269 0.2364,-0.17598 0.52532,-0.33127 1.12075,-0.60243 2.19465,-1.78636 2.7411,-3.02193 0.14087,-0.31852 0.27609,-0.57913 0.30047,-0.57913 0.0244,0 0.15963,0.26061 0.30051,0.57913 0.54642,1.23557 1.62033,2.4195 2.74108,3.02193 0.28892,0.15529 0.52532,0.30436 0.52532,0.33127 0,0.027 -0.2364,0.17597 -0.52532,0.33127 -1.12075,0.60241 -2.19466,1.78635 -2.74108,3.02193 -0.14088,0.31853 -0.27611,0.57913 -0.30051,0.57913 -0.0244,0 -0.1596,-0.2606 -0.30047,-0.57913 z"
       id="path11402"
       inkscape:connector-curvature="0" />
  </g>
</svg>
