<?xml version="1.0" encoding="UTF-8" standalone="no"?>
<!-- Created with Inkscape (http://www.inkscape.org/) -->

<svg
   id="svg10047"
   height="123.00011"
   width="78.928314"
   version="1.1"
   viewBox="0 0 78.928314 123.00011"
   inkscape:version="0.91 r13725"
   sodipodi:docname="ancient-french.svgz"
   xmlns:inkscape="http://www.inkscape.org/namespaces/inkscape"
   xmlns:sodipodi="http://sodipodi.sourceforge.net/DTD/sodipodi-0.dtd"
   xmlns="http://www.w3.org/2000/svg"
   xmlns:svg="http://www.w3.org/2000/svg"
   xmlns:rdf="http://www.w3.org/1999/02/22-rdf-syntax-ns#"
   xmlns:cc="http://creativecommons.org/ns#"
   xmlns:dc="http://purl.org/dc/elements/1.1/">
  <sodipodi:namedview
     pagecolor="#ffffff"
     bordercolor="#666666"
     borderopacity="1"
     objecttolerance="10"
     gridtolerance="10"
     guidetolerance="10"
     inkscape:pageopacity="0"
     inkscape:pageshadow="2"
     inkscape:window-width="1920"
     inkscape:window-height="1016"
     id="namedview1491"
     showgrid="false"
     inkscape:zoom="1.3479675"
     inkscape:cx="407.78528"
     inkscape:cy="307.5"
     inkscape:window-x="0"
     inkscape:window-y="0"
     inkscape:window-maximized="1"
     inkscape:current-layer="svg10047"
     showguides="true"
     inkscape:guide-bbox="true"
     inkscape:snap-grids="true"
     inkscape:showpageshadow="2"
     inkscape:pagecheckerboard="0"
     inkscape:deskcolor="#d1d1d1" />
  <metadata
     id="metadata16869">
    <rdf:RDF>
      <cc:Work
         rdf:about="">
        <dc:format>image/svg+xml</dc:format>
        <dc:type
           rdf:resource="http://purl.org/dc/dcmitype/StillImage" />
        <dc:title />
      </cc:Work>
    </rdf:RDF>
  </metadata>
  <defs
     id="defs10049" />
  <g
     id="diamond_2"
     transform="matrix(0.99999989,0,0,1.0010252,-78.917687,-123.14852)"
     inkscape:label="#diamond_2">
    <rect
       transform="scale(-1)"
       style="fill:#ffffff;stroke:#000000;stroke-width:0.223354"
       id="rect142-3-7-5-9-2-7-8-0-6-5-8-9-7-2-0-9-3-3-3-6-5-1-5-1-9-6-7"
       y="-245.78487"
       x="-157.73434"
       ry="6.8138309"
       rx="6.5647407"
       height="122.65079"
       width="78.704971" />
    <path
       d="m 88.743314,138.97213 -0.22645,3.73862 h -5.14662 v -1.19918 q 0.80287,-1.32011 2.35372,-3.43631 1.55771,-2.1162 1.55771,-4.67581 0,-1.44102 -0.43232,-2.32781 -0.43231,-0.88679 -1.22832,-0.88679 -0.7068,0 -1.15284,0.66509 -0.44604,0.65502 -0.44604,1.42087 0,0.39302 0.12351,0.39302 0.0274,0 0.1098,-0.0706 0.22645,-0.2217 0.43918,-0.2217 0.26762,0 0.4529,0.3124 0.19214,0.30232 0.19214,0.71547 0,0.42325 -0.20586,0.73564 -0.20587,0.30232 -0.5078,0.30232 -0.42546,0 -0.70681,-0.5341 -0.28134,-0.54416 -0.28134,-1.35033 0,-1.22942 0.68621,-2.16659 0.69308,-0.94726 1.7773,-0.94726 1.06363,0 1.83219,0.86664 0.76857,0.86664 0.76857,2.26736 0,1.49141 -0.67936,2.73091 -0.67935,1.23949 -2.00375,3.0433 -1.31753,1.80381 -1.87337,2.6906 h 3.12229 q 0.87149,0 0.94698,-0.21162 0.0823,-0.21162 0.13037,-0.98756 l 0.0618,-0.86663 h 0.33625 z"
       style="font-style:normal;font-variant:normal;font-weight:normal;font-stretch:normal;font-size:medium;line-height:125%;font-family:'Bodoni MT';-inkscape-font-specification:'Bodoni MT';letter-spacing:0px;word-spacing:0px;fill:#ff0000;fill-opacity:1;stroke:none;stroke-width:1px;stroke-linecap:butt;stroke-linejoin:miter;stroke-opacity:1"
       id="path8119"
       inkscape:connector-curvature="0" />
    <path
       d="m 148.02901,229.97911 0.22646,-3.73862 h 5.14661 v 1.19918 q -0.80287,1.32011 -2.35372,3.43631 -1.55771,2.11621 -1.55771,4.6758 0,1.44104 0.43232,2.32783 0.43231,0.88679 1.22832,0.88679 0.70681,0 1.15285,-0.6651 0.44603,-0.65501 0.44603,-1.42087 0,-0.39301 -0.12351,-0.39301 -0.0275,0 -0.1098,0.0705 -0.22645,0.2217 -0.43918,0.2217 -0.26762,0 -0.4529,-0.3124 -0.19214,-0.30231 -0.19214,-0.71547 0,-0.42324 0.20587,-0.73564 0.20586,-0.30231 0.5078,-0.30231 0.42545,0 0.7068,0.53409 0.28134,0.54416 0.28134,1.35034 0,1.22941 -0.68621,2.16659 -0.69308,0.94725 -1.7773,0.94725 -1.06364,0 -1.83219,-0.86664 -0.76857,-0.86663 -0.76857,-2.26736 0,-1.49142 0.67936,-2.73091 0.67935,-1.23949 2.00375,-3.0433 1.31754,-1.80381 1.87337,-2.6906 h -3.12229 q -0.87148,0 -0.94698,0.21162 -0.0824,0.21162 -0.13037,0.98756 l -0.0618,0.86663 h -0.33624 z"
       style="font-style:normal;font-variant:normal;font-weight:normal;font-stretch:normal;font-size:medium;line-height:125%;font-family:'Bodoni MT';-inkscape-font-specification:'Bodoni MT';letter-spacing:0px;word-spacing:0px;fill:#ff0000;fill-opacity:1;stroke:none;stroke-width:1px;stroke-linecap:butt;stroke-linejoin:miter;stroke-opacity:1"
       id="path8575"
       inkscape:connector-curvature="0" />
    <path
       inkscape:connector-curvature="0"
       id="path11366"
       d="m 117.66819,148.92194 c -1.29777,-2.93451 -3.84828,-5.74635 -6.51009,-7.17708 -0.68619,-0.36884 -1.24761,-0.72288 -1.24761,-0.78677 0,-0.064 0.56142,-0.41795 1.24761,-0.78676 2.66181,-1.43076 5.21232,-4.2426 6.51009,-7.17709 0.33455,-0.75649 0.6557,-1.37543 0.71364,-1.37543 0.058,0 0.37911,0.61894 0.71367,1.37543 1.29778,2.93449 3.8483,5.74633 6.5101,7.17709 0.68618,0.36881 1.24763,0.72286 1.24763,0.78676 0,0.064 -0.56145,0.41793 -1.24763,0.78677 -2.6618,1.43073 -5.21232,4.24257 -6.5101,7.17708 -0.33456,0.7565 -0.65571,1.37544 -0.71367,1.37544 -0.058,0 -0.37909,-0.61894 -0.71364,-1.37544 z"
       style="fill:#fe0505" />
    <path
       style="fill:#fe0505"
       d="m 117.66819,235.92471 c -1.29777,-2.93451 -3.84828,-5.74635 -6.51009,-7.17708 -0.68619,-0.36884 -1.24761,-0.72288 -1.24761,-0.78677 0,-0.064 0.56142,-0.41795 1.24761,-0.78677 2.66181,-1.43075 5.21232,-4.24259 6.51009,-7.17708 0.33455,-0.75649 0.6557,-1.37543 0.71364,-1.37543 0.058,0 0.37911,0.61894 0.71367,1.37543 1.29778,2.93449 3.8483,5.74633 6.5101,7.17708 0.68618,0.36882 1.24763,0.72286 1.24763,0.78677 0,0.064 -0.56145,0.41793 -1.24763,0.78677 -2.6618,1.43073 -5.21232,4.24257 -6.5101,7.17708 -0.33456,0.7565 -0.65571,1.37544 -0.71367,1.37544 -0.058,0 -0.37909,-0.61894 -0.71364,-1.37544 z"
       id="path11370"
       inkscape:connector-curvature="0" />
    <path
       inkscape:connector-curvature="0"
       id="path11386"
       d="m 85.755944,152.42172 c -0.54642,-1.23558 -1.62034,-2.41951 -2.74105,-3.02192 -0.28903,-0.15531 -0.52548,-0.30438 -0.52548,-0.33128 0,-0.0269 0.23645,-0.17598 0.52548,-0.33127 1.12071,-0.60242 2.19463,-1.78635 2.74105,-3.02193 0.14084,-0.31852 0.27611,-0.57912 0.3004,-0.57912 0.0245,0 0.15978,0.2606 0.30063,0.57912 0.54642,1.23558 1.62032,2.41951 2.74103,3.02193 0.28903,0.15529 0.52525,0.30437 0.52525,0.33127 0,0.027 -0.23622,0.17597 -0.52525,0.33128 -1.12071,0.60241 -2.19461,1.78634 -2.74103,3.02192 -0.14085,0.31853 -0.27612,0.57913 -0.30063,0.57913 -0.0243,0 -0.15956,-0.2606 -0.3004,-0.57913 z"
       style="fill:#fe0505" />
    <path
       inkscape:connector-curvature="0"
       id="path11404"
       d="m 150.40527,223.20366 c -0.54645,-1.23558 -1.62034,-2.41952 -2.7411,-3.02193 -0.28893,-0.1553 -0.52532,-0.30437 -0.52532,-0.33127 0,-0.0269 0.23639,-0.17598 0.52532,-0.33127 1.12076,-0.60243 2.19465,-1.78636 2.7411,-3.02193 0.14086,-0.31852 0.27609,-0.57913 0.30047,-0.57913 0.0244,0 0.15962,0.26061 0.30051,0.57913 0.54643,1.23557 1.62033,2.4195 2.74106,3.02193 0.28893,0.15529 0.52534,0.30436 0.52534,0.33127 0,0.027 -0.23641,0.17597 -0.52534,0.33127 -1.12073,0.60241 -2.19463,1.78635 -2.74106,3.02193 -0.14089,0.31853 -0.27611,0.57913 -0.30051,0.57913 -0.0244,0 -0.15961,-0.2606 -0.30047,-0.57913 z"
       style="fill:#fe0505" />
  </g>
</svg>
