<?xml version="1.0" encoding="UTF-8" standalone="no"?>
<!-- Created with Inkscape (http://www.inkscape.org/) -->

<svg
   id="svg10047"
   height="123.00011"
   width="78.928314"
   version="1.1"
   viewBox="0 0 78.928314 123.00011"
   inkscape:version="0.91 r13725"
   sodipodi:docname="ancient-french.svgz"
   xmlns:inkscape="http://www.inkscape.org/namespaces/inkscape"
   xmlns:sodipodi="http://sodipodi.sourceforge.net/DTD/sodipodi-0.dtd"
   xmlns="http://www.w3.org/2000/svg"
   xmlns:svg="http://www.w3.org/2000/svg"
   xmlns:rdf="http://www.w3.org/1999/02/22-rdf-syntax-ns#"
   xmlns:cc="http://creativecommons.org/ns#"
   xmlns:dc="http://purl.org/dc/elements/1.1/">
  <sodipodi:namedview
     pagecolor="#ffffff"
     bordercolor="#666666"
     borderopacity="1"
     objecttolerance="10"
     gridtolerance="10"
     guidetolerance="10"
     inkscape:pageopacity="0"
     inkscape:pageshadow="2"
     inkscape:window-width="1920"
     inkscape:window-height="1016"
     id="namedview1491"
     showgrid="false"
     inkscape:zoom="1.3479675"
     inkscape:cx="407.78528"
     inkscape:cy="307.5"
     inkscape:window-x="0"
     inkscape:window-y="0"
     inkscape:window-maximized="1"
     inkscape:current-layer="svg10047"
     showguides="true"
     inkscape:guide-bbox="true"
     inkscape:snap-grids="true"
     inkscape:showpageshadow="2"
     inkscape:pagecheckerboard="0"
     inkscape:deskcolor="#d1d1d1" />
  <metadata
     id="metadata16869">
    <rdf:RDF>
      <cc:Work
         rdf:about="">
        <dc:format>image/svg+xml</dc:format>
        <dc:type
           rdf:resource="http://purl.org/dc/dcmitype/StillImage" />
        <dc:title />
      </cc:Work>
    </rdf:RDF>
  </metadata>
  <defs
     id="defs10049" />
  <g
     id="diamond_4"
     transform="matrix(0.99999989,0,0,1.0010252,-236.75309,-123.14852)"
     inkscape:label="#diamond_4">
    <rect
       transform="scale(-1)"
       style="fill:#ffffff;stroke:#000000;stroke-width:0.223354"
       id="rect142-3-7-5-9-2-7-8-0-6-5-8-9-7-2-0-9-3-3-3-6-5-1-5-1-9-1"
       y="-245.78487"
       x="-315.56976"
       ry="6.8138309"
       rx="6.5647407"
       height="122.65079"
       width="78.704971" />
    <path
       d="m 243.99007,129.43908 v 9.16014 h 1.15284 v -1.48134 h 0.33625 v 3.60762 h -0.33625 v -1.60226 h -1.15284 v 3.07353 h 1.0362 v 0.51393 h -3.52716 v -0.51393 h 1.16657 v -3.07353 h -3.23209 v -0.52402 q 2.31255,-6.33852 3.91145,-9.16014 z m -1.32439,9.16014 v -6.97339 h -0.0275 q -1.17343,2.5596 -2.80662,6.97339 h 2.83408 z"
       style="font-style:normal;font-variant:normal;font-weight:normal;font-stretch:normal;font-size:medium;line-height:125%;font-family:'Bodoni MT';-inkscape-font-specification:'Bodoni MT';letter-spacing:0px;word-spacing:0px;fill:#ff0000;fill-opacity:1;stroke:none;stroke-width:1px;stroke-linecap:butt;stroke-linejoin:miter;stroke-opacity:1"
       id="path8113"
       inkscape:connector-curvature="0" />
    <path
       d="m 305.55501,239.51209 v -9.16014 h -1.15285 v 1.48134 h -0.33625 v -3.60762 h 0.33625 v 1.60227 h 1.15285 v -3.07354 h -1.0362 v -0.51393 h 3.52716 v 0.51393 h -1.16658 v 3.07354 h 3.23209 v 0.52401 q -2.31254,6.33853 -3.91143,9.16014 z m 1.32438,-9.16014 v 6.9734 h 0.0275 q 1.17344,-2.5596 2.80662,-6.9734 h -2.83408 z"
       style="font-style:normal;font-variant:normal;font-weight:normal;font-stretch:normal;font-size:medium;line-height:125%;font-family:'Bodoni MT';-inkscape-font-specification:'Bodoni MT';letter-spacing:0px;word-spacing:0px;fill:#ff0000;fill-opacity:1;stroke:none;stroke-width:1px;stroke-linecap:butt;stroke-linejoin:miter;stroke-opacity:1"
       id="path8569"
       inkscape:connector-curvature="0" />
    <path
       inkscape:connector-curvature="0"
       id="path11331"
       d="m 255.66269,148.92192 c -1.29778,-2.93451 -3.84831,-5.74635 -6.51012,-7.17708 -0.68619,-0.36884 -1.24761,-0.72288 -1.24761,-0.78677 0,-0.064 0.56142,-0.41795 1.24761,-0.78676 2.66181,-1.43076 5.21234,-4.2426 6.51012,-7.17709 0.33456,-0.75649 0.65571,-1.37543 0.71365,-1.37543 0.058,0 0.37911,0.61894 0.71367,1.37543 1.29778,2.93449 3.8483,5.74633 6.51012,7.17709 0.68618,0.36881 1.24762,0.72286 1.24762,0.78676 0,0.064 -0.56144,0.41793 -1.24762,0.78677 -2.66182,1.43073 -5.21234,4.24257 -6.51012,7.17708 -0.33456,0.7565 -0.6557,1.37544 -0.71367,1.37544 -0.058,0 -0.37909,-0.61894 -0.71365,-1.37544 z"
       style="fill:#fe0505" />
    <path
       style="fill:#fe0505"
       d="m 292.66944,148.92192 c -1.29778,-2.93451 -3.8483,-5.74635 -6.51011,-7.17708 -0.68621,-0.36884 -1.24763,-0.72288 -1.24763,-0.78677 0,-0.064 0.56142,-0.41795 1.24763,-0.78676 2.66181,-1.43076 5.21233,-4.2426 6.51011,-7.17709 0.33456,-0.75649 0.65571,-1.37543 0.71365,-1.37543 0.058,0 0.37911,0.61894 0.71368,1.37543 1.29777,2.93449 3.8483,5.74633 6.51011,7.17709 0.68617,0.36881 1.24762,0.72286 1.24762,0.78676 0,0.064 -0.56145,0.41793 -1.24762,0.78677 -2.66181,1.43073 -5.21234,4.24257 -6.51011,7.17708 -0.33457,0.7565 -0.65572,1.37544 -0.71368,1.37544 -0.058,0 -0.37909,-0.61894 -0.71365,-1.37544 z"
       id="path11333"
       inkscape:connector-curvature="0" />
    <path
       style="fill:#fe0505"
       d="m 255.66269,235.92469 c -1.29778,-2.93451 -3.84831,-5.74635 -6.51012,-7.17708 -0.68619,-0.36884 -1.24761,-0.72288 -1.24761,-0.78677 0,-0.064 0.56142,-0.41795 1.24761,-0.78677 2.66181,-1.43075 5.21234,-4.24259 6.51012,-7.17708 0.33456,-0.75649 0.65571,-1.37543 0.71365,-1.37543 0.058,0 0.37911,0.61894 0.71367,1.37543 1.29778,2.93449 3.8483,5.74633 6.51012,7.17708 0.68618,0.36882 1.24762,0.72286 1.24762,0.78677 0,0.064 -0.56144,0.41793 -1.24762,0.78677 -2.66182,1.43073 -5.21234,4.24257 -6.51012,7.17708 -0.33456,0.7565 -0.6557,1.37544 -0.71367,1.37544 -0.058,0 -0.37909,-0.61894 -0.71365,-1.37544 z"
       id="path11337"
       inkscape:connector-curvature="0" />
    <path
       inkscape:connector-curvature="0"
       id="path11339"
       d="m 292.66944,235.92469 c -1.29778,-2.93452 -3.8483,-5.74636 -6.51011,-7.17708 -0.68621,-0.36885 -1.24763,-0.72289 -1.24763,-0.78678 0,-0.064 0.56142,-0.41794 1.24763,-0.78676 2.66181,-1.43076 5.21233,-4.2426 6.51011,-7.17708 0.33456,-0.7565 0.65571,-1.37544 0.71365,-1.37544 0.058,0 0.37911,0.61894 0.71368,1.37544 1.29777,2.93448 3.8483,5.74632 6.51011,7.17708 0.68617,0.36882 1.24762,0.72286 1.24762,0.78676 0,0.064 -0.56145,0.41793 -1.24762,0.78678 -2.66181,1.43072 -5.21234,4.24256 -6.51011,7.17708 -0.33457,0.75649 -0.65572,1.37543 -0.71368,1.37543 -0.058,0 -0.37909,-0.61894 -0.71365,-1.37543 z"
       style="fill:#fe0505" />
    <path
       inkscape:connector-curvature="0"
       id="path11382"
       d="m 242.25383,152.4217 c -0.54643,-1.23558 -1.62033,-2.41951 -2.74104,-3.02192 -0.28903,-0.15531 -0.52547,-0.30438 -0.52547,-0.33128 0,-0.0269 0.23644,-0.17598 0.52547,-0.33127 1.12071,-0.60242 2.19461,-1.78635 2.74104,-3.02193 0.14084,-0.31852 0.27611,-0.57912 0.3004,-0.57912 0.0245,0 0.15978,0.2606 0.30063,0.57912 0.54641,1.23558 1.62032,2.41951 2.74103,3.02193 0.28903,0.15529 0.52525,0.30437 0.52525,0.33127 0,0.027 -0.23622,0.17597 -0.52525,0.33128 -1.12071,0.60241 -2.19462,1.78634 -2.74103,3.02192 -0.14085,0.31853 -0.27612,0.57913 -0.30063,0.57913 -0.0243,0 -0.15956,-0.2606 -0.3004,-0.57913 z"
       style="fill:#fe0505" />
    <path
       inkscape:connector-curvature="0"
       id="path11400"
       d="m 306.90322,223.20364 c -0.54644,-1.23558 -1.62035,-2.41952 -2.74111,-3.02193 -0.28892,-0.1553 -0.52531,-0.30437 -0.52531,-0.33127 0,-0.0269 0.23639,-0.17598 0.52531,-0.33127 1.12076,-0.60243 2.19467,-1.78636 2.74111,-3.02193 0.14086,-0.31852 0.27608,-0.57913 0.30046,-0.57913 0.0244,0 0.15963,0.26061 0.30052,0.57913 0.54642,1.23557 1.62033,2.4195 2.74108,3.02193 0.28892,0.15529 0.52531,0.30436 0.52531,0.33127 0,0.027 -0.23639,0.17597 -0.52531,0.33127 -1.12075,0.60241 -2.19466,1.78635 -2.74108,3.02193 -0.14089,0.31853 -0.27612,0.57913 -0.30052,0.57913 -0.0244,0 -0.1596,-0.2606 -0.30046,-0.57913 z"
       style="fill:#fe0505" />
  </g>
</svg>
