<?xml version="1.0" encoding="UTF-8" standalone="no"?>
<!-- Created with Inkscape (http://www.inkscape.org/) -->

<svg
   id="svg10047"
   height="122.99405"
   width="79.010666"
   version="1.1"
   viewBox="0 0 79.010666 122.99405"
   inkscape:version="0.91 r13725"
   sodipodi:docname="ancient-french.svgz"
   xmlns:inkscape="http://www.inkscape.org/namespaces/inkscape"
   xmlns:sodipodi="http://sodipodi.sourceforge.net/DTD/sodipodi-0.dtd"
   xmlns="http://www.w3.org/2000/svg"
   xmlns:svg="http://www.w3.org/2000/svg"
   xmlns:rdf="http://www.w3.org/1999/02/22-rdf-syntax-ns#"
   xmlns:cc="http://creativecommons.org/ns#"
   xmlns:dc="http://purl.org/dc/elements/1.1/">
  <sodipodi:namedview
     pagecolor="#ffffff"
     bordercolor="#666666"
     borderopacity="1"
     objecttolerance="10"
     gridtolerance="10"
     guidetolerance="10"
     inkscape:pageopacity="0"
     inkscape:pageshadow="2"
     inkscape:window-width="1920"
     inkscape:window-height="1016"
     id="namedview1491"
     showgrid="false"
     inkscape:zoom="1.3479675"
     inkscape:cx="407.78528"
     inkscape:cy="307.5"
     inkscape:window-x="0"
     inkscape:window-y="0"
     inkscape:window-maximized="1"
     inkscape:current-layer="svg10047"
     showguides="true"
     inkscape:guide-bbox="true"
     inkscape:snap-grids="true"
     inkscape:showpageshadow="2"
     inkscape:pagecheckerboard="0"
     inkscape:deskcolor="#d1d1d1" />
  <metadata
     id="metadata16869">
    <rdf:RDF>
      <cc:Work
         rdf:about="">
        <dc:format>image/svg+xml</dc:format>
        <dc:type
           rdf:resource="http://purl.org/dc/dcmitype/StillImage" />
        <dc:title />
      </cc:Work>
    </rdf:RDF>
  </metadata>
  <defs
     id="defs10049" />
  <g
     transform="matrix(0.22311101,0,0,0.24589664,-468.66275,33.547058)"
     id="heart_6"
     inkscape:label="#heart_6">
    <rect
       transform="scale(-1)"
       style="fill:#ffffff;stroke:#000000;stroke-width:0.954565"
       id="rect142-3-7-5-9-2-7-8-0-6-5-8-9-7-2-0-9-3-3-3-6-5-1-3-2-6-7"
       y="-363.28122"
       x="-2454.2354"
       ry="27.734665"
       rx="29.458317"
       height="499.23141"
       width="353.17706" />
    <path
       inkscape:connector-curvature="0"
       id="path14626"
       d="m 2232.6301,-82.215735 c -0.05,22.549886 -29.2911,38.971566 -37.8653,56.829544 -8.6734,-17.810102 -37.9645,-34.088151 -38.1627,-56.638038 -0.05,-10.628609 8.4751,-19.294281 18.9326,-19.294281 10.5072,0 19.0814,8.569919 19.0814,19.198528 0,-10.676486 8.4751,-19.294278 18.9327,-19.294278 10.5071,-0.0479 19.0318,8.569916 19.0813,19.198525 z"
       style="fill:#e6180a" />
    <path
       inkscape:connector-curvature="0"
       id="path14622"
       d="m 2156.6019,309.54675 c 0.05,-22.54989 29.2911,-38.97157 37.8653,-56.82954 8.6734,17.8101 37.9645,34.08815 38.1627,56.63803 0.05,10.62861 -8.4751,19.29428 -18.9326,19.29428 -10.5072,0 -19.0814,-8.56991 -19.0814,-19.19852 0,10.67648 -8.4751,19.29427 -18.9327,19.29427 -10.5071,0.0479 -19.0318,-8.56991 -19.0813,-19.19852 z"
       style="fill:#e6180a" />
    <path
       inkscape:connector-curvature="0"
       id="path14618"
       d="m 2398.6919,-82.215735 c -0.049,22.549886 -29.2911,38.971566 -37.8653,56.829544 -8.6734,-17.810102 -37.9645,-34.088151 -38.1627,-56.638038 -0.05,-10.628609 8.4751,-19.294281 18.9326,-19.294281 10.5072,0 19.0814,8.569919 19.0814,19.198528 0,-10.676486 8.4751,-19.294278 18.9327,-19.294278 10.5071,-0.0479 19.0318,8.569916 19.0813,19.198525 z"
       style="fill:#e6180a" />
    <path
       inkscape:connector-curvature="0"
       id="path14614"
       d="m 2398.6919,94.85006 c -0.049,22.54989 -29.2911,38.97157 -37.8653,56.82954 -8.6734,-17.8101 -37.9645,-34.08815 -38.1627,-56.638034 -0.05,-10.628609 8.4751,-19.294277 18.9326,-19.294277 10.5072,0 19.0814,8.569915 19.0814,19.198524 0,-10.676486 8.4751,-19.294277 18.9327,-19.294277 10.5071,-0.04788 19.0318,8.569915 19.0813,19.198524 z"
       style="fill:#e6180a" />
    <path
       inkscape:connector-curvature="0"
       id="path14610"
       d="m 2322.6638,309.54671 c 0.05,-22.54989 29.2911,-38.97157 37.8653,-56.82954 8.6734,17.8101 37.9645,34.08815 38.1627,56.63803 0.05,10.62861 -8.4751,19.29428 -18.9326,19.29428 -10.5072,0 -19.0814,-8.56991 -19.0814,-19.19852 0,10.67648 -8.4751,19.29427 -18.9327,19.29427 -10.5071,0.0479 -19.0318,-8.56991 -19.0813,-19.19852 z"
       style="fill:#e6180a" />
    <path
       inkscape:connector-curvature="0"
       id="path14606"
       d="m 2148.599,-38.310389 c -0.021,9.494689 -12.3331,16.40908 -15.9433,23.928229 -3.6519,-7.49899 -15.985,-14.352906 -16.0685,-23.847595 -0.021,-4.475204 3.5685,-8.123906 7.9716,-8.123906 4.4241,0 8.0343,3.608385 8.0343,8.083589 0,-4.495363 3.5685,-8.123906 7.9717,-8.123906 4.424,-0.02016 8.0133,3.608385 8.0342,8.083589 z"
       style="fill:#e6180a" />
    <path
       inkscape:connector-curvature="0"
       id="path14602"
       d="m 2406.6948,265.64126 c 0.021,-9.49469 12.3331,-16.40908 15.9433,-23.92823 3.6519,7.49899 15.985,14.35291 16.0685,23.8476 0.021,4.4752 -3.5685,8.1239 -7.9716,8.1239 -4.4241,0 -8.0343,-3.60838 -8.0343,-8.08359 0,4.49537 -3.5685,8.12391 -7.9717,8.12391 -4.424,0.0202 -8.0133,-3.60839 -8.0342,-8.08359 z"
       style="fill:#e6180a" />
    <path
       inkscape:connector-curvature="0"
       id="path14598"
       d="m 2232.6301,94.85006 c -0.05,22.54989 -29.2911,38.97157 -37.8653,56.82954 -8.6734,-17.8101 -37.9645,-34.08815 -38.1627,-56.638034 -0.05,-10.628609 8.4751,-19.294277 18.9326,-19.294277 10.5072,0 19.0814,8.569915 19.0814,19.198524 0,-10.676486 8.4751,-19.294277 18.9327,-19.294277 10.5071,-0.04788 19.0318,8.569915 19.0813,19.198524 z"
       style="fill:#e6180a" />
    <path
       inkscape:connector-curvature="0"
       d="m 2142.051,-110.41789 v 2.41823 q -13.3522,2.1842 -14.8748,20.905972 l 0.1171,0.156017 q 2.6939,-4.134392 6.4126,-4.134392 4.5092,0 7.7594,4.992462 3.2795,4.953475 3.2795,11.545093 0,7.098668 -3.5429,12.637189 -3.5138,5.499523 -8.4038,5.499523 -5.3291,0 -8.8428,-6.279596 -3.5137,-6.318594 -3.5137,-15.874489 0,-12.676199 6.0904,-21.530029 6.1198,-8.89284 15.519,-10.33598 z m -15.1969,26.912534 -0.1757,6.903653 q 0,14.275343 2.1668,16.303541 2.1668,1.989187 3.9529,1.989187 2.7525,0 4.2165,-3.081295 1.4934,-3.120292 1.4934,-12.676198 0,-10.101942 -1.3763,-12.598179 -1.3469,-2.496237 -3.8358,-2.496237 -3.4551,0 -6.4418,5.655528 z"
       id="path8107-7"
       style="font-style:normal;font-variant:normal;font-weight:normal;font-stretch:normal;font-size:medium;line-height:125%;font-family:'Bodoni MT';-inkscape-font-specification:'Bodoni MT';letter-spacing:0px;word-spacing:0px;fill:#ff0000;fill-opacity:1;stroke:none;stroke-width:1px;stroke-linecap:butt;stroke-linejoin:miter;stroke-opacity:1" />
    <path
       d="m 2413.4292,337.74879 v -2.4182 q 13.352,-2.18421 14.8747,-20.90597 l -0.1172,-0.15606 q -2.6939,4.13444 -6.4125,4.13444 -4.5093,0 -7.7594,-4.99246 -3.2796,-4.95354 -3.2796,-11.54509 0,-7.09864 3.5431,-12.6372 3.5137,-5.49954 8.4035,-5.49954 5.3293,0 8.8431,6.27963 3.5136,6.31855 3.5136,15.8745 0,12.67612 -6.0905,21.53001 -6.1198,8.89281 -15.5188,10.33594 z m 15.1967,-26.9125 0.1758,-6.90367 q 0,-14.27531 -2.1668,-16.30356 -2.1668,-1.98914 -3.9531,-1.98914 -2.7523,0 -4.2164,3.08124 -1.4933,3.12036 -1.4933,12.67622 0,10.10195 1.3762,12.59818 1.347,2.49623 3.8357,2.49623 3.4553,0 6.4419,-5.6555 z"
       style="font-style:normal;font-variant:normal;font-weight:normal;font-stretch:normal;font-size:medium;line-height:125%;font-family:'Bodoni MT';-inkscape-font-specification:'Bodoni MT';letter-spacing:0px;word-spacing:0px;fill:#ff0000;fill-opacity:1;stroke:none;stroke-width:1px;stroke-linecap:butt;stroke-linejoin:miter;stroke-opacity:1"
       id="path8563-3"
       inkscape:connector-curvature="0" />
  </g>
</svg>
