<?xml version="1.0" encoding="UTF-8" standalone="no"?>
<!-- Created with Inkscape (http://www.inkscape.org/) -->

<svg
   id="svg10047"
   height="122.99405"
   width="79.010666"
   version="1.1"
   viewBox="0 0 79.010666 122.99405"
   inkscape:version="0.91 r13725"
   sodipodi:docname="ancient-french.svgz"
   xmlns:inkscape="http://www.inkscape.org/namespaces/inkscape"
   xmlns:sodipodi="http://sodipodi.sourceforge.net/DTD/sodipodi-0.dtd"
   xmlns="http://www.w3.org/2000/svg"
   xmlns:svg="http://www.w3.org/2000/svg"
   xmlns:rdf="http://www.w3.org/1999/02/22-rdf-syntax-ns#"
   xmlns:cc="http://creativecommons.org/ns#"
   xmlns:dc="http://purl.org/dc/elements/1.1/">
  <sodipodi:namedview
     pagecolor="#ffffff"
     bordercolor="#666666"
     borderopacity="1"
     objecttolerance="10"
     gridtolerance="10"
     guidetolerance="10"
     inkscape:pageopacity="0"
     inkscape:pageshadow="2"
     inkscape:window-width="1920"
     inkscape:window-height="1016"
     id="namedview1491"
     showgrid="false"
     inkscape:zoom="1.3479675"
     inkscape:cx="407.78528"
     inkscape:cy="307.5"
     inkscape:window-x="0"
     inkscape:window-y="0"
     inkscape:window-maximized="1"
     inkscape:current-layer="svg10047"
     showguides="true"
     inkscape:guide-bbox="true"
     inkscape:snap-grids="true"
     inkscape:showpageshadow="2"
     inkscape:pagecheckerboard="0"
     inkscape:deskcolor="#d1d1d1" />
  <metadata
     id="metadata16869">
    <rdf:RDF>
      <cc:Work
         rdf:about="">
        <dc:format>image/svg+xml</dc:format>
        <dc:type
           rdf:resource="http://purl.org/dc/dcmitype/StillImage" />
        <dc:title />
      </cc:Work>
    </rdf:RDF>
  </metadata>
  <defs
     id="defs10049" />
  <g
     transform="matrix(0.22311101,0,0,0.24589664,-290.10757,33.547058)"
     id="heart_4"
     inkscape:label="#heart_4">
    <rect
       transform="scale(-1)"
       style="fill:#ffffff;stroke:#000000;stroke-width:0.954565"
       id="rect142-3-7-5-9-2-7-8-0-6-5-8-9-7-2-0-9-3-3-3-6-5-1-3-2-6-7-9-6"
       y="-363.28122"
       x="-1653.9379"
       ry="27.734665"
       rx="29.458317"
       height="499.23141"
       width="353.17706" />
    <path
       inkscape:connector-curvature="0"
       id="path14678"
       d="m 1432.3326,-82.215735 c -0.049,22.549886 -29.2911,38.971566 -37.8653,56.829544 -8.6734,-17.810102 -37.9645,-34.088151 -38.1627,-56.638038 -0.05,-10.628609 8.4751,-19.294281 18.9326,-19.294281 10.5072,0 19.0814,8.569919 19.0814,19.198528 0,-10.676486 8.4751,-19.294278 18.9327,-19.294278 10.5071,-0.0479 19.0318,8.569916 19.0813,19.198525 z"
       style="fill:#e6180a" />
    <path
       inkscape:connector-curvature="0"
       id="path14674"
       d="m 1356.3044,309.54675 c 0.05,-22.54989 29.2911,-38.97157 37.8653,-56.82954 8.6734,17.8101 37.9645,34.08815 38.1627,56.63803 0.05,10.62861 -8.4751,19.29428 -18.9326,19.29428 -10.5072,0 -19.0814,-8.56991 -19.0814,-19.19852 0,10.67648 -8.4751,19.29427 -18.9327,19.29427 -10.5071,0.0479 -19.0318,-8.56991 -19.0813,-19.19852 z"
       style="fill:#e6180a" />
    <path
       inkscape:connector-curvature="0"
       id="path14670"
       d="m 1598.3944,-82.215735 c -0.049,22.549886 -29.2911,38.971566 -37.8653,56.829544 -8.6734,-17.810102 -37.9645,-34.088151 -38.1627,-56.638038 -0.05,-10.628609 8.4751,-19.294281 18.9326,-19.294281 10.5072,0 19.0814,8.569919 19.0814,19.198528 0,-10.676486 8.4751,-19.294278 18.9327,-19.294278 10.5071,-0.0479 19.0318,8.569916 19.0813,19.198525 z"
       style="fill:#e6180a" />
    <path
       inkscape:connector-curvature="0"
       id="path14666"
       d="m 1522.3663,309.54671 c 0.05,-22.54989 29.2911,-38.97157 37.8653,-56.82954 8.6734,17.8101 37.9645,34.08815 38.1627,56.63803 0.05,10.62861 -8.4751,19.29428 -18.9326,19.29428 -10.5072,0 -19.0814,-8.56991 -19.0814,-19.19852 0,10.67648 -8.4751,19.29427 -18.9327,19.29427 -10.5071,0.0479 -19.0318,-8.56991 -19.0813,-19.19852 z"
       style="fill:#e6180a" />
    <path
       inkscape:connector-curvature="0"
       id="path14662"
       d="m 1348.3015,-38.310389 c -0.021,9.494689 -12.3331,16.40908 -15.9433,23.928229 -3.6519,-7.49899 -15.985,-14.352906 -16.0685,-23.847595 -0.021,-4.475204 3.5685,-8.123906 7.9716,-8.123906 4.4241,0 8.0343,3.608385 8.0343,8.083589 0,-4.495363 3.5685,-8.123906 7.9717,-8.123906 4.424,-0.02016 8.0133,3.608385 8.0342,8.083589 z"
       style="fill:#e6180a" />
    <path
       inkscape:connector-curvature="0"
       id="path14658"
       d="m 1606.3974,265.64126 c 0.021,-9.49469 12.3331,-16.40908 15.9433,-23.92823 3.6519,7.49899 15.985,14.35291 16.0685,23.8476 0.021,4.4752 -3.5685,8.1239 -7.9716,8.1239 -4.4241,0 -8.0343,-3.60838 -8.0343,-8.08359 0,4.49537 -3.5685,8.12391 -7.9717,8.12391 -4.424,0.0202 -8.0133,-3.60839 -8.0342,-8.08359 z"
       style="fill:#e6180a" />
    <path
       inkscape:connector-curvature="0"
       d="m 1338.7368,-110.418 v 37.284944 h 5.1732 v -6.029585 h 1.5089 v 14.684279 h -1.5089 v -6.521781 h -5.1732 v 12.510348 h 4.6497 v 2.091895 h -15.8276 v -2.091895 h 5.2348 v -12.510348 h -14.5035 v -2.132913 q 10.3773,-25.800031 17.552,-37.284944 z m -5.9431,37.284944 V -101.5172 h -0.1232 q -5.2655,10.418465 -12.5943,28.384144 z"
       id="path8113-8"
       style="font-style:normal;font-variant:normal;font-weight:normal;font-stretch:normal;font-size:medium;line-height:125%;font-family:'Bodoni MT';-inkscape-font-specification:'Bodoni MT';letter-spacing:0px;word-spacing:0px;fill:#ff0000;fill-opacity:1;stroke:none;stroke-width:1px;stroke-linecap:butt;stroke-linejoin:miter;stroke-opacity:1" />
    <path
       d="m 1615.0004,337.74889 v -37.28496 h -5.1731 v 6.02964 h -1.509 v -14.68436 h 1.509 v 6.52183 h 5.1731 v -12.51036 h -4.6497 v -2.09187 h 15.8275 v 2.09187 h -5.2348 v 12.51036 h 14.5035 v 2.13289 q -10.3772,25.80009 -17.5519,37.28496 z m 5.943,-37.28496 v 28.38415 h 0.1232 q 5.2656,-10.41847 12.5943,-28.38415 z"
       style="font-style:normal;font-variant:normal;font-weight:normal;font-stretch:normal;font-size:medium;line-height:125%;font-family:'Bodoni MT';-inkscape-font-specification:'Bodoni MT';letter-spacing:0px;word-spacing:0px;fill:#ff0000;fill-opacity:1;stroke:none;stroke-width:1px;stroke-linecap:butt;stroke-linejoin:miter;stroke-opacity:1"
       id="path8569-7"
       inkscape:connector-curvature="0" />
  </g>
</svg>
