<?xml version="1.0" encoding="UTF-8" standalone="no"?>
<!-- Created with Inkscape (http://www.inkscape.org/) -->

<svg
   id="svg10047"
   height="122.99405"
   width="79.010666"
   version="1.1"
   viewBox="0 0 79.010666 122.99405"
   inkscape:version="0.91 r13725"
   sodipodi:docname="ancient-french.svgz"
   xmlns:inkscape="http://www.inkscape.org/namespaces/inkscape"
   xmlns:sodipodi="http://sodipodi.sourceforge.net/DTD/sodipodi-0.dtd"
   xmlns="http://www.w3.org/2000/svg"
   xmlns:svg="http://www.w3.org/2000/svg"
   xmlns:rdf="http://www.w3.org/1999/02/22-rdf-syntax-ns#"
   xmlns:cc="http://creativecommons.org/ns#"
   xmlns:dc="http://purl.org/dc/elements/1.1/">
  <sodipodi:namedview
     pagecolor="#ffffff"
     bordercolor="#666666"
     borderopacity="1"
     objecttolerance="10"
     gridtolerance="10"
     guidetolerance="10"
     inkscape:pageopacity="0"
     inkscape:pageshadow="2"
     inkscape:window-width="1920"
     inkscape:window-height="1016"
     id="namedview1491"
     showgrid="false"
     inkscape:zoom="1.3479675"
     inkscape:cx="407.78528"
     inkscape:cy="307.5"
     inkscape:window-x="0"
     inkscape:window-y="0"
     inkscape:window-maximized="1"
     inkscape:current-layer="svg10047"
     showguides="true"
     inkscape:guide-bbox="true"
     inkscape:snap-grids="true"
     inkscape:showpageshadow="2"
     inkscape:pagecheckerboard="0"
     inkscape:deskcolor="#d1d1d1" />
  <metadata
     id="metadata16869">
    <rdf:RDF>
      <cc:Work
         rdf:about="">
        <dc:format>image/svg+xml</dc:format>
        <dc:type
           rdf:resource="http://purl.org/dc/dcmitype/StillImage" />
        <dc:title />
      </cc:Work>
    </rdf:RDF>
  </metadata>
  <defs
     id="defs10049" />
  <g
     transform="matrix(0.22311101,0,0,0.24589664,-379.38517,33.547058)"
     id="heart_5"
     inkscape:label="#heart_5">
    <rect
       transform="scale(-1)"
       style="fill:#ffffff;stroke:#000000;stroke-width:0.954565"
       id="rect142-3-7-5-9-2-7-8-0-6-5-8-9-7-2-0-9-3-3-3-6-5-1-3-2-6-7-9"
       y="-363.28122"
       x="-2054.0867"
       ry="27.734665"
       rx="29.458317"
       height="499.23141"
       width="353.17706" />
    <path
       inkscape:connector-curvature="0"
       id="path14654"
       d="m 1832.4814,-82.215735 c -0.049,22.549886 -29.2911,38.971566 -37.8653,56.829544 -8.6734,-17.810102 -37.9645,-34.088151 -38.1627,-56.638038 -0.05,-10.628609 8.4751,-19.294281 18.9326,-19.294281 10.5072,0 19.0814,8.569919 19.0814,19.198528 0,-10.676486 8.4751,-19.294278 18.9327,-19.294278 10.5071,-0.0479 19.0318,8.569916 19.0813,19.198525 z"
       style="fill:#e6180a" />
    <path
       inkscape:connector-curvature="0"
       id="path14650"
       d="m 1756.4532,309.54675 c 0.05,-22.54989 29.2911,-38.97157 37.8653,-56.82954 8.6734,17.8101 37.9645,34.08815 38.1627,56.63803 0.05,10.62861 -8.4751,19.29428 -18.9326,19.29428 -10.5072,0 -19.0814,-8.56991 -19.0814,-19.19852 0,10.67648 -8.4751,19.29427 -18.9327,19.29427 -10.5071,0.0479 -19.0318,-8.56991 -19.0813,-19.19852 z"
       style="fill:#e6180a" />
    <path
       inkscape:connector-curvature="0"
       id="path14646"
       d="m 1998.5432,-82.215735 c -0.05,22.549886 -29.2911,38.971566 -37.8653,56.829544 -8.6734,-17.810102 -37.9645,-34.088151 -38.1627,-56.638038 -0.05,-10.628609 8.4751,-19.294281 18.9326,-19.294281 10.5072,0 19.0814,8.569919 19.0814,19.198528 0,-10.676486 8.4751,-19.294278 18.9327,-19.294278 10.5071,-0.0479 19.0318,8.569916 19.0813,19.198525 z"
       style="fill:#e6180a" />
    <path
       inkscape:connector-curvature="0"
       id="path14642"
       d="m 1915.5122,94.85006 c -0.049,22.54989 -29.2911,38.97157 -37.8653,56.82954 -8.6734,-17.8101 -37.9645,-34.08815 -38.1627,-56.638034 -0.05,-10.628609 8.4751,-19.294277 18.9326,-19.294277 10.5072,0 19.0814,8.569915 19.0814,19.198524 0,-10.676486 8.4751,-19.294277 18.9327,-19.294277 10.5071,-0.04788 19.0318,8.569915 19.0813,19.198524 z"
       style="fill:#e6180a" />
    <path
       inkscape:connector-curvature="0"
       id="path14638"
       d="m 1922.5151,309.54671 c 0.049,-22.54989 29.2911,-38.97157 37.8653,-56.82954 8.6734,17.8101 37.9645,34.08815 38.1627,56.63803 0.05,10.62861 -8.4751,19.29428 -18.9326,19.29428 -10.5072,0 -19.0814,-8.56991 -19.0814,-19.19852 0,10.67648 -8.4751,19.29427 -18.9327,19.29427 -10.5071,0.0479 -19.0318,-8.56991 -19.0813,-19.19852 z"
       style="fill:#e6180a" />
    <path
       inkscape:connector-curvature="0"
       id="path14634"
       d="m 1748.4503,-38.310389 c -0.021,9.494689 -12.3331,16.40908 -15.9433,23.928229 -3.6519,-7.49899 -15.985,-14.352906 -16.0685,-23.847595 -0.021,-4.475204 3.5685,-8.123906 7.9716,-8.123906 4.4241,0 8.0343,3.608385 8.0343,8.083589 0,-4.495363 3.5685,-8.123906 7.9717,-8.123906 4.424,-0.02016 8.0133,3.608385 8.0342,8.083589 z"
       style="fill:#e6180a" />
    <path
       inkscape:connector-curvature="0"
       id="path14630"
       d="m 2006.5462,265.64126 c 0.021,-9.49469 12.3331,-16.40908 15.9433,-23.92823 3.6519,7.49899 15.985,14.35291 16.0685,23.8476 0.021,4.4752 -3.5685,8.1239 -7.9716,8.1239 -4.4241,0 -8.0343,-3.60838 -8.0343,-8.08359 0,4.49537 -3.5685,8.12391 -7.9717,8.12391 -4.424,0.0202 -8.0133,-3.60839 -8.0342,-8.08359 z"
       style="fill:#e6180a" />
    <path
       inkscape:connector-curvature="0"
       d="m 1725.373,-101.05701 -0.4685,14.626377 q 3.1038,-1.287111 6.0319,-1.287111 5.5342,0 9.2236,4.329407 3.6894,4.290397 3.6894,10.765008 0,6.864654 -4.0116,11.545093 -4.0114,4.68044 -9.487,4.68044 -4.5093,0 -6.9103,-3.081295 -2.4011,-3.081283 -2.4011,-7.059657 0,-1.755174 0.8199,-3.003286 0.8198,-1.248124 2.2546,-1.248124 1.1712,0 1.9618,1.092107 0.7907,1.092107 0.7907,2.730262 0,2.808259 -1.8741,3.861356 -0.7613,0.429041 -0.7613,0.858082 0,1.092107 1.552,2.340219 1.5811,1.248125 3.9529,1.248125 7.6424,0 7.6424,-12.598191 0,-14.314353 -8.1695,-14.314353 -2.3717,0 -3.7187,0.93609 -1.3176,0.897091 -1.6104,0.897091 -0.5857,0 -0.5564,-1.521148 l 0.5564,-15.796492 q 0.1464,-4.71944 0.8492,-5.77253 0.7319,-1.09211 4.3042,-1.09211 h 6.2955 q 2.8402,0 3.543,-0.35103 0.7027,-0.35104 1.0248,-2.14521 h 1.2591 q -0.1757,6.47461 -1.4933,7.91775 -1.2884,1.44313 -4.4508,1.44313 z"
       id="path8110-0"
       style="font-style:normal;font-variant:normal;font-weight:normal;font-stretch:normal;font-size:medium;line-height:125%;font-family:'Bodoni MT';-inkscape-font-specification:'Bodoni MT';letter-spacing:0px;word-spacing:0px;fill:#ff0000;fill-opacity:1;stroke:none;stroke-width:1px;stroke-linecap:butt;stroke-linejoin:miter;stroke-opacity:1" />
    <path
       d="m 2029.2614,328.38791 0.4684,-14.62634 q -3.1037,1.28708 -6.0318,1.28708 -5.5341,0 -9.2236,-4.32941 -3.6894,-4.29039 -3.6894,-10.765 0,-6.86465 4.0115,-11.54509 4.0116,-4.68044 9.4872,-4.68044 4.5092,0 6.9103,3.08134 2.401,3.08125 2.401,7.05963 0,1.75515 -0.8199,3.00331 -0.8199,1.24807 -2.2546,1.24807 -1.1713,0 -1.9617,-1.09211 -0.7907,-1.0921 -0.7907,-2.73021 0,-2.80825 1.8741,-3.86134 0.7611,-0.42906 0.7611,-0.85812 0,-1.09211 -1.5518,-2.34027 -1.5811,-1.24806 -3.9529,-1.24806 -7.6423,0 -7.6423,12.59818 0,14.31432 8.1693,14.31432 2.3718,0 3.7188,-0.93604 1.3176,-0.89714 1.6105,-0.89714 0.5854,0 0.5563,1.52117 l -0.5563,15.79647 q -0.1466,4.71946 -0.8492,5.77255 -0.7321,1.09211 -4.3044,1.09211 h -6.2955 q -2.8402,0 -3.543,0.35103 -0.7027,0.35103 -1.0248,2.14519 h -1.2591 q 0.1757,-6.4746 1.4933,-7.91774 1.2884,-1.44314 4.4509,-1.44314 z"
       style="font-style:normal;font-variant:normal;font-weight:normal;font-stretch:normal;font-size:medium;line-height:125%;font-family:'Bodoni MT';-inkscape-font-specification:'Bodoni MT';letter-spacing:0px;word-spacing:0px;fill:#ff0000;fill-opacity:1;stroke:none;stroke-width:1px;stroke-linecap:butt;stroke-linejoin:miter;stroke-opacity:1"
       id="path8566-6"
       inkscape:connector-curvature="0" />
  </g>
</svg>
