<?xml version="1.0" encoding="UTF-8" standalone="no"?>
<!-- Created with Inkscape (http://www.inkscape.org/) -->

<svg
   id="svg10047"
   height="122.99405"
   width="79.010666"
   version="1.1"
   viewBox="0 0 79.010666 122.99405"
   inkscape:version="0.91 r13725"
   sodipodi:docname="ancient-french.svgz"
   xmlns:inkscape="http://www.inkscape.org/namespaces/inkscape"
   xmlns:sodipodi="http://sodipodi.sourceforge.net/DTD/sodipodi-0.dtd"
   xmlns="http://www.w3.org/2000/svg"
   xmlns:svg="http://www.w3.org/2000/svg"
   xmlns:rdf="http://www.w3.org/1999/02/22-rdf-syntax-ns#"
   xmlns:cc="http://creativecommons.org/ns#"
   xmlns:dc="http://purl.org/dc/elements/1.1/">
  <sodipodi:namedview
     pagecolor="#ffffff"
     bordercolor="#666666"
     borderopacity="1"
     objecttolerance="10"
     gridtolerance="10"
     guidetolerance="10"
     inkscape:pageopacity="0"
     inkscape:pageshadow="2"
     inkscape:window-width="1920"
     inkscape:window-height="1016"
     id="namedview1491"
     showgrid="false"
     inkscape:zoom="1.3479675"
     inkscape:cx="407.78528"
     inkscape:cy="307.5"
     inkscape:window-x="0"
     inkscape:window-y="0"
     inkscape:window-maximized="1"
     inkscape:current-layer="svg10047"
     showguides="true"
     inkscape:guide-bbox="true"
     inkscape:snap-grids="true"
     inkscape:showpageshadow="2"
     inkscape:pagecheckerboard="0"
     inkscape:deskcolor="#d1d1d1" />
  <metadata
     id="metadata16869">
    <rdf:RDF>
      <cc:Work
         rdf:about="">
        <dc:format>image/svg+xml</dc:format>
        <dc:type
           rdf:resource="http://purl.org/dc/dcmitype/StillImage" />
        <dc:title />
      </cc:Work>
    </rdf:RDF>
  </metadata>
  <defs
     id="defs10049" />
  <g
     transform="matrix(0.22311101,0,0,0.24589664,-200.09358,32.735467)"
     id="heart_3"
     inkscape:label="#heart_3">
    <rect
       transform="scale(-1)"
       style="fill:#ffffff;stroke:#000000;stroke-width:0.954565"
       id="rect142-3-7-5-9-2-7-8-0-6-5-8-9-7-2-0-9-3-3-3-6-5-1-3-2-6-7-9-4"
       y="-366.58176"
       x="-1250.4885"
       ry="27.734665"
       rx="29.458317"
       height="499.23141"
       width="353.17706" />
    <path
       inkscape:connector-curvature="0"
       id="path14698"
       d="m 1111.9143,-78.915195 c -0.049,22.549886 -29.2911,38.971566 -37.8653,56.829544 -8.6734,-17.810102 -37.9645,-34.088151 -38.1627,-56.638038 -0.05,-10.628609 8.4751,-19.294277 18.9326,-19.294277 10.5072,0 19.0814,8.569915 19.0814,19.198524 0,-10.676486 8.4751,-19.294277 18.9327,-19.294277 10.5071,-0.04788 19.0318,8.569915 19.0813,19.198524 z"
       style="fill:#e6180a" />
    <path
       inkscape:connector-curvature="0"
       id="path14694"
       d="m 1035.8861,313.84766 c 0.05,-22.54989 29.2911,-38.97157 37.8653,-56.82954 8.6734,17.8101 37.9645,34.08815 38.1627,56.63803 0.05,10.62861 -8.4751,19.29428 -18.9326,19.29428 -10.5072,0 -19.0814,-8.56991 -19.0814,-19.19852 0,10.67648 -8.4751,19.29427 -18.9327,19.29427 -10.5071,0.0479 -19.0318,-8.56991 -19.0813,-19.19852 z"
       style="fill:#e6180a" />
    <path
       inkscape:connector-curvature="0"
       id="path14690"
       d="m 1111.9141,98.1506 c -0.049,22.54989 -29.2911,38.97157 -37.8653,56.82954 -8.6734,-17.8101 -37.9645,-34.08815 -38.1627,-56.638034 -0.05,-10.628609 8.4751,-19.294277 18.9326,-19.294277 10.5072,0 19.0814,8.569915 19.0814,19.198524 0,-10.676486 8.4751,-19.294277 18.9327,-19.294277 10.5071,-0.04788 19.0318,8.569915 19.0813,19.198524 z"
       style="fill:#e6180a" />
    <path
       inkscape:connector-curvature="0"
       id="path14686"
       d="m 944.85218,-35.009849 c -0.0209,9.494689 -12.3331,16.40908 -15.9433,23.928229 -3.65193,-7.49899 -15.98503,-14.352906 -16.0685,-23.847595 -0.0209,-4.475204 3.56846,-8.123906 7.97165,-8.123906 4.42405,0 8.03425,3.608385 8.03425,8.083589 0,-4.495363 3.56846,-8.123906 7.97165,-8.123906 4.42406,-0.02016 8.01339,3.608385 8.03425,8.083589 z"
       style="fill:#e6180a" />
    <path
       inkscape:connector-curvature="0"
       id="path14682"
       d="m 1202.948,268.9418 c 0.021,-9.49469 12.3331,-16.40908 15.9433,-23.92823 3.6519,7.49899 15.985,14.35291 16.0685,23.8476 0.021,4.4752 -3.5685,8.1239 -7.9716,8.1239 -4.4241,0 -8.0343,-3.60838 -8.0343,-8.08359 0,4.49537 -3.5685,8.12391 -7.9717,8.12391 -4.424,0.0202 -8.0133,-3.60839 -8.0342,-8.08359 z"
       style="fill:#e6180a" />
    <path
       inkscape:connector-curvature="0"
       d="m 931.92281,-85.786656 v 0.160529 q 6.59841,0.722413 9.12921,4.816063 2.53088,4.053509 2.53088,8.989961 0,6.220746 -3.94691,10.755867 -3.947,4.53511 -9.49078,4.53511 -4.33863,0 -7.17086,-3.090297 -2.83215,-3.090308 -2.83215,-6.782617 0,-2.086955 0.87372,-3.491638 0.87381,-1.444813 2.19947,-1.444813 1.23529,0 2.07895,1.244142 0.84366,1.204013 0.84366,2.929767 0,2.729096 -1.62701,3.812709 -1.0244,0.602012 -1.0244,0.963213 0,0.762542 1.86797,2.247496 1.8982,1.444813 4.2182,1.444813 7.35151,0 7.35151,-11.919728 0,-8.588642 -2.71162,-11.197339 -2.68147,-2.608696 -5.87527,-2.608696 l -2.62125,0.240812 q -1.44619,0 -1.44619,-1.284284 0,-1.244153 1.23529,-1.244153 0.39172,0 1.89821,0.20067 1.53655,0.200671 1.5667,0.200671 0.93403,0 2.71163,-1.324413 1.80775,-1.324413 2.6514,-3.491638 0.87373,-2.207367 0.87373,-6.943147 0,-6.301004 -1.32566,-8.387974 -1.2956,-2.12708 -3.73603,-2.12708 -2.22962,0 -3.79632,1.20401 -1.56679,1.16388 -1.56679,2.16723 0,0.44147 1.17507,1.32441 1.20522,0.84281 1.20522,2.9699 0,1.48495 -0.87381,2.608704 -0.87372,1.083601 -1.95842,1.083601 -1.23529,0 -2.04879,-1.364543 -0.78336,-1.364554 -0.78336,-3.170572 0,-3.29097 2.62126,-6.02007 2.62125,-2.76923 6.74899,-2.76923 4.60983,0 7.71318,3.49164 3.10334,3.45151 3.10334,8.428103 0,9.471572 -9.76197,12.842811 z"
       id="path8116-9"
       style="font-style:normal;font-variant:normal;font-weight:normal;font-stretch:normal;font-size:medium;line-height:125%;font-family:'Bodoni MT';-inkscape-font-specification:'Bodoni MT';letter-spacing:0px;word-spacing:0px;fill:#ff0000;fill-opacity:1;stroke:none;stroke-width:1px;stroke-linecap:butt;stroke-linejoin:miter;stroke-opacity:1" />
    <path
       d="m 1218.2317,312.98629 v -0.16046 q -6.5985,-0.72247 -9.1292,-4.8161 -2.5309,-4.0535 -2.5309,-8.98994 0,-6.22081 3.9469,-10.7559 3.947,-4.53508 9.4908,-4.53508 4.3387,0 7.1707,3.09024 2.8324,3.09035 2.8324,6.78263 0,2.08697 -0.874,3.4917 -0.8737,1.44473 -2.1994,1.44473 -1.2352,0 -2.0788,-1.24406 -0.8437,-1.20405 -0.8437,-2.92979 0,-2.72911 1.627,-3.81272 1.0244,-0.60202 1.0244,-0.96326 0,-0.76248 -1.8681,-2.24743 -1.8981,-1.44484 -4.218,-1.44484 -7.3517,0 -7.3517,11.91973 0,8.5886 2.7116,11.19737 2.6816,2.60867 5.8753,2.60867 l 2.6213,-0.24079 q 1.4462,0 1.4462,1.28428 0,1.24416 -1.2353,1.24416 -0.3917,0 -1.8981,-0.20068 -1.5366,-0.20067 -1.5667,-0.20067 -0.9341,0 -2.7117,1.32439 -1.8078,1.32439 -2.6514,3.4916 -0.8737,2.20742 -0.8737,6.94318 0,6.30105 1.3256,8.38792 1.2955,2.12709 3.7361,2.12709 2.2296,0 3.7964,-1.20394 1.5666,-1.16394 1.5666,-2.16721 0,-0.44157 -1.1751,-1.32449 -1.205,-0.84282 -1.205,-2.96991 0,-1.48495 0.8737,-2.60867 0.8737,-1.0836 1.9583,-1.0836 1.2354,0 2.0489,1.36451 0.7834,1.3646 0.7834,3.17058 0,3.29102 -2.6213,6.02013 -2.6213,2.76923 -6.749,2.76923 -4.6098,0 -7.7132,-3.49169 -3.1032,-3.45149 -3.1032,-8.42804 0,-9.47162 9.7619,-12.84287 z"
       style="font-style:normal;font-variant:normal;font-weight:normal;font-stretch:normal;font-size:medium;line-height:125%;font-family:'Bodoni MT';-inkscape-font-specification:'Bodoni MT';letter-spacing:0px;word-spacing:0px;fill:#ff0000;fill-opacity:1;stroke:none;stroke-width:1px;stroke-linecap:butt;stroke-linejoin:miter;stroke-opacity:1"
       id="path8572-5"
       inkscape:connector-curvature="0" />
  </g>
</svg>
