<?xml version="1.0" encoding="UTF-8" standalone="no"?>
<!-- Created with Inkscape (http://www.inkscape.org/) -->

<svg
   id="svg10047"
   height="122.99405"
   width="79.010666"
   version="1.1"
   viewBox="0 0 79.010666 122.99405"
   inkscape:version="0.91 r13725"
   sodipodi:docname="ancient-french.svgz"
   xmlns:inkscape="http://www.inkscape.org/namespaces/inkscape"
   xmlns:sodipodi="http://sodipodi.sourceforge.net/DTD/sodipodi-0.dtd"
   xmlns="http://www.w3.org/2000/svg"
   xmlns:svg="http://www.w3.org/2000/svg"
   xmlns:rdf="http://www.w3.org/1999/02/22-rdf-syntax-ns#"
   xmlns:cc="http://creativecommons.org/ns#"
   xmlns:dc="http://purl.org/dc/elements/1.1/">
  <sodipodi:namedview
     pagecolor="#ffffff"
     bordercolor="#666666"
     borderopacity="1"
     objecttolerance="10"
     gridtolerance="10"
     guidetolerance="10"
     inkscape:pageopacity="0"
     inkscape:pageshadow="2"
     inkscape:window-width="1920"
     inkscape:window-height="1016"
     id="namedview1491"
     showgrid="false"
     inkscape:zoom="1.3479675"
     inkscape:cx="407.78528"
     inkscape:cy="307.5"
     inkscape:window-x="0"
     inkscape:window-y="0"
     inkscape:window-maximized="1"
     inkscape:current-layer="svg10047"
     showguides="true"
     inkscape:guide-bbox="true"
     inkscape:snap-grids="true"
     inkscape:showpageshadow="2"
     inkscape:pagecheckerboard="0"
     inkscape:deskcolor="#d1d1d1" />
  <metadata
     id="metadata16869">
    <rdf:RDF>
      <cc:Work
         rdf:about="">
        <dc:format>image/svg+xml</dc:format>
        <dc:type
           rdf:resource="http://purl.org/dc/dcmitype/StillImage" />
        <dc:title />
      </cc:Work>
    </rdf:RDF>
  </metadata>
  <defs
     id="defs10049" />
  <g
     transform="matrix(0.22311101,0,0,0.24589664,-557.94038,33.547058)"
     id="heart_7"
     inkscape:label="#heart_7">
    <rect
       transform="scale(-1)"
       style="fill:#ffffff;stroke:#000000;stroke-width:0.954565"
       id="rect142-3-7-5-9-2-7-8-0-6-5-8-9-7-2-0-9-3-3-3-6-5-1-3-2-6"
       y="-363.28122"
       x="-2854.3843"
       ry="27.734665"
       rx="29.458317"
       height="499.23141"
       width="353.17706" />
    <path
       inkscape:connector-curvature="0"
       id="path14594"
       d="m 2632.7789,-82.215735 c -0.049,22.549886 -29.2911,38.971566 -37.8653,56.829544 -8.6734,-17.810102 -37.9645,-34.088151 -38.1627,-56.638038 -0.05,-10.628609 8.4751,-19.294281 18.9326,-19.294281 10.5072,0 19.0814,8.569919 19.0814,19.198528 0,-10.676486 8.4751,-19.294278 18.9327,-19.294278 10.5071,-0.0479 19.0318,8.569916 19.0813,19.198525 z"
       style="fill:#e6180a" />
    <path
       inkscape:connector-curvature="0"
       id="path14590"
       d="m 2556.7508,309.54675 c 0.05,-22.54989 29.2911,-38.97157 37.8653,-56.82954 8.6734,17.8101 37.9645,34.08815 38.1627,56.63803 0.05,10.62861 -8.4751,19.29428 -18.9326,19.29428 -10.5072,0 -19.0814,-8.56991 -19.0814,-19.19852 0,10.67648 -8.4751,19.29427 -18.9327,19.29427 -10.5071,0.0479 -19.0318,-8.56991 -19.0813,-19.19852 z"
       style="fill:#e6180a" />
    <path
       inkscape:connector-curvature="0"
       id="path14586"
       d="m 2798.8407,-82.215735 c -0.05,22.549886 -29.2911,38.971566 -37.8653,56.829544 -8.6734,-17.810102 -37.9645,-34.088151 -38.1627,-56.638038 -0.05,-10.628609 8.4751,-19.294281 18.9326,-19.294281 10.5072,0 19.0814,8.569919 19.0814,19.198528 0,-10.676486 8.4751,-19.294278 18.9327,-19.294278 10.5071,-0.0479 19.0318,8.569916 19.0813,19.198525 z"
       style="fill:#e6180a" />
    <path
       inkscape:connector-curvature="0"
       id="path14582"
       d="m 2798.8407,94.85006 c -0.05,22.54989 -29.2911,38.97157 -37.8653,56.82954 -8.6734,-17.8101 -37.9645,-34.08815 -38.1627,-56.638034 -0.05,-10.628609 8.4751,-19.294277 18.9326,-19.294277 10.5072,0 19.0814,8.569915 19.0814,19.198524 0,-10.676486 8.4751,-19.294277 18.9327,-19.294277 10.5071,-0.04788 19.0318,8.569915 19.0813,19.198524 z"
       style="fill:#e6180a" />
    <path
       inkscape:connector-curvature="0"
       id="path14578"
       d="m 2722.8126,309.54671 c 0.049,-22.54989 29.2911,-38.97157 37.8653,-56.82954 8.6734,17.8101 37.9645,34.08815 38.1627,56.63803 0.05,10.62861 -8.4751,19.29428 -18.9326,19.29428 -10.5072,0 -19.0814,-8.56991 -19.0814,-19.19852 0,10.67648 -8.4751,19.29427 -18.9327,19.29427 -10.5071,0.0479 -19.0318,-8.56991 -19.0813,-19.19852 z"
       style="fill:#e6180a" />
    <path
       inkscape:connector-curvature="0"
       id="path14574"
       d="m 2715.8098,6.3171645 c -0.05,22.5498865 -29.2911,38.9715665 -37.8653,56.8295445 -8.6734,-17.810102 -37.9645,-34.088151 -38.1627,-56.638038 -0.05,-10.628609 8.4751,-19.294277 18.9326,-19.294277 10.5072,0 19.0814,8.5699148 19.0814,19.1985238 0,-10.6764856 8.4751,-19.2942768 18.9327,-19.2942768 10.5071,-0.04788 19.0318,8.5699145 19.0813,19.1985235 z"
       style="fill:#e6180a" />
    <path
       inkscape:connector-curvature="0"
       id="path14570"
       d="m 2548.7478,-38.310389 c -0.021,9.494689 -12.3331,16.40908 -15.9433,23.928229 -3.6519,-7.49899 -15.985,-14.352906 -16.0685,-23.847595 -0.021,-4.475204 3.5685,-8.123906 7.9716,-8.123906 4.4241,0 8.0343,3.608385 8.0343,8.083589 0,-4.495363 3.5685,-8.123906 7.9717,-8.123906 4.424,-0.02016 8.0133,3.608385 8.0342,8.083589 z"
       style="fill:#e6180a" />
    <path
       inkscape:connector-curvature="0"
       id="path14566"
       d="m 2806.8436,265.64126 c 0.021,-9.49469 12.3331,-16.40908 15.9433,-23.92823 3.6519,7.49899 15.985,14.35291 16.0685,23.8476 0.021,4.4752 -3.5685,8.1239 -7.9716,8.1239 -4.4241,0 -8.0343,-3.60838 -8.0343,-8.08359 0,4.49537 -3.5685,8.12391 -7.9717,8.12391 -4.424,0.0202 -8.0133,-3.60839 -8.0342,-8.08359 z"
       style="fill:#e6180a" />
    <path
       inkscape:connector-curvature="0"
       id="path14562"
       d="m 2632.7789,94.85006 c -0.049,22.54989 -29.2911,38.97157 -37.8653,56.82954 -8.6734,-17.8101 -37.9645,-34.08815 -38.1627,-56.638034 -0.05,-10.628609 8.4751,-19.294277 18.9326,-19.294277 10.5072,0 19.0814,8.569915 19.0814,19.198524 0,-10.676486 8.4751,-19.294277 18.9327,-19.294277 10.5071,-0.04788 19.0318,8.569915 19.0813,19.198524 z"
       style="fill:#e6180a" />
    <path
       inkscape:connector-curvature="0"
       d="m 2522.8635,-110.41782 h 21.4574 l -4.2609,13.882717 q -0.1532,0.775803 -2.115,7.063847 -1.9312,6.247223 -2.7282,10.33037 -0.797,4.042326 -0.797,6.778036 0,2.409064 0.8277,6.043066 0.8583,3.634001 0.8583,5.389752 0,1.633261 -0.889,3.1032 -0.8582,1.429105 -2.3603,1.429105 -1.7166,0 -2.8201,-1.796584 -1.0728,-1.796596 -1.0728,-4.736461 0,-3.062367 1.4407,-7.798817 l 9.9623,-32.093571 h -14.6216 q -2.1458,0 -2.7282,0.73497 -0.5517,0.69414 -1.2261,4.123982 l -0.4905,2.49072 h -1.5633 z"
       id="path8104-9"
       style="font-style:normal;font-variant:normal;font-weight:normal;font-stretch:normal;font-size:medium;line-height:125%;font-family:'Bodoni MT';-inkscape-font-specification:'Bodoni MT';letter-spacing:0px;word-spacing:0px;fill:#ff0000;fill-opacity:1;stroke:none;stroke-width:1px;stroke-linecap:butt;stroke-linejoin:miter;stroke-opacity:1" />
    <path
       d="m 2832.3415,337.74889 h -21.4572 l 4.2607,-13.88266 q 0.1534,-0.77579 2.1151,-7.06393 1.9312,-6.24722 2.7282,-10.33034 0.7969,-4.0423 0.7969,-6.77802 0,-2.40909 -0.8276,-6.04304 -0.8582,-3.63406 -0.8582,-5.38981 0,-1.63321 0.8889,-3.10315 0.8583,-1.42913 2.3603,-1.42913 1.7166,0 2.8201,1.79656 1.0729,1.79667 1.0729,4.73646 0,3.06244 -1.4407,7.79891 l -9.9623,32.09353 h 14.6216 q 2.1457,0 2.7281,-0.73497 0.5518,-0.69416 1.2261,-4.12404 l 0.4905,-2.49072 h 1.5634 z"
       style="font-style:normal;font-variant:normal;font-weight:normal;font-stretch:normal;font-size:medium;line-height:125%;font-family:'Bodoni MT';-inkscape-font-specification:'Bodoni MT';letter-spacing:0px;word-spacing:0px;fill:#ff0000;fill-opacity:1;stroke:none;stroke-width:1px;stroke-linecap:butt;stroke-linejoin:miter;stroke-opacity:1"
       id="path8560-6"
       inkscape:connector-curvature="0" />
  </g>
</svg>
