<?xml version="1.0" encoding="UTF-8" standalone="no"?>
<!-- Created with Inkscape (http://www.inkscape.org/) -->

<svg
   id="svg10047"
   height="122.99405"
   width="79.010666"
   version="1.1"
   viewBox="0 0 79.010666 122.99405"
   inkscape:version="0.91 r13725"
   sodipodi:docname="ancient-french.svgz"
   xmlns:inkscape="http://www.inkscape.org/namespaces/inkscape"
   xmlns:sodipodi="http://sodipodi.sourceforge.net/DTD/sodipodi-0.dtd"
   xmlns="http://www.w3.org/2000/svg"
   xmlns:svg="http://www.w3.org/2000/svg"
   xmlns:rdf="http://www.w3.org/1999/02/22-rdf-syntax-ns#"
   xmlns:cc="http://creativecommons.org/ns#"
   xmlns:dc="http://purl.org/dc/elements/1.1/">
  <sodipodi:namedview
     pagecolor="#ffffff"
     bordercolor="#666666"
     borderopacity="1"
     objecttolerance="10"
     gridtolerance="10"
     guidetolerance="10"
     inkscape:pageopacity="0"
     inkscape:pageshadow="2"
     inkscape:window-width="1920"
     inkscape:window-height="1016"
     id="namedview1491"
     showgrid="false"
     inkscape:zoom="1.3479675"
     inkscape:cx="407.78528"
     inkscape:cy="307.5"
     inkscape:window-x="0"
     inkscape:window-y="0"
     inkscape:window-maximized="1"
     inkscape:current-layer="svg10047"
     showguides="true"
     inkscape:guide-bbox="true"
     inkscape:snap-grids="true"
     inkscape:showpageshadow="2"
     inkscape:pagecheckerboard="0"
     inkscape:deskcolor="#d1d1d1" />
  <metadata
     id="metadata16869">
    <rdf:RDF>
      <cc:Work
         rdf:about="">
        <dc:format>image/svg+xml</dc:format>
        <dc:type
           rdf:resource="http://purl.org/dc/dcmitype/StillImage" />
        <dc:title />
      </cc:Work>
    </rdf:RDF>
  </metadata>
  <defs
     id="defs10049" />
  <g
     transform="matrix(0.22311101,0,0,0.24589664,-111.55239,33.547051)"
     id="heart_2"
     inkscape:label="#heart_2">
    <rect
       transform="scale(-1)"
       style="fill:#ffffff;stroke:#000000;stroke-width:0.954565"
       id="rect142-3-7-5-9-2-7-8-0-6-5-8-9-7-2-0-9-3-3-3-6-5-1-3-2-6-7-9-4-2"
       y="-363.28125"
       x="-853.64038"
       ry="27.734665"
       rx="29.458317"
       height="499.23141"
       width="353.17706" />
    <path
       inkscape:connector-curvature="0"
       id="path14714"
       d="m 715.06615,-82.215685 c -0.0496,22.549886 -29.29111,38.971566 -37.86533,56.829544 -8.67335,-17.810102 -37.96447,-34.088151 -38.16271,-56.638038 -0.0496,-10.628609 8.47509,-19.294281 18.93266,-19.294281 10.50714,0 19.08136,8.569919 19.08136,19.198528 0,-10.676486 8.4751,-19.294278 18.93267,-19.294278 10.50714,-0.0479 19.03179,8.569916 19.08135,19.198525 z"
       style="fill:#e6180a" />
    <path
       inkscape:connector-curvature="0"
       id="path14710"
       d="m 639.03785,310.54713 c 0.0496,-22.54989 29.29111,-38.97157 37.86533,-56.82954 8.67335,17.8101 37.96447,34.08815 38.16271,56.63803 0.0496,10.62861 -8.47509,19.29428 -18.93266,19.29428 -10.50714,0 -19.08136,-8.56991 -19.08136,-19.19852 0,10.67648 -8.4751,19.29427 -18.93267,19.29427 -10.50714,0.0479 -19.03179,-8.56991 -19.08135,-19.19852 z"
       style="fill:#e6180a" />
    <path
       inkscape:connector-curvature="0"
       id="path14706"
       d="m 548.00398,-38.310339 c -0.0209,9.494689 -12.3331,16.40908 -15.9433,23.928229 -3.65193,-7.49899 -15.98503,-14.352906 -16.0685,-23.847595 -0.0209,-4.475204 3.56846,-8.123906 7.97165,-8.123906 4.42405,0 8.03425,3.608385 8.03425,8.083589 0,-4.495363 3.56846,-8.123906 7.97165,-8.123906 4.42406,-0.02016 8.01339,3.608385 8.03425,8.083589 z"
       style="fill:#e6180a" />
    <path
       inkscape:connector-curvature="0"
       id="path14702"
       d="m 806.0998,265.64131 c 0.0209,-9.49469 12.3331,-16.40908 15.9433,-23.92823 3.65193,7.49899 15.98503,14.35291 16.0685,23.8476 0.0209,4.4752 -3.56846,8.1239 -7.97165,8.1239 -4.42405,0 -8.03425,-3.60838 -8.03425,-8.08359 0,4.49537 -3.56846,8.12391 -7.97165,8.12391 -4.42406,0.0202 -8.01339,-3.60839 -8.03425,-8.08359 z"
       style="fill:#e6180a" />
    <path
       inkscape:connector-curvature="0"
       d="m 544.05307,-71.615301 -1.01617,15.217505 h -23.09469 v -4.881087 q 3.60277,-5.373294 10.56198,-13.986982 6.98999,-8.613687 6.98999,-19.032141 0,-5.865504 -1.93996,-9.475044 -1.93995,-3.60955 -5.51193,-3.60955 -3.17167,0 -5.17321,2.70716 -2.00154,2.66614 -2.00154,5.783475 0,1.599687 0.55427,1.599687 0.12317,0 0.49269,-0.287127 1.01617,-0.90239 1.97075,-0.90239 1.20092,0 2.03233,1.271542 0.8622,1.230535 0.8622,2.912247 0,1.722742 -0.92379,2.994284 -0.92378,1.230523 -2.27868,1.230523 -1.90915,0 -3.17167,-2.173931 -1.2625,-2.214937 -1.2625,-5.496348 0,-5.004142 3.07929,-8.818762 3.11008,-3.85566 7.97537,-3.85566 4.7729,0 8.2217,3.52751 3.44881,3.52751 3.44881,9.228948 0,6.070592 -3.0485,11.115752 -3.0485,5.04516 -8.99153,12.387294 -5.91224,7.342146 -8.40647,10.951691 h 14.01078 q 3.9107,0 4.24943,-0.861371 0.36951,-0.861371 0.58506,-4.019716 l 0.27714,-3.527509 z"
       id="path8119-9"
       style="font-style:normal;font-variant:normal;font-weight:normal;font-stretch:normal;font-size:medium;line-height:125%;font-family:'Bodoni MT';-inkscape-font-specification:'Bodoni MT';letter-spacing:0px;word-spacing:0px;fill:#ff0000;fill-opacity:1;stroke:none;stroke-width:1px;stroke-linecap:butt;stroke-linejoin:miter;stroke-opacity:1" />
    <path
       d="m 810.08904,298.94626 1.0162,-15.21745 h 23.0947 v 4.88111 q -3.6027,5.3733 -10.562,13.9869 -6.99,8.61371 -6.99,19.03218 0,5.86548 1.94,9.47502 1.9399,3.60955 5.5119,3.60955 3.1717,0 5.1732,-2.70711 2.0015,-2.66619 2.0015,-5.78345 0,-1.5997 -0.5542,-1.5997 -0.1231,0 -0.4927,0.28711 -1.0162,0.90234 -1.9707,0.90234 -1.201,0 -2.0324,-1.27148 -0.8622,-1.23056 -0.8622,-2.91228 0,-1.72274 0.9238,-2.99431 0.9238,-1.23046 2.2787,-1.23046 1.9091,0 3.1717,2.17391 1.2625,2.21492 1.2625,5.49634 0,5.00416 -3.0793,8.81878 -3.1102,3.85563 -7.9754,3.85563 -4.7729,0 -8.2217,-3.52751 -3.4488,-3.52751 -3.4488,-9.22893 0,-6.07066 3.0484,-11.11573 3.0486,-5.04518 8.9916,-12.38731 5.9123,-7.34213 8.4065,-10.95167 h -14.0108 q -3.9107,0 -4.2494,0.86132 -0.3695,0.86142 -0.5851,4.01969 l -0.2771,3.52751 z"
       style="font-style:normal;font-variant:normal;font-weight:normal;font-stretch:normal;font-size:medium;line-height:125%;font-family:'Bodoni MT';-inkscape-font-specification:'Bodoni MT';letter-spacing:0px;word-spacing:0px;fill:#ff0000;fill-opacity:1;stroke:none;stroke-width:1px;stroke-linecap:butt;stroke-linejoin:miter;stroke-opacity:1"
       id="path8575-3"
       inkscape:connector-curvature="0" />
  </g>
</svg>
