<?xml version="1.0" encoding="UTF-8" standalone="no"?>
<!-- Created with Inkscape (http://www.inkscape.org/) -->

<svg
   id="svg10047"
   height="122.99405"
   width="79.010666"
   version="1.1"
   viewBox="0 0 79.010666 122.99405"
   inkscape:version="0.91 r13725"
   sodipodi:docname="ancient-french.svgz"
   xmlns:inkscape="http://www.inkscape.org/namespaces/inkscape"
   xmlns:sodipodi="http://sodipodi.sourceforge.net/DTD/sodipodi-0.dtd"
   xmlns="http://www.w3.org/2000/svg"
   xmlns:svg="http://www.w3.org/2000/svg"
   xmlns:rdf="http://www.w3.org/1999/02/22-rdf-syntax-ns#"
   xmlns:cc="http://creativecommons.org/ns#"
   xmlns:dc="http://purl.org/dc/elements/1.1/">
  <sodipodi:namedview
     pagecolor="#ffffff"
     bordercolor="#666666"
     borderopacity="1"
     objecttolerance="10"
     gridtolerance="10"
     guidetolerance="10"
     inkscape:pageopacity="0"
     inkscape:pageshadow="2"
     inkscape:window-width="1920"
     inkscape:window-height="1016"
     id="namedview1491"
     showgrid="false"
     inkscape:zoom="1.3479675"
     inkscape:cx="407.78528"
     inkscape:cy="307.5"
     inkscape:window-x="0"
     inkscape:window-y="0"
     inkscape:window-maximized="1"
     inkscape:current-layer="svg10047"
     showguides="true"
     inkscape:guide-bbox="true"
     inkscape:snap-grids="true"
     inkscape:showpageshadow="2"
     inkscape:pagecheckerboard="0"
     inkscape:deskcolor="#d1d1d1" />
  <metadata
     id="metadata16869">
    <rdf:RDF>
      <cc:Work
         rdf:about="">
        <dc:format>image/svg+xml</dc:format>
        <dc:type
           rdf:resource="http://purl.org/dc/dcmitype/StillImage" />
        <dc:title />
      </cc:Work>
    </rdf:RDF>
  </metadata>
  <defs
     id="defs10049" />
  <g
     transform="matrix(0.22311101,0,0,0.24589664,-22.274779,33.547081)"
     id="heart_1"
     inkscape:label="#heart_1">
    <rect
       width="353.17706"
       height="499.23141"
       rx="29.458317"
       ry="27.734665"
       x="-453.49155"
       y="-363.28113"
       id="rect142-3-7-5-9-2-7-8-0-6-5-8-9-7-2-0-9-3-3-3-6-5-1-3-2-6-7-9-4-5"
       style="fill:#ffffff;stroke:#000000;stroke-width:0.954565"
       transform="scale(-1)" />
    <path
       inkscape:connector-curvature="0"
       id="path14726"
       d="m 314.91705,94.84996 c -0.0496,22.54989 -29.29111,38.97157 -37.86533,56.82954 -8.67335,-17.8101 -37.96447,-34.08815 -38.16271,-56.638034 -0.0496,-10.628609 8.47509,-19.294277 18.93266,-19.294277 10.50714,0 19.08136,8.569915 19.08136,19.198524 0,-10.676486 8.4751,-19.294277 18.93267,-19.294277 10.50714,-0.04788 19.03179,8.569915 19.08135,19.198524 z"
       style="fill:#e6180a" />
    <path
       inkscape:connector-curvature="0"
       id="path14722"
       d="m 147.85508,-38.310489 c -0.0209,9.494689 -12.3331,16.40908 -15.9433,23.928229 -3.65193,-7.49899 -15.98503,-14.352906 -16.0685,-23.847595 -0.0209,-4.475204 3.56846,-8.123906 7.97165,-8.123906 4.42405,0 8.03425,3.608385 8.03425,8.083589 0,-4.495363 3.56846,-8.123906 7.97165,-8.123906 4.42406,-0.02016 8.01339,3.608385 8.03425,8.083589 z"
       style="fill:#e6180a" />
    <path
       inkscape:connector-curvature="0"
       id="path14718"
       d="m 405.95097,265.64116 c 0.0209,-9.49469 12.3331,-16.40908 15.9433,-23.92823 3.65193,7.49899 15.98503,14.35291 16.0685,23.8476 0.0209,4.4752 -3.56846,8.1239 -7.97165,8.1239 -4.42405,0 -8.03425,-3.60838 -8.03425,-8.08359 0,4.49537 -3.56846,8.12391 -7.97165,8.12391 -4.42406,0.0202 -8.01339,-3.60839 -8.03425,-8.08359 z"
       style="fill:#e6180a" />
    <path
       inkscape:connector-curvature="0"
       d="m 134.77841,-110.54921 v 51.928213 h 7.11316 v 2.091894 h -20.04619 v -2.091894 h 7.08237 v -48.154593 h -7.08237 v -2.09189 h 1.07775 q 6.74365,0 11.85528,-1.68173 z"
       id="path8122-4"
       style="font-style:normal;font-variant:normal;font-weight:normal;font-stretch:normal;font-size:medium;line-height:125%;font-family:'Bodoni MT';-inkscape-font-specification:'Bodoni MT';letter-spacing:0px;word-spacing:0px;fill:#ff0000;fill-opacity:1;stroke:none;stroke-width:1px;stroke-linecap:butt;stroke-linejoin:miter;stroke-opacity:1" />
    <path
       d="m 419.06644,337.74889 v -51.92821 h -7.1132 v -2.09187 h 20.0462 v 2.09187 h -7.0824 v 48.15461 h 7.0824 v 2.09188 h -1.0777 q -6.7437,0 -11.8553,1.68172 z"
       style="font-style:normal;font-variant:normal;font-weight:normal;font-stretch:normal;font-size:medium;line-height:125%;font-family:'Bodoni MT';-inkscape-font-specification:'Bodoni MT';letter-spacing:0px;word-spacing:0px;fill:#ff0000;fill-opacity:1;stroke:none;stroke-width:1px;stroke-linecap:butt;stroke-linejoin:miter;stroke-opacity:1"
       id="path8578-5"
       inkscape:connector-curvature="0" />
  </g>
</svg>
