<?xml version="1.0" encoding="UTF-8" standalone="no"?>
<!-- Created with Inkscape (http://www.inkscape.org/) -->

<svg
   id="svg10047"
   height="122.73891"
   width="79.005264"
   version="1.1"
   viewBox="0 0 79.005264 122.73891"
   inkscape:version="0.91 r13725"
   sodipodi:docname="ancient-french.svgz"
   xmlns:inkscape="http://www.inkscape.org/namespaces/inkscape"
   xmlns:sodipodi="http://sodipodi.sourceforge.net/DTD/sodipodi-0.dtd"
   xmlns="http://www.w3.org/2000/svg"
   xmlns:svg="http://www.w3.org/2000/svg"
   xmlns:rdf="http://www.w3.org/1999/02/22-rdf-syntax-ns#"
   xmlns:cc="http://creativecommons.org/ns#"
   xmlns:dc="http://purl.org/dc/elements/1.1/">
  <sodipodi:namedview
     pagecolor="#ffffff"
     bordercolor="#666666"
     borderopacity="1"
     objecttolerance="10"
     gridtolerance="10"
     guidetolerance="10"
     inkscape:pageopacity="0"
     inkscape:pageshadow="2"
     inkscape:window-width="1920"
     inkscape:window-height="1016"
     id="namedview1491"
     showgrid="false"
     inkscape:zoom="1.3479675"
     inkscape:cx="407.78528"
     inkscape:cy="307.5"
     inkscape:window-x="0"
     inkscape:window-y="0"
     inkscape:window-maximized="1"
     inkscape:current-layer="svg10047"
     showguides="true"
     inkscape:guide-bbox="true"
     inkscape:snap-grids="true"
     inkscape:showpageshadow="2"
     inkscape:pagecheckerboard="0"
     inkscape:deskcolor="#d1d1d1" />
  <metadata
     id="metadata16869">
    <rdf:RDF>
      <cc:Work
         rdf:about="">
        <dc:format>image/svg+xml</dc:format>
        <dc:type
           rdf:resource="http://purl.org/dc/dcmitype/StillImage" />
        <dc:title />
      </cc:Work>
    </rdf:RDF>
  </metadata>
  <defs
     id="defs10049" />
  <g
     transform="matrix(0.22309575,0,0,0.24538655,-22.273269,-408.3826)"
     id="spade_1"
     inkscape:label="#spade_1">
    <rect
       transform="scale(-1)"
       style="fill:#ffffff;stroke:#000000;stroke-width:0.954565"
       id="rect142-3-7-5-9-2-7-8-0-6-5-8-9-7-2-0-9-3-3-3-6-5-1-3-6-0-3-0-1-2-8"
       y="-2163.9507"
       x="-453.49161"
       ry="27.734665"
       rx="29.458317"
       height="499.23141"
       width="353.17706" />
    <path
       inkscape:connector-curvature="0"
       id="path15570"
       d="m 258.31233,1951.348 c 7.91998,0 12.09338,-8.5328 14.27493,-17.0656 2.18155,-8.5328 2.37125,-17.0656 2.37125,-17.0656 l 4.03113,-0.048 c 0,0 0.7588,34.1791 16.59876,34.1791 h -37.27607 z" />
    <path
       inkscape:connector-curvature="0"
       id="path15572"
       d="m 244.89104,1917.1689 c 0.0474,-16.6342 24.75587,-28.7144 32.0119,-41.8491 7.25603,13.1827 31.96448,25.2628 32.0119,41.8491 0,7.8617 -7.16118,14.2373 -16.02966,14.2373 -8.82106,0 -15.98224,-6.3756 -15.98224,-14.2373 0,7.8617 -7.16118,14.2373 -16.02966,14.2373 -8.86848,0 -15.98224,-6.3756 -15.98224,-14.2373 z" />
    <path
       inkscape:connector-curvature="0"
       id="path15564"
       d="m 429.79993,2042.3192 c -3.34125,0 -5.1019,3.5998 -6.02224,7.1995 -0.92035,3.5998 -1.00038,7.1996 -1.00038,7.1996 l -1.70063,0.02 c 0,0 -0.32012,-14.4193 -7.0026,-14.4193 h 15.72585 z" />
    <path
       inkscape:connector-curvature="0"
       id="path15566"
       d="m 435.46203,2056.7385 c -0.02,7.0176 -10.44388,12.1139 -13.50502,17.6551 -3.06114,-5.5614 -13.48501,-10.6578 -13.50502,-17.6551 0,-3.3166 3.02112,-6.0063 6.76251,-6.0063 3.72139,0 6.74251,2.6897 6.74251,6.0063 0,-3.3166 3.02112,-6.0063 6.76251,-6.0063 3.74139,0 6.74251,2.6897 6.74251,6.0063 z" />
    <path
       inkscape:connector-curvature="0"
       id="path15558"
       d="m 124.00637,1786.2867 c 3.34125,0 5.1019,-3.5998 6.02224,-7.1995 0.92035,-3.5998 1.00038,-7.1996 1.00038,-7.1996 l 1.70063,-0.02 c 0,0 0.32012,14.4193 7.0026,14.4193 h -15.72585 z" />
    <path
       inkscape:connector-curvature="0"
       id="path15560"
       d="m 118.34427,1771.8674 c 0.02,-7.0176 10.44388,-12.1139 13.50502,-17.6551 3.06114,5.5614 13.48501,10.6578 13.50502,17.6551 0,3.3166 -3.02112,6.0063 -6.76251,6.0063 -3.72139,0 -6.74251,-2.6897 -6.74251,-6.0063 0,3.3166 -3.02112,6.0063 -6.76251,6.0063 -3.74139,0 -6.74251,-2.6897 -6.74251,-6.0063 z" />
    <path
       d="m 419.0664,2138.4184 v -51.9282 h -7.11317 v -2.0919 h 20.04619 v 2.0919 h -7.08237 v 48.1546 h 7.08237 v 2.0919 h -1.07775 q -6.74365,0 -11.85527,1.6817 z"
       style="font-style:normal;font-variant:normal;font-weight:normal;font-stretch:normal;font-size:medium;line-height:125%;font-family:'Bodoni MT';-inkscape-font-specification:'Bodoni MT';letter-spacing:0px;word-spacing:0px;fill:#000000;fill-opacity:1;stroke:none;stroke-width:1px;stroke-linecap:butt;stroke-linejoin:miter;stroke-opacity:1"
       id="path8848"
       inkscape:connector-curvature="0" />
    <path
       d="m 134.77841,1690.2516 v 51.9282 h 7.11316 v 2.0918 h -20.0462 v -2.0918 h 7.08238 v -48.1547 h -7.08238 v -2.0918 h 1.07776 q 6.74365,0 11.85528,-1.6817 z"
       style="font-style:normal;font-variant:normal;font-weight:normal;font-stretch:normal;font-size:medium;line-height:125%;font-family:'Bodoni MT';-inkscape-font-specification:'Bodoni MT';letter-spacing:0px;word-spacing:0px;fill:#000000;fill-opacity:1;stroke:none;stroke-width:1px;stroke-linecap:butt;stroke-linejoin:miter;stroke-opacity:1"
       id="path8806"
       inkscape:connector-curvature="0" />
  </g>
</svg>
