<?xml version="1.0" encoding="UTF-8" standalone="no"?>
<!-- Created with Inkscape (http://www.inkscape.org/) -->

<svg
   id="svg10047"
   height="122.73891"
   width="79.005264"
   version="1.1"
   viewBox="0 0 79.005264 122.73891"
   inkscape:version="0.91 r13725"
   sodipodi:docname="ancient-french.svgz"
   xmlns:inkscape="http://www.inkscape.org/namespaces/inkscape"
   xmlns:sodipodi="http://sodipodi.sourceforge.net/DTD/sodipodi-0.dtd"
   xmlns="http://www.w3.org/2000/svg"
   xmlns:svg="http://www.w3.org/2000/svg"
   xmlns:rdf="http://www.w3.org/1999/02/22-rdf-syntax-ns#"
   xmlns:cc="http://creativecommons.org/ns#"
   xmlns:dc="http://purl.org/dc/elements/1.1/">
  <sodipodi:namedview
     pagecolor="#ffffff"
     bordercolor="#666666"
     borderopacity="1"
     objecttolerance="10"
     gridtolerance="10"
     guidetolerance="10"
     inkscape:pageopacity="0"
     inkscape:pageshadow="2"
     inkscape:window-width="1920"
     inkscape:window-height="1016"
     id="namedview1491"
     showgrid="false"
     inkscape:zoom="1.3479675"
     inkscape:cx="407.78528"
     inkscape:cy="307.5"
     inkscape:window-x="0"
     inkscape:window-y="0"
     inkscape:window-maximized="1"
     inkscape:current-layer="svg10047"
     showguides="true"
     inkscape:guide-bbox="true"
     inkscape:snap-grids="true"
     inkscape:showpageshadow="2"
     inkscape:pagecheckerboard="0"
     inkscape:deskcolor="#d1d1d1" />
  <metadata
     id="metadata16869">
    <rdf:RDF>
      <cc:Work
         rdf:about="">
        <dc:format>image/svg+xml</dc:format>
        <dc:type
           rdf:resource="http://purl.org/dc/dcmitype/StillImage" />
        <dc:title />
      </cc:Work>
    </rdf:RDF>
  </metadata>
  <defs
     id="defs10049" />
  <g
     transform="matrix(0.22309575,0,0,0.24538655,-290.08773,-408.3826)"
     id="spade_4"
     inkscape:label="#spade_4">
    <rect
       transform="scale(-1)"
       style="fill:#ffffff;stroke:#000000;stroke-width:0.954565"
       id="rect142-3-7-5-9-2-7-8-0-6-5-8-9-7-2-0-9-3-3-3-6-5-1-3-6-0-3-0-1-0"
       y="-2163.9507"
       x="-1653.9379"
       ry="27.734665"
       rx="29.458317"
       height="499.23141"
       width="353.17706" />
    <path
       inkscape:connector-curvature="0"
       id="path15498"
       d="m 1412.9091,2053.386 c -7.92,0 -12.0934,8.5328 -14.2749,17.0656 -2.1816,8.5328 -2.3713,17.0656 -2.3713,17.0656 l -4.0311,0.048 c 0,0 -0.7588,-34.1791 -16.5988,-34.1791 h 37.2761 z" />
    <path
       inkscape:connector-curvature="0"
       id="path15500"
       d="m 1426.3304,2087.5651 c -0.047,16.6342 -24.7559,28.7144 -32.0119,41.8491 -7.256,-13.1827 -31.9645,-25.2628 -32.0119,-41.8491 0,-7.8617 7.1612,-14.2373 16.0297,-14.2373 8.821,0 15.9822,6.3756 15.9822,14.2373 0,-7.8617 7.1612,-14.2373 16.0297,-14.2373 8.8684,0 15.9822,6.3756 15.9822,14.2373 z" />
    <path
       inkscape:connector-curvature="0"
       id="path15492"
       d="m 1578.9708,2053.386 c -7.92,0 -12.0934,8.5328 -14.2749,17.0656 -2.1816,8.5328 -2.3713,17.0656 -2.3713,17.0656 l -4.0311,0.048 c 0,0 -0.7588,-34.1791 -16.5988,-34.1791 h 37.2761 z" />
    <path
       inkscape:connector-curvature="0"
       id="path15494"
       d="m 1592.3921,2087.5651 c -0.047,16.6342 -24.7559,28.7144 -32.0119,41.8491 -7.256,-13.1827 -31.9645,-25.2628 -32.0119,-41.8491 0,-7.8617 7.1612,-14.2373 16.0297,-14.2373 8.821,0 15.9822,6.3756 15.9822,14.2373 0,-7.8617 7.1612,-14.2373 16.0297,-14.2373 8.8684,0 15.9822,6.3756 15.9822,14.2373 z" />
    <path
       inkscape:connector-curvature="0"
       id="path15486"
       d="m 1541.7897,1775.2825 c 7.92,0 12.0934,-8.5328 14.2749,-17.0656 2.1816,-8.5328 2.3713,-17.0656 2.3713,-17.0656 l 4.0311,-0.048 c 0,0 0.7588,34.1791 16.5988,34.1791 h -37.2761 z" />
    <path
       inkscape:connector-curvature="0"
       id="path15488"
       d="m 1528.3684,1741.1034 c 0.047,-16.6342 24.7559,-28.7144 32.0119,-41.8491 7.256,13.1827 31.9645,25.2628 32.0119,41.8491 0,7.8617 -7.1612,14.2373 -16.0297,14.2373 -8.821,0 -15.9822,-6.3756 -15.9822,-14.2373 0,7.8617 -7.1612,14.2373 -16.0297,14.2373 -8.8684,0 -15.9822,-6.3756 -15.9822,-14.2373 z" />
    <path
       inkscape:connector-curvature="0"
       id="path15480"
       d="m 1630.2463,2042.3194 c -3.3412,0 -5.1019,3.5998 -6.0222,7.1995 -0.9204,3.5998 -1.0004,7.1996 -1.0004,7.1996 l -1.7006,0.02 c 0,0 -0.3201,-14.4193 -7.0026,-14.4193 h 15.7258 z" />
    <path
       inkscape:connector-curvature="0"
       id="path15482"
       d="m 1635.9084,2056.7387 c -0.02,7.0176 -10.4439,12.1139 -13.505,17.6551 -3.0611,-5.5614 -13.485,-10.6578 -13.505,-17.6551 0,-3.3166 3.0211,-6.0063 6.7625,-6.0063 3.7214,0 6.7425,2.6897 6.7425,6.0063 0,-3.3166 3.0211,-6.0063 6.7625,-6.0063 3.7414,0 6.7425,2.6897 6.7425,6.0063 z" />
    <path
       inkscape:connector-curvature="0"
       id="path15474"
       d="m 1375.7277,1775.2826 c 7.92,0 12.0934,-8.5328 14.2749,-17.0656 2.1816,-8.5328 2.3713,-17.0656 2.3713,-17.0656 l 4.0311,-0.048 c 0,0 0.7588,34.1791 16.5988,34.1791 h -37.2761 z" />
    <path
       inkscape:connector-curvature="0"
       id="path15476"
       d="m 1362.3064,1741.1035 c 0.047,-16.6342 24.7559,-28.7144 32.0119,-41.8491 7.256,13.1827 31.9645,25.2628 32.0119,41.8491 0,7.8617 -7.1612,14.2373 -16.0297,14.2373 -8.821,0 -15.9822,-6.3756 -15.9822,-14.2373 0,7.8617 -7.1612,14.2373 -16.0297,14.2373 -8.8684,0 -15.9822,-6.3756 -15.9822,-14.2373 z" />
    <path
       inkscape:connector-curvature="0"
       id="path15468"
       d="m 1324.4526,1786.287 c 3.3412,0 5.1019,-3.5998 6.0222,-7.1995 0.9204,-3.5998 1.0004,-7.1996 1.0004,-7.1996 l 1.7006,-0.02 c 0,0 0.3201,14.4193 7.0026,14.4193 h -15.7258 z" />
    <path
       inkscape:connector-curvature="0"
       id="path15470"
       d="m 1318.7905,1771.8677 c 0.02,-7.0176 10.4439,-12.1139 13.505,-17.6551 3.0611,5.5614 13.485,10.6578 13.505,17.6551 0,3.3166 -3.0211,6.0063 -6.7625,6.0063 -3.7214,0 -6.7425,-2.6897 -6.7425,-6.0063 0,3.3166 -3.0211,6.0063 -6.7625,6.0063 -3.7414,0 -6.7425,-2.6897 -6.7425,-6.0063 z" />
    <path
       d="m 1615.0005,2138.4184 v -37.2849 h -5.1732 v 6.0296 h -1.5089 v -14.6843 h 1.5089 v 6.5217 h 5.1732 v -12.5103 h -4.6498 v -2.0919 h 15.8276 v 2.0919 h -5.2348 v 12.5103 h 14.5035 v 2.133 q -10.3772,25.8 -17.552,37.2849 z m 5.943,-37.2849 v 28.3842 h 0.1232 q 5.2656,-10.4185 12.5943,-28.3842 z"
       style="font-style:normal;font-variant:normal;font-weight:normal;font-stretch:normal;font-size:medium;line-height:125%;font-family:'Bodoni MT';-inkscape-font-specification:'Bodoni MT';letter-spacing:0px;word-spacing:0px;fill:#000000;fill-opacity:1;stroke:none;stroke-width:1px;stroke-linecap:butt;stroke-linejoin:miter;stroke-opacity:1"
       id="path8839"
       inkscape:connector-curvature="0" />
    <path
       d="m 1338.6571,1690.2516 v 37.2849 h 5.1732 v -6.0296 h 1.5088 v 14.6843 h -1.5088 v -6.5218 h -5.1732 v 12.5104 h 4.6497 v 2.0918 h -15.8275 v -2.0918 h 5.2348 v -12.5104 h -14.5035 v -2.1329 q 10.3772,-25.8001 17.552,-37.2849 z m -5.943,37.2849 v -28.3841 h -0.1232 q -5.2656,10.4185 -12.5943,28.3841 z"
       style="font-style:normal;font-variant:normal;font-weight:normal;font-stretch:normal;font-size:medium;line-height:125%;font-family:'Bodoni MT';-inkscape-font-specification:'Bodoni MT';letter-spacing:0px;word-spacing:0px;fill:#000000;fill-opacity:1;stroke:none;stroke-width:1px;stroke-linecap:butt;stroke-linejoin:miter;stroke-opacity:1"
       id="path8797"
       inkscape:connector-curvature="0" />
  </g>
</svg>
