<?xml version="1.0" encoding="UTF-8" standalone="no"?>
<!-- Created with Inkscape (http://www.inkscape.org/) -->

<svg
   id="svg10047"
   height="122.73891"
   width="79.005264"
   version="1.1"
   viewBox="0 0 79.005264 122.73891"
   inkscape:version="0.91 r13725"
   sodipodi:docname="ancient-french.svgz"
   xmlns:inkscape="http://www.inkscape.org/namespaces/inkscape"
   xmlns:sodipodi="http://sodipodi.sourceforge.net/DTD/sodipodi-0.dtd"
   xmlns="http://www.w3.org/2000/svg"
   xmlns:svg="http://www.w3.org/2000/svg"
   xmlns:rdf="http://www.w3.org/1999/02/22-rdf-syntax-ns#"
   xmlns:cc="http://creativecommons.org/ns#"
   xmlns:dc="http://purl.org/dc/elements/1.1/">
  <sodipodi:namedview
     pagecolor="#ffffff"
     bordercolor="#666666"
     borderopacity="1"
     objecttolerance="10"
     gridtolerance="10"
     guidetolerance="10"
     inkscape:pageopacity="0"
     inkscape:pageshadow="2"
     inkscape:window-width="1920"
     inkscape:window-height="1016"
     id="namedview1491"
     showgrid="false"
     inkscape:zoom="1.3479675"
     inkscape:cx="407.78528"
     inkscape:cy="307.5"
     inkscape:window-x="0"
     inkscape:window-y="0"
     inkscape:window-maximized="1"
     inkscape:current-layer="svg10047"
     showguides="true"
     inkscape:guide-bbox="true"
     inkscape:snap-grids="true"
     inkscape:showpageshadow="2"
     inkscape:pagecheckerboard="0"
     inkscape:deskcolor="#d1d1d1" />
  <metadata
     id="metadata16869">
    <rdf:RDF>
      <cc:Work
         rdf:about="">
        <dc:format>image/svg+xml</dc:format>
        <dc:type
           rdf:resource="http://purl.org/dc/dcmitype/StillImage" />
        <dc:title />
      </cc:Work>
    </rdf:RDF>
  </metadata>
  <defs
     id="defs10049" />
  <g
     transform="matrix(0.22309575,0,0,0.24538655,-111.54473,-408.3826)"
     id="spade_2"
     inkscape:label="#spade_2">
    <rect
       transform="scale(-1)"
       style="fill:#ffffff;stroke:#000000;stroke-width:0.954565"
       id="rect142-3-7-5-9-2-7-8-0-6-5-8-9-7-2-0-9-3-3-3-6-5-1-3-6-0-3-0-1-2-5"
       y="-2163.9507"
       x="-853.64026"
       ry="27.734665"
       rx="29.458317"
       height="499.23141"
       width="353.17706" />
    <path
       inkscape:connector-curvature="0"
       id="path15552"
       d="m 695.64227,2053.3856 c -7.91998,0 -12.09338,8.5328 -14.27493,17.0656 -2.18155,8.5328 -2.37125,17.0656 -2.37125,17.0656 l -4.03113,0.048 c 0,0 -0.7588,-34.1791 -16.59876,-34.1791 h 37.27607 z" />
    <path
       inkscape:connector-curvature="0"
       id="path15554"
       d="m 709.06356,2087.5647 c -0.0474,16.6342 -24.75587,28.7144 -32.0119,41.8491 -7.25603,-13.1827 -31.96448,-25.2628 -32.0119,-41.8491 0,-7.8617 7.16118,-14.2373 16.02966,-14.2373 8.82106,0 15.98224,6.3756 15.98224,14.2373 0,-7.8617 7.16118,-14.2373 16.02966,-14.2373 8.86848,0 15.98224,6.3756 15.98224,14.2373 z" />
    <path
       inkscape:connector-curvature="0"
       id="path15546"
       d="m 829.9487,2042.319 c -3.34125,0 -5.1019,3.5998 -6.02224,7.1995 -0.92035,3.5998 -1.00038,7.1996 -1.00038,7.1996 l -1.70063,0.02 c 0,0 -0.32012,-14.4193 -7.0026,-14.4193 h 15.72585 z" />
    <path
       inkscape:connector-curvature="0"
       id="path15548"
       d="m 835.6108,2056.7383 c -0.02,7.0176 -10.44388,12.1139 -13.50502,17.6551 -3.06114,-5.5614 -13.48501,-10.6578 -13.50502,-17.6551 0,-3.3166 3.02112,-6.0063 6.76251,-6.0063 3.72139,0 6.74251,2.6897 6.74251,6.0063 0,-3.3166 3.02112,-6.0063 6.76251,-6.0063 3.74139,0 6.74251,2.6897 6.74251,6.0063 z" />
    <path
       inkscape:connector-curvature="0"
       id="path15540"
       d="m 658.46123,1775.2822 c 7.91998,0 12.09338,-8.5328 14.27493,-17.0656 2.18155,-8.5328 2.37125,-17.0656 2.37125,-17.0656 l 4.03113,-0.048 c 0,0 0.7588,34.1791 16.59876,34.1791 h -37.27607 z" />
    <path
       inkscape:connector-curvature="0"
       id="path15542"
       d="m 645.03994,1741.1031 c 0.0474,-16.6342 24.75587,-28.7144 32.0119,-41.8491 7.25603,13.1827 31.96448,25.2628 32.0119,41.8491 0,7.8617 -7.16118,14.2373 -16.02966,14.2373 -8.82106,0 -15.98224,-6.3756 -15.98224,-14.2373 0,7.8617 -7.16118,14.2373 -16.02966,14.2373 -8.86848,0 -15.98224,-6.3756 -15.98224,-14.2373 z" />
    <path
       inkscape:connector-curvature="0"
       id="path15534"
       d="m 524.15507,1786.2866 c 3.34125,0 5.1019,-3.5998 6.02224,-7.1995 0.92035,-3.5998 1.00038,-7.1996 1.00038,-7.1996 l 1.70063,-0.02 c 0,0 0.32012,14.4193 7.0026,14.4193 h -15.72585 z" />
    <path
       inkscape:connector-curvature="0"
       id="path15536"
       d="m 518.49297,1771.8673 c 0.02,-7.0176 10.44388,-12.1139 13.50502,-17.6551 3.06114,5.5614 13.48501,10.6578 13.50502,17.6551 0,3.3166 -3.02112,6.0063 -6.76251,6.0063 -3.72139,0 -6.74251,-2.6897 -6.74251,-6.0063 0,3.3166 -3.02112,6.0063 -6.76251,6.0063 -3.74139,0 -6.74251,-2.6897 -6.74251,-6.0063 z" />
    <path
       d="m 810.08898,2099.6158 1.01616,-15.2175 h 23.09469 v 4.8811 q -3.60277,5.3733 -10.56197,13.9869 -6.99,8.6137 -6.99,19.0322 0,5.8656 1.93996,9.475 1.93996,3.6096 5.51193,3.6096 3.17167,0 5.17321,-2.7071 2.00154,-2.6662 2.00154,-5.7836 0,-1.5996 -0.55426,-1.5996 -0.12318,0 -0.4927,0.2871 -1.01616,0.9025 -1.97074,0.9025 -1.20093,0 -2.03233,-1.2717 -0.8622,-1.2305 -0.8622,-2.9122 0,-1.7227 0.92378,-2.9942 0.92379,-1.2305 2.27868,-1.2305 1.90916,0 3.17167,2.1739 1.26251,2.2149 1.26251,5.4963 0,5.0042 -3.07929,8.8188 -3.11009,3.8556 -7.97537,3.8556 -4.77291,0 -8.22171,-3.5275 -3.44881,-3.5275 -3.44881,-9.2289 0,-6.0707 3.0485,-11.1158 3.0485,-5.0452 8.99153,-12.3873 5.91224,-7.3422 8.40648,-10.9516 h -14.01079 q -3.9107,0 -4.24942,0.8613 -0.36952,0.8614 -0.58507,4.0197 l -0.27713,3.5275 z"
       style="font-style:normal;font-variant:normal;font-weight:normal;font-stretch:normal;font-size:medium;line-height:125%;font-family:'Bodoni MT';-inkscape-font-specification:'Bodoni MT';letter-spacing:0px;word-spacing:0px;fill:#000000;fill-opacity:1;stroke:none;stroke-width:1px;stroke-linecap:butt;stroke-linejoin:miter;stroke-opacity:1"
       id="path8845"
       inkscape:connector-curvature="0" />
    <path
       d="m 544.09199,1729.0542 -1.01616,15.2174 h -23.09469 v -4.8811 q 3.60277,-5.3732 10.56197,-13.9869 6.98999,-8.6137 6.98999,-19.0321 0,-5.8655 -1.93995,-9.4751 -1.93996,-3.6096 -5.51193,-3.6096 -3.17168,0 -5.17321,2.7072 -2.00154,2.6662 -2.00154,5.7835 0,1.5997 0.55427,1.5997 0.12317,0 0.49269,-0.2872 1.01616,-0.9023 1.97074,-0.9023 1.20093,0 2.03233,1.2715 0.8622,1.2306 0.8622,2.9123 0,1.7226 -0.92378,2.9943 -0.92379,1.2304 -2.27867,1.2304 -1.90917,0 -3.17167,-2.1738 -1.26252,-2.2151 -1.26252,-5.4964 0,-5.0041 3.07929,-8.8188 3.11009,-3.8556 7.97537,-3.8556 4.7729,0 8.22171,3.5275 3.44881,3.5275 3.44881,9.229 0,6.0705 -3.0485,11.1156 -3.0485,5.0452 -8.99153,12.3873 -5.91224,7.3422 -8.40647,10.9518 h 14.01078 q 3.9107,0 4.24942,-0.8615 0.36951,-0.8613 0.58507,-4.0196 l 0.27713,-3.5275 z"
       style="font-style:normal;font-variant:normal;font-weight:normal;font-stretch:normal;font-size:medium;line-height:125%;font-family:'Bodoni MT';-inkscape-font-specification:'Bodoni MT';letter-spacing:0px;word-spacing:0px;fill:#000000;fill-opacity:1;stroke:none;stroke-width:1px;stroke-linecap:butt;stroke-linejoin:miter;stroke-opacity:1"
       id="path8803"
       inkscape:connector-curvature="0" />
  </g>
</svg>
