<?xml version="1.0" encoding="UTF-8" standalone="no"?>
<!-- Created with Inkscape (http://www.inkscape.org/) -->

<svg
   id="svg10047"
   height="122.73891"
   width="79.005264"
   version="1.1"
   viewBox="0 0 79.005264 122.73891"
   inkscape:version="0.91 r13725"
   sodipodi:docname="ancient-french.svgz"
   xmlns:inkscape="http://www.inkscape.org/namespaces/inkscape"
   xmlns:sodipodi="http://sodipodi.sourceforge.net/DTD/sodipodi-0.dtd"
   xmlns="http://www.w3.org/2000/svg"
   xmlns:svg="http://www.w3.org/2000/svg"
   xmlns:rdf="http://www.w3.org/1999/02/22-rdf-syntax-ns#"
   xmlns:cc="http://creativecommons.org/ns#"
   xmlns:dc="http://purl.org/dc/elements/1.1/">
  <sodipodi:namedview
     pagecolor="#ffffff"
     bordercolor="#666666"
     borderopacity="1"
     objecttolerance="10"
     gridtolerance="10"
     guidetolerance="10"
     inkscape:pageopacity="0"
     inkscape:pageshadow="2"
     inkscape:window-width="1920"
     inkscape:window-height="1016"
     id="namedview1491"
     showgrid="false"
     inkscape:zoom="1.3479675"
     inkscape:cx="407.78528"
     inkscape:cy="307.5"
     inkscape:window-x="0"
     inkscape:window-y="0"
     inkscape:window-maximized="1"
     inkscape:current-layer="svg10047"
     showguides="true"
     inkscape:guide-bbox="true"
     inkscape:snap-grids="true"
     inkscape:showpageshadow="2"
     inkscape:pagecheckerboard="0"
     inkscape:deskcolor="#d1d1d1" />
  <metadata
     id="metadata16869">
    <rdf:RDF>
      <cc:Work
         rdf:about="">
        <dc:format>image/svg+xml</dc:format>
        <dc:type
           rdf:resource="http://purl.org/dc/dcmitype/StillImage" />
        <dc:title />
      </cc:Work>
    </rdf:RDF>
  </metadata>
  <defs
     id="defs10049" />
  <g
     transform="matrix(0.22309575,0,0,0.24538655,-379.35928,-408.3826)"
     id="spade_5"
     inkscape:label="#spade_5">
    <rect
       transform="scale(-1)"
       style="fill:#ffffff;stroke:#000000;stroke-width:0.954565"
       id="rect142-3-7-5-9-2-7-8-0-6-5-8-9-7-2-0-9-3-3-3-6-5-1-3-6-0-3-0-1"
       y="-2163.9507"
       x="-2054.0869"
       ry="27.734665"
       rx="29.458317"
       height="499.23141"
       width="353.17706" />
    <path
       inkscape:connector-curvature="0"
       id="path15462"
       d="m 1858.9074,1951.3481 c 7.92,0 12.0934,-8.5328 14.2749,-17.0656 2.1816,-8.5328 2.3713,-17.0656 2.3713,-17.0656 l 4.0311,-0.048 c 0,0 0.7588,34.1791 16.5988,34.1791 h -37.2761 z" />
    <path
       inkscape:connector-curvature="0"
       id="path15464"
       d="m 1845.4861,1917.169 c 0.047,-16.6342 24.7559,-28.7144 32.0119,-41.8491 7.256,13.1827 31.9645,25.2628 32.0119,41.8491 0,7.8617 -7.1612,14.2373 -16.0297,14.2373 -8.821,0 -15.9822,-6.3756 -15.9822,-14.2373 0,7.8617 -7.1612,14.2373 -16.0297,14.2373 -8.8684,0 -15.9822,-6.3756 -15.9822,-14.2373 z" />
    <path
       inkscape:connector-curvature="0"
       id="path15456"
       d="m 1813.0579,2053.3861 c -7.92,0 -12.0934,8.5328 -14.2749,17.0656 -2.1816,8.5328 -2.3713,17.0656 -2.3713,17.0656 l -4.0311,0.048 c 0,0 -0.7588,-34.1791 -16.5988,-34.1791 h 37.2761 z" />
    <path
       inkscape:connector-curvature="0"
       id="path15458"
       d="m 1826.4792,2087.5652 c -0.047,16.6342 -24.7559,28.7144 -32.0119,41.8491 -7.256,-13.1827 -31.9645,-25.2628 -32.0119,-41.8491 0,-7.8617 7.1612,-14.2373 16.0297,-14.2373 8.821,0 15.9822,6.3756 15.9822,14.2373 0,-7.8617 7.1612,-14.2373 16.0297,-14.2373 8.8684,0 15.9822,6.3756 15.9822,14.2373 z" />
    <path
       inkscape:connector-curvature="0"
       id="path15450"
       d="m 1979.1196,2053.3861 c -7.92,0 -12.0934,8.5328 -14.2749,17.0656 -2.1816,8.5328 -2.3713,17.0656 -2.3713,17.0656 l -4.0311,0.048 c 0,0 -0.7588,-34.1791 -16.5988,-34.1791 h 37.2761 z" />
    <path
       inkscape:connector-curvature="0"
       id="path15452"
       d="m 1992.5409,2087.5652 c -0.047,16.6342 -24.7559,28.7144 -32.0119,41.8491 -7.256,-13.1827 -31.9645,-25.2628 -32.0119,-41.8491 0,-7.8617 7.1612,-14.2373 16.0297,-14.2373 8.821,0 15.9822,6.3756 15.9822,14.2373 0,-7.8617 7.1612,-14.2373 16.0297,-14.2373 8.8684,0 15.9822,6.3756 15.9822,14.2373 z" />
    <path
       inkscape:connector-curvature="0"
       id="path15444"
       d="m 1941.9385,1775.2826 c 7.92,0 12.0934,-8.5328 14.2749,-17.0656 2.1816,-8.5328 2.3713,-17.0656 2.3713,-17.0656 l 4.0311,-0.048 c 0,0 0.7588,34.1791 16.5988,34.1791 h -37.2761 z" />
    <path
       inkscape:connector-curvature="0"
       id="path15446"
       d="m 1928.5172,1741.1035 c 0.047,-16.6342 24.7559,-28.7144 32.0119,-41.8491 7.256,13.1827 31.9645,25.2628 32.0119,41.8491 0,7.8617 -7.1612,14.2373 -16.0297,14.2373 -8.821,0 -15.9822,-6.3756 -15.9822,-14.2373 0,7.8617 -7.1612,14.2373 -16.0297,14.2373 -8.8684,0 -15.9822,-6.3756 -15.9822,-14.2373 z" />
    <path
       inkscape:connector-curvature="0"
       id="path15438"
       d="m 2030.3951,2042.3195 c -3.3412,0 -5.1019,3.5998 -6.0222,7.1995 -0.9204,3.5998 -1.0004,7.1996 -1.0004,7.1996 l -1.7006,0.02 c 0,0 -0.3201,-14.4193 -7.0026,-14.4193 h 15.7258 z" />
    <path
       inkscape:connector-curvature="0"
       id="path15440"
       d="m 2036.0572,2056.7388 c -0.02,7.0176 -10.4439,12.1139 -13.505,17.6551 -3.0611,-5.5614 -13.485,-10.6578 -13.505,-17.6551 0,-3.3166 3.0211,-6.0063 6.7625,-6.0063 3.7214,0 6.7425,2.6897 6.7425,6.0063 0,-3.3166 3.0211,-6.0063 6.7625,-6.0063 3.7414,0 6.7425,2.6897 6.7425,6.0063 z" />
    <path
       inkscape:connector-curvature="0"
       id="path15432"
       d="m 1775.8765,1775.2827 c 7.92,0 12.0934,-8.5328 14.2749,-17.0656 2.1816,-8.5328 2.3713,-17.0656 2.3713,-17.0656 l 4.0311,-0.048 c 0,0 0.7588,34.1791 16.5988,34.1791 h -37.2761 z" />
    <path
       inkscape:connector-curvature="0"
       id="path15434"
       d="m 1762.4552,1741.1036 c 0.047,-16.6342 24.7559,-28.7144 32.0119,-41.8491 7.256,13.1827 31.9645,25.2628 32.0119,41.8491 0,7.8617 -7.1612,14.2373 -16.0297,14.2373 -8.821,0 -15.9822,-6.3756 -15.9822,-14.2373 0,7.8617 -7.1612,14.2373 -16.0297,14.2373 -8.8684,0 -15.9822,-6.3756 -15.9822,-14.2373 z" />
    <path
       inkscape:connector-curvature="0"
       id="path15426"
       d="m 1724.6014,1786.287 c 3.3412,0 5.1019,-3.5998 6.0222,-7.1995 0.9204,-3.5998 1.0004,-7.1996 1.0004,-7.1996 l 1.7006,-0.02 c 0,0 0.3201,14.4193 7.0026,14.4193 h -15.7258 z" />
    <path
       inkscape:connector-curvature="0"
       id="path15428"
       d="m 1718.9393,1771.8677 c 0.02,-7.0176 10.4439,-12.1139 13.505,-17.6551 3.0611,5.5614 13.485,10.6578 13.505,17.6551 0,3.3166 -3.0211,6.0063 -6.7625,6.0063 -3.7214,0 -6.7425,-2.6897 -6.7425,-6.0063 0,3.3166 -3.0211,6.0063 -6.7625,6.0063 -3.7414,0 -6.7425,-2.6897 -6.7425,-6.0063 z" />
    <path
       d="m 2029.2615,2129.0575 0.4684,-14.6264 q -3.1037,1.2871 -6.0318,1.2871 -5.5341,0 -9.2236,-4.3294 -3.6894,-4.2904 -3.6894,-10.765 0,-6.8647 4.0115,-11.5451 4.0116,-4.6804 9.4871,-4.6804 4.5093,0 6.9104,3.0812 2.401,3.0813 2.401,7.0597 0,1.7552 -0.8199,3.0033 -0.8199,1.2481 -2.2546,1.2481 -1.1713,0 -1.9618,-1.0921 -0.7907,-1.0921 -0.7907,-2.7302 0,-2.8083 1.8741,-3.8614 0.7612,-0.429 0.7612,-0.8581 0,-1.0921 -1.5519,-2.3402 -1.5811,-1.2482 -3.9528,-1.2482 -7.6424,0 -7.6424,12.5983 0,14.3142 8.1694,14.3142 2.3717,0 3.7187,-0.936 1.3176,-0.8971 1.6105,-0.8971 0.5855,0 0.5563,1.5212 l -0.5563,15.7965 q -0.1465,4.7194 -0.8492,5.7726 -0.732,1.092 -4.3044,1.092 h -6.2954 q -2.8403,0 -3.543,0.3511 -0.7027,0.351 -1.0248,2.1452 h -1.2591 q 0.1757,-6.4746 1.4933,-7.9178 1.2884,-1.4431 4.4508,-1.4431 z"
       style="font-style:normal;font-variant:normal;font-weight:normal;font-stretch:normal;font-size:medium;line-height:125%;font-family:'Bodoni MT';-inkscape-font-specification:'Bodoni MT';letter-spacing:0px;word-spacing:0px;fill:#000000;fill-opacity:1;stroke:none;stroke-width:1px;stroke-linecap:butt;stroke-linejoin:miter;stroke-opacity:1"
       id="path8836"
       inkscape:connector-curvature="0" />
    <path
       d="m 1725.0108,1699.6128 -0.4685,14.6263 q 3.1038,-1.2871 6.0319,-1.2871 5.5342,0 9.2236,4.3295 3.6894,4.2904 3.6894,10.765 0,6.8646 -4.0116,11.5451 -4.0114,4.6804 -9.487,4.6804 -4.5092,0 -6.9103,-3.0813 -2.401,-3.0812 -2.401,-7.0597 0,-1.7551 0.8198,-3.0032 0.8198,-1.2482 2.2547,-1.2482 1.1712,0 1.9618,1.0922 0.7906,1.092 0.7906,2.7302 0,2.8083 -1.874,3.8614 -0.7613,0.429 -0.7613,0.858 0,1.0922 1.5519,2.3403 1.5812,1.2481 3.9529,1.2481 7.6424,0 7.6424,-12.5982 0,-14.3144 -8.1695,-14.3144 -2.3717,0 -3.7187,0.9362 -1.3176,0.8971 -1.6104,0.8971 -0.5857,0 -0.5564,-1.5212 l 0.5564,-15.7965 q 0.1464,-4.7194 0.8492,-5.7726 0.7319,-1.092 4.3043,-1.092 h 6.2954 q 2.8402,0 3.543,-0.3511 0.7028,-0.351 1.0248,-2.1452 h 1.2591 q -0.1757,6.4746 -1.4933,7.9178 -1.2884,1.4431 -4.4507,1.4431 z"
       style="font-style:normal;font-variant:normal;font-weight:normal;font-stretch:normal;font-size:medium;line-height:125%;font-family:'Bodoni MT';-inkscape-font-specification:'Bodoni MT';letter-spacing:0px;word-spacing:0px;fill:#000000;fill-opacity:1;stroke:none;stroke-width:1px;stroke-linecap:butt;stroke-linejoin:miter;stroke-opacity:1"
       id="path8794"
       inkscape:connector-curvature="0" />
  </g>
</svg>
