<?xml version="1.0" encoding="UTF-8" standalone="no"?>
<!-- Created with Inkscape (http://www.inkscape.org/) -->

<svg
   id="svg10047"
   height="122.73891"
   width="79.005264"
   version="1.1"
   viewBox="0 0 79.005264 122.73891"
   inkscape:version="0.91 r13725"
   sodipodi:docname="ancient-french.svgz"
   xmlns:inkscape="http://www.inkscape.org/namespaces/inkscape"
   xmlns:sodipodi="http://sodipodi.sourceforge.net/DTD/sodipodi-0.dtd"
   xmlns="http://www.w3.org/2000/svg"
   xmlns:svg="http://www.w3.org/2000/svg"
   xmlns:rdf="http://www.w3.org/1999/02/22-rdf-syntax-ns#"
   xmlns:cc="http://creativecommons.org/ns#"
   xmlns:dc="http://purl.org/dc/elements/1.1/">
  <sodipodi:namedview
     pagecolor="#ffffff"
     bordercolor="#666666"
     borderopacity="1"
     objecttolerance="10"
     gridtolerance="10"
     guidetolerance="10"
     inkscape:pageopacity="0"
     inkscape:pageshadow="2"
     inkscape:window-width="1920"
     inkscape:window-height="1016"
     id="namedview1491"
     showgrid="false"
     inkscape:zoom="1.3479675"
     inkscape:cx="407.78528"
     inkscape:cy="307.5"
     inkscape:window-x="0"
     inkscape:window-y="0"
     inkscape:window-maximized="1"
     inkscape:current-layer="svg10047"
     showguides="true"
     inkscape:guide-bbox="true"
     inkscape:snap-grids="true"
     inkscape:showpageshadow="2"
     inkscape:pagecheckerboard="0"
     inkscape:deskcolor="#d1d1d1" />
  <metadata
     id="metadata16869">
    <rdf:RDF>
      <cc:Work
         rdf:about="">
        <dc:format>image/svg+xml</dc:format>
        <dc:type
           rdf:resource="http://purl.org/dc/dcmitype/StillImage" />
        <dc:title />
      </cc:Work>
    </rdf:RDF>
  </metadata>
  <defs
     id="defs10049" />
  <g
     transform="matrix(0.22309575,0,0,0.24538655,-200.81623,-408.3826)"
     id="spade_3"
     inkscape:label="#spade_3">
    <rect
       transform="scale(-1)"
       style="fill:#ffffff;stroke:#000000;stroke-width:0.954565"
       id="rect142-3-7-5-9-2-7-8-0-6-5-8-9-7-2-0-9-3-3-3-6-5-1-3-6-0-3-0-1-2"
       y="-2163.9507"
       x="-1253.7891"
       ry="27.734665"
       rx="29.458317"
       height="499.23141"
       width="353.17706" />
    <path
       inkscape:connector-curvature="0"
       id="path15528"
       d="m 1058.6098,1951.3479 c 7.92,0 12.0934,-8.5328 14.2749,-17.0656 2.1816,-8.5328 2.3713,-17.0656 2.3713,-17.0656 l 4.0311,-0.048 c 0,0 0.7588,34.1791 16.5988,34.1791 h -37.2761 z" />
    <path
       inkscape:connector-curvature="0"
       id="path15530"
       d="m 1045.1885,1917.1688 c 0.047,-16.6342 24.7559,-28.7144 32.0119,-41.8491 7.256,13.1827 31.9645,25.2628 32.0119,41.8491 0,7.8617 -7.1612,14.2373 -16.0297,14.2373 -8.821,0 -15.9822,-6.3756 -15.9822,-14.2373 0,7.8617 -7.1612,14.2373 -16.0297,14.2373 -8.8684,0 -15.9822,-6.3756 -15.9822,-14.2373 z" />
    <path
       inkscape:connector-curvature="0"
       id="path15522"
       d="m 1095.7911,2053.3858 c -7.92,0 -12.0934,8.5328 -14.2749,17.0656 -2.1816,8.5328 -2.3713,17.0656 -2.3713,17.0656 l -4.0311,0.048 c 0,0 -0.7588,-34.1791 -16.5988,-34.1791 h 37.2761 z" />
    <path
       inkscape:connector-curvature="0"
       id="path15524"
       d="m 1109.2124,2087.5649 c -0.047,16.6342 -24.7559,28.7144 -32.0119,41.8491 -7.256,-13.1827 -31.9645,-25.2628 -32.0119,-41.8491 0,-7.8617 7.1612,-14.2373 16.0297,-14.2373 8.821,0 15.9822,6.3756 15.9822,14.2373 0,-7.8617 7.1612,-14.2373 16.0297,-14.2373 8.8684,0 15.9822,6.3756 15.9822,14.2373 z" />
    <path
       inkscape:connector-curvature="0"
       id="path15516"
       d="m 1230.0975,2042.3192 c -3.3412,0 -5.1019,3.5998 -6.0222,7.1995 -0.9204,3.5998 -1.0004,7.1996 -1.0004,7.1996 l -1.7006,0.02 c 0,0 -0.3201,-14.4193 -7.0026,-14.4193 h 15.7258 z" />
    <path
       inkscape:connector-curvature="0"
       id="path15518"
       d="m 1235.7596,2056.7385 c -0.02,7.0176 -10.4439,12.1139 -13.505,17.6551 -3.0611,-5.5614 -13.485,-10.6578 -13.505,-17.6551 0,-3.3166 3.0211,-6.0063 6.7625,-6.0063 3.7214,0 6.7425,2.6897 6.7425,6.0063 0,-3.3166 3.0211,-6.0063 6.7625,-6.0063 3.7414,0 6.7425,2.6897 6.7425,6.0063 z" />
    <path
       inkscape:connector-curvature="0"
       id="path15510"
       d="m 1058.61,1775.2824 c 7.92,0 12.0934,-8.5328 14.2749,-17.0656 2.1816,-8.5328 2.3713,-17.0656 2.3713,-17.0656 l 4.0311,-0.048 c 0,0 0.7588,34.1791 16.5988,34.1791 H 1058.61 Z" />
    <path
       inkscape:connector-curvature="0"
       id="path15512"
       d="m 1045.1887,1741.1033 c 0.047,-16.6342 24.7559,-28.7144 32.0119,-41.8491 7.256,13.1827 31.9645,25.2628 32.0119,41.8491 0,7.8617 -7.1612,14.2373 -16.0297,14.2373 -8.821,0 -15.9822,-6.3756 -15.9822,-14.2373 0,7.8617 -7.1612,14.2373 -16.0297,14.2373 -8.8684,0 -15.9822,-6.3756 -15.9822,-14.2373 z" />
    <path
       inkscape:connector-curvature="0"
       id="path15504"
       d="m 924.30377,1786.2867 c 3.34125,0 5.1019,-3.5998 6.02224,-7.1995 0.92035,-3.5998 1.00038,-7.1996 1.00038,-7.1996 l 1.70063,-0.02 c 0,0 0.32012,14.4193 7.0026,14.4193 h -15.72585 z" />
    <path
       inkscape:connector-curvature="0"
       id="path15506"
       d="m 918.64167,1771.8674 c 0.02,-7.0176 10.44388,-12.1139 13.50502,-17.6551 3.06114,5.5614 13.48501,10.6578 13.50502,17.6551 0,3.3166 -3.02112,6.0063 -6.76251,6.0063 -3.72139,0 -6.74251,-2.6897 -6.74251,-6.0063 0,3.3166 -3.02112,6.0063 -6.76251,6.0063 -3.74139,0 -6.74251,-2.6897 -6.74251,-6.0063 z" />
    <path
       d="m 1218.2317,2113.6557 v -0.1605 q -6.5984,-0.7224 -9.1292,-4.816 -2.5309,-4.0536 -2.5309,-8.99 0,-6.2208 3.947,-10.7559 3.9469,-4.5351 9.4907,-4.5351 4.3387,0 7.1708,3.0903 2.8323,3.0902 2.8323,6.7826 0,2.0869 -0.8739,3.4916 -0.8737,1.4449 -2.1994,1.4449 -1.2353,0 -2.0789,-1.2442 -0.8436,-1.204 -0.8436,-2.9298 0,-2.7291 1.627,-3.8127 1.0244,-0.602 1.0244,-0.9632 0,-0.7626 -1.8681,-2.2475 -1.8981,-1.4448 -4.2181,-1.4448 -7.3516,0 -7.3516,11.9197 0,8.5886 2.7116,11.1973 2.6816,2.6088 5.8753,2.6088 l 2.6212,-0.2408 q 1.4463,0 1.4463,1.2842 0,1.2442 -1.2354,1.2442 -0.3916,0 -1.8981,-0.2007 -1.5366,-0.2006 -1.5667,-0.2006 -0.934,0 -2.7117,1.3244 -1.8077,1.3243 -2.6514,3.4916 -0.8737,2.2074 -0.8737,6.9432 0,6.3009 1.3256,8.388 1.2956,2.127 3.7361,2.127 2.2296,0 3.7964,-1.204 1.5667,-1.1639 1.5667,-2.1672 0,-0.4415 -1.1751,-1.3245 -1.2051,-0.8428 -1.2051,-2.9698 0,-1.485 0.8737,-2.6088 0.8738,-1.0836 1.9584,-1.0836 1.2353,0 2.0488,1.3646 0.7834,1.3645 0.7834,3.1705 0,3.291 -2.6213,6.0201 -2.6212,2.7693 -6.749,2.7693 -4.6098,0 -7.7131,-3.4916 -3.1033,-3.4516 -3.1033,-8.4282 0,-9.4716 9.7619,-12.8428 z"
       style="font-style:normal;font-variant:normal;font-weight:normal;font-stretch:normal;font-size:medium;line-height:125%;font-family:'Bodoni MT';-inkscape-font-specification:'Bodoni MT';letter-spacing:0px;word-spacing:0px;fill:#000000;fill-opacity:1;stroke:none;stroke-width:1px;stroke-linecap:butt;stroke-linejoin:miter;stroke-opacity:1"
       id="path8842"
       inkscape:connector-curvature="0" />
    <path
       d="m 928.24438,1715.0143 v 0.1605 q 6.59841,0.7224 9.12929,4.8161 2.5308,4.0535 2.5308,8.99 0,6.2207 -3.94691,10.7558 -3.947,4.5351 -9.49078,4.5351 -4.33863,0 -7.17086,-3.0903 -2.83215,-3.0903 -2.83215,-6.7826 0,-2.0869 0.87381,-3.4916 0.87372,-1.4448 2.19938,-1.4448 1.23538,0 2.07895,1.2441 0.84366,1.204 0.84366,2.9297 0,2.7291 -1.62701,3.8128 -1.0244,0.602 -1.0244,0.9632 0,0.7625 1.86805,2.2475 1.89812,1.4448 4.21812,1.4448 7.3516,0 7.3516,-11.9197 0,-8.5887 -2.71171,-11.1974 -2.68147,-2.6087 -5.87518,-2.6087 l -2.62134,0.2409 q -1.44619,0 -1.44619,-1.2844 0,-1.2441 1.23529,-1.2441 0.39172,0 1.89821,0.2007 1.53655,0.2007 1.5667,0.2007 0.93403,0 2.71163,-1.3245 1.80783,-1.3244 2.6514,-3.4916 0.87381,-2.2073 0.87381,-6.9431 0,-6.3011 -1.32574,-8.388 -1.29551,-2.1271 -3.73603,-2.1271 -2.22962,0 -3.79632,1.204 -1.56671,1.1639 -1.56671,2.1673 0,0.4414 1.17499,1.3244 1.20522,0.8427 1.20522,2.9698 0,1.485 -0.87381,2.6087 -0.87372,1.0836 -1.95833,1.0836 -1.23538,0 -2.04888,-1.3645 -0.78336,-1.3646 -0.78336,-3.1706 0,-3.291 2.62126,-6.0201 2.62134,-2.7691 6.74899,-2.7691 4.60983,0 7.71318,3.4916 3.10334,3.4515 3.10334,8.428 0,9.4716 -9.76197,12.8429 z"
       style="font-style:normal;font-variant:normal;font-weight:normal;font-stretch:normal;font-size:medium;line-height:125%;font-family:'Bodoni MT';-inkscape-font-specification:'Bodoni MT';letter-spacing:0px;word-spacing:0px;fill:#000000;fill-opacity:1;stroke:none;stroke-width:1px;stroke-linecap:butt;stroke-linejoin:miter;stroke-opacity:1"
       id="path8800"
       inkscape:connector-curvature="0" />
  </g>
</svg>
