<?xml version="1.0" encoding="UTF-8" standalone="no"?>
<!-- Created with Inkscape (http://www.inkscape.org/) -->

<svg
   id="svg10047"
   height="122.73891"
   width="79.005264"
   version="1.1"
   viewBox="0 0 79.005264 122.73891"
   inkscape:version="0.91 r13725"
   sodipodi:docname="ancient-french.svgz"
   xmlns:inkscape="http://www.inkscape.org/namespaces/inkscape"
   xmlns:sodipodi="http://sodipodi.sourceforge.net/DTD/sodipodi-0.dtd"
   xmlns="http://www.w3.org/2000/svg"
   xmlns:svg="http://www.w3.org/2000/svg"
   xmlns:rdf="http://www.w3.org/1999/02/22-rdf-syntax-ns#"
   xmlns:cc="http://creativecommons.org/ns#"
   xmlns:dc="http://purl.org/dc/elements/1.1/">
  <sodipodi:namedview
     pagecolor="#ffffff"
     bordercolor="#666666"
     borderopacity="1"
     objecttolerance="10"
     gridtolerance="10"
     guidetolerance="10"
     inkscape:pageopacity="0"
     inkscape:pageshadow="2"
     inkscape:window-width="1920"
     inkscape:window-height="1016"
     id="namedview1491"
     showgrid="false"
     inkscape:zoom="1.3479675"
     inkscape:cx="407.78528"
     inkscape:cy="307.5"
     inkscape:window-x="0"
     inkscape:window-y="0"
     inkscape:window-maximized="1"
     inkscape:current-layer="svg10047"
     showguides="true"
     inkscape:guide-bbox="true"
     inkscape:snap-grids="true"
     inkscape:showpageshadow="2"
     inkscape:pagecheckerboard="0"
     inkscape:deskcolor="#d1d1d1" />
  <metadata
     id="metadata16869">
    <rdf:RDF>
      <cc:Work
         rdf:about="">
        <dc:format>image/svg+xml</dc:format>
        <dc:type
           rdf:resource="http://purl.org/dc/dcmitype/StillImage" />
        <dc:title />
      </cc:Work>
    </rdf:RDF>
  </metadata>
  <defs
     id="defs10049" />
  <g
     transform="matrix(0.22309575,0,0,0.24538655,-468.63075,-408.3826)"
     id="spade_6"
     inkscape:label="#spade_6">
    <rect
       transform="scale(-1)"
       style="fill:#ffffff;stroke:#000000;stroke-width:0.954565"
       id="rect142-3-7-5-9-2-7-8-0-6-5-8-9-7-2-0-9-3-3-3-6-5-1-3-6-0-3-0"
       y="-2163.9507"
       x="-2454.2356"
       ry="27.734665"
       rx="29.458317"
       height="499.23141"
       width="353.17706" />
    <path
       inkscape:connector-curvature="0"
       id="path15420"
       d="m 2176.0255,1951.3481 c 7.92,0 12.0934,-8.5328 14.2749,-17.0656 2.1816,-8.5328 2.3713,-17.0656 2.3713,-17.0656 l 4.0311,-0.048 c 0,0 0.7588,34.1791 16.5988,34.1791 h -37.2761 z" />
    <path
       inkscape:connector-curvature="0"
       id="path15422"
       d="m 2162.6042,1917.169 c 0.047,-16.6342 24.7559,-28.7144 32.0119,-41.8491 7.256,13.1827 31.9645,25.2628 32.0119,41.8491 0,7.8617 -7.1612,14.2373 -16.0297,14.2373 -8.821,0 -15.9822,-6.3756 -15.9822,-14.2373 0,7.8617 -7.1612,14.2373 -16.0297,14.2373 -8.8684,0 -15.9822,-6.3756 -15.9822,-14.2373 z" />
    <path
       inkscape:connector-curvature="0"
       id="path15414"
       d="m 2213.2067,2053.3863 c -7.92,0 -12.0934,8.5328 -14.2749,17.0656 -2.1816,8.5328 -2.3713,17.0656 -2.3713,17.0656 l -4.0311,0.048 c 0,0 -0.7588,-34.1791 -16.5988,-34.1791 h 37.2761 z" />
    <path
       inkscape:connector-curvature="0"
       id="path15416"
       d="m 2226.628,2087.5654 c -0.047,16.6342 -24.7559,28.7144 -32.0119,41.8491 -7.256,-13.1827 -31.9645,-25.2628 -32.0119,-41.8491 0,-7.8617 7.1612,-14.2373 16.0297,-14.2373 8.821,0 15.9822,6.3756 15.9822,14.2373 0,-7.8617 7.1612,-14.2373 16.0297,-14.2373 8.8684,0 15.9822,6.3756 15.9822,14.2373 z" />
    <path
       inkscape:connector-curvature="0"
       id="path15408"
       d="m 2342.0873,1952.3486 c 7.92,0 12.0934,-8.5328 14.2749,-17.0656 2.1816,-8.5328 2.3713,-17.0656 2.3713,-17.0656 l 4.0311,-0.048 c 0,0 0.7588,34.1791 16.5988,34.1791 h -37.2761 z" />
    <path
       inkscape:connector-curvature="0"
       id="path15410"
       d="m 2328.666,1918.1695 c 0.047,-16.6342 24.7559,-28.7144 32.0119,-41.8491 7.256,13.1827 31.9645,25.2628 32.0119,41.8491 0,7.8617 -7.1612,14.2373 -16.0297,14.2373 -8.821,0 -15.9822,-6.3756 -15.9822,-14.2373 0,7.8617 -7.1612,14.2373 -16.0297,14.2373 -8.8684,0 -15.9822,-6.3756 -15.9822,-14.2373 z" />
    <path
       inkscape:connector-curvature="0"
       id="path15402"
       d="m 2379.2685,2053.3863 c -7.92,0 -12.0934,8.5328 -14.2749,17.0656 -2.1816,8.5328 -2.3713,17.0656 -2.3713,17.0656 l -4.0311,0.048 c 0,0 -0.7588,-34.1791 -16.5988,-34.1791 h 37.2761 z" />
    <path
       inkscape:connector-curvature="0"
       id="path15404"
       d="m 2392.6898,2087.5654 c -0.047,16.6342 -24.7559,28.7144 -32.0119,41.8491 -7.256,-13.1827 -31.9645,-25.2628 -32.0119,-41.8491 0,-7.8617 7.1612,-14.2373 16.0297,-14.2373 8.821,0 15.9822,6.3756 15.9822,14.2373 0,-7.8617 7.1612,-14.2373 16.0297,-14.2373 8.8684,0 15.9822,6.3756 15.9822,14.2373 z" />
    <path
       inkscape:connector-curvature="0"
       id="path15396"
       d="m 2342.0872,1775.2827 c 7.92,0 12.0934,-8.5328 14.2749,-17.0656 2.1816,-8.5328 2.3713,-17.0656 2.3713,-17.0656 l 4.0311,-0.048 c 0,0 0.7588,34.1791 16.5988,34.1791 h -37.2761 z" />
    <path
       inkscape:connector-curvature="0"
       id="path15398"
       d="m 2328.6659,1741.1036 c 0.047,-16.6342 24.7559,-28.7144 32.0119,-41.8491 7.256,13.1827 31.9645,25.2628 32.0119,41.8491 0,7.8617 -7.1612,14.2373 -16.0297,14.2373 -8.821,0 -15.9822,-6.3756 -15.9822,-14.2373 0,7.8617 -7.1612,14.2373 -16.0297,14.2373 -8.8684,0 -15.9822,-6.3756 -15.9822,-14.2373 z" />
    <path
       inkscape:connector-curvature="0"
       id="path15390"
       d="m 2430.5438,2042.3196 c -3.3412,0 -5.1019,3.5998 -6.0222,7.1995 -0.9204,3.5998 -1.0004,7.1996 -1.0004,7.1996 l -1.7006,0.02 c 0,0 -0.3201,-14.4193 -7.0026,-14.4193 h 15.7258 z" />
    <path
       inkscape:connector-curvature="0"
       id="path15392"
       d="m 2436.2059,2056.7389 c -0.02,7.0176 -10.4439,12.1139 -13.505,17.6551 -3.0611,-5.5614 -13.485,-10.6578 -13.505,-17.6551 0,-3.3166 3.0211,-6.0063 6.7625,-6.0063 3.7214,0 6.7425,2.6897 6.7425,6.0063 0,-3.3166 3.0211,-6.0063 6.7625,-6.0063 3.7414,0 6.7425,2.6897 6.7425,6.0063 z" />
    <path
       inkscape:connector-curvature="0"
       id="path15384"
       d="m 2176.0253,1775.2828 c 7.92,0 12.0934,-8.5328 14.2749,-17.0656 2.1816,-8.5328 2.3713,-17.0656 2.3713,-17.0656 l 4.0311,-0.048 c 0,0 0.7588,34.1791 16.5988,34.1791 h -37.2761 z" />
    <path
       inkscape:connector-curvature="0"
       id="path15386"
       d="m 2162.604,1741.1037 c 0.047,-16.6342 24.7559,-28.7144 32.0119,-41.8491 7.256,13.1827 31.9645,25.2628 32.0119,41.8491 0,7.8617 -7.1612,14.2373 -16.0297,14.2373 -8.821,0 -15.9822,-6.3756 -15.9822,-14.2373 0,7.8617 -7.1612,14.2373 -16.0297,14.2373 -8.8684,0 -15.9822,-6.3756 -15.9822,-14.2373 z" />
    <path
       inkscape:connector-curvature="0"
       id="path15378"
       d="m 2124.7501,1786.2871 c 3.3412,0 5.1019,-3.5998 6.0222,-7.1995 0.9204,-3.5998 1.0004,-7.1996 1.0004,-7.1996 l 1.7006,-0.02 c 0,0 0.3201,14.4193 7.0026,14.4193 h -15.7258 z" />
    <path
       inkscape:connector-curvature="0"
       id="path15380"
       d="m 2119.088,1771.8678 c 0.02,-7.0176 10.4439,-12.1139 13.505,-17.6551 3.0611,5.5614 13.485,10.6578 13.505,17.6551 0,3.3166 -3.0211,6.0063 -6.7625,6.0063 -3.7214,0 -6.7425,-2.6897 -6.7425,-6.0063 0,3.3166 -3.0211,6.0063 -6.7625,6.0063 -3.7414,0 -6.7425,-2.6897 -6.7425,-6.0063 z" />
    <path
       d="m 2413.4289,2138.4184 v -2.4183 q 13.3522,-2.1842 14.8748,-20.906 l -0.1172,-0.1559 q -2.6937,4.1343 -6.4124,4.1343 -4.5094,0 -7.7596,-4.9924 -3.2795,-4.9535 -3.2795,-11.5451 0,-7.0987 3.5431,-12.6372 3.5137,-5.4995 8.4036,-5.4995 5.3292,0 8.8429,6.2796 3.5138,6.3186 3.5138,15.8744 0,12.6763 -6.0905,21.5301 -6.1197,8.8929 -15.519,10.336 z m 15.1969,-26.9126 0.1756,-6.9037 q 0,-14.2753 -2.1668,-16.3035 -2.1668,-1.9891 -3.9529,-1.9891 -2.7524,0 -4.2164,3.0813 -1.4933,3.1202 -1.4933,12.6762 0,10.1018 1.3761,12.5981 1.3469,2.4962 3.8359,2.4962 3.4551,0 6.4418,-5.6555 z"
       style="font-style:normal;font-variant:normal;font-weight:normal;font-stretch:normal;font-size:medium;line-height:125%;font-family:'Bodoni MT';-inkscape-font-specification:'Bodoni MT';letter-spacing:0px;word-spacing:0px;fill:#000000;fill-opacity:1;stroke:none;stroke-width:1px;stroke-linecap:butt;stroke-linejoin:miter;stroke-opacity:1"
       id="path8833"
       inkscape:connector-curvature="0" />
    <path
       d="m 2142.2368,1690.2519 v 2.4183 q -13.3522,2.1842 -14.8748,20.9059 l 0.1171,0.156 q 2.6939,-4.1344 6.4125,-4.1344 4.5094,0 7.7596,4.9925 3.2795,4.9535 3.2795,11.5451 0,7.0987 -3.5431,12.6372 -3.5137,5.4995 -8.4036,5.4995 -5.3292,0 -8.8429,-6.2796 -3.5138,-6.3186 -3.5138,-15.8745 0,-12.6762 6.0905,-21.53 6.1197,-8.8929 15.519,-10.336 z m -15.1969,26.9125 -0.1757,6.9038 q 0,14.2752 2.1668,16.3035 2.1668,1.9891 3.953,1.9891 2.7524,0 4.2164,-3.0813 1.4933,-3.1202 1.4933,-12.6762 0,-10.1019 -1.3761,-12.5981 -1.347,-2.4963 -3.8359,-2.4963 -3.4552,0 -6.4418,5.6555 z"
       style="font-style:normal;font-variant:normal;font-weight:normal;font-stretch:normal;font-size:medium;line-height:125%;font-family:'Bodoni MT';-inkscape-font-specification:'Bodoni MT';letter-spacing:0px;word-spacing:0px;fill:#000000;fill-opacity:1;stroke:none;stroke-width:1px;stroke-linecap:butt;stroke-linejoin:miter;stroke-opacity:1"
       id="path8791"
       inkscape:connector-curvature="0" />
  </g>
</svg>
