<?xml version="1.0" encoding="UTF-8" standalone="no"?>
<!-- Created with Inkscape (http://www.inkscape.org/) -->

<svg
   id="svg10047"
   height="122.73891"
   width="79.005264"
   version="1.1"
   viewBox="0 0 79.005264 122.73891"
   inkscape:version="0.91 r13725"
   sodipodi:docname="ancient-french.svgz"
   xmlns:inkscape="http://www.inkscape.org/namespaces/inkscape"
   xmlns:sodipodi="http://sodipodi.sourceforge.net/DTD/sodipodi-0.dtd"
   xmlns="http://www.w3.org/2000/svg"
   xmlns:svg="http://www.w3.org/2000/svg"
   xmlns:rdf="http://www.w3.org/1999/02/22-rdf-syntax-ns#"
   xmlns:cc="http://creativecommons.org/ns#"
   xmlns:dc="http://purl.org/dc/elements/1.1/">
  <sodipodi:namedview
     pagecolor="#ffffff"
     bordercolor="#666666"
     borderopacity="1"
     objecttolerance="10"
     gridtolerance="10"
     guidetolerance="10"
     inkscape:pageopacity="0"
     inkscape:pageshadow="2"
     inkscape:window-width="1920"
     inkscape:window-height="1016"
     id="namedview1491"
     showgrid="false"
     inkscape:zoom="1.3479675"
     inkscape:cx="407.78528"
     inkscape:cy="307.5"
     inkscape:window-x="0"
     inkscape:window-y="0"
     inkscape:window-maximized="1"
     inkscape:current-layer="svg10047"
     showguides="true"
     inkscape:guide-bbox="true"
     inkscape:snap-grids="true"
     inkscape:showpageshadow="2"
     inkscape:pagecheckerboard="0"
     inkscape:deskcolor="#d1d1d1" />
  <metadata
     id="metadata16869">
    <rdf:RDF>
      <cc:Work
         rdf:about="">
        <dc:format>image/svg+xml</dc:format>
        <dc:type
           rdf:resource="http://purl.org/dc/dcmitype/StillImage" />
        <dc:title />
      </cc:Work>
    </rdf:RDF>
  </metadata>
  <defs
     id="defs10049" />
  <g
     transform="matrix(0.22309575,0,0,0.24538655,-557.90222,-408.3826)"
     id="spade_7"
     inkscape:label="#spade_7">
    <rect
       transform="scale(-1)"
       style="fill:#ffffff;stroke:#000000;stroke-width:0.954565"
       id="rect142-3-7-5-9-2-7-8-0-6-5-8-9-7-2-0-9-3-3-3-6-5-1-3-6-0-3"
       y="-2163.9507"
       x="-2854.3843"
       ry="27.734665"
       rx="29.458317"
       height="499.23141"
       width="353.17706" />
    <path
       inkscape:connector-curvature="0"
       id="path15372"
       d="m 2576.1741,1951.3483 c 7.92,0 12.0934,-8.5328 14.2749,-17.0656 2.1816,-8.5328 2.3713,-17.0656 2.3713,-17.0656 l 4.0311,-0.048 c 0,0 0.7588,34.1791 16.5988,34.1791 h -37.2761 z" />
    <path
       inkscape:connector-curvature="0"
       id="path15374"
       d="m 2562.7528,1917.1692 c 0.047,-16.6342 24.7559,-28.7144 32.0119,-41.8491 7.256,13.1827 31.9645,25.2628 32.0119,41.8491 0,7.8617 -7.1612,14.2373 -16.0297,14.2373 -8.821,0 -15.9822,-6.3756 -15.9822,-14.2373 0,7.8617 -7.1612,14.2373 -16.0297,14.2373 -8.8684,0 -15.9822,-6.3756 -15.9822,-14.2373 z" />
    <path
       inkscape:connector-curvature="0"
       id="path15366"
       d="m 2613.3555,2053.3866 c -7.92,0 -12.0934,8.5328 -14.2749,17.0656 -2.1816,8.5328 -2.3713,17.0656 -2.3713,17.0656 l -4.0311,0.048 c 0,0 -0.7588,-34.1791 -16.5988,-34.1791 h 37.2761 z" />
    <path
       inkscape:connector-curvature="0"
       id="path15368"
       d="m 2626.7768,2087.5657 c -0.047,16.6342 -24.7559,28.7144 -32.0119,41.8491 -7.256,-13.1827 -31.9645,-25.2628 -32.0119,-41.8491 0,-7.8617 7.1612,-14.2373 16.0297,-14.2373 8.821,0 15.9822,6.3756 15.9822,14.2373 0,-7.8617 7.1612,-14.2373 16.0297,-14.2373 8.8684,0 15.9822,6.3756 15.9822,14.2373 z" />
    <path
       inkscape:connector-curvature="0"
       id="path15360"
       d="m 2742.2359,1952.3489 c 7.92,0 12.0934,-8.5328 14.2749,-17.0656 2.1816,-8.5328 2.3713,-17.0656 2.3713,-17.0656 l 4.0311,-0.048 c 0,0 0.7588,34.1791 16.5988,34.1791 h -37.2761 z" />
    <path
       inkscape:connector-curvature="0"
       id="path15362"
       d="m 2728.8146,1918.1698 c 0.047,-16.6342 24.7559,-28.7144 32.0119,-41.8491 7.256,13.1827 31.9645,25.2628 32.0119,41.8491 0,7.8617 -7.1612,14.2373 -16.0297,14.2373 -8.821,0 -15.9822,-6.3756 -15.9822,-14.2373 0,7.8617 -7.1612,14.2373 -16.0297,14.2373 -8.8684,0 -15.9822,-6.3756 -15.9822,-14.2373 z" />
    <path
       inkscape:connector-curvature="0"
       id="path15354"
       d="m 2779.4172,2053.3866 c -7.92,0 -12.0934,8.5328 -14.2749,17.0656 -2.1816,8.5328 -2.3713,17.0656 -2.3713,17.0656 l -4.0311,0.048 c 0,0 -0.7588,-34.1791 -16.5988,-34.1791 h 37.2761 z" />
    <path
       inkscape:connector-curvature="0"
       id="path15356"
       d="m 2792.8385,2087.5657 c -0.047,16.6342 -24.7559,28.7144 -32.0119,41.8491 -7.256,-13.1827 -31.9645,-25.2628 -32.0119,-41.8491 0,-7.8617 7.1612,-14.2373 16.0297,-14.2373 8.821,0 15.9822,6.3756 15.9822,14.2373 0,-7.8617 7.1612,-14.2373 16.0297,-14.2373 8.8684,0 15.9822,6.3756 15.9822,14.2373 z" />
    <path
       inkscape:connector-curvature="0"
       id="path15348"
       d="m 2742.2358,1775.283 c 7.92,0 12.0934,-8.5328 14.2749,-17.0656 2.1816,-8.5328 2.3713,-17.0656 2.3713,-17.0656 l 4.0311,-0.048 c 0,0 0.7588,34.1791 16.5988,34.1791 h -37.2761 z" />
    <path
       inkscape:connector-curvature="0"
       id="path15350"
       d="m 2728.8145,1741.1039 c 0.047,-16.6342 24.7559,-28.7144 32.0119,-41.8491 7.256,13.1827 31.9645,25.2628 32.0119,41.8491 0,7.8617 -7.1612,14.2373 -16.0297,14.2373 -8.821,0 -15.9822,-6.3756 -15.9822,-14.2373 0,7.8617 -7.1612,14.2373 -16.0297,14.2373 -8.8684,0 -15.9822,-6.3756 -15.9822,-14.2373 z" />
    <path
       inkscape:connector-curvature="0"
       id="path15342"
       d="m 2659.2049,1863.8161 c 7.92,0 12.0934,-8.5328 14.2749,-17.0656 2.1816,-8.5328 2.3713,-17.0656 2.3713,-17.0656 l 4.0311,-0.048 c 0,0 0.7588,34.1791 16.5988,34.1791 h -37.2761 z" />
    <path
       inkscape:connector-curvature="0"
       id="path15344"
       d="m 2645.7836,1829.637 c 0.047,-16.6342 24.7559,-28.7144 32.0119,-41.8491 7.256,13.1827 31.9645,25.2628 32.0119,41.8491 0,7.8617 -7.1612,14.2373 -16.0297,14.2373 -8.821,0 -15.9822,-6.3756 -15.9822,-14.2373 0,7.8617 -7.1612,14.2373 -16.0297,14.2373 -8.8684,0 -15.9822,-6.3756 -15.9822,-14.2373 z" />
    <path
       inkscape:connector-curvature="0"
       id="path15336"
       d="m 2830.6924,2042.3199 c -3.3412,0 -5.1019,3.5998 -6.0222,7.1995 -0.9204,3.5998 -1.0004,7.1996 -1.0004,7.1996 l -1.7006,0.02 c 0,0 -0.3201,-14.4193 -7.0026,-14.4193 h 15.7258 z" />
    <path
       inkscape:connector-curvature="0"
       id="path15338"
       d="m 2836.3545,2056.7392 c -0.02,7.0176 -10.4439,12.1139 -13.505,17.6551 -3.0611,-5.5614 -13.485,-10.6578 -13.505,-17.6551 0,-3.3166 3.0211,-6.0063 6.7625,-6.0063 3.7214,0 6.7425,2.6897 6.7425,6.0063 0,-3.3166 3.0211,-6.0063 6.7625,-6.0063 3.7414,0 6.7425,2.6897 6.7425,6.0063 z" />
    <path
       inkscape:connector-curvature="0"
       id="path15330"
       d="m 2576.1739,1775.2831 c 7.92,0 12.0934,-8.5328 14.2749,-17.0656 2.1816,-8.5328 2.3713,-17.0656 2.3713,-17.0656 l 4.0311,-0.048 c 0,0 0.7588,34.1791 16.5988,34.1791 h -37.2761 z" />
    <path
       inkscape:connector-curvature="0"
       id="path15332"
       d="m 2562.7526,1741.104 c 0.047,-16.6342 24.7559,-28.7144 32.0119,-41.8491 7.256,13.1827 31.9645,25.2628 32.0119,41.8491 0,7.8617 -7.1612,14.2373 -16.0297,14.2373 -8.821,0 -15.9822,-6.3756 -15.9822,-14.2373 0,7.8617 -7.1612,14.2373 -16.0297,14.2373 -8.8684,0 -15.9822,-6.3756 -15.9822,-14.2373 z" />
    <path
       inkscape:connector-curvature="0"
       id="path15324"
       d="m 2524.8987,1786.2873 c 3.3412,0 5.1019,-3.5998 6.0222,-7.1995 0.9204,-3.5998 1.0004,-7.1996 1.0004,-7.1996 l 1.7006,-0.02 c 0,0 0.3201,14.4193 7.0026,14.4193 h -15.7258 z" />
    <path
       inkscape:connector-curvature="0"
       id="path15326"
       d="m 2519.2366,1771.868 c 0.02,-7.0176 10.4439,-12.1139 13.505,-17.6551 3.0611,5.5614 13.485,10.6578 13.505,17.6551 0,3.3166 -3.0211,6.0063 -6.7625,6.0063 -3.7214,0 -6.7425,-2.6897 -6.7425,-6.0063 0,3.3166 -3.0211,6.0063 -6.7625,6.0063 -3.7414,0 -6.7425,-2.6897 -6.7425,-6.0063 z" />
    <path
       d="m 2832.3415,2138.4183 h -21.4574 l 4.2609,-13.8827 q 0.1532,-0.7758 2.115,-7.0638 1.9312,-6.2473 2.7282,-10.3304 0.797,-4.0423 0.797,-6.7781 0,-2.409 -0.8277,-6.0431 -0.8583,-3.6339 -0.8583,-5.3897 0,-1.6332 0.889,-3.1031 0.8583,-1.4292 2.3603,-1.4292 1.7166,0 2.8201,1.7966 1.0728,1.7966 1.0728,4.7364 0,3.0624 -1.4407,7.7989 l -9.9623,32.0936 h 14.6216 q 2.1458,0 2.7282,-0.735 0.5517,-0.6942 1.2261,-4.124 l 0.4905,-2.4907 h 1.5633 z"
       style="font-style:normal;font-variant:normal;font-weight:normal;font-stretch:normal;font-size:medium;line-height:125%;font-family:'Bodoni MT';-inkscape-font-specification:'Bodoni MT';letter-spacing:0px;word-spacing:0px;fill:#000000;fill-opacity:1;stroke:none;stroke-width:1px;stroke-linecap:butt;stroke-linejoin:miter;stroke-opacity:1"
       id="path8830"
       inkscape:connector-curvature="0" />
    <path
       d="m 2523.9029,1690.2517 h 21.4572 l -4.2607,13.8827 q -0.1533,0.7758 -2.1151,7.0638 -1.9312,6.2473 -2.7281,10.3304 -0.797,4.0424 -0.797,6.778 0,2.4091 0.8276,6.0431 0.8583,3.6341 0.8583,5.3897 0,1.6333 -0.8889,3.1033 -0.8583,1.4291 -2.3603,1.4291 -1.7166,0 -2.8201,-1.7966 -1.0729,-1.7966 -1.0729,-4.7365 0,-3.0624 1.4407,-7.7988 l 9.9623,-32.0935 h -14.6216 q -2.1457,0 -2.7281,0.7349 -0.5518,0.6941 -1.2262,4.124 l -0.4904,2.4907 h -1.5633 z"
       style="font-style:normal;font-variant:normal;font-weight:normal;font-stretch:normal;font-size:medium;line-height:125%;font-family:'Bodoni MT';-inkscape-font-specification:'Bodoni MT';letter-spacing:0px;word-spacing:0px;fill:#000000;fill-opacity:1;stroke:none;stroke-width:1px;stroke-linecap:butt;stroke-linejoin:miter;stroke-opacity:1"
       id="path8788"
       inkscape:connector-curvature="0" />
  </g>
</svg>
