<?xml version="1.0" encoding="UTF-8" standalone="no"?>
<!-- Created with Inkscape (http://www.inkscape.org/) -->

<svg
   id="svg10047"
   height="122.99902"
   width="78.995674"
   version="1.1"
   viewBox="0 0 78.995674 122.99902"
   inkscape:version="0.91 r13725"
   sodipodi:docname="baroque.svgz"
   xmlns:inkscape="http://www.inkscape.org/namespaces/inkscape"
   xmlns:sodipodi="http://sodipodi.sourceforge.net/DTD/sodipodi-0.dtd"
   xmlns="http://www.w3.org/2000/svg"
   xmlns:svg="http://www.w3.org/2000/svg"
   xmlns:rdf="http://www.w3.org/1999/02/22-rdf-syntax-ns#"
   xmlns:cc="http://creativecommons.org/ns#"
   xmlns:dc="http://purl.org/dc/elements/1.1/">
  <sodipodi:namedview
     pagecolor="#ffffff"
     bordercolor="#666666"
     borderopacity="1"
     objecttolerance="10"
     gridtolerance="10"
     guidetolerance="10"
     inkscape:pageopacity="0"
     inkscape:pageshadow="2"
     inkscape:window-width="1920"
     inkscape:window-height="1016"
     id="namedview1491"
     showgrid="false"
     inkscape:zoom="1.3479675"
     inkscape:cx="513.5"
     inkscape:cy="307.5"
     inkscape:window-x="0"
     inkscape:window-y="0"
     inkscape:window-maximized="1"
     inkscape:current-layer="svg10047"
     showguides="false"
     inkscape:guide-bbox="true"
     inkscape:snap-grids="false"
     inkscape:snap-to-guides="false"
     inkscape:showpageshadow="2"
     inkscape:pagecheckerboard="0"
     inkscape:deskcolor="#d1d1d1">
    <inkscape:grid
       type="xygrid"
       id="grid11817"
       originx="-474"
       originy="0.00088984608"
       spacingy="1"
       spacingx="1"
       units="px"
       visible="false" />
  </sodipodi:namedview>
  <metadata
     id="metadata16869">
    <rdf:RDF>
      <cc:Work
         rdf:about="">
        <dc:format>image/svg+xml</dc:format>
        <dc:type
           rdf:resource="http://purl.org/dc/dcmitype/StillImage" />
        <dc:title />
      </cc:Work>
    </rdf:RDF>
  </metadata>
  <defs
     id="defs10049" />
  <g
     transform="matrix(0.20787944,0,0,0.21133905,-582.06246,-317.00682)"
     id="club_7"
     inkscape:label="#club_7">
    <rect
       style="fill:#ffffff;stroke:#000000;stroke-width:0.631597"
       id="rect6336"
       y="1500.3075"
       x="2800.3159"
       ry="32.297684"
       rx="31.643513"
       height="581.36694"
       width="379.37555" />
    <path
       style="fill:#000000;fill-opacity:1;stroke:#fffecd;stroke-width:0.0806888;stroke-miterlimit:4;stroke-dasharray:none;stroke-opacity:1"
       d="m 2827.0831,1579.1347 c 0,-2.735 0.09,-2.818 3.13,-2.818 h 3.13 l 0.541,-4.761 c 0.853,-7.506 3.473,-15.88 7.802,-24.931 2.197,-4.596 3.995,-8.491 3.995,-8.656 0,-0.164 -3.82,-0.299 -8.49,-0.299 h -8.491 v 3.221 c 0,3.144 -0.07,3.22 -2.83,3.22 h -2.83 v -6.038 -6.039 h 14.959 14.96 v 1.951 c 0,1.073 -1.432,4.606 -3.182,7.85 -5.342,9.904 -9.756,23.923 -9.756,30.988 0,3.457 0.03,3.494 2.83,3.494 2.696,0 2.83,0.135 2.83,2.818 v 2.818 h -9.299 -9.299 z"
       id="path6340"
       inkscape:connector-curvature="0" />
    <path
       style="fill:#0f0f0f"
       d="m 2834.1931,1629.2187 c 0.428,-0.97 1.057,-3.04 1.396,-4.58 0.34,-1.55 0.739,-3.311 0.887,-3.911 0.372,-1.51 -0.989,-1.4 -2.199,0.17 -1.521,1.981 -6.109,3.321 -8.635,2.521 -4.59,-1.461 -6.752,-5.611 -5.08,-9.762 1.982,-4.93 7.006,-6.41 12.534,-3.71 1.246,0.61 1.204,-0.64 -0.132,-3.901 -1.266,-3.09 -1.397,-8.191 -0.276,-10.741 2.52,-5.741 8.103,-5.741 10.623,0 1.12,2.55 0.989,7.651 -0.276,10.741 -1.336,3.261 -1.379,4.511 -0.132,3.901 5.528,-2.7 10.552,-1.22 12.534,3.71 1.672,4.151 -0.49,8.301 -5.08,9.762 -2.526,0.8 -7.114,-0.54 -8.635,-2.521 -1.21,-1.57 -2.571,-1.68 -2.199,-0.17 0.148,0.6 0.547,2.361 0.886,3.911 0.34,1.54 0.968,3.61 1.397,4.58 l 0.779,1.781 -1.762,-0.491 c -0.97,-0.27 -2.24,-3.4 -2.823,-3.4 -0.583,0 -1.853,3.13 -2.823,3.4 l -1.763,0.491 z"
       id="path6342"
       inkscape:connector-curvature="0"
       sodipodi:nodetypes="csccssccssscssscscccsccc" />
    <path
       style="fill:#0f0f0f"
       d="m 3058.8011,1630.3477 c 1.036,-2.004 2.555,-6.236 3.375,-9.405 0.821,-3.168 1.785,-6.769 2.142,-8.001 0.899,-3.096 -2.389,-2.879 -5.313,0.35 -3.677,4.06 -14.764,6.799 -20.87,5.156 -11.091,-2.985 -16.317,-11.503 -12.277,-20.012 4.791,-10.091 16.931,-13.135 30.291,-7.595 3.013,1.25 2.91,-1.322 -0.32,-8.003 -3.058,-6.325 -3.374,-16.784 -0.666,-22.018 6.09,-11.77 19.582,-11.77 25.672,0 2.709,5.234 2.392,15.693 -0.666,22.018 -3.23,6.681 -3.333,9.253 -0.32,8.003 13.36,-5.54 25.5,-2.496 30.291,7.595 4.041,8.509 -1.185,17.027 -12.277,20.012 -6.106,1.643 -17.193,-1.096 -20.869,-5.156 -2.924,-3.229 -6.213,-3.446 -5.314,-0.35 0.358,1.232 1.322,4.833 2.142,8.001 0.82,3.169 2.339,7.401 3.375,9.405 l 1.884,3.644 -4.26,-1.011 c -2.343,-0.556 -5.413,-1.01 -6.822,-1.01 -1.409,0 -4.479,0.454 -6.822,1.01 l -4.26,1.011 z"
       id="path6344"
       inkscape:connector-curvature="0" />
    <path
       style="fill:#0f0f0f"
       d="m 3077.1981,1951.6357 c -1.037,2.004 -2.555,6.236 -3.376,9.405 -0.82,3.168 -1.784,6.769 -2.142,8.001 -0.899,3.096 2.39,2.879 5.314,-0.349 3.676,-4.061 14.763,-6.8 20.869,-5.157 11.092,2.985 16.318,11.503 12.277,20.012 -4.791,10.091 -16.931,13.135 -30.291,7.595 -3.013,-1.25 -2.91,1.322 0.321,8.004 3.057,6.324 3.374,16.783 0.666,22.017 -6.091,11.771 -19.583,11.771 -25.673,0 -2.708,-5.234 -2.392,-15.693 0.666,-22.017 3.23,-6.682 3.333,-9.254 0.32,-8.004 -13.36,5.54 -25.5,2.496 -30.291,-7.595 -4.04,-8.509 1.186,-17.027 12.277,-20.012 6.106,-1.643 17.193,1.096 20.87,5.157 2.924,3.228 6.213,3.445 5.314,0.349 -0.358,-1.232 -1.322,-4.833 -2.143,-8.001 -0.82,-3.169 -2.339,-7.401 -3.375,-9.405 l -1.884,-3.644 4.26,1.011 c 2.343,0.556 5.413,1.01 6.822,1.01 1.409,0 4.48,-0.454 6.822,-1.01 l 4.26,-1.011 z"
       id="path6346"
       inkscape:connector-curvature="0" />
    <path
       style="fill:#0f0f0f"
       d="m 3058.8011,1828.3467 c 1.036,-2.004 2.555,-6.236 3.375,-9.405 0.821,-3.169 1.785,-6.769 2.142,-8.001 0.9,-3.096 -2.389,-2.879 -5.313,0.349 -3.677,4.061 -14.764,6.8 -20.87,5.157 -11.091,-2.985 -16.317,-11.503 -12.277,-20.012 4.792,-10.091 16.931,-13.135 30.291,-7.595 3.013,1.25 2.91,-1.322 -0.32,-8.003 -3.058,-6.325 -3.374,-16.784 -0.666,-22.018 6.09,-11.77 19.582,-11.77 25.673,0 2.708,5.234 2.391,15.693 -0.667,22.018 -3.23,6.681 -3.333,9.253 -0.32,8.003 13.36,-5.54 25.5,-2.496 30.292,7.595 4.04,8.509 -1.186,17.027 -12.278,20.012 -6.106,1.643 -17.193,-1.096 -20.869,-5.157 -2.924,-3.228 -6.213,-3.445 -5.314,-0.349 0.358,1.232 1.322,4.832 2.142,8.001 0.82,3.169 2.339,7.401 3.376,9.405 l 1.883,3.644 -4.259,-1.011 c -2.344,-0.556 -5.414,-1.011 -6.823,-1.011 -1.409,0 -4.479,0.455 -6.822,1.011 l -4.26,1.011 z"
       id="path6348"
       inkscape:connector-curvature="0" />
    <path
       inkscape:connector-curvature="0"
       id="path6350"
       d="m 2980.8011,1729.3537 c 1.036,-2.01 2.555,-6.24 3.375,-9.41 0.821,-3.17 1.785,-6.77 2.142,-8 0.9,-3.1 -2.389,-2.88 -5.313,0.35 -3.677,4.06 -14.764,6.8 -20.87,5.16 -11.091,-2.99 -16.317,-11.51 -12.277,-20.01 4.791,-10.1 16.931,-13.14 30.291,-7.6 3.013,1.25 2.91,-1.32 -0.32,-8 -3.058,-6.33 -3.374,-16.79 -0.666,-22.02 6.09,-11.77 19.582,-11.77 25.673,0 2.708,5.23 2.391,15.69 -0.667,22.02 -3.23,6.68 -3.333,9.25 -0.32,8 13.36,-5.54 25.5,-2.5 30.291,7.6 4.041,8.5 -1.185,17.02 -12.277,20.01 -6.106,1.64 -17.193,-1.1 -20.869,-5.16 -2.924,-3.23 -6.213,-3.45 -5.314,-0.35 0.358,1.23 1.322,4.83 2.142,8 0.82,3.17 2.339,7.4 3.376,9.41 l 1.883,3.64 -4.259,-1.01 c -2.344,-0.56 -5.414,-1.01 -6.823,-1.01 -1.409,0 -4.479,0.45 -6.822,1.01 l -4.26,1.01 z"
       style="fill:#0f0f0f" />
    <path
       style="fill:#0f0f0f"
       d="m 2902.8011,1630.3477 c 1.036,-2.004 2.555,-6.236 3.375,-9.405 0.821,-3.168 1.785,-6.769 2.142,-8.001 0.899,-3.096 -2.389,-2.879 -5.313,0.35 -3.677,4.06 -14.764,6.799 -20.87,5.156 -11.092,-2.985 -16.317,-11.503 -12.277,-20.012 4.791,-10.091 16.931,-13.135 30.291,-7.595 3.013,1.25 2.91,-1.322 -0.32,-8.003 -3.058,-6.325 -3.374,-16.784 -0.666,-22.018 6.09,-11.77 19.582,-11.77 25.672,0 2.708,5.234 2.392,15.693 -0.666,22.018 -3.23,6.681 -3.333,9.253 -0.32,8.003 13.36,-5.54 25.5,-2.496 30.291,7.595 4.041,8.509 -1.185,17.027 -12.277,20.012 -6.106,1.643 -17.193,-1.096 -20.869,-5.156 -2.925,-3.229 -6.213,-3.446 -5.314,-0.35 0.357,1.232 1.321,4.833 2.142,8.001 0.82,3.169 2.339,7.401 3.375,9.405 l 1.884,3.644 -4.26,-1.011 c -2.343,-0.556 -5.413,-1.01 -6.822,-1.01 -1.409,0 -4.479,0.454 -6.822,1.01 l -4.26,1.011 z"
       id="path6352"
       inkscape:connector-curvature="0" />
    <path
       style="fill:#0f0f0f"
       d="m 2921.1971,1951.6357 c -1.036,2.004 -2.554,6.236 -3.375,9.405 -0.82,3.168 -1.784,6.769 -2.142,8.001 -0.899,3.096 2.39,2.879 5.314,-0.349 3.676,-4.061 14.763,-6.8 20.869,-5.157 11.092,2.985 16.318,11.503 12.277,20.012 -4.791,10.091 -16.931,13.135 -30.291,7.595 -3.013,-1.25 -2.91,1.322 0.32,8.004 3.058,6.324 3.375,16.783 0.666,22.017 -6.09,11.771 -19.582,11.771 -25.672,0 -2.708,-5.234 -2.392,-15.693 0.666,-22.017 3.23,-6.682 3.333,-9.254 0.32,-8.004 -13.36,5.54 -25.5,2.496 -30.291,-7.595 -4.04,-8.509 1.186,-17.027 12.277,-20.012 6.106,-1.643 17.193,1.096 20.87,5.157 2.924,3.228 6.212,3.445 5.314,0.349 -0.358,-1.232 -1.322,-4.833 -2.143,-8.001 -0.82,-3.169 -2.339,-7.401 -3.375,-9.405 l -1.884,-3.644 4.26,1.011 c 2.343,0.556 5.413,1.01 6.822,1.01 1.409,0 4.48,-0.454 6.822,-1.01 l 4.26,-1.011 z"
       id="path6354"
       inkscape:connector-curvature="0" />
    <path
       style="fill:#0f0f0f"
       d="m 2902.8011,1828.3077 c 1.036,-2.004 2.555,-6.236 3.375,-9.405 0.821,-3.168 1.785,-6.769 2.142,-8.001 0.899,-3.096 -2.389,-2.879 -5.313,0.349 -3.677,4.061 -14.764,6.8 -20.87,5.157 -11.092,-2.985 -16.317,-11.503 -12.277,-20.012 4.791,-10.091 16.931,-13.135 30.291,-7.595 3.013,1.25 2.91,-1.322 -0.32,-8.003 -3.058,-6.325 -3.374,-16.784 -0.666,-22.018 6.09,-11.77 19.582,-11.77 25.672,0 2.708,5.234 2.392,15.693 -0.666,22.018 -3.23,6.681 -3.333,9.253 -0.32,8.003 13.36,-5.54 25.5,-2.496 30.291,7.595 4.041,8.509 -1.185,17.027 -12.277,20.012 -6.106,1.643 -17.193,-1.096 -20.869,-5.157 -2.925,-3.228 -6.213,-3.445 -5.314,-0.349 0.357,1.232 1.321,4.833 2.142,8.001 0.82,3.169 2.339,7.401 3.375,9.405 l 1.884,3.644 -4.26,-1.011 c -2.343,-0.556 -5.413,-1.01 -6.822,-1.01 -1.409,0 -4.479,0.454 -6.822,1.01 l -4.26,1.011 z"
       id="path6356"
       inkscape:connector-curvature="0" />
    <path
       sodipodi:nodetypes="csccssccssscssscscccsccc"
       inkscape:connector-curvature="0"
       id="path6358"
       d="m 3138.1921,1952.7797 c 0.429,0.97 1.058,3.04 1.397,4.58 0.34,1.551 0.738,3.311 0.887,3.911 0.371,1.51 -0.989,1.4 -2.199,-0.17 -1.521,-1.98 -6.109,-3.321 -8.636,-2.521 -4.589,1.461 -6.751,5.611 -5.08,9.762 1.983,4.93 7.006,6.411 12.534,3.71 1.247,-0.61 1.204,0.64 -0.132,3.901 -1.265,3.09 -1.396,8.191 -0.275,10.741 2.52,5.741 8.102,5.741 10.623,0 1.12,-2.55 0.989,-7.651 -0.276,-10.741 -1.337,-3.261 -1.379,-4.511 -0.132,-3.901 5.528,2.701 10.551,1.22 12.534,-3.71 1.672,-4.151 -0.491,-8.301 -5.08,-9.762 -2.527,-0.8 -7.114,0.541 -8.636,2.521 -1.209,1.57 -2.57,1.68 -2.198,0.17 0.148,-0.6 0.547,-2.36 0.886,-3.911 0.34,-1.54 0.968,-3.61 1.397,-4.58 l 0.779,-1.78 -1.762,0.49 c -0.97,0.27 -2.24,3.4 -2.823,3.4 -0.583,0 -1.854,-3.13 -2.823,-3.4 l -1.763,-0.49 z"
       style="fill:#0f0f0f" />
    <path
       style="fill:#000000;fill-opacity:1;stroke:#fffecd;stroke-width:0.0806888;stroke-miterlimit:4;stroke-dasharray:none;stroke-opacity:1"
       d="m 3152.9161,2002.2917 c 0,2.735 -0.09,2.818 -3.13,2.818 h -3.13 l -0.541,4.762 c -0.853,7.505 -3.474,15.879 -7.802,24.931 -2.198,4.595 -3.996,8.49 -3.996,8.655 0,0.164 3.821,0.299 8.491,0.299 h 8.491 v -3.221 c 0,-3.144 0.07,-3.22 2.83,-3.22 h 2.83 v 6.038 6.039 h -14.959 -14.96 v -1.951 c 0,-1.073 1.432,-4.606 3.182,-7.85 5.342,-9.903 9.756,-23.923 9.756,-30.988 0,-3.457 -0.03,-3.494 -2.83,-3.494 -2.696,0 -2.83,-0.135 -2.83,-2.818 v -2.818 h 9.299 9.299 z"
       id="path6360"
       inkscape:connector-curvature="0" />
    <path
       inkscape:connector-curvature="0"
       id="path10555-2"
       d="m 2839.4157,2051.2857 c -1.7894,-0.2256 -4.3602,-1.683 -6.0188,-3.412 l -2.8951,-3.0182 -0.2805,-201.0696 c -0.1543,-110.5883 -0.033,-202.0841 0.2699,-203.324 0.5171,-2.1182 1.0659,-2.2543 9.0901,-2.2543 5.2283,0 9.9027,-0.5688 12.0546,-1.4668 6.4464,-2.6902 6.452,-2.7398 6.452,-57.0942 v -48.6062 l 2.2571,-0.5528 c 1.2414,-0.304 65.3331,-0.4253 142.426,-0.2695 l 140.169,0.2832 3.2793,3.2754 3.2793,3.2754 0.2804,201.1162 c 0.1543,110.6138 0.033,202.1306 -0.2699,203.3704 -0.5171,2.1183 -1.0659,2.2544 -9.0901,2.2544 -5.2283,0 -9.9027,0.5687 -12.0546,1.4668 -6.4454,2.6898 -6.452,2.7486 -6.452,57.0061 0,43.3178 -0.1701,48.5832 -1.5868,49.1262 -1.7062,0.6539 -275.7036,0.5501 -280.9099,-0.1065 z m 277.481,-49.9145 c 0,-52.3065 -0.102,-51.3565 6.15,-57.2662 4.5611,-4.3115 7.6902,-5.3215 16.4858,-5.3215 h 7.4582 v -197.9113 c 0,-171.4923 -0.196,-198.3799 -1.4686,-201.4219 -2.8659,-6.8509 6.3128,-6.4442 -145.4584,-6.4442 h -136.9601 v 47.6233 c 0,52.3066 0.1021,51.3565 -6.15,57.2663 -4.5611,4.3115 -7.6902,5.3215 -16.4858,5.3215 h -7.4582 v 197.9113 c 0,218.3114 -0.4486,203.4575 6.232,206.3566 2.8032,1.2164 23.8693,1.4369 140.4764,1.4703 l 137.1787,0.039 v -47.6234 z"
       style="fill:#e2e2e2" />
    <path
       inkscape:connector-curvature="0"
       id="path10557-8"
       d="m 2839.9266,2051.2985 c -1.437,-0.2228 -4.1455,-1.9845 -6.0188,-3.9149 l -3.406,-3.5098 v -202.0816 -202.0817 l 9.5297,-0.5391 c 5.9768,-0.3382 10.6725,-1.1507 12.5947,-2.1792 5.9751,-3.1973 5.9166,-2.6823 6.4649,-56.8959 l 0.5016,-49.595 h 141.1746 141.1746 l 3.7783,3.7738 3.7784,3.7739 v 202.1206 202.1206 l -9.5298,0.5687 c -5.2414,0.3128 -10.805,1.1896 -12.3637,1.9485 -6.1905,3.0138 -6.145,2.6257 -6.6959,57.097 l -0.5015,49.595 -138.9342,0.1021 c -76.4138,0.056 -140.1099,-0.08 -141.5469,-0.303 z m 277.9732,-51.6361 0.5016,-49.8331 4.7745,-4.7679 4.7745,-4.7679 9.7709,-0.5045 9.771,-0.5046 0.271,-197.3781 c 0.3057,-222.6678 0.95,-204.3597 -7.3207,-208.0138 -4.1497,-1.8333 -8.7759,-1.8872 -141.0654,-1.6414 l -136.7751,0.254 -0.5016,49.8332 -0.5016,49.8331 -4.7745,4.7679 -4.7745,4.7679 -9.7709,0.5045 -9.771,0.5046 -0.271,197.3781 c -0.3051,222.2518 -0.9232,204.3099 7.1649,207.982 3.9931,1.813 9.0198,1.8718 141.0685,1.6496 l 136.9278,-0.2305 z"
       style="fill:#dbdbdb" />
    <path
       inkscape:connector-curvature="0"
       id="path10559"
       d="m 2839.9266,2051.2985 c -1.437,-0.2228 -4.1455,-1.9845 -6.0188,-3.9149 l -3.406,-3.5098 v -202.0816 -202.0817 l 10.0772,-0.501 c 10.6855,-0.5311 14.1957,-1.8457 16.7213,-6.2619 0.9833,-1.7195 1.4082,-14.1397 1.7908,-52.3503 l 0.5016,-50.096 h 141.1746 141.1746 l 3.7783,3.7738 3.7784,3.7739 v 202.1206 202.1206 l -10.0773,0.5009 c -10.6855,0.5312 -14.1957,1.8458 -16.7213,6.262 -0.9834,1.7195 -1.4082,14.1397 -1.7908,52.3503 l -0.5015,50.096 -138.9342,0.1021 c -76.4138,0.056 -140.1099,-0.08 -141.5469,-0.303 z m 277.9732,-50.897 c 0.3659,-35.8139 0.8304,-49.6667 1.7172,-51.211 2.097,-3.6518 8.1342,-8.2812 11.5529,-8.8588 1.8049,-0.305 6.2158,-0.6654 9.802,-0.8009 l 6.5204,-0.2464 0.2506,-198.38 c 0.2365,-187.2117 0.1517,-198.5775 -1.5047,-201.8868 -1.003,-2.0037 -3.2602,-4.2584 -5.2663,-5.2605 -3.3003,-1.6485 -11.756,-1.7387 -140.9404,-1.5028 l -137.4294,0.2508 -0.5016,49.0941 c -0.3659,35.8139 -0.8304,49.6667 -1.7172,51.211 -2.0969,3.6518 -8.1342,8.2812 -11.5529,8.8588 -1.8049,0.305 -6.2158,0.6654 -9.802,0.8009 l -6.5204,0.2464 -0.2506,198.38 c -0.2365,187.2117 -0.1518,198.5775 1.5047,201.8868 1.003,2.0036 3.2602,4.2584 5.2663,5.2604 3.3003,1.6486 11.756,1.7388 140.9404,1.5029 l 137.4294,-0.2509 z"
       style="fill:#c1c1c1" />
    <path
       inkscape:connector-curvature="0"
       id="path10561"
       d="m 2839.53,2050.4413 c -2.3002,-1.1224 -2.4184,-1.2927 -0.5016,-0.7226 4.3825,1.3036 276.9367,1.4658 278.5051,0.1657 1.1215,-0.9297 1.3759,-9.8642 1.405,-49.3551 0.031,-41.44 0.251,-48.5721 1.5676,-50.7247 l 1.532,-2.5048 -0.7812,2.5048 c -0.4297,1.3776 -0.9216,24.9352 -1.0931,52.3503 l -0.3119,49.8454 -138.6562,-0.045 c -119.7106,-0.039 -139.0675,-0.2459 -141.6657,-1.5138 z m -8.4107,-8.5585 c -0.8089,-2.3176 -1.1191,-58.4111 -1.1191,-202.345 v -199.1386 l 9.7805,-0.4589 c 5.3794,-0.2525 10.9091,-0.7739 12.2884,-1.1586 l 2.5079,-0.6997 -2.5079,1.5302 c -1.6846,1.0279 -5.1585,1.5418 -10.583,1.5657 -4.8977,0.022 -8.5489,0.5086 -9.279,1.2378 -1.6733,1.6712 -1.7566,393.6749 -0.085,398.4652 0.6155,1.7635 0.8934,3.4318 0.6175,3.7073 -0.2759,0.2756 -1.0052,-0.9419 -1.6207,-2.7054 z m 296.8119,-99.4943 c 1.69,-1.0312 5.1664,-1.5418 10.6608,-1.5657 5.618,-0.024 8.5055,-0.4596 9.2864,-1.3995 1.3025,-1.5674 1.1454,-396.0492 -0.1594,-400.4057 -0.5715,-1.9084 -0.4001,-1.7891 0.7202,0.501 1.2763,2.609 1.4764,29.3445 1.5157,202.5443 l 0.045,199.5385 -9.7806,0.459 c -5.3793,0.2525 -10.9091,0.7738 -12.2884,1.1586 l -2.5078,0.6996 2.5078,-1.5301 z m -269.1878,-310.1924 c 0.4297,-1.3776 0.9216,-24.9352 1.0931,-52.3503 l 0.3119,-49.8455 138.6562,0.045 c 119.7106,0.039 139.0675,0.2459 141.6657,1.5138 2.3002,1.1225 2.4184,1.2928 0.5016,0.7226 -4.3825,-1.3036 -276.9367,-1.4657 -278.5051,-0.1656 -1.1215,0.9296 -1.3759,9.8641 -1.405,49.3551 -0.03,41.4399 -0.2509,48.5721 -1.5676,50.7247 l -1.532,2.5048 0.7812,-2.5048 z"
       style="fill:#b9b9b9" />
    <path
       inkscape:connector-curvature="0"
       id="path10563"
       d="m 2978.8672,2051.2489 c 98.8726,-0.1855 137.707,-0.5693 138.6737,-1.3707 1.0801,-0.8952 1.3956,-10.4501 1.6131,-48.8399 l 0.2704,-47.727 0.2409,49.3445 0.2408,49.3445 -139.1849,-0.2468 -139.185,-0.2469 z m -148.6187,-210.904 -0.2483,-200.1334 9.279,0.2016 9.279,0.2016 -7.6852,0.3399 c -4.7332,0.2093 -8.1037,0.8436 -8.7749,1.6514 -0.7743,0.9318 -1.1638,58.7164 -1.3456,199.5919 l -0.2558,198.2804 z m 308.8788,100.7012 c 4.7332,-0.2093 8.1037,-0.8437 8.7749,-1.6514 0.7743,-0.9318 1.1639,-58.7164 1.3456,-199.5919 l 0.2558,-198.2804 0.2483,200.1334 0.2482,200.1334 -9.279,-0.2016 -9.279,-0.2017 z m -278.7923,-361.7012 -0.2408,-49.3446 139.185,0.2469 139.1849,0.2469 -137.331,0.2577 c -98.8726,0.1855 -137.707,0.5693 -138.6737,1.3706 -1.08,0.8953 -1.3956,10.4502 -1.6131,48.84 l -0.2704,47.727 z"
       style="fill:#aeaeae" />
    <path
       inkscape:connector-curvature="0"
       id="path10565"
       d="m 2979.3687,2051.2489 c 99.8345,-0.1866 138.2054,-0.5667 139.185,-1.3786 1.0399,-0.8621 1.3524,-0.7455 1.3524,0.5045 0,1.4928 -11.3637,1.6054 -139.1849,1.3786 l -139.185,-0.2469 z m -149.1202,-210.904 c -0.2284,-184.0432 -0.1175,-200.1334 1.3792,-200.1334 1.2523,0 1.3685,0.3117 0.5041,1.352 -0.819,0.9857 -1.1928,55.2285 -1.3793,200.1334 l -0.2557,198.7814 z m 317.62,100.0922 c 0.819,-0.9856 1.1928,-55.2285 1.3793,-200.1334 l 0.2558,-198.7813 0.2482,200.1334 c 0.2284,184.0432 0.1175,200.1334 -1.3792,200.1334 -1.2523,0 -1.3685,-0.3117 -0.5041,-1.3521 z m -287.7743,-408.8112 c 0,-1.4928 11.3637,-1.6054 139.185,-1.3787 l 139.1849,0.2469 -137.8325,0.2577 c -99.8345,0.1866 -138.2054,0.5666 -139.185,1.3786 -1.0399,0.862 -1.3524,0.7455 -1.3524,-0.5045 z"
       style="fill:#9f9f9f" />
    <path
       inkscape:connector-curvature="0"
       id="path10567"
       d="m 2911.5832,2051.249 c 38.5259,-0.1453 101.272,-0.1453 139.4357,0 38.1638,0.1454 6.6427,0.2643 -70.047,0.2643 -76.6896,0 -107.9145,-0.119 -69.3887,-0.2643 z m -81.0912,-211.1546 c 0,-110.2111 0.1172,-155.1489 0.2605,-99.8616 0.1433,55.2872 0.1432,145.4599 0,200.3838 -0.1433,54.9239 -0.2605,9.6889 -0.2605,-100.5222 z m 318.9968,-98.1881 c 0,-110.2111 0.1172,-155.1489 0.2605,-99.8616 0.1433,55.2872 0.1433,145.4599 0,200.3838 -0.1433,54.9239 -0.2605,9.6889 -0.2605,-100.5222 z m -219.8491,-211.6554 c 38.5258,-0.1453 101.2719,-0.1453 139.4357,10e-5 38.1637,0.1453 6.6426,0.2642 -70.047,0.2642 -76.6897,0 -107.9146,-0.119 -69.3887,-0.2643 z"
       style="fill:#000000" />
    <path
       inkscape:connector-curvature="0"
       id="path10962-9"
       d="m 2835.9829,1845.6651 c 0,-189.9899 0.441,-200.5257 8.3941,-200.5257 16.5344,0 19.5862,-9.6022 19.5862,-61.6261 v -50.434 l 138.7358,1.2353 138.7358,1.2352 1.2154,201.6915 c 1.157,191.9984 0.8096,201.6916 -7.2282,201.6916 -12.3889,0 -19.6168,9.2883 -19.7776,25.4154 -0.1188,11.9183 -0.9122,12.9008 -4.8951,6.0624 -2.8273,-4.8541 -10.3282,-8.1609 -18.5118,-8.1609 -9.1208,0 -13.7584,-2.3579 -13.7584,-6.9951 0,-4.2799 -4.3558,-6.995 -11.2219,-6.995 -8.4229,0 -10.6857,2.0505 -9.072,8.2212 1.7229,6.5883 -0.7965,8.2093 -12.6838,8.1609 -18.1526,-0.074 -27.8309,11.7962 -18.644,22.8658 3.3714,4.0622 10.7557,7.3859 16.4096,7.3859 8.6122,0 9.9682,2.1235 8.3587,13.0896 -2.3094,15.7352 8.2653,26.3054 21.9662,21.9569 7.1816,-2.2794 9.5506,-7.0019 9.5506,-19.0389 0,-13.8792 1.5192,-16.0076 11.4267,-16.0076 6.2847,0 13.5658,-3.6724 16.1801,-8.1609 3.5492,-6.0936 4.7892,0.4037 4.8951,25.6486 l 0.1418,33.8096 h -139.9016 -139.9017 z m 88.5821,179.5673 c 3.1808,-3.8326 4.778,-12.2267 3.5494,-18.6536 -1.8267,-9.5561 -0.3972,-11.6853 7.8454,-11.6853 21.7865,0 29.8219,-25.6565 9.6232,-30.7261 -6.4065,-1.6079 -14.9378,-1.6611 -18.9585,-0.1181 -5.6154,2.1548 -6.6263,0.6495 -4.3596,-6.4922 2.4247,-7.6397 0.8161,-9.2974 -9.0218,-9.2974 -7.2989,0 -11.9728,2.6153 -11.9728,6.6996 0,4.1498 -5.7681,7.2557 -15.156,8.1609 -13.4063,1.2926 -15.156,3.0764 -15.156,15.4515 0,11.7953 2.0119,14.2216 12.8243,15.4657 10.5027,1.2085 12.8244,3.7834 12.8244,14.2234 0,21.2482 16.2314,31.1013 27.958,16.9716 z m -1.9529,-201.7609 c -2.1063,-6.6366 0.173,-8.1954 11.933,-8.161 17.8604,0.052 27.4527,-11.9117 18.3469,-22.8835 -3.3714,-4.0622 -10.6148,-7.3859 -16.0965,-7.3859 -8.0642,0 -9.9581,-2.7829 -9.9216,-14.579 0.055,-17.902 -11.8952,-27.5065 -22.881,-18.3892 -4.0623,3.3714 -7.3859,12.0291 -7.3859,19.2393 0,10.8345 -2.2255,13.3654 -12.8244,14.585 -10.8124,1.2441 -12.8243,3.6704 -12.8243,15.4657 0,12.3751 1.7497,14.1589 15.156,15.4515 9.3879,0.9052 15.156,4.0111 15.156,8.1609 0,4.0843 4.6739,6.6996 11.9728,6.6996 9.304,0 11.3923,-1.8285 9.369,-8.2034 z m 155.867,1.2084 c 0,-4.6372 4.6376,-6.9951 13.7584,-6.9951 16.1482,0 25.0387,-11.8192 18.3258,-24.3624 -2.4376,-4.5547 -9.6045,-8.2813 -15.9264,-8.2813 -9.9846,0 -11.4944,-2.1027 -11.4944,-16.0076 0,-12.037 -2.369,-16.7595 -9.5506,-19.0389 -13.7009,-4.3485 -24.2756,6.2217 -21.9662,21.9569 1.6095,10.9662 0.2535,13.0896 -8.3587,13.0896 -5.6539,0 -13.0382,3.3237 -16.4096,7.3859 -9.1869,11.0696 0.4914,22.9396 18.644,22.8658 11.8873,-0.048 14.4067,1.5727 12.6838,8.1609 -1.6137,6.1707 0.6491,8.2212 9.072,8.2212 6.8661,0 11.2219,-2.7151 11.2219,-6.995 z m -77.6373,-99.1573 c -1.7229,-6.5883 0.7965,-8.2093 12.6838,-8.161 18.1526,0.074 27.831,-11.7961 18.644,-22.8657 -3.3714,-4.0623 -11.3639,-7.386 -17.7612,-7.386 -9.6254,0 -11.1767,-1.7385 -8.9951,-10.0807 3.5079,-13.4145 -4.3748,-27.2264 -15.5386,-27.2264 -11.1638,0 -19.0465,13.8119 -15.5385,27.2264 2.1815,8.3422 0.6302,10.0807 -8.9952,10.0807 -6.3973,0 -14.3898,3.3237 -17.7612,7.386 -9.1869,11.0696 0.4914,22.9395 18.644,22.8657 11.8873,-0.048 14.4067,1.5727 12.6838,8.161 -1.6772,6.4137 0.734,8.2212 10.9671,8.2212 10.2331,0 12.6443,-1.8075 10.9671,-8.2212 z m -78.7323,-99.4971 c -2.63,-8.2864 -1.6327,-9.3194 6.5047,-6.7367 12.7595,4.0497 28.6168,-4.8828 28.6168,-16.1199 0,-10.3839 -16.1244,-20.6219 -26.318,-16.7103 -5.2035,1.9968 -6.1987,0.3396 -3.9847,-6.636 5.2487,-16.5373 -1.7239,-28.6572 -15.5656,-27.0562 -10.0478,1.1621 -12.6902,4.1565 -13.8155,15.6557 -1.0618,10.8507 -4.6519,15.4495 -15.156,19.4143 -26.3843,9.959 -13.1611,40.3435 13.8293,31.7771 7.2429,-2.2989 8.4677,-1.0305 6.4512,6.6808 -2.0493,7.8363 -0.2772,9.5183 10.0275,9.5183 10.5907,0 12.0386,-1.5059 9.4103,-9.7871 z m 154.9683,0.2688 c -2.0166,-7.7113 -0.7918,-8.9797 6.4512,-6.6808 26.9904,8.5664 40.2136,-21.8181 13.8292,-31.7771 -10.5041,-3.9648 -14.0942,-8.5636 -15.156,-19.4143 -1.1253,-11.4992 -3.7677,-14.4936 -13.8154,-15.6557 -13.8418,-1.601 -20.8144,10.5189 -15.5657,27.0562 2.214,6.9756 1.2189,8.6328 -3.9847,6.636 -10.1935,-3.9116 -26.318,6.3264 -26.318,16.7103 0,11.2371 15.8574,20.1696 28.6169,16.1199 8.1373,-2.5827 9.1347,-1.5497 6.5047,6.7367 -2.6284,8.2812 -1.1804,9.7871 9.4103,9.7871 10.3046,0 12.0767,-1.682 10.0275,-9.5183 z"
       style="fill:#fff6d5;fill-opacity:1;stroke:none;stroke-width:0.105;stroke-miterlimit:4;stroke-dasharray:none;stroke-opacity:1" />
  </g>
</svg>
