<?xml version="1.0" encoding="UTF-8" standalone="no"?>
<!-- Created with Inkscape (http://www.inkscape.org/) -->

<svg
   id="svg10047"
   height="122.99901"
   width="78.995667"
   version="1.1"
   viewBox="0 0 78.995667 122.99901"
   inkscape:version="0.91 r13725"
   sodipodi:docname="baroque.svgz"
   xmlns:inkscape="http://www.inkscape.org/namespaces/inkscape"
   xmlns:sodipodi="http://sodipodi.sourceforge.net/DTD/sodipodi-0.dtd"
   xmlns="http://www.w3.org/2000/svg"
   xmlns:svg="http://www.w3.org/2000/svg"
   xmlns:rdf="http://www.w3.org/1999/02/22-rdf-syntax-ns#"
   xmlns:cc="http://creativecommons.org/ns#"
   xmlns:dc="http://purl.org/dc/elements/1.1/">
  <sodipodi:namedview
     pagecolor="#ffffff"
     bordercolor="#666666"
     borderopacity="1"
     objecttolerance="10"
     gridtolerance="10"
     guidetolerance="10"
     inkscape:pageopacity="0"
     inkscape:pageshadow="2"
     inkscape:window-width="1920"
     inkscape:window-height="1016"
     id="namedview1491"
     showgrid="false"
     inkscape:zoom="1.3479675"
     inkscape:cx="513.5"
     inkscape:cy="307.5"
     inkscape:window-x="0"
     inkscape:window-y="0"
     inkscape:window-maximized="1"
     inkscape:current-layer="svg10047"
     showguides="false"
     inkscape:guide-bbox="true"
     inkscape:snap-grids="false"
     inkscape:snap-to-guides="false"
     inkscape:showpageshadow="2"
     inkscape:pagecheckerboard="0"
     inkscape:deskcolor="#d1d1d1">
    <inkscape:grid
       type="xygrid"
       id="grid11817"
       originx="-395"
       originy="0.00088983348"
       spacingy="1"
       spacingx="1"
       units="px"
       visible="false" />
  </sodipodi:namedview>
  <metadata
     id="metadata16869">
    <rdf:RDF>
      <cc:Work
         rdf:about="">
        <dc:format>image/svg+xml</dc:format>
        <dc:type
           rdf:resource="http://purl.org/dc/dcmitype/StillImage" />
        <dc:title />
      </cc:Work>
    </rdf:RDF>
  </metadata>
  <defs
     id="defs10049" />
  <g
     transform="matrix(0.20787944,0,0,0.21133905,-488.51671,-317.00682)"
     id="club_6"
     inkscape:label="#club_6">
    <rect
       style="fill:#ffffff;stroke:#000000;stroke-width:0.631597"
       id="rect6284"
       y="1500.3075"
       x="2350.3159"
       ry="32.29768"
       rx="31.643511"
       height="581.36688"
       width="379.37552" />
    <path
       style="fill:#000000;fill-opacity:1;stroke:#fffecd;stroke-width:0.0818019;stroke-miterlimit:4;stroke-dasharray:none;stroke-opacity:1"
       d="m 2384.4671,1581.1027 c -7.661,-2.722 -11.427,-10.609 -11.427,-23.936 0,-15.758 5.969,-25.127 16.009,-25.127 6.864,0 11.863,4.34 13.186,11.446 0.582,3.123 0.568,3.144 -2.09,3.144 -2.317,0 -2.742,-0.328 -3.175,-2.452 -0.608,-2.985 -3.732,-6.204 -6.74,-6.945 -3.248,-0.801 -7.298,1.397 -8.978,4.874 -1.536,3.178 -3.446,12.438 -2.714,13.157 0.25,0.245 1.806,-0.566 3.458,-1.803 4.27,-3.198 10.469,-3.636 14.442,-1.02 6.584,4.335 8.467,13.804 4.334,21.791 -3.425,6.621 -9.638,9.238 -16.305,6.871 z m 9.027,-5.738 c 2.941,-1.892 4.24,-5.882 3.898,-11.979 -0.181,-3.236 -4.255,-7.03 -7.549,-7.03 -5.071,0 -10.753,4.482 -10.724,8.46 0.02,3.349 2.667,8.856 5.03,10.481 2.428,1.669 6.806,1.701 9.345,0.07 z"
       id="path6288"
       inkscape:connector-curvature="0" />
    <path
       style="fill:#0f0f0f"
       d="m 2384.1931,1629.2187 c 0.428,-0.97 1.057,-3.04 1.396,-4.58 0.34,-1.55 0.739,-3.311 0.887,-3.911 0.372,-1.51 -0.989,-1.4 -2.199,0.17 -1.521,1.981 -6.109,3.321 -8.635,2.521 -4.59,-1.461 -6.752,-5.611 -5.08,-9.762 1.982,-4.93 7.006,-6.41 12.534,-3.71 1.246,0.61 1.204,-0.64 -0.132,-3.901 -1.266,-3.09 -1.397,-8.191 -0.276,-10.741 2.52,-5.741 8.103,-5.741 10.623,0 1.12,2.55 0.989,7.651 -0.276,10.741 -1.336,3.261 -1.379,4.511 -0.132,3.901 5.528,-2.7 10.552,-1.22 12.534,3.71 1.672,4.151 -0.49,8.301 -5.08,9.762 -2.526,0.8 -7.114,-0.54 -8.635,-2.521 -1.21,-1.57 -2.571,-1.68 -2.199,-0.17 0.148,0.6 0.547,2.361 0.886,3.911 0.34,1.54 0.968,3.61 1.397,4.58 l 0.779,1.781 -1.762,-0.491 c -0.97,-0.27 -2.24,-3.4 -2.823,-3.4 -0.583,0 -1.853,3.13 -2.823,3.4 l -1.763,0.491 z"
       id="path6290"
       inkscape:connector-curvature="0"
       sodipodi:nodetypes="csccssccssscssscscccsccc" />
    <path
       style="fill:#0f0f0f"
       d="m 2452.8011,1630.3477 c 1.036,-2.004 2.555,-6.236 3.375,-9.405 0.821,-3.168 1.785,-6.769 2.142,-8.001 0.899,-3.096 -2.389,-2.879 -5.313,0.35 -3.677,4.06 -14.764,6.799 -20.87,5.156 -11.091,-2.985 -16.317,-11.503 -12.277,-20.012 4.791,-10.091 16.931,-13.135 30.291,-7.595 3.013,1.25 2.91,-1.322 -0.32,-8.003 -3.058,-6.325 -3.374,-16.784 -0.666,-22.018 6.09,-11.77 19.582,-11.77 25.672,0 2.709,5.234 2.392,15.693 -0.666,22.018 -3.23,6.681 -3.333,9.253 -0.32,8.003 13.36,-5.54 25.5,-2.496 30.291,7.595 4.041,8.509 -1.185,17.027 -12.277,20.012 -6.106,1.643 -17.193,-1.096 -20.869,-5.156 -2.924,-3.229 -6.213,-3.446 -5.314,-0.35 0.358,1.232 1.322,4.833 2.142,8.001 0.82,3.169 2.339,7.401 3.375,9.405 l 1.884,3.644 -4.26,-1.011 c -2.343,-0.556 -5.413,-1.01 -6.822,-1.01 -1.409,0 -4.479,0.454 -6.822,1.01 l -4.26,1.011 z"
       id="path6292"
       inkscape:connector-curvature="0" />
    <path
       style="fill:#0f0f0f"
       d="m 2608.8011,1630.3477 c 1.036,-2.004 2.555,-6.236 3.375,-9.405 0.821,-3.168 1.785,-6.769 2.142,-8.001 0.899,-3.096 -2.389,-2.879 -5.313,0.35 -3.677,4.06 -14.764,6.799 -20.87,5.156 -11.091,-2.985 -16.317,-11.503 -12.277,-20.012 4.791,-10.091 16.931,-13.135 30.291,-7.595 3.013,1.25 2.91,-1.322 -0.32,-8.003 -3.058,-6.325 -3.374,-16.784 -0.666,-22.018 6.09,-11.77 19.582,-11.77 25.672,0 2.709,5.234 2.392,15.693 -0.666,22.018 -3.23,6.681 -3.333,9.253 -0.32,8.003 13.36,-5.54 25.5,-2.496 30.291,7.595 4.041,8.509 -1.185,17.027 -12.277,20.012 -6.106,1.643 -17.193,-1.096 -20.869,-5.156 -2.924,-3.229 -6.213,-3.446 -5.314,-0.35 0.358,1.232 1.322,4.833 2.142,8.001 0.82,3.169 2.339,7.401 3.375,9.405 l 1.884,3.644 -4.26,-1.011 c -2.343,-0.556 -5.413,-1.01 -6.822,-1.01 -1.409,0 -4.479,0.454 -6.822,1.01 l -4.26,1.011 z"
       id="path6294"
       inkscape:connector-curvature="0" />
    <path
       style="fill:#0f0f0f"
       d="m 2471.1981,1951.6357 c -1.037,2.004 -2.555,6.236 -3.376,9.405 -0.82,3.168 -1.784,6.769 -2.142,8.001 -0.899,3.096 2.39,2.879 5.314,-0.349 3.676,-4.061 14.763,-6.8 20.869,-5.157 11.092,2.985 16.318,11.503 12.277,20.012 -4.791,10.091 -16.931,13.135 -30.291,7.595 -3.013,-1.25 -2.91,1.322 0.321,8.004 3.057,6.324 3.374,16.783 0.666,22.017 -6.091,11.771 -19.583,11.771 -25.673,0 -2.708,-5.234 -2.392,-15.693 0.666,-22.017 3.23,-6.682 3.333,-9.254 0.32,-8.004 -13.36,5.54 -25.5,2.496 -30.291,-7.595 -4.04,-8.509 1.186,-17.027 12.277,-20.012 6.106,-1.643 17.193,1.096 20.87,5.157 2.924,3.228 6.213,3.445 5.314,0.349 -0.358,-1.232 -1.322,-4.833 -2.143,-8.001 -0.82,-3.169 -2.339,-7.401 -3.375,-9.405 l -1.884,-3.644 4.26,1.011 c 2.343,0.556 5.413,1.01 6.822,1.01 1.409,0 4.48,-0.454 6.822,-1.01 l 4.26,-1.011 z"
       id="path6296"
       inkscape:connector-curvature="0" />
    <path
       style="fill:#0f0f0f"
       d="m 2627.1981,1951.6357 c -1.037,2.004 -2.555,6.236 -3.376,9.405 -0.82,3.168 -1.784,6.769 -2.142,8.001 -0.899,3.096 2.39,2.879 5.314,-0.349 3.676,-4.061 14.763,-6.8 20.869,-5.157 11.092,2.985 16.318,11.503 12.277,20.012 -4.791,10.091 -16.931,13.135 -30.291,7.595 -3.013,-1.25 -2.91,1.322 0.321,8.004 3.057,6.324 3.374,16.783 0.666,22.017 -6.091,11.771 -19.583,11.771 -25.673,0 -2.708,-5.234 -2.392,-15.693 0.666,-22.017 3.23,-6.682 3.333,-9.254 0.32,-8.004 -13.36,5.54 -25.5,2.496 -30.291,-7.595 -4.04,-8.509 1.186,-17.027 12.277,-20.012 6.106,-1.643 17.193,1.096 20.87,5.157 2.924,3.228 6.213,3.445 5.314,0.349 -0.358,-1.232 -1.322,-4.833 -2.143,-8.001 -0.82,-3.169 -2.339,-7.401 -3.375,-9.405 l -1.884,-3.644 4.26,1.011 c 2.343,0.556 5.413,1.01 6.822,1.01 1.409,0 4.48,-0.454 6.822,-1.01 l 4.26,-1.011 z"
       id="path6298"
       inkscape:connector-curvature="0" />
    <path
       style="fill:#0f0f0f"
       d="m 2452.8011,1828.3077 c 1.036,-2.004 2.555,-6.236 3.375,-9.405 0.821,-3.168 1.785,-6.769 2.142,-8.001 0.899,-3.096 -2.389,-2.879 -5.313,0.349 -3.677,4.061 -14.764,6.8 -20.87,5.157 -11.091,-2.985 -16.317,-11.503 -12.277,-20.012 4.791,-10.091 16.931,-13.135 30.291,-7.595 3.013,1.25 2.91,-1.322 -0.32,-8.003 -3.058,-6.325 -3.374,-16.784 -0.666,-22.018 6.09,-11.77 19.582,-11.77 25.672,0 2.709,5.234 2.392,15.693 -0.666,22.018 -3.23,6.681 -3.333,9.253 -0.32,8.003 13.36,-5.54 25.5,-2.496 30.291,7.595 4.041,8.509 -1.185,17.027 -12.277,20.012 -6.106,1.643 -17.193,-1.096 -20.869,-5.157 -2.924,-3.228 -6.213,-3.445 -5.314,-0.349 0.358,1.232 1.322,4.833 2.142,8.001 0.82,3.169 2.339,7.401 3.375,9.405 l 1.884,3.644 -4.26,-1.011 c -2.343,-0.556 -5.413,-1.01 -6.822,-1.01 -1.409,0 -4.479,0.454 -6.822,1.01 l -4.26,1.011 z"
       id="path6300"
       inkscape:connector-curvature="0" />
    <path
       style="fill:#0f0f0f"
       d="m 2608.8011,1828.3467 c 1.036,-2.004 2.555,-6.236 3.375,-9.405 0.821,-3.169 1.785,-6.769 2.142,-8.001 0.9,-3.096 -2.389,-2.879 -5.313,0.349 -3.677,4.061 -14.764,6.8 -20.87,5.157 -11.091,-2.985 -16.317,-11.503 -12.277,-20.012 4.792,-10.091 16.931,-13.135 30.291,-7.595 3.013,1.25 2.91,-1.322 -0.32,-8.003 -3.058,-6.325 -3.374,-16.784 -0.666,-22.018 6.09,-11.77 19.582,-11.77 25.673,0 2.708,5.234 2.391,15.693 -0.667,22.018 -3.23,6.681 -3.333,9.253 -0.32,8.003 13.36,-5.54 25.5,-2.496 30.292,7.595 4.04,8.509 -1.186,17.027 -12.278,20.012 -6.106,1.643 -17.193,-1.096 -20.869,-5.157 -2.924,-3.228 -6.213,-3.445 -5.314,-0.349 0.358,1.232 1.322,4.832 2.142,8.001 0.82,3.169 2.339,7.401 3.376,9.405 l 1.883,3.644 -4.259,-1.011 c -2.344,-0.556 -5.414,-1.011 -6.823,-1.011 -1.409,0 -4.479,0.455 -6.822,1.011 l -4.26,1.011 z"
       id="path6302"
       inkscape:connector-curvature="0" />
    <path
       sodipodi:nodetypes="csccssccssscssscscccsccc"
       inkscape:connector-curvature="0"
       id="path6304"
       d="m 2688.1921,1952.7797 c 0.429,0.97 1.058,3.04 1.397,4.58 0.34,1.551 0.738,3.311 0.887,3.911 0.371,1.51 -0.989,1.4 -2.199,-0.17 -1.521,-1.98 -6.109,-3.321 -8.636,-2.521 -4.589,1.461 -6.751,5.611 -5.08,9.762 1.983,4.93 7.006,6.411 12.534,3.71 1.247,-0.61 1.204,0.64 -0.132,3.901 -1.265,3.09 -1.396,8.191 -0.275,10.741 2.52,5.741 8.102,5.741 10.623,0 1.12,-2.55 0.989,-7.651 -0.276,-10.741 -1.337,-3.261 -1.379,-4.511 -0.132,-3.901 5.528,2.701 10.551,1.22 12.534,-3.71 1.672,-4.151 -0.491,-8.301 -5.08,-9.762 -2.527,-0.8 -7.114,0.541 -8.636,2.521 -1.209,1.57 -2.57,1.68 -2.198,0.17 0.148,-0.6 0.547,-2.36 0.886,-3.911 0.34,-1.54 0.968,-3.61 1.397,-4.58 l 0.779,-1.78 -1.762,0.49 c -0.97,0.27 -2.24,3.4 -2.823,3.4 -0.583,0 -1.854,-3.13 -2.823,-3.4 l -1.763,-0.49 z"
       style="fill:#0f0f0f" />
    <path
       style="fill:#000000;fill-opacity:1;stroke:#fffecd;stroke-width:0.0818019;stroke-miterlimit:4;stroke-dasharray:none;stroke-opacity:1"
       d="m 2695.5311,2000.3247 c 7.662,2.721 11.427,10.608 11.427,23.935 0,15.758 -5.969,25.127 -16.008,25.127 -6.864,0 -11.863,-4.339 -13.187,-11.446 -0.582,-3.123 -0.568,-3.144 2.09,-3.144 2.317,0 2.742,0.328 3.175,2.452 0.608,2.985 3.733,6.205 6.74,6.946 3.249,0.8 7.298,-1.398 8.979,-4.874 1.536,-3.179 3.446,-12.438 2.713,-13.158 -0.25,-0.245 -1.806,0.567 -3.457,1.804 -4.271,3.198 -10.469,3.635 -14.442,1.019 -6.584,-4.334 -8.468,-13.804 -4.335,-21.791 3.426,-6.62 9.639,-9.238 16.305,-6.87 z m -9.026,5.738 c -2.942,1.892 -4.24,5.882 -3.898,11.978 0.181,3.237 4.254,7.03 7.549,7.03 5.071,0 10.752,-4.482 10.723,-8.46 -0.03,-3.349 -2.667,-8.856 -5.029,-10.48 -2.428,-1.67 -6.806,-1.702 -9.345,-0.07 z"
       id="path6306"
       inkscape:connector-curvature="0" />
    <path
       style="fill:#e2e2e2"
       d="m 2389.4157,2051.2857 c -1.7894,-0.2256 -4.3602,-1.683 -6.0188,-3.412 l -2.8951,-3.0182 -0.2805,-201.0696 c -0.1543,-110.5883 -0.033,-202.0841 0.2699,-203.324 0.5171,-2.1182 1.0659,-2.2543 9.0901,-2.2543 5.2283,0 9.9027,-0.5688 12.0546,-1.4668 6.4464,-2.6902 6.452,-2.7398 6.452,-57.0942 v -48.6062 l 2.2571,-0.5528 c 1.2414,-0.304 65.3331,-0.4253 142.426,-0.2695 l 140.169,0.2832 3.2793,3.2754 3.2793,3.2754 0.2804,201.1162 c 0.1543,110.6138 0.033,202.1306 -0.2699,203.3704 -0.5171,2.1183 -1.0659,2.2544 -9.0901,2.2544 -5.2283,0 -9.9027,0.5687 -12.0546,1.4668 -6.4454,2.6898 -6.452,2.7486 -6.452,57.0061 0,43.3178 -0.1701,48.5832 -1.5868,49.1262 -1.7062,0.6539 -275.7036,0.5501 -280.9099,-0.1065 z m 277.481,-49.9145 c 0,-52.3065 -0.102,-51.3565 6.15,-57.2662 4.5611,-4.3115 7.6902,-5.3215 16.4858,-5.3215 h 7.4582 v -197.9113 c 0,-171.4923 -0.196,-198.3799 -1.4686,-201.4219 -2.8659,-6.8509 6.3128,-6.4442 -145.4584,-6.4442 h -136.9601 v 47.6233 c 0,52.3066 0.1021,51.3565 -6.15,57.2663 -4.5611,4.3115 -7.6902,5.3215 -16.4858,5.3215 h -7.4582 v 197.9113 c 0,218.3114 -0.4486,203.4575 6.232,206.3566 2.8032,1.2164 23.8693,1.4369 140.4764,1.4703 l 137.1787,0.039 v -47.6234 z"
       id="path10539"
       inkscape:connector-curvature="0" />
    <path
       style="fill:#dbdbdb"
       d="m 2389.9266,2051.2985 c -1.437,-0.2228 -4.1455,-1.9845 -6.0188,-3.9149 l -3.406,-3.5098 v -202.0816 -202.0817 l 9.5297,-0.5391 c 5.9768,-0.3382 10.6725,-1.1507 12.5947,-2.1792 5.9751,-3.1973 5.9166,-2.6823 6.4649,-56.8959 l 0.5016,-49.595 h 141.1746 141.1746 l 3.7783,3.7738 3.7784,3.7739 v 202.1206 202.1206 l -9.5298,0.5687 c -5.2414,0.3128 -10.805,1.1896 -12.3637,1.9485 -6.1905,3.0138 -6.145,2.6257 -6.6959,57.097 l -0.5015,49.595 -138.9342,0.1021 c -76.4138,0.056 -140.1099,-0.08 -141.5469,-0.303 z m 277.9732,-51.6361 0.5016,-49.8331 4.7745,-4.7679 4.7745,-4.7679 9.7709,-0.5045 9.771,-0.5046 0.271,-197.3781 c 0.3057,-222.6678 0.95,-204.3597 -7.3207,-208.0138 -4.1497,-1.8333 -8.7759,-1.8872 -141.0654,-1.6414 l -136.7751,0.254 -0.5016,49.8332 -0.5016,49.8331 -4.7745,4.7679 -4.7745,4.7679 -9.7709,0.5045 -9.771,0.5046 -0.271,197.3781 c -0.3051,222.2518 -0.9232,204.3099 7.1649,207.982 3.9931,1.813 9.0198,1.8718 141.0685,1.6496 l 136.9278,-0.2305 z"
       id="path10541-5"
       inkscape:connector-curvature="0" />
    <path
       style="fill:#c1c1c1"
       d="m 2389.9266,2051.2985 c -1.437,-0.2228 -4.1455,-1.9845 -6.0188,-3.9149 l -3.406,-3.5098 v -202.0816 -202.0817 l 10.0772,-0.501 c 10.6855,-0.5311 14.1957,-1.8457 16.7213,-6.2619 0.9833,-1.7195 1.4082,-14.1397 1.7908,-52.3503 l 0.5016,-50.096 h 141.1746 141.1746 l 3.7783,3.7738 3.7784,3.7739 v 202.1206 202.1206 l -10.0773,0.5009 c -10.6855,0.5312 -14.1957,1.8458 -16.7213,6.262 -0.9834,1.7195 -1.4082,14.1397 -1.7908,52.3503 l -0.5015,50.096 -138.9342,0.1021 c -76.4138,0.056 -140.1099,-0.08 -141.5469,-0.303 z m 277.9732,-50.897 c 0.3659,-35.8139 0.8304,-49.6667 1.7172,-51.211 2.097,-3.6518 8.1342,-8.2812 11.5529,-8.8588 1.8049,-0.305 6.2158,-0.6654 9.802,-0.8009 l 6.5204,-0.2464 0.2506,-198.38 c 0.2365,-187.2117 0.1517,-198.5775 -1.5047,-201.8868 -1.003,-2.0037 -3.2602,-4.2584 -5.2663,-5.2605 -3.3003,-1.6485 -11.756,-1.7387 -140.9404,-1.5028 l -137.4294,0.2508 -0.5016,49.0941 c -0.3659,35.8139 -0.8304,49.6667 -1.7172,51.211 -2.0969,3.6518 -8.1342,8.2812 -11.5529,8.8588 -1.8049,0.305 -6.2158,0.6654 -9.802,0.8009 l -6.5204,0.2464 -0.2506,198.38 c -0.2365,187.2117 -0.1518,198.5775 1.5047,201.8868 1.003,2.0036 3.2602,4.2584 5.2663,5.2604 3.3003,1.6486 11.756,1.7388 140.9404,1.5029 l 137.4294,-0.2509 z"
       id="path10543-9"
       inkscape:connector-curvature="0" />
    <path
       style="fill:#b9b9b9"
       d="m 2389.53,2050.4413 c -2.3002,-1.1224 -2.4184,-1.2927 -0.5016,-0.7226 4.3825,1.3036 276.9367,1.4658 278.5051,0.1657 1.1215,-0.9297 1.3759,-9.8642 1.405,-49.3551 0.031,-41.44 0.251,-48.5721 1.5676,-50.7247 l 1.532,-2.5048 -0.7812,2.5048 c -0.4297,1.3776 -0.9216,24.9352 -1.0931,52.3503 l -0.3119,49.8454 -138.6562,-0.045 c -119.7106,-0.039 -139.0675,-0.2459 -141.6657,-1.5138 z m -8.4107,-8.5585 c -0.8089,-2.3176 -1.1191,-58.4111 -1.1191,-202.345 v -199.1386 l 9.7805,-0.4589 c 5.3794,-0.2525 10.9091,-0.7739 12.2884,-1.1586 l 2.5079,-0.6997 -2.5079,1.5302 c -1.6846,1.0279 -5.1585,1.5418 -10.583,1.5657 -4.8977,0.022 -8.5489,0.5086 -9.279,1.2378 -1.6733,1.6712 -1.7566,393.6749 -0.085,398.4652 0.6155,1.7635 0.8934,3.4318 0.6175,3.7073 -0.2759,0.2756 -1.0052,-0.9419 -1.6207,-2.7054 z m 296.8119,-99.4943 c 1.69,-1.0312 5.1664,-1.5418 10.6608,-1.5657 5.618,-0.024 8.5055,-0.4596 9.2864,-1.3995 1.3025,-1.5674 1.1454,-396.0492 -0.1594,-400.4057 -0.5715,-1.9084 -0.4001,-1.7891 0.7202,0.501 1.2763,2.609 1.4764,29.3445 1.5157,202.5443 l 0.045,199.5385 -9.7806,0.459 c -5.3793,0.2525 -10.9091,0.7738 -12.2884,1.1586 l -2.5078,0.6996 2.5078,-1.5301 z m -269.1878,-310.1924 c 0.4297,-1.3776 0.9216,-24.9352 1.0931,-52.3503 l 0.3119,-49.8455 138.6562,0.045 c 119.7106,0.039 139.0675,0.2459 141.6657,1.5138 2.3002,1.1225 2.4184,1.2928 0.5016,0.7226 -4.3825,-1.3036 -276.9367,-1.4657 -278.5051,-0.1656 -1.1215,0.9296 -1.3759,9.8641 -1.405,49.3551 -0.03,41.4399 -0.2509,48.5721 -1.5676,50.7247 l -1.532,2.5048 0.7812,-2.5048 z"
       id="path10545-2"
       inkscape:connector-curvature="0" />
    <path
       style="fill:#aeaeae"
       d="m 2528.8672,2051.2489 c 98.8726,-0.1855 137.707,-0.5693 138.6737,-1.3707 1.0801,-0.8952 1.3956,-10.4501 1.6131,-48.8399 l 0.2704,-47.727 0.2409,49.3445 0.2408,49.3445 -139.1849,-0.2468 -139.185,-0.2469 z m -148.6187,-210.904 -0.2483,-200.1334 9.279,0.2016 9.279,0.2016 -7.6852,0.3399 c -4.7332,0.2093 -8.1037,0.8436 -8.7749,1.6514 -0.7743,0.9318 -1.1638,58.7164 -1.3456,199.5919 l -0.2558,198.2804 z m 308.8788,100.7012 c 4.7332,-0.2093 8.1037,-0.8437 8.7749,-1.6514 0.7743,-0.9318 1.1639,-58.7164 1.3456,-199.5919 l 0.2558,-198.2804 0.2483,200.1334 0.2482,200.1334 -9.279,-0.2016 -9.279,-0.2017 z m -278.7923,-361.7012 -0.2408,-49.3446 139.185,0.2469 139.1849,0.2469 -137.331,0.2577 c -98.8726,0.1855 -137.707,0.5693 -138.6737,1.3706 -1.08,0.8953 -1.3956,10.4502 -1.6131,48.84 l -0.2704,47.727 z"
       id="path10547"
       inkscape:connector-curvature="0" />
    <path
       style="fill:#9f9f9f"
       d="m 2529.3687,2051.2489 c 99.8345,-0.1866 138.2054,-0.5667 139.185,-1.3786 1.0399,-0.8621 1.3524,-0.7455 1.3524,0.5045 0,1.4928 -11.3637,1.6054 -139.1849,1.3786 l -139.185,-0.2469 z m -149.1202,-210.904 c -0.2284,-184.0432 -0.1175,-200.1334 1.3792,-200.1334 1.2523,0 1.3685,0.3117 0.5041,1.352 -0.819,0.9857 -1.1928,55.2285 -1.3793,200.1334 l -0.2557,198.7814 z m 317.62,100.0922 c 0.819,-0.9856 1.1928,-55.2285 1.3793,-200.1334 l 0.2558,-198.7813 0.2482,200.1334 c 0.2284,184.0432 0.1175,200.1334 -1.3792,200.1334 -1.2523,0 -1.3685,-0.3117 -0.5041,-1.3521 z m -287.7743,-408.8112 c 0,-1.4928 11.3637,-1.6054 139.185,-1.3787 l 139.1849,0.2469 -137.8325,0.2577 c -99.8345,0.1866 -138.2054,0.5666 -139.185,1.3786 -1.0399,0.862 -1.3524,0.7455 -1.3524,-0.5045 z"
       id="path10549"
       inkscape:connector-curvature="0" />
    <path
       style="fill:#000000"
       d="m 2461.5832,2051.249 c 38.5259,-0.1453 101.272,-0.1453 139.4357,0 38.1638,0.1454 6.6427,0.2643 -70.047,0.2643 -76.6896,0 -107.9145,-0.119 -69.3887,-0.2643 z m -81.0912,-211.1546 c 0,-110.2111 0.1172,-155.1489 0.2605,-99.8616 0.1433,55.2872 0.1432,145.4599 0,200.3838 -0.1433,54.9239 -0.2605,9.6889 -0.2605,-100.5222 z m 318.9968,-98.1881 c 0,-110.2111 0.1172,-155.1489 0.2605,-99.8616 0.1433,55.2872 0.1433,145.4599 0,200.3838 -0.1433,54.9239 -0.2605,9.6889 -0.2605,-100.5222 z m -219.8491,-211.6554 c 38.5258,-0.1453 101.2719,-0.1453 139.4357,10e-5 38.1637,0.1453 6.6426,0.2642 -70.047,0.2642 -76.6897,0 -107.9146,-0.119 -69.3887,-0.2643 z"
       id="path10551"
       inkscape:connector-curvature="0" />
    <path
       transform="translate(0,-1.2207032e-4)"
       inkscape:connector-curvature="0"
       id="path10960"
       d="m 2386.7432,2043.082 c -1.7099,-1.7099 -3.1089,-91.9465 -3.1089,-200.5257 0,-186.9961 0.443,-197.4168 8.3941,-197.4168 11.6351,0 19.5862,-9.1001 19.5862,-22.4168 0,-8.9811 1.6312,-10.4903 8.1609,-7.5503 4.4885,2.0209 13.9785,3.5935 21.0888,3.4946 10.5101,-0.1461 12.4136,1.4404 10.1783,8.483 -2.213,6.9726 -0.3074,8.6627 9.7672,8.6627 10.1222,0 12.0608,-1.743 10.1339,-9.1116 -2.0374,-7.7909 -0.537,-8.7425 10.3512,-6.5648 8.4845,1.6969 15.3928,-0.112 20.7013,-5.4206 7.0457,-7.0456 7.1909,-9.1184 1.2556,-17.9179 -3.6914,-5.4729 -11.1303,-9.784 -16.5307,-9.5804 -8.1089,0.3058 -9.8191,-2.3595 -9.8191,-15.3023 0,-10.2081 -2.66,-16.6934 -7.6289,-18.6002 -12.2421,-4.6977 -22.7525,5.3227 -22.0329,21.0058 0.4563,9.946 -1.1726,13.4702 -5.4649,11.8231 -3.3632,-1.2906 -10.476,-0.013 -15.8062,2.84 -9.3531,5.0057 -9.6911,4.1235 -9.6911,-25.2895 v -30.4761 h 132.5251 c 72.8889,0 135.8446,1.2738 139.9017,2.8306 6.5675,2.5202 7.3765,24.7338 7.3765,202.5477 v 199.717 l -12.8244,1.4756 -12.8243,1.4756 -4.1306,52.4631 -4.1307,52.4631 h -136.1596 c -74.8878,0 -137.5586,-1.399 -139.2685,-3.1089 z m 89.2745,-30.7007 c 1.238,-14.958 3.0693,-17.4877 12.6602,-17.4877 6.1671,0 13.2073,-3.7266 15.645,-8.2813 6.7129,-12.5432 -2.1777,-24.3624 -18.3258,-24.3624 -9.1208,0 -13.7585,-2.3579 -13.7585,-6.9951 0,-4.2799 -4.3558,-6.995 -11.2219,-6.995 -8.4229,0 -10.6856,2.0505 -9.0719,8.2212 1.7228,6.5883 -0.7966,8.2093 -12.6839,8.1609 -18.1525,-0.074 -27.8309,11.7962 -18.644,22.8658 3.3714,4.0622 11.2606,7.3859 17.5316,7.3859 9.2063,0 10.8425,1.762 8.4974,9.1507 -4.3353,13.6592 5.645,28.9965 17.7473,27.2736 8.0716,-1.1491 10.4766,-5.0668 11.6245,-18.9366 z m 154.7539,12.8512 c 3.1807,-3.8326 4.778,-12.2267 3.5494,-18.6536 -1.8461,-9.6571 -0.4216,-11.6853 8.207,-11.6853 5.7424,0 13.1992,-3.3237 16.5706,-7.3859 9.1869,-11.0696 -0.4915,-22.9396 -18.644,-22.8658 -11.8873,0.048 -14.4067,-1.5726 -12.6838,-8.1609 1.6136,-6.1707 -0.6491,-8.2212 -9.072,-8.2212 -6.8661,0 -11.2219,2.7151 -11.2219,6.995 0,4.6372 -4.6377,6.9951 -13.7585,6.9951 -16.1481,0 -25.0387,11.8192 -18.3257,24.3624 2.4376,4.5547 9.6045,8.2813 15.9264,8.2813 9.9741,0 11.4944,2.1074 11.4944,15.9333 0,20.3769 16.1123,28.6789 27.9581,14.4056 z M 2472.2386,1824.68 c 0,-4.6372 4.6377,-6.9951 13.7585,-6.9951 16.1481,0 25.0387,-11.8192 18.3258,-24.3624 -2.4377,-4.5547 -9.4779,-8.2813 -15.645,-8.2813 -9.5909,0 -11.4222,-2.5297 -12.6602,-17.4877 -1.1479,-13.8698 -3.5529,-17.7875 -11.6245,-18.9366 -12.1023,-1.7229 -22.0826,13.6144 -17.7473,27.2736 2.3451,7.3888 0.7089,9.1507 -8.4974,9.1507 -6.271,0 -14.1602,3.3237 -17.5316,7.3859 -9.1869,11.0696 0.4915,22.9396 18.644,22.8658 11.8873,-0.048 14.4067,1.5727 12.6839,8.1609 -1.6137,6.1707 0.649,8.2212 9.0719,8.2212 6.8661,0 11.2219,-2.7151 11.2219,-6.995 z m 155.5322,-1.2262 c -1.7229,-6.5882 0.7965,-8.2093 12.6838,-8.1609 18.1525,0.074 27.8309,-11.7962 18.644,-22.8658 -3.3714,-4.0622 -10.7558,-7.3859 -16.4096,-7.3859 -8.6122,0 -9.9682,-2.1234 -8.3587,-13.0896 2.3094,-15.7352 -8.2653,-26.3054 -21.9662,-21.9569 -7.1816,2.2794 -9.5506,7.0019 -9.5506,19.0389 0,13.8792 -1.5193,16.0076 -11.4267,16.0076 -6.2848,0 -13.4517,3.6182 -15.9265,8.0405 -6.9573,12.432 2.0415,24.6032 18.1905,24.6032 9.1809,0 13.8261,2.3501 13.8261,6.9951 0,4.2799 4.3558,6.995 11.2219,6.995 8.4229,0 10.6856,-2.0505 9.072,-8.2212 z m 0.5452,-197.4282 c -2.63,-8.2864 -1.6326,-9.3194 6.5047,-6.7367 12.7595,4.0497 28.6168,-4.8828 28.6168,-16.1199 0,-10.3839 -16.1244,-20.6219 -26.3179,-16.7103 -5.2036,1.9968 -6.1987,0.3396 -3.9848,-6.636 5.2488,-16.5373 -1.7238,-28.6572 -15.5656,-27.0562 -10.0477,1.1621 -12.6901,4.1565 -13.8154,15.6557 -1.0618,10.8507 -4.6519,15.4495 -15.156,19.4143 -26.3844,9.959 -13.1612,40.3435 13.8292,31.7771 7.243,-2.2989 8.4677,-1.0305 6.4512,6.6808 -2.0492,7.8363 -0.2772,9.5183 10.0275,9.5183 10.5907,0 12.0387,-1.5059 9.4103,-9.7871 z"
       style="fill:#fff6d5;fill-opacity:1;stroke:none;stroke-width:0.105;stroke-miterlimit:4;stroke-dasharray:none;stroke-opacity:1" />
  </g>
</svg>
