<?xml version="1.0" encoding="UTF-8" standalone="no"?>
<!-- Created with Inkscape (http://www.inkscape.org/) -->

<svg
   id="svg10047"
   height="122.99902"
   width="78.995674"
   version="1.1"
   viewBox="0 0 78.995674 122.99902"
   inkscape:version="0.91 r13725"
   sodipodi:docname="baroque.svgz"
   xmlns:inkscape="http://www.inkscape.org/namespaces/inkscape"
   xmlns:sodipodi="http://sodipodi.sourceforge.net/DTD/sodipodi-0.dtd"
   xmlns="http://www.w3.org/2000/svg"
   xmlns:svg="http://www.w3.org/2000/svg"
   xmlns:rdf="http://www.w3.org/1999/02/22-rdf-syntax-ns#"
   xmlns:cc="http://creativecommons.org/ns#"
   xmlns:dc="http://purl.org/dc/elements/1.1/">
  <sodipodi:namedview
     pagecolor="#ffffff"
     bordercolor="#666666"
     borderopacity="1"
     objecttolerance="10"
     gridtolerance="10"
     guidetolerance="10"
     inkscape:pageopacity="0"
     inkscape:pageshadow="2"
     inkscape:window-width="1920"
     inkscape:window-height="1016"
     id="namedview1491"
     showgrid="false"
     inkscape:zoom="1.3479675"
     inkscape:cx="513.5"
     inkscape:cy="307.5"
     inkscape:window-x="0"
     inkscape:window-y="0"
     inkscape:window-maximized="1"
     inkscape:current-layer="svg10047"
     showguides="false"
     inkscape:guide-bbox="true"
     inkscape:snap-grids="false"
     inkscape:snap-to-guides="false"
     inkscape:showpageshadow="2"
     inkscape:pagecheckerboard="0"
     inkscape:deskcolor="#d1d1d1">
    <inkscape:grid
       type="xygrid"
       id="grid11817"
       originx="-158"
       originy="-0.00096762604"
       spacingy="1"
       spacingx="1"
       units="px"
       visible="false" />
  </sodipodi:namedview>
  <metadata
     id="metadata16869">
    <rdf:RDF>
      <cc:Work
         rdf:about="">
        <dc:format>image/svg+xml</dc:format>
        <dc:type
           rdf:resource="http://purl.org/dc/dcmitype/StillImage" />
        <dc:title />
      </cc:Work>
    </rdf:RDF>
  </metadata>
  <defs
     id="defs10049" />
  <g
     transform="matrix(0.20787944,0,0,0.21133905,-207.87944,-317.00868)"
     id="club_3"
     inkscape:label="#club_3">
    <rect
       width="379.37555"
       height="581.36694"
       rx="31.643513"
       ry="32.297684"
       x="1000.3158"
       y="1500.3163"
       id="rect6152"
       style="fill:#ffffff;stroke:#000000;stroke-width:0.631597" />
    <path
       style="fill:#000000;fill-opacity:1;stroke:#fffecd;stroke-width:0.0817746;stroke-miterlimit:4;stroke-dasharray:none;stroke-opacity:1"
       d="m 1033.8241,1581.5897 c -5.792,-1.385 -9.59,-5.894 -10.504,-12.47 -0.526,-3.785 -0.526,-3.786 1.958,-3.786 2.25,0 2.571,0.338 3.398,3.575 1.864,7.299 10.086,10.34 15.597,5.768 6.681,-5.544 2.259,-15.84 -6.803,-15.84 -2.771,0 -2.924,-0.143 -2.924,-2.736 0,-2.659 0.11,-2.749 3.879,-3.168 5.063,-0.562 6.827,-2.637 6.827,-8.027 0,-4.997 -2.541,-7.993 -6.779,-7.993 -3.915,0 -6.252,1.959 -7.318,6.136 -0.859,3.362 -1.108,3.608 -3.654,3.608 -2.691,0 -2.726,-0.05 -2.274,-3.045 1.083,-7.181 6.025,-11.572 13.025,-11.572 7.433,0 12.764,5.259 12.76,12.587 0,3.257 -2.246,7.891 -4.835,9.984 -1.086,0.877 -1.124,1.166 -0.206,1.536 0.622,0.251 2.232,1.426 3.577,2.611 4.011,3.534 4.595,12.328 1.161,17.494 -2.697,4.059 -11.11,6.719 -16.885,5.338 z"
       id="path6156"
       inkscape:connector-curvature="0" />
    <path
       style="fill:#0f0f0f"
       d="m 1034.1931,1629.2187 c 0.429,-0.97 1.057,-3.04 1.397,-4.58 0.339,-1.55 0.738,-3.311 0.886,-3.911 0.372,-1.51 -0.989,-1.4 -2.199,0.17 -1.521,1.981 -6.109,3.321 -8.635,2.521 -4.59,-1.461 -6.752,-5.611 -5.08,-9.762 1.982,-4.93 7.006,-6.41 12.534,-3.71 1.246,0.61 1.204,-0.64 -0.132,-3.901 -1.265,-3.09 -1.396,-8.191 -0.276,-10.741 2.52,-5.741 8.103,-5.741 10.623,0 1.121,2.55 0.99,7.651 -0.276,10.741 -1.336,3.261 -1.379,4.511 -0.132,3.901 5.528,-2.7 10.552,-1.22 12.534,3.71 1.672,4.151 -0.49,8.301 -5.08,9.762 -2.526,0.8 -7.114,-0.54 -8.635,-2.521 -1.21,-1.57 -2.571,-1.68 -2.199,-0.17 0.148,0.6 0.547,2.361 0.887,3.911 0.339,1.54 0.967,3.61 1.396,4.58 l 0.78,1.781 -1.763,-0.491 c -0.969,-0.27 -2.24,-3.4 -2.823,-3.4 -0.583,0 -1.853,3.13 -2.823,3.4 l -1.762,0.491 z"
       id="path6158"
       inkscape:connector-curvature="0"
       sodipodi:nodetypes="csccssccssscssscscccsccc" />
    <path
       style="fill:#0f0f0f"
       d="m 1180.8181,1630.3647 c 1.036,-2.004 2.555,-6.237 3.376,-9.405 0.82,-3.169 1.784,-6.77 2.142,-8.002 0.899,-3.096 -2.39,-2.879 -5.314,0.35 -3.677,4.06 -14.764,6.799 -20.87,5.156 -11.091,-2.984 -16.317,-11.502 -12.277,-20.011 4.792,-10.091 16.931,-13.135 30.291,-7.595 3.013,1.249 2.91,-1.323 -0.32,-8.004 -3.058,-6.325 -3.374,-16.784 -0.666,-22.018 6.091,-11.77 19.582,-11.77 25.673,0 2.708,5.234 2.391,15.693 -0.666,22.018 -3.231,6.681 -3.333,9.253 -0.321,8.004 13.36,-5.54 25.5,-2.496 30.292,7.595 4.04,8.509 -1.186,17.027 -12.278,20.011 -6.105,1.643 -17.192,-1.096 -20.869,-5.156 -2.924,-3.229 -6.213,-3.446 -5.314,-0.35 0.358,1.232 1.322,4.833 2.142,8.002 0.821,3.168 2.34,7.401 3.376,9.405 l 1.884,3.643 -4.26,-1.011 c -2.343,-0.555 -5.413,-1.01 -6.823,-1.01 -1.409,0 -4.479,0.455 -6.822,1.01 l -4.26,1.011 z"
       id="path6160"
       inkscape:connector-curvature="0" />
    <path
       style="fill:#0f0f0f"
       d="m 1180.8111,1828.3247 c 1.036,-2.004 2.555,-6.237 3.376,-9.405 0.82,-3.169 1.784,-6.77 2.142,-8.002 0.899,-3.096 -2.39,-2.879 -5.314,0.35 -3.677,4.06 -14.764,6.799 -20.87,5.156 -11.091,-2.984 -16.317,-11.502 -12.277,-20.011 4.792,-10.091 16.931,-13.135 30.291,-7.595 3.013,1.249 2.91,-1.323 -0.32,-8.004 -3.058,-6.325 -3.374,-16.784 -0.666,-22.018 6.091,-11.77 19.582,-11.77 25.673,0 2.708,5.234 2.391,15.693 -0.666,22.018 -3.231,6.681 -3.333,9.253 -0.321,8.004 13.36,-5.54 25.5,-2.496 30.292,7.595 4.04,8.509 -1.186,17.027 -12.278,20.011 -6.105,1.643 -17.192,-1.096 -20.869,-5.156 -2.924,-3.229 -6.213,-3.446 -5.314,-0.35 0.358,1.232 1.322,4.833 2.142,8.002 0.821,3.168 2.34,7.401 3.376,9.405 l 1.884,3.643 -4.26,-1.011 c -2.343,-0.555 -5.413,-1.01 -6.823,-1.01 -1.409,0 -4.479,0.455 -6.822,1.01 l -4.26,1.011 z"
       id="path6162"
       inkscape:connector-curvature="0" />
    <path
       style="fill:#0f0f0f"
       d="m 1199.2081,1951.6517 c -1.036,2.004 -2.555,6.236 -3.376,9.405 -0.82,3.169 -1.784,6.769 -2.142,8.002 -0.899,3.096 2.39,2.879 5.314,-0.35 3.677,-4.061 14.764,-6.8 20.869,-5.157 11.092,2.985 16.318,11.503 12.278,20.012 -4.792,10.091 -16.932,13.135 -30.291,7.595 -3.013,-1.249 -2.91,1.323 0.32,8.004 3.057,6.325 3.374,16.784 0.666,22.018 -6.091,11.77 -19.582,11.77 -25.673,0 -2.708,-5.234 -2.391,-15.693 0.666,-22.018 3.23,-6.681 3.333,-9.253 0.321,-8.004 -13.36,5.54 -25.5,2.496 -30.292,-7.595 -4.04,-8.509 1.186,-17.027 12.277,-20.012 6.106,-1.643 17.193,1.096 20.87,5.157 2.924,3.229 6.213,3.446 5.314,0.35 -0.358,-1.233 -1.322,-4.833 -2.142,-8.002 -0.821,-3.169 -2.34,-7.401 -3.376,-9.405 l -1.884,-3.644 4.26,1.012 c 2.343,0.555 5.413,1.01 6.822,1.01 1.41,0 4.48,-0.455 6.823,-1.01 l 4.26,-1.012 z"
       id="path6164"
       inkscape:connector-curvature="0" />
    <path
       sodipodi:nodetypes="csccssccssscssscscccsccc"
       inkscape:connector-curvature="0"
       id="path6166"
       d="m 1338.1921,1952.7797 c 0.429,0.97 1.058,3.04 1.397,4.58 0.34,1.551 0.738,3.311 0.887,3.911 0.371,1.51 -0.989,1.4 -2.199,-0.17 -1.521,-1.98 -6.109,-3.321 -8.636,-2.521 -4.589,1.461 -6.751,5.611 -5.08,9.762 1.983,4.93 7.006,6.411 12.534,3.71 1.247,-0.61 1.204,0.64 -0.132,3.901 -1.265,3.09 -1.396,8.191 -0.275,10.741 2.52,5.741 8.102,5.741 10.623,0 1.12,-2.55 0.989,-7.651 -0.276,-10.741 -1.337,-3.261 -1.379,-4.511 -0.132,-3.901 5.528,2.701 10.551,1.22 12.534,-3.71 1.672,-4.151 -0.491,-8.301 -5.08,-9.762 -2.527,-0.8 -7.114,0.541 -8.636,2.521 -1.209,1.57 -2.57,1.68 -2.198,0.17 0.148,-0.6 0.547,-2.36 0.886,-3.911 0.34,-1.54 0.968,-3.61 1.397,-4.58 l 0.779,-1.78 -1.762,0.49 c -0.97,0.27 -2.24,3.4 -2.823,3.4 -0.583,0 -1.854,-3.13 -2.823,-3.4 l -1.763,-0.49 z"
       style="fill:#0f0f0f" />
    <path
       style="fill:#000000;fill-opacity:1;stroke:#fffecd;stroke-width:0.0817746;stroke-miterlimit:4;stroke-dasharray:none;stroke-opacity:1"
       d="m 1346.1751,1999.8367 c 5.792,1.385 9.59,5.894 10.504,12.47 0.526,3.785 0.526,3.787 -1.958,3.787 -2.25,0 -2.571,-0.339 -3.398,-3.575 -1.864,-7.3 -10.086,-10.34 -15.597,-5.768 -6.681,5.544 -2.259,15.839 6.803,15.839 2.771,0 2.924,0.143 2.924,2.736 0,2.659 -0.11,2.749 -3.88,3.168 -5.062,0.563 -6.826,2.637 -6.826,8.027 0,4.998 2.541,7.994 6.779,7.994 3.915,0 6.252,-1.96 7.318,-6.136 0.859,-3.363 1.108,-3.609 3.654,-3.609 2.691,0 2.726,0.05 2.274,3.045 -1.083,7.182 -6.025,11.572 -13.025,11.572 -7.433,0 -12.764,-5.259 -12.76,-12.587 0,-3.257 2.246,-7.891 4.835,-9.984 1.086,-0.877 1.124,-1.166 0.206,-1.536 -0.623,-0.251 -2.232,-1.426 -3.577,-2.611 -4.011,-3.534 -4.595,-12.327 -1.161,-17.494 2.697,-4.059 11.11,-6.719 16.885,-5.338 z"
       id="path6168"
       inkscape:connector-curvature="0" />
    <path
       inkscape:connector-curvature="0"
       id="path10491-3"
       d="m 1039.4156,2051.2857 c -1.7894,-0.2256 -4.3602,-1.683 -6.0188,-3.412 l -2.8951,-3.0182 -0.2805,-201.0696 c -0.1543,-110.5883 -0.033,-202.0841 0.2699,-203.324 0.5171,-2.1182 1.0659,-2.2543 9.0901,-2.2543 5.2283,0 9.9027,-0.5688 12.0546,-1.4668 6.4464,-2.6902 6.452,-2.7398 6.452,-57.0942 v -48.6062 l 2.2571,-0.5528 c 1.2414,-0.304 65.3331,-0.4253 142.426,-0.2695 l 140.169,0.2832 3.2793,3.2754 3.2793,3.2754 0.2804,201.1162 c 0.1543,110.6138 0.033,202.1306 -0.2699,203.3704 -0.5171,2.1183 -1.0659,2.2544 -9.0901,2.2544 -5.2283,0 -9.9027,0.5687 -12.0546,1.4668 -6.4454,2.6898 -6.452,2.7486 -6.452,57.0061 0,43.3178 -0.1701,48.5832 -1.5868,49.1262 -1.7062,0.6539 -275.7036,0.5501 -280.9099,-0.1065 z m 277.481,-49.9145 c 0,-52.3065 -0.102,-51.3565 6.15,-57.2662 4.5611,-4.3115 7.6902,-5.3215 16.4858,-5.3215 h 7.4582 v -197.9113 c 0,-171.4923 -0.196,-198.3799 -1.4686,-201.4219 -2.8659,-6.8509 6.3128,-6.4442 -145.4584,-6.4442 h -136.9601 v 47.6233 c 0,52.3066 0.1021,51.3565 -6.15,57.2663 -4.5611,4.3115 -7.6902,5.3215 -16.4858,5.3215 h -7.4582 v 197.9113 c 0,218.3114 -0.4486,203.4575 6.232,206.3566 2.8032,1.2164 23.8693,1.4369 140.4764,1.4703 l 137.1787,0.039 v -47.6234 z"
       style="fill:#e2e2e2" />
    <path
       inkscape:connector-curvature="0"
       id="path10493-6"
       d="m 1039.9265,2051.2985 c -1.437,-0.2228 -4.1455,-1.9845 -6.0188,-3.9149 l -3.406,-3.5098 v -202.0816 -202.0817 l 9.5297,-0.5391 c 5.9768,-0.3382 10.6725,-1.1507 12.5947,-2.1792 5.9751,-3.1973 5.9166,-2.6823 6.4649,-56.8959 l 0.5016,-49.595 h 141.1746 141.1746 l 3.7783,3.7738 3.7784,3.7739 v 202.1206 202.1206 l -9.5298,0.5687 c -5.2414,0.3128 -10.805,1.1896 -12.3637,1.9485 -6.1905,3.0138 -6.145,2.6257 -6.6959,57.097 l -0.5015,49.595 -138.9342,0.1021 c -76.4138,0.056 -140.1099,-0.08 -141.5469,-0.303 z m 277.9732,-51.6361 0.5016,-49.8331 4.7745,-4.7679 4.7745,-4.7679 9.7709,-0.5045 9.771,-0.5046 0.271,-197.3781 c 0.3057,-222.6678 0.95,-204.3597 -7.3207,-208.0138 -4.1497,-1.8333 -8.7759,-1.8872 -141.0654,-1.6414 l -136.7751,0.254 -0.5016,49.8332 -0.5016,49.8331 -4.7745,4.7679 -4.7745,4.7679 -9.7709,0.5045 -9.771,0.5046 -0.271,197.3781 c -0.3051,222.2518 -0.9232,204.3099 7.1649,207.982 3.9931,1.813 9.0198,1.8718 141.0685,1.6496 l 136.9278,-0.2305 z"
       style="fill:#dbdbdb" />
    <path
       inkscape:connector-curvature="0"
       id="path10495-0"
       d="m 1039.9265,2051.2985 c -1.437,-0.2228 -4.1455,-1.9845 -6.0188,-3.9149 l -3.406,-3.5098 v -202.0816 -202.0817 l 10.0772,-0.501 c 10.6855,-0.5311 14.1957,-1.8457 16.7213,-6.2619 0.9833,-1.7195 1.4082,-14.1397 1.7908,-52.3503 l 0.5016,-50.096 h 141.1746 141.1746 l 3.7783,3.7738 3.7784,3.7739 v 202.1206 202.1206 l -10.0773,0.5009 c -10.6855,0.5312 -14.1957,1.8458 -16.7213,6.262 -0.9834,1.7195 -1.4082,14.1397 -1.7908,52.3503 l -0.5015,50.096 -138.9342,0.1021 c -76.4138,0.056 -140.1099,-0.08 -141.5469,-0.303 z m 277.9732,-50.897 c 0.3659,-35.8139 0.8304,-49.6667 1.7172,-51.211 2.097,-3.6518 8.1342,-8.2812 11.5529,-8.8588 1.8049,-0.305 6.2158,-0.6654 9.802,-0.8009 l 6.5204,-0.2464 0.2506,-198.38 c 0.2365,-187.2117 0.1517,-198.5775 -1.5047,-201.8868 -1.003,-2.0037 -3.2602,-4.2584 -5.2663,-5.2605 -3.3003,-1.6485 -11.756,-1.7387 -140.9404,-1.5028 l -137.4294,0.2508 -0.5016,49.0941 c -0.3659,35.8139 -0.8304,49.6667 -1.7172,51.211 -2.0969,3.6518 -8.1342,8.2812 -11.5529,8.8588 -1.8049,0.305 -6.2158,0.6654 -9.802,0.8009 l -6.5204,0.2464 -0.2506,198.38 c -0.2365,187.2117 -0.1518,198.5775 1.5047,201.8868 1.003,2.0036 3.2602,4.2584 5.2663,5.2604 3.3003,1.6486 11.756,1.7388 140.9404,1.5029 l 137.4294,-0.2509 z"
       style="fill:#c1c1c1" />
    <path
       inkscape:connector-curvature="0"
       id="path10497-6"
       d="m 1039.5299,2050.4413 c -2.3002,-1.1224 -2.4184,-1.2927 -0.5016,-0.7226 4.3825,1.3036 276.9367,1.4658 278.5051,0.1657 1.1215,-0.9297 1.3759,-9.8642 1.405,-49.3551 0.031,-41.44 0.251,-48.5721 1.5676,-50.7247 l 1.532,-2.5048 -0.7812,2.5048 c -0.4297,1.3776 -0.9216,24.9352 -1.0931,52.3503 l -0.3119,49.8454 -138.6562,-0.045 c -119.7106,-0.039 -139.0675,-0.2459 -141.6657,-1.5138 z m -8.4107,-8.5585 c -0.8089,-2.3176 -1.1191,-58.4111 -1.1191,-202.345 v -199.1386 l 9.7805,-0.4589 c 5.3794,-0.2525 10.9091,-0.7739 12.2884,-1.1586 l 2.5079,-0.6997 -2.5079,1.5302 c -1.6846,1.0279 -5.1585,1.5418 -10.583,1.5657 -4.8977,0.022 -8.5489,0.5086 -9.279,1.2378 -1.6733,1.6712 -1.7566,393.6749 -0.085,398.4652 0.6155,1.7635 0.8934,3.4318 0.6175,3.7073 -0.2759,0.2756 -1.0052,-0.9419 -1.6207,-2.7054 z m 296.8119,-99.4943 c 1.69,-1.0312 5.1664,-1.5418 10.6608,-1.5657 5.618,-0.024 8.5055,-0.4596 9.2864,-1.3995 1.3025,-1.5674 1.1454,-396.0492 -0.1594,-400.4057 -0.5715,-1.9084 -0.4001,-1.7891 0.7202,0.501 1.2763,2.609 1.4764,29.3445 1.5157,202.5443 l 0.045,199.5385 -9.7806,0.459 c -5.3793,0.2525 -10.9091,0.7738 -12.2884,1.1586 l -2.5078,0.6996 2.5078,-1.5301 z m -269.1878,-310.1924 c 0.4297,-1.3776 0.9216,-24.9352 1.0931,-52.3503 l 0.3119,-49.8455 138.6562,0.045 c 119.7106,0.039 139.0675,0.2459 141.6657,1.5138 2.3002,1.1225 2.4184,1.2928 0.5016,0.7226 -4.3825,-1.3036 -276.9367,-1.4657 -278.5051,-0.1656 -1.1215,0.9296 -1.3759,9.8641 -1.405,49.3551 -0.031,41.4399 -0.2509,48.5721 -1.5676,50.7247 l -1.532,2.5048 0.7812,-2.5048 z"
       style="fill:#b9b9b9" />
    <path
       inkscape:connector-curvature="0"
       id="path10499-2"
       d="m 1178.8671,2051.2489 c 98.8726,-0.1855 137.707,-0.5693 138.6737,-1.3707 1.0801,-0.8952 1.3956,-10.4501 1.6131,-48.8399 l 0.2704,-47.727 0.2409,49.3445 0.2408,49.3445 -139.1849,-0.2468 -139.185,-0.2469 z m -148.6187,-210.904 -0.2483,-200.1334 9.279,0.2016 9.279,0.2016 -7.6852,0.3399 c -4.7332,0.2093 -8.1037,0.8436 -8.7749,1.6514 -0.7743,0.9318 -1.1638,58.7164 -1.3456,199.5919 l -0.2558,198.2804 z m 308.8788,100.7012 c 4.7332,-0.2093 8.1037,-0.8437 8.7749,-1.6514 0.7743,-0.9318 1.1639,-58.7164 1.3456,-199.5919 l 0.2558,-198.2804 0.2483,200.1334 0.2482,200.1334 -9.279,-0.2016 -9.279,-0.2017 z m -278.7923,-361.7012 -0.2408,-49.3446 139.185,0.2469 139.1849,0.2469 -137.331,0.2577 c -98.8726,0.1855 -137.707,0.5693 -138.6737,1.3706 -1.08,0.8953 -1.3956,10.4502 -1.6131,48.84 l -0.2704,47.727 z"
       style="fill:#aeaeae" />
    <path
       inkscape:connector-curvature="0"
       id="path10501"
       d="m 1179.3686,2051.2489 c 99.8345,-0.1866 138.2054,-0.5667 139.185,-1.3786 1.0399,-0.8621 1.3524,-0.7455 1.3524,0.5045 0,1.4928 -11.3637,1.6054 -139.1849,1.3786 l -139.185,-0.2469 z m -149.1202,-210.904 c -0.2284,-184.0432 -0.1175,-200.1334 1.3792,-200.1334 1.2523,0 1.3685,0.3117 0.5041,1.352 -0.819,0.9857 -1.1928,55.2285 -1.3793,200.1334 l -0.2557,198.7814 z m 317.62,100.0922 c 0.819,-0.9856 1.1928,-55.2285 1.3793,-200.1334 l 0.2558,-198.7813 0.2482,200.1334 c 0.2284,184.0432 0.1175,200.1334 -1.3792,200.1334 -1.2523,0 -1.3685,-0.3117 -0.5041,-1.3521 z m -287.7743,-408.8112 c 0,-1.4928 11.3637,-1.6054 139.185,-1.3787 l 139.1849,0.2469 -137.8325,0.2577 c -99.8345,0.1866 -138.2054,0.5666 -139.185,1.3786 -1.0399,0.862 -1.3524,0.7455 -1.3524,-0.5045 z"
       style="fill:#9f9f9f" />
    <path
       inkscape:connector-curvature="0"
       id="path10503"
       d="m 1111.5831,2051.249 c 38.5259,-0.1453 101.272,-0.1453 139.4357,0 38.1638,0.1454 6.6427,0.2643 -70.047,0.2643 -76.6896,0 -107.9145,-0.119 -69.3887,-0.2643 z m -81.0912,-211.1546 c 0,-110.2111 0.1172,-155.1489 0.2605,-99.8616 0.1433,55.2872 0.1432,145.4599 0,200.3838 -0.1433,54.9239 -0.2605,9.6889 -0.2605,-100.5222 z m 318.9968,-98.1881 c 0,-110.2111 0.1172,-155.1489 0.2605,-99.8616 0.1433,55.2872 0.1433,145.4599 0,200.3838 -0.1433,54.9239 -0.2605,9.6889 -0.2605,-100.5222 z m -219.8491,-211.6554 c 38.5258,-0.1453 101.2719,-0.1453 139.4357,10e-5 38.1637,0.1453 6.6426,0.2642 -70.047,0.2642 -76.6897,0 -107.9146,-0.119 -69.3887,-0.2643 z"
       style="fill:#000000" />
    <path
       transform="translate(0,-1.2207032e-4)"
       inkscape:connector-curvature="0"
       id="path10954-6"
       d="m 1035.9151,1845.6652 c 0,-189.9899 0.441,-200.5257 8.3941,-200.5257 16.5344,0 19.5862,-9.6022 19.5862,-61.6261 v -50.434 l 138.7358,1.2353 138.7358,1.2352 1.2154,201.6915 c 1.157,191.9984 0.8096,201.6916 -7.2283,201.6916 -16.4378,0 -19.6357,9.6456 -19.6357,59.225 v 48.0329 h -139.9017 -139.9016 z m 167.9762,177.0326 c 2.7972,-5.2266 3.826,-13.4722 2.2863,-18.3235 -2.2131,-6.9728 -0.1676,-9.1341 9.7639,-10.3165 27.9515,-3.328 24.4707,-31.8079 -3.8876,-31.8079 -10.4557,0 -13.2503,-1.7401 -11.2338,-6.9951 2.0105,-5.2394 -0.7536,-6.995 -11.0132,-6.995 -10.2596,0 -13.0238,1.7556 -11.0132,6.995 2.0165,5.255 -0.7781,6.9951 -11.2338,6.9951 -27.9898,0 -31.947,28.4517 -4.417,31.7568 9.8325,1.1804 11.9663,3.8303 11.6634,14.4839 -0.2039,7.1716 1.1131,15.4402 2.9268,18.3747 5.3062,8.5857 20.6404,6.1427 26.1582,-4.1675 z m -3.0712,-198.0178 c -2.0165,-5.255 0.7781,-6.9951 11.2338,-6.9951 28.3583,0 31.8391,-28.4799 3.8876,-31.8079 -9.9315,-1.1824 -11.977,-3.3437 -9.7639,-10.3164 3.8182,-12.0302 -5.4119,-27.8265 -16.2596,-27.8265 -11.1311,0 -15.587,6.9913 -15.1117,23.7101 0.3029,10.6536 -1.8309,13.3035 -11.6634,14.4839 -27.53,3.3051 -23.5728,31.7568 4.417,31.7568 10.4557,0 13.2503,1.7401 11.2338,6.9951 -2.0106,5.2394 0.7536,6.995 11.0132,6.995 10.2596,0 13.0237,-1.7556 11.0132,-6.995 z m -0.2526,-197.8781 c -1.8737,-7.165 -0.4491,-8.512 6.9549,-6.5758 11.4859,3.0036 28.9184,-5.7712 28.9184,-14.5564 0,-10.4645 -14.5855,-22.0863 -24.4734,-19.5006 -7.3645,1.9259 -8.6075,0.5217 -6.5394,-7.3869 3.4352,-13.1361 -4.5606,-26.9104 -15.6211,-26.9104 -11.0605,0 -19.0564,13.7743 -15.6212,26.9104 2.0682,7.9086 0.8252,9.3128 -6.5393,7.3869 -8.7338,-2.2839 -24.4734,8.6492 -24.4734,16.9999 0,9.0569 15.9591,19.3645 26.7792,17.2961 9.2512,-1.7685 10.899,-0.5652 9.0273,6.5921 -1.8391,7.0326 0.2916,8.7555 10.8274,8.7555 10.6677,0 12.677,-1.6825 10.7606,-9.0108 z"
       style="fill:#fff6d5;fill-opacity:1;stroke:none;stroke-width:0.105;stroke-miterlimit:4;stroke-dasharray:none;stroke-opacity:1" />
  </g>
</svg>
