<?xml version="1.0" encoding="UTF-8" standalone="no"?>
<!-- Created with Inkscape (http://www.inkscape.org/) -->

<svg
   id="svg10047"
   height="122.99903"
   width="78.995682"
   version="1.1"
   viewBox="0 0 78.995682 122.99903"
   inkscape:version="0.91 r13725"
   sodipodi:docname="baroque.svgz"
   xmlns:inkscape="http://www.inkscape.org/namespaces/inkscape"
   xmlns:sodipodi="http://sodipodi.sourceforge.net/DTD/sodipodi-0.dtd"
   xmlns="http://www.w3.org/2000/svg"
   xmlns:svg="http://www.w3.org/2000/svg"
   xmlns:rdf="http://www.w3.org/1999/02/22-rdf-syntax-ns#"
   xmlns:cc="http://creativecommons.org/ns#"
   xmlns:dc="http://purl.org/dc/elements/1.1/">
  <sodipodi:namedview
     pagecolor="#ffffff"
     bordercolor="#666666"
     borderopacity="1"
     objecttolerance="10"
     gridtolerance="10"
     guidetolerance="10"
     inkscape:pageopacity="0"
     inkscape:pageshadow="2"
     inkscape:window-width="1920"
     inkscape:window-height="1016"
     id="namedview1491"
     showgrid="false"
     inkscape:zoom="1.3479675"
     inkscape:cx="513.5"
     inkscape:cy="307.5"
     inkscape:window-x="0"
     inkscape:window-y="0"
     inkscape:window-maximized="1"
     inkscape:current-layer="svg10047"
     showguides="false"
     inkscape:guide-bbox="true"
     inkscape:snap-grids="false"
     inkscape:snap-to-guides="false"
     inkscape:showpageshadow="2"
     inkscape:pagecheckerboard="0"
     inkscape:deskcolor="#d1d1d1">
    <inkscape:grid
       type="xygrid"
       id="grid11817"
       originx="-79"
       originy="-0.00096762604"
       spacingy="1"
       spacingx="1"
       units="px"
       visible="false" />
  </sodipodi:namedview>
  <metadata
     id="metadata16869">
    <rdf:RDF>
      <cc:Work
         rdf:about="">
        <dc:format>image/svg+xml</dc:format>
        <dc:type
           rdf:resource="http://purl.org/dc/dcmitype/StillImage" />
        <dc:title />
      </cc:Work>
    </rdf:RDF>
  </metadata>
  <defs
     id="defs10049" />
  <g
     transform="matrix(0.20787944,0,0,0.21133905,-114.33369,-317.00868)"
     id="club_2"
     inkscape:label="#club_2">
    <rect
       width="379.37558"
       height="581.367"
       rx="31.643515"
       ry="32.297688"
       x="550.3158"
       y="1500.3163"
       id="rect6116"
       style="fill:#ffffff;stroke:#000000;stroke-width:0.631597" />
    <path
       style="fill:#000000;fill-opacity:1;stroke:#fffecd;stroke-width:0.0804347;stroke-miterlimit:4;stroke-dasharray:none;stroke-opacity:1"
       d="m 573.58414,1578.1267 c 0.296,-2.104 1.421,-5.671 2.501,-7.928 1.829,-3.825 3.807,-5.946 15.398,-16.51 4.592,-4.185 5.687,-7.213 4.22,-11.668 -1.764,-5.355 -10.038,-6.74 -13.548,-2.269 -0.878,1.118 -1.835,3.989 -2.137,6.411 -0.52,4.172 -0.66,4.387 -2.865,4.387 -2.232,0 -2.318,-0.142 -2.318,-3.855 0,-8.392 5.649,-14.663 13.207,-14.663 8.441,0 14.115,5.175 14.112,12.87 0,5.596 -2.079,8.65 -10.846,15.946 -7.387,6.146 -11.637,11.13 -11.647,13.656 0,0.744 2.287,1.006 8.786,1.006 h 8.79 l 0.554,-5.636 c 0.545,-5.54 0.594,-5.636 2.861,-5.636 2.224,0 2.307,0.141 2.307,3.907 0,2.15 -0.232,6.135 -0.516,8.857 l -0.516,4.949 h -14.441 -14.44 z"
       id="path6120"
       inkscape:connector-curvature="0" />
    <path
       style="fill:#0f0f0f"
       d="m 584.19314,1629.2187 c 0.429,-0.97 1.057,-3.04 1.397,-4.58 0.339,-1.55 0.738,-3.311 0.886,-3.911 0.372,-1.51 -0.989,-1.4 -2.199,0.17 -1.521,1.981 -6.109,3.321 -8.635,2.521 -4.59,-1.461 -6.752,-5.611 -5.08,-9.762 1.982,-4.93 7.006,-6.41 12.534,-3.71 1.246,0.61 1.204,-0.64 -0.132,-3.901 -1.265,-3.09 -1.396,-8.191 -0.276,-10.741 2.52,-5.741 8.103,-5.741 10.623,0 1.121,2.55 0.99,7.651 -0.276,10.741 -1.336,3.261 -1.379,4.511 -0.132,3.901 5.528,-2.7 10.552,-1.22 12.534,3.71 1.672,4.151 -0.49,8.301 -5.08,9.762 -2.526,0.8 -7.114,-0.54 -8.635,-2.521 -1.21,-1.57 -2.571,-1.68 -2.199,-0.17 0.148,0.6 0.547,2.361 0.887,3.911 0.339,1.54 0.967,3.61 1.396,4.58 l 0.78,1.781 -1.763,-0.491 c -0.969,-0.27 -2.24,-3.4 -2.823,-3.4 -0.583,0 -1.853,3.13 -2.823,3.4 l -1.762,0.491 z"
       id="path6122"
       inkscape:connector-curvature="0"
       sodipodi:nodetypes="csccssccssscssscscccsccc" />
    <path
       style="fill:#0f0f0f"
       d="m 730.81814,1630.3647 c 1.036,-2.004 2.555,-6.237 3.375,-9.405 0.821,-3.169 1.785,-6.77 2.143,-8.002 0.899,-3.096 -2.39,-2.879 -5.314,0.35 -3.677,4.06 -14.764,6.799 -20.87,5.156 -11.091,-2.984 -16.317,-11.502 -12.277,-20.011 4.792,-10.091 16.931,-13.135 30.291,-7.595 3.013,1.249 2.91,-1.323 -0.32,-8.004 -3.058,-6.325 -3.374,-16.784 -0.666,-22.018 6.091,-11.77 19.582,-11.77 25.673,0 2.708,5.234 2.391,15.693 -0.666,22.018 -3.231,6.681 -3.334,9.253 -0.321,8.004 13.36,-5.54 25.5,-2.496 30.292,7.595 4.04,8.509 -1.186,17.027 -12.278,20.011 -6.106,1.643 -17.193,-1.096 -20.869,-5.156 -2.924,-3.229 -6.213,-3.446 -5.314,-0.35 0.358,1.232 1.322,4.833 2.142,8.002 0.821,3.168 2.34,7.401 3.376,9.405 l 1.884,3.643 -4.26,-1.011 c -2.343,-0.555 -5.414,-1.01 -6.823,-1.01 -1.409,0 -4.479,0.455 -6.822,1.01 l -4.26,1.011 z"
       id="path6124"
       inkscape:connector-curvature="0" />
    <path
       style="fill:#0f0f0f"
       d="m 749.20814,1951.6517 c -1.036,2.004 -2.555,6.236 -3.376,9.405 -0.82,3.169 -1.784,6.769 -2.142,8.001 -0.899,3.096 2.39,2.88 5.314,-0.349 3.677,-4.061 14.763,-6.8 20.869,-5.157 11.092,2.985 16.318,11.503 12.278,20.012 -4.792,10.091 -16.932,13.135 -30.292,7.595 -3.012,-1.249 -2.91,1.323 0.321,8.004 3.057,6.325 3.374,16.784 0.666,22.018 -6.091,11.77 -19.582,11.77 -25.673,0 -2.708,-5.234 -2.392,-15.693 0.666,-22.018 3.23,-6.681 3.333,-9.253 0.32,-8.004 -13.36,5.54 -25.499,2.496 -30.291,-7.595 -4.04,-8.509 1.186,-17.027 12.277,-20.012 6.106,-1.643 17.193,1.096 20.87,5.157 2.924,3.229 6.213,3.445 5.314,0.349 -0.358,-1.232 -1.322,-4.832 -2.142,-8.001 -0.821,-3.169 -2.34,-7.401 -3.376,-9.405 l -1.884,-3.644 4.26,1.011 c 2.343,0.556 5.413,1.011 6.822,1.011 1.41,0 4.48,-0.455 6.822,-1.011 l 4.261,-1.011 z"
       id="path6126"
       inkscape:connector-curvature="0" />
    <path
       sodipodi:nodetypes="csccssccssscssscscccsccc"
       inkscape:connector-curvature="0"
       id="path6128"
       d="m 888.19314,1952.7797 c 0.428,0.97 1.057,3.04 1.396,4.58 0.34,1.551 0.739,3.311 0.887,3.911 0.372,1.51 -0.989,1.4 -2.199,-0.17 -1.521,-1.98 -6.109,-3.321 -8.635,-2.521 -4.59,1.461 -6.752,5.611 -5.081,9.762 1.983,4.93 7.006,6.411 12.534,3.71 1.247,-0.61 1.204,0.64 -0.132,3.901 -1.265,3.09 -1.396,8.191 -0.275,10.741 2.52,5.741 8.103,5.741 10.623,0 1.12,-2.55 0.989,-7.651 -0.276,-10.741 -1.337,-3.261 -1.379,-4.511 -0.132,-3.901 5.528,2.701 10.551,1.22 12.534,-3.71 1.672,-4.151 -0.491,-8.301 -5.08,-9.762 -2.527,-0.8 -7.114,0.541 -8.635,2.521 -1.21,1.57 -2.571,1.68 -2.199,0.17 0.148,-0.6 0.547,-2.36 0.886,-3.911 0.34,-1.54 0.968,-3.61 1.397,-4.58 l 0.779,-1.78 -1.762,0.49 c -0.97,0.27 -2.24,3.4 -2.823,3.4 -0.583,0 -1.854,-3.13 -2.823,-3.4 l -1.763,-0.49 z"
       style="fill:#0f0f0f" />
    <path
       style="fill:#000000;fill-opacity:1;stroke:#fffecd;stroke-width:0.0804347;stroke-miterlimit:4;stroke-dasharray:none;stroke-opacity:1"
       d="m 906.41514,2003.3007 c -0.296,2.103 -1.421,5.67 -2.501,7.927 -1.829,3.825 -3.807,5.946 -15.397,16.51 -4.593,4.185 -5.688,7.213 -4.221,11.668 1.764,5.355 10.038,6.74 13.548,2.269 0.878,-1.118 1.835,-3.989 2.137,-6.411 0.52,-4.172 0.66,-4.387 2.865,-4.387 2.232,0 2.318,0.143 2.318,3.855 0,8.392 -5.649,14.664 -13.207,14.664 -8.441,0 -14.115,-5.175 -14.112,-12.87 0,-5.596 2.079,-8.65 10.846,-15.946 7.387,-6.147 11.637,-11.131 11.647,-13.656 0,-0.744 -2.287,-1.007 -8.786,-1.007 h -8.79 l -0.554,5.636 c -0.545,5.541 -0.594,5.636 -2.861,5.636 -2.224,0 -2.307,-0.141 -2.307,-3.907 0,-2.149 0.232,-6.135 0.516,-8.857 l 0.516,-4.949 h 14.441 14.44 z"
       id="path6130"
       inkscape:connector-curvature="0" />
    <path
       style="fill:#e2e2e2"
       d="m 589.41559,2051.2857 c -1.78943,-0.2256 -4.36027,-1.683 -6.01881,-3.412 l -2.89516,-3.0182 -0.28045,-201.0696 c -0.15426,-110.5883 -0.0328,-202.0841 0.26989,-203.324 0.51713,-2.1182 1.06589,-2.2543 9.0901,-2.2543 5.22828,0 9.90272,-0.5688 12.05461,-1.4668 6.44644,-2.6902 6.45205,-2.7398 6.45205,-57.0942 v -48.6062 l 2.25706,-0.5528 c 1.24137,-0.304 65.33307,-0.4253 142.426,-0.2695 l 140.16896,0.2832 3.27929,3.2754 3.27929,3.2754 0.28046,201.1162 c 0.15425,110.6138 0.0328,202.1306 -0.26989,203.3704 -0.51712,2.1183 -1.06589,2.2544 -9.09011,2.2544 -5.22827,0 -9.90272,0.5687 -12.0546,1.4668 -6.4454,2.6898 -6.45205,2.7486 -6.45205,57.0061 0,43.3178 -0.17008,48.5832 -1.58676,49.1262 -1.70623,0.6539 -275.70358,0.5501 -280.90988,-0.1065 z m 277.48096,-49.9145 c 0,-52.3065 -0.10203,-51.3565 6.14998,-57.2662 4.56114,-4.3115 7.69029,-5.3215 16.48585,-5.3215 h 7.45821 v -197.9113 c 0,-171.4923 -0.19604,-198.3799 -1.4686,-201.4219 -2.86596,-6.8509 6.31277,-6.4442 -145.4584,-6.4442 H 613.1035 v 47.6233 c 0,52.3066 0.10202,51.3565 -6.14998,57.2663 -4.56115,4.3115 -7.69029,5.3215 -16.48585,5.3215 h -7.45821 v 197.9113 c 0,218.3114 -0.4486,203.4575 6.23204,206.3566 2.8032,1.2164 23.8693,1.4369 140.4764,1.4703 l 137.17865,0.039 v -47.6234 z"
       id="path10475"
       inkscape:connector-curvature="0" />
    <path
       style="fill:#dbdbdb"
       d="m 589.92645,2051.2985 c -1.43702,-0.2228 -4.14548,-1.9845 -6.01881,-3.9149 l -3.40602,-3.5098 v -202.0816 -202.0817 l 9.52978,-0.5391 c 5.97674,-0.3382 10.67248,-1.1507 12.59467,-2.1792 5.97513,-3.1973 5.91661,-2.6823 6.46489,-56.8959 l 0.50156,-49.595 h 141.17461 141.1746 l 3.77835,3.7738 3.77834,3.7739 v 202.1206 202.1206 l -9.52977,0.5687 c -5.24138,0.3128 -10.80501,1.1896 -12.36363,1.9485 -6.19057,3.0138 -6.14505,2.6257 -6.69593,57.097 l -0.50157,49.595 -138.93414,0.1021 c -76.41378,0.056 -140.10989,-0.08 -141.54693,-0.303 z m 277.97324,-51.6361 0.50156,-49.8331 4.7745,-4.7679 4.77451,-4.7679 9.77095,-0.5045 9.77094,-0.5046 0.27101,-197.3781 c 0.30573,-222.6678 0.95005,-204.3597 -7.32069,-208.0138 -4.14965,-1.8333 -8.77592,-1.8872 -141.06545,-1.6414 l -136.77509,0.254 -0.50157,49.8332 -0.50157,49.8331 -4.7745,4.7679 -4.7745,4.7679 -9.77095,0.5045 -9.77095,0.5046 -0.27101,197.3781 c -0.30515,222.2518 -0.92324,204.3099 7.16484,207.982 3.9931,1.813 9.01982,1.8718 141.06852,1.6496 l 136.92787,-0.2305 z"
       id="path10477"
       inkscape:connector-curvature="0" />
    <path
       style="fill:#c1c1c1"
       d="m 589.92645,2051.2985 c -1.43702,-0.2228 -4.14548,-1.9845 -6.01881,-3.9149 l -3.40602,-3.5098 v -202.0816 -202.0817 l 10.07725,-0.501 c 10.68548,-0.5311 14.19572,-1.8457 16.72131,-6.2619 0.98334,-1.7195 1.4082,-14.1397 1.79078,-52.3503 l 0.50156,-50.096 h 141.17461 141.1746 l 3.77835,3.7738 3.77834,3.7739 v 202.1206 202.1206 l -10.07724,0.5009 c -10.6855,0.5312 -14.19572,1.8458 -16.72131,6.262 -0.98335,1.7195 -1.40822,14.1397 -1.79078,52.3503 l -0.50157,50.096 -138.93414,0.1021 c -76.41378,0.056 -140.10989,-0.08 -141.54693,-0.303 z m 277.97324,-50.897 c 0.36589,-35.8139 0.83038,-49.6667 1.71715,-51.211 2.09698,-3.6518 8.13422,-8.2812 11.55293,-8.8588 1.8049,-0.305 6.2158,-0.6654 9.80201,-0.8009 l 6.52037,-0.2464 0.2506,-198.38 c 0.23649,-187.2117 0.15177,-198.5775 -1.5047,-201.8868 -1.00295,-2.0037 -3.26016,-4.2584 -5.26627,-5.2605 -3.30033,-1.6485 -11.75604,-1.7387 -140.94041,-1.5028 l -137.42944,0.2508 -0.50157,49.0941 c -0.36589,35.8139 -0.83039,49.6667 -1.71715,51.211 -2.09699,3.6518 -8.13422,8.2812 -11.55293,8.8588 -1.80491,0.305 -6.21581,0.6654 -9.80201,0.8009 l -6.52038,0.2464 -0.2506,198.38 c -0.23648,187.2117 -0.15177,198.5775 1.50471,201.8868 1.00295,2.0036 3.26016,4.2584 5.26627,5.2604 3.30032,1.6486 11.75602,1.7388 140.94041,1.5029 l 137.42943,-0.2509 z"
       id="path10479"
       inkscape:connector-curvature="0" />
    <path
       style="fill:#b9b9b9"
       d="m 589.52983,2050.4413 c -2.30015,-1.1224 -2.41836,-1.2927 -0.50156,-0.7226 4.38252,1.3036 276.93668,1.4658 278.50509,0.1657 1.12155,-0.9297 1.37589,-9.8642 1.40501,-49.3551 0.0306,-41.44 0.25095,-48.5721 1.56757,-50.7247 l 1.53201,-2.5048 -0.78121,2.5048 c -0.42965,1.3776 -0.92154,24.9352 -1.09306,52.3503 l -0.31187,49.8454 -138.65628,-0.045 c -119.71059,-0.039 -139.06749,-0.2459 -141.6657,-1.5138 z m -8.41066,-8.5585 c -0.80888,-2.3176 -1.11912,-58.4111 -1.11912,-202.345 v -199.1386 l 9.78057,-0.4589 c 5.3793,-0.2525 10.90908,-0.7739 12.2884,-1.1586 l 2.50783,-0.6997 -2.50783,1.5302 c -1.68464,1.0279 -5.15857,1.5418 -10.58308,1.5657 -4.89763,0.022 -8.5489,0.5086 -9.27899,1.2378 -1.67329,1.6712 -1.75656,393.6749 -0.0846,398.4652 0.61552,1.7635 0.89342,3.4318 0.61756,3.7073 -0.27587,0.2756 -1.00517,-0.9419 -1.62069,-2.7054 z m 296.81186,-99.4943 c 1.69005,-1.0312 5.16648,-1.5418 10.66087,-1.5657 5.61794,-0.024 8.50544,-0.4596 9.2864,-1.3995 1.30243,-1.5674 1.14541,-396.0492 -0.15938,-400.4057 -0.57159,-1.9084 -0.40011,-1.7891 0.72018,0.501 1.27631,2.609 1.47638,29.3445 1.51566,202.5443 l 0.0453,199.5385 -9.78057,0.459 c -5.3793,0.2525 -10.90909,0.7738 -12.2884,1.1586 l -2.50784,0.6996 2.50784,-1.5301 z M 608.74329,1632.1961 c 0.42967,-1.3776 0.92155,-24.9352 1.09307,-52.3503 l 0.31186,-49.8455 138.65629,0.045 c 119.7106,0.039 139.0675,0.2459 141.6657,1.5138 2.30016,1.1225 2.41837,1.2928 0.50157,0.7226 -4.38253,-1.3036 -276.93669,-1.4657 -278.50509,-0.1656 -1.12156,0.9296 -1.3759,9.8641 -1.40501,49.3551 -0.0305,41.4399 -0.25096,48.5721 -1.56757,50.7247 l -1.53203,2.5048 0.78121,-2.5048 z"
       id="path10481"
       inkscape:connector-curvature="0" />
    <path
       style="fill:#aeaeae"
       d="m 728.86707,2051.2489 c 98.87264,-0.1855 137.70699,-0.5693 138.6737,-1.3707 1.08005,-0.8952 1.39564,-10.4501 1.61313,-48.8399 l 0.27041,-47.727 0.24082,49.3445 0.24083,49.3445 -139.18493,-0.2468 -139.18493,-0.2469 z m -148.61874,-210.904 -0.24828,-200.1334 9.279,0.2016 9.27899,0.2016 -7.68515,0.3399 c -4.73318,0.2093 -8.10375,0.8436 -8.77493,1.6514 -0.77428,0.9318 -1.16383,58.7164 -1.34556,199.5919 l -0.25579,198.2804 z m 308.87883,100.7012 c 4.73316,-0.2093 8.10376,-0.8437 8.77493,-1.6514 0.77428,-0.9318 1.16384,-58.7164 1.34556,-199.5919 l 0.25578,-198.2804 0.24829,200.1334 0.24828,200.1334 -9.279,-0.2016 -9.279,-0.2017 z m -278.79224,-361.7012 -0.24083,-49.3446 139.18493,0.2469 139.18492,0.2469 -137.33097,0.2577 c -98.87264,0.1855 -137.70699,0.5693 -138.6737,1.3706 -1.08005,0.8953 -1.39563,10.4502 -1.61313,48.84 l -0.2704,47.727 z"
       id="path10483-2"
       inkscape:connector-curvature="0" />
    <path
       style="fill:#9f9f9f"
       d="m 729.36862,2051.2489 c 99.83442,-0.1866 138.20537,-0.5667 139.18493,-1.3786 1.03994,-0.8621 1.35241,-0.7455 1.35241,0.5045 0,1.4928 -11.36365,1.6054 -139.18493,1.3786 l -139.18493,-0.2469 z m -149.12029,-210.904 c -0.22832,-184.0432 -0.11743,-200.1334 1.37925,-200.1334 1.25227,0 1.36849,0.3117 0.50406,1.352 -0.81897,0.9857 -1.19279,55.2285 -1.37924,200.1334 l -0.25578,198.7814 z m 317.62008,100.0922 c 0.81897,-0.9856 1.19279,-55.2285 1.37924,-200.1334 l 0.25577,-198.7813 0.24829,200.1334 c 0.22832,184.0432 0.11743,200.1334 -1.37924,200.1334 -1.25227,0 -1.3685,-0.3117 -0.50406,-1.3521 z M 610.09409,1531.6259 c 0,-1.4928 11.36365,-1.6054 139.18493,-1.3787 l 139.18492,0.2469 -137.83251,0.2577 c -99.83443,0.1866 -138.20536,0.5666 -139.18494,1.3786 -1.03994,0.862 -1.3524,0.7455 -1.3524,-0.5045 z"
       id="path10485-7"
       inkscape:connector-curvature="0" />
    <path
       style="fill:#000000"
       d="m 661.58311,2051.249 c 38.52584,-0.1453 101.27191,-0.1453 139.4357,0 38.16379,0.1454 6.64264,0.2643 -70.047,0.2643 -76.68964,0 -107.91456,-0.119 -69.3887,-0.2643 z m -81.09127,-211.1546 c 2e-5,-110.2111 0.11725,-155.1489 0.26053,-99.8616 0.14326,55.2872 0.14325,145.4599 -4e-5,200.3838 -0.14328,54.9239 -0.2605,9.6889 -0.26049,-100.5222 z m 318.9968,-98.1881 c 2e-5,-110.2111 0.11725,-155.1489 0.26052,-99.8616 0.14328,55.2872 0.14327,145.4599 -3e-5,200.3838 -0.14327,54.9239 -0.2605,9.6889 -0.26049,-100.5222 z M 679.63953,1530.2509 c 38.52585,-0.1453 101.27191,-0.1453 139.43571,10e-5 38.16378,0.1453 6.64264,0.2642 -70.047,0.2642 -76.68964,0 -107.91457,-0.119 -69.38871,-0.2643 z"
       id="path10487-0"
       inkscape:connector-curvature="0" />
    <path
       transform="translate(0,-1.2207032e-4)"
       inkscape:connector-curvature="0"
       id="path10952-9"
       d="m 586.67534,2043.082 c -1.70991,-1.7099 -3.10893,-91.9465 -3.10893,-200.5257 0,-190.0163 0.32823,-197.4168 8.75577,-197.4168 16.51102,0 21.28815,-13.1123 23.15549,-63.5573 l 1.7903,-48.364 h 131.99624 c 72.59793,0 135.31565,1.2738 139.37273,2.8306 6.5675,2.5202 7.37648,24.7338 7.37648,202.5477 v 199.717 l -12.82432,1.4756 -12.82431,1.4756 -4.0076,52.4631 -4.0076,52.4631 H 726.06693 c -74.95547,0 -137.68168,-1.399 -139.39159,-3.1089 z m 163.84037,-16.4773 c 3.07784,-3.0779 5.59607,-11.3326 5.59607,-18.3438 0,-10.44 2.32162,-13.0149 12.82431,-14.2234 10.81241,-1.2441 12.82432,-3.6704 12.82432,-15.4657 0,-13.0501 -1.17165,-13.9902 -17.43544,-13.9902 -14.48433,0 -16.99643,-1.3813 -14.84176,-8.1609 2.02248,-6.3637 -0.11226,-8.1609 -9.69329,-8.1609 -9.58103,0 -11.71578,1.7972 -9.6933,8.1609 2.15271,6.7734 -0.35227,8.1609 -14.73342,8.1609 -12.95423,0 -17.74586,2.1161 -18.98637,8.385 -2.2571,11.406 7.34912,21.927 20.02047,21.927 8.62861,0 10.05308,2.0282 8.207,11.6853 -3.74737,19.6032 13.22039,32.7168 25.91141,20.0258 z M 750.103,1626.5082 c -2.06235,-7.8865 -0.71447,-8.8733 8.84344,-6.4744 24.87961,6.2444 35.27937,-23.1767 11.38109,-32.1973 -10.50411,-3.9648 -14.0942,-8.5636 -15.15601,-19.4143 -1.21155,-12.3805 -3.20015,-14.2187 -15.3816,-14.2187 -12.18146,0 -14.17005,1.8382 -15.38158,14.2187 -1.06181,10.8507 -4.6519,15.4495 -15.15601,19.4143 -24.50554,9.2498 -13.38826,38.414 12.19557,31.9929 10.59838,-2.66 11.71852,-1.8607 9.07308,6.4743 -2.52561,7.9575 -0.97581,9.509 9.49858,9.509 10.21075,0 12.06837,-1.7141 10.08342,-9.3045 z"
       style="fill:#fff6d5;fill-opacity:1;stroke:none;stroke-width:0.105;stroke-miterlimit:4;stroke-dasharray:none;stroke-opacity:1" />
  </g>
</svg>
