<?xml version="1.0" encoding="UTF-8" standalone="no"?>
<!-- Created with Inkscape (http://www.inkscape.org/) -->

<svg
   id="svg10047"
   height="122.98953"
   width="78.999855"
   version="1.1"
   viewBox="0 0 78.999855 122.98953"
   inkscape:version="0.91 r13725"
   sodipodi:docname="baroque.svgz"
   xmlns:inkscape="http://www.inkscape.org/namespaces/inkscape"
   xmlns:sodipodi="http://sodipodi.sourceforge.net/DTD/sodipodi-0.dtd"
   xmlns="http://www.w3.org/2000/svg"
   xmlns:svg="http://www.w3.org/2000/svg"
   xmlns:rdf="http://www.w3.org/1999/02/22-rdf-syntax-ns#"
   xmlns:cc="http://creativecommons.org/ns#"
   xmlns:dc="http://purl.org/dc/elements/1.1/">
  <sodipodi:namedview
     pagecolor="#ffffff"
     bordercolor="#666666"
     borderopacity="1"
     objecttolerance="10"
     gridtolerance="10"
     guidetolerance="10"
     inkscape:pageopacity="0"
     inkscape:pageshadow="2"
     inkscape:window-width="1920"
     inkscape:window-height="1016"
     id="namedview1491"
     showgrid="false"
     inkscape:zoom="1.3479675"
     inkscape:cx="513.5"
     inkscape:cy="307.5"
     inkscape:window-x="0"
     inkscape:window-y="0"
     inkscape:window-maximized="1"
     inkscape:current-layer="svg10047"
     showguides="false"
     inkscape:guide-bbox="true"
     inkscape:snap-grids="false"
     inkscape:snap-to-guides="false"
     inkscape:showpageshadow="2"
     inkscape:pagecheckerboard="0"
     inkscape:deskcolor="#d1d1d1">
    <inkscape:grid
       type="xygrid"
       id="grid11817"
       originx="-395"
       originy="-123.01081"
       spacingy="1"
       spacingx="1"
       units="px"
       visible="false" />
  </sodipodi:namedview>
  <metadata
     id="metadata16869">
    <rdf:RDF>
      <cc:Work
         rdf:about="">
        <dc:format>image/svg+xml</dc:format>
        <dc:type
           rdf:resource="http://purl.org/dc/dcmitype/StillImage" />
        <dc:title />
      </cc:Work>
    </rdf:RDF>
  </metadata>
  <defs
     id="defs10049" />
  <g
     transform="matrix(0.20789044,0,0,0.21132275,-488.54256,-169.0583)"
     id="diamond_6"
     inkscape:label="#diamond_6">
    <rect
       width="379.37555"
       height="581.36694"
       rx="31.643513"
       ry="32.297684"
       x="2350.3159"
       y="800.31628"
       id="rect5936"
       style="fill:#ffffff;stroke:#000000;stroke-width:0.631597" />
    <path
       style="fill:#fe0909"
       d="m 2624.2381,1330.2977 c -9.866,-15.834 -15.943,-24.092 -23.766,-32.29 l -9.206,-9.649 9.22,-9.682 c 7.835,-8.228 14.626,-16.843 24.472,-32.647 2.168,-3.479 0.384,-4.194 10.859,12.1 4.038,6.28 10.802,14.847 16.192,20.507 l 9.257,9.722 -9.244,9.688 c -5.416,5.677 -12.12,14.162 -16.191,20.495 -10.491,16.317 -7.92,18.777 -11.593,11.756 z"
       id="path5940"
       inkscape:connector-curvature="0"
       sodipodi:nodetypes="csccssscscc" />
    <path
       style="fill:#fe0909"
       d="m 2624.0261,1132.2477 c -9.866,-15.834 -15.944,-24.092 -23.766,-32.29 l -9.206,-9.649 9.219,-9.682 c 7.836,-8.228 14.626,-16.843 24.473,-32.647 2.168,-3.479 0.384,-4.194 10.859,12.1 4.038,6.28 10.802,14.847 16.192,20.507 l 9.257,9.722 -9.244,9.688 c -5.417,5.677 -12.12,14.162 -16.192,20.495 -10.49,16.317 -7.919,18.777 -11.592,11.756 z"
       id="path5942"
       inkscape:connector-curvature="0"
       sodipodi:nodetypes="csccssscscc" />
    <path
       style="fill:#fe0909"
       d="m 2623.9711,934.21666 c -9.866,-15.834 -15.943,-24.092 -23.766,-32.29 l -9.206,-9.649 9.22,-9.682 c 7.835,-8.228 14.626,-16.843 24.472,-32.647 2.168,-3.479 0.384,-4.194 10.86,12.1 4.037,6.28 10.801,14.847 16.191,20.507 l 9.257,9.722 -9.244,9.688 c -5.416,5.677 -12.12,14.162 -16.191,20.495 -10.491,16.317 -7.92,18.777 -11.593,11.756 z"
       id="path5944"
       inkscape:connector-curvature="0"
       sodipodi:nodetypes="csccssscscc" />
    <path
       style="fill:#fe0909"
       d="m 2450.3651,934.29766 c -9.865,-15.834 -15.943,-24.092 -23.765,-32.29 l -9.207,-9.649 9.22,-9.682 c 7.835,-8.228 14.626,-16.843 24.472,-32.647 2.168,-3.479 0.384,-4.194 10.86,12.1 4.037,6.28 10.801,14.847 16.191,20.507 l 9.257,9.722 -9.243,9.688 c -5.417,5.677 -12.121,14.162 -16.192,20.495 -10.491,16.317 -7.92,18.777 -11.593,11.756 z"
       id="path5946"
       inkscape:connector-curvature="0"
       sodipodi:nodetypes="csccssscscc" />
    <path
       style="fill:#fe0909"
       d="m 2450.2151,1132.2757 c -9.866,-15.834 -15.943,-24.092 -23.766,-32.29 l -9.206,-9.649 9.22,-9.682 c 7.835,-8.228 14.626,-16.843 24.472,-32.647 2.168,-3.479 0.384,-4.194 10.859,12.1 4.038,6.28 10.802,14.847 16.192,20.507 l 9.257,9.722 -9.244,9.688 c -5.416,5.677 -12.12,14.162 -16.192,20.495 -10.49,16.317 -7.919,18.777 -11.592,11.756 z"
       id="path5948"
       inkscape:connector-curvature="0"
       sodipodi:nodetypes="csccssscscc" />
    <path
       style="fill:#fe0909"
       d="m 2450.3261,1330.2977 c -9.866,-15.834 -15.943,-24.092 -23.766,-32.29 l -9.206,-9.649 9.22,-9.682 c 7.835,-8.228 14.626,-16.843 24.472,-32.647 2.168,-3.479 0.384,-4.194 10.859,12.1 4.038,6.28 10.802,14.847 16.192,20.507 l 9.257,9.722 -9.244,9.688 c -5.416,5.677 -12.12,14.162 -16.191,20.495 -10.491,16.317 -7.92,18.777 -11.593,11.756 z"
       id="path5950"
       inkscape:connector-curvature="0"
       sodipodi:nodetypes="csccssscscc" />
    <path
       style="fill:#fe0909"
       d="m 2387.3621,929.35166 c -3.101,-7.038 -5.011,-10.704 -7.469,-14.352 l -2.894,-4.285 2.898,-4.305 c 2.462,-3.657 4.597,-7.486 7.691,-14.505 0.682,-1.552 0.121,-1.866 3.413,5.372 1.269,2.8 3.395,6.6 5.089,9.123 l 2.909,4.315 -2.905,4.304 c -1.702,2.524 -3.809,6.295 -5.089,9.114 -3.297,7.248 -2.489,8.343 -3.643,5.219 z"
       id="path5952"
       inkscape:connector-curvature="0"
       sodipodi:nodetypes="csccssscscc" />
    <path
       inkscape:connector-curvature="0"
       id="path5954"
       d="m 2384.4671,881.10266 c -7.661,-2.722 -11.427,-10.609 -11.427,-23.936 0,-15.758 5.969,-25.127 16.009,-25.127 6.864,0 11.863,4.34 13.186,11.446 0.582,3.123 0.568,3.144 -2.09,3.144 -2.317,0 -2.742,-0.328 -3.175,-2.452 -0.608,-2.985 -3.732,-6.204 -6.74,-6.945 -3.248,-0.801 -7.298,1.397 -8.978,4.874 -1.536,3.178 -3.446,12.438 -2.714,13.157 0.25,0.245 1.806,-0.566 3.458,-1.803 4.27,-3.198 10.469,-3.636 14.442,-1.02 6.584,4.335 8.467,13.804 4.334,21.791 -3.425,6.621 -9.638,9.238 -16.305,6.871 z m 9.027,-5.738 c 2.941,-1.892 4.24,-5.882 3.898,-11.979 -0.181,-3.236 -4.255,-7.029 -7.549,-7.029 -5.071,0 -10.753,4.481 -10.724,8.459 0.02,3.349 2.667,8.856 5.03,10.481 2.428,1.669 6.806,1.701 9.345,0.07 z"
       style="fill:#fe0707;fill-opacity:1;stroke:#fffecd;stroke-width:0.0818019;stroke-miterlimit:4;stroke-dasharray:none;stroke-opacity:1" />
    <path
       sodipodi:nodetypes="csccssscscc"
       inkscape:connector-curvature="0"
       id="path5956"
       d="m 2691.3621,1252.6567 c -3.101,7.038 -5.011,10.704 -7.469,14.352 l -2.894,4.286 2.898,4.304 c 2.462,3.657 4.597,7.486 7.691,14.505 0.682,1.552 0.121,1.866 3.413,-5.372 1.269,-2.799 3.395,-6.599 5.089,-9.123 l 2.909,-4.314 -2.905,-4.305 c -1.702,-2.524 -3.809,-6.295 -5.089,-9.114 -3.297,-7.248 -2.489,-8.343 -3.643,-5.219 z"
       style="fill:#fe0909" />
    <path
       style="fill:#fe0707;fill-opacity:1;stroke:#fffecd;stroke-width:0.0818019;stroke-miterlimit:4;stroke-dasharray:none;stroke-opacity:1"
       d="m 2695.5311,1300.9067 c 7.662,2.721 11.427,10.608 11.427,23.935 0,15.758 -5.969,25.127 -16.008,25.127 -6.864,0 -11.863,-4.339 -13.187,-11.446 -0.582,-3.123 -0.568,-3.144 2.09,-3.144 2.317,0 2.742,0.328 3.175,2.452 0.608,2.985 3.733,6.205 6.74,6.946 3.249,0.8 7.298,-1.398 8.979,-4.874 1.536,-3.179 3.446,-12.438 2.713,-13.158 -0.25,-0.245 -1.806,0.567 -3.457,1.804 -4.271,3.198 -10.469,3.635 -14.442,1.019 -6.584,-4.334 -8.468,-13.804 -4.335,-21.791 3.426,-6.62 9.639,-9.238 16.305,-6.87 z m -9.026,5.738 c -2.942,1.892 -4.24,5.882 -3.898,11.978 0.181,3.237 4.254,7.03 7.549,7.03 5.071,0 10.752,-4.482 10.723,-8.46 -0.03,-3.349 -2.667,-8.856 -5.029,-10.48 -2.428,-1.67 -6.806,-1.702 -9.345,-0.07 z"
       id="path5958"
       inkscape:connector-curvature="0" />
    <path
       style="fill:#e2e2e2"
       d="m 2389.4157,1351.2856 c -1.7894,-0.2256 -4.3602,-1.683 -6.0188,-3.412 l -2.8951,-3.0182 -0.2805,-201.0696 c -0.1543,-110.5883 -0.033,-202.08407 0.2699,-203.32395 0.5171,-2.11823 1.0659,-2.25432 9.0901,-2.25432 5.2283,0 9.9027,-0.56879 12.0546,-1.46682 6.4464,-2.69023 6.452,-2.73985 6.452,-57.09419 v -48.60618 l 2.2571,-0.5528 c 1.2414,-0.30403 65.3331,-0.42534 142.426,-0.26957 l 140.169,0.28323 3.2793,3.27541 3.2793,3.27541 0.2804,201.11618 c 0.1543,110.6138 0.033,202.1306 -0.2699,203.3704 -0.5171,2.1183 -1.0659,2.2544 -9.0901,2.2544 -5.2283,0 -9.9027,0.5687 -12.0546,1.4668 -6.4454,2.6898 -6.452,2.7486 -6.452,57.0061 0,43.3178 -0.1701,48.5832 -1.5868,49.1262 -1.7062,0.6539 -275.7036,0.5501 -280.9099,-0.1065 z m 277.481,-49.9145 c 0,-52.3065 -0.102,-51.3565 6.15,-57.2662 4.5611,-4.3115 7.6902,-5.3215 16.4858,-5.3215 h 7.4582 v -197.9113 c 0,-171.49225 -0.196,-198.3799 -1.4686,-201.42187 -2.8659,-6.85088 6.3128,-6.44424 -145.4584,-6.44424 h -136.9601 v 47.62336 c 0,52.30658 0.1021,51.35649 -6.15,57.26625 -4.5611,4.31146 -7.6902,5.32153 -16.4858,5.32153 h -7.4582 v 197.91127 c 0,218.3114 -0.4486,203.4575 6.232,206.3566 2.8032,1.2164 23.8693,1.4369 140.4764,1.4703 l 137.1787,0.039 v -47.6234 z"
       id="path10327"
       inkscape:connector-curvature="0" />
    <path
       style="fill:#dbdbdb"
       d="m 2389.9266,1351.2984 c -1.437,-0.2228 -4.1455,-1.9845 -6.0188,-3.9149 l -3.406,-3.5098 V 1141.7921 939.71042 l 9.5297,-0.53916 c 5.9768,-0.33814 10.6725,-1.15062 12.5947,-2.17918 5.9751,-3.1973 5.9166,-2.68231 6.4649,-56.89587 l 0.5016,-49.59501 h 141.1746 141.1746 l 3.7783,3.77383 3.7784,3.77383 v 202.12064 202.1206 l -9.5298,0.5687 c -5.2414,0.3128 -10.805,1.1896 -12.3637,1.9485 -6.1905,3.0138 -6.145,2.6257 -6.6959,57.097 l -0.5015,49.595 -138.9342,0.1021 c -76.4138,0.056 -140.1099,-0.08 -141.5469,-0.303 z m 277.9732,-51.6361 0.5016,-49.8331 4.7745,-4.7679 4.7745,-4.7679 9.7709,-0.5045 9.771,-0.5046 0.271,-197.3781 c 0.3057,-222.66781 0.95,-204.35965 -7.3207,-208.01377 -4.1497,-1.83336 -8.7759,-1.88719 -141.0654,-1.64146 l -136.7751,0.25407 -0.5016,49.83313 -0.5016,49.83312 -4.7745,4.76791 -4.7745,4.76789 -9.7709,0.50454 -9.771,0.50454 -0.271,197.37813 c -0.3051,222.2518 -0.9232,204.3099 7.1649,207.982 3.9931,1.813 9.0198,1.8718 141.0685,1.6496 l 136.9278,-0.2305 z"
       id="path10329"
       inkscape:connector-curvature="0" />
    <path
       style="fill:#c1c1c1"
       d="m 2389.9266,1351.2984 c -1.437,-0.2228 -4.1455,-1.9845 -6.0188,-3.9149 l -3.406,-3.5098 V 1141.7921 939.71042 l 10.0772,-0.50097 c 10.6855,-0.53119 14.1957,-1.84575 16.7213,-6.262 0.9833,-1.71947 1.4082,-14.13969 1.7908,-52.35029 l 0.5016,-50.09596 h 141.1746 141.1746 l 3.7783,3.77383 3.7784,3.77383 v 202.12064 202.1206 l -10.0773,0.5009 c -10.6855,0.5312 -14.1957,1.8458 -16.7213,6.262 -0.9834,1.7195 -1.4082,14.1397 -1.7908,52.3503 l -0.5015,50.096 -138.9342,0.1021 c -76.4138,0.056 -140.1099,-0.08 -141.5469,-0.303 z m 277.9732,-50.897 c 0.3659,-35.8139 0.8304,-49.6667 1.7172,-51.211 2.097,-3.6518 8.1342,-8.2812 11.5529,-8.8588 1.8049,-0.305 6.2158,-0.6654 9.802,-0.8009 l 6.5204,-0.2464 0.2506,-198.38 c 0.2365,-187.21172 0.1517,-198.57749 -1.5047,-201.88679 -1.003,-2.00368 -3.2602,-4.25841 -5.2663,-5.26047 -3.3003,-1.64855 -11.756,-1.73871 -140.9404,-1.50288 l -137.4294,0.25088 -0.5016,49.09404 c -0.3659,35.81395 -0.8304,49.66668 -1.7172,51.21098 -2.0969,3.65183 -8.1342,8.28124 -11.5529,8.85886 -1.8049,0.30497 -6.2158,0.66535 -9.802,0.80087 l -6.5204,0.24638 -0.2506,198.38003 c -0.2365,187.2117 -0.1518,198.5775 1.5047,201.8868 1.003,2.0036 3.2602,4.2584 5.2663,5.2604 3.3003,1.6486 11.756,1.7388 140.9404,1.5029 l 137.4294,-0.2509 z"
       id="path10331"
       inkscape:connector-curvature="0" />
    <path
       style="fill:#b9b9b9"
       d="m 2389.53,1350.4412 c -2.3002,-1.1224 -2.4184,-1.2927 -0.5016,-0.7226 4.3825,1.3036 276.9367,1.4658 278.5051,0.1657 1.1215,-0.9297 1.3759,-9.8642 1.405,-49.3551 0.031,-41.44 0.251,-48.5721 1.5676,-50.7247 l 1.532,-2.5048 -0.7812,2.5048 c -0.4297,1.3776 -0.9216,24.9352 -1.0931,52.3503 l -0.3119,49.8454 -138.6562,-0.045 c -119.7106,-0.039 -139.0675,-0.2459 -141.6657,-1.5138 z m -8.4107,-8.5585 c -0.8089,-2.3176 -1.1191,-58.4111 -1.1191,-202.345 V 940.39914 l 9.7805,-0.45899 c 5.3794,-0.25244 10.9091,-0.77382 12.2884,-1.15859 l 2.5079,-0.69961 -2.5079,1.53016 c -1.6846,1.02789 -5.1585,1.54183 -10.583,1.56568 -4.8977,0.0216 -8.5489,0.50861 -9.279,1.2378 -1.6733,1.67125 -1.7566,393.67491 -0.085,398.46521 0.6155,1.7635 0.8934,3.4318 0.6175,3.7073 -0.2759,0.2756 -1.0052,-0.9419 -1.6207,-2.7054 z m 296.8119,-99.4943 c 1.69,-1.0312 5.1664,-1.5418 10.6608,-1.5657 5.618,-0.024 8.5055,-0.4596 9.2864,-1.3995 1.3025,-1.5674 1.1454,-396.04923 -0.1594,-400.40569 -0.5715,-1.90841 -0.4001,-1.78914 0.7202,0.50096 1.2763,2.60901 1.4764,29.34454 1.5157,202.54433 l 0.045,199.5385 -9.7806,0.459 c -5.3793,0.2525 -10.9091,0.7738 -12.2884,1.1586 l -2.5078,0.6996 2.5078,-1.5301 z M 2408.7434,932.19602 c 0.4297,-1.37764 0.9216,-24.93527 1.0931,-52.35029 l 0.3119,-49.84549 138.6562,0.0452 c 119.7106,0.0391 139.0675,0.24585 141.6657,1.5138 2.3002,1.12249 2.4184,1.29281 0.5016,0.72263 -4.3825,-1.30362 -276.9367,-1.46577 -278.5051,-0.16568 -1.1215,0.92968 -1.3759,9.86416 -1.405,49.35511 -0.03,41.43996 -0.2509,48.57212 -1.5676,50.72473 l -1.532,2.5048 0.7812,-2.5048 z"
       id="path10333"
       inkscape:connector-curvature="0" />
    <path
       style="fill:#aeaeae"
       d="m 2528.8672,1351.2488 c 98.8726,-0.1855 137.707,-0.5693 138.6737,-1.3707 1.0801,-0.8952 1.3956,-10.4501 1.6131,-48.8399 l 0.2704,-47.727 0.2409,49.3445 0.2408,49.3445 -139.1849,-0.2468 -139.185,-0.2469 z m -148.6187,-210.904 -0.2483,-200.13343 9.279,0.20163 9.279,0.20163 -7.6852,0.33987 c -4.7332,0.20932 -8.1037,0.84365 -8.7749,1.65139 -0.7743,0.93181 -1.1638,58.71641 -1.3456,199.59191 l -0.2558,198.2804 z m 308.8788,100.7012 c 4.7332,-0.2093 8.1037,-0.8437 8.7749,-1.6514 0.7743,-0.9318 1.1639,-58.7164 1.3456,-199.5919 l 0.2558,-198.28039 0.2483,200.13339 0.2482,200.1334 -9.279,-0.2016 -9.279,-0.2017 z m -278.7923,-361.70124 -0.2408,-49.34452 139.185,0.24688 139.1849,0.24689 -137.331,0.25765 c -98.8726,0.1855 -137.707,0.56934 -138.6737,1.37066 -1.08,0.89528 -1.3956,10.45015 -1.6131,48.84 l -0.2704,47.72698 z"
       id="path10335"
       inkscape:connector-curvature="0" />
    <path
       style="fill:#9f9f9f"
       d="m 2529.3687,1351.2488 c 99.8345,-0.1866 138.2054,-0.5667 139.185,-1.3786 1.0399,-0.8621 1.3524,-0.7455 1.3524,0.5045 0,1.4928 -11.3637,1.6054 -139.1849,1.3786 l -139.185,-0.2469 z m -149.1202,-210.904 c -0.2284,-184.0432 -0.1175,-200.13343 1.3792,-200.13343 1.2523,0 1.3685,0.31175 0.5041,1.35206 -0.819,0.98562 -1.1928,55.22852 -1.3793,200.13337 l -0.2557,198.7814 z m 317.62,100.0922 c 0.819,-0.9856 1.1928,-55.2285 1.3793,-200.1334 l 0.2558,-198.78129 0.2482,200.13339 c 0.2284,184.0432 0.1175,200.1334 -1.3792,200.1334 -1.2523,0 -1.3685,-0.3117 -0.5041,-1.3521 z M 2410.0942,831.6258 c 0,-1.49284 11.3637,-1.6054 139.185,-1.37867 l 139.1849,0.24691 -137.8325,0.25762 c -99.8345,0.18661 -138.2054,0.56668 -139.185,1.37866 -1.0399,0.86202 -1.3524,0.74546 -1.3524,-0.50452 z"
       id="path10337"
       inkscape:connector-curvature="0" />
    <path
       style="fill:#000000"
       d="m 2461.5832,1351.2489 c 38.5259,-0.1453 101.272,-0.1453 139.4357,0 38.1638,0.1454 6.6427,0.2643 -70.047,0.2643 -76.6896,0 -107.9145,-0.119 -69.3887,-0.2643 z m -81.0912,-211.1546 c 0,-110.2111 0.1172,-155.14888 0.2605,-99.8616 0.1433,55.2872 0.1432,145.4599 0,200.3838 -0.1433,54.9239 -0.2605,9.6889 -0.2605,-100.5222 z m 318.9968,-98.1881 c 0,-110.21115 0.1172,-155.14888 0.2605,-99.86165 0.1433,55.28724 0.1433,145.45995 0,200.38385 -0.1433,54.9239 -0.2605,9.6889 -0.2605,-100.5222 z M 2479.6397,830.25081 c 38.5258,-0.14534 101.2719,-0.14532 139.4357,5e-5 38.1637,0.14535 6.6426,0.26426 -70.047,0.26423 -76.6897,-2e-5 -107.9146,-0.11896 -69.3887,-0.26428 z"
       id="path10339"
       inkscape:connector-curvature="0" />
    <path
       transform="translate(0,-1.2207032e-4)"
       inkscape:connector-curvature="0"
       id="path10946-1"
       d="m 2386.7432,1343.5737 c -1.7099,-1.7098 -3.1089,-91.9464 -3.1089,-200.5256 0,-192.30702 0.2342,-197.41681 9.0515,-197.41681 11.1496,0 15.2769,-6.08513 21.2605,-31.34583 l 4.6634,-19.68736 17.0817,23.22632 17.0818,23.22633 9.5821,-15.50425 c 5.2702,-8.52735 13.809,-19.32947 18.9751,-24.00473 9.3709,-8.48052 9.3612,-8.53661 -4.1242,-23.89564 -7.4344,-8.46735 -15.7365,-19.19374 -18.449,-23.83643 -5.1436,-8.8038 -6.117,-7.97933 -36.5017,30.9198 -4.6383,5.93809 -5.7081,1.91108 -5.8292,-21.94274 l -0.1483,-29.21557 138.7358,1.23524 138.7358,1.23524 1.2151,201.37703 1.2152,201.377 -12.8737,1.4804 -12.8736,1.4803 -4.1306,52.4632 -4.1307,52.4631 h -136.1596 c -74.8878,0 -137.5586,-1.399 -139.2685,-3.109 z m 91.2402,-41.6025 12.7399,-14.6198 -9.5932,-8.6818 c -5.2763,-4.775 -13.0356,-14.5092 -17.2429,-21.6316 -4.2073,-7.1224 -9.015,-12.9499 -10.6837,-12.9499 -1.6688,0 -10.5785,9.6836 -19.7995,21.5191 l -16.7653,21.5191 17.3073,24.8938 c 17.0755,24.5603 17.4011,24.7577 24.3025,14.7324 3.8473,-5.5887 12.728,-16.7403 19.7349,-24.7813 z m 180.3372,-8.6371 c 5.2066,-3.2179 -24.5571,-46.9143 -31.9556,-46.9143 -2.0199,0 -10.8554,9.4175 -19.6346,20.9277 l -15.962,20.9276 18.3024,24.4736 18.3024,24.4735 12.9128,-20.3614 c 7.1021,-11.1987 15.2176,-21.7858 18.0346,-23.5267 z m -196.2234,-166.9965 c 2.9402,-5.771 9.8658,-16.1076 15.3904,-22.9703 l 10.0446,-12.4776 -17.3389,-23.6202 -17.3389,-23.6203 -18.2507,23.0889 -18.2507,23.089 17.4502,23.4965 c 9.5976,12.9231 18.6872,23.4988 20.1992,23.5016 1.5119,0 5.1546,-4.7167 8.0948,-10.4876 z m 168.6966,6.6686 c 0,-2.1032 7.535,-12.6269 16.7444,-23.386 l 16.7443,-19.5619 -14.024,-15.9725 c -7.7133,-8.7849 -16.2975,-19.7711 -19.0761,-24.4138 -4.8753,-8.1461 -5.2286,-8.1461 -10.1039,0 -2.7786,4.6427 -11.3629,15.6289 -19.0761,24.4138 l -14.024,15.9725 16.7443,19.5619 c 9.2094,10.7591 16.7444,21.2828 16.7444,23.386 0,2.1032 2.0985,3.824 4.6633,3.824 2.5649,0 4.6634,-1.7208 4.6634,-3.824 z m 27.3607,-235.95753 c 4.9419,-3.05427 -25.0061,-47.01683 -32.0286,-47.01683 -1.8884,0 -10.6812,9.44336 -19.5395,20.98524 l -16.1061,20.98525 18.3955,24.49626 18.3956,24.49627 12.9637,-20.44171 c 7.1301,-11.24294 15.1938,-21.81996 17.9194,-23.50448 z"
       style="fill:#fff6d5;fill-opacity:1;stroke:none;stroke-width:0.105;stroke-miterlimit:4;stroke-dasharray:none;stroke-opacity:1" />
  </g>
</svg>
