<?xml version="1.0" encoding="UTF-8" standalone="no"?>
<!-- Created with Inkscape (http://www.inkscape.org/) -->

<svg
   id="svg10047"
   height="122.98953"
   width="78.999855"
   version="1.1"
   viewBox="0 0 78.999855 122.98953"
   inkscape:version="0.91 r13725"
   sodipodi:docname="baroque.svgz"
   xmlns:inkscape="http://www.inkscape.org/namespaces/inkscape"
   xmlns:sodipodi="http://sodipodi.sourceforge.net/DTD/sodipodi-0.dtd"
   xmlns="http://www.w3.org/2000/svg"
   xmlns:svg="http://www.w3.org/2000/svg"
   xmlns:rdf="http://www.w3.org/1999/02/22-rdf-syntax-ns#"
   xmlns:cc="http://creativecommons.org/ns#"
   xmlns:dc="http://purl.org/dc/elements/1.1/">
  <sodipodi:namedview
     pagecolor="#ffffff"
     bordercolor="#666666"
     borderopacity="1"
     objecttolerance="10"
     gridtolerance="10"
     guidetolerance="10"
     inkscape:pageopacity="0"
     inkscape:pageshadow="2"
     inkscape:window-width="1920"
     inkscape:window-height="1016"
     id="namedview1491"
     showgrid="false"
     inkscape:zoom="1.3479675"
     inkscape:cx="513.5"
     inkscape:cy="307.5"
     inkscape:window-x="0"
     inkscape:window-y="0"
     inkscape:window-maximized="1"
     inkscape:current-layer="svg10047"
     showguides="false"
     inkscape:guide-bbox="true"
     inkscape:snap-grids="false"
     inkscape:snap-to-guides="false"
     inkscape:showpageshadow="2"
     inkscape:pagecheckerboard="0"
     inkscape:deskcolor="#d1d1d1">
    <inkscape:grid
       type="xygrid"
       id="grid11817"
       originx="-79.000475"
       originy="-123.01047"
       spacingy="1"
       spacingx="1"
       units="px"
       visible="false" />
  </sodipodi:namedview>
  <metadata
     id="metadata16869">
    <rdf:RDF>
      <cc:Work
         rdf:about="">
        <dc:format>image/svg+xml</dc:format>
        <dc:type
           rdf:resource="http://purl.org/dc/dcmitype/StillImage" />
        <dc:title />
      </cc:Work>
    </rdf:RDF>
  </metadata>
  <defs
     id="defs10049" />
  <g
     transform="matrix(0.20789044,0,0,0.21132275,-114.33974,-169.05706)"
     id="diamond_2"
     inkscape:label="#diamond_2">
    <rect
       width="379.37555"
       height="581.36694"
       rx="31.643513"
       ry="32.297684"
       x="550.3158"
       y="800.31042"
       id="rect5778"
       style="fill:#ffffff;stroke:#000000;stroke-width:0.631597" />
    <path
       inkscape:transform-center-y="16.411504"
       inkscape:transform-center-x="-21.238417"
       style="fill:#fe0909"
       d="m 736.97114,934.29866 c -9.865,-15.83 -15.943,-24.09 -23.765,-32.29 l -9.207,-9.65 9.22,-9.68 c 7.835,-8.23 14.626,-16.84 24.472,-32.65 2.168,-3.48 0.384,-4.19 10.859,12.1 4.038,6.28 10.802,14.85 16.192,20.51 l 9.257,9.72 -9.244,9.69 c -5.416,5.68 -12.12,14.16 -16.191,20.49 -10.491,16.32 -7.92,18.78 -11.593,11.76 z"
       id="path5782-7"
       inkscape:connector-curvature="0"
       sodipodi:nodetypes="csccssscscc" />
    <path
       style="fill:#fe0909"
       d="m 736.98614,1330.2987 c -9.865,-15.83 -15.943,-24.09 -23.765,-32.29 l -9.207,-9.65 9.22,-9.68 c 7.835,-8.23 14.626,-16.84 24.472,-32.65 2.168,-3.48 0.384,-4.19 10.86,12.1 4.037,6.28 10.801,14.85 16.191,20.51 l 9.257,9.72 -9.243,9.69 c -5.417,5.68 -12.121,14.16 -16.192,20.49 -10.491,16.32 -7.92,18.78 -11.593,11.76 z"
       id="path5784-4"
       inkscape:connector-curvature="0"
       sodipodi:nodetypes="csccssscscc" />
    <path
       style="fill:#fe0909"
       d="m 587.36214,929.35166 c -3.101,-7.038 -5.011,-10.704 -7.469,-14.352 l -2.893,-4.285 2.897,-4.305 c 2.462,-3.657 4.597,-7.486 7.691,-14.505 0.682,-1.552 0.122,-1.866 3.413,5.372 1.269,2.8 3.395,6.6 5.089,9.123 l 2.91,4.315 -2.906,4.304 c -1.702,2.524 -3.809,6.295 -5.089,9.114 -3.297,7.248 -2.489,8.343 -3.643,5.219 z"
       id="path5786-5"
       inkscape:connector-curvature="0"
       sodipodi:nodetypes="csccssscscc" />
    <path
       inkscape:connector-curvature="0"
       id="path5788-2"
       d="m 573.58414,878.12666 c 0.296,-2.104 1.421,-5.671 2.501,-7.928 1.829,-3.825 3.807,-5.946 15.398,-16.51 4.592,-4.185 5.687,-7.213 4.22,-11.668 -1.764,-5.355 -10.038,-6.74 -13.548,-2.269 -0.878,1.118 -1.835,3.989 -2.137,6.411 -0.52,4.172 -0.66,4.387 -2.865,4.387 -2.232,0 -2.318,-0.142 -2.318,-3.855 0,-8.392 5.649,-14.663 13.207,-14.663 8.441,0 14.115,5.175 14.112,12.87 0,5.596 -2.079,8.65 -10.846,15.946 -7.387,6.147 -11.637,11.13 -11.647,13.656 0,0.744 2.287,1.006 8.786,1.006 h 8.79 l 0.554,-5.636 c 0.545,-5.54 0.594,-5.636 2.861,-5.636 2.224,0 2.307,0.142 2.307,3.908 0,2.149 -0.232,6.134 -0.516,8.856 l -0.516,4.949 h -14.441 -14.44 z"
       style="fill:#fe0707;fill-opacity:1;stroke:#fffecd;stroke-width:0.0804347;stroke-miterlimit:4;stroke-dasharray:none;stroke-opacity:1" />
    <path
       sodipodi:nodetypes="csccssscscc"
       inkscape:connector-curvature="0"
       id="path5790"
       d="m 891.36214,1252.6567 c -3.101,7.038 -5.011,10.704 -7.469,14.352 l -2.893,4.286 2.897,4.304 c 2.463,3.657 4.597,7.486 7.691,14.505 0.682,1.552 0.122,1.866 3.413,-5.372 1.269,-2.799 3.395,-6.599 5.089,-9.123 l 2.91,-4.314 -2.906,-4.305 c -1.702,-2.524 -3.809,-6.295 -5.089,-9.114 -3.297,-7.248 -2.489,-8.343 -3.643,-5.219 z"
       style="fill:#fe0909" />
    <path
       style="fill:#fe0707;fill-opacity:1;stroke:#fffecd;stroke-width:0.0804347;stroke-miterlimit:4;stroke-dasharray:none;stroke-opacity:1"
       d="m 906.41514,1303.8827 c -0.296,2.103 -1.421,5.67 -2.501,7.927 -1.829,3.825 -3.807,5.946 -15.397,16.51 -4.593,4.185 -5.688,7.213 -4.221,11.668 1.764,5.355 10.038,6.74 13.548,2.269 0.878,-1.118 1.835,-3.989 2.137,-6.411 0.52,-4.172 0.66,-4.387 2.865,-4.387 2.232,0 2.318,0.143 2.318,3.855 0,8.392 -5.649,14.664 -13.207,14.664 -8.441,0 -14.115,-5.175 -14.112,-12.87 0,-5.596 2.079,-8.65 10.846,-15.946 7.387,-6.147 11.637,-11.131 11.647,-13.656 0,-0.744 -2.287,-1.007 -8.786,-1.007 h -8.79 l -0.554,5.636 c -0.545,5.541 -0.594,5.636 -2.861,5.636 -2.224,0 -2.307,-0.141 -2.307,-3.907 0,-2.149 0.232,-6.135 0.516,-8.857 l 0.516,-4.949 h 14.441 14.44 z"
       id="path5792"
       inkscape:connector-curvature="0" />
    <path
       style="fill:#e2e2e2"
       d="m 589.41559,1351.2856 c -1.78943,-0.2256 -4.36027,-1.683 -6.01881,-3.412 l -2.89516,-3.0182 -0.28045,-201.0696 c -0.15426,-110.5883 -0.0328,-202.08407 0.26989,-203.32395 0.51713,-2.11823 1.06589,-2.25432 9.0901,-2.25432 5.22828,0 9.90272,-0.56879 12.05461,-1.46682 6.44644,-2.69023 6.45205,-2.73985 6.45205,-57.09419 v -48.60618 l 2.25706,-0.5528 c 1.24137,-0.30403 65.33307,-0.42534 142.426,-0.26957 l 140.16896,0.28323 3.27929,3.27541 3.27929,3.27541 0.28046,201.11618 c 0.15425,110.6138 0.0328,202.1306 -0.26989,203.3704 -0.51712,2.1183 -1.06589,2.2544 -9.09011,2.2544 -5.22827,0 -9.90272,0.5687 -12.0546,1.4668 -6.4454,2.6898 -6.45205,2.7486 -6.45205,57.0061 0,43.3178 -0.17008,48.5832 -1.58676,49.1262 -1.70623,0.6539 -275.70358,0.5501 -280.90988,-0.1065 z m 277.48096,-49.9145 c 0,-52.3065 -0.10203,-51.3565 6.14998,-57.2662 4.56114,-4.3115 7.69029,-5.3215 16.48585,-5.3215 h 7.45821 v -197.9113 c 0,-171.49225 -0.19604,-198.3799 -1.4686,-201.42187 -2.86596,-6.85088 6.31277,-6.44424 -145.4584,-6.44424 H 613.1035 v 47.62336 c 0,52.30658 0.10202,51.35649 -6.14998,57.26625 -4.56115,4.31146 -7.69029,5.32153 -16.48585,5.32153 h -7.45821 v 197.91127 c 0,218.3114 -0.4486,203.4575 6.23204,206.3566 2.8032,1.2164 23.8693,1.4369 140.4764,1.4703 l 137.17865,0.039 v -47.6234 z"
       id="path10263"
       inkscape:connector-curvature="0" />
    <path
       style="fill:#dbdbdb"
       d="m 589.92645,1351.2984 c -1.43702,-0.2228 -4.14548,-1.9845 -6.01881,-3.9149 l -3.40602,-3.5098 V 1141.7921 939.71042 l 9.52978,-0.53916 c 5.97674,-0.33814 10.67248,-1.15062 12.59467,-2.17918 5.97513,-3.1973 5.91661,-2.68231 6.46489,-56.89587 l 0.50156,-49.59501 h 141.17461 141.1746 l 3.77835,3.77383 3.77834,3.77383 v 202.12064 202.1206 l -9.52977,0.5687 c -5.24138,0.3128 -10.80501,1.1896 -12.36363,1.9485 -6.19057,3.0138 -6.14505,2.6257 -6.69593,57.097 l -0.50157,49.595 -138.93414,0.1021 c -76.41378,0.056 -140.10989,-0.08 -141.54693,-0.303 z m 277.97324,-51.6361 0.50156,-49.8331 4.7745,-4.7679 4.77451,-4.7679 9.77095,-0.5045 9.77094,-0.5046 0.27101,-197.3781 c 0.30573,-222.66781 0.95005,-204.35965 -7.32069,-208.01377 -4.14965,-1.83336 -8.77592,-1.88719 -141.06545,-1.64146 l -136.77509,0.25407 -0.50157,49.83313 -0.50157,49.83312 -4.7745,4.76791 -4.7745,4.76789 -9.77095,0.50454 -9.77095,0.50454 -0.27101,197.37813 c -0.30515,222.2518 -0.92324,204.3099 7.16484,207.982 3.9931,1.813 9.01982,1.8718 141.06852,1.6496 l 136.92787,-0.2305 z"
       id="path10265"
       inkscape:connector-curvature="0" />
    <path
       style="fill:#c1c1c1"
       d="m 589.92645,1351.2984 c -1.43702,-0.2228 -4.14548,-1.9845 -6.01881,-3.9149 l -3.40602,-3.5098 V 1141.7921 939.71042 l 10.07725,-0.50097 c 10.68548,-0.53119 14.19572,-1.84575 16.72131,-6.262 0.98334,-1.71947 1.4082,-14.13969 1.79078,-52.35029 l 0.50156,-50.09596 h 141.17461 141.1746 l 3.77835,3.77383 3.77834,3.77383 v 202.12064 202.1206 l -10.07724,0.5009 c -10.6855,0.5312 -14.19572,1.8458 -16.72131,6.262 -0.98335,1.7195 -1.40822,14.1397 -1.79078,52.3503 l -0.50157,50.096 -138.93414,0.1021 c -76.41378,0.056 -140.10989,-0.08 -141.54693,-0.303 z m 277.97324,-50.897 c 0.36589,-35.8139 0.83038,-49.6667 1.71715,-51.211 2.09698,-3.6518 8.13422,-8.2812 11.55293,-8.8588 1.8049,-0.305 6.2158,-0.6654 9.80201,-0.8009 l 6.52037,-0.2464 0.2506,-198.38 c 0.23649,-187.21172 0.15177,-198.57749 -1.5047,-201.88679 -1.00295,-2.00368 -3.26016,-4.25841 -5.26627,-5.26047 -3.30033,-1.64855 -11.75604,-1.73871 -140.94041,-1.50288 l -137.42944,0.25088 -0.50157,49.09404 c -0.36589,35.81395 -0.83039,49.66668 -1.71715,51.21098 -2.09699,3.65183 -8.13422,8.28124 -11.55293,8.85886 -1.80491,0.30497 -6.21581,0.66535 -9.80201,0.80087 l -6.52038,0.24638 -0.2506,198.38003 c -0.23648,187.2117 -0.15177,198.5775 1.50471,201.8868 1.00295,2.0036 3.26016,4.2584 5.26627,5.2604 3.30032,1.6486 11.75602,1.7388 140.94041,1.5029 l 137.42943,-0.2509 z"
       id="path10267-5"
       inkscape:connector-curvature="0" />
    <path
       style="fill:#b9b9b9"
       d="m 589.52983,1350.4412 c -2.30015,-1.1224 -2.41836,-1.2927 -0.50156,-0.7226 4.38252,1.3036 276.93668,1.4658 278.50509,0.1657 1.12155,-0.9297 1.37589,-9.8642 1.40501,-49.3551 0.0306,-41.44 0.25095,-48.5721 1.56757,-50.7247 l 1.53201,-2.5048 -0.78121,2.5048 c -0.42965,1.3776 -0.92154,24.9352 -1.09306,52.3503 l -0.31187,49.8454 -138.65628,-0.045 c -119.71059,-0.039 -139.06749,-0.2459 -141.6657,-1.5138 z m -8.41066,-8.5585 c -0.80888,-2.3176 -1.11912,-58.4111 -1.11912,-202.345 V 940.39914 l 9.78057,-0.45899 c 5.3793,-0.25244 10.90908,-0.77382 12.2884,-1.15859 l 2.50783,-0.69961 -2.50783,1.53016 c -1.68464,1.02789 -5.15857,1.54183 -10.58308,1.56568 -4.89763,0.0216 -8.5489,0.50861 -9.27899,1.2378 -1.67329,1.67125 -1.75656,393.67491 -0.0846,398.46521 0.61552,1.7635 0.89342,3.4318 0.61756,3.7073 -0.27587,0.2756 -1.00517,-0.9419 -1.62069,-2.7054 z m 296.81186,-99.4943 c 1.69005,-1.0312 5.16648,-1.5418 10.66087,-1.5657 5.61794,-0.024 8.50544,-0.4596 9.2864,-1.3995 1.30243,-1.5674 1.14541,-396.04923 -0.15938,-400.40569 -0.57159,-1.90841 -0.40011,-1.78914 0.72018,0.50096 1.27631,2.60901 1.47638,29.34454 1.51566,202.54433 l 0.0453,199.5385 -9.78057,0.459 c -5.3793,0.2525 -10.90909,0.7738 -12.2884,1.1586 l -2.50784,0.6996 2.50784,-1.5301 z M 608.74329,932.19602 c 0.42967,-1.37764 0.92155,-24.93527 1.09307,-52.35029 l 0.31186,-49.84549 138.65629,0.0452 c 119.7106,0.0391 139.0675,0.24585 141.6657,1.5138 2.30016,1.12249 2.41837,1.29281 0.50157,0.72263 -4.38253,-1.30362 -276.93669,-1.46577 -278.50509,-0.16568 -1.12156,0.92968 -1.3759,9.86416 -1.40501,49.35511 -0.0305,41.43996 -0.25096,48.57212 -1.56757,50.72473 l -1.53203,2.5048 0.78121,-2.5048 z"
       id="path10269-4"
       inkscape:connector-curvature="0" />
    <path
       style="fill:#aeaeae"
       d="m 728.86707,1351.2488 c 98.87264,-0.1855 137.70699,-0.5693 138.6737,-1.3707 1.08005,-0.8952 1.39564,-10.4501 1.61313,-48.8399 l 0.27041,-47.727 0.24082,49.3445 0.24083,49.3445 -139.18493,-0.2468 -139.18493,-0.2469 z m -148.61874,-210.904 -0.24828,-200.13343 9.279,0.20163 9.27899,0.20163 -7.68515,0.33987 c -4.73318,0.20932 -8.10375,0.84365 -8.77493,1.65139 -0.77428,0.93181 -1.16383,58.71641 -1.34556,199.59191 l -0.25579,198.2804 z m 308.87883,100.7012 c 4.73316,-0.2093 8.10376,-0.8437 8.77493,-1.6514 0.77428,-0.9318 1.16384,-58.7164 1.34556,-199.5919 l 0.25578,-198.28039 0.24829,200.13339 0.24828,200.1334 -9.279,-0.2016 -9.279,-0.2017 z m -278.79224,-361.70124 -0.24083,-49.34452 139.18493,0.24688 139.18492,0.24689 -137.33097,0.25765 c -98.87264,0.1855 -137.70699,0.56934 -138.6737,1.37066 -1.08005,0.89528 -1.39563,10.45015 -1.61313,48.84 l -0.2704,47.72698 z"
       id="path10271"
       inkscape:connector-curvature="0" />
    <path
       style="fill:#9f9f9f"
       d="m 729.36862,1351.2488 c 99.83442,-0.1866 138.20537,-0.5667 139.18493,-1.3786 1.03994,-0.8621 1.35241,-0.7455 1.35241,0.5045 0,1.4928 -11.36365,1.6054 -139.18493,1.3786 l -139.18493,-0.2469 z m -149.12029,-210.904 c -0.22832,-184.0432 -0.11743,-200.13343 1.37925,-200.13343 1.25227,0 1.36849,0.31175 0.50406,1.35206 -0.81897,0.98562 -1.19279,55.22852 -1.37924,200.13337 l -0.25578,198.7814 z m 317.62008,100.0922 c 0.81897,-0.9856 1.19279,-55.2285 1.37924,-200.1334 l 0.25577,-198.78129 0.24829,200.13339 c 0.22832,184.0432 0.11743,200.1334 -1.37924,200.1334 -1.25227,0 -1.3685,-0.3117 -0.50406,-1.3521 z M 610.09409,831.6258 c 0,-1.49284 11.36365,-1.6054 139.18493,-1.37867 l 139.18492,0.24691 -137.83251,0.25762 c -99.83443,0.18661 -138.20536,0.56668 -139.18494,1.37866 -1.03994,0.86202 -1.3524,0.74546 -1.3524,-0.50452 z"
       id="path10273-7"
       inkscape:connector-curvature="0" />
    <path
       style="fill:#000000"
       d="m 661.58311,1351.2489 c 38.52584,-0.1453 101.27191,-0.1453 139.4357,0 38.16379,0.1454 6.64264,0.2643 -70.047,0.2643 -76.68964,0 -107.91456,-0.119 -69.3887,-0.2643 z m -81.09127,-211.1546 c 2e-5,-110.2111 0.11725,-155.14888 0.26053,-99.8616 0.14326,55.2872 0.14325,145.4599 -4e-5,200.3838 -0.14328,54.9239 -0.2605,9.6889 -0.26049,-100.5222 z m 318.9968,-98.1881 c 2e-5,-110.21115 0.11725,-155.14888 0.26052,-99.86165 0.14328,55.28724 0.14327,145.45995 -3e-5,200.38385 -0.14327,54.9239 -0.2605,9.6889 -0.26049,-100.5222 z M 679.63953,830.25081 c 38.52585,-0.14534 101.27191,-0.14532 139.43571,5e-5 38.16378,0.14535 6.64264,0.26426 -70.047,0.26423 -76.68964,-2e-5 -107.91457,-0.11896 -69.38871,-0.26428 z"
       id="path10275-4"
       inkscape:connector-curvature="0" />
    <path
       transform="translate(0,-1.2207032e-4)"
       inkscape:connector-curvature="0"
       id="path10936-4"
       d="m 590.7781,1346.9884 c -4.1231,-1.1409 -4.94517,-2.7455 -6.019,-11.7479 -0.68402,-5.7346 -1.32869,-96.0578 -1.43259,-200.7183 l -0.1889,-190.29185 9.72068,-0.93403 c 7.18692,-0.69058 11.04555,-2.25803 14.80346,-6.01346 l 5.08277,-5.07941 0.59577,-49.73662 0.59577,-49.73662 138.27144,0.59099 c 110.2779,0.47134 138.77393,1.09364 140.75339,3.07381 1.99765,1.99834 2.58021,41.41464 2.98552,201.99559 l 0.50357,199.5128 h -5.81776 c -8.31028,0 -18.3472,4.6647 -21.22921,9.8664 -1.77479,3.2033 -2.68459,18.0457 -3.22979,52.6901 l -0.75901,48.2306 -134.9304,-0.1904 c -74.21172,-0.1047 -137.07929,-0.785 -139.70571,-1.5117 z m 155.74664,-23.2473 c 3.86848,-6.3681 11.66671,-16.5828 17.32942,-22.6992 5.6627,-6.1164 10.29583,-11.7302 10.29583,-12.4751 0,-0.7449 -4.80002,-6.6469 -10.66671,-13.1156 -5.86669,-6.4686 -13.37374,-16.2738 -16.68232,-21.7893 -3.30859,-5.5155 -6.55265,-10.0282 -7.20903,-10.0282 -0.65638,0 -4.37302,4.7889 -8.2592,10.6419 -3.88618,5.853 -11.8048,15.7967 -17.59695,22.0971 l -10.53118,11.4553 8.74958,9.8974 c 4.81227,5.4436 12.8241,16.1008 17.80405,23.6827 4.97996,7.5818 9.20712,13.8136 9.3937,13.8484 0.18658,0.035 3.50434,-5.1472 7.37281,-11.5154 z m -0.68356,-394.8022 c 2.8151,-4.98913 10.39103,-15.31857 16.83539,-22.9543 l 11.71701,-13.88316 -9.81014,-10.94845 c -5.39558,-6.02165 -12.87879,-15.8909 -16.62935,-21.93167 -3.75056,-6.04076 -7.52456,-10.98321 -8.38666,-10.98321 -0.8621,0 -4.97928,5.02415 -9.1493,11.16477 -4.17001,6.14062 -12.02097,16.02188 -17.44656,21.95834 l -9.86472,10.79357 9.0561,10.03624 c 4.98085,5.51992 12.92589,15.83823 17.65564,22.92957 4.72974,7.09133 9.11809,12.89246 9.75188,12.89139 0.63379,-10e-4 3.45561,-4.08396 6.27071,-9.07309 z"
       style="fill:#fff6d5;fill-opacity:1;stroke:none;stroke-width:0.105;stroke-miterlimit:4;stroke-dasharray:none;stroke-opacity:1" />
  </g>
</svg>
