<?xml version="1.0" encoding="UTF-8" standalone="no"?>
<!-- Created with Inkscape (http://www.inkscape.org/) -->

<svg
   id="svg10047"
   height="122.98953"
   width="78.999855"
   version="1.1"
   viewBox="0 0 78.999855 122.98953"
   inkscape:version="0.91 r13725"
   sodipodi:docname="baroque.svgz"
   xmlns:inkscape="http://www.inkscape.org/namespaces/inkscape"
   xmlns:sodipodi="http://sodipodi.sourceforge.net/DTD/sodipodi-0.dtd"
   xmlns="http://www.w3.org/2000/svg"
   xmlns:svg="http://www.w3.org/2000/svg"
   xmlns:rdf="http://www.w3.org/1999/02/22-rdf-syntax-ns#"
   xmlns:cc="http://creativecommons.org/ns#"
   xmlns:dc="http://purl.org/dc/elements/1.1/">
  <sodipodi:namedview
     pagecolor="#ffffff"
     bordercolor="#666666"
     borderopacity="1"
     objecttolerance="10"
     gridtolerance="10"
     guidetolerance="10"
     inkscape:pageopacity="0"
     inkscape:pageshadow="2"
     inkscape:window-width="1920"
     inkscape:window-height="1016"
     id="namedview1491"
     showgrid="false"
     inkscape:zoom="1.3479675"
     inkscape:cx="513.5"
     inkscape:cy="307.5"
     inkscape:window-x="0"
     inkscape:window-y="0"
     inkscape:window-maximized="1"
     inkscape:current-layer="svg10047"
     showguides="false"
     inkscape:guide-bbox="true"
     inkscape:snap-grids="false"
     inkscape:snap-to-guides="false"
     inkscape:showpageshadow="2"
     inkscape:pagecheckerboard="0"
     inkscape:deskcolor="#d1d1d1">
    <inkscape:grid
       type="xygrid"
       id="grid11817"
       originx="-474"
       originy="-122.99946"
       spacingy="1"
       spacingx="1"
       units="px"
       visible="false" />
  </sodipodi:namedview>
  <metadata
     id="metadata16869">
    <rdf:RDF>
      <cc:Work
         rdf:about="">
        <dc:format>image/svg+xml</dc:format>
        <dc:type
           rdf:resource="http://purl.org/dc/dcmitype/StillImage" />
        <dc:title />
      </cc:Work>
    </rdf:RDF>
  </metadata>
  <defs
     id="defs10049" />
  <g
     transform="matrix(0.20789044,0,0,0.21132275,-582.09326,-169.04695)"
     id="diamond_7"
     inkscape:label="#diamond_7">
    <rect
       width="379.37555"
       height="581.36694"
       rx="31.643513"
       ry="32.297684"
       x="2800.3159"
       y="800.26257"
       id="rect7044"
       style="fill:#ffffff;stroke:#000000;stroke-width:0.631597" />
    <path
       style="fill:#fe0909"
       d="m 2900.3651,934.29766 c -9.865,-15.834 -15.943,-24.092 -23.765,-32.29 l -9.207,-9.649 9.22,-9.682 c 7.835,-8.228 14.626,-16.843 24.472,-32.647 2.168,-3.479 0.384,-4.194 10.86,12.1 4.037,6.28 10.801,14.847 16.191,20.507 l 9.257,9.722 -9.243,9.688 c -5.417,5.677 -12.121,14.162 -16.192,20.495 -10.491,16.317 -7.92,18.777 -11.593,11.756 z"
       id="path7048"
       inkscape:connector-curvature="0"
       sodipodi:nodetypes="csccssscscc" />
    <path
       style="fill:#fe0909"
       d="m 2900.2151,1132.2217 c -9.866,-15.834 -15.943,-24.092 -23.766,-32.29 l -9.206,-9.649 9.22,-9.682 c 7.835,-8.228 14.626,-16.843 24.472,-32.647 2.168,-3.479 0.384,-4.194 10.859,12.1 4.038,6.28 10.802,14.847 16.192,20.507 l 9.257,9.722 -9.244,9.688 c -5.416,5.677 -12.12,14.162 -16.192,20.495 -10.49,16.317 -7.919,18.777 -11.592,11.756 z"
       id="path7050"
       inkscape:connector-curvature="0"
       sodipodi:nodetypes="csccssscscc" />
    <path
       style="fill:#fe0909"
       d="m 2900.3261,1330.2977 c -9.866,-15.834 -15.943,-24.092 -23.766,-32.29 l -9.206,-9.649 9.22,-9.682 c 7.835,-8.228 14.626,-16.843 24.472,-32.647 2.168,-3.479 0.384,-4.194 10.859,12.1 4.038,6.28 10.802,14.847 16.192,20.507 l 9.257,9.722 -9.244,9.688 c -5.416,5.677 -12.12,14.162 -16.192,20.495 -10.49,16.317 -7.919,18.777 -11.592,11.756 z"
       id="path7052"
       inkscape:connector-curvature="0"
       sodipodi:nodetypes="csccssscscc" />
    <path
       style="fill:#fe0909"
       d="m 3074.2381,1330.2977 c -9.866,-15.834 -15.943,-24.092 -23.766,-32.29 l -9.206,-9.649 9.22,-9.682 c 7.835,-8.228 14.626,-16.843 24.472,-32.647 2.168,-3.479 0.384,-4.194 10.859,12.1 4.038,6.28 10.802,14.847 16.192,20.507 l 9.257,9.722 -9.244,9.688 c -5.416,5.677 -12.12,14.162 -16.192,20.495 -10.49,16.317 -7.919,18.777 -11.592,11.756 z"
       id="path7054"
       inkscape:connector-curvature="0"
       sodipodi:nodetypes="csccssscscc" />
    <path
       style="fill:#fe0909"
       d="m 3074.8001,934.29766 c -9.865,-15.834 -15.943,-24.092 -23.765,-32.29 l -9.206,-9.649 9.219,-9.682 c 7.835,-8.229 14.626,-16.843 24.473,-32.647 2.167,-3.479 0.384,-4.194 10.859,12.1 4.037,6.28 10.802,14.847 16.192,20.507 l 9.257,9.722 -9.244,9.688 c -5.417,5.677 -12.121,14.162 -16.192,20.495 -10.491,16.317 -7.919,18.777 -11.593,11.756 z"
       id="path7056"
       inkscape:connector-curvature="0"
       sodipodi:nodetypes="csccssscscc" />
    <path
       style="fill:#fe0909"
       d="m 3074.0261,1132.2937 c -9.866,-15.834 -15.944,-24.092 -23.766,-32.29 l -9.206,-9.649 9.219,-9.682 c 7.836,-8.228 14.626,-16.843 24.473,-32.647 2.168,-3.479 0.384,-4.194 10.859,12.1 4.038,6.28 10.802,14.847 16.192,20.507 l 9.257,9.722 -9.244,9.688 c -5.417,5.677 -12.12,14.162 -16.192,20.495 -10.49,16.317 -7.919,18.777 -11.592,11.756 z"
       id="path7058"
       inkscape:connector-curvature="0"
       sodipodi:nodetypes="csccssscscc" />
    <path
       style="fill:#fe0909"
       d="m 2986.9801,1034.7957 c -9.865,-15.834 -15.943,-24.092 -23.765,-32.29 l -9.207,-9.64904 9.22,-9.682 c 7.835,-8.228 14.626,-16.843 24.473,-32.647 2.167,-3.479 0.383,-4.194 10.859,12.1 4.037,6.28 10.801,14.847 16.191,20.507 l 9.257,9.722 -9.243,9.68804 c -5.417,5.677 -12.121,14.162 -16.192,20.495 -10.491,16.317 -7.92,18.777 -11.593,11.756 z"
       id="path7060"
       inkscape:connector-curvature="0"
       sodipodi:nodetypes="csccssscscc" />
    <path
       sodipodi:nodetypes="csccssscscc"
       inkscape:connector-curvature="0"
       id="path7062"
       d="m 2837.3621,929.35166 c -3.101,-7.038 -5.011,-10.704 -7.469,-14.352 l -2.894,-4.285 2.898,-4.305 c 2.462,-3.657 4.597,-7.486 7.691,-14.505 0.682,-1.552 0.121,-1.866 3.413,5.372 1.269,2.8 3.395,6.6 5.089,9.123 l 2.909,4.315 -2.905,4.304 c -1.702,2.524 -3.809,6.295 -5.089,9.114 -3.297,7.248 -2.489,8.343 -3.643,5.219 z"
       style="fill:#fe0909" />
    <path
       inkscape:connector-curvature="0"
       id="path7064"
       d="m 2827.0831,879.13566 c 0,-2.736 0.09,-2.818 3.13,-2.818 h 3.13 l 0.541,-4.762 c 0.853,-7.506 3.473,-15.88 7.802,-24.931 2.197,-4.596 3.995,-8.491 3.995,-8.656 0,-0.164 -3.82,-0.299 -8.49,-0.299 h -8.491 v 3.221 c 0,3.144 -0.07,3.22 -2.83,3.22 h -2.83 v -6.038 -6.039 h 14.959 14.96 v 1.951 c 0,1.073 -1.432,4.606 -3.182,7.851 -5.342,9.903 -9.756,23.922 -9.756,30.987 0,3.457 0.03,3.495 2.83,3.495 2.696,0 2.83,0.134 2.83,2.818 v 2.818 h -9.299 -9.299 z"
       style="fill:#fe0707;fill-opacity:1;stroke:#fffecd;stroke-width:0.0806888;stroke-miterlimit:4;stroke-dasharray:none;stroke-opacity:1" />
    <path
       style="fill:#fe0909"
       d="m 3141.3621,1252.6567 c -3.101,7.038 -5.011,10.704 -7.469,14.352 l -2.894,4.286 2.898,4.304 c 2.462,3.657 4.597,7.486 7.691,14.505 0.682,1.552 0.121,1.866 3.413,-5.372 1.269,-2.799 3.395,-6.599 5.089,-9.123 l 2.909,-4.314 -2.905,-4.305 c -1.702,-2.524 -3.809,-6.295 -5.089,-9.114 -3.297,-7.248 -2.489,-8.343 -3.643,-5.219 z"
       id="path7066"
       inkscape:connector-curvature="0"
       sodipodi:nodetypes="csccssscscc" />
    <path
       style="fill:#fe0707;fill-opacity:1;stroke:#fffecd;stroke-width:0.0806888;stroke-miterlimit:4;stroke-dasharray:none;stroke-opacity:1"
       d="m 3152.9161,1302.8737 c 0,2.735 -0.09,2.818 -3.13,2.818 h -3.13 l -0.541,4.762 c -0.853,7.505 -3.474,15.879 -7.802,24.931 -2.198,4.595 -3.996,8.49 -3.996,8.655 0,0.164 3.821,0.299 8.491,0.299 h 8.491 v -3.221 c 0,-3.144 0.07,-3.22 2.83,-3.22 h 2.83 v 6.038 6.039 h -14.959 -14.96 v -1.951 c 0,-1.073 1.432,-4.606 3.182,-7.85 5.342,-9.903 9.756,-23.923 9.756,-30.988 0,-3.457 -0.03,-3.494 -2.83,-3.494 -2.696,0 -2.83,-0.135 -2.83,-2.818 v -2.818 h 9.299 9.299 z"
       id="path7068"
       inkscape:connector-curvature="0" />
    <path
       inkscape:connector-curvature="0"
       id="path10343"
       d="m 2839.4157,1351.2856 c -1.7894,-0.2256 -4.3602,-1.683 -6.0188,-3.412 l -2.8951,-3.0182 -0.2805,-201.0696 c -0.1543,-110.5883 -0.033,-202.08407 0.2699,-203.32395 0.5171,-2.11823 1.0659,-2.25432 9.0901,-2.25432 5.2283,0 9.9027,-0.56879 12.0546,-1.46682 6.4464,-2.69023 6.452,-2.73985 6.452,-57.09419 v -48.60618 l 2.2571,-0.5528 c 1.2414,-0.30403 65.3331,-0.42534 142.426,-0.26957 l 140.169,0.28323 3.2793,3.27541 3.2793,3.27541 0.2804,201.11618 c 0.1543,110.6138 0.033,202.1306 -0.2699,203.3704 -0.5171,2.1183 -1.0659,2.2544 -9.0901,2.2544 -5.2283,0 -9.9027,0.5687 -12.0546,1.4668 -6.4454,2.6898 -6.452,2.7486 -6.452,57.0061 0,43.3178 -0.1701,48.5832 -1.5868,49.1262 -1.7062,0.6539 -275.7036,0.5501 -280.9099,-0.1065 z m 277.481,-49.9145 c 0,-52.3065 -0.102,-51.3565 6.15,-57.2662 4.5611,-4.3115 7.6902,-5.3215 16.4858,-5.3215 h 7.4582 v -197.9113 c 0,-171.49225 -0.196,-198.3799 -1.4686,-201.42187 -2.8659,-6.85088 6.3128,-6.44424 -145.4584,-6.44424 h -136.9601 v 47.62336 c 0,52.30658 0.1021,51.35649 -6.15,57.26625 -4.5611,4.31146 -7.6902,5.32153 -16.4858,5.32153 h -7.4582 v 197.91127 c 0,218.3114 -0.4486,203.4575 6.232,206.3566 2.8032,1.2164 23.8693,1.4369 140.4764,1.4703 l 137.1787,0.039 v -47.6234 z"
       style="fill:#e2e2e2" />
    <path
       inkscape:connector-curvature="0"
       id="path10345"
       d="m 2839.9266,1351.2984 c -1.437,-0.2228 -4.1455,-1.9845 -6.0188,-3.9149 l -3.406,-3.5098 V 1141.7921 939.71042 l 9.5297,-0.53916 c 5.9768,-0.33814 10.6725,-1.15062 12.5947,-2.17918 5.9751,-3.1973 5.9166,-2.68231 6.4649,-56.89587 l 0.5016,-49.59501 h 141.1746 141.1746 l 3.7783,3.77383 3.7784,3.77383 v 202.12064 202.1206 l -9.5298,0.5687 c -5.2414,0.3128 -10.805,1.1896 -12.3637,1.9485 -6.1905,3.0138 -6.145,2.6257 -6.6959,57.097 l -0.5015,49.595 -138.9342,0.1021 c -76.4138,0.056 -140.1099,-0.08 -141.5469,-0.303 z m 277.9732,-51.6361 0.5016,-49.8331 4.7745,-4.7679 4.7745,-4.7679 9.7709,-0.5045 9.771,-0.5046 0.271,-197.3781 c 0.3057,-222.66781 0.95,-204.35965 -7.3207,-208.01377 -4.1497,-1.83336 -8.7759,-1.88719 -141.0654,-1.64146 l -136.7751,0.25407 -0.5016,49.83313 -0.5016,49.83312 -4.7745,4.76791 -4.7745,4.76789 -9.7709,0.50454 -9.771,0.50454 -0.271,197.37813 c -0.3051,222.2518 -0.9232,204.3099 7.1649,207.982 3.9931,1.813 9.0198,1.8718 141.0685,1.6496 l 136.9278,-0.2305 z"
       style="fill:#dbdbdb" />
    <path
       inkscape:connector-curvature="0"
       id="path10347"
       d="m 2839.9266,1351.2984 c -1.437,-0.2228 -4.1455,-1.9845 -6.0188,-3.9149 l -3.406,-3.5098 V 1141.7921 939.71042 l 10.0772,-0.50097 c 10.6855,-0.53119 14.1957,-1.84575 16.7213,-6.262 0.9833,-1.71947 1.4082,-14.13969 1.7908,-52.35029 l 0.5016,-50.09596 h 141.1746 141.1746 l 3.7783,3.77383 3.7784,3.77383 v 202.12064 202.1206 l -10.0773,0.5009 c -10.6855,0.5312 -14.1957,1.8458 -16.7213,6.262 -0.9834,1.7195 -1.4082,14.1397 -1.7908,52.3503 l -0.5015,50.096 -138.9342,0.1021 c -76.4138,0.056 -140.1099,-0.08 -141.5469,-0.303 z m 277.9732,-50.897 c 0.3659,-35.8139 0.8304,-49.6667 1.7172,-51.211 2.097,-3.6518 8.1342,-8.2812 11.5529,-8.8588 1.8049,-0.305 6.2158,-0.6654 9.802,-0.8009 l 6.5204,-0.2464 0.2506,-198.38 c 0.2365,-187.21172 0.1517,-198.57749 -1.5047,-201.88679 -1.003,-2.00368 -3.2602,-4.25841 -5.2663,-5.26047 -3.3003,-1.64855 -11.756,-1.73871 -140.9404,-1.50288 l -137.4294,0.25088 -0.5016,49.09404 c -0.3659,35.81395 -0.8304,49.66668 -1.7172,51.21098 -2.0969,3.65183 -8.1342,8.28124 -11.5529,8.85886 -1.8049,0.30497 -6.2158,0.66535 -9.802,0.80087 l -6.5204,0.24638 -0.2506,198.38003 c -0.2365,187.2117 -0.1518,198.5775 1.5047,201.8868 1.003,2.0036 3.2602,4.2584 5.2663,5.2604 3.3003,1.6486 11.756,1.7388 140.9404,1.5029 l 137.4294,-0.2509 z"
       style="fill:#c1c1c1" />
    <path
       inkscape:connector-curvature="0"
       id="path10349"
       d="m 2839.53,1350.4412 c -2.3002,-1.1224 -2.4184,-1.2927 -0.5016,-0.7226 4.3825,1.3036 276.9367,1.4658 278.5051,0.1657 1.1215,-0.9297 1.3759,-9.8642 1.405,-49.3551 0.031,-41.44 0.251,-48.5721 1.5676,-50.7247 l 1.532,-2.5048 -0.7812,2.5048 c -0.4297,1.3776 -0.9216,24.9352 -1.0931,52.3503 l -0.3119,49.8454 -138.6562,-0.045 c -119.7106,-0.039 -139.0675,-0.2459 -141.6657,-1.5138 z m -8.4107,-8.5585 c -0.8089,-2.3176 -1.1191,-58.4111 -1.1191,-202.345 V 940.39914 l 9.7805,-0.45899 c 5.3794,-0.25244 10.9091,-0.77382 12.2884,-1.15859 l 2.5079,-0.69961 -2.5079,1.53016 c -1.6846,1.02789 -5.1585,1.54183 -10.583,1.56568 -4.8977,0.0216 -8.5489,0.50861 -9.279,1.2378 -1.6733,1.67125 -1.7566,393.67491 -0.085,398.46521 0.6155,1.7635 0.8934,3.4318 0.6175,3.7073 -0.2759,0.2756 -1.0052,-0.9419 -1.6207,-2.7054 z m 296.8119,-99.4943 c 1.69,-1.0312 5.1664,-1.5418 10.6608,-1.5657 5.618,-0.024 8.5055,-0.4596 9.2864,-1.3995 1.3025,-1.5674 1.1454,-396.04923 -0.1594,-400.40569 -0.5715,-1.90841 -0.4001,-1.78914 0.7202,0.50096 1.2763,2.60901 1.4764,29.34454 1.5157,202.54433 l 0.045,199.5385 -9.7806,0.459 c -5.3793,0.2525 -10.9091,0.7738 -12.2884,1.1586 l -2.5078,0.6996 2.5078,-1.5301 z M 2858.7434,932.19602 c 0.4297,-1.37764 0.9216,-24.93527 1.0931,-52.35029 l 0.3119,-49.84549 138.6562,0.0452 c 119.7106,0.0391 139.0675,0.24585 141.6657,1.5138 2.3002,1.12249 2.4184,1.29281 0.5016,0.72263 -4.3825,-1.30362 -276.9367,-1.46577 -278.5051,-0.16568 -1.1215,0.92968 -1.3759,9.86416 -1.405,49.35511 -0.03,41.43996 -0.2509,48.57212 -1.5676,50.72473 l -1.532,2.5048 0.7812,-2.5048 z"
       style="fill:#b9b9b9" />
    <path
       inkscape:connector-curvature="0"
       id="path10351"
       d="m 2978.8672,1351.2488 c 98.8726,-0.1855 137.707,-0.5693 138.6737,-1.3707 1.0801,-0.8952 1.3956,-10.4501 1.6131,-48.8399 l 0.2704,-47.727 0.2409,49.3445 0.2408,49.3445 -139.1849,-0.2468 -139.185,-0.2469 z m -148.6187,-210.904 -0.2483,-200.13343 9.279,0.20163 9.279,0.20163 -7.6852,0.33987 c -4.7332,0.20932 -8.1037,0.84365 -8.7749,1.65139 -0.7743,0.93181 -1.1638,58.71641 -1.3456,199.59191 l -0.2558,198.2804 z m 308.8788,100.7012 c 4.7332,-0.2093 8.1037,-0.8437 8.7749,-1.6514 0.7743,-0.9318 1.1639,-58.7164 1.3456,-199.5919 l 0.2558,-198.28039 0.2483,200.13339 0.2482,200.1334 -9.279,-0.2016 -9.279,-0.2017 z m -278.7923,-361.70124 -0.2408,-49.34452 139.185,0.24688 139.1849,0.24689 -137.331,0.25765 c -98.8726,0.1855 -137.707,0.56934 -138.6737,1.37066 -1.08,0.89528 -1.3956,10.45015 -1.6131,48.84 l -0.2704,47.72698 z"
       style="fill:#aeaeae" />
    <path
       inkscape:connector-curvature="0"
       id="path10353"
       d="m 2979.3687,1351.2488 c 99.8345,-0.1866 138.2054,-0.5667 139.185,-1.3786 1.0399,-0.8621 1.3524,-0.7455 1.3524,0.5045 0,1.4928 -11.3637,1.6054 -139.1849,1.3786 l -139.185,-0.2469 z m -149.1202,-210.904 c -0.2284,-184.0432 -0.1175,-200.13343 1.3792,-200.13343 1.2523,0 1.3685,0.31175 0.5041,1.35206 -0.819,0.98562 -1.1928,55.22852 -1.3793,200.13337 l -0.2557,198.7814 z m 317.62,100.0922 c 0.819,-0.9856 1.1928,-55.2285 1.3793,-200.1334 l 0.2558,-198.78129 0.2482,200.13339 c 0.2284,184.0432 0.1175,200.1334 -1.3792,200.1334 -1.2523,0 -1.3685,-0.3117 -0.5041,-1.3521 z M 2860.0942,831.6258 c 0,-1.49284 11.3637,-1.6054 139.185,-1.37867 l 139.1849,0.24691 -137.8325,0.25762 c -99.8345,0.18661 -138.2054,0.56668 -139.185,1.37866 -1.0399,0.86202 -1.3524,0.74546 -1.3524,-0.50452 z"
       style="fill:#9f9f9f" />
    <path
       inkscape:connector-curvature="0"
       id="path10355"
       d="m 2911.5832,1351.2489 c 38.5259,-0.1453 101.272,-0.1453 139.4357,0 38.1638,0.1454 6.6427,0.2643 -70.047,0.2643 -76.6896,0 -107.9145,-0.119 -69.3887,-0.2643 z m -81.0912,-211.1546 c 0,-110.2111 0.1172,-155.14888 0.2605,-99.8616 0.1433,55.2872 0.1432,145.4599 0,200.3838 -0.1433,54.9239 -0.2605,9.6889 -0.2605,-100.5222 z m 318.9968,-98.1881 c 0,-110.21115 0.1172,-155.14888 0.2605,-99.86165 0.1433,55.28724 0.1433,145.45995 0,200.38385 -0.1433,54.9239 -0.2605,9.6889 -0.2605,-100.5222 z M 2929.6397,830.25081 c 38.5258,-0.14534 101.2719,-0.14532 139.4357,5e-5 38.1637,0.14535 6.6426,0.26426 -70.047,0.26423 -76.6897,-2e-5 -107.9146,-0.11896 -69.3887,-0.26428 z"
       style="fill:#000000" />
    <path
       transform="translate(0,-1.2207032e-4)"
       inkscape:connector-curvature="0"
       id="path10948-7"
       d="M 2835.9829,1147.1794 V 947.67607 l 13.7139,-5.1764 c 12.2415,-4.62064 13.8686,-7.60927 15.156,-27.83687 l 1.4421,-22.66047 18.3446,24.29714 c 18.1742,24.07157 18.4081,24.20145 25.1979,13.99016 3.7694,-5.66884 12.0776,-15.98092 18.4627,-22.91575 l 11.6093,-12.60878 -17.9461,-23.53248 c -9.8703,-12.94286 -19.1609,-23.53248 -20.6458,-23.53248 -1.4848,0 -6.142,5.82744 -10.3493,12.94986 -4.2073,7.12243 -12.0046,16.89104 -17.3273,21.70802 l -9.6777,8.75815 v -28.77249 -28.77249 l 138.7358,1.23524 138.7358,1.23524 1.2154,201.69153 c 1.157,191.9983 0.8096,201.6915 -7.2282,201.6915 -16.4378,0 -19.6358,9.6457 -19.6358,59.2251 v 48.0329 h -139.9016 -139.9017 z m 87.0034,121.0254 c -18.0051,-25.0717 -21.7893,-27.4896 -27.382,-17.496 -2.4409,4.3616 -10.5206,14.858 -17.9551,23.3253 -13.4854,15.3591 -13.4951,15.4151 -4.1242,23.8957 5.1661,4.6752 13.7218,15.5047 19.0127,24.0655 l 9.6197,15.565 17.6751,-24.5675 17.6751,-24.5675 z m 175.3122,38.6696 c 7.0534,-8.2786 12.8243,-16.5964 12.8243,-18.4841 0,-1.8876 -6.0529,-10.326 -13.4509,-18.7518 -7.398,-8.4259 -14.5354,-18.1463 -15.8608,-21.6009 -1.6195,-4.2212 -8.6136,0.6013 -21.3257,14.7041 -10.4036,11.5419 -19.0052,22.7502 -19.1146,24.9073 -0.1093,2.1572 7.146,12.5029 16.123,22.9905 8.9771,10.4876 16.4453,21.3139 16.5961,24.0583 0.1509,2.7444 2.774,0.9935 5.8293,-3.8908 3.0552,-4.8844 11.3259,-15.654 18.3793,-23.9326 z m -176.59,-194.527 16.8073,-22.1511 -16.9083,-22.1511 c -9.2995,-12.1831 -18.2044,-21.5557 -19.7886,-20.828 -4.4169,2.0289 -33.1923,39.1943 -33.1923,42.8701 0,3.8888 33.5383,47.4581 35.1502,45.6633 0.6184,-0.6887 8.6877,-11.2201 17.9317,-23.4032 z m 174.8955,-2.2171 15.121,-19.7048 -15.4571,-20.2436 c -8.5014,-11.1339 -16.8608,-21.1535 -18.5765,-22.2657 -1.7157,-1.1121 -10.6792,7.8787 -19.919,19.9797 l -16.7995,22.0017 17.0659,23.7545 c 9.3862,13.065 18.501,22.0509 20.255,19.9688 1.754,-2.0822 9.9936,-12.6529 18.3102,-23.4906 z m -99.9948,-79.7369 c 1.4848,-4.6782 8.8385,-14.3872 16.3415,-21.5755 l 13.642,-13.06985 -19.0057,-25.17278 -19.0056,-25.17278 -7.0636,10.60702 c -3.885,5.83387 -12.1153,16.10097 -18.2896,22.81578 l -11.226,12.20875 17.7704,23.92746 c 19.4581,26.1999 22.8076,28.126 26.8366,15.4319 z m 97.6755,-113.94863 c 9.261,-12.2053 16.8381,-23.34561 16.8381,-24.75624 0,-1.41064 -6.7985,-11.36048 -15.1077,-22.11075 -8.3092,-10.75027 -15.8422,-20.59521 -16.7399,-21.87764 -1.655,-2.3644 -18.8615,17.07335 -31.8913,36.02682 -6.7137,9.76587 -6.1444,11.53498 9.6486,29.98557 9.2308,10.78407 16.7832,21.67795 16.7832,24.20862 0,5.59354 -0.3469,5.95759 20.469,-21.47638 z"
       style="fill:#fff6d5;fill-opacity:1;stroke:none;stroke-width:0.105;stroke-miterlimit:4;stroke-dasharray:none;stroke-opacity:1" />
  </g>
</svg>
