<?xml version="1.0" encoding="UTF-8" standalone="no"?>
<!-- Created with Inkscape (http://www.inkscape.org/) -->

<svg
   id="svg10047"
   height="123.00088"
   width="78.999229"
   version="1.1"
   viewBox="0 0 78.999229 123.00088"
   inkscape:version="0.91 r13725"
   sodipodi:docname="baroque.svgz"
   xmlns:inkscape="http://www.inkscape.org/namespaces/inkscape"
   xmlns:sodipodi="http://sodipodi.sourceforge.net/DTD/sodipodi-0.dtd"
   xmlns="http://www.w3.org/2000/svg"
   xmlns:svg="http://www.w3.org/2000/svg"
   xmlns:rdf="http://www.w3.org/1999/02/22-rdf-syntax-ns#"
   xmlns:cc="http://creativecommons.org/ns#"
   xmlns:dc="http://purl.org/dc/elements/1.1/">
  <sodipodi:namedview
     pagecolor="#ffffff"
     bordercolor="#666666"
     borderopacity="1"
     objecttolerance="10"
     gridtolerance="10"
     guidetolerance="10"
     inkscape:pageopacity="0"
     inkscape:pageshadow="2"
     inkscape:window-width="1920"
     inkscape:window-height="1016"
     id="namedview1491"
     showgrid="false"
     inkscape:zoom="1.3479675"
     inkscape:cx="513.5"
     inkscape:cy="307.5"
     inkscape:window-x="0"
     inkscape:window-y="0"
     inkscape:window-maximized="1"
     inkscape:current-layer="svg10047"
     showguides="false"
     inkscape:guide-bbox="true"
     inkscape:snap-grids="false"
     inkscape:snap-to-guides="false"
     inkscape:showpageshadow="2"
     inkscape:pagecheckerboard="0"
     inkscape:deskcolor="#d1d1d1">
    <inkscape:grid
       type="xygrid"
       id="grid11817"
       originx="-237"
       originy="-245.99911"
       spacingy="1"
       spacingx="1"
       units="px"
       visible="false" />
  </sodipodi:namedview>
  <metadata
     id="metadata16869">
    <rdf:RDF>
      <cc:Work
         rdf:about="">
        <dc:format>image/svg+xml</dc:format>
        <dc:type
           rdf:resource="http://purl.org/dc/dcmitype/StillImage" />
        <dc:title />
      </cc:Work>
    </rdf:RDF>
  </metadata>
  <defs
     id="defs10049" />
  <g
     transform="matrix(0.20788883,0,0,0.21134229,-301.4388,-21.134333)"
     id="heart_4"
     inkscape:label="#heart_4">
    <rect
       style="fill:#ffffff;stroke:#000000;stroke-width:0.631597"
       id="rect5852"
       y="100.31629"
       x="1450.3158"
       ry="32.297676"
       rx="31.643509"
       height="581.36682"
       width="379.37549" />
    <path
       style="fill:#fe0707"
       d="m 1543.8611,222.12266 c -10.115,-12.989 -16.422,-22.359 -21.308,-31.656 -3.498,-6.653 -4.045,-8.667 -4.406,-16.208 -0.371,-7.754 -0.165,-8.96 2.069,-12.131 3.209,-4.554 8.749,-8.128 12.598,-8.128 6.002,0 12.972,5.406 15.999,12.409 0.903,2.089 2.337,3.798 3.187,3.798 0.849,0 2.283,-1.709 3.186,-3.798 3.027,-7.003 9.997,-12.409 15.999,-12.409 3.849,0 9.389,3.574 12.598,8.128 2.234,3.171 2.44,4.377 2.069,12.131 -0.361,7.541 -0.909,9.555 -4.406,16.208 -2.196,4.179 -6.159,10.788 -8.805,14.688 -5.311,7.827 -19.935,26.845 -20.641,26.845 -0.247,0 -3.909,-4.445 -8.139,-9.877 z"
       id="path5854"
       inkscape:connector-curvature="0" />
    <path
       style="fill:#fe0707"
       d="m 1719.8611,222.12266 c -10.115,-12.989 -16.422,-22.359 -21.308,-31.656 -3.498,-6.653 -4.045,-8.667 -4.406,-16.208 -0.371,-7.754 -0.165,-8.96 2.069,-12.131 3.209,-4.554 8.749,-8.128 12.598,-8.128 6.002,0 12.972,5.406 15.999,12.409 0.903,2.089 2.337,3.798 3.187,3.798 0.849,0 2.283,-1.709 3.186,-3.798 3.027,-7.003 9.997,-12.409 15.999,-12.409 3.849,0 9.389,3.574 12.598,8.128 2.234,3.171 2.44,4.377 2.069,12.131 -0.361,7.541 -0.909,9.555 -4.406,16.208 -2.196,4.179 -6.159,10.788 -8.805,14.688 -5.311,7.827 -19.935,26.845 -20.641,26.845 -0.247,0 -3.909,-4.445 -8.139,-9.877 z"
       id="path5856"
       inkscape:connector-curvature="0" />
    <path
       style="fill:#fe0707"
       d="m 1560.1381,559.87566 c 10.115,12.989 16.422,22.359 21.308,31.656 3.498,6.653 4.045,8.667 4.406,16.207 0.371,7.754 0.165,8.961 -2.069,12.132 -3.209,4.554 -8.749,8.129 -12.598,8.129 -6.002,0 -12.972,-5.406 -15.999,-12.41 -0.903,-2.089 -2.337,-3.799 -3.187,-3.799 -0.849,0 -2.283,1.71 -3.186,3.799 -3.027,7.004 -9.997,12.41 -15.999,12.41 -3.849,0 -9.389,-3.575 -12.598,-8.129 -2.234,-3.171 -2.44,-4.378 -2.069,-12.132 0.361,-7.54 0.909,-9.554 4.406,-16.207 2.196,-4.179 6.159,-10.789 8.805,-14.689 5.311,-7.826 19.935,-26.844 20.641,-26.844 0.247,0 3.909,4.445 8.139,9.877 z"
       id="path5858"
       inkscape:connector-curvature="0" />
    <path
       style="fill:#fe0707"
       d="m 1736.1381,559.87566 c 10.115,12.989 16.422,22.359 21.308,31.656 3.498,6.653 4.045,8.667 4.406,16.207 0.371,7.754 0.165,8.961 -2.069,12.132 -3.209,4.554 -8.749,8.129 -12.598,8.129 -6.002,0 -12.972,-5.406 -15.999,-12.41 -0.903,-2.089 -2.337,-3.799 -3.187,-3.799 -0.849,0 -2.283,1.71 -3.186,3.799 -3.027,7.004 -9.997,12.41 -15.999,12.41 -3.849,0 -9.389,-3.575 -12.598,-8.129 -2.234,-3.171 -2.44,-4.378 -2.069,-12.132 0.361,-7.54 0.909,-9.554 4.406,-16.207 2.196,-4.179 6.159,-10.789 8.805,-14.689 5.311,-7.826 19.935,-26.844 20.641,-26.844 0.247,0 3.909,4.445 8.139,9.877 z"
       id="path5860"
       inkscape:connector-curvature="0" />
    <path
       style="fill:#fe0707;fill-opacity:1;stroke:#fffecd;stroke-width:0.0797854;stroke-miterlimit:4;stroke-dasharray:none;stroke-opacity:1"
       d="m 1485.8661,179.16166 c 0,-2.447 0.247,-2.793 1.994,-2.793 1.862,0 1.995,-0.266 1.995,-3.989 v -3.989 h -7.033 -7.033 l -1.372,-2.878 -1.372,-2.878 8.697,-14.874 c 8.119,-13.887 8.863,-14.892 11.197,-15.125 l 2.501,-0.25 v 15.21 15.21 h 3.191 c 3.116,0 3.192,0.07 3.192,2.792 0,2.726 -0.08,2.793 -3.192,2.793 h -3.191 v 3.989 c 0,3.723 0.133,3.989 1.995,3.989 1.747,0 1.994,0.346 1.994,2.793 v 2.792 h -6.782 -6.781 z m 3.976,-26.529 -0.01,-10.173 -4.453,7.58 c -2.448,4.169 -5.165,8.746 -6.035,10.173 l -1.584,2.593 h 6.049 6.049 l -0.01,-10.173 z"
       id="path5862"
       inkscape:connector-curvature="0" />
    <path
       style="fill:#fe0707"
       d="m 1484.8881,226.93466 c -3.868,-6.662 -6.279,-11.467 -8.148,-16.234 -1.337,-3.412 -1.546,-4.445 -1.684,-8.312 -0.142,-3.976 -0.06,-4.595 0.791,-6.221 1.227,-2.336 3.345,-4.168 4.817,-4.168 2.294,0 4.96,2.772 6.117,6.363 0.345,1.072 0.894,1.948 1.218,1.948 0.325,0 0.873,-0.876 1.219,-1.948 1.157,-3.591 3.822,-6.363 6.117,-6.363 1.472,0 3.59,1.832 4.817,4.168 0.854,1.626 0.933,2.245 0.791,6.221 -0.138,3.867 -0.348,4.9 -1.685,8.312 -0.839,2.143 -2.354,5.532 -3.366,7.532 -2.031,4.014 -7.622,13.767 -7.893,13.767 -0.09,0 -1.494,-2.28 -3.111,-5.065 z"
       id="path5864"
       inkscape:connector-curvature="0" />
    <path
       inkscape:connector-curvature="0"
       id="path5866"
       d="m 1788.8691,555.06466 c -3.867,6.661 -6.279,11.466 -8.147,16.233 -1.338,3.412 -1.547,4.445 -1.685,8.312 -0.142,3.976 -0.06,4.595 0.791,6.221 1.227,2.336 3.345,4.169 4.817,4.169 2.295,0 4.96,-2.773 6.117,-6.364 0.346,-1.071 0.894,-1.948 1.219,-1.948 0.324,0 0.873,0.877 1.218,1.948 1.157,3.591 3.822,6.364 6.117,6.364 1.472,0 3.59,-1.833 4.817,-4.169 0.854,-1.626 0.933,-2.245 0.791,-6.221 -0.138,-3.867 -0.347,-4.9 -1.684,-8.312 -0.84,-2.143 -2.355,-5.532 -3.367,-7.532 -2.031,-4.014 -7.622,-13.766 -7.892,-13.766 -0.09,0 -1.495,2.279 -3.112,5.065 z"
       style="fill:#fe0707" />
    <path
       inkscape:connector-curvature="0"
       id="path5868"
       d="m 1792.7391,601.18666 c 0,2.446 -0.247,2.792 -1.994,2.792 -1.862,0 -1.995,0.266 -1.995,3.989 v 3.99 h 7.033 7.033 l 1.372,2.877 1.372,2.878 -8.697,14.875 c -8.119,13.886 -8.863,14.891 -11.197,15.124 l -2.501,0.25 v -15.21 -15.209 h -3.191 c -3.116,0 -3.192,-0.07 -3.192,-2.793 0,-2.726 0.08,-2.792 3.192,-2.792 h 3.191 v -3.99 c 0,-3.723 -0.133,-3.989 -1.995,-3.989 -1.747,0 -1.994,-0.346 -1.994,-2.792 v -2.793 h 6.782 6.781 z m -3.976,26.528 0.01,10.173 4.453,-7.58 c 2.448,-4.169 5.165,-8.746 6.035,-10.172 l 1.584,-2.593 h -6.049 -6.049 l 0.01,10.172 z"
       style="fill:#fe0707;fill-opacity:1;stroke:#fffecd;stroke-width:0.0797854;stroke-miterlimit:4;stroke-dasharray:none;stroke-opacity:1" />
    <path
       style="fill:#e2e2e2"
       d="m 1489.4156,651.2851 c -1.7894,-0.22568 -4.3602,-1.68308 -6.0188,-3.41207 l -2.8951,-3.01813 -0.2805,-201.06964 c -0.1543,-110.58829 -0.033,-202.08407 0.2699,-203.32395 0.5171,-2.11823 1.0659,-2.25432 9.0901,-2.25432 5.2283,0 9.9027,-0.56879 12.0546,-1.46682 6.4464,-2.69023 6.452,-2.73985 6.452,-57.09419 V 131.0398 l 2.2571,-0.5528 c 1.2414,-0.30403 65.3331,-0.42534 142.426,-0.26957 l 140.169,0.28323 3.2793,3.27541 3.2793,3.27541 0.2804,201.11614 c 0.1543,110.61388 0.033,202.13059 -0.2699,203.37047 -0.5171,2.11823 -1.0659,2.25432 -9.0901,2.25432 -5.2283,0 -9.9027,0.56879 -12.0546,1.46682 -6.4454,2.68979 -6.452,2.7486 -6.452,57.00609 0,43.31788 -0.1701,48.58326 -1.5868,49.12623 -1.7062,0.65395 -275.7036,0.55011 -280.9099,-0.10645 z m 277.481,-49.9145 c 0,-52.30659 -0.102,-51.3565 6.15,-57.26626 4.5611,-4.31146 7.6902,-5.32152 16.4858,-5.32152 h 7.4582 V 340.87155 c 0,-171.49224 -0.196,-198.37989 -1.4686,-201.42186 -2.8659,-6.85088 6.3128,-6.44424 -145.4584,-6.44424 h -136.9601 v 47.62336 c 0,52.30658 0.1021,51.35649 -6.15,57.26625 -4.5611,4.31146 -7.6902,5.32153 -16.4858,5.32153 h -7.4582 v 197.91126 c 0,218.31143 -0.4486,203.45751 6.232,206.35659 2.8032,1.21646 23.8693,1.43696 140.4764,1.47029 l 137.1787,0.0392 v -47.62335 z"
       id="path8127"
       inkscape:connector-curvature="0" />
    <path
       style="fill:#dbdbdb"
       d="m 1489.9265,651.29789 c -1.437,-0.22281 -4.1455,-1.9845 -6.0188,-3.9149 l -3.406,-3.5098 V 441.79153 239.70988 l 9.5297,-0.53916 c 5.9768,-0.33814 10.6725,-1.15062 12.5947,-2.17918 5.9751,-3.1973 5.9166,-2.68231 6.4649,-56.89587 l 0.5016,-49.59501 h 141.1746 141.1746 l 3.7783,3.77383 3.7784,3.77383 v 202.1206 202.12061 l -9.5298,0.56876 c -5.2414,0.31282 -10.805,1.18961 -12.3637,1.94842 -6.1905,3.01387 -6.145,2.62572 -6.6959,57.09702 l -0.5015,49.59501 -138.9342,0.10212 c -76.4138,0.0562 -140.1099,-0.0802 -141.5469,-0.30297 z m 277.9732,-51.63611 0.5016,-49.83313 4.7745,-4.76791 4.7745,-4.76789 9.7709,-0.50454 9.771,-0.50454 0.271,-197.37812 c 0.3057,-222.6678 0.95,-204.35964 -7.3207,-208.01376 -4.1497,-1.83336 -8.7759,-1.88719 -141.0654,-1.64146 l -136.7751,0.25407 -0.5016,49.83313 -0.5016,49.83312 -4.7745,4.76791 -4.7745,4.76789 -9.7709,0.50454 -9.771,0.50454 -0.271,197.37812 c -0.3051,222.25184 -0.9232,204.30992 7.1649,207.98205 3.9931,1.81294 9.0198,1.87171 141.0685,1.64952 l 136.9278,-0.23041 z"
       id="path8129"
       inkscape:connector-curvature="0" />
    <path
       style="fill:#c1c1c1"
       d="m 1489.9265,651.29789 c -1.437,-0.22281 -4.1455,-1.9845 -6.0188,-3.9149 l -3.406,-3.5098 V 441.79153 239.70988 l 10.0772,-0.50097 c 10.6855,-0.53119 14.1957,-1.84575 16.7213,-6.262 0.9833,-1.71947 1.4082,-14.13969 1.7908,-52.35029 l 0.5016,-50.09596 h 141.1746 141.1746 l 3.7783,3.77383 3.7784,3.77383 v 202.1206 202.12061 l -10.0773,0.50096 c -10.6855,0.53119 -14.1957,1.84575 -16.7213,6.262 -0.9834,1.71947 -1.4082,14.13969 -1.7908,52.35029 l -0.5015,50.09596 -138.9342,0.10212 c -76.4138,0.0562 -140.1099,-0.0802 -141.5469,-0.30297 z m 277.9732,-50.89703 c 0.3659,-35.81394 0.8304,-49.66668 1.7172,-51.21098 2.097,-3.65183 8.1342,-8.28123 11.5529,-8.85886 1.8049,-0.30497 6.2158,-0.66535 9.802,-0.80087 l 6.5204,-0.24638 0.2506,-198.38004 c 0.2365,-187.21169 0.1517,-198.57746 -1.5047,-201.88676 -1.003,-2.00368 -3.2602,-4.25841 -5.2663,-5.26047 -3.3003,-1.64855 -11.756,-1.73871 -140.9404,-1.50288 l -137.4294,0.25088 -0.5016,49.09404 c -0.3659,35.81395 -0.8304,49.66668 -1.7172,51.21098 -2.0969,3.65183 -8.1342,8.28124 -11.5529,8.85886 -1.8049,0.30497 -6.2158,0.66535 -9.802,0.80087 l -6.5204,0.24638 -0.2506,198.38004 c -0.2365,187.21169 -0.1518,198.57746 1.5047,201.88676 1.003,2.00368 3.2602,4.25841 5.2663,5.26048 3.3003,1.64854 11.756,1.73871 140.9404,1.50288 l 137.4294,-0.25088 z"
       id="path8131"
       inkscape:connector-curvature="0" />
    <path
       style="fill:#b9b9b9"
       d="m 1489.5299,650.44071 c -2.3002,-1.12249 -2.4184,-1.2928 -0.5016,-0.72263 4.3825,1.30362 276.9367,1.46577 278.5051,0.16568 1.1215,-0.92968 1.3759,-9.86416 1.405,-49.3551 0.031,-41.43997 0.251,-48.57213 1.5676,-50.72474 l 1.532,-2.5048 -0.7812,2.5048 c -0.4297,1.37764 -0.9216,24.93527 -1.0931,52.35029 l -0.3119,49.84549 -138.6562,-0.0452 c -119.7106,-0.039 -139.0675,-0.24586 -141.6657,-1.51381 z m -8.4107,-8.55857 c -0.8089,-2.31754 -1.1191,-58.41113 -1.1191,-202.34497 V 240.3986 l 9.7805,-0.45899 c 5.3794,-0.25244 10.9091,-0.77382 12.2884,-1.15859 l 2.5079,-0.69961 -2.5079,1.53016 c -1.6846,1.02789 -5.1585,1.54183 -10.583,1.56568 -4.8977,0.0216 -8.5489,0.50861 -9.279,1.2378 -1.6733,1.67125 -1.7566,393.67495 -0.085,398.46517 0.6155,1.76353 0.8934,3.43185 0.6175,3.70737 -0.2759,0.27553 -1.0052,-0.94192 -1.6207,-2.70545 z m 296.8119,-99.49431 c 1.69,-1.0312 5.1664,-1.54174 10.6608,-1.56568 5.618,-0.0244 8.5055,-0.45961 9.2864,-1.39947 1.3025,-1.56743 1.1454,-396.04925 -0.1594,-400.40571 -0.5715,-1.90841 -0.4001,-1.78914 0.7202,0.50096 1.2763,2.60901 1.4764,29.34454 1.5157,202.54431 l 0.045,199.53856 -9.7806,0.45899 c -5.3793,0.25244 -10.9091,0.77382 -12.2884,1.15859 l -2.5078,0.69961 2.5078,-1.53016 z M 1508.7433,232.19548 c 0.4297,-1.37764 0.9216,-24.93527 1.0931,-52.35029 l 0.3119,-49.84549 138.6562,0.0452 c 119.7106,0.0391 139.0675,0.24585 141.6657,1.5138 2.3002,1.12249 2.4184,1.29281 0.5016,0.72263 -4.3825,-1.30362 -276.9367,-1.46577 -278.5051,-0.16568 -1.1215,0.92968 -1.3759,9.86416 -1.405,49.35511 -0.031,41.43996 -0.2509,48.57212 -1.5676,50.72473 l -1.532,2.5048 0.7812,-2.5048 z"
       id="path8133"
       inkscape:connector-curvature="0" />
    <path
       style="fill:#aeaeae"
       d="m 1628.8671,651.24828 c 98.8726,-0.1855 137.707,-0.56934 138.6737,-1.37067 1.0801,-0.89527 1.3956,-10.45013 1.6131,-48.84 l 0.2704,-47.72697 0.2409,49.34454 0.2408,49.34452 -139.1849,-0.24688 -139.185,-0.24688 z m -148.6187,-210.90405 -0.2483,-200.1334 9.279,0.20163 9.279,0.20163 -7.6852,0.33987 c -4.7332,0.20932 -8.1037,0.84365 -8.7749,1.65139 -0.7743,0.93181 -1.1638,58.71637 -1.3456,199.5919 l -0.2558,198.28038 z m 308.8788,100.70121 c 4.7332,-0.20932 8.1037,-0.84365 8.7749,-1.65139 0.7743,-0.93181 1.1639,-58.71637 1.3456,-199.5919 l 0.2558,-198.28038 0.2483,200.1334 0.2482,200.1334 -9.279,-0.20163 -9.279,-0.20163 z m -278.7923,-361.70122 -0.2408,-49.34452 139.185,0.24688 139.1849,0.24689 -137.331,0.25765 c -98.8726,0.1855 -137.707,0.56934 -138.6737,1.37066 -1.08,0.89528 -1.3956,10.45015 -1.6131,48.84 l -0.2704,47.72698 z"
       id="path8135"
       inkscape:connector-curvature="0" />
    <path
       style="fill:#9f9f9f"
       d="m 1629.3686,651.24828 c 99.8345,-0.1866 138.2054,-0.56667 139.185,-1.37866 1.0399,-0.86203 1.3524,-0.74545 1.3524,0.50453 0,1.49284 -11.3637,1.6054 -139.1849,1.37865 l -139.185,-0.24689 z M 1480.2484,440.34423 c -0.2284,-184.04317 -0.1175,-200.1334 1.3792,-200.1334 1.2523,0 1.3685,0.31175 0.5041,1.35206 -0.819,0.98562 -1.1928,55.22852 -1.3793,200.13341 l -0.2557,198.78133 z m 317.62,100.09228 c 0.819,-0.98562 1.1928,-55.22852 1.3793,-200.1334 l 0.2558,-198.78134 0.2482,200.1334 c 0.2284,184.04317 0.1175,200.1334 -1.3792,200.1334 -1.2523,0 -1.3685,-0.31175 -0.5041,-1.35206 z M 1510.0941,131.62526 c 0,-1.49284 11.3637,-1.6054 139.185,-1.37867 l 139.1849,0.24691 -137.8325,0.25762 c -99.8345,0.18661 -138.2054,0.56668 -139.185,1.37866 -1.0399,0.86202 -1.3524,0.74546 -1.3524,-0.50452 z"
       id="path8137"
       inkscape:connector-curvature="0" />
    <path
       style="fill:#000000"
       d="m 1561.5831,651.24835 c 38.5259,-0.14532 101.272,-0.1453 139.4357,5e-5 38.1638,0.14535 6.6427,0.26426 -70.047,0.26424 -76.6896,-3e-5 -107.9145,-0.11896 -69.3887,-0.26429 z m -81.0912,-211.1546 c 0,-110.21113 0.1172,-155.14887 0.2605,-99.86164 0.1433,55.28723 0.1432,145.45999 0,200.38389 -0.1433,54.9239 -0.2605,9.68889 -0.2605,-100.52225 z m 318.9968,-98.1881 c 0,-110.21114 0.1172,-155.14887 0.2605,-99.86164 0.1433,55.28724 0.1433,145.45998 0,200.38388 -0.1433,54.9239 -0.2605,9.6889 -0.2605,-100.52224 z M 1579.6396,130.25027 c 38.5258,-0.14534 101.2719,-0.14532 139.4357,5e-5 38.1637,0.14535 6.6426,0.26426 -70.047,0.26423 -76.6897,-2e-5 -107.9146,-0.11896 -69.3887,-0.26428 z"
       id="path8139"
       inkscape:connector-curvature="0" />
    <path
       transform="translate(0,-1.2207032e-4)"
       inkscape:connector-curvature="0"
       id="path10902"
       d="M 1486.2463,447.67115 V 248.16784 l 13.9902,-5.28069 c 13.6495,-5.1521 13.9927,-6.05715 14.0926,-37.16365 l 0.1024,-31.88295 8.9149,18.65355 c 4.9033,10.25946 13.2875,23.89987 18.6316,30.31202 l 9.7167,11.65847 11.8235,-13.99016 c 26.1113,-30.89594 31.4859,-54.34644 14.8462,-64.77716 -6.0606,-3.79908 -10.6764,-3.52463 -18.0375,1.07247 -7.0956,4.43122 -11.3196,4.75125 -14.939,1.13182 -7.6249,-7.62491 -20.7828,-6.05616 -26.1243,3.11467 -3.8417,6.59584 -4.7805,4.79385 -4.8951,-9.39617 l -0.1418,-17.5571 138.7358,1.23524 138.7358,1.23524 v 200.46183 c 0,196.76317 -0.1721,200.49447 -9.3268,202.23101 -13.4909,2.55908 -16.1352,9.00412 -16.5461,40.32904 -0.3067,23.38685 -1.1225,26.06638 -4.9692,16.32186 -6.2918,-15.9389 -27.8156,-46.63388 -32.7003,-46.63388 -7.763,0 -37.4913,50.37499 -35.9343,60.89112 2.2651,15.29875 15.4145,22.16186 27.7278,14.47203 7.0956,-4.4312 11.3196,-4.75125 14.939,-1.13181 7.6249,7.62492 20.7828,6.05616 26.1243,-3.11467 3.8441,-6.59996 4.7804,-4.81598 4.8951,9.32677 l 0.1418,17.48771 H 1626.148 1486.2463 Z m 59.1416,175.80349 c 3.6194,-3.61944 7.8434,-3.29939 14.939,1.13181 12.3133,7.68983 25.4627,0.82672 27.7278,-14.47203 1.557,-10.51613 -28.1713,-60.89112 -35.9343,-60.89112 -5.2056,0 -26.6781,31.3292 -32.9704,48.10504 -8.4557,22.54361 10.7233,41.64093 26.2379,26.1263 z M 1744.1695,214.6452 c 17.5391,-25.49175 22.8524,-41.93278 17.0533,-52.76846 -5.768,-10.77758 -19.7326,-11.76736 -27.8598,-1.97464 -5.1987,6.26407 -6.4619,6.20774 -11.3719,-0.5071 -11.7766,-16.10552 -34.3897,0.8975 -29.1055,21.88469 3.1583,12.54343 29.9969,50.85321 35.6261,50.85321 1.9942,0 9.0402,-7.86947 15.6578,-17.4877 z"
       style="fill:#fff6d5;fill-opacity:1;stroke:none;stroke-width:0.105;stroke-miterlimit:4;stroke-dasharray:none;stroke-opacity:1" />
  </g>
</svg>
