<?xml version="1.0" encoding="UTF-8" standalone="no"?>
<!-- Created with Inkscape (http://www.inkscape.org/) -->

<svg
   id="svg10047"
   height="123.00089"
   width="78.999237"
   version="1.1"
   viewBox="0 0 78.999237 123.00089"
   inkscape:version="0.91 r13725"
   sodipodi:docname="baroque.svgz"
   xmlns:inkscape="http://www.inkscape.org/namespaces/inkscape"
   xmlns:sodipodi="http://sodipodi.sourceforge.net/DTD/sodipodi-0.dtd"
   xmlns="http://www.w3.org/2000/svg"
   xmlns:svg="http://www.w3.org/2000/svg"
   xmlns:rdf="http://www.w3.org/1999/02/22-rdf-syntax-ns#"
   xmlns:cc="http://creativecommons.org/ns#"
   xmlns:dc="http://purl.org/dc/elements/1.1/">
  <sodipodi:namedview
     pagecolor="#ffffff"
     bordercolor="#666666"
     borderopacity="1"
     objecttolerance="10"
     gridtolerance="10"
     guidetolerance="10"
     inkscape:pageopacity="0"
     inkscape:pageshadow="2"
     inkscape:window-width="1920"
     inkscape:window-height="1016"
     id="namedview1491"
     showgrid="false"
     inkscape:zoom="1.3479675"
     inkscape:cx="513.5"
     inkscape:cy="307.5"
     inkscape:window-x="0"
     inkscape:window-y="0"
     inkscape:window-maximized="1"
     inkscape:current-layer="svg10047"
     showguides="false"
     inkscape:guide-bbox="true"
     inkscape:snap-grids="false"
     inkscape:snap-to-guides="false"
     inkscape:showpageshadow="2"
     inkscape:pagecheckerboard="0"
     inkscape:deskcolor="#d1d1d1">
    <inkscape:grid
       type="xygrid"
       id="grid11817"
       originx="-474"
       originy="-245.99911"
       spacingy="1"
       spacingx="1"
       units="px"
       visible="false" />
  </sodipodi:namedview>
  <metadata
     id="metadata16869">
    <rdf:RDF>
      <cc:Work
         rdf:about="">
        <dc:format>image/svg+xml</dc:format>
        <dc:type
           rdf:resource="http://purl.org/dc/dcmitype/StillImage" />
        <dc:title />
      </cc:Work>
    </rdf:RDF>
  </metadata>
  <defs
     id="defs10049" />
  <g
     transform="matrix(0.20788883,0,0,0.21134229,-582.08875,-21.134333)"
     id="heart_7"
     inkscape:label="#heart_7">
    <rect
       width="379.37552"
       height="581.36688"
       rx="31.643511"
       ry="32.29768"
       x="2800.3159"
       y="100.31629"
       id="rect5960"
       style="fill:#ffffff;stroke:#000000;stroke-width:0.631597" />
    <path
       inkscape:connector-curvature="0"
       id="path5962"
       d="m 2893.8611,222.12266 c -10.115,-12.989 -16.422,-22.359 -21.309,-31.656 -3.497,-6.653 -4.044,-8.667 -4.405,-16.208 -0.371,-7.754 -0.166,-8.96 2.069,-12.131 3.209,-4.554 8.748,-8.128 12.597,-8.128 6.002,0 12.973,5.406 16,12.409 0.903,2.089 2.337,3.798 3.186,3.798 0.85,0 2.284,-1.709 3.187,-3.798 3.027,-7.003 9.997,-12.409 15.999,-12.409 3.849,0 9.388,3.574 12.597,8.128 2.235,3.171 2.441,4.377 2.07,12.131 -0.361,7.541 -0.909,9.555 -4.406,16.208 -2.196,4.179 -6.159,10.788 -8.805,14.688 -5.312,7.827 -19.935,26.845 -20.642,26.845 -0.246,0 -3.908,-4.445 -8.138,-9.877 z"
       style="fill:#fe0707" />
    <path
       inkscape:connector-curvature="0"
       id="path5964"
       d="m 2981.8611,321.12066 c -10.115,-12.99 -16.422,-22.359 -21.309,-31.656 -3.497,-6.653 -4.044,-8.667 -4.405,-16.208 -0.371,-7.754 -0.166,-8.96 2.069,-12.131 3.209,-4.554 8.748,-8.128 12.597,-8.128 6.002,0 12.973,5.406 16,12.409 0.903,2.089 2.337,3.798 3.186,3.798 0.85,0 2.284,-1.709 3.187,-3.798 3.027,-7.003 9.997,-12.409 15.999,-12.409 3.849,0 9.388,3.574 12.597,8.128 2.235,3.171 2.441,4.377 2.07,12.131 -0.361,7.541 -0.909,9.555 -4.406,16.208 -2.196,4.179 -6.159,10.788 -8.805,14.688 -5.312,7.827 -19.935,26.845 -20.642,26.845 -0.246,0 -3.908,-4.445 -8.138,-9.877 z"
       style="fill:#fe0707" />
    <path
       inkscape:connector-curvature="0"
       id="path5966"
       d="m 3069.8611,222.12266 c -10.115,-12.989 -16.422,-22.359 -21.309,-31.656 -3.497,-6.653 -4.044,-8.667 -4.405,-16.208 -0.371,-7.754 -0.166,-8.96 2.069,-12.131 3.209,-4.554 8.748,-8.128 12.597,-8.128 6.002,0 12.973,5.406 16,12.409 0.903,2.089 2.337,3.798 3.186,3.798 0.85,0 2.284,-1.709 3.187,-3.798 3.027,-7.003 9.997,-12.409 15.999,-12.409 3.849,0 9.388,3.574 12.597,8.128 2.235,3.171 2.441,4.377 2.07,12.131 -0.361,7.541 -0.909,9.555 -4.406,16.208 -2.196,4.179 -6.159,10.788 -8.805,14.688 -5.312,7.827 -19.935,26.845 -20.642,26.845 -0.246,0 -3.908,-4.445 -8.138,-9.877 z"
       style="fill:#fe0707" />
    <path
       inkscape:connector-curvature="0"
       id="path5968"
       d="m 2893.8611,420.12266 c -10.115,-12.99 -16.422,-22.359 -21.309,-31.656 -3.497,-6.653 -4.044,-8.667 -4.405,-16.208 -0.371,-7.754 -0.166,-8.96 2.069,-12.131 3.209,-4.554 8.748,-8.129 12.597,-8.129 6.002,0 12.973,5.406 16,12.409 0.903,2.09 2.337,3.799 3.186,3.799 0.849,0 2.283,-1.709 3.186,-3.799 3.028,-7.003 9.998,-12.409 16,-12.409 3.849,0 9.388,3.575 12.597,8.129 2.235,3.171 2.441,4.377 2.07,12.131 -0.361,7.541 -0.909,9.555 -4.406,16.208 -2.196,4.179 -6.159,10.788 -8.806,14.688 -5.311,7.827 -19.934,26.845 -20.641,26.845 -0.246,0 -3.908,-4.445 -8.138,-9.877 z"
       style="fill:#fe0707" />
    <path
       inkscape:connector-curvature="0"
       id="path5970"
       d="m 3069.8611,420.12266 c -10.115,-12.99 -16.422,-22.359 -21.309,-31.656 -3.497,-6.653 -4.044,-8.667 -4.405,-16.208 -0.371,-7.754 -0.166,-8.96 2.069,-12.131 3.209,-4.554 8.748,-8.129 12.597,-8.129 6.002,0 12.973,5.406 16,12.409 0.903,2.09 2.337,3.799 3.186,3.799 0.849,0 2.283,-1.709 3.186,-3.799 3.028,-7.003 9.998,-12.409 16,-12.409 3.849,0 9.388,3.575 12.597,8.129 2.235,3.171 2.441,4.377 2.07,12.131 -0.361,7.541 -0.909,9.555 -4.406,16.208 -2.196,4.179 -6.159,10.788 -8.806,14.688 -5.311,7.827 -19.934,26.845 -20.641,26.845 -0.246,0 -3.908,-4.445 -8.138,-9.877 z"
       style="fill:#fe0707" />
    <path
       inkscape:connector-curvature="0"
       id="path5972"
       d="m 2910.1381,559.87566 c 10.114,12.989 16.422,22.359 21.308,31.656 3.497,6.653 4.045,8.667 4.406,16.208 0.371,7.754 0.165,8.96 -2.07,12.131 -3.209,4.555 -8.748,8.129 -12.597,8.129 -6.002,0 -12.972,-5.406 -15.999,-12.41 -0.904,-2.089 -2.337,-3.799 -3.187,-3.799 -0.849,0 -2.283,1.71 -3.186,3.799 -3.027,7.004 -9.998,12.41 -16,12.41 -3.849,0 -9.388,-3.574 -12.597,-8.129 -2.235,-3.171 -2.44,-4.377 -2.069,-12.131 0.361,-7.541 0.908,-9.555 4.405,-16.208 2.197,-4.179 6.159,-10.789 8.806,-14.689 5.311,-7.826 19.934,-26.844 20.641,-26.844 0.246,0 3.909,4.445 8.139,9.877 z"
       style="fill:#fe0707" />
    <path
       inkscape:connector-curvature="0"
       id="path5974"
       d="m 3086.1381,559.87566 c 10.114,12.989 16.422,22.359 21.308,31.656 3.497,6.653 4.045,8.667 4.406,16.208 0.371,7.754 0.165,8.96 -2.07,12.131 -3.209,4.555 -8.748,8.129 -12.597,8.129 -6.002,0 -12.972,-5.406 -15.999,-12.41 -0.904,-2.089 -2.337,-3.799 -3.187,-3.799 -0.849,0 -2.283,1.71 -3.186,3.799 -3.027,7.004 -9.998,12.41 -16,12.41 -3.849,0 -9.388,-3.574 -12.597,-8.129 -2.235,-3.171 -2.44,-4.377 -2.069,-12.131 0.361,-7.541 0.908,-9.555 4.405,-16.208 2.197,-4.179 6.159,-10.789 8.806,-14.689 5.311,-7.826 19.934,-26.844 20.641,-26.844 0.246,0 3.909,4.445 8.139,9.877 z"
       style="fill:#fe0707" />
    <path
       style="fill:#fe0707;fill-opacity:1;stroke:#fffecd;stroke-width:0.0806888;stroke-miterlimit:4;stroke-dasharray:none;stroke-opacity:1"
       d="m 2827.0831,179.13566 c 0,-2.736 0.09,-2.818 3.13,-2.818 h 3.13 l 0.541,-4.762 c 0.853,-7.506 3.473,-15.88 7.802,-24.931 2.197,-4.596 3.995,-8.491 3.995,-8.656 0,-0.164 -3.82,-0.299 -8.49,-0.299 h -8.491 v 3.221 c 0,3.144 -0.07,3.221 -2.83,3.221 h -2.83 v -6.039 -6.039 h 14.959 14.96 v 1.951 c 0,1.073 -1.432,4.606 -3.182,7.851 -5.342,9.903 -9.756,23.922 -9.756,30.987 0,3.457 0.03,3.495 2.83,3.495 2.696,0 2.83,0.134 2.83,2.818 v 2.818 h -9.299 -9.299 z"
       id="path5976"
       inkscape:connector-curvature="0" />
    <path
       inkscape:connector-curvature="0"
       id="path5978"
       d="m 2834.8881,226.93466 c -3.868,-6.662 -6.279,-11.467 -8.148,-16.234 -1.337,-3.412 -1.546,-4.445 -1.684,-8.312 -0.142,-3.976 -0.06,-4.595 0.791,-6.221 1.227,-2.336 3.345,-4.168 4.817,-4.168 2.294,0 4.96,2.772 6.117,6.363 0.345,1.072 0.894,1.948 1.218,1.948 0.325,0 0.873,-0.876 1.219,-1.948 1.157,-3.591 3.822,-6.363 6.117,-6.363 1.472,0 3.59,1.832 4.817,4.168 0.854,1.626 0.933,2.245 0.791,6.221 -0.138,3.867 -0.348,4.9 -1.685,8.312 -0.839,2.143 -2.354,5.532 -3.366,7.532 -2.031,4.014 -7.622,13.767 -7.893,13.767 -0.09,0 -1.494,-2.28 -3.111,-5.065 z"
       style="fill:#fe0707" />
    <path
       style="fill:#fe0707"
       d="m 3139.4921,555.06466 c -3.868,6.661 -6.279,11.466 -8.148,16.233 -1.337,3.412 -1.546,4.445 -1.684,8.312 -0.142,3.976 -0.06,4.595 0.791,6.221 1.227,2.336 3.345,4.169 4.816,4.169 2.295,0 4.96,-2.773 6.118,-6.364 0.345,-1.071 0.893,-1.948 1.218,-1.948 0.325,0 0.873,0.877 1.219,1.948 1.157,3.591 3.822,6.364 6.117,6.364 1.472,0 3.59,-1.833 4.817,-4.169 0.854,-1.626 0.933,-2.245 0.791,-6.221 -0.138,-3.867 -0.348,-4.9 -1.685,-8.312 -0.84,-2.143 -2.355,-5.532 -3.367,-7.532 -2.03,-4.014 -7.622,-13.766 -7.892,-13.766 -0.09,0 -1.494,2.279 -3.111,5.065 z"
       id="path5980"
       inkscape:connector-curvature="0" />
    <path
       inkscape:connector-curvature="0"
       id="path5982"
       d="m 3152.6541,600.85966 c 0,2.736 -0.09,2.818 -3.13,2.818 h -3.131 l -0.541,4.762 c -0.852,7.506 -3.473,15.88 -7.801,24.931 -2.198,4.596 -3.996,8.491 -3.996,8.655 0,0.165 3.821,0.3 8.491,0.3 h 8.49 v -3.221 c 0,-3.144 0.07,-3.221 2.831,-3.221 h 2.83 v 6.039 6.039 h -14.96 -14.96 v -1.951 c 0,-1.074 1.432,-4.606 3.183,-7.851 5.342,-9.903 9.755,-23.923 9.755,-30.987 0,-3.457 -0.03,-3.495 -2.83,-3.495 -2.695,0 -2.83,-0.134 -2.83,-2.818 v -2.818 h 9.299 9.3 z"
       style="fill:#fe0707;fill-opacity:1;stroke:#fffecd;stroke-width:0.0806888;stroke-miterlimit:4;stroke-dasharray:none;stroke-opacity:1" />
    <path
       inkscape:connector-curvature="0"
       id="path8175"
       d="m 2839.4157,651.2851 c -1.7894,-0.22568 -4.3602,-1.68308 -6.0188,-3.41207 l -2.8951,-3.01813 -0.2805,-201.06964 c -0.1543,-110.58829 -0.033,-202.08407 0.2699,-203.32395 0.5171,-2.11823 1.0659,-2.25432 9.0901,-2.25432 5.2283,0 9.9027,-0.56879 12.0546,-1.46682 6.4464,-2.69023 6.452,-2.73985 6.452,-57.09419 V 131.0398 l 2.2571,-0.5528 c 1.2414,-0.30403 65.3331,-0.42534 142.426,-0.26957 l 140.169,0.28323 3.2793,3.27541 3.2793,3.27541 0.2804,201.11614 c 0.1543,110.61388 0.033,202.13059 -0.2699,203.37047 -0.5171,2.11823 -1.0659,2.25432 -9.0901,2.25432 -5.2283,0 -9.9027,0.56879 -12.0546,1.46682 -6.4454,2.68979 -6.452,2.7486 -6.452,57.00609 0,43.31788 -0.1701,48.58326 -1.5868,49.12623 -1.7062,0.65395 -275.7036,0.55011 -280.9099,-0.10645 z m 277.481,-49.9145 c 0,-52.30659 -0.102,-51.3565 6.15,-57.26626 4.5611,-4.31146 7.6902,-5.32152 16.4858,-5.32152 h 7.4582 V 340.87155 c 0,-171.49224 -0.196,-198.37989 -1.4686,-201.42186 -2.8659,-6.85088 6.3128,-6.44424 -145.4584,-6.44424 h -136.9601 v 47.62336 c 0,52.30658 0.1021,51.35649 -6.15,57.26625 -4.5611,4.31146 -7.6902,5.32153 -16.4858,5.32153 h -7.4582 v 197.91126 c 0,218.31143 -0.4486,203.45751 6.232,206.35659 2.8032,1.21646 23.8693,1.43696 140.4764,1.47029 l 137.1787,0.0392 v -47.62335 z"
       style="fill:#e2e2e2" />
    <path
       inkscape:connector-curvature="0"
       id="path8177"
       d="m 2839.9266,651.29789 c -1.437,-0.22281 -4.1455,-1.9845 -6.0188,-3.9149 l -3.406,-3.5098 V 441.79153 239.70988 l 9.5297,-0.53916 c 5.9768,-0.33814 10.6725,-1.15062 12.5947,-2.17918 5.9751,-3.1973 5.9166,-2.68231 6.4649,-56.89587 l 0.5016,-49.59501 h 141.1746 141.1746 l 3.7783,3.77383 3.7784,3.77383 v 202.1206 202.12061 l -9.5298,0.56876 c -5.2414,0.31282 -10.805,1.18961 -12.3637,1.94842 -6.1905,3.01387 -6.145,2.62572 -6.6959,57.09702 l -0.5015,49.59501 -138.9342,0.10212 c -76.4138,0.0562 -140.1099,-0.0802 -141.5469,-0.30297 z m 277.9732,-51.63611 0.5016,-49.83313 4.7745,-4.76791 4.7745,-4.76789 9.7709,-0.50454 9.771,-0.50454 0.271,-197.37812 c 0.3057,-222.6678 0.95,-204.35964 -7.3207,-208.01376 -4.1497,-1.83336 -8.7759,-1.88719 -141.0654,-1.64146 l -136.7751,0.25407 -0.5016,49.83313 -0.5016,49.83312 -4.7745,4.76791 -4.7745,4.76789 -9.7709,0.50454 -9.771,0.50454 -0.271,197.37812 c -0.3051,222.25184 -0.9232,204.30992 7.1649,207.98205 3.9931,1.81294 9.0198,1.87171 141.0685,1.64952 l 136.9278,-0.23041 z"
       style="fill:#dbdbdb" />
    <path
       inkscape:connector-curvature="0"
       id="path8179"
       d="m 2839.9266,651.29789 c -1.437,-0.22281 -4.1455,-1.9845 -6.0188,-3.9149 l -3.406,-3.5098 V 441.79153 239.70988 l 10.0772,-0.50097 c 10.6855,-0.53119 14.1957,-1.84575 16.7213,-6.262 0.9833,-1.71947 1.4082,-14.13969 1.7908,-52.35029 l 0.5016,-50.09596 h 141.1746 141.1746 l 3.7783,3.77383 3.7784,3.77383 v 202.1206 202.12061 l -10.0773,0.50096 c -10.6855,0.53119 -14.1957,1.84575 -16.7213,6.262 -0.9834,1.71947 -1.4082,14.13969 -1.7908,52.35029 l -0.5015,50.09596 -138.9342,0.10212 c -76.4138,0.0562 -140.1099,-0.0802 -141.5469,-0.30297 z m 277.9732,-50.89703 c 0.3659,-35.81394 0.8304,-49.66668 1.7172,-51.21098 2.097,-3.65183 8.1342,-8.28123 11.5529,-8.85886 1.8049,-0.30497 6.2158,-0.66535 9.802,-0.80087 l 6.5204,-0.24638 0.2506,-198.38004 c 0.2365,-187.21169 0.1517,-198.57746 -1.5047,-201.88676 -1.003,-2.00368 -3.2602,-4.25841 -5.2663,-5.26047 -3.3003,-1.64855 -11.756,-1.73871 -140.9404,-1.50288 l -137.4294,0.25088 -0.5016,49.09404 c -0.3659,35.81395 -0.8304,49.66668 -1.7172,51.21098 -2.0969,3.65183 -8.1342,8.28124 -11.5529,8.85886 -1.8049,0.30497 -6.2158,0.66535 -9.802,0.80087 l -6.5204,0.24638 -0.2506,198.38004 c -0.2365,187.21169 -0.1518,198.57746 1.5047,201.88676 1.003,2.00368 3.2602,4.25841 5.2663,5.26048 3.3003,1.64854 11.756,1.73871 140.9404,1.50288 l 137.4294,-0.25088 z"
       style="fill:#c1c1c1" />
    <path
       inkscape:connector-curvature="0"
       id="path8181"
       d="m 2839.53,650.44071 c -2.3002,-1.12249 -2.4184,-1.2928 -0.5016,-0.72263 4.3825,1.30362 276.9367,1.46577 278.5051,0.16568 1.1215,-0.92968 1.3759,-9.86416 1.405,-49.3551 0.031,-41.43997 0.251,-48.57213 1.5676,-50.72474 l 1.532,-2.5048 -0.7812,2.5048 c -0.4297,1.37764 -0.9216,24.93527 -1.0931,52.35029 l -0.3119,49.84549 -138.6562,-0.0452 c -119.7106,-0.039 -139.0675,-0.24586 -141.6657,-1.51381 z m -8.4107,-8.55857 c -0.8089,-2.31754 -1.1191,-58.41113 -1.1191,-202.34497 V 240.3986 l 9.7805,-0.45899 c 5.3794,-0.25244 10.9091,-0.77382 12.2884,-1.15859 l 2.5079,-0.69961 -2.5079,1.53016 c -1.6846,1.02789 -5.1585,1.54183 -10.583,1.56568 -4.8977,0.0216 -8.5489,0.50861 -9.279,1.2378 -1.6733,1.67125 -1.7566,393.67495 -0.085,398.46517 0.6155,1.76353 0.8934,3.43185 0.6175,3.70737 -0.2759,0.27553 -1.0052,-0.94192 -1.6207,-2.70545 z m 296.8119,-99.49431 c 1.69,-1.0312 5.1664,-1.54174 10.6608,-1.56568 5.618,-0.0244 8.5055,-0.45961 9.2864,-1.39947 1.3025,-1.56743 1.1454,-396.04925 -0.1594,-400.40571 -0.5715,-1.90841 -0.4001,-1.78914 0.7202,0.50096 1.2763,2.60901 1.4764,29.34454 1.5157,202.54431 l 0.045,199.53856 -9.7806,0.45899 c -5.3793,0.25244 -10.9091,0.77382 -12.2884,1.15859 l -2.5078,0.69961 2.5078,-1.53016 z M 2858.7434,232.19548 c 0.4297,-1.37764 0.9216,-24.93527 1.0931,-52.35029 l 0.3119,-49.84549 138.6562,0.0452 c 119.7106,0.0391 139.0675,0.24585 141.6657,1.5138 2.3002,1.12249 2.4184,1.29281 0.5016,0.72263 -4.3825,-1.30362 -276.9367,-1.46577 -278.5051,-0.16568 -1.1215,0.92968 -1.3759,9.86416 -1.405,49.35511 -0.03,41.43996 -0.2509,48.57212 -1.5676,50.72473 l -1.532,2.5048 0.7812,-2.5048 z"
       style="fill:#b9b9b9" />
    <path
       inkscape:connector-curvature="0"
       id="path8183"
       d="m 2978.8672,651.24828 c 98.8726,-0.1855 137.707,-0.56934 138.6737,-1.37067 1.0801,-0.89527 1.3956,-10.45013 1.6131,-48.84 l 0.2704,-47.72697 0.2409,49.34454 0.2408,49.34452 -139.1849,-0.24688 -139.185,-0.24688 z m -148.6187,-210.90405 -0.2483,-200.1334 9.279,0.20163 9.279,0.20163 -7.6852,0.33987 c -4.7332,0.20932 -8.1037,0.84365 -8.7749,1.65139 -0.7743,0.93181 -1.1638,58.71637 -1.3456,199.5919 l -0.2558,198.28038 z m 308.8788,100.70121 c 4.7332,-0.20932 8.1037,-0.84365 8.7749,-1.65139 0.7743,-0.93181 1.1639,-58.71637 1.3456,-199.5919 l 0.2558,-198.28038 0.2483,200.1334 0.2482,200.1334 -9.279,-0.20163 -9.279,-0.20163 z m -278.7923,-361.70122 -0.2408,-49.34452 139.185,0.24688 139.1849,0.24689 -137.331,0.25765 c -98.8726,0.1855 -137.707,0.56934 -138.6737,1.37066 -1.08,0.89528 -1.3956,10.45015 -1.6131,48.84 l -0.2704,47.72698 z"
       style="fill:#aeaeae" />
    <path
       inkscape:connector-curvature="0"
       id="path8185"
       d="m 2979.3687,651.24828 c 99.8345,-0.1866 138.2054,-0.56667 139.185,-1.37866 1.0399,-0.86203 1.3524,-0.74545 1.3524,0.50453 0,1.49284 -11.3637,1.6054 -139.1849,1.37865 l -139.185,-0.24689 z M 2830.2485,440.34423 c -0.2284,-184.04317 -0.1175,-200.1334 1.3792,-200.1334 1.2523,0 1.3685,0.31175 0.5041,1.35206 -0.819,0.98562 -1.1928,55.22852 -1.3793,200.13341 l -0.2557,198.78133 z m 317.62,100.09228 c 0.819,-0.98562 1.1928,-55.22852 1.3793,-200.1334 l 0.2558,-198.78134 0.2482,200.1334 c 0.2284,184.04317 0.1175,200.1334 -1.3792,200.1334 -1.2523,0 -1.3685,-0.31175 -0.5041,-1.35206 z M 2860.0942,131.62526 c 0,-1.49284 11.3637,-1.6054 139.185,-1.37867 l 139.1849,0.24691 -137.8325,0.25762 c -99.8345,0.18661 -138.2054,0.56668 -139.185,1.37866 -1.0399,0.86202 -1.3524,0.74546 -1.3524,-0.50452 z"
       style="fill:#9f9f9f" />
    <path
       inkscape:connector-curvature="0"
       id="path8187"
       d="m 2911.5832,651.24835 c 38.5259,-0.14532 101.272,-0.1453 139.4357,5e-5 38.1638,0.14535 6.6427,0.26426 -70.047,0.26424 -76.6896,-3e-5 -107.9145,-0.11896 -69.3887,-0.26429 z m -81.0912,-211.1546 c 0,-110.21113 0.1172,-155.14887 0.2605,-99.86164 0.1433,55.28723 0.1432,145.45999 0,200.38389 -0.1433,54.9239 -0.2605,9.68889 -0.2605,-100.52225 z m 318.9968,-98.1881 c 0,-110.21114 0.1172,-155.14887 0.2605,-99.86164 0.1433,55.28724 0.1433,145.45998 0,200.38388 -0.1433,54.9239 -0.2605,9.6889 -0.2605,-100.52224 z M 2929.6397,130.25027 c 38.5258,-0.14534 101.2719,-0.14532 139.4357,5e-5 38.1637,0.14535 6.6426,0.26426 -70.047,0.26423 -76.6897,-2e-5 -107.9146,-0.11896 -69.3887,-0.26428 z"
       style="fill:#000000" />
    <path
       transform="translate(0,-1.2207032e-4)"
       inkscape:connector-curvature="0"
       id="path10908"
       d="m 2837.0744,644.06551 c -1.7099,-1.70988 -3.1089,-91.48638 -3.1089,-199.50329 V 248.16784 l 13.7548,-5.19186 c 12.9407,-4.88453 13.8378,-6.90072 15.1561,-34.06051 l 1.4011,-28.86864 16.3219,24.6331 c 8.977,13.54821 18.4204,25.26318 20.9853,26.03328 2.5648,0.7701 11.6358,-8.82983 20.1576,-21.33316 11.5547,-16.9531 15.1118,-26.72316 13.9902,-38.42501 -1.7734,-18.50053 -13.7762,-23.21032 -27.4997,-10.79065 -4.9389,4.46964 -8.9798,5.84426 -8.9798,3.05471 0,-7.87997 -18.3179,-11.78441 -25.8725,-5.51468 -5.6747,4.70962 -6.7713,3.25041 -6.7713,-9.01089 v -14.63057 l 138.7358,1.23524 138.7358,1.23524 1.2156,198.88632 1.2155,198.88632 -13.3611,4.65771 c -13.5493,4.72332 -19.382,18.67607 -19.382,46.36487 0,10.14794 -1.9001,8.79524 -15.156,-10.78952 -8.3358,-12.31565 -17.2545,-23.04105 -19.8194,-23.83422 -2.5649,-0.79316 -11.6358,8.78789 -20.1577,21.29123 -11.5546,16.9531 -15.1118,26.72318 -13.9901,38.42502 1.7463,18.21836 13.729,23.25296 26.9235,11.31207 7.4936,-6.78159 8.7027,-6.82585 11.1651,-0.40851 3.2865,8.56436 17.5756,9.46327 25.4385,1.60033 4.3525,-4.35248 5.5961,-2.27988 5.5961,9.32678 v 14.92284 h -136.7927 c -75.236,-2.3e-4 -138.1917,-1.39925 -139.9017,-3.10917 z m 60.5694,-22.74101 c 2.4625,-6.41711 3.6715,-6.37285 11.1651,0.40851 13.5794,12.28915 25.2064,6.91823 26.8264,-12.39198 1.0983,-13.09269 -1.9696,-21.19723 -13.9902,-36.95724 -8.4684,-11.10256 -17.4956,-20.32665 -20.0604,-20.49773 -2.5649,-0.1711 -11.4836,9.89409 -19.8194,22.36705 -14.0538,21.02882 -19.4141,43.79186 -12.0471,51.15885 5.9059,5.9059 25.173,3.08576 27.9256,-4.08746 z m 25.3821,-215.78456 c 14.8602,-23.43224 17.3469,-43.18923 6.5624,-52.13957 -5.6053,-4.65201 -9.1302,-4.37173 -17.9849,1.43006 -10.0076,6.55724 -11.7208,6.50837 -18.7644,-0.53517 -10.2562,-10.25621 -23.3273,-2.45359 -25.4181,15.173 -1.782,15.02259 29.1386,65.40544 37.1147,60.47589 2.7258,-1.68463 11.0464,-12.66653 18.4903,-24.40421 z m 174.2972,2.69811 c 18.9361,-28.11862 21.224,-47.30826 6.5749,-55.14822 -7.8059,-4.17756 -11.3603,-3.79326 -16.9905,1.83699 -6.3841,6.38401 -8.2578,6.37405 -18.1329,-0.0964 -8.8546,-5.80179 -12.3795,-6.08207 -17.9849,-1.43006 -8.2645,6.85893 -9.0505,24.53966 -1.7232,38.76015 6.3671,12.35669 27.1025,40.49807 29.8403,40.49807 1.0838,0 9.3711,-10.98924 18.4163,-24.42054 z m -86.9529,-100.9606 c 16.905,-24.80397 18.5382,-44.75131 4.3891,-53.60989 -6.2181,-3.89311 -9.9088,-3.21936 -16.06,2.93185 -7.4959,7.49591 -8.5208,7.5031 -16.6823,0.11701 -11.237,-10.16938 -23.8677,-3.06929 -25.9704,14.59874 -1.6281,13.68077 24.05,58.75577 33.4627,58.73989 2.9387,-0.005 12.3261,-10.25488 20.8609,-22.77759 z m 88.2426,-100.44039 c 15.8866,-23.47146 18.9532,-38.99246 9.5599,-48.38569 -7.8629,-7.86295 -22.152,-6.96402 -25.4385,1.60034 -2.4624,6.41711 -3.6715,6.37285 -11.1651,-0.40876 -13.1945,-11.94088 -25.1772,-6.90627 -26.9235,11.31209 -1.1217,11.70185 2.4355,21.47191 13.9901,38.42501 8.5219,12.50333 17.5928,22.08439 20.1577,21.29122 2.5649,-0.79316 11.4836,-11.51856 19.8194,-23.83421 z"
       style="fill:#fff6d5;fill-opacity:1;stroke:none;stroke-width:0.105;stroke-miterlimit:4;stroke-dasharray:none;stroke-opacity:1" />
  </g>
</svg>
