<?xml version="1.0" encoding="UTF-8" standalone="no"?>
<!-- Created with Inkscape (http://www.inkscape.org/) -->

<svg
   id="svg10047"
   height="123.00089"
   width="78.999237"
   version="1.1"
   viewBox="0 0 78.999237 123.00089"
   inkscape:version="0.91 r13725"
   sodipodi:docname="baroque.svgz"
   xmlns:inkscape="http://www.inkscape.org/namespaces/inkscape"
   xmlns:sodipodi="http://sodipodi.sourceforge.net/DTD/sodipodi-0.dtd"
   xmlns="http://www.w3.org/2000/svg"
   xmlns:svg="http://www.w3.org/2000/svg"
   xmlns:rdf="http://www.w3.org/1999/02/22-rdf-syntax-ns#"
   xmlns:cc="http://creativecommons.org/ns#"
   xmlns:dc="http://purl.org/dc/elements/1.1/">
  <sodipodi:namedview
     pagecolor="#ffffff"
     bordercolor="#666666"
     borderopacity="1"
     objecttolerance="10"
     gridtolerance="10"
     guidetolerance="10"
     inkscape:pageopacity="0"
     inkscape:pageshadow="2"
     inkscape:window-width="1920"
     inkscape:window-height="1016"
     id="namedview1491"
     showgrid="false"
     inkscape:zoom="1.3479675"
     inkscape:cx="513.5"
     inkscape:cy="307.5"
     inkscape:window-x="0"
     inkscape:window-y="0"
     inkscape:window-maximized="1"
     inkscape:current-layer="svg10047"
     showguides="false"
     inkscape:guide-bbox="true"
     inkscape:snap-grids="false"
     inkscape:snap-to-guides="false"
     inkscape:showpageshadow="2"
     inkscape:pagecheckerboard="0"
     inkscape:deskcolor="#d1d1d1">
    <inkscape:grid
       type="xygrid"
       id="grid11817"
       originx="-79"
       originy="-245.99911"
       spacingy="1"
       spacingx="1"
       units="px"
       visible="false" />
  </sodipodi:namedview>
  <metadata
     id="metadata16869">
    <rdf:RDF>
      <cc:Work
         rdf:about="">
        <dc:format>image/svg+xml</dc:format>
        <dc:type
           rdf:resource="http://purl.org/dc/dcmitype/StillImage" />
        <dc:title />
      </cc:Work>
    </rdf:RDF>
  </metadata>
  <defs
     id="defs10049" />
  <g
     transform="matrix(0.20788883,0,0,0.21134229,-114.33886,-21.134333)"
     id="heart_2"
     inkscape:label="#heart_2">
    <rect
       width="379.37552"
       height="581.36688"
       rx="31.643511"
       ry="32.29768"
       x="550.3158"
       y="100.31629"
       id="rect5748"
       style="fill:#ffffff;stroke:#000000;stroke-width:0.631597" />
    <path
       inkscape:connector-curvature="0"
       id="path5750"
       d="m 748.13814,559.87566 c 10.115,12.989 16.422,22.359 21.308,31.656 3.498,6.653 4.045,8.667 4.406,16.207 0.371,7.754 0.165,8.961 -2.069,12.132 -3.209,4.554 -8.749,8.129 -12.598,8.129 -6.002,0 -12.972,-5.406 -15.999,-12.41 -0.903,-2.089 -2.337,-3.799 -3.187,-3.799 -0.849,0 -2.283,1.71 -3.186,3.799 -3.027,7.004 -9.997,12.41 -15.999,12.41 -3.849,0 -9.389,-3.575 -12.598,-8.129 -2.234,-3.171 -2.44,-4.378 -2.069,-12.132 0.361,-7.54 0.909,-9.554 4.406,-16.207 2.196,-4.179 6.159,-10.789 8.805,-14.689 5.311,-7.826 19.935,-26.844 20.641,-26.844 0.247,0 3.909,4.445 8.139,9.877 z"
       style="fill:#fe0707" />
    <path
       style="fill:#fe0707"
       d="m 584.88814,226.57266 c -3.868,-6.661 -6.279,-11.467 -8.148,-16.234 -1.337,-3.412 -1.546,-4.445 -1.684,-8.312 -0.142,-3.976 -0.06,-4.595 0.791,-6.221 1.227,-2.335 3.345,-4.168 4.817,-4.168 2.295,0 4.96,2.772 6.117,6.363 0.345,1.072 0.894,1.949 1.218,1.949 0.325,0 0.873,-0.877 1.219,-1.949 1.157,-3.591 3.822,-6.363 6.117,-6.363 1.472,0 3.59,1.833 4.817,4.168 0.854,1.626 0.933,2.245 0.791,6.221 -0.138,3.867 -0.347,4.9 -1.685,8.312 -0.839,2.143 -2.354,5.533 -3.366,7.533 -2.031,4.013 -7.622,13.766 -7.893,13.766 -0.09,0 -1.494,-2.279 -3.111,-5.065 z"
       id="path5752"
       inkscape:connector-curvature="0" />
    <path
       inkscape:connector-curvature="0"
       id="path5754"
       d="m 731.86114,222.12266 c -10.115,-12.989 -16.422,-22.359 -21.308,-31.656 -3.498,-6.653 -4.045,-8.667 -4.406,-16.208 -0.371,-7.754 -0.165,-8.96 2.069,-12.131 3.209,-4.554 8.749,-8.128 12.598,-8.128 6.002,0 12.972,5.406 15.999,12.409 0.903,2.089 2.337,3.798 3.187,3.798 0.849,0 2.283,-1.709 3.186,-3.798 3.027,-7.003 9.997,-12.409 15.999,-12.409 3.849,0 9.389,3.574 12.598,8.128 2.234,3.171 2.44,4.377 2.069,12.131 -0.361,7.541 -0.909,9.555 -4.406,16.208 -2.196,4.179 -6.159,10.788 -8.805,14.688 -5.311,7.827 -19.935,26.845 -20.641,26.845 -0.247,0 -3.909,-4.445 -8.139,-9.877 z"
       style="fill:#fe0707" />
    <path
       style="fill:#fe0707;fill-opacity:1;stroke:#fffecd;stroke-width:0.0804347;stroke-miterlimit:4;stroke-dasharray:none;stroke-opacity:1"
       d="m 573.58414,178.12666 c 0.296,-2.104 1.421,-5.671 2.501,-7.928 1.829,-3.824 3.807,-5.945 15.398,-16.509 4.592,-4.186 5.687,-7.214 4.22,-11.669 -1.764,-5.354 -10.038,-6.74 -13.548,-2.269 -0.878,1.118 -1.835,3.989 -2.137,6.411 -0.52,4.172 -0.66,4.387 -2.865,4.387 -2.232,0 -2.318,-0.142 -2.318,-3.855 0,-8.392 5.649,-14.663 13.207,-14.663 8.441,0 14.115,5.175 14.112,12.87 0,5.596 -2.079,8.65 -10.846,15.946 -7.387,6.147 -11.637,11.13 -11.647,13.656 0,0.744 2.287,1.006 8.786,1.006 h 8.79 l 0.554,-5.636 c 0.545,-5.54 0.594,-5.636 2.861,-5.636 2.224,0 2.307,0.142 2.307,3.908 0,2.149 -0.232,6.134 -0.516,8.856 l -0.516,4.949 h -14.441 -14.44 z"
       id="path5756"
       inkscape:connector-curvature="0" />
    <path
       inkscape:connector-curvature="0"
       id="path5758"
       d="m 889.49814,555.06466 c -3.868,6.661 -6.279,11.466 -8.148,16.233 -1.337,3.412 -1.546,4.445 -1.684,8.312 -0.142,3.976 -0.06,4.595 0.791,6.221 1.227,2.336 3.345,4.169 4.817,4.169 2.295,0 4.96,-2.773 6.117,-6.364 0.345,-1.071 0.894,-1.948 1.218,-1.948 0.325,0 0.873,0.877 1.219,1.948 1.157,3.591 3.822,6.364 6.117,6.364 1.472,0 3.59,-1.833 4.817,-4.169 0.854,-1.626 0.933,-2.245 0.791,-6.221 -0.138,-3.867 -0.347,-4.9 -1.685,-8.312 -0.839,-2.143 -2.354,-5.532 -3.366,-7.532 -2.031,-4.014 -7.622,-13.766 -7.893,-13.766 -0.09,0 -1.494,2.279 -3.111,5.065 z"
       style="fill:#fe0707" />
    <path
       inkscape:connector-curvature="0"
       id="path5760"
       d="m 906.41514,602.86366 c -0.296,2.104 -1.421,5.671 -2.501,7.928 -1.829,3.825 -3.807,5.946 -15.397,16.51 -4.593,4.185 -5.688,7.213 -4.221,11.668 1.764,5.355 10.038,6.74 13.548,2.269 0.878,-1.118 1.835,-3.989 2.137,-6.411 0.52,-4.172 0.66,-4.387 2.865,-4.387 2.232,0 2.318,0.142 2.318,3.855 0,8.392 -5.649,14.663 -13.207,14.663 -8.441,0 -14.115,-5.175 -14.112,-12.87 0,-5.596 2.079,-8.65 10.846,-15.946 7.387,-6.147 11.637,-11.13 11.647,-13.656 0,-0.744 -2.287,-1.006 -8.786,-1.006 h -8.79 l -0.554,5.636 c -0.545,5.54 -0.594,5.636 -2.861,5.636 -2.224,0 -2.307,-0.142 -2.307,-3.908 0,-2.149 0.232,-6.134 0.516,-8.856 l 0.516,-4.949 h 14.441 14.44 z"
       style="fill:#fe0707;fill-opacity:1;stroke:#fffecd;stroke-width:0.0804347;stroke-miterlimit:4;stroke-dasharray:none;stroke-opacity:1" />
    <path
       style="fill:#e2e2e2"
       d="m 589.41559,651.2851 c -1.78943,-0.22568 -4.36027,-1.68308 -6.01881,-3.41207 l -2.89516,-3.01813 -0.28045,-201.06964 c -0.15426,-110.58829 -0.0328,-202.08407 0.26989,-203.32395 0.51713,-2.11823 1.06589,-2.25432 9.0901,-2.25432 5.22828,0 9.90272,-0.56879 12.05461,-1.46682 6.44644,-2.69023 6.45205,-2.73985 6.45205,-57.09419 V 131.0398 l 2.25706,-0.5528 c 1.24137,-0.30403 65.33307,-0.42534 142.426,-0.26957 l 140.16896,0.28323 3.27929,3.27541 3.27929,3.27541 0.28046,201.11614 c 0.15425,110.61388 0.0328,202.13059 -0.26989,203.37047 -0.51712,2.11823 -1.06589,2.25432 -9.09011,2.25432 -5.22827,0 -9.90272,0.56879 -12.0546,1.46682 -6.4454,2.68979 -6.45205,2.7486 -6.45205,57.00609 0,43.31788 -0.17008,48.58326 -1.58676,49.12623 -1.70623,0.65395 -275.70358,0.55011 -280.90988,-0.10645 z m 277.48096,-49.9145 c 0,-52.30659 -0.10203,-51.3565 6.14998,-57.26626 4.56114,-4.31146 7.69029,-5.32152 16.48585,-5.32152 h 7.45821 V 340.87155 c 0,-171.49224 -0.19604,-198.37989 -1.4686,-201.42186 -2.86596,-6.85088 6.31277,-6.44424 -145.4584,-6.44424 H 613.1035 v 47.62336 c 0,52.30658 0.10202,51.35649 -6.14998,57.26625 -4.56115,4.31146 -7.69029,5.32153 -16.48585,5.32153 h -7.45821 v 197.91126 c 0,218.31143 -0.4486,203.45751 6.23204,206.35659 2.8032,1.21646 23.8693,1.43696 140.4764,1.47029 l 137.17865,0.0392 v -47.62335 z"
       id="path8095"
       inkscape:connector-curvature="0" />
    <path
       style="fill:#dbdbdb"
       d="m 589.92645,651.29789 c -1.43702,-0.22281 -4.14548,-1.9845 -6.01881,-3.9149 l -3.40602,-3.5098 V 441.79153 239.70988 l 9.52978,-0.53916 c 5.97674,-0.33814 10.67248,-1.15062 12.59467,-2.17918 5.97513,-3.1973 5.91661,-2.68231 6.46489,-56.89587 l 0.50156,-49.59501 h 141.17461 141.1746 l 3.77835,3.77383 3.77834,3.77383 v 202.1206 202.12061 l -9.52977,0.56876 c -5.24138,0.31282 -10.80501,1.18961 -12.36363,1.94842 -6.19057,3.01387 -6.14505,2.62572 -6.69593,57.09702 l -0.50157,49.59501 -138.93414,0.10212 c -76.41378,0.0562 -140.10989,-0.0802 -141.54693,-0.30297 z m 277.97324,-51.63611 0.50156,-49.83313 4.7745,-4.76791 4.77451,-4.76789 9.77095,-0.50454 9.77094,-0.50454 0.27101,-197.37812 c 0.30573,-222.6678 0.95005,-204.35964 -7.32069,-208.01376 -4.14965,-1.83336 -8.77592,-1.88719 -141.06545,-1.64146 l -136.77509,0.25407 -0.50157,49.83313 -0.50157,49.83312 -4.7745,4.76791 -4.7745,4.76789 -9.77095,0.50454 -9.77095,0.50454 -0.27101,197.37812 c -0.30515,222.25184 -0.92324,204.30992 7.16484,207.98205 3.9931,1.81294 9.01982,1.87171 141.06852,1.64952 l 136.92787,-0.23041 z"
       id="path8097"
       inkscape:connector-curvature="0" />
    <path
       style="fill:#c1c1c1"
       d="m 589.92645,651.29789 c -1.43702,-0.22281 -4.14548,-1.9845 -6.01881,-3.9149 l -3.40602,-3.5098 V 441.79153 239.70988 l 10.07725,-0.50097 c 10.68548,-0.53119 14.19572,-1.84575 16.72131,-6.262 0.98334,-1.71947 1.4082,-14.13969 1.79078,-52.35029 l 0.50156,-50.09596 h 141.17461 141.1746 l 3.77835,3.77383 3.77834,3.77383 v 202.1206 202.12061 l -10.07724,0.50096 c -10.6855,0.53119 -14.19572,1.84575 -16.72131,6.262 -0.98335,1.71947 -1.40822,14.13969 -1.79078,52.35029 l -0.50157,50.09596 -138.93414,0.10212 c -76.41378,0.0562 -140.10989,-0.0802 -141.54693,-0.30297 z m 277.97324,-50.89703 c 0.36589,-35.81394 0.83038,-49.66668 1.71715,-51.21098 2.09698,-3.65183 8.13422,-8.28123 11.55293,-8.85886 1.8049,-0.30497 6.2158,-0.66535 9.80201,-0.80087 l 6.52037,-0.24638 0.2506,-198.38004 c 0.23649,-187.21169 0.15177,-198.57746 -1.5047,-201.88676 -1.00295,-2.00368 -3.26016,-4.25841 -5.26627,-5.26047 -3.30033,-1.64855 -11.75604,-1.73871 -140.94041,-1.50288 l -137.42944,0.25088 -0.50157,49.09404 c -0.36589,35.81395 -0.83039,49.66668 -1.71715,51.21098 -2.09699,3.65183 -8.13422,8.28124 -11.55293,8.85886 -1.80491,0.30497 -6.21581,0.66535 -9.80201,0.80087 l -6.52038,0.24638 -0.2506,198.38004 c -0.23648,187.21169 -0.15177,198.57746 1.50471,201.88676 1.00295,2.00368 3.26016,4.25841 5.26627,5.26048 3.30032,1.64854 11.75602,1.73871 140.94041,1.50288 l 137.42943,-0.25088 z"
       id="path8099"
       inkscape:connector-curvature="0" />
    <path
       style="fill:#b9b9b9"
       d="m 589.52983,650.44071 c -2.30015,-1.12249 -2.41836,-1.2928 -0.50156,-0.72263 4.38252,1.30362 276.93668,1.46577 278.50509,0.16568 1.12155,-0.92968 1.37589,-9.86416 1.40501,-49.3551 0.0306,-41.43997 0.25095,-48.57213 1.56757,-50.72474 l 1.53201,-2.5048 -0.78121,2.5048 c -0.42965,1.37764 -0.92154,24.93527 -1.09306,52.35029 l -0.31187,49.84549 -138.65628,-0.0452 c -119.71059,-0.039 -139.06749,-0.24586 -141.6657,-1.51381 z m -8.41066,-8.55857 c -0.80888,-2.31754 -1.11912,-58.41113 -1.11912,-202.34497 V 240.3986 l 9.78057,-0.45899 c 5.3793,-0.25244 10.90908,-0.77382 12.2884,-1.15859 l 2.50783,-0.69961 -2.50783,1.53016 c -1.68464,1.02789 -5.15857,1.54183 -10.58308,1.56568 -4.89763,0.0216 -8.5489,0.50861 -9.27899,1.2378 -1.67329,1.67125 -1.75656,393.67495 -0.0846,398.46517 0.61552,1.76353 0.89342,3.43185 0.61756,3.70737 -0.27587,0.27553 -1.00517,-0.94192 -1.62069,-2.70545 z m 296.81186,-99.49431 c 1.69005,-1.0312 5.16648,-1.54174 10.66087,-1.56568 5.61794,-0.0244 8.50544,-0.45961 9.2864,-1.39947 1.30243,-1.56743 1.14541,-396.04925 -0.15938,-400.40571 -0.57159,-1.90841 -0.40011,-1.78914 0.72018,0.50096 1.27631,2.60901 1.47638,29.34454 1.51566,202.54431 l 0.0453,199.53856 -9.78057,0.45899 c -5.3793,0.25244 -10.90909,0.77382 -12.2884,1.15859 l -2.50784,0.69961 2.50784,-1.53016 z M 608.74329,232.19548 c 0.42967,-1.37764 0.92155,-24.93527 1.09307,-52.35029 l 0.31186,-49.84549 138.65629,0.0452 c 119.7106,0.0391 139.0675,0.24585 141.6657,1.5138 2.30016,1.12249 2.41837,1.29281 0.50157,0.72263 -4.38253,-1.30362 -276.93669,-1.46577 -278.50509,-0.16568 -1.12156,0.92968 -1.3759,9.86416 -1.40501,49.35511 -0.0305,41.43996 -0.25096,48.57212 -1.56757,50.72473 l -1.53203,2.5048 0.78121,-2.5048 z"
       id="path8101"
       inkscape:connector-curvature="0" />
    <path
       style="fill:#aeaeae"
       d="m 728.86707,651.24828 c 98.87264,-0.1855 137.70699,-0.56934 138.6737,-1.37067 1.08005,-0.89527 1.39564,-10.45013 1.61313,-48.84 l 0.27041,-47.72697 0.24082,49.34454 0.24083,49.34452 -139.18493,-0.24688 -139.18493,-0.24688 z m -148.61874,-210.90405 -0.24828,-200.1334 9.279,0.20163 9.27899,0.20163 -7.68515,0.33987 c -4.73318,0.20932 -8.10375,0.84365 -8.77493,1.65139 -0.77428,0.93181 -1.16383,58.71637 -1.34556,199.5919 l -0.25579,198.28038 z m 308.87883,100.70121 c 4.73316,-0.20932 8.10376,-0.84365 8.77493,-1.65139 0.77428,-0.93181 1.16384,-58.71637 1.34556,-199.5919 l 0.25578,-198.28038 0.24829,200.1334 0.24828,200.1334 -9.279,-0.20163 -9.279,-0.20163 z m -278.79224,-361.70122 -0.24083,-49.34452 139.18493,0.24688 139.18492,0.24689 -137.33097,0.25765 c -98.87264,0.1855 -137.70699,0.56934 -138.6737,1.37066 -1.08005,0.89528 -1.39563,10.45015 -1.61313,48.84 l -0.2704,47.72698 z"
       id="path8103"
       inkscape:connector-curvature="0" />
    <path
       style="fill:#9f9f9f"
       d="m 729.36862,651.24828 c 99.83442,-0.1866 138.20537,-0.56667 139.18493,-1.37866 1.03994,-0.86203 1.35241,-0.74545 1.35241,0.50453 0,1.49284 -11.36365,1.6054 -139.18493,1.37865 L 591.5361,651.50591 Z M 580.24833,440.34423 c -0.22832,-184.04317 -0.11743,-200.1334 1.37925,-200.1334 1.25227,0 1.36849,0.31175 0.50406,1.35206 -0.81897,0.98562 -1.19279,55.22852 -1.37924,200.13341 l -0.25578,198.78133 z m 317.62008,100.09228 c 0.81897,-0.98562 1.19279,-55.22852 1.37924,-200.1334 l 0.25577,-198.78134 0.24829,200.1334 c 0.22832,184.04317 0.11743,200.1334 -1.37924,200.1334 -1.25227,0 -1.3685,-0.31175 -0.50406,-1.35206 z M 610.09409,131.62526 c 0,-1.49284 11.36365,-1.6054 139.18493,-1.37867 l 139.18492,0.24691 -137.83251,0.25762 c -99.83443,0.18661 -138.20536,0.56668 -139.18494,1.37866 -1.03994,0.86202 -1.3524,0.74546 -1.3524,-0.50452 z"
       id="path8105"
       inkscape:connector-curvature="0" />
    <path
       style="fill:#000000"
       d="m 661.58311,651.24835 c 38.52584,-0.14532 101.27191,-0.1453 139.4357,5e-5 38.16379,0.14535 6.64264,0.26426 -70.047,0.26424 -76.68964,-3e-5 -107.91456,-0.11896 -69.3887,-0.26429 z m -81.09127,-211.1546 c 2e-5,-110.21113 0.11725,-155.14887 0.26053,-99.86164 0.14326,55.28723 0.14325,145.45999 -4e-5,200.38389 -0.14328,54.9239 -0.2605,9.68889 -0.26049,-100.52225 z m 318.9968,-98.1881 c 2e-5,-110.21114 0.11725,-155.14887 0.26052,-99.86164 0.14328,55.28724 0.14327,145.45998 -3e-5,200.38388 -0.14327,54.9239 -0.2605,9.6889 -0.26049,-100.52224 z M 679.63953,130.25027 c 38.52585,-0.14534 101.27191,-0.14532 139.43571,5e-5 38.16378,0.14535 6.64264,0.26426 -70.047,0.26423 -76.68964,-2e-5 -107.91457,-0.11896 -69.38871,-0.26428 z"
       id="path8107"
       inkscape:connector-curvature="0" />
    <path
       transform="translate(0,-1.2207032e-4)"
       inkscape:connector-curvature="0"
       id="path10898"
       d="M 586.21242,447.67115 V 248.16784 l 13.99016,-5.28069 13.99016,-5.2807 v -51.77174 -51.77175 l 138.7358,1.23524 138.7358,1.23524 1.2157,199.08149 1.2157,199.08149 -12.87417,6.16025 c -12.73678,6.09452 -12.88829,6.69468 -14.19779,56.23901 l -1.32361,50.07877 H 725.95629 586.21242 Z m 147.74594,175.80349 c 3.61942,-3.61944 7.84343,-3.29939 14.93895,1.13181 14.14429,8.83325 26.38019,-0.0671 25.52836,-18.56947 -0.62292,-13.53022 -27.19935,-56.79368 -34.88795,-56.79368 -5.62961,0 -31.15789,39.01561 -34.66113,52.97362 -5.09728,20.30919 15.19636,35.1431 29.08177,21.25772 z m 25.10135,-412.76583 c 16.87853,-24.5321 20.09549,-46.93641 7.87511,-54.84568 -6.13657,-3.97171 -10.44845,-3.83284 -17.4877,0.56325 -7.47901,4.67072 -11.20678,4.67072 -18.68579,0 -13.56121,-8.46912 -25.81298,0.73872 -24.99264,18.78328 0.64265,14.13596 26.45151,56.92324 34.33554,56.92324 2.31842,0 10.84839,-9.64084 18.95548,-21.42409 z"
       style="fill:#fff6d5;fill-opacity:1;stroke:none;stroke-width:0.105;stroke-miterlimit:4;stroke-dasharray:none;stroke-opacity:1" />
  </g>
</svg>
