<?xml version="1.0" encoding="UTF-8" standalone="no"?>
<!-- Created with Inkscape (http://www.inkscape.org/) -->

<svg
   id="svg10047"
   height="122.99965"
   width="78.999245"
   version="1.1"
   viewBox="0 0 78.999245 122.99965"
   inkscape:version="0.91 r13725"
   sodipodi:docname="baroque.svgz"
   xmlns:inkscape="http://www.inkscape.org/namespaces/inkscape"
   xmlns:sodipodi="http://sodipodi.sourceforge.net/DTD/sodipodi-0.dtd"
   xmlns="http://www.w3.org/2000/svg"
   xmlns:svg="http://www.w3.org/2000/svg"
   xmlns:rdf="http://www.w3.org/1999/02/22-rdf-syntax-ns#"
   xmlns:cc="http://creativecommons.org/ns#"
   xmlns:dc="http://purl.org/dc/elements/1.1/">
  <sodipodi:namedview
     pagecolor="#ffffff"
     bordercolor="#666666"
     borderopacity="1"
     objecttolerance="10"
     gridtolerance="10"
     guidetolerance="10"
     inkscape:pageopacity="0"
     inkscape:pageshadow="2"
     inkscape:window-width="1920"
     inkscape:window-height="1016"
     id="namedview1491"
     showgrid="false"
     inkscape:zoom="1.3479675"
     inkscape:cx="513.5"
     inkscape:cy="307.5"
     inkscape:window-x="0"
     inkscape:window-y="0"
     inkscape:window-maximized="1"
     inkscape:current-layer="svg10047"
     showguides="false"
     inkscape:guide-bbox="true"
     inkscape:snap-grids="false"
     inkscape:snap-to-guides="false"
     inkscape:showpageshadow="2"
     inkscape:pagecheckerboard="0"
     inkscape:deskcolor="#d1d1d1">
    <inkscape:grid
       type="xygrid"
       id="grid11817"
       originx="-316"
       originy="-369.00035"
       spacingy="1"
       spacingx="1"
       units="px"
       visible="false" />
  </sodipodi:namedview>
  <metadata
     id="metadata16869">
    <rdf:RDF>
      <cc:Work
         rdf:about="">
        <dc:format>image/svg+xml</dc:format>
        <dc:type
           rdf:resource="http://purl.org/dc/dcmitype/StillImage" />
        <dc:title />
      </cc:Work>
    </rdf:RDF>
  </metadata>
  <defs
     id="defs10049" />
  <g
     transform="matrix(0.20788883,0,0,0.21134013,-394.98878,-464.94862)"
     id="spade_5"
     inkscape:label="#spade_5">
    <rect
       width="379.37555"
       height="581.36694"
       rx="31.643513"
       ry="32.297684"
       x="1900.3158"
       y="2200.3174"
       id="rect6260"
       style="fill:#ffffff;stroke:#000000;stroke-width:0.631597" />
    <path
       style="fill:#0b0b0b"
       d="m 1992.2761,2334.3697 c 3.029,-5.736 5.411,-13.845 4.49,-15.283 -0.38,-0.591 -2.668,0.598 -5.085,2.643 -3.417,2.891 -5.596,3.719 -9.791,3.719 -6.477,0 -10.012,-2.156 -12.793,-7.804 -5.098,-10.354 -2.381,-16.776 25.098,-59.307 4.029,-6.236 7.542,-11.338 7.807,-11.338 0.265,0 3.779,5.102 7.808,11.338 27.479,42.531 30.196,48.953 25.098,59.307 -2.781,5.648 -6.316,7.804 -12.793,7.804 -4.195,0 -6.374,-0.828 -9.791,-3.719 -2.417,-2.045 -4.705,-3.234 -5.085,-2.643 -0.921,1.438 1.461,9.547 4.489,15.283 l 2.446,4.63 -3.542,-0.953 c -1.948,-0.524 -5.831,-0.953 -8.63,-0.953 -2.798,0 -6.681,0.429 -8.629,0.953 l -3.542,0.953 z"
       id="path6264"
       inkscape:connector-curvature="0" />
    <path
       style="fill:#0b0b0b"
       d="m 2168.2731,2334.3697 c 3.029,-5.736 5.411,-13.845 4.489,-15.283 -0.379,-0.591 -2.667,0.598 -5.084,2.643 -3.417,2.891 -5.596,3.719 -9.791,3.719 -6.477,0 -10.012,-2.156 -12.793,-7.804 -5.098,-10.354 -2.381,-16.776 25.098,-59.307 4.029,-6.236 7.542,-11.338 7.807,-11.338 0.265,0 3.779,5.102 7.808,11.338 27.479,42.531 30.196,48.953 25.098,59.307 -2.781,5.648 -6.316,7.804 -12.793,7.804 -4.196,0 -6.374,-0.828 -9.791,-3.719 -2.417,-2.045 -4.705,-3.234 -5.085,-2.643 -0.921,1.438 1.461,9.547 4.489,15.283 l 2.446,4.63 -3.542,-0.953 c -1.948,-0.524 -5.831,-0.953 -8.63,-0.953 -2.798,0 -6.681,0.429 -8.629,0.953 l -3.542,0.953 z"
       id="path6266"
       inkscape:connector-curvature="0" />
    <path
       style="fill:#0b0b0b"
       d="m 2011.7251,2647.6307 c -3.028,5.735 -5.411,13.844 -4.489,15.282 0.38,0.591 2.668,-0.598 5.085,-2.643 3.417,-2.891 5.595,-3.719 9.791,-3.719 6.477,0 10.012,2.157 12.793,7.804 5.098,10.354 2.381,16.776 -25.098,59.307 -4.029,6.236 -7.543,11.338 -7.808,11.338 -0.265,0 -3.778,-5.102 -7.807,-11.338 -27.479,-42.531 -30.197,-48.953 -25.098,-59.307 2.781,-5.647 6.316,-7.804 12.793,-7.804 4.195,0 6.374,0.828 9.791,3.719 2.417,2.045 4.705,3.234 5.084,2.643 0.922,-1.438 -1.46,-9.547 -4.489,-15.282 l -2.445,-4.631 3.542,0.953 c 1.948,0.524 5.831,0.954 8.629,0.954 2.799,0 6.682,-0.43 8.63,-0.954 l 3.542,-0.953 z"
       id="path6268"
       inkscape:connector-curvature="0" />
    <path
       style="fill:#0b0b0b"
       d="m 2187.7251,2647.6307 c -3.028,5.735 -5.411,13.844 -4.489,15.282 0.38,0.591 2.668,-0.598 5.085,-2.643 3.417,-2.891 5.595,-3.719 9.791,-3.719 6.477,0 10.012,2.157 12.793,7.804 5.098,10.354 2.381,16.776 -25.098,59.307 -4.029,6.236 -7.543,11.338 -7.808,11.338 -0.265,0 -3.778,-5.102 -7.807,-11.338 -27.479,-42.531 -30.197,-48.953 -25.098,-59.307 2.781,-5.647 6.316,-7.804 12.793,-7.804 4.195,0 6.374,0.828 9.791,3.719 2.417,2.045 4.705,3.234 5.084,2.643 0.922,-1.438 -1.46,-9.547 -4.489,-15.282 l -2.445,-4.631 3.542,0.953 c 1.948,0.524 5.831,0.954 8.629,0.954 2.799,0 6.682,-0.43 8.63,-0.954 l 3.542,-0.953 z"
       id="path6270"
       inkscape:connector-curvature="0" />
    <path
       style="fill:#0b0b0b"
       d="m 2080.2731,2532.3687 c 3.029,-5.735 5.411,-13.844 4.489,-15.282 -0.379,-0.591 -2.667,0.598 -5.084,2.643 -3.417,2.891 -5.596,3.719 -9.791,3.719 -6.477,0 -10.012,-2.157 -12.793,-7.804 -5.098,-10.354 -2.381,-16.776 25.098,-59.307 4.029,-6.236 7.542,-11.338 7.807,-11.338 0.265,0 3.779,5.102 7.808,11.338 27.479,42.531 30.196,48.953 25.098,59.307 -2.781,5.647 -6.316,7.804 -12.793,7.804 -4.196,0 -6.374,-0.828 -9.791,-3.719 -2.417,-2.045 -4.705,-3.234 -5.085,-2.643 -0.921,1.438 1.461,9.547 4.489,15.282 l 2.446,4.631 -3.542,-0.953 c -1.948,-0.525 -5.831,-0.954 -8.63,-0.954 -2.798,0 -6.681,0.429 -8.629,0.954 l -3.542,0.953 z"
       id="path6272"
       inkscape:connector-curvature="0" />
    <path
       sodipodi:nodetypes="scsscssscsccsccsccs"
       inkscape:connector-curvature="0"
       id="path6274"
       d="m 2246.2321,2652.2447 c -1.303,2.493 -2.328,6.019 -1.931,6.644 0.163,0.257 1.147,-0.26 2.187,-1.149 1.47,-1.257 2.407,-1.617 4.212,-1.617 2.786,0 4.306,0.938 5.502,3.393 2.194,4.502 1.025,7.294 -10.796,25.786 -1.733,2.711 -3.244,4.93 -3.358,4.93 -0.115,0 -1.625,-2.219 -3.359,-4.93 -11.82,-18.492 -12.989,-21.284 -10.796,-25.786 1.197,-2.455 2.717,-3.393 5.503,-3.393 1.805,0 2.742,0.36 4.212,1.617 1.04,0.889 2.024,1.406 2.187,1.149 0.397,-0.625 -0.628,-4.151 -1.931,-6.644 l -1.052,-2.013 1.524,0.414 c 0.838,0.228 2.508,3.215 3.712,3.215 1.204,0 2.874,-2.987 3.712,-3.215 l 1.524,-0.414 z"
       style="fill:#0b0b0b" />
    <path
       sodipodi:nodetypes="scsscssscsccsccsccs"
       inkscape:connector-curvature="0"
       id="path6276"
       d="m 1933.8711,2326.1217 c 1.303,-2.494 2.328,-6.02 1.931,-6.645 -0.163,-0.257 -1.147,0.26 -2.187,1.149 -1.47,1.257 -2.407,1.617 -4.212,1.617 -2.786,0 -4.307,-0.938 -5.503,-3.393 -2.193,-4.502 -1.024,-7.294 10.796,-25.785 1.734,-2.712 3.245,-4.93 3.359,-4.93 0.115,0 1.625,2.218 3.358,4.93 11.821,18.491 12.99,21.283 10.797,25.785 -1.197,2.455 -2.717,3.393 -5.503,3.393 -1.805,0 -2.743,-0.36 -4.212,-1.617 -1.04,-0.889 -2.024,-1.406 -2.187,-1.149 -0.397,0.625 0.628,4.151 1.931,6.645 l 1.051,2.013 -1.523,-0.415 c -0.838,-0.228 -2.508,-3.214 -3.712,-3.214 -1.204,0 -2.874,2.986 -3.712,3.214 l -1.524,0.415 z"
       style="fill:#0b0b0b" />
    <path
       inkscape:connector-curvature="0"
       id="path6278"
       d="m 2245.8031,2700.3447 c 5.433,1.342 9.357,5.989 10.57,12.517 l 0.577,3.104 -2.618,-0.262 c -2.244,-0.225 -2.777,-0.727 -3.722,-3.51 -1.562,-4.597 -4.504,-6.902 -8.81,-6.902 -4.376,0 -7.3,2.486 -8.599,7.309 -2.056,7.638 1.781,14.615 8.037,14.615 2.656,0 3.955,-0.569 6.451,-2.824 l 3.125,-2.824 1.849,1.968 c 1.781,1.896 1.828,2.316 1.295,11.552 -0.305,5.272 -0.756,10.773 -1.003,12.224 l -0.448,2.639 h -11.277 -11.276 v -6.09 c 0,-5.914 0.06,-6.09 1.981,-6.09 1.703,0 2.016,0.428 2.233,3.045 l 0.252,3.045 7.001,0.233 c 8.182,0.273 7.989,0.498 8.008,-9.392 l 0.01,-5.911 -2.233,1.624 c -5.646,4.107 -14.273,2 -17.785,-4.342 -4.736,-8.551 -2.122,-20.572 5.297,-24.368 2.863,-1.465 8.072,-2.104 11.084,-1.36 z"
       style="fill:#000000;fill-opacity:1;stroke:#fffecd;stroke-width:0.0811943;stroke-miterlimit:4;stroke-dasharray:none;stroke-opacity:1" />
    <path
       inkscape:connector-curvature="0"
       id="path6280"
       d="m 1934.1961,2281.6457 c -5.433,-1.342 -9.357,-5.988 -10.57,-12.517 l -0.577,-3.104 2.618,0.262 c 2.244,0.225 2.777,0.727 3.722,3.51 1.562,4.597 4.504,6.902 8.81,6.902 4.376,0 7.3,-2.486 8.599,-7.309 2.056,-7.638 -1.781,-14.614 -8.037,-14.614 -2.656,0 -3.955,0.568 -6.451,2.823 l -3.125,2.824 -1.849,-1.967 c -1.781,-1.897 -1.828,-2.317 -1.295,-11.553 0.305,-5.272 0.756,-10.773 1.003,-12.224 l 0.448,-2.639 h 11.277 11.276 v 6.09 c 0,5.914 -0.06,6.09 -1.981,6.09 -1.703,0 -2.016,-0.427 -2.233,-3.045 l -0.252,-3.045 -7.001,-0.233 c -8.182,-0.273 -7.989,-0.498 -8.008,9.392 l -0.01,5.911 2.233,-1.624 c 5.646,-4.106 14.273,-2 17.785,4.343 4.736,8.55 2.122,20.571 -5.297,24.367 -2.863,1.465 -8.072,2.104 -11.084,1.36 z"
       style="fill:#000000;fill-opacity:1;stroke:#fffecd;stroke-width:0.0811943;stroke-miterlimit:4;stroke-dasharray:none;stroke-opacity:1" />
    <path
       style="fill:#e2e2e2"
       d="m 1939.4157,2751.2857 c -1.7894,-0.2256 -4.3602,-1.683 -6.0188,-3.412 l -2.8951,-3.0182 -0.2805,-201.0696 c -0.1543,-110.5883 -0.033,-202.0841 0.2699,-203.324 0.5171,-2.1182 1.0659,-2.2543 9.0901,-2.2543 5.2283,0 9.9027,-0.5688 12.0546,-1.4668 6.4464,-2.6902 6.452,-2.7398 6.452,-57.0942 v -48.6062 l 2.2571,-0.5528 c 1.2414,-0.304 65.3331,-0.4253 142.426,-0.2695 l 140.169,0.2832 3.2793,3.2754 3.2793,3.2754 0.2804,201.1162 c 0.1543,110.6138 0.033,202.1306 -0.2699,203.3704 -0.5171,2.1183 -1.0659,2.2544 -9.0901,2.2544 -5.2283,0 -9.9027,0.5687 -12.0546,1.4668 -6.4454,2.6898 -6.452,2.7486 -6.452,57.0061 0,43.3178 -0.1701,48.5832 -1.5868,49.1262 -1.7062,0.6539 -275.7036,0.5501 -280.9099,-0.1065 z m 277.481,-49.9145 c 0,-52.3065 -0.102,-51.3565 6.15,-57.2662 4.5611,-4.3115 7.6902,-5.3215 16.4858,-5.3215 h 7.4582 v -197.9113 c 0,-171.4923 -0.196,-198.3799 -1.4686,-201.4219 -2.8659,-6.8509 6.3128,-6.4442 -145.4584,-6.4442 h -136.9601 v 47.6233 c 0,52.3066 0.1021,51.3565 -6.15,57.2663 -4.5611,4.3115 -7.6902,5.3215 -16.4858,5.3215 h -7.4582 v 197.9113 c 0,218.3114 -0.4486,203.4575 6.232,206.3566 2.8032,1.2164 23.8693,1.4369 140.4764,1.4703 l 137.1787,0.039 v -47.6234 z"
       id="path10735"
       inkscape:connector-curvature="0" />
    <path
       style="fill:#dbdbdb"
       d="m 1939.9266,2751.2985 c -1.437,-0.2228 -4.1455,-1.9845 -6.0188,-3.9149 l -3.406,-3.5098 v -202.0816 -202.0817 l 9.5297,-0.5391 c 5.9768,-0.3382 10.6725,-1.1507 12.5947,-2.1792 5.9751,-3.1973 5.9166,-2.6823 6.4649,-56.8959 l 0.5016,-49.595 h 141.1746 141.1746 l 3.7783,3.7738 3.7784,3.7739 v 202.1206 202.1206 l -9.5298,0.5687 c -5.2414,0.3128 -10.805,1.1896 -12.3637,1.9485 -6.1905,3.0138 -6.145,2.6257 -6.6959,57.097 l -0.5015,49.595 -138.9342,0.1021 c -76.4138,0.056 -140.1099,-0.08 -141.5469,-0.303 z m 277.9732,-51.6361 0.5016,-49.8331 4.7745,-4.7679 4.7745,-4.7679 9.7709,-0.5045 9.771,-0.5046 0.271,-197.3781 c 0.3057,-222.6678 0.95,-204.3597 -7.3207,-208.0138 -4.1497,-1.8333 -8.7759,-1.8872 -141.0654,-1.6414 l -136.7751,0.254 -0.5016,49.8332 -0.5016,49.8331 -4.7745,4.7679 -4.7745,4.7679 -9.7709,0.5045 -9.771,0.5046 -0.271,197.3781 c -0.3051,222.2518 -0.9232,204.3099 7.1649,207.982 3.9931,1.813 9.0198,1.8718 141.0685,1.6496 l 136.9278,-0.2305 z"
       id="path10737"
       inkscape:connector-curvature="0" />
    <path
       style="fill:#c1c1c1"
       d="m 1939.9266,2751.2985 c -1.437,-0.2228 -4.1455,-1.9845 -6.0188,-3.9149 l -3.406,-3.5098 v -202.0816 -202.0817 l 10.0772,-0.501 c 10.6855,-0.5311 14.1957,-1.8457 16.7213,-6.2619 0.9833,-1.7195 1.4082,-14.1397 1.7908,-52.3503 l 0.5016,-50.096 h 141.1746 141.1746 l 3.7783,3.7738 3.7784,3.7739 v 202.1206 202.1206 l -10.0773,0.5009 c -10.6855,0.5312 -14.1957,1.8458 -16.7213,6.262 -0.9834,1.7195 -1.4082,14.1397 -1.7908,52.3503 l -0.5015,50.096 -138.9342,0.1021 c -76.4138,0.056 -140.1099,-0.08 -141.5469,-0.303 z m 277.9732,-50.897 c 0.3659,-35.8139 0.8304,-49.6667 1.7172,-51.211 2.097,-3.6518 8.1342,-8.2812 11.5529,-8.8588 1.8049,-0.305 6.2158,-0.6654 9.802,-0.8009 l 6.5204,-0.2464 0.2506,-198.38 c 0.2365,-187.2117 0.1517,-198.5775 -1.5047,-201.8868 -1.003,-2.0037 -3.2602,-4.2584 -5.2663,-5.2605 -3.3003,-1.6485 -11.756,-1.7387 -140.9404,-1.5028 l -137.4294,0.2508 -0.5016,49.0941 c -0.3659,35.8139 -0.8304,49.6667 -1.7172,51.211 -2.0969,3.6518 -8.1342,8.2812 -11.5529,8.8588 -1.8049,0.305 -6.2158,0.6654 -9.802,0.8009 l -6.5204,0.2464 -0.2506,198.38 c -0.2365,187.2117 -0.1518,198.5775 1.5047,201.8868 1.003,2.0036 3.2602,4.2584 5.2663,5.2604 3.3003,1.6486 11.756,1.7388 140.9404,1.5029 l 137.4294,-0.2509 z"
       id="path10739"
       inkscape:connector-curvature="0" />
    <path
       style="fill:#b9b9b9"
       d="m 1939.53,2750.4413 c -2.3002,-1.1224 -2.4184,-1.2927 -0.5016,-0.7226 4.3825,1.3036 276.9367,1.4658 278.5051,0.1657 1.1215,-0.9297 1.3759,-9.8642 1.405,-49.3551 0.031,-41.44 0.251,-48.5721 1.5676,-50.7247 l 1.532,-2.5048 -0.7812,2.5048 c -0.4297,1.3776 -0.9216,24.9352 -1.0931,52.3503 l -0.3119,49.8454 -138.6562,-0.045 c -119.7106,-0.039 -139.0675,-0.2459 -141.6657,-1.5138 z m -8.4107,-8.5585 c -0.8089,-2.3176 -1.1191,-58.4111 -1.1191,-202.345 v -199.1386 l 9.7805,-0.4589 c 5.3794,-0.2525 10.9091,-0.7739 12.2884,-1.1586 l 2.5079,-0.6997 -2.5079,1.5302 c -1.6846,1.0279 -5.1585,1.5418 -10.583,1.5657 -4.8977,0.022 -8.5489,0.5086 -9.279,1.2378 -1.6733,1.6712 -1.7566,393.6749 -0.085,398.4652 0.6155,1.7635 0.8934,3.4318 0.6175,3.7073 -0.2759,0.2756 -1.0052,-0.9419 -1.6207,-2.7054 z m 296.8119,-99.4943 c 1.69,-1.0312 5.1664,-1.5418 10.6608,-1.5657 5.618,-0.024 8.5055,-0.4596 9.2864,-1.3995 1.3025,-1.5674 1.1454,-396.0492 -0.1594,-400.4057 -0.5715,-1.9084 -0.4001,-1.7891 0.7202,0.501 1.2763,2.609 1.4764,29.3445 1.5157,202.5443 l 0.045,199.5385 -9.7806,0.459 c -5.3793,0.2525 -10.9091,0.7738 -12.2884,1.1586 l -2.5078,0.6996 2.5078,-1.5301 z m -269.1878,-310.1924 c 0.4297,-1.3776 0.9216,-24.9352 1.0931,-52.3503 l 0.3119,-49.8455 138.6562,0.045 c 119.7106,0.039 139.0675,0.2459 141.6657,1.5138 2.3002,1.1225 2.4184,1.2928 0.5016,0.7226 -4.3825,-1.3036 -276.9367,-1.4657 -278.5051,-0.1656 -1.1215,0.9296 -1.3759,9.8641 -1.405,49.3551 -0.03,41.4399 -0.2509,48.5721 -1.5676,50.7247 l -1.532,2.5048 0.7812,-2.5048 z"
       id="path10741"
       inkscape:connector-curvature="0" />
    <path
       style="fill:#aeaeae"
       d="m 2078.8672,2751.2489 c 98.8726,-0.1855 137.707,-0.5693 138.6737,-1.3707 1.0801,-0.8952 1.3956,-10.4501 1.6131,-48.8399 l 0.2704,-47.727 0.2409,49.3445 0.2408,49.3445 -139.1849,-0.2468 -139.185,-0.2469 z m -148.6187,-210.904 -0.2483,-200.1334 9.279,0.2016 9.279,0.2016 -7.6852,0.3399 c -4.7332,0.2093 -8.1037,0.8436 -8.7749,1.6514 -0.7743,0.9318 -1.1638,58.7164 -1.3456,199.5919 l -0.2558,198.2804 z m 308.8788,100.7012 c 4.7332,-0.2093 8.1037,-0.8437 8.7749,-1.6514 0.7743,-0.9318 1.1639,-58.7164 1.3456,-199.5919 l 0.2558,-198.2804 0.2483,200.1334 0.2482,200.1334 -9.279,-0.2016 -9.279,-0.2017 z m -278.7923,-361.7012 -0.2408,-49.3446 139.185,0.2469 139.1849,0.2469 -137.331,0.2577 c -98.8726,0.1855 -137.707,0.5693 -138.6737,1.3706 -1.08,0.8953 -1.3956,10.4502 -1.6131,48.84 l -0.2704,47.727 z"
       id="path10743"
       inkscape:connector-curvature="0" />
    <path
       style="fill:#9f9f9f"
       d="m 2079.3687,2751.2489 c 99.8345,-0.1866 138.2054,-0.5667 139.185,-1.3786 1.0399,-0.8621 1.3524,-0.7455 1.3524,0.5045 0,1.4928 -11.3637,1.6054 -139.1849,1.3786 l -139.185,-0.2469 z m -149.1202,-210.904 c -0.2284,-184.0432 -0.1175,-200.1334 1.3792,-200.1334 1.2523,0 1.3685,0.3117 0.5041,1.352 -0.819,0.9857 -1.1928,55.2285 -1.3793,200.1334 l -0.2557,198.7814 z m 317.62,100.0922 c 0.819,-0.9856 1.1928,-55.2285 1.3793,-200.1334 l 0.2558,-198.7813 0.2482,200.1334 c 0.2284,184.0432 0.1175,200.1334 -1.3792,200.1334 -1.2523,0 -1.3685,-0.3117 -0.5041,-1.3521 z m -287.7743,-408.8112 c 0,-1.4928 11.3637,-1.6054 139.185,-1.3787 l 139.1849,0.2469 -137.8325,0.2577 c -99.8345,0.1866 -138.2054,0.5666 -139.185,1.3786 -1.0399,0.862 -1.3524,0.7455 -1.3524,-0.5045 z"
       id="path10745"
       inkscape:connector-curvature="0" />
    <path
       style="fill:#000000"
       d="m 2011.5832,2751.249 c 38.5259,-0.1453 101.272,-0.1453 139.4357,0 38.1638,0.1454 6.6427,0.2643 -70.047,0.2643 -76.6896,0 -107.9145,-0.119 -69.3887,-0.2643 z m -81.0912,-211.1546 c 0,-110.2111 0.1172,-155.1489 0.2605,-99.8616 0.1433,55.2872 0.1432,145.4599 0,200.3838 -0.1433,54.9239 -0.2605,9.6889 -0.2605,-100.5222 z m 318.9968,-98.1881 c 0,-110.2111 0.1172,-155.1489 0.2605,-99.8616 0.1433,55.2872 0.1433,145.4599 0,200.3838 -0.1433,54.9239 -0.2605,9.6889 -0.2605,-100.5222 z m -219.8491,-211.6554 c 38.5258,-0.1453 101.2719,-0.1453 139.4357,1e-4 38.1637,0.1453 6.6426,0.2642 -70.047,0.2642 -76.6897,0 -107.9146,-0.119 -69.3887,-0.2643 z"
       id="path10747"
       inkscape:connector-curvature="0" />
    <path
       transform="translate(0,-1.2207032e-4)"
       inkscape:connector-curvature="0"
       id="path10994"
       d="m 1948.4432,2747.3355 -12.4158,-1.1029 -1.2437,-10.5057 c -0.6841,-5.7781 -1.3287,-96.1266 -1.4326,-200.7744 l -0.1889,-190.2688 9.9409,-1.1774 c 7.0593,-0.836 11.3506,-2.586 14.8035,-6.0368 l 4.8625,-4.8594 0.6207,-49.6826 0.6208,-49.6826 138.4954,0.5373 c 134.5645,0.522 138.5724,0.6425 141.206,4.245 2.2993,3.1454 2.7105,33.7518 2.7105,201.7526 v 198.0448 l -9.7207,0.934 c -7.188,0.6907 -11.044,2.2574 -14.7997,6.0131 l -5.079,5.079 -0.6895,49.6235 -0.6895,49.6236 -127.2926,-0.3297 c -70.0109,-0.1813 -132.8797,-0.826 -139.7083,-1.4326 z m 68.4559,-33.0974 c 19.096,-30.427 22.3293,-38.2844 19.5588,-47.5315 -3.2895,-10.9791 -13.5053,-14.6334 -22.769,-8.1448 -6.1722,4.3231 -6.9115,2.3444 -2.6899,-7.1991 l 3.6612,-8.2768 h -12.8543 -12.8544 l 2.4253,4.7754 c 1.334,2.6264 3.0417,6.7715 3.795,9.2114 1.3533,4.383 1.3002,4.4001 -4.4384,1.4325 -8.0663,-4.1712 -14.1837,-3.7521 -18.8942,1.2943 -6.3718,6.8263 -7.0435,13.3088 -2.4565,23.7068 4.5341,10.2784 30.8829,52.2206 32.8058,52.2206 0.6733,0 7.2931,-9.67 14.7106,-21.4888 z m 173.849,3.4749 c 13.9949,-21.8214 23.2023,-39.7028 23.2023,-45.0605 0,-5.456 -4.9319,-14.5255 -8.6812,-15.9642 -5.1872,-1.9905 -11.4061,-1.3332 -15.3078,1.6179 -5.9341,4.4883 -6.8343,3.4168 -3.56,-4.237 1.6854,-3.9397 3.4255,-8.0226 3.867,-9.0731 0.4875,-1.1601 -4.0812,-1.9102 -11.6342,-1.9102 -6.8403,0 -12.4369,0.5397 -12.4369,1.1994 0,0.6596 1.2893,4.2851 2.8652,8.0566 3.8416,9.1943 3.7312,9.4362 -2.7704,6.0741 -7.5216,-3.8896 -11.9865,-3.6726 -17.7525,0.863 -6.0271,4.7409 -7.5452,12.2818 -4.3433,21.5752 2.7013,7.8408 31.5865,54.8727 33.7006,54.8727 0.714,0 6.4971,-8.1062 12.8512,-18.0139 z m -90.2462,-186.0603 c -1.4218,-2.7964 -3.2049,-7.0912 -3.9623,-9.5442 -1.3504,-4.3728 -1.2834,-4.3983 3.4322,-1.3085 2.9476,1.9313 7.639,2.9184 12.1185,2.5497 6.1804,-0.5087 7.8823,-1.6724 11.0223,-7.5367 3.2321,-6.0364 3.419,-7.9175 1.4423,-14.5149 -2.57,-8.5782 -30.7276,-54.3429 -34.0889,-55.405 -2.5527,-0.8067 -29.0398,40.454 -33.8466,52.725 -5.5319,14.122 0.3773,25.0851 13.5211,25.0851 2.987,0 7.3413,-1.3381 9.6762,-2.9735 5.2987,-3.7114 5.4404,-1.1271 0.4722,8.6114 l -3.7731,7.3959 h 13.2856 13.2856 z m -85.9649,-194.1866 c -0.4415,-1.0505 -2.1816,-5.1334 -3.867,-9.0731 -3.5196,-8.2272 -3.6231,-8.1274 4.3203,-4.1647 9.6104,4.7943 19.9893,-0.2383 22.3133,-10.8194 0.8512,-3.8755 -0.2837,-8.7853 -3.8176,-16.5156 -6.0074,-13.141 -29.3049,-50.158 -31.5681,-50.158 -2.1265,0 -26.1695,38.4289 -31.9788,51.1131 -3.177,6.9368 -4.2259,11.7521 -3.3895,15.5605 2.3259,10.5895 12.703,15.6137 22.3299,10.8112 3.3147,-1.6536 6.3386,-2.6947 6.7198,-2.3136 0.3811,0.3812 -0.9251,4.4678 -2.9027,9.0814 l -3.5957,8.3884 h 13.1194 c 8.008,0 12.8067,-0.7442 12.3167,-1.9102 z m 176.4931,1.3378 c -7e-4,-0.3148 -1.1817,-2.8935 -2.6244,-5.7304 -1.4428,-2.8369 -3.2761,-7.3069 -4.0741,-9.9333 l -1.4509,-4.7753 4.1691,3.7247 c 6.4489,5.7616 16.7936,4.9472 22.578,-1.7776 8.2887,-9.6362 4.7713,-19.3758 -21.9151,-60.6834 -4.5813,-7.0913 -8.9343,-12.8933 -9.6733,-12.8933 -1.4816,0 -26.7266,39.1485 -31.9021,49.4721 -1.7907,3.5719 -3.3345,9.2693 -3.4307,12.6609 -0.3773,13.3119 12.5371,21.9539 22.779,15.2432 6.4237,-4.209 7.2856,-2.8676 3.6888,5.741 -1.6374,3.9188 -2.9749,7.6648 -2.9721,8.3244 0,0.6597 5.5904,1.1994 12.417,1.1994 6.8266,0 12.4115,-0.2576 12.4108,-0.5724 z"
       style="fill:#fff6d5;fill-opacity:1;stroke:none;stroke-width:0.105;stroke-miterlimit:4;stroke-dasharray:none;stroke-opacity:1" />
  </g>
</svg>
