<?xml version="1.0" encoding="UTF-8" standalone="no"?>
<!-- Created with Inkscape (http://www.inkscape.org/) -->

<svg
   id="svg10047"
   height="122.99965"
   width="78.999245"
   version="1.1"
   viewBox="0 0 78.999245 122.99965"
   inkscape:version="0.91 r13725"
   sodipodi:docname="baroque.svgz"
   xmlns:inkscape="http://www.inkscape.org/namespaces/inkscape"
   xmlns:sodipodi="http://sodipodi.sourceforge.net/DTD/sodipodi-0.dtd"
   xmlns="http://www.w3.org/2000/svg"
   xmlns:svg="http://www.w3.org/2000/svg"
   xmlns:rdf="http://www.w3.org/1999/02/22-rdf-syntax-ns#"
   xmlns:cc="http://creativecommons.org/ns#"
   xmlns:dc="http://purl.org/dc/elements/1.1/">
  <sodipodi:namedview
     pagecolor="#ffffff"
     bordercolor="#666666"
     borderopacity="1"
     objecttolerance="10"
     gridtolerance="10"
     guidetolerance="10"
     inkscape:pageopacity="0"
     inkscape:pageshadow="2"
     inkscape:window-width="1920"
     inkscape:window-height="1016"
     id="namedview1491"
     showgrid="false"
     inkscape:zoom="1.3479675"
     inkscape:cx="513.5"
     inkscape:cy="307.5"
     inkscape:window-x="0"
     inkscape:window-y="0"
     inkscape:window-maximized="1"
     inkscape:current-layer="svg10047"
     showguides="false"
     inkscape:guide-bbox="true"
     inkscape:snap-grids="false"
     inkscape:snap-to-guides="false"
     inkscape:showpageshadow="2"
     inkscape:pagecheckerboard="0"
     inkscape:deskcolor="#d1d1d1">
    <inkscape:grid
       type="xygrid"
       id="grid11817"
       originx="-474"
       originy="-368.99891"
       spacingy="1"
       spacingx="1"
       units="px"
       visible="false" />
  </sodipodi:namedview>
  <metadata
     id="metadata16869">
    <rdf:RDF>
      <cc:Work
         rdf:about="">
        <dc:format>image/svg+xml</dc:format>
        <dc:type
           rdf:resource="http://purl.org/dc/dcmitype/StillImage" />
        <dc:title />
      </cc:Work>
    </rdf:RDF>
  </metadata>
  <defs
     id="defs10049" />
  <g
     transform="matrix(0.20788883,0,0,0.21134013,-582.08875,-464.94718)"
     id="spade_7"
     inkscape:label="#spade_7">
    <rect
       width="379.37555"
       height="581.36694"
       rx="31.643513"
       ry="32.297684"
       x="2800.3159"
       y="2200.3105"
       id="rect6364"
       style="fill:#ffffff;stroke:#000000;stroke-width:0.631597" />
    <path
       inkscape:connector-curvature="0"
       id="path6368"
       d="m 2892.2761,2334.3687 c 3.029,-5.73 5.411,-13.84 4.489,-15.28 -0.379,-0.59 -2.667,0.6 -5.084,2.64 -3.417,2.89 -5.596,3.72 -9.791,3.72 -6.477,0 -10.012,-2.16 -12.793,-7.8 -5.099,-10.36 -2.381,-16.78 25.098,-59.31 4.029,-6.24 7.542,-11.34 7.807,-11.34 0.265,0 3.779,5.1 7.808,11.34 27.478,42.53 30.196,48.95 25.098,59.31 -2.781,5.64 -6.316,7.8 -12.793,7.8 -4.196,0 -6.375,-0.83 -9.791,-3.72 -2.417,-2.04 -4.705,-3.23 -5.085,-2.64 -0.921,1.44 1.461,9.55 4.489,15.28 l 2.446,4.63 -3.542,-0.95 c -1.948,-0.53 -5.831,-0.96 -8.63,-0.96 -2.798,0 -6.681,0.43 -8.629,0.96 l -3.542,0.95 z"
       style="fill:#0b0b0b" />
    <path
       inkscape:connector-curvature="0"
       id="path6370"
       d="m 3068.2731,2334.3687 c 3.029,-5.73 5.411,-13.84 4.489,-15.28 -0.379,-0.59 -2.667,0.6 -5.084,2.64 -3.417,2.89 -5.596,3.72 -9.791,3.72 -6.477,0 -10.012,-2.16 -12.793,-7.8 -5.099,-10.36 -2.381,-16.78 25.098,-59.31 4.029,-6.24 7.542,-11.34 7.807,-11.34 0.265,0 3.779,5.1 7.808,11.34 27.478,42.53 30.196,48.95 25.098,59.31 -2.781,5.64 -6.316,7.8 -12.793,7.8 -4.196,0 -6.375,-0.83 -9.791,-3.72 -2.417,-2.04 -4.705,-3.23 -5.085,-2.64 -0.922,1.44 1.46,9.55 4.489,15.28 l 2.446,4.63 -3.542,-0.95 c -1.948,-0.53 -5.831,-0.96 -8.63,-0.96 -2.798,0 -6.681,0.43 -8.629,0.96 l -3.542,0.95 z"
       style="fill:#0b0b0b" />
    <path
       inkscape:connector-curvature="0"
       id="path6372"
       d="m 2911.7251,2647.6287 c -3.029,5.74 -5.411,13.85 -4.489,15.28 0.38,0.6 2.668,-0.59 5.085,-2.64 3.417,-2.89 5.595,-3.72 9.791,-3.72 6.477,0 10.012,2.16 12.792,7.81 5.099,10.35 2.382,16.77 -25.097,59.3 -4.029,6.24 -7.543,11.34 -7.808,11.34 -0.265,0 -3.778,-5.1 -7.807,-11.34 -27.479,-42.53 -30.197,-48.95 -25.098,-59.3 2.781,-5.65 6.316,-7.81 12.793,-7.81 4.195,0 6.374,0.83 9.791,3.72 2.417,2.05 4.705,3.24 5.084,2.64 0.922,-1.43 -1.46,-9.54 -4.489,-15.28 l -2.445,-4.63 3.542,0.95 c 1.948,0.53 5.831,0.96 8.629,0.96 2.799,0 6.682,-0.43 8.63,-0.96 l 3.542,-0.95 z"
       style="fill:#0b0b0b" />
    <path
       inkscape:connector-curvature="0"
       id="path6374"
       d="m 3087.7251,2647.6287 c -3.029,5.74 -5.411,13.85 -4.489,15.28 0.38,0.6 2.668,-0.59 5.085,-2.64 3.417,-2.89 5.595,-3.72 9.791,-3.72 6.477,0 10.012,2.16 12.792,7.81 5.099,10.35 2.382,16.77 -25.097,59.3 -4.029,6.24 -7.543,11.34 -7.808,11.34 -0.265,0 -3.778,-5.1 -7.807,-11.34 -27.479,-42.53 -30.197,-48.95 -25.098,-59.3 2.781,-5.65 6.316,-7.81 12.793,-7.81 4.195,0 6.374,0.83 9.791,3.72 2.417,2.05 4.705,3.24 5.084,2.64 0.922,-1.43 -1.46,-9.54 -4.489,-15.28 l -2.445,-4.63 3.542,0.95 c 1.948,0.53 5.831,0.96 8.629,0.96 2.799,0 6.682,-0.43 8.63,-0.96 l 3.542,-0.95 z"
       style="fill:#0b0b0b" />
    <path
       inkscape:connector-curvature="0"
       id="path6376"
       d="m 2892.2731,2532.3687 c 3.029,-5.73 5.411,-13.84 4.489,-15.28 -0.379,-0.59 -2.667,0.6 -5.084,2.64 -3.417,2.89 -5.596,3.72 -9.791,3.72 -6.477,0 -10.012,-2.16 -12.793,-7.8 -5.099,-10.36 -2.381,-16.78 25.098,-59.31 4.029,-6.24 7.542,-11.34 7.807,-11.34 0.265,0 3.779,5.1 7.808,11.34 27.478,42.53 30.196,48.95 25.097,59.31 -2.78,5.64 -6.315,7.8 -12.792,7.8 -4.196,0 -6.375,-0.83 -9.791,-3.72 -2.417,-2.04 -4.705,-3.23 -5.085,-2.64 -0.922,1.44 1.46,9.55 4.489,15.28 l 2.446,4.63 -3.542,-0.95 c -1.948,-0.53 -5.831,-0.96 -8.63,-0.96 -2.798,0 -6.681,0.43 -8.629,0.96 l -3.542,0.95 z"
       style="fill:#0b0b0b" />
    <path
       inkscape:connector-curvature="0"
       id="path6378"
       d="m 3068.2731,2532.3687 c 3.029,-5.73 5.411,-13.84 4.489,-15.28 -0.379,-0.59 -2.667,0.6 -5.084,2.64 -3.417,2.89 -5.596,3.72 -9.791,3.72 -6.477,0 -10.012,-2.16 -12.793,-7.8 -5.099,-10.36 -2.381,-16.78 25.098,-59.31 4.029,-6.24 7.542,-11.34 7.807,-11.34 0.265,0 3.779,5.1 7.808,11.34 27.478,42.53 30.196,48.95 25.097,59.31 -2.78,5.64 -6.315,7.8 -12.792,7.8 -4.196,0 -6.375,-0.83 -9.791,-3.72 -2.417,-2.04 -4.705,-3.23 -5.085,-2.64 -0.922,1.44 1.46,9.55 4.489,15.28 l 2.446,4.63 -3.542,-0.95 c -1.948,-0.53 -5.831,-0.96 -8.63,-0.96 -2.798,0 -6.681,0.43 -8.629,0.96 l -3.542,0.95 z"
       style="fill:#0b0b0b" />
    <path
       inkscape:connector-curvature="0"
       id="path6380"
       d="m 2980.2731,2433.3687 c 3.029,-5.73 5.411,-13.84 4.489,-15.28 -0.379,-0.59 -2.667,0.6 -5.084,2.64 -3.417,2.89 -5.596,3.72 -9.791,3.72 -6.477,0 -10.012,-2.16 -12.793,-7.8 -5.099,-10.36 -2.381,-16.78 25.098,-59.31 4.029,-6.24 7.542,-11.34 7.807,-11.34 0.265,0 3.779,5.1 7.808,11.34 27.478,42.53 30.196,48.95 25.098,59.31 -2.781,5.64 -6.316,7.8 -12.793,7.8 -4.196,0 -6.375,-0.83 -9.791,-3.72 -2.417,-2.04 -4.705,-3.23 -5.085,-2.64 -0.922,1.44 1.46,9.55 4.489,15.28 l 2.446,4.63 -3.542,-0.95 c -1.948,-0.53 -5.831,-0.96 -8.63,-0.96 -2.798,0 -6.681,0.43 -8.629,0.96 l -3.542,0.95 z"
       style="fill:#0b0b0b" />
    <path
       style="fill:#0b0b0b"
       d="m 3146.2321,2652.2497 c -1.303,2.49 -2.328,6.01 -1.932,6.64 0.164,0.26 1.148,-0.26 2.188,-1.15 1.47,-1.26 2.407,-1.62 4.212,-1.62 2.786,0 4.306,0.94 5.502,3.4 2.194,4.5 1.025,7.29 -10.796,25.78 -1.733,2.71 -3.244,4.93 -3.358,4.93 -0.115,0 -1.626,-2.22 -3.359,-4.93 -11.82,-18.49 -12.989,-21.28 -10.796,-25.78 1.196,-2.46 2.717,-3.4 5.503,-3.4 1.805,0 2.742,0.36 4.212,1.62 1.04,0.89 2.024,1.41 2.187,1.15 0.397,-0.63 -0.628,-4.15 -1.931,-6.64 l -1.052,-2.02 1.524,0.42 c 0.838,0.22 2.508,3.21 3.712,3.21 1.204,0 2.874,-2.99 3.712,-3.21 l 1.524,-0.42 z"
       id="path6382"
       inkscape:connector-curvature="0"
       sodipodi:nodetypes="scsscssscsccsccsccs" />
    <path
       style="fill:#0b0b0b"
       d="m 2833.8711,2326.1237 c 1.303,-2.5 2.327,-6.02 1.931,-6.65 -0.163,-0.25 -1.147,0.26 -2.187,1.15 -1.47,1.26 -2.407,1.62 -4.212,1.62 -2.786,0 -4.307,-0.94 -5.503,-3.39 -2.193,-4.51 -1.024,-7.3 10.796,-25.79 1.733,-2.71 3.245,-4.93 3.359,-4.93 0.113,0 1.625,2.22 3.358,4.93 11.821,18.49 12.99,21.28 10.796,25.79 -1.196,2.45 -2.716,3.39 -5.503,3.39 -1.804,0 -2.742,-0.36 -4.211,-1.62 -1.04,-0.89 -2.024,-1.4 -2.187,-1.15 -0.397,0.63 0.628,4.15 1.93,6.65 l 1.052,2.01 -1.523,-0.41 c -0.838,-0.23 -2.509,-3.22 -3.712,-3.22 -1.204,0 -2.874,2.99 -3.712,3.22 l -1.524,0.41 z"
       id="path6384"
       inkscape:connector-curvature="0"
       sodipodi:nodetypes="scsscssscsccsccsccs" />
    <path
       inkscape:connector-curvature="0"
       id="path6386"
       d="m 3152.9161,2702.8557 c 0,2.735 -0.09,2.818 -3.13,2.818 h -3.13 l -0.541,4.761 c -0.853,7.506 -3.474,15.88 -7.802,24.931 -2.198,4.596 -3.996,8.491 -3.996,8.656 0,0.164 3.821,0.299 8.491,0.299 h 8.491 v -3.221 c 0,-3.144 0.07,-3.221 2.83,-3.221 h 2.83 v 6.039 6.039 h -14.959 -14.96 v -1.951 c 0,-1.073 1.432,-4.606 3.182,-7.851 5.342,-9.903 9.756,-23.922 9.756,-30.987 0,-3.457 -0.03,-3.495 -2.83,-3.495 -2.696,0 -2.83,-0.134 -2.83,-2.818 v -2.818 h 9.299 9.299 v 2.818 z"
       style="fill:#000000;fill-opacity:1;stroke:#fffecd;stroke-width:0.0806888;stroke-miterlimit:4;stroke-dasharray:none;stroke-opacity:1" />
    <path
       inkscape:connector-curvature="0"
       id="path6388"
       d="m 2827.0831,2279.1357 c 0,-2.736 0.09,-2.818 3.13,-2.818 h 3.13 l 0.541,-4.762 c 0.853,-7.506 3.473,-15.88 7.802,-24.931 2.197,-4.596 3.995,-8.491 3.995,-8.656 0,-0.164 -3.82,-0.299 -8.49,-0.299 h -8.491 v 3.221 c 0,3.144 -0.07,3.221 -2.83,3.221 h -2.83 v -6.039 -6.039 h 14.959 14.96 v 1.951 c 0,1.073 -1.432,4.606 -3.182,7.851 -5.342,9.903 -9.756,23.922 -9.756,30.987 0,3.457 0.03,3.495 2.83,3.495 2.696,0 2.83,0.134 2.83,2.818 v 2.818 h -9.299 -9.299 z"
       style="fill:#000000;fill-opacity:1;stroke:#fffecd;stroke-width:0.0806888;stroke-miterlimit:4;stroke-dasharray:none;stroke-opacity:1" />
    <path
       style="fill:#e2e2e2"
       d="m 2839.4157,2751.2857 c -1.7894,-0.2256 -4.3602,-1.683 -6.0188,-3.412 l -2.8951,-3.0182 -0.2805,-201.0696 c -0.1543,-110.5883 -0.033,-202.0841 0.2699,-203.324 0.5171,-2.1182 1.0659,-2.2543 9.0901,-2.2543 5.2283,0 9.9027,-0.5688 12.0546,-1.4668 6.4464,-2.6902 6.452,-2.7398 6.452,-57.0942 v -48.6062 l 2.2571,-0.5528 c 1.2414,-0.304 65.3331,-0.4253 142.426,-0.2695 l 140.169,0.2832 3.2793,3.2754 3.2793,3.2754 0.2804,201.1162 c 0.1543,110.6138 0.033,202.1306 -0.2699,203.3704 -0.5171,2.1183 -1.0659,2.2544 -9.0901,2.2544 -5.2283,0 -9.9027,0.5687 -12.0546,1.4668 -6.4454,2.6898 -6.452,2.7486 -6.452,57.0061 0,43.3178 -0.1701,48.5832 -1.5868,49.1262 -1.7062,0.6539 -275.7036,0.5501 -280.9099,-0.1065 z m 277.481,-49.9145 c 0,-52.3065 -0.102,-51.3565 6.15,-57.2662 4.5611,-4.3115 7.6902,-5.3215 16.4858,-5.3215 h 7.4582 v -197.9113 c 0,-171.4923 -0.196,-198.3799 -1.4686,-201.4219 -2.8659,-6.8509 6.3128,-6.4442 -145.4584,-6.4442 h -136.9601 v 47.6233 c 0,52.3066 0.1021,51.3565 -6.15,57.2663 -4.5611,4.3115 -7.6902,5.3215 -16.4858,5.3215 h -7.4582 v 197.9113 c 0,218.3114 -0.4486,203.4575 6.232,206.3566 2.8032,1.2164 23.8693,1.4369 140.4764,1.4703 l 137.1787,0.039 v -47.6234 z"
       id="path10767"
       inkscape:connector-curvature="0" />
    <path
       style="fill:#dbdbdb"
       d="m 2839.9266,2751.2985 c -1.437,-0.2228 -4.1455,-1.9845 -6.0188,-3.9149 l -3.406,-3.5098 v -202.0816 -202.0817 l 9.5297,-0.5391 c 5.9768,-0.3382 10.6725,-1.1507 12.5947,-2.1792 5.9751,-3.1973 5.9166,-2.6823 6.4649,-56.8959 l 0.5016,-49.595 h 141.1746 141.1746 l 3.7783,3.7738 3.7784,3.7739 v 202.1206 202.1206 l -9.5298,0.5687 c -5.2414,0.3128 -10.805,1.1896 -12.3637,1.9485 -6.1905,3.0138 -6.145,2.6257 -6.6959,57.097 l -0.5015,49.595 -138.9342,0.1021 c -76.4138,0.056 -140.1099,-0.08 -141.5469,-0.303 z m 277.9732,-51.6361 0.5016,-49.8331 4.7745,-4.7679 4.7745,-4.7679 9.7709,-0.5045 9.771,-0.5046 0.271,-197.3781 c 0.3057,-222.6678 0.95,-204.3597 -7.3207,-208.0138 -4.1497,-1.8333 -8.7759,-1.8872 -141.0654,-1.6414 l -136.7751,0.254 -0.5016,49.8332 -0.5016,49.8331 -4.7745,4.7679 -4.7745,4.7679 -9.7709,0.5045 -9.771,0.5046 -0.271,197.3781 c -0.3051,222.2518 -0.9232,204.3099 7.1649,207.982 3.9931,1.813 9.0198,1.8718 141.0685,1.6496 l 136.9278,-0.2305 z"
       id="path10769"
       inkscape:connector-curvature="0" />
    <path
       style="fill:#c1c1c1"
       d="m 2839.9266,2751.2985 c -1.437,-0.2228 -4.1455,-1.9845 -6.0188,-3.9149 l -3.406,-3.5098 v -202.0816 -202.0817 l 10.0772,-0.501 c 10.6855,-0.5311 14.1957,-1.8457 16.7213,-6.2619 0.9833,-1.7195 1.4082,-14.1397 1.7908,-52.3503 l 0.5016,-50.096 h 141.1746 141.1746 l 3.7783,3.7738 3.7784,3.7739 v 202.1206 202.1206 l -10.0773,0.5009 c -10.6855,0.5312 -14.1957,1.8458 -16.7213,6.262 -0.9834,1.7195 -1.4082,14.1397 -1.7908,52.3503 l -0.5015,50.096 -138.9342,0.1021 c -76.4138,0.056 -140.1099,-0.08 -141.5469,-0.303 z m 277.9732,-50.897 c 0.3659,-35.8139 0.8304,-49.6667 1.7172,-51.211 2.097,-3.6518 8.1342,-8.2812 11.5529,-8.8588 1.8049,-0.305 6.2158,-0.6654 9.802,-0.8009 l 6.5204,-0.2464 0.2506,-198.38 c 0.2365,-187.2117 0.1517,-198.5775 -1.5047,-201.8868 -1.003,-2.0037 -3.2602,-4.2584 -5.2663,-5.2605 -3.3003,-1.6485 -11.756,-1.7387 -140.9404,-1.5028 l -137.4294,0.2508 -0.5016,49.0941 c -0.3659,35.8139 -0.8304,49.6667 -1.7172,51.211 -2.0969,3.6518 -8.1342,8.2812 -11.5529,8.8588 -1.8049,0.305 -6.2158,0.6654 -9.802,0.8009 l -6.5204,0.2464 -0.2506,198.38 c -0.2365,187.2117 -0.1518,198.5775 1.5047,201.8868 1.003,2.0036 3.2602,4.2584 5.2663,5.2604 3.3003,1.6486 11.756,1.7388 140.9404,1.5029 l 137.4294,-0.2509 z"
       id="path10771"
       inkscape:connector-curvature="0" />
    <path
       style="fill:#b9b9b9"
       d="m 2839.53,2750.4413 c -2.3002,-1.1224 -2.4184,-1.2927 -0.5016,-0.7226 4.3825,1.3036 276.9367,1.4658 278.5051,0.1657 1.1215,-0.9297 1.3759,-9.8642 1.405,-49.3551 0.031,-41.44 0.251,-48.5721 1.5676,-50.7247 l 1.532,-2.5048 -0.7812,2.5048 c -0.4297,1.3776 -0.9216,24.9352 -1.0931,52.3503 l -0.3119,49.8454 -138.6562,-0.045 c -119.7106,-0.039 -139.0675,-0.2459 -141.6657,-1.5138 z m -8.4107,-8.5585 c -0.8089,-2.3176 -1.1191,-58.4111 -1.1191,-202.345 v -199.1386 l 9.7805,-0.4589 c 5.3794,-0.2525 10.9091,-0.7739 12.2884,-1.1586 l 2.5079,-0.6997 -2.5079,1.5302 c -1.6846,1.0279 -5.1585,1.5418 -10.583,1.5657 -4.8977,0.022 -8.5489,0.5086 -9.279,1.2378 -1.6733,1.6712 -1.7566,393.6749 -0.085,398.4652 0.6155,1.7635 0.8934,3.4318 0.6175,3.7073 -0.2759,0.2756 -1.0052,-0.9419 -1.6207,-2.7054 z m 296.8119,-99.4943 c 1.69,-1.0312 5.1664,-1.5418 10.6608,-1.5657 5.618,-0.024 8.5055,-0.4596 9.2864,-1.3995 1.3025,-1.5674 1.1454,-396.0492 -0.1594,-400.4057 -0.5715,-1.9084 -0.4001,-1.7891 0.7202,0.501 1.2763,2.609 1.4764,29.3445 1.5157,202.5443 l 0.045,199.5385 -9.7806,0.459 c -5.3793,0.2525 -10.9091,0.7738 -12.2884,1.1586 l -2.5078,0.6996 2.5078,-1.5301 z m -269.1878,-310.1924 c 0.4297,-1.3776 0.9216,-24.9352 1.0931,-52.3503 l 0.3119,-49.8455 138.6562,0.045 c 119.7106,0.039 139.0675,0.2459 141.6657,1.5138 2.3002,1.1225 2.4184,1.2928 0.5016,0.7226 -4.3825,-1.3036 -276.9367,-1.4657 -278.5051,-0.1656 -1.1215,0.9296 -1.3759,9.8641 -1.405,49.3551 -0.03,41.4399 -0.2509,48.5721 -1.5676,50.7247 l -1.532,2.5048 0.7812,-2.5048 z"
       id="path10773"
       inkscape:connector-curvature="0" />
    <path
       style="fill:#aeaeae"
       d="m 2978.8672,2751.2489 c 98.8726,-0.1855 137.707,-0.5693 138.6737,-1.3707 1.0801,-0.8952 1.3956,-10.4501 1.6131,-48.8399 l 0.2704,-47.727 0.2409,49.3445 0.2408,49.3445 -139.1849,-0.2468 -139.185,-0.2469 z m -148.6187,-210.904 -0.2483,-200.1334 9.279,0.2016 9.279,0.2016 -7.6852,0.3399 c -4.7332,0.2093 -8.1037,0.8436 -8.7749,1.6514 -0.7743,0.9318 -1.1638,58.7164 -1.3456,199.5919 l -0.2558,198.2804 z m 308.8788,100.7012 c 4.7332,-0.2093 8.1037,-0.8437 8.7749,-1.6514 0.7743,-0.9318 1.1639,-58.7164 1.3456,-199.5919 l 0.2558,-198.2804 0.2483,200.1334 0.2482,200.1334 -9.279,-0.2016 -9.279,-0.2017 z m -278.7923,-361.7012 -0.2408,-49.3446 139.185,0.2469 139.1849,0.2469 -137.331,0.2577 c -98.8726,0.1855 -137.707,0.5693 -138.6737,1.3706 -1.08,0.8953 -1.3956,10.4502 -1.6131,48.84 l -0.2704,47.727 z"
       id="path10775"
       inkscape:connector-curvature="0" />
    <path
       style="fill:#9f9f9f"
       d="m 2979.3687,2751.2489 c 99.8345,-0.1866 138.2054,-0.5667 139.185,-1.3786 1.0399,-0.8621 1.3524,-0.7455 1.3524,0.5045 0,1.4928 -11.3637,1.6054 -139.1849,1.3786 l -139.185,-0.2469 z m -149.1202,-210.904 c -0.2284,-184.0432 -0.1175,-200.1334 1.3792,-200.1334 1.2523,0 1.3685,0.3117 0.5041,1.352 -0.819,0.9857 -1.1928,55.2285 -1.3793,200.1334 l -0.2557,198.7814 z m 317.62,100.0922 c 0.819,-0.9856 1.1928,-55.2285 1.3793,-200.1334 l 0.2558,-198.7813 0.2482,200.1334 c 0.2284,184.0432 0.1175,200.1334 -1.3792,200.1334 -1.2523,0 -1.3685,-0.3117 -0.5041,-1.3521 z m -287.7743,-408.8112 c 0,-1.4928 11.3637,-1.6054 139.185,-1.3787 l 139.1849,0.2469 -137.8325,0.2577 c -99.8345,0.1866 -138.2054,0.5666 -139.185,1.3786 -1.0399,0.862 -1.3524,0.7455 -1.3524,-0.5045 z"
       id="path10777"
       inkscape:connector-curvature="0" />
    <path
       style="fill:#000000"
       d="m 2911.5832,2751.249 c 38.5259,-0.1453 101.272,-0.1453 139.4357,0 38.1638,0.1454 6.6427,0.2643 -70.047,0.2643 -76.6896,0 -107.9145,-0.119 -69.3887,-0.2643 z m -81.0912,-211.1546 c 0,-110.2111 0.1172,-155.1489 0.2605,-99.8616 0.1433,55.2872 0.1432,145.4599 0,200.3838 -0.1433,54.9239 -0.2605,9.6889 -0.2605,-100.5222 z m 318.9968,-98.1881 c 0,-110.2111 0.1172,-155.1489 0.2605,-99.8616 0.1433,55.2872 0.1433,145.4599 0,200.3838 -0.1433,54.9239 -0.2605,9.6889 -0.2605,-100.5222 z m -219.8491,-211.6554 c 38.5258,-0.1453 101.2719,-0.1453 139.4357,1e-4 38.1637,0.1453 6.6426,0.2642 -70.047,0.2642 -76.6897,0 -107.9146,-0.119 -69.3887,-0.2643 z"
       id="path10779"
       inkscape:connector-curvature="0" />
    <path
       transform="translate(0,-1.2207032e-4)"
       inkscape:connector-curvature="0"
       id="path10990"
       d="m 2848.7601,2747.6947 c -8.7418,-0.5055 -12.17,-1.5175 -13.3341,-3.9364 -0.8618,-1.7908 -1.8488,-92.3092 -2.1933,-201.1521 l -0.6264,-197.896 10.0531,-1.1906 c 7.1711,-0.8493 11.4469,-2.5836 14.9155,-6.0499 l 4.8625,-4.8592 0.5683,-49.6829 0.5683,-49.6829 138.1008,0.5374 c 113.6531,0.4422 138.6597,1.0014 141.2584,3.1589 2.8998,2.4075 3.1576,18.8817 3.1576,201.7526 v 199.131 l -9.71,0.933 c -6.5011,0.6247 -11.0777,2.2995 -13.8484,5.0678 -3.9806,3.9771 -4.1748,6.0453 -5.0935,54.2261 l -0.955,50.0913 -127.9783,0.1161 c -70.3881,0.064 -133.2736,-0.1901 -139.7455,-0.5642 z m 66.195,-30.4028 c 14.5128,-22.629 22.9322,-38.9494 22.9322,-44.4526 0,-5.6161 -4.8781,-14.6917 -8.6811,-16.151 -5.1872,-1.9905 -11.4062,-1.3332 -15.3079,1.6179 -5.9341,4.4883 -6.8343,3.4168 -3.56,-4.237 1.6854,-3.9397 3.4255,-8.0226 3.867,-9.0731 0.4875,-1.1601 -4.0812,-1.9102 -11.6342,-1.9102 -6.8403,0 -12.4369,0.5397 -12.4369,1.1994 0,0.6596 1.2893,4.2851 2.8652,8.0566 3.8443,9.2007 3.6538,9.8463 -1.8429,6.2447 -8.9923,-5.892 -18.7755,-2.9094 -22.9393,6.9934 -4.1711,9.9203 -1.3559,16.5024 24.897,58.2087 4.1332,6.566 8.078,11.9382 8.7663,11.9382 0.6884,0 6.5719,-8.2957 13.0746,-18.435 z m 182.2506,-10.0821 c 7.9521,-13.0579 14.9965,-26.6103 15.6542,-30.1162 3.0158,-16.0756 -11.2465,-27.3046 -23.6478,-18.6184 -3.9187,2.7448 -4.2401,2.7081 -4.1776,-0.4775 0.037,-1.898 1.2961,-5.5999 2.7975,-8.2263 1.5014,-2.6264 2.7603,-5.2051 2.7975,-5.7304 0.037,-0.5253 -5.5194,-0.9551 -12.3481,-0.9551 -13.1029,0 -14.0018,0.8091 -9.5506,8.5956 4.4529,7.7896 3.7168,10.548 -1.843,6.9051 -6.7251,-4.4065 -13.8374,-3.8142 -19.2552,1.6036 -9.3575,9.3575 -5.713,21.1484 17.6787,57.1955 10.4066,16.0368 12.6608,18.501 14.8523,16.2361 1.4211,-1.4686 9.09,-13.354 17.0421,-26.412 z m -185.13,-175.9143 c -1.5622,-3.0209 -2.8403,-6.8245 -2.8403,-8.4525 0,-3.3212 2.9683,-3.9738 4.7753,-1.0499 2.0486,3.3147 15.373,2.2095 18.7825,-1.558 5.668,-6.263 5.923,-14.4341 0.7999,-25.6247 -5.851,-12.7802 -29.3457,-49.2223 -31.7343,-49.2223 -1.8832,0 -24.0384,34.102 -30.4108,46.8093 -6.0843,12.1327 -6.2302,21.8704 -0.415,27.6856 4.6113,4.6113 14.6236,5.0232 20.5863,0.8467 5.0205,-3.5165 5.3668,-1.4982 1.3801,8.0434 -1.5759,3.7716 -2.8652,7.0857 -2.8652,7.3646 0,0.279 5.5759,0.5394 12.3909,0.5788 l 12.3908,0.071 -2.8402,-5.4924 v 0 z m 178.6215,4.6496 c 0,-0.3584 -1.4434,-3.6784 -3.2075,-7.3778 -3.3026,-6.9255 -2.293,-11.1286 1.7112,-7.1244 1.2432,1.2432 5.4643,2.2603 9.3802,2.2603 13.7067,0 18.8288,-13.5746 11.0201,-29.2055 -7.6545,-15.3222 -29.3676,-49.1096 -31.5597,-49.1096 -2.0337,0 -24.8669,35.0314 -31.9972,49.0909 -4.359,8.595 -4.0005,19.8971 0.7945,25.0438 4.7484,5.0968 16.1542,5.6435 21.264,1.0192 4.3145,-3.9046 4.5282,-1.1034 0.628,8.2311 -1.5759,3.7716 -2.8652,7.0747 -2.8652,7.3404 0,0.2657 5.5871,0.483 12.4158,0.483 6.8287,0 12.4158,-0.2931 12.4158,-0.6514 z m -90.8284,-104.8215 c -3.8312,-9.1696 -3.62,-11.1576 0.927,-8.7242 7.0786,3.7884 16.7182,2.3857 20.9983,-3.0555 5.1306,-6.5225 4.9749,-12.7612 -0.618,-24.7727 -5.4925,-11.7958 -29.0944,-48.5095 -31.185,-48.5095 -1.5656,0 -26.5801,38.5503 -31.854,49.0908 -3.8867,7.7679 -3.9267,19.4945 -0.085,24.979 2.2783,3.2528 4.8684,4.2453 11.0787,4.2453 4.4579,0 9.1224,-1.0172 10.3656,-2.2603 3.8644,-3.8645 4.5935,-0.3874 1.4808,7.0624 -1.6374,3.9188 -2.9771,7.45 -2.9771,7.8469 0,0.397 5.5432,0.7218 12.3183,0.7218 h 12.3184 l -2.7678,-6.624 z m -84.9018,-92.3197 c -7e-4,-0.3148 -1.1816,-2.8935 -2.6244,-5.7304 -1.4428,-2.8369 -3.2761,-7.3069 -4.0741,-9.9333 l -1.4509,-4.7753 4.1691,3.7247 c 6.3405,5.6647 16.795,4.9455 22.3728,-1.5391 5.729,-6.6603 5.6964,-13.0624 -0.1276,-25.1071 -6.0535,-12.5192 -28.2337,-47.2658 -30.6819,-48.0649 -1.0506,-0.3429 -6.7374,6.8932 -12.6374,16.0802 -23.6452,36.8183 -26.9985,46.1511 -20.2714,56.4179 4.2247,6.4478 13.4046,8.413 19.7813,4.2349 6.4237,-4.209 7.2856,-2.8676 3.6888,5.741 -1.6374,3.9188 -2.9748,7.6648 -2.9721,8.3244 0,0.6597 5.5904,1.1994 12.417,1.1994 6.8266,0 12.4115,-0.2576 12.4108,-0.5724 z m 175.7302,0.3281 c 0,-0.1343 -1.2893,-3.3301 -2.8652,-7.1016 -4.1724,-9.9859 -3.6316,-11.104 3.6833,-7.6158 5.4347,2.5917 7.5042,2.7269 12.168,0.7951 11.4296,-4.7343 12.6339,-15.7435 3.6067,-32.9702 -8.1774,-15.6051 -27.535,-45.5097 -29.4432,-45.4855 -1.6534,0.021 -22.3157,32.16 -29.9504,46.5862 -8.433,15.9346 -5.5962,30.0066 6.5884,32.6828 3.9757,0.8732 7.3387,0.2706 10.6691,-1.9115 6.5067,-4.2634 7.8037,-2.343 3.9192,5.8029 -1.7641,3.6995 -3.2075,7.3418 -3.2075,8.0941 0,0.7523 5.5871,1.3678 12.4158,1.3678 6.8287,0 12.4158,-0.1099 12.4158,-0.2443 z"
       style="fill:#fff6d5;fill-opacity:1;stroke:none;stroke-width:0.105;stroke-miterlimit:4;stroke-dasharray:none;stroke-opacity:1" />
  </g>
</svg>
