<?xml version="1.0" encoding="UTF-8" standalone="no"?>
<!-- Created with Inkscape (http://www.inkscape.org/) -->

<svg
   id="svg10047"
   height="122.99965"
   width="78.999245"
   version="1.1"
   viewBox="0 0 78.999245 122.99965"
   inkscape:version="0.91 r13725"
   sodipodi:docname="baroque.svgz"
   xmlns:inkscape="http://www.inkscape.org/namespaces/inkscape"
   xmlns:sodipodi="http://sodipodi.sourceforge.net/DTD/sodipodi-0.dtd"
   xmlns="http://www.w3.org/2000/svg"
   xmlns:svg="http://www.w3.org/2000/svg"
   xmlns:rdf="http://www.w3.org/1999/02/22-rdf-syntax-ns#"
   xmlns:cc="http://creativecommons.org/ns#"
   xmlns:dc="http://purl.org/dc/elements/1.1/">
  <sodipodi:namedview
     pagecolor="#ffffff"
     bordercolor="#666666"
     borderopacity="1"
     objecttolerance="10"
     gridtolerance="10"
     guidetolerance="10"
     inkscape:pageopacity="0"
     inkscape:pageshadow="2"
     inkscape:window-width="1920"
     inkscape:window-height="1016"
     id="namedview1491"
     showgrid="false"
     inkscape:zoom="1.3479675"
     inkscape:cx="513.5"
     inkscape:cy="307.5"
     inkscape:window-x="0"
     inkscape:window-y="0"
     inkscape:window-maximized="1"
     inkscape:current-layer="svg10047"
     showguides="false"
     inkscape:guide-bbox="true"
     inkscape:snap-grids="false"
     inkscape:snap-to-guides="false"
     inkscape:showpageshadow="2"
     inkscape:pagecheckerboard="0"
     inkscape:deskcolor="#d1d1d1">
    <inkscape:grid
       type="xygrid"
       id="grid11817"
       originx="-79"
       originy="-369.00035"
       spacingy="1"
       spacingx="1"
       units="px"
       visible="false" />
  </sodipodi:namedview>
  <metadata
     id="metadata16869">
    <rdf:RDF>
      <cc:Work
         rdf:about="">
        <dc:format>image/svg+xml</dc:format>
        <dc:type
           rdf:resource="http://purl.org/dc/dcmitype/StillImage" />
        <dc:title />
      </cc:Work>
    </rdf:RDF>
  </metadata>
  <defs
     id="defs10049" />
  <g
     transform="matrix(0.20788883,0,0,0.21134013,-114.33886,-464.9478)"
     id="spade_2"
     inkscape:label="#spade_2">
    <rect
       width="379.37555"
       height="581.36694"
       rx="31.643513"
       ry="32.297684"
       x="550.3158"
       y="2200.3135"
       id="rect6134"
       style="fill:#ffffff;stroke:#000000;stroke-width:0.631597" />
    <path
       style="fill:#0b0b0b"
       d="m 730.27614,2334.3687 c 3.029,-5.73 5.411,-13.84 4.49,-15.28 -0.38,-0.59 -2.668,0.6 -5.085,2.64 -3.417,2.89 -5.595,3.72 -9.791,3.72 -6.477,0 -10.012,-2.16 -12.793,-7.8 -5.098,-10.36 -2.381,-16.78 25.098,-59.31 4.029,-6.24 7.543,-11.34 7.807,-11.34 0.266,0 3.779,5.1 7.808,11.34 27.479,42.53 30.196,48.95 25.098,59.31 -2.781,5.64 -6.316,7.8 -12.793,7.8 -4.195,0 -6.374,-0.83 -9.791,-3.72 -2.417,-2.04 -4.705,-3.23 -5.084,-2.64 -0.922,1.44 1.46,9.55 4.488,15.28 l 2.446,4.63 -3.542,-0.95 c -1.948,-0.53 -5.831,-0.96 -8.63,-0.96 -2.798,0 -6.681,0.43 -8.629,0.96 l -3.542,0.95 z"
       id="path6138"
       inkscape:connector-curvature="0" />
    <path
       style="fill:#0b0b0b"
       d="m 749.72614,2647.6287 c -3.029,5.74 -5.411,13.85 -4.49,15.28 0.38,0.6 2.668,-0.59 5.085,-2.64 3.417,-2.89 5.595,-3.72 9.791,-3.72 6.477,0 10.012,2.16 12.793,7.81 5.098,10.35 2.381,16.77 -25.098,59.3 -4.029,6.24 -7.543,11.34 -7.807,11.34 -0.266,0 -3.779,-5.1 -7.808,-11.34 -27.479,-42.53 -30.196,-48.95 -25.098,-59.3 2.781,-5.65 6.316,-7.81 12.793,-7.81 4.195,0 6.374,0.83 9.791,3.72 2.417,2.05 4.705,3.24 5.084,2.64 0.922,-1.43 -1.46,-9.54 -4.488,-15.28 l -2.446,-4.63 3.542,0.95 c 1.948,0.53 5.831,0.96 8.63,0.96 2.798,0 6.681,-0.43 8.629,-0.96 l 3.542,-0.95 z"
       id="path6140"
       inkscape:connector-curvature="0" />
    <path
       sodipodi:nodetypes="scsscssscsccsccsccs"
       inkscape:connector-curvature="0"
       id="path6142"
       d="m 896.23214,2652.2497 c -1.303,2.49 -2.328,6.01 -1.931,6.64 0.163,0.26 1.147,-0.26 2.187,-1.15 1.47,-1.26 2.407,-1.62 4.212,-1.62 2.786,0 4.306,0.94 5.503,3.4 2.193,4.5 1.024,7.29 -10.797,25.78 -1.733,2.71 -3.244,4.93 -3.358,4.93 -0.113,0 -1.625,-2.22 -3.359,-4.93 -11.82,-18.49 -12.989,-21.28 -10.796,-25.78 1.197,-2.46 2.717,-3.4 5.503,-3.4 1.805,0 2.742,0.36 4.212,1.62 1.04,0.89 2.024,1.41 2.187,1.15 0.397,-0.63 -0.628,-4.15 -1.931,-6.64 l -1.052,-2.02 1.524,0.42 c 0.838,0.22 2.508,3.21 3.712,3.21 1.204,0 2.874,-2.99 3.712,-3.21 l 1.524,-0.42 z"
       style="fill:#0b0b0b" />
    <path
       sodipodi:nodetypes="scsscssscsccsccsccs"
       inkscape:connector-curvature="0"
       id="path6144"
       d="m 583.87114,2326.1237 c 1.303,-2.5 2.328,-6.02 1.931,-6.65 -0.163,-0.25 -1.147,0.26 -2.187,1.15 -1.47,1.26 -2.407,1.62 -4.212,1.62 -2.786,0 -4.306,-0.94 -5.503,-3.39 -2.193,-4.51 -1.024,-7.3 10.796,-25.79 1.734,-2.71 3.245,-4.93 3.359,-4.93 0.115,0 1.625,2.22 3.359,4.93 11.82,18.49 12.989,21.28 10.796,25.79 -1.197,2.45 -2.717,3.39 -5.503,3.39 -1.805,0 -2.742,-0.36 -4.212,-1.62 -1.04,-0.89 -2.024,-1.4 -2.187,-1.15 -0.397,0.63 0.628,4.15 1.931,6.65 l 1.052,2.01 -1.524,-0.41 c -0.838,-0.23 -2.508,-3.22 -3.712,-3.22 -1.204,0 -2.874,2.99 -3.712,3.22 l -1.524,0.41 z"
       style="fill:#0b0b0b" />
    <path
       inkscape:connector-curvature="0"
       id="path6146"
       d="m 906.41514,2703.8637 c -0.296,2.104 -1.421,5.671 -2.501,7.928 -1.829,3.825 -3.807,5.946 -15.397,16.51 -4.593,4.185 -5.688,7.213 -4.221,11.668 1.764,5.355 10.038,6.74 13.548,2.269 0.878,-1.118 1.835,-3.989 2.137,-6.411 0.52,-4.172 0.66,-4.387 2.865,-4.387 2.232,0 2.318,0.142 2.318,3.855 0,8.392 -5.649,14.663 -13.207,14.663 -8.441,0 -14.115,-5.175 -14.112,-12.87 0,-5.596 2.079,-8.65 10.846,-15.946 7.387,-6.146 11.637,-11.13 11.647,-13.656 0,-0.744 -2.287,-1.006 -8.786,-1.006 h -8.79 l -0.554,5.636 c -0.545,5.54 -0.594,5.636 -2.861,5.636 -2.224,0 -2.307,-0.141 -2.307,-3.907 0,-2.15 0.232,-6.135 0.516,-8.857 l 0.516,-4.949 h 14.441 14.44 z"
       style="fill:#000000;fill-opacity:1;stroke:#fffecd;stroke-width:0.0804347;stroke-miterlimit:4;stroke-dasharray:none;stroke-opacity:1" />
    <path
       inkscape:connector-curvature="0"
       id="path6148"
       d="m 573.58414,2278.1267 c 0.296,-2.104 1.421,-5.671 2.501,-7.928 1.829,-3.825 3.807,-5.945 15.398,-16.509 4.592,-4.186 5.687,-7.214 4.22,-11.669 -1.764,-5.354 -10.038,-6.74 -13.548,-2.269 -0.878,1.118 -1.835,3.989 -2.137,6.411 -0.52,4.172 -0.66,4.387 -2.865,4.387 -2.232,0 -2.318,-0.142 -2.318,-3.855 0,-8.392 5.649,-14.663 13.207,-14.663 8.441,0 14.115,5.175 14.112,12.87 0,5.596 -2.079,8.65 -10.846,15.946 -7.387,6.147 -11.637,11.13 -11.647,13.656 0,0.744 2.287,1.006 8.786,1.006 h 8.79 l 0.554,-5.636 c 0.545,-5.54 0.594,-5.636 2.861,-5.636 2.224,0 2.307,0.142 2.307,3.908 0,2.149 -0.232,6.134 -0.516,8.856 l -0.516,4.949 h -14.441 -14.44 z"
       style="fill:#000000;fill-opacity:1;stroke:#fffecd;stroke-width:0.0804347;stroke-miterlimit:4;stroke-dasharray:none;stroke-opacity:1" />
    <path
       inkscape:connector-curvature="0"
       id="path10687"
       d="m 589.41559,2751.2857 c -1.78943,-0.2256 -4.36027,-1.683 -6.01881,-3.412 l -2.89516,-3.0182 -0.28045,-201.0696 c -0.15426,-110.5883 -0.0328,-202.0841 0.26989,-203.324 0.51713,-2.1182 1.06589,-2.2543 9.0901,-2.2543 5.22828,0 9.90272,-0.5688 12.05461,-1.4668 6.44644,-2.6902 6.45205,-2.7398 6.45205,-57.0942 v -48.6062 l 2.25706,-0.5528 c 1.24137,-0.304 65.33307,-0.4253 142.426,-0.2695 l 140.16896,0.2832 3.27929,3.2754 3.27929,3.2754 0.28046,201.1162 c 0.15425,110.6138 0.0328,202.1306 -0.26989,203.3704 -0.51712,2.1183 -1.06589,2.2544 -9.09011,2.2544 -5.22827,0 -9.90272,0.5687 -12.0546,1.4668 -6.4454,2.6898 -6.45205,2.7486 -6.45205,57.0061 0,43.3178 -0.17008,48.5832 -1.58676,49.1262 -1.70623,0.6539 -275.70358,0.5501 -280.90988,-0.1065 z m 277.48096,-49.9145 c 0,-52.3065 -0.10203,-51.3565 6.14998,-57.2662 4.56114,-4.3115 7.69029,-5.3215 16.48585,-5.3215 h 7.45821 v -197.9113 c 0,-171.4923 -0.19604,-198.3799 -1.4686,-201.4219 -2.86596,-6.8509 6.31277,-6.4442 -145.4584,-6.4442 H 613.1035 v 47.6233 c 0,52.3066 0.10202,51.3565 -6.14998,57.2663 -4.56115,4.3115 -7.69029,5.3215 -16.48585,5.3215 h -7.45821 v 197.9113 c 0,218.3114 -0.4486,203.4575 6.23204,206.3566 2.8032,1.2164 23.8693,1.4369 140.4764,1.4703 l 137.17865,0.039 v -47.6234 z"
       style="fill:#e2e2e2" />
    <path
       inkscape:connector-curvature="0"
       id="path10689"
       d="m 589.92645,2751.2985 c -1.43702,-0.2228 -4.14548,-1.9845 -6.01881,-3.9149 l -3.40602,-3.5098 v -202.0816 -202.0817 l 9.52978,-0.5391 c 5.97674,-0.3382 10.67248,-1.1507 12.59467,-2.1792 5.97513,-3.1973 5.91661,-2.6823 6.46489,-56.8959 l 0.50156,-49.595 h 141.17461 141.1746 l 3.77835,3.7738 3.77834,3.7739 v 202.1206 202.1206 l -9.52977,0.5687 c -5.24138,0.3128 -10.80501,1.1896 -12.36363,1.9485 -6.19057,3.0138 -6.14505,2.6257 -6.69593,57.097 l -0.50157,49.595 -138.93414,0.1021 c -76.41378,0.056 -140.10989,-0.08 -141.54693,-0.303 z m 277.97324,-51.6361 0.50156,-49.8331 4.7745,-4.7679 4.77451,-4.7679 9.77095,-0.5045 9.77094,-0.5046 0.27101,-197.3781 c 0.30573,-222.6678 0.95005,-204.3597 -7.32069,-208.0138 -4.14965,-1.8333 -8.77592,-1.8872 -141.06545,-1.6414 l -136.77509,0.254 -0.50157,49.8332 -0.50157,49.8331 -4.7745,4.7679 -4.7745,4.7679 -9.77095,0.5045 -9.77095,0.5046 -0.27101,197.3781 c -0.30515,222.2518 -0.92324,204.3099 7.16484,207.982 3.9931,1.813 9.01982,1.8718 141.06852,1.6496 l 136.92787,-0.2305 z"
       style="fill:#dbdbdb" />
    <path
       inkscape:connector-curvature="0"
       id="path10691"
       d="m 589.92645,2751.2985 c -1.43702,-0.2228 -4.14548,-1.9845 -6.01881,-3.9149 l -3.40602,-3.5098 v -202.0816 -202.0817 l 10.07725,-0.501 c 10.68548,-0.5311 14.19572,-1.8457 16.72131,-6.2619 0.98334,-1.7195 1.4082,-14.1397 1.79078,-52.3503 l 0.50156,-50.096 h 141.17461 141.1746 l 3.77835,3.7738 3.77834,3.7739 v 202.1206 202.1206 l -10.07724,0.5009 c -10.6855,0.5312 -14.19572,1.8458 -16.72131,6.262 -0.98335,1.7195 -1.40822,14.1397 -1.79078,52.3503 l -0.50157,50.096 -138.93414,0.1021 c -76.41378,0.056 -140.10989,-0.08 -141.54693,-0.303 z m 277.97324,-50.897 c 0.36589,-35.8139 0.83038,-49.6667 1.71715,-51.211 2.09698,-3.6518 8.13422,-8.2812 11.55293,-8.8588 1.8049,-0.305 6.2158,-0.6654 9.80201,-0.8009 l 6.52037,-0.2464 0.2506,-198.38 c 0.23649,-187.2117 0.15177,-198.5775 -1.5047,-201.8868 -1.00295,-2.0037 -3.26016,-4.2584 -5.26627,-5.2605 -3.30033,-1.6485 -11.75604,-1.7387 -140.94041,-1.5028 l -137.42944,0.2508 -0.50157,49.0941 c -0.36589,35.8139 -0.83039,49.6667 -1.71715,51.211 -2.09699,3.6518 -8.13422,8.2812 -11.55293,8.8588 -1.80491,0.305 -6.21581,0.6654 -9.80201,0.8009 l -6.52038,0.2464 -0.2506,198.38 c -0.23648,187.2117 -0.15177,198.5775 1.50471,201.8868 1.00295,2.0036 3.26016,4.2584 5.26627,5.2604 3.30032,1.6486 11.75602,1.7388 140.94041,1.5029 l 137.42943,-0.2509 z"
       style="fill:#c1c1c1" />
    <path
       inkscape:connector-curvature="0"
       id="path10693"
       d="m 589.52983,2750.4413 c -2.30015,-1.1224 -2.41836,-1.2927 -0.50156,-0.7226 4.38252,1.3036 276.93668,1.4658 278.50509,0.1657 1.12155,-0.9297 1.37589,-9.8642 1.40501,-49.3551 0.0306,-41.44 0.25095,-48.5721 1.56757,-50.7247 l 1.53201,-2.5048 -0.78121,2.5048 c -0.42965,1.3776 -0.92154,24.9352 -1.09306,52.3503 l -0.31187,49.8454 -138.65628,-0.045 c -119.71059,-0.039 -139.06749,-0.2459 -141.6657,-1.5138 z m -8.41066,-8.5585 c -0.80888,-2.3176 -1.11912,-58.4111 -1.11912,-202.345 v -199.1386 l 9.78057,-0.4589 c 5.3793,-0.2525 10.90908,-0.7739 12.2884,-1.1586 l 2.50783,-0.6997 -2.50783,1.5302 c -1.68464,1.0279 -5.15857,1.5418 -10.58308,1.5657 -4.89763,0.022 -8.5489,0.5086 -9.27899,1.2378 -1.67329,1.6712 -1.75656,393.6749 -0.0846,398.4652 0.61552,1.7635 0.89342,3.4318 0.61756,3.7073 -0.27587,0.2756 -1.00517,-0.9419 -1.62069,-2.7054 z m 296.81186,-99.4943 c 1.69005,-1.0312 5.16648,-1.5418 10.66087,-1.5657 5.61794,-0.024 8.50544,-0.4596 9.2864,-1.3995 1.30243,-1.5674 1.14541,-396.0492 -0.15938,-400.4057 -0.57159,-1.9084 -0.40011,-1.7891 0.72018,0.501 1.27631,2.609 1.47638,29.3445 1.51566,202.5443 l 0.0453,199.5385 -9.78057,0.459 c -5.3793,0.2525 -10.90909,0.7738 -12.2884,1.1586 l -2.50784,0.6996 2.50784,-1.5301 z M 608.74329,2332.1961 c 0.42967,-1.3776 0.92155,-24.9352 1.09307,-52.3503 l 0.31186,-49.8455 138.65629,0.045 c 119.7106,0.039 139.0675,0.2459 141.6657,1.5138 2.30016,1.1225 2.41837,1.2928 0.50157,0.7226 -4.38253,-1.3036 -276.93669,-1.4657 -278.50509,-0.1656 -1.12156,0.9296 -1.3759,9.8641 -1.40501,49.3551 -0.0305,41.4399 -0.25096,48.5721 -1.56757,50.7247 l -1.53203,2.5048 0.78121,-2.5048 z"
       style="fill:#b9b9b9" />
    <path
       inkscape:connector-curvature="0"
       id="path10695"
       d="m 728.86707,2751.2489 c 98.87264,-0.1855 137.70699,-0.5693 138.6737,-1.3707 1.08005,-0.8952 1.39564,-10.4501 1.61313,-48.8399 l 0.27041,-47.727 0.24082,49.3445 0.24083,49.3445 -139.18493,-0.2468 -139.18493,-0.2469 z m -148.61874,-210.904 -0.24828,-200.1334 9.279,0.2016 9.27899,0.2016 -7.68515,0.3399 c -4.73318,0.2093 -8.10375,0.8436 -8.77493,1.6514 -0.77428,0.9318 -1.16383,58.7164 -1.34556,199.5919 l -0.25579,198.2804 z m 308.87883,100.7012 c 4.73316,-0.2093 8.10376,-0.8437 8.77493,-1.6514 0.77428,-0.9318 1.16384,-58.7164 1.34556,-199.5919 l 0.25578,-198.2804 0.24829,200.1334 0.24828,200.1334 -9.279,-0.2016 -9.279,-0.2017 z m -278.79224,-361.7012 -0.24083,-49.3446 139.18493,0.2469 139.18492,0.2469 -137.33097,0.2577 c -98.87264,0.1855 -137.70699,0.5693 -138.6737,1.3706 -1.08005,0.8953 -1.39563,10.4502 -1.61313,48.84 l -0.2704,47.727 z"
       style="fill:#aeaeae" />
    <path
       inkscape:connector-curvature="0"
       id="path10697"
       d="m 729.36862,2751.2489 c 99.83442,-0.1866 138.20537,-0.5667 139.18493,-1.3786 1.03994,-0.8621 1.35241,-0.7455 1.35241,0.5045 0,1.4928 -11.36365,1.6054 -139.18493,1.3786 l -139.18493,-0.2469 z m -149.12029,-210.904 c -0.22832,-184.0432 -0.11743,-200.1334 1.37925,-200.1334 1.25227,0 1.36849,0.3117 0.50406,1.352 -0.81897,0.9857 -1.19279,55.2285 -1.37924,200.1334 l -0.25578,198.7814 z m 317.62008,100.0922 c 0.81897,-0.9856 1.19279,-55.2285 1.37924,-200.1334 l 0.25577,-198.7813 0.24829,200.1334 c 0.22832,184.0432 0.11743,200.1334 -1.37924,200.1334 -1.25227,0 -1.3685,-0.3117 -0.50406,-1.3521 z M 610.09409,2231.6259 c 0,-1.4928 11.36365,-1.6054 139.18493,-1.3787 l 139.18492,0.2469 -137.83251,0.2577 c -99.83443,0.1866 -138.20536,0.5666 -139.18494,1.3786 -1.03994,0.862 -1.3524,0.7455 -1.3524,-0.5045 z"
       style="fill:#9f9f9f" />
    <path
       inkscape:connector-curvature="0"
       id="path10699"
       d="m 661.58311,2751.249 c 38.52584,-0.1453 101.27191,-0.1453 139.4357,0 38.16379,0.1454 6.64264,0.2643 -70.047,0.2643 -76.68964,0 -107.91456,-0.119 -69.3887,-0.2643 z m -81.09127,-211.1546 c 2e-5,-110.2111 0.11725,-155.1489 0.26053,-99.8616 0.14326,55.2872 0.14325,145.4599 -4e-5,200.3838 -0.14328,54.9239 -0.2605,9.6889 -0.26049,-100.5222 z m 318.9968,-98.1881 c 2e-5,-110.2111 0.11725,-155.1489 0.26052,-99.8616 0.14328,55.2872 0.14327,145.4599 -3e-5,200.3838 -0.14327,54.9239 -0.2605,9.6889 -0.26049,-100.5222 z M 679.63953,2230.2509 c 38.52585,-0.1453 101.27191,-0.1453 139.43571,1e-4 38.16378,0.1453 6.64264,0.2642 -70.047,0.2642 -76.68964,0 -107.91457,-0.119 -69.38871,-0.2643 z"
       style="fill:#000000" />
    <path
       transform="translate(0,-1.2207032e-4)"
       inkscape:connector-curvature="0"
       id="path11002"
       d="m 590.73144,2746.6183 c -4.4832,-1.8129 -5.15734,-4.6546 -6.56605,-27.6781 -0.86344,-14.1119 -1.56989,-104.4624 -1.56989,-200.7791 v -175.1212 h 9.65915 c 7.07185,0 11.22897,-1.5698 15.51975,-5.8606 5.84262,-5.8426 5.86061,-6.0114 5.86061,-54.9902 v -49.1297 l 138.36605,0.6711 c 90.79227,0.4404 139.21049,1.5161 140.82204,3.1286 2.39761,2.399 2.73503,41.592 2.60488,302.5654 l -0.0497,99.6846 h -9.13443 c -6.46092,0 -10.65385,1.6174 -14.32592,5.5261 -4.98483,5.3061 -5.19151,7.4924 -5.19151,54.9161 v 49.3899 l -135.4994,-0.1513 c -74.52468,-0.083 -137.74768,-1.0605 -140.49557,-2.1716 z m 163.21814,-30.5073 c 22.47096,-35.1161 25.62232,-44.5692 18.32908,-54.9817 -4.19404,-5.9879 -17.05155,-7.321 -22.39462,-2.322 -3.31151,3.0982 -3.25767,2.492 1.0074,-11.3414 1.33925,-4.3438 0.3713,-4.7753 -10.71073,-4.7753 -9.7532,0 -11.95165,0.7143 -11.02292,3.5815 4.25915,13.1488 4.50865,15.5188 1.3196,12.5352 -5.34307,-4.999 -18.20059,-3.6659 -22.39463,2.322 -5.31691,7.5909 -4.61296,15.7308 2.51907,29.1283 9.84651,18.4966 26.94819,44.3577 29.33332,44.3577 1.19537,0 7.50186,-8.3269 14.01443,-18.5043 z m -3.05814,-381.4279 c -4.26507,-13.8334 -4.31891,-14.4396 -1.0074,-11.3413 4.82458,4.5138 15.96673,3.5787 21.33618,-1.7908 9.01867,-9.0186 5.72981,-19.5697 -17.33529,-55.6137 -6.54813,-10.2328 -13.11619,-18.2063 -14.59569,-17.7188 -4.75471,1.5666 -32.70438,48.6454 -34.14306,57.511 -2.62665,16.1861 9.56423,25.4513 23.60256,17.9382 4.31715,-2.3105 4.78604,-2.076 3.58061,1.7908 -4.7026,15.0847 -5.31098,13.9999 7.85136,13.9999 11.08203,0 12.04998,-0.4315 10.71073,-4.7753 z"
       style="fill:#fff6d5;fill-opacity:1;stroke:none;stroke-width:0.105;stroke-miterlimit:4;stroke-dasharray:none;stroke-opacity:1" />
  </g>
</svg>
