<?xml version="1.0" encoding="UTF-8" standalone="no"?>
<!-- Created with Inkscape (http://www.inkscape.org/) -->

<svg
   id="svg10047"
   height="122.99965"
   width="78.999245"
   version="1.1"
   viewBox="0 0 78.999245 122.99965"
   inkscape:version="0.91 r13725"
   sodipodi:docname="baroque.svgz"
   xmlns:inkscape="http://www.inkscape.org/namespaces/inkscape"
   xmlns:sodipodi="http://sodipodi.sourceforge.net/DTD/sodipodi-0.dtd"
   xmlns="http://www.w3.org/2000/svg"
   xmlns:svg="http://www.w3.org/2000/svg"
   xmlns:rdf="http://www.w3.org/1999/02/22-rdf-syntax-ns#"
   xmlns:cc="http://creativecommons.org/ns#"
   xmlns:dc="http://purl.org/dc/elements/1.1/">
  <sodipodi:namedview
     pagecolor="#ffffff"
     bordercolor="#666666"
     borderopacity="1"
     objecttolerance="10"
     gridtolerance="10"
     guidetolerance="10"
     inkscape:pageopacity="0"
     inkscape:pageshadow="2"
     inkscape:window-width="1920"
     inkscape:window-height="1016"
     id="namedview1491"
     showgrid="false"
     inkscape:zoom="1.3479675"
     inkscape:cx="513.5"
     inkscape:cy="307.5"
     inkscape:window-x="0"
     inkscape:window-y="0"
     inkscape:window-maximized="1"
     inkscape:current-layer="svg10047"
     showguides="false"
     inkscape:guide-bbox="true"
     inkscape:snap-grids="false"
     inkscape:snap-to-guides="false"
     inkscape:showpageshadow="2"
     inkscape:pagecheckerboard="0"
     inkscape:deskcolor="#d1d1d1">
    <inkscape:grid
       type="xygrid"
       id="grid11817"
       originx="-396"
       originy="-368.99891"
       spacingy="1"
       spacingx="1"
       units="px"
       visible="false" />
  </sodipodi:namedview>
  <metadata
     id="metadata16869">
    <rdf:RDF>
      <cc:Work
         rdf:about="">
        <dc:format>image/svg+xml</dc:format>
        <dc:type
           rdf:resource="http://purl.org/dc/dcmitype/StillImage" />
        <dc:title />
      </cc:Work>
    </rdf:RDF>
  </metadata>
  <defs
     id="defs10049" />
  <g
     transform="matrix(0.20788883,0,0,0.21134013,-488.53878,-464.94718)"
     id="spade_6"
     inkscape:label="#spade_6">
    <rect
       width="379.37555"
       height="581.36694"
       rx="31.643513"
       ry="32.297684"
       x="2350.3159"
       y="2200.3105"
       id="rect6310"
       style="fill:#ffffff;stroke:#000000;stroke-width:0.631597" />
    <path
       style="fill:#0b0b0b"
       d="m 2442.2761,2334.3687 c 3.029,-5.73 5.411,-13.84 4.489,-15.28 -0.379,-0.59 -2.667,0.6 -5.084,2.64 -3.417,2.89 -5.596,3.72 -9.791,3.72 -6.477,0 -10.012,-2.16 -12.793,-7.8 -5.099,-10.36 -2.381,-16.78 25.098,-59.31 4.029,-6.24 7.542,-11.34 7.807,-11.34 0.265,0 3.779,5.1 7.808,11.34 27.478,42.53 30.196,48.95 25.098,59.31 -2.781,5.64 -6.316,7.8 -12.793,7.8 -4.196,0 -6.375,-0.83 -9.791,-3.72 -2.417,-2.04 -4.705,-3.23 -5.085,-2.64 -0.921,1.44 1.461,9.55 4.489,15.28 l 2.446,4.63 -3.542,-0.95 c -1.948,-0.53 -5.831,-0.96 -8.63,-0.96 -2.798,0 -6.681,0.43 -8.629,0.96 l -3.542,0.95 z"
       id="path6314"
       inkscape:connector-curvature="0" />
    <path
       style="fill:#0b0b0b"
       d="m 2618.2731,2334.3687 c 3.029,-5.73 5.411,-13.84 4.489,-15.28 -0.379,-0.59 -2.667,0.6 -5.084,2.64 -3.417,2.89 -5.596,3.72 -9.791,3.72 -6.477,0 -10.012,-2.16 -12.793,-7.8 -5.099,-10.36 -2.381,-16.78 25.098,-59.31 4.029,-6.24 7.542,-11.34 7.807,-11.34 0.265,0 3.779,5.1 7.808,11.34 27.478,42.53 30.196,48.95 25.098,59.31 -2.781,5.64 -6.316,7.8 -12.793,7.8 -4.196,0 -6.375,-0.83 -9.791,-3.72 -2.417,-2.04 -4.705,-3.23 -5.085,-2.64 -0.922,1.44 1.46,9.55 4.489,15.28 l 2.446,4.63 -3.542,-0.95 c -1.948,-0.53 -5.831,-0.96 -8.63,-0.96 -2.798,0 -6.681,0.43 -8.629,0.96 l -3.542,0.95 z"
       id="path6316"
       inkscape:connector-curvature="0" />
    <path
       style="fill:#0b0b0b"
       d="m 2461.7251,2647.6287 c -3.029,5.74 -5.411,13.85 -4.489,15.28 0.38,0.6 2.668,-0.59 5.085,-2.64 3.417,-2.89 5.595,-3.72 9.791,-3.72 6.477,0 10.012,2.16 12.792,7.81 5.099,10.35 2.382,16.77 -25.097,59.3 -4.029,6.24 -7.543,11.34 -7.808,11.34 -0.265,0 -3.778,-5.1 -7.807,-11.34 -27.479,-42.53 -30.197,-48.95 -25.098,-59.3 2.781,-5.65 6.316,-7.81 12.793,-7.81 4.195,0 6.374,0.83 9.791,3.72 2.417,2.05 4.705,3.24 5.084,2.64 0.922,-1.43 -1.46,-9.54 -4.489,-15.28 l -2.445,-4.63 3.542,0.95 c 1.948,0.53 5.831,0.96 8.629,0.96 2.799,0 6.682,-0.43 8.63,-0.96 l 3.542,-0.95 z"
       id="path6318"
       inkscape:connector-curvature="0" />
    <path
       style="fill:#0b0b0b"
       d="m 2637.7251,2647.6287 c -3.029,5.74 -5.411,13.85 -4.489,15.28 0.38,0.6 2.668,-0.59 5.085,-2.64 3.417,-2.89 5.595,-3.72 9.791,-3.72 6.477,0 10.012,2.16 12.792,7.81 5.099,10.35 2.382,16.77 -25.097,59.3 -4.029,6.24 -7.543,11.34 -7.808,11.34 -0.265,0 -3.778,-5.1 -7.807,-11.34 -27.479,-42.53 -30.197,-48.95 -25.098,-59.3 2.781,-5.65 6.316,-7.81 12.793,-7.81 4.195,0 6.374,0.83 9.791,3.72 2.417,2.05 4.705,3.24 5.084,2.64 0.922,-1.43 -1.46,-9.54 -4.489,-15.28 l -2.445,-4.63 3.542,0.95 c 1.948,0.53 5.831,0.96 8.629,0.96 2.799,0 6.682,-0.43 8.63,-0.96 l 3.542,-0.95 z"
       id="path6320"
       inkscape:connector-curvature="0" />
    <path
       style="fill:#0b0b0b"
       d="m 2442.2731,2532.3687 c 3.029,-5.73 5.411,-13.84 4.489,-15.28 -0.379,-0.59 -2.667,0.6 -5.084,2.64 -3.417,2.89 -5.596,3.72 -9.791,3.72 -6.477,0 -10.012,-2.16 -12.793,-7.8 -5.099,-10.36 -2.381,-16.78 25.098,-59.31 4.029,-6.24 7.542,-11.34 7.807,-11.34 0.265,0 3.779,5.1 7.808,11.34 27.478,42.53 30.196,48.95 25.097,59.31 -2.78,5.64 -6.315,7.8 -12.792,7.8 -4.196,0 -6.375,-0.83 -9.791,-3.72 -2.417,-2.04 -4.705,-3.23 -5.085,-2.64 -0.922,1.44 1.46,9.55 4.489,15.28 l 2.446,4.63 -3.542,-0.95 c -1.948,-0.53 -5.831,-0.96 -8.63,-0.96 -2.798,0 -6.681,0.43 -8.629,0.96 l -3.542,0.95 z"
       id="path6322"
       inkscape:connector-curvature="0" />
    <path
       style="fill:#0b0b0b"
       d="m 2618.2731,2532.3687 c 3.029,-5.73 5.411,-13.84 4.489,-15.28 -0.379,-0.59 -2.667,0.6 -5.084,2.64 -3.417,2.89 -5.596,3.72 -9.791,3.72 -6.477,0 -10.012,-2.16 -12.793,-7.8 -5.099,-10.36 -2.381,-16.78 25.098,-59.31 4.029,-6.24 7.542,-11.34 7.807,-11.34 0.265,0 3.779,5.1 7.808,11.34 27.478,42.53 30.196,48.95 25.097,59.31 -2.78,5.64 -6.315,7.8 -12.792,7.8 -4.196,0 -6.375,-0.83 -9.791,-3.72 -2.417,-2.04 -4.705,-3.23 -5.085,-2.64 -0.922,1.44 1.46,9.55 4.489,15.28 l 2.446,4.63 -3.542,-0.95 c -1.948,-0.53 -5.831,-0.96 -8.63,-0.96 -2.798,0 -6.681,0.43 -8.629,0.96 l -3.542,0.95 z"
       id="path6324"
       inkscape:connector-curvature="0" />
    <path
       sodipodi:nodetypes="scsscssscsccsccsccs"
       inkscape:connector-curvature="0"
       id="path6326"
       d="m 2696.2321,2652.2497 c -1.303,2.49 -2.328,6.01 -1.932,6.64 0.164,0.26 1.148,-0.26 2.188,-1.15 1.47,-1.26 2.407,-1.62 4.212,-1.62 2.786,0 4.306,0.94 5.502,3.4 2.194,4.5 1.025,7.29 -10.796,25.78 -1.733,2.71 -3.244,4.93 -3.358,4.93 -0.114,0 -1.626,-2.22 -3.359,-4.93 -11.82,-18.49 -12.989,-21.28 -10.796,-25.78 1.196,-2.46 2.717,-3.4 5.503,-3.4 1.805,0 2.742,0.36 4.212,1.62 1.04,0.89 2.024,1.41 2.187,1.15 0.397,-0.63 -0.628,-4.15 -1.931,-6.64 l -1.052,-2.02 1.524,0.42 c 0.838,0.22 2.508,3.21 3.712,3.21 1.204,0 2.874,-2.99 3.712,-3.21 l 1.524,-0.42 z"
       style="fill:#0b0b0b" />
    <path
       sodipodi:nodetypes="scsscssscsccsccsccs"
       inkscape:connector-curvature="0"
       id="path6328"
       d="m 2383.8711,2326.1237 c 1.303,-2.5 2.327,-6.02 1.931,-6.65 -0.163,-0.25 -1.147,0.26 -2.187,1.15 -1.47,1.26 -2.407,1.62 -4.212,1.62 -2.786,0 -4.307,-0.94 -5.503,-3.39 -2.193,-4.51 -1.024,-7.3 10.796,-25.79 1.733,-2.71 3.245,-4.93 3.359,-4.93 0.113,0 1.625,2.22 3.358,4.93 11.821,18.49 12.99,21.28 10.796,25.79 -1.196,2.45 -2.716,3.39 -5.503,3.39 -1.804,0 -2.742,-0.36 -4.211,-1.62 -1.04,-0.89 -2.024,-1.4 -2.187,-1.15 -0.397,0.63 0.628,4.15 1.93,6.65 l 1.052,2.01 -1.523,-0.41 c -0.838,-0.23 -2.509,-3.22 -3.712,-3.22 -1.204,0 -2.874,2.99 -3.712,3.22 l -1.524,0.41 z"
       style="fill:#0b0b0b" />
    <path
       inkscape:connector-curvature="0"
       id="path6330"
       d="m 2695.5311,2700.8877 c 7.662,2.722 11.427,10.609 11.427,23.936 0,15.758 -5.969,25.127 -16.008,25.127 -6.864,0 -11.863,-4.34 -13.187,-11.446 -0.582,-3.123 -0.568,-3.144 2.09,-3.144 2.317,0 2.742,0.328 3.175,2.452 0.608,2.985 3.733,6.204 6.74,6.945 3.249,0.801 7.298,-1.397 8.979,-4.874 1.536,-3.178 3.446,-12.438 2.713,-13.157 -0.25,-0.245 -1.806,0.566 -3.457,1.803 -4.271,3.198 -10.469,3.636 -14.442,1.02 -6.584,-4.335 -8.468,-13.804 -4.335,-21.791 3.426,-6.621 9.639,-9.238 16.305,-6.871 z m -9.026,5.738 c -2.942,1.892 -4.24,5.882 -3.898,11.979 0.181,3.236 4.254,7.03 7.549,7.03 5.071,0 10.752,-4.482 10.723,-8.46 -0.03,-3.349 -2.667,-8.856 -5.029,-10.481 -2.428,-1.669 -6.806,-1.701 -9.345,-0.07 z"
       style="fill:#000000;fill-opacity:1;stroke:#fffecd;stroke-width:0.0818019;stroke-miterlimit:4;stroke-dasharray:none;stroke-opacity:1" />
    <path
       inkscape:connector-curvature="0"
       id="path6332"
       d="m 2384.4671,2281.1027 c -7.661,-2.721 -11.427,-10.609 -11.427,-23.936 0,-15.758 5.969,-25.126 16.009,-25.126 6.864,0 11.863,4.339 13.186,11.445 0.582,3.123 0.568,3.144 -2.09,3.144 -2.317,0 -2.742,-0.328 -3.175,-2.452 -0.608,-2.985 -3.732,-6.204 -6.74,-6.945 -3.248,-0.801 -7.298,1.397 -8.978,4.874 -1.536,3.178 -3.446,12.438 -2.714,13.157 0.25,0.245 1.806,-0.566 3.458,-1.803 4.27,-3.198 10.469,-3.636 14.442,-1.02 6.584,4.335 8.467,13.804 4.334,21.791 -3.425,6.621 -9.638,9.238 -16.305,6.871 z m 9.027,-5.738 c 2.941,-1.892 4.24,-5.882 3.898,-11.979 -0.181,-3.236 -4.255,-7.029 -7.549,-7.029 -5.071,0 -10.753,4.482 -10.724,8.459 0.02,3.349 2.667,8.856 5.03,10.481 2.428,1.669 6.806,1.701 9.345,0.07 z"
       style="fill:#000000;fill-opacity:1;stroke:#fffecd;stroke-width:0.0818019;stroke-miterlimit:4;stroke-dasharray:none;stroke-opacity:1" />
    <path
       inkscape:connector-curvature="0"
       id="path10751"
       d="m 2389.4157,2751.2857 c -1.7894,-0.2256 -4.3602,-1.683 -6.0188,-3.412 l -2.8951,-3.0182 -0.2805,-201.0696 c -0.1543,-110.5883 -0.033,-202.0841 0.2699,-203.324 0.5171,-2.1182 1.0659,-2.2543 9.0901,-2.2543 5.2283,0 9.9027,-0.5688 12.0546,-1.4668 6.4464,-2.6902 6.452,-2.7398 6.452,-57.0942 v -48.6062 l 2.2571,-0.5528 c 1.2414,-0.304 65.3331,-0.4253 142.426,-0.2695 l 140.169,0.2832 3.2793,3.2754 3.2793,3.2754 0.2804,201.1162 c 0.1543,110.6138 0.033,202.1306 -0.2699,203.3704 -0.5171,2.1183 -1.0659,2.2544 -9.0901,2.2544 -5.2283,0 -9.9027,0.5687 -12.0546,1.4668 -6.4454,2.6898 -6.452,2.7486 -6.452,57.0061 0,43.3178 -0.1701,48.5832 -1.5868,49.1262 -1.7062,0.6539 -275.7036,0.5501 -280.9099,-0.1065 z m 277.481,-49.9145 c 0,-52.3065 -0.102,-51.3565 6.15,-57.2662 4.5611,-4.3115 7.6902,-5.3215 16.4858,-5.3215 h 7.4582 v -197.9113 c 0,-171.4923 -0.196,-198.3799 -1.4686,-201.4219 -2.8659,-6.8509 6.3128,-6.4442 -145.4584,-6.4442 h -136.9601 v 47.6233 c 0,52.3066 0.1021,51.3565 -6.15,57.2663 -4.5611,4.3115 -7.6902,5.3215 -16.4858,5.3215 h -7.4582 v 197.9113 c 0,218.3114 -0.4486,203.4575 6.232,206.3566 2.8032,1.2164 23.8693,1.4369 140.4764,1.4703 l 137.1787,0.039 v -47.6234 z"
       style="fill:#e2e2e2" />
    <path
       inkscape:connector-curvature="0"
       id="path10753"
       d="m 2389.9266,2751.2985 c -1.437,-0.2228 -4.1455,-1.9845 -6.0188,-3.9149 l -3.406,-3.5098 v -202.0816 -202.0817 l 9.5297,-0.5391 c 5.9768,-0.3382 10.6725,-1.1507 12.5947,-2.1792 5.9751,-3.1973 5.9166,-2.6823 6.4649,-56.8959 l 0.5016,-49.595 h 141.1746 141.1746 l 3.7783,3.7738 3.7784,3.7739 v 202.1206 202.1206 l -9.5298,0.5687 c -5.2414,0.3128 -10.805,1.1896 -12.3637,1.9485 -6.1905,3.0138 -6.145,2.6257 -6.6959,57.097 l -0.5015,49.595 -138.9342,0.1021 c -76.4138,0.056 -140.1099,-0.08 -141.5469,-0.303 z m 277.9732,-51.6361 0.5016,-49.8331 4.7745,-4.7679 4.7745,-4.7679 9.7709,-0.5045 9.771,-0.5046 0.271,-197.3781 c 0.3057,-222.6678 0.95,-204.3597 -7.3207,-208.0138 -4.1497,-1.8333 -8.7759,-1.8872 -141.0654,-1.6414 l -136.7751,0.254 -0.5016,49.8332 -0.5016,49.8331 -4.7745,4.7679 -4.7745,4.7679 -9.7709,0.5045 -9.771,0.5046 -0.271,197.3781 c -0.3051,222.2518 -0.9232,204.3099 7.1649,207.982 3.9931,1.813 9.0198,1.8718 141.0685,1.6496 l 136.9278,-0.2305 z"
       style="fill:#dbdbdb" />
    <path
       inkscape:connector-curvature="0"
       id="path10755"
       d="m 2389.9266,2751.2985 c -1.437,-0.2228 -4.1455,-1.9845 -6.0188,-3.9149 l -3.406,-3.5098 v -202.0816 -202.0817 l 10.0772,-0.501 c 10.6855,-0.5311 14.1957,-1.8457 16.7213,-6.2619 0.9833,-1.7195 1.4082,-14.1397 1.7908,-52.3503 l 0.5016,-50.096 h 141.1746 141.1746 l 3.7783,3.7738 3.7784,3.7739 v 202.1206 202.1206 l -10.0773,0.5009 c -10.6855,0.5312 -14.1957,1.8458 -16.7213,6.262 -0.9834,1.7195 -1.4082,14.1397 -1.7908,52.3503 l -0.5015,50.096 -138.9342,0.1021 c -76.4138,0.056 -140.1099,-0.08 -141.5469,-0.303 z m 277.9732,-50.897 c 0.3659,-35.8139 0.8304,-49.6667 1.7172,-51.211 2.097,-3.6518 8.1342,-8.2812 11.5529,-8.8588 1.8049,-0.305 6.2158,-0.6654 9.802,-0.8009 l 6.5204,-0.2464 0.2506,-198.38 c 0.2365,-187.2117 0.1517,-198.5775 -1.5047,-201.8868 -1.003,-2.0037 -3.2602,-4.2584 -5.2663,-5.2605 -3.3003,-1.6485 -11.756,-1.7387 -140.9404,-1.5028 l -137.4294,0.2508 -0.5016,49.0941 c -0.3659,35.8139 -0.8304,49.6667 -1.7172,51.211 -2.0969,3.6518 -8.1342,8.2812 -11.5529,8.8588 -1.8049,0.305 -6.2158,0.6654 -9.802,0.8009 l -6.5204,0.2464 -0.2506,198.38 c -0.2365,187.2117 -0.1518,198.5775 1.5047,201.8868 1.003,2.0036 3.2602,4.2584 5.2663,5.2604 3.3003,1.6486 11.756,1.7388 140.9404,1.5029 l 137.4294,-0.2509 z"
       style="fill:#c1c1c1" />
    <path
       inkscape:connector-curvature="0"
       id="path10757"
       d="m 2389.53,2750.4413 c -2.3002,-1.1224 -2.4184,-1.2927 -0.5016,-0.7226 4.3825,1.3036 276.9367,1.4658 278.5051,0.1657 1.1215,-0.9297 1.3759,-9.8642 1.405,-49.3551 0.031,-41.44 0.251,-48.5721 1.5676,-50.7247 l 1.532,-2.5048 -0.7812,2.5048 c -0.4297,1.3776 -0.9216,24.9352 -1.0931,52.3503 l -0.3119,49.8454 -138.6562,-0.045 c -119.7106,-0.039 -139.0675,-0.2459 -141.6657,-1.5138 z m -8.4107,-8.5585 c -0.8089,-2.3176 -1.1191,-58.4111 -1.1191,-202.345 v -199.1386 l 9.7805,-0.4589 c 5.3794,-0.2525 10.9091,-0.7739 12.2884,-1.1586 l 2.5079,-0.6997 -2.5079,1.5302 c -1.6846,1.0279 -5.1585,1.5418 -10.583,1.5657 -4.8977,0.022 -8.5489,0.5086 -9.279,1.2378 -1.6733,1.6712 -1.7566,393.6749 -0.085,398.4652 0.6155,1.7635 0.8934,3.4318 0.6175,3.7073 -0.2759,0.2756 -1.0052,-0.9419 -1.6207,-2.7054 z m 296.8119,-99.4943 c 1.69,-1.0312 5.1664,-1.5418 10.6608,-1.5657 5.618,-0.024 8.5055,-0.4596 9.2864,-1.3995 1.3025,-1.5674 1.1454,-396.0492 -0.1594,-400.4057 -0.5715,-1.9084 -0.4001,-1.7891 0.7202,0.501 1.2763,2.609 1.4764,29.3445 1.5157,202.5443 l 0.045,199.5385 -9.7806,0.459 c -5.3793,0.2525 -10.9091,0.7738 -12.2884,1.1586 l -2.5078,0.6996 2.5078,-1.5301 z m -269.1878,-310.1924 c 0.4297,-1.3776 0.9216,-24.9352 1.0931,-52.3503 l 0.3119,-49.8455 138.6562,0.045 c 119.7106,0.039 139.0675,0.2459 141.6657,1.5138 2.3002,1.1225 2.4184,1.2928 0.5016,0.7226 -4.3825,-1.3036 -276.9367,-1.4657 -278.5051,-0.1656 -1.1215,0.9296 -1.3759,9.8641 -1.405,49.3551 -0.03,41.4399 -0.2509,48.5721 -1.5676,50.7247 l -1.532,2.5048 0.7812,-2.5048 z"
       style="fill:#b9b9b9" />
    <path
       inkscape:connector-curvature="0"
       id="path10759"
       d="m 2528.8672,2751.2489 c 98.8726,-0.1855 137.707,-0.5693 138.6737,-1.3707 1.0801,-0.8952 1.3956,-10.4501 1.6131,-48.8399 l 0.2704,-47.727 0.2409,49.3445 0.2408,49.3445 -139.1849,-0.2468 -139.185,-0.2469 z m -148.6187,-210.904 -0.2483,-200.1334 9.279,0.2016 9.279,0.2016 -7.6852,0.3399 c -4.7332,0.2093 -8.1037,0.8436 -8.7749,1.6514 -0.7743,0.9318 -1.1638,58.7164 -1.3456,199.5919 l -0.2558,198.2804 z m 308.8788,100.7012 c 4.7332,-0.2093 8.1037,-0.8437 8.7749,-1.6514 0.7743,-0.9318 1.1639,-58.7164 1.3456,-199.5919 l 0.2558,-198.2804 0.2483,200.1334 0.2482,200.1334 -9.279,-0.2016 -9.279,-0.2017 z m -278.7923,-361.7012 -0.2408,-49.3446 139.185,0.2469 139.1849,0.2469 -137.331,0.2577 c -98.8726,0.1855 -137.707,0.5693 -138.6737,1.3706 -1.08,0.8953 -1.3956,10.4502 -1.6131,48.84 l -0.2704,47.727 z"
       style="fill:#aeaeae" />
    <path
       inkscape:connector-curvature="0"
       id="path10761"
       d="m 2529.3687,2751.2489 c 99.8345,-0.1866 138.2054,-0.5667 139.185,-1.3786 1.0399,-0.8621 1.3524,-0.7455 1.3524,0.5045 0,1.4928 -11.3637,1.6054 -139.1849,1.3786 l -139.185,-0.2469 z m -149.1202,-210.904 c -0.2284,-184.0432 -0.1175,-200.1334 1.3792,-200.1334 1.2523,0 1.3685,0.3117 0.5041,1.352 -0.819,0.9857 -1.1928,55.2285 -1.3793,200.1334 l -0.2557,198.7814 z m 317.62,100.0922 c 0.819,-0.9856 1.1928,-55.2285 1.3793,-200.1334 l 0.2558,-198.7813 0.2482,200.1334 c 0.2284,184.0432 0.1175,200.1334 -1.3792,200.1334 -1.2523,0 -1.3685,-0.3117 -0.5041,-1.3521 z m -287.7743,-408.8112 c 0,-1.4928 11.3637,-1.6054 139.185,-1.3787 l 139.1849,0.2469 -137.8325,0.2577 c -99.8345,0.1866 -138.2054,0.5666 -139.185,1.3786 -1.0399,0.862 -1.3524,0.7455 -1.3524,-0.5045 z"
       style="fill:#9f9f9f" />
    <path
       inkscape:connector-curvature="0"
       id="path10763"
       d="m 2461.5832,2751.249 c 38.5259,-0.1453 101.272,-0.1453 139.4357,0 38.1638,0.1454 6.6427,0.2643 -70.047,0.2643 -76.6896,0 -107.9145,-0.119 -69.3887,-0.2643 z m -81.0912,-211.1546 c 0,-110.2111 0.1172,-155.1489 0.2605,-99.8616 0.1433,55.2872 0.1432,145.4599 0,200.3838 -0.1433,54.9239 -0.2605,9.6889 -0.2605,-100.5222 z m 318.9968,-98.1881 c 0,-110.2111 0.1172,-155.1489 0.2605,-99.8616 0.1433,55.2872 0.1433,145.4599 0,200.3838 -0.1433,54.9239 -0.2605,9.6889 -0.2605,-100.5222 z m -219.8491,-211.6554 c 38.5258,-0.1453 101.2719,-0.1453 139.4357,1e-4 38.1637,0.1453 6.6426,0.2642 -70.047,0.2642 -76.6897,0 -107.9146,-0.119 -69.3887,-0.2643 z"
       style="fill:#000000" />
    <path
       transform="translate(0,-1.2207032e-4)"
       inkscape:connector-curvature="0"
       id="path10992"
       d="m 2398.6704,2747.6837 c -9.7622,-0.6101 -11.2831,-1.2581 -12.8934,-5.4935 -1.1178,-2.9402 -1.8256,-81.0294 -1.8256,-201.4202 v -196.6184 h 5.606 c 7.629,0 14.252,-2.742 19.0422,-7.8837 3.8506,-4.1332 4.0036,-6.1839 4.0036,-53.66 v -49.3627 l 139.3445,0.5371 c 111.2003,0.4287 139.8458,1.0385 141.8267,3.0195 1.9967,1.9968 2.6003,41.5066 3.0859,201.9956 l 0.6037,199.5132 h -8.9127 c -7.5892,0 -9.8772,0.9644 -15.4072,6.4945 l -6.4944,6.4944 v 48.8991 48.8992 l -128.4558,-0.3612 c -70.6507,-0.1986 -133.4363,-0.6724 -139.5235,-1.0529 z m 66.2438,-30.5805 c 16.219,-24.9939 22.1839,-37.1981 22.1839,-45.3887 0,-13.0312 -13.9219,-20.583 -24.4066,-13.2393 -4.9878,3.4936 -5.2846,1.8906 -1.3801,-7.4541 1.5758,-3.7716 2.8652,-7.0999 2.8652,-7.3963 0,-0.2964 -5.5871,-0.5389 -12.4158,-0.5389 -6.8287,0 -12.3854,0.4298 -12.3481,0.9551 0.037,0.5253 1.2961,3.104 2.7975,5.7304 1.5014,2.6264 2.7602,6.3283 2.7975,8.2263 0.062,3.1856 -0.2589,3.2223 -4.1776,0.4775 -8.4483,-5.9174 -18.5322,-2.9935 -22.471,6.5156 -3.3173,8.0088 -1.3573,15.7364 7.9978,31.5323 11.9848,20.2359 24.2972,39.2038 25.4479,39.2038 0.5633,0 6.4625,-8.3806 13.1094,-18.6237 z m 181.5074,-8.8312 c 16.2975,-26.679 18.9883,-34.1659 15.3712,-42.7684 -4.1324,-9.8281 -13.943,-12.7905 -22.9071,-6.917 -5.5597,3.6429 -6.2959,0.8845 -1.8429,-6.9051 4.4521,-7.7882 3.553,-8.5956 -9.5717,-8.5956 -7.5531,0 -12.1217,0.7501 -11.6342,1.9102 0.4414,1.0505 2.1816,5.1334 3.8669,9.0731 3.2743,7.6538 2.3741,8.7253 -3.5599,4.237 -7.237,-5.4738 -16.9738,-3.1893 -21.1945,4.9727 -5.5627,10.757 -2.6892,18.4204 20.4145,54.4447 9.4101,14.6727 12.1146,17.6898 14.2602,15.9091 1.4563,-1.2085 9.0152,-12.6209 16.7975,-25.3607 z m -182.245,-172.1585 c 0,-0.2657 -1.2894,-3.5688 -2.8652,-7.3404 -3.9002,-9.3345 -3.6865,-12.1357 0.6279,-8.2311 3.5555,3.2176 14.8509,4.246 18.6649,1.6994 6.7336,-4.4962 8.3766,-17.937 3.3936,-27.7624 -7.1303,-14.0595 -29.9635,-49.0909 -31.9971,-49.0909 -2.1922,0 -23.9053,33.7874 -31.5597,49.1096 -7.8087,15.6309 -2.6866,29.2055 11.0201,29.2055 3.9159,0 8.137,-1.0171 9.3801,-2.2603 4.0043,-4.0042 5.0138,0.1989 1.7113,7.1244 -1.7641,3.6994 -3.2075,7.0194 -3.2075,7.3778 0,0.3583 5.5871,0.6514 12.4158,0.6514 6.8287,0 12.4158,-0.2173 12.4158,-0.483 z m 175.7314,0 c 0,-0.2657 -1.2894,-3.5688 -2.8652,-7.3404 -3.9868,-9.5416 -3.6405,-11.5599 1.3801,-8.0434 5.9627,4.1765 15.9749,3.7646 20.5863,-0.8467 5.8412,-5.8412 5.6716,-15.6227 -0.4799,-27.6856 -6.939,-13.607 -28.4257,-46.8093 -30.2925,-46.8093 -2.43,0 -25.8696,36.2955 -31.7877,49.2223 -5.1232,11.1906 -4.8681,19.3617 0.7998,25.6247 3.5957,3.9732 15.7958,4.7357 19.3237,1.2078 3.9453,-3.9453 4.9334,0.046 1.9142,7.7314 l -2.9155,7.4222 h 12.1683 c 6.6926,0 12.1684,-0.2173 12.1684,-0.483 z m -175.7991,-198.6474 c -0.037,-1.0505 -1.2961,-4.059 -2.7975,-6.6854 -4.5984,-8.044 -3.6783,-10.0692 3.0046,-6.6133 7.2164,3.7317 15.9146,2.1971 19.9145,-3.5136 4.2885,-6.1226 3.4726,-16.8128 -2.0847,-27.3136 -7.6061,-14.3721 -28.2942,-46.5652 -29.9376,-46.5862 -2.0282,-0.026 -25.8403,37.0322 -31.2859,48.6894 -5.2042,11.1404 -5.5637,16.2766 -1.6668,23.8124 3.6322,7.024 11.9196,9.0643 19.9501,4.9116 6.6686,-3.4485 7.176,-2.1207 3.0046,7.863 -1.5759,3.7715 -2.8652,6.9673 -2.8652,7.1016 0,0.1343 5.5871,0.2443 12.4158,0.2443 7.0489,0 12.3865,-0.8257 12.3481,-1.9102 z m 175.7991,0.7108 c 0,-0.6596 -1.3397,-4.4056 -2.9771,-8.3244 -3.5969,-8.6086 -2.735,-9.95 3.6888,-5.741 6.2765,4.1125 15.5374,2.2421 19.6003,-3.9587 4.7128,-7.1927 3.656,-16.8101 -3.1858,-28.9918 -9.6596,-17.1988 -27.4778,-44.4065 -29.0882,-44.4166 -3.3226,-0.021 -33.4913,50.4096 -35.015,58.5316 -2.7648,14.7374 9.5644,25.3818 22.1354,19.1105 5.2357,-2.6119 5.7344,-2.5826 5.6726,0.3327 -0.037,1.758 -1.2961,5.3452 -2.7975,7.9716 -1.5013,2.6264 -2.7602,5.2051 -2.7974,5.7304 -0.037,0.5253 5.5194,0.9551 12.3481,0.9551 6.8287,0 12.4158,-0.5397 12.4158,-1.1994 z"
       style="fill:#fff6d5;fill-opacity:1;stroke:none;stroke-width:0.105;stroke-miterlimit:4;stroke-dasharray:none;stroke-opacity:1" />
  </g>
</svg>
