<?xml version="1.0" encoding="UTF-8" standalone="no"?>
<!-- Created with Inkscape (http://www.inkscape.org/) -->

<svg
   id="svg10047"
   height="122.99965"
   width="78.999245"
   version="1.1"
   viewBox="0 0 78.999245 122.99965"
   inkscape:version="0.91 r13725"
   sodipodi:docname="baroque.svgz"
   xmlns:inkscape="http://www.inkscape.org/namespaces/inkscape"
   xmlns:sodipodi="http://sodipodi.sourceforge.net/DTD/sodipodi-0.dtd"
   xmlns="http://www.w3.org/2000/svg"
   xmlns:svg="http://www.w3.org/2000/svg"
   xmlns:rdf="http://www.w3.org/1999/02/22-rdf-syntax-ns#"
   xmlns:cc="http://creativecommons.org/ns#"
   xmlns:dc="http://purl.org/dc/elements/1.1/">
  <sodipodi:namedview
     pagecolor="#ffffff"
     bordercolor="#666666"
     borderopacity="1"
     objecttolerance="10"
     gridtolerance="10"
     guidetolerance="10"
     inkscape:pageopacity="0"
     inkscape:pageshadow="2"
     inkscape:window-width="1920"
     inkscape:window-height="1016"
     id="namedview1491"
     showgrid="false"
     inkscape:zoom="1.3479675"
     inkscape:cx="513.5"
     inkscape:cy="307.5"
     inkscape:window-x="0"
     inkscape:window-y="0"
     inkscape:window-maximized="1"
     inkscape:current-layer="svg10047"
     showguides="false"
     inkscape:guide-bbox="true"
     inkscape:snap-grids="false"
     inkscape:snap-to-guides="false"
     inkscape:showpageshadow="2"
     inkscape:pagecheckerboard="0"
     inkscape:deskcolor="#d1d1d1">
    <inkscape:grid
       type="xygrid"
       id="grid11817"
       originx="-158"
       originy="-368.99891"
       spacingy="1"
       spacingx="1"
       units="px"
       visible="false" />
  </sodipodi:namedview>
  <metadata
     id="metadata16869">
    <rdf:RDF>
      <cc:Work
         rdf:about="">
        <dc:format>image/svg+xml</dc:format>
        <dc:type
           rdf:resource="http://purl.org/dc/dcmitype/StillImage" />
        <dc:title />
      </cc:Work>
    </rdf:RDF>
  </metadata>
  <defs
     id="defs10049" />
  <g
     transform="matrix(0.20788883,0,0,0.21134013,-207.88883,-464.94718)"
     id="spade_3"
     inkscape:label="#spade_3">
    <rect
       width="379.37555"
       height="581.36694"
       rx="31.643513"
       ry="32.297684"
       x="1000.3158"
       y="2200.3105"
       id="rect6172"
       style="fill:#ffffff;stroke:#000000;stroke-width:0.631597" />
    <path
       style="fill:#0b0b0b"
       d="m 1180.2761,2334.3687 c 3.029,-5.73 5.411,-13.84 4.489,-15.28 -0.379,-0.59 -2.667,0.6 -5.084,2.64 -3.417,2.89 -5.596,3.72 -9.791,3.72 -6.477,0 -10.012,-2.16 -12.793,-7.8 -5.099,-10.36 -2.381,-16.78 25.098,-59.31 4.029,-6.24 7.542,-11.34 7.807,-11.34 0.265,0 3.779,5.1 7.808,11.34 27.478,42.53 30.196,48.95 25.098,59.31 -2.781,5.64 -6.316,7.8 -12.793,7.8 -4.196,0 -6.375,-0.83 -9.791,-3.72 -2.417,-2.04 -4.705,-3.23 -5.085,-2.64 -0.921,1.44 1.461,9.55 4.489,15.28 l 2.446,4.63 -3.542,-0.95 c -1.948,-0.53 -5.831,-0.96 -8.63,-0.96 -2.798,0 -6.681,0.43 -8.63,0.96 l -3.541,0.95 z"
       id="path6176"
       inkscape:connector-curvature="0" />
    <path
       style="fill:#0b0b0b"
       d="m 1199.7251,2647.6287 c -3.029,5.74 -5.411,13.85 -4.489,15.28 0.38,0.6 2.668,-0.59 5.084,-2.64 3.417,-2.89 5.596,-3.72 9.792,-3.72 6.477,0 10.012,2.16 12.792,7.81 5.099,10.35 2.381,16.77 -25.097,59.3 -4.029,6.24 -7.543,11.34 -7.808,11.34 -0.265,0 -3.778,-5.1 -7.807,-11.34 -27.479,-42.53 -30.197,-48.95 -25.098,-59.3 2.781,-5.65 6.316,-7.81 12.792,-7.81 4.196,0 6.375,0.83 9.792,3.72 2.417,2.05 4.705,3.24 5.084,2.64 0.922,-1.43 -1.46,-9.54 -4.489,-15.28 l -2.445,-4.63 3.542,0.95 c 1.948,0.53 5.831,0.96 8.629,0.96 2.799,0 6.682,-0.43 8.63,-0.96 l 3.541,-0.95 z"
       id="path6178"
       inkscape:connector-curvature="0" />
    <path
       style="fill:#0b0b0b"
       d="m 1180.2731,2532.3687 c 3.029,-5.73 5.411,-13.84 4.489,-15.28 -0.379,-0.59 -2.667,0.6 -5.084,2.64 -3.417,2.89 -5.596,3.72 -9.792,3.72 -6.476,0 -10.011,-2.16 -12.792,-7.8 -5.099,-10.36 -2.381,-16.78 25.098,-59.31 4.029,-6.24 7.542,-11.34 7.807,-11.34 0.265,0 3.779,5.1 7.808,11.34 27.478,42.53 30.196,48.95 25.097,59.31 -2.78,5.64 -6.315,7.8 -12.792,7.8 -4.196,0 -6.375,-0.83 -9.791,-3.72 -2.417,-2.04 -4.705,-3.23 -5.085,-2.64 -0.922,1.44 1.46,9.55 4.489,15.28 l 2.446,4.63 -3.542,-0.95 c -1.948,-0.53 -5.831,-0.96 -8.63,-0.96 -2.798,0 -6.681,0.43 -8.63,0.96 l -3.541,0.95 z"
       id="path6180"
       inkscape:connector-curvature="0" />
    <path
       sodipodi:nodetypes="scsscssscsccsccsccs"
       inkscape:connector-curvature="0"
       id="path6182"
       d="m 1346.2321,2652.2497 c -1.303,2.49 -2.328,6.01 -1.932,6.64 0.164,0.26 1.148,-0.26 2.188,-1.15 1.469,-1.26 2.407,-1.62 4.211,-1.62 2.787,0 4.307,0.94 5.503,3.4 2.194,4.5 1.025,7.29 -10.796,25.78 -1.733,2.71 -3.244,4.93 -3.358,4.93 -0.114,0 -1.626,-2.22 -3.359,-4.93 -11.82,-18.49 -12.989,-21.28 -10.796,-25.78 1.196,-2.46 2.717,-3.4 5.503,-3.4 1.805,0 2.742,0.36 4.212,1.62 1.04,0.89 2.024,1.41 2.187,1.15 0.397,-0.63 -0.628,-4.15 -1.931,-6.64 l -1.052,-2.02 1.524,0.42 c 0.838,0.22 2.508,3.21 3.712,3.21 1.204,0 2.874,-2.99 3.712,-3.21 l 1.523,-0.42 z"
       style="fill:#0b0b0b" />
    <path
       sodipodi:nodetypes="scsscssscsccsccsccs"
       inkscape:connector-curvature="0"
       id="path6184"
       d="m 1033.8711,2326.1237 c 1.303,-2.5 2.328,-6.02 1.931,-6.65 -0.163,-0.25 -1.147,0.26 -2.187,1.15 -1.47,1.26 -2.407,1.62 -4.212,1.62 -2.786,0 -4.307,-0.94 -5.503,-3.39 -2.193,-4.51 -1.024,-7.3 10.796,-25.79 1.734,-2.71 3.245,-4.93 3.359,-4.93 0.115,0 1.625,2.22 3.358,4.93 11.821,18.49 12.99,21.28 10.797,25.79 -1.197,2.45 -2.717,3.39 -5.503,3.39 -1.805,0 -2.743,-0.36 -4.212,-1.62 -1.04,-0.89 -2.024,-1.4 -2.187,-1.15 -0.397,0.63 0.628,4.15 1.931,6.65 l 1.051,2.01 -1.523,-0.41 c -0.838,-0.23 -2.508,-3.22 -3.712,-3.22 -1.204,0 -2.874,2.99 -3.712,3.22 l -1.524,0.41 z"
       style="fill:#0b0b0b" />
    <path
       inkscape:connector-curvature="0"
       id="path6186"
       d="m 1346.1751,2700.4007 c 5.792,1.385 9.59,5.894 10.504,12.47 0.526,3.785 0.526,3.786 -1.958,3.786 -2.25,0 -2.571,-0.338 -3.398,-3.575 -1.864,-7.299 -10.086,-10.34 -15.597,-5.768 -6.681,5.544 -2.259,15.84 6.803,15.84 2.771,0 2.924,0.143 2.924,2.736 0,2.659 -0.11,2.749 -3.88,3.168 -5.062,0.562 -6.826,2.637 -6.826,8.027 0,4.997 2.541,7.993 6.779,7.993 3.915,0 6.252,-1.959 7.318,-6.136 0.859,-3.362 1.108,-3.608 3.654,-3.608 2.691,0 2.726,0.05 2.274,3.045 -1.083,7.181 -6.025,11.572 -13.025,11.572 -7.433,0 -12.764,-5.259 -12.76,-12.587 0,-3.257 2.246,-7.891 4.835,-9.984 1.086,-0.877 1.124,-1.166 0.206,-1.536 -0.623,-0.251 -2.232,-1.426 -3.577,-2.611 -4.011,-3.534 -4.595,-12.328 -1.161,-17.494 2.697,-4.059 11.11,-6.719 16.885,-5.338 z"
       style="fill:#000000;fill-opacity:1;stroke:#fffecd;stroke-width:0.0817746;stroke-miterlimit:4;stroke-dasharray:none;stroke-opacity:1" />
    <path
       inkscape:connector-curvature="0"
       id="path6188"
       d="m 1033.8241,2281.5897 c -5.792,-1.385 -9.59,-5.894 -10.504,-12.47 -0.526,-3.785 -0.526,-3.786 1.958,-3.786 2.25,0 2.571,0.338 3.398,3.575 1.864,7.299 10.086,10.34 15.597,5.768 6.681,-5.544 2.259,-15.84 -6.803,-15.84 -2.771,0 -2.924,-0.143 -2.924,-2.736 0,-2.659 0.11,-2.749 3.879,-3.168 5.063,-0.562 6.827,-2.637 6.827,-8.027 0,-4.997 -2.541,-7.993 -6.779,-7.993 -3.915,0 -6.252,1.959 -7.318,6.136 -0.859,3.362 -1.108,3.608 -3.654,3.608 -2.691,0 -2.726,-0.05 -2.274,-3.045 1.083,-7.181 6.025,-11.572 13.025,-11.572 7.433,0 12.764,5.26 12.76,12.587 0,3.258 -2.246,7.892 -4.835,9.984 -1.086,0.877 -1.124,1.166 -0.206,1.536 0.622,0.251 2.232,1.426 3.577,2.612 4.011,3.533 4.595,12.327 1.161,17.494 -2.697,4.059 -11.11,6.718 -16.885,5.337 z"
       style="fill:#000000;fill-opacity:1;stroke:#fffecd;stroke-width:0.0817746;stroke-miterlimit:4;stroke-dasharray:none;stroke-opacity:1" />
    <path
       style="fill:#e2e2e2"
       d="m 1039.4156,2751.2857 c -1.7894,-0.2256 -4.3602,-1.683 -6.0188,-3.412 l -2.8951,-3.0182 -0.2805,-201.0696 c -0.1543,-110.5883 -0.033,-202.0841 0.2699,-203.324 0.5171,-2.1182 1.0659,-2.2543 9.0901,-2.2543 5.2283,0 9.9027,-0.5688 12.0546,-1.4668 6.4464,-2.6902 6.452,-2.7398 6.452,-57.0942 v -48.6062 l 2.2571,-0.5528 c 1.2414,-0.304 65.3331,-0.4253 142.426,-0.2695 l 140.169,0.2832 3.2793,3.2754 3.2793,3.2754 0.2804,201.1162 c 0.1543,110.6138 0.033,202.1306 -0.2699,203.3704 -0.5171,2.1183 -1.0659,2.2544 -9.0901,2.2544 -5.2283,0 -9.9027,0.5687 -12.0546,1.4668 -6.4454,2.6898 -6.452,2.7486 -6.452,57.0061 0,43.3178 -0.1701,48.5832 -1.5868,49.1262 -1.7062,0.6539 -275.7036,0.5501 -280.9099,-0.1065 z m 277.481,-49.9145 c 0,-52.3065 -0.102,-51.3565 6.15,-57.2662 4.5611,-4.3115 7.6902,-5.3215 16.4858,-5.3215 h 7.4582 v -197.9113 c 0,-171.4923 -0.196,-198.3799 -1.4686,-201.4219 -2.8659,-6.8509 6.3128,-6.4442 -145.4584,-6.4442 h -136.9601 v 47.6233 c 0,52.3066 0.1021,51.3565 -6.15,57.2663 -4.5611,4.3115 -7.6902,5.3215 -16.4858,5.3215 h -7.4582 v 197.9113 c 0,218.3114 -0.4486,203.4575 6.232,206.3566 2.8032,1.2164 23.8693,1.4369 140.4764,1.4703 l 137.1787,0.039 v -47.6234 z"
       id="path10703"
       inkscape:connector-curvature="0" />
    <path
       style="fill:#dbdbdb"
       d="m 1039.9265,2751.2985 c -1.437,-0.2228 -4.1455,-1.9845 -6.0188,-3.9149 l -3.406,-3.5098 v -202.0816 -202.0817 l 9.5297,-0.5391 c 5.9768,-0.3382 10.6725,-1.1507 12.5947,-2.1792 5.9751,-3.1973 5.9166,-2.6823 6.4649,-56.8959 l 0.5016,-49.595 h 141.1746 141.1746 l 3.7783,3.7738 3.7784,3.7739 v 202.1206 202.1206 l -9.5298,0.5687 c -5.2414,0.3128 -10.805,1.1896 -12.3637,1.9485 -6.1905,3.0138 -6.145,2.6257 -6.6959,57.097 l -0.5015,49.595 -138.9342,0.1021 c -76.4138,0.056 -140.1099,-0.08 -141.5469,-0.303 z m 277.9732,-51.6361 0.5016,-49.8331 4.7745,-4.7679 4.7745,-4.7679 9.7709,-0.5045 9.771,-0.5046 0.271,-197.3781 c 0.3057,-222.6678 0.95,-204.3597 -7.3207,-208.0138 -4.1497,-1.8333 -8.7759,-1.8872 -141.0654,-1.6414 l -136.7751,0.254 -0.5016,49.8332 -0.5016,49.8331 -4.7745,4.7679 -4.7745,4.7679 -9.7709,0.5045 -9.771,0.5046 -0.271,197.3781 c -0.3051,222.2518 -0.9232,204.3099 7.1649,207.982 3.9931,1.813 9.0198,1.8718 141.0685,1.6496 l 136.9278,-0.2305 z"
       id="path10705"
       inkscape:connector-curvature="0" />
    <path
       style="fill:#c1c1c1"
       d="m 1039.9265,2751.2985 c -1.437,-0.2228 -4.1455,-1.9845 -6.0188,-3.9149 l -3.406,-3.5098 v -202.0816 -202.0817 l 10.0772,-0.501 c 10.6855,-0.5311 14.1957,-1.8457 16.7213,-6.2619 0.9833,-1.7195 1.4082,-14.1397 1.7908,-52.3503 l 0.5016,-50.096 h 141.1746 141.1746 l 3.7783,3.7738 3.7784,3.7739 v 202.1206 202.1206 l -10.0773,0.5009 c -10.6855,0.5312 -14.1957,1.8458 -16.7213,6.262 -0.9834,1.7195 -1.4082,14.1397 -1.7908,52.3503 l -0.5015,50.096 -138.9342,0.1021 c -76.4138,0.056 -140.1099,-0.08 -141.5469,-0.303 z m 277.9732,-50.897 c 0.3659,-35.8139 0.8304,-49.6667 1.7172,-51.211 2.097,-3.6518 8.1342,-8.2812 11.5529,-8.8588 1.8049,-0.305 6.2158,-0.6654 9.802,-0.8009 l 6.5204,-0.2464 0.2506,-198.38 c 0.2365,-187.2117 0.1517,-198.5775 -1.5047,-201.8868 -1.003,-2.0037 -3.2602,-4.2584 -5.2663,-5.2605 -3.3003,-1.6485 -11.756,-1.7387 -140.9404,-1.5028 l -137.4294,0.2508 -0.5016,49.0941 c -0.3659,35.8139 -0.8304,49.6667 -1.7172,51.211 -2.0969,3.6518 -8.1342,8.2812 -11.5529,8.8588 -1.8049,0.305 -6.2158,0.6654 -9.802,0.8009 l -6.5204,0.2464 -0.2506,198.38 c -0.2365,187.2117 -0.1518,198.5775 1.5047,201.8868 1.003,2.0036 3.2602,4.2584 5.2663,5.2604 3.3003,1.6486 11.756,1.7388 140.9404,1.5029 l 137.4294,-0.2509 z"
       id="path10707"
       inkscape:connector-curvature="0" />
    <path
       style="fill:#b9b9b9"
       d="m 1039.5299,2750.4413 c -2.3002,-1.1224 -2.4184,-1.2927 -0.5016,-0.7226 4.3825,1.3036 276.9367,1.4658 278.5051,0.1657 1.1215,-0.9297 1.3759,-9.8642 1.405,-49.3551 0.031,-41.44 0.251,-48.5721 1.5676,-50.7247 l 1.532,-2.5048 -0.7812,2.5048 c -0.4297,1.3776 -0.9216,24.9352 -1.0931,52.3503 l -0.3119,49.8454 -138.6562,-0.045 c -119.7106,-0.039 -139.0675,-0.2459 -141.6657,-1.5138 z m -8.4107,-8.5585 c -0.8089,-2.3176 -1.1191,-58.4111 -1.1191,-202.345 v -199.1386 l 9.7805,-0.4589 c 5.3794,-0.2525 10.9091,-0.7739 12.2884,-1.1586 l 2.5079,-0.6997 -2.5079,1.5302 c -1.6846,1.0279 -5.1585,1.5418 -10.583,1.5657 -4.8977,0.022 -8.5489,0.5086 -9.279,1.2378 -1.6733,1.6712 -1.7566,393.6749 -0.085,398.4652 0.6155,1.7635 0.8934,3.4318 0.6175,3.7073 -0.2759,0.2756 -1.0052,-0.9419 -1.6207,-2.7054 z m 296.8119,-99.4943 c 1.69,-1.0312 5.1664,-1.5418 10.6608,-1.5657 5.618,-0.024 8.5055,-0.4596 9.2864,-1.3995 1.3025,-1.5674 1.1454,-396.0492 -0.1594,-400.4057 -0.5715,-1.9084 -0.4001,-1.7891 0.7202,0.501 1.2763,2.609 1.4764,29.3445 1.5157,202.5443 l 0.045,199.5385 -9.7806,0.459 c -5.3793,0.2525 -10.9091,0.7738 -12.2884,1.1586 l -2.5078,0.6996 2.5078,-1.5301 z m -269.1878,-310.1924 c 0.4297,-1.3776 0.9216,-24.9352 1.0931,-52.3503 l 0.3119,-49.8455 138.6562,0.045 c 119.7106,0.039 139.0675,0.2459 141.6657,1.5138 2.3002,1.1225 2.4184,1.2928 0.5016,0.7226 -4.3825,-1.3036 -276.9367,-1.4657 -278.5051,-0.1656 -1.1215,0.9296 -1.3759,9.8641 -1.405,49.3551 -0.031,41.4399 -0.2509,48.5721 -1.5676,50.7247 l -1.532,2.5048 0.7812,-2.5048 z"
       id="path10709"
       inkscape:connector-curvature="0" />
    <path
       style="fill:#aeaeae"
       d="m 1178.8671,2751.2489 c 98.8726,-0.1855 137.707,-0.5693 138.6737,-1.3707 1.0801,-0.8952 1.3956,-10.4501 1.6131,-48.8399 l 0.2704,-47.727 0.2409,49.3445 0.2408,49.3445 -139.1849,-0.2468 -139.185,-0.2469 z m -148.6187,-210.904 -0.2483,-200.1334 9.279,0.2016 9.279,0.2016 -7.6852,0.3399 c -4.7332,0.2093 -8.1037,0.8436 -8.7749,1.6514 -0.7743,0.9318 -1.1638,58.7164 -1.3456,199.5919 l -0.2558,198.2804 z m 308.8788,100.7012 c 4.7332,-0.2093 8.1037,-0.8437 8.7749,-1.6514 0.7743,-0.9318 1.1639,-58.7164 1.3456,-199.5919 l 0.2558,-198.2804 0.2483,200.1334 0.2482,200.1334 -9.279,-0.2016 -9.279,-0.2017 z m -278.7923,-361.7012 -0.2408,-49.3446 139.185,0.2469 139.1849,0.2469 -137.331,0.2577 c -98.8726,0.1855 -137.707,0.5693 -138.6737,1.3706 -1.08,0.8953 -1.3956,10.4502 -1.6131,48.84 l -0.2704,47.727 z"
       id="path10711"
       inkscape:connector-curvature="0" />
    <path
       style="fill:#9f9f9f"
       d="m 1179.3686,2751.2489 c 99.8345,-0.1866 138.2054,-0.5667 139.185,-1.3786 1.0399,-0.8621 1.3524,-0.7455 1.3524,0.5045 0,1.4928 -11.3637,1.6054 -139.1849,1.3786 l -139.185,-0.2469 z m -149.1202,-210.904 c -0.2284,-184.0432 -0.1175,-200.1334 1.3792,-200.1334 1.2523,0 1.3685,0.3117 0.5041,1.352 -0.819,0.9857 -1.1928,55.2285 -1.3793,200.1334 l -0.2557,198.7814 z m 317.62,100.0922 c 0.819,-0.9856 1.1928,-55.2285 1.3793,-200.1334 l 0.2558,-198.7813 0.2482,200.1334 c 0.2284,184.0432 0.1175,200.1334 -1.3792,200.1334 -1.2523,0 -1.3685,-0.3117 -0.5041,-1.3521 z m -287.7743,-408.8112 c 0,-1.4928 11.3637,-1.6054 139.185,-1.3787 l 139.1849,0.2469 -137.8325,0.2577 c -99.8345,0.1866 -138.2054,0.5666 -139.185,1.3786 -1.0399,0.862 -1.3524,0.7455 -1.3524,-0.5045 z"
       id="path10713"
       inkscape:connector-curvature="0" />
    <path
       style="fill:#000000"
       d="m 1111.5831,2751.249 c 38.5259,-0.1453 101.272,-0.1453 139.4357,0 38.1638,0.1454 6.6427,0.2643 -70.047,0.2643 -76.6896,0 -107.9145,-0.119 -69.3887,-0.2643 z m -81.0912,-211.1546 c 0,-110.2111 0.1172,-155.1489 0.2605,-99.8616 0.1433,55.2872 0.1432,145.4599 0,200.3838 -0.1433,54.9239 -0.2605,9.6889 -0.2605,-100.5222 z m 318.9968,-98.1881 c 0,-110.2111 0.1172,-155.1489 0.2605,-99.8616 0.1433,55.2872 0.1433,145.4599 0,200.3838 -0.1433,54.9239 -0.2605,9.6889 -0.2605,-100.5222 z m -219.8491,-211.6554 c 38.5258,-0.1453 101.2719,-0.1453 139.4357,1e-4 38.1637,0.1453 6.6426,0.2642 -70.047,0.2642 -76.6897,0 -107.9146,-0.119 -69.3887,-0.2643 z"
       id="path10715"
       inkscape:connector-curvature="0" />
    <path
       transform="translate(0,-1.2207032e-4)"
       inkscape:connector-curvature="0"
       id="path11004"
       d="m 1042.219,2747.1942 c -2.6264,-0.6562 -5.5647,-2.4118 -6.5295,-3.9014 -0.9647,-1.4896 -1.7706,-92.1559 -1.7907,-201.4806 l -0.037,-198.7723 h 9.1345 c 6.4348,0 10.6536,-1.6171 14.2749,-5.4718 4.8672,-5.1809 5.1749,-8.0684 5.7884,-54.3191 l 0.6479,-48.8474 h 138.8833 c 76.3858,0 139.778,0.8951 140.8716,1.9891 1.0936,1.094 2.275,92.1532 2.6253,202.3538 l 0.6369,200.3646 h -9.1343 c -19.2363,0 -21.6215,7.626 -21.8429,69.8389 l -0.1423,39.9932 -134.3056,-0.2769 c -73.868,-0.1524 -136.4544,-0.8139 -139.0809,-1.4701 z m 160.6972,-29.4541 c 21.6187,-32.3141 26.5584,-48.1017 18.0069,-57.551 -4.3903,-4.8512 -13.034,-5.6668 -20.082,-1.8948 -5.4382,2.9105 -5.7195,0.9445 -1.0368,-7.2469 1.8767,-3.283 3.4503,-6.5064 3.4968,-7.163 0.047,-0.6566 -5.8248,-1.1938 -13.0475,-1.1938 -7.2226,0 -13.1321,0.1373 -13.1321,0.3053 0,0.1679 1.6261,4.1971 3.6136,8.9537 3.211,7.6852 1.3833,12.4142 -2.4197,6.2607 -0.8117,-1.3132 -4.5589,-2.3876 -8.3272,-2.3876 -12.0785,0 -19.2745,12.1327 -14.5562,24.5425 4.3213,11.366 32.2231,54.319 34.7607,53.5119 1.3467,-0.4284 7.0723,-7.69 12.7235,-16.137 z m 0.4695,-180.8218 c 0,-0.3935 -1.6909,-3.9853 -3.7575,-7.9818 -3.9788,-7.6942 -2.8581,-12.0055 1.8872,-7.2602 4.0617,4.0617 13.9052,3.4781 18.9928,-1.1262 5.4545,-4.9362 5.6872,-17.5428 0.5133,-27.8034 -2.1192,-4.2027 -9.8129,-17.1639 -17.097,-28.8027 l -13.2439,-21.1614 -4.3799,5.6417 c -9.6799,12.4684 -30.6586,49.0635 -31.9997,55.82 -1.9447,9.7973 6.1569,20.2574 15.69,20.2574 3.7668,0 7.5127,-1.0745 8.3244,-2.3877 3.803,-6.1534 5.6307,-1.4244 2.4197,6.2607 -1.9875,4.7567 -3.6136,8.7858 -3.6136,8.9537 0,0.1679 5.9095,0.3054 13.1321,0.3054 7.2227,0 13.1321,-0.322 13.1321,-0.7155 z m -0.084,-198.6537 c -0.047,-0.6566 -1.6206,-3.8799 -3.4973,-7.163 -4.6827,-8.1914 -4.4014,-10.1574 1.0368,-7.2469 17.9783,9.6217 30.5852,-8.6803 20.1712,-29.2834 -7.9698,-15.7672 -28.4635,-47.0298 -30.8323,-47.0336 -2.6961,0 -30.8071,43.8806 -34.748,54.2461 -4.7183,12.4098 2.4777,24.5425 14.5562,24.5425 3.7683,0 7.5155,-1.0744 8.3272,-2.3876 3.803,-6.1535 5.6307,-1.4244 2.4197,6.2607 -1.9875,4.7566 -3.6104,8.7858 -3.6065,8.9537 0,0.1679 5.9135,0.3053 13.1326,0.3053 7.219,0 13.0872,-0.5372 13.0404,-1.1938 z"
       style="fill:#fff6d5;fill-opacity:1;stroke:none;stroke-width:0.105;stroke-miterlimit:4;stroke-dasharray:none;stroke-opacity:1" />
  </g>
</svg>
