<svg height="122.99" width="78.999" xmlns="http://www.w3.org/2000/svg"><g transform="matrix(.13166 0 0 .13666 -197.497 -286.976)"><rect style="font-style:normal;font-variant:normal;font-weight:500;font-stretch:normal;font-size:medium;line-height:125%;font-family:Gaelic;-inkscape-font-specification:'Gaelic Medium';letter-spacing:0;word-spacing:0;fill:#fff;fill-opacity:1;stroke:#000;stroke-width:2.03317;stroke-linecap:butt;stroke-linejoin:miter;stroke-miterlimit:4;stroke-dasharray:none;stroke-opacity:1" y="2101.016" x="1501.017" ry="49.888" rx="48.211" height="897.967" width="597.967"/><path d="M1580.315 2969.538c-.36-.367-.657-38.958-.657-85.759 0-82.258-.058-85.169-1.873-87.448-1.836-2.308-2.295-2.367-22.33-2.856l-20.455-.5v-486.248l20.334-.5c17.804-.436 20.551-.72 22.084-2.281 1.644-1.675 1.78-6.989 2.24-87.864l.492-86.082h440.7l.491 86.082c.461 80.875.597 86.189 2.241 87.864 1.533 1.56 4.28 1.845 22.084 2.282l20.334.499v486.249l-20.334.499c-17.804.437-20.551.721-22.084 2.282-1.644 1.675-1.78 6.988-2.24 87.864l-.492 86.082-219.939.252c-120.967.138-220.234-.05-220.596-.417zm437.104-85.952c0-81.68.049-83.697 1.954-86.875 3.95-6.589 6.25-7.222 26.261-7.226h17.912v-479.26h-17.912c-20.011 0-22.312-.637-26.261-7.226-1.906-3.178-1.951-5.195-1.954-86.874v-83.621h-433.83v83.62c0 81.68-.05 83.697-1.954 86.876-3.95 6.588-6.25 7.221-26.261 7.226h-17.912v479.26h17.912c20.01 0 22.312.636 26.261 7.225 1.905 3.179 1.951 5.196 1.954 86.875v83.62h433.83z" style="fill:#b7b772"/><path style="fill:#b7b772" d="M1580.315 2969.538c-.36-.367-.657-38.958-.657-85.759 0-82.258-.058-85.169-1.873-87.448-1.836-2.308-2.295-2.367-22.33-2.856l-20.455-.5v-486.248l20.334-.5c17.804-.436 20.551-.72 22.084-2.281 1.644-1.675 1.78-6.989 2.24-87.864l.492-86.082h440.7l.491 86.082c.461 80.875.597 86.189 2.241 87.864 1.533 1.56 4.28 1.845 22.084 2.282l20.334.499v486.249l-20.334.499c-17.804.437-20.551.721-22.084 2.282-1.644 1.675-1.78 6.988-2.24 87.864l-.492 86.082-219.939.252c-120.967.138-220.234-.05-220.596-.417zm437.104-85.952c0-81.68.049-83.697 1.954-86.875 3.95-6.589 6.25-7.222 26.261-7.226h17.912v-479.26h-17.912c-20.011 0-22.312-.637-26.261-7.226-1.906-3.178-1.951-5.195-1.954-86.874v-83.621h-433.83v83.62c0 81.68-.05 83.697-1.954 86.876-3.95 6.588-6.25 7.221-26.261 7.226h-17.912v479.26h17.912c20.01 0 22.312.636 26.261 7.225 1.905 3.179 1.951 5.196 1.954 86.875v83.62h433.83z"/><path d="M1541.138 2179.785v-8.63q6.713 0 9.747-.853 3.08-.853 4.782-3.362 1.7-2.559 1.7-6.422 0-4.666-2.528-8.028-2.483-3.362-7.402-3.362-5.425 0-7.908 3.563-2.483 3.512-2.713 10.536h-8.873q0-12.042 5.425-17.11 5.471-5.117 13.38-5.117 9.608 0 14.482 5.168 4.874 5.168 4.874 13.196 0 5.92-2.805 9.985-2.759 4.064-6.253 5.77 11.954 3.863 11.954 16.657 0 10.637-6.575 15.956-6.528 5.268-15.356 5.268-11.264 0-16.69-6.573-5.379-6.573-5.379-18.163h8.46q.23 8.028 4 12.293 3.816 4.214 10.115 4.214 5.747 0 9.011-3.462 3.31-3.512 3.31-8.83 0-5.57-3.861-9.132-3.863-3.612-12.322-3.612-1.104 0-2.575.05zM2047.138 2179.785v-8.63q6.713 0 9.747-.853 3.08-.853 4.782-3.362 1.7-2.559 1.7-6.422 0-4.666-2.528-8.028-2.483-3.362-7.402-3.362-5.425 0-7.908 3.563-2.483 3.512-2.713 10.536h-8.873q0-12.042 5.425-17.11 5.471-5.117 13.38-5.117 9.608 0 14.482 5.168 4.874 5.168 4.874 13.196 0 5.92-2.805 9.985-2.759 4.064-6.253 5.77 11.954 3.863 11.954 16.657 0 10.637-6.575 15.956-6.528 5.268-15.356 5.268-11.264 0-16.69-6.573-5.379-6.573-5.379-18.163h8.46q.23 8.028 4 12.293 3.816 4.214 10.115 4.214 5.747 0 9.011-3.462 3.31-3.512 3.31-8.83 0-5.57-3.861-9.132-3.863-3.612-12.322-3.612-1.104 0-2.575.05zM1552.862 2920.215v8.63q-6.713 0-9.747.853-3.08.853-4.782 3.362-1.7 2.559-1.7 6.422 0 4.666 2.528 8.028 2.483 3.362 7.402 3.362 5.425 0 7.908-3.562 2.483-3.513 2.713-10.537h8.873q0 12.042-5.425 17.11-5.471 5.117-13.38 5.117-9.608 0-14.482-5.168-4.874-5.168-4.874-13.196 0-5.92 2.805-9.984 2.759-4.064 6.253-5.77-11.954-3.864-11.954-16.658 0-10.637 6.575-15.956 6.528-5.268 15.356-5.268 11.264 0 16.69 6.573 5.379 6.573 5.379 18.163h-8.46q-.23-8.028-4-12.293-3.816-4.214-10.115-4.214-5.747 0-9.011 3.462-3.31 3.512-3.31 8.83 0 5.57 3.861 9.132 3.863 3.613 12.322 3.613 1.104 0 2.575-.05zM2058.862 2920.215v8.63q-6.713 0-9.747.853-3.08.853-4.782 3.362-1.7 2.559-1.7 6.422 0 4.666 2.528 8.028 2.483 3.362 7.402 3.362 5.425 0 7.908-3.562 2.483-3.513 2.713-10.537h8.873q0 12.042-5.425 17.11-5.471 5.117-13.38 5.117-9.608 0-14.482-5.168-4.874-5.168-4.874-13.196 0-5.92 2.805-9.984 2.759-4.064 6.253-5.77-11.954-3.864-11.954-16.658 0-10.637 6.575-15.956 6.528-5.268 15.356-5.268 11.264 0 16.69 6.573 5.379 6.573 5.379 18.163h-8.46q-.23-8.028-4-12.293-3.816-4.214-10.115-4.214-5.747 0-9.011 3.462-3.31 3.512-3.31 8.83 0 5.57 3.861 9.132 3.863 3.613 12.322 3.613 1.104 0 2.575-.05z" style="font-style:normal;font-variant:normal;font-weight:400;font-stretch:normal;font-size:medium;line-height:125%;font-family:Rockwell;-inkscape-font-specification:Rockwell;letter-spacing:0;word-spacing:0;fill:#000;fill-opacity:1;stroke:none;stroke-width:1px;stroke-linecap:butt;stroke-linejoin:miter;stroke-opacity:1"/><path d="M1537.967 2211.194c-6.681-2.381-12.218-10.933-12.218-18.871v-3.535l3.699.239c3.678.237 3.701.256 4.252 3.504 1.113 6.565 4.443 10.483 10.235 12.042 9.235 2.487 17.105-4.351 16.026-13.925-.745-6.606-5.311-10.313-13.514-10.971l-5.05-.406v-7.407l4.759-.539c7.984-.903 10.37-2.794 11.364-9.009.637-3.982-1.33-9.541-4.163-11.77-2.312-1.82-8.074-2.119-11.177-.581-2.421 1.2-5.477 7.068-5.477 10.518v2.572h-8.753l.547-4.107c.841-6.312 3.34-11.406 6.836-13.939 4.346-3.148 10.274-4.33 15.974-3.186 6.201 1.245 9.809 3.833 12.292 8.815 3.787 7.6 2.352 15.98-3.749 21.885l-2.91 2.817 2.391.99c3.296 1.366 7.613 6.351 8.61 9.946 2.883 10.378-2.55 21.531-12.066 24.774-4.613 1.572-13.697 1.645-17.908.144zM2044.382 2211.266c-1.556-.556-3.916-1.785-5.246-2.732-3.036-2.161-6.914-10.1-7.597-15.552l-.515-4.108h7.86l.91 4.38c1.15 5.546 5.001 10.09 9.596 11.328 11.068 2.98 19.85-6.427 15.828-16.957-1.876-4.913-5.8-7.405-12.507-7.944l-5.11-.41v-7.427l5.151-.552c3.992-.427 5.673-1.02 7.474-2.634 3.931-3.523 4.525-10.187 1.375-15.444-3.618-6.039-13.849-5.677-17.213.609-.47.88-1.087 3.228-1.37 5.22l-.515 3.621-4.214.24-4.214.241.526-4.544c1.443-12.479 11.046-19.314 23.467-16.702 13.676 2.875 18.54 20.82 8.18 30.18-3.45 3.115-3.454 3.028.238 5.007 6.13 3.288 8.982 10.384 7.624 18.972-1.007 6.374-4.171 10.729-9.979 13.735-4.34 2.247-5.65 2.549-10.926 2.518-3.297-.019-7.267-.489-8.823-1.045zM1539.745 2957.57c-6.886-2.147-11.248-8.559-11.248-16.534 0-5.957 2.278-11.146 6.21-14.145l2.726-2.08-3-1.513c-1.652-.833-3.668-2.088-4.482-2.79-2.573-2.219-4.352-7.221-4.37-12.285-.05-13.426 8.995-21.369 23.355-20.51 11.683.697 17.936 6.815 19.361 18.943l.513 4.361h-7.84l-.531-3.325c-1.272-7.957-6.566-12.66-14.163-12.584-7.763.078-12.218 4.596-12.218 12.388 0 7.867 4.273 12.014 13.11 12.723l4.996.4v7.498l-4.499.547c-5.66.688-8.45 2.094-9.962 5.017-2.664 5.151-.487 14.315 3.873 16.301 2.8 1.276 7.851 1.179 10.522-.202 2.5-1.293 4.348-4.751 5.14-9.62l.54-3.324H1565.465v2.987c0 13.628-12.118 21.99-25.72 17.748zM2047.056 2957.996c-6.775-1.615-11.785-7.629-12.546-15.06-.627-6.12.864-10.552 4.912-14.6 1.893-1.893 3.442-3.529 3.442-3.635 0-.107-1.052-.63-2.339-1.162-6.647-2.754-10.44-11.493-8.727-20.111 1.882-9.475 8.923-15.099 19.682-15.722 13.57-.785 20.987 5.657 23.01 19.986l.47 3.325h-3.906c-3.624 0-3.94-.155-4.383-2.151-1.97-8.903-4.6-12.076-11.243-13.575-9.234-2.082-16.967 5.23-15.446 14.604 1.011 6.23 6.828 10.462 14.422 10.494l4.108.016v7.635l-5.673.838c-4.758.703-6.012 1.217-7.782 3.19-1.16 1.293-2.333 3.543-2.606 5-.696 3.71.917 8.998 3.546 11.627 1.904 1.904 2.841 2.224 6.527 2.224 3.477 0 4.76-.385 6.687-2.007 2.402-2.021 3.983-5.951 3.99-9.925 0-2.091.128-2.151 4.398-2.151h4.394l-.537 4.498c-1.006 8.423-4.945 13.787-11.965 16.292-3.19 1.139-8.544 1.298-12.435.37z" style="fill:#000;fill-opacity:1;stroke:#fffecd;stroke-width:.277224;stroke-miterlimit:4;stroke-dasharray:none;stroke-opacity:1"/><path d="M1540.636 2282.932c1.886-1.488 3.123-3.244 3.969-5.636.648-1.834.726-2.68.752-8.187l.03-6.141-1.024-.097c-1.465-.14-2.852.668-5.284 3.076-3.13 3.1-5.523 3.977-8.637 3.166-1.833-.477-4.609-3.156-5.113-4.934-.439-1.55-.439-4.022 0-5.573.504-1.777 3.28-4.456 5.113-4.934 3.114-.81 5.507.066 8.637 3.167 2.432 2.407 3.82 3.215 5.284 3.076 1.02-.097 1.023-.104.991-1.835-.04-2.115-.82-3.932-3.193-7.427-2.163-3.187-2.719-4.66-2.719-7.214 0-2.508.565-3.81 2.356-5.427a7.716 7.716 0 0 1 10.39 0c1.792 1.618 2.356 2.919 2.356 5.427 0 2.553-.556 4.027-2.719 7.214-2.372 3.495-3.154 5.312-3.193 7.427-.032 1.731-.028 1.738.992 1.835 1.464.14 2.851-.669 5.283-3.076 2.3-2.279 3.851-3.173 5.893-3.399 2.27-.25 4.007.427 5.85 2.281 1.812 1.823 2.35 3.122 2.35 5.672s-.538 3.849-2.35 5.671c-1.843 1.855-3.58 2.532-5.85 2.281-2.042-.225-3.592-1.12-5.893-3.398-2.432-2.408-3.819-3.216-5.283-3.077l-1.024.098.029 6.141c.026 5.507.104 6.353.753 8.187.845 2.392 2.082 4.148 3.968 5.636l1.354 1.068-1.125-.22c-2.969-.582-4.82-.81-6.587-.81-1.766 0-3.618.228-6.587.81l-1.124.22 1.353-1.068zM2046.636 2282.932c1.886-1.488 3.123-3.244 3.969-5.636.648-1.834.726-2.68.752-8.187l.03-6.141-1.024-.097c-1.465-.14-2.852.668-5.284 3.076-3.13 3.1-5.523 3.977-8.637 3.166-1.833-.477-4.609-3.156-5.113-4.934-.439-1.55-.439-4.022 0-5.573.504-1.777 3.28-4.456 5.113-4.934 3.114-.81 5.507.066 8.637 3.167 2.432 2.407 3.82 3.215 5.284 3.076 1.02-.097 1.023-.104.991-1.835-.04-2.115-.82-3.932-3.193-7.427-2.163-3.187-2.719-4.66-2.719-7.214 0-2.508.565-3.81 2.355-5.427a7.716 7.716 0 0 1 10.392 0c1.79 1.618 2.355 2.919 2.355 5.427 0 2.553-.556 4.027-2.719 7.214-2.372 3.495-3.154 5.312-3.193 7.427-.032 1.731-.028 1.738.992 1.835 1.464.14 2.851-.669 5.283-3.076 2.3-2.279 3.851-3.173 5.893-3.399 2.27-.25 4.007.427 5.85 2.281 1.812 1.823 2.35 3.122 2.35 5.672s-.538 3.849-2.35 5.671c-1.843 1.855-3.58 2.532-5.85 2.281-2.042-.225-3.592-1.12-5.893-3.398-2.432-2.408-3.819-3.216-5.283-3.077l-1.024.098.029 6.141c.026 5.507.104 6.353.752 8.187.846 2.392 2.083 4.148 3.97 5.636l1.353 1.068-1.125-.22c-2.969-.582-4.82-.81-6.587-.81-1.766 0-3.618.228-6.587.81l-1.124.22 1.353-1.068zM1540.636 2817.068c1.886 1.488 3.123 3.245 3.969 5.637.648 1.834.726 2.68.752 8.186l.03 6.142-1.024.097c-1.465.139-2.852-.669-5.284-3.077-3.13-3.1-5.523-3.977-8.637-3.166-1.833.477-4.609 3.156-5.113 4.934-.439 1.55-.439 4.023 0 5.573.504 1.778 3.28 4.457 5.113 4.934 3.114.81 5.507-.066 8.637-3.166 2.432-2.408 3.82-3.216 5.284-3.077 1.02.097 1.023.104.991 1.835-.04 2.116-.82 3.932-3.193 7.427-2.163 3.187-2.719 4.661-2.719 7.214 0 2.509.565 3.81 2.356 5.428a7.716 7.716 0 0 0 10.39 0c1.792-1.618 2.356-2.92 2.356-5.428 0-2.553-.556-4.027-2.719-7.214-2.372-3.495-3.154-5.311-3.193-7.427-.032-1.73-.028-1.738.992-1.835 1.464-.139 2.851.669 5.283 3.077 2.3 2.278 3.851 3.172 5.893 3.398 2.27.25 4.007-.427 5.85-2.28 1.812-1.824 2.35-3.122 2.35-5.672s-.538-3.85-2.35-5.672c-1.843-1.854-3.58-2.532-5.85-2.28-2.042.225-3.592 1.119-5.893 3.397-2.432 2.408-3.819 3.216-5.283 3.077l-1.024-.097.029-6.142c.026-5.507.104-6.352.753-8.186.845-2.392 2.082-4.149 3.968-5.637l1.354-1.068-1.125.22c-2.969.582-4.82.81-6.587.81-1.766 0-3.618-.228-6.587-.81l-1.124-.22 1.353 1.068zM2046.636 2817.068c1.886 1.488 3.123 3.245 3.969 5.637.648 1.834.726 2.68.752 8.186l.03 6.142-1.024.097c-1.465.139-2.852-.669-5.284-3.077-3.13-3.1-5.523-3.977-8.637-3.166-1.833.477-4.609 3.156-5.113 4.934-.439 1.55-.439 4.023 0 5.573.504 1.778 3.28 4.457 5.113 4.934 3.114.81 5.507-.066 8.637-3.166 2.432-2.408 3.82-3.216 5.284-3.077 1.02.097 1.023.104.991 1.835-.04 2.116-.82 3.932-3.193 7.427-2.163 3.187-2.719 4.661-2.719 7.214 0 2.509.565 3.81 2.355 5.428a7.716 7.716 0 0 0 10.392 0c1.79-1.618 2.355-2.92 2.355-5.428 0-2.553-.556-4.027-2.719-7.214-2.372-3.495-3.154-5.311-3.193-7.427-.032-1.73-.028-1.738.992-1.835 1.464-.139 2.851.669 5.283 3.077 2.3 2.278 3.851 3.172 5.893 3.398 2.27.25 4.007-.427 5.85-2.28 1.812-1.824 2.35-3.122 2.35-5.672s-.538-3.85-2.35-5.672c-1.843-1.854-3.58-2.532-5.85-2.28-2.042.225-3.592 1.119-5.893 3.397-2.432 2.408-3.819 3.216-5.283 3.077l-1.024-.097.029-6.142c.026-5.507.104-6.352.752-8.186.846-2.392 2.083-4.149 3.97-5.637l1.353-1.068-1.125.22c-2.969.582-4.82.81-6.587.81-1.766 0-3.618-.228-6.587-.81l-1.124-.22 1.353 1.068zM1783.77 2309.241c4.8-3.844 7.95-8.382 10.1-14.56 1.65-4.739 1.85-6.923 1.92-21.15l.1-15.866-2.6-.25c-3.73-.36-7.26 1.727-13.45 7.947-7.97 8.008-14.06 10.275-21.99 8.18-4.66-1.233-11.73-8.154-13.01-12.746-1.12-4.005-1.12-10.392 0-14.397 1.28-4.592 8.35-11.513 13.01-12.746 7.93-2.095 14.02.171 21.99 8.18 6.19 6.22 9.72 8.307 13.45 7.947 2.59-.25 2.6-.269 2.52-4.74-.1-5.465-2.09-10.159-8.13-19.187-5.5-8.233-6.92-12.041-6.92-18.635 0-6.48 1.44-9.842 6-14.022 7.55-6.928 18.89-6.928 26.45 0 4.56 4.18 5.99 7.541 5.99 14.022 0 6.594-1.41 10.402-6.92 18.635-6.04 9.028-8.03 13.722-8.13 19.186-.1 4.472-.1 4.491 2.53 4.741 3.73.36 7.26-1.727 13.45-7.948 5.85-5.886 9.8-8.195 15-8.778 5.78-.648 10.2 1.101 14.89 5.892 4.61 4.708 5.98 8.063 5.98 14.651 0 6.589-1.37 9.943-5.98 14.652-4.69 4.79-9.11 6.54-14.89 5.892-5.2-.583-9.15-2.892-15-8.779-6.19-6.22-9.72-8.307-13.45-7.948l-2.61.251.1 15.866c.1 14.227.26 16.411 1.91 21.15 2.16 6.179 5.3 10.716 10.11 14.56l3.44 2.759-2.86-.57c-7.56-1.502-12.27-2.09-16.77-2.09-4.49 0-9.21.588-16.76 2.09l-2.87.57 3.45-2.759zM1783.77 2609.241c4.8-3.844 7.95-8.382 10.1-14.56 1.65-4.739 1.85-6.923 1.92-21.15l.1-15.866-2.6-.25c-3.73-.36-7.26 1.727-13.45 7.947-7.97 8.008-14.06 10.275-21.99 8.18-4.66-1.233-11.73-8.154-13.01-12.746-1.12-4.005-1.12-10.392 0-14.397 1.28-4.592 8.35-11.513 13.01-12.746 7.93-2.095 14.02.171 21.99 8.18 6.19 6.22 9.72 8.307 13.45 7.947 2.59-.25 2.6-.269 2.52-4.74-.1-5.465-2.09-10.159-8.13-19.187-5.5-8.233-6.92-12.041-6.92-18.635 0-6.48 1.44-9.842 6-14.022 7.55-6.928 18.89-6.928 26.45 0 4.56 4.18 5.99 7.541 5.99 14.022 0 6.594-1.41 10.402-6.92 18.635-6.04 9.028-8.03 13.722-8.13 19.186-.1 4.472-.1 4.491 2.53 4.741 3.73.36 7.26-1.727 13.45-7.948 5.85-5.886 9.8-8.195 15-8.778 5.78-.648 10.2 1.101 14.89 5.892 4.61 4.708 5.98 8.063 5.98 14.651 0 6.589-1.37 9.943-5.98 14.652-4.69 4.79-9.11 6.54-14.89 5.892-5.2-.583-9.15-2.892-15-8.779-6.19-6.22-9.72-8.307-13.45-7.948l-2.61.251.1 15.866c.1 14.227.26 16.411 1.91 21.15 2.16 6.179 5.3 10.716 10.11 14.56l3.44 2.759-2.86-.57c-7.56-1.502-12.27-2.09-16.77-2.09-4.49 0-9.21.588-16.76 2.09l-2.87.57 3.45-2.759zM1783.77 2790.759c4.8 3.844 7.95 8.382 10.1 14.56 1.65 4.739 1.85 6.923 1.92 21.15l.1 15.866-2.6.25c-3.73.36-7.26-1.727-13.45-7.947-7.97-8.008-14.06-10.275-21.99-8.18-4.66 1.233-11.73 8.154-13.01 12.746-1.12 4.005-1.12 10.392 0 14.397 1.28 4.592 8.35 11.513 13.01 12.746 7.93 2.095 14.02-.171 21.99-8.18 6.19-6.22 9.72-8.307 13.45-7.947 2.59.25 2.6.269 2.52 4.74-.1 5.465-2.09 10.159-8.13 19.187-5.5 8.233-6.92 12.041-6.92 18.635 0 6.48 1.44 9.842 6 14.022 7.55 6.928 18.89 6.928 26.45 0 4.56-4.18 5.99-7.541 5.99-14.022 0-6.594-1.41-10.402-6.92-18.635-6.04-9.028-8.03-13.722-8.13-19.186-.1-4.472-.1-4.491 2.53-4.741 3.73-.36 7.26 1.727 13.45 7.948 5.85 5.886 9.8 8.195 15 8.778 5.78.648 10.2-1.101 14.89-5.892 4.61-4.708 5.98-8.063 5.98-14.651 0-6.589-1.37-9.943-5.98-14.652-4.69-4.79-9.11-6.54-14.89-5.892-5.2.583-9.15 2.892-15 8.779-6.19 6.22-9.72 8.307-13.45 7.948l-2.61-.251.1-15.866c.1-14.227.26-16.411 1.91-21.15 2.16-6.179 5.3-10.716 10.11-14.56l3.44-2.759-2.86.57c-7.56 1.502-12.27 2.09-16.77 2.09-4.49 0-9.21-.588-16.76-2.09l-2.87-.57 3.45 2.759z" style="fill:#0a0a0a"/><path style="fill:#fffecd;fill-opacity:1;stroke:#fffecd;stroke-width:.676816;stroke-miterlimit:4;stroke-dasharray:none;stroke-opacity:1" d="M1584.707 2882.386c-.722-101.567 1.787-92.84-26.685-92.84h-18.805v-477.119l18.984-1.358c15.468-1.107 19.625-2.067 22.444-5.18 3.21-3.545 3.503-9.936 4.062-88.623l.602-84.802H2016.748v83.216c0 82.269.457 88.997 6.307 92.808 1.053.686 10.379 1.853 20.725 2.593l18.81 1.347v477.119l-18.623.029c-10.243.015-19.57.66-20.725 1.432-6.067 4.05-6.494 10.17-6.494 92.964v83.216H1585.309l-.602-84.802zm231 22.65c6.5-7.433 5.594-16.21-3.343-32.399-11.782-21.344-9.685-27.999 4.91-15.577 15.397 13.105 22.756 14.08 32.529 4.307 5.534-5.534 6.494-7.815 6.494-15.428 0-7.327-1.004-9.937-5.583-14.517-8.449-8.448-18.006-7.803-30.481 2.057-14.115 11.158-15.51 10.552-15.51-6.746 0-15.727 3.13-25.663 10.508-33.366l4.574-4.776h-39.736l5.386 5.73c7.255 7.72 9.718 16.022 9.718 32.758 0 16.445-2.014 17.7-12.97 8.08-9.489-8.331-16.928-11.146-24.125-9.127-9.17 2.572-14.478 9.963-14.478 20.16 0 7.325 1.014 9.695 6.494 15.175 9.773 9.773 17.133 8.798 32.53-4.307 14.594-12.422 16.69-5.767 4.909 15.577-4.813 8.719-7.64 16.31-7.64 20.511 0 18.065 23.573 25.89 35.814 11.888zm-1.475-299.86c-7.23-7.46-9.508-15.341-9.508-32.893 0-16.42 1.432-17.15 13.626-6.963 14.598 12.197 24.267 12.887 33.12 2.365 13.43-15.96-2.124-41.256-20.962-34.094-2.993 1.138-8.732 5.041-12.753 8.675-14.442 13.047-17.28 4.572-5.077-15.163 3.713-6.007 6.367-13.198 6.912-18.734.792-8.048.277-9.593-4.934-14.804-7.602-7.602-19.454-8.115-28.078-1.214-5.095 4.076-5.726 5.716-5.686 14.794.036 8.162 1.28 12.164 6.2 19.958 12.3 19.483 9.568 28.212-4.807 15.358-10.202-9.122-15.178-11.316-22.535-9.936-14.957 2.806-21.487 23.081-11.323 35.16 8.853 10.522 18.522 9.832 33.12-2.365 12.195-10.188 13.628-9.456 13.616 6.95-.013 17.76-2.496 26.437-9.533 33.317l-5.649 5.522H1819.982zm0-299.89c-7.23-7.459-9.508-15.34-9.508-32.893 0-16.712 1.916-17.543 14.639-6.344 10.307 9.073 17.348 11.011 25.218 6.941 8.105-4.191 11.716-10.205 11.716-19.512 0-10.117-6.977-19.122-16.15-20.842-7.357-1.38-12.333.813-22.535 9.936-14.323 12.807-17.067 4.265-4.934-15.359 3.713-6.006 6.366-13.198 6.911-18.734.793-8.048.278-9.592-4.933-14.803-4.817-4.817-7.347-5.818-14.707-5.818s-9.89 1-14.708 5.818c-5.21 5.21-5.726 6.755-4.933 14.803.545 5.536 3.198 12.728 6.911 18.734 12.134 19.624 9.39 28.166-4.934 15.359-14.579-13.037-22.4-14.078-32.19-4.287-10.982 10.981-8.478 27.621 5.221 34.705 7.778 4.022 14.332 2.243 25.387-6.892 13.148-10.864 14.47-10.289 14.47 6.295 0 17.552-2.278 25.434-9.507 32.893l-5.752 5.934h40.069z"/></g></svg>