<svg height="122.99" width="78.999" xmlns="http://www.w3.org/2000/svg"><g transform="matrix(.13166 0 0 .13666 -105.332 -286.976)"><rect width="597.967" height="897.967" rx="48.211" ry="49.888" x="801.017" y="2101.016" style="font-style:normal;font-variant:normal;font-weight:500;font-stretch:normal;font-size:medium;line-height:125%;font-family:Gaelic;-inkscape-font-specification:'Gaelic Medium';letter-spacing:0;word-spacing:0;fill:#fff;fill-opacity:1;stroke:#000;stroke-width:2.03317;stroke-linecap:butt;stroke-linejoin:miter;stroke-miterlimit:4;stroke-dasharray:none;stroke-opacity:1"/><path style="fill:#b7b772" d="M880.315 2969.538c-.36-.367-.657-38.958-.657-85.759 0-82.258-.059-85.169-1.873-87.448-1.836-2.308-2.295-2.367-22.33-2.856l-20.455-.5v-486.248l20.334-.5c17.804-.436 20.551-.72 22.084-2.281 1.644-1.675 1.78-6.989 2.24-87.864l.492-86.082h440.7l.491 86.082c.461 80.875.597 86.189 2.241 87.864 1.533 1.56 4.28 1.845 22.084 2.282l20.334.499v486.249l-20.334.499c-17.804.437-20.551.721-22.084 2.282-1.644 1.675-1.78 6.988-2.24 87.864l-.492 86.082-219.939.252c-120.967.138-220.234-.05-220.596-.417zm437.104-85.952c0-81.68.049-83.697 1.954-86.875 3.95-6.589 6.25-7.222 26.261-7.226h17.912v-479.26h-17.912c-20.011 0-22.312-.637-26.261-7.226-1.906-3.178-1.951-5.195-1.954-86.874v-83.621h-433.83v83.62c0 81.68-.05 83.697-1.954 86.876-3.95 6.588-6.25 7.221-26.261 7.226h-17.912v479.26h17.912c20.01 0 22.312.636 26.261 7.225 1.905 3.179 1.951 5.196 1.954 86.875v83.62h433.83z"/><rect style="font-style:normal;font-variant:normal;font-weight:500;font-stretch:normal;font-size:medium;line-height:125%;font-family:Gaelic;-inkscape-font-specification:'Gaelic Medium';letter-spacing:0;word-spacing:0;fill:#fff;fill-opacity:1;stroke:#000;stroke-width:2.03317;stroke-linecap:butt;stroke-linejoin:miter;stroke-miterlimit:4;stroke-dasharray:none;stroke-opacity:1" y="2101.016" x="801.017" ry="49.888" rx="48.211" height="897.967" width="597.967"/><path d="M880.315 2969.538c-.36-.367-.657-38.958-.657-85.759 0-82.258-.059-85.169-1.873-87.448-1.836-2.308-2.295-2.367-22.33-2.856l-20.455-.5v-486.248l20.334-.5c17.804-.436 20.551-.72 22.084-2.281 1.644-1.675 1.78-6.989 2.24-87.864l.492-86.082h440.7l.491 86.082c.461 80.875.597 86.189 2.241 87.864 1.533 1.56 4.28 1.845 22.084 2.282l20.334.499v486.249l-20.334.499c-17.804.437-20.551.721-22.084 2.282-1.644 1.675-1.78 6.988-2.24 87.864l-.492 86.082-219.939.252c-120.967.138-220.234-.05-220.596-.417zm437.104-85.952c0-81.68.049-83.697 1.954-86.875 3.95-6.589 6.25-7.222 26.261-7.226h17.912v-479.26h-17.912c-20.011 0-22.312-.637-26.261-7.226-1.906-3.178-1.951-5.195-1.954-86.874v-83.621h-433.83v83.62c0 81.68-.05 83.697-1.954 86.876-3.95 6.588-6.25 7.221-26.261 7.226h-17.912v479.26h17.912c20.01 0 22.312.636 26.261 7.225 1.905 3.179 1.951 5.196 1.954 86.875v83.62h433.83z" style="fill:#b7b772"/><path d="m869 2187.675-.635 25.325H825q0-7.338 2.488-14.013 2.536-6.675 7.073-11.668 4.585-4.994 13.95-12.128 5.903-4.535 8-7.541 2.098-3.058 2.098-7.083 0-4.943-2.975-8.051-2.976-3.16-8.195-3.16-6.098 0-8.927 3.568-2.83 3.567-2.83 11.72 0 2.038.099 3.872h-9.024q-.048-1.834-.048-3.006 0-11.516 5.219-17.988 5.22-6.522 15.317-6.522 10.195 0 15.61 5.554 5.462 5.554 5.462 13.656 0 6.777-3.56 11.567-3.561 4.79-13.61 12.178-9.756 7.236-12.829 11.771-3.024 4.535-3.512 8.051h25.56l.39-16.102H869zM1375 2187.675l-.635 25.325H1331q0-7.338 2.488-14.013 2.536-6.675 7.073-11.668 4.585-4.994 13.95-12.128 5.903-4.535 8-7.541 2.098-3.058 2.098-7.083 0-4.943-2.975-8.051-2.976-3.16-8.195-3.16-6.098 0-8.927 3.568-2.83 3.567-2.83 11.72 0 2.038.099 3.872h-9.024q-.048-1.834-.048-3.006 0-11.516 5.219-17.988 5.22-6.522 15.317-6.522 10.195 0 15.61 5.554 5.462 5.554 5.462 13.656 0 6.777-3.56 11.567-3.561 4.79-13.61 12.178-9.756 7.236-12.829 11.771-3.024 4.535-3.512 8.051h25.56l.39-16.102H1375zM825.001 2912.325l.634-25.325H869q0 7.338-2.487 14.013-2.537 6.675-7.073 11.669-4.586 4.993-13.951 12.127-5.903 4.535-8 7.542-2.098 3.057-2.098 7.082 0 4.943 2.976 8.051 2.975 3.16 8.195 3.16 6.097 0 8.927-3.567 2.829-3.567 2.829-11.72 0-2.038-.098-3.873h9.024q.048 1.835.048 3.007 0 11.515-5.22 17.987-5.219 6.522-15.316 6.522-10.195 0-15.61-5.554-5.463-5.554-5.463-13.656 0-6.777 3.56-11.567 3.562-4.79 13.61-12.178 9.756-7.236 12.83-11.771 3.024-4.535 3.512-8.051h-25.561l-.39 16.102H825zM1331.001 2912.325l.634-25.325H1375q0 7.338-2.487 14.013-2.537 6.675-7.073 11.669-4.586 4.993-13.952 12.127-5.902 4.535-8 7.541-2.097 3.058-2.097 7.083 0 4.943 2.976 8.051 2.975 3.16 8.195 3.16 6.097 0 8.926-3.567 2.83-3.567 2.83-11.72 0-2.038-.098-3.873h9.024q.048 1.834.048 3.007 0 11.516-5.22 17.987-5.219 6.522-15.316 6.522-10.195 0-15.61-5.554-5.463-5.554-5.463-13.656 0-6.777 3.56-11.567 3.562-4.79 13.61-12.178 9.756-7.236 12.83-11.771 3.024-4.535 3.512-8.051h-25.561l-.39 16.102H1331z" style="font-style:normal;font-variant:normal;font-weight:400;font-stretch:normal;font-size:medium;line-height:125%;font-family:Rockwell;-inkscape-font-specification:Rockwell;letter-spacing:0;word-spacing:0;fill:#000;fill-opacity:1;stroke:none;stroke-width:1px;stroke-linecap:butt;stroke-linejoin:miter;stroke-opacity:1"/><path d="M825.433 2210.163c0-3.626 2.253-11.113 4.758-15.815 2.644-4.96 7.35-9.851 17.073-17.741 8.762-7.112 10.963-9.943 11.486-14.776.813-7.52-3.716-12.467-11.41-12.467-7.958 0-11.733 4.467-11.735 13.887l-.001 5.281h-8.832l.443-5.86c.741-9.805 5.599-17.794 12.236-20.126 1.542-.542 5.464-.96 8.717-.93 4.98.047 6.582.416 10.147 2.337 5.413 2.917 8.698 7.92 9.203 14.015.819 9.87-1.736 13.882-16.164 25.381-5.865 4.676-11.402 9.504-12.304 10.73-2.469 3.356-4.229 7.042-4.229 8.859 0 1.584.3 1.618 12.714 1.408l12.714-.215.191-5.477c.105-3.012.385-6.621.623-8.02.41-2.423.594-2.542 3.916-2.542h3.485v10.89c0 5.988-.214 11.446-.475 12.126-.417 1.086-3.05 1.238-21.515 1.238h-21.041v-2.183zM1331.487 2209.02c.92-6.165 3.618-13.47 6.577-17.799 1.804-2.64 6.853-7.569 13.064-12.753 5.568-4.648 10.913-9.753 11.88-11.345 3.142-5.178 1.805-13.276-2.677-16.213-3.047-1.997-9.506-2.31-12.745-.616-3.87 2.022-5.543 5.427-6.066 12.347l-.446 5.891h-3.715c-2.434 0-3.858-.372-4.129-1.078-.61-1.591.808-11.746 2.058-14.728 3.079-7.348 9.027-11.078 17.748-11.128 6.895-.04 10.848 1.166 14.587 4.45 4.307 3.78 6.051 7.894 6.051 14.269 0 8.654-2.632 12.4-15.944 22.688-8.656 6.69-13.191 11.272-15.374 15.533-3.04 5.933-2.944 5.984 11.354 5.984 10.64 0 12.528-.18 12.934-1.238.261-.68.475-4.377.475-8.215v-6.977h8.02l-.49 2.445c-.269 1.344-.489 6.802-.489 12.127v9.682h-43.168zM838.908 2957.54c-7.975-2.476-12.519-8.956-12.519-17.853 0-8.65 3.156-13.104 16.43-23.193 3.658-2.78 8.17-6.572 10.029-8.427 3.127-3.123 6.344-8.634 6.385-10.937.013-.744-3.078-.978-12.893-.978h-12.91l-.006 3.716c-.004 2.044-.229 5.565-.5 7.824l-.494 4.107h-6.823v-24.254h21.515c24.426 0 22.213-.76 20.718 7.127-1.948 10.272-7.06 17.307-20.494 28.206-4.18 3.392-8.526 7.378-9.655 8.86-3.838 5.031-3.315 12.101 1.217 16.443 1.797 1.721 3.251 2.293 6.524 2.564 8.394.696 12.25-3.16 12.873-12.875l.368-5.729h8.625l-.525 5.65c-.625 6.725-3.268 12.968-6.897 16.29-4.687 4.29-13.572 5.756-20.969 3.46zM1345.474 2957.698c-8.182-2.308-13.174-9.107-13.143-17.902.03-8.801 2.466-12.146 17.523-24.068 8.767-6.941 11.567-9.865 14.03-14.648 2.559-4.968 2.652-4.928-11.62-4.928h-12.909l-.011 6.063c-.016 9.01-.279 9.584-4.384 9.584h-3.43v-10.889c0-5.99.215-11.446.476-12.127.416-1.086 3.05-1.238 21.515-1.238h21.041v2.183c0 3.68-2.267 11.14-4.868 16.02-2.47 4.635-8.714 10.922-20.168 20.309-7.87 6.449-10.256 12.577-7.236 18.587a11.419 11.419 0 0 0 10.167 6.275c7.94 0 11.884-4.596 11.917-13.888l.017-4.89h8.606v3.357c0 9.075-4.504 17.965-10.597 20.914-4.397 2.13-11.913 2.7-16.927 1.286z" style="fill:#000;fill-opacity:1;stroke:#fffecd;stroke-width:.277224;stroke-miterlimit:4;stroke-dasharray:none;stroke-opacity:1"/><path d="M838.506 2956.845c-7.041-2.705-10.707-7.573-11.384-15.119-.848-9.442 1.78-13.38 17.4-26.067 9.395-7.632 13.703-12.636 14.839-17.239.49-1.99.397-2.045-4.363-2.542-2.675-.28-8.64-.509-13.255-.509h-8.39l-.555 7.824-.555 7.824h-6.134v-22.689h20.687c12.317 0 20.875.303 21.15.748.75 1.214-1.747 10.669-3.983 15.08-2.039 4.024-7.63 9.944-21.625 22.9-5.514 5.105-6.856 6.8-7.279 9.193-.842 4.773.261 8.417 3.541 11.697 2.804 2.804 3.249 2.973 7.834 2.973 8.266 0 11.39-3.308 12.297-13.02l.465-4.975h7.744l-.563 4.107c-1.342 9.792-4.622 15.955-9.951 18.696-4.184 2.152-13.686 2.745-17.92 1.118z" style="fill:#000;fill-opacity:1;stroke:#fffecd;stroke-width:.277224;stroke-miterlimit:4;stroke-dasharray:none;stroke-opacity:1"/><path style="fill:#0a0a0a" d="M840.636 2282.932c1.886-1.488 3.123-3.244 3.969-5.636.648-1.834.726-2.68.752-8.187l.03-6.141-1.024-.097c-1.465-.14-2.852.668-5.284 3.076-3.13 3.1-5.523 3.977-8.637 3.166-1.833-.477-4.609-3.156-5.113-4.934-.439-1.55-.439-4.022 0-5.573.504-1.777 3.28-4.456 5.113-4.934 3.114-.81 5.507.066 8.637 3.167 2.432 2.407 3.82 3.215 5.284 3.076 1.02-.097 1.023-.104.991-1.835-.04-2.115-.82-3.932-3.193-7.427-2.163-3.187-2.719-4.66-2.719-7.214 0-2.508.565-3.81 2.355-5.427a7.716 7.716 0 0 1 10.392 0c1.79 1.618 2.355 2.919 2.355 5.427 0 2.553-.555 4.027-2.719 7.214-2.372 3.495-3.154 5.312-3.193 7.427-.032 1.731-.028 1.738.992 1.835 1.464.14 2.851-.669 5.283-3.076 2.3-2.279 3.851-3.173 5.893-3.399 2.27-.25 4.007.427 5.85 2.281 1.812 1.823 2.35 3.122 2.35 5.672s-.538 3.849-2.35 5.671c-1.843 1.855-3.58 2.532-5.85 2.281-2.042-.225-3.592-1.12-5.893-3.398-2.432-2.408-3.819-3.216-5.283-3.077l-1.024.098.029 6.141c.026 5.507.104 6.353.752 8.187.846 2.392 2.083 4.148 3.97 5.636l1.353 1.068-1.125-.22c-2.969-.582-4.82-.81-6.587-.81-1.766 0-3.618.228-6.587.81l-1.124.22 1.353-1.068zM1346.636 2282.932c1.886-1.488 3.123-3.244 3.969-5.636.648-1.834.726-2.68.752-8.187l.03-6.141-1.024-.097c-1.465-.14-2.852.668-5.284 3.076-3.13 3.1-5.523 3.977-8.637 3.166-1.833-.477-4.609-3.156-5.113-4.934-.439-1.55-.439-4.022 0-5.573.504-1.777 3.28-4.456 5.113-4.934 3.114-.81 5.507.066 8.637 3.167 2.432 2.407 3.82 3.215 5.284 3.076 1.02-.097 1.023-.104.991-1.835-.04-2.115-.82-3.932-3.193-7.427-2.163-3.187-2.719-4.66-2.719-7.214 0-2.508.565-3.81 2.356-5.427a7.716 7.716 0 0 1 10.39 0c1.792 1.618 2.356 2.919 2.356 5.427 0 2.553-.556 4.027-2.719 7.214-2.372 3.495-3.154 5.312-3.193 7.427-.032 1.731-.028 1.738.992 1.835 1.464.14 2.851-.669 5.283-3.076 2.3-2.279 3.851-3.173 5.893-3.399 2.27-.25 4.007.427 5.85 2.281 1.812 1.823 2.35 3.122 2.35 5.672s-.538 3.849-2.35 5.671c-1.843 1.855-3.58 2.532-5.85 2.281-2.042-.225-3.592-1.12-5.893-3.398-2.432-2.408-3.819-3.216-5.283-3.077l-1.024.098.029 6.141c.026 5.507.104 6.353.753 8.187.845 2.392 2.082 4.148 3.968 5.636l1.354 1.068-1.125-.22c-2.969-.582-4.82-.81-6.587-.81-1.766 0-3.618.228-6.587.81l-1.124.22 1.353-1.068zM840.636 2817.068c1.886 1.488 3.123 3.245 3.969 5.637.648 1.834.726 2.68.752 8.186l.03 6.142-1.024.097c-1.465.139-2.852-.669-5.284-3.077-3.13-3.1-5.523-3.977-8.637-3.166-1.833.477-4.609 3.156-5.113 4.934-.439 1.55-.439 4.023 0 5.573.504 1.778 3.28 4.457 5.113 4.934 3.114.81 5.507-.066 8.637-3.166 2.432-2.408 3.82-3.216 5.284-3.077 1.02.097 1.023.104.991 1.835-.04 2.116-.82 3.932-3.193 7.427-2.163 3.187-2.719 4.661-2.719 7.214 0 2.509.565 3.81 2.355 5.428a7.716 7.716 0 0 0 10.392 0c1.79-1.618 2.355-2.92 2.355-5.428 0-2.553-.555-4.027-2.719-7.214-2.372-3.495-3.154-5.311-3.193-7.427-.032-1.73-.028-1.738.992-1.835 1.464-.139 2.851.669 5.283 3.077 2.3 2.278 3.851 3.172 5.893 3.398 2.27.25 4.007-.427 5.85-2.28 1.812-1.824 2.35-3.122 2.35-5.672s-.538-3.85-2.35-5.672c-1.843-1.854-3.58-2.532-5.85-2.28-2.042.225-3.592 1.119-5.893 3.397-2.432 2.408-3.819 3.216-5.283 3.077l-1.024-.097.029-6.142c.026-5.507.104-6.352.752-8.186.846-2.392 2.083-4.149 3.97-5.637l1.353-1.068-1.125.22c-2.969.582-4.82.81-6.587.81-1.766 0-3.618-.228-6.587-.81l-1.124-.22 1.353 1.068zM1346.636 2817.068c1.886 1.488 3.123 3.245 3.969 5.637.648 1.834.726 2.68.752 8.186l.03 6.142-1.024.097c-1.465.139-2.852-.669-5.284-3.077-3.13-3.1-5.523-3.977-8.637-3.166-1.833.477-4.609 3.156-5.113 4.934-.439 1.55-.439 4.023 0 5.573.504 1.778 3.28 4.457 5.113 4.934 3.114.81 5.507-.066 8.637-3.166 2.432-2.408 3.82-3.216 5.284-3.077 1.02.097 1.023.104.991 1.835-.04 2.116-.82 3.932-3.193 7.427-2.163 3.187-2.719 4.661-2.719 7.214 0 2.509.565 3.81 2.356 5.428a7.716 7.716 0 0 0 10.39 0c1.792-1.618 2.356-2.92 2.356-5.428 0-2.553-.556-4.027-2.719-7.214-2.372-3.495-3.154-5.311-3.193-7.427-.032-1.73-.028-1.738.992-1.835 1.464-.139 2.851.669 5.283 3.077 2.3 2.278 3.851 3.172 5.893 3.398 2.27.25 4.007-.427 5.85-2.28 1.812-1.824 2.35-3.122 2.35-5.672s-.538-3.85-2.35-5.672c-1.843-1.854-3.58-2.532-5.85-2.28-2.042.225-3.592 1.119-5.893 3.397-2.432 2.408-3.819 3.216-5.283 3.077l-1.024-.097.029-6.142c.026-5.507.104-6.352.753-8.186.845-2.392 2.082-4.149 3.968-5.637l1.354-1.068-1.125.22c-2.969.582-4.82.81-6.587.81-1.766 0-3.618-.228-6.587-.81l-1.124-.22 1.353 1.068zM1083.77 2309.241c4.8-3.844 7.95-8.382 10.1-14.56 1.65-4.739 1.85-6.923 1.92-21.15l.1-15.866-2.6-.25c-3.73-.36-7.26 1.727-13.45 7.947-7.97 8.008-14.06 10.275-21.99 8.18-4.66-1.233-11.73-8.154-13.01-12.746-1.12-4.005-1.12-10.392 0-14.397 1.28-4.592 8.35-11.513 13.01-12.746 7.93-2.095 14.02.171 21.99 8.18 6.19 6.22 9.72 8.307 13.45 7.947 2.59-.25 2.6-.269 2.52-4.74-.1-5.465-2.09-10.159-8.13-19.187-5.5-8.233-6.92-12.041-6.92-18.635 0-6.48 1.44-9.842 6-14.022 7.55-6.928 18.89-6.928 26.45 0 4.56 4.18 5.99 7.541 5.99 14.022 0 6.594-1.41 10.402-6.92 18.635-6.04 9.028-8.03 13.722-8.13 19.186-.1 4.472-.1 4.491 2.53 4.741 3.73.36 7.26-1.727 13.45-7.948 5.85-5.886 9.8-8.195 15-8.778 5.78-.648 10.2 1.101 14.89 5.892 4.61 4.708 5.98 8.063 5.98 14.651 0 6.589-1.37 9.943-5.98 14.652-4.69 4.79-9.11 6.54-14.89 5.892-5.2-.583-9.15-2.892-15-8.779-6.19-6.22-9.72-8.307-13.45-7.948l-2.61.251.1 15.866c.1 14.227.26 16.411 1.91 21.15 2.16 6.179 5.3 10.716 10.11 14.56l3.44 2.759-2.86-.57c-7.56-1.502-12.27-2.09-16.77-2.09-4.49 0-9.21.588-16.76 2.09l-2.87.57 3.45-2.759zM1083.77 2790.759c4.8 3.844 7.95 8.382 10.1 14.56 1.65 4.739 1.85 6.923 1.92 21.15l.1 15.866-2.6.25c-3.73.36-7.26-1.727-13.45-7.947-7.97-8.008-14.06-10.275-21.99-8.18-4.66 1.233-11.73 8.154-13.01 12.746-1.12 4.005-1.12 10.392 0 14.397 1.28 4.592 8.35 11.513 13.01 12.746 7.93 2.095 14.02-.171 21.99-8.18 6.19-6.22 9.72-8.307 13.45-7.947 2.59.25 2.6.269 2.52 4.74-.1 5.465-2.09 10.159-8.13 19.187-5.5 8.233-6.92 12.041-6.92 18.635 0 6.48 1.44 9.842 6 14.022 7.55 6.928 18.89 6.928 26.45 0 4.56-4.18 5.99-7.541 5.99-14.022 0-6.594-1.41-10.402-6.92-18.635-6.04-9.028-8.03-13.722-8.13-19.186-.1-4.472-.1-4.491 2.53-4.741 3.73-.36 7.26 1.727 13.45 7.948 5.85 5.886 9.8 8.195 15 8.778 5.78.648 10.2-1.101 14.89-5.892 4.61-4.708 5.98-8.063 5.98-14.651 0-6.589-1.37-9.943-5.98-14.652-4.69-4.79-9.11-6.54-14.89-5.892-5.2.583-9.15 2.892-15 8.779-6.19 6.22-9.72 8.307-13.45 7.948l-2.61-.251.1-15.866c.1-14.227.26-16.411 1.91-21.15 2.16-6.179 5.3-10.716 10.11-14.56l3.44-2.759-2.86.57c-7.56 1.502-12.27 2.09-16.77 2.09-4.49 0-9.21-.588-16.76-2.09l-2.87-.57 3.45 2.759z"/><path style="fill:#fffecd;fill-opacity:1;stroke:#fffecd;stroke-width:.676816;stroke-miterlimit:4;stroke-dasharray:none;stroke-opacity:1" d="M884.124 2883.4c0-101.815 2.28-93.853-26.88-93.853H838.28v-479.442h18.963c29.16 0 26.88 7.962 26.88-93.853v-83.788h431.688l.192 67.332c.105 37.032.75 75.782 1.432 86.11 1.576 23.847 1.976 24.2 27.393 24.2h18.736v479.44h-18.736c-25.417 0-25.817.354-27.393 24.2-.682 10.328-1.327 49.078-1.432 86.11l-.192 67.332H884.124zm222.425 28.394c1.347 0 4.715-2.266 7.485-5.035 7.506-7.506 6.96-18.854-1.65-34.249-6.235-11.15-8.736-21.84-5.11-21.84.868 0 6.558 3.869 12.647 8.596 12.043 9.352 19.784 10.94 27.386 5.615 11.129-7.795 12.54-23.645 2.994-33.61-4.122-4.302-6.895-5.432-13.327-5.432-6.73 0-9.634 1.308-16.95 7.64-13.735 11.888-14.801 11.032-14.027-11.27.619-17.824.996-19.331 6.57-26.263l5.915-7.354h-37.028l5.915 7.354c5.574 6.932 5.952 8.44 6.57 26.264.774 22.3-.292 23.157-14.027 11.27-11.69-10.118-21.08-10.857-30.06-2.365-9.618 9.092-8.711 24.625 1.924 32.991 8.889 6.992 17.461 4.87 32.5-8.047 3.451-2.963 7.104-5.388 8.118-5.388 3.874 0 1.577 10.362-4.842 21.84-8.556 15.3-9.148 26.75-1.763 34.134 4.907 4.907 10.94 7.14 15.768 5.836 1.4-.377 3.646-.687 4.992-.687zm6.035-608.067c-5.594-6.956-5.968-8.448-6.587-26.285-.768-22.112-.058-22.715 13.524-11.492 4.937 4.08 11.186 7.973 13.887 8.65 10.624 2.667 23.864-9.374 23.864-21.704 0-11.538-12.55-22.511-23.289-20.364-3.062.613-9.66 4.565-14.661 8.782-5.002 4.217-10.113 7.668-11.359 7.668-4.42 0-2.167-10.588 4.58-21.52 9.287-15.046 9.598-26.566.925-34.315-8.038-7.182-18.519-7.249-26.929-.172-5.748 4.836-6.037 5.702-5.258 15.759.6 7.748 2.473 13.208 6.89 20.088 6.06 9.436 8.082 20.16 3.802 20.16-1.246 0-6.357-3.45-11.358-7.668-10.984-9.262-18-11.049-26.376-6.717-5.912 3.057-11.575 12.493-11.575 19.287 0 6.645 6.199 15.896 12.726 18.993 8.56 4.062 13.267 2.79 24.729-6.682 5.1-4.214 10.364-7.663 11.696-7.663 1.765 0 2.423 4.372 2.423 16.112 0 17.83-1.824 24.518-8.637 31.662l-4.574 4.796h37.488z"/></g></svg>