<svg height="122.99" width="78.999" xmlns="http://www.w3.org/2000/svg"><g transform="matrix(.13166 0 0 .13666 -381.828 -286.976)"><rect width="597.967" height="897.967" rx="48.211" ry="49.888" x="2901.017" y="2101.016" style="font-style:normal;font-variant:normal;font-weight:500;font-stretch:normal;font-size:medium;line-height:125%;font-family:Gaelic;-inkscape-font-specification:'Gaelic Medium';letter-spacing:0;word-spacing:0;fill:#fff;fill-opacity:1;stroke:#000;stroke-width:2.03317;stroke-linecap:butt;stroke-linejoin:miter;stroke-miterlimit:4;stroke-dasharray:none;stroke-opacity:1"/><path style="fill:#b7b772" d="M2980.315 2969.538c-.36-.367-.657-38.958-.657-85.759 0-82.258-.058-85.169-1.873-87.448-1.836-2.308-2.295-2.367-22.33-2.856l-20.455-.5v-486.248l20.334-.5c17.804-.436 20.551-.72 22.084-2.281 1.644-1.675 1.78-6.989 2.24-87.864l.492-86.082h440.7l.491 86.082c.461 80.875.597 86.189 2.241 87.864 1.533 1.56 4.28 1.845 22.084 2.282l20.334.499v486.249l-20.334.499c-17.804.437-20.551.721-22.084 2.282-1.644 1.675-1.78 6.988-2.24 87.864l-.492 86.082-219.939.252c-120.967.138-220.234-.05-220.596-.417zm437.104-85.952c0-81.68.049-83.697 1.954-86.875 3.95-6.589 6.25-7.222 26.261-7.226h17.912v-479.26h-17.912c-20.011 0-22.312-.637-26.261-7.226-1.906-3.178-1.951-5.195-1.954-86.874v-83.621h-433.83v83.62c0 81.68-.05 83.697-1.954 86.876-3.95 6.588-6.25 7.221-26.261 7.226h-17.912v479.26h17.912c20.01 0 22.312.636 26.261 7.225 1.905 3.179 1.951 5.196 1.954 86.875v83.62h433.83z"/><path d="M2925 2189.221h8.372q.744 7.144 4.233 11.38 3.534 4.235 9.302 4.235 5.814 0 9.349-4.389 3.535-4.388 3.535-11.277 0-7.297-3.442-11.124-3.442-3.878-8.558-3.878-7.675 0-12.977 8.522-2.977-3.215-6.744-5.154l2.651-36.536h34.512v18.83h-8v-9.696h-19.814l-1.442 20.768q5.907-5.255 13.162-5.255 9.21 0 14.512 6.735 5.349 6.736 5.349 16.686 0 10.512-5.86 17.247-5.814 6.685-16.326 6.685-9.768 0-15.442-6.072-5.674-6.072-6.372-17.707zM3431 2189.221h8.372q.744 7.144 4.233 11.38 3.534 4.235 9.302 4.235 5.814 0 9.349-4.389 3.535-4.388 3.535-11.277 0-7.297-3.442-11.124-3.442-3.878-8.558-3.878-7.675 0-12.977 8.522-2.977-3.215-6.744-5.154l2.651-36.536h34.512v18.83h-8v-9.696h-19.814l-1.442 20.768q5.907-5.255 13.162-5.255 9.21 0 14.512 6.735 5.349 6.736 5.349 16.686 0 10.512-5.86 17.247-5.814 6.685-16.326 6.685-9.768 0-15.442-6.072-5.674-6.072-6.372-17.707zM2969 2910.779h-8.372q-.744-7.144-4.233-11.38-3.534-4.234-9.302-4.234-5.814 0-9.349 4.388t-3.535 11.277q0 7.297 3.442 11.124 3.442 3.878 8.558 3.878 7.675 0 12.977-8.521 2.977 3.214 6.744 5.153L2963.28 2959h-34.512v-18.83h8v9.696h19.814l1.442-20.768q-5.907 5.256-13.162 5.256-9.21 0-14.512-6.736-5.349-6.736-5.349-16.686 0-10.512 5.86-17.247 5.814-6.685 16.326-6.685 9.768 0 15.442 6.072 5.674 6.073 6.372 17.707zM3475 2910.779h-8.372q-.744-7.144-4.233-11.38-3.534-4.234-9.302-4.234-5.814 0-9.349 4.388t-3.535 11.277q0 7.297 3.442 11.124 3.442 3.878 8.558 3.878 7.675 0 12.977-8.521 2.977 3.214 6.744 5.153L3469.28 2959h-34.512v-18.83h8v9.696h19.814l1.442-20.768q-5.907 5.256-13.162 5.256-9.21 0-14.512-6.736-5.349-6.736-5.349-16.686 0-10.512 5.86-17.247 5.814-6.685 16.326-6.685 9.768 0 15.442 6.072 5.674 6.073 6.372 17.707z" style="font-style:normal;font-variant:normal;font-weight:400;font-stretch:normal;font-size:medium;line-height:125%;font-family:Rockwell;-inkscape-font-specification:Rockwell;letter-spacing:0;word-spacing:0;fill:#000;fill-opacity:1;stroke:none;stroke-width:1px;stroke-linecap:butt;stroke-linejoin:miter;stroke-opacity:1"/><path d="M2936.859 2210.332c-6.245-3.111-11.133-11.222-11.133-18.47 0-2.095.178-2.206 3.545-2.206 2.167 0 3.653.38 3.823.979.152.537.684 2.474 1.18 4.303 2.61 9.605 13.662 13.392 20.799 7.125 3.541-3.109 5.408-8.816 4.86-14.858-.738-8.138-5.395-13.196-12.152-13.196-4.074 0-9.351 2.71-11.417 5.861l-1.32 2.014-3.077-2.177c-2.77-1.96-3.08-2.518-3.095-5.584-.019-3.93 1.39-24.727 2.009-29.65l.418-3.325h33.546V2159.143h-7.041v-9.388h-10.125c-5.569 0-10.28.264-10.47.587-.19.322-.598 5.075-.907 10.561l-.562 9.975 4.46-2.346c10.755-5.657 21.49-1.414 26.723 10.562 2.04 4.668 1.92 16.07-.217 20.733-3.948 8.618-10.12 12.498-19.898 12.511-4.79.01-6.675-.374-9.95-2.006zM3443.666 2210.715c-1.936-.878-4.348-2.366-5.359-3.308-2.415-2.25-5.334-8.061-5.99-11.926-.288-1.697-.692-3.702-.9-4.455-.32-1.172.19-1.37 3.535-1.37h3.909l1.25 4.3c2.931 10.084 11.563 14.028 19.758 9.03 5.741-3.503 8.083-15.28 4.44-22.335-4.293-8.318-15.082-9.005-21.382-1.362l-2.25 2.73-3.161-2.54-3.161-2.54.417-4.79c.229-2.635.828-10.6 1.33-17.7l.914-12.91 17.017-.21 17.017-.211v18.025h-7.824v-9.388h-20.188l-.528 9.193c-.29 5.056-.701 9.809-.913 10.562-.5 1.787-.417 1.77 4.807-.978 8.13-4.277 16.788-2.77 22.511 3.916 3.897 4.552 5.596 9.917 5.52 17.425-.105 10.284-5.212 18.45-13.36 21.356-4.566 1.63-13.245 1.374-17.409-.514zM2929.473 2949.745v-8.997h7.042v9.388h20.217l.428-4.89c1.251-14.284 1.32-16.234.573-16.234-.432 0-1.024.389-1.318.864-1.13 1.827-7.075 3.796-11.515 3.813-11.286.043-18.452-7.727-19.173-20.788-.857-15.538 7.402-25.34 21.35-25.34 10.192 0 16.95 4.987 19.974 14.737 2.336 7.534 2.226 7.937-2.175 7.936h-3.716l-1.322-4.498c-1.585-5.392-5.038-9.234-9.338-10.392-9.125-2.457-16.298 4.441-16.298 15.674 0 9.568 4.251 14.857 11.948 14.863 4.48 0 6.158-.766 10.315-4.727l3.13-2.982 3.001 2.543 3.001 2.543-1.24 16.054c-.683 8.83-1.241 16.814-1.241 17.743 0 1.678-.111 1.689-16.822 1.689h-16.821v-8.998zM3435.16 2949.745v-8.997h7.042v9.388h10.124c5.569 0 10.28-.264 10.47-.586.19-.323.598-5.076.907-10.562l.563-9.975-4.462 2.346c-8.627 4.539-18.208 2.663-23.497-4.6-9.815-13.48-4.305-34.618 10.035-38.497 4.258-1.151 13.556-.545 16.705 1.09 5.86 3.042 10.118 9.683 11.008 17.166l.442 3.717H3466.826l-.954-4.016c-1.267-5.331-4.067-8.84-8.367-10.482-4.125-1.576-7.683-1.136-11.432 1.412-7.22 4.906-8.29 18.529-1.997 25.396 2.21 2.413 3.151 2.845 6.857 3.152 5.096.423 9.721-1.54 12.359-5.244l1.662-2.334 3.068 2.121c2.762 1.91 3.071 2.461 3.098 5.528.034 3.868-1.363 24.618-1.995 29.65l-.418 3.325h-33.547z" style="fill:#000;fill-opacity:1;stroke:#fffecd;stroke-width:.277224;stroke-miterlimit:4;stroke-dasharray:none;stroke-opacity:1"/><path d="M2940.636 2282.932c1.886-1.488 3.123-3.244 3.969-5.636.648-1.834.726-2.68.752-8.187l.03-6.141-1.024-.097c-1.465-.14-2.852.668-5.284 3.076-3.13 3.1-5.523 3.977-8.637 3.166-1.833-.477-4.609-3.156-5.113-4.934-.439-1.55-.439-4.022 0-5.573.504-1.777 3.28-4.456 5.113-4.934 3.114-.81 5.507.066 8.637 3.167 2.432 2.407 3.82 3.215 5.284 3.076 1.02-.097 1.023-.104.991-1.835-.04-2.115-.82-3.932-3.193-7.427-2.163-3.187-2.719-4.66-2.719-7.214 0-2.508.565-3.81 2.356-5.427a7.716 7.716 0 0 1 10.39 0c1.792 1.618 2.356 2.919 2.356 5.427 0 2.553-.555 4.027-2.719 7.214-2.372 3.495-3.153 5.312-3.193 7.427-.032 1.731-.028 1.738.992 1.835 1.464.14 2.851-.669 5.283-3.076 2.3-2.279 3.851-3.173 5.893-3.399 2.27-.25 4.007.427 5.85 2.281 1.812 1.823 2.35 3.122 2.35 5.672s-.538 3.849-2.35 5.671c-1.843 1.855-3.58 2.532-5.85 2.281-2.042-.225-3.592-1.12-5.893-3.398-2.432-2.408-3.819-3.216-5.283-3.077l-1.024.098.029 6.141c.026 5.507.104 6.353.753 8.187.845 2.392 2.082 4.148 3.968 5.636l1.354 1.068-1.125-.22c-2.969-.582-4.82-.81-6.587-.81-1.766 0-3.618.228-6.587.81l-1.124.22 1.353-1.068zM3446.636 2282.932c1.886-1.488 3.123-3.244 3.969-5.636.648-1.834.726-2.68.752-8.187l.03-6.141-1.024-.097c-1.465-.14-2.852.668-5.284 3.076-3.13 3.1-5.523 3.977-8.637 3.166-1.833-.477-4.609-3.156-5.113-4.934-.439-1.55-.439-4.022 0-5.573.504-1.777 3.28-4.456 5.113-4.934 3.114-.81 5.507.066 8.637 3.167 2.432 2.407 3.82 3.215 5.284 3.076 1.02-.097 1.023-.104.991-1.835-.04-2.115-.82-3.932-3.193-7.427-2.163-3.187-2.719-4.66-2.719-7.214 0-2.508.565-3.81 2.356-5.427a7.716 7.716 0 0 1 10.39 0c1.792 1.618 2.356 2.919 2.356 5.427 0 2.553-.555 4.027-2.719 7.214-2.372 3.495-3.153 5.312-3.193 7.427-.032 1.731-.028 1.738.992 1.835 1.464.14 2.851-.669 5.283-3.076 2.3-2.279 3.851-3.173 5.893-3.399 2.27-.25 4.007.427 5.85 2.281 1.812 1.823 2.35 3.122 2.35 5.672s-.538 3.849-2.35 5.671c-1.843 1.855-3.58 2.532-5.85 2.281-2.042-.225-3.592-1.12-5.893-3.398-2.432-2.408-3.819-3.216-5.283-3.077l-1.024.098.029 6.141c.026 5.507.104 6.353.753 8.187.845 2.392 2.082 4.148 3.968 5.636l1.354 1.068-1.125-.22c-2.969-.582-4.82-.81-6.587-.81-1.766 0-3.618.228-6.587.81l-1.124.22 1.353-1.068zM2940.636 2817.068c1.886 1.488 3.123 3.245 3.969 5.637.648 1.834.726 2.68.752 8.186l.03 6.142-1.024.097c-1.465.139-2.852-.669-5.284-3.077-3.13-3.1-5.523-3.977-8.637-3.166-1.833.477-4.609 3.156-5.113 4.934-.439 1.55-.439 4.023 0 5.573.504 1.778 3.28 4.457 5.113 4.934 3.114.81 5.507-.066 8.637-3.166 2.432-2.408 3.82-3.216 5.284-3.077 1.02.097 1.023.104.991 1.835-.04 2.116-.82 3.932-3.193 7.427-2.163 3.187-2.719 4.661-2.719 7.214 0 2.509.565 3.81 2.356 5.428a7.716 7.716 0 0 0 10.39 0c1.792-1.618 2.356-2.92 2.356-5.428 0-2.553-.555-4.027-2.719-7.214-2.372-3.495-3.153-5.311-3.193-7.427-.032-1.73-.028-1.738.992-1.835 1.464-.139 2.851.669 5.283 3.077 2.3 2.278 3.851 3.172 5.893 3.398 2.27.25 4.007-.427 5.85-2.28 1.812-1.824 2.35-3.122 2.35-5.672s-.538-3.85-2.35-5.672c-1.843-1.854-3.58-2.532-5.85-2.28-2.042.225-3.592 1.119-5.893 3.397-2.432 2.408-3.819 3.216-5.283 3.077l-1.024-.097.029-6.142c.026-5.507.104-6.352.753-8.186.845-2.392 2.082-4.149 3.968-5.637l1.354-1.068-1.125.22c-2.969.582-4.82.81-6.587.81-1.766 0-3.618-.228-6.587-.81l-1.124-.22 1.353 1.068zM3446.636 2817.068c1.886 1.488 3.123 3.245 3.969 5.637.648 1.834.726 2.68.752 8.186l.03 6.142-1.024.097c-1.465.139-2.852-.669-5.284-3.077-3.13-3.1-5.523-3.977-8.637-3.166-1.833.477-4.609 3.156-5.113 4.934-.439 1.55-.439 4.023 0 5.573.504 1.778 3.28 4.457 5.113 4.934 3.114.81 5.507-.066 8.637-3.166 2.432-2.408 3.82-3.216 5.284-3.077 1.02.097 1.023.104.991 1.835-.04 2.116-.82 3.932-3.193 7.427-2.163 3.187-2.719 4.661-2.719 7.214 0 2.509.565 3.81 2.356 5.428a7.716 7.716 0 0 0 10.39 0c1.792-1.618 2.356-2.92 2.356-5.428 0-2.553-.555-4.027-2.719-7.214-2.372-3.495-3.153-5.311-3.193-7.427-.032-1.73-.028-1.738.992-1.835 1.464-.139 2.851.669 5.283 3.077 2.3 2.278 3.851 3.172 5.893 3.398 2.27.25 4.007-.427 5.85-2.28 1.812-1.824 2.35-3.122 2.35-5.672s-.538-3.85-2.35-5.672c-1.843-1.854-3.58-2.532-5.85-2.28-2.042.225-3.592 1.119-5.893 3.397-2.432 2.408-3.819 3.216-5.283 3.077l-1.024-.097.029-6.142c.026-5.507.104-6.352.753-8.186.845-2.392 2.082-4.149 3.968-5.637l1.354-1.068-1.125.22c-2.969.582-4.82.81-6.587.81-1.766 0-3.618-.228-6.587-.81l-1.124-.22 1.353 1.068zM3047.77 2309.241c4.8-3.844 7.95-8.382 10.1-14.56 1.65-4.739 1.85-6.923 1.92-21.15l.1-15.866-2.6-.25c-3.73-.36-7.26 1.727-13.45 7.947-7.97 8.008-14.06 10.275-21.99 8.18-4.66-1.233-11.73-8.154-13.01-12.746-1.12-4.005-1.12-10.392 0-14.397 1.28-4.592 8.35-11.513 13.01-12.746 7.93-2.095 14.02.171 21.99 8.18 6.19 6.22 9.72 8.307 13.45 7.947 2.59-.25 2.6-.269 2.52-4.74-.1-5.465-2.09-10.159-8.13-19.187-5.5-8.233-6.92-12.041-6.92-18.635 0-6.48 1.44-9.842 6-14.022 7.55-6.928 18.89-6.928 26.45 0 4.56 4.18 5.99 7.541 5.99 14.022 0 6.594-1.41 10.402-6.92 18.635-6.04 9.028-8.03 13.722-8.13 19.186-.1 4.472-.1 4.491 2.53 4.741 3.73.36 7.26-1.727 13.45-7.948 5.85-5.886 9.8-8.195 15-8.778 5.78-.648 10.2 1.101 14.89 5.892 4.61 4.708 5.98 8.063 5.98 14.651 0 6.589-1.37 9.943-5.98 14.652-4.69 4.79-9.11 6.54-14.89 5.892-5.2-.583-9.15-2.892-15-8.779-6.19-6.22-9.72-8.307-13.45-7.948l-2.61.251.1 15.866c.1 14.227.26 16.411 1.91 21.15 2.16 6.179 5.3 10.716 10.11 14.56l3.44 2.759-2.86-.57c-7.56-1.502-12.27-2.09-16.77-2.09-4.49 0-9.21.588-16.76 2.09l-2.87.57 3.45-2.759zM3319.77 2309.241c4.8-3.844 7.95-8.382 10.1-14.56 1.65-4.739 1.85-6.923 1.92-21.15l.1-15.866-2.6-.25c-3.73-.36-7.26 1.727-13.45 7.947-7.97 8.008-14.06 10.275-21.99 8.18-4.66-1.233-11.73-8.154-13.01-12.746-1.12-4.005-1.12-10.392 0-14.397 1.28-4.592 8.35-11.513 13.01-12.746 7.93-2.095 14.02.171 21.99 8.18 6.19 6.22 9.72 8.307 13.45 7.947 2.59-.25 2.6-.269 2.52-4.74-.1-5.465-2.09-10.159-8.13-19.187-5.5-8.233-6.92-12.041-6.92-18.635 0-6.48 1.44-9.842 6-14.022 7.55-6.928 18.89-6.928 26.45 0 4.56 4.18 5.99 7.541 5.99 14.022 0 6.594-1.41 10.402-6.92 18.635-6.04 9.028-8.03 13.722-8.13 19.186-.1 4.472-.1 4.491 2.53 4.741 3.73.36 7.26-1.727 13.45-7.948 5.85-5.886 9.8-8.195 15-8.778 5.78-.648 10.2 1.101 14.89 5.892 4.61 4.708 5.98 8.063 5.98 14.651 0 6.589-1.37 9.943-5.98 14.652-4.69 4.79-9.11 6.54-14.89 5.892-5.2-.583-9.15-2.892-15-8.779-6.19-6.22-9.72-8.307-13.45-7.948l-2.61.251.1 15.866c.1 14.227.26 16.411 1.91 21.15 2.16 6.179 5.3 10.716 10.11 14.56l3.44 2.759-2.86-.57c-7.56-1.502-12.27-2.09-16.77-2.09-4.49 0-9.21.588-16.76 2.09l-2.87.57 3.45-2.759zM3183.77 2609.241c4.8-3.844 7.95-8.382 10.1-14.56 1.65-4.739 1.85-6.923 1.92-21.15l.1-15.866-2.6-.25c-3.73-.36-7.26 1.727-13.45 7.947-7.97 8.008-14.06 10.275-21.99 8.18-4.66-1.233-11.73-8.154-13.01-12.746-1.12-4.005-1.12-10.392 0-14.397 1.28-4.592 8.35-11.513 13.01-12.746 7.93-2.095 14.02.171 21.99 8.18 6.19 6.22 9.72 8.307 13.45 7.947 2.59-.25 2.6-.269 2.52-4.74-.1-5.465-2.09-10.159-8.13-19.187-5.5-8.233-6.92-12.041-6.92-18.635 0-6.48 1.44-9.842 6-14.022 7.55-6.928 18.89-6.928 26.45 0 4.56 4.18 5.99 7.541 5.99 14.022 0 6.594-1.41 10.402-6.92 18.635-6.04 9.028-8.03 13.722-8.13 19.186-.1 4.472-.1 4.491 2.53 4.741 3.73.36 7.26-1.727 13.45-7.948 5.85-5.886 9.8-8.195 15-8.778 5.78-.648 10.2 1.101 14.89 5.892 4.61 4.708 5.98 8.063 5.98 14.651 0 6.589-1.37 9.943-5.98 14.652-4.69 4.79-9.11 6.54-14.89 5.892-5.2-.583-9.15-2.892-15-8.779-6.19-6.22-9.72-8.307-13.45-7.948l-2.61.251.1 15.866c.1 14.227.26 16.411 1.91 21.15 2.16 6.179 5.3 10.716 10.11 14.56l3.44 2.759-2.86-.57c-7.56-1.502-12.27-2.09-16.77-2.09-4.49 0-9.21.588-16.76 2.09l-2.87.57 3.45-2.759zM3047.77 2790.759c4.8 3.844 7.95 8.382 10.1 14.56 1.65 4.739 1.85 6.923 1.92 21.15l.1 15.866-2.6.25c-3.73.36-7.26-1.727-13.45-7.947-7.97-8.008-14.06-10.275-21.99-8.18-4.66 1.233-11.73 8.154-13.01 12.746-1.12 4.005-1.12 10.392 0 14.397 1.28 4.592 8.35 11.513 13.01 12.746 7.93 2.095 14.02-.171 21.99-8.18 6.19-6.22 9.72-8.307 13.45-7.947 2.59.25 2.6.269 2.52 4.74-.1 5.465-2.09 10.159-8.13 19.187-5.5 8.233-6.92 12.041-6.92 18.635 0 6.48 1.44 9.842 6 14.022 7.55 6.928 18.89 6.928 26.45 0 4.56-4.18 5.99-7.541 5.99-14.022 0-6.594-1.41-10.402-6.92-18.635-6.04-9.028-8.03-13.722-8.13-19.186-.1-4.472-.1-4.491 2.53-4.741 3.73-.36 7.26 1.727 13.45 7.948 5.85 5.886 9.8 8.195 15 8.778 5.78.648 10.2-1.101 14.89-5.892 4.61-4.708 5.98-8.063 5.98-14.651 0-6.589-1.37-9.943-5.98-14.652-4.69-4.79-9.11-6.54-14.89-5.892-5.2.583-9.15 2.892-15 8.779-6.19 6.22-9.72 8.307-13.45 7.948l-2.61-.251.1-15.866c.1-14.227.26-16.411 1.91-21.15 2.16-6.179 5.3-10.716 10.11-14.56l3.44-2.759-2.86.57c-7.56 1.502-12.27 2.09-16.77 2.09-4.49 0-9.21-.588-16.76-2.09l-2.87-.57 3.45 2.759zM3319.77 2790.759c4.8 3.844 7.95 8.382 10.1 14.56 1.65 4.739 1.85 6.923 1.92 21.15l.1 15.866-2.6.25c-3.73.36-7.26-1.727-13.45-7.947-7.97-8.008-14.06-10.275-21.99-8.18-4.66 1.233-11.73 8.154-13.01 12.746-1.12 4.005-1.12 10.392 0 14.397 1.28 4.592 8.35 11.513 13.01 12.746 7.93 2.095 14.02-.171 21.99-8.18 6.19-6.22 9.72-8.307 13.45-7.947 2.59.25 2.6.269 2.52 4.74-.1 5.465-2.09 10.159-8.13 19.187-5.5 8.233-6.92 12.041-6.92 18.635 0 6.48 1.44 9.842 6 14.022 7.55 6.928 18.89 6.928 26.45 0 4.56-4.18 5.99-7.541 5.99-14.022 0-6.594-1.41-10.402-6.92-18.635-6.04-9.028-8.03-13.722-8.13-19.186-.1-4.472-.1-4.491 2.53-4.741 3.73-.36 7.26 1.727 13.45 7.948 5.85 5.886 9.8 8.195 15 8.778 5.78.648 10.2-1.101 14.89-5.892 4.61-4.708 5.98-8.063 5.98-14.651 0-6.589-1.37-9.943-5.98-14.652-4.69-4.79-9.11-6.54-14.89-5.892-5.2.583-9.15 2.892-15 8.779-6.19 6.22-9.72 8.307-13.45 7.948l-2.61-.251.1-15.866c.1-14.227.26-16.411 1.91-21.15 2.16-6.179 5.3-10.716 10.11-14.56l3.44-2.759-2.86.57c-7.56 1.502-12.27 2.09-16.77 2.09-4.49 0-9.21-.588-16.76-2.09l-2.87-.57 3.45 2.759z" style="fill:#0a0a0a"/><path style="fill:#fffecd;fill-opacity:1;stroke:#fffecd;stroke-width:.676816;stroke-miterlimit:4;stroke-dasharray:none;stroke-opacity:1" d="M2985.255 2918.002c0-27.052-.574-65.443-1.268-85.313-1.572-44.987-.401-43.142-27.378-43.142h-19.102v-479.442h19.102c26.977 0 25.806 1.846 27.378-43.142.694-19.87 1.265-58.261 1.268-85.313l.01-49.186h431.688v83.216c0 82.794.427 88.913 6.494 92.964 1.156.771 10.482 1.416 20.725 1.432l18.624.03v479.44l-18.624.03c-10.243.014-19.57.66-20.725 1.432-6.067 4.05-6.494 10.17-6.494 92.964v83.216h-431.688l-.01-49.186zm90.239-8.439c5.407-2.77 9.622-12.865 8.433-20.195-.585-3.605-3.726-10.704-6.98-15.776-5.88-9.162-9.725-22.921-6.406-22.921 2.19 0 9.35 4.84 17.455 11.802 8.151 7 17.092 7.178 25.031.498 14.937-12.568 6.87-37.132-12.196-37.132-6.69 0-9.546 1.303-16.746 7.64-13.108 11.539-14.78 10.668-14.78-7.701 0-17.007 2.715-25.64 10.262-32.638l4.955-4.595-19.922.023-19.923.023 4.44 4.776c7.063 7.595 8.284 11.365 9.75 30.1 1.294 16.546 1.154 17.653-2.243 17.653-1.993 0-7.785-3.438-12.87-7.64-11.702-9.67-20.966-10.41-29.905-2.388-10.141 9.1-7.83 27.847 4.199 34.067 9.748 5.041 16.185 3.22 28.947-8.194 4.012-3.588 8.31-6.168 9.55-5.732 3.798 1.336 1.365 11.172-5.522 22.33-11.019 17.852-8.475 32 6.823 37.949 4.848 1.885 11.627 1.136 17.648-1.949zm276.242-4.77c6.15-7.04 4.94-19.125-3.239-32.354-12.133-19.624-9.389-28.166 4.934-15.359 14.218 12.714 21.689 13.849 31.934 4.853 6.03-5.293 6.752-6.944 6.752-15.428 0-7.952-.91-10.408-5.584-15.083-8.436-8.436-17.883-7.794-30.255 2.057-13.899 11.067-15.737 10.453-15.724-5.252.013-16.438 2.633-25.747 9.422-33.48l5.403-6.156-19.767-.023-19.768-.023 5.547 5.754c7.729 8.015 9.602 14.192 9.602 31.664 0 18.104-1.714 19.017-14.531 7.735-9.396-8.27-14.118-9.8-23.082-7.478-8.24 2.135-13.96 10.593-13.96 20.638 0 6.567 1.172 9.187 6.494 14.509 9.773 9.772 17.132 8.798 32.53-4.307 14.688-12.503 16.55-6.156 4.73 16.121-8.542 16.1-9.269 25.61-2.527 33.06 7.67 8.475 23.045 7.76 31.089-1.449zm-136.553-298.06c-7.396-6.854-10.258-16.054-10.258-32.969 0-18.21 1.329-18.95 14.13-7.871 10.472 9.063 17.84 11.065 25.727 6.987 8.105-4.192 11.716-10.205 11.716-19.512 0-5.795-1.34-9.618-4.827-13.76-8.85-10.52-20.113-9.631-33.715 2.657-14.695 13.276-17.222 6.073-5.39-15.36 4.201-7.613 7.64-16.156 7.64-18.985 0-11.793-8.502-20.068-20.681-20.13-6.696-.035-9.37 1.062-14.083 5.775-5.256 5.256-5.732 6.718-4.923 15.132.58 6.04 3.005 12.603 6.899 18.671 7.267 11.325 9.876 21.503 5.51 21.503-1.607 0-6.638-3.104-11.18-6.898-14.598-12.197-24.267-12.887-33.12-2.366-13.071 15.534 2.05 41.285 20.192 34.387 2.57-.976 8.387-4.88 12.928-8.674 12.22-10.21 13.626-9.472 13.626 7.143 0 16.782-2.463 25.038-9.796 32.836l-5.463 5.81h39.79zm-134.565-298.093c-7.612-5.332-11.312-16.385-11.312-33.796 0-19.036 1.482-20.14 13.03-9.706 4.022 3.633 9.736 7.527 12.697 8.653 11.821 4.494 25.832-6.372 25.832-20.034 0-12.337-12.88-23.939-23.59-21.25-2.517.631-8.75 4.597-13.85 8.811-5.1 4.215-10.476 7.664-11.946 7.664-4.188 0-1.519-11.273 5.29-22.338 3.24-5.267 6.431-12.275 7.091-15.574 3.77-18.85-20.122-31.31-33.802-17.629-8.126 8.126-7.603 17.142 2.057 35.484 11.41 21.666 9.424 26.033-5.985 13.158-14.702-12.282-21.541-13.126-31.61-3.9-6.12 5.61-6.975 7.487-6.975 15.322 0 7.182 1.05 10.024 5.362 14.526 9.854 10.285 17.135 9.593 32.719-3.11 4.31-3.514 9.364-6.389 11.23-6.389 3.104 0 3.275 1.497 2.011 17.652-1.466 18.737-2.687 22.507-9.75 30.101l-4.442 4.776 19.833.094c17.287.082 19.355-.241 16.11-2.514zm269.429-3.655c-6.858-7.811-9.48-17.078-9.493-33.56-.01-11.18.45-12.893 3.452-12.893 1.905 0 5.896 2.54 8.869 5.642 7.51 7.839 17.148 12.09 23.999 10.586 8.724-1.916 15.243-11.043 15.243-21.34 0-7.28-1.023-9.664-6.495-15.135-9.974-9.975-16.656-8.907-33.207 5.308-13.431 11.535-15.691 2.236-3.916-16.114 3.894-6.069 6.32-12.63 6.9-18.671.808-8.414.332-9.877-4.924-15.132-12.903-12.904-34.763-3.877-34.763 14.355 0 2.828 3.438 11.371 7.64 18.984 11.773 21.326 9.324 28.586-5.247 15.557-10.202-9.123-15.178-11.317-22.536-9.936-9.172 1.72-16.15 10.725-16.15 20.842 0 9.307 3.611 15.32 11.716 19.512 7.779 4.022 14.333 2.243 25.387-6.892 13.352-11.033 14.47-10.432 14.47 7.776 0 16.915-2.862 26.116-10.258 32.97l-4.721 4.376h39.508z"/></g></svg>