<svg height="122.99" width="78.999" xmlns="http://www.w3.org/2000/svg"><g transform="matrix(.13166 0 0 .13666 -473.993 -286.976)"><rect style="font-style:normal;font-variant:normal;font-weight:500;font-stretch:normal;font-size:medium;line-height:125%;font-family:Gaelic;-inkscape-font-specification:'Gaelic Medium';letter-spacing:0;word-spacing:0;fill:#fff;fill-opacity:1;stroke:#000;stroke-width:2.03317;stroke-linecap:butt;stroke-linejoin:miter;stroke-miterlimit:4;stroke-dasharray:none;stroke-opacity:1" y="2101.016" x="3601.017" ry="49.888" rx="48.211" height="897.967" width="597.967"/><path d="M3680.315 2969.538c-.36-.367-.657-38.958-.657-85.759 0-82.258-.058-85.169-1.873-87.448-1.836-2.308-2.295-2.367-22.33-2.856l-20.455-.5v-486.248l20.334-.5c17.804-.436 20.551-.72 22.084-2.281 1.644-1.675 1.78-6.989 2.24-87.864l.492-86.082h440.7l.491 86.082c.461 80.875.597 86.189 2.241 87.864 1.533 1.56 4.28 1.845 22.084 2.282l20.334.499v486.249l-20.334.499c-17.804.437-20.551.721-22.084 2.282-1.644 1.675-1.78 6.988-2.24 87.864l-.492 86.082-219.939.252c-120.967.138-220.234-.05-220.596-.417zm437.104-85.952c0-81.68.049-83.697 1.954-86.875 3.95-6.589 6.25-7.222 26.261-7.226h17.912v-479.26h-17.912c-20.011 0-22.312-.637-26.261-7.226-1.906-3.178-1.951-5.195-1.954-86.874v-83.621h-433.83v83.62c0 81.68-.05 83.697-1.954 86.876-3.95 6.588-6.25 7.221-26.261 7.226h-17.912v479.26h17.912c20.01 0 22.312.636 26.261 7.225 1.905 3.179 1.951 5.196 1.954 86.875v83.62h433.83z" style="fill:#b7b772"/><path d="M3668.509 2162.726h-8.3q-.736-5.971-4.124-9.734-3.34-3.763-8.152-3.763-6.531 0-10.165 6.974-3.634 6.924-3.781 19.016 6.973-7.727 16.058-7.727 7.808 0 13.357 5.92 5.598 5.871 5.598 15.755 0 9.835-5.5 16.859-5.5 6.974-15.027 6.974-10.656 0-17.09-8.93-6.383-8.982-6.383-26.643 0-16.809 6.188-26.593 6.187-9.834 17.825-9.834 9.134 0 14.143 6.172 5.058 6.12 5.353 15.554zm-34.031 23.03q2.21 18.965 13.553 18.965 5.795 0 9.036-4.365 3.241-4.365 3.241-10.436 0-5.97-3.094-9.633-3.044-3.663-8.25-3.663-7.317 0-14.486 9.132zM4174.509 2162.726h-8.3q-.736-5.971-4.124-9.734-3.34-3.763-8.152-3.763-6.531 0-10.165 6.974-3.634 6.924-3.781 19.016 6.973-7.727 16.058-7.727 7.808 0 13.357 5.92 5.598 5.871 5.598 15.755 0 9.835-5.5 16.859-5.5 6.974-15.027 6.974-10.656 0-17.09-8.93-6.383-8.982-6.383-26.643 0-16.809 6.188-26.593 6.187-9.834 17.825-9.834 9.134 0 14.143 6.172 5.058 6.12 5.353 15.554zm-34.031 23.03q2.21 18.965 13.553 18.965 5.795 0 9.036-4.365 3.241-4.365 3.241-10.436 0-5.97-3.094-9.633-3.044-3.663-8.25-3.663-7.317 0-14.486 9.132zM3625.491 2937.274h8.3q.736 5.971 4.124 9.734 3.34 3.763 8.152 3.763 6.531 0 10.165-6.974 3.634-6.924 3.781-19.016-6.973 7.727-16.058 7.727-7.808 0-13.357-5.92-5.598-5.87-5.598-15.755 0-9.834 5.5-16.859 5.5-6.974 15.027-6.974 10.656 0 17.09 8.931 6.383 8.981 6.383 26.643 0 16.808-6.188 26.592-6.187 9.834-17.825 9.834-9.134 0-14.143-6.171-5.058-6.122-5.353-15.555zm34.031-23.03q-2.21-18.965-13.553-18.965-5.795 0-9.036 4.365-3.241 4.365-3.241 10.436 0 5.97 3.094 9.634 3.044 3.662 8.25 3.662 7.317 0 14.486-9.131zM4131.491 2937.274h8.3q.736 5.971 4.124 9.734 3.34 3.763 8.152 3.763 6.531 0 10.165-6.974 3.634-6.924 3.781-19.016-6.973 7.727-16.058 7.727-7.808 0-13.357-5.92-5.598-5.87-5.598-15.755 0-9.834 5.5-16.859 5.5-6.974 15.027-6.974 10.656 0 17.09 8.931 6.383 8.981 6.383 26.643 0 16.808-6.188 26.592-6.187 9.834-17.825 9.834-9.134 0-14.143-6.171-5.058-6.122-5.353-15.555zm34.031-23.03q-2.21-18.965-13.553-18.965-5.795 0-9.036 4.365-3.241 4.365-3.241 10.436 0 5.97 3.094 9.634 3.044 3.662 8.25 3.662 7.317 0 14.486-9.131z" style="font-style:normal;font-variant:normal;font-weight:400;font-stretch:normal;font-size:medium;line-height:125%;font-family:Rockwell;-inkscape-font-specification:Rockwell;letter-spacing:0;word-spacing:0;fill:#000;fill-opacity:1;stroke:none;stroke-width:1px;stroke-linecap:butt;stroke-linejoin:miter;stroke-opacity:1"/><path d="M3640.2 2210.816c-5.83-2.786-9.605-7.29-12.222-14.584-2.104-5.865-2.97-24.305-1.494-31.81 3.227-16.404 13.755-25.244 26.832-22.53 7.372 1.531 13.228 8.395 14.389 16.865l.482 3.516h-3.92c-3.769 0-3.94-.096-4.412-2.453-1.235-6.176-6.327-10.842-11.832-10.842-7.909 0-12.773 7.28-14.14 21.162l-.55 5.573 4.172-3.158c10.415-7.882 22.84-5.395 28.495 5.704 2.1 4.12 2.361 5.394 2.332 11.345-.025 5.044-.433 7.584-1.648 10.263-2.19 4.834-6.264 9.3-10.048 11.02-4.279 1.943-12.294 1.909-16.437-.071zm14.473-7.754c3.448-2.498 5.67-7.515 5.71-12.891.102-14.02-12.631-18.433-22.925-7.944l-3.45 3.515.942 4.5c.517 2.475 1.744 6.084 2.725 8.02 3.271 6.456 11.503 8.78 16.998 4.8zM4147.024 2211.323c-4.19-1.32-10.409-7.993-12.393-13.298-2.52-6.732-3.507-14.72-3.017-24.407.882-17.472 6.834-28.165 17.455-31.362 2.024-.609 4.617-1.107 5.761-1.107 3.944 0 9.844 2.3 12.49 4.87 2.95 2.864 5.91 8.875 6.56 13.32l.43 2.934h-7.6l-1.258-3.786c-2.456-7.395-9.199-11.2-15.562-8.78-5.167 1.964-9.024 9.923-9.69 19.999l-.414 6.259 2.641-2.455c7.548-7.017 17.627-7.535 24.933-1.28 4.474 3.829 6.438 8.068 6.881 14.852.98 15.014-7.158 25.37-19.784 25.176-2.582-.04-5.927-.46-7.433-.935zm13.516-8.227c3.125-1.845 6.048-8.153 6.027-13.006-.061-14.127-13.228-18.349-23.718-7.606l-2.955 3.026 1.214 5.234c1.417 6.111 2.688 8.791 5.348 11.275 3.666 3.424 9.37 3.86 14.084 1.077zM3638.446 2957.509c-6.303-1.94-12.384-10.816-12.384-18.077 0-1.65.347-1.814 3.825-1.814 3.695 0 3.841.086 4.306 2.543 1.162 6.151 6.22 10.752 11.82 10.752 7.954 0 12.727-7.244 14.147-21.467l.542-5.434-3.328 2.849c-6.5 5.563-14.16 6.694-21.19 3.129-7.838-3.975-11.684-12.079-10.61-22.355 1.247-11.932 9.029-20.038 19.266-20.068 6.201-.019 9.485 1.133 13.629 4.781 7.524 6.623 10.185 15.677 9.625 32.752-.488 14.857-2.812 21.904-9.304 28.204-5.153 5-12.693 6.56-20.344 4.205zm12.334-35.234c1.46-.693 4.106-2.667 5.877-4.387 3.023-2.933 3.19-3.325 2.721-6.367-1.873-12.147-8.156-18.275-16.47-16.063-1.734.462-3.807 1.423-4.606 2.136-6.567 5.861-6.209 20.31.607 24.466 2.974 1.814 8.298 1.91 11.871.215zM4144.537 2957.657c-2.888-1.077-5.262-2.734-7.41-5.174-2.14-2.428-4.846-9.106-4.853-11.974l-.01-2.977 3.639.239c3.581.235 3.654.293 4.664 3.773 1.507 5.187 5.467 8.717 10.3 9.181 6.381.613 10.098-2.24 12.997-9.977 1.209-3.228 2.962-14.849 2.348-15.562-.144-.167-1.502.641-3.017 1.797-8.612 6.568-17.46 6.847-24.554.774-5.46-4.673-6.768-7.985-6.767-17.131 0-6.968.228-8.252 2.081-11.736 4.012-7.541 9.767-11.345 17.166-11.345 14.935 0 23.34 12.458 23.378 34.654.031 17.255-5.148 29.584-14.437 34.369-3.967 2.043-11.542 2.575-15.527 1.09zm12.601-35.62c1.597-.824 4.248-2.89 5.893-4.589 2.747-2.84 2.944-3.335 2.437-6.13-2.176-11.996-8.209-17.786-16.576-15.908-7.928 1.78-12.068 14.062-7.632 22.641 2.681 5.185 9.998 7.021 15.878 3.986z" style="fill:#000;fill-opacity:1;stroke:#fffecd;stroke-width:.277224;stroke-miterlimit:4;stroke-dasharray:none;stroke-opacity:1"/><path style="fill:#0a0a0a" d="M3640.636 2282.932c1.886-1.488 3.123-3.244 3.969-5.636.648-1.834.726-2.68.752-8.187l.03-6.141-1.024-.097c-1.465-.14-2.852.668-5.284 3.076-3.13 3.1-5.523 3.977-8.637 3.166-1.833-.477-4.609-3.156-5.113-4.934-.439-1.55-.439-4.022 0-5.573.504-1.777 3.28-4.456 5.113-4.934 3.114-.81 5.507.066 8.637 3.167 2.432 2.407 3.82 3.215 5.284 3.076 1.02-.097 1.023-.104.991-1.835-.04-2.115-.82-3.932-3.193-7.427-2.163-3.187-2.719-4.66-2.719-7.214 0-2.508.565-3.81 2.356-5.427a7.716 7.716 0 0 1 10.39 0c1.792 1.618 2.356 2.919 2.356 5.427 0 2.553-.555 4.027-2.719 7.214-2.372 3.495-3.153 5.312-3.193 7.427-.032 1.731-.028 1.738.992 1.835 1.464.14 2.851-.669 5.283-3.076 2.3-2.279 3.851-3.173 5.893-3.399 2.27-.25 4.007.427 5.85 2.281 1.812 1.823 2.35 3.122 2.35 5.672s-.538 3.849-2.35 5.671c-1.843 1.855-3.58 2.532-5.85 2.281-2.042-.225-3.592-1.12-5.893-3.398-2.432-2.408-3.819-3.216-5.283-3.077l-1.024.098.029 6.141c.026 5.507.104 6.353.753 8.187.845 2.392 2.082 4.148 3.968 5.636l1.354 1.068-1.125-.22c-2.969-.582-4.82-.81-6.587-.81-1.766 0-3.618.228-6.587.81l-1.124.22 1.353-1.068zM4146.636 2282.932c1.886-1.488 3.123-3.244 3.969-5.636.648-1.834.726-2.68.752-8.187l.03-6.141-1.024-.097c-1.465-.14-2.852.668-5.284 3.076-3.13 3.1-5.523 3.977-8.637 3.166-1.833-.477-4.609-3.156-5.113-4.934-.439-1.55-.439-4.022 0-5.573.504-1.777 3.28-4.456 5.113-4.934 3.114-.81 5.507.066 8.637 3.167 2.432 2.407 3.82 3.215 5.284 3.076 1.02-.097 1.023-.104.991-1.835-.04-2.115-.82-3.932-3.193-7.427-2.163-3.187-2.719-4.66-2.719-7.214 0-2.508.565-3.81 2.356-5.427a7.716 7.716 0 0 1 10.39 0c1.792 1.618 2.356 2.919 2.356 5.427 0 2.553-.555 4.027-2.719 7.214-2.372 3.495-3.153 5.312-3.193 7.427-.032 1.731-.028 1.738.992 1.835 1.464.14 2.851-.669 5.283-3.076 2.3-2.279 3.851-3.173 5.893-3.399 2.27-.25 4.007.427 5.85 2.281 1.812 1.823 2.35 3.122 2.35 5.672s-.538 3.849-2.35 5.671c-1.843 1.855-3.58 2.532-5.85 2.281-2.042-.225-3.592-1.12-5.893-3.398-2.432-2.408-3.819-3.216-5.283-3.077l-1.024.098.029 6.141c.026 5.507.104 6.353.753 8.187.845 2.392 2.082 4.148 3.968 5.636l1.354 1.068-1.125-.22c-2.969-.582-4.82-.81-6.587-.81-1.766 0-3.618.228-6.587.81l-1.124.22 1.353-1.068zM3640.636 2817.068c1.886 1.488 3.123 3.245 3.969 5.637.648 1.834.726 2.68.752 8.186l.03 6.142-1.024.097c-1.465.139-2.852-.669-5.284-3.077-3.13-3.1-5.523-3.977-8.637-3.166-1.833.477-4.609 3.156-5.113 4.934-.439 1.55-.439 4.023 0 5.573.504 1.778 3.28 4.457 5.113 4.934 3.114.81 5.507-.066 8.637-3.166 2.432-2.408 3.82-3.216 5.284-3.077 1.02.097 1.023.104.991 1.835-.04 2.116-.82 3.932-3.193 7.427-2.163 3.187-2.719 4.661-2.719 7.214 0 2.509.565 3.81 2.356 5.428a7.716 7.716 0 0 0 10.39 0c1.792-1.618 2.356-2.92 2.356-5.428 0-2.553-.555-4.027-2.719-7.214-2.372-3.495-3.153-5.311-3.193-7.427-.032-1.73-.028-1.738.992-1.835 1.464-.139 2.851.669 5.283 3.077 2.3 2.278 3.851 3.172 5.893 3.398 2.27.25 4.007-.427 5.85-2.28 1.812-1.824 2.35-3.122 2.35-5.672s-.538-3.85-2.35-5.672c-1.843-1.854-3.58-2.532-5.85-2.28-2.042.225-3.592 1.119-5.893 3.397-2.432 2.408-3.819 3.216-5.283 3.077l-1.024-.097.029-6.142c.026-5.507.104-6.352.753-8.186.845-2.392 2.082-4.149 3.968-5.637l1.354-1.068-1.125.22c-2.969.582-4.82.81-6.587.81-1.766 0-3.618-.228-6.587-.81l-1.124-.22 1.353 1.068zM4146.636 2817.068c1.886 1.488 3.123 3.245 3.969 5.637.648 1.834.726 2.68.752 8.186l.03 6.142-1.024.097c-1.465.139-2.852-.669-5.284-3.077-3.13-3.1-5.523-3.977-8.637-3.166-1.833.477-4.609 3.156-5.113 4.934-.439 1.55-.439 4.023 0 5.573.504 1.778 3.28 4.457 5.113 4.934 3.114.81 5.507-.066 8.637-3.166 2.432-2.408 3.82-3.216 5.284-3.077 1.02.097 1.023.104.991 1.835-.04 2.116-.82 3.932-3.193 7.427-2.163 3.187-2.719 4.661-2.719 7.214 0 2.509.565 3.81 2.356 5.428a7.716 7.716 0 0 0 10.39 0c1.792-1.618 2.356-2.92 2.356-5.428 0-2.553-.555-4.027-2.719-7.214-2.372-3.495-3.153-5.311-3.193-7.427-.032-1.73-.028-1.738.992-1.835 1.464-.139 2.851.669 5.283 3.077 2.3 2.278 3.851 3.172 5.893 3.398 2.27.25 4.007-.427 5.85-2.28 1.812-1.824 2.35-3.122 2.35-5.672s-.538-3.85-2.35-5.672c-1.843-1.854-3.58-2.532-5.85-2.28-2.042.225-3.592 1.119-5.893 3.397-2.432 2.408-3.819 3.216-5.283 3.077l-1.024-.097.029-6.142c.026-5.507.104-6.352.753-8.186.845-2.392 2.082-4.149 3.968-5.637l1.354-1.068-1.125.22c-2.969.582-4.82.81-6.587.81-1.766 0-3.618-.228-6.587-.81l-1.124-.22 1.353 1.068zM3747.77 2309.241c4.8-3.844 7.95-8.382 10.1-14.56 1.65-4.739 1.85-6.923 1.92-21.15l.1-15.866-2.6-.25c-3.73-.36-7.26 1.727-13.45 7.947-7.97 8.008-14.06 10.275-21.99 8.18-4.66-1.233-11.73-8.154-13.01-12.746-1.12-4.005-1.12-10.392 0-14.397 1.28-4.592 8.35-11.513 13.01-12.746 7.93-2.095 14.02.171 21.99 8.18 6.19 6.22 9.72 8.307 13.45 7.947 2.59-.25 2.6-.269 2.52-4.74-.1-5.465-2.09-10.159-8.13-19.187-5.5-8.233-6.92-12.041-6.92-18.635 0-6.48 1.44-9.842 6-14.022 7.55-6.928 18.89-6.928 26.45 0 4.56 4.18 5.99 7.541 5.99 14.022 0 6.594-1.41 10.402-6.92 18.635-6.04 9.028-8.03 13.722-8.13 19.186-.1 4.472-.1 4.491 2.53 4.741 3.73.36 7.26-1.727 13.45-7.948 5.85-5.886 9.8-8.195 15-8.778 5.78-.648 10.2 1.101 14.89 5.892 4.61 4.708 5.98 8.063 5.98 14.651 0 6.589-1.37 9.943-5.98 14.652-4.69 4.79-9.11 6.54-14.89 5.892-5.2-.583-9.15-2.892-15-8.779-6.19-6.22-9.72-8.307-13.45-7.948l-2.61.251.1 15.866c.1 14.227.26 16.411 1.91 21.15 2.16 6.179 5.3 10.716 10.11 14.56l3.44 2.759-2.86-.57c-7.56-1.502-12.27-2.09-16.77-2.09-4.49 0-9.21.588-16.76 2.09l-2.87.57 3.45-2.759zM4019.77 2309.241c4.8-3.844 7.95-8.382 10.1-14.56 1.65-4.739 1.85-6.923 1.92-21.15l.1-15.866-2.6-.25c-3.73-.36-7.26 1.727-13.45 7.947-7.97 8.008-14.06 10.275-21.99 8.18-4.66-1.233-11.73-8.154-13.01-12.746-1.12-4.005-1.12-10.392 0-14.397 1.28-4.592 8.35-11.513 13.01-12.746 7.93-2.095 14.02.171 21.99 8.18 6.19 6.22 9.72 8.307 13.45 7.947 2.59-.25 2.6-.269 2.52-4.74-.1-5.465-2.09-10.159-8.13-19.187-5.5-8.233-6.92-12.041-6.92-18.635 0-6.48 1.44-9.842 6-14.022 7.55-6.928 18.89-6.928 26.45 0 4.56 4.18 5.99 7.541 5.99 14.022 0 6.594-1.41 10.402-6.92 18.635-6.04 9.028-8.03 13.722-8.13 19.186-.1 4.472-.1 4.491 2.53 4.741 3.73.36 7.26-1.727 13.45-7.948 5.85-5.886 9.8-8.195 15-8.778 5.78-.648 10.2 1.101 14.89 5.892 4.61 4.708 5.98 8.063 5.98 14.651 0 6.589-1.37 9.943-5.98 14.652-4.69 4.79-9.11 6.54-14.89 5.892-5.2-.583-9.15-2.892-15-8.779-6.19-6.22-9.72-8.307-13.45-7.948l-2.61.251.1 15.866c.1 14.227.26 16.411 1.91 21.15 2.16 6.179 5.3 10.716 10.11 14.56l3.44 2.759-2.86-.57c-7.56-1.502-12.27-2.09-16.77-2.09-4.49 0-9.21.588-16.76 2.09l-2.87.57 3.45-2.759zM3747.77 2609.241c4.8-3.844 7.95-8.382 10.1-14.56 1.65-4.739 1.85-6.923 1.92-21.15l.1-15.866-2.6-.25c-3.73-.36-7.26 1.727-13.45 7.947-7.97 8.008-14.06 10.275-21.99 8.18-4.66-1.233-11.73-8.154-13.01-12.746-1.12-4.005-1.12-10.392 0-14.397 1.28-4.592 8.35-11.513 13.01-12.746 7.93-2.095 14.02.171 21.99 8.18 6.19 6.22 9.72 8.307 13.45 7.947 2.59-.25 2.6-.269 2.52-4.74-.1-5.465-2.09-10.159-8.13-19.187-5.5-8.233-6.92-12.041-6.92-18.635 0-6.48 1.44-9.842 6-14.022 7.55-6.928 18.89-6.928 26.45 0 4.56 4.18 5.99 7.541 5.99 14.022 0 6.594-1.41 10.402-6.92 18.635-6.04 9.028-8.03 13.722-8.13 19.186-.1 4.472-.1 4.491 2.53 4.741 3.73.36 7.26-1.727 13.45-7.948 5.85-5.886 9.8-8.195 15-8.778 5.78-.648 10.2 1.101 14.89 5.892 4.61 4.708 5.98 8.063 5.98 14.651 0 6.589-1.37 9.943-5.98 14.652-4.69 4.79-9.11 6.54-14.89 5.892-5.2-.583-9.15-2.892-15-8.779-6.19-6.22-9.72-8.307-13.45-7.948l-2.61.251.1 15.866c.1 14.227.26 16.411 1.91 21.15 2.16 6.179 5.3 10.716 10.11 14.56l3.44 2.759-2.86-.57c-7.56-1.502-12.27-2.09-16.77-2.09-4.49 0-9.21.588-16.76 2.09l-2.87.57 3.45-2.759zM4019.77 2609.241c4.8-3.844 7.95-8.382 10.1-14.56 1.65-4.739 1.85-6.923 1.92-21.15l.1-15.866-2.6-.25c-3.73-.36-7.26 1.727-13.45 7.947-7.97 8.008-14.06 10.275-21.99 8.18-4.66-1.233-11.73-8.154-13.01-12.746-1.12-4.005-1.12-10.392 0-14.397 1.28-4.592 8.35-11.513 13.01-12.746 7.93-2.095 14.02.171 21.99 8.18 6.19 6.22 9.72 8.307 13.45 7.947 2.59-.25 2.6-.269 2.52-4.74-.1-5.465-2.09-10.159-8.13-19.187-5.5-8.233-6.92-12.041-6.92-18.635 0-6.48 1.44-9.842 6-14.022 7.55-6.928 18.89-6.928 26.45 0 4.56 4.18 5.99 7.541 5.99 14.022 0 6.594-1.41 10.402-6.92 18.635-6.04 9.028-8.03 13.722-8.13 19.186-.1 4.472-.1 4.491 2.53 4.741 3.73.36 7.26-1.727 13.45-7.948 5.85-5.886 9.8-8.195 15-8.778 5.78-.648 10.2 1.101 14.89 5.892 4.61 4.708 5.98 8.063 5.98 14.651 0 6.589-1.37 9.943-5.98 14.652-4.69 4.79-9.11 6.54-14.89 5.892-5.2-.583-9.15-2.892-15-8.779-6.19-6.22-9.72-8.307-13.45-7.948l-2.61.251.1 15.866c.1 14.227.26 16.411 1.91 21.15 2.16 6.179 5.3 10.716 10.11 14.56l3.44 2.759-2.86-.57c-7.56-1.502-12.27-2.09-16.77-2.09-4.49 0-9.21.588-16.76 2.09l-2.87.57 3.45-2.759zM3747.77 2790.759c4.8 3.844 7.95 8.382 10.1 14.56 1.65 4.739 1.85 6.923 1.92 21.15l.1 15.866-2.6.25c-3.73.36-7.26-1.727-13.45-7.947-7.97-8.008-14.06-10.275-21.99-8.18-4.66 1.233-11.73 8.154-13.01 12.746-1.12 4.005-1.12 10.392 0 14.397 1.28 4.592 8.35 11.513 13.01 12.746 7.93 2.095 14.02-.171 21.99-8.18 6.19-6.22 9.72-8.307 13.45-7.947 2.59.25 2.6.269 2.52 4.74-.1 5.465-2.09 10.159-8.13 19.187-5.5 8.233-6.92 12.041-6.92 18.635 0 6.48 1.44 9.842 6 14.022 7.55 6.928 18.89 6.928 26.45 0 4.56-4.18 5.99-7.541 5.99-14.022 0-6.594-1.41-10.402-6.92-18.635-6.04-9.028-8.03-13.722-8.13-19.186-.1-4.472-.1-4.491 2.53-4.741 3.73-.36 7.26 1.727 13.45 7.948 5.85 5.886 9.8 8.195 15 8.778 5.78.648 10.2-1.101 14.89-5.892 4.61-4.708 5.98-8.063 5.98-14.651 0-6.589-1.37-9.943-5.98-14.652-4.69-4.79-9.11-6.54-14.89-5.892-5.2.583-9.15 2.892-15 8.779-6.19 6.22-9.72 8.307-13.45 7.948l-2.61-.251.1-15.866c.1-14.227.26-16.411 1.91-21.15 2.16-6.179 5.3-10.716 10.11-14.56l3.44-2.759-2.86.57c-7.56 1.502-12.27 2.09-16.77 2.09-4.49 0-9.21-.588-16.76-2.09l-2.87-.57 3.45 2.759zM4019.77 2790.759c4.8 3.844 7.95 8.382 10.1 14.56 1.65 4.739 1.85 6.923 1.92 21.15l.1 15.866-2.6.25c-3.73.36-7.26-1.727-13.45-7.947-7.97-8.008-14.06-10.275-21.99-8.18-4.66 1.233-11.73 8.154-13.01 12.746-1.12 4.005-1.12 10.392 0 14.397 1.28 4.592 8.35 11.513 13.01 12.746 7.93 2.095 14.02-.171 21.99-8.18 6.19-6.22 9.72-8.307 13.45-7.947 2.59.25 2.6.269 2.52 4.74-.1 5.465-2.09 10.159-8.13 19.187-5.5 8.233-6.92 12.041-6.92 18.635 0 6.48 1.44 9.842 6 14.022 7.55 6.928 18.89 6.928 26.45 0 4.56-4.18 5.99-7.541 5.99-14.022 0-6.594-1.41-10.402-6.92-18.635-6.04-9.028-8.03-13.722-8.13-19.186-.1-4.472-.1-4.491 2.53-4.741 3.73-.36 7.26 1.727 13.45 7.948 5.85 5.886 9.8 8.195 15 8.778 5.78.648 10.2-1.101 14.89-5.892 4.61-4.708 5.98-8.063 5.98-14.651 0-6.589-1.37-9.943-5.98-14.652-4.69-4.79-9.11-6.54-14.89-5.892-5.2.583-9.15 2.892-15 8.779-6.19 6.22-9.72 8.307-13.45 7.948l-2.61-.251.1-15.866c.1-14.227.26-16.411 1.91-21.15 2.16-6.179 5.3-10.716 10.11-14.56l3.44-2.759-2.86.57c-7.56 1.502-12.27 2.09-16.77 2.09-4.49 0-9.21-.588-16.76-2.09l-2.87-.57 3.45 2.759z"/><path style="fill:#fffecd;fill-opacity:1;stroke:#fffecd;stroke-width:.676816;stroke-miterlimit:4;stroke-dasharray:none;stroke-opacity:1" d="M3684.974 2896.991c-.084-38.608-.747-77.372-1.476-86.141-1.71-20.591-2.626-21.303-27.396-21.303h-18.744l.485-239.243.485-239.243 19.492-.955c12.182-.597 20.411-1.878 21.942-3.414 3.828-3.841 5.048-28.206 5.212-104.03l.152-70.198h431.688v83.788c0 101.815-2.28 93.853 26.88 93.853h18.963V2789.546h-18.962c-29.16 0-26.88-7.96-26.88 93.854v83.788H3685.125zm91.79 11.968c1.092-.675 3.36-3.884 5.04-7.132 4.018-7.772 2.505-16.347-5.057-28.636-5.667-9.21-9.653-22.52-6.744-22.52 2.75 0 9.914 4.585 16.843 10.78 9.899 8.852 18.495 8.826 27.405-.084 5.023-5.024 6.494-8.08 6.494-13.497 0-13.48-7.78-21.921-20.265-21.989-6.469-.035-9.375 1.301-16.529 7.598-13.108 11.538-14.78 10.668-14.78-7.702 0-17.007 2.715-25.639 10.262-32.637l4.955-4.595-19.922.023-19.923.023 4.44 4.776c7.219 7.762 8.69 12.252 9.983 30.462 1.15 16.198.996 17.29-2.437 17.29-2.015 0-7.824-3.438-12.91-7.64-11.948-9.873-21.515-10.53-29.988-2.057-4.664 4.665-5.583 7.137-5.583 15.02 0 7.669.951 10.39 5.074 14.512 9.776 9.776 18.672 9.042 32.185-2.653 4.849-4.197 10.122-7.63 11.717-7.63 4.346 0 1.568 10.252-6.221 22.959-7.743 12.631-8.618 23.45-2.522 31.198 6.122 7.783 19.447 9.716 28.483 4.131zm274.629-3.923c6.567-7.51 5.768-18.018-2.391-31.45-12.685-20.88-10.403-29.648 4.295-16.506 14.218 12.714 21.688 13.849 31.934 4.853 6.03-5.293 6.752-6.944 6.752-15.428 0-7.952-.91-10.408-5.584-15.083-8.473-8.472-18.04-7.816-29.988 2.057-5.086 4.203-10.885 7.64-12.889 7.64-3.38 0-3.574-1.21-2.683-16.83 1-17.54 2.78-22.935 10.208-30.922l4.44-4.776-19.888-.023-19.89-.023 5.548 5.754c7.729 8.015 9.602 14.192 9.602 31.664 0 18.134-1.707 19.023-14.65 7.63-12.414-10.927-21.52-11.403-31.287-1.637-4.58 4.581-5.637 7.256-5.637 14.277 0 7.278 1.023 9.662 6.495 15.134 9.525 9.525 16.998 9.001 30.005-2.101 17.325-14.789 19.803-9.824 7.175 14.374-8.558 16.4-9.191 25.148-2.366 32.69 7.5 8.287 22.99 7.636 30.799-1.294zm-271.11-296.647c-7.103-4.975-11.024-17.091-11.07-34.209-.05-18.669 1.227-19.42 14.09-8.287 10.509 9.096 17.836 11.067 25.81 6.943 16.15-8.351 15.152-32.25-1.637-39.204-7.816-3.237-13.565-1.414-23.99 7.609-16.15 13.978-18.769 8.262-6.674-14.566 4.202-7.932 7.64-16.457 7.64-18.944 0-17.696-22.04-26.888-34.528-14.4-8.126 8.125-7.604 17.141 2.057 35.484 11.41 21.666 9.424 26.032-5.986 13.158-14.489-12.106-21.295-13.058-31.195-4.365-6.107 5.362-6.752 6.88-6.752 15.879 0 8.593.792 10.71 5.81 15.517 8.91 8.535 17.984 7.782 30.187-2.508 14.814-12.491 16.368-11.562 15.036 8.996-1.162 17.933-2.776 22.811-10.175 30.762l-4.518 4.855h19.89c17.752 0 19.471-.292 16.005-2.72zm270.842-2.135c-7.51-8.068-9.283-13.416-10.286-31.002-.898-15.746-.72-16.83 2.768-16.83 2.05 0 6.16 2.539 9.134 5.642 12.295 12.833 25.495 14.222 34.415 3.621 13.07-15.533-2.05-41.284-20.193-34.387-2.57.977-8.387 4.88-12.928 8.675-4.541 3.794-9.572 6.898-11.18 6.898-4.447 0-1.79-9.808 6.135-22.648 8.857-14.349 9.212-24.798 1.117-32.893-12.416-12.415-34.53-3.311-34.53 14.216 0 2.59 3.439 11.197 7.641 19.129 11.621 21.934 9.332 28.822-5.247 15.786-10.202-9.122-15.178-11.316-22.536-9.936-9.172 1.72-16.15 10.725-16.15 20.843 0 9.307 3.611 15.32 11.717 19.512 7.885 4.078 15.254 2.076 25.726-6.987 12.802-11.08 14.13-10.34 14.13 7.871 0 16.6-2.773 25.81-9.922 32.952l-4.403 4.398h39.11l-4.518-4.855zm-271.68-299.396c-7.41-6.868-10.273-16.059-10.273-32.984 0-18.21 1.329-18.95 14.13-7.87 10.51 9.095 17.837 11.066 25.81 6.943 16.15-8.352 15.153-32.25-1.636-39.204-7.816-3.238-13.565-1.415-23.99 7.608-16.15 13.978-18.769 8.263-6.674-14.566 7.94-14.984 9.12-21.004 5.507-28.07-3.682-7.2-9.804-10.77-18.547-10.815-6.62-.034-9.376 1.069-13.848 5.541-8.007 8.007-7.718 18.559.9 32.85 7.793 12.922 10.49 22.69 6.265 22.69-1.56 0-6.552-3.104-11.093-6.898-14.49-12.105-21.296-13.057-31.196-4.364-6.107 5.361-6.752 6.88-6.752 15.878 0 8.594.792 10.71 5.81 15.518 8.91 8.535 17.985 7.781 30.187-2.508 14.814-12.492 16.368-11.562 15.036 8.996-1.16 17.889-2.78 22.814-10.099 30.682l-4.441 4.776 19.82.094 19.821.094-4.737-4.39zm271.603-.573c-7.428-7.986-9.209-13.38-10.209-30.923-1.156-20.277.41-21.182 15.146-8.755 7.786 6.564 11.012 8.074 17.252 8.074 6.245 0 8.707-1.154 13.21-6.194 4.505-5.041 5.536-7.93 5.536-15.517 0-8.28-.755-9.986-6.752-15.251-9.9-8.693-16.707-7.74-31.196 4.364-4.541 3.794-9.572 6.899-11.18 6.899-4.447 0-1.79-9.809 6.135-22.648 8.857-14.35 9.212-24.798 1.117-32.893-12.509-12.509-34.53-3.462-34.53 14.185 0 2.606 3.439 11.228 7.641 19.16 11.621 21.933 9.332 28.822-5.247 15.786-10.202-9.123-15.178-11.317-22.536-9.936-9.172 1.72-16.15 10.725-16.15 20.842 0 9.307 3.611 15.32 11.717 19.512 7.885 4.078 15.254 2.077 25.726-6.986 12.802-11.08 14.13-10.34 14.13 7.87 0 16.925-2.862 26.116-10.273 32.984l-4.737 4.39 19.821-.094 19.82-.094-4.44-4.775z"/></g></svg>