<svg height="122.99" width="78.999" xmlns="http://www.w3.org/2000/svg"><g transform="matrix(.13166 0 0 .13666 -566.158 -286.976)"><rect width="597.967" height="897.967" rx="48.211" ry="49.888" x="4301.017" y="2101.016" style="font-style:normal;font-variant:normal;font-weight:500;font-stretch:normal;font-size:medium;line-height:125%;font-family:Gaelic;-inkscape-font-specification:'Gaelic Medium';letter-spacing:0;word-spacing:0;fill:#fff;fill-opacity:1;stroke:#000;stroke-width:2.03317;stroke-linecap:butt;stroke-linejoin:miter;stroke-miterlimit:4;stroke-dasharray:none;stroke-opacity:1"/><path style="fill:#b7b772" d="M4380.315 2969.538c-.36-.367-.656-38.958-.656-85.759 0-82.258-.06-85.169-1.874-87.448-1.836-2.308-2.295-2.367-22.33-2.856l-20.455-.5v-486.248l20.334-.5c17.804-.436 20.551-.72 22.084-2.281 1.644-1.675 1.78-6.989 2.24-87.864l.492-86.082h440.7l.492 86.082c.46 80.875.596 86.189 2.24 87.864 1.533 1.56 4.28 1.845 22.084 2.282l20.334.499v486.249l-20.334.499c-17.804.437-20.551.721-22.084 2.282-1.644 1.675-1.78 6.988-2.24 87.864l-.492 86.082-219.939.252c-120.967.138-220.234-.05-220.596-.417zm437.104-85.952c0-81.68.049-83.697 1.954-86.875 3.95-6.589 6.25-7.222 26.261-7.226h17.912v-479.26h-17.912c-20.011 0-22.312-.637-26.261-7.226-1.906-3.178-1.951-5.195-1.954-86.874v-83.621h-433.83v83.62c0 81.68-.05 83.697-1.954 86.876-3.95 6.588-6.25 7.221-26.261 7.226h-17.912v479.26h17.912c20.01 0 22.312.636 26.261 7.225 1.905 3.179 1.951 5.196 1.954 86.875v83.62h433.83z"/><path d="M4330.165 2213v-8.76h9.367q.76-13.944 6.329-29.184 5.57-15.24 12.101-24.777h-24.253v9.693H4325V2141h44v7.36q-6.886 8.45-13.063 25.66-6.177 17.157-6.177 30.22h8.202v8.76zM4836.165 2213v-8.76h9.367q.76-13.944 6.329-29.184 5.57-15.24 12.101-24.777h-24.253v9.693H4831V2141h44v7.36q-6.886 8.45-13.063 25.66-6.177 17.157-6.177 30.22h8.202v8.76zM4363.835 2887v8.76h-9.367q-.76 13.944-6.329 29.184-5.57 15.24-12.101 24.778h24.253v-9.694H4369V2959h-44v-7.36q6.886-8.45 13.063-25.66 6.177-17.157 6.177-30.22h-8.202V2887zM4869.835 2887v8.76h-9.367q-.76 13.944-6.329 29.184-5.57 15.24-12.101 24.778h24.253v-9.694H4875V2959h-44v-7.36q6.886-8.45 13.063-25.66 6.177-17.157 6.177-30.22h-8.202V2887z" style="font-style:normal;font-variant:normal;font-weight:400;font-stretch:normal;font-size:medium;line-height:125%;font-family:Rockwell;-inkscape-font-specification:Rockwell;letter-spacing:0;word-spacing:0;fill:#000;fill-opacity:1;stroke:none;stroke-width:1px;stroke-linecap:butt;stroke-linejoin:miter;stroke-opacity:1"/><path d="M4330.885 2208.434v-3.912h4.328c4.938 0 4.538.622 5.79-8.998 1.47-11.302 10.105-34.781 15.658-42.58.884-1.241 1.607-2.467 1.607-2.723 0-.256-5.633-.466-12.518-.466h-12.518v10.171h-7.824v-18.777h43.032v3.395c0 2.665-.806 4.736-3.74 9.619-7.216 12.006-13.806 31.602-14.765 43.904l-.504 6.455h8.055v7.824h-26.601zM4836.615 2208.434v-3.912h9.389v-2.42c0-8.832 6.326-29.252 13.179-42.541 2.433-4.72 4.542-8.857 4.685-9.194.144-.337-5.226-.612-11.931-.612h-12.192v10.171h-8.607v-18.778h43.814v3.37c0 2.426-.573 4.122-2.049 6.063-3.111 4.092-9.281 17.358-12.35 26.557-2.747 8.231-5.16 19.806-5.16 24.748v2.636h8.606v7.824h-27.384zM4325.552 2955.167c0-2.718.58-4.42 2.426-7.101 7.579-11.016 16.35-37.17 16.35-48.752v-3.945h-7.823v-7.824h26.601v7.746l-4.498.235-4.5.234-.594 5.477c-1.485 13.664-9.523 36.259-16.325 45.89-.806 1.143-1.466 2.287-1.466 2.543 0 .257 5.633.466 12.518.466h12.518v-9.388h7.824V2958.743h-43.031zM4830.974 2955.637c0-2.334.847-4.42 3.417-8.41 7.927-12.308 16.142-37.15 16.142-48.815v-3.043h-7.824v-7.824h26.601v7.824h-9.186l-.554 5.618c-1.18 11.973-7.628 31.074-14.57 43.155-1.69 2.942-3.073 5.495-3.073 5.672 0 .177 5.633.322 12.518.322h12.518v-9.388h7.824V2958.743h-43.814z" style="fill:#000;fill-opacity:1;stroke:#fffecd;stroke-width:.277224;stroke-miterlimit:4;stroke-dasharray:none;stroke-opacity:1"/><path d="M4340.636 2282.932c1.886-1.488 3.123-3.244 3.969-5.636.648-1.834.726-2.68.752-8.187l.03-6.141-1.024-.097c-1.465-.14-2.852.668-5.284 3.076-3.13 3.1-5.523 3.977-8.637 3.166-1.833-.477-4.609-3.156-5.113-4.934-.439-1.55-.439-4.022 0-5.573.504-1.777 3.28-4.456 5.113-4.934 3.114-.81 5.507.066 8.637 3.167 2.432 2.407 3.82 3.215 5.284 3.076 1.02-.097 1.023-.104.991-1.835-.04-2.115-.82-3.932-3.193-7.427-2.163-3.187-2.719-4.66-2.719-7.214 0-2.508.565-3.81 2.356-5.427a7.716 7.716 0 0 1 10.39 0c1.792 1.618 2.356 2.919 2.356 5.427 0 2.553-.555 4.027-2.719 7.214-2.372 3.495-3.153 5.312-3.193 7.427-.032 1.731-.028 1.738.992 1.835 1.464.14 2.851-.669 5.283-3.076 2.3-2.279 3.851-3.173 5.893-3.399 2.27-.25 4.007.427 5.85 2.281 1.812 1.823 2.35 3.122 2.35 5.672s-.538 3.849-2.35 5.671c-1.843 1.855-3.58 2.532-5.85 2.281-2.042-.225-3.592-1.12-5.893-3.398-2.432-2.408-3.819-3.216-5.283-3.077l-1.024.098.029 6.141c.026 5.507.104 6.353.753 8.187.845 2.392 2.082 4.148 3.968 5.636l1.354 1.068-1.125-.22c-2.969-.582-4.82-.81-6.587-.81-1.766 0-3.618.228-6.587.81l-1.124.22 1.353-1.068zM4846.636 2282.932c1.886-1.488 3.123-3.244 3.969-5.636.648-1.834.726-2.68.752-8.187l.03-6.141-1.024-.097c-1.465-.14-2.852.668-5.284 3.076-3.13 3.1-5.523 3.977-8.637 3.166-1.833-.477-4.609-3.156-5.113-4.934-.439-1.55-.439-4.022 0-5.573.504-1.777 3.28-4.456 5.113-4.934 3.114-.81 5.507.066 8.637 3.167 2.432 2.407 3.82 3.215 5.284 3.076 1.02-.097 1.023-.104.991-1.835-.04-2.115-.82-3.932-3.193-7.427-2.163-3.187-2.719-4.66-2.719-7.214 0-2.508.565-3.81 2.356-5.427a7.716 7.716 0 0 1 10.39 0c1.792 1.618 2.356 2.919 2.356 5.427 0 2.553-.555 4.027-2.719 7.214-2.372 3.495-3.153 5.312-3.193 7.427-.032 1.731-.028 1.738.992 1.835 1.464.14 2.851-.669 5.283-3.076 2.3-2.279 3.851-3.173 5.893-3.399 2.27-.25 4.007.427 5.85 2.281 1.812 1.823 2.35 3.122 2.35 5.672s-.538 3.849-2.35 5.671c-1.843 1.855-3.58 2.532-5.85 2.281-2.042-.225-3.592-1.12-5.893-3.398-2.432-2.408-3.819-3.216-5.283-3.077l-1.024.098.029 6.141c.026 5.507.104 6.353.753 8.187.845 2.392 2.082 4.148 3.968 5.636l1.354 1.068-1.125-.22c-2.969-.582-4.82-.81-6.587-.81-1.766 0-3.618.228-6.587.81l-1.124.22 1.353-1.068zM4340.636 2817.068c1.886 1.488 3.123 3.245 3.969 5.637.648 1.834.726 2.68.752 8.186l.03 6.142-1.024.097c-1.465.139-2.852-.669-5.284-3.077-3.13-3.1-5.523-3.977-8.637-3.166-1.833.477-4.609 3.156-5.113 4.934-.439 1.55-.439 4.023 0 5.573.504 1.778 3.28 4.457 5.113 4.934 3.114.81 5.507-.066 8.637-3.166 2.432-2.408 3.82-3.216 5.284-3.077 1.02.097 1.023.104.991 1.835-.04 2.116-.82 3.932-3.193 7.427-2.163 3.187-2.719 4.661-2.719 7.214 0 2.509.565 3.81 2.356 5.428a7.716 7.716 0 0 0 10.39 0c1.792-1.618 2.356-2.92 2.356-5.428 0-2.553-.555-4.027-2.719-7.214-2.372-3.495-3.153-5.311-3.193-7.427-.032-1.73-.028-1.738.992-1.835 1.464-.139 2.851.669 5.283 3.077 2.3 2.278 3.851 3.172 5.893 3.398 2.27.25 4.007-.427 5.85-2.28 1.812-1.824 2.35-3.122 2.35-5.672s-.538-3.85-2.35-5.672c-1.843-1.854-3.58-2.532-5.85-2.28-2.042.225-3.592 1.119-5.893 3.397-2.432 2.408-3.819 3.216-5.283 3.077l-1.024-.097.029-6.142c.026-5.507.104-6.352.753-8.186.845-2.392 2.082-4.149 3.968-5.637l1.354-1.068-1.125.22c-2.969.582-4.82.81-6.587.81-1.766 0-3.618-.228-6.587-.81l-1.124-.22 1.353 1.068zM4846.636 2817.068c1.886 1.488 3.123 3.245 3.969 5.637.648 1.834.726 2.68.752 8.186l.03 6.142-1.024.097c-1.465.139-2.852-.669-5.284-3.077-3.13-3.1-5.523-3.977-8.637-3.166-1.833.477-4.609 3.156-5.113 4.934-.439 1.55-.439 4.023 0 5.573.504 1.778 3.28 4.457 5.113 4.934 3.114.81 5.507-.066 8.637-3.166 2.432-2.408 3.82-3.216 5.284-3.077 1.02.097 1.023.104.991 1.835-.04 2.116-.82 3.932-3.193 7.427-2.163 3.187-2.719 4.661-2.719 7.214 0 2.509.565 3.81 2.356 5.428a7.716 7.716 0 0 0 10.39 0c1.792-1.618 2.356-2.92 2.356-5.428 0-2.553-.555-4.027-2.719-7.214-2.372-3.495-3.153-5.311-3.193-7.427-.032-1.73-.028-1.738.992-1.835 1.464-.139 2.851.669 5.283 3.077 2.3 2.278 3.851 3.172 5.893 3.398 2.27.25 4.007-.427 5.85-2.28 1.812-1.824 2.35-3.122 2.35-5.672s-.538-3.85-2.35-5.672c-1.843-1.854-3.58-2.532-5.85-2.28-2.042.225-3.592 1.119-5.893 3.397-2.432 2.408-3.819 3.216-5.283 3.077l-1.024-.097.029-6.142c.026-5.507.104-6.352.753-8.186.845-2.392 2.082-4.149 3.968-5.637l1.354-1.068-1.125.22c-2.969.582-4.82.81-6.587.81-1.766 0-3.618-.228-6.587-.81l-1.124-.22 1.353 1.068zM4447.77 2309.241c4.8-3.844 7.95-8.382 10.1-14.56 1.65-4.739 1.85-6.923 1.92-21.15l.1-15.866-2.6-.25c-3.73-.36-7.26 1.727-13.45 7.947-7.97 8.008-14.06 10.275-21.99 8.18-4.66-1.233-11.73-8.154-13.01-12.746-1.12-4.005-1.12-10.392 0-14.397 1.28-4.592 8.35-11.513 13.01-12.746 7.93-2.095 14.02.171 21.99 8.18 6.19 6.22 9.72 8.307 13.45 7.947 2.59-.25 2.6-.269 2.52-4.74-.1-5.465-2.09-10.159-8.13-19.187-5.5-8.233-6.92-12.041-6.92-18.635 0-6.48 1.44-9.842 6-14.022 7.55-6.928 18.89-6.928 26.45 0 4.56 4.18 5.99 7.541 5.99 14.022 0 6.594-1.41 10.402-6.92 18.635-6.04 9.028-8.03 13.722-8.13 19.186-.1 4.472-.1 4.491 2.53 4.741 3.73.36 7.26-1.727 13.45-7.948 5.85-5.886 9.8-8.195 15-8.778 5.78-.648 10.2 1.101 14.89 5.892 4.61 4.708 5.98 8.063 5.98 14.651 0 6.589-1.37 9.943-5.98 14.652-4.69 4.79-9.11 6.54-14.89 5.892-5.2-.583-9.15-2.892-15-8.779-6.19-6.22-9.72-8.307-13.45-7.948l-2.61.251.1 15.866c.1 14.227.26 16.411 1.91 21.15 2.16 6.179 5.3 10.716 10.11 14.56l3.44 2.759-2.86-.57c-7.56-1.502-12.27-2.09-16.77-2.09-4.49 0-9.21.588-16.76 2.09l-2.87.57 3.45-2.759zM4719.77 2309.241c4.8-3.844 7.95-8.382 10.1-14.56 1.65-4.739 1.85-6.923 1.92-21.15l.1-15.866-2.6-.25c-3.73-.36-7.26 1.727-13.45 7.947-7.97 8.008-14.06 10.275-21.99 8.18-4.66-1.233-11.73-8.154-13.01-12.746-1.12-4.005-1.12-10.392 0-14.397 1.28-4.592 8.35-11.513 13.01-12.746 7.93-2.095 14.02.171 21.99 8.18 6.19 6.22 9.72 8.307 13.45 7.947 2.59-.25 2.6-.269 2.52-4.74-.1-5.465-2.09-10.159-8.13-19.187-5.5-8.233-6.92-12.041-6.92-18.635 0-6.48 1.44-9.842 6-14.022 7.55-6.928 18.89-6.928 26.45 0 4.56 4.18 5.99 7.541 5.99 14.022 0 6.594-1.41 10.402-6.92 18.635-6.04 9.028-8.03 13.722-8.13 19.186-.1 4.472-.1 4.491 2.53 4.741 3.73.36 7.26-1.727 13.45-7.948 5.85-5.886 9.8-8.195 15-8.778 5.78-.648 10.2 1.101 14.89 5.892 4.61 4.708 5.98 8.063 5.98 14.651 0 6.589-1.37 9.943-5.98 14.652-4.69 4.79-9.11 6.54-14.89 5.892-5.2-.583-9.15-2.892-15-8.779-6.19-6.22-9.72-8.307-13.45-7.948l-2.61.251.1 15.866c.1 14.227.26 16.411 1.91 21.15 2.16 6.179 5.3 10.716 10.11 14.56l3.44 2.759-2.86-.57c-7.56-1.502-12.27-2.09-16.77-2.09-4.49 0-9.21.588-16.76 2.09l-2.87.57 3.45-2.759zM4447.77 2609.241c4.8-3.844 7.95-8.382 10.1-14.56 1.65-4.739 1.85-6.923 1.92-21.15l.1-15.866-2.6-.25c-3.73-.36-7.26 1.727-13.45 7.947-7.97 8.008-14.06 10.275-21.99 8.18-4.66-1.233-11.73-8.154-13.01-12.746-1.12-4.005-1.12-10.392 0-14.397 1.28-4.592 8.35-11.513 13.01-12.746 7.93-2.095 14.02.171 21.99 8.18 6.19 6.22 9.72 8.307 13.45 7.947 2.59-.25 2.6-.269 2.52-4.74-.1-5.465-2.09-10.159-8.13-19.187-5.5-8.233-6.92-12.041-6.92-18.635 0-6.48 1.44-9.842 6-14.022 7.55-6.928 18.89-6.928 26.45 0 4.56 4.18 5.99 7.541 5.99 14.022 0 6.594-1.41 10.402-6.92 18.635-6.04 9.028-8.03 13.722-8.13 19.186-.1 4.472-.1 4.491 2.53 4.741 3.73.36 7.26-1.727 13.45-7.948 5.85-5.886 9.8-8.195 15-8.778 5.78-.648 10.2 1.101 14.89 5.892 4.61 4.708 5.98 8.063 5.98 14.651 0 6.589-1.37 9.943-5.98 14.652-4.69 4.79-9.11 6.54-14.89 5.892-5.2-.583-9.15-2.892-15-8.779-6.19-6.22-9.72-8.307-13.45-7.948l-2.61.251.1 15.866c.1 14.227.26 16.411 1.91 21.15 2.16 6.179 5.3 10.716 10.11 14.56l3.44 2.759-2.86-.57c-7.56-1.502-12.27-2.09-16.77-2.09-4.49 0-9.21.588-16.76 2.09l-2.87.57 3.45-2.759zM4719.77 2609.241c4.8-3.844 7.95-8.382 10.1-14.56 1.65-4.739 1.85-6.923 1.92-21.15l.1-15.866-2.6-.25c-3.73-.36-7.26 1.727-13.45 7.947-7.97 8.008-14.06 10.275-21.99 8.18-4.66-1.233-11.73-8.154-13.01-12.746-1.12-4.005-1.12-10.392 0-14.397 1.28-4.592 8.35-11.513 13.01-12.746 7.93-2.095 14.02.171 21.99 8.18 6.19 6.22 9.72 8.307 13.45 7.947 2.59-.25 2.6-.269 2.52-4.74-.1-5.465-2.09-10.159-8.13-19.187-5.5-8.233-6.92-12.041-6.92-18.635 0-6.48 1.44-9.842 6-14.022 7.55-6.928 18.89-6.928 26.45 0 4.56 4.18 5.99 7.541 5.99 14.022 0 6.594-1.41 10.402-6.92 18.635-6.04 9.028-8.03 13.722-8.13 19.186-.1 4.472-.1 4.491 2.53 4.741 3.73.36 7.26-1.727 13.45-7.948 5.85-5.886 9.8-8.195 15-8.778 5.78-.648 10.2 1.101 14.89 5.892 4.61 4.708 5.98 8.063 5.98 14.651 0 6.589-1.37 9.943-5.98 14.652-4.69 4.79-9.11 6.54-14.89 5.892-5.2-.583-9.15-2.892-15-8.779-6.19-6.22-9.72-8.307-13.45-7.948l-2.61.251.1 15.866c.1 14.227.26 16.411 1.91 21.15 2.16 6.179 5.3 10.716 10.11 14.56l3.44 2.759-2.86-.57c-7.56-1.502-12.27-2.09-16.77-2.09-4.49 0-9.21.588-16.76 2.09l-2.87.57 3.45-2.759zM4447.77 2790.759c4.8 3.844 7.95 8.382 10.1 14.56 1.65 4.739 1.85 6.923 1.92 21.15l.1 15.866-2.6.25c-3.73.36-7.26-1.727-13.45-7.947-7.97-8.008-14.06-10.275-21.99-8.18-4.66 1.233-11.73 8.154-13.01 12.746-1.12 4.005-1.12 10.392 0 14.397 1.28 4.592 8.35 11.513 13.01 12.746 7.93 2.095 14.02-.171 21.99-8.18 6.19-6.22 9.72-8.307 13.45-7.947 2.59.25 2.6.269 2.52 4.74-.1 5.465-2.09 10.159-8.13 19.187-5.5 8.233-6.92 12.041-6.92 18.635 0 6.48 1.44 9.842 6 14.022 7.55 6.928 18.89 6.928 26.45 0 4.56-4.18 5.99-7.541 5.99-14.022 0-6.594-1.41-10.402-6.92-18.635-6.04-9.028-8.03-13.722-8.13-19.186-.1-4.472-.1-4.491 2.53-4.741 3.73-.36 7.26 1.727 13.45 7.948 5.85 5.886 9.8 8.195 15 8.778 5.78.648 10.2-1.101 14.89-5.892 4.61-4.708 5.98-8.063 5.98-14.651 0-6.589-1.37-9.943-5.98-14.652-4.69-4.79-9.11-6.54-14.89-5.892-5.2.583-9.15 2.892-15 8.779-6.19 6.22-9.72 8.307-13.45 7.948l-2.61-.251.1-15.866c.1-14.227.26-16.411 1.91-21.15 2.16-6.179 5.3-10.716 10.11-14.56l3.44-2.759-2.86.57c-7.56 1.502-12.27 2.09-16.77 2.09-4.49 0-9.21-.588-16.76-2.09l-2.87-.57 3.45 2.759zM4719.77 2790.759c4.8 3.844 7.95 8.382 10.1 14.56 1.65 4.739 1.85 6.923 1.92 21.15l.1 15.866-2.6.25c-3.73.36-7.26-1.727-13.45-7.947-7.97-8.008-14.06-10.275-21.99-8.18-4.66 1.233-11.73 8.154-13.01 12.746-1.12 4.005-1.12 10.392 0 14.397 1.28 4.592 8.35 11.513 13.01 12.746 7.93 2.095 14.02-.171 21.99-8.18 6.19-6.22 9.72-8.307 13.45-7.947 2.59.25 2.6.269 2.52 4.74-.1 5.465-2.09 10.159-8.13 19.187-5.5 8.233-6.92 12.041-6.92 18.635 0 6.48 1.44 9.842 6 14.022 7.55 6.928 18.89 6.928 26.45 0 4.56-4.18 5.99-7.541 5.99-14.022 0-6.594-1.41-10.402-6.92-18.635-6.04-9.028-8.03-13.722-8.13-19.186-.1-4.472-.1-4.491 2.53-4.741 3.73-.36 7.26 1.727 13.45 7.948 5.85 5.886 9.8 8.195 15 8.778 5.78.648 10.2-1.101 14.89-5.892 4.61-4.708 5.98-8.063 5.98-14.651 0-6.589-1.37-9.943-5.98-14.652-4.69-4.79-9.11-6.54-14.89-5.892-5.2.583-9.15 2.892-15 8.779-6.19 6.22-9.72 8.307-13.45 7.948l-2.61-.251.1-15.866c.1-14.227.26-16.411 1.91-21.15 2.16-6.179 5.3-10.716 10.11-14.56l3.44-2.759-2.86.57c-7.56 1.502-12.27 2.09-16.77 2.09-4.49 0-9.21-.588-16.76-2.09l-2.87-.57 3.45 2.759zM4583.77 2459.241c4.8-3.844 7.95-8.382 10.1-14.56 1.65-4.739 1.85-6.923 1.92-21.15l.1-15.866-2.6-.25c-3.73-.36-7.26 1.727-13.45 7.947-7.97 8.008-14.06 10.275-21.99 8.18-4.66-1.233-11.73-8.154-13.01-12.746-1.12-4.005-1.12-10.392 0-14.397 1.28-4.592 8.35-11.513 13.01-12.746 7.93-2.095 14.02.171 21.99 8.18 6.19 6.22 9.72 8.307 13.45 7.947 2.59-.25 2.6-.269 2.52-4.74-.1-5.465-2.09-10.159-8.13-19.187-5.5-8.233-6.92-12.041-6.92-18.635 0-6.48 1.44-9.842 6-14.022 7.55-6.928 18.89-6.928 26.45 0 4.56 4.18 5.99 7.541 5.99 14.022 0 6.594-1.41 10.402-6.92 18.635-6.04 9.028-8.03 13.722-8.13 19.186-.1 4.472-.1 4.491 2.53 4.741 3.73.36 7.26-1.727 13.45-7.948 5.85-5.886 9.8-8.195 15-8.778 5.78-.648 10.2 1.101 14.89 5.892 4.61 4.708 5.98 8.063 5.98 14.651 0 6.589-1.37 9.943-5.98 14.652-4.69 4.79-9.11 6.54-14.89 5.892-5.2-.583-9.15-2.892-15-8.779-6.19-6.22-9.72-8.307-13.45-7.948l-2.61.251.1 15.866c.1 14.227.26 16.411 1.91 21.15 2.16 6.179 5.3 10.716 10.11 14.56l3.44 2.759-2.86-.57c-7.56-1.502-12.27-2.09-16.77-2.09-4.49 0-9.21.588-16.76 2.09l-2.87.57 3.45-2.759z" style="fill:#0a0a0a"/><path style="fill:#fffecd;fill-opacity:1;stroke:#fffecd;stroke-width:.676816;stroke-miterlimit:4;stroke-dasharray:none;stroke-opacity:1" d="M4384.232 2883.4c0-101.815 2.28-93.853-26.88-93.853h-18.963v-479.442h18.962c29.16 0 26.88 7.962 26.88-93.853v-83.788H4815.92l.16 74.972c.166 76.877 1.139 95.175 5.28 99.333 1.44 1.445 10.041 2.757 21.865 3.337l19.493.955.485 239.243.484 239.243h-18.743c-12.858 0-19.868.821-22.323 2.617-5.48 4.007-6.363 17.511-6.54 100.052l-.161 74.972h-431.688zm94.857 22.377c6.97-6.548 6.176-18.839-2.08-32.214-6.83-11.065-9.325-20.991-5.606-22.302 1.194-.42 6.184 2.708 11.088 6.953 13.488 11.674 23.533 12.548 32.538 2.831 12.193-13.156 3.218-35.206-14.33-35.206-5.556 0-9.26 1.724-16.42 7.64-5.086 4.203-10.89 7.64-12.898 7.64-3.426 0-3.57-1.081-2.332-17.486 1.396-18.495 2.733-22.596 9.866-30.266l4.44-4.776-19.922-.022-19.923-.024 4.955 4.595c7.547 6.998 10.261 15.63 10.261 32.637 0 18.37-1.67 19.24-14.779 7.702-7.997-7.039-11.927-8.6-19.603-7.79-9.622 1.015-17.19 10.757-17.19 22.124 0 5.482 1.45 8.511 6.493 13.554 8.91 8.91 17.506 8.936 27.405.085 6.93-6.196 14.093-10.781 16.844-10.781 2.926 0-1.093 13.335-6.827 22.654-7.841 12.743-9.076 22.148-3.976 30.278 6.617 10.55 21.97 11.593 31.996 2.174zm269.402 2.694c5.778-3.74 8.901-13.952 6.696-21.89-.963-3.467-4.454-10.555-7.757-15.75-5.642-8.876-8.063-20.16-4.325-20.16.924 0 6.662 3.868 12.75 8.595 13.47 10.46 20.727 11.263 29.66 3.28 4.523-4.04 6.184-7.4 6.93-14.015.875-7.77.322-9.451-5.162-15.697-5.264-5.995-7.303-6.995-14.27-6.995-6.764 0-9.587 1.283-16.809 7.64-13.304 11.71-14.78 10.804-14.772-9.073.01-17.544 3.066-26.199 11.653-32.973 3.33-2.626 1.852-2.886-16.314-2.865l-19.975.023 4.44 4.776c6.952 7.475 8.126 11.196 9.495 30.084 1.214 16.753 1.085 17.669-2.492 17.669-2.075 0-7.746-3.439-12.6-7.64-7.317-6.333-10.22-7.641-16.95-7.641-14.486 0-23.614 15.108-17.692 29.282 3.002 7.184 11.279 12.74 18.979 12.74 2.52 0 8.277-2.793 12.79-6.208 4.515-3.414 9.76-7.359 11.655-8.766 8.993-6.677 8.012 3.99-1.971 21.439-7.41 12.952-8.021 25.218-1.558 31.29 8.62 8.099 18 9.069 27.6 2.854zm-269.499-302.217c-7.3-7.845-8.764-12.288-10.06-30.541-1.477-20.81.051-21.755 14.921-9.217 12.397 10.454 21.515 11.11 30.433 2.192 4.934-4.935 5.883-7.36 5.883-15.042 0-7.682-.949-10.107-5.883-15.041-8.83-8.83-17.58-8.204-30.636 2.191-17.35 13.815-19.535 10.43-7.732-11.981 9.66-18.343 10.182-27.359 2.057-35.485-9.086-9.085-24.82-7.104-31.349 3.948-4.77 8.075-3.94 13.541 4.46 29.397 12.095 22.828 9.477 28.544-6.674 14.566-10.425-9.023-16.174-10.846-23.99-7.609-17.947 7.434-17.947 32.594 0 40.028 7.816 3.238 13.565 1.415 23.99-7.608 13.06-11.303 14.322-10.584 14.272 8.128-.045 17.118-3.965 29.234-11.068 34.209-3.467 2.428-1.748 2.72 16.005 2.72h19.89zm273.725 2.262c-7.593-5.318-11.292-16.386-11.292-33.782 0-19.273 1.206-20.027 14.13-8.841 10.51 9.096 17.837 11.067 25.81 6.943 15.68-8.108 14.764-32.41-1.475-39.137-7.924-3.283-13.29-1.628-24.346 7.509-5.1 4.215-10.477 7.663-11.946 7.663-4.295 0-1.452-11.383 5.767-23.095 8.82-14.31 8.868-24.664.148-32.455-8.711-7.784-19.547-7.78-27.336.01-7.773 7.772-7.644 18.153.4 32.408 12.671 22.451 10.189 29.032-5.876 15.581-5.446-4.56-12.283-8.396-16.05-9.007-5.609-.91-7.636-.082-13.934 5.69-6.62 6.068-7.352 7.663-7.184 15.648.152 7.29 1.27 9.974 6.2 14.905 9.005 9.005 17.71 8.41 30.126-2.06 14.933-12.591 16.41-11.638 14.872 9.594-1.372 18.933-2.537 22.605-9.572 30.164l-4.518 4.855h19.89c17.297 0 19.406-.338 16.186-2.593zm-133.54-147.893c0-.736-1.185-2.025-2.634-2.866-1.449-.84-4.454-4.535-6.678-8.212-3.344-5.528-4.046-9.746-4.052-24.355 0-10.476.768-17.668 1.898-17.668 1.047 0 5.13 2.884 9.073 6.41 9.342 8.353 14.187 10.781 21.515 10.781 6.99 0 16.262-8.13 18.235-15.991 3.142-12.52-7.11-26.032-19.75-26.032-6.052 0-9.212 1.491-16.199 7.64-4.774 4.203-10.052 7.641-11.73 7.641-5.175 0-3.467-9.696 3.685-20.923 6.974-10.946 8.808-23.025 4.67-30.756-2.345-4.383-11.53-9.445-17.134-9.445-11.712 0-22.48 13.233-19.83 24.37.684 2.88 4.137 10.477 7.672 16.881 3.535 6.405 6.427 13.496 6.427 15.759 0 5.737-5.856 5.312-11.605-.843-10.902-11.669-23.06-13.431-32.775-4.75-5.52 4.931-6.238 6.71-6.238 15.438 0 8.727.719 10.506 6.238 15.437 10.204 9.118 18.245 7.663 34.419-6.228 3.45-2.964 7.104-5.39 8.118-5.39 1.049 0 1.843 7.452 1.843 17.287 0 18.073-1.932 24.528-9.355 31.245-2.208 1.999-4.016 4.146-4.016 4.77 0 .626 8.596 1.137 19.102 1.137 10.505 0 19.1-.602 19.1-1.337zm-140.261-154.338c-7.22-7.761-8.691-12.252-9.984-30.462-1.114-15.7-.917-17.29 2.137-17.29 1.85 0 7.703 3.633 13.008 8.074 12.687 10.622 21.914 11.196 30.239 1.88 8.639-9.67 8.16-21.608-1.222-30.489-9.556-9.045-16.576-8.126-31.191 4.085-15.41 12.875-17.396 8.508-5.985-13.158 9.66-18.342 10.182-27.358 2.057-35.484-12.51-12.509-34.53-3.462-34.53 14.185 0 2.606 3.439 11.228 7.641 19.16 11.642 21.972 9.696 28.237-4.91 15.806-10.883-9.264-15.606-11.32-22.873-9.956-20.132 3.776-21.684 34.623-2.067 41.097 8.054 2.658 14.518.386 24.46-8.595 11.486-10.378 13.038-9.284 12.989 9.153-.047 17.133-3.967 29.234-11.09 34.223-3.491 2.445-1.808 2.724 15.93 2.64l19.833-.094-4.442-4.775zm273.821 2.355c-7.613-5.332-11.312-16.385-11.312-33.796 0-19.25 1.213-20.02 14.036-8.922 10.744 9.299 16.59 10.856 25.279 6.733 15.822-7.508 16.118-30.077.5-38.153-8.231-4.257-15.515-2.34-25.927 6.825-4.783 4.21-9.977 7.655-11.542 7.655-4.436 0-1.8-11.096 5.424-22.839 8.783-14.273 8.887-25.052.318-32.71-8.283-7.402-18.706-7.645-27.043-.63-8.397 7.066-8.188 17.962.65 33.902 6.983 12.591 9.08 20.528 5.728 21.675-1.139.39-6.424-2.758-11.746-6.995-11.935-9.503-19.106-11.237-27.054-6.541-12.319 7.276-14.43 23.044-4.502 33.623 9.247 9.854 17.16 8.973 31.868-3.545 4.13-3.515 9.103-6.39 11.052-6.39 3.29 0 3.453 1.27 2.265 17.669-1.369 18.889-2.543 22.61-9.496 30.084l-4.441 4.776 19.833.094c17.287.082 19.355-.241 16.11-2.514z"/></g></svg>