<svg height="122.99" width="78.999" xmlns="http://www.w3.org/2000/svg"><g transform="matrix(.13166 0 0 .13666 -289.662 -286.976)"><rect style="font-style:normal;font-variant:normal;font-weight:500;font-stretch:normal;font-size:medium;line-height:125%;font-family:Gaelic;-inkscape-font-specification:'Gaelic Medium';letter-spacing:0;word-spacing:0;fill:#fff;fill-opacity:1;stroke:#000;stroke-width:2.03317;stroke-linecap:butt;stroke-linejoin:miter;stroke-miterlimit:4;stroke-dasharray:none;stroke-opacity:1" y="2101.016" x="2201.017" ry="49.888" rx="48.211" height="897.967" width="597.967"/><path d="M2280.315 2969.538c-.36-.367-.657-38.958-.657-85.759 0-82.258-.058-85.169-1.873-87.448-1.836-2.308-2.295-2.367-22.33-2.856l-20.455-.5v-486.248l20.334-.5c17.804-.436 20.551-.72 22.084-2.281 1.644-1.675 1.78-6.989 2.24-87.864l.492-86.082h440.7l.491 86.082c.461 80.875.597 86.189 2.241 87.864 1.533 1.56 4.28 1.845 22.084 2.282l20.334.499v486.249l-20.334.499c-17.804.437-20.551.721-22.084 2.282-1.644 1.675-1.78 6.988-2.24 87.864l-.492 86.082-219.939.252c-120.967.138-220.234-.05-220.596-.417zm437.104-85.952c0-81.68.049-83.697 1.954-86.875 3.95-6.589 6.25-7.222 26.261-7.226h17.912v-479.26h-17.912c-20.011 0-22.312-.637-26.261-7.226-1.906-3.178-1.951-5.195-1.954-86.874v-83.621h-433.83v83.62c0 81.68-.05 83.697-1.954 86.876-3.95 6.588-6.25 7.221-26.261 7.226h-17.912v479.26h17.912c20.01 0 22.312.636 26.261 7.225 1.905 3.179 1.951 5.196 1.954 86.875v83.62h433.83z" style="fill:#b7b772"/><path d="M2248.218 2193.793h-19.508q-1-4.776-3.71-8.063l24.135-44.73h6.711v44.165h9.254v8.628h-9.254v10.528h5.294v8.68h-19.091v-8.68h6.169zm0-8.628v-28.142l-15.215 28.142zM2754.218 2193.793h-19.508q-1-4.776-3.71-8.063l24.135-44.73h6.711v44.165h9.254v8.628h-9.254v10.528h5.294v8.68h-19.091v-8.68h6.169zm0-8.628v-28.142l-15.215 28.142zM2241.882 2906.207h19.508q1 4.776 3.71 8.063l-24.135 44.73h-6.711v-44.165H2225v-8.628h9.254v-10.528h-5.294V2887h19.091v8.68h-6.169zm0 8.628v28.142l15.215-28.142zM2747.882 2906.207h19.508q1 4.776 3.71 8.063l-24.135 44.73h-6.711v-44.165H2731v-8.628h9.254v-10.528h-5.294V2887h19.091v8.68h-6.169zm0 8.628v28.142l15.215-28.142z" style="font-style:normal;font-variant:normal;font-weight:400;font-stretch:normal;font-size:medium;line-height:125%;font-family:Rockwell;-inkscape-font-specification:Rockwell;letter-spacing:0;word-spacing:0;fill:#000;fill-opacity:1;stroke:none;stroke-width:1px;stroke-linecap:butt;stroke-linejoin:miter;stroke-opacity:1"/><path d="M2242.416 2208.434v-3.912h6.259v-10.954h-19.599l-.763-2.151c-.42-1.184-1.115-2.763-1.545-3.51-.43-.748-.779-1.804-.774-2.347 0-.544 5.249-10.671 11.655-22.505l11.647-21.515 3.21-.24 3.21-.241v44.686h9.389v7.823h-9.389v10.954h2.347c2.295 0 2.348.087 2.348 3.912v3.912H2242.416zm6.259-37.32c0-8.514-.29-14.32-.692-13.887-1.06 1.138-14.956 26.958-14.956 27.788 0 .403 3.51.73 7.824.73h7.824zM2748.124 2208.434v-3.912h6.26v-10.954l-9.585-.013-9.584-.013-1.783-4.12-1.782-4.122 11.91-22.075 11.911-22.076h5.954v44.596h9.388v7.824h-9.388v10.954h5.477v7.823h-18.778v-3.911zm6.26-37.294c0-8.033-.141-14.458-.313-14.278-.574.6-15.335 27.959-15.335 28.424 0 .252 3.52.459 7.823.459h7.824zM2234.549 2936.49v-22.343h-9.389v-7.824h9.389v-10.954h-5.477v-7.824h18.777v7.824h-6.259v10.954h19.272l1.762 4.252 1.763 4.252-11.734 21.762-11.734 21.762-3.185.241-3.185.24zm15.56-7.91c3.92-7.339 7.129-13.588 7.129-13.888 0-.3-3.52-.545-7.824-.545h-7.824v14.63c0 8.553.289 14.322.694 13.888.382-.41 3.903-6.748 7.824-14.086zM2751.258 2914.355c2.03-.16 5.55-.162 7.824 0 2.274.159.613.29-3.69.292-4.303 0-6.163-.128-4.134-.288z" style="fill:#000;fill-opacity:1;stroke:#fffecd;stroke-width:.277224;stroke-miterlimit:4;stroke-dasharray:none;stroke-opacity:1"/><path d="m2740.734 2936.64-.207-22.102-4.5-.235-4.498-.235v-7.745h9.389v-10.954h-5.477v-7.824H2753.436v7.824h-6.26v10.954h10.172c9.164 0 10.171.135 10.174 1.369 0 .753.714 2.536 1.584 3.963l1.582 2.594-11.951 22.237-11.951 22.237-2.922.01-2.922.01-.208-22.103zm15.17-7.646c4.155-7.736 7.233-14.263 6.841-14.505-.994-.615-13.751-.59-14.75.028-.945.583-1.17 28.59-.231 28.56.322-.01 3.986-6.347 8.14-14.083z" style="fill:#000;fill-opacity:1;stroke:#fffecd;stroke-width:.277224;stroke-miterlimit:4;stroke-dasharray:none;stroke-opacity:1"/><path style="fill:#0a0a0a" d="M2240.636 2282.932c1.886-1.488 3.123-3.244 3.969-5.636.648-1.834.726-2.68.752-8.187l.03-6.141-1.024-.097c-1.465-.14-2.852.668-5.284 3.076-3.13 3.1-5.523 3.977-8.637 3.166-1.833-.477-4.609-3.156-5.113-4.934-.439-1.55-.439-4.022 0-5.573.504-1.777 3.28-4.456 5.113-4.934 3.114-.81 5.507.066 8.637 3.167 2.432 2.407 3.82 3.215 5.284 3.076 1.02-.097 1.023-.104.991-1.835-.04-2.115-.82-3.932-3.193-7.427-2.163-3.187-2.719-4.66-2.719-7.214 0-2.508.565-3.81 2.356-5.427a7.716 7.716 0 0 1 10.39 0c1.792 1.618 2.356 2.919 2.356 5.427 0 2.553-.555 4.027-2.719 7.214-2.372 3.495-3.153 5.312-3.193 7.427-.032 1.731-.028 1.738.992 1.835 1.464.14 2.851-.669 5.283-3.076 2.3-2.279 3.851-3.173 5.893-3.399 2.27-.25 4.007.427 5.85 2.281 1.812 1.823 2.35 3.122 2.35 5.672s-.538 3.849-2.35 5.671c-1.843 1.855-3.58 2.532-5.85 2.281-2.042-.225-3.592-1.12-5.893-3.398-2.432-2.408-3.819-3.216-5.283-3.077l-1.024.098.029 6.141c.026 5.507.104 6.353.753 8.187.845 2.392 2.082 4.148 3.968 5.636l1.354 1.068-1.125-.22c-2.969-.582-4.82-.81-6.587-.81-1.766 0-3.618.228-6.587.81l-1.124.22 1.353-1.068zM2746.636 2282.932c1.886-1.488 3.123-3.244 3.969-5.636.648-1.834.726-2.68.752-8.187l.03-6.141-1.024-.097c-1.465-.14-2.852.668-5.284 3.076-3.13 3.1-5.523 3.977-8.637 3.166-1.833-.477-4.609-3.156-5.113-4.934-.439-1.55-.439-4.022 0-5.573.504-1.777 3.28-4.456 5.113-4.934 3.114-.81 5.507.066 8.637 3.167 2.432 2.407 3.82 3.215 5.284 3.076 1.02-.097 1.023-.104.991-1.835-.04-2.115-.82-3.932-3.193-7.427-2.163-3.187-2.719-4.66-2.719-7.214 0-2.508.565-3.81 2.356-5.427a7.716 7.716 0 0 1 10.39 0c1.792 1.618 2.356 2.919 2.356 5.427 0 2.553-.555 4.027-2.719 7.214-2.372 3.495-3.153 5.312-3.193 7.427-.032 1.731-.028 1.738.992 1.835 1.464.14 2.851-.669 5.283-3.076 2.3-2.279 3.851-3.173 5.893-3.399 2.27-.25 4.007.427 5.85 2.281 1.812 1.823 2.35 3.122 2.35 5.672s-.538 3.849-2.35 5.671c-1.843 1.855-3.58 2.532-5.85 2.281-2.042-.225-3.592-1.12-5.893-3.398-2.432-2.408-3.819-3.216-5.283-3.077l-1.024.098.029 6.141c.026 5.507.104 6.353.753 8.187.845 2.392 2.082 4.148 3.968 5.636l1.354 1.068-1.125-.22c-2.969-.582-4.82-.81-6.587-.81-1.766 0-3.618.228-6.587.81l-1.124.22 1.353-1.068zM2240.636 2817.068c1.886 1.488 3.123 3.245 3.969 5.637.648 1.834.726 2.68.752 8.186l.03 6.142-1.024.097c-1.465.139-2.852-.669-5.284-3.077-3.13-3.1-5.523-3.977-8.637-3.166-1.833.477-4.609 3.156-5.113 4.934-.439 1.55-.439 4.023 0 5.573.504 1.778 3.28 4.457 5.113 4.934 3.114.81 5.507-.066 8.637-3.166 2.432-2.408 3.82-3.216 5.284-3.077 1.02.097 1.023.104.991 1.835-.04 2.116-.82 3.932-3.193 7.427-2.163 3.187-2.719 4.661-2.719 7.214 0 2.509.565 3.81 2.356 5.428a7.716 7.716 0 0 0 10.39 0c1.792-1.618 2.356-2.92 2.356-5.428 0-2.553-.555-4.027-2.719-7.214-2.372-3.495-3.153-5.311-3.193-7.427-.032-1.73-.028-1.738.992-1.835 1.464-.139 2.851.669 5.283 3.077 2.3 2.278 3.851 3.172 5.893 3.398 2.27.25 4.007-.427 5.85-2.28 1.812-1.824 2.35-3.122 2.35-5.672s-.538-3.85-2.35-5.672c-1.843-1.854-3.58-2.532-5.85-2.28-2.042.225-3.592 1.119-5.893 3.397-2.432 2.408-3.819 3.216-5.283 3.077l-1.024-.097.029-6.142c.026-5.507.104-6.352.753-8.186.845-2.392 2.082-4.149 3.968-5.637l1.354-1.068-1.125.22c-2.969.582-4.82.81-6.587.81-1.766 0-3.618-.228-6.587-.81l-1.124-.22 1.353 1.068zM2746.636 2817.068c1.886 1.488 3.123 3.245 3.969 5.637.648 1.834.726 2.68.752 8.186l.03 6.142-1.024.097c-1.465.139-2.852-.669-5.284-3.077-3.13-3.1-5.523-3.977-8.637-3.166-1.833.477-4.609 3.156-5.113 4.934-.439 1.55-.439 4.023 0 5.573.504 1.778 3.28 4.457 5.113 4.934 3.114.81 5.507-.066 8.637-3.166 2.432-2.408 3.82-3.216 5.284-3.077 1.02.097 1.023.104.991 1.835-.04 2.116-.82 3.932-3.193 7.427-2.163 3.187-2.719 4.661-2.719 7.214 0 2.509.565 3.81 2.356 5.428a7.716 7.716 0 0 0 10.39 0c1.792-1.618 2.356-2.92 2.356-5.428 0-2.553-.555-4.027-2.719-7.214-2.372-3.495-3.153-5.311-3.193-7.427-.032-1.73-.028-1.738.992-1.835 1.464-.139 2.851.669 5.283 3.077 2.3 2.278 3.851 3.172 5.893 3.398 2.27.25 4.007-.427 5.85-2.28 1.812-1.824 2.35-3.122 2.35-5.672s-.538-3.85-2.35-5.672c-1.843-1.854-3.58-2.532-5.85-2.28-2.042.225-3.592 1.119-5.893 3.397-2.432 2.408-3.819 3.216-5.283 3.077l-1.024-.097.029-6.142c.026-5.507.104-6.352.753-8.186.845-2.392 2.082-4.149 3.968-5.637l1.354-1.068-1.125.22c-2.969.582-4.82.81-6.587.81-1.766 0-3.618-.228-6.587-.81l-1.124-.22 1.353 1.068zM2347.77 2309.241c4.8-3.844 7.95-8.382 10.1-14.56 1.65-4.739 1.85-6.923 1.92-21.15l.1-15.866-2.6-.25c-3.73-.36-7.26 1.727-13.45 7.947-7.97 8.008-14.06 10.275-21.99 8.18-4.66-1.233-11.73-8.154-13.01-12.746-1.12-4.005-1.12-10.392 0-14.397 1.28-4.592 8.35-11.513 13.01-12.746 7.93-2.095 14.02.171 21.99 8.18 6.19 6.22 9.72 8.307 13.45 7.947 2.59-.25 2.6-.269 2.52-4.74-.1-5.465-2.09-10.159-8.13-19.187-5.5-8.233-6.92-12.041-6.92-18.635 0-6.48 1.44-9.842 6-14.022 7.55-6.928 18.89-6.928 26.45 0 4.56 4.18 5.99 7.541 5.99 14.022 0 6.594-1.41 10.402-6.92 18.635-6.04 9.028-8.03 13.722-8.13 19.186-.1 4.472-.1 4.491 2.53 4.741 3.73.36 7.26-1.727 13.45-7.948 5.85-5.886 9.8-8.195 15-8.778 5.78-.648 10.2 1.101 14.89 5.892 4.61 4.708 5.98 8.063 5.98 14.651 0 6.589-1.37 9.943-5.98 14.652-4.69 4.79-9.11 6.54-14.89 5.892-5.2-.583-9.15-2.892-15-8.779-6.19-6.22-9.72-8.307-13.45-7.948l-2.61.251.1 15.866c.1 14.227.26 16.411 1.91 21.15 2.16 6.179 5.3 10.716 10.11 14.56l3.44 2.759-2.86-.57c-7.56-1.502-12.27-2.09-16.77-2.09-4.49 0-9.21.588-16.76 2.09l-2.87.57 3.45-2.759zM2619.77 2309.241c4.8-3.844 7.95-8.382 10.1-14.56 1.65-4.739 1.85-6.923 1.92-21.15l.1-15.866-2.6-.25c-3.73-.36-7.26 1.727-13.45 7.947-7.97 8.008-14.06 10.275-21.99 8.18-4.66-1.233-11.73-8.154-13.01-12.746-1.12-4.005-1.12-10.392 0-14.397 1.28-4.592 8.35-11.513 13.01-12.746 7.93-2.095 14.02.171 21.99 8.18 6.19 6.22 9.72 8.307 13.45 7.947 2.59-.25 2.6-.269 2.52-4.74-.1-5.465-2.09-10.159-8.13-19.187-5.5-8.233-6.92-12.041-6.92-18.635 0-6.48 1.44-9.842 6-14.022 7.55-6.928 18.89-6.928 26.45 0 4.56 4.18 5.99 7.541 5.99 14.022 0 6.594-1.41 10.402-6.92 18.635-6.04 9.028-8.03 13.722-8.13 19.186-.1 4.472-.1 4.491 2.53 4.741 3.73.36 7.26-1.727 13.45-7.948 5.85-5.886 9.8-8.195 15-8.778 5.78-.648 10.2 1.101 14.89 5.892 4.61 4.708 5.98 8.063 5.98 14.651 0 6.589-1.37 9.943-5.98 14.652-4.69 4.79-9.11 6.54-14.89 5.892-5.2-.583-9.15-2.892-15-8.779-6.19-6.22-9.72-8.307-13.45-7.948l-2.61.251.1 15.866c.1 14.227.26 16.411 1.91 21.15 2.16 6.179 5.3 10.716 10.11 14.56l3.44 2.759-2.86-.57c-7.56-1.502-12.27-2.09-16.77-2.09-4.49 0-9.21.588-16.76 2.09l-2.87.57 3.45-2.759zM2347.77 2790.759c4.8 3.844 7.95 8.382 10.1 14.56 1.65 4.739 1.85 6.923 1.92 21.15l.1 15.866-2.6.25c-3.73.36-7.26-1.727-13.45-7.947-7.97-8.008-14.06-10.275-21.99-8.18-4.66 1.233-11.73 8.154-13.01 12.746-1.12 4.005-1.12 10.392 0 14.397 1.28 4.592 8.35 11.513 13.01 12.746 7.93 2.095 14.02-.171 21.99-8.18 6.19-6.22 9.72-8.307 13.45-7.947 2.59.25 2.6.269 2.52 4.74-.1 5.465-2.09 10.159-8.13 19.187-5.5 8.233-6.92 12.041-6.92 18.635 0 6.48 1.44 9.842 6 14.022 7.55 6.928 18.89 6.928 26.45 0 4.56-4.18 5.99-7.541 5.99-14.022 0-6.594-1.41-10.402-6.92-18.635-6.04-9.028-8.03-13.722-8.13-19.186-.1-4.472-.1-4.491 2.53-4.741 3.73-.36 7.26 1.727 13.45 7.948 5.85 5.886 9.8 8.195 15 8.778 5.78.648 10.2-1.101 14.89-5.892 4.61-4.708 5.98-8.063 5.98-14.651 0-6.589-1.37-9.943-5.98-14.652-4.69-4.79-9.11-6.54-14.89-5.892-5.2.583-9.15 2.892-15 8.779-6.19 6.22-9.72 8.307-13.45 7.948l-2.61-.251.1-15.866c.1-14.227.26-16.411 1.91-21.15 2.16-6.179 5.3-10.716 10.11-14.56l3.44-2.759-2.86.57c-7.56 1.502-12.27 2.09-16.77 2.09-4.49 0-9.21-.588-16.76-2.09l-2.87-.57 3.45 2.759zM2619.77 2790.759c4.8 3.844 7.95 8.382 10.1 14.56 1.65 4.739 1.85 6.923 1.92 21.15l.1 15.866-2.6.25c-3.73.36-7.26-1.727-13.45-7.947-7.97-8.008-14.06-10.275-21.99-8.18-4.66 1.233-11.73 8.154-13.01 12.746-1.12 4.005-1.12 10.392 0 14.397 1.28 4.592 8.35 11.513 13.01 12.746 7.93 2.095 14.02-.171 21.99-8.18 6.19-6.22 9.72-8.307 13.45-7.947 2.59.25 2.6.269 2.52 4.74-.1 5.465-2.09 10.159-8.13 19.187-5.5 8.233-6.92 12.041-6.92 18.635 0 6.48 1.44 9.842 6 14.022 7.55 6.928 18.89 6.928 26.45 0 4.56-4.18 5.99-7.541 5.99-14.022 0-6.594-1.41-10.402-6.92-18.635-6.04-9.028-8.03-13.722-8.13-19.186-.1-4.472-.1-4.491 2.53-4.741 3.73-.36 7.26 1.727 13.45 7.948 5.85 5.886 9.8 8.195 15 8.778 5.78.648 10.2-1.101 14.89-5.892 4.61-4.708 5.98-8.063 5.98-14.651 0-6.589-1.37-9.943-5.98-14.652-4.69-4.79-9.11-6.54-14.89-5.892-5.2.583-9.15 2.892-15 8.779-6.19 6.22-9.72 8.307-13.45 7.948l-2.61-.251.1-15.866c.1-14.227.26-16.411 1.91-21.15 2.16-6.179 5.3-10.716 10.11-14.56l3.44-2.759-2.86.57c-7.56 1.502-12.27 2.09-16.77 2.09-4.49 0-9.21-.588-16.76-2.09l-2.87-.57 3.45 2.759z"/><path style="fill:#fffecd;fill-opacity:1;stroke:#fffecd;stroke-width:.676816;stroke-miterlimit:4;stroke-dasharray:none;stroke-opacity:1" d="M2284.245 2883.4c0-101.815 2.28-93.853-26.88-93.853h-18.963v-479.442h18.963c29.16 0 26.88 7.962 26.88-93.853v-83.788h431.35l.646 84.934c.597 78.396.909 85.196 4.05 88.343 2.668 2.674 7.609 3.615 22.92 4.364l19.52.956.485 239.243.485 239.243h-18.744c-22.885 0-25.275 1.356-27.281 15.48-.805 5.668-1.527 44.474-1.604 86.234l-.14 75.927h-431.687zm94.857 22.377c6.935-6.515 6.172-18.827-1.993-32.147-7.79-12.707-10.567-22.96-6.221-22.96 1.595 0 6.868 3.434 11.717 7.63 13.418 11.614 22.418 12.42 31.975 2.864 12.805-12.806 3.965-35.325-13.867-35.325-5.556 0-9.26 1.724-16.421 7.64-5.085 4.203-10.895 7.64-12.91 7.64-3.432 0-3.586-1.092-2.436-17.29 1.292-18.21 2.764-22.7 9.982-30.462l4.44-4.776-19.922-.023-19.923-.023 4.955 4.595c7.548 6.998 10.262 15.63 10.262 32.637 0 18.37-1.671 19.24-14.78 7.702-7.996-7.039-11.926-8.6-19.602-7.79-9.622 1.015-17.192 10.757-17.192 22.124 0 5.482 1.452 8.511 6.495 13.554 8.91 8.91 17.506 8.936 27.405.085 6.929-6.196 14.093-10.781 16.843-10.781 2.926 0-1.093 13.335-6.827 22.654-7.84 12.743-9.076 22.148-3.976 30.278 6.617 10.55 21.97 11.593 31.996 2.174zm269.403 2.694c5.777-3.74 8.9-13.952 6.695-21.89-.963-3.467-4.454-10.555-7.757-15.75-5.642-8.876-8.063-20.16-4.325-20.16.925 0 6.662 3.868 12.75 8.595 13.47 10.46 20.728 11.263 29.66 3.28 4.523-4.04 6.184-7.4 6.93-14.015.875-7.77.323-9.451-5.161-15.697-5.264-5.995-7.304-6.995-14.27-6.995-6.764 0-9.587 1.283-16.81 7.64-13.303 11.71-14.78 10.804-14.772-9.073.01-17.544 3.066-26.199 11.653-32.973 3.33-2.627 1.865-2.886-16.193-2.865l-19.853.023 5.48 6.243c6.282 7.157 6.802 9.065 8.326 30.527 1.048 14.765.883 15.759-2.63 15.759-2.062 0-7.721-3.439-12.577-7.64-7.315-6.333-10.219-7.641-16.95-7.641-19.307 0-26.863 26.726-10.791 38.17 9.65 6.872 16.953 5.064 32.106-7.95 3.45-2.964 7.104-5.389 8.118-5.389 3.895 0 1.564 10.639-4.842 22.093-10.938 19.559-8.656 32.782 6.686 38.748 5.405 2.102 12.34.964 18.527-3.04zm-269.576-602.186c-7.22-7.761-8.69-12.251-9.983-30.462-1.115-15.7-.918-17.29 2.136-17.29 1.85 0 7.704 3.633 13.008 8.074 12.687 10.622 21.915 11.196 30.239 1.88 8.639-9.67 8.16-21.608-1.222-30.489-9.555-9.045-16.576-8.126-31.191 4.085-15.41 12.875-17.396 8.508-5.985-13.158 9.66-18.342 10.183-27.358 2.057-35.484-12.509-12.509-34.53-3.462-34.53 14.185 0 2.606 3.439 11.228 7.641 19.16 11.642 21.972 9.696 28.237-4.909 15.806-10.884-9.264-15.607-11.32-22.874-9.956-20.132 3.776-21.683 34.623-2.067 41.097 8.054 2.658 14.518.386 24.46-8.595 11.486-10.378 13.038-9.284 12.989 9.153-.046 17.133-3.967 29.234-11.09 34.223-3.49 2.445-1.808 2.724 15.93 2.64l19.833-.094-4.442-4.775zm273.821 2.355c-7.612-5.332-11.312-16.385-11.312-33.796 0-19.25 1.213-20.02 14.037-8.922 10.743 9.299 16.59 10.856 25.278 6.733 15.822-7.508 16.119-30.077.5-38.153-8.231-4.257-15.515-2.34-25.926 6.825-4.783 4.21-9.977 7.655-11.543 7.655-4.436 0-1.8-11.096 5.425-22.838 8.782-14.274 8.887-25.053.317-32.712-8.282-7.401-18.706-7.644-27.043-.63-8.479 7.135-8.218 18.198.809 34.34 6.294 11.255 8.73 21.84 5.025 21.84-.914 0-5.984-3.443-11.269-7.65-11.87-9.451-19.05-11.177-26.987-6.488-12.483 7.373-14.688 24.005-4.47 33.723 10.17 9.673 17.125 8.876 31.837-3.645 4.129-3.515 9.091-6.39 11.028-6.39 3.227 0 3.428 1.315 2.402 15.759-1.524 21.463-2.044 23.37-8.327 30.527l-5.481 6.243 19.711.094c17.185.082 19.235-.241 15.99-2.514z"/></g></svg>