<svg height="123.003" width="78.999" xmlns="http://www.w3.org/2000/svg"><g transform="matrix(.13166 0 0 .13667 -197.497 -150.337)"><rect width="597.967" height="897.967" rx="48.211" ry="49.888" x="1501.017" y="1101.015" style="font-style:normal;font-variant:normal;font-weight:500;font-stretch:normal;font-size:medium;line-height:125%;font-family:Gaelic;-inkscape-font-specification:'Gaelic Medium';letter-spacing:0;word-spacing:0;fill:#fff;fill-opacity:1;stroke:#000;stroke-width:2.03317;stroke-linecap:butt;stroke-linejoin:miter;stroke-miterlimit:4;stroke-dasharray:none;stroke-opacity:1"/><path style="fill:#b7b772" d="M1580.315 1969.538c-.36-.367-.657-38.959-.657-85.759 0-82.258-.058-85.17-1.873-87.448-1.836-2.309-2.295-2.367-22.33-2.856l-20.455-.5v-486.248l20.334-.5c17.804-.436 20.551-.72 22.084-2.281 1.644-1.675 1.78-6.989 2.24-87.864l.492-86.082h440.7l.491 86.082c.461 80.875.597 86.189 2.241 87.864 1.533 1.56 4.28 1.845 22.084 2.282l20.334.499v486.249l-20.334.499c-17.804.437-20.551.72-22.084 2.282-1.644 1.675-1.78 6.988-2.24 87.864l-.492 86.082-219.939.251c-120.967.139-220.234-.049-220.596-.416zm437.104-85.952c0-81.68.049-83.697 1.954-86.875 3.95-6.589 6.25-7.222 26.261-7.226h17.912v-479.26h-17.912c-20.011 0-22.312-.637-26.261-7.226-1.906-3.178-1.951-5.195-1.954-86.875v-83.62h-433.83v83.62c0 81.68-.05 83.697-1.954 86.876-3.95 6.588-6.25 7.221-26.261 7.226h-17.912v479.259h17.912c20.01 0 22.312.637 26.261 7.226 1.905 3.179 1.951 5.196 1.954 86.875v83.62h433.83z"/><path d="M1580.315 1969.538c-.36-.367-.657-38.959-.657-85.759 0-82.258-.058-85.17-1.873-87.448-1.836-2.309-2.295-2.367-22.33-2.856l-20.455-.5v-486.248l20.334-.5c17.804-.436 20.551-.72 22.084-2.281 1.644-1.675 1.78-6.989 2.24-87.864l.492-86.082h440.7l.491 86.082c.461 80.875.597 86.189 2.241 87.864 1.533 1.56 4.28 1.845 22.084 2.282l20.334.499v486.249l-20.334.499c-17.804.437-20.551.72-22.084 2.282-1.644 1.675-1.78 6.988-2.24 87.864l-.492 86.082-219.939.251c-120.967.139-220.234-.049-220.596-.416zm437.104-85.952c0-81.68.049-83.697 1.954-86.875 3.95-6.589 6.25-7.222 26.261-7.226h17.912v-479.26h-17.912c-20.011 0-22.312-.637-26.261-7.226-1.906-3.178-1.951-5.195-1.954-86.875v-83.62h-433.83v83.62c0 81.68-.05 83.697-1.954 86.876-3.95 6.588-6.25 7.221-26.261 7.226h-17.912v479.259h17.912c20.01 0 22.312.637 26.261 7.226 1.905 3.179 1.951 5.196 1.954 86.875v83.62h433.83z" style="fill:#b7b772"/><path style="font-style:normal;font-variant:normal;font-weight:400;font-stretch:normal;font-size:medium;line-height:125%;font-family:Rockwell;-inkscape-font-specification:Rockwell;letter-spacing:0;word-spacing:0;fill:#d40000;fill-opacity:1;stroke:none;stroke-width:1px;stroke-linecap:butt;stroke-linejoin:miter;stroke-opacity:1" d="M1541.138 1179.785v-8.63q6.713 0 9.747-.853 3.08-.853 4.782-3.362 1.7-2.559 1.7-6.422 0-4.666-2.528-8.028-2.483-3.362-7.402-3.362-5.425 0-7.908 3.563-2.483 3.512-2.713 10.536h-8.873q0-12.042 5.425-17.11 5.471-5.117 13.38-5.117 9.608 0 14.482 5.168 4.874 5.168 4.874 13.196 0 5.92-2.805 9.984-2.759 4.065-6.253 5.77 11.954 3.864 11.954 16.658 0 10.637-6.575 15.956-6.528 5.268-15.356 5.268-11.264 0-16.69-6.573-5.379-6.573-5.379-18.163h8.46q.23 8.028 4 12.293 3.816 4.214 10.115 4.214 5.747 0 9.011-3.462 3.31-3.512 3.31-8.83 0-5.57-3.861-9.132-3.863-3.613-12.322-3.613-1.104 0-2.575.05zM2047.138 1179.785v-8.63q6.713 0 9.747-.853 3.08-.853 4.782-3.362 1.7-2.559 1.7-6.422 0-4.666-2.528-8.028-2.483-3.362-7.402-3.362-5.425 0-7.908 3.563-2.483 3.512-2.713 10.536h-8.873q0-12.042 5.425-17.11 5.471-5.117 13.38-5.117 9.608 0 14.482 5.168 4.874 5.168 4.874 13.196 0 5.92-2.805 9.984-2.759 4.065-6.253 5.77 11.954 3.864 11.954 16.658 0 10.637-6.575 15.956-6.528 5.268-15.356 5.268-11.264 0-16.69-6.573-5.379-6.573-5.379-18.163h8.46q.23 8.028 4 12.293 3.816 4.214 10.115 4.214 5.747 0 9.011-3.462 3.31-3.512 3.31-8.83 0-5.57-3.861-9.132-3.863-3.613-12.322-3.613-1.104 0-2.575.05zM1552.862 1920.215v8.63q-6.713 0-9.747.853-3.08.853-4.782 3.362-1.7 2.559-1.7 6.422 0 4.666 2.528 8.028 2.483 3.362 7.402 3.362 5.425 0 7.908-3.563 2.483-3.512 2.713-10.536h8.873q0 12.042-5.425 17.11-5.471 5.117-13.38 5.117-9.608 0-14.482-5.168-4.874-5.168-4.874-13.196 0-5.92 2.805-9.984 2.759-4.065 6.253-5.77-11.954-3.864-11.954-16.658 0-10.637 6.575-15.956 6.528-5.268 15.356-5.268 11.264 0 16.69 6.573 5.379 6.573 5.379 18.163h-8.46q-.23-8.028-4-12.293-3.816-4.214-10.115-4.214-5.747 0-9.011 3.462-3.31 3.512-3.31 8.83 0 5.57 3.861 9.132 3.863 3.613 12.322 3.613 1.104 0 2.575-.05zM2058.862 1920.215v8.63q-6.713 0-9.747.853-3.08.853-4.782 3.362-1.7 2.559-1.7 6.422 0 4.666 2.528 8.028 2.483 3.362 7.402 3.362 5.425 0 7.908-3.563 2.483-3.512 2.713-10.536h8.873q0 12.042-5.425 17.11-5.471 5.117-13.38 5.117-9.608 0-14.482-5.168-4.874-5.168-4.874-13.196 0-5.92 2.805-9.984 2.759-4.065 6.253-5.77-11.954-3.864-11.954-16.658 0-10.637 6.575-15.956 6.528-5.268 15.356-5.268 11.264 0 16.69 6.573 5.379 6.573 5.379 18.163h-8.46q-.23-8.028-4-12.293-3.816-4.214-10.115-4.214-5.747 0-9.011 3.462-3.31 3.512-3.31 8.83 0 5.57 3.861 9.132 3.863 3.613 12.322 3.613 1.104 0 2.575-.05z"/><path style="fill:red;fill-opacity:1;stroke:#fffecd;stroke-width:.277224;stroke-miterlimit:4;stroke-dasharray:none;stroke-opacity:1" d="M1537.967 1211.194c-6.681-2.382-12.218-10.933-12.218-18.871v-3.535l3.699.239c3.678.237 3.701.256 4.252 3.504 1.113 6.565 4.443 10.482 10.235 12.042 9.235 2.487 17.105-4.351 16.026-13.925-.745-6.606-5.311-10.313-13.514-10.971l-5.05-.406v-7.407l4.759-.539c7.984-.903 10.37-2.794 11.364-9.009.637-3.983-1.33-9.542-4.163-11.77-2.312-1.82-8.074-2.119-11.177-.582-2.421 1.2-5.477 7.069-5.477 10.519v2.572h-8.753l.547-4.107c.841-6.312 3.34-11.406 6.836-13.939 4.346-3.148 10.274-4.33 15.974-3.186 6.201 1.245 9.809 3.832 12.292 8.815 3.787 7.6 2.352 15.98-3.749 21.885l-2.91 2.817 2.391.99c3.296 1.366 7.613 6.351 8.61 9.946 2.883 10.378-2.55 21.531-12.066 24.774-4.613 1.572-13.697 1.645-17.908.144zM2044.382 1211.266c-1.556-.556-3.916-1.785-5.246-2.732-3.036-2.161-6.914-10.101-7.597-15.552l-.515-4.108h7.86l.91 4.38c1.15 5.546 5.001 10.09 9.596 11.328 11.068 2.98 19.85-6.427 15.828-16.957-1.876-4.913-5.8-7.405-12.507-7.944l-5.11-.41v-7.427l5.151-.552c3.992-.427 5.673-1.02 7.474-2.634 3.931-3.523 4.525-10.187 1.375-15.444-3.618-6.039-13.849-5.677-17.213.608-.47.88-1.087 3.23-1.37 5.22l-.515 3.622-4.214.24-4.214.24.526-4.543c1.443-12.48 11.046-19.314 23.467-16.702 13.676 2.875 18.54 20.82 8.18 30.179-3.45 3.116-3.454 3.029.238 5.008 6.13 3.288 8.982 10.383 7.624 18.972-1.007 6.374-4.171 10.729-9.979 13.735-4.34 2.247-5.65 2.548-10.926 2.518-3.297-.019-7.267-.489-8.823-1.045zM1539.745 1957.57c-6.886-2.147-11.248-8.559-11.248-16.534 0-5.957 2.278-11.146 6.21-14.146l2.726-2.078-3-1.514c-1.652-.833-3.668-2.088-4.482-2.79-2.573-2.219-4.352-7.221-4.37-12.286-.05-13.426 8.995-21.368 23.355-20.51 11.683.698 17.936 6.816 19.361 18.944l.513 4.36h-7.84l-.531-3.324c-1.272-7.957-6.566-12.66-14.163-12.584-7.763.078-12.218 4.595-12.218 12.388 0 7.866 4.273 12.013 13.11 12.723l4.996.4v7.498l-4.499.547c-5.66.688-8.45 2.094-9.962 5.016-2.664 5.152-.487 14.316 3.873 16.302 2.8 1.276 7.851 1.178 10.522-.203 2.5-1.292 4.348-4.75 5.14-9.618l.54-3.325H1565.465v2.987c0 13.628-12.118 21.99-25.72 17.748zM2047.056 1957.996c-6.775-1.615-11.785-7.63-12.546-15.06-.627-6.12.864-10.552 4.912-14.6 1.893-1.893 3.442-3.529 3.442-3.635 0-.107-1.052-.63-2.339-1.162-6.647-2.754-10.44-11.493-8.727-20.111 1.882-9.475 8.923-15.1 19.682-15.722 13.57-.785 20.987 5.657 23.01 19.986l.47 3.325h-3.906c-3.624 0-3.94-.155-4.383-2.152-1.97-8.902-4.6-12.075-11.243-13.574-9.234-2.082-16.967 5.23-15.446 14.604 1.011 6.23 6.828 10.462 14.422 10.493l4.108.017v7.635l-5.673.838c-4.758.703-6.012 1.217-7.782 3.19-1.16 1.293-2.333 3.543-2.606 5-.696 3.709.917 8.998 3.546 11.627 1.904 1.904 2.841 2.224 6.527 2.224 3.477 0 4.76-.386 6.687-2.007 2.402-2.021 3.983-5.951 3.99-9.925 0-2.091.128-2.152 4.398-2.152h4.394l-.537 4.5c-1.006 8.422-4.945 13.786-11.965 16.291-3.19 1.139-8.544 1.298-12.435.37z"/><path d="M1799.193 1311.165c-.444-.697-2.462-3.903-4.483-7.124-6.985-11.135-11.427-16.629-21.701-26.842-10.274-10.213-15.801-14.629-27.002-21.573-3.24-2.01-6.466-4.014-7.167-4.456-1.12-.705-1.12-.9 0-1.605.701-.442 3.925-2.447 7.165-4.457 21.162-13.129 38.418-30.757 51.09-52.192L1800 1188l2.906 4.915c12.671 21.436 29.927 39.064 51.089 52.193 3.24 2.01 6.464 4.016 7.165 4.457 1.12.705 1.12.9 0 1.605-.7.442-3.926 2.447-7.167 4.456-11.2 6.944-16.727 11.36-27.001 21.573-10.275 10.213-14.717 15.707-21.702 26.842a2246.8 2246.8 0 0 1-4.483 7.124c-.709 1.113-.905 1.113-1.614 0zM1799.193 1611.165c-.444-.697-2.462-3.903-4.483-7.124-6.985-11.135-11.427-16.629-21.701-26.842-10.274-10.213-15.801-14.629-27.002-21.573-3.24-2.01-6.466-4.014-7.167-4.456-1.12-.705-1.12-.9 0-1.605.701-.442 3.925-2.447 7.165-4.457 21.162-13.129 38.418-30.757 51.09-52.192L1800 1488l2.906 4.915c12.671 21.436 29.927 39.064 51.089 52.193 3.24 2.01 6.464 4.016 7.165 4.457 1.12.705 1.12.9 0 1.605-.7.442-3.926 2.447-7.167 4.456-11.2 6.944-16.727 11.36-27.001 21.573-10.275 10.213-14.717 15.707-21.702 26.842a2246.8 2246.8 0 0 1-4.483 7.124c-.709 1.113-.905 1.113-1.614 0zM1799.193 1911.165c-.444-.697-2.462-3.903-4.483-7.124-6.985-11.135-11.427-16.629-21.701-26.842-10.274-10.213-15.801-14.629-27.002-21.573-3.24-2.01-6.466-4.014-7.167-4.456-1.12-.705-1.12-.9 0-1.605.701-.442 3.925-2.447 7.165-4.457 21.162-13.129 38.418-30.757 51.09-52.192L1800 1788l2.906 4.915c12.671 21.436 29.927 39.064 51.089 52.193 3.24 2.01 6.464 4.016 7.165 4.457 1.12.705 1.12.9 0 1.605-.7.442-3.926 2.447-7.167 4.456-11.2 6.944-16.727 11.36-27.001 21.573-10.275 10.213-14.717 15.707-21.702 26.842a2246.8 2246.8 0 0 1-4.483 7.124c-.709 1.113-.905 1.113-1.614 0z" style="fill:#d40000;fill-opacity:1;image-rendering:auto"/><path d="M1546.688 1283.676c-.172-.27-.953-1.51-1.735-2.757-2.705-4.31-4.424-6.437-8.401-10.39-3.977-3.954-6.117-5.664-10.452-8.352a992.776 992.776 0 0 1-2.775-1.724c-.433-.273-.433-.349 0-.622.272-.17 1.52-.947 2.774-1.725 8.192-5.082 14.87-11.906 19.776-20.204L1547 1236l1.125 1.903c4.905 8.298 11.585 15.122 19.776 20.204 1.255.778 2.503 1.554 2.774 1.725.434.273.434.349 0 .622-.271.17-1.52.947-2.774 1.724-4.336 2.688-6.475 4.398-10.453 8.351-3.977 3.954-5.696 6.08-8.4 10.39-.783 1.248-1.563 2.489-1.735 2.758-.275.431-.351.431-.625 0zM2053.313 1236.323c.171.27.952 1.511 1.734 2.758 2.706 4.31 4.425 6.437 8.402 10.39 3.976 3.954 6.116 5.663 10.451 8.351 1.255.778 2.503 1.554 2.775 1.725.433.273.433.348 0 .622-.272.17-1.52.947-2.774 1.725-8.191 5.082-14.87 11.906-19.775 20.203L2053 1284l-1.124-1.903c-4.906-8.297-11.586-15.121-19.777-20.203a784.308 784.308 0 0 1-2.773-1.725c-.434-.274-.434-.349 0-.622.27-.17 1.52-.947 2.774-1.725 4.335-2.688 6.475-4.397 10.452-8.35 3.978-3.954 5.696-6.08 8.4-10.39a992.477 992.477 0 0 1 1.735-2.759c.275-.43.352-.43.626 0zM1546.688 1863.677c-.172-.27-.953-1.511-1.735-2.758-2.705-4.31-4.424-6.437-8.401-10.39-3.977-3.954-6.117-5.663-10.452-8.351a992.776 992.776 0 0 1-2.775-1.725c-.433-.273-.433-.348 0-.621.272-.171 1.52-.948 2.774-1.726 8.192-5.082 14.87-11.906 19.776-20.203L1547 1816l1.125 1.903c4.905 8.297 11.585 15.121 19.776 20.203 1.255.778 2.503 1.555 2.774 1.726.434.273.434.348 0 .621-.271.17-1.52.947-2.774 1.725-4.336 2.688-6.475 4.397-10.453 8.35-3.977 3.954-5.696 6.08-8.4 10.391-.783 1.247-1.563 2.488-1.735 2.758-.275.43-.351.43-.625 0zM2053.313 1816.324c.171.27.952 1.51 1.734 2.758 2.706 4.31 4.425 6.436 8.402 10.39 3.976 3.954 6.116 5.663 10.451 8.35 1.255.779 2.503 1.555 2.775 1.726.433.272.433.348 0 .621-.272.17-1.52.947-2.774 1.725-8.191 5.082-14.87 11.906-19.775 20.204L2053 1864l-1.124-1.903c-4.906-8.298-11.586-15.122-19.777-20.204a784.308 784.308 0 0 1-2.773-1.725c-.434-.273-.434-.349 0-.622.27-.17 1.52-.947 2.774-1.724 4.335-2.688 6.475-4.398 10.452-8.351 3.978-3.954 5.696-6.08 8.4-10.39a992.477 992.477 0 0 1 1.735-2.758c.275-.431.352-.431.626 0z" style="fill:#fe0303;image-rendering:auto"/><path style="fill:#fffecd;fill-opacity:1;stroke:#fffecd;stroke-width:.433162;stroke-miterlimit:4;stroke-dasharray:none;stroke-opacity:1" d="M1584.644 1906.144c0-33.174-.366-71.224-.812-84.557-.811-24.218-.815-24.243-4.176-28.008l-3.363-3.767-19.052-.392-19.052-.392v-477.48l17.42-.625c10.591-.38 18.775-1.26 20.875-2.24 7.536-3.524 7.317-.967 7.923-92.52l.552-83.434H2017.4v83.857c0 76.044.19 84.178 2.036 87.303 3.144 5.323 6.935 6.357 25.776 7.034l17.42.625v477.48l-18.924.392c-18.826.39-18.942.41-22.31 3.78l-3.387 3.39-.33 84.935-.33 84.935h-432.708zm223.652-5.382c9.622-14.42 27.898-32.64 42.178-42.048 6.083-4.008 11.061-7.742 11.061-8.299 0-.556-5.226-4.507-11.613-8.78-15.004-10.034-31.702-26.721-41.46-41.432-4.237-6.388-8.056-11.724-8.488-11.86-.432-.134-3.536 4.244-6.898 9.729-8.372 13.66-30.634 35.928-44.906 44.917-5.872 3.698-10.677 7-10.678 7.335 0 .337 5.078 3.873 11.287 7.858 14.587 9.363 35.747 30.6 44.297 44.46 3.362 5.45 6.466 9.798 6.898 9.663.432-.135 4.177-5.33 8.322-11.543zm-.438-299.518c9.377-14.206 29.738-34.342 43.572-43.092 5.847-3.698 10.65-7.12 10.674-7.603.024-.484-3.12-2.902-6.987-5.375-20.47-13.09-38.697-31.406-50.695-50.943l-4.345-7.075-4.903 7.764c-12.237 19.376-27.125 34.61-46.357 47.432-5.242 3.494-9.99 6.767-10.554 7.272-.563.505 4.435 4.552 11.107 8.994 14.796 9.85 35.063 30.203 43.663 43.849 3.284 5.21 6.375 9.474 6.868 9.474.493 0 4.073-4.814 7.957-10.697zm-1.21-298.285c8.363-13.478 28.844-34.136 43.58-43.958 6.555-4.369 11.902-8.3 11.88-8.734-.02-.435-5.076-4.092-11.236-8.126-15.035-9.847-33.853-28.614-43.18-43.063-4.005-6.203-7.568-11.291-7.92-11.308-.351-.016-1.726 2.017-3.056 4.518-8.541 16.069-30.931 39.337-48.626 50.533-5.784 3.66-10.544 6.964-10.577 7.342-.033.379 5.304 4.196 11.86 8.483 15.223 9.956 33.923 28.662 43.092 43.109 3.698 5.826 7.08 10.612 7.514 10.636.435.024 3.436-4.22 6.67-9.432z"/></g></svg>