<svg height="123.003" width="78.999" xmlns="http://www.w3.org/2000/svg"><g transform="matrix(.13166 0 0 .13667 -289.662 -150.337)"><rect width="597.967" height="897.967" rx="48.211" ry="49.888" x="2201.017" y="1101.015" style="font-style:normal;font-variant:normal;font-weight:500;font-stretch:normal;font-size:medium;line-height:125%;font-family:Gaelic;-inkscape-font-specification:'Gaelic Medium';letter-spacing:0;word-spacing:0;fill:#fff;fill-opacity:1;stroke:#000;stroke-width:2.03317;stroke-linecap:butt;stroke-linejoin:miter;stroke-miterlimit:4;stroke-dasharray:none;stroke-opacity:1"/><path style="fill:#b7b772" d="M2280.315 1969.538c-.36-.367-.657-38.959-.657-85.759 0-82.258-.058-85.17-1.873-87.448-1.836-2.309-2.295-2.367-22.33-2.856l-20.455-.5v-486.248l20.334-.5c17.804-.436 20.551-.72 22.084-2.281 1.644-1.675 1.78-6.989 2.24-87.864l.492-86.082h440.7l.491 86.082c.461 80.875.597 86.189 2.241 87.864 1.533 1.56 4.28 1.845 22.084 2.282l20.334.499v486.249l-20.334.499c-17.804.437-20.551.72-22.084 2.282-1.644 1.675-1.78 6.988-2.24 87.864l-.492 86.082-219.939.251c-120.967.139-220.234-.049-220.596-.416zm437.104-85.952c0-81.68.049-83.697 1.954-86.875 3.95-6.589 6.25-7.222 26.261-7.226h17.912v-479.26h-17.912c-20.011 0-22.312-.637-26.261-7.226-1.906-3.178-1.951-5.195-1.954-86.875v-83.62h-433.83v83.62c0 81.68-.05 83.697-1.954 86.876-3.95 6.588-6.25 7.221-26.261 7.226h-17.912v479.259h17.912c20.01 0 22.312.637 26.261 7.226 1.905 3.179 1.951 5.196 1.954 86.875v83.62h433.83z"/><path style="font-style:normal;font-variant:normal;font-weight:400;font-stretch:normal;font-size:medium;line-height:125%;font-family:Rockwell;-inkscape-font-specification:Rockwell;letter-spacing:0;word-spacing:0;fill:#d40000;fill-opacity:1;stroke:none;stroke-width:1px;stroke-linecap:butt;stroke-linejoin:miter;stroke-opacity:1" d="M2248.218 1193.793h-19.508q-1-4.776-3.71-8.063l24.135-44.73h6.711v44.165h9.254v8.628h-9.254v10.528h5.294V1213h-19.091v-8.68h6.169zm0-8.628v-28.142l-15.215 28.142zM2754.218 1193.793h-19.508q-1-4.776-3.71-8.063l24.135-44.73h6.711v44.165h9.254v8.628h-9.254v10.528h5.294V1213h-19.091v-8.68h6.169zm0-8.628v-28.142l-15.215 28.142zM2241.882 1906.207h19.508q1 4.776 3.71 8.063l-24.135 44.73h-6.711v-44.165H2225v-8.628h9.254v-10.528h-5.294V1887h19.091v8.68h-6.169zm0 8.628v28.142l15.215-28.142zM2747.882 1906.207h19.508q1 4.776 3.71 8.063l-24.135 44.73h-6.711v-44.165H2731v-8.628h9.254v-10.528h-5.294V1887h19.091v8.68h-6.169zm0 8.628v28.142l15.215-28.142z"/><path style="fill:red;fill-opacity:1;stroke:#fffecd;stroke-width:.277224;stroke-miterlimit:4;stroke-dasharray:none;stroke-opacity:1" d="M2242.416 1208.434v-3.912h6.259v-10.954h-19.599l-.763-2.151c-.42-1.184-1.115-2.763-1.545-3.51-.43-.748-.779-1.804-.774-2.347 0-.544 5.249-10.671 11.655-22.505l11.647-21.515 3.21-.241 3.21-.24v44.686h9.389v7.823h-9.389v10.954h2.347c2.295 0 2.348.087 2.348 3.912v3.912H2242.416zm6.259-37.32c0-8.514-.29-14.32-.692-13.887-1.06 1.138-14.956 26.958-14.956 27.788 0 .402 3.51.73 7.824.73h7.824zM2748.124 1208.434v-3.912h6.26v-10.954l-9.585-.013-9.584-.013-1.783-4.12-1.782-4.122 11.91-22.075 11.911-22.076h5.954v44.596h9.388v7.824h-9.388v10.953h5.477v7.824h-18.778v-3.912zm6.26-37.294c0-8.033-.141-14.458-.313-14.279-.574.601-15.335 27.96-15.335 28.425 0 .252 3.52.459 7.823.459h7.824zM2234.549 1936.49v-22.344h-9.389v-7.823h9.389v-10.954h-5.477v-7.824h18.777v7.824h-6.259v10.954h19.272l1.762 4.252 1.763 4.252-11.734 21.762-11.734 21.762-3.185.24-3.185.241zm15.56-7.91c3.92-7.339 7.129-13.588 7.129-13.888 0-.3-3.52-.546-7.824-.546h-7.824v14.631c0 8.553.289 14.322.694 13.887.382-.408 3.903-6.747 7.824-14.085zM2751.258 1914.355c2.03-.16 5.55-.162 7.824 0 2.274.158.613.29-3.69.292-4.303 0-6.163-.128-4.134-.288z"/><path style="fill:red;fill-opacity:1;stroke:#fffecd;stroke-width:.277224;stroke-miterlimit:4;stroke-dasharray:none;stroke-opacity:1" d="m2740.734 1936.64-.207-22.102-4.5-.235-4.498-.235v-7.745h9.389v-10.954h-5.477v-7.824H2753.436v7.824h-6.26v10.954h10.172c9.164 0 10.171.135 10.174 1.369 0 .753.714 2.536 1.584 3.963l1.582 2.594-11.951 22.237-11.951 22.236-2.922.01-2.922.01-.208-22.102zm15.17-7.646c4.155-7.736 7.233-14.263 6.841-14.505-.994-.615-13.751-.59-14.75.028-.945.583-1.17 28.589-.231 28.56.322-.01 3.986-6.347 8.14-14.083z"/><path d="M2363.193 1311.165c-.445-.697-2.462-3.903-4.483-7.124-6.985-11.135-11.427-16.629-21.701-26.842-10.274-10.213-15.801-14.629-27.002-21.573-3.24-2.01-6.466-4.014-7.167-4.456-1.12-.705-1.12-.9 0-1.605.701-.442 3.925-2.447 7.165-4.457 21.162-13.129 38.418-30.757 51.09-52.192L2364 1188l2.906 4.915c12.671 21.436 29.927 39.064 51.089 52.193 3.24 2.01 6.464 4.016 7.165 4.457 1.12.705 1.12.9 0 1.605-.7.442-3.926 2.447-7.167 4.456-11.2 6.944-16.727 11.36-27.001 21.573-10.275 10.213-14.717 15.707-21.702 26.842a2246.8 2246.8 0 0 1-4.483 7.124c-.709 1.113-.905 1.113-1.614 0zM2635.193 1311.165c-.445-.697-2.462-3.903-4.483-7.124-6.985-11.135-11.427-16.629-21.701-26.842-10.274-10.213-15.801-14.629-27.002-21.573-3.24-2.01-6.466-4.014-7.167-4.456-1.12-.705-1.12-.9 0-1.605.701-.442 3.925-2.447 7.165-4.457 21.162-13.129 38.418-30.757 51.09-52.192L2636 1188l2.906 4.915c12.671 21.436 29.927 39.064 51.089 52.193 3.24 2.01 6.464 4.016 7.165 4.457 1.12.705 1.12.9 0 1.605-.7.442-3.926 2.447-7.167 4.456-11.2 6.944-16.727 11.36-27.001 21.573-10.275 10.213-14.717 15.707-21.702 26.842a2246.8 2246.8 0 0 1-4.483 7.124c-.709 1.113-.905 1.113-1.614 0zM2363.193 1911.165c-.445-.697-2.462-3.903-4.483-7.124-6.985-11.135-11.427-16.629-21.701-26.842-10.274-10.213-15.801-14.629-27.002-21.573-3.24-2.01-6.466-4.014-7.167-4.456-1.12-.705-1.12-.9 0-1.605.701-.442 3.925-2.447 7.165-4.457 21.162-13.129 38.418-30.757 51.09-52.192L2364 1788l2.906 4.915c12.671 21.436 29.927 39.064 51.089 52.193 3.24 2.01 6.464 4.016 7.165 4.457 1.12.705 1.12.9 0 1.605-.7.442-3.926 2.447-7.167 4.456-11.2 6.944-16.727 11.36-27.001 21.573-10.275 10.213-14.717 15.707-21.702 26.842a2246.8 2246.8 0 0 1-4.483 7.124c-.709 1.113-.905 1.113-1.614 0zM2635.193 1911.165c-.445-.697-2.462-3.903-4.483-7.124-6.985-11.135-11.427-16.629-21.701-26.842-10.274-10.213-15.801-14.629-27.002-21.573-3.24-2.01-6.466-4.014-7.167-4.456-1.12-.705-1.12-.9 0-1.605.701-.442 3.925-2.447 7.165-4.457 21.162-13.129 38.418-30.757 51.09-52.192L2636 1788l2.906 4.915c12.671 21.436 29.927 39.064 51.089 52.193 3.24 2.01 6.464 4.016 7.165 4.457 1.12.705 1.12.9 0 1.605-.7.442-3.926 2.447-7.167 4.456-11.2 6.944-16.727 11.36-27.001 21.573-10.275 10.213-14.717 15.707-21.702 26.842a2246.8 2246.8 0 0 1-4.483 7.124c-.709 1.113-.905 1.113-1.614 0z" style="fill:#d40000;fill-opacity:1;image-rendering:auto"/><path style="fill:#fe0303;image-rendering:auto" d="M2246.688 1283.676c-.172-.27-.953-1.51-1.735-2.757-2.705-4.31-4.424-6.437-8.401-10.39-3.977-3.954-6.117-5.664-10.452-8.352a971.87 971.87 0 0 1-2.775-1.724c-.433-.273-.433-.349 0-.622.272-.17 1.52-.947 2.774-1.725 8.192-5.082 14.87-11.906 19.776-20.204L2247 1236l1.125 1.903c4.905 8.298 11.585 15.122 19.776 20.204 1.255.778 2.503 1.554 2.774 1.725.434.273.434.349 0 .622-.271.17-1.52.947-2.774 1.724-4.336 2.688-6.475 4.398-10.453 8.351-3.977 3.954-5.696 6.08-8.4 10.39a992.477 992.477 0 0 1-1.735 2.758c-.275.431-.351.431-.625 0zM2753.313 1236.323c.171.27.952 1.511 1.734 2.758 2.706 4.31 4.425 6.437 8.402 10.39 3.976 3.954 6.116 5.663 10.451 8.351 1.255.778 2.503 1.554 2.775 1.725.433.273.433.348 0 .622-.272.17-1.52.947-2.774 1.725-8.191 5.082-14.87 11.906-19.775 20.203L2753 1284l-1.124-1.903c-4.906-8.297-11.586-15.121-19.777-20.203a784.308 784.308 0 0 1-2.773-1.725c-.434-.274-.434-.349 0-.622.27-.17 1.52-.947 2.774-1.725 4.335-2.688 6.475-4.397 10.452-8.35 3.978-3.954 5.696-6.08 8.4-10.39a992.477 992.477 0 0 1 1.736-2.759c.274-.43.35-.43.625 0zM2246.688 1863.677c-.172-.27-.953-1.511-1.735-2.758-2.705-4.31-4.424-6.437-8.401-10.39-3.977-3.954-6.117-5.663-10.452-8.351a971.87 971.87 0 0 1-2.775-1.725c-.433-.273-.433-.348 0-.621.272-.171 1.52-.948 2.774-1.726 8.192-5.082 14.87-11.906 19.776-20.203L2247 1816l1.125 1.903c4.905 8.297 11.585 15.121 19.776 20.203 1.255.778 2.503 1.555 2.774 1.726.434.273.434.348 0 .621-.271.17-1.52.947-2.774 1.725-4.336 2.688-6.475 4.397-10.453 8.35-3.977 3.954-5.696 6.08-8.4 10.391a992.477 992.477 0 0 1-1.735 2.758c-.275.43-.351.43-.625 0zM2753.313 1816.324c.171.27.952 1.51 1.734 2.758 2.706 4.31 4.425 6.436 8.402 10.39 3.976 3.954 6.116 5.663 10.451 8.35 1.255.779 2.503 1.555 2.775 1.726.433.272.433.348 0 .621-.272.17-1.52.947-2.774 1.725-8.191 5.082-14.87 11.906-19.775 20.204L2753 1864l-1.124-1.903c-4.906-8.298-11.586-15.122-19.777-20.204a784.308 784.308 0 0 1-2.773-1.725c-.434-.273-.434-.349 0-.622.27-.17 1.52-.947 2.774-1.724 4.335-2.688 6.475-4.398 10.452-8.351 3.978-3.954 5.696-6.08 8.4-10.39a992.477 992.477 0 0 1 1.736-2.758c.274-.431.35-.431.625 0z"/><path style="fill:#fffecd;fill-opacity:1;stroke:#fffecd;stroke-width:.433162;stroke-miterlimit:4;stroke-dasharray:none;stroke-opacity:1" d="M2284.628 1909.812c0-31.156-.365-69.207-.812-84.557l-.812-27.909-3.365-3.767-3.364-3.767-19.05-.416-19.051-.415v-477.39l17.673-.803c9.72-.442 19.113-1.46 20.873-2.262 7.146-3.256 6.984-1.29 7.649-92.338l.61-83.459H2717.386l.018 83.434c.014 63.786.373 84.126 1.528 86.373 3.293 6.407 6.32 7.38 25.654 8.247l18.031.808V1789.2h-16.542c-11.532 0-17.803.527-20.701 1.738-8.284 3.461-7.988.038-7.988 92.332v83.19h-432.758zm86.796-7.827c9.182-14.477 29.005-34.295 43.704-43.692 6.22-3.977 11.29-7.534 11.27-7.905-.02-.371-5.086-3.976-11.258-8.01-14.957-9.777-34.88-29.679-43.716-43.67-3.698-5.854-6.999-10.65-7.335-10.658-.336-.01-3.909 5.062-7.94 11.265-9.523 14.658-27.202 32.415-42.181 42.37-6.388 4.245-11.614 8.133-11.614 8.64 0 .506 5.226 4.406 11.614 8.667 14.901 9.94 32.643 27.772 42.175 42.391 4.034 6.187 7.61 11.239 7.946 11.226.337-.013 3.637-4.794 7.335-10.624zm273.662-2.278c9.265-13.69 28.807-32.889 42.655-41.903 5.547-3.611 10.085-6.964 10.085-7.45 0-.487-4.56-3.92-10.132-7.628-18.827-12.529-33.181-26.928-45.135-45.274-3.396-5.21-6.35-9.474-6.567-9.474-.217 0-2.969 3.988-6.116 8.863-7.361 11.4-9.528 14.023-22.073 26.716-6.264 6.338-15.186 13.626-22.448 18.337-6.63 4.3-12.08 8.094-12.113 8.43-.033.336 4.742 3.61 10.612 7.275 14.203 8.867 35.498 29.956 44.912 44.476 3.85 5.94 7.402 10.34 7.894 9.78.492-.56 4.284-6.027 8.426-12.148zm-273.05-598.523c9.675-14.74 28.056-33.085 42.87-42.784 6.341-4.152 11.51-7.858 11.487-8.237-.024-.378-4.837-3.708-10.697-7.4-14.2-8.946-36.49-31.27-44.883-44.949-3.362-5.479-6.388-9.968-6.724-9.975-.336-.01-3.637 4.78-7.335 10.639-9.013 14.278-29.996 35.261-44.274 44.274-5.859 3.698-10.67 7.036-10.694 7.419-.024.382 5.333 4.331 11.904 8.776 14.648 9.91 35.212 30.652 43.632 44.012 3.284 5.211 6.288 9.458 6.675 9.437.387-.021 4.004-5.066 8.038-11.212zm274.69-3.775c9.254-13.266 26.65-30.082 40.67-39.315 5.816-3.83 10.404-7.414 10.196-7.965-.207-.55-5.603-4.483-11.99-8.74-14.755-9.832-31.641-26.686-40.891-40.812-3.963-6.052-7.574-11.439-8.026-11.972-.451-.533-3.619 3.318-7.039 8.558-12.853 19.692-27.97 34.587-48.44 47.726l-8.431 5.412 11.487 7.491c14.967 9.76 33.843 28.496 43.9 43.573 7.186 10.772 7.816 11.388 9.386 9.169.925-1.309 5.056-7.215 9.179-13.125z"/></g></svg>