<svg height="123.003" width="78.999" xmlns="http://www.w3.org/2000/svg"><g transform="matrix(.13166 0 0 .13667 -566.158 -150.337)"><rect style="font-style:normal;font-variant:normal;font-weight:500;font-stretch:normal;font-size:medium;line-height:125%;font-family:Gaelic;-inkscape-font-specification:'Gaelic Medium';letter-spacing:0;word-spacing:0;fill:#fff;fill-opacity:1;stroke:#000;stroke-width:2.03317;stroke-linecap:butt;stroke-linejoin:miter;stroke-miterlimit:4;stroke-dasharray:none;stroke-opacity:1" y="1101.015" x="4301.017" ry="49.888" rx="48.211" height="897.967" width="597.967"/><path d="M4380.315 1969.538c-.36-.367-.656-38.959-.656-85.759 0-82.258-.06-85.17-1.874-87.448-1.836-2.309-2.295-2.367-22.33-2.856l-20.455-.5v-486.248l20.334-.5c17.804-.436 20.551-.72 22.084-2.281 1.644-1.675 1.78-6.989 2.24-87.864l.492-86.082h440.7l.491 86.082c.461 80.875.597 86.189 2.241 87.864 1.533 1.56 4.28 1.845 22.084 2.282l20.334.499v486.249l-20.334.499c-17.804.437-20.551.72-22.084 2.282-1.644 1.675-1.78 6.988-2.24 87.864l-.492 86.082-219.939.251c-120.967.139-220.234-.049-220.596-.416zm437.104-85.952c0-81.68.049-83.697 1.954-86.875 3.95-6.589 6.25-7.222 26.261-7.226h17.912v-479.26h-17.912c-20.011 0-22.312-.637-26.261-7.226-1.906-3.178-1.951-5.195-1.954-86.875v-83.62h-433.83v83.62c0 81.68-.05 83.697-1.954 86.876-3.95 6.588-6.25 7.221-26.261 7.226h-17.912v479.259h17.912c20.01 0 22.312.637 26.261 7.226 1.905 3.179 1.951 5.196 1.954 86.875v83.62h433.83z" style="fill:#b7b772"/><path style="font-style:normal;font-variant:normal;font-weight:400;font-stretch:normal;font-size:medium;line-height:125%;font-family:Rockwell;-inkscape-font-specification:Rockwell;letter-spacing:0;word-spacing:0;fill:#d40000;fill-opacity:1;stroke:none;stroke-width:1px;stroke-linecap:butt;stroke-linejoin:miter;stroke-opacity:1" d="M4330.165 1213v-8.76h9.367q.76-13.944 6.329-29.184 5.57-15.24 12.101-24.777h-24.253v9.693H4325V1141h44v7.36q-6.886 8.45-13.063 25.66-6.177 17.157-6.177 30.22h8.202v8.76zM4836.165 1213v-8.76h9.367q.76-13.944 6.329-29.184 5.57-15.24 12.101-24.777h-24.253v9.693H4831V1141h44v7.36q-6.886 8.45-13.063 25.66-6.177 17.157-6.177 30.22h8.202v8.76zM4363.835 1887v8.76h-9.367q-.76 13.944-6.329 29.184-5.57 15.24-12.101 24.778h24.253v-9.694H4369V1959h-44v-7.36q6.886-8.45 13.063-25.66 6.177-17.157 6.177-30.22h-8.202V1887zM4869.835 1887v8.76h-9.367q-.76 13.944-6.329 29.184-5.57 15.24-12.101 24.778h24.253v-9.694H4875V1959h-44v-7.36q6.886-8.45 13.063-25.66 6.177-17.157 6.177-30.22h-8.202V1887z"/><path style="fill:red;fill-opacity:1;stroke:#fffecd;stroke-width:.277224;stroke-miterlimit:4;stroke-dasharray:none;stroke-opacity:1" d="M4330.885 1208.434v-3.912h4.328c4.938 0 4.538.621 5.79-8.998 1.47-11.302 10.105-34.781 15.658-42.58.884-1.242 1.607-2.467 1.607-2.723 0-.257-5.633-.466-12.518-.466h-12.518v10.171h-7.824v-18.778h43.032v3.396c0 2.665-.806 4.736-3.74 9.619-7.216 12.006-13.806 31.602-14.765 43.904l-.504 6.455h8.055v7.824h-26.601zM4836.615 1208.434v-3.912h9.389v-2.42c0-8.832 6.326-29.252 13.179-42.542 2.433-4.719 4.542-8.856 4.685-9.193.144-.337-5.226-.612-11.931-.612h-12.192v10.171h-8.607v-18.778h43.814v3.37c0 2.426-.573 4.122-2.049 6.063-3.111 4.092-9.281 17.358-12.35 26.557-2.747 8.231-5.16 19.806-5.16 24.748v2.636h8.606v7.824h-27.384zM4325.552 1955.167c0-2.719.58-4.42 2.426-7.101 7.579-11.016 16.35-37.17 16.35-48.752v-3.945h-7.823v-7.824h26.601v7.746l-4.498.235-4.5.234-.594 5.477c-1.485 13.664-9.523 36.259-16.325 45.89-.806 1.143-1.466 2.287-1.466 2.543 0 .257 5.633.466 12.518.466h12.518v-9.388h7.824v17.994h-43.031zM4830.974 1955.637c0-2.334.847-4.421 3.417-8.41 7.927-12.309 16.142-37.15 16.142-48.815v-3.043h-7.824v-7.824h26.601v7.824h-9.186l-.554 5.618c-1.18 11.973-7.628 31.074-14.57 43.154-1.69 2.943-3.073 5.495-3.073 5.673 0 .177 5.633.322 12.518.322h12.518v-9.388h7.824v17.994h-43.814z"/><path style="fill:#d40000;fill-opacity:1;image-rendering:auto" d="M4463.193 1311.165c-.445-.697-2.461-3.903-4.483-7.124-6.985-11.135-11.427-16.629-21.701-26.842-10.274-10.213-15.801-14.629-27.002-21.573-3.24-2.01-6.466-4.014-7.167-4.456-1.12-.705-1.12-.9 0-1.605.701-.442 3.925-2.447 7.165-4.457 21.162-13.129 38.418-30.757 51.09-52.192L4464 1188l2.906 4.915c12.671 21.436 29.927 39.064 51.089 52.193 3.24 2.01 6.464 4.016 7.165 4.457 1.12.705 1.12.9 0 1.605-.7.442-3.926 2.447-7.167 4.456-11.2 6.944-16.727 11.36-27.002 21.573-10.274 10.213-14.716 15.707-21.701 26.842a2259.477 2259.477 0 0 1-4.483 7.124c-.709 1.113-.905 1.113-1.614 0zM4735.193 1311.165c-.445-.697-2.461-3.903-4.483-7.124-6.985-11.135-11.427-16.629-21.701-26.842-10.274-10.213-15.801-14.629-27.002-21.573-3.24-2.01-6.466-4.014-7.167-4.456-1.12-.705-1.12-.9 0-1.605.701-.442 3.925-2.447 7.165-4.457 21.162-13.129 38.418-30.757 51.09-52.192L4736 1188l2.906 4.915c12.671 21.436 29.927 39.064 51.089 52.193 3.24 2.01 6.464 4.016 7.165 4.457 1.12.705 1.12.9 0 1.605-.7.442-3.926 2.447-7.167 4.456-11.2 6.944-16.727 11.36-27.002 21.573-10.274 10.213-14.716 15.707-21.701 26.842a2259.477 2259.477 0 0 1-4.483 7.124c-.709 1.113-.905 1.113-1.614 0zM4463.193 1611.165c-.445-.697-2.461-3.903-4.483-7.124-6.985-11.135-11.427-16.629-21.701-26.842-10.274-10.213-15.801-14.629-27.002-21.573-3.24-2.01-6.466-4.014-7.167-4.456-1.12-.705-1.12-.9 0-1.605.701-.442 3.925-2.447 7.165-4.457 21.162-13.129 38.418-30.757 51.09-52.192L4464 1488l2.906 4.915c12.671 21.436 29.927 39.064 51.089 52.193 3.24 2.01 6.464 4.016 7.165 4.457 1.12.705 1.12.9 0 1.605-.7.442-3.926 2.447-7.167 4.456-11.2 6.944-16.727 11.36-27.002 21.573-10.274 10.213-14.716 15.707-21.701 26.842a2259.477 2259.477 0 0 1-4.483 7.124c-.709 1.113-.905 1.113-1.614 0zM4735.193 1611.165c-.445-.697-2.461-3.903-4.483-7.124-6.985-11.135-11.427-16.629-21.701-26.842-10.274-10.213-15.801-14.629-27.002-21.573-3.24-2.01-6.466-4.014-7.167-4.456-1.12-.705-1.12-.9 0-1.605.701-.442 3.925-2.447 7.165-4.457 21.162-13.129 38.418-30.757 51.09-52.192L4736 1488l2.906 4.915c12.671 21.436 29.927 39.064 51.089 52.193 3.24 2.01 6.464 4.016 7.165 4.457 1.12.705 1.12.9 0 1.605-.7.442-3.926 2.447-7.167 4.456-11.2 6.944-16.727 11.36-27.002 21.573-10.274 10.213-14.716 15.707-21.701 26.842a2259.477 2259.477 0 0 1-4.483 7.124c-.709 1.113-.905 1.113-1.614 0zM4463.193 1911.165c-.445-.697-2.461-3.903-4.483-7.124-6.985-11.135-11.427-16.629-21.701-26.842-10.274-10.213-15.801-14.629-27.002-21.573-3.24-2.01-6.466-4.014-7.167-4.456-1.12-.705-1.12-.9 0-1.605.701-.442 3.925-2.447 7.165-4.457 21.162-13.129 38.418-30.757 51.09-52.192L4464 1788l2.906 4.915c12.671 21.436 29.927 39.064 51.089 52.193 3.24 2.01 6.464 4.016 7.165 4.457 1.12.705 1.12.9 0 1.605-.7.442-3.926 2.447-7.167 4.456-11.2 6.944-16.727 11.36-27.002 21.573-10.274 10.213-14.716 15.707-21.701 26.842a2259.477 2259.477 0 0 1-4.483 7.124c-.709 1.113-.905 1.113-1.614 0zM4735.193 1911.165c-.445-.697-2.461-3.903-4.483-7.124-6.985-11.135-11.427-16.629-21.701-26.842-10.274-10.213-15.801-14.629-27.002-21.573-3.24-2.01-6.466-4.014-7.167-4.456-1.12-.705-1.12-.9 0-1.605.701-.442 3.925-2.447 7.165-4.457 21.162-13.129 38.418-30.757 51.09-52.192L4736 1788l2.906 4.915c12.671 21.436 29.927 39.064 51.089 52.193 3.24 2.01 6.464 4.016 7.165 4.457 1.12.705 1.12.9 0 1.605-.7.442-3.926 2.447-7.167 4.456-11.2 6.944-16.727 11.36-27.002 21.573-10.274 10.213-14.716 15.707-21.701 26.842a2259.477 2259.477 0 0 1-4.483 7.124c-.709 1.113-.905 1.113-1.614 0zM4599.193 1461.165c-.445-.697-2.461-3.903-4.483-7.124-6.985-11.135-11.427-16.629-21.701-26.842-10.274-10.213-15.801-14.629-27.002-21.573-3.24-2.01-6.466-4.014-7.167-4.456-1.12-.705-1.12-.9 0-1.605.701-.442 3.925-2.447 7.165-4.457 21.162-13.129 38.418-30.757 51.09-52.192L4600 1338l2.906 4.915c12.671 21.436 29.927 39.064 51.089 52.193 3.24 2.01 6.464 4.016 7.165 4.457 1.12.705 1.12.9 0 1.605-.7.442-3.926 2.447-7.167 4.456-11.2 6.944-16.727 11.36-27.002 21.573-10.274 10.213-14.716 15.707-21.701 26.842a2259.477 2259.477 0 0 1-4.483 7.124c-.709 1.113-.905 1.113-1.614 0z"/><path d="M4346.688 1283.676c-.172-.27-.953-1.51-1.735-2.757-2.705-4.31-4.424-6.437-8.401-10.39-3.977-3.954-6.117-5.664-10.452-8.352a971.87 971.87 0 0 1-2.775-1.724c-.433-.273-.433-.349 0-.622.272-.17 1.52-.947 2.774-1.725 8.192-5.082 14.87-11.906 19.776-20.204L4347 1236l1.125 1.903c4.905 8.298 11.585 15.122 19.776 20.204 1.255.778 2.503 1.554 2.774 1.725.434.273.434.349 0 .622-.271.17-1.52.947-2.774 1.724-4.336 2.688-6.475 4.398-10.453 8.351-3.977 3.954-5.696 6.08-8.4 10.39a992.477 992.477 0 0 1-1.735 2.758c-.275.431-.351.431-.625 0zM4853.313 1236.323c.171.27.952 1.511 1.734 2.758 2.706 4.31 4.425 6.437 8.402 10.39 3.976 3.954 6.116 5.663 10.451 8.351 1.255.778 2.503 1.554 2.775 1.725.433.273.433.348 0 .622-.272.17-1.52.947-2.774 1.725-8.192 5.082-14.87 11.906-19.776 20.203L4853 1284l-1.125-1.903c-4.905-8.297-11.585-15.121-19.776-20.203a784.308 784.308 0 0 1-2.774-1.725c-.434-.274-.434-.349 0-.622.271-.17 1.52-.947 2.774-1.725 4.336-2.688 6.475-4.397 10.453-8.35 3.977-3.954 5.696-6.08 8.4-10.39a992.477 992.477 0 0 1 1.735-2.759c.275-.43.351-.43.625 0zM4346.688 1863.677c-.172-.27-.953-1.511-1.735-2.758-2.705-4.31-4.424-6.437-8.401-10.39-3.977-3.954-6.117-5.663-10.452-8.351a971.87 971.87 0 0 1-2.775-1.725c-.433-.273-.433-.348 0-.621.272-.171 1.52-.948 2.774-1.726 8.192-5.082 14.87-11.906 19.776-20.203L4347 1816l1.125 1.903c4.905 8.297 11.585 15.121 19.776 20.203 1.255.778 2.503 1.555 2.774 1.726.434.273.434.348 0 .621-.271.17-1.52.947-2.774 1.725-4.336 2.688-6.475 4.397-10.453 8.35-3.977 3.954-5.696 6.08-8.4 10.391a992.477 992.477 0 0 1-1.735 2.758c-.275.43-.351.43-.625 0zM4853.313 1816.324c.171.27.952 1.51 1.734 2.758 2.706 4.31 4.425 6.436 8.402 10.39 3.976 3.954 6.116 5.663 10.451 8.35 1.255.779 2.503 1.555 2.775 1.726.433.272.433.348 0 .621-.272.17-1.52.947-2.774 1.725-8.192 5.082-14.87 11.906-19.776 20.204L4853 1864l-1.125-1.903c-4.905-8.298-11.585-15.122-19.776-20.204a784.308 784.308 0 0 1-2.774-1.725c-.434-.273-.434-.349 0-.622.271-.17 1.52-.947 2.774-1.724 4.336-2.688 6.475-4.398 10.453-8.351 3.977-3.954 5.696-6.08 8.4-10.39a992.477 992.477 0 0 1 1.735-2.758c.275-.431.351-.431.625 0z" style="fill:#fe0303;image-rendering:auto"/><path style="fill:#fffecd;fill-opacity:1;stroke:#fffecd;stroke-width:.433162;stroke-miterlimit:4;stroke-dasharray:none;stroke-opacity:1" d="M4383.783 1883.903c0-91.91.2-89.544-7.863-92.913-3.045-1.272-9.068-1.79-20.826-1.79h-16.543V1311.591l18.032-.808c19.334-.867 22.36-1.84 25.654-8.247 1.154-2.247 1.514-22.587 1.528-86.373l.018-83.434h432.553l.413 83.434c.452 91.635.226 88.958 7.797 92.408 1.814.826 11.207 1.844 20.873 2.262l17.576.759v477.389l-18.923.415c-18.803.413-18.944.437-22.305 3.8-3 3.002-3.474 4.59-4.198 14.058-.449 5.871-.864 44.094-.922 84.94l-.107 74.266h-432.758zm87.56 18.071c9.45-14.518 30.734-35.625 44.75-44.375 5.87-3.665 10.664-6.938 10.653-7.275-.01-.336-4.78-3.637-10.6-7.335-13.754-8.74-32.236-26.483-41.665-40a6192.865 6192.865 0 0 0-9.103-13.026c-1.486-2.108-2.124-1.515-7.89 7.335-12.666 19.445-26.132 32.854-46.505 46.31-4.875 3.219-8.863 6.253-8.863 6.742 0 .489 4.538 3.843 10.085 7.454 14.262 9.284 33.548 28.355 43.392 42.907 4.45 6.578 8.247 11.96 8.438 11.96.19 0 3.48-4.814 7.309-10.697zm273.204-1.528c9.736-14.624 27.182-31.98 41.875-41.66 6.144-4.048 11.17-7.814 11.17-8.37 0-.557-5.226-4.501-11.614-8.765-15.271-10.195-32.844-27.863-42.137-42.365-3.985-6.22-7.55-11.272-7.92-11.229-.372.044-3.701 4.838-7.4 10.654-9.084 14.288-28.99 34.202-43.683 43.703-6.21 4.014-11.29 7.574-11.29 7.91-.002.336 5.078 3.892 11.288 7.9 14.834 9.578 34.642 29.398 43.686 43.712 3.698 5.853 7.077 10.525 7.509 10.383.431-.143 4.264-5.486 8.516-11.873zm-272.833-298.913c8.882-13.876 27.963-32.877 43.25-43.07 6.595-4.396 11.547-8.37 11.003-8.833-.543-.462-5.939-4.077-11.99-8.034-14.389-9.409-33.241-28.373-42.698-42.95l-7.246-11.17-7.325 11.194c-9.605 14.677-30.953 35.873-44.52 44.2-5.476 3.363-9.973 6.663-9.992 7.336-.019.672 4.752 4.248 10.602 7.946 14.116 8.923 35.416 30.23 43.722 43.738 3.362 5.467 6.663 9.955 7.335 9.975.673.019 4.209-4.63 7.859-10.333zm272.128-.289c8.94-13.825 30.702-35.266 44.357-43.704 5.441-3.361 9.918-6.474 9.949-6.916.03-.442-4.483-3.827-10.03-7.522-19.868-13.234-36.468-30.251-47.678-48.876l-4.262-7.081-8.37 12.573c-10.377 15.586-25.545 30.884-40.851 41.199-6.387 4.304-12.08 8.237-12.652 8.74-.571.503 3.83 4.083 9.78 7.955 14.158 9.214 36.955 31.97 44.935 44.855 3.227 5.21 6.326 9.474 6.886 9.474.56 0 4.132-4.814 7.936-10.697zm-136.178-149.754c9.928-14.84 30.13-34.849 44.125-43.703 5.844-3.698 10.51-7.077 10.367-7.509-.142-.432-5.485-4.248-11.873-8.48-15.037-9.964-33.852-28.865-42.787-42.983-3.697-5.843-7.04-10.643-7.427-10.667-.387-.024-3.232 3.949-6.322 8.827-11.886 18.763-28.676 35.345-48.338 47.74-4.228 2.665-7.528 5.262-7.335 5.771.194.509 5.579 4.405 11.966 8.659 15.033 10.01 32.696 27.737 42.175 42.326 4.035 6.21 7.459 11.298 7.61 11.308.15.011 3.678-5.07 7.839-11.289zm-135.678-150.365c10.008-14.926 27.984-32.818 42.626-42.426 6.374-4.184 11.771-7.785 11.993-8.003.221-.218-4.18-3.43-9.78-7.137-19.872-13.154-33.55-26.782-45.976-45.81-3.65-5.589-6.796-9.99-6.99-9.78-.195.21-3.836 5.609-8.092 11.996-9.875 14.822-26.598 31.545-41.422 41.424-6.388 4.257-11.78 8.177-11.982 8.712-.203.535 4.473 4.118 10.391 7.963 14.105 9.163 34.554 29.602 43.695 43.673 3.822 5.883 7.175 10.697 7.452 10.697.276 0 3.914-5.09 8.084-11.308zm270.719 1.834c8.235-13.271 28.738-33.99 43.551-44.012 6.571-4.445 11.928-8.394 11.904-8.776-.023-.383-4.816-3.72-10.65-7.419-14.321-9.078-35.39-30.123-44.318-44.272-3.698-5.86-6.999-10.648-7.335-10.641-.336.01-3.362 4.496-6.724 9.975-8.337 13.588-30.652 35.949-44.847 44.938-5.84 3.698-10.653 7.033-10.696 7.411-.044.378 5.198 4.143 11.649 8.367 15.225 9.968 33.156 27.86 42.729 42.635 4.002 6.178 7.633 11.241 8.068 11.25.435.01 3.436-4.245 6.669-9.456z"/></g></svg>