<svg height="123.003" width="78.999" xmlns="http://www.w3.org/2000/svg"><g transform="matrix(.13166 0 0 .13667 -473.993 -150.337)"><rect width="597.967" height="897.967" rx="48.211" ry="49.888" x="3601.017" y="1101.015" style="font-style:normal;font-variant:normal;font-weight:500;font-stretch:normal;font-size:medium;line-height:125%;font-family:Gaelic;-inkscape-font-specification:'Gaelic Medium';letter-spacing:0;word-spacing:0;fill:#fff;fill-opacity:1;stroke:#000;stroke-width:2.03317;stroke-linecap:butt;stroke-linejoin:miter;stroke-miterlimit:4;stroke-dasharray:none;stroke-opacity:1"/><path style="fill:#b7b772" d="M3680.315 1969.538c-.36-.367-.657-38.959-.657-85.759 0-82.258-.058-85.17-1.873-87.448-1.836-2.309-2.295-2.367-22.33-2.856l-20.455-.5v-486.248l20.334-.5c17.804-.436 20.551-.72 22.084-2.281 1.644-1.675 1.78-6.989 2.24-87.864l.492-86.082h440.7l.491 86.082c.461 80.875.597 86.189 2.241 87.864 1.533 1.56 4.28 1.845 22.084 2.282l20.334.499v486.249l-20.334.499c-17.804.437-20.551.72-22.084 2.282-1.644 1.675-1.78 6.988-2.24 87.864l-.492 86.082-219.939.251c-120.967.139-220.234-.049-220.596-.416zm437.104-85.952c0-81.68.049-83.697 1.954-86.875 3.95-6.589 6.25-7.222 26.261-7.226h17.912v-479.26h-17.912c-20.011 0-22.312-.637-26.261-7.226-1.906-3.178-1.951-5.195-1.954-86.875v-83.62h-433.83v83.62c0 81.68-.05 83.697-1.954 86.876-3.95 6.588-6.25 7.221-26.261 7.226h-17.912v479.259h17.912c20.01 0 22.312.637 26.261 7.226 1.905 3.179 1.951 5.196 1.954 86.875v83.62h433.83z"/><path style="font-style:normal;font-variant:normal;font-weight:400;font-stretch:normal;font-size:medium;line-height:125%;font-family:Rockwell;-inkscape-font-specification:Rockwell;letter-spacing:0;word-spacing:0;fill:#d40000;fill-opacity:1;stroke:none;stroke-width:1px;stroke-linecap:butt;stroke-linejoin:miter;stroke-opacity:1" d="M3668.509 1162.726h-8.3q-.736-5.971-4.124-9.734-3.34-3.763-8.152-3.763-6.531 0-10.165 6.974-3.634 6.924-3.781 19.016 6.973-7.727 16.058-7.727 7.808 0 13.357 5.92 5.598 5.87 5.598 15.755 0 9.834-5.5 16.859-5.5 6.974-15.027 6.974-10.656 0-17.09-8.931-6.383-8.981-6.383-26.642 0-16.809 6.188-26.593 6.187-9.834 17.825-9.834 9.134 0 14.143 6.172 5.058 6.12 5.353 15.554zm-34.031 23.03q2.21 18.965 13.553 18.965 5.795 0 9.036-4.365 3.241-4.365 3.241-10.436 0-5.97-3.094-9.634-3.044-3.662-8.25-3.662-7.317 0-14.486 9.131zM4174.509 1162.726h-8.3q-.736-5.971-4.124-9.734-3.34-3.763-8.152-3.763-6.531 0-10.165 6.974-3.634 6.924-3.781 19.016 6.973-7.727 16.058-7.727 7.808 0 13.357 5.92 5.598 5.87 5.598 15.755 0 9.834-5.5 16.859-5.5 6.974-15.027 6.974-10.656 0-17.09-8.931-6.383-8.981-6.383-26.642 0-16.809 6.188-26.593 6.187-9.834 17.825-9.834 9.134 0 14.143 6.172 5.058 6.12 5.353 15.554zm-34.031 23.03q2.21 18.965 13.553 18.965 5.795 0 9.036-4.365 3.241-4.365 3.241-10.436 0-5.97-3.094-9.634-3.044-3.662-8.25-3.662-7.317 0-14.486 9.131zM3625.491 1937.274h8.3q.736 5.971 4.124 9.734 3.34 3.763 8.152 3.763 6.531 0 10.165-6.974 3.634-6.924 3.781-19.016-6.973 7.727-16.058 7.727-7.808 0-13.357-5.92-5.598-5.87-5.598-15.755 0-9.834 5.5-16.859 5.5-6.974 15.027-6.974 10.656 0 17.09 8.931 6.383 8.981 6.383 26.642 0 16.809-6.188 26.593-6.187 9.834-17.825 9.834-9.134 0-14.143-6.172-5.058-6.12-5.353-15.554zm34.031-23.03q-2.21-18.965-13.553-18.965-5.795 0-9.036 4.365-3.241 4.365-3.241 10.436 0 5.97 3.094 9.634 3.044 3.662 8.25 3.662 7.317 0 14.486-9.131zM4131.491 1937.274h8.3q.736 5.971 4.124 9.734 3.34 3.763 8.152 3.763 6.531 0 10.165-6.974 3.634-6.924 3.781-19.016-6.973 7.727-16.058 7.727-7.808 0-13.357-5.92-5.598-5.87-5.598-15.755 0-9.834 5.5-16.859 5.5-6.974 15.027-6.974 10.656 0 17.09 8.931 6.383 8.981 6.383 26.642 0 16.809-6.188 26.593-6.187 9.834-17.825 9.834-9.134 0-14.143-6.172-5.058-6.12-5.353-15.554zm34.031-23.03q-2.21-18.965-13.553-18.965-5.795 0-9.036 4.365-3.241 4.365-3.241 10.436 0 5.97 3.094 9.634 3.044 3.662 8.25 3.662 7.317 0 14.486-9.131z"/><path style="fill:red;fill-opacity:1;stroke:#fffecd;stroke-width:.277224;stroke-miterlimit:4;stroke-dasharray:none;stroke-opacity:1" d="M3640.2 1210.816c-5.83-2.786-9.605-7.291-12.222-14.584-2.104-5.865-2.97-24.305-1.494-31.81 3.227-16.404 13.755-25.244 26.832-22.53 7.372 1.531 13.228 8.395 14.389 16.865l.482 3.516h-3.92c-3.769 0-3.94-.096-4.412-2.453-1.235-6.176-6.327-10.842-11.832-10.842-7.909 0-12.773 7.28-14.14 21.162l-.55 5.573 4.172-3.158c10.415-7.882 22.84-5.395 28.495 5.704 2.1 4.12 2.361 5.394 2.332 11.345-.025 5.044-.433 7.584-1.648 10.263-2.19 4.834-6.264 9.3-10.048 11.02-4.279 1.943-12.294 1.909-16.437-.071zm14.473-7.755c3.448-2.497 5.67-7.514 5.71-12.89.102-14.02-12.631-18.433-22.925-7.944l-3.45 3.515.942 4.5c.517 2.475 1.744 6.084 2.725 8.02 3.271 6.456 11.503 8.78 16.998 4.8zM4147.024 1211.323c-4.19-1.32-10.409-7.993-12.393-13.298-2.52-6.733-3.507-14.72-3.017-24.408.882-17.47 6.834-28.164 17.455-31.36 2.024-.61 4.617-1.109 5.761-1.109 3.944 0 9.844 2.301 12.49 4.87 2.95 2.865 5.91 8.876 6.56 13.32l.43 2.935h-7.6l-1.258-3.786c-2.456-7.395-9.199-11.2-15.562-8.78-5.167 1.964-9.024 9.923-9.69 19.998l-.414 6.26 2.641-2.455c7.548-7.017 17.627-7.535 24.933-1.28 4.474 3.829 6.438 8.068 6.881 14.852.98 15.014-7.158 25.37-19.784 25.176-2.582-.04-5.927-.46-7.433-.935zm13.516-8.227c3.125-1.845 6.048-8.153 6.027-13.006-.061-14.127-13.228-18.349-23.718-7.606l-2.955 3.026 1.214 5.234c1.417 6.111 2.688 8.791 5.348 11.275 3.666 3.424 9.37 3.86 14.084 1.077zM3638.446 1957.509c-6.303-1.94-12.384-10.816-12.384-18.077 0-1.65.347-1.814 3.825-1.814 3.695 0 3.841.086 4.306 2.543 1.162 6.15 6.22 10.752 11.82 10.752 7.954 0 12.727-7.244 14.147-21.467l.542-5.435-3.328 2.85c-6.5 5.563-14.16 6.694-21.19 3.129-7.838-3.975-11.684-12.079-10.61-22.355 1.247-11.932 9.029-20.038 19.266-20.068 6.201-.02 9.485 1.133 13.629 4.781 7.524 6.623 10.185 15.677 9.625 32.752-.488 14.857-2.812 21.904-9.304 28.203-5.153 5.001-12.693 6.56-20.344 4.206zm12.334-35.234c1.46-.693 4.106-2.667 5.877-4.387 3.023-2.933 3.19-3.325 2.721-6.367-1.873-12.147-8.156-18.275-16.47-16.063-1.734.462-3.807 1.423-4.606 2.136-6.567 5.861-6.209 20.31.607 24.466 2.974 1.814 8.298 1.91 11.871.215zM4144.537 1957.657c-2.888-1.077-5.262-2.734-7.41-5.174-2.14-2.428-4.846-9.106-4.853-11.974l-.01-2.977 3.639.239c3.581.235 3.654.293 4.664 3.773 1.507 5.186 5.467 8.717 10.3 9.181 6.381.613 10.098-2.24 12.997-9.977 1.209-3.228 2.962-14.849 2.348-15.562-.144-.167-1.502.641-3.017 1.797-8.612 6.568-17.46 6.847-24.554.774-5.46-4.673-6.768-7.985-6.767-17.131 0-6.969.228-8.252 2.081-11.736 4.012-7.541 9.767-11.345 17.166-11.345 14.935 0 23.34 12.458 23.378 34.654.031 17.255-5.148 29.584-14.437 34.369-3.967 2.043-11.542 2.574-15.527 1.089zm12.601-35.62c1.597-.825 4.248-2.89 5.893-4.589 2.747-2.84 2.944-3.335 2.437-6.13-2.176-11.996-8.209-17.786-16.576-15.908-7.928 1.78-12.068 14.062-7.632 22.641 2.681 5.185 9.998 7.021 15.878 3.986z"/><path d="M3763.193 1311.165c-.445-.697-2.462-3.903-4.483-7.124-6.985-11.135-11.427-16.629-21.701-26.842-10.274-10.213-15.801-14.629-27.002-21.573-3.24-2.01-6.466-4.014-7.167-4.456-1.12-.705-1.12-.9 0-1.605.701-.442 3.925-2.447 7.165-4.457 21.162-13.129 38.418-30.757 51.09-52.192L3764 1188l2.906 4.915c12.671 21.436 29.927 39.064 51.089 52.193 3.24 2.01 6.464 4.016 7.165 4.457 1.12.705 1.12.9 0 1.605-.7.442-3.926 2.447-7.167 4.456-11.2 6.944-16.727 11.36-27.001 21.573-10.275 10.213-14.717 15.707-21.702 26.842a2246.8 2246.8 0 0 1-4.483 7.124c-.709 1.113-.905 1.113-1.614 0zM4035.193 1311.165c-.445-.697-2.462-3.903-4.483-7.124-6.985-11.135-11.427-16.629-21.701-26.842-10.274-10.213-15.801-14.629-27.002-21.573-3.24-2.01-6.466-4.014-7.167-4.456-1.12-.705-1.12-.9 0-1.605.701-.442 3.925-2.447 7.165-4.457 21.162-13.129 38.418-30.757 51.09-52.192L4036 1188l2.906 4.915c12.671 21.436 29.927 39.064 51.089 52.193 3.24 2.01 6.464 4.016 7.165 4.457 1.12.705 1.12.9 0 1.605-.7.442-3.926 2.447-7.167 4.456-11.2 6.944-16.727 11.36-27.001 21.573-10.275 10.213-14.717 15.707-21.702 26.842a2246.8 2246.8 0 0 1-4.483 7.124c-.709 1.113-.905 1.113-1.614 0zM3763.193 1611.165c-.445-.697-2.462-3.903-4.483-7.124-6.985-11.135-11.427-16.629-21.701-26.842-10.274-10.213-15.801-14.629-27.002-21.573-3.24-2.01-6.466-4.014-7.167-4.456-1.12-.705-1.12-.9 0-1.605.701-.442 3.925-2.447 7.165-4.457 21.162-13.129 38.418-30.757 51.09-52.192L3764 1488l2.906 4.915c12.671 21.436 29.927 39.064 51.089 52.193 3.24 2.01 6.464 4.016 7.165 4.457 1.12.705 1.12.9 0 1.605-.7.442-3.926 2.447-7.167 4.456-11.2 6.944-16.727 11.36-27.001 21.573-10.275 10.213-14.717 15.707-21.702 26.842a2246.8 2246.8 0 0 1-4.483 7.124c-.709 1.113-.905 1.113-1.614 0zM4035.193 1611.165c-.445-.697-2.462-3.903-4.483-7.124-6.985-11.135-11.427-16.629-21.701-26.842-10.274-10.213-15.801-14.629-27.002-21.573-3.24-2.01-6.466-4.014-7.167-4.456-1.12-.705-1.12-.9 0-1.605.701-.442 3.925-2.447 7.165-4.457 21.162-13.129 38.418-30.757 51.09-52.192L4036 1488l2.906 4.915c12.671 21.436 29.927 39.064 51.089 52.193 3.24 2.01 6.464 4.016 7.165 4.457 1.12.705 1.12.9 0 1.605-.7.442-3.926 2.447-7.167 4.456-11.2 6.944-16.727 11.36-27.001 21.573-10.275 10.213-14.717 15.707-21.702 26.842a2246.8 2246.8 0 0 1-4.483 7.124c-.709 1.113-.905 1.113-1.614 0zM3763.193 1911.165c-.445-.697-2.462-3.903-4.483-7.124-6.985-11.135-11.427-16.629-21.701-26.842-10.274-10.213-15.801-14.629-27.002-21.573-3.24-2.01-6.466-4.014-7.167-4.456-1.12-.705-1.12-.9 0-1.605.701-.442 3.925-2.447 7.165-4.457 21.162-13.129 38.418-30.757 51.09-52.192L3764 1788l2.906 4.915c12.671 21.436 29.927 39.064 51.089 52.193 3.24 2.01 6.464 4.016 7.165 4.457 1.12.705 1.12.9 0 1.605-.7.442-3.926 2.447-7.167 4.456-11.2 6.944-16.727 11.36-27.001 21.573-10.275 10.213-14.717 15.707-21.702 26.842a2246.8 2246.8 0 0 1-4.483 7.124c-.709 1.113-.905 1.113-1.614 0zM4035.193 1911.165c-.445-.697-2.462-3.903-4.483-7.124-6.985-11.135-11.427-16.629-21.701-26.842-10.274-10.213-15.801-14.629-27.002-21.573-3.24-2.01-6.466-4.014-7.167-4.456-1.12-.705-1.12-.9 0-1.605.701-.442 3.925-2.447 7.165-4.457 21.162-13.129 38.418-30.757 51.09-52.192L4036 1788l2.906 4.915c12.671 21.436 29.927 39.064 51.089 52.193 3.24 2.01 6.464 4.016 7.165 4.457 1.12.705 1.12.9 0 1.605-.7.442-3.926 2.447-7.167 4.456-11.2 6.944-16.727 11.36-27.001 21.573-10.275 10.213-14.717 15.707-21.702 26.842a2246.8 2246.8 0 0 1-4.483 7.124c-.709 1.113-.905 1.113-1.614 0z" style="fill:#d40000;fill-opacity:1;image-rendering:auto"/><path style="fill:#fe0303;image-rendering:auto" d="M3646.688 1283.676c-.172-.27-.953-1.51-1.735-2.757-2.705-4.31-4.424-6.437-8.401-10.39-3.977-3.954-6.117-5.664-10.452-8.352a977.284 977.284 0 0 1-2.775-1.724c-.433-.273-.433-.349 0-.622.272-.17 1.52-.947 2.774-1.725 8.192-5.082 14.87-11.906 19.776-20.204L3647 1236l1.125 1.903c4.905 8.298 11.585 15.122 19.776 20.204 1.255.778 2.503 1.554 2.774 1.725.434.273.434.349 0 .622-.271.17-1.52.947-2.774 1.724-4.336 2.688-6.475 4.398-10.453 8.351-3.977 3.954-5.696 6.08-8.4 10.39-.783 1.248-1.563 2.489-1.735 2.758-.275.431-.351.431-.625 0zM4153.313 1236.323c.171.27.952 1.511 1.734 2.758 2.706 4.31 4.425 6.437 8.402 10.39 3.976 3.954 6.116 5.663 10.451 8.351 1.255.778 2.503 1.554 2.775 1.725.433.273.433.348 0 .622-.272.17-1.52.947-2.774 1.725-8.192 5.082-14.87 11.906-19.776 20.203L4153 1284l-1.125-1.903c-4.905-8.297-11.585-15.121-19.776-20.203a784.308 784.308 0 0 1-2.774-1.725c-.434-.274-.434-.349 0-.622.271-.17 1.52-.947 2.774-1.725 4.336-2.688 6.475-4.397 10.453-8.35 3.977-3.954 5.696-6.08 8.4-10.39a992.477 992.477 0 0 1 1.735-2.759c.275-.43.351-.43.625 0zM3646.688 1863.677c-.172-.27-.953-1.511-1.735-2.758-2.705-4.31-4.424-6.437-8.401-10.39-3.977-3.954-6.117-5.663-10.452-8.351a977.284 977.284 0 0 1-2.775-1.725c-.433-.273-.433-.348 0-.621.272-.171 1.52-.948 2.774-1.726 8.192-5.082 14.87-11.906 19.776-20.203L3647 1816l1.125 1.903c4.905 8.297 11.585 15.121 19.776 20.203 1.255.778 2.503 1.555 2.774 1.726.434.273.434.348 0 .621-.271.17-1.52.947-2.774 1.725-4.336 2.688-6.475 4.397-10.453 8.35-3.977 3.954-5.696 6.08-8.4 10.391-.783 1.247-1.563 2.488-1.735 2.758-.275.43-.351.43-.625 0zM4153.313 1816.324c.171.27.952 1.51 1.734 2.758 2.706 4.31 4.425 6.436 8.402 10.39 3.976 3.954 6.116 5.663 10.451 8.35 1.255.779 2.503 1.555 2.775 1.726.433.272.433.348 0 .621-.272.17-1.52.947-2.774 1.725-8.192 5.082-14.87 11.906-19.776 20.204L4153 1864l-1.125-1.903c-4.905-8.298-11.585-15.122-19.776-20.204a784.308 784.308 0 0 1-2.774-1.725c-.434-.273-.434-.349 0-.622.271-.17 1.52-.947 2.774-1.724 4.336-2.688 6.475-4.398 10.453-8.351 3.977-3.954 5.696-6.08 8.4-10.39a992.477 992.477 0 0 1 1.735-2.758c.275-.431.351-.431.625 0z"/><path style="fill:#fffecd;fill-opacity:1;stroke:#fffecd;stroke-width:.433162;stroke-miterlimit:4;stroke-dasharray:none;stroke-opacity:1" d="M3683.629 1883.27c0-92.294.296-88.87-7.988-92.332-2.899-1.211-9.17-1.738-20.701-1.738h-16.543V1311.591l18.032-.808c19.334-.867 22.36-1.84 25.654-8.247 1.154-2.247 1.514-22.587 1.528-86.373l.018-83.434h432.42l.584 83.434c.639 91.248.457 89.08 7.759 92.408 1.814.826 11.207 1.844 20.873 2.262l17.576.759v477.389l-19.05.415-19.052.416-3.364 3.767-3.364 3.768-.812 26.074c-.447 14.342-.813 52.392-.813 84.557v58.482h-432.758v-83.19zm88.15 18.093c9.815-14.741 30.056-34.75 44.21-43.704 5.846-3.698 10.619-6.999 10.607-7.335-.012-.336-4.75-3.637-10.53-7.335-17.942-11.481-38.548-32.773-48.203-49.806-1.617-2.852-3.256-5.19-3.643-5.196-.387 0-3.237 3.98-6.333 8.854-11.85 18.655-30.279 36.86-48.545 47.957-4.123 2.505-7.332 5.023-7.13 5.596.2.573 5.19 4.23 11.085 8.126 14.29 9.444 33.417 28.59 42.804 42.843 4.096 6.22 7.605 11.308 7.798 11.308.193 0 3.739-5.089 7.88-11.308zm272.186-.135c9.394-14.198 28.572-33.338 42.776-42.693 6.22-4.096 11.308-7.832 11.308-8.303 0-.472-3.438-3.025-7.64-5.674-19.615-12.365-36.417-28.965-48.291-47.71-3.09-4.879-5.936-8.845-6.323-8.814-.387.03-3.454 4.538-6.816 10.018-8.392 13.678-30.684 36.003-44.883 44.949-5.86 3.692-10.664 6.987-10.676 7.323-.012.337 4.76 3.637 10.606 7.335 14.202 8.984 34.393 28.96 44.28 43.807 4.18 6.276 7.833 11.177 8.119 10.89.286-.286 3.679-5.294 7.54-11.128zm-272.886-298.761c8.576-13.607 29.082-34.241 43.732-44.005 6.594-4.396 11.545-8.38 11.002-8.856-.543-.475-6.214-4.37-12.601-8.655-15-10.064-31.55-26.71-41.428-41.671l-7.795-11.807-7.215 10.988c-9.987 15.209-26.726 32.141-42.162 42.649-6.955 4.734-12.627 8.992-12.603 9.463.023.47 4.826 3.88 10.673 7.579 13.96 8.83 34.246 28.923 43.503 43.092 3.844 5.883 7.425 10.697 7.956 10.697.532 0 3.654-4.263 6.938-9.474zm272.751-1.223c9.258-14.169 29.543-34.263 43.503-43.092 5.847-3.698 10.65-7.133 10.674-7.633.024-.5-4.771-4.058-10.654-7.907-14.67-9.597-34.777-29.714-43.986-44.01l-7.254-11.26-7.838 11.872c-9.923 15.029-26.442 31.654-41.471 41.737-6.388 4.285-12.077 8.199-12.644 8.697-.566.498 4.385 4.481 11.003 8.851 14.67 9.688 35.104 30.213 43.773 43.968 3.284 5.21 6.406 9.474 6.938 9.474s4.112-4.814 7.956-10.697zm-272.183-299.474c9.019-14.188 27.904-33.183 42.787-43.034 6.388-4.228 11.79-7.85 12.004-8.049.215-.199-5.287-4.228-12.225-8.953-15.046-10.247-30.174-25.071-40.128-39.324-3.99-5.715-7.961-11.397-8.822-12.626-1.414-2.02-2.272-1.132-8.868 9.168-9.374 14.638-28.002 33.288-43.14 43.189-6.168 4.034-11.23 7.69-11.251 8.126-.021.434 5.326 4.364 11.881 8.733 14.477 9.646 33.523 28.87 42.948 43.348 3.61 5.547 6.909 10.066 7.328 10.043.42-.024 3.788-4.803 7.486-10.621zm271.535.578c9.426-14.479 28.472-33.702 42.948-43.348 6.556-4.369 11.902-8.299 11.882-8.733-.021-.435-5.084-4.092-11.252-8.126-15.137-9.901-33.765-28.55-43.14-43.189-6.595-10.3-7.453-11.187-8.867-9.168-.862 1.23-4.839 6.911-8.838 12.626-10.209 14.586-25.974 29.928-40.33 39.247-6.625 4.3-11.95 8.172-11.831 8.604.117.432 5.44 4.245 11.827 8.474 14.884 9.853 33.77 28.85 42.787 43.035 3.698 5.818 7.067 10.597 7.486 10.62.42.025 3.718-4.495 7.328-10.042z"/></g></svg>