<svg height="123.003" width="78.999" xmlns="http://www.w3.org/2000/svg"><g transform="matrix(.13166 0 0 .13667 -105.332 -150.337)"><rect style="font-style:normal;font-variant:normal;font-weight:500;font-stretch:normal;font-size:medium;line-height:125%;font-family:Gaelic;-inkscape-font-specification:'Gaelic Medium';letter-spacing:0;word-spacing:0;fill:#fff;fill-opacity:1;stroke:#000;stroke-width:2.03317;stroke-linecap:butt;stroke-linejoin:miter;stroke-miterlimit:4;stroke-dasharray:none;stroke-opacity:1" y="1101.015" x="801.017" ry="49.888" rx="48.211" height="897.967" width="597.967"/><path d="M880.315 1969.538c-.36-.367-.657-38.959-.657-85.759 0-82.258-.059-85.17-1.873-87.448-1.836-2.309-2.295-2.367-22.33-2.856l-20.455-.5v-486.248l20.334-.5c17.804-.436 20.551-.72 22.084-2.281 1.644-1.675 1.78-6.989 2.24-87.864l.492-86.082h440.7l.491 86.082c.461 80.875.597 86.189 2.241 87.864 1.533 1.56 4.28 1.845 22.084 2.282l20.334.499v486.249l-20.334.499c-17.804.437-20.551.72-22.084 2.282-1.644 1.675-1.78 6.988-2.24 87.864l-.492 86.082-219.939.251c-120.967.139-220.234-.049-220.596-.416zm437.104-85.952c0-81.68.049-83.697 1.954-86.875 3.95-6.589 6.25-7.222 26.261-7.226h17.912v-479.26h-17.912c-20.011 0-22.312-.637-26.261-7.226-1.906-3.178-1.951-5.195-1.954-86.875v-83.62h-433.83v83.62c0 81.68-.05 83.697-1.954 86.876-3.95 6.588-6.25 7.221-26.261 7.226h-17.912v479.259h17.912c20.01 0 22.312.637 26.261 7.226 1.905 3.179 1.951 5.196 1.954 86.875v83.62h433.83z" style="fill:#b7b772"/><rect width="597.967" height="897.967" rx="48.211" ry="49.888" x="801.017" y="1101.015" style="font-style:normal;font-variant:normal;font-weight:500;font-stretch:normal;font-size:medium;line-height:125%;font-family:Gaelic;-inkscape-font-specification:'Gaelic Medium';letter-spacing:0;word-spacing:0;fill:#fff;fill-opacity:1;stroke:#000;stroke-width:2.03317;stroke-linecap:butt;stroke-linejoin:miter;stroke-miterlimit:4;stroke-dasharray:none;stroke-opacity:1"/><path style="fill:#b7b772" d="M880.315 1969.538c-.36-.367-.657-38.959-.657-85.759 0-82.258-.059-85.17-1.873-87.448-1.836-2.309-2.295-2.367-22.33-2.856l-20.455-.5v-486.248l20.334-.5c17.804-.436 20.551-.72 22.084-2.281 1.644-1.675 1.78-6.989 2.24-87.864l.492-86.082h440.7l.491 86.082c.461 80.875.597 86.189 2.241 87.864 1.533 1.56 4.28 1.845 22.084 2.282l20.334.499v486.249l-20.334.499c-17.804.437-20.551.72-22.084 2.282-1.644 1.675-1.78 6.988-2.24 87.864l-.492 86.082-219.939.251c-120.967.139-220.234-.049-220.596-.416zm437.104-85.952c0-81.68.049-83.697 1.954-86.875 3.95-6.589 6.25-7.222 26.261-7.226h17.912v-479.26h-17.912c-20.011 0-22.312-.637-26.261-7.226-1.906-3.178-1.951-5.195-1.954-86.875v-83.62h-433.83v83.62c0 81.68-.05 83.697-1.954 86.876-3.95 6.588-6.25 7.221-26.261 7.226h-17.912v479.259h17.912c20.01 0 22.312.637 26.261 7.226 1.905 3.179 1.951 5.196 1.954 86.875v83.62h433.83z"/><path style="font-style:normal;font-variant:normal;font-weight:400;font-stretch:normal;font-size:medium;line-height:125%;font-family:Rockwell;-inkscape-font-specification:Rockwell;letter-spacing:0;word-spacing:0;fill:#d40000;fill-opacity:1;stroke:none;stroke-width:1px;stroke-linecap:butt;stroke-linejoin:miter;stroke-opacity:1" d="m869 1187.675-.635 25.325H825q0-7.338 2.488-14.013 2.536-6.675 7.073-11.669 4.585-4.993 13.95-12.127 5.903-4.535 8-7.541 2.098-3.058 2.098-7.083 0-4.943-2.975-8.051-2.976-3.16-8.195-3.16-6.098 0-8.927 3.568-2.83 3.566-2.83 11.72 0 2.038.099 3.872h-9.024q-.048-1.834-.048-3.006 0-11.516 5.219-17.988 5.22-6.522 15.317-6.522 10.195 0 15.61 5.554 5.462 5.554 5.462 13.656 0 6.777-3.56 11.567-3.561 4.79-13.61 12.178-9.756 7.236-12.829 11.771-3.024 4.535-3.512 8.051h25.56l.39-16.102H869zM1375 1187.675l-.635 25.325H1331q0-7.338 2.488-14.013 2.536-6.675 7.073-11.669 4.585-4.993 13.95-12.127 5.903-4.535 8-7.541 2.098-3.058 2.098-7.083 0-4.943-2.975-8.051-2.976-3.16-8.195-3.16-6.098 0-8.927 3.568-2.83 3.566-2.83 11.72 0 2.038.099 3.872h-9.024q-.048-1.834-.048-3.006 0-11.516 5.219-17.988 5.22-6.522 15.317-6.522 10.195 0 15.61 5.554 5.462 5.554 5.462 13.656 0 6.777-3.56 11.567-3.561 4.79-13.61 12.178-9.756 7.236-12.829 11.771-3.024 4.535-3.512 8.051h25.56l.39-16.102H1375zM825.001 1912.325l.634-25.325H869q0 7.338-2.487 14.013-2.537 6.675-7.073 11.669-4.586 4.993-13.951 12.127-5.903 4.535-8 7.541-2.098 3.058-2.098 7.083 0 4.943 2.976 8.051 2.975 3.16 8.195 3.16 6.097 0 8.927-3.568 2.829-3.567 2.829-11.72 0-2.038-.098-3.872h9.024q.048 1.834.048 3.006 0 11.516-5.22 17.988-5.219 6.522-15.316 6.522-10.195 0-15.61-5.554-5.463-5.554-5.463-13.656 0-6.777 3.56-11.567 3.562-4.79 13.61-12.178 9.756-7.236 12.83-11.771 3.024-4.535 3.512-8.051h-25.561l-.39 16.102H825zM1331.001 1912.325l.634-25.325H1375q0 7.338-2.487 14.013-2.537 6.675-7.073 11.669-4.586 4.993-13.952 12.127-5.902 4.535-8 7.541-2.097 3.058-2.097 7.083 0 4.943 2.976 8.051 2.975 3.16 8.195 3.16 6.097 0 8.926-3.568 2.83-3.566 2.83-11.72 0-2.038-.098-3.872h9.024q.048 1.834.048 3.006 0 11.516-5.22 17.988-5.219 6.522-15.316 6.522-10.195 0-15.61-5.554-5.463-5.554-5.463-13.656 0-6.777 3.56-11.567 3.562-4.79 13.61-12.178 9.756-7.236 12.83-11.771 3.024-4.535 3.512-8.051h-25.561l-.39 16.102H1331z"/><path style="fill:red;fill-opacity:1;stroke:#fffecd;stroke-width:.277224;stroke-miterlimit:4;stroke-dasharray:none;stroke-opacity:1" d="M825.433 1210.163c0-3.626 2.253-11.113 4.758-15.815 2.644-4.96 7.35-9.851 17.073-17.741 8.762-7.112 10.963-9.943 11.486-14.776.813-7.52-3.716-12.467-11.41-12.467-7.958 0-11.733 4.467-11.735 13.887l-.001 5.281h-8.832l.443-5.86c.741-9.805 5.599-17.795 12.236-20.126 1.542-.542 5.464-.96 8.717-.93 4.98.047 6.582.416 10.147 2.337 5.413 2.917 8.698 7.92 9.203 14.015.819 9.87-1.736 13.881-16.164 25.381-5.865 4.676-11.402 9.504-12.304 10.73-2.469 3.356-4.229 7.042-4.229 8.859 0 1.584.3 1.617 12.714 1.407l12.714-.214.191-5.477c.105-3.012.385-6.621.623-8.02.41-2.423.594-2.542 3.916-2.542h3.485v10.89c0 5.988-.214 11.445-.475 12.126-.417 1.086-3.05 1.238-21.515 1.238h-21.041v-2.183zM1331.487 1209.02c.92-6.165 3.618-13.47 6.577-17.799 1.804-2.64 6.853-7.569 13.064-12.753 5.568-4.648 10.913-9.753 11.88-11.345 3.142-5.178 1.805-13.276-2.677-16.213-3.047-1.997-9.506-2.31-12.745-.616-3.87 2.022-5.543 5.427-6.066 12.347l-.446 5.891h-3.715c-2.434 0-3.858-.372-4.129-1.078-.61-1.591.808-11.746 2.058-14.728 3.079-7.348 9.027-11.078 17.748-11.128 6.895-.04 10.848 1.166 14.587 4.45 4.307 3.78 6.051 7.894 6.051 14.269 0 8.654-2.632 12.4-15.944 22.688-8.656 6.69-13.191 11.272-15.374 15.533-3.04 5.933-2.944 5.984 11.354 5.984 10.64 0 12.528-.181 12.934-1.238.261-.68.475-4.377.475-8.215v-6.977h8.02l-.49 2.445c-.269 1.344-.489 6.802-.489 12.127v9.682h-43.168zM838.908 1957.54c-7.975-2.476-12.519-8.956-12.519-17.853 0-8.65 3.156-13.104 16.43-23.193 3.658-2.78 8.17-6.573 10.029-8.428 3.127-3.122 6.344-8.633 6.385-10.936.013-.744-3.078-.978-12.893-.978h-12.91l-.006 3.716c-.004 2.044-.229 5.565-.5 7.824l-.494 4.107h-6.823v-24.254h21.515c24.426 0 22.213-.76 20.718 7.127-1.948 10.271-7.06 17.307-20.494 28.206-4.18 3.391-8.526 7.378-9.655 8.86-3.838 5.031-3.315 12.101 1.217 16.443 1.797 1.721 3.251 2.293 6.524 2.564 8.394.696 12.25-3.16 12.873-12.875l.368-5.729h8.625l-.525 5.65c-.625 6.725-3.268 12.968-6.897 16.29-4.687 4.29-13.572 5.756-20.969 3.46zM1345.474 1957.698c-8.182-2.308-13.174-9.107-13.143-17.902.03-8.801 2.466-12.146 17.523-24.068 8.767-6.941 11.567-9.865 14.03-14.648 2.559-4.968 2.652-4.928-11.62-4.928h-12.909l-.011 6.063c-.016 9.01-.279 9.584-4.384 9.584h-3.43v-10.89c0-5.988.215-11.445.476-12.126.416-1.086 3.05-1.238 21.515-1.238h21.041v2.183c0 3.68-2.267 11.14-4.868 16.02-2.47 4.635-8.714 10.922-20.168 20.308-7.87 6.45-10.256 12.578-7.236 18.588a11.419 11.419 0 0 0 10.167 6.275c7.94 0 11.884-4.597 11.917-13.888l.017-4.89h8.606v3.357c0 9.075-4.504 17.965-10.597 20.914-4.397 2.129-11.913 2.7-16.927 1.286z"/><path style="fill:red;fill-opacity:1;stroke:#fffecd;stroke-width:.277224;stroke-miterlimit:4;stroke-dasharray:none;stroke-opacity:1" d="M838.506 1956.845c-7.041-2.705-10.707-7.573-11.384-15.12-.848-9.441 1.78-13.38 17.4-26.066 9.395-7.632 13.703-12.636 14.839-17.239.49-1.99.397-2.045-4.363-2.542-2.675-.28-8.64-.509-13.255-.509h-8.39l-.555 7.824-.555 7.824h-6.134v-22.689h20.687c12.317 0 20.875.303 21.15.748.75 1.214-1.747 10.669-3.983 15.08-2.039 4.024-7.63 9.944-21.625 22.9-5.514 5.105-6.856 6.8-7.279 9.193-.842 4.773.261 8.417 3.541 11.697 2.804 2.804 3.249 2.973 7.834 2.973 8.266 0 11.39-3.308 12.297-13.02l.465-4.975h7.744l-.563 4.107c-1.342 9.792-4.622 15.955-9.951 18.696-4.184 2.152-13.686 2.745-17.92 1.118z"/><path style="fill:#d40000;fill-opacity:1;image-rendering:auto" d="M1099.193 1311.165c-.444-.697-2.462-3.903-4.483-7.124-6.985-11.135-11.427-16.629-21.701-26.842-10.274-10.213-15.801-14.629-27.002-21.573-3.24-2.01-6.466-4.014-7.167-4.456-1.12-.705-1.12-.9 0-1.605.701-.442 3.925-2.447 7.165-4.457 21.162-13.129 38.418-30.757 51.09-52.192L1100 1188l2.906 4.915c12.671 21.436 29.927 39.064 51.089 52.193 3.24 2.01 6.464 4.016 7.165 4.457 1.12.705 1.12.9 0 1.605-.7.442-3.926 2.447-7.167 4.456-11.2 6.944-16.727 11.36-27.001 21.573-10.275 10.213-14.717 15.707-21.702 26.842a2246.8 2246.8 0 0 1-4.483 7.124c-.709 1.113-.905 1.113-1.614 0zM1099.193 1911.165c-.444-.697-2.462-3.903-4.483-7.124-6.985-11.135-11.427-16.629-21.701-26.842-10.274-10.213-15.801-14.629-27.002-21.573-3.24-2.01-6.466-4.014-7.167-4.456-1.12-.705-1.12-.9 0-1.605.701-.442 3.925-2.447 7.165-4.457 21.162-13.129 38.418-30.757 51.09-52.192L1100 1788l2.906 4.915c12.671 21.436 29.927 39.064 51.089 52.193 3.24 2.01 6.464 4.016 7.165 4.457 1.12.705 1.12.9 0 1.605-.7.442-3.926 2.447-7.167 4.456-11.2 6.944-16.727 11.36-27.001 21.573-10.275 10.213-14.717 15.707-21.702 26.842a2246.8 2246.8 0 0 1-4.483 7.124c-.709 1.113-.905 1.113-1.614 0z"/><path d="M846.688 1283.676c-.172-.27-.953-1.51-1.735-2.757-2.705-4.31-4.424-6.437-8.401-10.39-3.977-3.954-6.117-5.664-10.452-8.352a971.87 971.87 0 0 1-2.775-1.724c-.433-.273-.433-.349 0-.622.272-.17 1.52-.947 2.774-1.725 8.192-5.082 14.87-11.906 19.776-20.204L847 1236l1.125 1.903c4.905 8.298 11.585 15.122 19.776 20.204 1.255.778 2.503 1.554 2.774 1.725.434.273.434.349 0 .622-.271.17-1.52.947-2.774 1.724-4.336 2.688-6.475 4.398-10.453 8.351-3.977 3.954-5.696 6.08-8.4 10.39a995.017 995.017 0 0 1-1.735 2.758c-.275.431-.351.431-.625 0zM1353.313 1236.323c.171.27.952 1.511 1.734 2.758 2.705 4.31 4.424 6.437 8.401 10.39 3.977 3.954 6.117 5.663 10.452 8.351 1.255.778 2.503 1.554 2.775 1.725.434.273.434.348 0 .622-.272.17-1.52.947-2.774 1.725-8.191 5.082-14.87 11.906-19.775 20.203L1353 1284l-1.125-1.903c-4.906-8.297-11.585-15.121-19.776-20.203a784.308 784.308 0 0 1-2.774-1.725c-.434-.274-.434-.349 0-.622.27-.17 1.52-.947 2.774-1.725 4.335-2.688 6.475-4.397 10.452-8.35 3.978-3.954 5.696-6.08 8.4-10.39a992.477 992.477 0 0 1 1.736-2.759c.274-.43.35-.43.625 0zM846.688 1863.677c-.172-.27-.953-1.511-1.735-2.758-2.705-4.31-4.424-6.437-8.401-10.39-3.977-3.954-6.117-5.663-10.452-8.351a971.87 971.87 0 0 1-2.775-1.725c-.433-.273-.433-.348 0-.621.272-.171 1.52-.948 2.774-1.726 8.192-5.082 14.87-11.906 19.776-20.203L847 1816l1.125 1.903c4.905 8.297 11.585 15.121 19.776 20.203 1.255.778 2.503 1.555 2.774 1.726.434.273.434.348 0 .621-.271.17-1.52.947-2.774 1.725-4.336 2.688-6.475 4.397-10.453 8.35-3.977 3.954-5.696 6.08-8.4 10.391a995.017 995.017 0 0 1-1.735 2.758c-.275.43-.351.43-.625 0zM1353.313 1816.324c.171.27.952 1.51 1.734 2.758 2.705 4.31 4.424 6.436 8.401 10.39 3.977 3.954 6.117 5.663 10.452 8.35 1.255.779 2.503 1.555 2.775 1.726.434.272.434.348 0 .621-.272.17-1.52.947-2.774 1.725-8.191 5.082-14.87 11.906-19.775 20.204L1353 1864l-1.125-1.903c-4.906-8.298-11.585-15.122-19.776-20.204a784.308 784.308 0 0 1-2.774-1.725c-.434-.273-.434-.349 0-.622.27-.17 1.52-.947 2.774-1.724 4.335-2.688 6.475-4.398 10.452-8.351 3.978-3.954 5.696-6.08 8.4-10.39a992.477 992.477 0 0 1 1.736-2.758c.274-.431.35-.431.625 0z" style="fill:#fe0303;image-rendering:auto"/><path style="fill:#fffecd;fill-opacity:1;stroke:#fffecd;stroke-width:.433162;stroke-miterlimit:4;stroke-dasharray:none;stroke-opacity:1" d="M883.905 1882.414c-.331-78.855-.49-84.247-2.573-87.315-3.3-4.86-7.998-5.899-26.691-5.899h-16.932V1311.593l18.553-.803c19.526-.846 22.565-1.699 25.719-7.22 1.228-2.15 1.648-21.098 1.924-86.796l.353-84.045h432.582l.346 84.045c.27 65.709.689 84.646 1.917 86.796 3.153 5.521 6.193 6.374 25.719 7.22l18.553.803V1789.2h-16.933c-18.693 0-23.391 1.039-26.69 5.899-2.083 3.068-2.242 8.452-2.566 87.315l-.346 84.046H884.258zm223.432 19.56c9.418-14.497 29.605-34.556 44.36-44.078l11.424-7.373-10.202-6.816c-19.02-12.709-35.115-28.811-46.623-46.648-3.223-4.994-6.04-9.081-6.26-9.081-.22 0-3.178 4.263-6.573 9.474-11.954 18.346-26.309 32.745-45.135 45.274-5.573 3.709-10.133 7.141-10.133 7.628 0 .486 4.539 3.839 10.086 7.45 14.262 9.284 33.548 28.355 43.392 42.907 4.45 6.578 8.23 11.96 8.403 11.96.171 0 3.439-4.814 7.26-10.697zm.175-600.237c8.979-13.752 29.64-34.539 42.295-42.555 5.244-3.321 10.441-6.66 11.549-7.42 1.723-1.183.788-2.17-6.479-6.834-20.534-13.18-35.635-28.052-48.502-47.766-3.42-5.239-6.587-9.09-7.038-8.557-.45.533-4.077 5.9-8.059 11.926-9.475 14.34-26.309 31.175-40.858 40.864-6.387 4.253-11.783 8.183-11.991 8.734-.208.55 4.468 4.162 10.391 8.025 14.217 9.273 34.656 29.655 43.704 43.583 3.822 5.883 7.186 10.696 7.476 10.696.29 0 3.67-4.813 7.511-10.696z"/></g></svg>