<svg height="123.003" width="78.999" xmlns="http://www.w3.org/2000/svg"><g transform="matrix(.13166 0 0 .13667 -381.828 -150.337)"><rect style="font-style:normal;font-variant:normal;font-weight:500;font-stretch:normal;font-size:medium;line-height:125%;font-family:Gaelic;-inkscape-font-specification:'Gaelic Medium';letter-spacing:0;word-spacing:0;fill:#fff;fill-opacity:1;stroke:#000;stroke-width:2.03317;stroke-linecap:butt;stroke-linejoin:miter;stroke-miterlimit:4;stroke-dasharray:none;stroke-opacity:1" y="1101.015" x="2901.017" ry="49.888" rx="48.211" height="897.967" width="597.967"/><path d="M2980.315 1969.538c-.36-.367-.657-38.959-.657-85.759 0-82.258-.058-85.17-1.873-87.448-1.836-2.309-2.295-2.367-22.33-2.856l-20.455-.5v-486.248l20.334-.5c17.804-.436 20.551-.72 22.084-2.281 1.644-1.675 1.78-6.989 2.24-87.864l.492-86.082h440.7l.491 86.082c.461 80.875.597 86.189 2.241 87.864 1.533 1.56 4.28 1.845 22.084 2.282l20.334.499v486.249l-20.334.499c-17.804.437-20.551.72-22.084 2.282-1.644 1.675-1.78 6.988-2.24 87.864l-.492 86.082-219.939.251c-120.967.139-220.234-.049-220.596-.416zm437.104-85.952c0-81.68.049-83.697 1.954-86.875 3.95-6.589 6.25-7.222 26.261-7.226h17.912v-479.26h-17.912c-20.011 0-22.312-.637-26.261-7.226-1.906-3.178-1.951-5.195-1.954-86.875v-83.62h-433.83v83.62c0 81.68-.05 83.697-1.954 86.876-3.95 6.588-6.25 7.221-26.261 7.226h-17.912v479.259h17.912c20.01 0 22.312.637 26.261 7.226 1.905 3.179 1.951 5.196 1.954 86.875v83.62h433.83z" style="fill:#b7b772"/><path style="font-style:normal;font-variant:normal;font-weight:400;font-stretch:normal;font-size:medium;line-height:125%;font-family:Rockwell;-inkscape-font-specification:Rockwell;letter-spacing:0;word-spacing:0;fill:#d40000;fill-opacity:1;stroke:none;stroke-width:1px;stroke-linecap:butt;stroke-linejoin:miter;stroke-opacity:1" d="M2925 1189.221h8.372q.744 7.144 4.233 11.38 3.534 4.234 9.302 4.234 5.814 0 9.349-4.388t3.535-11.277q0-7.297-3.442-11.124-3.442-3.878-8.558-3.878-7.675 0-12.977 8.522-2.977-3.215-6.744-5.154l2.651-36.536h34.512v18.83h-8v-9.696h-19.814l-1.442 20.768q5.907-5.256 13.163-5.256 9.209 0 14.511 6.736 5.349 6.736 5.349 16.686 0 10.512-5.86 17.247-5.814 6.685-16.326 6.685-9.768 0-15.442-6.072-5.674-6.073-6.372-17.707zM3431 1189.221h8.372q.744 7.144 4.233 11.38 3.534 4.234 9.302 4.234 5.814 0 9.349-4.388t3.535-11.277q0-7.297-3.442-11.124-3.442-3.878-8.558-3.878-7.675 0-12.977 8.522-2.977-3.215-6.744-5.154l2.651-36.536h34.512v18.83h-8v-9.696h-19.814l-1.442 20.768q5.907-5.256 13.163-5.256 9.209 0 14.511 6.736 5.349 6.736 5.349 16.686 0 10.512-5.86 17.247-5.814 6.685-16.326 6.685-9.768 0-15.442-6.072-5.674-6.073-6.372-17.707zM2969 1910.779h-8.372q-.744-7.144-4.233-11.38-3.534-4.235-9.302-4.235-5.814 0-9.349 4.389-3.535 4.388-3.535 11.277 0 7.297 3.442 11.124 3.442 3.878 8.558 3.878 7.675 0 12.977-8.522 2.977 3.215 6.744 5.154L2963.28 1959h-34.512v-18.83h8v9.696h19.814l1.442-20.768q-5.907 5.256-13.163 5.256-9.209 0-14.511-6.736-5.349-6.736-5.349-16.686 0-10.512 5.86-17.247 5.814-6.685 16.326-6.685 9.768 0 15.442 6.072 5.674 6.073 6.372 17.707zM3475 1910.779h-8.372q-.744-7.144-4.233-11.38-3.534-4.235-9.302-4.235-5.814 0-9.349 4.389-3.535 4.388-3.535 11.277 0 7.297 3.442 11.124 3.442 3.878 8.558 3.878 7.675 0 12.977-8.522 2.977 3.215 6.744 5.154L3469.28 1959h-34.512v-18.83h8v9.696h19.814l1.442-20.768q-5.907 5.256-13.163 5.256-9.209 0-14.511-6.736-5.349-6.736-5.349-16.686 0-10.512 5.86-17.247 5.814-6.685 16.326-6.685 9.768 0 15.442 6.072 5.674 6.073 6.372 17.707z"/><path style="fill:red;fill-opacity:1;stroke:#fffecd;stroke-width:.277224;stroke-miterlimit:4;stroke-dasharray:none;stroke-opacity:1" d="M2936.859 1210.332c-6.245-3.111-11.133-11.222-11.133-18.47 0-2.095.178-2.206 3.545-2.206 2.167 0 3.653.38 3.823.978.152.538.684 2.475 1.18 4.304 2.61 9.605 13.662 13.392 20.799 7.125 3.541-3.109 5.408-8.816 4.86-14.858-.738-8.138-5.395-13.196-12.152-13.196-4.074 0-9.351 2.71-11.417 5.861l-1.32 2.014-3.077-2.177c-2.77-1.96-3.08-2.518-3.095-5.584-.019-3.93 1.39-24.727 2.009-29.65l.418-3.325h33.546V1159.143h-7.041v-9.388h-10.125c-5.569 0-10.28.264-10.47.586-.19.323-.598 5.076-.907 10.562l-.562 9.975 4.46-2.346c10.755-5.657 21.49-1.414 26.723 10.562 2.04 4.668 1.92 16.07-.217 20.733-3.948 8.618-10.12 12.498-19.898 12.511-4.79.01-6.675-.374-9.95-2.006zM3443.666 1210.715c-1.936-.878-4.348-2.366-5.359-3.308-2.415-2.25-5.334-8.061-5.99-11.926-.288-1.697-.692-3.702-.9-4.455-.32-1.172.19-1.37 3.535-1.37h3.909l1.25 4.3c2.931 10.084 11.563 14.028 19.758 9.03 5.741-3.503 8.083-15.28 4.44-22.335-4.293-8.318-15.082-9.005-21.382-1.362l-2.25 2.73-3.161-2.54-3.161-2.54.417-4.79c.229-2.635.828-10.6 1.33-17.7l.914-12.91 17.017-.21 17.017-.211v18.025h-7.824v-9.388h-20.188l-.528 9.193c-.29 5.056-.701 9.809-.913 10.562-.5 1.787-.417 1.77 4.807-.978 8.13-4.277 16.788-2.77 22.511 3.916 3.897 4.552 5.596 9.917 5.52 17.425-.105 10.284-5.212 18.449-13.36 21.356-4.566 1.63-13.245 1.374-17.409-.514zM2929.473 1949.745v-8.997h7.042v9.388h20.217l.428-4.89c1.251-14.284 1.32-16.234.573-16.234-.432 0-1.024.389-1.318.864-1.13 1.827-7.075 3.796-11.515 3.813-11.286.043-18.452-7.727-19.173-20.788-.857-15.538 7.402-25.34 21.35-25.34 10.192 0 16.95 4.987 19.974 14.737 2.336 7.534 2.226 7.937-2.175 7.936h-3.716l-1.322-4.498c-1.585-5.392-5.038-9.234-9.338-10.392-9.125-2.457-16.298 4.441-16.298 15.674 0 9.568 4.251 14.857 11.948 14.863 4.48 0 6.158-.766 10.315-4.727l3.13-2.982 3.001 2.543 3.001 2.543-1.24 16.054c-.683 8.83-1.241 16.814-1.241 17.743 0 1.678-.111 1.689-16.822 1.689h-16.821v-8.998zM3435.16 1949.745v-8.997h7.042v9.388h10.124c5.569 0 10.28-.264 10.47-.586.19-.323.598-5.076.907-10.562l.563-9.975-4.462 2.346c-8.627 4.539-18.208 2.663-23.497-4.6-9.815-13.48-4.305-34.618 10.035-38.497 4.258-1.151 13.556-.545 16.705 1.09 5.86 3.042 10.118 9.683 11.008 17.166l.442 3.717H3466.826l-.954-4.016c-1.267-5.331-4.067-8.84-8.367-10.482-4.125-1.576-7.683-1.136-11.432 1.412-7.22 4.906-8.29 18.529-1.997 25.396 2.21 2.413 3.151 2.845 6.857 3.152 5.096.423 9.721-1.54 12.359-5.244l1.662-2.334 3.068 2.121c2.762 1.91 3.071 2.461 3.098 5.528.034 3.868-1.363 24.618-1.995 29.65l-.418 3.325h-33.547z"/><path style="fill:#d40000;fill-opacity:1;image-rendering:auto" d="M3063.193 1311.165c-.445-.697-2.462-3.903-4.483-7.124-6.985-11.135-11.427-16.629-21.701-26.842-10.274-10.213-15.801-14.629-27.002-21.573-3.24-2.01-6.466-4.014-7.167-4.456-1.12-.705-1.12-.9 0-1.605.701-.442 3.925-2.447 7.165-4.457 21.162-13.129 38.418-30.757 51.09-52.192L3064 1188l2.906 4.915c12.671 21.436 29.927 39.064 51.089 52.193 3.24 2.01 6.464 4.016 7.165 4.457 1.12.705 1.12.9 0 1.605-.7.442-3.926 2.447-7.167 4.456-11.2 6.944-16.727 11.36-27.001 21.573-10.275 10.213-14.717 15.707-21.702 26.842a2246.8 2246.8 0 0 1-4.483 7.124c-.709 1.113-.905 1.113-1.614 0zM3335.193 1311.165c-.445-.697-2.462-3.903-4.483-7.124-6.985-11.135-11.427-16.629-21.701-26.842-10.274-10.213-15.801-14.629-27.002-21.573-3.24-2.01-6.466-4.014-7.167-4.456-1.12-.705-1.12-.9 0-1.605.701-.442 3.925-2.447 7.165-4.457 21.162-13.129 38.418-30.757 51.09-52.192L3336 1188l2.906 4.915c12.671 21.436 29.927 39.064 51.089 52.193 3.24 2.01 6.464 4.016 7.165 4.457 1.12.705 1.12.9 0 1.605-.7.442-3.926 2.447-7.167 4.456-11.2 6.944-16.727 11.36-27.001 21.573-10.275 10.213-14.717 15.707-21.702 26.842a2246.8 2246.8 0 0 1-4.483 7.124c-.709 1.113-.905 1.113-1.614 0zM3199.193 1611.165c-.445-.697-2.462-3.903-4.483-7.124-6.985-11.135-11.427-16.629-21.701-26.842-10.274-10.213-15.801-14.629-27.002-21.573-3.24-2.01-6.466-4.014-7.167-4.456-1.12-.705-1.12-.9 0-1.605.701-.442 3.925-2.447 7.165-4.457 21.162-13.129 38.418-30.757 51.09-52.192L3200 1488l2.906 4.915c12.671 21.436 29.927 39.064 51.089 52.193 3.24 2.01 6.464 4.016 7.165 4.457 1.12.705 1.12.9 0 1.605-.7.442-3.926 2.447-7.167 4.456-11.2 6.944-16.727 11.36-27.001 21.573-10.275 10.213-14.717 15.707-21.702 26.842a2246.8 2246.8 0 0 1-4.483 7.124c-.709 1.113-.905 1.113-1.614 0zM3063.193 1911.165c-.445-.697-2.462-3.903-4.483-7.124-6.985-11.135-11.427-16.629-21.701-26.842-10.274-10.213-15.801-14.629-27.002-21.573-3.24-2.01-6.466-4.014-7.167-4.456-1.12-.705-1.12-.9 0-1.605.701-.442 3.925-2.447 7.165-4.457 21.162-13.129 38.418-30.757 51.09-52.192L3064 1788l2.906 4.915c12.671 21.436 29.927 39.064 51.089 52.193 3.24 2.01 6.464 4.016 7.165 4.457 1.12.705 1.12.9 0 1.605-.7.442-3.926 2.447-7.167 4.456-11.2 6.944-16.727 11.36-27.001 21.573-10.275 10.213-14.717 15.707-21.702 26.842a2246.8 2246.8 0 0 1-4.483 7.124c-.709 1.113-.905 1.113-1.614 0zM3335.193 1911.165c-.445-.697-2.462-3.903-4.483-7.124-6.985-11.135-11.427-16.629-21.701-26.842-10.274-10.213-15.801-14.629-27.002-21.573-3.24-2.01-6.466-4.014-7.167-4.456-1.12-.705-1.12-.9 0-1.605.701-.442 3.925-2.447 7.165-4.457 21.162-13.129 38.418-30.757 51.09-52.192L3336 1788l2.906 4.915c12.671 21.436 29.927 39.064 51.089 52.193 3.24 2.01 6.464 4.016 7.165 4.457 1.12.705 1.12.9 0 1.605-.7.442-3.926 2.447-7.167 4.456-11.2 6.944-16.727 11.36-27.001 21.573-10.275 10.213-14.717 15.707-21.702 26.842a2246.8 2246.8 0 0 1-4.483 7.124c-.709 1.113-.905 1.113-1.614 0z"/><path d="M2946.688 1283.676c-.172-.27-.953-1.51-1.735-2.757-2.705-4.31-4.424-6.437-8.401-10.39-3.977-3.954-6.117-5.664-10.452-8.352a977.284 977.284 0 0 1-2.775-1.724c-.433-.273-.433-.349 0-.622.272-.17 1.52-.947 2.774-1.725 8.192-5.082 14.87-11.906 19.776-20.204L2947 1236l1.125 1.903c4.905 8.298 11.585 15.122 19.776 20.204 1.255.778 2.503 1.554 2.774 1.725.434.273.434.349 0 .622-.271.17-1.52.947-2.774 1.724-4.336 2.688-6.475 4.398-10.453 8.351-3.977 3.954-5.696 6.08-8.4 10.39-.783 1.248-1.563 2.489-1.735 2.758-.275.431-.351.431-.625 0zM3453.313 1236.323c.171.27.952 1.511 1.734 2.758 2.706 4.31 4.425 6.437 8.401 10.39 3.977 3.954 6.118 5.663 10.453 8.351 1.255.778 2.502 1.554 2.774 1.725.433.273.433.348 0 .622-.272.17-1.52.947-2.774 1.725-8.192 5.082-14.87 11.906-19.776 20.203L3453 1284l-1.125-1.903c-4.905-8.297-11.585-15.121-19.776-20.203a804.481 804.481 0 0 1-2.774-1.725c-.434-.274-.434-.349 0-.622.271-.17 1.52-.947 2.774-1.725 4.337-2.688 6.476-4.397 10.454-8.35 3.977-3.954 5.696-6.08 8.4-10.39.783-1.248 1.562-2.489 1.734-2.759.275-.43.351-.43.625 0zM2946.688 1863.677c-.172-.27-.953-1.511-1.735-2.758-2.705-4.31-4.424-6.437-8.401-10.39-3.977-3.954-6.117-5.663-10.452-8.351a977.284 977.284 0 0 1-2.775-1.725c-.433-.273-.433-.348 0-.621.272-.171 1.52-.948 2.774-1.726 8.192-5.082 14.87-11.906 19.776-20.203L2947 1816l1.125 1.903c4.905 8.297 11.585 15.121 19.776 20.203 1.255.778 2.503 1.555 2.774 1.726.434.273.434.348 0 .621-.271.17-1.52.947-2.774 1.725-4.336 2.688-6.475 4.397-10.453 8.35-3.977 3.954-5.696 6.08-8.4 10.391-.783 1.247-1.563 2.488-1.735 2.758-.275.43-.351.43-.625 0zM3453.313 1816.324c.171.27.952 1.51 1.734 2.758 2.706 4.31 4.425 6.436 8.401 10.39 3.977 3.954 6.118 5.663 10.453 8.35 1.255.779 2.502 1.555 2.774 1.726.433.272.433.348 0 .621-.272.17-1.52.947-2.774 1.725-8.192 5.082-14.87 11.906-19.776 20.204L3453 1864l-1.125-1.903c-4.905-8.298-11.585-15.122-19.776-20.204a804.481 804.481 0 0 1-2.774-1.725c-.434-.273-.434-.349 0-.622.271-.17 1.52-.947 2.774-1.724 4.337-2.688 6.476-4.398 10.454-8.351 3.977-3.954 5.696-6.08 8.4-10.39.783-1.247 1.562-2.488 1.734-2.758.275-.431.351-.431.625 0z" style="fill:#fe0303;image-rendering:auto"/><path style="fill:#fffecd;fill-opacity:1;stroke:#fffecd;stroke-width:.433162;stroke-miterlimit:4;stroke-dasharray:none;stroke-opacity:1" d="M2983.862 1883.903c0-91.91.2-89.544-7.863-92.913-3.07-1.283-9.142-1.79-21.437-1.79h-17.154V1311.593l18.553-.803c13.772-.596 19.312-1.3 21.496-2.731 6.44-4.22 6.405-3.707 6.405-92.773v-82.557h432.606l.382 84.045c.365 80.59.478 84.189 2.734 87.52 3.355 4.952 6.289 5.69 25.96 6.54l17.53.758v477.436l-18.924.392c-18.73.388-18.958.426-22.243 3.714-2.671 2.674-3.498 4.939-4.24 11.613-.507 4.56-.95 42.811-.984 85.002l-.063 76.71h-432.758v-82.556zm87.479 18.071c9.418-14.497 29.605-34.556 44.36-44.078l11.425-7.373-10.203-6.816c-19.02-12.709-35.115-28.811-46.623-46.648-3.223-4.994-6.04-9.081-6.26-9.081-.22 0-3.178 4.263-6.573 9.474-11.954 18.346-26.309 32.745-45.135 45.274-5.573 3.709-10.133 7.141-10.133 7.628 0 .486 4.539 3.839 10.086 7.45 14.262 9.284 33.548 28.355 43.392 42.907 4.45 6.578 8.231 11.96 8.403 11.96.171 0 3.439-4.814 7.26-10.697zm272.541-.59c9.533-14.62 27.274-32.452 42.176-42.392 6.387-4.26 11.613-8.161 11.613-8.668 0-.506-5.226-4.41-11.613-8.673-15.081-10.068-32.77-27.818-42.192-42.336-4.025-6.203-7.594-11.272-7.93-11.265-.336.01-3.637 4.804-7.335 10.659-8.836 13.99-28.759 33.892-43.716 43.67-6.171 4.033-11.237 7.638-11.258 8.01-.02.37 5.051 3.927 11.27 7.904 14.699 9.397 34.522 29.215 43.704 43.692 3.698 5.83 7 10.61 7.335 10.624.336.013 3.912-5.039 7.946-11.226zm-135.339-301.057c9.29-13.92 29.341-33.588 43.654-42.822 5.874-3.789 10.201-7.319 9.618-7.844-.584-.526-5.35-3.815-10.59-7.31-19.435-12.957-33.99-27.847-46.347-47.414l-4.835-7.655-7.388 11.29c-9.51 14.534-29.722 34.777-44.064 44.13-5.883 3.838-10.677 7.37-10.654 7.851.023.482 4.827 3.9 10.673 7.599 13.86 8.766 34.195 28.885 43.608 43.145 3.903 5.912 7.52 10.588 8.039 10.39.519-.196 4.247-5.308 8.286-11.36zm-137.027-298.59c9.413-14.416 29.476-34.349 44.248-43.961l11.487-7.475-8.431-5.412c-20.47-13.14-35.588-28.034-48.44-47.727-3.42-5.239-6.588-9.09-7.038-8.557-.451.533-4.078 5.9-8.06 11.926-9.475 14.34-26.308 31.175-40.858 40.864-6.387 4.253-11.783 8.184-11.991 8.734-.208.55 4.468 4.162 10.391 8.025 13.939 9.091 34.41 29.518 43.677 43.583 3.876 5.883 7.269 10.697 7.539 10.697.27 0 3.634-4.814 7.476-10.697zm272.749-.917c9.373-13.994 28.21-32.73 42.401-42.174 6.05-4.026 11.118-7.737 11.262-8.245.144-.509-4.53-3.95-10.386-7.649-14.276-9.014-35.261-30.001-44.27-44.274-3.699-5.859-7-10.646-7.336-10.64-.336.01-3.362 4.497-6.723 9.976-8.393 13.68-30.684 36.003-44.884 44.95-5.86 3.691-10.673 7.021-10.697 7.4-.023.377 5.158 4.092 11.513 8.253 14.938 9.78 33.204 28.008 42.845 42.755 4.034 6.171 7.688 11.092 8.12 10.935.432-.157 4.102-5.236 8.155-11.287z"/></g></svg>