<svg height="123.003" width="78.999" xmlns="http://www.w3.org/2000/svg"><g transform="matrix(.13166 0 0 .13667 -197.497 -13.667)"><rect style="font-style:normal;font-variant:normal;font-weight:500;font-stretch:normal;font-size:medium;line-height:125%;font-family:Gaelic;-inkscape-font-specification:'Gaelic Medium';letter-spacing:0;word-spacing:0;fill:#fff;fill-opacity:1;stroke:#000;stroke-width:2.03317;stroke-linecap:butt;stroke-linejoin:miter;stroke-miterlimit:4;stroke-dasharray:none;stroke-opacity:1" y="101.016" x="1501.017" ry="49.888" rx="48.211" height="897.967" width="597.967"/><path d="M1798.718 310.632c0-2.809-6.253-13.8-11.371-19.989-2.913-3.522-11.413-13.06-18.89-21.195-7.476-8.135-15.047-16.705-16.825-19.044-4.582-6.027-9.765-16.908-11.05-23.195-2.887-14.132 5.232-30.316 18.456-36.786 5.18-2.535 5.916-2.668 12.369-2.228 6.068.413 7.54.868 12.743 3.94 5.901 3.485 11.956 9.521 13.93 13.886 1.338 2.962 2.502 2.962 3.84 0 1.974-4.365 8.029-10.4 13.93-13.885 5.203-3.073 6.675-3.528 12.743-3.941 6.453-.44 7.188-.307 12.37 2.228 13.223 6.47 21.342 22.654 18.455 36.786-1.285 6.287-6.468 17.168-11.05 23.195-1.778 2.34-9.35 10.909-16.826 19.044-7.476 8.135-15.976 17.673-18.89 21.195-5.117 6.189-11.37 17.18-11.37 19.989 0 .752-.577 1.368-1.282 1.368-.705 0-1.282-.616-1.282-1.368zM1798.718 789.368c0 2.809-6.253 13.8-11.371 19.989-2.913 3.522-11.413 13.06-18.89 21.195-7.476 8.135-15.047 16.704-16.825 19.043-4.582 6.028-9.765 16.909-11.05 23.196-2.887 14.132 5.232 30.316 18.456 36.786 5.18 2.535 5.916 2.668 12.369 2.228 6.068-.413 7.54-.869 12.743-3.941 5.901-3.484 11.956-9.52 13.93-13.886 1.338-2.962 2.502-2.962 3.84 0 1.974 4.366 8.029 10.402 13.93 13.886 5.203 3.072 6.675 3.528 12.743 3.941 6.453.44 7.188.307 12.37-2.228 13.223-6.47 21.342-22.654 18.455-36.786-1.285-6.287-6.468-17.168-11.05-23.196-1.778-2.339-9.35-10.908-16.826-19.043-7.476-8.136-15.976-17.673-18.89-21.195-5.117-6.19-11.37-17.18-11.37-19.989 0-.752-.577-1.368-1.282-1.368-.705 0-1.282.616-1.282 1.368z" style="fill:#d40000"/><path d="M1580.315 969.538c-.36-.367-.657-38.958-.657-85.759 0-82.258-.058-85.17-1.873-87.448-1.836-2.308-2.295-2.367-22.33-2.856l-20.455-.5V306.728l20.334-.5c17.804-.436 20.551-.72 22.084-2.281 1.644-1.675 1.78-6.989 2.24-87.864l.492-86.082h440.7l.491 86.082c.461 80.875.597 86.189 2.241 87.864 1.533 1.56 4.28 1.845 22.084 2.282l20.334.499v486.249l-20.334.499c-17.804.437-20.551.72-22.084 2.282-1.644 1.675-1.78 6.988-2.24 87.864l-.492 86.082-219.939.251c-120.967.139-220.234-.049-220.596-.416zm437.104-85.952c0-81.68.049-83.697 1.954-86.875 3.95-6.589 6.25-7.222 26.261-7.226l17.912-.004V310.22l-17.912-.004c-20.011-.004-22.312-.637-26.261-7.226-1.906-3.178-1.951-5.195-1.954-86.875v-83.62h-433.83v83.62c0 81.68-.05 83.697-1.954 86.876-3.95 6.588-6.25 7.221-26.261 7.226l-17.912.004V789.48l17.912.004c20.01.004 22.312.637 26.261 7.226 1.905 3.179 1.951 5.196 1.954 86.875v83.62h433.83z" style="fill:#b7b772"/><path style="fill:#d40000" d="M2052.508 283.47c0-1.087-2.396-5.342-4.358-7.737-1.117-1.364-4.375-5.056-7.241-8.205-2.866-3.149-5.769-6.466-6.45-7.371-1.757-2.334-3.743-6.546-4.236-8.98-1.107-5.47 2.006-11.735 7.075-14.24 1.986-.98 2.268-1.032 4.741-.862 2.326.16 2.89.337 4.885 1.526 2.262 1.349 4.583 3.685 5.34 5.375.513 1.147.959 1.147 1.472 0 .757-1.69 3.078-4.026 5.34-5.375 1.994-1.19 2.559-1.366 4.885-1.526 2.473-.17 2.755-.118 4.741.863 5.07 2.504 8.182 8.77 7.075 14.24-.493 2.433-2.48 6.645-4.236 8.979-.681.905-3.584 4.222-6.45 7.371-2.866 3.15-6.124 6.841-7.24 8.205-1.963 2.395-4.36 6.65-4.36 7.737 0 .292-.22.53-.491.53-.27 0-.491-.238-.491-.53zM1547.492 283.47c0-1.087 2.396-5.342 4.358-7.737 1.117-1.364 4.375-5.056 7.241-8.205 2.866-3.149 5.769-6.466 6.45-7.371 1.757-2.334 3.743-6.546 4.236-8.98 1.107-5.47-2.006-11.735-7.075-14.24-1.986-.98-2.268-1.032-4.741-.862-2.326.16-2.89.337-4.885 1.526-2.262 1.349-4.583 3.685-5.34 5.375-.513 1.147-.959 1.147-1.472 0-.757-1.69-3.077-4.026-5.34-5.375-1.994-1.19-2.559-1.366-4.885-1.526-2.473-.17-2.755-.118-4.741.863-5.07 2.504-8.182 8.77-7.075 14.24.493 2.433 2.48 6.645 4.236 8.979.681.905 3.584 4.222 6.45 7.371 2.866 3.15 6.124 6.841 7.24 8.205 1.963 2.395 4.36 6.65 4.36 7.737 0 .292.22.53.491.53.27 0 .491-.238.491-.53zM1547.492 816.53c0 1.087 2.396 5.342 4.358 7.737 1.117 1.364 4.375 5.056 7.241 8.205 2.866 3.15 5.769 6.466 6.45 7.372 1.757 2.333 3.743 6.545 4.236 8.979 1.107 5.47-2.006 11.735-7.075 14.24-1.986.98-2.268 1.032-4.741.862-2.326-.16-2.89-.336-4.885-1.526-2.262-1.348-4.583-3.685-5.34-5.375-.513-1.146-.959-1.146-1.472 0-.757 1.69-3.077 4.027-5.34 5.375-1.994 1.19-2.559 1.366-4.885 1.526-2.473.17-2.755.119-4.741-.863-5.07-2.504-8.182-8.769-7.075-14.24.493-2.433 2.48-6.645 4.236-8.978.681-.906 3.584-4.223 6.45-7.372 2.866-3.15 6.124-6.841 7.24-8.205 1.963-2.395 4.36-6.65 4.36-7.737 0-.291.22-.53.491-.53.27 0 .491.239.491.53zM2052.508 816.53c0 1.087-2.396 5.342-4.358 7.737-1.117 1.364-4.375 5.056-7.241 8.205-2.866 3.15-5.769 6.466-6.45 7.372-1.757 2.333-3.743 6.545-4.236 8.979-1.107 5.47 2.006 11.735 7.075 14.24 1.986.98 2.268 1.032 4.741.862 2.326-.16 2.89-.336 4.885-1.526 2.262-1.348 4.583-3.685 5.34-5.375.513-1.146.959-1.146 1.472 0 .757 1.69 3.078 4.027 5.34 5.375 1.994 1.19 2.559 1.366 4.885 1.526 2.473.17 2.755.119 4.741-.863 5.07-2.504 8.182-8.769 7.075-14.24-.493-2.433-2.48-6.645-4.236-8.978-.681-.906-3.584-4.223-6.45-7.372-2.866-3.15-6.124-6.841-7.24-8.205-1.963-2.395-4.36-6.65-4.36-7.737 0-.291-.22-.53-.491-.53-.27 0-.491.239-.491.53zM1798.718 310.632c0-2.809-6.253-13.8-11.371-19.989-2.913-3.522-11.413-13.06-18.89-21.195-7.476-8.135-15.047-16.705-16.825-19.044-4.582-6.027-9.765-16.908-11.05-23.195-2.887-14.132 5.232-30.316 18.456-36.786 5.18-2.535 5.916-2.668 12.369-2.228 6.068.413 7.54.868 12.743 3.94 5.901 3.485 11.956 9.521 13.93 13.886 1.338 2.962 2.502 2.962 3.84 0 1.974-4.365 8.029-10.4 13.93-13.885 5.203-3.073 6.675-3.528 12.743-3.941 6.453-.44 7.188-.307 12.37 2.228 13.223 6.47 21.342 22.654 18.455 36.786-1.285 6.287-6.468 17.168-11.05 23.195-1.778 2.34-9.35 10.909-16.826 19.044-7.476 8.135-15.976 17.673-18.89 21.195-5.117 6.189-11.37 17.18-11.37 19.989 0 .752-.577 1.368-1.282 1.368-.705 0-1.282-.616-1.282-1.368zM1798.718 789.368c0 2.809-6.253 13.8-11.371 19.989-2.913 3.522-11.413 13.06-18.89 21.195-7.476 8.135-15.047 16.704-16.825 19.043-4.582 6.028-9.765 16.909-11.05 23.196-2.887 14.132 5.232 30.316 18.456 36.786 5.18 2.535 5.916 2.668 12.369 2.228 6.068-.413 7.54-.869 12.743-3.941 5.901-3.484 11.956-9.52 13.93-13.886 1.338-2.962 2.502-2.962 3.84 0 1.974 4.366 8.029 10.402 13.93 13.886 5.203 3.072 6.675 3.528 12.743 3.941 6.453.44 7.188.307 12.37-2.228 13.223-6.47 21.342-22.654 18.455-36.786-1.285-6.287-6.468-17.168-11.05-23.196-1.778-2.339-9.35-10.908-16.826-19.043-7.476-8.136-15.976-17.673-18.89-21.195-5.117-6.19-11.37-17.18-11.37-19.989 0-.752-.577-1.368-1.282-1.368-.705 0-1.282.616-1.282 1.368z"/><path style="fill:#b7b772" d="M1580.315 969.538c-.36-.367-.657-38.958-.657-85.759 0-82.258-.058-85.17-1.873-87.448-1.836-2.308-2.295-2.367-22.33-2.856l-20.455-.5V306.728l20.334-.5c17.804-.436 20.551-.72 22.084-2.281 1.644-1.675 1.78-6.989 2.24-87.864l.492-86.082h440.7l.491 86.082c.461 80.875.597 86.189 2.241 87.864 1.533 1.56 4.28 1.845 22.084 2.282l20.334.499v486.249l-20.334.499c-17.804.437-20.551.72-22.084 2.282-1.644 1.675-1.78 6.988-2.24 87.864l-.492 86.082-219.939.251c-120.967.139-220.234-.049-220.596-.416zm437.104-85.952c0-81.68.049-83.697 1.954-86.875 3.95-6.589 6.25-7.222 26.261-7.226l17.912-.004V310.22l-17.912-.004c-20.011-.004-22.312-.637-26.261-7.226-1.906-3.178-1.951-5.195-1.954-86.875v-83.62h-433.83v83.62c0 81.68-.05 83.697-1.954 86.876-3.95 6.588-6.25 7.221-26.261 7.226l-17.912.004V789.48l17.912.004c20.01.004 22.312.637 26.261 7.226 1.905 3.179 1.951 5.196 1.954 86.875v83.62h433.83z"/><path d="M2052.508 283.47c0-1.087-2.396-5.342-4.358-7.737-1.117-1.364-4.375-5.056-7.241-8.205-2.866-3.149-5.769-6.466-6.45-7.371-1.757-2.334-3.743-6.546-4.236-8.98-1.107-5.47 2.006-11.735 7.075-14.24 1.986-.98 2.268-1.032 4.741-.862 2.326.16 2.89.337 4.885 1.526 2.262 1.349 4.583 3.685 5.34 5.375.513 1.147.959 1.147 1.472 0 .757-1.69 3.078-4.026 5.34-5.375 1.994-1.19 2.559-1.366 4.885-1.526 2.473-.17 2.755-.118 4.741.863 5.07 2.504 8.182 8.77 7.075 14.24-.493 2.433-2.48 6.645-4.236 8.979-.681.905-3.584 4.222-6.45 7.371-2.866 3.15-6.124 6.841-7.24 8.205-1.963 2.395-4.36 6.65-4.36 7.737 0 .292-.22.53-.491.53-.27 0-.491-.238-.491-.53zM1547.492 283.47c0-1.087 2.396-5.342 4.358-7.737 1.117-1.364 4.375-5.056 7.241-8.205 2.866-3.149 5.769-6.466 6.45-7.371 1.757-2.334 3.743-6.546 4.236-8.98 1.107-5.47-2.006-11.735-7.075-14.24-1.986-.98-2.268-1.032-4.741-.862-2.326.16-2.89.337-4.885 1.526-2.262 1.349-4.583 3.685-5.34 5.375-.513 1.147-.959 1.147-1.472 0-.757-1.69-3.077-4.026-5.34-5.375-1.994-1.19-2.559-1.366-4.885-1.526-2.473-.17-2.755-.118-4.741.863-5.07 2.504-8.182 8.77-7.075 14.24.493 2.433 2.48 6.645 4.236 8.979.681.905 3.584 4.222 6.45 7.371 2.866 3.15 6.124 6.841 7.24 8.205 1.963 2.395 4.36 6.65 4.36 7.737 0 .292.22.53.491.53.27 0 .491-.238.491-.53zM1547.492 816.53c0 1.087 2.396 5.342 4.358 7.737 1.117 1.364 4.375 5.056 7.241 8.205 2.866 3.15 5.769 6.466 6.45 7.372 1.757 2.333 3.743 6.545 4.236 8.979 1.107 5.47-2.006 11.735-7.075 14.24-1.986.98-2.268 1.032-4.741.862-2.326-.16-2.89-.336-4.885-1.526-2.262-1.348-4.583-3.685-5.34-5.375-.513-1.146-.959-1.146-1.472 0-.757 1.69-3.077 4.027-5.34 5.375-1.994 1.19-2.559 1.366-4.885 1.526-2.473.17-2.755.119-4.741-.863-5.07-2.504-8.182-8.769-7.075-14.24.493-2.433 2.48-6.645 4.236-8.978.681-.906 3.584-4.223 6.45-7.372 2.866-3.15 6.124-6.841 7.24-8.205 1.963-2.395 4.36-6.65 4.36-7.737 0-.291.22-.53.491-.53.27 0 .491.239.491.53zM2052.508 816.53c0 1.087-2.396 5.342-4.358 7.737-1.117 1.364-4.375 5.056-7.241 8.205-2.866 3.15-5.769 6.466-6.45 7.372-1.757 2.333-3.743 6.545-4.236 8.979-1.107 5.47 2.006 11.735 7.075 14.24 1.986.98 2.268 1.032 4.741.862 2.326-.16 2.89-.336 4.885-1.526 2.262-1.348 4.583-3.685 5.34-5.375.513-1.146.959-1.146 1.472 0 .757 1.69 3.078 4.027 5.34 5.375 1.994 1.19 2.559 1.366 4.885 1.526 2.473.17 2.755.119 4.741-.863 5.07-2.504 8.182-8.769 7.075-14.24-.493-2.433-2.48-6.645-4.236-8.978-.681-.906-3.584-4.223-6.45-7.372-2.866-3.15-6.124-6.841-7.24-8.205-1.963-2.395-4.36-6.65-4.36-7.737 0-.291-.22-.53-.491-.53-.27 0-.491.239-.491.53z" style="fill:#d40000"/><path d="M2052.508 283.47c0-1.087-2.396-5.342-4.358-7.737-1.117-1.364-4.375-5.056-7.241-8.205-2.866-3.149-5.769-6.466-6.45-7.371-1.757-2.334-3.743-6.546-4.236-8.98-1.107-5.47 2.006-11.735 7.075-14.24 1.986-.98 2.268-1.032 4.741-.862 2.326.16 2.89.337 4.885 1.526 2.262 1.349 4.583 3.685 5.34 5.375.513 1.147.959 1.147 1.472 0 .757-1.69 3.078-4.026 5.34-5.375 1.994-1.19 2.559-1.366 4.885-1.526 2.473-.17 2.755-.118 4.741.863 5.07 2.504 8.182 8.77 7.075 14.24-.493 2.433-2.48 6.645-4.236 8.979-.681.905-3.584 4.222-6.45 7.371-2.866 3.15-6.124 6.841-7.24 8.205-1.963 2.395-4.36 6.65-4.36 7.737 0 .292-.22.53-.491.53-.27 0-.491-.238-.491-.53zM1547.492 283.47c0-1.087 2.396-5.342 4.358-7.737 1.117-1.364 4.375-5.056 7.241-8.205 2.866-3.149 5.769-6.466 6.45-7.371 1.757-2.334 3.743-6.546 4.236-8.98 1.107-5.47-2.006-11.735-7.075-14.24-1.986-.98-2.268-1.032-4.741-.862-2.326.16-2.89.337-4.885 1.526-2.262 1.349-4.583 3.685-5.34 5.375-.513 1.147-.959 1.147-1.472 0-.757-1.69-3.077-4.026-5.34-5.375-1.994-1.19-2.559-1.366-4.885-1.526-2.473-.17-2.755-.118-4.741.863-5.07 2.504-8.182 8.77-7.075 14.24.493 2.433 2.48 6.645 4.236 8.979.681.905 3.584 4.222 6.45 7.371 2.866 3.15 6.124 6.841 7.24 8.205 1.963 2.395 4.36 6.65 4.36 7.737 0 .292.22.53.491.53.27 0 .491-.238.491-.53zM1547.492 816.53c0 1.087 2.396 5.342 4.358 7.737 1.117 1.364 4.375 5.056 7.241 8.205 2.866 3.15 5.769 6.466 6.45 7.372 1.757 2.333 3.743 6.545 4.236 8.979 1.107 5.47-2.006 11.735-7.075 14.24-1.986.98-2.268 1.032-4.741.862-2.326-.16-2.89-.336-4.885-1.526-2.262-1.348-4.583-3.685-5.34-5.375-.513-1.146-.959-1.146-1.472 0-.757 1.69-3.077 4.027-5.34 5.375-1.994 1.19-2.559 1.366-4.885 1.526-2.473.17-2.755.119-4.741-.863-5.07-2.504-8.182-8.769-7.075-14.24.493-2.433 2.48-6.645 4.236-8.978.681-.906 3.584-4.223 6.45-7.372 2.866-3.15 6.124-6.841 7.24-8.205 1.963-2.395 4.36-6.65 4.36-7.737 0-.291.22-.53.491-.53.27 0 .491.239.491.53zM2052.508 816.53c0 1.087-2.396 5.342-4.358 7.737-1.117 1.364-4.375 5.056-7.241 8.205-2.866 3.15-5.769 6.466-6.45 7.372-1.757 2.333-3.743 6.545-4.236 8.979-1.107 5.47 2.006 11.735 7.075 14.24 1.986.98 2.268 1.032 4.741.862 2.326-.16 2.89-.336 4.885-1.526 2.262-1.348 4.583-3.685 5.34-5.375.513-1.146.959-1.146 1.472 0 .757 1.69 3.078 4.027 5.34 5.375 1.994 1.19 2.559 1.366 4.885 1.526 2.473.17 2.755.119 4.741-.863 5.07-2.504 8.182-8.769 7.075-14.24-.493-2.433-2.48-6.645-4.236-8.978-.681-.906-3.584-4.223-6.45-7.372-2.866-3.15-6.124-6.841-7.24-8.205-1.963-2.395-4.36-6.65-4.36-7.737 0-.291-.22-.53-.491-.53-.27 0-.491.239-.491.53z" style="fill:#d40000"/><path style="fill:#d40000" d="M1547.492 816.53c0 1.087 2.396 5.342 4.358 7.737 1.117 1.364 4.375 5.056 7.241 8.205 2.866 3.15 5.769 6.466 6.45 7.372 1.757 2.333 3.743 6.545 4.236 8.979 1.107 5.47-2.006 11.735-7.075 14.24-1.986.98-2.268 1.032-4.741.862-2.326-.16-2.89-.336-4.885-1.526-2.262-1.348-4.583-3.685-5.34-5.375-.513-1.146-.959-1.146-1.472 0-.757 1.69-3.077 4.027-5.34 5.375-1.994 1.19-2.559 1.366-4.885 1.526-2.473.17-2.755.119-4.741-.863-5.07-2.504-8.182-8.769-7.075-14.24.493-2.433 2.48-6.645 4.236-8.978.681-.906 3.584-4.223 6.45-7.372 2.866-3.15 6.124-6.841 7.24-8.205 1.963-2.395 4.36-6.65 4.36-7.737 0-.291.22-.53.491-.53.27 0 .491.239.491.53zM2052.508 816.53c0 1.087-2.396 5.342-4.358 7.737-1.117 1.364-4.375 5.056-7.241 8.205-2.866 3.15-5.769 6.466-6.45 7.372-1.757 2.333-3.743 6.545-4.236 8.979-1.107 5.47 2.006 11.735 7.075 14.24 1.986.98 2.268 1.032 4.741.862 2.326-.16 2.89-.336 4.885-1.526 2.262-1.348 4.583-3.685 5.34-5.375.513-1.146.959-1.146 1.472 0 .757 1.69 3.078 4.027 5.34 5.375 1.994 1.19 2.559 1.366 4.885 1.526 2.473.17 2.755.119 4.741-.863 5.07-2.504 8.182-8.769 7.075-14.24-.493-2.433-2.48-6.645-4.236-8.978-.681-.906-3.584-4.223-6.45-7.372-2.866-3.15-6.124-6.841-7.24-8.205-1.963-2.395-4.36-6.65-4.36-7.737 0-.291-.22-.53-.491-.53-.27 0-.491.239-.491.53zM1798.718 610.632c0-2.809-6.253-13.8-11.371-19.989-2.913-3.522-11.413-13.06-18.89-21.195-7.476-8.135-15.047-16.705-16.825-19.044-4.582-6.027-9.765-16.908-11.05-23.195-2.887-14.132 5.232-30.316 18.456-36.786 5.18-2.535 5.916-2.668 12.369-2.228 6.068.413 7.54.869 12.743 3.94 5.901 3.485 11.956 9.521 13.93 13.887 1.338 2.961 2.502 2.961 3.84 0 1.974-4.366 8.029-10.402 13.93-13.886 5.203-3.072 6.675-3.528 12.743-3.941 6.453-.44 7.188-.307 12.37 2.228 13.223 6.47 21.342 22.654 18.455 36.786-1.285 6.287-6.468 17.168-11.05 23.195-1.778 2.34-9.35 10.909-16.826 19.044-7.476 8.135-15.976 17.673-18.89 21.195-5.117 6.189-11.37 17.18-11.37 19.989 0 .752-.577 1.368-1.282 1.368-.705 0-1.282-.616-1.282-1.368z"/><path d="M1541.138 179.785v-8.63q6.713 0 9.747-.853 3.08-.853 4.782-3.362 1.7-2.559 1.7-6.422 0-4.666-2.528-8.028-2.483-3.362-7.402-3.362-5.425 0-7.908 3.563-2.483 3.512-2.713 10.536h-8.873q0-12.042 5.425-17.11 5.471-5.117 13.38-5.117 9.608 0 14.482 5.168 4.874 5.168 4.874 13.196 0 5.92-2.805 9.984-2.759 4.065-6.253 5.77Q1569 178.983 1569 191.777q0 10.637-6.575 15.956-6.528 5.268-15.356 5.268-11.264 0-16.69-6.573-5.379-6.573-5.379-18.163h8.46q.23 8.028 4 12.293 3.816 4.214 10.115 4.214 5.747 0 9.011-3.462 3.31-3.512 3.31-8.83 0-5.57-3.861-9.132-3.863-3.613-12.322-3.613-1.104 0-2.575.05zM2047.138 179.785v-8.63q6.713 0 9.747-.853 3.08-.853 4.782-3.362 1.7-2.559 1.7-6.422 0-4.666-2.528-8.028-2.483-3.362-7.402-3.362-5.425 0-7.908 3.563-2.483 3.512-2.713 10.536h-8.873q0-12.042 5.425-17.11 5.471-5.117 13.38-5.117 9.608 0 14.482 5.168 4.873 5.168 4.873 13.196 0 5.92-2.804 9.984-2.759 4.065-6.253 5.77Q2075 178.983 2075 191.777q0 10.637-6.575 15.956-6.528 5.268-15.356 5.268-11.264 0-16.69-6.573-5.379-6.573-5.379-18.163h8.46q.23 8.028 4 12.293 3.816 4.214 10.115 4.214 5.747 0 9.011-3.462 3.31-3.512 3.31-8.83 0-5.57-3.862-9.132-3.862-3.613-12.321-3.613-1.104 0-2.575.05zM1552.862 920.215v8.63q-6.713 0-9.747.853-3.08.853-4.782 3.362-1.7 2.559-1.7 6.422 0 4.666 2.528 8.028 2.483 3.362 7.402 3.362 5.425 0 7.908-3.563 2.483-3.512 2.713-10.536h8.873q0 12.042-5.425 17.11-5.471 5.117-13.38 5.117-9.608 0-14.482-5.168-4.874-5.168-4.874-13.196 0-5.92 2.805-9.985 2.759-4.064 6.253-5.77Q1525 921.018 1525 908.224q0-10.637 6.575-15.956 6.528-5.268 15.356-5.268 11.264 0 16.69 6.573 5.379 6.573 5.379 18.163h-8.46q-.23-8.028-4-12.293-3.816-4.214-10.115-4.214-5.747 0-9.011 3.462-3.31 3.512-3.31 8.83 0 5.57 3.861 9.132 3.863 3.612 12.322 3.612 1.104 0 2.575-.05zM2058.862 920.215v8.63q-6.713 0-9.747.853-3.08.853-4.782 3.362-1.7 2.559-1.7 6.422 0 4.666 2.528 8.028 2.483 3.362 7.402 3.362 5.425 0 7.908-3.563 2.483-3.512 2.713-10.536h8.873q0 12.042-5.425 17.11-5.471 5.117-13.38 5.117-9.608 0-14.482-5.168-4.874-5.168-4.874-13.196 0-5.92 2.805-9.985 2.759-4.064 6.253-5.77Q2031 921.018 2031 908.224q0-10.637 6.575-15.956 6.528-5.268 15.356-5.268 11.264 0 16.69 6.573 5.379 6.573 5.379 18.163h-8.46q-.23-8.028-4-12.293-3.816-4.214-10.115-4.214-5.747 0-9.011 3.462-3.31 3.512-3.31 8.83 0 5.57 3.861 9.132 3.863 3.612 12.322 3.612 1.104 0 2.575-.05z" style="font-style:normal;font-variant:normal;font-weight:400;font-stretch:normal;font-size:medium;line-height:125%;font-family:Rockwell;-inkscape-font-specification:Rockwell;letter-spacing:0;word-spacing:0;fill:#d40000;fill-opacity:1;stroke:none;stroke-width:1px;stroke-linecap:butt;stroke-linejoin:miter;stroke-opacity:1"/><path style="fill:#fffecd;fill-opacity:1;stroke:#fffecd;stroke-width:.846019;stroke-miterlimit:4;stroke-dasharray:none;stroke-opacity:1" d="M1585.188 885.402c0-78.215-1.032-90.607-7.91-94.98-1.559-.991-11.162-1.82-21.339-1.84l-18.504-.036V311.015h18.644c30.155 0 27.795 7.563 28.626-91.73l.71-84.956h431.938v84.392c0 99.265-2.043 92.294 27.05 92.294h18.316V788.546h-17.377c-11.862 0-19.06 1.18-22.682 3.717l-5.307 3.717v169.253H1585.188v-79.831zm196.541 24.623c2.869-1.474 8.13-5.396 11.69-8.717l6.476-6.037 9.648 8.717c7.792 7.039 11.53 8.716 19.42 8.716 17.885 0 31.203-14.777 31.203-34.62 0-14.002-3.86-20.478-31.488-52.824-13.176-15.426-24.581-30.535-25.344-33.575-1.911-7.614-3.757-6.87-8.66 3.489-2.315 4.89-13.38 19.1-24.591 31.575-29.609 32.95-35.502 46.28-28.357 64.138 7.393 18.477 24.945 26.874 40.003 19.138zm23.59-305.925c2.057-4.268 13.31-18.551 25.007-31.74 11.697-13.19 23.23-28.119 25.631-33.177 11.576-24.394-2.288-51.481-26.35-51.481-8.614 0-12.069 1.494-19.973 8.634l-9.557 8.635-9.558-8.635c-8.061-7.282-11.276-8.634-20.534-8.634-9.232 0-12.227 1.25-18.848 7.872-10.826 10.826-13.776 22.544-9.392 37.306 2.54 8.554 9.02 17.917 25.124 36.3 11.936 13.625 24.022 28.793 26.858 33.708 2.836 4.914 5.763 8.943 6.504 8.953.742.01 3.032-3.473 5.088-7.741zm-.696-298.207c1.828-4.13 12.905-18.366 24.614-31.636 11.71-13.27 23.46-28.289 26.11-33.375 9.344-17.933 4.578-40.08-10.618-49.346-13.14-8.012-27.23-5.119-39.608 8.132l-5.7 6.102-4.658-5.923c-25.754-32.741-69.808 3.037-50.154 40.733 2.738 5.252 13.61 19.22 24.16 31.039 10.548 11.819 21.638 26.055 24.642 31.636 3.005 5.582 6.009 10.148 6.676 10.148.666 0 2.708-3.38 4.536-7.51z"/></g></svg>