<svg height="123.003" width="78.999" xmlns="http://www.w3.org/2000/svg"><g transform="matrix(.13166 0 0 .13667 -473.993 -13.667)"><rect style="font-style:normal;font-variant:normal;font-weight:500;font-stretch:normal;font-size:medium;line-height:125%;font-family:Gaelic;-inkscape-font-specification:'Gaelic Medium';letter-spacing:0;word-spacing:0;fill:#fff;fill-opacity:1;stroke:#000;stroke-width:2.03317;stroke-linecap:butt;stroke-linejoin:miter;stroke-miterlimit:4;stroke-dasharray:none;stroke-opacity:1" y="101.016" x="3601.017" ry="49.888" rx="48.211" height="897.967" width="597.967"/><path d="M3762.718 310.632c0-2.809-6.253-13.8-11.371-19.989-2.913-3.522-11.413-13.06-18.89-21.195-7.476-8.135-15.047-16.705-16.825-19.044-4.582-6.027-9.765-16.908-11.05-23.195-2.887-14.132 5.232-30.316 18.456-36.786 5.18-2.535 5.916-2.668 12.369-2.228 6.068.413 7.54.868 12.743 3.94 5.901 3.485 11.956 9.521 13.93 13.886 1.338 2.962 2.502 2.962 3.84 0 1.974-4.365 8.029-10.4 13.93-13.885 5.203-3.073 6.675-3.528 12.743-3.941 6.453-.44 7.188-.307 12.37 2.228 13.223 6.47 21.342 22.654 18.455 36.786-1.285 6.287-6.468 17.168-11.05 23.195-1.778 2.34-9.35 10.909-16.826 19.044-7.476 8.135-15.976 17.673-18.89 21.195-5.117 6.189-11.37 17.18-11.37 19.989 0 .752-.577 1.368-1.282 1.368-.705 0-1.282-.616-1.282-1.368zM4034.718 310.632c0-2.809-6.253-13.8-11.371-19.989-2.913-3.522-11.413-13.06-18.89-21.195-7.476-8.135-15.047-16.705-16.825-19.044-4.582-6.027-9.765-16.908-11.05-23.195-2.887-14.132 5.232-30.316 18.456-36.786 5.18-2.535 5.916-2.668 12.369-2.228 6.068.413 7.54.868 12.743 3.94 5.901 3.485 11.956 9.521 13.93 13.886 1.338 2.962 2.502 2.962 3.84 0 1.974-4.365 8.029-10.4 13.93-13.885 5.203-3.073 6.675-3.528 12.743-3.941 6.453-.44 7.188-.307 12.37 2.228 13.223 6.47 21.342 22.654 18.455 36.786-1.285 6.287-6.468 17.168-11.05 23.195-1.778 2.34-9.35 10.909-16.826 19.044-7.476 8.135-15.976 17.673-18.89 21.195-5.117 6.189-11.37 17.18-11.37 19.989 0 .752-.577 1.368-1.282 1.368-.705 0-1.282-.616-1.282-1.368zM3762.718 610.632c0-2.809-6.253-13.8-11.371-19.989-2.913-3.522-11.413-13.06-18.89-21.195-7.476-8.135-15.047-16.705-16.825-19.044-4.582-6.027-9.765-16.908-11.05-23.195-2.887-14.132 5.232-30.316 18.456-36.786 5.18-2.535 5.916-2.668 12.369-2.228 6.068.413 7.54.869 12.743 3.94 5.901 3.485 11.956 9.521 13.93 13.887 1.338 2.961 2.502 2.961 3.84 0 1.974-4.366 8.029-10.402 13.93-13.886 5.203-3.072 6.675-3.528 12.743-3.941 6.453-.44 7.188-.307 12.37 2.228 13.223 6.47 21.342 22.654 18.455 36.786-1.285 6.287-6.468 17.168-11.05 23.195-1.778 2.34-9.35 10.909-16.826 19.044-7.476 8.135-15.976 17.673-18.89 21.195-5.117 6.189-11.37 17.18-11.37 19.989 0 .752-.577 1.368-1.282 1.368-.705 0-1.282-.616-1.282-1.368zM4034.718 610.632c0-2.809-6.253-13.8-11.371-19.989-2.913-3.522-11.413-13.06-18.89-21.195-7.476-8.135-15.047-16.705-16.825-19.044-4.582-6.027-9.765-16.908-11.05-23.195-2.887-14.132 5.232-30.316 18.456-36.786 5.18-2.535 5.916-2.668 12.369-2.228 6.068.413 7.54.869 12.743 3.94 5.901 3.485 11.956 9.521 13.93 13.887 1.338 2.961 2.502 2.961 3.84 0 1.974-4.366 8.029-10.402 13.93-13.886 5.203-3.072 6.675-3.528 12.743-3.941 6.453-.44 7.188-.307 12.37 2.228 13.223 6.47 21.342 22.654 18.455 36.786-1.285 6.287-6.468 17.168-11.05 23.195-1.778 2.34-9.35 10.909-16.826 19.044-7.476 8.135-15.976 17.673-18.89 21.195-5.117 6.189-11.37 17.18-11.37 19.989 0 .752-.577 1.368-1.282 1.368-.705 0-1.282-.616-1.282-1.368zM3762.718 789.368c0 2.809-6.253 13.8-11.371 19.989-2.913 3.522-11.413 13.06-18.89 21.195-7.476 8.135-15.047 16.704-16.825 19.043-4.582 6.028-9.765 16.909-11.05 23.196-2.887 14.132 5.232 30.316 18.456 36.786 5.18 2.535 5.916 2.668 12.369 2.228 6.068-.413 7.54-.869 12.743-3.941 5.901-3.484 11.956-9.52 13.93-13.886 1.338-2.962 2.502-2.962 3.84 0 1.974 4.366 8.029 10.402 13.93 13.886 5.203 3.072 6.675 3.528 12.743 3.941 6.453.44 7.188.307 12.37-2.228 13.223-6.47 21.342-22.654 18.455-36.786-1.285-6.287-6.468-17.168-11.05-23.196-1.778-2.339-9.35-10.908-16.826-19.043-7.476-8.136-15.976-17.673-18.89-21.195-5.117-6.19-11.37-17.18-11.37-19.989 0-.752-.577-1.368-1.282-1.368-.705 0-1.282.616-1.282 1.368zM4034.718 789.368c0 2.809-6.253 13.8-11.371 19.989-2.913 3.522-11.413 13.06-18.89 21.195-7.476 8.135-15.047 16.704-16.825 19.043-4.582 6.028-9.765 16.909-11.05 23.196-2.887 14.132 5.232 30.316 18.456 36.786 5.18 2.535 5.916 2.668 12.369 2.228 6.068-.413 7.54-.869 12.743-3.941 5.901-3.484 11.956-9.52 13.93-13.886 1.338-2.962 2.502-2.962 3.84 0 1.974 4.366 8.029 10.402 13.93 13.886 5.203 3.072 6.675 3.528 12.743 3.941 6.453.44 7.188.307 12.37-2.228 13.223-6.47 21.342-22.654 18.455-36.786-1.285-6.287-6.468-17.168-11.05-23.196-1.778-2.339-9.35-10.908-16.826-19.043-7.476-8.136-15.976-17.673-18.89-21.195-5.117-6.19-11.37-17.18-11.37-19.989 0-.752-.577-1.368-1.282-1.368-.705 0-1.282.616-1.282 1.368z" style="fill:#d40000"/><path d="M3680.315 969.538c-.36-.367-.657-38.958-.657-85.759 0-82.258-.058-85.17-1.873-87.448-1.836-2.308-2.295-2.367-22.33-2.856l-20.455-.5V306.728l20.334-.5c17.804-.436 20.551-.72 22.084-2.281 1.644-1.675 1.78-6.989 2.24-87.864l.492-86.082h440.7l.491 86.082c.461 80.875.597 86.189 2.241 87.864 1.533 1.56 4.28 1.845 22.084 2.282l20.334.499v486.249l-20.334.499c-17.804.437-20.551.72-22.084 2.282-1.644 1.675-1.78 6.988-2.24 87.864l-.492 86.082-219.939.251c-120.967.139-220.234-.049-220.596-.416zm437.104-85.952c0-81.68.049-83.697 1.954-86.875 3.95-6.589 6.25-7.222 26.261-7.226l17.912-.004V310.22l-17.912-.004c-20.011-.004-22.312-.637-26.261-7.226-1.906-3.178-1.951-5.195-1.954-86.875v-83.62h-433.83v83.62c0 81.68-.05 83.697-1.954 86.876-3.95 6.588-6.25 7.221-26.261 7.226l-17.912.004V789.48l17.912.004c20.01.004 22.312.637 26.261 7.226 1.905 3.179 1.951 5.196 1.954 86.875v83.62h433.83z" style="fill:#b7b772"/><path style="fill:#d40000" d="M4152.508 283.47c0-1.087-2.396-5.342-4.358-7.737-1.117-1.364-4.375-5.056-7.241-8.205-2.866-3.149-5.769-6.466-6.45-7.371-1.757-2.334-3.743-6.546-4.236-8.98-1.107-5.47 2.006-11.735 7.075-14.24 1.986-.98 2.268-1.032 4.741-.862 2.326.16 2.89.337 4.885 1.526 2.262 1.349 4.583 3.685 5.34 5.375.513 1.147.959 1.147 1.472 0 .757-1.69 3.077-4.026 5.34-5.375 1.994-1.19 2.558-1.366 4.885-1.526 2.473-.17 2.755-.118 4.741.863 5.07 2.504 8.182 8.77 7.075 14.24-.493 2.433-2.48 6.645-4.236 8.979-.681.905-3.584 4.222-6.45 7.371-2.866 3.15-6.124 6.841-7.24 8.205-1.963 2.395-4.36 6.65-4.36 7.737 0 .292-.22.53-.491.53-.27 0-.491-.238-.491-.53zM3647.492 283.47c0-1.087 2.396-5.342 4.358-7.737 1.117-1.364 4.375-5.056 7.241-8.205 2.866-3.149 5.769-6.466 6.45-7.371 1.756-2.334 3.743-6.546 4.236-8.98 1.107-5.47-2.006-11.735-7.075-14.24-1.986-.98-2.268-1.032-4.741-.862-2.326.16-2.89.337-4.885 1.526-2.262 1.349-4.583 3.685-5.34 5.375-.513 1.147-.959 1.147-1.472 0-.757-1.69-3.078-4.026-5.34-5.375-1.994-1.19-2.559-1.366-4.885-1.526-2.473-.17-2.755-.118-4.741.863-5.07 2.504-8.182 8.77-7.075 14.24.493 2.433 2.48 6.645 4.236 8.979.681.905 3.584 4.222 6.45 7.371 2.866 3.15 6.124 6.841 7.24 8.205 1.963 2.395 4.36 6.65 4.36 7.737 0 .292.22.53.491.53.27 0 .491-.238.491-.53zM3647.492 816.53c0 1.087 2.396 5.342 4.358 7.737 1.117 1.364 4.375 5.056 7.241 8.205 2.866 3.15 5.769 6.466 6.45 7.372 1.756 2.333 3.743 6.545 4.236 8.979 1.107 5.47-2.006 11.735-7.075 14.24-1.986.98-2.268 1.032-4.741.862-2.326-.16-2.89-.336-4.885-1.526-2.262-1.348-4.583-3.685-5.34-5.375-.513-1.146-.959-1.146-1.472 0-.757 1.69-3.078 4.027-5.34 5.375-1.994 1.19-2.559 1.366-4.885 1.526-2.473.17-2.755.119-4.741-.863-5.07-2.504-8.182-8.769-7.075-14.24.493-2.433 2.48-6.645 4.236-8.978.681-.906 3.584-4.223 6.45-7.372 2.866-3.15 6.124-6.841 7.24-8.205 1.963-2.395 4.36-6.65 4.36-7.737 0-.291.22-.53.491-.53.27 0 .491.239.491.53zM4152.508 816.53c0 1.087-2.396 5.342-4.358 7.737-1.117 1.364-4.375 5.056-7.241 8.205-2.866 3.15-5.769 6.466-6.45 7.372-1.757 2.333-3.743 6.545-4.236 8.979-1.107 5.47 2.006 11.735 7.075 14.24 1.986.98 2.268 1.032 4.741.862 2.326-.16 2.89-.336 4.885-1.526 2.262-1.348 4.583-3.685 5.34-5.375.513-1.146.959-1.146 1.472 0 .757 1.69 3.077 4.027 5.34 5.375 1.994 1.19 2.558 1.366 4.885 1.526 2.473.17 2.755.119 4.741-.863 5.07-2.504 8.182-8.769 7.075-14.24-.493-2.433-2.48-6.645-4.236-8.978-.681-.906-3.584-4.223-6.45-7.372-2.866-3.15-6.124-6.841-7.24-8.205-1.963-2.395-4.36-6.65-4.36-7.737 0-.291-.22-.53-.491-.53-.27 0-.491.239-.491.53z"/><path d="M3668.509 162.726h-8.3q-.736-5.971-4.124-9.734-3.34-3.763-8.152-3.763-6.531 0-10.165 6.974-3.634 6.924-3.781 19.016 6.973-7.727 16.058-7.727 7.808 0 13.357 5.92 5.598 5.87 5.598 15.755 0 9.834-5.5 16.859Q3658 213 3648.473 213q-10.656 0-17.09-8.931-6.383-8.981-6.383-26.642 0-16.809 6.188-26.593 6.187-9.834 17.825-9.834 9.134 0 14.143 6.171 5.058 6.122 5.353 15.555zm-34.031 23.03q2.21 18.965 13.553 18.965 5.795 0 9.036-4.365 3.241-4.365 3.241-10.436 0-5.97-3.094-9.634-3.044-3.662-8.25-3.662-7.317 0-14.486 9.131zM4174.509 162.726h-8.3q-.736-5.971-4.124-9.734-3.34-3.763-8.152-3.763-6.531 0-10.165 6.974-3.634 6.924-3.781 19.016 6.973-7.727 16.058-7.727 7.808 0 13.357 5.92 5.598 5.87 5.598 15.755 0 9.834-5.5 16.859Q4164 213 4154.473 213q-10.656 0-17.09-8.931-6.383-8.981-6.383-26.642 0-16.809 6.188-26.593 6.187-9.834 17.825-9.834 9.134 0 14.143 6.171 5.058 6.122 5.353 15.555zm-34.031 23.03q2.21 18.965 13.553 18.965 5.795 0 9.036-4.365 3.241-4.365 3.241-10.436 0-5.97-3.094-9.634-3.044-3.662-8.25-3.662-7.317 0-14.486 9.131zM3625.491 937.274h8.3q.736 5.971 4.124 9.734 3.34 3.763 8.152 3.763 6.531 0 10.165-6.974 3.634-6.924 3.781-19.016-6.973 7.727-16.058 7.727-7.808 0-13.357-5.92-5.598-5.87-5.598-15.755 0-9.834 5.5-16.859Q3636 887 3645.527 887q10.656 0 17.09 8.931 6.383 8.981 6.383 26.642 0 16.809-6.188 26.593-6.187 9.834-17.825 9.834-9.134 0-14.143-6.172-5.058-6.12-5.353-15.554zm34.031-23.03q-2.21-18.965-13.553-18.965-5.795 0-9.036 4.365-3.241 4.365-3.241 10.436 0 5.97 3.094 9.634 3.044 3.662 8.25 3.662 7.317 0 14.486-9.132zM4131.491 937.274h8.3q.736 5.971 4.124 9.734 3.34 3.763 8.152 3.763 6.531 0 10.165-6.974 3.634-6.924 3.781-19.016-6.973 7.727-16.058 7.727-7.808 0-13.357-5.92-5.598-5.87-5.598-15.755 0-9.834 5.5-16.859Q4142 887 4151.527 887q10.656 0 17.09 8.931 6.383 8.981 6.383 26.642 0 16.809-6.188 26.593-6.187 9.834-17.825 9.834-9.134 0-14.143-6.172-5.058-6.12-5.353-15.554zm34.031-23.03q-2.21-18.965-13.553-18.965-5.795 0-9.036 4.365-3.241 4.365-3.241 10.436 0 5.97 3.094 9.634 3.044 3.662 8.25 3.662 7.317 0 14.486-9.132z" style="font-style:normal;font-variant:normal;font-weight:400;font-stretch:normal;font-size:medium;line-height:125%;font-family:Rockwell;-inkscape-font-specification:Rockwell;letter-spacing:0;word-spacing:0;fill:#d40000;fill-opacity:1;stroke:none;stroke-width:1px;stroke-linecap:butt;stroke-linejoin:miter;stroke-opacity:1"/><path style="fill:#fffecd;fill-opacity:1;stroke:#fffecd;stroke-width:.846019;stroke-miterlimit:4;stroke-dasharray:none;stroke-opacity:1" d="M3684.738 881.068c-1.934-98.992.108-92.522-29.19-92.522h-17.643V311.015h18.732c14.807 0 19.523-.875 22.512-4.178 3.224-3.564 4.034-16.553 5.507-88.343l1.727-84.165h428.331l1.312 83.709c1.558 99.365-.395 92.977 28.432 92.977h18.732V788.546h-17.643c-30.006 0-27.962-6.412-29.515 92.616l-1.318 84.07h-428.331zm64.722 26.929c4.23-2.58 9.015-6.81 10.633-9.4 2.818-4.511 3.367-4.315 13.147 4.7 7.91 7.29 12.124 9.407 18.734 9.407 26.284 0 40.208-27.404 27.042-53.22-2.82-5.529-14.198-20.222-25.284-32.65-11.086-12.43-22.345-26.89-25.02-32.134l-4.865-9.535-5.557 10.644c-3.056 5.855-14.293 20.315-24.97 32.134-33.237 36.79-38.194 56.588-18.98 75.801 7.271 7.272 10.699 8.959 18.194 8.951 5.079-.005 12.696-2.119 16.926-4.698zm270.378 1.174c3.758-1.944 8.991-6.277 11.629-9.63 4.538-5.77 4.965-5.865 7.97-1.773 15.084 20.537 42.607 19.26 52.91-2.453 9.376-19.756 3.474-35.097-26.094-67.837-10.904-12.074-22.123-26.454-24.929-31.955l-5.102-10.002-6.83 11.66c-3.755 6.413-15.052 20.793-25.103 31.955-18.248 20.266-29.657 39.327-29.7 49.62-.039 8.924 5.98 20.611 14.16 27.494 8.78 7.387 20.35 8.474 31.089 2.92zm-250.059-305.332c2.104-4.411 13.02-18.368 24.257-31.014 11.238-12.646 22.61-27.26 25.27-32.474 12.418-24.343-1.074-52.65-25.096-52.65-9.576 0-23.622 7.32-27.326 14.242-2.056 3.842-3.244 3.349-12.009-4.989-8.388-7.98-11.23-9.252-20.651-9.252-9.442 0-12.14 1.216-19.885 8.96-11.443 11.443-14.046 23.948-8.086 38.844 2.292 5.73 14.141 21.74 26.363 35.62 12.21 13.868 23.88 28.706 25.935 32.974 2.055 4.268 4.561 7.76 5.57 7.76 1.008 0 3.554-3.61 5.658-8.021zm272.263-.148c2.143-4.493 13.095-18.521 24.34-31.175 11.244-12.653 22.583-27.2 25.198-32.326 12.34-24.187-1.236-52.488-25.177-52.488-9.577 0-23.622 7.32-27.326 14.241-2.057 3.842-3.245 3.349-12.009-4.989-8.26-7.857-11.304-9.252-20.187-9.252-7.885 0-12.35 1.59-18.132 6.454-8.18 6.883-14.2 18.57-14.16 27.493.043 10.397 11.635 29.437 30.935 50.815 10.67 11.818 21.521 25.518 24.114 30.442 2.594 4.925 5.569 8.954 6.612 8.954 1.043 0 3.65-3.676 5.792-8.169zm-272.24-299.303c2.287-4.891 13.283-19.1 24.436-31.575 11.153-12.476 22.444-27.051 25.091-32.39 9.027-18.206 4.386-39.463-10.645-48.753-13.351-8.251-24.126-6.066-38.86 7.88-4.269 4.04-7.76 6.067-7.76 4.504 0-4.985-19.34-17.197-27.22-17.188-15.223.019-32.296 18.26-32.396 34.612-.061 9.915 12.007 29.469 32.753 53.071 11.804 13.43 22.808 27.667 24.452 31.637 1.645 3.97 3.665 7.19 4.49 7.155.827-.034 3.373-4.063 5.66-8.953zm271.387.061c2.553-4.924 13.706-19.16 24.783-31.636 25.003-28.158 31.282-39.734 29.818-54.974-2.184-22.726-23.22-37.322-40.799-28.308-2.868 1.471-8.707 5.98-12.975 10.02-4.268 4.04-7.76 6.066-7.76 4.503 0-4.77-19.324-17.197-26.74-17.197-16.95 0-31.352 15.166-31.537 33.207-.156 15.236 4.779 23.866 30.57 53.47 12.343 14.166 23.756 28.932 25.364 32.813 1.607 3.88 3.307 7.056 3.778 7.056.47 0 2.945-4.03 5.498-8.954z"/></g></svg>