<svg height="123.003" width="78.999" xmlns="http://www.w3.org/2000/svg"><g transform="matrix(.13166 0 0 .13667 -566.159 -13.667)"><rect width="597.967" height="897.967" rx="48.211" ry="49.888" x="4301.017" y="101.016" style="font-style:normal;font-variant:normal;font-weight:500;font-stretch:normal;font-size:medium;line-height:125%;font-family:Gaelic;-inkscape-font-specification:'Gaelic Medium';letter-spacing:0;word-spacing:0;fill:#fff;fill-opacity:1;stroke:#000;stroke-width:2.03317;stroke-linecap:butt;stroke-linejoin:miter;stroke-miterlimit:4;stroke-dasharray:none;stroke-opacity:1"/><path style="fill:#d40000" d="M4462.718 310.632c0-2.809-6.253-13.8-11.371-19.989-2.913-3.522-11.413-13.06-18.89-21.195-7.476-8.135-15.047-16.705-16.825-19.044-4.582-6.027-9.765-16.908-11.05-23.195-2.887-14.132 5.232-30.316 18.456-36.786 5.18-2.535 5.916-2.668 12.369-2.228 6.068.413 7.54.868 12.743 3.94 5.901 3.485 11.956 9.521 13.93 13.886 1.338 2.962 2.502 2.962 3.84 0 1.974-4.365 8.029-10.4 13.93-13.885 5.203-3.073 6.675-3.528 12.743-3.941 6.453-.44 7.188-.307 12.37 2.228 13.223 6.47 21.342 22.654 18.455 36.786-1.285 6.287-6.468 17.168-11.05 23.195-1.778 2.34-9.35 10.909-16.826 19.044-7.476 8.135-15.976 17.673-18.89 21.195-5.117 6.189-11.37 17.18-11.37 19.989 0 .752-.577 1.368-1.282 1.368-.705 0-1.282-.616-1.282-1.368zM4734.718 310.632c0-2.809-6.253-13.8-11.371-19.989-2.913-3.522-11.413-13.06-18.89-21.195-7.476-8.135-15.047-16.705-16.825-19.044-4.582-6.027-9.765-16.908-11.05-23.195-2.887-14.132 5.232-30.316 18.456-36.786 5.18-2.535 5.916-2.668 12.369-2.228 6.068.413 7.54.868 12.743 3.94 5.901 3.485 11.956 9.521 13.93 13.886 1.338 2.962 2.502 2.962 3.84 0 1.974-4.365 8.029-10.4 13.93-13.885 5.203-3.073 6.675-3.528 12.743-3.941 6.453-.44 7.188-.307 12.37 2.228 13.223 6.47 21.342 22.654 18.455 36.786-1.285 6.287-6.468 17.168-11.05 23.195-1.778 2.34-9.35 10.909-16.826 19.044-7.476 8.135-15.976 17.673-18.89 21.195-5.117 6.189-11.37 17.18-11.37 19.989 0 .752-.577 1.368-1.282 1.368-.705 0-1.282-.616-1.282-1.368zM4462.718 610.632c0-2.809-6.253-13.8-11.371-19.989-2.913-3.522-11.413-13.06-18.89-21.195-7.476-8.135-15.047-16.705-16.825-19.044-4.582-6.027-9.765-16.908-11.05-23.195-2.887-14.132 5.232-30.316 18.456-36.786 5.18-2.535 5.916-2.668 12.369-2.228 6.068.413 7.54.869 12.743 3.94 5.901 3.485 11.956 9.521 13.93 13.887 1.338 2.961 2.502 2.961 3.84 0 1.974-4.366 8.029-10.402 13.93-13.886 5.203-3.072 6.675-3.528 12.743-3.941 6.453-.44 7.188-.307 12.37 2.228 13.223 6.47 21.342 22.654 18.455 36.786-1.285 6.287-6.468 17.168-11.05 23.195-1.778 2.34-9.35 10.909-16.826 19.044-7.476 8.135-15.976 17.673-18.89 21.195-5.117 6.189-11.37 17.18-11.37 19.989 0 .752-.577 1.368-1.282 1.368-.705 0-1.282-.616-1.282-1.368zM4734.718 610.632c0-2.809-6.253-13.8-11.371-19.989-2.913-3.522-11.413-13.06-18.89-21.195-7.476-8.135-15.047-16.705-16.825-19.044-4.582-6.027-9.765-16.908-11.05-23.195-2.887-14.132 5.232-30.316 18.456-36.786 5.18-2.535 5.916-2.668 12.369-2.228 6.068.413 7.54.869 12.743 3.94 5.901 3.485 11.956 9.521 13.93 13.887 1.338 2.961 2.502 2.961 3.84 0 1.974-4.366 8.029-10.402 13.93-13.886 5.203-3.072 6.675-3.528 12.743-3.941 6.453-.44 7.188-.307 12.37 2.228 13.223 6.47 21.342 22.654 18.455 36.786-1.285 6.287-6.468 17.168-11.05 23.195-1.778 2.34-9.35 10.909-16.826 19.044-7.476 8.135-15.976 17.673-18.89 21.195-5.117 6.189-11.37 17.18-11.37 19.989 0 .752-.577 1.368-1.282 1.368-.705 0-1.282-.616-1.282-1.368zM4462.718 789.368c0 2.809-6.253 13.8-11.371 19.989-2.913 3.522-11.413 13.06-18.89 21.195-7.476 8.135-15.047 16.704-16.825 19.043-4.582 6.028-9.765 16.909-11.05 23.196-2.887 14.132 5.232 30.316 18.456 36.786 5.18 2.535 5.916 2.668 12.369 2.228 6.068-.413 7.54-.869 12.743-3.941 5.901-3.484 11.956-9.52 13.93-13.886 1.338-2.962 2.502-2.962 3.84 0 1.974 4.366 8.029 10.402 13.93 13.886 5.203 3.072 6.675 3.528 12.743 3.941 6.453.44 7.188.307 12.37-2.228 13.223-6.47 21.342-22.654 18.455-36.786-1.285-6.287-6.468-17.168-11.05-23.196-1.778-2.339-9.35-10.908-16.826-19.043-7.476-8.136-15.976-17.673-18.89-21.195-5.117-6.19-11.37-17.18-11.37-19.989 0-.752-.577-1.368-1.282-1.368-.705 0-1.282.616-1.282 1.368zM4734.718 789.368c0 2.809-6.253 13.8-11.371 19.989-2.913 3.522-11.413 13.06-18.89 21.195-7.476 8.135-15.047 16.704-16.825 19.043-4.582 6.028-9.765 16.909-11.05 23.196-2.887 14.132 5.232 30.316 18.456 36.786 5.18 2.535 5.916 2.668 12.369 2.228 6.068-.413 7.54-.869 12.743-3.941 5.901-3.484 11.956-9.52 13.93-13.886 1.338-2.962 2.502-2.962 3.84 0 1.974 4.366 8.029 10.402 13.93 13.886 5.203 3.072 6.675 3.528 12.743 3.941 6.453.44 7.188.307 12.37-2.228 13.223-6.47 21.342-22.654 18.455-36.786-1.285-6.287-6.468-17.168-11.05-23.196-1.778-2.339-9.35-10.908-16.826-19.043-7.476-8.136-15.976-17.673-18.89-21.195-5.117-6.19-11.37-17.18-11.37-19.989 0-.752-.577-1.368-1.282-1.368-.705 0-1.282.616-1.282 1.368zM4598.718 458.632c0-2.809-6.253-13.8-11.371-19.989-2.913-3.522-11.413-13.06-18.89-21.195-7.476-8.135-15.047-16.705-16.825-19.043-4.582-6.028-9.765-16.909-11.05-23.196-2.887-14.132 5.232-30.316 18.456-36.786 5.18-2.535 5.916-2.668 12.369-2.228 6.068.413 7.54.869 12.743 3.94 5.901 3.485 11.956 9.521 13.93 13.887 1.338 2.961 2.502 2.961 3.84 0 1.974-4.366 8.029-10.402 13.93-13.886 5.203-3.072 6.675-3.528 12.743-3.941 6.453-.44 7.188-.307 12.37 2.228 13.223 6.47 21.342 22.654 18.455 36.786-1.285 6.287-6.468 17.168-11.05 23.195-1.778 2.34-9.35 10.909-16.826 19.044-7.476 8.135-15.976 17.673-18.89 21.195-5.117 6.189-11.37 17.18-11.37 19.989 0 .752-.577 1.368-1.282 1.368-.705 0-1.282-.616-1.282-1.368z"/><path style="fill:#b7b772" d="M4380.315 969.538c-.36-.367-.656-38.958-.656-85.759 0-82.258-.06-85.17-1.874-87.448-1.836-2.308-2.295-2.367-22.33-2.856l-20.455-.5V306.728l20.334-.5c17.804-.436 20.551-.72 22.084-2.281 1.644-1.675 1.78-6.989 2.24-87.864l.492-86.082h440.7l.491 86.082c.461 80.875.597 86.189 2.241 87.864 1.533 1.56 4.28 1.845 22.084 2.282l20.334.499v486.249l-20.334.499c-17.804.437-20.551.72-22.084 2.282-1.644 1.675-1.78 6.988-2.24 87.864l-.492 86.082-219.939.251c-120.967.139-220.234-.049-220.596-.416zm437.104-85.952c0-81.68.049-83.697 1.954-86.875 3.95-6.589 6.25-7.222 26.261-7.226l17.912-.004V310.22l-17.912-.004c-20.011-.004-22.312-.637-26.261-7.226-1.906-3.178-1.951-5.195-1.954-86.875v-83.62h-433.83v83.62c0 81.68-.05 83.697-1.954 86.876-3.95 6.588-6.25 7.221-26.261 7.226l-17.912.004V789.48l17.912.004c20.01.004 22.312.637 26.261 7.226 1.905 3.179 1.951 5.196 1.954 86.875v83.62h433.83z"/><path d="M4852.508 283.47c0-1.087-2.396-5.342-4.358-7.737-1.117-1.364-4.375-5.056-7.241-8.205-2.866-3.149-5.769-6.466-6.45-7.371-1.757-2.334-3.743-6.546-4.236-8.98-1.107-5.47 2.006-11.735 7.075-14.24 1.986-.98 2.268-1.032 4.741-.862 2.326.16 2.89.337 4.885 1.526 2.262 1.349 4.583 3.685 5.34 5.375.513 1.147.959 1.147 1.472 0 .757-1.69 3.077-4.026 5.34-5.375 1.994-1.19 2.558-1.366 4.885-1.526 2.473-.17 2.755-.118 4.741.863 5.07 2.504 8.182 8.77 7.075 14.24-.493 2.433-2.48 6.645-4.236 8.979-.681.905-3.584 4.222-6.45 7.371-2.866 3.15-6.124 6.841-7.24 8.205-1.963 2.395-4.36 6.65-4.36 7.737 0 .292-.22.53-.491.53-.27 0-.491-.238-.491-.53zM4347.492 283.47c0-1.087 2.396-5.342 4.358-7.737 1.117-1.364 4.375-5.056 7.241-8.205 2.866-3.149 5.769-6.466 6.45-7.371 1.757-2.334 3.743-6.546 4.236-8.98 1.107-5.47-2.006-11.735-7.075-14.24-1.986-.98-2.268-1.032-4.741-.862-2.326.16-2.89.337-4.885 1.526-2.262 1.349-4.583 3.685-5.34 5.375-.513 1.147-.959 1.147-1.472 0-.757-1.69-3.077-4.026-5.34-5.375-1.994-1.19-2.558-1.366-4.885-1.526-2.473-.17-2.755-.118-4.741.863-5.07 2.504-8.182 8.77-7.075 14.24.493 2.433 2.48 6.645 4.236 8.979.681.905 3.584 4.222 6.45 7.371 2.866 3.15 6.124 6.841 7.24 8.205 1.963 2.395 4.36 6.65 4.36 7.737 0 .292.22.53.491.53.27 0 .491-.238.491-.53zM4347.492 816.53c0 1.087 2.396 5.342 4.358 7.737 1.117 1.364 4.375 5.056 7.241 8.205 2.866 3.15 5.769 6.466 6.45 7.372 1.757 2.333 3.743 6.545 4.236 8.979 1.107 5.47-2.006 11.735-7.075 14.24-1.986.98-2.268 1.032-4.741.862-2.326-.16-2.89-.336-4.885-1.526-2.262-1.348-4.583-3.685-5.34-5.375-.513-1.146-.959-1.146-1.472 0-.757 1.69-3.077 4.027-5.34 5.375-1.994 1.19-2.558 1.366-4.885 1.526-2.473.17-2.755.119-4.741-.863-5.07-2.504-8.182-8.769-7.075-14.24.493-2.433 2.48-6.645 4.236-8.978.681-.906 3.584-4.223 6.45-7.372 2.866-3.15 6.124-6.841 7.24-8.205 1.963-2.395 4.36-6.65 4.36-7.737 0-.291.22-.53.491-.53.27 0 .491.239.491.53zM4852.508 816.53c0 1.087-2.396 5.342-4.358 7.737-1.117 1.364-4.375 5.056-7.241 8.205-2.866 3.15-5.769 6.466-6.45 7.372-1.757 2.333-3.743 6.545-4.236 8.979-1.107 5.47 2.006 11.735 7.075 14.24 1.986.98 2.268 1.032 4.741.862 2.326-.16 2.89-.336 4.885-1.526 2.262-1.348 4.583-3.685 5.34-5.375.513-1.146.959-1.146 1.472 0 .757 1.69 3.077 4.027 5.34 5.375 1.994 1.19 2.558 1.366 4.885 1.526 2.473.17 2.755.119 4.741-.863 5.07-2.504 8.182-8.769 7.075-14.24-.493-2.433-2.48-6.645-4.236-8.978-.681-.906-3.584-4.223-6.45-7.372-2.866-3.15-6.124-6.841-7.24-8.205-1.963-2.395-4.36-6.65-4.36-7.737 0-.291-.22-.53-.491-.53-.27 0-.491.239-.491.53z" style="fill:#d40000"/><path d="M4330.165 213v-8.76h9.367q.76-13.944 6.329-29.184 5.57-15.24 12.101-24.777h-24.253v9.693H4325V141h44v7.36q-6.886 8.45-13.063 25.66-6.177 17.157-6.177 30.22h8.202V213zM4836.165 213v-8.76h9.367q.76-13.944 6.329-29.184 5.57-15.24 12.101-24.777h-24.253v9.693H4831V141h44v7.36q-6.886 8.45-13.063 25.66-6.177 17.157-6.177 30.22h8.202V213zM4363.835 887v8.76h-9.367q-.76 13.944-6.329 29.184-5.57 15.24-12.101 24.777h24.253v-9.693H4369V959h-44v-7.36q6.886-8.45 13.063-25.66 6.177-17.157 6.177-30.22h-8.202V887zM4869.835 887v8.76h-9.367q-.76 13.944-6.329 29.184-5.57 15.24-12.101 24.777h24.253v-9.693H4875V959h-44v-7.36q6.886-8.45 13.063-25.66 6.177-17.157 6.177-30.22h-8.202V887z" style="font-style:normal;font-variant:normal;font-weight:400;font-stretch:normal;font-size:medium;line-height:125%;font-family:Rockwell;-inkscape-font-specification:Rockwell;letter-spacing:0;word-spacing:0;fill:#d40000;fill-opacity:1;stroke:none;stroke-width:1px;stroke-linecap:butt;stroke-linejoin:miter;stroke-opacity:1"/><path style="fill:#fffecd;fill-opacity:1;stroke:#fffecd;stroke-width:.846019;stroke-miterlimit:4;stroke-dasharray:none;stroke-opacity:1" d="M4384.629 881.665c0-99.192 1.79-93.119-27.458-93.119h-17.907V311.015h17.907c29.249 0 27.458 6.073 27.458-93.118v-83.568H4816.794v83.568c0 99.191-1.79 93.118 27.459 93.118h17.907V788.546h-17.907c-29.25 0-27.458-6.073-27.458 93.119v83.568h-432.166zm70.004 21.632c9.78-9.015 10.33-9.211 13.147-4.7 4.615 7.39 17.489 14.089 27.095 14.098 14.794.015 30.672-17.594 30.602-33.938-.045-10.544-11.6-29.558-31.607-52.008-11.118-12.476-22.384-26.93-25.035-32.122l-4.821-9.439-4.859 9.523c-2.672 5.238-13.928 19.693-25.014 32.122-11.087 12.43-22.464 27.122-25.284 32.65-13.01 25.51.66 52.85 26.563 53.126 7.238.077 11.012-1.753 19.213-9.312zm273.495-1.021c8.51-8.31 8.878-8.428 11.785-3.774 8.469 13.56 30.487 18.262 42.239 9.018 7.018-5.521 15.422-21.524 15.458-29.437.044-9.593-11.127-27.715-30.956-50.22-11.162-12.668-22.578-27.455-25.369-32.859l-5.074-9.825-4.86 9.528c-2.674 5.24-13.932 19.697-25.018 32.126-23.022 25.811-30.41 38.558-30.41 52.468 0 30.148 30.922 43.757 52.205 22.975zm-257.701-299.37c2.593-4.924 13.445-18.624 24.115-30.442 19.3-21.378 30.89-40.418 30.935-50.815.038-8.923-5.981-20.61-14.16-27.493-5.782-4.865-10.248-6.454-18.132-6.454-8.883 0-11.928 1.395-20.188 9.252-8.764 8.338-9.952 8.831-12.008 4.99-3.704-6.922-17.75-14.242-27.326-14.242-23.941 0-37.517 28.301-25.178 52.488 2.615 5.126 13.955 19.673 25.199 32.326 11.244 12.654 22.196 26.682 24.339 31.175 2.143 4.493 4.749 8.169 5.792 8.169 1.044 0 4.019-4.03 6.612-8.954zm271.58-.019c2.86-4.914 12.405-16.994 21.21-26.843 21.965-24.57 29.293-34.981 32.188-45.733 5.725-21.26-9.461-42.61-30.309-42.61-9.534 0-12.14 1.198-20.248 9.307-9.114 9.113-9.376 9.205-12.72 4.431-18.344-26.19-56.205-12.943-56.205 19.667 0 13.956 7.452 26.765 30.276 52.037 11.011 12.192 21.796 25.891 23.966 30.442 2.17 4.551 4.553 8.267 5.295 8.256.741-.01 3.688-4.039 6.548-8.953zM4604.317 454.22c1.644-3.97 12.648-18.206 24.453-31.637 20.745-23.602 32.813-43.156 32.752-53.07-.1-16.353-17.173-34.595-32.396-34.613-7.88-.01-27.22 12.203-27.22 17.188 0 1.563-3.491-.464-7.76-4.504-14.734-13.946-25.509-16.131-38.86-7.88-15.17 9.376-19.812 31.297-10.365 48.945 2.801 5.233 14.627 20.26 26.278 33.392 11.652 13.132 22.469 27.368 24.038 31.636 3.54 9.626 5.275 9.73 9.08.543zM4494.67 272.225c23.048-25.984 32.114-43.15 29.67-56.179-3.125-16.658-16.773-29.189-31.79-29.189-7.418 0-26.742 12.427-26.742 17.197 0 1.563-3.492-.464-7.76-4.504-4.268-4.04-10.106-8.548-12.975-10.019-17.58-9.014-38.615 5.582-40.799 28.308-1.464 15.24 4.815 26.816 29.818 54.974 11.078 12.475 22.306 26.86 24.953 31.968l4.81 9.285 5.609-9.873c3.084-5.43 14.427-19.815 25.206-31.968zm245.741 33.96c1.644-3.969 12.648-18.205 24.453-31.636 20.745-23.602 32.813-43.156 32.753-53.07-.1-16.353-17.174-34.594-32.397-34.613-7.879-.01-27.22 12.203-27.22 17.188 0 1.563-3.491-.464-7.759-4.504-4.268-4.04-10.107-8.548-12.975-10.019-18.288-9.377-41.294 7.656-41.328 30.597-.021 14.943 6.628 26.666 29.888 52.685 11.153 12.475 22.149 26.684 24.436 31.575 2.287 4.89 4.833 8.92 5.659 8.953.825.034 2.846-3.186 4.49-7.155z"/></g></svg>