<svg height="123.003" width="78.999" xmlns="http://www.w3.org/2000/svg"><g transform="matrix(.13166 0 0 .13667 -289.663 -13.667)"><rect style="font-style:normal;font-variant:normal;font-weight:500;font-stretch:normal;font-size:medium;line-height:125%;font-family:Gaelic;-inkscape-font-specification:'Gaelic Medium';letter-spacing:0;word-spacing:0;fill:#fff;fill-opacity:1;stroke:#000;stroke-width:2.03317;stroke-linecap:butt;stroke-linejoin:miter;stroke-miterlimit:4;stroke-dasharray:none;stroke-opacity:1" y="101.016" x="2201.017" ry="49.888" rx="48.211" height="897.967" width="597.967"/><path d="M2362.718 310.632c0-2.809-6.253-13.8-11.371-19.989-2.913-3.522-11.413-13.06-18.89-21.195-7.476-8.135-15.047-16.705-16.825-19.044-4.582-6.027-9.765-16.908-11.05-23.195-2.887-14.132 5.232-30.316 18.456-36.786 5.18-2.535 5.916-2.668 12.369-2.228 6.068.413 7.54.868 12.743 3.94 5.901 3.485 11.956 9.521 13.93 13.886 1.338 2.962 2.502 2.962 3.84 0 1.974-4.365 8.029-10.4 13.93-13.885 5.203-3.073 6.675-3.528 12.743-3.941 6.453-.44 7.188-.307 12.37 2.228 13.223 6.47 21.342 22.654 18.455 36.786-1.285 6.287-6.468 17.168-11.05 23.195-1.778 2.34-9.35 10.909-16.826 19.044-7.476 8.135-15.976 17.673-18.89 21.195-5.117 6.189-11.37 17.18-11.37 19.989 0 .752-.577 1.368-1.282 1.368-.705 0-1.282-.616-1.282-1.368zM2634.718 310.632c0-2.809-6.253-13.8-11.371-19.989-2.913-3.522-11.413-13.06-18.89-21.195-7.476-8.135-15.047-16.705-16.825-19.044-4.582-6.027-9.765-16.908-11.05-23.195-2.887-14.132 5.232-30.316 18.456-36.786 5.18-2.535 5.916-2.668 12.369-2.228 6.068.413 7.54.868 12.743 3.94 5.901 3.485 11.956 9.521 13.93 13.886 1.338 2.962 2.502 2.962 3.84 0 1.974-4.365 8.029-10.4 13.93-13.885 5.203-3.073 6.675-3.528 12.743-3.941 6.453-.44 7.188-.307 12.37 2.228 13.223 6.47 21.342 22.654 18.455 36.786-1.285 6.287-6.468 17.168-11.05 23.195-1.778 2.34-9.35 10.909-16.826 19.044-7.476 8.135-15.976 17.673-18.89 21.195-5.117 6.189-11.37 17.18-11.37 19.989 0 .752-.577 1.368-1.282 1.368-.705 0-1.282-.616-1.282-1.368zM2362.718 789.368c0 2.809-6.253 13.8-11.371 19.989-2.913 3.522-11.413 13.06-18.89 21.195-7.476 8.135-15.047 16.704-16.825 19.043-4.582 6.028-9.765 16.909-11.05 23.196-2.887 14.132 5.232 30.316 18.456 36.786 5.18 2.535 5.916 2.668 12.369 2.228 6.068-.413 7.54-.869 12.743-3.941 5.901-3.484 11.956-9.52 13.93-13.886 1.338-2.962 2.502-2.962 3.84 0 1.974 4.366 8.029 10.402 13.93 13.886 5.203 3.072 6.675 3.528 12.743 3.941 6.453.44 7.188.307 12.37-2.228 13.223-6.47 21.342-22.654 18.455-36.786-1.285-6.287-6.468-17.168-11.05-23.196-1.778-2.339-9.35-10.908-16.826-19.043-7.476-8.136-15.976-17.673-18.89-21.195-5.117-6.19-11.37-17.18-11.37-19.989 0-.752-.577-1.368-1.282-1.368-.705 0-1.282.616-1.282 1.368zM2634.718 789.368c0 2.809-6.253 13.8-11.371 19.989-2.913 3.522-11.413 13.06-18.89 21.195-7.476 8.135-15.047 16.704-16.825 19.043-4.582 6.028-9.765 16.909-11.05 23.196-2.887 14.132 5.232 30.316 18.456 36.786 5.18 2.535 5.916 2.668 12.369 2.228 6.068-.413 7.54-.869 12.743-3.941 5.901-3.484 11.956-9.52 13.93-13.886 1.338-2.962 2.502-2.962 3.84 0 1.974 4.366 8.029 10.402 13.93 13.886 5.203 3.072 6.675 3.528 12.743 3.941 6.453.44 7.188.307 12.37-2.228 13.223-6.47 21.342-22.654 18.455-36.786-1.285-6.287-6.468-17.168-11.05-23.196-1.778-2.339-9.35-10.908-16.826-19.043-7.476-8.136-15.976-17.673-18.89-21.195-5.117-6.19-11.37-17.18-11.37-19.989 0-.752-.577-1.368-1.282-1.368-.705 0-1.282.616-1.282 1.368z" style="fill:#d40000"/><path d="M2280.315 969.538c-.36-.367-.657-38.958-.657-85.759 0-82.258-.058-85.17-1.873-87.448-1.836-2.308-2.295-2.367-22.33-2.856l-20.455-.5V306.728l20.334-.5c17.804-.436 20.551-.72 22.084-2.281 1.644-1.675 1.78-6.989 2.24-87.864l.492-86.082h440.7l.491 86.082c.461 80.875.597 86.189 2.241 87.864 1.533 1.56 4.28 1.845 22.084 2.282l20.334.499v486.249l-20.334.499c-17.804.437-20.551.72-22.084 2.282-1.644 1.675-1.78 6.988-2.24 87.864l-.492 86.082-219.939.251c-120.967.139-220.234-.049-220.596-.416zm437.104-85.952c0-81.68.049-83.697 1.954-86.875 3.95-6.589 6.25-7.222 26.261-7.226l17.912-.004V310.22l-17.912-.004c-20.011-.004-22.312-.637-26.261-7.226-1.906-3.178-1.951-5.195-1.954-86.875v-83.62h-433.83v83.62c0 81.68-.05 83.697-1.954 86.876-3.95 6.588-6.25 7.221-26.261 7.226l-17.912.004V789.48l17.912.004c20.01.004 22.312.637 26.261 7.226 1.905 3.179 1.951 5.196 1.954 86.875v83.62h433.83z" style="fill:#b7b772"/><path style="fill:#d40000" d="M2752.508 283.47c0-1.087-2.396-5.342-4.358-7.737-1.117-1.364-4.375-5.056-7.241-8.205-2.866-3.149-5.769-6.466-6.45-7.371-1.756-2.334-3.743-6.546-4.236-8.98-1.107-5.47 2.006-11.735 7.075-14.24 1.986-.98 2.268-1.032 4.741-.862 2.326.16 2.89.337 4.885 1.526 2.262 1.349 4.583 3.685 5.34 5.375.513 1.147.959 1.147 1.472 0 .757-1.69 3.078-4.026 5.34-5.375 1.994-1.19 2.559-1.366 4.885-1.526 2.473-.17 2.755-.118 4.741.863 5.07 2.504 8.182 8.77 7.075 14.24-.493 2.433-2.48 6.645-4.236 8.979-.681.905-3.584 4.222-6.45 7.371-2.866 3.15-6.124 6.841-7.24 8.205-1.963 2.395-4.36 6.65-4.36 7.737 0 .292-.22.53-.491.53-.27 0-.491-.238-.491-.53zM2247.492 283.47c0-1.087 2.396-5.342 4.358-7.737 1.117-1.364 4.375-5.056 7.241-8.205 2.866-3.149 5.769-6.466 6.45-7.371 1.756-2.334 3.743-6.546 4.236-8.98 1.107-5.47-2.006-11.735-7.075-14.24-1.986-.98-2.268-1.032-4.741-.862-2.326.16-2.89.337-4.885 1.526-2.262 1.349-4.583 3.685-5.34 5.375-.513 1.147-.959 1.147-1.472 0-.757-1.69-3.078-4.026-5.34-5.375-1.994-1.19-2.559-1.366-4.885-1.526-2.473-.17-2.755-.118-4.741.863-5.07 2.504-8.182 8.77-7.075 14.24.493 2.433 2.48 6.645 4.236 8.979.681.905 3.584 4.222 6.45 7.371 2.866 3.15 6.124 6.841 7.24 8.205 1.963 2.395 4.36 6.65 4.36 7.737 0 .292.22.53.491.53.27 0 .491-.238.491-.53zM2247.492 816.53c0 1.087 2.396 5.342 4.358 7.737 1.117 1.364 4.375 5.056 7.241 8.205 2.866 3.15 5.769 6.466 6.45 7.372 1.756 2.333 3.743 6.545 4.236 8.979 1.107 5.47-2.006 11.735-7.075 14.24-1.986.98-2.268 1.032-4.741.862-2.326-.16-2.89-.336-4.885-1.526-2.262-1.348-4.583-3.685-5.34-5.375-.513-1.146-.959-1.146-1.472 0-.757 1.69-3.078 4.027-5.34 5.375-1.994 1.19-2.559 1.366-4.885 1.526-2.473.17-2.755.119-4.741-.863-5.07-2.504-8.182-8.769-7.075-14.24.493-2.433 2.48-6.645 4.236-8.978.681-.906 3.584-4.223 6.45-7.372 2.866-3.15 6.124-6.841 7.24-8.205 1.963-2.395 4.36-6.65 4.36-7.737 0-.291.22-.53.491-.53.27 0 .491.239.491.53zM2752.508 816.53c0 1.087-2.396 5.342-4.358 7.737-1.117 1.364-4.375 5.056-7.241 8.205-2.866 3.15-5.769 6.466-6.45 7.372-1.756 2.333-3.743 6.545-4.236 8.979-1.107 5.47 2.006 11.735 7.075 14.24 1.986.98 2.268 1.032 4.741.862 2.326-.16 2.89-.336 4.885-1.526 2.262-1.348 4.583-3.685 5.34-5.375.513-1.146.959-1.146 1.472 0 .757 1.69 3.078 4.027 5.34 5.375 1.994 1.19 2.559 1.366 4.885 1.526 2.473.17 2.755.119 4.741-.863 5.07-2.504 8.182-8.769 7.075-14.24-.493-2.433-2.48-6.645-4.236-8.978-.681-.906-3.584-4.223-6.45-7.372-2.866-3.15-6.124-6.841-7.24-8.205-1.963-2.395-4.36-6.65-4.36-7.737 0-.291-.22-.53-.491-.53-.27 0-.491.239-.491.53z"/><path d="M2248.218 193.793h-19.508q-1-4.776-3.71-8.063l24.135-44.73h6.711v44.165h9.254v8.628h-9.254v10.528h5.294V213h-19.091v-8.68h6.169zm0-8.628v-28.142l-15.215 28.142zM2754.218 193.793h-19.508q-1-4.776-3.71-8.063l24.135-44.73h6.711v44.165h9.254v8.628h-9.254v10.528h5.294V213h-19.091v-8.68h6.169zm0-8.628v-28.142l-15.215 28.142zM2241.882 906.207h19.508q1 4.776 3.71 8.063L2240.965 959h-6.711v-44.165H2225v-8.628h9.254v-10.528h-5.294V887h19.091v8.68h-6.169zm0 8.628v28.142l15.215-28.142zM2747.882 906.207h19.508q1 4.776 3.71 8.063L2746.965 959h-6.711v-44.165H2731v-8.628h9.254v-10.528h-5.294V887h19.091v8.68h-6.169zm0 8.628v28.142l15.215-28.142z" style="font-style:normal;font-variant:normal;font-weight:400;font-stretch:normal;font-size:medium;line-height:125%;font-family:Rockwell;-inkscape-font-specification:Rockwell;letter-spacing:0;word-spacing:0;fill:#d40000;fill-opacity:1;stroke:none;stroke-width:1px;stroke-linecap:butt;stroke-linejoin:miter;stroke-opacity:1"/><path style="fill:#fffecd;fill-opacity:1;stroke:#fffecd;stroke-width:.846019;stroke-miterlimit:4;stroke-dasharray:none;stroke-opacity:1" d="M2284.105 881.665c0-99.192 1.79-93.119-27.458-93.119h-17.907V311.015h17.907c29.249 0 27.458 6.073 27.458-93.118v-83.568h431.991l.685 84.956c.796 98.951-1.361 91.73 27.404 91.73h17.451V788.546h-17.45c-28.766 0-26.609-7.22-27.405 91.73l-.684 84.957h-431.992zm66.006 26.05c4.44-2.743 9.264-7.216 10.722-9.94l2.65-4.952 3.963 5.255c16.039 21.262 44.167 18.113 54.274-6.077 7.702-18.433 2.19-31.354-27.755-65.066-12.157-13.686-23.597-28.46-25.423-32.83-1.827-4.37-3.793-7.946-4.37-7.946-.578 0-2.803 3.694-4.946 8.21-2.143 4.515-13.612 19.288-25.488 32.83-30.801 35.122-36.219 49.666-25.56 68.63 9.357 16.649 26.407 21.482 41.933 11.887zm271.77.287c3.897-2.568 8.977-7.128 11.288-10.132 2.312-3.003 4.227-4.124 4.256-2.491.103 5.77 19.365 17.325 28.88 17.325 15.304 0 30.865-17.429 30.865-34.57 0-10.838-9.242-26.138-29.892-49.487-11.134-12.589-22.82-27.425-25.97-32.97l-5.726-10.082-4.123 8.689c-2.268 4.779-13.838 19.68-25.712 33.112-24.662 27.9-31.439 40.55-29.75 55.537 2.707 24.014 27.191 37.391 45.884 25.07zm-252.887-602.886c2.163-4.558 13.633-19.255 25.49-32.66 29.29-33.116 34.915-46.517 27.236-64.895-9.55-22.858-32.972-27.085-50.875-9.182l-7.163 7.162-6.764-7.166c-16.576-17.562-38.909-14.116-50.216 7.75-8.864 17.141-2.347 33.154 26.997 66.33 11.857 13.406 23.327 28.103 25.49 32.66 2.163 4.559 4.37 8.288 4.903 8.288.533 0 2.74-3.73 4.902-8.287zm297.226-32.303c12.115-13.789 24.155-29.795 26.756-35.57 15.744-34.959-22.922-66.09-49.31-39.7l-8.07 8.068-5.625-6.022c-13.058-13.98-28.308-16.441-40.149-6.478-14.88 12.522-18.01 27.393-9.645 45.827 2.57 5.663 13.924 20.668 25.23 33.343 11.308 12.675 22.745 27.331 25.417 32.57l4.859 9.523 4.254-8.246c2.34-4.534 14.167-19.526 26.283-33.315z"/></g></svg>