<svg height="123.003" width="78.999" xmlns="http://www.w3.org/2000/svg"><g transform="matrix(.13166 0 0 .13667 -105.332 -13.667)"><rect width="597.967" height="897.967" rx="48.211" ry="49.888" x="801.017" y="101.016" style="font-style:normal;font-variant:normal;font-weight:500;font-stretch:normal;font-size:medium;line-height:125%;font-family:Gaelic;-inkscape-font-specification:'Gaelic Medium';letter-spacing:0;word-spacing:0;fill:#fff;fill-opacity:1;stroke:#000;stroke-width:2.03317;stroke-linecap:butt;stroke-linejoin:miter;stroke-miterlimit:4;stroke-dasharray:none;stroke-opacity:1"/><path style="fill:#d40000" d="M1098.718 310.632c0-2.809-6.253-13.8-11.371-19.989-2.913-3.522-11.413-13.06-18.89-21.195-7.476-8.135-15.047-16.705-16.825-19.044-4.582-6.027-9.765-16.908-11.05-23.195-2.887-14.132 5.232-30.316 18.456-36.786 5.18-2.535 5.916-2.668 12.369-2.228 6.068.413 7.54.869 12.743 3.94 5.901 3.485 11.956 9.521 13.93 13.887 1.338 2.961 2.502 2.961 3.84 0 1.974-4.366 8.029-10.402 13.93-13.886 5.203-3.072 6.675-3.528 12.743-3.941 6.453-.44 7.188-.307 12.37 2.228 13.223 6.47 21.342 22.654 18.455 36.786-1.285 6.287-6.468 17.168-11.05 23.195-1.778 2.34-9.35 10.909-16.826 19.044-7.476 8.135-15.976 17.673-18.89 21.195-5.117 6.189-11.37 17.18-11.37 19.989 0 .752-.577 1.368-1.282 1.368-.705 0-1.282-.616-1.282-1.368zM1098.718 789.368c0 2.809-6.253 13.8-11.371 19.989-2.913 3.522-11.413 13.06-18.89 21.195-7.476 8.135-15.047 16.705-16.825 19.043-4.582 6.028-9.765 16.909-11.05 23.196-2.887 14.132 5.232 30.316 18.456 36.786 5.18 2.535 5.916 2.668 12.369 2.228 6.068-.413 7.54-.869 12.743-3.94 5.901-3.485 11.956-9.521 13.93-13.887 1.338-2.962 2.502-2.962 3.84 0 1.974 4.366 8.029 10.402 13.93 13.886 5.203 3.072 6.675 3.528 12.743 3.941 6.453.44 7.188.307 12.37-2.228 13.223-6.47 21.342-22.654 18.455-36.786-1.285-6.287-6.468-17.168-11.05-23.196-1.778-2.338-9.35-10.908-16.826-19.043-7.476-8.135-15.976-17.673-18.89-21.195-5.117-6.189-11.37-17.18-11.37-19.989 0-.752-.577-1.368-1.282-1.368-.705 0-1.282.616-1.282 1.368z"/><path style="fill:#b7b772" d="M880.315 969.538c-.36-.367-.657-38.958-.657-85.759 0-82.258-.059-85.17-1.873-87.448-1.836-2.308-2.295-2.367-22.33-2.856l-20.455-.5V306.728l20.334-.5c17.804-.436 20.551-.72 22.084-2.281 1.644-1.675 1.78-6.989 2.24-87.864L880.15 130h440.7l.491 86.082c.461 80.875.597 86.189 2.241 87.864 1.533 1.56 4.28 1.845 22.084 2.282l20.334.499v486.249l-20.334.499c-17.804.437-20.551.72-22.084 2.282-1.644 1.675-1.78 6.988-2.24 87.864l-.492 86.082-219.939.251c-120.967.139-220.234-.049-220.596-.416zm437.104-85.952c0-81.68.049-83.697 1.954-86.875 3.95-6.589 6.25-7.222 26.261-7.226l17.912-.004V310.22l-17.912-.004c-20.011-.004-22.312-.637-26.261-7.226-1.906-3.178-1.951-5.195-1.954-86.875v-83.62h-433.83v83.62c0 81.68-.05 83.697-1.954 86.876-3.95 6.588-6.25 7.221-26.261 7.226l-17.912.004V789.48l17.912.004c20.01.004 22.312.637 26.261 7.226 1.905 3.179 1.951 5.196 1.954 86.875v83.62h433.83z"/><path d="M1352.508 283.47c0-1.087-2.396-5.342-4.358-7.737-1.117-1.364-4.375-5.056-7.241-8.205-2.866-3.149-5.769-6.466-6.45-7.371-1.757-2.334-3.743-6.546-4.236-8.98-1.107-5.47 2.006-11.735 7.075-14.24 1.986-.98 2.268-1.032 4.741-.862 2.326.16 2.89.337 4.885 1.526 2.262 1.349 4.583 3.685 5.34 5.375.513 1.147.959 1.147 1.472 0 .757-1.69 3.077-4.026 5.34-5.375 1.994-1.19 2.559-1.366 4.885-1.526 2.473-.17 2.755-.118 4.741.863 5.07 2.504 8.182 8.77 7.075 14.24-.493 2.433-2.48 6.645-4.236 8.979-.681.905-3.584 4.222-6.45 7.371-2.866 3.15-6.124 6.841-7.24 8.205-1.963 2.395-4.36 6.65-4.36 7.737 0 .292-.22.53-.491.53-.27 0-.491-.238-.491-.53zM847.491 283.47c0-1.087 2.397-5.342 4.36-7.737 1.116-1.364 4.374-5.056 7.24-8.205 2.866-3.149 5.769-6.466 6.45-7.371 1.756-2.334 3.743-6.546 4.236-8.98 1.107-5.47-2.006-11.735-7.075-14.24-1.986-.98-2.268-1.032-4.741-.862-2.327.16-2.89.337-4.885 1.526-2.262 1.349-4.583 3.685-5.34 5.375-.513 1.147-.959 1.147-1.472 0-.757-1.69-3.078-4.026-5.34-5.375-1.994-1.19-2.559-1.366-4.885-1.526-2.473-.17-2.755-.118-4.741.863-5.07 2.504-8.182 8.77-7.075 14.24.493 2.433 2.48 6.645 4.236 8.979.681.905 3.584 4.222 6.45 7.371 2.866 3.15 6.124 6.841 7.24 8.205 1.963 2.395 4.36 6.65 4.36 7.737 0 .292.22.53.491.53.27 0 .491-.238.491-.53zM847.491 816.53c0 1.087 2.397 5.342 4.36 7.737 1.116 1.364 4.374 5.056 7.24 8.205 2.866 3.15 5.769 6.466 6.45 7.372 1.756 2.333 3.743 6.545 4.236 8.979 1.107 5.47-2.006 11.735-7.075 14.24-1.986.98-2.268 1.032-4.741.862-2.327-.16-2.89-.336-4.885-1.526-2.262-1.348-4.583-3.685-5.34-5.375-.513-1.146-.959-1.146-1.472 0-.757 1.69-3.078 4.027-5.34 5.375-1.994 1.19-2.559 1.366-4.885 1.526-2.473.17-2.755.119-4.741-.863-5.07-2.504-8.182-8.769-7.075-14.24.493-2.433 2.48-6.645 4.236-8.978.681-.906 3.584-4.223 6.45-7.372 2.866-3.15 6.124-6.841 7.24-8.205 1.963-2.395 4.36-6.65 4.36-7.737 0-.291.22-.53.491-.53.27 0 .491.239.491.53zM1352.508 816.53c0 1.087-2.396 5.342-4.358 7.737-1.117 1.364-4.375 5.056-7.241 8.205-2.866 3.15-5.769 6.466-6.45 7.372-1.757 2.333-3.743 6.545-4.236 8.979-1.107 5.47 2.006 11.735 7.075 14.24 1.986.98 2.268 1.032 4.741.862 2.326-.16 2.89-.336 4.885-1.526 2.262-1.348 4.583-3.685 5.34-5.375.513-1.146.959-1.146 1.472 0 .757 1.69 3.077 4.027 5.34 5.375 1.994 1.19 2.559 1.366 4.885 1.526 2.473.17 2.755.119 4.741-.863 5.07-2.504 8.182-8.769 7.075-14.24-.493-2.433-2.48-6.645-4.236-8.978-.681-.906-3.584-4.223-6.45-7.372-2.866-3.15-6.124-6.841-7.24-8.205-1.963-2.395-4.36-6.65-4.36-7.737 0-.291-.22-.53-.491-.53-.27 0-.491.239-.491.53z" style="fill:#d40000"/><rect style="font-style:normal;font-variant:normal;font-weight:500;font-stretch:normal;font-size:medium;line-height:125%;font-family:Gaelic;-inkscape-font-specification:'Gaelic Medium';letter-spacing:0;word-spacing:0;fill:#fff;fill-opacity:1;stroke:#000;stroke-width:2.03317;stroke-linecap:butt;stroke-linejoin:miter;stroke-miterlimit:4;stroke-dasharray:none;stroke-opacity:1" y="101.016" x="801.017" ry="49.888" rx="48.211" height="897.967" width="597.967"/><path d="M1098.718 310.632c0-2.809-6.253-13.8-11.371-19.989-2.913-3.522-11.413-13.06-18.89-21.195-7.476-8.135-15.047-16.705-16.825-19.044-4.582-6.027-9.765-16.908-11.05-23.195-2.887-14.132 5.232-30.316 18.456-36.786 5.18-2.535 5.916-2.668 12.369-2.228 6.068.413 7.54.869 12.743 3.94 5.901 3.485 11.956 9.521 13.93 13.887 1.338 2.961 2.502 2.961 3.84 0 1.974-4.366 8.029-10.402 13.93-13.886 5.203-3.072 6.675-3.528 12.743-3.941 6.453-.44 7.188-.307 12.37 2.228 13.223 6.47 21.342 22.654 18.455 36.786-1.285 6.287-6.468 17.168-11.05 23.195-1.778 2.34-9.35 10.909-16.826 19.044-7.476 8.135-15.976 17.673-18.89 21.195-5.117 6.189-11.37 17.18-11.37 19.989 0 .752-.577 1.368-1.282 1.368-.705 0-1.282-.616-1.282-1.368zM1098.718 789.368c0 2.809-6.253 13.8-11.371 19.989-2.913 3.522-11.413 13.06-18.89 21.195-7.476 8.135-15.047 16.705-16.825 19.043-4.582 6.028-9.765 16.909-11.05 23.196-2.887 14.132 5.232 30.316 18.456 36.786 5.18 2.535 5.916 2.668 12.369 2.228 6.068-.413 7.54-.869 12.743-3.94 5.901-3.485 11.956-9.521 13.93-13.887 1.338-2.962 2.502-2.962 3.84 0 1.974 4.366 8.029 10.402 13.93 13.886 5.203 3.072 6.675 3.528 12.743 3.941 6.453.44 7.188.307 12.37-2.228 13.223-6.47 21.342-22.654 18.455-36.786-1.285-6.287-6.468-17.168-11.05-23.196-1.778-2.338-9.35-10.908-16.826-19.043-7.476-8.135-15.976-17.673-18.89-21.195-5.117-6.189-11.37-17.18-11.37-19.989 0-.752-.577-1.368-1.282-1.368-.705 0-1.282.616-1.282 1.368z" style="fill:#d40000"/><path d="M880.315 969.538c-.36-.367-.657-38.958-.657-85.759 0-82.258-.059-85.17-1.873-87.448-1.836-2.308-2.295-2.367-22.33-2.856l-20.455-.5V306.728l20.334-.5c17.804-.436 20.551-.72 22.084-2.281 1.644-1.675 1.78-6.989 2.24-87.864L880.15 130h440.7l.491 86.082c.461 80.875.597 86.189 2.241 87.864 1.533 1.56 4.28 1.845 22.084 2.282l20.334.499v486.249l-20.334.499c-17.804.437-20.551.72-22.084 2.282-1.644 1.675-1.78 6.988-2.24 87.864l-.492 86.082-219.939.251c-120.967.139-220.234-.049-220.596-.416zm437.104-85.952c0-81.68.049-83.697 1.954-86.875 3.95-6.589 6.25-7.222 26.261-7.226l17.912-.004V310.22l-17.912-.004c-20.011-.004-22.312-.637-26.261-7.226-1.906-3.178-1.951-5.195-1.954-86.875v-83.62h-433.83v83.62c0 81.68-.05 83.697-1.954 86.876-3.95 6.588-6.25 7.221-26.261 7.226l-17.912.004V789.48l17.912.004c20.01.004 22.312.637 26.261 7.226 1.905 3.179 1.951 5.196 1.954 86.875v83.62h433.83z" style="fill:#b7b772"/><path style="fill:#d40000" d="M1352.508 283.47c0-1.087-2.396-5.342-4.358-7.737-1.117-1.364-4.375-5.056-7.241-8.205-2.866-3.149-5.769-6.466-6.45-7.371-1.757-2.334-3.743-6.546-4.236-8.98-1.107-5.47 2.006-11.735 7.075-14.24 1.986-.98 2.268-1.032 4.741-.862 2.326.16 2.89.337 4.885 1.526 2.262 1.349 4.583 3.685 5.34 5.375.513 1.147.959 1.147 1.472 0 .757-1.69 3.077-4.026 5.34-5.375 1.994-1.19 2.559-1.366 4.885-1.526 2.473-.17 2.755-.118 4.741.863 5.07 2.504 8.182 8.77 7.075 14.24-.493 2.433-2.48 6.645-4.236 8.979-.681.905-3.584 4.222-6.45 7.371-2.866 3.15-6.124 6.841-7.24 8.205-1.963 2.395-4.36 6.65-4.36 7.737 0 .292-.22.53-.491.53-.27 0-.491-.238-.491-.53zM847.491 283.47c0-1.087 2.397-5.342 4.36-7.737 1.116-1.364 4.374-5.056 7.24-8.205 2.866-3.149 5.769-6.466 6.45-7.371 1.756-2.334 3.743-6.546 4.236-8.98 1.107-5.47-2.006-11.735-7.075-14.24-1.986-.98-2.268-1.032-4.741-.862-2.327.16-2.89.337-4.885 1.526-2.262 1.349-4.583 3.685-5.34 5.375-.513 1.147-.959 1.147-1.472 0-.757-1.69-3.078-4.026-5.34-5.375-1.994-1.19-2.559-1.366-4.885-1.526-2.473-.17-2.755-.118-4.741.863-5.07 2.504-8.182 8.77-7.075 14.24.493 2.433 2.48 6.645 4.236 8.979.681.905 3.584 4.222 6.45 7.371 2.866 3.15 6.124 6.841 7.24 8.205 1.963 2.395 4.36 6.65 4.36 7.737 0 .292.22.53.491.53.27 0 .491-.238.491-.53zM847.491 816.53c0 1.087 2.397 5.342 4.36 7.737 1.116 1.364 4.374 5.056 7.24 8.205 2.866 3.15 5.769 6.466 6.45 7.372 1.756 2.333 3.743 6.545 4.236 8.979 1.107 5.47-2.006 11.735-7.075 14.24-1.986.98-2.268 1.032-4.741.862-2.327-.16-2.89-.336-4.885-1.526-2.262-1.348-4.583-3.685-5.34-5.375-.513-1.146-.959-1.146-1.472 0-.757 1.69-3.078 4.027-5.34 5.375-1.994 1.19-2.559 1.366-4.885 1.526-2.473.17-2.755.119-4.741-.863-5.07-2.504-8.182-8.769-7.075-14.24.493-2.433 2.48-6.645 4.236-8.978.681-.906 3.584-4.223 6.45-7.372 2.866-3.15 6.124-6.841 7.24-8.205 1.963-2.395 4.36-6.65 4.36-7.737 0-.291.22-.53.491-.53.27 0 .491.239.491.53zM1352.508 816.53c0 1.087-2.396 5.342-4.358 7.737-1.117 1.364-4.375 5.056-7.241 8.205-2.866 3.15-5.769 6.466-6.45 7.372-1.757 2.333-3.743 6.545-4.236 8.979-1.107 5.47 2.006 11.735 7.075 14.24 1.986.98 2.268 1.032 4.741.862 2.326-.16 2.89-.336 4.885-1.526 2.262-1.348 4.583-3.685 5.34-5.375.513-1.146.959-1.146 1.472 0 .757 1.69 3.077 4.027 5.34 5.375 1.994 1.19 2.559 1.366 4.885 1.526 2.473.17 2.755.119 4.741-.863 5.07-2.504 8.182-8.769 7.075-14.24-.493-2.433-2.48-6.645-4.236-8.978-.681-.906-3.584-4.223-6.45-7.372-2.866-3.15-6.124-6.841-7.24-8.205-1.963-2.395-4.36-6.65-4.36-7.737 0-.291-.22-.53-.491-.53-.27 0-.491.239-.491.53z"/><path style="fill:#d40000" d="M1352.508 283.47c0-1.087-2.396-5.342-4.358-7.737-1.117-1.364-4.375-5.056-7.241-8.205-2.866-3.149-5.769-6.466-6.45-7.371-1.757-2.334-3.743-6.546-4.236-8.98-1.107-5.47 2.006-11.735 7.075-14.24 1.986-.98 2.268-1.032 4.741-.862 2.326.16 2.89.337 4.885 1.526 2.262 1.349 4.583 3.685 5.34 5.375.513 1.147.959 1.147 1.472 0 .757-1.69 3.077-4.026 5.34-5.375 1.994-1.19 2.559-1.366 4.885-1.526 2.473-.17 2.755-.118 4.741.863 5.07 2.504 8.182 8.77 7.075 14.24-.493 2.433-2.48 6.645-4.236 8.979-.681.905-3.584 4.222-6.45 7.371-2.866 3.15-6.124 6.841-7.24 8.205-1.963 2.395-4.36 6.65-4.36 7.737 0 .292-.22.53-.491.53-.27 0-.491-.238-.491-.53zM847.491 283.47c0-1.087 2.397-5.342 4.36-7.737 1.116-1.364 4.374-5.056 7.24-8.205 2.866-3.149 5.769-6.466 6.45-7.371 1.756-2.334 3.743-6.546 4.236-8.98 1.107-5.47-2.006-11.735-7.075-14.24-1.986-.98-2.268-1.032-4.741-.862-2.327.16-2.89.337-4.885 1.526-2.262 1.349-4.583 3.685-5.34 5.375-.513 1.147-.959 1.147-1.472 0-.757-1.69-3.078-4.026-5.34-5.375-1.994-1.19-2.559-1.366-4.885-1.526-2.473-.17-2.755-.118-4.741.863-5.07 2.504-8.182 8.77-7.075 14.24.493 2.433 2.48 6.645 4.236 8.979.681.905 3.584 4.222 6.45 7.371 2.866 3.15 6.124 6.841 7.24 8.205 1.963 2.395 4.36 6.65 4.36 7.737 0 .292.22.53.491.53.27 0 .491-.238.491-.53z"/><path d="M869 187.675 868.364 213H825q0-7.338 2.488-14.013 2.536-6.675 7.073-11.669 4.585-4.993 13.95-12.127 5.903-4.535 8-7.541 2.098-3.058 2.098-7.083 0-4.943-2.975-8.051-2.976-3.16-8.195-3.16-6.098 0-8.927 3.568-2.83 3.566-2.83 11.72 0 2.038.099 3.872h-9.024q-.048-1.834-.048-3.007 0-11.515 5.219-17.987 5.22-6.522 15.317-6.522 10.195 0 15.61 5.554 5.462 5.554 5.462 13.656 0 6.777-3.56 11.567-3.561 4.79-13.61 12.178-9.756 7.236-12.829 11.771-3.024 4.535-3.512 8.051h25.56l.39-16.102H869zM1375 187.675l-.635 25.325H1331q0-7.338 2.488-14.013 2.536-6.675 7.073-11.669 4.585-4.993 13.95-12.127 5.903-4.535 8-7.541 2.098-3.058 2.098-7.083 0-4.943-2.975-8.051-2.976-3.16-8.195-3.16-6.098 0-8.927 3.568-2.83 3.566-2.83 11.72 0 2.038.099 3.872h-9.024q-.048-1.834-.048-3.007 0-11.515 5.219-17.987 5.22-6.522 15.317-6.522 10.195 0 15.61 5.554 5.462 5.554 5.462 13.656 0 6.777-3.56 11.567-3.561 4.79-13.61 12.178-9.756 7.236-12.829 11.771-3.024 4.535-3.512 8.051h25.56l.39-16.102H1375zM825.001 912.325l.634-25.325H869q0 7.338-2.487 14.013-2.537 6.675-7.073 11.669-4.586 4.993-13.951 12.127-5.903 4.535-8 7.541-2.098 3.058-2.098 7.083 0 4.943 2.976 8.051 2.975 3.16 8.195 3.16 6.097 0 8.927-3.568 2.829-3.566 2.829-11.72 0-2.038-.098-3.872h9.024q.048 1.834.048 3.006 0 11.516-5.22 17.988Q856.854 959 846.757 959q-10.195 0-15.61-5.554-5.463-5.554-5.463-13.656 0-6.777 3.56-11.567 3.562-4.79 13.61-12.178 9.756-7.236 12.83-11.771 3.024-4.535 3.512-8.051h-25.561l-.39 16.102H825zM1331.001 912.325l.634-25.325H1375q0 7.338-2.487 14.013-2.537 6.675-7.073 11.669-4.586 4.993-13.952 12.127-5.902 4.535-8 7.541-2.097 3.058-2.097 7.083 0 4.943 2.976 8.051 2.975 3.16 8.195 3.16 6.097 0 8.926-3.568 2.83-3.566 2.83-11.72 0-2.038-.098-3.872h9.024q.048 1.834.048 3.006 0 11.516-5.22 17.988-5.219 6.522-15.316 6.522-10.195 0-15.61-5.554-5.463-5.554-5.463-13.656 0-6.777 3.56-11.567 3.562-4.79 13.61-12.178 9.756-7.236 12.83-11.771 3.024-4.535 3.512-8.051h-25.561l-.39 16.102H1331z" style="font-style:normal;font-variant:normal;font-weight:400;font-stretch:normal;font-size:medium;line-height:125%;font-family:Rockwell;-inkscape-font-specification:Rockwell;letter-spacing:0;word-spacing:0;fill:#d40000;fill-opacity:1;stroke:none;stroke-width:1px;stroke-linecap:butt;stroke-linejoin:miter;stroke-opacity:1"/><path style="fill:#fffecd;fill-opacity:1;stroke:#fffecd;stroke-width:.846019;stroke-miterlimit:4;stroke-dasharray:none;stroke-opacity:1" d="M884.837 881.068c-1.813-99.009.245-92.522-29.342-92.522h-17.643V311.015h18.731c15.133 0 19.492-.84 22.694-4.378 3.466-3.83 4.159-14.896 5.532-88.344l1.57-83.964h428.23l1.57 83.964c1.373 73.448 2.065 84.513 5.532 88.344 3.201 3.537 7.56 4.378 22.694 4.378h18.73V788.546h-17.642c-29.587 0-27.53-6.487-29.343 92.522l-1.541 84.165h-428.23zm200.666 26.929c4.23-2.58 9.015-6.81 10.633-9.4 2.817-4.511 3.367-4.315 13.146 4.7 7.91 7.29 12.125 9.407 18.735 9.407 26.044 0 40.088-27.64 27.041-53.22-2.82-5.529-14.197-20.222-25.283-32.65-11.086-12.43-22.343-26.885-25.015-32.123l-4.858-9.523-4.837 9.44c-2.66 5.19-14.336 20.293-25.947 33.561-24.799 28.337-31.861 41.945-29.382 56.615 2.448 14.49 16.318 27.903 28.84 27.891 5.08-.005 12.696-2.119 16.927-4.698zm20.305-603.61c2.266-4.89 13.942-20.073 25.945-33.739 12.004-13.666 23.312-28.405 25.129-32.753 7.206-17.246 1.864-37.56-12.156-46.225-13.35-8.251-24.125-6.066-38.86 7.88-4.268 4.04-7.76 6.067-7.76 4.504 0-4.985-19.34-17.197-27.22-17.188-15.222.019-32.296 18.26-32.395 34.612-.061 9.915 12.007 29.469 32.752 53.071 11.805 13.43 22.809 27.667 24.453 31.637 1.644 3.97 3.665 7.19 4.49 7.155.826-.034 3.356-4.063 5.622-8.953z"/></g></svg>