<svg height="123.003" width="78.999" xmlns="http://www.w3.org/2000/svg"><g transform="matrix(.13166 0 0 .13667 -381.828 -13.667)"><rect width="597.967" height="897.967" rx="48.211" ry="49.888" x="2901.017" y="101.016" style="font-style:normal;font-variant:normal;font-weight:500;font-stretch:normal;font-size:medium;line-height:125%;font-family:Gaelic;-inkscape-font-specification:'Gaelic Medium';letter-spacing:0;word-spacing:0;fill:#fff;fill-opacity:1;stroke:#000;stroke-width:2.03317;stroke-linecap:butt;stroke-linejoin:miter;stroke-miterlimit:4;stroke-dasharray:none;stroke-opacity:1"/><path style="fill:#d40000" d="M3062.718 310.632c0-2.809-6.253-13.8-11.371-19.989-2.913-3.522-11.413-13.06-18.89-21.195-7.476-8.135-15.047-16.705-16.825-19.044-4.582-6.027-9.765-16.908-11.05-23.195-2.887-14.132 5.232-30.316 18.456-36.786 5.18-2.535 5.916-2.668 12.369-2.228 6.068.413 7.54.868 12.743 3.94 5.901 3.485 11.956 9.521 13.93 13.886 1.338 2.962 2.502 2.962 3.84 0 1.974-4.365 8.029-10.4 13.93-13.885 5.203-3.073 6.675-3.528 12.743-3.941 6.453-.44 7.188-.307 12.37 2.228 13.223 6.47 21.342 22.654 18.455 36.786-1.285 6.287-6.468 17.168-11.05 23.195-1.778 2.34-9.35 10.909-16.826 19.044-7.476 8.135-15.976 17.673-18.89 21.195-5.117 6.189-11.37 17.18-11.37 19.989 0 .752-.577 1.368-1.282 1.368-.705 0-1.282-.616-1.282-1.368zM3334.718 310.632c0-2.809-6.253-13.8-11.371-19.989-2.913-3.522-11.413-13.06-18.89-21.195-7.476-8.135-15.047-16.705-16.825-19.044-4.582-6.027-9.765-16.908-11.05-23.195-2.887-14.132 5.232-30.316 18.456-36.786 5.18-2.535 5.916-2.668 12.369-2.228 6.068.413 7.54.868 12.743 3.94 5.901 3.485 11.956 9.521 13.93 13.886 1.338 2.962 2.502 2.962 3.84 0 1.974-4.365 8.029-10.4 13.93-13.885 5.203-3.073 6.675-3.528 12.743-3.941 6.453-.44 7.188-.307 12.37 2.228 13.223 6.47 21.342 22.654 18.455 36.786-1.285 6.287-6.468 17.168-11.05 23.195-1.778 2.34-9.35 10.909-16.826 19.044-7.476 8.135-15.976 17.673-18.89 21.195-5.117 6.189-11.37 17.18-11.37 19.989 0 .752-.577 1.368-1.282 1.368-.705 0-1.282-.616-1.282-1.368zM3198.718 610.632c0-2.809-6.253-13.8-11.371-19.989-2.913-3.522-11.413-13.06-18.89-21.195-7.476-8.135-15.047-16.705-16.825-19.044-4.582-6.027-9.765-16.908-11.05-23.195-2.887-14.132 5.232-30.316 18.456-36.786 5.18-2.535 5.916-2.668 12.369-2.228 6.068.413 7.54.869 12.743 3.94 5.901 3.485 11.956 9.521 13.93 13.887 1.338 2.961 2.502 2.961 3.84 0 1.974-4.366 8.029-10.402 13.93-13.886 5.203-3.072 6.675-3.528 12.743-3.941 6.453-.44 7.188-.307 12.37 2.228 13.223 6.47 21.342 22.654 18.455 36.786-1.285 6.287-6.468 17.168-11.05 23.195-1.778 2.34-9.35 10.909-16.826 19.044-7.476 8.135-15.976 17.673-18.89 21.195-5.117 6.189-11.37 17.18-11.37 19.989 0 .752-.577 1.368-1.282 1.368-.705 0-1.282-.616-1.282-1.368zM3062.718 789.368c0 2.809-6.253 13.8-11.371 19.989-2.913 3.522-11.413 13.06-18.89 21.195-7.476 8.135-15.047 16.704-16.825 19.043-4.582 6.028-9.765 16.909-11.05 23.196-2.887 14.132 5.232 30.316 18.456 36.786 5.18 2.535 5.916 2.668 12.369 2.228 6.068-.413 7.54-.869 12.743-3.941 5.901-3.484 11.956-9.52 13.93-13.886 1.338-2.962 2.502-2.962 3.84 0 1.974 4.366 8.029 10.402 13.93 13.886 5.203 3.072 6.675 3.528 12.743 3.941 6.453.44 7.188.307 12.37-2.228 13.223-6.47 21.342-22.654 18.455-36.786-1.285-6.287-6.468-17.168-11.05-23.196-1.778-2.339-9.35-10.908-16.826-19.043-7.476-8.136-15.976-17.673-18.89-21.195-5.117-6.19-11.37-17.18-11.37-19.989 0-.752-.577-1.368-1.282-1.368-.705 0-1.282.616-1.282 1.368zM3334.718 789.368c0 2.809-6.253 13.8-11.371 19.989-2.913 3.522-11.413 13.06-18.89 21.195-7.476 8.135-15.047 16.704-16.825 19.043-4.582 6.028-9.765 16.909-11.05 23.196-2.887 14.132 5.232 30.316 18.456 36.786 5.18 2.535 5.916 2.668 12.369 2.228 6.068-.413 7.54-.869 12.743-3.941 5.901-3.484 11.956-9.52 13.93-13.886 1.338-2.962 2.502-2.962 3.84 0 1.974 4.366 8.029 10.402 13.93 13.886 5.203 3.072 6.675 3.528 12.743 3.941 6.453.44 7.188.307 12.37-2.228 13.223-6.47 21.342-22.654 18.455-36.786-1.285-6.287-6.468-17.168-11.05-23.196-1.778-2.339-9.35-10.908-16.826-19.043-7.476-8.136-15.976-17.673-18.89-21.195-5.117-6.19-11.37-17.18-11.37-19.989 0-.752-.577-1.368-1.282-1.368-.705 0-1.282.616-1.282 1.368z"/><path style="fill:#b7b772" d="M2980.315 969.538c-.36-.367-.657-38.958-.657-85.759 0-82.258-.058-85.17-1.873-87.448-1.836-2.308-2.295-2.367-22.33-2.856l-20.455-.5V306.728l20.334-.5c17.804-.436 20.551-.72 22.084-2.281 1.644-1.675 1.78-6.989 2.24-87.864l.492-86.082h440.7l.491 86.082c.461 80.875.597 86.189 2.241 87.864 1.533 1.56 4.28 1.845 22.084 2.282l20.334.499v486.249l-20.334.499c-17.804.437-20.551.72-22.084 2.282-1.644 1.675-1.78 6.988-2.24 87.864l-.492 86.082-219.939.251c-120.967.139-220.234-.049-220.596-.416zm437.104-85.952c0-81.68.049-83.697 1.954-86.875 3.95-6.589 6.25-7.222 26.261-7.226l17.912-.004V310.22l-17.912-.004c-20.011-.004-22.312-.637-26.261-7.226-1.906-3.178-1.951-5.195-1.954-86.875v-83.62h-433.83v83.62c0 81.68-.05 83.697-1.954 86.876-3.95 6.588-6.25 7.221-26.261 7.226l-17.912.004V789.48l17.912.004c20.01.004 22.312.637 26.261 7.226 1.905 3.179 1.951 5.196 1.954 86.875v83.62h433.83z"/><path d="M3452.508 283.47c0-1.087-2.396-5.342-4.358-7.737-1.117-1.364-4.375-5.056-7.241-8.205-2.866-3.149-5.769-6.466-6.45-7.371-1.756-2.334-3.743-6.546-4.236-8.98-1.107-5.47 2.006-11.735 7.075-14.24 1.986-.98 2.268-1.032 4.741-.862 2.326.16 2.89.337 4.885 1.526 2.262 1.349 4.583 3.685 5.34 5.375.513 1.147.959 1.147 1.472 0 .757-1.69 3.078-4.026 5.34-5.375 1.994-1.19 2.559-1.366 4.885-1.526 2.473-.17 2.755-.118 4.741.863 5.07 2.504 8.182 8.77 7.075 14.24-.493 2.433-2.48 6.645-4.236 8.979-.681.905-3.584 4.222-6.45 7.371-2.866 3.15-6.124 6.841-7.24 8.205-1.963 2.395-4.36 6.65-4.36 7.737 0 .292-.22.53-.491.53-.27 0-.491-.238-.491-.53zM2947.492 283.47c0-1.087 2.396-5.342 4.358-7.737 1.117-1.364 4.375-5.056 7.241-8.205 2.866-3.149 5.769-6.466 6.45-7.371 1.756-2.334 3.743-6.546 4.236-8.98 1.107-5.47-2.006-11.735-7.075-14.24-1.986-.98-2.268-1.032-4.741-.862-2.326.16-2.89.337-4.885 1.526-2.262 1.349-4.583 3.685-5.34 5.375-.513 1.147-.959 1.147-1.472 0-.757-1.69-3.078-4.026-5.34-5.375-1.994-1.19-2.559-1.366-4.885-1.526-2.473-.17-2.755-.118-4.741.863-5.07 2.504-8.182 8.77-7.075 14.24.493 2.433 2.48 6.645 4.236 8.979.681.905 3.584 4.222 6.45 7.371 2.866 3.15 6.124 6.841 7.24 8.205 1.963 2.395 4.36 6.65 4.36 7.737 0 .292.22.53.491.53.27 0 .491-.238.491-.53zM2947.492 816.53c0 1.087 2.396 5.342 4.358 7.737 1.117 1.364 4.375 5.056 7.241 8.205 2.866 3.15 5.769 6.466 6.45 7.372 1.756 2.333 3.743 6.545 4.236 8.979 1.107 5.47-2.006 11.735-7.075 14.24-1.986.98-2.268 1.032-4.741.862-2.326-.16-2.89-.336-4.885-1.526-2.262-1.348-4.583-3.685-5.34-5.375-.513-1.146-.959-1.146-1.472 0-.757 1.69-3.078 4.027-5.34 5.375-1.994 1.19-2.559 1.366-4.885 1.526-2.473.17-2.755.119-4.741-.863-5.07-2.504-8.182-8.769-7.075-14.24.493-2.433 2.48-6.645 4.236-8.978.681-.906 3.584-4.223 6.45-7.372 2.866-3.15 6.124-6.841 7.24-8.205 1.963-2.395 4.36-6.65 4.36-7.737 0-.291.22-.53.491-.53.27 0 .491.239.491.53zM3452.508 816.53c0 1.087-2.396 5.342-4.358 7.737-1.117 1.364-4.375 5.056-7.241 8.205-2.866 3.15-5.769 6.466-6.45 7.372-1.756 2.333-3.743 6.545-4.236 8.979-1.107 5.47 2.006 11.735 7.075 14.24 1.986.98 2.268 1.032 4.741.862 2.326-.16 2.89-.336 4.885-1.526 2.262-1.348 4.583-3.685 5.34-5.375.513-1.146.959-1.146 1.472 0 .757 1.69 3.078 4.027 5.34 5.375 1.994 1.19 2.559 1.366 4.885 1.526 2.473.17 2.755.119 4.741-.863 5.07-2.504 8.182-8.769 7.075-14.24-.493-2.433-2.48-6.645-4.236-8.978-.681-.906-3.584-4.223-6.45-7.372-2.866-3.15-6.124-6.841-7.24-8.205-1.963-2.395-4.36-6.65-4.36-7.737 0-.291-.22-.53-.491-.53-.27 0-.491.239-.491.53z" style="fill:#d40000"/><path d="M2925 189.221h8.372q.744 7.144 4.233 11.38 3.534 4.235 9.302 4.235 5.814 0 9.349-4.389 3.535-4.388 3.535-11.277 0-7.297-3.442-11.124-3.442-3.878-8.558-3.878-7.675 0-12.977 8.522-2.977-3.215-6.744-5.154L2930.72 141h34.512v18.83h-8v-9.696h-19.814l-1.442 20.768q5.907-5.256 13.163-5.256 9.209 0 14.511 6.736 5.349 6.736 5.349 16.686 0 10.512-5.86 17.247-5.814 6.685-16.326 6.685-9.768 0-15.442-6.072-5.674-6.073-6.372-17.707zM3431 189.221h8.372q.744 7.144 4.233 11.38 3.534 4.235 9.302 4.235 5.814 0 9.349-4.389 3.535-4.388 3.535-11.277 0-7.297-3.442-11.124-3.442-3.878-8.558-3.878-7.675 0-12.977 8.522-2.977-3.215-6.744-5.154L3436.72 141h34.512v18.83h-8v-9.696h-19.814l-1.442 20.768q5.907-5.256 13.163-5.256 9.209 0 14.511 6.736 5.349 6.736 5.349 16.686 0 10.512-5.86 17.247-5.814 6.685-16.326 6.685-9.768 0-15.442-6.072-5.674-6.073-6.372-17.707zM2969 910.779h-8.372q-.744-7.144-4.233-11.38-3.534-4.235-9.302-4.235-5.814 0-9.349 4.389-3.535 4.388-3.535 11.277 0 7.297 3.442 11.124 3.442 3.878 8.558 3.878 7.675 0 12.977-8.521 2.977 3.214 6.744 5.153L2963.28 959h-34.512v-18.83h8v9.696h19.814l1.442-20.768q-5.907 5.256-13.163 5.256-9.209 0-14.511-6.736-5.349-6.736-5.349-16.686 0-10.512 5.86-17.247 5.814-6.685 16.326-6.685 9.767 0 15.442 6.072 5.674 6.072 6.372 17.707zM3475 910.779h-8.372q-.744-7.144-4.233-11.38-3.534-4.235-9.302-4.235-5.814 0-9.349 4.389-3.535 4.388-3.535 11.277 0 7.297 3.442 11.124 3.442 3.878 8.558 3.878 7.675 0 12.977-8.521 2.977 3.214 6.744 5.153L3469.28 959h-34.512v-18.83h8v9.696h19.814l1.442-20.768q-5.907 5.256-13.163 5.256-9.209 0-14.511-6.736-5.349-6.736-5.349-16.686 0-10.512 5.86-17.247 5.814-6.685 16.326-6.685 9.767 0 15.442 6.072 5.674 6.072 6.372 17.707z" style="font-style:normal;font-variant:normal;font-weight:400;font-stretch:normal;font-size:medium;line-height:125%;font-family:Rockwell;-inkscape-font-specification:Rockwell;letter-spacing:0;word-spacing:0;fill:#d40000;fill-opacity:1;stroke:none;stroke-width:1px;stroke-linecap:butt;stroke-linejoin:miter;stroke-opacity:1"/><path style="fill:#fffecd;fill-opacity:1;stroke:#fffecd;stroke-width:.846019;stroke-miterlimit:4;stroke-dasharray:none;stroke-opacity:1" d="M2984.353 881.665c0-99.192 1.791-93.119-27.458-93.119h-17.907V311.015h17.907c29.25 0 27.458 6.073 27.458-93.118v-83.568h432.166v83.568c0 99.191-1.79 93.118 27.458 93.118h17.907V788.546h-17.907c-29.249 0-27.458-6.073-27.458 93.119v83.568h-432.166zm66.92 25.022c4.485-3.31 9.07-7.652 10.189-9.65 1.702-3.042 2.817-2.637 6.845 2.483 16.602 21.106 47.103 15.04 54.879-10.914 5.221-17.427-.975-30-31.657-64.245-8.825-9.849-18.723-22.623-21.996-28.386l-5.952-10.48-4.972 9.748c-2.735 5.36-14.238 20.173-25.563 32.917-28.997 32.63-35.213 49.097-25.413 67.317 9.205 17.113 28.812 22.15 43.64 11.21zm271.208.711c3.789-2.918 8.317-7.252 10.064-9.63 3.006-4.092 3.432-3.997 7.97 1.773 6.397 8.131 16.625 13.163 26.755 13.163 14.31 0 30.193-17.898 30.124-33.947-.044-10.294-11.453-29.355-29.7-49.62-10.052-11.163-21.348-25.543-25.104-31.956l-6.83-11.66-5.102 10.002c-2.806 5.501-14.024 19.88-24.929 31.955-29.568 32.74-35.47 48.081-26.094 67.837 7.858 16.56 29.217 22.583 42.847 12.083zm-116.233-304.492c2.593-4.924 13.444-18.624 24.114-30.442 19.3-21.378 30.891-40.418 30.936-50.815.038-8.923-5.981-20.61-14.161-27.493-12.594-10.596-31.45-7.616-42.756 6.758-4.668 5.934-4.92 5.984-7.344 1.455-3.908-7.302-17.744-14.667-27.554-14.667-16.57 0-30.005 15.263-29.88 33.947.086 12.77 7.612 25.483 30.616 51.715 11.95 13.627 23.095 27.864 24.765 31.636 1.67 3.773 3.827 6.86 4.793 6.86.966 0 3.877-4.03 6.47-8.954zm-110.7-331.773c11.477-12.865 22.97-28.115 25.54-33.89 15.593-35.042-22.994-66.073-49.367-39.7l-8.069 8.068-5.625-6.022c-13.059-13.98-28.309-16.441-40.149-6.478-15.099 12.705-18.362 29.191-9.296 46.967 2.82 5.529 14.197 20.221 25.283 32.65 11.086 12.43 22.307 26.815 24.936 31.968l4.78 9.37 5.55-9.77c3.053-5.375 14.94-20.297 26.417-33.163zm271.66.415c23.219-26.03 28.95-36.277 28.795-51.484-.184-18.04-14.587-33.207-31.536-33.207-7.417 0-26.74 12.427-26.74 17.197 0 1.563-3.493-.464-7.76-4.504-4.269-4.04-10.107-8.548-12.976-10.019-17.58-9.014-38.615 5.582-40.799 28.308-1.464 15.24 4.815 26.816 29.818 54.974 11.078 12.475 22.306 26.86 24.953 31.968l4.81 9.285 5.692-10.02c3.13-5.51 14.715-20.135 25.743-32.498z"/></g></svg>