<svg height="123.003" width="78.999" xmlns="http://www.w3.org/2000/svg"><g transform="matrix(.13166 0 0 .13667 -566.159 -423.676)"><rect style="font-style:normal;font-variant:normal;font-weight:500;font-stretch:normal;font-size:medium;line-height:125%;font-family:Gaelic;-inkscape-font-specification:'Gaelic Medium';letter-spacing:0;word-spacing:0;fill:#fff;fill-opacity:1;stroke:#000;stroke-width:2.03317;stroke-linecap:butt;stroke-linejoin:miter;stroke-miterlimit:4;stroke-dasharray:none;stroke-opacity:1" y="3101.016" x="4301.017" ry="49.888" rx="48.211" height="897.967" width="597.967"/><path d="M4380.315 3969.538c-.36-.367-.656-38.958-.656-85.759 0-82.258-.06-85.17-1.874-87.448-1.836-2.308-2.295-2.367-22.33-2.856l-20.455-.5v-486.248l20.334-.5c17.804-.436 20.551-.72 22.084-2.281 1.644-1.675 1.78-6.989 2.24-87.865l.492-86.081h440.7l.491 86.082c.461 80.875.597 86.189 2.241 87.864 1.533 1.56 4.28 1.845 22.084 2.282l20.334.499v486.249l-20.334.499c-17.804.437-20.551.72-22.084 2.282-1.644 1.675-1.78 6.988-2.24 87.864l-.492 86.082-219.939.251c-120.967.139-220.234-.049-220.596-.416zm437.104-85.952c0-81.68.049-83.697 1.954-86.875 3.95-6.589 6.25-7.222 26.261-7.226h17.912v-479.26h-17.912c-20.011 0-22.312-.637-26.261-7.226-1.906-3.178-1.951-5.195-1.954-86.875v-83.62h-433.83v83.62c0 81.68-.05 83.697-1.954 86.876-3.95 6.588-6.25 7.221-26.261 7.226h-17.912v479.259h17.912c20.01 0 22.312.637 26.261 7.226 1.905 3.179 1.951 5.196 1.954 86.875v83.62h433.83z" style="fill:#b7b772"/><path style="font-style:normal;font-variant:normal;font-weight:400;font-stretch:normal;font-size:medium;line-height:125%;font-family:Rockwell;-inkscape-font-specification:Rockwell;letter-spacing:0;word-spacing:0;fill:#000;fill-opacity:1;stroke:none;stroke-width:1px;stroke-linecap:butt;stroke-linejoin:miter;stroke-opacity:1" d="M4330.165 3213v-8.76h9.367q.76-13.944 6.329-29.184 5.57-15.24 12.101-24.778h-24.253v9.694H4325V3141h44v7.36q-6.886 8.45-13.063 25.66-6.177 17.157-6.177 30.22h8.202v8.76zM4836.165 3213v-8.76h9.367q.76-13.944 6.329-29.184 5.57-15.24 12.101-24.778h-24.253v9.694H4831V3141h44v7.36q-6.886 8.45-13.063 25.66-6.177 17.157-6.177 30.22h8.202v8.76zM4363.835 3887v8.76h-9.367q-.76 13.944-6.329 29.184-5.57 15.24-12.101 24.778h24.253v-9.694H4369V3959h-44v-7.36q6.886-8.45 13.063-25.66 6.177-17.157 6.177-30.22h-8.202V3887zM4869.835 3887v8.76h-9.367q-.76 13.944-6.329 29.184-5.57 15.24-12.101 24.778h24.253v-9.694H4875V3959h-44v-7.36q6.886-8.45 13.063-25.66 6.177-17.157 6.177-30.22h-8.202V3887z"/><path style="fill:#000;fill-opacity:1;stroke:#fffecd;stroke-width:.277224;stroke-miterlimit:4;stroke-dasharray:none;stroke-opacity:1" d="M4330.885 3208.434v-3.912h4.328c4.938 0 4.538.621 5.79-8.998 1.47-11.302 10.105-34.781 15.658-42.58.884-1.242 1.607-2.467 1.607-2.723 0-.257-5.633-.466-12.518-.466h-12.518v10.171h-7.824v-18.778h43.032v3.396c0 2.665-.806 4.736-3.74 9.619-7.216 12.006-13.806 31.602-14.765 43.904l-.504 6.455h8.055v7.824h-26.601zM4836.615 3208.434v-3.912h9.389v-2.42c0-8.832 6.326-29.252 13.179-42.542 2.433-4.719 4.542-8.856 4.685-9.193.144-.337-5.226-.612-11.931-.612h-12.192v10.171h-8.607v-18.778h43.814v3.37c0 2.426-.573 4.122-2.049 6.063-3.111 4.092-9.281 17.358-12.35 26.557-2.747 8.231-5.16 19.806-5.16 24.748v2.636h8.606v7.824h-27.384zM4325.552 3955.167c0-2.719.58-4.42 2.426-7.101 7.579-11.016 16.35-37.17 16.35-48.752v-3.945h-7.823v-7.824h26.601v7.746l-4.498.235-4.5.234-.594 5.477c-1.485 13.664-9.523 36.259-16.325 45.89-.806 1.143-1.466 2.287-1.466 2.543 0 .257 5.633.466 12.518.466h12.518v-9.388h7.824v17.994h-43.031zM4830.974 3955.637c0-2.334.847-4.421 3.417-8.41 7.927-12.309 16.142-37.15 16.142-48.815v-3.043h-7.824v-7.824h26.601v7.824h-9.186l-.554 5.618c-1.18 11.973-7.628 31.074-14.57 43.155-1.69 2.942-3.073 5.495-3.073 5.672 0 .177 5.633.322 12.518.322h12.518v-9.388h7.824V3958.743h-43.814z"/><path style="fill:#050505" d="M4449.992 3310.716c2.097-2.42 4.401-6.826 6.948-13.287 3.398-8.62 5.53-24.061 3.323-24.061-.5 0-3.295 2.183-6.212 4.85-7.203 6.589-10.967 8.188-19.157 8.143-5.438-.03-7.157-.385-10.798-2.223-8.006-4.043-13.485-11.168-15.655-20.36-2.371-10.042 4.94-24.204 19.129-37.046 20.673-18.713 27.165-25.357 32.634-33.397 1.996-2.934 3.704-5.335 3.796-5.335.092 0 1.8 2.4 3.796 5.335 5.47 8.04 11.961 14.684 32.634 33.397 14.188 12.842 21.5 27.004 19.13 37.047-2.17 9.19-7.65 16.316-15.656 20.359-3.641 1.838-5.36 2.192-10.798 2.223-8.19.045-11.953-1.554-19.157-8.142-2.917-2.668-5.712-4.851-6.212-4.851-2.207 0-.075 15.44 3.323 24.061 2.547 6.461 4.851 10.867 6.949 13.287 1.538 1.775 1.096 1.754-7.064-.34l-6.8-1.183-6.944 1.175c-8.51 1.439-8.737 2.11-7.21.348zM4721.992 3310.716c2.097-2.42 4.401-6.826 6.948-13.287 3.398-8.62 5.53-24.061 3.323-24.061-.5 0-3.295 2.183-6.212 4.85-7.203 6.589-10.967 8.188-19.157 8.143-5.438-.03-7.157-.385-10.798-2.223-8.006-4.043-13.485-11.168-15.655-20.36-2.371-10.042 4.94-24.204 19.129-37.046 20.673-18.713 27.165-25.357 32.634-33.397 1.996-2.934 3.704-5.335 3.796-5.335.092 0 1.8 2.4 3.796 5.335 5.47 8.04 11.961 14.684 32.634 33.397 14.188 12.842 21.5 27.004 19.13 37.047-2.17 9.19-7.65 16.316-15.656 20.359-3.641 1.838-5.36 2.192-10.798 2.223-8.19.045-11.953-1.554-19.157-8.142-2.917-2.668-5.712-4.851-6.212-4.851-2.207 0-.075 15.44 3.323 24.061 2.547 6.461 4.851 10.867 6.949 13.287 1.538 1.775 1.096 1.754-7.064-.34l-6.8-1.183-6.944 1.175c-8.51 1.439-8.737 2.11-7.21.348zM4449.992 3610.716c2.097-2.42 4.401-6.826 6.948-13.287 3.398-8.62 5.53-24.061 3.323-24.061-.5 0-3.295 2.183-6.212 4.85-7.203 6.589-10.967 8.188-19.157 8.143-5.438-.03-7.157-.385-10.798-2.223-8.006-4.043-13.485-11.168-15.655-20.36-2.371-10.042 4.94-24.204 19.129-37.046 20.673-18.713 27.165-25.357 32.634-33.397 1.996-2.934 3.704-5.335 3.796-5.335.092 0 1.8 2.4 3.796 5.335 5.47 8.04 11.961 14.684 32.634 33.397 14.188 12.842 21.5 27.004 19.13 37.047-2.17 9.19-7.65 16.316-15.656 20.359-3.641 1.838-5.36 2.192-10.798 2.223-8.19.045-11.953-1.554-19.157-8.142-2.917-2.668-5.712-4.851-6.212-4.851-2.207 0-.075 15.44 3.323 24.061 2.547 6.461 4.851 10.867 6.949 13.287 1.538 1.775 1.096 1.754-7.064-.34l-6.8-1.183-6.944 1.175c-8.51 1.439-8.737 2.11-7.21.348zM4721.992 3610.716c2.097-2.42 4.401-6.826 6.948-13.287 3.398-8.62 5.53-24.061 3.323-24.061-.5 0-3.295 2.183-6.212 4.85-7.203 6.589-10.967 8.188-19.157 8.143-5.438-.03-7.157-.385-10.798-2.223-8.006-4.043-13.485-11.168-15.655-20.36-2.371-10.042 4.94-24.204 19.129-37.046 20.673-18.713 27.165-25.357 32.634-33.397 1.996-2.934 3.704-5.335 3.796-5.335.092 0 1.8 2.4 3.796 5.335 5.47 8.04 11.961 14.684 32.634 33.397 14.188 12.842 21.5 27.004 19.13 37.047-2.17 9.19-7.65 16.316-15.656 20.359-3.641 1.838-5.36 2.192-10.798 2.223-8.19.045-11.953-1.554-19.157-8.142-2.917-2.668-5.712-4.851-6.212-4.851-2.207 0-.075 15.44 3.323 24.061 2.547 6.461 4.851 10.867 6.949 13.287 1.538 1.775 1.096 1.754-7.064-.34l-6.8-1.183-6.944 1.175c-8.51 1.439-8.737 2.11-7.21.348zM4449.992 3789.284c2.097 2.42 4.401 6.826 6.948 13.287 3.398 8.62 5.53 24.061 3.323 24.061-.5 0-3.295-2.183-6.212-4.851-7.203-6.588-10.967-8.187-19.157-8.142-5.438.03-7.157.385-10.798 2.223-8.006 4.043-13.485 11.168-15.655 20.359-2.371 10.043 4.94 24.205 19.129 37.047 20.673 18.713 27.165 25.357 32.634 33.397 1.996 2.934 3.704 5.335 3.796 5.335.092 0 1.8-2.401 3.796-5.335 5.47-8.04 11.961-14.684 32.634-33.397 14.188-12.842 21.5-27.004 19.13-37.047-2.17-9.19-7.65-16.316-15.656-20.359-3.641-1.838-5.36-2.192-10.798-2.223-8.19-.046-11.953 1.554-19.157 8.142-2.917 2.668-5.712 4.851-6.212 4.851-2.207 0-.075-15.44 3.323-24.061 2.547-6.461 4.851-10.868 6.949-13.287 1.538-1.775 1.096-1.754-7.064.34l-6.8 1.183-6.944-1.175c-8.51-1.44-8.737-2.11-7.21-.348zM4721.992 3789.284c2.097 2.42 4.401 6.826 6.948 13.287 3.398 8.62 5.53 24.061 3.323 24.061-.5 0-3.295-2.183-6.212-4.851-7.203-6.588-10.967-8.187-19.157-8.142-5.438.03-7.157.385-10.798 2.223-8.006 4.043-13.485 11.168-15.655 20.359-2.371 10.043 4.94 24.205 19.129 37.047 20.673 18.713 27.165 25.357 32.634 33.397 1.996 2.934 3.704 5.335 3.796 5.335.092 0 1.8-2.401 3.796-5.335 5.47-8.04 11.961-14.684 32.634-33.397 14.188-12.842 21.5-27.004 19.13-37.047-2.17-9.19-7.65-16.316-15.656-20.359-3.641-1.838-5.36-2.192-10.798-2.223-8.19-.046-11.953 1.554-19.157 8.142-2.917 2.668-5.712 4.851-6.212 4.851-2.207 0-.075-15.44 3.323-24.061 2.547-6.461 4.851-10.868 6.949-13.287 1.538-1.775 1.096-1.754-7.064.34l-6.8 1.183-6.944-1.175c-8.51-1.44-8.737-2.11-7.21-.348zM4585.992 3460.716c2.097-2.42 4.401-6.826 6.948-13.287 3.398-8.62 5.53-24.061 3.323-24.061-.5 0-3.295 2.183-6.212 4.85-7.203 6.589-10.967 8.188-19.157 8.143-5.438-.03-7.157-.385-10.798-2.223-8.006-4.043-13.485-11.168-15.655-20.36-2.371-10.042 4.94-24.204 19.129-37.046 20.673-18.713 27.165-25.357 32.634-33.397 1.996-2.934 3.704-5.335 3.796-5.335.092 0 1.8 2.4 3.796 5.335 5.47 8.04 11.961 14.684 32.634 33.397 14.188 12.842 21.5 27.004 19.13 37.047-2.17 9.19-7.65 16.316-15.656 20.359-3.641 1.838-5.36 2.192-10.798 2.223-8.19.045-11.953-1.554-19.157-8.142-2.917-2.668-5.712-4.851-6.212-4.851-2.207 0-.075 15.44 3.323 24.061 2.547 6.461 4.851 10.867 6.949 13.287 1.538 1.775 1.096 1.754-7.064-.34l-6.8-1.183-6.944 1.175c-8.51 1.439-8.737 2.11-7.21.348zM4341.497 3283.503c.824-.937 1.729-2.642 2.73-5.143 1.334-3.337 2.172-9.314 1.305-9.314-.196 0-1.295.845-2.44 1.878-2.83 2.55-4.31 3.169-7.526 3.151-2.137-.012-2.812-.149-4.242-.86-3.146-1.565-5.298-4.323-6.15-7.881-.932-3.888 1.94-9.37 7.514-14.341 8.122-7.244 10.672-9.815 12.82-12.928.785-1.136 1.456-2.065 1.492-2.065.036 0 .707.93 1.491 2.065 2.149 3.113 4.7 5.684 12.82 12.928 5.575 4.971 8.447 10.453 7.516 14.34-.853 3.559-3.005 6.317-6.15 7.882-1.43.711-2.106.848-4.243.86-3.217.018-4.696-.601-7.525-3.151-1.146-1.033-2.245-1.878-2.44-1.878-.868 0-.03 5.977 1.305 9.314 1 2.5 1.905 4.206 2.73 5.143.604.687.43.679-2.776-.132l-2.67-.457-2.73.454c-3.342.557-3.431.817-2.831.135zM4847.497 3283.503c.824-.937 1.729-2.642 2.73-5.143 1.334-3.337 2.172-9.314 1.305-9.314-.196 0-1.295.845-2.44 1.878-2.83 2.55-4.31 3.169-7.526 3.151-2.137-.012-2.812-.149-4.242-.86-3.146-1.565-5.298-4.323-6.15-7.881-.932-3.888 1.94-9.37 7.514-14.341 8.122-7.244 10.672-9.815 12.82-12.928.785-1.136 1.456-2.065 1.492-2.065.036 0 .707.93 1.491 2.065 2.149 3.113 4.7 5.684 12.82 12.928 5.575 4.971 8.447 10.453 7.516 14.34-.853 3.559-3.005 6.317-6.15 7.882-1.43.711-2.106.848-4.243.86-3.217.018-4.696-.601-7.525-3.151-1.146-1.033-2.245-1.878-2.44-1.878-.868 0-.03 5.977 1.305 9.314 1 2.5 1.905 4.206 2.73 5.143.604.687.43.679-2.776-.132l-2.67-.457-2.73.454c-3.342.557-3.431.817-2.831.135zM4341.497 3816.497c.824.937 1.729 2.642 2.73 5.143 1.334 3.337 2.172 9.315 1.305 9.315-.196 0-1.295-.846-2.44-1.878-2.83-2.55-4.31-3.17-7.526-3.152-2.137.012-2.812.149-4.242.86-3.146 1.565-5.298 4.323-6.15 7.881-.932 3.888 1.94 9.37 7.514 14.341 8.122 7.244 10.672 9.815 12.82 12.928.785 1.136 1.456 2.065 1.492 2.065.036 0 .707-.93 1.491-2.065 2.149-3.113 4.7-5.684 12.82-12.928 5.575-4.971 8.447-10.453 7.516-14.34-.853-3.559-3.005-6.317-6.15-7.882-1.43-.711-2.106-.848-4.243-.86-3.217-.018-4.696.601-7.525 3.152-1.146 1.032-2.245 1.877-2.44 1.877-.868 0-.03-5.977 1.305-9.314 1-2.5 1.905-4.206 2.73-5.143.604-.687.43-.679-2.776.132l-2.67.458-2.73-.455c-3.342-.557-3.431-.817-2.831-.135zM4847.497 3816.497c.824.937 1.729 2.642 2.73 5.143 1.334 3.337 2.172 9.315 1.305 9.315-.196 0-1.295-.846-2.44-1.878-2.83-2.55-4.31-3.17-7.526-3.152-2.137.012-2.812.149-4.242.86-3.146 1.565-5.298 4.323-6.15 7.881-.932 3.888 1.94 9.37 7.514 14.341 8.122 7.244 10.672 9.815 12.82 12.928.785 1.136 1.456 2.065 1.492 2.065.036 0 .707-.93 1.491-2.065 2.149-3.113 4.7-5.684 12.82-12.928 5.575-4.971 8.447-10.453 7.516-14.34-.853-3.559-3.005-6.317-6.15-7.882-1.43-.711-2.106-.848-4.243-.86-3.217-.018-4.696.601-7.525 3.152-1.146 1.032-2.245 1.877-2.44 1.877-.868 0-.03-5.977 1.305-9.314 1-2.5 1.905-4.206 2.73-5.143.604-.687.43-.679-2.776.132l-2.67.458-2.73-.455c-3.342-.557-3.431-.817-2.831-.135z"/><path style="fill:#fffecd;fill-opacity:1;stroke:#fffecd;stroke-width:1.32191;stroke-miterlimit:4;stroke-dasharray:none;stroke-opacity:1" d="M4385.008 3880.687c0-59.733-1.262-84.457-4.476-87.672-2.463-2.462-12.536-4.476-22.385-4.476h-17.907V3311.008h17.907c9.85 0 19.922-2.015 22.385-4.477 3.214-3.214 4.477-27.939 4.477-87.672v-83.195h432.624l1.002 86.74 1.001 86.738 21.452 1.12 21.451 1.118v476.786l-21.451 1.12-21.452 1.118-1.001 86.74-1.002 86.738h-432.625zm105.639 5.29c13.632-14.12 26.516-30.224 28.63-35.785 4.868-12.804-1.553-27.426-15.471-35.227-8.622-4.833-11.293-4.866-20.52-.255-5.833 2.915-11.78 5.885-13.214 6.6-1.435.716-.88-4.267 1.234-11.072a15801.6 15801.6 0 0 1 5.63-18.088c1.443-4.622-1.049-5.446-13.02-4.304l-14.804 1.411 5.255 12.579c7.501 17.952 6.607 20.542-5.004 14.485-14.573-7.602-22.341-6.712-32.813 3.76-16.2 16.199-12.732 28.126 17.89 61.539 14.877 16.231 28.032 29.629 29.234 29.772 1.202.143 13.34-11.293 26.973-25.414zm273.803-2.246c32.359-33.21 36.17-47.636 17.104-64.737-9.514-8.533-16.402-9.031-32.42-2.344-7.36 3.073-7.433-.508-.46-22.635 2.176-6.905 1.045-7.453-12.682-6.144-12.562 1.198-14.548 2.46-11.93 7.581 1.727 3.38 4.22 10.665 5.539 16.192 2.37 9.923 2.272 9.98-7.878 4.686-14.592-7.612-22.356-6.725-32.831 3.75-11.511 11.511-11.788 26.64-.763 41.67 8.359 11.397 44.159 48.79 47.408 49.52.938.21 13.95-12.183 28.913-27.54zm-288.338-277.507c-1.442-3.348-3.403-10.625-4.357-16.172-1.68-9.76-1.383-9.952 9.196-5.959 16.25 6.134 30.125 1.14 37.023-13.328 7.578-15.89 4.353-22.268-29.16-57.66l-24.902-26.302-28.26 29.579c-23.13 24.21-28.26 31.744-28.26 41.504 0 23.874 28.5 38.322 45.408 23.02 8.427-7.626 8.844-2.155 1.227 16.076-3.078 7.367-5.596 13.923-5.596 14.57 0 .646 6.818 1.081 15.152.966 12.554-.173 14.702-1.252 12.53-6.294zm274.506 4.42c0-.918-1.447-4.497-3.215-7.953-1.768-3.456-4.412-11.275-5.875-17.375-2.571-10.715-2.42-10.873 4.44-4.663 7.861 7.113 23.832 8.404 34.349 2.775 10.102-5.406 15.066-22.65 9.958-34.594-3.601-8.422-54.718-64.734-55.997-61.688-.247.589-12.62 13.902-27.496 29.586-23.305 24.57-27.047 30.377-27.047 41.97 0 17.013 10.714 28.378 26.754 28.378 6.507 0 14.9-2.778 18.653-6.174 8.427-7.626 8.844-2.155 1.226 16.076-3.077 7.367-5.596 13.923-5.596 14.57 0 .646 6.716 1.083 14.923.97 8.208-.114 14.923-.958 14.923-1.877zm-134.306-148.738c0-.45-2.507-5.626-5.573-11.503-3.065-5.877-5.583-13.884-5.596-17.793-.022-6.649.417-6.709 6.8-.932 9.888 8.948 25.613 7.654 36.25-2.983 16.772-16.772 12.183-29.643-23.592-66.175l-24.45-24.968-21.897 21.237c-29.269 28.388-37.832 42.374-34.693 56.665 1.352 6.158 6.057 13.717 10.455 16.797 9.082 6.361 27.128 7.465 30.586 1.87 3.529-5.71 9.326-4.436 9.326 2.05 0 3.18-2.416 10.455-5.37 16.167l-5.37 10.385h16.562c9.11 0 16.563-.367 16.563-.817zm-140.011-156.494c-5.44-17.218-6.14-24.25-2.41-24.25 2.17 0 4.982 1.679 6.25 3.73 3.489 5.645 17.8 4.473 27.386-2.241 11.648-8.158 16.229-21.517 11.576-33.755-3.503-9.213-54.809-63.653-57.06-60.546-.562.775-13.088 14.333-27.836 30.128-30.426 32.587-33.936 44.71-17.657 60.988 10.515 10.515 22.855 11.703 34.781 3.35 9.806-6.868 10.482-2.926 2.696 15.71-3.078 7.366-5.596 13.608-5.596 13.87 0 .262 6.8.477 15.114.477 13.412 0 14.848-.84 12.756-7.461zm274.317 5.119c0-1.289-2.518-8.37-5.596-15.736-7.508-17.97-7.136-19.231 3.6-12.197 12.586 8.247 22.257 7.56 33.307-2.369 18.846-16.93 14.74-31.4-18.404-64.87-15.473-15.623-28.589-27.775-29.147-27.003-.558.772-13.082 14.327-27.83 30.122-22.625 24.232-26.813 30.746-26.813 41.7 0 22.822 25.25 35.727 44.089 22.532 8.269-5.791 8.39-5.696 5.91 4.664-1.393 5.817-3.979 13.404-5.747 16.86-4.521 8.837-4.789 8.64 11.708 8.64 8.208 0 14.923-1.055 14.923-2.343z"/></g></svg>