<svg height="123.003" width="78.999" xmlns="http://www.w3.org/2000/svg"><g transform="matrix(.13166 0 0 .13667 -289.663 -423.676)"><rect width="597.967" height="897.967" rx="48.211" ry="49.888" x="2201.017" y="3101.016" style="font-style:normal;font-variant:normal;font-weight:500;font-stretch:normal;font-size:medium;line-height:125%;font-family:Gaelic;-inkscape-font-specification:'Gaelic Medium';letter-spacing:0;word-spacing:0;fill:#fff;fill-opacity:1;stroke:#000;stroke-width:2.03317;stroke-linecap:butt;stroke-linejoin:miter;stroke-miterlimit:4;stroke-dasharray:none;stroke-opacity:1"/><path style="fill:#b7b772" d="M2280.315 3969.538c-.36-.367-.657-38.958-.657-85.759 0-82.258-.058-85.17-1.873-87.448-1.836-2.308-2.295-2.367-22.33-2.856l-20.455-.5v-486.248l20.334-.5c17.804-.436 20.551-.72 22.084-2.281 1.644-1.675 1.78-6.989 2.24-87.865l.492-86.081h440.7l.491 86.082c.461 80.875.597 86.189 2.241 87.864 1.533 1.56 4.28 1.845 22.084 2.282l20.334.499v486.249l-20.334.499c-17.804.437-20.551.72-22.084 2.282-1.644 1.675-1.78 6.988-2.24 87.864l-.492 86.082-219.939.251c-120.967.139-220.234-.049-220.596-.416zm437.104-85.952c0-81.68.049-83.697 1.954-86.875 3.95-6.589 6.25-7.222 26.261-7.226h17.912v-479.26h-17.912c-20.011 0-22.312-.637-26.261-7.226-1.906-3.178-1.951-5.195-1.954-86.875v-83.62h-433.83v83.62c0 81.68-.05 83.697-1.954 86.876-3.95 6.588-6.25 7.221-26.261 7.226h-17.912v479.259h17.912c20.01 0 22.312.637 26.261 7.226 1.905 3.179 1.951 5.196 1.954 86.875v83.62h433.83z"/><path style="font-style:normal;font-variant:normal;font-weight:400;font-stretch:normal;font-size:medium;line-height:125%;font-family:Rockwell;-inkscape-font-specification:Rockwell;letter-spacing:0;word-spacing:0;fill:#000;fill-opacity:1;stroke:none;stroke-width:1px;stroke-linecap:butt;stroke-linejoin:miter;stroke-opacity:1" d="M2248.218 3193.793h-19.508q-1-4.776-3.71-8.063l24.135-44.73h6.711v44.165h9.254v8.628h-9.254v10.528h5.294V3213h-19.091v-8.68h6.169zm0-8.628v-28.142l-15.215 28.142zM2754.218 3193.793h-19.508q-1-4.776-3.71-8.063l24.135-44.73h6.711v44.165h9.254v8.628h-9.254v10.528h5.294V3213h-19.091v-8.68h6.169zm0-8.628v-28.142l-15.215 28.142zM2241.882 3906.207h19.508q1 4.776 3.71 8.063l-24.135 44.73h-6.711v-44.165H2225v-8.628h9.254v-10.528h-5.294V3887h19.091v8.68h-6.169zm0 8.628v28.142l15.215-28.142zM2747.882 3906.207h19.508q1 4.776 3.71 8.063l-24.135 44.73h-6.711v-44.165H2731v-8.628h9.254v-10.528h-5.294V3887h19.091v8.68h-6.169zm0 8.628v28.142l15.215-28.142z"/><path style="fill:#000;fill-opacity:1;stroke:#fffecd;stroke-width:.277224;stroke-miterlimit:4;stroke-dasharray:none;stroke-opacity:1" d="M2242.416 3208.434v-3.912h6.259v-10.954h-19.599l-.763-2.151c-.42-1.184-1.115-2.763-1.545-3.51-.43-.748-.779-1.804-.774-2.348 0-.543 5.249-10.67 11.655-22.504l11.647-21.515 3.21-.241 3.21-.24v44.686h9.389v7.823h-9.389v10.954h2.347c2.295 0 2.348.087 2.348 3.912v3.912H2242.416zm6.259-37.32c0-8.514-.29-14.32-.692-13.887-1.06 1.138-14.956 26.958-14.956 27.788 0 .402 3.51.73 7.824.73h7.824zM2748.124 3208.434v-3.912h6.26v-10.954l-9.585-.013-9.584-.013-1.783-4.12-1.782-4.122 11.91-22.075 11.911-22.076h5.954v44.596h9.388v7.824h-9.388v10.953h5.477v7.824h-18.778v-3.912zm6.26-37.294c0-8.033-.141-14.458-.313-14.279-.574.601-15.335 27.96-15.335 28.425 0 .252 3.52.459 7.823.459h7.824zM2234.549 3936.49v-22.343h-9.389v-7.824h9.389v-10.954h-5.477v-7.824h18.777v7.824h-6.259v10.954h19.272l1.762 4.252 1.763 4.252-11.734 21.762-11.734 21.762-3.185.24-3.185.242zm15.56-7.91c3.92-7.339 7.129-13.588 7.129-13.888 0-.3-3.52-.545-7.824-.545h-7.824v14.63c0 8.553.289 14.322.694 13.887.382-.408 3.903-6.747 7.824-14.085zM2751.258 3914.355c2.03-.16 5.55-.162 7.824 0 2.274.158.613.29-3.69.292-4.303 0-6.163-.128-4.134-.288z"/><path style="fill:#000;fill-opacity:1;stroke:#fffecd;stroke-width:.277224;stroke-miterlimit:4;stroke-dasharray:none;stroke-opacity:1" d="m2740.734 3936.64-.207-22.102-4.5-.235-4.498-.235v-7.745h9.389v-10.954h-5.477v-7.824H2753.436v7.824h-6.26v10.954h10.172c9.164 0 10.171.135 10.174 1.369 0 .753.714 2.536 1.584 3.963l1.582 2.594-11.951 22.237-11.951 22.236-2.922.01-2.922.01-.208-22.102zm15.17-7.646c4.155-7.736 7.233-14.263 6.841-14.505-.994-.615-13.751-.59-14.75.027-.945.584-1.17 28.59-.231 28.561.322-.01 3.986-6.347 8.14-14.083z"/><path d="M2349.992 3310.716c2.097-2.42 4.401-6.826 6.948-13.287 3.398-8.62 5.53-24.061 3.323-24.061-.5 0-3.295 2.183-6.212 4.85-7.203 6.589-10.967 8.188-19.157 8.143-5.438-.03-7.157-.385-10.798-2.223-8.006-4.043-13.485-11.168-15.655-20.36-2.371-10.042 4.94-24.204 19.129-37.046 20.673-18.713 27.165-25.357 32.634-33.397 1.996-2.934 3.704-5.335 3.796-5.335.092 0 1.8 2.4 3.796 5.335 5.47 8.04 11.961 14.684 32.634 33.397 14.188 12.842 21.5 27.004 19.13 37.047-2.17 9.19-7.65 16.316-15.656 20.359-3.641 1.838-5.36 2.192-10.798 2.223-8.19.045-11.953-1.554-19.157-8.142-2.917-2.668-5.712-4.851-6.212-4.851-2.207 0-.075 15.44 3.323 24.061 2.547 6.461 4.851 10.867 6.949 13.287 1.538 1.775 1.096 1.754-7.064-.34l-6.8-1.183-6.944 1.175c-8.51 1.439-8.737 2.11-7.21.348zM2621.992 3310.716c2.097-2.42 4.401-6.826 6.948-13.287 3.398-8.62 5.53-24.061 3.323-24.061-.5 0-3.295 2.183-6.212 4.85-7.203 6.589-10.967 8.188-19.157 8.143-5.438-.03-7.157-.385-10.798-2.223-8.006-4.043-13.485-11.168-15.655-20.36-2.371-10.042 4.94-24.204 19.129-37.046 20.673-18.713 27.165-25.357 32.634-33.397 1.996-2.934 3.704-5.335 3.796-5.335.092 0 1.8 2.4 3.796 5.335 5.47 8.04 11.961 14.684 32.634 33.397 14.188 12.842 21.5 27.004 19.13 37.047-2.17 9.19-7.65 16.316-15.656 20.359-3.641 1.838-5.36 2.192-10.798 2.223-8.19.045-11.953-1.554-19.157-8.142-2.917-2.668-5.712-4.851-6.212-4.851-2.207 0-.075 15.44 3.323 24.061 2.547 6.461 4.851 10.867 6.949 13.287 1.538 1.775 1.096 1.754-7.064-.34l-6.8-1.183-6.944 1.175c-8.51 1.439-8.737 2.11-7.21.348zM2349.992 3789.284c2.097 2.42 4.401 6.826 6.948 13.287 3.398 8.62 5.53 24.061 3.323 24.061-.5 0-3.295-2.183-6.212-4.851-7.203-6.588-10.967-8.187-19.157-8.142-5.438.03-7.157.385-10.798 2.223-8.006 4.043-13.485 11.168-15.655 20.359-2.371 10.043 4.94 24.205 19.129 37.047 20.673 18.713 27.165 25.357 32.634 33.397 1.996 2.934 3.704 5.335 3.796 5.335.092 0 1.8-2.401 3.796-5.335 5.47-8.04 11.961-14.684 32.634-33.397 14.188-12.842 21.5-27.004 19.13-37.047-2.17-9.19-7.65-16.316-15.656-20.359-3.641-1.838-5.36-2.192-10.798-2.223-8.19-.046-11.953 1.554-19.157 8.142-2.917 2.668-5.712 4.851-6.212 4.851-2.207 0-.075-15.44 3.323-24.061 2.547-6.461 4.851-10.868 6.949-13.287 1.538-1.775 1.096-1.754-7.064.34l-6.8 1.183-6.944-1.175c-8.51-1.44-8.737-2.11-7.21-.348zM2621.992 3789.284c2.097 2.42 4.401 6.826 6.948 13.287 3.398 8.62 5.53 24.061 3.323 24.061-.5 0-3.295-2.183-6.212-4.851-7.203-6.588-10.967-8.187-19.157-8.142-5.438.03-7.157.385-10.798 2.223-8.006 4.043-13.485 11.168-15.655 20.359-2.371 10.043 4.94 24.205 19.129 37.047 20.673 18.713 27.165 25.357 32.634 33.397 1.996 2.934 3.704 5.335 3.796 5.335.092 0 1.8-2.401 3.796-5.335 5.47-8.04 11.961-14.684 32.634-33.397 14.188-12.842 21.5-27.004 19.13-37.047-2.17-9.19-7.65-16.316-15.656-20.359-3.641-1.838-5.36-2.192-10.798-2.223-8.19-.046-11.953 1.554-19.157 8.142-2.917 2.668-5.712 4.851-6.212 4.851-2.207 0-.075-15.44 3.323-24.061 2.547-6.461 4.851-10.868 6.949-13.287 1.538-1.775 1.096-1.754-7.064.34l-6.8 1.183-6.944-1.175c-8.51-1.44-8.737-2.11-7.21-.348zM2241.497 3283.503c.824-.937 1.729-2.642 2.73-5.143 1.334-3.337 2.172-9.314 1.305-9.314-.196 0-1.294.845-2.44 1.878-2.83 2.55-4.31 3.169-7.526 3.151-2.137-.012-2.812-.149-4.242-.86-3.146-1.565-5.298-4.323-6.15-7.881-.932-3.888 1.94-9.37 7.514-14.341 8.122-7.244 10.672-9.815 12.82-12.928.785-1.136 1.456-2.065 1.492-2.065.036 0 .707.93 1.491 2.065 2.149 3.113 4.7 5.684 12.82 12.928 5.575 4.971 8.447 10.453 7.516 14.34-.853 3.559-3.005 6.317-6.15 7.882-1.43.711-2.106.848-4.243.86-3.217.018-4.696-.601-7.525-3.151-1.146-1.033-2.245-1.878-2.44-1.878-.868 0-.03 5.977 1.305 9.314 1 2.5 1.905 4.206 2.73 5.143.604.687.43.679-2.775-.132l-2.672-.457-2.728.454c-3.343.557-3.432.817-2.832.135zM2747.497 3283.503c.824-.937 1.729-2.642 2.73-5.143 1.334-3.337 2.172-9.314 1.305-9.314-.196 0-1.294.845-2.44 1.878-2.83 2.55-4.31 3.169-7.526 3.151-2.137-.012-2.812-.149-4.242-.86-3.146-1.565-5.298-4.323-6.15-7.881-.932-3.888 1.94-9.37 7.514-14.341 8.122-7.244 10.672-9.815 12.82-12.928.785-1.136 1.456-2.065 1.492-2.065.036 0 .707.93 1.491 2.065 2.149 3.113 4.7 5.684 12.82 12.928 5.575 4.971 8.447 10.453 7.516 14.34-.853 3.559-3.005 6.317-6.15 7.882-1.43.711-2.106.848-4.243.86-3.217.018-4.696-.601-7.525-3.151-1.146-1.033-2.245-1.878-2.44-1.878-.868 0-.03 5.977 1.305 9.314 1 2.5 1.905 4.206 2.73 5.143.604.687.43.679-2.775-.132l-2.672-.457-2.728.454c-3.343.557-3.432.817-2.832.135zM2241.497 3816.497c.824.937 1.729 2.642 2.73 5.143 1.334 3.337 2.172 9.315 1.305 9.315-.196 0-1.294-.846-2.44-1.878-2.83-2.55-4.31-3.17-7.526-3.152-2.137.012-2.812.149-4.242.86-3.146 1.565-5.298 4.323-6.15 7.881-.932 3.888 1.94 9.37 7.514 14.341 8.122 7.244 10.672 9.815 12.82 12.928.785 1.136 1.456 2.065 1.492 2.065.036 0 .707-.93 1.491-2.065 2.149-3.113 4.7-5.684 12.82-12.928 5.575-4.971 8.447-10.453 7.516-14.34-.853-3.559-3.005-6.317-6.15-7.882-1.43-.711-2.106-.848-4.243-.86-3.217-.018-4.696.601-7.525 3.152-1.146 1.032-2.245 1.877-2.44 1.877-.868 0-.03-5.977 1.305-9.314 1-2.5 1.905-4.206 2.73-5.143.604-.687.43-.679-2.775.132l-2.672.458-2.728-.455c-3.343-.557-3.432-.817-2.832-.135zM2747.497 3816.497c.824.937 1.729 2.642 2.73 5.143 1.334 3.337 2.172 9.315 1.305 9.315-.196 0-1.294-.846-2.44-1.878-2.83-2.55-4.31-3.17-7.526-3.152-2.137.012-2.812.149-4.242.86-3.146 1.565-5.298 4.323-6.15 7.881-.932 3.888 1.94 9.37 7.514 14.341 8.122 7.244 10.672 9.815 12.82 12.928.785 1.136 1.456 2.065 1.492 2.065.036 0 .707-.93 1.491-2.065 2.149-3.113 4.7-5.684 12.82-12.928 5.575-4.971 8.447-10.453 7.516-14.34-.853-3.559-3.005-6.317-6.15-7.882-1.43-.711-2.106-.848-4.243-.86-3.217-.018-4.696.601-7.525 3.152-1.146 1.032-2.245 1.877-2.44 1.877-.868 0-.03-5.977 1.305-9.314 1-2.5 1.905-4.206 2.73-5.143.604-.687.43-.679-2.775.132l-2.672.458-2.728-.455c-3.343-.557-3.432-.817-2.832-.135z" style="fill:#050505"/><path style="fill:#fffecd;fill-opacity:1;stroke:#fffecd;stroke-width:1.32191;stroke-miterlimit:4;stroke-dasharray:none;stroke-opacity:1" d="M2283.649 3880.687c0-59.733-1.263-84.457-4.477-87.672-2.462-2.462-12.535-4.476-22.384-4.476h-17.908V3311.008h17.908c9.849 0 19.922-2.015 22.384-4.477 3.214-3.214 4.477-27.939 4.477-87.672v-83.195h432.762v83.195c0 59.733 1.263 84.458 4.477 87.672 2.462 2.462 12.535 4.477 22.384 4.477h17.908V3788.539h-17.907c-9.85 0-19.923 2.014-22.385 4.476-3.214 3.215-4.477 27.94-4.477 87.672v83.195H2283.65zm105.082 6.481c30.1-31.19 35.683-41.997 29.46-57.019-2.672-6.453-9.405-13.112-16.034-15.858-9.69-4.014-13.044-3.805-22.064 1.372-9.923 5.695-10.629 5.678-10.505-.25.073-3.496 2.53-10.553 5.463-15.682 7.515-13.146 7.415-13.256-10.792-11.808l-16.389 1.303 5.174 9.916c2.845 5.454 5.184 12.775 5.196 16.27.021 5.929-.692 5.946-10.614.251-9.021-5.177-12.374-5.386-22.064-1.372-15.098 6.254-22.33 22.93-16.006 36.905 4.424 9.776 48.035 59.095 53.06 60.005 1.369.248 13.12-10.566 26.115-24.032zm274.283-2.564c14.414-14.876 27.442-30.948 28.95-35.716 4.017-12.705-4.277-29.134-17.465-34.597-9.69-4.014-13.044-3.805-22.064 1.372-9.923 5.695-10.636 5.678-10.615-.25.011-3.496 2.531-11.164 5.596-17.041 3.065-5.878 5.573-10.926 5.573-11.22 0-.293-7.512.065-16.693.795l-16.694 1.328 5.502 10.639c3.025 5.85 5.501 13.279 5.501 16.506 0 5.275-.938 5.252-9.3-.226-17.506-11.471-42.93 3.23-42.93 24.826 0 9.034 5.695 17.59 27.048 40.636 14.876 16.056 28.023 29.373 29.215 29.594 1.192.221 13.961-11.77 28.376-26.645zm-282.367-572.237c0-.279-2.508-5.315-5.573-11.192-3.065-5.878-5.583-13.72-5.596-17.427-.02-6.22.617-6.292 8.269-.932 11.926 8.353 24.266 7.165 34.781-3.35 16.76-16.76 12.168-29.601-24.055-67.27l-23.885-24.84-25.364 25.17c-31.55 31.309-36.616 41.968-28.265 59.479 7.533 15.797 21.856 20.378 36.835 11.782 9.726-5.582 10.467-5.558 10.446.347-.013 3.495-2.53 11.163-5.596 17.04-3.065 5.878-5.573 10.914-5.573 11.193 0 .278 7.555.506 16.788.506 9.234 0 16.788-.228 16.788-.506zm272.342 0c0-.279-2.508-5.315-5.573-11.192-3.065-5.878-5.583-13.546-5.596-17.041-.022-5.905.72-5.93 10.446-.347 14.979 8.596 29.302 4.015 36.835-11.782 8.35-17.51 3.285-28.17-28.265-59.479l-25.364-25.17-23.885 24.84c-36.222 37.669-40.815 50.51-24.055 67.27 10.515 10.515 22.855 11.703 34.781 3.35 7.652-5.36 8.29-5.288 8.269.933-.011 3.707-2.53 11.549-5.596 17.426-3.065 5.877-5.573 10.913-5.573 11.192 0 .278 7.555.506 16.788.506 9.234 0 16.788-.228 16.788-.506z"/></g></svg>