<svg height="123.003" width="78.999" xmlns="http://www.w3.org/2000/svg"><g transform="matrix(.13166 0 0 .13667 -197.497 -423.676)"><rect width="597.967" height="897.967" rx="48.211" ry="49.888" x="1501.017" y="3101.016" style="font-style:normal;font-variant:normal;font-weight:500;font-stretch:normal;font-size:medium;line-height:125%;font-family:Gaelic;-inkscape-font-specification:'Gaelic Medium';letter-spacing:0;word-spacing:0;fill:#fff;fill-opacity:1;stroke:#000;stroke-width:2.03317;stroke-linecap:butt;stroke-linejoin:miter;stroke-miterlimit:4;stroke-dasharray:none;stroke-opacity:1"/><path style="fill:#b7b772" d="M1580.315 3969.538c-.36-.367-.657-38.958-.657-85.759 0-82.258-.058-85.17-1.873-87.448-1.836-2.308-2.295-2.367-22.33-2.856l-20.455-.5v-486.248l20.334-.5c17.804-.436 20.551-.72 22.084-2.281 1.644-1.675 1.78-6.989 2.24-87.865l.492-86.081h440.7l.491 86.082c.461 80.875.597 86.189 2.241 87.864 1.533 1.56 4.28 1.845 22.084 2.282l20.334.499v486.249l-20.334.499c-17.804.437-20.551.72-22.084 2.282-1.644 1.675-1.78 6.988-2.24 87.864l-.492 86.082-219.939.251c-120.967.139-220.234-.049-220.596-.416zm437.104-85.952c0-81.68.049-83.697 1.954-86.875 3.95-6.589 6.25-7.222 26.261-7.226h17.912v-479.26h-17.912c-20.011 0-22.312-.637-26.261-7.226-1.906-3.178-1.951-5.195-1.954-86.875v-83.62h-433.83v83.62c0 81.68-.05 83.697-1.954 86.876-3.95 6.588-6.25 7.221-26.261 7.226h-17.912v479.259h17.912c20.01 0 22.312.637 26.261 7.226 1.905 3.179 1.951 5.196 1.954 86.875v83.62h433.83z"/><path d="M1580.315 3969.538c-.36-.367-.657-38.958-.657-85.759 0-82.258-.058-85.17-1.873-87.448-1.836-2.308-2.295-2.367-22.33-2.856l-20.455-.5v-486.248l20.334-.5c17.804-.436 20.551-.72 22.084-2.281 1.644-1.675 1.78-6.989 2.24-87.865l.492-86.081h440.7l.491 86.082c.461 80.875.597 86.189 2.241 87.864 1.533 1.56 4.28 1.845 22.084 2.282l20.334.499v486.249l-20.334.499c-17.804.437-20.551.72-22.084 2.282-1.644 1.675-1.78 6.988-2.24 87.864l-.492 86.082-219.939.251c-120.967.139-220.234-.049-220.596-.416zm437.104-85.952c0-81.68.049-83.697 1.954-86.875 3.95-6.589 6.25-7.222 26.261-7.226h17.912v-479.26h-17.912c-20.011 0-22.312-.637-26.261-7.226-1.906-3.178-1.951-5.195-1.954-86.875v-83.62h-433.83v83.62c0 81.68-.05 83.697-1.954 86.876-3.95 6.588-6.25 7.221-26.261 7.226h-17.912v479.259h17.912c20.01 0 22.312.637 26.261 7.226 1.905 3.179 1.951 5.196 1.954 86.875v83.62h433.83z" style="fill:#b7b772"/><path style="font-style:normal;font-variant:normal;font-weight:400;font-stretch:normal;font-size:medium;line-height:125%;font-family:Rockwell;-inkscape-font-specification:Rockwell;letter-spacing:0;word-spacing:0;fill:#000;fill-opacity:1;stroke:none;stroke-width:1px;stroke-linecap:butt;stroke-linejoin:miter;stroke-opacity:1" d="M1541.138 3179.785v-8.63q6.713 0 9.747-.853 3.08-.853 4.782-3.362 1.7-2.559 1.7-6.422 0-4.666-2.528-8.028-2.483-3.362-7.402-3.362-5.425 0-7.908 3.563-2.483 3.512-2.713 10.536h-8.873q0-12.042 5.425-17.11 5.471-5.117 13.38-5.117 9.608 0 14.482 5.168 4.874 5.168 4.874 13.196 0 5.92-2.805 9.984-2.759 4.065-6.253 5.77 11.954 3.864 11.954 16.658 0 10.637-6.575 15.956-6.528 5.268-15.356 5.268-11.264 0-16.69-6.573-5.379-6.573-5.379-18.163h8.46q.23 8.028 4 12.293 3.816 4.214 10.115 4.214 5.747 0 9.011-3.462 3.31-3.512 3.31-8.83 0-5.57-3.861-9.132-3.863-3.613-12.322-3.613-1.104 0-2.575.05zM2047.138 3179.785v-8.63q6.713 0 9.747-.853 3.08-.853 4.782-3.362 1.7-2.559 1.7-6.422 0-4.666-2.528-8.028-2.483-3.362-7.402-3.362-5.425 0-7.908 3.563-2.483 3.512-2.713 10.536h-8.873q0-12.042 5.425-17.11 5.471-5.117 13.38-5.117 9.608 0 14.482 5.168 4.874 5.168 4.874 13.196 0 5.92-2.805 9.984-2.759 4.065-6.253 5.77 11.954 3.864 11.954 16.658 0 10.637-6.575 15.956-6.528 5.268-15.356 5.268-11.264 0-16.69-6.573-5.379-6.573-5.379-18.163h8.46q.23 8.028 4 12.293 3.816 4.214 10.115 4.214 5.747 0 9.011-3.462 3.31-3.512 3.31-8.83 0-5.57-3.861-9.132-3.863-3.613-12.322-3.613-1.104 0-2.575.05zM1552.862 3920.215v8.63q-6.713 0-9.747.853-3.08.853-4.782 3.362-1.7 2.559-1.7 6.422 0 4.666 2.528 8.028 2.483 3.362 7.402 3.362 5.425 0 7.908-3.563 2.483-3.512 2.713-10.536h8.873q0 12.042-5.425 17.11-5.471 5.117-13.38 5.117-9.608 0-14.482-5.168-4.874-5.168-4.874-13.196 0-5.92 2.805-9.984 2.759-4.065 6.253-5.77-11.954-3.864-11.954-16.658 0-10.637 6.575-15.956 6.528-5.268 15.356-5.268 11.264 0 16.69 6.573 5.379 6.573 5.379 18.163h-8.46q-.23-8.028-4-12.293-3.816-4.214-10.115-4.214-5.747 0-9.011 3.462-3.31 3.512-3.31 8.83 0 5.57 3.861 9.132 3.863 3.613 12.322 3.613 1.104 0 2.575-.05zM2058.862 3920.215v8.63q-6.713 0-9.747.853-3.08.853-4.782 3.362-1.7 2.559-1.7 6.422 0 4.666 2.528 8.028 2.483 3.362 7.402 3.362 5.425 0 7.908-3.563 2.483-3.512 2.713-10.536h8.873q0 12.042-5.425 17.11-5.471 5.117-13.38 5.117-9.608 0-14.482-5.168-4.874-5.168-4.874-13.196 0-5.92 2.805-9.984 2.759-4.065 6.253-5.77-11.954-3.864-11.954-16.658 0-10.637 6.575-15.956 6.528-5.268 15.356-5.268 11.264 0 16.69 6.573 5.379 6.573 5.379 18.163h-8.46q-.23-8.028-4-12.293-3.816-4.214-10.115-4.214-5.747 0-9.011 3.462-3.31 3.512-3.31 8.83 0 5.57 3.861 9.132 3.863 3.613 12.322 3.613 1.104 0 2.575-.05z"/><path style="fill:#000;fill-opacity:1;stroke:#fffecd;stroke-width:.277224;stroke-miterlimit:4;stroke-dasharray:none;stroke-opacity:1" d="M1537.967 3211.194c-6.681-2.382-12.218-10.933-12.218-18.872v-3.534l3.699.239c3.678.237 3.701.256 4.252 3.504 1.113 6.565 4.443 10.482 10.235 12.042 9.235 2.487 17.105-4.351 16.026-13.925-.745-6.606-5.311-10.313-13.514-10.972l-5.05-.405v-7.407l4.759-.539c7.984-.903 10.37-2.794 11.364-9.009.637-3.983-1.33-9.541-4.163-11.77-2.312-1.82-8.074-2.119-11.177-.581-2.421 1.199-5.477 7.068-5.477 10.518v2.572h-8.753l.547-4.107c.841-6.312 3.34-11.406 6.836-13.939 4.346-3.148 10.274-4.33 15.974-3.186 6.201 1.245 9.809 3.832 12.292 8.815 3.787 7.6 2.352 15.98-3.749 21.885l-2.91 2.817 2.391.99c3.296 1.366 7.613 6.351 8.61 9.946 2.883 10.378-2.55 21.531-12.066 24.774-4.613 1.572-13.697 1.645-17.908.144zM2044.382 3211.266c-1.556-.556-3.916-1.785-5.246-2.732-3.036-2.162-6.914-10.101-7.597-15.553l-.515-4.107h7.86l.91 4.38c1.15 5.546 5.001 10.09 9.596 11.328 11.068 2.98 19.85-6.427 15.828-16.957-1.876-4.913-5.8-7.405-12.507-7.944l-5.11-.41v-7.427l5.151-.552c3.992-.427 5.673-1.02 7.474-2.634 3.931-3.523 4.525-10.187 1.375-15.444-3.618-6.039-13.849-5.677-17.213.608-.47.88-1.087 3.23-1.37 5.22l-.515 3.622-4.214.24-4.214.24.526-4.543c1.443-12.48 11.046-19.314 23.467-16.702 13.676 2.875 18.54 20.82 8.18 30.179-3.45 3.116-3.454 3.029.238 5.008 6.13 3.288 8.982 10.384 7.624 18.972-1.007 6.374-4.171 10.729-9.979 13.735-4.34 2.247-5.65 2.549-10.926 2.518-3.297-.019-7.267-.489-8.823-1.045zM1539.745 3957.57c-6.886-2.147-11.248-8.559-11.248-16.534 0-5.957 2.278-11.146 6.21-14.145l2.726-2.08-3-1.513c-1.652-.833-3.668-2.088-4.482-2.79-2.573-2.219-4.352-7.221-4.37-12.286-.05-13.426 8.995-21.368 23.355-20.51 11.683.698 17.936 6.816 19.361 18.944l.513 4.36h-7.84l-.531-3.324c-1.272-7.957-6.566-12.66-14.163-12.584-7.763.078-12.218 4.595-12.218 12.388 0 7.866 4.273 12.013 13.11 12.723l4.996.4v7.498l-4.499.547c-5.66.688-8.45 2.094-9.962 5.016-2.664 5.152-.487 14.316 3.873 16.302 2.8 1.276 7.851 1.179 10.522-.202 2.5-1.293 4.348-4.752 5.14-9.62l.54-3.324H1565.465v2.987c0 13.628-12.118 21.99-25.72 17.748zM2047.056 3957.996c-6.775-1.615-11.785-7.63-12.546-15.06-.627-6.12.864-10.552 4.912-14.6 1.893-1.893 3.442-3.529 3.442-3.635 0-.107-1.052-.63-2.339-1.162-6.647-2.754-10.44-11.493-8.727-20.112 1.882-9.474 8.923-15.098 19.682-15.72 13.57-.787 20.987 5.656 23.01 19.985l.47 3.325h-3.906c-3.624 0-3.94-.155-4.383-2.152-1.97-8.902-4.6-12.075-11.243-13.574-9.234-2.082-16.967 5.23-15.446 14.603 1.011 6.23 6.828 10.463 14.422 10.494l4.108.017v7.635l-5.673.838c-4.758.703-6.012 1.217-7.782 3.19-1.16 1.293-2.333 3.543-2.606 5-.696 3.709.917 8.998 3.546 11.627 1.904 1.904 2.841 2.223 6.527 2.223 3.477 0 4.76-.385 6.687-2.006 2.402-2.021 3.983-5.951 3.99-9.925 0-2.091.128-2.152 4.398-2.152h4.394l-.537 4.5c-1.006 8.422-4.945 13.786-11.965 16.291-3.19 1.139-8.544 1.298-12.435.37z"/><path d="M1785.992 3310.716c2.097-2.42 4.401-6.826 6.948-13.287 3.398-8.62 5.53-24.061 3.323-24.061-.5 0-3.295 2.183-6.212 4.85-7.203 6.589-10.967 8.188-19.157 8.143-5.438-.03-7.157-.385-10.798-2.223-8.006-4.043-13.485-11.168-15.655-20.36-2.371-10.042 4.94-24.204 19.129-37.046 20.673-18.713 27.165-25.357 32.634-33.397 1.996-2.934 3.704-5.335 3.796-5.335.092 0 1.8 2.4 3.796 5.335 5.47 8.04 11.961 14.684 32.634 33.397 14.188 12.842 21.5 27.004 19.13 37.047-2.17 9.19-7.65 16.316-15.656 20.359-3.641 1.838-5.36 2.192-10.798 2.223-8.19.045-11.954-1.554-19.157-8.142-2.917-2.668-5.713-4.851-6.212-4.851-2.207 0-.075 15.44 3.323 24.061 2.547 6.461 4.851 10.867 6.949 13.287 1.538 1.775 1.096 1.754-7.064-.34l-6.8-1.183-6.944 1.175c-8.51 1.439-8.737 2.11-7.21.348zM1785.992 3610.716c2.097-2.42 4.401-6.826 6.948-13.287 3.398-8.62 5.53-24.061 3.323-24.061-.5 0-3.295 2.183-6.212 4.85-7.203 6.589-10.967 8.188-19.157 8.143-5.438-.03-7.157-.385-10.798-2.223-8.006-4.043-13.485-11.168-15.655-20.36-2.371-10.042 4.94-24.204 19.129-37.046 20.673-18.713 27.165-25.357 32.634-33.397 1.996-2.934 3.704-5.335 3.796-5.335.092 0 1.8 2.4 3.796 5.335 5.47 8.04 11.961 14.684 32.634 33.397 14.188 12.842 21.5 27.004 19.13 37.047-2.17 9.19-7.65 16.316-15.656 20.359-3.641 1.838-5.36 2.192-10.798 2.223-8.19.045-11.954-1.554-19.157-8.142-2.917-2.668-5.713-4.851-6.212-4.851-2.207 0-.075 15.44 3.323 24.061 2.547 6.461 4.851 10.867 6.949 13.287 1.538 1.775 1.096 1.754-7.064-.34l-6.8-1.183-6.944 1.175c-8.51 1.439-8.737 2.11-7.21.348zM1785.992 3789.284c2.097 2.42 4.401 6.826 6.948 13.287 3.398 8.62 5.53 24.061 3.323 24.061-.5 0-3.295-2.183-6.212-4.851-7.203-6.588-10.967-8.187-19.157-8.142-5.438.03-7.157.385-10.798 2.223-8.006 4.043-13.485 11.168-15.655 20.359-2.371 10.043 4.94 24.205 19.129 37.047 20.673 18.713 27.165 25.357 32.634 33.397 1.996 2.934 3.704 5.335 3.796 5.335.092 0 1.8-2.401 3.796-5.335 5.47-8.04 11.961-14.684 32.634-33.397 14.188-12.842 21.5-27.004 19.13-37.047-2.17-9.19-7.65-16.316-15.656-20.359-3.641-1.838-5.36-2.192-10.798-2.223-8.19-.046-11.954 1.554-19.157 8.142-2.917 2.668-5.713 4.851-6.212 4.851-2.207 0-.075-15.44 3.323-24.061 2.547-6.461 4.851-10.868 6.949-13.287 1.538-1.775 1.096-1.754-7.064.34l-6.8 1.183-6.944-1.175c-8.51-1.44-8.737-2.11-7.21-.348zM1541.497 3283.503c.824-.937 1.729-2.642 2.73-5.143 1.334-3.337 2.172-9.314 1.305-9.314-.196 0-1.294.845-2.44 1.878-2.83 2.55-4.31 3.169-7.526 3.151-2.137-.012-2.812-.149-4.242-.86-3.146-1.565-5.298-4.323-6.15-7.881-.932-3.888 1.94-9.37 7.514-14.341 8.122-7.244 10.672-9.815 12.82-12.928.785-1.136 1.456-2.065 1.492-2.065.036 0 .707.93 1.491 2.065 2.149 3.113 4.7 5.684 12.82 12.928 5.575 4.971 8.447 10.453 7.516 14.34-.853 3.559-3.005 6.317-6.15 7.882-1.43.711-2.106.848-4.243.86-3.217.018-4.695-.601-7.525-3.151-1.146-1.033-2.245-1.878-2.44-1.878-.868 0-.03 5.977 1.305 9.314 1 2.5 1.905 4.206 2.73 5.143.604.687.43.679-2.775-.132l-2.672-.457-2.728.454c-3.343.557-3.432.817-2.832.135zM2047.497 3283.503c.824-.937 1.729-2.642 2.73-5.143 1.334-3.337 2.172-9.314 1.305-9.314-.196 0-1.295.845-2.44 1.878-2.83 2.55-4.31 3.169-7.526 3.151-2.137-.012-2.812-.149-4.242-.86-3.146-1.565-5.298-4.323-6.15-7.881-.932-3.888 1.94-9.37 7.514-14.341 8.122-7.244 10.672-9.815 12.82-12.928.785-1.136 1.456-2.065 1.492-2.065.036 0 .707.93 1.491 2.065 2.149 3.113 4.7 5.684 12.82 12.928 5.575 4.971 8.447 10.453 7.516 14.34-.853 3.559-3.005 6.317-6.15 7.882-1.43.711-2.106.848-4.243.86-3.217.018-4.696-.601-7.525-3.151-1.146-1.033-2.245-1.878-2.44-1.878-.868 0-.03 5.977 1.305 9.314 1 2.5 1.905 4.206 2.73 5.143.604.687.43.679-2.776-.132l-2.67-.457-2.73.454c-3.342.557-3.431.817-2.831.135zM1541.497 3816.497c.824.937 1.729 2.642 2.73 5.143 1.334 3.337 2.172 9.315 1.305 9.315-.196 0-1.294-.846-2.44-1.878-2.83-2.55-4.31-3.17-7.526-3.152-2.137.012-2.812.149-4.242.86-3.146 1.565-5.298 4.323-6.15 7.881-.932 3.888 1.94 9.37 7.514 14.341 8.122 7.244 10.672 9.815 12.82 12.928.785 1.136 1.456 2.065 1.492 2.065.036 0 .707-.93 1.491-2.065 2.149-3.113 4.7-5.684 12.82-12.928 5.575-4.971 8.447-10.453 7.516-14.34-.853-3.559-3.005-6.317-6.15-7.882-1.43-.711-2.106-.848-4.243-.86-3.217-.018-4.695.601-7.525 3.152-1.146 1.032-2.245 1.877-2.44 1.877-.868 0-.03-5.977 1.305-9.314 1-2.5 1.905-4.206 2.73-5.143.604-.687.43-.679-2.775.132l-2.672.458-2.728-.455c-3.343-.557-3.432-.817-2.832-.135zM2047.497 3816.497c.824.937 1.729 2.642 2.73 5.143 1.334 3.337 2.172 9.315 1.305 9.315-.196 0-1.295-.846-2.44-1.878-2.83-2.55-4.31-3.17-7.526-3.152-2.137.012-2.812.149-4.242.86-3.146 1.565-5.298 4.323-6.15 7.881-.932 3.888 1.94 9.37 7.514 14.341 8.122 7.244 10.672 9.815 12.82 12.928.785 1.136 1.456 2.065 1.492 2.065.036 0 .707-.93 1.491-2.065 2.149-3.113 4.7-5.684 12.82-12.928 5.575-4.971 8.447-10.453 7.516-14.34-.853-3.559-3.005-6.317-6.15-7.882-1.43-.711-2.106-.848-4.243-.86-3.217-.018-4.696.601-7.525 3.152-1.146 1.032-2.245 1.877-2.44 1.877-.868 0-.03-5.977 1.305-9.314 1-2.5 1.905-4.206 2.73-5.143.604-.687.43-.679-2.776.132l-2.67.458-2.73-.455c-3.342-.557-3.431-.817-2.831-.135z" style="fill:#050505"/><path style="fill:#fffecd;fill-opacity:1;stroke:#fffecd;stroke-width:1.32191;stroke-miterlimit:4;stroke-dasharray:none;stroke-opacity:1" d="M1586.006 3883.427c0-48.326-1.542-83.338-3.862-87.672-3.095-5.783-7.911-7.216-24.25-7.216h-20.387V3311.008h20.387c16.339 0 21.155-1.433 24.25-7.216 2.32-4.335 3.862-39.346 3.862-87.672v-80.456h429.032v80.456c0 48.326 1.542 83.337 3.862 87.672 3.095 5.783 7.91 7.216 24.25 7.216h20.387V3788.539h-20.388c-16.338 0-21.154 1.433-24.25 7.216-2.319 4.334-3.861 39.346-3.861 87.672v80.455h-429.032zm241.635.88c29.5-30.423 34.806-42.323 25.325-56.793-9.841-15.02-23.058-19.4-36.046-11.945-10.114 5.804-10.8 5.795-10.779-.156.013-3.496 2.431-10.972 5.375-16.615l5.352-10.26h-32.754l5.406 12.938c7.596 18.18 6.858 22.08-2.886 15.255-11.926-8.354-24.266-7.166-34.78 3.35-16.32 16.318-12.791 28.461 17.89 61.575 14.876 16.056 28.023 29.373 29.215 29.594 1.192.221 14.099-11.903 28.682-26.943zm-15.992-282.43c-8.284-16.019-7.426-23.535 2.103-18.435 21.004 11.24 47.858-6.595 43.03-28.579-1.367-6.219-13.814-22.562-29.62-38.889l-27.264-28.162-24.438 24.452c-35.12 35.14-39.521 46.566-25.032 64.986 8.39 10.666 28.04 13.604 36.228 5.416 7.735-7.735 9.626.112 3.678 15.255l-5.756 14.653h32.602zm-.48-300.926c-2.778-6.649-5.051-14.755-5.051-18.015 0-5.38.765-5.392 8.291-.12 11.277 7.898 22.283 7.294 31.998-1.757 11.156-10.393 13.623-23.169 6.928-35.87-5.72-10.848-53.62-60.11-55.51-57.086-.569.911-13.206 14.489-28.082 30.172-30.74 32.408-34.344 44.737-17.89 61.191 10.515 10.515 22.855 11.703 34.781 3.35 7.654-5.361 8.282-5.29 8.16.933-.073 3.707-2.532 10.937-5.464 16.067-7.45 13.031-7.436 13.048 10.658 13.14l16.231.082-5.05-12.088z"/></g></svg>