<svg height="123.003" width="78.999" xmlns="http://www.w3.org/2000/svg"><g transform="matrix(.13166 0 0 .13667 -105.332 -423.676)"><rect style="font-style:normal;font-variant:normal;font-weight:500;font-stretch:normal;font-size:medium;line-height:125%;font-family:Gaelic;-inkscape-font-specification:'Gaelic Medium';letter-spacing:0;word-spacing:0;fill:#fff;fill-opacity:1;stroke:#000;stroke-width:2.03317;stroke-linecap:butt;stroke-linejoin:miter;stroke-miterlimit:4;stroke-dasharray:none;stroke-opacity:1" y="3101.016" x="801.017" ry="49.888" rx="48.211" height="897.967" width="597.967"/><path d="M880.315 3969.538c-.36-.367-.657-38.958-.657-85.759 0-82.258-.059-85.17-1.873-87.448-1.836-2.308-2.295-2.367-22.33-2.856l-20.455-.5v-486.248l20.334-.5c17.804-.436 20.551-.72 22.084-2.281 1.644-1.675 1.78-6.989 2.24-87.865l.492-86.081h440.7l.491 86.082c.461 80.875.597 86.189 2.241 87.864 1.533 1.56 4.28 1.845 22.084 2.282l20.334.499v486.249l-20.334.499c-17.804.437-20.551.72-22.084 2.282-1.644 1.675-1.78 6.988-2.24 87.864l-.492 86.082-219.939.251c-120.967.139-220.234-.049-220.596-.416zm437.104-85.952c0-81.68.049-83.697 1.954-86.875 3.95-6.589 6.25-7.222 26.261-7.226h17.912v-479.26h-17.912c-20.011 0-22.312-.637-26.261-7.226-1.906-3.178-1.951-5.195-1.954-86.875v-83.62h-433.83v83.62c0 81.68-.05 83.697-1.954 86.876-3.95 6.588-6.25 7.221-26.261 7.226h-17.912v479.259h17.912c20.01 0 22.312.637 26.261 7.226 1.905 3.179 1.951 5.196 1.954 86.875v83.62h433.83z" style="fill:#b7b772"/><rect width="597.967" height="897.967" rx="48.211" ry="49.888" x="801.017" y="3101.016" style="font-style:normal;font-variant:normal;font-weight:500;font-stretch:normal;font-size:medium;line-height:125%;font-family:Gaelic;-inkscape-font-specification:'Gaelic Medium';letter-spacing:0;word-spacing:0;fill:#fff;fill-opacity:1;stroke:#000;stroke-width:2.03317;stroke-linecap:butt;stroke-linejoin:miter;stroke-miterlimit:4;stroke-dasharray:none;stroke-opacity:1"/><path style="fill:#b7b772" d="M880.315 3969.538c-.36-.367-.657-38.958-.657-85.759 0-82.258-.059-85.17-1.873-87.448-1.836-2.308-2.295-2.367-22.33-2.856l-20.455-.5v-486.248l20.334-.5c17.804-.436 20.551-.72 22.084-2.281 1.644-1.675 1.78-6.989 2.24-87.865l.492-86.081h440.7l.491 86.082c.461 80.875.597 86.189 2.241 87.864 1.533 1.56 4.28 1.845 22.084 2.282l20.334.499v486.249l-20.334.499c-17.804.437-20.551.72-22.084 2.282-1.644 1.675-1.78 6.988-2.24 87.864l-.492 86.082-219.939.251c-120.967.139-220.234-.049-220.596-.416zm437.104-85.952c0-81.68.049-83.697 1.954-86.875 3.95-6.589 6.25-7.222 26.261-7.226h17.912v-479.26h-17.912c-20.011 0-22.312-.637-26.261-7.226-1.906-3.178-1.951-5.195-1.954-86.875v-83.62h-433.83v83.62c0 81.68-.05 83.697-1.954 86.876-3.95 6.588-6.25 7.221-26.261 7.226h-17.912v479.259h17.912c20.01 0 22.312.637 26.261 7.226 1.905 3.179 1.951 5.196 1.954 86.875v83.62h433.83z"/><path style="font-style:normal;font-variant:normal;font-weight:400;font-stretch:normal;font-size:medium;line-height:125%;font-family:Rockwell;-inkscape-font-specification:Rockwell;letter-spacing:0;word-spacing:0;fill:#000;fill-opacity:1;stroke:none;stroke-width:1px;stroke-linecap:butt;stroke-linejoin:miter;stroke-opacity:1" d="m869 3187.675-.635 25.325H825q0-7.338 2.488-14.013 2.536-6.675 7.073-11.669 4.585-4.993 13.95-12.127 5.903-4.535 8-7.541 2.098-3.058 2.098-7.083 0-4.943-2.975-8.051-2.976-3.16-8.195-3.16-6.098 0-8.927 3.567-2.83 3.567-2.83 11.72 0 2.038.099 3.873h-9.024q-.048-1.835-.048-3.007 0-11.515 5.219-17.987 5.22-6.522 15.317-6.522 10.195 0 15.61 5.554 5.462 5.554 5.462 13.656 0 6.777-3.56 11.567-3.561 4.79-13.61 12.178-9.756 7.236-12.829 11.771-3.024 4.535-3.512 8.051h25.56l.39-16.102H869zM1375 3187.675l-.635 25.325H1331q0-7.338 2.488-14.013 2.536-6.675 7.073-11.669 4.585-4.993 13.95-12.127 5.903-4.535 8-7.541 2.098-3.058 2.098-7.083 0-4.943-2.975-8.051-2.976-3.16-8.195-3.16-6.098 0-8.927 3.567-2.83 3.567-2.83 11.72 0 2.038.099 3.873h-9.024q-.048-1.835-.048-3.007 0-11.515 5.219-17.987 5.22-6.522 15.317-6.522 10.195 0 15.61 5.554 5.462 5.554 5.462 13.656 0 6.777-3.56 11.567-3.561 4.79-13.61 12.178-9.756 7.236-12.829 11.771-3.024 4.535-3.512 8.051h25.56l.39-16.102H1375zM825.001 3912.325l.634-25.325H869q0 7.338-2.487 14.013-2.537 6.675-7.073 11.669-4.586 4.993-13.951 12.127-5.903 4.535-8 7.541-2.098 3.058-2.098 7.083 0 4.943 2.976 8.051 2.975 3.16 8.195 3.16 6.097 0 8.927-3.568 2.829-3.567 2.829-11.72 0-2.038-.098-3.872h9.024q.048 1.834.048 3.006 0 11.516-5.22 17.988-5.219 6.522-15.316 6.522-10.195 0-15.61-5.554-5.463-5.554-5.463-13.656 0-6.777 3.56-11.567 3.562-4.79 13.61-12.178 9.756-7.236 12.83-11.771 3.024-4.535 3.512-8.051h-25.561l-.39 16.102H825zM1331.001 3912.325l.634-25.325H1375q0 7.338-2.487 14.013-2.537 6.675-7.073 11.669-4.586 4.993-13.952 12.127-5.902 4.535-8 7.541-2.097 3.058-2.097 7.083 0 4.943 2.976 8.051 2.975 3.16 8.195 3.16 6.097 0 8.926-3.567 2.83-3.567 2.83-11.72 0-2.039-.098-3.873h9.024q.048 1.834.048 3.007 0 11.515-5.22 17.987-5.219 6.522-15.316 6.522-10.195 0-15.61-5.554-5.463-5.554-5.463-13.656 0-6.777 3.56-11.567 3.562-4.79 13.61-12.178 9.756-7.236 12.83-11.771 3.024-4.535 3.512-8.051h-25.561l-.39 16.102H1331z"/><path style="fill:#000;fill-opacity:1;stroke:#fffecd;stroke-width:.277224;stroke-miterlimit:4;stroke-dasharray:none;stroke-opacity:1" d="M825.433 3210.163c0-3.626 2.253-11.113 4.758-15.815 2.644-4.96 7.35-9.851 17.073-17.741 8.762-7.112 10.963-9.943 11.486-14.776.813-7.52-3.716-12.467-11.41-12.467-7.958 0-11.733 4.467-11.735 13.887l-.001 5.281h-8.832l.443-5.86c.741-9.805 5.599-17.795 12.236-20.126 1.542-.542 5.464-.96 8.717-.93 4.98.047 6.582.416 10.147 2.337 5.413 2.917 8.698 7.92 9.203 14.015.819 9.87-1.736 13.881-16.164 25.381-5.865 4.676-11.402 9.504-12.304 10.73-2.469 3.356-4.229 7.042-4.229 8.859 0 1.584.3 1.617 12.714 1.408l12.714-.215.191-5.477c.105-3.012.385-6.621.623-8.02.41-2.423.594-2.542 3.916-2.542h3.485v10.89c0 5.988-.214 11.445-.475 12.126-.417 1.086-3.05 1.238-21.515 1.238h-21.041v-2.183zM1331.487 3209.02c.92-6.165 3.618-13.47 6.577-17.799 1.804-2.64 6.853-7.569 13.064-12.754 5.568-4.647 10.913-9.752 11.88-11.344 3.142-5.178 1.805-13.276-2.677-16.213-3.047-1.997-9.506-2.31-12.745-.617-3.87 2.023-5.543 5.428-6.066 12.348l-.446 5.891h-3.715c-2.434 0-3.858-.372-4.129-1.078-.61-1.591.808-11.746 2.058-14.728 3.079-7.349 9.027-11.078 17.748-11.128 6.895-.04 10.848 1.166 14.587 4.45 4.307 3.78 6.051 7.894 6.051 14.269 0 8.654-2.632 12.4-15.944 22.688-8.656 6.69-13.191 11.272-15.374 15.532-3.04 5.934-2.944 5.985 11.354 5.985 10.64 0 12.528-.181 12.934-1.238.261-.68.475-4.377.475-8.215v-6.977h8.02l-.49 2.445c-.269 1.344-.489 6.802-.489 12.127v9.682h-43.168zM838.908 3957.54c-7.975-2.476-12.519-8.956-12.519-17.853 0-8.65 3.156-13.104 16.43-23.193 3.658-2.78 8.17-6.572 10.029-8.427 3.127-3.123 6.344-8.634 6.385-10.937.013-.744-3.078-.978-12.893-.978h-12.91l-.006 3.716c-.004 2.044-.229 5.565-.5 7.824l-.494 4.107h-6.823v-24.254h21.515c24.426 0 22.213-.76 20.718 7.127-1.948 10.271-7.06 17.307-20.494 28.206-4.18 3.391-8.526 7.378-9.655 8.86-3.838 5.031-3.315 12.101 1.217 16.443 1.797 1.721 3.251 2.293 6.524 2.564 8.394.696 12.25-3.16 12.873-12.875l.368-5.729h8.625l-.525 5.65c-.625 6.725-3.268 12.968-6.897 16.29-4.687 4.29-13.572 5.756-20.969 3.46zM1345.474 3957.698c-8.182-2.308-13.174-9.107-13.143-17.902.03-8.801 2.466-12.146 17.523-24.068 8.767-6.941 11.567-9.865 14.03-14.648 2.559-4.968 2.652-4.928-11.62-4.928h-12.909l-.011 6.063c-.016 9.01-.279 9.584-4.384 9.584h-3.43v-10.89c0-5.988.215-11.445.476-12.126.416-1.086 3.05-1.238 21.515-1.238h21.041v2.183c0 3.68-2.267 11.14-4.868 16.02-2.47 4.635-8.714 10.922-20.168 20.308-7.87 6.45-10.256 12.578-7.236 18.588a11.419 11.419 0 0 0 10.167 6.275c7.94 0 11.884-4.597 11.917-13.888l.017-4.89h8.606v3.357c0 9.075-4.504 17.965-10.597 20.914-4.397 2.129-11.913 2.7-16.927 1.286z"/><path style="fill:#000;fill-opacity:1;stroke:#fffecd;stroke-width:.277224;stroke-miterlimit:4;stroke-dasharray:none;stroke-opacity:1" d="M838.506 3956.845c-7.041-2.705-10.707-7.573-11.384-15.12-.848-9.441 1.78-13.38 17.4-26.066 9.395-7.632 13.703-12.636 14.839-17.239.49-1.99.397-2.045-4.363-2.542-2.675-.28-8.64-.509-13.255-.509h-8.39l-.555 7.824-.555 7.824h-6.134v-22.689h20.687c12.317 0 20.875.302 21.15.748.75 1.214-1.747 10.669-3.983 15.08-2.039 4.024-7.63 9.944-21.625 22.9-5.514 5.105-6.856 6.8-7.279 9.193-.842 4.773.261 8.417 3.541 11.697 2.804 2.804 3.249 2.973 7.834 2.973 8.266 0 11.39-3.308 12.297-13.02l.465-4.975h7.744l-.563 4.107c-1.342 9.792-4.622 15.955-9.951 18.696-4.184 2.152-13.686 2.745-17.92 1.118z"/><path style="fill:#050505" d="M1085.992 3310.716c2.097-2.42 4.401-6.826 6.948-13.287 3.398-8.62 5.53-24.061 3.323-24.061-.5 0-3.295 2.183-6.212 4.85-7.203 6.589-10.967 8.188-19.157 8.143-5.438-.03-7.157-.385-10.798-2.223-8.006-4.043-13.485-11.168-15.655-20.36-2.371-10.042 4.94-24.204 19.129-37.046 20.673-18.713 27.165-25.357 32.634-33.397 1.996-2.934 3.704-5.335 3.796-5.335.092 0 1.8 2.4 3.796 5.335 5.47 8.04 11.961 14.684 32.634 33.397 14.188 12.842 21.5 27.004 19.13 37.047-2.17 9.19-7.65 16.316-15.656 20.359-3.641 1.838-5.36 2.192-10.798 2.223-8.19.045-11.954-1.554-19.157-8.142-2.917-2.668-5.713-4.851-6.212-4.851-2.207 0-.075 15.44 3.323 24.061 2.547 6.461 4.851 10.867 6.949 13.287 1.538 1.775 1.096 1.754-7.064-.34l-6.8-1.183-6.944 1.175c-8.51 1.439-8.737 2.11-7.21.348zM1085.992 3789.284c2.097 2.42 4.401 6.826 6.948 13.287 3.398 8.62 5.53 24.061 3.323 24.061-.5 0-3.295-2.183-6.212-4.851-7.203-6.588-10.967-8.187-19.157-8.142-5.438.03-7.157.385-10.798 2.223-8.006 4.043-13.485 11.168-15.655 20.359-2.371 10.043 4.94 24.205 19.129 37.047 20.673 18.713 27.165 25.357 32.634 33.397 1.996 2.934 3.704 5.335 3.796 5.335.092 0 1.8-2.401 3.796-5.335 5.47-8.04 11.961-14.684 32.634-33.397 14.188-12.842 21.5-27.004 19.13-37.047-2.17-9.19-7.65-16.316-15.656-20.359-3.641-1.838-5.36-2.192-10.798-2.223-8.19-.046-11.954 1.554-19.157 8.142-2.917 2.668-5.713 4.851-6.212 4.851-2.207 0-.075-15.44 3.323-24.061 2.547-6.461 4.851-10.868 6.949-13.287 1.538-1.775 1.096-1.754-7.064.34l-6.8 1.183-6.944-1.175c-8.51-1.44-8.737-2.11-7.21-.348zM841.497 3283.503c.824-.937 1.729-2.642 2.73-5.143 1.334-3.337 2.172-9.314 1.305-9.314-.196 0-1.295.845-2.44 1.878-2.83 2.55-4.31 3.169-7.526 3.151-2.137-.012-2.812-.149-4.242-.86-3.146-1.565-5.298-4.323-6.15-7.881-.932-3.888 1.94-9.37 7.514-14.341 8.122-7.244 10.672-9.815 12.82-12.928.785-1.136 1.456-2.065 1.492-2.065.036 0 .707.93 1.491 2.065 2.149 3.113 4.7 5.684 12.82 12.928 5.575 4.971 8.447 10.453 7.516 14.34-.853 3.559-3.005 6.317-6.15 7.882-1.43.711-2.106.848-4.243.86-3.217.018-4.696-.601-7.525-3.151-1.146-1.033-2.245-1.878-2.44-1.878-.868 0-.03 5.977 1.305 9.314 1 2.5 1.905 4.206 2.73 5.143.604.687.43.679-2.776-.132l-2.67-.457-2.73.454c-3.342.557-3.431.817-2.831.135zM1347.497 3283.503c.824-.937 1.729-2.642 2.73-5.143 1.334-3.337 2.172-9.314 1.305-9.314-.196 0-1.294.845-2.44 1.878-2.83 2.55-4.31 3.169-7.526 3.151-2.137-.012-2.812-.149-4.242-.86-3.146-1.565-5.298-4.323-6.15-7.881-.932-3.888 1.94-9.37 7.514-14.341 8.122-7.244 10.672-9.815 12.82-12.928.785-1.136 1.456-2.065 1.492-2.065.036 0 .707.93 1.491 2.065 2.149 3.113 4.7 5.684 12.82 12.928 5.575 4.971 8.447 10.453 7.516 14.34-.853 3.559-3.005 6.317-6.15 7.882-1.43.711-2.106.848-4.243.86-3.217.018-4.695-.601-7.525-3.151-1.146-1.033-2.245-1.878-2.44-1.878-.868 0-.03 5.977 1.305 9.314 1 2.5 1.905 4.206 2.73 5.143.604.687.43.679-2.775-.132l-2.672-.457-2.728.454c-3.343.557-3.432.817-2.832.135zM841.497 3816.497c.824.937 1.729 2.642 2.73 5.143 1.334 3.337 2.172 9.315 1.305 9.315-.196 0-1.295-.846-2.44-1.878-2.83-2.55-4.31-3.17-7.526-3.152-2.137.012-2.812.149-4.242.86-3.146 1.565-5.298 4.323-6.15 7.881-.932 3.888 1.94 9.37 7.514 14.341 8.122 7.244 10.672 9.815 12.82 12.928.785 1.136 1.456 2.065 1.492 2.065.036 0 .707-.93 1.491-2.065 2.149-3.113 4.7-5.684 12.82-12.928 5.575-4.971 8.447-10.453 7.516-14.34-.853-3.559-3.005-6.317-6.15-7.882-1.43-.711-2.106-.848-4.243-.86-3.217-.018-4.696.601-7.525 3.152-1.146 1.032-2.245 1.877-2.44 1.877-.868 0-.03-5.977 1.305-9.314 1-2.5 1.905-4.206 2.73-5.143.604-.687.43-.679-2.776.132l-2.67.458-2.73-.455c-3.342-.557-3.431-.817-2.831-.135zM1347.497 3816.497c.824.937 1.729 2.642 2.73 5.143 1.334 3.337 2.172 9.315 1.305 9.315-.196 0-1.294-.846-2.44-1.878-2.83-2.55-4.31-3.17-7.526-3.152-2.137.012-2.812.149-4.242.86-3.146 1.565-5.298 4.323-6.15 7.881-.932 3.888 1.94 9.37 7.514 14.341 8.122 7.244 10.672 9.815 12.82 12.928.785 1.136 1.456 2.065 1.492 2.065.036 0 .707-.93 1.491-2.065 2.149-3.113 4.7-5.684 12.82-12.928 5.575-4.971 8.447-10.453 7.516-14.34-.853-3.559-3.005-6.317-6.15-7.882-1.43-.711-2.106-.848-4.243-.86-3.217-.018-4.695.601-7.525 3.152-1.146 1.032-2.245 1.877-2.44 1.877-.868 0-.03-5.977 1.305-9.314 1-2.5 1.905-4.206 2.73-5.143.604-.687.43-.679-2.775.132l-2.672.458-2.728-.455c-3.343-.557-3.432-.817-2.832-.135z"/><path style="fill:#fffecd;fill-opacity:1;stroke:#fffecd;stroke-width:1.32191;stroke-miterlimit:4;stroke-dasharray:none;stroke-opacity:1" d="M884.633 3880.687c0-59.733-1.263-84.457-4.477-87.672-2.463-2.462-12.536-4.476-22.385-4.476h-17.907V3311.008h17.907c9.85 0 19.922-2.015 22.385-4.477 3.214-3.214 4.477-27.939 4.477-87.672v-83.195h432.762v83.195c0 59.733 1.263 84.458 4.477 87.672 2.462 2.462 12.535 4.477 22.384 4.477h17.907V3788.539h-17.907c-9.849 0-19.922 2.014-22.384 4.476-3.215 3.215-4.477 27.94-4.477 87.672v83.195H884.633zm245.33.381c30.642-32.578 34.18-44.662 17.854-60.988-10.515-10.515-22.855-11.703-34.781-3.35-9.806 6.869-10.482 2.927-2.695-15.71 3.077-7.366 5.596-13.652 5.596-13.968 0-.317-6.824.075-15.163.87-12.367 1.18-14.678 2.573-12.53 7.56 1.448 3.363 3.43 10.765 4.405 16.45l1.772 10.335-11.236-6.449c-9.179-5.268-12.98-5.654-20.756-2.111-13.77 6.274-22.46 21.16-19.422 33.266 2.405 9.581 53.423 65.903 57.814 63.823 1.171-.555 14.285-13.932 29.141-29.728zm-14.026-568.49c0-.363-2.519-6.686-5.596-14.052-7.787-18.636-7.11-22.578 2.695-15.71 11.926 8.353 24.266 7.165 34.781-3.35 16.454-16.454 12.85-28.783-17.89-61.191-14.876-15.683-27.514-29.263-28.086-30.176-.571-.913-12.733 9.945-27.026 24.128-30.041 29.81-37.424 45.59-28.035 59.92 8.95 13.66 22.075 18.728 34.197 13.205 12.771-5.82 15-3.017 9.56 12.024-2.445 6.763-4.44 13.016-4.434 13.897.01.88 6.721 1.682 14.922 1.782 8.202.1 14.912-.115 14.912-.477z"/></g></svg>