<svg height="123.003" width="78.999" xmlns="http://www.w3.org/2000/svg"><g transform="matrix(.13166 0 0 .13667 -381.828 -423.676)"><rect style="font-style:normal;font-variant:normal;font-weight:500;font-stretch:normal;font-size:medium;line-height:125%;font-family:Gaelic;-inkscape-font-specification:'Gaelic Medium';letter-spacing:0;word-spacing:0;fill:#fff;fill-opacity:1;stroke:#000;stroke-width:2.03317;stroke-linecap:butt;stroke-linejoin:miter;stroke-miterlimit:4;stroke-dasharray:none;stroke-opacity:1" y="3101.016" x="2901.017" ry="49.888" rx="48.211" height="897.967" width="597.967"/><path d="M2980.315 3969.538c-.36-.367-.657-38.958-.657-85.759 0-82.258-.058-85.17-1.873-87.448-1.836-2.308-2.295-2.367-22.33-2.856l-20.455-.5v-486.248l20.334-.5c17.804-.436 20.551-.72 22.084-2.281 1.644-1.675 1.78-6.989 2.24-87.865l.492-86.081h440.7l.491 86.082c.461 80.875.597 86.189 2.241 87.864 1.533 1.56 4.28 1.845 22.084 2.282l20.334.499v486.249l-20.334.499c-17.804.437-20.551.72-22.084 2.282-1.644 1.675-1.78 6.988-2.24 87.864l-.492 86.082-219.939.251c-120.967.139-220.234-.049-220.596-.416zm437.104-85.952c0-81.68.049-83.697 1.954-86.875 3.95-6.589 6.25-7.222 26.261-7.226h17.912v-479.26h-17.912c-20.011 0-22.312-.637-26.261-7.226-1.906-3.178-1.951-5.195-1.954-86.875v-83.62h-433.83v83.62c0 81.68-.05 83.697-1.954 86.876-3.95 6.588-6.25 7.221-26.261 7.226h-17.912v479.259h17.912c20.01 0 22.312.637 26.261 7.226 1.905 3.179 1.951 5.196 1.954 86.875v83.62h433.83z" style="fill:#b7b772"/><path style="font-style:normal;font-variant:normal;font-weight:400;font-stretch:normal;font-size:medium;line-height:125%;font-family:Rockwell;-inkscape-font-specification:Rockwell;letter-spacing:0;word-spacing:0;fill:#000;fill-opacity:1;stroke:none;stroke-width:1px;stroke-linecap:butt;stroke-linejoin:miter;stroke-opacity:1" d="M2925 3189.221h8.372q.744 7.144 4.233 11.38 3.534 4.234 9.302 4.234 5.814 0 9.349-4.388t3.535-11.277q0-7.297-3.442-11.124-3.442-3.878-8.558-3.878-7.675 0-12.977 8.522-2.977-3.215-6.744-5.154l2.651-36.536h34.512v18.83h-8v-9.696h-19.814l-1.442 20.768q5.907-5.256 13.163-5.256 9.209 0 14.511 6.736 5.349 6.736 5.349 16.686 0 10.512-5.86 17.247-5.814 6.685-16.326 6.685-9.768 0-15.442-6.072-5.674-6.072-6.372-17.707zM3431 3189.221h8.372q.744 7.144 4.233 11.38 3.534 4.234 9.302 4.234 5.814 0 9.349-4.388t3.535-11.277q0-7.297-3.442-11.124-3.442-3.878-8.558-3.878-7.675 0-12.977 8.522-2.977-3.215-6.744-5.154l2.651-36.536h34.512v18.83h-8v-9.696h-19.814l-1.442 20.768q5.907-5.256 13.163-5.256 9.209 0 14.511 6.736 5.349 6.736 5.349 16.686 0 10.512-5.86 17.247-5.814 6.685-16.326 6.685-9.768 0-15.442-6.072-5.674-6.072-6.372-17.707zM2969 3910.779h-8.372q-.744-7.144-4.233-11.38-3.534-4.235-9.302-4.235-5.814 0-9.349 4.389-3.535 4.388-3.535 11.277 0 7.297 3.442 11.124 3.442 3.878 8.558 3.878 7.675 0 12.977-8.522 2.977 3.215 6.744 5.154L2963.28 3959h-34.512v-18.83h8v9.696h19.814l1.442-20.768q-5.907 5.256-13.163 5.256-9.209 0-14.511-6.736-5.349-6.736-5.349-16.686 0-10.512 5.86-17.247 5.814-6.685 16.326-6.685 9.768 0 15.442 6.072 5.674 6.072 6.372 17.707zM3475 3910.779h-8.372q-.744-7.144-4.233-11.38-3.534-4.235-9.302-4.235-5.814 0-9.349 4.389-3.535 4.388-3.535 11.277 0 7.297 3.442 11.124 3.442 3.878 8.558 3.878 7.675 0 12.977-8.522 2.977 3.215 6.744 5.154L3469.28 3959h-34.512v-18.83h8v9.696h19.814l1.442-20.768q-5.907 5.256-13.163 5.256-9.209 0-14.511-6.736-5.349-6.736-5.349-16.686 0-10.512 5.86-17.247 5.814-6.685 16.326-6.685 9.768 0 15.442 6.072 5.674 6.072 6.372 17.707z"/><path style="fill:#000;fill-opacity:1;stroke:#fffecd;stroke-width:.277224;stroke-miterlimit:4;stroke-dasharray:none;stroke-opacity:1" d="M2936.859 3210.332c-6.245-3.111-11.133-11.222-11.133-18.47 0-2.095.178-2.206 3.545-2.206 2.167 0 3.653.38 3.823.978.152.538.684 2.475 1.18 4.304 2.61 9.605 13.662 13.392 20.799 7.125 3.541-3.109 5.408-8.816 4.86-14.858-.738-8.138-5.395-13.196-12.152-13.196-4.074 0-9.351 2.71-11.417 5.861l-1.32 2.014-3.077-2.177c-2.77-1.96-3.08-2.518-3.095-5.584-.019-3.93 1.39-24.727 2.009-29.65l.418-3.325h33.546V3159.143h-7.041v-9.388h-10.125c-5.569 0-10.28.264-10.47.586-.19.323-.598 5.076-.907 10.562l-.562 9.975 4.46-2.346c10.755-5.657 21.49-1.414 26.723 10.562 2.04 4.668 1.92 16.07-.217 20.733-3.948 8.618-10.12 12.498-19.898 12.511-4.79.01-6.675-.374-9.95-2.006zM3443.666 3210.715c-1.936-.878-4.348-2.366-5.359-3.308-2.415-2.25-5.334-8.061-5.99-11.926-.288-1.697-.692-3.702-.9-4.455-.32-1.172.19-1.37 3.535-1.37h3.909l1.25 4.3c2.931 10.084 11.563 14.028 19.758 9.03 5.741-3.503 8.083-15.28 4.44-22.335-4.293-8.318-15.082-9.005-21.382-1.362l-2.25 2.73-3.161-2.54-3.161-2.54.417-4.79c.229-2.635.828-10.6 1.33-17.7l.914-12.91 17.017-.21 17.017-.211v18.025h-7.824v-9.388h-20.188l-.528 9.193c-.29 5.056-.701 9.809-.913 10.562-.5 1.787-.417 1.77 4.807-.978 8.13-4.277 16.788-2.77 22.511 3.916 3.897 4.552 5.596 9.917 5.52 17.425-.105 10.284-5.212 18.449-13.36 21.356-4.566 1.63-13.245 1.374-17.409-.514zM2929.473 3949.745v-8.997h7.042v9.388h20.217l.428-4.89c1.251-14.284 1.32-16.234.573-16.234-.432 0-1.024.389-1.318.864-1.13 1.827-7.075 3.796-11.515 3.813-11.286.043-18.452-7.727-19.173-20.788-.857-15.538 7.402-25.34 21.35-25.34 10.192 0 16.95 4.987 19.974 14.736 2.336 7.535 2.226 7.938-2.175 7.936h-3.716l-1.322-4.497c-1.585-5.392-5.038-9.234-9.338-10.392-9.125-2.457-16.298 4.441-16.298 15.674 0 9.568 4.251 14.857 11.948 14.863 4.48 0 6.158-.766 10.315-4.727l3.13-2.982 3.001 2.543 3.001 2.543-1.24 16.054c-.683 8.83-1.241 16.814-1.241 17.743 0 1.678-.111 1.689-16.822 1.689h-16.821v-8.998zM3435.16 3949.745v-8.997h7.042v9.388h10.124c5.569 0 10.28-.264 10.47-.586.19-.323.598-5.076.907-10.562l.563-9.975-4.462 2.346c-8.627 4.539-18.208 2.662-23.497-4.6-9.815-13.48-4.305-34.619 10.035-38.497 4.258-1.151 13.556-.545 16.705 1.09 5.86 3.042 10.118 9.683 11.008 17.166l.442 3.717H3466.826l-.954-4.016c-1.267-5.331-4.067-8.84-8.367-10.482-4.125-1.576-7.683-1.136-11.432 1.412-7.22 4.906-8.29 18.529-1.997 25.396 2.21 2.412 3.151 2.845 6.857 3.152 5.096.423 9.721-1.54 12.359-5.244l1.662-2.334 3.068 2.121c2.762 1.91 3.071 2.461 3.098 5.528.034 3.868-1.363 24.618-1.995 29.65l-.418 3.324h-33.547z"/><path style="fill:#050505" d="M3049.992 3310.716c2.097-2.42 4.401-6.826 6.948-13.287 3.398-8.62 5.53-24.061 3.323-24.061-.5 0-3.295 2.183-6.212 4.85-7.203 6.589-10.967 8.188-19.157 8.143-5.438-.03-7.157-.385-10.798-2.223-8.006-4.043-13.485-11.168-15.655-20.36-2.371-10.042 4.94-24.204 19.129-37.046 20.673-18.713 27.165-25.357 32.634-33.397 1.996-2.934 3.704-5.335 3.796-5.335.092 0 1.8 2.4 3.796 5.335 5.47 8.04 11.961 14.684 32.634 33.397 14.188 12.842 21.5 27.004 19.13 37.047-2.17 9.19-7.65 16.316-15.656 20.359-3.641 1.838-5.36 2.192-10.798 2.223-8.19.045-11.953-1.554-19.157-8.142-2.917-2.668-5.712-4.851-6.212-4.851-2.207 0-.075 15.44 3.323 24.061 2.547 6.461 4.851 10.867 6.949 13.287 1.538 1.775 1.096 1.754-7.064-.34l-6.8-1.183-6.944 1.175c-8.51 1.439-8.737 2.11-7.21.348zM3321.992 3310.716c2.097-2.42 4.401-6.826 6.948-13.287 3.398-8.62 5.53-24.061 3.323-24.061-.5 0-3.295 2.183-6.212 4.85-7.203 6.589-10.967 8.188-19.157 8.143-5.438-.03-7.157-.385-10.798-2.223-8.006-4.043-13.485-11.168-15.655-20.36-2.371-10.042 4.94-24.204 19.129-37.046 20.673-18.713 27.165-25.357 32.634-33.397 1.996-2.934 3.704-5.335 3.796-5.335.092 0 1.8 2.4 3.796 5.335 5.47 8.04 11.961 14.684 32.634 33.397 14.188 12.842 21.5 27.004 19.13 37.047-2.17 9.19-7.65 16.316-15.656 20.359-3.641 1.838-5.36 2.192-10.798 2.223-8.19.045-11.953-1.554-19.157-8.142-2.917-2.668-5.712-4.851-6.212-4.851-2.207 0-.075 15.44 3.323 24.061 2.547 6.461 4.851 10.867 6.949 13.287 1.538 1.775 1.096 1.754-7.064-.34l-6.8-1.183-6.944 1.175c-8.51 1.439-8.737 2.11-7.21.348zM3185.992 3610.716c2.097-2.42 4.401-6.826 6.948-13.287 3.398-8.62 5.53-24.061 3.323-24.061-.5 0-3.295 2.183-6.212 4.85-7.203 6.589-10.967 8.188-19.157 8.143-5.438-.03-7.157-.385-10.798-2.223-8.006-4.043-13.485-11.168-15.655-20.36-2.371-10.042 4.94-24.204 19.129-37.046 20.673-18.713 27.165-25.357 32.634-33.397 1.996-2.934 3.704-5.335 3.796-5.335.092 0 1.8 2.4 3.796 5.335 5.47 8.04 11.961 14.684 32.634 33.397 14.188 12.842 21.5 27.004 19.13 37.047-2.17 9.19-7.65 16.316-15.656 20.359-3.641 1.838-5.36 2.192-10.798 2.223-8.19.045-11.953-1.554-19.157-8.142-2.917-2.668-5.712-4.851-6.212-4.851-2.207 0-.075 15.44 3.323 24.061 2.547 6.461 4.851 10.867 6.949 13.287 1.538 1.775 1.096 1.754-7.064-.34l-6.8-1.183-6.944 1.175c-8.51 1.439-8.737 2.11-7.21.348zM3049.992 3789.284c2.097 2.42 4.401 6.826 6.948 13.287 3.398 8.62 5.53 24.061 3.323 24.061-.5 0-3.295-2.183-6.212-4.851-7.203-6.588-10.967-8.187-19.157-8.142-5.438.03-7.157.385-10.798 2.223-8.006 4.043-13.485 11.168-15.655 20.359-2.371 10.043 4.94 24.205 19.129 37.047 20.673 18.713 27.165 25.357 32.634 33.397 1.996 2.934 3.704 5.335 3.796 5.335.092 0 1.8-2.401 3.796-5.335 5.47-8.04 11.961-14.684 32.634-33.397 14.188-12.842 21.5-27.004 19.13-37.047-2.17-9.19-7.65-16.316-15.656-20.359-3.641-1.838-5.36-2.192-10.798-2.223-8.19-.046-11.953 1.554-19.157 8.142-2.917 2.668-5.712 4.851-6.212 4.851-2.207 0-.075-15.44 3.323-24.061 2.547-6.461 4.851-10.868 6.949-13.287 1.538-1.775 1.096-1.754-7.064.34l-6.8 1.183-6.944-1.175c-8.51-1.44-8.737-2.11-7.21-.348zM3321.992 3789.284c2.097 2.42 4.401 6.826 6.948 13.287 3.398 8.62 5.53 24.061 3.323 24.061-.5 0-3.295-2.183-6.212-4.851-7.203-6.588-10.967-8.187-19.157-8.142-5.438.03-7.157.385-10.798 2.223-8.006 4.043-13.485 11.168-15.655 20.359-2.371 10.043 4.94 24.205 19.129 37.047 20.673 18.713 27.165 25.357 32.634 33.397 1.996 2.934 3.704 5.335 3.796 5.335.092 0 1.8-2.401 3.796-5.335 5.47-8.04 11.961-14.684 32.634-33.397 14.188-12.842 21.5-27.004 19.13-37.047-2.17-9.19-7.65-16.316-15.656-20.359-3.641-1.838-5.36-2.192-10.798-2.223-8.19-.046-11.953 1.554-19.157 8.142-2.917 2.668-5.712 4.851-6.212 4.851-2.207 0-.075-15.44 3.323-24.061 2.547-6.461 4.851-10.868 6.949-13.287 1.538-1.775 1.096-1.754-7.064.34l-6.8 1.183-6.944-1.175c-8.51-1.44-8.737-2.11-7.21-.348zM2941.497 3283.503c.824-.937 1.729-2.642 2.73-5.143 1.334-3.337 2.172-9.314 1.305-9.314-.196 0-1.294.845-2.44 1.878-2.83 2.55-4.31 3.169-7.526 3.151-2.137-.012-2.812-.149-4.242-.86-3.146-1.565-5.298-4.323-6.15-7.881-.932-3.888 1.94-9.37 7.514-14.341 8.122-7.244 10.672-9.815 12.82-12.928.785-1.136 1.456-2.065 1.492-2.065.036 0 .707.93 1.491 2.065 2.149 3.113 4.7 5.684 12.82 12.928 5.575 4.971 8.447 10.453 7.516 14.34-.853 3.559-3.005 6.317-6.15 7.882-1.43.711-2.106.848-4.243.86-3.217.018-4.696-.601-7.525-3.151-1.146-1.033-2.245-1.878-2.44-1.878-.868 0-.03 5.977 1.305 9.314 1 2.5 1.905 4.206 2.73 5.143.604.687.43.679-2.775-.132l-2.672-.457-2.728.454c-3.343.557-3.432.817-2.832.135zM3447.497 3283.503c.824-.937 1.729-2.642 2.73-5.143 1.334-3.337 2.172-9.314 1.305-9.314-.196 0-1.294.845-2.44 1.878-2.83 2.55-4.31 3.169-7.526 3.151-2.137-.012-2.812-.149-4.242-.86-3.146-1.565-5.298-4.323-6.15-7.881-.932-3.888 1.94-9.37 7.514-14.341 8.122-7.244 10.672-9.815 12.82-12.928.785-1.136 1.456-2.065 1.492-2.065.036 0 .707.93 1.491 2.065 2.149 3.113 4.7 5.684 12.82 12.928 5.575 4.971 8.447 10.453 7.516 14.34-.853 3.559-3.005 6.317-6.15 7.882-1.43.711-2.106.848-4.243.86-3.217.018-4.696-.601-7.525-3.151-1.146-1.033-2.245-1.878-2.44-1.878-.868 0-.03 5.977 1.305 9.314 1 2.5 1.905 4.206 2.73 5.143.604.687.43.679-2.775-.132l-2.672-.457-2.728.454c-3.343.557-3.432.817-2.832.135zM2941.497 3816.497c.824.937 1.729 2.642 2.73 5.143 1.334 3.337 2.172 9.315 1.305 9.315-.196 0-1.294-.846-2.44-1.878-2.83-2.55-4.31-3.17-7.526-3.152-2.137.012-2.812.149-4.242.86-3.146 1.565-5.298 4.323-6.15 7.881-.932 3.888 1.94 9.37 7.514 14.341 8.122 7.244 10.672 9.815 12.82 12.928.785 1.136 1.456 2.065 1.492 2.065.036 0 .707-.93 1.491-2.065 2.149-3.113 4.7-5.684 12.82-12.928 5.575-4.971 8.447-10.453 7.516-14.34-.853-3.559-3.005-6.317-6.15-7.882-1.43-.711-2.106-.848-4.243-.86-3.217-.018-4.696.601-7.525 3.152-1.146 1.032-2.245 1.877-2.44 1.877-.868 0-.03-5.977 1.305-9.314 1-2.5 1.905-4.206 2.73-5.143.604-.687.43-.679-2.775.132l-2.672.458-2.728-.455c-3.343-.557-3.432-.817-2.832-.135zM3447.497 3816.497c.824.937 1.729 2.642 2.73 5.143 1.334 3.337 2.172 9.315 1.305 9.315-.196 0-1.294-.846-2.44-1.878-2.83-2.55-4.31-3.17-7.526-3.152-2.137.012-2.812.149-4.242.86-3.146 1.565-5.298 4.323-6.15 7.881-.932 3.888 1.94 9.37 7.514 14.341 8.122 7.244 10.672 9.815 12.82 12.928.785 1.136 1.456 2.065 1.492 2.065.036 0 .707-.93 1.491-2.065 2.149-3.113 4.7-5.684 12.82-12.928 5.575-4.971 8.447-10.453 7.516-14.34-.853-3.559-3.005-6.317-6.15-7.882-1.43-.711-2.106-.848-4.243-.86-3.217-.018-4.696.601-7.525 3.152-1.146 1.032-2.245 1.877-2.44 1.877-.868 0-.03-5.977 1.305-9.314 1-2.5 1.905-4.206 2.73-5.143.604-.687.43-.679-2.775.132l-2.672.458-2.728-.455c-3.343-.557-3.432-.817-2.832-.135z"/><path style="fill:#fffecd;fill-opacity:1;stroke:#fffecd;stroke-width:1.32191;stroke-miterlimit:4;stroke-dasharray:none;stroke-opacity:1" d="M2985.992 3883.427c0-48.326-1.542-83.338-3.862-87.672-3.095-5.783-7.911-7.216-24.25-7.216h-20.387V3311.008h20.387c16.339 0 21.155-1.433 24.25-7.216 2.32-4.335 3.862-39.346 3.862-87.672v-80.456h429.032v80.456c0 48.326 1.542 83.337 3.862 87.672 3.095 5.783 7.91 7.216 24.25 7.216h20.387V3788.539h-20.388c-16.338 0-21.154 1.433-24.25 7.216-2.319 4.334-3.861 39.346-3.861 87.672v80.455h-429.032zm99.466 7.088c37.378-36.27 43.381-52.736 25.682-70.435-10.475-10.475-18.24-11.362-32.83-3.75-10.151 5.295-10.249 5.237-7.879-4.686 1.32-5.526 3.846-12.875 5.614-16.331 4.615-9.02 4.685-8.977-11.948-7.39-12.343 1.176-14.682 2.582-12.578 7.56 1.422 3.362 3.457 10.165 4.523 15.118 1.653 7.687.9 8.573-5.144 6.05-16.018-6.688-22.906-6.19-32.42 2.343-18.951 16.999-15.214 31.421 16.766 64.7 14.777 15.377 27.22 27.958 27.65 27.958.43 0 10.583-9.512 22.563-21.137zm280.17-9.447c30.642-32.578 34.18-44.662 17.854-60.988-10.515-10.515-22.855-11.703-34.78-3.35-9.807 6.869-10.483 2.927-2.696-15.71 3.077-7.366 5.596-13.652 5.596-13.968 0-.317-6.824.075-15.163.87-12.296 1.173-14.691 2.602-12.67 7.56 5.314 13.025 8.68 27.069 6.192 25.829l-13.216-6.601c-9.226-4.611-11.897-4.578-20.519.255-13.917 7.801-20.34 22.423-15.471 35.227 3.928 10.332 51.834 62.444 55.717 60.608 1.179-.557 14.299-13.936 29.155-29.732zm-153.993-279.19c-8.284-16.02-7.426-23.536 2.103-18.436 21.007 11.242 47.89-6.611 43-28.558-1.351-6.064-14.122-23-29.451-39.056l-27.065-28.35-24.607 24.619c-35.3 35.317-39.708 46.711-25.2 65.153 8.389 10.666 28.04 13.604 36.227 5.416 7.735-7.735 9.626.112 3.678 15.255l-5.756 14.653h32.602zm-132.375-289.482c0-.262-2.518-6.504-5.596-13.87-7.787-18.636-7.11-22.578 2.695-15.71 18.694 13.094 43.939.088 43.939-22.638 0-10.954-4.19-17.468-26.814-41.7-14.748-15.795-27.271-29.35-27.83-30.122-.558-.772-13.674 11.38-29.146 27.003-33.145 33.47-37.25 47.94-18.405 64.87 11.05 9.928 20.721 10.616 33.308 2.37 10.735-7.035 11.108-5.774 3.6 12.196-7.58 18.142-7.614 18.078 9.326 18.078 8.207 0 14.923-.215 14.923-.477zm272.342 0c0-.262-2.519-6.504-5.596-13.87-7.787-18.636-7.11-22.578 2.695-15.71 11.926 8.353 24.266 7.165 34.781-3.35 16.28-16.278 12.77-28.401-17.657-60.988-14.747-15.795-27.377-29.456-28.065-30.358-2.894-3.792-56.14 55.365-58.579 65.082-5.109 20.354 22.381 42.838 39.39 32.216 10.448-6.525 12.916-2.657 7.631 11.958-2.445 6.763-4.446 13.016-4.446 13.897 0 .88 6.715 1.6 14.923 1.6 8.207 0 14.923-.215 14.923-.477z"/></g></svg>