<svg height="123.003" width="78.999" xmlns="http://www.w3.org/2000/svg"><g transform="matrix(.13166 0 0 .13667 -473.993 -423.676)"><rect width="597.967" height="897.967" rx="48.211" ry="49.888" x="3601.017" y="3101.016" style="font-style:normal;font-variant:normal;font-weight:500;font-stretch:normal;font-size:medium;line-height:125%;font-family:Gaelic;-inkscape-font-specification:'Gaelic Medium';letter-spacing:0;word-spacing:0;fill:#fff;fill-opacity:1;stroke:#000;stroke-width:2.03317;stroke-linecap:butt;stroke-linejoin:miter;stroke-miterlimit:4;stroke-dasharray:none;stroke-opacity:1"/><path style="fill:#b7b772" d="M3680.315 3969.538c-.36-.367-.657-38.958-.657-85.759 0-82.258-.058-85.17-1.873-87.448-1.836-2.308-2.295-2.367-22.33-2.856l-20.455-.5v-486.248l20.334-.5c17.804-.436 20.551-.72 22.084-2.281 1.644-1.675 1.78-6.989 2.24-87.865l.492-86.081h440.7l.491 86.082c.461 80.875.597 86.189 2.241 87.864 1.533 1.56 4.28 1.845 22.084 2.282l20.334.499v486.249l-20.334.499c-17.804.437-20.551.72-22.084 2.282-1.644 1.675-1.78 6.988-2.24 87.864l-.492 86.082-219.939.251c-120.967.139-220.234-.049-220.596-.416zm437.104-85.952c0-81.68.049-83.697 1.954-86.875 3.95-6.589 6.25-7.222 26.261-7.226h17.912v-479.26h-17.912c-20.011 0-22.312-.637-26.261-7.226-1.906-3.178-1.951-5.195-1.954-86.875v-83.62h-433.83v83.62c0 81.68-.05 83.697-1.954 86.876-3.95 6.588-6.25 7.221-26.261 7.226h-17.912v479.259h17.912c20.01 0 22.312.637 26.261 7.226 1.905 3.179 1.951 5.196 1.954 86.875v83.62h433.83z"/><path style="font-style:normal;font-variant:normal;font-weight:400;font-stretch:normal;font-size:medium;line-height:125%;font-family:Rockwell;-inkscape-font-specification:Rockwell;letter-spacing:0;word-spacing:0;fill:#000;fill-opacity:1;stroke:none;stroke-width:1px;stroke-linecap:butt;stroke-linejoin:miter;stroke-opacity:1" d="M3668.509 3162.726h-8.3q-.736-5.971-4.124-9.734-3.34-3.763-8.152-3.763-6.531 0-10.165 6.974-3.634 6.924-3.781 19.016 6.973-7.727 16.058-7.727 7.808 0 13.357 5.92 5.598 5.87 5.598 15.755 0 9.834-5.5 16.859-5.5 6.974-15.027 6.974-10.656 0-17.09-8.931-6.383-8.981-6.383-26.642 0-16.809 6.188-26.593 6.187-9.834 17.825-9.834 9.134 0 14.143 6.172 5.058 6.12 5.353 15.554zm-34.031 23.03q2.21 18.965 13.553 18.965 5.795 0 9.036-4.365 3.241-4.365 3.241-10.436 0-5.97-3.094-9.634-3.044-3.662-8.25-3.662-7.317 0-14.486 9.131zM4174.509 3162.726h-8.3q-.736-5.971-4.124-9.734-3.34-3.763-8.152-3.763-6.531 0-10.165 6.974-3.634 6.924-3.781 19.016 6.973-7.727 16.058-7.727 7.808 0 13.357 5.92 5.598 5.87 5.598 15.755 0 9.834-5.5 16.859-5.5 6.974-15.027 6.974-10.656 0-17.09-8.931-6.383-8.981-6.383-26.642 0-16.809 6.188-26.593 6.187-9.834 17.825-9.834 9.134 0 14.143 6.172 5.058 6.12 5.353 15.554zm-34.031 23.03q2.21 18.965 13.553 18.965 5.795 0 9.036-4.365 3.241-4.365 3.241-10.436 0-5.97-3.094-9.634-3.044-3.662-8.25-3.662-7.317 0-14.486 9.131zM3625.491 3937.274h8.3q.736 5.971 4.124 9.734 3.34 3.763 8.152 3.763 6.531 0 10.165-6.974 3.634-6.924 3.781-19.016-6.973 7.727-16.058 7.727-7.808 0-13.357-5.92-5.598-5.87-5.598-15.755 0-9.834 5.5-16.859 5.5-6.974 15.027-6.974 10.656 0 17.09 8.931 6.383 8.981 6.383 26.642 0 16.809-6.188 26.593-6.187 9.834-17.825 9.834-9.134 0-14.143-6.172-5.058-6.12-5.353-15.554zm34.031-23.03q-2.21-18.965-13.553-18.965-5.795 0-9.036 4.365-3.241 4.365-3.241 10.436 0 5.97 3.094 9.634 3.044 3.662 8.25 3.662 7.317 0 14.486-9.132zM4131.491 3937.274h8.3q.736 5.971 4.124 9.734 3.34 3.763 8.152 3.763 6.531 0 10.165-6.974 3.634-6.924 3.781-19.016-6.973 7.727-16.058 7.727-7.808 0-13.357-5.92-5.598-5.87-5.598-15.755 0-9.834 5.5-16.859 5.5-6.974 15.027-6.974 10.656 0 17.09 8.931 6.383 8.981 6.383 26.642 0 16.809-6.188 26.593-6.187 9.834-17.825 9.834-9.134 0-14.143-6.172-5.058-6.12-5.353-15.554zm34.031-23.03q-2.21-18.965-13.553-18.965-5.795 0-9.036 4.365-3.241 4.365-3.241 10.436 0 5.97 3.094 9.634 3.044 3.662 8.25 3.662 7.317 0 14.486-9.132z"/><path style="fill:#000;fill-opacity:1;stroke:#fffecd;stroke-width:.277224;stroke-miterlimit:4;stroke-dasharray:none;stroke-opacity:1" d="M3640.2 3210.816c-5.83-2.786-9.605-7.291-12.222-14.584-2.104-5.865-2.97-24.305-1.494-31.81 3.227-16.404 13.755-25.244 26.832-22.53 7.372 1.531 13.228 8.395 14.389 16.865l.482 3.516h-3.92c-3.769 0-3.94-.096-4.412-2.453-1.235-6.176-6.327-10.842-11.832-10.842-7.909 0-12.773 7.28-14.14 21.162l-.55 5.573 4.172-3.158c10.415-7.883 22.84-5.395 28.495 5.704 2.1 4.12 2.361 5.394 2.332 11.344-.025 5.045-.433 7.584-1.648 10.264-2.19 4.834-6.264 9.3-10.048 11.02-4.279 1.943-12.294 1.909-16.437-.072zm14.473-7.754c3.448-2.498 5.67-7.515 5.71-12.892.102-14.02-12.631-18.432-22.925-7.943l-3.45 3.515.942 4.5c.517 2.475 1.744 6.084 2.725 8.02 3.271 6.456 11.503 8.78 16.998 4.8zM4147.024 3211.323c-4.19-1.32-10.409-7.993-12.393-13.298-2.52-6.733-3.507-14.72-3.017-24.408.882-17.47 6.834-28.164 17.455-31.36 2.024-.61 4.617-1.109 5.761-1.109 3.944 0 9.844 2.301 12.49 4.87 2.95 2.865 5.91 8.876 6.56 13.32l.43 2.935h-7.6l-1.258-3.786c-2.456-7.395-9.199-11.2-15.562-8.78-5.167 1.964-9.024 9.923-9.69 19.999l-.414 6.259 2.641-2.455c7.548-7.017 17.627-7.535 24.933-1.28 4.474 3.829 6.438 8.068 6.881 14.852.98 15.014-7.158 25.37-19.784 25.176-2.582-.04-5.927-.46-7.433-.935zm13.516-8.227c3.125-1.845 6.048-8.153 6.027-13.006-.061-14.127-13.228-18.349-23.718-7.606l-2.955 3.026 1.214 5.234c1.417 6.111 2.688 8.791 5.348 11.275 3.666 3.424 9.37 3.86 14.084 1.077zM3638.446 3957.509c-6.303-1.94-12.384-10.816-12.384-18.077 0-1.65.347-1.814 3.825-1.814 3.695 0 3.841.086 4.306 2.543 1.162 6.15 6.22 10.752 11.82 10.752 7.954 0 12.727-7.244 14.147-21.467l.542-5.434-3.328 2.848c-6.5 5.564-14.16 6.695-21.19 3.13-7.838-3.975-11.684-12.079-10.61-22.355 1.247-11.932 9.029-20.038 19.266-20.068 6.201-.02 9.485 1.133 13.629 4.781 7.524 6.623 10.185 15.677 9.625 32.752-.488 14.857-2.812 21.904-9.304 28.203-5.153 5.001-12.693 6.56-20.344 4.206zm12.334-35.234c1.46-.694 4.106-2.667 5.877-4.387 3.023-2.933 3.19-3.325 2.721-6.367-1.873-12.147-8.156-18.275-16.47-16.063-1.734.461-3.807 1.422-4.606 2.136-6.567 5.861-6.209 20.31.607 24.466 2.974 1.814 8.298 1.91 11.871.215zM4144.537 3957.657c-2.888-1.077-5.262-2.734-7.41-5.174-2.14-2.428-4.846-9.106-4.853-11.974l-.01-2.977 3.639.239c3.581.235 3.654.293 4.664 3.773 1.507 5.186 5.467 8.717 10.3 9.181 6.381.613 10.098-2.24 12.997-9.977 1.209-3.228 2.962-14.849 2.348-15.562-.144-.167-1.502.641-3.017 1.797-8.612 6.568-17.46 6.847-24.554.774-5.46-4.673-6.768-7.985-6.767-17.131 0-6.969.228-8.252 2.081-11.736 4.012-7.541 9.767-11.345 17.166-11.345 14.935 0 23.34 12.458 23.378 34.654.031 17.255-5.148 29.584-14.437 34.369-3.967 2.043-11.542 2.574-15.527 1.089zm12.601-35.62c1.597-.824 4.248-2.89 5.893-4.589 2.747-2.84 2.944-3.335 2.437-6.13-2.176-11.996-8.209-17.786-16.576-15.908-7.928 1.78-12.068 14.062-7.632 22.641 2.681 5.185 9.998 7.021 15.878 3.986z"/><path d="M3749.992 3310.716c2.097-2.42 4.401-6.826 6.948-13.287 3.398-8.62 5.53-24.061 3.323-24.061-.5 0-3.295 2.183-6.212 4.85-7.203 6.589-10.967 8.188-19.157 8.143-5.438-.03-7.157-.385-10.798-2.223-8.006-4.043-13.485-11.168-15.655-20.36-2.371-10.042 4.94-24.204 19.129-37.046 20.673-18.713 27.165-25.357 32.634-33.397 1.996-2.934 3.704-5.335 3.796-5.335.092 0 1.8 2.4 3.796 5.335 5.47 8.04 11.961 14.684 32.634 33.397 14.188 12.842 21.5 27.004 19.13 37.047-2.17 9.19-7.65 16.316-15.656 20.359-3.641 1.838-5.36 2.192-10.798 2.223-8.19.045-11.953-1.554-19.157-8.142-2.917-2.668-5.712-4.851-6.212-4.851-2.207 0-.075 15.44 3.323 24.061 2.547 6.461 4.851 10.867 6.949 13.287 1.538 1.775 1.096 1.754-7.064-.34l-6.8-1.183-6.944 1.175c-8.51 1.439-8.737 2.11-7.21.348zM4021.992 3310.716c2.097-2.42 4.401-6.826 6.948-13.287 3.398-8.62 5.53-24.061 3.323-24.061-.5 0-3.295 2.183-6.212 4.85-7.203 6.589-10.967 8.188-19.157 8.143-5.438-.03-7.157-.385-10.798-2.223-8.006-4.043-13.485-11.168-15.655-20.36-2.371-10.042 4.94-24.204 19.129-37.046 20.673-18.713 27.165-25.357 32.634-33.397 1.996-2.934 3.704-5.335 3.796-5.335.092 0 1.8 2.4 3.796 5.335 5.47 8.04 11.961 14.684 32.634 33.397 14.188 12.842 21.5 27.004 19.13 37.047-2.17 9.19-7.65 16.316-15.656 20.359-3.641 1.838-5.36 2.192-10.798 2.223-8.19.045-11.953-1.554-19.157-8.142-2.917-2.668-5.712-4.851-6.212-4.851-2.207 0-.075 15.44 3.323 24.061 2.547 6.461 4.851 10.867 6.949 13.287 1.538 1.775 1.096 1.754-7.064-.34l-6.8-1.183-6.944 1.175c-8.51 1.439-8.737 2.11-7.21.348zM3749.992 3610.716c2.097-2.42 4.401-6.826 6.948-13.287 3.398-8.62 5.53-24.061 3.323-24.061-.5 0-3.295 2.183-6.212 4.85-7.203 6.589-10.967 8.188-19.157 8.143-5.438-.03-7.157-.385-10.798-2.223-8.006-4.043-13.485-11.168-15.655-20.36-2.371-10.042 4.94-24.204 19.129-37.046 20.673-18.713 27.165-25.357 32.634-33.397 1.996-2.934 3.704-5.335 3.796-5.335.092 0 1.8 2.4 3.796 5.335 5.47 8.04 11.961 14.684 32.634 33.397 14.188 12.842 21.5 27.004 19.13 37.047-2.17 9.19-7.65 16.316-15.656 20.359-3.641 1.838-5.36 2.192-10.798 2.223-8.19.045-11.953-1.554-19.157-8.142-2.917-2.668-5.712-4.851-6.212-4.851-2.207 0-.075 15.44 3.323 24.061 2.547 6.461 4.851 10.867 6.949 13.287 1.538 1.775 1.096 1.754-7.064-.34l-6.8-1.183-6.944 1.175c-8.51 1.439-8.737 2.11-7.21.348zM4021.992 3610.716c2.097-2.42 4.401-6.826 6.948-13.287 3.398-8.62 5.53-24.061 3.323-24.061-.5 0-3.295 2.183-6.212 4.85-7.203 6.589-10.967 8.188-19.157 8.143-5.438-.03-7.157-.385-10.798-2.223-8.006-4.043-13.485-11.168-15.655-20.36-2.371-10.042 4.94-24.204 19.129-37.046 20.673-18.713 27.165-25.357 32.634-33.397 1.996-2.934 3.704-5.335 3.796-5.335.092 0 1.8 2.4 3.796 5.335 5.47 8.04 11.961 14.684 32.634 33.397 14.188 12.842 21.5 27.004 19.13 37.047-2.17 9.19-7.65 16.316-15.656 20.359-3.641 1.838-5.36 2.192-10.798 2.223-8.19.045-11.953-1.554-19.157-8.142-2.917-2.668-5.712-4.851-6.212-4.851-2.207 0-.075 15.44 3.323 24.061 2.547 6.461 4.851 10.867 6.949 13.287 1.538 1.775 1.096 1.754-7.064-.34l-6.8-1.183-6.944 1.175c-8.51 1.439-8.737 2.11-7.21.348zM3749.992 3789.284c2.097 2.42 4.401 6.826 6.948 13.287 3.398 8.62 5.53 24.061 3.323 24.061-.5 0-3.295-2.183-6.212-4.851-7.203-6.588-10.967-8.187-19.157-8.142-5.438.03-7.157.385-10.798 2.223-8.006 4.043-13.485 11.168-15.655 20.359-2.371 10.043 4.94 24.205 19.129 37.047 20.673 18.713 27.165 25.357 32.634 33.397 1.996 2.934 3.704 5.335 3.796 5.335.092 0 1.8-2.401 3.796-5.335 5.47-8.04 11.961-14.684 32.634-33.397 14.188-12.842 21.5-27.004 19.13-37.047-2.17-9.19-7.65-16.316-15.656-20.359-3.641-1.838-5.36-2.192-10.798-2.223-8.19-.046-11.953 1.554-19.157 8.142-2.917 2.668-5.712 4.851-6.212 4.851-2.207 0-.075-15.44 3.323-24.061 2.547-6.461 4.851-10.868 6.949-13.287 1.538-1.775 1.096-1.754-7.064.34l-6.8 1.183-6.944-1.175c-8.51-1.44-8.737-2.11-7.21-.348zM4021.992 3789.284c2.097 2.42 4.401 6.826 6.948 13.287 3.398 8.62 5.53 24.061 3.323 24.061-.5 0-3.295-2.183-6.212-4.851-7.203-6.588-10.967-8.187-19.157-8.142-5.438.03-7.157.385-10.798 2.223-8.006 4.043-13.485 11.168-15.655 20.359-2.371 10.043 4.94 24.205 19.129 37.047 20.673 18.713 27.165 25.357 32.634 33.397 1.996 2.934 3.704 5.335 3.796 5.335.092 0 1.8-2.401 3.796-5.335 5.47-8.04 11.961-14.684 32.634-33.397 14.188-12.842 21.5-27.004 19.13-37.047-2.17-9.19-7.65-16.316-15.656-20.359-3.641-1.838-5.36-2.192-10.798-2.223-8.19-.046-11.953 1.554-19.157 8.142-2.917 2.668-5.712 4.851-6.212 4.851-2.207 0-.075-15.44 3.323-24.061 2.547-6.461 4.851-10.868 6.949-13.287 1.538-1.775 1.096-1.754-7.064.34l-6.8 1.183-6.944-1.175c-8.51-1.44-8.737-2.11-7.21-.348zM3641.497 3283.503c.824-.937 1.729-2.642 2.73-5.143 1.334-3.337 2.172-9.314 1.305-9.314-.196 0-1.294.845-2.44 1.878-2.83 2.55-4.31 3.169-7.526 3.151-2.137-.012-2.812-.149-4.242-.86-3.146-1.565-5.298-4.323-6.15-7.881-.932-3.888 1.94-9.37 7.514-14.341 8.122-7.244 10.672-9.815 12.82-12.928.785-1.136 1.456-2.065 1.492-2.065.036 0 .707.93 1.491 2.065 2.149 3.113 4.7 5.684 12.82 12.928 5.575 4.971 8.447 10.453 7.516 14.34-.853 3.559-3.005 6.317-6.15 7.882-1.43.711-2.106.848-4.243.86-3.217.018-4.696-.601-7.525-3.151-1.146-1.033-2.245-1.878-2.44-1.878-.868 0-.03 5.977 1.305 9.314 1 2.5 1.905 4.206 2.73 5.143.604.687.43.679-2.775-.132l-2.672-.457-2.728.454c-3.343.557-3.432.817-2.832.135zM4147.497 3283.503c.824-.937 1.729-2.642 2.73-5.143 1.334-3.337 2.172-9.314 1.305-9.314-.196 0-1.295.845-2.44 1.878-2.83 2.55-4.31 3.169-7.526 3.151-2.137-.012-2.812-.149-4.242-.86-3.146-1.565-5.298-4.323-6.15-7.881-.932-3.888 1.94-9.37 7.514-14.341 8.122-7.244 10.672-9.815 12.82-12.928.785-1.136 1.456-2.065 1.492-2.065.036 0 .707.93 1.491 2.065 2.149 3.113 4.7 5.684 12.82 12.928 5.575 4.971 8.447 10.453 7.516 14.34-.853 3.559-3.005 6.317-6.15 7.882-1.43.711-2.106.848-4.243.86-3.217.018-4.696-.601-7.525-3.151-1.146-1.033-2.245-1.878-2.44-1.878-.868 0-.03 5.977 1.305 9.314 1 2.5 1.905 4.206 2.73 5.143.604.687.43.679-2.776-.132l-2.67-.457-2.73.454c-3.342.557-3.431.817-2.831.135zM3641.497 3816.497c.824.937 1.729 2.642 2.73 5.143 1.334 3.337 2.172 9.315 1.305 9.315-.196 0-1.294-.846-2.44-1.878-2.83-2.55-4.31-3.17-7.526-3.152-2.137.012-2.812.149-4.242.86-3.146 1.565-5.298 4.323-6.15 7.881-.932 3.888 1.94 9.37 7.514 14.341 8.122 7.244 10.672 9.815 12.82 12.928.785 1.136 1.456 2.065 1.492 2.065.036 0 .707-.93 1.491-2.065 2.149-3.113 4.7-5.684 12.82-12.928 5.575-4.971 8.447-10.453 7.516-14.34-.853-3.559-3.005-6.317-6.15-7.882-1.43-.711-2.106-.848-4.243-.86-3.217-.018-4.696.601-7.525 3.152-1.146 1.032-2.245 1.877-2.44 1.877-.868 0-.03-5.977 1.305-9.314 1-2.5 1.905-4.206 2.73-5.143.604-.687.43-.679-2.775.132l-2.672.458-2.728-.455c-3.343-.557-3.432-.817-2.832-.135zM4147.497 3816.497c.824.937 1.729 2.642 2.73 5.143 1.334 3.337 2.172 9.315 1.305 9.315-.196 0-1.295-.846-2.44-1.878-2.83-2.55-4.31-3.17-7.526-3.152-2.137.012-2.812.149-4.242.86-3.146 1.565-5.298 4.323-6.15 7.881-.932 3.888 1.94 9.37 7.514 14.341 8.122 7.244 10.672 9.815 12.82 12.928.785 1.136 1.456 2.065 1.492 2.065.036 0 .707-.93 1.491-2.065 2.149-3.113 4.7-5.684 12.82-12.928 5.575-4.971 8.447-10.453 7.516-14.34-.853-3.559-3.005-6.317-6.15-7.882-1.43-.711-2.106-.848-4.243-.86-3.217-.018-4.696.601-7.525 3.152-1.146 1.032-2.245 1.877-2.44 1.877-.868 0-.03-5.977 1.305-9.314 1-2.5 1.905-4.206 2.73-5.143.604-.687.43-.679-2.776.132l-2.67.458-2.73-.455c-3.342-.557-3.431-.817-2.831-.135z" style="fill:#050505"/><path style="fill:#fffecd;fill-opacity:1;stroke:#fffecd;stroke-width:1.32191;stroke-miterlimit:4;stroke-dasharray:none;stroke-opacity:1" d="M3683.635 3880.687c0-59.733-1.263-84.457-4.477-87.672-2.462-2.462-12.535-4.476-22.384-4.476h-17.908V3311.008h17.908c9.849 0 19.922-2.015 22.384-4.477 3.214-3.214 4.477-27.939 4.477-87.672v-83.195h432.762v83.195c0 59.733 1.263 84.458 4.477 87.672 2.462 2.462 12.535 4.477 22.384 4.477h17.908V3788.539h-17.908c-9.849 0-19.922 2.014-22.384 4.476-3.214 3.215-4.477 27.94-4.477 87.672v83.195h-432.762zm106.908 4.624c14.043-14.488 27.048-31.326 28.902-37.418 4.362-14.34-2.44-27.446-17.481-33.676-9.477-3.925-12.923-3.698-21.886 1.446-9.922 5.695-10.628 5.678-10.505-.25.073-3.496 2.532-10.552 5.464-15.682 7.515-13.146 7.415-13.256-10.792-11.808l-16.389 1.303 5.174 9.916c2.845 5.454 5.184 12.775 5.196 16.27.021 5.929-.692 5.946-10.614.251-9.021-5.177-12.374-5.386-22.064-1.372-13.189 5.463-21.482 21.892-17.465 34.597 2.135 6.752 52.148 62.764 56.043 62.764.486 0 12.374-11.853 26.417-26.341zm270.516 1.857c30.1-31.19 35.683-41.997 29.46-57.019-2.673-6.453-9.405-13.112-16.034-15.858-9.69-4.014-13.044-3.805-22.065 1.372-9.922 5.695-10.635 5.678-10.614-.25.011-3.496 2.531-11.164 5.596-17.041 3.065-5.878 5.573-10.926 5.573-11.22 0-.293-7.512.065-16.693.795l-16.694 1.328 5.502 10.639c3.025 5.85 5.501 13.279 5.501 16.506 0 5.275-.938 5.252-9.3-.226-17.507-11.471-42.93 3.23-42.93 24.826 0 9.034 5.694 17.59 27.048 40.636 14.876 16.055 28.167 29.373 29.535 29.594 1.369.221 13.12-10.616 26.115-24.082zm-286.342-287.221c-7.352-17.597-6.904-21.462 1.94-16.729 13.259 7.096 28.987 4.578 37.282-5.968 14.534-18.477 9.295-31.18-27.782-67.357l-22.254-21.713-22.413 21.993c-37.3 36.601-42.265 48.61-27.739 67.077 8.296 10.546 24.024 13.064 37.282 5.968 9.086-4.862 9.794 2.978 1.685 18.66l-5.531 10.695h32.806zm272.597 1.93c-8.109-15.68-7.4-23.521 1.685-18.659 13.259 7.096 28.987 4.578 37.282-5.968 14.493-18.424 9.844-29.633-27.733-66.874l-22.408-22.207-22.26 21.719c-37.082 36.182-42.322 48.884-27.787 67.362 8.296 10.546 24.024 13.064 37.282 5.968 8.844-4.733 9.293-.868 1.94 16.729l-5.276 12.627h32.806zm-266.68-289.51c0-.279-2.508-5.315-5.574-11.192-3.065-5.878-5.583-13.72-5.596-17.427-.02-6.22.617-6.292 8.269-.932 11.926 8.353 24.266 7.165 34.781-3.35 16.76-16.76 12.168-29.601-24.055-67.27l-23.885-24.84-25.364 25.17c-31.55 31.309-36.616 41.968-28.265 59.479 7.533 15.797 21.856 20.378 36.835 11.782 9.726-5.582 10.467-5.558 10.446.347-.013 3.495-2.53 11.163-5.596 17.04-3.065 5.878-5.573 10.914-5.573 11.193 0 .278 7.555.506 16.788.506 9.234 0 16.788-.228 16.788-.506zm272.341 0c0-.279-2.508-5.315-5.573-11.192-3.065-5.878-5.583-13.546-5.596-17.041-.022-5.905.72-5.93 10.446-.347 14.979 8.596 29.302 4.015 36.836-11.782 8.35-17.51 3.284-28.17-28.266-59.479l-25.364-25.17-23.885 24.84c-36.222 37.669-40.814 50.51-24.055 67.27 10.515 10.515 22.855 11.703 34.781 3.35 7.652-5.36 8.29-5.288 8.269.933-.011 3.707-2.53 11.549-5.596 17.426-3.065 5.877-5.573 10.913-5.573 11.192 0 .278 7.555.506 16.788.506s16.788-.228 16.788-.506z"/></g></svg>