<?xml version="1.0" encoding="UTF-8" standalone="no"?>
<!-- Created with Inkscape (http://www.inkscape.org/) -->

<svg
   id="svg10047"
   height="123.00288"
   width="79.090691"
   version="1.1"
   viewBox="0 0 79.090691 123.00288"
   inkscape:version="0.91 r13725"
   sodipodi:docname="baccarat.svgz"
   xmlns:inkscape="http://www.inkscape.org/namespaces/inkscape"
   xmlns:sodipodi="http://sodipodi.sourceforge.net/DTD/sodipodi-0.dtd"
   xmlns="http://www.w3.org/2000/svg"
   xmlns:svg="http://www.w3.org/2000/svg"
   xmlns:rdf="http://www.w3.org/1999/02/22-rdf-syntax-ns#"
   xmlns:cc="http://creativecommons.org/ns#"
   xmlns:dc="http://purl.org/dc/elements/1.1/">
  <sodipodi:namedview
     pagecolor="#ffffff"
     bordercolor="#666666"
     borderopacity="1"
     objecttolerance="10"
     gridtolerance="10"
     guidetolerance="10"
     inkscape:pageopacity="0"
     inkscape:pageshadow="2"
     inkscape:window-width="1920"
     inkscape:window-height="1016"
     id="namedview1491"
     showgrid="false"
     inkscape:zoom="1.3479675"
     inkscape:cx="513.49999"
     inkscape:cy="307.5"
     inkscape:window-x="0"
     inkscape:window-y="0"
     inkscape:window-maximized="1"
     inkscape:current-layer="svg10047"
     showguides="false"
     inkscape:guide-bbox="true"
     inkscape:snap-grids="true"
     inkscape:showpageshadow="2"
     inkscape:pagecheckerboard="0"
     inkscape:deskcolor="#d1d1d1" />
  <metadata
     id="metadata16869">
    <rdf:RDF>
      <cc:Work
         rdf:about="">
        <dc:format>image/svg+xml</dc:format>
        <dc:type
           rdf:resource="http://purl.org/dc/dcmitype/StillImage" />
        <dc:title />
      </cc:Work>
    </rdf:RDF>
  </metadata>
  <defs
     id="defs10049" />
  <g
     transform="matrix(0.1818177,0,0,0.18636804,-187.73148,-293.52968)"
     id="club_3"
     inkscape:label="#club_3">
    <rect
       transform="scale(-1)"
       width="433.73785"
       height="658.73773"
       rx="20.746819"
       ry="22.528988"
       x="-1466.8948"
       y="-2234.3689"
       id="rect4261"
       style="display:inline;fill:#ffffff;fill-opacity:1;stroke:#000000;stroke-width:1.26211;stroke-miterlimit:4;stroke-dasharray:none;stroke-opacity:1" />
    <path
       d="m 1064.3774,1622.9917 q 3.0468,1.0442 4.6921,3.7127 1.7063,2.6105 1.7063,6.7873 0,5.5691 -2.8641,8.8176 -2.8031,3.1906 -8.5312,3.1906 -2.2547,0 -4.3875,-0.6381 -2.1329,-0.6381 -3.7172,-1.6822 l 1.4016,-4.0609 q 1.4015,0.8122 2.925,1.3923 1.5843,0.5801 3.2906,0.5801 3.1078,0 4.8141,-1.7983 1.7671,-1.8564 1.7671,-5.8591 0,-4.0028 -1.95,-6.0331 -1.8891,-2.0305 -6.0937,-2.0305 h -1.5844 v -4.2348 h 1.3406 q 3.6563,0 5.4234,-1.8563 1.7673,-1.8564 1.7673,-5.163 0,-3.1326 -1.4016,-4.6409 -1.4016,-1.5662 -3.7172,-1.5662 -1.5844,0 -3.0469,0.58 -1.4016,0.5801 -2.4375,1.4503 l -2.0718,-3.6547 q 1.5843,-1.3923 3.7171,-2.0884 2.1938,-0.6961 4.3266,-0.6961 4.7531,0 7.3125,2.8425 2.5594,2.8426 2.5594,7.5414 0,3.3067 -1.4016,5.6271 -1.3406,2.2624 -3.839,3.4807 z"
       id="path4281"
       inkscape:connector-curvature="0"
       style="font-style:normal;font-variant:normal;font-weight:normal;font-stretch:normal;font-size:medium;line-height:125%;font-family:'Ubuntu Condensed';-inkscape-font-specification:'Ubuntu Condensed, ';letter-spacing:0px;word-spacing:0px;fill:#000000;fill-opacity:1;stroke:none;stroke-width:1px;stroke-linecap:butt;stroke-linejoin:miter;stroke-opacity:1" />
    <path
       inkscape:connector-curvature="0"
       id="path4307"
       d="m 1435.6742,2187.0082 q -3.0468,-1.0441 -4.6921,-3.7127 -1.7063,-2.6104 -1.7063,-6.7873 0,-5.569 2.8641,-8.8176 2.8031,-3.1906 8.5312,-3.1906 2.2547,0 4.3876,0.6381 2.1328,0.6381 3.7171,1.6823 l -1.4016,4.0608 q -1.4015,-0.8121 -2.925,-1.3923 -1.5843,-0.58 -3.2905,-0.58 -3.1079,0 -4.8142,1.7983 -1.7671,1.8563 -1.7671,5.8591 0,4.0028 1.95,6.0331 1.8891,2.0304 6.0937,2.0304 h 1.5844 v 4.2348 h -1.3406 q -3.6562,0 -5.4234,1.8564 -1.7673,1.8563 -1.7673,5.1629 0,3.1327 1.4016,4.6409 1.4016,1.5663 3.7172,1.5663 1.5844,0 3.0469,-0.5801 1.4016,-0.5801 2.4375,-1.4502 l 2.0718,3.6546 q -1.5843,1.3923 -3.7171,2.0884 -2.1937,0.6962 -4.3266,0.6962 -4.7531,0 -7.3125,-2.8425 -2.5593,-2.8426 -2.5593,-7.5415 0,-3.3067 1.4015,-5.6271 1.3406,-2.2624 3.839,-3.4807 z"
       style="font-style:normal;font-variant:normal;font-weight:normal;font-stretch:normal;font-size:medium;line-height:125%;font-family:'Ubuntu Condensed';-inkscape-font-specification:'Ubuntu Condensed, ';letter-spacing:0px;word-spacing:0px;fill:#000000;fill-opacity:1;stroke:none;stroke-width:1px;stroke-linecap:butt;stroke-linejoin:miter;stroke-opacity:1" />
    <path
       inkscape:transform-center-y="-23.524799"
       inkscape:transform-center-x="607.94332"
       inkscape:connector-curvature="0"
       id="path4639-3"
       d="m 1261.5779,1719.6026 c -4.0189,-7.8086 -7.3114,-22.4403 -8.2142,-36.5029 -0.3628,-5.6535 -0.4883,-10.5541 -0.2791,-10.89 0.7068,-1.1335 4.9413,-0.6214 7.4201,0.8971 1.3538,0.8294 3.6514,3.1498 5.1061,5.1567 5.0537,6.973 12.0286,10.1983 20.2377,9.3583 4.8213,-0.493 10.7939,-3.5552 13.3081,-6.8227 2.5035,-3.2535 4.8692,-9.6962 4.8692,-13.261 0,-3.5645 -2.3657,-10.0072 -4.8692,-13.2606 -2.5142,-3.2677 -8.4868,-6.3298 -13.3081,-6.8229 -8.2091,-0.84 -15.184,2.3854 -20.2377,9.3583 -2.8572,3.9421 -6.6068,6.6646 -9.179,6.6646 -4.2961,0 -1.8711,-6.0211 4.2221,-10.483 7.3234,-5.3628 10.4889,-12.0091 9.6333,-20.2268 -0.4979,-4.7788 -3.5869,-10.699 -6.8834,-13.1914 -3.282,-2.4815 -9.7817,-4.8263 -13.3779,-4.8263 -3.5963,0 -10.096,2.3448 -13.378,4.8263 -3.2966,2.4924 -6.3858,8.4126 -6.8835,13.1914 -0.8558,8.2177 2.3098,14.864 9.6335,20.2268 6.0931,4.4619 8.5181,10.483 4.2219,10.483 -2.572,0 -6.3218,-2.7225 -9.1789,-6.6646 -5.0538,-6.9729 -12.0287,-10.1983 -20.2378,-9.3583 -4.8212,0.4931 -10.7938,3.5552 -13.3083,6.8229 -2.5034,3.2534 -4.869,9.6961 -4.869,13.2606 0,3.5648 2.3656,10.0075 4.869,13.261 2.5145,3.2675 8.4871,6.3297 13.3083,6.8227 8.2091,0.84 15.184,-2.3853 20.2378,-9.3583 1.4546,-2.0069 3.7524,-4.3273 5.1061,-5.1567 2.4787,-1.5185 6.7134,-2.0306 7.42,-0.8971 0.2094,0.3359 0.083,5.2365 -0.2791,10.89 -0.9029,14.0684 -4.1951,28.6942 -8.2181,36.5106 l -1.616,3.1397 1.7447,-0.4777 c 6.905,-1.8905 15.2219,-1.9181 22.4784,-0.074 l 2.1129,0.5366 -1.6119,-3.1316 z"
       style="fill:#090909" />
    <path
       style="fill:#090909"
       d="m 1261.5779,1955.8525 c -4.0189,-7.8085 -7.3114,-22.4402 -8.2142,-36.5028 -0.3628,-5.6535 -0.4883,-10.5541 -0.2791,-10.89 0.7068,-1.1335 4.9413,-0.6214 7.4201,0.897 1.3538,0.8295 3.6514,3.1499 5.1061,5.1568 5.0537,6.973 12.0286,10.1982 20.2377,9.3583 4.8213,-0.4931 10.7939,-3.5552 13.3081,-6.8228 2.5035,-3.2535 4.8692,-9.6961 4.8692,-13.2609 0,-3.5646 -2.3657,-10.0072 -4.8692,-13.2606 -2.5142,-3.2677 -8.4868,-6.3298 -13.3081,-6.8229 -8.2091,-0.84 -15.184,2.3853 -20.2377,9.3583 -2.8572,3.9421 -6.6068,6.6646 -9.179,6.6646 -4.2961,0 -1.8711,-6.0211 4.2221,-10.4831 7.3234,-5.3627 10.4889,-12.009 9.6333,-20.2267 -0.4979,-4.7789 -3.5869,-10.6991 -6.8834,-13.1914 -3.282,-2.4815 -9.7817,-4.8263 -13.3779,-4.8263 -3.5963,0 -10.096,2.3448 -13.378,4.8263 -3.2966,2.4923 -6.3858,8.4125 -6.8835,13.1914 -0.8558,8.2177 2.3098,14.864 9.6335,20.2267 6.0931,4.462 8.5181,10.4831 4.2219,10.4831 -2.572,0 -6.3218,-2.7225 -9.1789,-6.6646 -5.0538,-6.973 -12.0287,-10.1983 -20.2378,-9.3583 -4.8212,0.4931 -10.7938,3.5552 -13.3083,6.8229 -2.5034,3.2534 -4.869,9.696 -4.869,13.2606 0,3.5648 2.3656,10.0074 4.869,13.2609 2.5145,3.2676 8.4871,6.3297 13.3083,6.8228 8.2091,0.8399 15.184,-2.3853 20.2378,-9.3583 1.4546,-2.0069 3.7524,-4.3273 5.1061,-5.1568 2.4787,-1.5184 6.7134,-2.0305 7.42,-0.897 0.2094,0.3359 0.083,5.2365 -0.2791,10.89 -0.9029,14.0684 -4.1951,28.6942 -8.2181,36.5106 l -1.616,3.1396 1.7447,-0.4776 c 6.905,-1.8905 15.2219,-1.9182 22.4784,-0.074 l 2.1129,0.5366 -1.6119,-3.1317 z"
       id="path4643"
       inkscape:connector-curvature="0"
       inkscape:transform-center-x="607.94332"
       inkscape:transform-center-y="-23.524799" />
    <path
       style="fill:#090909"
       d="m 1261.5779,2090.3974 c -4.0189,7.8085 -7.3114,22.4402 -8.2142,36.5028 -0.3628,5.6535 -0.4883,10.5541 -0.2791,10.89 0.7068,1.1335 4.9413,0.6214 7.4201,-0.897 1.3538,-0.8295 3.6514,-3.1499 5.1061,-5.1568 5.0537,-6.973 12.0286,-10.1983 20.2377,-9.3583 4.8213,0.4931 10.7939,3.5552 13.3081,6.8228 2.5035,3.2535 4.8692,9.6961 4.8692,13.2609 0,3.5646 -2.3657,10.0072 -4.8692,13.2606 -2.5142,3.2677 -8.4868,6.3298 -13.3081,6.8229 -8.2091,0.84 -15.184,-2.3853 -20.2377,-9.3583 -2.8572,-3.9421 -6.6068,-6.6646 -9.179,-6.6646 -4.2961,0 -1.8711,6.0211 4.2221,10.4831 7.3234,5.3627 10.4889,12.009 9.6333,20.2267 -0.4979,4.7789 -3.5869,10.6991 -6.8834,13.1914 -3.282,2.4815 -9.7817,4.8263 -13.3779,4.8263 -3.5963,0 -10.096,-2.3448 -13.378,-4.8263 -3.2966,-2.4923 -6.3858,-8.4125 -6.8835,-13.1914 -0.8558,-8.2177 2.3098,-14.864 9.6335,-20.2267 6.0931,-4.462 8.5181,-10.4831 4.2219,-10.4831 -2.572,0 -6.3218,2.7225 -9.1789,6.6646 -5.0538,6.973 -12.0287,10.1983 -20.2378,9.3583 -4.8212,-0.4931 -10.7938,-3.5552 -13.3083,-6.8229 -2.5034,-3.2534 -4.869,-9.696 -4.869,-13.2606 0,-3.5648 2.3656,-10.0074 4.869,-13.2609 2.5145,-3.2676 8.4871,-6.3297 13.3083,-6.8228 8.2091,-0.84 15.184,2.3853 20.2378,9.3583 1.4546,2.0069 3.7524,4.3273 5.1061,5.1568 2.4787,1.5184 6.7134,2.0305 7.42,0.897 0.2094,-0.3359 0.083,-5.2365 -0.2791,-10.89 -0.9029,-14.0684 -4.1951,-28.6942 -8.2181,-36.5106 l -1.616,-3.1397 1.7447,0.4777 c 6.905,1.8905 15.2219,1.9181 22.4784,0.074 l 2.1129,-0.5366 -1.6119,3.1316 z"
       id="path4645"
       inkscape:connector-curvature="0"
       inkscape:transform-center-x="607.94332"
       inkscape:transform-center-y="23.524799" />
  </g>
</svg>
