<?xml version="1.0" encoding="UTF-8" standalone="no"?>
<!-- Created with Inkscape (http://www.inkscape.org/) -->

<svg
   id="svg10047"
   height="123.00288"
   width="79.090691"
   version="1.1"
   viewBox="0 0 79.090691 123.00288"
   inkscape:version="0.91 r13725"
   sodipodi:docname="baccarat.svgz"
   xmlns:inkscape="http://www.inkscape.org/namespaces/inkscape"
   xmlns:sodipodi="http://sodipodi.sourceforge.net/DTD/sodipodi-0.dtd"
   xmlns="http://www.w3.org/2000/svg"
   xmlns:svg="http://www.w3.org/2000/svg"
   xmlns:rdf="http://www.w3.org/1999/02/22-rdf-syntax-ns#"
   xmlns:cc="http://creativecommons.org/ns#"
   xmlns:dc="http://purl.org/dc/elements/1.1/">
  <sodipodi:namedview
     pagecolor="#ffffff"
     bordercolor="#666666"
     borderopacity="1"
     objecttolerance="10"
     gridtolerance="10"
     guidetolerance="10"
     inkscape:pageopacity="0"
     inkscape:pageshadow="2"
     inkscape:window-width="1920"
     inkscape:window-height="1016"
     id="namedview1491"
     showgrid="false"
     inkscape:zoom="1.3479675"
     inkscape:cx="513.49999"
     inkscape:cy="307.5"
     inkscape:window-x="0"
     inkscape:window-y="0"
     inkscape:window-maximized="1"
     inkscape:current-layer="svg10047"
     showguides="false"
     inkscape:guide-bbox="true"
     inkscape:snap-grids="true"
     inkscape:showpageshadow="2"
     inkscape:pagecheckerboard="0"
     inkscape:deskcolor="#d1d1d1" />
  <metadata
     id="metadata16869">
    <rdf:RDF>
      <cc:Work
         rdf:about="">
        <dc:format>image/svg+xml</dc:format>
        <dc:type
           rdf:resource="http://purl.org/dc/dcmitype/StillImage" />
        <dc:title />
      </cc:Work>
    </rdf:RDF>
  </metadata>
  <defs
     id="defs10049" />
  <g
     transform="matrix(0.1818177,0,0,0.18636804,3.1771069,-293.52968)"
     id="club_1"
     inkscape:label="#club_1">
    <rect
       transform="scale(-1)"
       width="433.73785"
       height="658.73773"
       rx="20.746819"
       ry="22.528988"
       x="-416.89478"
       y="-2234.3689"
       id="rect4285"
       style="display:inline;fill:#ffffff;fill-opacity:1;stroke:#000000;stroke-width:1.26211;stroke-miterlimit:4;stroke-dasharray:none;stroke-opacity:1" />
    <path
       d="m 14.699745,1603.5 q 1.477323,4.5455 2.89309,9.2122 1.477321,4.6059 2.831533,9.6969 1.415766,5.0909 2.769978,10.7879 1.415767,5.697 2.831534,12.3029 h -5.539957 q -0.492441,-2.7272 -1.046437,-5.3939 -0.492441,-2.6666 -1.046436,-5.3333 H 4.9740434 q -0.6155507,2.6667 -1.1079914,5.3333 -0.4924406,2.6667 -0.9848812,5.3939 h -5.3552917 q 1.3542116,-6.6059 2.76997846,-12.3029 1.41576674,-5.697 2.76997844,-10.7879 1.4157668,-5.091 2.8315336,-9.6969 1.4773217,-4.6667 2.9546436,-9.2122 z m -3.016198,6.1818 q -1.538877,5.0304 -2.9546439,10.1213 -1.4157668,5.0909 -2.7084234,10.4242 H 17.285059 q -1.231102,-5.3333 -2.646868,-10.4242 -1.415767,-5.0909 -2.954644,-10.1213 z"
       id="path4287"
       inkscape:connector-curvature="0"
       style="font-style:normal;font-variant:normal;font-weight:normal;font-stretch:normal;font-size:medium;line-height:125%;font-family:'Ubuntu Condensed';-inkscape-font-specification:'Ubuntu Condensed, ';letter-spacing:0px;word-spacing:0px;fill:#000000;fill-opacity:1;stroke:none;stroke-width:1px;stroke-linecap:butt;stroke-linejoin:miter;stroke-opacity:1" />
    <path
       inkscape:connector-curvature="0"
       id="path4289"
       d="m 385.35198,2206.5002 q -1.47732,-4.5454 -2.89308,-9.2121 -1.47733,-4.606 -2.83154,-9.697 -1.41576,-5.0909 -2.76998,-10.7879 -1.41576,-5.697 -2.83153,-12.3029 h 5.53996 q 0.49244,2.7272 1.04643,5.3939 0.49244,2.6666 1.04644,5.3333 h 13.41901 q 0.61555,-2.6667 1.10799,-5.3333 0.49244,-2.6667 0.98488,-5.3939 h 5.35529 q -1.35421,6.6059 -2.76998,12.3029 -1.41576,5.697 -2.76998,10.7879 -1.41576,5.091 -2.83153,9.697 -1.47732,4.6667 -2.95464,9.2121 z m 3.0162,-6.1818 q 1.53888,-5.0304 2.95465,-10.1212 1.41576,-5.0909 2.70842,-10.4242 h -11.26458 q 1.2311,5.3333 2.64687,10.4242 1.41577,5.0908 2.95464,10.1212 z"
       style="font-style:normal;font-variant:normal;font-weight:normal;font-stretch:normal;font-size:medium;line-height:125%;font-family:'Ubuntu Condensed';-inkscape-font-specification:'Ubuntu Condensed, ';letter-spacing:0px;word-spacing:0px;fill:#000000;fill-opacity:1;stroke:none;stroke-width:1px;stroke-linecap:butt;stroke-linejoin:miter;stroke-opacity:1" />
    <path
       style="fill:#090909"
       d="m 211.57797,1955.8525 c -4.0189,-7.8085 -7.3114,-22.4402 -8.2142,-36.5028 -0.3628,-5.6535 -0.4883,-10.5541 -0.2791,-10.89 0.7068,-1.1335 4.9413,-0.6214 7.4201,0.897 1.3538,0.8295 3.6514,3.1499 5.1061,5.1568 5.0537,6.973 12.0286,10.1982 20.2377,9.3583 4.8213,-0.4931 10.7939,-3.5552 13.3081,-6.8228 2.5035,-3.2535 4.8692,-9.6961 4.8692,-13.2609 0,-3.5646 -2.3657,-10.0072 -4.8692,-13.2606 -2.5142,-3.2677 -8.4868,-6.3298 -13.3081,-6.8229 -8.2091,-0.84 -15.184,2.3853 -20.2377,9.3583 -2.8572,3.9421 -6.6068,6.6646 -9.179,6.6646 -4.2961,0 -1.8711,-6.0211 4.2221,-10.4831 7.3234,-5.3627 10.4889,-12.009 9.6333,-20.2267 -0.4979,-4.7789 -3.5869,-10.6991 -6.8834,-13.1914 -3.282,-2.4815 -9.7817,-4.8263 -13.3779,-4.8263 -3.5963,0 -10.096,2.3448 -13.378,4.8263 -3.2966,2.4923 -6.3858,8.4125 -6.8835,13.1914 -0.8558,8.2177 2.3098,14.864 9.6335,20.2267 6.0931,4.462 8.5181,10.4831 4.2219,10.4831 -2.572,0 -6.3218,-2.7225 -9.1789,-6.6646 -5.0538,-6.973 -12.0287,-10.1983 -20.2378,-9.3583 -4.8212,0.4931 -10.7938,3.5552 -13.3083,6.8229 -2.5034,3.2534 -4.869,9.696 -4.869,13.2606 0,3.5648 2.3656,10.0074 4.869,13.2609 2.5145,3.2676 8.4871,6.3297 13.3083,6.8228 8.2091,0.8399 15.184,-2.3853 20.2378,-9.3583 1.4546,-2.0069 3.7524,-4.3273 5.1061,-5.1568 2.4787,-1.5184 6.7134,-2.0305 7.42,-0.897 0.2094,0.3359 0.083,5.2365 -0.2791,10.89 -0.9029,14.0684 -4.1951,28.6942 -8.2181,36.5106 l -1.616,3.1396 1.7447,-0.4776 c 6.905,-1.8905 15.2219,-1.9182 22.4784,-0.074 l 2.1129,0.5366 -1.6119,-3.1317 z"
       id="path4657"
       inkscape:connector-curvature="0"
       inkscape:transform-center-x="607.94332"
       inkscape:transform-center-y="-23.524799" />
  </g>
</svg>
