<?xml version="1.0" encoding="UTF-8" standalone="no"?>
<!-- Created with Inkscape (http://www.inkscape.org/) -->

<svg
   id="svg10047"
   height="123.00288"
   width="79.090691"
   version="1.1"
   viewBox="0 0 79.090691 123.00288"
   inkscape:version="0.91 r13725"
   sodipodi:docname="baccarat.svgz"
   xmlns:inkscape="http://www.inkscape.org/namespaces/inkscape"
   xmlns:sodipodi="http://sodipodi.sourceforge.net/DTD/sodipodi-0.dtd"
   xmlns="http://www.w3.org/2000/svg"
   xmlns:svg="http://www.w3.org/2000/svg"
   xmlns:rdf="http://www.w3.org/1999/02/22-rdf-syntax-ns#"
   xmlns:cc="http://creativecommons.org/ns#"
   xmlns:dc="http://purl.org/dc/elements/1.1/">
  <sodipodi:namedview
     pagecolor="#ffffff"
     bordercolor="#666666"
     borderopacity="1"
     objecttolerance="10"
     gridtolerance="10"
     guidetolerance="10"
     inkscape:pageopacity="0"
     inkscape:pageshadow="2"
     inkscape:window-width="1920"
     inkscape:window-height="1016"
     id="namedview1491"
     showgrid="false"
     inkscape:zoom="1.3479675"
     inkscape:cx="513.49999"
     inkscape:cy="307.5"
     inkscape:window-x="0"
     inkscape:window-y="0"
     inkscape:window-maximized="1"
     inkscape:current-layer="svg10047"
     showguides="false"
     inkscape:guide-bbox="true"
     inkscape:snap-grids="true"
     inkscape:showpageshadow="2"
     inkscape:pagecheckerboard="0"
     inkscape:deskcolor="#d1d1d1" />
  <metadata
     id="metadata16869">
    <rdf:RDF>
      <cc:Work
         rdf:about="">
        <dc:format>image/svg+xml</dc:format>
        <dc:type
           rdf:resource="http://purl.org/dc/dcmitype/StillImage" />
        <dc:title />
      </cc:Work>
    </rdf:RDF>
  </metadata>
  <defs
     id="defs10049" />
  <g
     transform="matrix(0.1818177,0,0,0.18636804,-92.277186,-293.52968)"
     id="club_2"
     inkscape:label="#club_2">
    <rect
       style="display:inline;fill:#ffffff;fill-opacity:1;stroke:#000000;stroke-width:1.26211;stroke-miterlimit:4;stroke-dasharray:none;stroke-opacity:1"
       id="rect4263"
       y="-2234.3689"
       x="-941.89478"
       ry="22.528988"
       rx="20.746819"
       height="658.73773"
       width="433.73785"
       transform="scale(-1)" />
    <path
       d="m 526.27584,1606.9951 q 3.54,-3.4951 8.64001,-3.4951 4.85999,0 7.44,2.5473 2.58,2.4879 2.58,7.8194 0,2.488 -0.84,4.7391 -0.84,2.2511 -2.1,4.3836 -1.26001,2.0733 -2.76001,4.1467 -1.5,2.0733 -2.88,4.2652 -1.37999,2.1325 -2.4,4.502 -1.01999,2.3103 -1.25999,4.9761 h 13.07999 v 4.6205 h -18.6 v -1.1254 q 0,-3.969 0.9,-7.0494 0.96001,-3.0804 2.28,-5.5684 1.38001,-2.488 3,-4.6206 1.62001,-2.1326 2.94,-4.1467 1.38001,-2.0733 2.28001,-4.206 0.95999,-2.1917 0.95999,-4.7982 0,-3.1397 -1.25999,-4.5022 -1.26,-1.4216 -3.78001,-1.4216 -1.74,0 -3.18,0.7108 -1.37999,0.6516 -2.51999,1.7179 z"
       id="path4283"
       inkscape:connector-curvature="0"
       style="font-style:normal;font-variant:normal;font-weight:normal;font-stretch:normal;font-size:medium;line-height:125%;font-family:'Ubuntu Condensed';-inkscape-font-specification:'Ubuntu Condensed, ';letter-spacing:0px;word-spacing:0px;fill:#000000;fill-opacity:1;stroke:none;stroke-width:1px;stroke-linecap:butt;stroke-linejoin:miter;stroke-opacity:1" />
    <path
       inkscape:connector-curvature="0"
       id="path4309"
       d="m 923.77579,2203.0048 q -3.54,3.4951 -8.64,3.4951 -4.86,0 -7.44001,-2.5473 -2.57999,-2.4879 -2.57999,-7.8194 0,-2.488 0.83999,-4.7391 0.84,-2.2511 2.10001,-4.3836 1.26,-2.0733 2.76,-4.1467 1.5,-2.0733 2.88,-4.2652 1.37999,-2.1325 2.4,-4.502 1.01999,-2.3103 1.25999,-4.9761 H 904.27579 V 2164.5 h 18.6 v 1.1254 q 0,3.969 -0.9,7.0494 -0.96001,3.0804 -2.28,5.5684 -1.38001,2.488 -3,4.6206 -1.62001,2.1326 -2.94,4.1467 -1.38001,2.0733 -2.28001,4.206 -0.95999,2.1917 -0.95999,4.7982 0,3.1397 1.25999,4.5022 1.26,1.4216 3.78001,1.4216 1.74,0 3.18,-0.7108 1.37999,-0.6516 2.51999,-1.7179 z"
       style="font-style:normal;font-variant:normal;font-weight:normal;font-stretch:normal;font-size:medium;line-height:125%;font-family:'Ubuntu Condensed';-inkscape-font-specification:'Ubuntu Condensed, ';letter-spacing:0px;word-spacing:0px;fill:#000000;fill-opacity:1;stroke:none;stroke-width:1px;stroke-linecap:butt;stroke-linejoin:miter;stroke-opacity:1" />
    <path
       style="fill:#090909"
       d="m 736.57793,1719.6026 c -4.0189,-7.8086 -7.3114,-22.4403 -8.2142,-36.5029 -0.3628,-5.6535 -0.4883,-10.5541 -0.2791,-10.89 0.7068,-1.1335 4.9413,-0.6214 7.4201,0.8971 1.3538,0.8294 3.6514,3.1498 5.1061,5.1567 5.0537,6.973 12.0286,10.1983 20.2377,9.3583 4.8213,-0.493 10.7939,-3.5552 13.3081,-6.8227 2.5035,-3.2535 4.8692,-9.6962 4.8692,-13.261 0,-3.5645 -2.3657,-10.0072 -4.8692,-13.2606 -2.5142,-3.2677 -8.4868,-6.3298 -13.3081,-6.8229 -8.2091,-0.84 -15.184,2.3854 -20.2377,9.3583 -2.8572,3.9421 -6.6068,6.6646 -9.179,6.6646 -4.2961,0 -1.8711,-6.0211 4.2221,-10.483 7.3234,-5.3628 10.4889,-12.0091 9.6333,-20.2268 -0.4979,-4.7788 -3.5869,-10.699 -6.8834,-13.1914 -3.282,-2.4815 -9.7817,-4.8263 -13.3779,-4.8263 -3.5963,0 -10.096,2.3448 -13.378,4.8263 -3.2966,2.4924 -6.3858,8.4126 -6.8835,13.1914 -0.8558,8.2177 2.3098,14.864 9.6335,20.2268 6.0931,4.4619 8.5181,10.483 4.2219,10.483 -2.572,0 -6.3218,-2.7225 -9.1789,-6.6646 -5.0538,-6.9729 -12.0287,-10.1983 -20.2378,-9.3583 -4.8212,0.4931 -10.7938,3.5552 -13.3083,6.8229 -2.5034,3.2534 -4.869,9.6961 -4.869,13.2606 0,3.5648 2.3656,10.0075 4.869,13.261 2.5145,3.2675 8.4871,6.3297 13.3083,6.8227 8.2091,0.84 15.184,-2.3853 20.2378,-9.3583 1.4546,-2.0069 3.7524,-4.3273 5.1061,-5.1567 2.4787,-1.5185 6.7134,-2.0306 7.42,-0.8971 0.2094,0.3359 0.083,5.2365 -0.2791,10.89 -0.9029,14.0684 -4.1951,28.6942 -8.2181,36.5106 l -1.616,3.1397 1.7447,-0.4777 c 6.905,-1.8905 15.2219,-1.9181 22.4784,-0.074 l 2.1129,0.5366 -1.6119,-3.1316 z"
       id="path4649"
       inkscape:connector-curvature="0"
       inkscape:transform-center-x="607.94332"
       inkscape:transform-center-y="-23.524799" />
    <path
       inkscape:transform-center-y="23.524799"
       inkscape:transform-center-x="607.94332"
       inkscape:connector-curvature="0"
       id="path4653"
       d="m 736.57793,2090.3974 c -4.0189,7.8085 -7.3114,22.4402 -8.2142,36.5028 -0.3628,5.6535 -0.4883,10.5541 -0.2791,10.89 0.7068,1.1335 4.9413,0.6214 7.4201,-0.897 1.3538,-0.8295 3.6514,-3.1499 5.1061,-5.1568 5.0537,-6.973 12.0286,-10.1983 20.2377,-9.3583 4.8213,0.4931 10.7939,3.5552 13.3081,6.8228 2.5035,3.2535 4.8692,9.6961 4.8692,13.2609 0,3.5646 -2.3657,10.0072 -4.8692,13.2606 -2.5142,3.2677 -8.4868,6.3298 -13.3081,6.8229 -8.2091,0.84 -15.184,-2.3853 -20.2377,-9.3583 -2.8572,-3.9421 -6.6068,-6.6646 -9.179,-6.6646 -4.2961,0 -1.8711,6.0211 4.2221,10.4831 7.3234,5.3627 10.4889,12.009 9.6333,20.2267 -0.4979,4.7789 -3.5869,10.6991 -6.8834,13.1914 -3.282,2.4815 -9.7817,4.8263 -13.3779,4.8263 -3.5963,0 -10.096,-2.3448 -13.378,-4.8263 -3.2966,-2.4923 -6.3858,-8.4125 -6.8835,-13.1914 -0.8558,-8.2177 2.3098,-14.864 9.6335,-20.2267 6.0931,-4.462 8.5181,-10.4831 4.2219,-10.4831 -2.572,0 -6.3218,2.7225 -9.1789,6.6646 -5.0538,6.973 -12.0287,10.1983 -20.2378,9.3583 -4.8212,-0.4931 -10.7938,-3.5552 -13.3083,-6.8229 -2.5034,-3.2534 -4.869,-9.696 -4.869,-13.2606 0,-3.5648 2.3656,-10.0074 4.869,-13.2609 2.5145,-3.2676 8.4871,-6.3297 13.3083,-6.8228 8.2091,-0.84 15.184,2.3853 20.2378,9.3583 1.4546,2.0069 3.7524,4.3273 5.1061,5.1568 2.4787,1.5184 6.7134,2.0305 7.42,0.897 0.2094,-0.3359 0.083,-5.2365 -0.2791,-10.89 -0.9029,-14.0684 -4.1951,-28.6942 -8.2181,-36.5106 l -1.616,-3.1397 1.7447,0.4777 c 6.905,1.8905 15.2219,1.9181 22.4784,0.074 l 2.1129,-0.5366 -1.6119,3.1316 z"
       style="fill:#090909" />
  </g>
</svg>
