<?xml version="1.0" encoding="UTF-8" standalone="no"?>
<!-- Created with Inkscape (http://www.inkscape.org/) -->

<svg
   id="svg10047"
   height="123.00288"
   width="79.090691"
   version="1.1"
   viewBox="0 0 79.090691 123.00288"
   inkscape:version="0.91 r13725"
   sodipodi:docname="baccarat.svgz"
   xmlns:inkscape="http://www.inkscape.org/namespaces/inkscape"
   xmlns:sodipodi="http://sodipodi.sourceforge.net/DTD/sodipodi-0.dtd"
   xmlns="http://www.w3.org/2000/svg"
   xmlns:svg="http://www.w3.org/2000/svg"
   xmlns:rdf="http://www.w3.org/1999/02/22-rdf-syntax-ns#"
   xmlns:cc="http://creativecommons.org/ns#"
   xmlns:dc="http://purl.org/dc/elements/1.1/">
  <sodipodi:namedview
     pagecolor="#ffffff"
     bordercolor="#666666"
     borderopacity="1"
     objecttolerance="10"
     gridtolerance="10"
     guidetolerance="10"
     inkscape:pageopacity="0"
     inkscape:pageshadow="2"
     inkscape:window-width="1920"
     inkscape:window-height="1016"
     id="namedview1491"
     showgrid="false"
     inkscape:zoom="1.3479675"
     inkscape:cx="513.49999"
     inkscape:cy="307.5"
     inkscape:window-x="0"
     inkscape:window-y="0"
     inkscape:window-maximized="1"
     inkscape:current-layer="svg10047"
     showguides="false"
     inkscape:guide-bbox="true"
     inkscape:snap-grids="true"
     inkscape:showpageshadow="2"
     inkscape:pagecheckerboard="0"
     inkscape:deskcolor="#d1d1d1" />
  <metadata
     id="metadata16869">
    <rdf:RDF>
      <cc:Work
         rdf:about="">
        <dc:format>image/svg+xml</dc:format>
        <dc:type
           rdf:resource="http://purl.org/dc/dcmitype/StillImage" />
        <dc:title />
      </cc:Work>
    </rdf:RDF>
  </metadata>
  <defs
     id="defs10049" />
  <g
     transform="matrix(0.1818177,0,0,0.18636804,-378.64002,-293.52968)"
     id="club_5"
     inkscape:label="#club_5">
    <rect
       style="display:inline;fill:#ffffff;fill-opacity:1;stroke:#000000;stroke-width:1.26211;stroke-miterlimit:4;stroke-dasharray:none;stroke-opacity:1"
       id="rect4255"
       y="-2234.3689"
       x="-2516.8945"
       ry="22.528988"
       rx="20.746819"
       height="658.73773"
       width="433.73785"
       transform="scale(-1)" />
    <path
       d="m 2110.0883,1607.9492 q -0.3126,4.2711 -0.4376,7.1186 -0.125,2.8474 -0.25,4.5084 5.875,0.7712 8.6251,4.0339 2.7499,3.2628 2.7499,8.839 0,3.1441 -0.9374,5.5763 -0.9375,2.4322 -2.625,4.0932 -1.625,1.661 -3.875,2.4915 -2.2501,0.8898 -4.875,0.8898 -1.8126,0 -3.6876,-0.4745 -1.875,-0.4746 -3.5,-1.3644 l 1.4999,-4.2119 q 2.6876,1.4237 5.5001,1.4237 3,0 5.0626,-2.0763 2.0624,-2.0762 2.0624,-6.3474 0,-4.6864 -2.8125,-6.7034 -2.75,-2.0763 -8.4375,-2.3135 0.3125,-2.9661 0.5,-5.3983 0.1875,-2.4915 0.3125,-4.8051 0.125,-2.3729 0.1875,-4.6865 0.125,-2.3729 0.1875,-5.0423 h 14.625 v 4.4492 z"
       id="path4277"
       inkscape:connector-curvature="0"
       style="font-style:normal;font-variant:normal;font-weight:normal;font-stretch:normal;font-size:medium;line-height:125%;font-family:'Ubuntu Condensed';-inkscape-font-specification:'Ubuntu Condensed, ';letter-spacing:0px;word-spacing:0px;fill:#000000;fill-opacity:1;stroke:none;stroke-width:1px;stroke-linecap:butt;stroke-linejoin:miter;stroke-opacity:1" />
    <path
       inkscape:connector-curvature="0"
       id="path4303"
       d="m 2489.9632,2202.0509 q 0.3126,-4.2711 0.4376,-7.1186 0.125,-2.8475 0.2499,-4.5085 -5.8749,-0.7712 -8.625,-4.0339 -2.75,-3.2627 -2.75,-8.839 0,-3.144 0.9375,-5.5762 0.9375,-2.4323 2.625,-4.0933 1.625,-1.661 3.875,-2.4915 2.25,-0.8898 4.875,-0.8898 1.8126,0 3.6876,0.4745 1.8749,0.4746 3.4999,1.3644 l -1.4999,4.2119 q -2.6875,-1.4237 -5.5,-1.4237 -3,0 -5.0626,2.0763 -2.0624,2.0762 -2.0624,6.3474 0,4.6864 2.8124,6.7034 2.7501,2.0763 8.4376,2.3136 -0.3126,2.9661 -0.5,5.3983 -0.1875,2.4915 -0.3125,4.805 -0.125,2.373 -0.1875,4.6865 -0.1251,2.3729 -0.1876,5.0424 h -14.625 v -4.4492 z"
       style="font-style:normal;font-variant:normal;font-weight:normal;font-stretch:normal;font-size:medium;line-height:125%;font-family:'Ubuntu Condensed';-inkscape-font-specification:'Ubuntu Condensed, ';letter-spacing:0px;word-spacing:0px;fill:#000000;fill-opacity:1;stroke:none;stroke-width:1px;stroke-linecap:butt;stroke-linejoin:miter;stroke-opacity:1" />
    <path
       style="font-style:normal;font-variant:normal;font-weight:normal;font-stretch:normal;font-size:medium;line-height:125%;font-family:'Ubuntu Condensed';-inkscape-font-specification:'Ubuntu Condensed, ';letter-spacing:0px;word-spacing:0px;fill:#000000;fill-opacity:1;stroke:none;stroke-width:1px;stroke-linecap:butt;stroke-linejoin:miter;stroke-opacity:1"
       inkscape:connector-curvature="0"
       id="path4404"
       d="m 2110.0883,1607.9492 q -0.3126,4.2711 -0.4376,7.1186 -0.125,2.8474 -0.25,4.5084 5.875,0.7712 8.6251,4.0339 2.7499,3.2628 2.7499,8.839 0,3.1441 -0.9374,5.5763 -0.9375,2.4322 -2.625,4.0932 -1.625,1.661 -3.875,2.4915 -2.2501,0.8898 -4.875,0.8898 -1.8126,0 -3.6876,-0.4745 -1.875,-0.4746 -3.5,-1.3644 l 1.4999,-4.2119 q 2.6876,1.4237 5.5001,1.4237 3,0 5.0626,-2.0763 2.0624,-2.0762 2.0624,-6.3474 0,-4.6864 -2.8125,-6.7034 -2.75,-2.0763 -8.4375,-2.3135 0.3125,-2.9661 0.5,-5.3983 0.1875,-2.4915 0.3125,-4.8051 0.125,-2.3729 0.1875,-4.6865 0.125,-2.3729 0.1875,-5.0423 h 14.625 v 4.4492 z" />
    <path
       style="font-style:normal;font-variant:normal;font-weight:normal;font-stretch:normal;font-size:medium;line-height:125%;font-family:'Ubuntu Condensed';-inkscape-font-specification:'Ubuntu Condensed, ';letter-spacing:0px;word-spacing:0px;fill:#000000;fill-opacity:1;stroke:none;stroke-width:1px;stroke-linecap:butt;stroke-linejoin:miter;stroke-opacity:1"
       d="m 2489.9632,2202.0509 q 0.3126,-4.2711 0.4376,-7.1186 0.125,-2.8475 0.2499,-4.5085 -5.8749,-0.7712 -8.625,-4.0339 -2.75,-3.2627 -2.75,-8.839 0,-3.144 0.9375,-5.5762 0.9375,-2.4323 2.625,-4.0933 1.625,-1.661 3.875,-2.4915 2.25,-0.8898 4.875,-0.8898 1.8126,0 3.6876,0.4745 1.8749,0.4746 3.4999,1.3644 l -1.4999,4.2119 q -2.6875,-1.4237 -5.5,-1.4237 -3,0 -5.0626,2.0763 -2.0624,2.0762 -2.0624,6.3474 0,4.6864 2.8124,6.7034 2.7501,2.0763 8.4376,2.3136 -0.3126,2.9661 -0.5,5.3983 -0.1875,2.4915 -0.3125,4.805 -0.125,2.373 -0.1875,4.6865 -0.1251,2.3729 -0.1876,5.0424 h -14.625 v -4.4492 z"
       id="path4406"
       inkscape:connector-curvature="0" />
    <path
       style="fill:#090909"
       d="m 2199.0778,1719.6026 c -4.0189,-7.8086 -7.3114,-22.4403 -8.2142,-36.5029 -0.3628,-5.6535 -0.4883,-10.5541 -0.2791,-10.89 0.7068,-1.1335 4.9413,-0.6214 7.4201,0.8971 1.3538,0.8294 3.6514,3.1498 5.1061,5.1567 5.0537,6.973 12.0286,10.1983 20.2377,9.3583 4.8213,-0.493 10.7939,-3.5552 13.3081,-6.8227 2.5035,-3.2535 4.8692,-9.6962 4.8692,-13.261 0,-3.5645 -2.3657,-10.0072 -4.8692,-13.2606 -2.5142,-3.2677 -8.4868,-6.3298 -13.3081,-6.8229 -8.2091,-0.84 -15.184,2.3854 -20.2377,9.3583 -2.8572,3.9421 -6.6068,6.6646 -9.179,6.6646 -4.2961,0 -1.8711,-6.0211 4.2221,-10.483 7.3234,-5.3628 10.4889,-12.0091 9.6333,-20.2268 -0.4979,-4.7788 -3.5869,-10.699 -6.8834,-13.1914 -3.282,-2.4815 -9.7817,-4.8263 -13.3779,-4.8263 -3.5963,0 -10.096,2.3448 -13.378,4.8263 -3.2966,2.4924 -6.3858,8.4126 -6.8835,13.1914 -0.8558,8.2177 2.3098,14.864 9.6335,20.2268 6.0931,4.4619 8.5181,10.483 4.2219,10.483 -2.572,0 -6.3218,-2.7225 -9.1789,-6.6646 -5.0538,-6.9729 -12.0287,-10.1983 -20.2378,-9.3583 -4.8212,0.4931 -10.7938,3.5552 -13.3083,6.8229 -2.5034,3.2534 -4.869,9.6961 -4.869,13.2606 0,3.5648 2.3656,10.0075 4.869,13.261 2.5145,3.2675 8.4871,6.3297 13.3083,6.8227 8.2091,0.84 15.184,-2.3853 20.2378,-9.3583 1.4546,-2.0069 3.7524,-4.3273 5.1061,-5.1567 2.4787,-1.5185 6.7134,-2.0306 7.42,-0.8971 0.2094,0.3359 0.083,5.2365 -0.2791,10.89 -0.9029,14.0684 -4.1951,28.6942 -8.2181,36.5106 l -1.616,3.1397 1.7447,-0.4777 c 6.905,-1.8905 15.2219,-1.9181 22.4784,-0.074 l 2.1129,0.5366 -1.6119,-3.1316 z"
       id="path4617-1"
       inkscape:connector-curvature="0"
       inkscape:transform-center-x="607.94332"
       inkscape:transform-center-y="-23.524799" />
    <path
       inkscape:transform-center-y="-23.524799"
       inkscape:transform-center-x="607.94332"
       inkscape:connector-curvature="0"
       id="path4619-5"
       d="m 2424.0777,1719.6026 c -4.0189,-7.8086 -7.3114,-22.4403 -8.2142,-36.5029 -0.3628,-5.6535 -0.4883,-10.5541 -0.2791,-10.89 0.7068,-1.1335 4.9413,-0.6214 7.4201,0.8971 1.3538,0.8294 3.6514,3.1498 5.1061,5.1567 5.0537,6.973 12.0286,10.1983 20.2377,9.3583 4.8213,-0.493 10.7939,-3.5552 13.3081,-6.8227 2.5035,-3.2535 4.8692,-9.6962 4.8692,-13.261 0,-3.5645 -2.3657,-10.0072 -4.8692,-13.2606 -2.5142,-3.2677 -8.4868,-6.3298 -13.3081,-6.8229 -8.2091,-0.84 -15.184,2.3854 -20.2377,9.3583 -2.8572,3.9421 -6.6068,6.6646 -9.179,6.6646 -4.2961,0 -1.8711,-6.0211 4.2221,-10.483 7.3234,-5.3628 10.4889,-12.0091 9.6333,-20.2268 -0.4979,-4.7788 -3.5869,-10.699 -6.8834,-13.1914 -3.282,-2.4815 -9.7817,-4.8263 -13.3779,-4.8263 -3.5963,0 -10.096,2.3448 -13.378,4.8263 -3.2966,2.4924 -6.3858,8.4126 -6.8835,13.1914 -0.8558,8.2177 2.3098,14.864 9.6335,20.2268 6.0931,4.4619 8.5181,10.483 4.2219,10.483 -2.572,0 -6.3218,-2.7225 -9.1789,-6.6646 -5.0538,-6.9729 -12.0287,-10.1983 -20.2378,-9.3583 -4.8212,0.4931 -10.7938,3.5552 -13.3083,6.8229 -2.5034,3.2534 -4.869,9.6961 -4.869,13.2606 0,3.5648 2.3656,10.0075 4.869,13.261 2.5145,3.2675 8.4871,6.3297 13.3083,6.8227 8.2091,0.84 15.184,-2.3853 20.2378,-9.3583 1.4546,-2.0069 3.7524,-4.3273 5.1061,-5.1567 2.4787,-1.5185 6.7134,-2.0306 7.42,-0.8971 0.2094,0.3359 0.083,5.2365 -0.2791,10.89 -0.9029,14.0684 -4.1951,28.6942 -8.2181,36.5106 l -1.616,3.1397 1.7447,-0.4777 c 6.905,-1.8905 15.2219,-1.9181 22.4784,-0.074 l 2.1129,0.5366 -1.6119,-3.1316 z"
       style="fill:#090909" />
    <path
       inkscape:transform-center-y="-23.524799"
       inkscape:transform-center-x="607.94332"
       inkscape:connector-curvature="0"
       id="path4621-5"
       d="m 2311.5778,1955.8525 c -4.0189,-7.8085 -7.3114,-22.4402 -8.2142,-36.5028 -0.3628,-5.6535 -0.4883,-10.5541 -0.2791,-10.89 0.7068,-1.1335 4.9413,-0.6214 7.4201,0.897 1.3538,0.8295 3.6514,3.1499 5.1061,5.1568 5.0537,6.973 12.0286,10.1982 20.2377,9.3583 4.8213,-0.4931 10.7939,-3.5552 13.3081,-6.8228 2.5035,-3.2535 4.8692,-9.6961 4.8692,-13.2609 0,-3.5646 -2.3657,-10.0072 -4.8692,-13.2606 -2.5142,-3.2677 -8.4868,-6.3298 -13.3081,-6.8229 -8.2091,-0.84 -15.184,2.3853 -20.2377,9.3583 -2.8572,3.9421 -6.6068,6.6646 -9.179,6.6646 -4.2961,0 -1.8711,-6.0211 4.2221,-10.4831 7.3234,-5.3627 10.4889,-12.009 9.6333,-20.2267 -0.4979,-4.7789 -3.5869,-10.6991 -6.8834,-13.1914 -3.282,-2.4815 -9.7817,-4.8263 -13.3779,-4.8263 -3.5963,0 -10.096,2.3448 -13.378,4.8263 -3.2966,2.4923 -6.3858,8.4125 -6.8835,13.1914 -0.8558,8.2177 2.3098,14.864 9.6335,20.2267 6.0931,4.462 8.5181,10.4831 4.2219,10.4831 -2.572,0 -6.3218,-2.7225 -9.1789,-6.6646 -5.0538,-6.973 -12.0287,-10.1983 -20.2378,-9.3583 -4.8212,0.4931 -10.7938,3.5552 -13.3083,6.8229 -2.5034,3.2534 -4.869,9.696 -4.869,13.2606 0,3.5648 2.3656,10.0074 4.869,13.2609 2.5145,3.2676 8.4871,6.3297 13.3083,6.8228 8.2091,0.8399 15.184,-2.3853 20.2378,-9.3583 1.4546,-2.0069 3.7524,-4.3273 5.1061,-5.1568 2.4787,-1.5184 6.7134,-2.0305 7.42,-0.897 0.2094,0.3359 0.083,5.2365 -0.2791,10.89 -0.9029,14.0684 -4.1951,28.6942 -8.2181,36.5106 l -1.616,3.1396 1.7447,-0.4776 c 6.905,-1.8905 15.2219,-1.9182 22.4784,-0.074 l 2.1129,0.5366 -1.6119,-3.1317 z"
       style="fill:#090909" />
    <path
       inkscape:transform-center-y="23.524799"
       inkscape:transform-center-x="607.94332"
       inkscape:connector-curvature="0"
       id="path4625-4"
       d="m 2199.0778,2090.3974 c -4.0189,7.8085 -7.3114,22.4402 -8.2142,36.5028 -0.3628,5.6535 -0.4883,10.5541 -0.2791,10.89 0.7068,1.1335 4.9413,0.6214 7.4201,-0.897 1.3538,-0.8295 3.6514,-3.1499 5.1061,-5.1568 5.0537,-6.973 12.0286,-10.1983 20.2377,-9.3583 4.8213,0.4931 10.7939,3.5552 13.3081,6.8228 2.5035,3.2535 4.8692,9.6961 4.8692,13.2609 0,3.5646 -2.3657,10.0072 -4.8692,13.2606 -2.5142,3.2677 -8.4868,6.3298 -13.3081,6.8229 -8.2091,0.84 -15.184,-2.3853 -20.2377,-9.3583 -2.8572,-3.9421 -6.6068,-6.6646 -9.179,-6.6646 -4.2961,0 -1.8711,6.0211 4.2221,10.4831 7.3234,5.3627 10.4889,12.009 9.6333,20.2267 -0.4979,4.7789 -3.5869,10.6991 -6.8834,13.1914 -3.282,2.4815 -9.7817,4.8263 -13.3779,4.8263 -3.5963,0 -10.096,-2.3448 -13.378,-4.8263 -3.2966,-2.4923 -6.3858,-8.4125 -6.8835,-13.1914 -0.8558,-8.2177 2.3098,-14.864 9.6335,-20.2267 6.0931,-4.462 8.5181,-10.4831 4.2219,-10.4831 -2.572,0 -6.3218,2.7225 -9.1789,6.6646 -5.0538,6.973 -12.0287,10.1983 -20.2378,9.3583 -4.8212,-0.4931 -10.7938,-3.5552 -13.3083,-6.8229 -2.5034,-3.2534 -4.869,-9.696 -4.869,-13.2606 0,-3.5648 2.3656,-10.0074 4.869,-13.2609 2.5145,-3.2676 8.4871,-6.3297 13.3083,-6.8228 8.2091,-0.84 15.184,2.3853 20.2378,9.3583 1.4546,2.0069 3.7524,4.3273 5.1061,5.1568 2.4787,1.5184 6.7134,2.0305 7.42,0.897 0.2094,-0.3359 0.083,-5.2365 -0.2791,-10.89 -0.9029,-14.0684 -4.1951,-28.6942 -8.2181,-36.5106 l -1.616,-3.1397 1.7447,0.4777 c 6.905,1.8905 15.2219,1.9181 22.4784,0.074 l 2.1129,-0.5366 -1.6119,3.1316 z"
       style="fill:#090909" />
    <path
       style="fill:#090909"
       d="m 2424.0777,2090.3974 c -4.0189,7.8085 -7.3114,22.4402 -8.2142,36.5028 -0.3628,5.6535 -0.4883,10.5541 -0.2791,10.89 0.7068,1.1335 4.9413,0.6214 7.4201,-0.897 1.3538,-0.8295 3.6514,-3.1499 5.1061,-5.1568 5.0537,-6.973 12.0286,-10.1983 20.2377,-9.3583 4.8213,0.4931 10.7939,3.5552 13.3081,6.8228 2.5035,3.2535 4.8692,9.6961 4.8692,13.2609 0,3.5646 -2.3657,10.0072 -4.8692,13.2606 -2.5142,3.2677 -8.4868,6.3298 -13.3081,6.8229 -8.2091,0.84 -15.184,-2.3853 -20.2377,-9.3583 -2.8572,-3.9421 -6.6068,-6.6646 -9.179,-6.6646 -4.2961,0 -1.8711,6.0211 4.2221,10.4831 7.3234,5.3627 10.4889,12.009 9.6333,20.2267 -0.4979,4.7789 -3.5869,10.6991 -6.8834,13.1914 -3.282,2.4815 -9.7817,4.8263 -13.3779,4.8263 -3.5963,0 -10.096,-2.3448 -13.378,-4.8263 -3.2966,-2.4923 -6.3858,-8.4125 -6.8835,-13.1914 -0.8558,-8.2177 2.3098,-14.864 9.6335,-20.2267 6.0931,-4.462 8.5181,-10.4831 4.2219,-10.4831 -2.572,0 -6.3218,2.7225 -9.1789,6.6646 -5.0538,6.973 -12.0287,10.1983 -20.2378,9.3583 -4.8212,-0.4931 -10.7938,-3.5552 -13.3083,-6.8229 -2.5034,-3.2534 -4.869,-9.696 -4.869,-13.2606 0,-3.5648 2.3656,-10.0074 4.869,-13.2609 2.5145,-3.2676 8.4871,-6.3297 13.3083,-6.8228 8.2091,-0.84 15.184,2.3853 20.2378,9.3583 1.4546,2.0069 3.7524,4.3273 5.1061,5.1568 2.4787,1.5184 6.7134,2.0305 7.42,0.897 0.2094,-0.3359 0.083,-5.2365 -0.2791,-10.89 -0.9029,-14.0684 -4.1951,-28.6942 -8.2181,-36.5106 l -1.616,-3.1397 1.7447,0.4777 c 6.905,1.8905 15.2219,1.9181 22.4784,0.074 l 2.1129,-0.5366 -1.6119,3.1316 z"
       id="path4627-7"
       inkscape:connector-curvature="0"
       inkscape:transform-center-x="607.94332"
       inkscape:transform-center-y="23.524799" />
  </g>
</svg>
