<?xml version="1.0" encoding="UTF-8" standalone="no"?>
<!-- Created with Inkscape (http://www.inkscape.org/) -->

<svg
   id="svg10047"
   height="123.00288"
   width="79.090691"
   version="1.1"
   viewBox="0 0 79.090691 123.00288"
   inkscape:version="0.91 r13725"
   sodipodi:docname="baccarat.svgz"
   xmlns:inkscape="http://www.inkscape.org/namespaces/inkscape"
   xmlns:sodipodi="http://sodipodi.sourceforge.net/DTD/sodipodi-0.dtd"
   xmlns="http://www.w3.org/2000/svg"
   xmlns:svg="http://www.w3.org/2000/svg"
   xmlns:rdf="http://www.w3.org/1999/02/22-rdf-syntax-ns#"
   xmlns:cc="http://creativecommons.org/ns#"
   xmlns:dc="http://purl.org/dc/elements/1.1/">
  <sodipodi:namedview
     pagecolor="#ffffff"
     bordercolor="#666666"
     borderopacity="1"
     objecttolerance="10"
     gridtolerance="10"
     guidetolerance="10"
     inkscape:pageopacity="0"
     inkscape:pageshadow="2"
     inkscape:window-width="1920"
     inkscape:window-height="1016"
     id="namedview1491"
     showgrid="false"
     inkscape:zoom="1.3479675"
     inkscape:cx="513.49999"
     inkscape:cy="307.5"
     inkscape:window-x="0"
     inkscape:window-y="0"
     inkscape:window-maximized="1"
     inkscape:current-layer="svg10047"
     showguides="false"
     inkscape:guide-bbox="true"
     inkscape:snap-grids="true"
     inkscape:showpageshadow="2"
     inkscape:pagecheckerboard="0"
     inkscape:deskcolor="#d1d1d1" />
  <metadata
     id="metadata16869">
    <rdf:RDF>
      <cc:Work
         rdf:about="">
        <dc:format>image/svg+xml</dc:format>
        <dc:type
           rdf:resource="http://purl.org/dc/dcmitype/StillImage" />
        <dc:title />
      </cc:Work>
    </rdf:RDF>
  </metadata>
  <defs
     id="defs10049" />
  <g
     transform="matrix(0.1818177,0,0,0.18636804,-283.18575,-293.52968)"
     id="club_4"
     inkscape:label="#club_4">
    <rect
       transform="scale(-1)"
       width="433.73785"
       height="658.73773"
       rx="20.746819"
       ry="22.528988"
       x="-1991.8947"
       y="-2234.3689"
       id="rect4259"
       style="display:inline;fill:#ffffff;fill-opacity:1;stroke:#000000;stroke-width:1.26211;stroke-miterlimit:4;stroke-dasharray:none;stroke-opacity:1" />
    <path
       d="m 1575.5258,1631.4393 q 1.0442,-3.7575 2.6684,-7.9393 1.6243,-4.1819 3.3647,-8.0607 1.7403,-3.8787 3.3067,-7.0302 1.6242,-3.1515 2.6104,-4.9092 h 5.105 v 27.4546 h 3.9447 v 4.3031 h -3.9447 v 10.2423 h -4.5829 v -10.2423 h -12.4723 z m 12.4723,-0.4848 v -20.4848 q -0.8702,1.8787 -2.0304,4.303 -1.1021,2.4242 -2.2624,5.1515 -1.1022,2.7272 -2.1464,5.5758 -1.0442,2.7878 -1.7984,5.4545 z"
       id="path4279"
       inkscape:connector-curvature="0"
       style="font-style:normal;font-variant:normal;font-weight:normal;font-stretch:normal;font-size:medium;line-height:125%;font-family:'Ubuntu Condensed';-inkscape-font-specification:'Ubuntu Condensed, ';letter-spacing:0px;word-spacing:0px;fill:#000000;fill-opacity:1;stroke:none;stroke-width:1px;stroke-linecap:butt;stroke-linejoin:miter;stroke-opacity:1" />
    <path
       inkscape:connector-curvature="0"
       id="path4305"
       d="m 1974.5257,2178.5607 q -1.0442,3.7575 -2.6685,7.9393 -1.6242,4.1819 -3.3646,8.0607 -1.7403,3.8787 -3.3067,7.0302 -1.6242,3.1515 -2.6104,4.9092 h -5.105 v -27.4546 h -3.9447 v -4.3031 h 3.9447 v -10.2423 h 4.5829 v 10.2423 h 12.4723 z m -12.4723,0.4848 v 20.4848 q 0.8702,-1.8787 2.0304,-4.303 1.1021,-2.4242 2.2624,-5.1515 1.1022,-2.7272 2.1464,-5.5758 1.0442,-2.7878 1.7984,-5.4545 z"
       style="font-style:normal;font-variant:normal;font-weight:normal;font-stretch:normal;font-size:medium;line-height:125%;font-family:'Ubuntu Condensed';-inkscape-font-specification:'Ubuntu Condensed, ';letter-spacing:0px;word-spacing:0px;fill:#000000;fill-opacity:1;stroke:none;stroke-width:1px;stroke-linecap:butt;stroke-linejoin:miter;stroke-opacity:1" />
    <path
       inkscape:transform-center-y="-23.524799"
       inkscape:transform-center-x="607.94332"
       inkscape:connector-curvature="0"
       id="path4629-6"
       d="m 1674.0779,1719.6026 c -4.0189,-7.8086 -7.3114,-22.4403 -8.2142,-36.5029 -0.3628,-5.6535 -0.4883,-10.5541 -0.2791,-10.89 0.7068,-1.1335 4.9413,-0.6214 7.4201,0.8971 1.3538,0.8294 3.6514,3.1498 5.1061,5.1567 5.0537,6.973 12.0286,10.1983 20.2377,9.3583 4.8213,-0.493 10.7939,-3.5552 13.3081,-6.8227 2.5035,-3.2535 4.8692,-9.6962 4.8692,-13.261 0,-3.5645 -2.3657,-10.0072 -4.8692,-13.2606 -2.5142,-3.2677 -8.4868,-6.3298 -13.3081,-6.8229 -8.2091,-0.84 -15.184,2.3854 -20.2377,9.3583 -2.8572,3.9421 -6.6068,6.6646 -9.179,6.6646 -4.2961,0 -1.8711,-6.0211 4.2221,-10.483 7.3234,-5.3628 10.4889,-12.0091 9.6333,-20.2268 -0.4979,-4.7788 -3.5869,-10.699 -6.8834,-13.1914 -3.282,-2.4815 -9.7817,-4.8263 -13.3779,-4.8263 -3.5963,0 -10.096,2.3448 -13.378,4.8263 -3.2966,2.4924 -6.3858,8.4126 -6.8835,13.1914 -0.8558,8.2177 2.3098,14.864 9.6335,20.2268 6.0931,4.4619 8.5181,10.483 4.2219,10.483 -2.572,0 -6.3218,-2.7225 -9.1789,-6.6646 -5.0538,-6.9729 -12.0287,-10.1983 -20.2378,-9.3583 -4.8212,0.4931 -10.7938,3.5552 -13.3083,6.8229 -2.5034,3.2534 -4.869,9.6961 -4.869,13.2606 0,3.5648 2.3656,10.0075 4.869,13.261 2.5145,3.2675 8.4871,6.3297 13.3083,6.8227 8.2091,0.84 15.184,-2.3853 20.2378,-9.3583 1.4546,-2.0069 3.7524,-4.3273 5.1061,-5.1567 2.4787,-1.5185 6.7134,-2.0306 7.42,-0.8971 0.2094,0.3359 0.083,5.2365 -0.2791,10.89 -0.9029,14.0684 -4.1951,28.6942 -8.2181,36.5106 l -1.616,3.1397 1.7447,-0.4777 c 6.905,-1.8905 15.2219,-1.9181 22.4784,-0.074 l 2.1129,0.5366 -1.6119,-3.1316 z"
       style="fill:#090909" />
    <path
       style="fill:#090909"
       d="m 1899.0778,1719.6026 c -4.0189,-7.8086 -7.3114,-22.4403 -8.2142,-36.5029 -0.3628,-5.6535 -0.4883,-10.5541 -0.2791,-10.89 0.7068,-1.1335 4.9413,-0.6214 7.4201,0.8971 1.3538,0.8294 3.6514,3.1498 5.1061,5.1567 5.0537,6.973 12.0286,10.1983 20.2377,9.3583 4.8213,-0.493 10.7939,-3.5552 13.3081,-6.8227 2.5035,-3.2535 4.8692,-9.6962 4.8692,-13.261 0,-3.5645 -2.3657,-10.0072 -4.8692,-13.2606 -2.5142,-3.2677 -8.4868,-6.3298 -13.3081,-6.8229 -8.2091,-0.84 -15.184,2.3854 -20.2377,9.3583 -2.8572,3.9421 -6.6068,6.6646 -9.179,6.6646 -4.2961,0 -1.8711,-6.0211 4.2221,-10.483 7.3234,-5.3628 10.4889,-12.0091 9.6333,-20.2268 -0.4979,-4.7788 -3.5869,-10.699 -6.8834,-13.1914 -3.282,-2.4815 -9.7817,-4.8263 -13.3779,-4.8263 -3.5963,0 -10.096,2.3448 -13.378,4.8263 -3.2966,2.4924 -6.3858,8.4126 -6.8835,13.1914 -0.8558,8.2177 2.3098,14.864 9.6335,20.2268 6.0931,4.4619 8.5181,10.483 4.2219,10.483 -2.572,0 -6.3218,-2.7225 -9.1789,-6.6646 -5.0538,-6.9729 -12.0287,-10.1983 -20.2378,-9.3583 -4.8212,0.4931 -10.7938,3.5552 -13.3083,6.8229 -2.5034,3.2534 -4.869,9.6961 -4.869,13.2606 0,3.5648 2.3656,10.0075 4.869,13.261 2.5145,3.2675 8.4871,6.3297 13.3083,6.8227 8.2091,0.84 15.184,-2.3853 20.2378,-9.3583 1.4546,-2.0069 3.7524,-4.3273 5.1061,-5.1567 2.4787,-1.5185 6.7134,-2.0306 7.42,-0.8971 0.2094,0.3359 0.083,5.2365 -0.2791,10.89 -0.9029,14.0684 -4.1951,28.6942 -8.2181,36.5106 l -1.616,3.1397 1.7447,-0.4777 c 6.905,-1.8905 15.2219,-1.9181 22.4784,-0.074 l 2.1129,0.5366 -1.6119,-3.1316 z"
       id="path4631-5"
       inkscape:connector-curvature="0"
       inkscape:transform-center-x="607.94332"
       inkscape:transform-center-y="-23.524799" />
    <path
       style="fill:#090909"
       d="m 1674.0779,2090.3974 c -4.0189,7.8085 -7.3114,22.4402 -8.2142,36.5028 -0.3628,5.6535 -0.4883,10.5541 -0.2791,10.89 0.7068,1.1335 4.9413,0.6214 7.4201,-0.897 1.3538,-0.8295 3.6514,-3.1499 5.1061,-5.1568 5.0537,-6.973 12.0286,-10.1983 20.2377,-9.3583 4.8213,0.4931 10.7939,3.5552 13.3081,6.8228 2.5035,3.2535 4.8692,9.6961 4.8692,13.2609 0,3.5646 -2.3657,10.0072 -4.8692,13.2606 -2.5142,3.2677 -8.4868,6.3298 -13.3081,6.8229 -8.2091,0.84 -15.184,-2.3853 -20.2377,-9.3583 -2.8572,-3.9421 -6.6068,-6.6646 -9.179,-6.6646 -4.2961,0 -1.8711,6.0211 4.2221,10.4831 7.3234,5.3627 10.4889,12.009 9.6333,20.2267 -0.4979,4.7789 -3.5869,10.6991 -6.8834,13.1914 -3.282,2.4815 -9.7817,4.8263 -13.3779,4.8263 -3.5963,0 -10.096,-2.3448 -13.378,-4.8263 -3.2966,-2.4923 -6.3858,-8.4125 -6.8835,-13.1914 -0.8558,-8.2177 2.3098,-14.864 9.6335,-20.2267 6.0931,-4.462 8.5181,-10.4831 4.2219,-10.4831 -2.572,0 -6.3218,2.7225 -9.1789,6.6646 -5.0538,6.973 -12.0287,10.1983 -20.2378,9.3583 -4.8212,-0.4931 -10.7938,-3.5552 -13.3083,-6.8229 -2.5034,-3.2534 -4.869,-9.696 -4.869,-13.2606 0,-3.5648 2.3656,-10.0074 4.869,-13.2609 2.5145,-3.2676 8.4871,-6.3297 13.3083,-6.8228 8.2091,-0.84 15.184,2.3853 20.2378,9.3583 1.4546,2.0069 3.7524,4.3273 5.1061,5.1568 2.4787,1.5184 6.7134,2.0305 7.42,0.897 0.2094,-0.3359 0.083,-5.2365 -0.2791,-10.89 -0.9029,-14.0684 -4.1951,-28.6942 -8.2181,-36.5106 l -1.616,-3.1397 1.7447,0.4777 c 6.905,1.8905 15.2219,1.9181 22.4784,0.074 l 2.1129,-0.5366 -1.6119,3.1316 z"
       id="path4635-6"
       inkscape:connector-curvature="0"
       inkscape:transform-center-x="607.94332"
       inkscape:transform-center-y="23.524799" />
    <path
       inkscape:transform-center-y="23.524799"
       inkscape:transform-center-x="607.94332"
       inkscape:connector-curvature="0"
       id="path4637-9"
       d="m 1899.0778,2090.3974 c -4.0189,7.8085 -7.3114,22.4402 -8.2142,36.5028 -0.3628,5.6535 -0.4883,10.5541 -0.2791,10.89 0.7068,1.1335 4.9413,0.6214 7.4201,-0.897 1.3538,-0.8295 3.6514,-3.1499 5.1061,-5.1568 5.0537,-6.973 12.0286,-10.1983 20.2377,-9.3583 4.8213,0.4931 10.7939,3.5552 13.3081,6.8228 2.5035,3.2535 4.8692,9.6961 4.8692,13.2609 0,3.5646 -2.3657,10.0072 -4.8692,13.2606 -2.5142,3.2677 -8.4868,6.3298 -13.3081,6.8229 -8.2091,0.84 -15.184,-2.3853 -20.2377,-9.3583 -2.8572,-3.9421 -6.6068,-6.6646 -9.179,-6.6646 -4.2961,0 -1.8711,6.0211 4.2221,10.4831 7.3234,5.3627 10.4889,12.009 9.6333,20.2267 -0.4979,4.7789 -3.5869,10.6991 -6.8834,13.1914 -3.282,2.4815 -9.7817,4.8263 -13.3779,4.8263 -3.5963,0 -10.096,-2.3448 -13.378,-4.8263 -3.2966,-2.4923 -6.3858,-8.4125 -6.8835,-13.1914 -0.8558,-8.2177 2.3098,-14.864 9.6335,-20.2267 6.0931,-4.462 8.5181,-10.4831 4.2219,-10.4831 -2.572,0 -6.3218,2.7225 -9.1789,6.6646 -5.0538,6.973 -12.0287,10.1983 -20.2378,9.3583 -4.8212,-0.4931 -10.7938,-3.5552 -13.3083,-6.8229 -2.5034,-3.2534 -4.869,-9.696 -4.869,-13.2606 0,-3.5648 2.3656,-10.0074 4.869,-13.2609 2.5145,-3.2676 8.4871,-6.3297 13.3083,-6.8228 8.2091,-0.84 15.184,2.3853 20.2378,9.3583 1.4546,2.0069 3.7524,4.3273 5.1061,5.1568 2.4787,1.5184 6.7134,2.0305 7.42,0.897 0.2094,-0.3359 0.083,-5.2365 -0.2791,-10.89 -0.9029,-14.0684 -4.1951,-28.6942 -8.2181,-36.5106 l -1.616,-3.1397 1.7447,0.4777 c 6.905,1.8905 15.2219,1.9181 22.4784,0.074 l 2.1129,-0.5366 -1.6119,3.1316 z"
       style="fill:#090909" />
  </g>
</svg>
