<?xml version="1.0" encoding="UTF-8" standalone="no"?>
<!-- Created with Inkscape (http://www.inkscape.org/) -->

<svg
   id="svg10047"
   height="123.00288"
   width="79.090683"
   version="1.1"
   viewBox="0 0 79.090683 123.00288"
   inkscape:version="0.91 r13725"
   sodipodi:docname="baccarat.svgz"
   xmlns:inkscape="http://www.inkscape.org/namespaces/inkscape"
   xmlns:sodipodi="http://sodipodi.sourceforge.net/DTD/sodipodi-0.dtd"
   xmlns="http://www.w3.org/2000/svg"
   xmlns:svg="http://www.w3.org/2000/svg"
   xmlns:rdf="http://www.w3.org/1999/02/22-rdf-syntax-ns#"
   xmlns:cc="http://creativecommons.org/ns#"
   xmlns:dc="http://purl.org/dc/elements/1.1/">
  <sodipodi:namedview
     pagecolor="#ffffff"
     bordercolor="#666666"
     borderopacity="1"
     objecttolerance="10"
     gridtolerance="10"
     guidetolerance="10"
     inkscape:pageopacity="0"
     inkscape:pageshadow="2"
     inkscape:window-width="1920"
     inkscape:window-height="1016"
     id="namedview1491"
     showgrid="false"
     inkscape:zoom="1.3479675"
     inkscape:cx="513.49999"
     inkscape:cy="307.5"
     inkscape:window-x="0"
     inkscape:window-y="0"
     inkscape:window-maximized="1"
     inkscape:current-layer="svg10047"
     showguides="false"
     inkscape:guide-bbox="true"
     inkscape:snap-grids="true"
     inkscape:showpageshadow="2"
     inkscape:pagecheckerboard="0"
     inkscape:deskcolor="#d1d1d1" />
  <metadata
     id="metadata16869">
    <rdf:RDF>
      <cc:Work
         rdf:about="">
        <dc:format>image/svg+xml</dc:format>
        <dc:type
           rdf:resource="http://purl.org/dc/dcmitype/StillImage" />
        <dc:title />
      </cc:Work>
    </rdf:RDF>
  </metadata>
  <defs
     id="defs10049" />
  <g
     transform="matrix(0.18181768,0,0,0.18636804,-187.73146,-153.75365)"
     id="diamond_3"
     inkscape:label="#diamond_3">
    <rect
       style="display:inline;fill:#ffffff;fill-opacity:1;stroke:#000000;stroke-width:1.26211;stroke-miterlimit:4;stroke-dasharray:none;stroke-opacity:1"
       id="rect5749"
       y="-1484.3689"
       x="-1466.8948"
       ry="22.528988"
       rx="20.746819"
       height="658.73773"
       width="433.73785"
       transform="scale(-1)" />
    <path
       style="fill:#fe0303;image-rendering:auto"
       d="m 1249.2933,974.24285 c -0.403,-0.6324 -2.2329,-3.5406 -4.0665,-6.4634 -6.3379,-10.1025 -10.3679,-15.0861 -19.6892,-24.3525 -9.3214,-9.2663 -14.3356,-13.2727 -24.4977,-19.5727 -2.9402,-1.8224 -5.8661,-3.6413 -6.5021,-4.042 -1.016,-0.6403 -1.016,-0.8172 0,-1.4564 0.636,-0.4007 3.5614,-2.2209 6.5007,-4.0444 19.1994,-11.9103 34.8548,-27.9044 46.351,-47.3517 l 2.6363,-4.4596 2.6362,4.4596 c 11.4961,19.4473 27.1517,35.4414 46.3511,47.3517 2.9392,1.8235 5.8646,3.6437 6.5007,4.0444 1.016,0.6392 1.016,0.8161 0,1.4564 -0.6361,0.4007 -3.562,2.2196 -6.5023,4.042 -10.1619,6.3 -15.1762,10.3064 -24.4975,19.5727 -9.3213,9.2664 -13.3514,14.25 -19.6892,24.3525 -1.8336,2.9228 -3.6635,5.831 -4.0665,6.4634 -0.6435,1.0097 -0.8216,1.0097 -1.465,0 z"
       id="path5753"
       inkscape:connector-curvature="0" />
    <path
       inkscape:connector-curvature="0"
       id="path5755"
       d="m 1249.2933,1446.7427 c -0.403,-0.6324 -2.2329,-3.5406 -4.0665,-6.4634 -6.3379,-10.1025 -10.3679,-15.0861 -19.6892,-24.3525 -9.3214,-9.2663 -14.3356,-13.2727 -24.4977,-19.5727 -2.9402,-1.8224 -5.8661,-3.6413 -6.5021,-4.042 -1.016,-0.6403 -1.016,-0.8172 0,-1.4564 0.636,-0.4007 3.5614,-2.2209 6.5007,-4.0444 19.1994,-11.9103 34.8548,-27.9044 46.351,-47.3517 l 2.6363,-4.4596 2.6362,4.4596 c 11.4961,19.4473 27.1517,35.4414 46.3511,47.3517 2.9392,1.8235 5.8646,3.6437 6.5007,4.0444 1.016,0.6392 1.016,0.8161 0,1.4564 -0.6361,0.4007 -3.562,2.2196 -6.5023,4.042 -10.1619,6.3 -15.1762,10.3064 -24.4975,19.5727 -9.3213,9.2664 -13.3514,14.25 -19.6892,24.3525 -1.8336,2.9228 -3.6635,5.831 -4.0665,6.4634 -0.6435,1.0097 -0.8216,1.0097 -1.465,0 z"
       style="fill:#fe0303;image-rendering:auto" />
    <path
       inkscape:connector-curvature="0"
       id="path5757"
       d="m 1249.2937,1210.4926 c -0.403,-0.6324 -2.2329,-3.5406 -4.0665,-6.4634 -6.3379,-10.1025 -10.3679,-15.0861 -19.6892,-24.3525 -9.3214,-9.2663 -14.3356,-13.2727 -24.4977,-19.5727 -2.9402,-1.8224 -5.8661,-3.6413 -6.5021,-4.042 -1.016,-0.6403 -1.016,-0.8172 0,-1.4564 0.636,-0.4007 3.5614,-2.2209 6.5007,-4.0444 19.1994,-11.9103 34.8548,-27.9044 46.351,-47.3517 l 2.6363,-4.4596 2.6362,4.4596 c 11.4961,19.4473 27.1517,35.4414 46.3511,47.3517 2.9392,1.8235 5.8646,3.6437 6.5007,4.0444 1.016,0.6392 1.016,0.8161 0,1.4564 -0.6361,0.4007 -3.562,2.2196 -6.5023,4.042 -10.1619,6.3 -15.1762,10.3064 -24.4975,19.5727 -9.3213,9.2664 -13.3514,14.25 -19.6892,24.3525 -1.8336,2.9228 -3.6635,5.831 -4.0665,6.4634 -0.6435,1.0097 -0.8216,1.0097 -1.465,0 z"
       style="fill:#fe0303;image-rendering:auto" />
    <path
       style="font-style:normal;font-variant:normal;font-weight:normal;font-stretch:normal;font-size:medium;line-height:125%;font-family:'Ubuntu Condensed';-inkscape-font-specification:'Ubuntu Condensed, ';letter-spacing:0px;word-spacing:0px;fill:#ff0000;fill-opacity:1;stroke:none;stroke-width:1px;stroke-linecap:butt;stroke-linejoin:miter;stroke-opacity:1"
       inkscape:connector-curvature="0"
       id="path6025"
       d="m 1064.3774,872.99175 q 3.0468,1.0442 4.6921,3.7127 1.7063,2.6105 1.7063,6.7873 0,5.5691 -2.8641,8.8176 -2.8031,3.1906 -8.5312,3.1906 -2.2547,0 -4.3875,-0.6381 -2.1329,-0.6381 -3.7172,-1.6822 l 1.4016,-4.0609 q 1.4015,0.8122 2.925,1.3923 1.5843,0.5801 3.2906,0.5801 3.1078,0 4.8141,-1.7983 1.7671,-1.8564 1.7671,-5.8591 0,-4.0028 -1.95,-6.0331 -1.8891,-2.0305 -6.0937,-2.0305 h -1.5844 v -4.2348 h 1.3406 q 3.6563,0 5.4234,-1.8563 1.7673,-1.8564 1.7673,-5.163 0,-3.1326 -1.4016,-4.6409 -1.4016,-1.5662 -3.7172,-1.5662 -1.5844,0 -3.0469,0.58 -1.4016,0.5801 -2.4375,1.4503 l -2.0718,-3.6547 q 1.5843,-1.3923 3.7171,-2.0884 2.1938,-0.6961 4.3266,-0.6961 4.7531,0 7.3125,2.8425 2.5594,2.8426 2.5594,7.5414 0,3.3067 -1.4016,5.6271 -1.3406,2.2624 -3.839,3.4807 z" />
    <path
       style="font-style:normal;font-variant:normal;font-weight:normal;font-stretch:normal;font-size:medium;line-height:125%;font-family:'Ubuntu Condensed';-inkscape-font-specification:'Ubuntu Condensed, ';letter-spacing:0px;word-spacing:0px;fill:#ff0000;fill-opacity:1;stroke:none;stroke-width:1px;stroke-linecap:butt;stroke-linejoin:miter;stroke-opacity:1"
       d="m 1435.6742,1437.0082 q -3.0468,-1.0441 -4.6921,-3.7127 -1.7063,-2.6104 -1.7063,-6.7873 0,-5.569 2.8641,-8.8176 2.8031,-3.1906 8.5312,-3.1906 2.2547,0 4.3876,0.6381 2.1328,0.6381 3.7171,1.6823 l -1.4016,4.0608 q -1.4015,-0.8121 -2.925,-1.3923 -1.5843,-0.58 -3.2905,-0.58 -3.1079,0 -4.8142,1.7983 -1.7671,1.8563 -1.7671,5.8591 0,4.0028 1.95,6.0331 1.8891,2.0304 6.0937,2.0304 h 1.5844 v 4.2348 h -1.3406 q -3.6562,0 -5.4234,1.8564 -1.7673,1.8563 -1.7673,5.1629 0,3.1327 1.4016,4.6409 1.4016,1.5663 3.7172,1.5663 1.5844,0 3.0469,-0.5801 1.4016,-0.5801 2.4375,-1.4502 l 2.0718,3.6546 q -1.5843,1.3923 -3.7171,2.0884 -2.1937,0.6962 -4.3266,0.6962 -4.7531,0 -7.3125,-2.8425 -2.5593,-2.8426 -2.5593,-7.5415 0,-3.3067 1.4015,-5.6271 1.3406,-2.2624 3.839,-3.4807 z"
       id="path6144"
       inkscape:connector-curvature="0" />
  </g>
</svg>
