<?xml version="1.0" encoding="UTF-8" standalone="no"?>
<!-- Created with Inkscape (http://www.inkscape.org/) -->

<svg
   id="svg10047"
   height="123.00288"
   width="79.090683"
   version="1.1"
   viewBox="0 0 79.090683 123.00288"
   inkscape:version="0.91 r13725"
   sodipodi:docname="baccarat.svgz"
   xmlns:inkscape="http://www.inkscape.org/namespaces/inkscape"
   xmlns:sodipodi="http://sodipodi.sourceforge.net/DTD/sodipodi-0.dtd"
   xmlns="http://www.w3.org/2000/svg"
   xmlns:svg="http://www.w3.org/2000/svg"
   xmlns:rdf="http://www.w3.org/1999/02/22-rdf-syntax-ns#"
   xmlns:cc="http://creativecommons.org/ns#"
   xmlns:dc="http://purl.org/dc/elements/1.1/">
  <sodipodi:namedview
     pagecolor="#ffffff"
     bordercolor="#666666"
     borderopacity="1"
     objecttolerance="10"
     gridtolerance="10"
     guidetolerance="10"
     inkscape:pageopacity="0"
     inkscape:pageshadow="2"
     inkscape:window-width="1920"
     inkscape:window-height="1016"
     id="namedview1491"
     showgrid="false"
     inkscape:zoom="1.3479675"
     inkscape:cx="513.49999"
     inkscape:cy="307.5"
     inkscape:window-x="0"
     inkscape:window-y="0"
     inkscape:window-maximized="1"
     inkscape:current-layer="svg10047"
     showguides="false"
     inkscape:guide-bbox="true"
     inkscape:snap-grids="true"
     inkscape:showpageshadow="2"
     inkscape:pagecheckerboard="0"
     inkscape:deskcolor="#d1d1d1" />
  <metadata
     id="metadata16869">
    <rdf:RDF>
      <cc:Work
         rdf:about="">
        <dc:format>image/svg+xml</dc:format>
        <dc:type
           rdf:resource="http://purl.org/dc/dcmitype/StillImage" />
        <dc:title />
      </cc:Work>
    </rdf:RDF>
  </metadata>
  <defs
     id="defs10049" />
  <g
     transform="matrix(0.18181768,0,0,0.18636804,-474.09426,-153.75365)"
     id="diamond_6"
     inkscape:label="#diamond_6">
    <rect
       style="display:inline;fill:#ffffff;fill-opacity:1;stroke:#000000;stroke-width:1.26211;stroke-miterlimit:4;stroke-dasharray:none;stroke-opacity:1"
       id="rect5701"
       y="-1484.3689"
       x="-3041.8945"
       ry="22.528988"
       rx="20.746819"
       height="658.73773"
       width="433.73785"
       transform="scale(-1)" />
    <path
       style="fill:#fe0303;image-rendering:auto"
       d="m 2711.7934,974.24285 c -0.403,-0.6324 -2.2329,-3.5406 -4.0665,-6.4634 -6.3379,-10.1025 -10.3679,-15.0861 -19.6892,-24.3525 -9.3214,-9.2663 -14.3356,-13.2727 -24.4977,-19.5727 -2.9402,-1.8224 -5.8661,-3.6413 -6.5021,-4.042 -1.016,-0.6403 -1.016,-0.8172 0,-1.4564 0.636,-0.4007 3.5614,-2.2209 6.5007,-4.0444 19.1994,-11.9103 34.8548,-27.9044 46.351,-47.3517 l 2.6363,-4.4596 2.6362,4.4596 c 11.4961,19.4473 27.1517,35.4414 46.3511,47.3517 2.9392,1.8235 5.8646,3.6437 6.5007,4.0444 1.016,0.6392 1.016,0.8161 0,1.4564 -0.6361,0.4007 -3.562,2.2196 -6.5023,4.042 -10.1619,6.3 -15.1762,10.3064 -24.4975,19.5727 -9.3213,9.2664 -13.3514,14.25 -19.6892,24.3525 -1.8336,2.9228 -3.6635,5.831 -4.0665,6.4634 -0.6435,1.0097 -0.8216,1.0097 -1.465,0 z"
       id="path5705"
       inkscape:connector-curvature="0" />
    <path
       inkscape:connector-curvature="0"
       id="path5707"
       d="m 2711.7934,1446.7427 c -0.403,-0.6324 -2.2329,-3.5406 -4.0665,-6.4634 -6.3379,-10.1025 -10.3679,-15.0861 -19.6892,-24.3525 -9.3214,-9.2663 -14.3356,-13.2727 -24.4977,-19.5727 -2.9402,-1.8224 -5.8661,-3.6413 -6.5021,-4.042 -1.016,-0.6403 -1.016,-0.8172 0,-1.4564 0.636,-0.4007 3.5614,-2.2209 6.5007,-4.0444 19.1994,-11.9103 34.8548,-27.9044 46.351,-47.3517 l 2.6363,-4.4596 2.6362,4.4596 c 11.4961,19.4473 27.1517,35.4414 46.3511,47.3517 2.9392,1.8235 5.8646,3.6437 6.5007,4.0444 1.016,0.6392 1.016,0.8161 0,1.4564 -0.6361,0.4007 -3.562,2.2196 -6.5023,4.042 -10.1619,6.3 -15.1762,10.3064 -24.4975,19.5727 -9.3213,9.2664 -13.3514,14.25 -19.6892,24.3525 -1.8336,2.9228 -3.6635,5.831 -4.0665,6.4634 -0.6435,1.0097 -0.8216,1.0097 -1.465,0 z"
       style="fill:#fe0303;image-rendering:auto" />
    <path
       inkscape:connector-curvature="0"
       id="path5709"
       d="m 2711.7934,1210.4926 c -0.403,-0.6324 -2.2329,-3.5406 -4.0665,-6.4634 -6.3379,-10.1025 -10.3679,-15.0861 -19.6892,-24.3525 -9.3214,-9.2663 -14.3356,-13.2727 -24.4977,-19.5727 -2.9402,-1.8224 -5.8661,-3.6413 -6.5021,-4.042 -1.016,-0.6403 -1.016,-0.8172 0,-1.4564 0.636,-0.4007 3.5614,-2.2209 6.5007,-4.0444 19.1994,-11.9103 34.8548,-27.9044 46.351,-47.3517 l 2.6363,-4.4596 2.6362,4.4596 c 11.4961,19.4473 27.1517,35.4414 46.3511,47.3517 2.9392,1.8235 5.8646,3.6437 6.5007,4.0444 1.016,0.6392 1.016,0.8161 0,1.4564 -0.6361,0.4007 -3.562,2.2196 -6.5023,4.042 -10.1619,6.3 -15.1762,10.3064 -24.4975,19.5727 -9.3213,9.2664 -13.3514,14.25 -19.6892,24.3525 -1.8336,2.9228 -3.6635,5.831 -4.0665,6.4634 -0.6435,1.0097 -0.8216,1.0097 -1.465,0 z"
       style="fill:#fe0303;image-rendering:auto" />
    <path
       inkscape:connector-curvature="0"
       id="path5711"
       d="m 2938.2585,1335.7573 c 0.403,0.6324 2.2329,3.5406 4.0665,6.4634 6.3379,10.1025 10.3679,15.0861 19.6892,24.3525 9.3214,9.2663 14.3356,13.2727 24.4977,19.5727 2.9402,1.8224 5.8661,3.6413 6.5021,4.042 1.016,0.6403 1.016,0.8172 0,1.4564 -0.636,0.4007 -3.5614,2.2209 -6.5007,4.0444 -19.1994,11.9103 -34.8548,27.9044 -46.351,47.3517 l -2.6363,4.4596 -2.6362,-4.4596 c -11.4961,-19.4473 -27.1517,-35.4414 -46.3511,-47.3517 -2.9392,-1.8235 -5.8646,-3.6437 -6.5007,-4.0444 -1.016,-0.6392 -1.016,-0.8161 0,-1.4564 0.6361,-0.4007 3.562,-2.2196 6.5023,-4.042 10.1619,-6.3 15.1762,-10.3064 24.4975,-19.5727 9.3213,-9.2664 13.3514,-14.25 19.6892,-24.3525 1.8336,-2.9228 3.6635,-5.831 4.0665,-6.4634 0.6435,-1.0097 0.8216,-1.0097 1.465,0 z"
       style="fill:#fe0303;image-rendering:auto" />
    <path
       style="fill:#fe0303;image-rendering:auto"
       d="m 2938.2585,863.25745 c 0.403,0.6324 2.2329,3.5406 4.0665,6.4634 6.3379,10.1025 10.3679,15.0861 19.6892,24.3525 9.3214,9.2663 14.3356,13.2727 24.4977,19.5727 2.9402,1.8224 5.8661,3.6413 6.5021,4.042 1.016,0.6403 1.016,0.8172 0,1.4564 -0.636,0.4007 -3.5614,2.2209 -6.5007,4.0444 -19.1994,11.9103 -34.8548,27.9044 -46.351,47.3517 l -2.6363,4.4596 -2.6362,-4.4596 c -11.4961,-19.4473 -27.1517,-35.4414 -46.3511,-47.3517 -2.9392,-1.8235 -5.8646,-3.6437 -6.5007,-4.0444 -1.016,-0.6392 -1.016,-0.8161 0,-1.4564 0.6361,-0.4007 3.562,-2.2196 6.5023,-4.042 10.1619,-6.3 15.1762,-10.3064 24.4975,-19.5727 9.3213,-9.2664 13.3514,-14.25 19.6892,-24.3525 1.8336,-2.9228 3.6635,-5.831 4.0665,-6.4634 0.6435,-1.0097 0.8216,-1.0097 1.465,0 z"
       id="path5713"
       inkscape:connector-curvature="0" />
    <path
       inkscape:connector-curvature="0"
       id="path5715"
       d="m 2938.2585,1099.5073 c 0.403,0.6324 2.2329,3.5406 4.0665,6.4634 6.3379,10.1025 10.3679,15.0861 19.6892,24.3525 9.3214,9.2663 14.3356,13.2727 24.4977,19.5727 2.9402,1.8224 5.8661,3.6413 6.5021,4.042 1.016,0.6403 1.016,0.8172 0,1.4564 -0.636,0.4007 -3.5614,2.2209 -6.5007,4.0444 -19.1994,11.9103 -34.8548,27.9044 -46.351,47.3517 l -2.6363,4.4596 -2.6362,-4.4596 c -11.4961,-19.4473 -27.1517,-35.4414 -46.3511,-47.3517 -2.9392,-1.8235 -5.8646,-3.6437 -6.5007,-4.0444 -1.016,-0.6392 -1.016,-0.8161 0,-1.4564 0.6361,-0.4007 3.562,-2.2196 6.5023,-4.042 10.1619,-6.3 15.1762,-10.3064 24.4975,-19.5727 9.3213,-9.2664 13.3514,-14.25 19.6892,-24.3525 1.8336,-2.9228 3.6635,-5.831 4.0665,-6.4634 0.6435,-1.0097 0.8216,-1.0097 1.465,0 z"
       style="fill:#fe0303;image-rendering:auto" />
    <path
       style="font-style:normal;font-variant:normal;font-weight:normal;font-stretch:normal;font-size:medium;line-height:125%;font-family:'Ubuntu Condensed';-inkscape-font-specification:'Ubuntu Condensed, ';letter-spacing:0px;word-spacing:0px;fill:#ff0000;fill-opacity:1;stroke:none;stroke-width:1px;stroke-linecap:butt;stroke-linejoin:miter;stroke-opacity:1"
       inkscape:connector-curvature="0"
       id="path6034"
       d="m 2643.9533,857.81215 q -2.3084,0.2363 -4.2524,0.8862 -2.0047,0.7088 -3.5234,2.1265 -1.5187,1.4177 -2.5513,3.7216 -1.0935,2.3628 -1.5794,5.9071 2.3691,-0.9451 4.4345,-0.9451 4.3738,0 6.8645,3.308 2.4299,3.367 2.4299,9.2152 0,6.2616 -2.2477,9.8649 -2.3084,3.6034 -7.229,3.6034 -2.4906,0 -4.3737,-0.9451 -1.8833,-0.9452 -3.0982,-3.1308 -1.2757,-2.1266 -1.8832,-5.671 -0.6682,-3.4852 -0.6682,-8.5653 0,-4.4895 0.9113,-8.6836 0.8504,-4.1941 2.855,-7.5021 2.0048,-3.2489 5.2851,-5.3164 3.2804,-2.0084 8.0795,-2.1857 z m -8.7477,15.8312 q -1.8225,0 -3.5841,1.0634 0,0.7089 0,1.4177 -0.061,0.768 -0.061,1.5949 0,2.7173 0.1215,5.1392 0.1215,2.4811 0.6075,4.3123 0.486,1.8902 1.458,2.9536 0.9111,1.1224 2.4906,1.1224 2.3692,0 3.3411,-2.4811 0.9113,-2.4219 0.9113,-6.4979 0,-4.4304 -1.2758,-6.5569 -1.3364,-2.0676 -4.0093,-2.0676 z" />
    <path
       style="font-style:normal;font-variant:normal;font-weight:normal;font-stretch:normal;font-size:medium;line-height:125%;font-family:'Ubuntu Condensed';-inkscape-font-specification:'Ubuntu Condensed, ';letter-spacing:0px;word-spacing:0px;fill:#ff0000;fill-opacity:1;stroke:none;stroke-width:1px;stroke-linecap:butt;stroke-linejoin:miter;stroke-opacity:1"
       d="m 3006.0981,1452.1878 q 2.3084,-0.2363 4.2524,-0.8861 2.0046,-0.7089 3.5233,-2.1266 1.5187,-1.4177 2.5514,-3.7216 1.0934,-2.3628 1.5794,-5.907 -2.3691,0.945 -4.4345,0.945 -4.3739,0 -6.8646,-3.308 -2.4298,-3.367 -2.4298,-9.2152 0,-6.2616 2.2476,-9.8649 2.3085,-3.6034 7.229,-3.6034 2.4906,0 4.3738,0.9452 1.8832,0.9451 3.0981,3.1308 1.2757,2.1265 1.8833,5.6709 0.6682,3.4852 0.6682,8.5653 0,4.4895 -0.9113,8.6836 -0.8504,4.1941 -2.8551,7.5021 -2.0047,3.2489 -5.2851,5.3164 -3.2803,2.0084 -8.0794,2.1857 z m 8.7476,-15.8312 q 1.8225,0 3.5842,-1.0633 0,-0.7089 0,-1.4178 0.061,-0.7679 0.061,-1.5949 0,-2.7173 -0.1214,-5.1392 -0.1215,-2.4811 -0.6076,-4.3123 -0.4859,-1.8902 -1.4579,-2.9536 -0.9112,-1.1223 -2.4906,-1.1223 -2.3692,0 -3.3411,2.481 -0.9113,2.4219 -0.9113,6.4979 0,4.4304 1.2757,6.5569 1.3365,2.0676 4.0093,2.0676 z"
       id="path6132"
       inkscape:connector-curvature="0" />
  </g>
</svg>
