<?xml version="1.0" encoding="UTF-8" standalone="no"?>
<!-- Created with Inkscape (http://www.inkscape.org/) -->

<svg
   id="svg10047"
   height="123.00288"
   width="79.090683"
   version="1.1"
   viewBox="0 0 79.090683 123.00288"
   inkscape:version="0.91 r13725"
   sodipodi:docname="baccarat.svgz"
   xmlns:inkscape="http://www.inkscape.org/namespaces/inkscape"
   xmlns:sodipodi="http://sodipodi.sourceforge.net/DTD/sodipodi-0.dtd"
   xmlns="http://www.w3.org/2000/svg"
   xmlns:svg="http://www.w3.org/2000/svg"
   xmlns:rdf="http://www.w3.org/1999/02/22-rdf-syntax-ns#"
   xmlns:cc="http://creativecommons.org/ns#"
   xmlns:dc="http://purl.org/dc/elements/1.1/">
  <sodipodi:namedview
     pagecolor="#ffffff"
     bordercolor="#666666"
     borderopacity="1"
     objecttolerance="10"
     gridtolerance="10"
     guidetolerance="10"
     inkscape:pageopacity="0"
     inkscape:pageshadow="2"
     inkscape:window-width="1920"
     inkscape:window-height="1016"
     id="namedview1491"
     showgrid="false"
     inkscape:zoom="1.3479675"
     inkscape:cx="513.49999"
     inkscape:cy="307.5"
     inkscape:window-x="0"
     inkscape:window-y="0"
     inkscape:window-maximized="1"
     inkscape:current-layer="svg10047"
     showguides="false"
     inkscape:guide-bbox="true"
     inkscape:snap-grids="true"
     inkscape:showpageshadow="2"
     inkscape:pagecheckerboard="0"
     inkscape:deskcolor="#d1d1d1" />
  <metadata
     id="metadata16869">
    <rdf:RDF>
      <cc:Work
         rdf:about="">
        <dc:format>image/svg+xml</dc:format>
        <dc:type
           rdf:resource="http://purl.org/dc/dcmitype/StillImage" />
        <dc:title />
      </cc:Work>
    </rdf:RDF>
  </metadata>
  <defs
     id="defs10049" />
  <g
     transform="matrix(0.18181768,0,0,0.18636804,-569.54854,-153.75365)"
     id="diamond_7"
     inkscape:label="#diamond_7">
    <rect
       transform="scale(-1)"
       width="433.73785"
       height="658.73773"
       rx="20.746819"
       ry="22.528988"
       x="-3566.8945"
       y="-1484.3689"
       id="rect5681"
       style="display:inline;fill:#ffffff;fill-opacity:1;stroke:#000000;stroke-width:1.26211;stroke-miterlimit:4;stroke-dasharray:none;stroke-opacity:1" />
    <path
       inkscape:connector-curvature="0"
       id="path5685"
       d="m 3236.7931,974.24285 c -0.403,-0.6324 -2.2329,-3.5406 -4.0665,-6.4634 -6.3379,-10.1025 -10.3679,-15.0861 -19.6892,-24.3525 -9.3214,-9.2663 -14.3356,-13.2727 -24.4977,-19.5727 -2.9402,-1.8224 -5.8661,-3.6413 -6.5021,-4.042 -1.016,-0.6403 -1.016,-0.8172 0,-1.4564 0.636,-0.4007 3.5614,-2.2209 6.5007,-4.0444 19.1994,-11.9103 34.8548,-27.9044 46.351,-47.3517 l 2.6363,-4.4596 2.6362,4.4596 c 11.4961,19.4473 27.1517,35.4414 46.3511,47.3517 2.9392,1.8235 5.8646,3.6437 6.5007,4.0444 1.016,0.6392 1.016,0.8161 0,1.4564 -0.6361,0.4007 -3.562,2.2196 -6.5023,4.042 -10.1619,6.3 -15.1762,10.3064 -24.4975,19.5727 -9.3213,9.2664 -13.3514,14.25 -19.6892,24.3525 -1.8336,2.9228 -3.6635,5.831 -4.0665,6.4634 -0.6435,1.0097 -0.8216,1.0097 -1.465,0 z"
       style="fill:#fe0303;image-rendering:auto" />
    <path
       style="fill:#fe0303;image-rendering:auto"
       d="m 3236.7931,1446.7427 c -0.403,-0.6324 -2.2329,-3.5406 -4.0665,-6.4634 -6.3379,-10.1025 -10.3679,-15.0861 -19.6892,-24.3525 -9.3214,-9.2663 -14.3356,-13.2727 -24.4977,-19.5727 -2.9402,-1.8224 -5.8661,-3.6413 -6.5021,-4.042 -1.016,-0.6403 -1.016,-0.8172 0,-1.4564 0.636,-0.4007 3.5614,-2.2209 6.5007,-4.0444 19.1994,-11.9103 34.8548,-27.9044 46.351,-47.3517 l 2.6363,-4.4596 2.6362,4.4596 c 11.4961,19.4473 27.1517,35.4414 46.3511,47.3517 2.9392,1.8235 5.8646,3.6437 6.5007,4.0444 1.016,0.6392 1.016,0.8161 0,1.4564 -0.6361,0.4007 -3.562,2.2196 -6.5023,4.042 -10.1619,6.3 -15.1762,10.3064 -24.4975,19.5727 -9.3213,9.2664 -13.3514,14.25 -19.6892,24.3525 -1.8336,2.9228 -3.6635,5.831 -4.0665,6.4634 -0.6435,1.0097 -0.8216,1.0097 -1.465,0 z"
       id="path5687"
       inkscape:connector-curvature="0" />
    <path
       style="fill:#fe0303;image-rendering:auto"
       d="m 3236.7931,1210.4926 c -0.403,-0.6324 -2.2329,-3.5406 -4.0665,-6.4634 -6.3379,-10.1025 -10.3679,-15.0861 -19.6892,-24.3525 -9.3214,-9.2663 -14.3356,-13.2727 -24.4977,-19.5727 -2.9402,-1.8224 -5.8661,-3.6413 -6.5021,-4.042 -1.016,-0.6403 -1.016,-0.8172 0,-1.4564 0.636,-0.4007 3.5614,-2.2209 6.5007,-4.0444 19.1994,-11.9103 34.8548,-27.9044 46.351,-47.3517 l 2.6363,-4.4596 2.6362,4.4596 c 11.4961,19.4473 27.1517,35.4414 46.3511,47.3517 2.9392,1.8235 5.8646,3.6437 6.5007,4.0444 1.016,0.6392 1.016,0.8161 0,1.4564 -0.6361,0.4007 -3.562,2.2196 -6.5023,4.042 -10.1619,6.3 -15.1762,10.3064 -24.4975,19.5727 -9.3213,9.2664 -13.3514,14.25 -19.6892,24.3525 -1.8336,2.9228 -3.6635,5.831 -4.0665,6.4634 -0.6435,1.0097 -0.8216,1.0097 -1.465,0 z"
       id="path5689"
       inkscape:connector-curvature="0" />
    <path
       style="fill:#fe0303;image-rendering:auto"
       d="m 3463.2582,1335.7573 c 0.403,0.6324 2.2329,3.5406 4.0665,6.4634 6.3379,10.1025 10.3679,15.0861 19.6892,24.3525 9.3214,9.2663 14.3356,13.2727 24.4977,19.5727 2.9402,1.8224 5.8661,3.6413 6.5021,4.042 1.016,0.6403 1.016,0.8172 0,1.4564 -0.636,0.4007 -3.5614,2.2209 -6.5007,4.0444 -19.1994,11.9103 -34.8548,27.9044 -46.351,47.3517 l -2.6363,4.4596 -2.6362,-4.4596 c -11.4961,-19.4473 -27.1517,-35.4414 -46.3511,-47.3517 -2.9392,-1.8235 -5.8646,-3.6437 -6.5007,-4.0444 -1.016,-0.6392 -1.016,-0.8161 0,-1.4564 0.6361,-0.4007 3.562,-2.2196 6.5023,-4.042 10.1619,-6.3 15.1762,-10.3064 24.4975,-19.5727 9.3213,-9.2664 13.3514,-14.25 19.6892,-24.3525 1.8336,-2.9228 3.6635,-5.831 4.0665,-6.4634 0.6435,-1.0097 0.8216,-1.0097 1.465,0 z"
       id="path5691"
       inkscape:connector-curvature="0" />
    <path
       inkscape:connector-curvature="0"
       id="path5693"
       d="m 3463.2582,863.25745 c 0.403,0.6324 2.2329,3.5406 4.0665,6.4634 6.3379,10.1025 10.3679,15.0861 19.6892,24.3525 9.3214,9.2663 14.3356,13.2727 24.4977,19.5727 2.9402,1.8224 5.8661,3.6413 6.5021,4.042 1.016,0.6403 1.016,0.8172 0,1.4564 -0.636,0.4007 -3.5614,2.2209 -6.5007,4.0444 -19.1994,11.9103 -34.8548,27.9044 -46.351,47.3517 l -2.6363,4.4596 -2.6362,-4.4596 c -11.4961,-19.4473 -27.1517,-35.4414 -46.3511,-47.3517 -2.9392,-1.8235 -5.8646,-3.6437 -6.5007,-4.0444 -1.016,-0.6392 -1.016,-0.8161 0,-1.4564 0.6361,-0.4007 3.562,-2.2196 6.5023,-4.042 10.1619,-6.3 15.1762,-10.3064 24.4975,-19.5727 9.3213,-9.2664 13.3514,-14.25 19.6892,-24.3525 1.8336,-2.9228 3.6635,-5.831 4.0665,-6.4634 0.6435,-1.0097 0.8216,-1.0097 1.465,0 z"
       style="fill:#fe0303;image-rendering:auto" />
    <path
       style="fill:#fe0303;image-rendering:auto"
       d="m 3463.2582,1099.5073 c 0.403,0.6324 2.2329,3.5406 4.0665,6.4634 6.3379,10.1025 10.3679,15.0861 19.6892,24.3525 9.3214,9.2663 14.3356,13.2727 24.4977,19.5727 2.9402,1.8224 5.8661,3.6413 6.5021,4.042 1.016,0.6403 1.016,0.8172 0,1.4564 -0.636,0.4007 -3.5614,2.2209 -6.5007,4.0444 -19.1994,11.9103 -34.8548,27.9044 -46.351,47.3517 l -2.6363,4.4596 -2.6362,-4.4596 c -11.4961,-19.4473 -27.1517,-35.4414 -46.3511,-47.3517 -2.9392,-1.8235 -5.8646,-3.6437 -6.5007,-4.0444 -1.016,-0.6392 -1.016,-0.8161 0,-1.4564 0.6361,-0.4007 3.562,-2.2196 6.5023,-4.042 10.1619,-6.3 15.1762,-10.3064 24.4975,-19.5727 9.3213,-9.2664 13.3514,-14.25 19.6892,-24.3525 1.8336,-2.9228 3.6635,-5.831 4.0665,-6.4634 0.6435,-1.0097 0.8216,-1.0097 1.465,0 z"
       id="path5695"
       inkscape:connector-curvature="0" />
    <path
       style="fill:#fe0303;image-rendering:auto"
       d="m 3349.2931,1092.3678 c -0.403,-0.6324 -2.2329,-3.5406 -4.0665,-6.4634 -6.3379,-10.1025 -10.3679,-15.0861 -19.6892,-24.3525 -9.3214,-9.2663 -14.3356,-13.2727 -24.4977,-19.5727 -2.9402,-1.8224 -5.8661,-3.6413 -6.5021,-4.042 -1.016,-0.6403 -1.016,-0.8172 0,-1.4564 0.636,-0.4007 3.5614,-2.2209 6.5007,-4.0444 19.1994,-11.9103 34.8548,-27.9044 46.351,-47.35175 l 2.6363,-4.4596 2.6362,4.4596 c 11.4961,19.44735 27.1517,35.44145 46.3511,47.35175 2.9392,1.8235 5.8646,3.6437 6.5007,4.0444 1.016,0.6392 1.016,0.8161 0,1.4564 -0.6361,0.4007 -3.562,2.2196 -6.5023,4.042 -10.1619,6.3 -15.1762,10.3064 -24.4975,19.5727 -9.3213,9.2664 -13.3514,14.25 -19.6892,24.3525 -1.8336,2.9228 -3.6635,5.831 -4.0665,6.4634 -0.6435,1.0097 -0.8216,1.0097 -1.465,0 z"
       id="path5697"
       inkscape:connector-curvature="0" />
    <path
       style="font-style:normal;font-variant:normal;font-weight:normal;font-stretch:normal;font-size:medium;line-height:125%;font-family:'Ubuntu Condensed';-inkscape-font-specification:'Ubuntu Condensed, ';letter-spacing:0px;word-spacing:0px;fill:#ff0000;fill-opacity:1;stroke:none;stroke-width:1px;stroke-linecap:butt;stroke-linejoin:miter;stroke-opacity:1"
       inkscape:connector-curvature="0"
       id="path6037"
       d="m 3155.4241,895.49995 q 0.1171,-2.909 0.5856,-6.2424 0.5271,-3.3939 1.2883,-6.8485 0.7613,-3.4545 1.6396,-6.9091 0.937,-3.5151 1.991,-6.6667 1.0541,-3.212 2.1081,-5.9394 1.054,-2.7272 2.1082,-4.7878 h -13.8199 v -4.6061 h 19.5 v 4.0607 q -1.4054,2.3635 -3.1036,6.4848 -1.6982,4.0606 -3.2207,9.2121 -1.464,5.0909 -2.5766,10.8485 -1.1126,5.7576 -1.3469,11.3939 z" />
    <path
       style="font-style:normal;font-variant:normal;font-weight:normal;font-stretch:normal;font-size:medium;line-height:125%;font-family:'Ubuntu Condensed';-inkscape-font-specification:'Ubuntu Condensed, ';letter-spacing:0px;word-spacing:0px;fill:#ff0000;fill-opacity:1;stroke:none;stroke-width:1px;stroke-linecap:butt;stroke-linejoin:miter;stroke-opacity:1"
       d="m 3544.7259,1414.4999 q -0.1171,2.9091 -0.5856,6.2425 -0.5271,3.3939 -1.2883,6.8484 -0.7613,3.4546 -1.6396,6.9092 -0.937,3.515 -1.991,6.6666 -1.0541,3.2121 -2.1081,5.9394 -1.054,2.7273 -2.1082,4.7879 h 13.8199 v 4.6061 h -19.5 v -4.0607 q 1.4054,-2.3636 3.1036,-6.4848 1.6982,-4.0607 3.2207,-9.2121 1.464,-5.091 2.5766,-10.8486 1.1126,-5.7576 1.3469,-11.3939 z"
       id="path6128"
       inkscape:connector-curvature="0" />
  </g>
</svg>
