<?xml version="1.0" encoding="UTF-8" standalone="no"?>
<!-- Created with Inkscape (http://www.inkscape.org/) -->

<svg
   id="svg10047"
   height="123.00288"
   width="79.090683"
   version="1.1"
   viewBox="0 0 79.090683 123.00288"
   inkscape:version="0.91 r13725"
   sodipodi:docname="baccarat.svgz"
   xmlns:inkscape="http://www.inkscape.org/namespaces/inkscape"
   xmlns:sodipodi="http://sodipodi.sourceforge.net/DTD/sodipodi-0.dtd"
   xmlns="http://www.w3.org/2000/svg"
   xmlns:svg="http://www.w3.org/2000/svg"
   xmlns:rdf="http://www.w3.org/1999/02/22-rdf-syntax-ns#"
   xmlns:cc="http://creativecommons.org/ns#"
   xmlns:dc="http://purl.org/dc/elements/1.1/">
  <sodipodi:namedview
     pagecolor="#ffffff"
     bordercolor="#666666"
     borderopacity="1"
     objecttolerance="10"
     gridtolerance="10"
     guidetolerance="10"
     inkscape:pageopacity="0"
     inkscape:pageshadow="2"
     inkscape:window-width="1920"
     inkscape:window-height="1016"
     id="namedview1491"
     showgrid="false"
     inkscape:zoom="1.3479675"
     inkscape:cx="513.49999"
     inkscape:cy="307.5"
     inkscape:window-x="0"
     inkscape:window-y="0"
     inkscape:window-maximized="1"
     inkscape:current-layer="svg10047"
     showguides="false"
     inkscape:guide-bbox="true"
     inkscape:snap-grids="true"
     inkscape:showpageshadow="2"
     inkscape:pagecheckerboard="0"
     inkscape:deskcolor="#d1d1d1" />
  <metadata
     id="metadata16869">
    <rdf:RDF>
      <cc:Work
         rdf:about="">
        <dc:format>image/svg+xml</dc:format>
        <dc:type
           rdf:resource="http://purl.org/dc/dcmitype/StillImage" />
        <dc:title />
      </cc:Work>
    </rdf:RDF>
  </metadata>
  <defs
     id="defs10049" />
  <g
     transform="matrix(0.18181768,0,0,0.18636804,3.1771066,-153.75365)"
     id="diamond_1"
     inkscape:label="#diamond_1">
    <rect
       style="display:inline;fill:#ffffff;fill-opacity:1;stroke:#000000;stroke-width:1.26211;stroke-miterlimit:4;stroke-dasharray:none;stroke-opacity:1"
       id="rect5773"
       y="-1484.3689"
       x="-416.89478"
       ry="22.528988"
       rx="20.746819"
       height="658.73773"
       width="433.73785"
       transform="scale(-1)" />
    <path
       inkscape:connector-curvature="0"
       id="path5781"
       d="m 199.29369,1210.4926 c -0.403,-0.6324 -2.2329,-3.5406 -4.0665,-6.4634 -6.3379,-10.1025 -10.3679,-15.0861 -19.6892,-24.3525 -9.3214,-9.2663 -14.3356,-13.2727 -24.4977,-19.5727 -2.9402,-1.8224 -5.8661,-3.6413 -6.5021,-4.042 -1.016,-0.6403 -1.016,-0.8172 0,-1.4564 0.636,-0.4007 3.5614,-2.2209 6.5007,-4.0444 19.1994,-11.9103 34.8548,-27.9044 46.351,-47.3517 l 2.6363,-4.4596 2.6362,4.4596 c 11.4961,19.4473 27.1517,35.4414 46.3511,47.3517 2.9392,1.8235 5.8646,3.6437 6.5007,4.0444 1.016,0.6392 1.016,0.8161 0,1.4564 -0.6361,0.4007 -3.562,2.2196 -6.5023,4.042 -10.1619,6.3 -15.1762,10.3064 -24.4975,19.5727 -9.3213,9.2664 -13.3514,14.25 -19.6892,24.3525 -1.8336,2.9228 -3.6635,5.831 -4.0665,6.4634 -0.6435,1.0097 -0.8216,1.0097 -1.465,0 z"
       style="fill:#fe0303;image-rendering:auto" />
    <path
       style="font-style:normal;font-variant:normal;font-weight:normal;font-stretch:normal;font-size:medium;line-height:125%;font-family:'Ubuntu Condensed';-inkscape-font-specification:'Ubuntu Condensed, ';letter-spacing:0px;word-spacing:0px;fill:#ff0000;fill-opacity:1;stroke:none;stroke-width:1px;stroke-linecap:butt;stroke-linejoin:miter;stroke-opacity:1"
       inkscape:connector-curvature="0"
       id="path6019"
       d="m 14.699745,853.50005 q 1.477323,4.5455 2.89309,9.2122 1.477321,4.6059 2.831533,9.6969 1.415766,5.0909 2.769978,10.7879 1.415767,5.697 2.831534,12.3029 h -5.539957 q -0.492441,-2.7272 -1.046437,-5.3939 -0.492441,-2.6666 -1.046436,-5.3333 H 4.9740434 q -0.6155507,2.6667 -1.1079914,5.3333 -0.4924406,2.6667 -0.9848812,5.3939 h -5.3552917 q 1.3542116,-6.6059 2.76997846,-12.3029 1.41576674,-5.697 2.76997844,-10.7879 1.4157668,-5.091 2.8315336,-9.6969 1.4773217,-4.6667 2.9546436,-9.2122 z m -3.016198,6.1818 q -1.538877,5.0304 -2.9546439,10.1213 -1.4157668,5.0909 -2.7084234,10.4242 H 17.285059 q -1.231102,-5.3333 -2.646868,-10.4242 -1.415767,-5.0909 -2.954644,-10.1213 z" />
    <path
       style="font-style:normal;font-variant:normal;font-weight:normal;font-stretch:normal;font-size:medium;line-height:125%;font-family:'Ubuntu Condensed';-inkscape-font-specification:'Ubuntu Condensed, ';letter-spacing:0px;word-spacing:0px;fill:#ff0000;fill-opacity:1;stroke:none;stroke-width:1px;stroke-linecap:butt;stroke-linejoin:miter;stroke-opacity:1"
       d="m 385.35198,1456.5002 q -1.47732,-4.5454 -2.89308,-9.2121 -1.47733,-4.606 -2.83154,-9.697 -1.41576,-5.0909 -2.76998,-10.7879 -1.41576,-5.697 -2.83153,-12.3029 h 5.53996 q 0.49244,2.7272 1.04643,5.3939 0.49244,2.6666 1.04644,5.3333 h 13.41901 q 0.61555,-2.6667 1.10799,-5.3333 0.49244,-2.6667 0.98488,-5.3939 h 5.35529 q -1.35421,6.6059 -2.76998,12.3029 -1.41576,5.697 -2.76998,10.7879 -1.41576,5.091 -2.83153,9.697 -1.47732,4.6667 -2.95464,9.2121 z m 3.0162,-6.1818 q 1.53888,-5.0304 2.95465,-10.1212 1.41576,-5.0909 2.70842,-10.4242 h -11.26458 q 1.2311,5.3333 2.64687,10.4242 1.41577,5.0908 2.95464,10.1212 z"
       id="path6108"
       inkscape:connector-curvature="0" />
  </g>
</svg>
