<?xml version="1.0" encoding="UTF-8" standalone="no"?>
<!-- Created with Inkscape (http://www.inkscape.org/) -->

<svg
   id="svg10047"
   height="123.00288"
   width="79.090683"
   version="1.1"
   viewBox="0 0 79.090683 123.00288"
   inkscape:version="0.91 r13725"
   sodipodi:docname="baccarat.svgz"
   xmlns:inkscape="http://www.inkscape.org/namespaces/inkscape"
   xmlns:sodipodi="http://sodipodi.sourceforge.net/DTD/sodipodi-0.dtd"
   xmlns="http://www.w3.org/2000/svg"
   xmlns:svg="http://www.w3.org/2000/svg"
   xmlns:rdf="http://www.w3.org/1999/02/22-rdf-syntax-ns#"
   xmlns:cc="http://creativecommons.org/ns#"
   xmlns:dc="http://purl.org/dc/elements/1.1/">
  <sodipodi:namedview
     pagecolor="#ffffff"
     bordercolor="#666666"
     borderopacity="1"
     objecttolerance="10"
     gridtolerance="10"
     guidetolerance="10"
     inkscape:pageopacity="0"
     inkscape:pageshadow="2"
     inkscape:window-width="1920"
     inkscape:window-height="1016"
     id="namedview1491"
     showgrid="false"
     inkscape:zoom="1.3479675"
     inkscape:cx="513.49999"
     inkscape:cy="307.5"
     inkscape:window-x="0"
     inkscape:window-y="0"
     inkscape:window-maximized="1"
     inkscape:current-layer="svg10047"
     showguides="false"
     inkscape:guide-bbox="true"
     inkscape:snap-grids="true"
     inkscape:showpageshadow="2"
     inkscape:pagecheckerboard="0"
     inkscape:deskcolor="#d1d1d1" />
  <metadata
     id="metadata16869">
    <rdf:RDF>
      <cc:Work
         rdf:about="">
        <dc:format>image/svg+xml</dc:format>
        <dc:type
           rdf:resource="http://purl.org/dc/dcmitype/StillImage" />
        <dc:title />
      </cc:Work>
    </rdf:RDF>
  </metadata>
  <defs
     id="defs10049" />
  <g
     transform="matrix(0.18181768,0,0,0.18636804,-378.63998,-153.75365)"
     id="diamond_5"
     inkscape:label="#4_heart">
    <rect
       transform="scale(-1)"
       width="433.73785"
       height="658.73773"
       rx="20.746819"
       ry="22.528988"
       x="-2516.8945"
       y="-1484.3689"
       id="rect5719"
       style="display:inline;fill:#ffffff;fill-opacity:1;stroke:#000000;stroke-width:1.26211;stroke-miterlimit:4;stroke-dasharray:none;stroke-opacity:1" />
    <path
       inkscape:connector-curvature="0"
       id="path5723"
       d="m 2186.7935,974.24285 c -0.403,-0.6324 -2.2329,-3.5406 -4.0665,-6.4634 -6.3379,-10.1025 -10.3679,-15.0861 -19.6892,-24.3525 -9.3214,-9.2663 -14.3356,-13.2727 -24.4977,-19.5727 -2.9402,-1.8224 -5.8661,-3.6413 -6.5021,-4.042 -1.016,-0.6403 -1.016,-0.8172 0,-1.4564 0.636,-0.4007 3.5614,-2.2209 6.5007,-4.0444 19.1994,-11.9103 34.8548,-27.9044 46.351,-47.3517 l 2.6363,-4.4596 2.6362,4.4596 c 11.4961,19.4473 27.1517,35.4414 46.3511,47.3517 2.9392,1.8235 5.8646,3.6437 6.5007,4.0444 1.016,0.6392 1.016,0.8161 0,1.4564 -0.6361,0.4007 -3.562,2.2196 -6.5023,4.042 -10.1619,6.3 -15.1762,10.3064 -24.4975,19.5727 -9.3213,9.2664 -13.3514,14.25 -19.6892,24.3525 -1.8336,2.9228 -3.6635,5.831 -4.0665,6.4634 -0.6435,1.0097 -0.8216,1.0097 -1.465,0 z"
       style="fill:#fe0303;image-rendering:auto" />
    <path
       style="fill:#fe0303;image-rendering:auto"
       d="m 2186.7935,1446.7427 c -0.403,-0.6324 -2.2329,-3.5406 -4.0665,-6.4634 -6.3379,-10.1025 -10.3679,-15.0861 -19.6892,-24.3525 -9.3214,-9.2663 -14.3356,-13.2727 -24.4977,-19.5727 -2.9402,-1.8224 -5.8661,-3.6413 -6.5021,-4.042 -1.016,-0.6403 -1.016,-0.8172 0,-1.4564 0.636,-0.4007 3.5614,-2.2209 6.5007,-4.0444 19.1994,-11.9103 34.8548,-27.9044 46.351,-47.3517 l 2.6363,-4.4596 2.6362,4.4596 c 11.4961,19.4473 27.1517,35.4414 46.3511,47.3517 2.9392,1.8235 5.8646,3.6437 6.5007,4.0444 1.016,0.6392 1.016,0.8161 0,1.4564 -0.6361,0.4007 -3.562,2.2196 -6.5023,4.042 -10.1619,6.3 -15.1762,10.3064 -24.4975,19.5727 -9.3213,9.2664 -13.3514,14.25 -19.6892,24.3525 -1.8336,2.9228 -3.6635,5.831 -4.0665,6.4634 -0.6435,1.0097 -0.8216,1.0097 -1.465,0 z"
       id="path5725"
       inkscape:connector-curvature="0" />
    <path
       style="fill:#fe0303;image-rendering:auto"
       d="m 2299.2935,1210.4926 c -0.403,-0.6324 -2.2329,-3.5406 -4.0665,-6.4634 -6.3379,-10.1025 -10.3679,-15.0861 -19.6892,-24.3525 -9.3214,-9.2663 -14.3356,-13.2727 -24.4977,-19.5727 -2.9402,-1.8224 -5.8661,-3.6413 -6.5021,-4.042 -1.016,-0.6403 -1.016,-0.8172 0,-1.4564 0.636,-0.4007 3.5614,-2.2209 6.5007,-4.0444 19.1994,-11.9103 34.8548,-27.9044 46.351,-47.3517 l 2.6363,-4.4596 2.6362,4.4596 c 11.4961,19.4473 27.1517,35.4414 46.3511,47.3517 2.9392,1.8235 5.8646,3.6437 6.5007,4.0444 1.016,0.6392 1.016,0.8161 0,1.4564 -0.6361,0.4007 -3.562,2.2196 -6.5023,4.042 -10.1619,6.3 -15.1762,10.3064 -24.4975,19.5727 -9.3213,9.2664 -13.3514,14.25 -19.6892,24.3525 -1.8336,2.9228 -3.6635,5.831 -4.0665,6.4634 -0.6435,1.0097 -0.8216,1.0097 -1.465,0 z"
       id="path5727"
       inkscape:connector-curvature="0" />
    <path
       style="fill:#fe0303;image-rendering:auto"
       d="m 2413.2586,1335.7573 c 0.403,0.6324 2.2329,3.5406 4.0665,6.4634 6.3379,10.1025 10.3679,15.0861 19.6892,24.3525 9.3214,9.2663 14.3356,13.2727 24.4977,19.5727 2.9402,1.8224 5.8661,3.6413 6.5021,4.042 1.016,0.6403 1.016,0.8172 0,1.4564 -0.636,0.4007 -3.5614,2.2209 -6.5007,4.0444 -19.1994,11.9103 -34.8548,27.9044 -46.351,47.3517 l -2.6363,4.4596 -2.6362,-4.4596 c -11.4961,-19.4473 -27.1517,-35.4414 -46.3511,-47.3517 -2.9392,-1.8235 -5.8646,-3.6437 -6.5007,-4.0444 -1.016,-0.6392 -1.016,-0.8161 0,-1.4564 0.6361,-0.4007 3.562,-2.2196 6.5023,-4.042 10.1619,-6.3 15.1762,-10.3064 24.4975,-19.5727 9.3213,-9.2664 13.3514,-14.25 19.6892,-24.3525 1.8336,-2.9228 3.6635,-5.831 4.0665,-6.4634 0.6435,-1.0097 0.8216,-1.0097 1.465,0 z"
       id="path5729"
       inkscape:connector-curvature="0" />
    <path
       inkscape:connector-curvature="0"
       id="path5731"
       d="m 2413.2586,863.25745 c 0.403,0.6324 2.2329,3.5406 4.0665,6.4634 6.3379,10.1025 10.3679,15.0861 19.6892,24.3525 9.3214,9.2663 14.3356,13.2727 24.4977,19.5727 2.9402,1.8224 5.8661,3.6413 6.5021,4.042 1.016,0.6403 1.016,0.8172 0,1.4564 -0.636,0.4007 -3.5614,2.2209 -6.5007,4.0444 -19.1994,11.9103 -34.8548,27.9044 -46.351,47.3517 l -2.6363,4.4596 -2.6362,-4.4596 c -11.4961,-19.4473 -27.1517,-35.4414 -46.3511,-47.3517 -2.9392,-1.8235 -5.8646,-3.6437 -6.5007,-4.0444 -1.016,-0.6392 -1.016,-0.8161 0,-1.4564 0.6361,-0.4007 3.562,-2.2196 6.5023,-4.042 10.1619,-6.3 15.1762,-10.3064 24.4975,-19.5727 9.3213,-9.2664 13.3514,-14.25 19.6892,-24.3525 1.8336,-2.9228 3.6635,-5.831 4.0665,-6.4634 0.6435,-1.0097 0.8216,-1.0097 1.465,0 z"
       style="fill:#fe0303;image-rendering:auto" />
    <path
       style="font-style:normal;font-variant:normal;font-weight:normal;font-stretch:normal;font-size:medium;line-height:125%;font-family:'Ubuntu Condensed';-inkscape-font-specification:'Ubuntu Condensed, ';letter-spacing:0px;word-spacing:0px;fill:#ff0000;fill-opacity:1;stroke:none;stroke-width:1px;stroke-linecap:butt;stroke-linejoin:miter;stroke-opacity:1"
       inkscape:connector-curvature="0"
       id="path6031"
       d="m 2110.0883,857.94925 q -0.3126,4.2711 -0.4376,7.1186 -0.125,2.8474 -0.25,4.5084 5.875,0.7712 8.6251,4.0339 2.7499,3.2628 2.7499,8.839 0,3.1441 -0.9374,5.5763 -0.9375,2.4322 -2.625,4.0932 -1.625,1.661 -3.875,2.4915 -2.2501,0.8898 -4.875,0.8898 -1.8126,0 -3.6876,-0.4745 -1.875,-0.4746 -3.5,-1.3644 l 1.4999,-4.2119 q 2.6876,1.4237 5.5001,1.4237 3,0 5.0626,-2.0763 2.0624,-2.0762 2.0624,-6.3474 0,-4.6864 -2.8125,-6.7034 -2.75,-2.0763 -8.4375,-2.3135 0.3125,-2.9661 0.5,-5.3983 0.1875,-2.4915 0.3125,-4.8051 0.125,-2.3729 0.1875,-4.6865 0.125,-2.3729 0.1875,-5.0423 h 14.625 v 4.4492 z" />
    <path
       style="font-style:normal;font-variant:normal;font-weight:normal;font-stretch:normal;font-size:medium;line-height:125%;font-family:'Ubuntu Condensed';-inkscape-font-specification:'Ubuntu Condensed, ';letter-spacing:0px;word-spacing:0px;fill:#ff0000;fill-opacity:1;stroke:none;stroke-width:1px;stroke-linecap:butt;stroke-linejoin:miter;stroke-opacity:1"
       d="m 2489.9632,1452.0509 q 0.3126,-4.2711 0.4376,-7.1186 0.125,-2.8475 0.2499,-4.5085 -5.8749,-0.7712 -8.625,-4.0339 -2.75,-3.2627 -2.75,-8.839 0,-3.144 0.9375,-5.5762 0.9375,-2.4323 2.625,-4.0933 1.625,-1.661 3.875,-2.4915 2.25,-0.8898 4.875,-0.8898 1.8126,0 3.6876,0.4745 1.8749,0.4746 3.4999,1.3644 l -1.4999,4.2119 q -2.6875,-1.4237 -5.5,-1.4237 -3,0 -5.0626,2.0763 -2.0624,2.0762 -2.0624,6.3474 0,4.6864 2.8124,6.7034 2.7501,2.0763 8.4376,2.3136 -0.3126,2.9661 -0.5,5.3983 -0.1875,2.4915 -0.3125,4.805 -0.125,2.373 -0.1875,4.6865 -0.1251,2.3729 -0.1876,5.0424 h -14.625 v -4.4492 z"
       id="path6136"
       inkscape:connector-curvature="0" />
  </g>
</svg>
