<?xml version="1.0" encoding="UTF-8" standalone="no"?>
<!-- Created with Inkscape (http://www.inkscape.org/) -->

<svg
   id="svg10047"
   height="123.00288"
   width="79.090698"
   version="1.1"
   viewBox="0 0 79.090698 123.00288"
   inkscape:version="0.91 r13725"
   sodipodi:docname="baccarat.svgz"
   xmlns:inkscape="http://www.inkscape.org/namespaces/inkscape"
   xmlns:sodipodi="http://sodipodi.sourceforge.net/DTD/sodipodi-0.dtd"
   xmlns="http://www.w3.org/2000/svg"
   xmlns:svg="http://www.w3.org/2000/svg"
   xmlns:rdf="http://www.w3.org/1999/02/22-rdf-syntax-ns#"
   xmlns:cc="http://creativecommons.org/ns#"
   xmlns:dc="http://purl.org/dc/elements/1.1/">
  <sodipodi:namedview
     pagecolor="#ffffff"
     bordercolor="#666666"
     borderopacity="1"
     objecttolerance="10"
     gridtolerance="10"
     guidetolerance="10"
     inkscape:pageopacity="0"
     inkscape:pageshadow="2"
     inkscape:window-width="1920"
     inkscape:window-height="1016"
     id="namedview1491"
     showgrid="false"
     inkscape:zoom="1.3479675"
     inkscape:cx="513.49999"
     inkscape:cy="307.5"
     inkscape:window-x="0"
     inkscape:window-y="0"
     inkscape:window-maximized="1"
     inkscape:current-layer="svg10047"
     showguides="false"
     inkscape:guide-bbox="true"
     inkscape:snap-grids="true"
     inkscape:showpageshadow="2"
     inkscape:pagecheckerboard="0"
     inkscape:deskcolor="#d1d1d1" />
  <metadata
     id="metadata16869">
    <rdf:RDF>
      <cc:Work
         rdf:about="">
        <dc:format>image/svg+xml</dc:format>
        <dc:type
           rdf:resource="http://purl.org/dc/dcmitype/StillImage" />
        <dc:title />
      </cc:Work>
    </rdf:RDF>
  </metadata>
  <defs
     id="defs10049" />
  <g
     transform="matrix(0.18181771,0,0,0.18636805,-187.73149,-13.977647)"
     id="heart_3"
     inkscape:label="#heart_3">
    <rect
       transform="scale(-1)"
       width="433.73785"
       height="658.73773"
       rx="20.746819"
       ry="22.528988"
       x="-1466.8948"
       y="-734.36902"
       id="rect5568"
       style="display:inline;fill:#ffffff;fill-opacity:1;stroke:#000000;stroke-width:1.26211;stroke-miterlimit:4;stroke-dasharray:none;stroke-opacity:1" />
    <path
       d="m 1064.3774,122.9918 q 3.0468,1.0442 4.6921,3.7127 1.7063,2.6105 1.7063,6.7873 0,5.5691 -2.8641,8.8176 -2.8031,3.1906 -8.5312,3.1906 -2.2547,0 -4.3875,-0.6381 -2.1329,-0.6381 -3.7172,-1.6822 l 1.4016,-4.0609 q 1.4015,0.8122 2.925,1.3923 1.5843,0.5801 3.2906,0.5801 3.1078,0 4.8141,-1.7983 1.7671,-1.8564 1.7671,-5.8591 0,-4.0028 -1.95,-6.0331 -1.8891,-2.0305 -6.0937,-2.0305 h -1.5844 v -4.2348 h 1.3406 q 3.6563,0 5.4234,-1.8563 1.7673,-1.8564 1.7673,-5.163 0,-3.1326 -1.4016,-4.6409 -1.4016,-1.5662 -3.7172,-1.5662 -1.5844,0 -3.0469,0.58 -1.4016,0.5801 -2.4375,1.4503 l -2.0718,-3.6547 q 1.5843,-1.3923 3.7171,-2.0884 2.1938,-0.6961 4.3266,-0.6961 4.7531,0 7.3125,2.8425 2.5594,2.8426 2.5594,7.5414 0,3.3067 -1.4016,5.6271 -1.3406,2.2624 -3.839,3.4807 z"
       id="path5603"
       inkscape:connector-curvature="0"
       style="font-style:normal;font-variant:normal;font-weight:normal;font-stretch:normal;font-size:medium;line-height:125%;font-family:'Ubuntu Condensed';-inkscape-font-specification:'Ubuntu Condensed, ';letter-spacing:0px;word-spacing:0px;fill:#ff0000;fill-opacity:1;stroke:none;stroke-width:1px;stroke-linecap:butt;stroke-linejoin:miter;stroke-opacity:1" />
    <path
       inkscape:connector-curvature="0"
       id="path5633"
       d="m 1435.6742,687.0082 q -3.0468,-1.0441 -4.6921,-3.7127 -1.7063,-2.6104 -1.7063,-6.7873 0,-5.569 2.8641,-8.8176 2.8031,-3.1906 8.5312,-3.1906 2.2547,0 4.3876,0.6381 2.1328,0.6381 3.7171,1.6823 l -1.4016,4.0608 q -1.4015,-0.8121 -2.925,-1.3923 -1.5843,-0.58 -3.2905,-0.58 -3.1079,0 -4.8142,1.7983 -1.7671,1.8563 -1.7671,5.8591 0,4.0028 1.95,6.0331 1.8891,2.0304 6.0937,2.0304 h 1.5844 v 4.2348 h -1.3406 q -3.6562,0 -5.4234,1.8564 -1.7673,1.8563 -1.7673,5.1629 0,3.1327 1.4016,4.6409 1.4016,1.5663 3.7172,1.5663 1.5844,0 3.0469,-0.5801 1.4016,-0.5801 2.4375,-1.4502 l 2.0718,3.6546 q -1.5843,1.3923 -3.7171,2.0884 -2.1937,0.6962 -4.3266,0.6962 -4.7531,0 -7.3125,-2.8425 -2.5593,-2.8426 -2.5593,-7.5415 0,-3.3067 1.4015,-5.6271 1.3406,-2.2624 3.839,-3.4807 z"
       style="font-style:normal;font-variant:normal;font-weight:normal;font-stretch:normal;font-size:medium;line-height:125%;font-family:'Ubuntu Condensed';-inkscape-font-specification:'Ubuntu Condensed, ';letter-spacing:0px;word-spacing:0px;fill:#ff0000;fill-opacity:1;stroke:none;stroke-width:1px;stroke-linecap:butt;stroke-linejoin:miter;stroke-opacity:1" />
    <path
       style="fill:#fe0808"
       d="m 1241.5179,210.4764 c -3.7911,-6.7504 -13.0054,-19.0694 -20.476,-27.3754 -17.9393,-19.9453 -23.864,-29.67 -24.7928,-40.6952 -0.6212,-7.3754 -0.1031,-9.5506 3.5772,-15.0254 5.6179,-8.3567 12.909,-12.6226 21.5866,-12.6303 12.9281,0 23.5725,7.3768 25.6974,17.836 1.1568,5.6925 4.6743,5.6925 5.831,0 2.125,-10.4592 12.7693,-17.847 25.6976,-17.836 8.6775,0 15.9684,4.2736 21.5865,12.6303 3.6806,5.4748 4.1984,7.65 3.5771,15.0254 -0.9289,11.0252 -6.8534,20.7499 -24.7927,40.6952 -7.4707,8.306 -16.6848,20.625 -20.4762,27.3754 -3.7909,6.7504 -7.6195,12.2737 -8.5078,12.2737 -0.8882,0 -4.7167,-5.5233 -8.5079,-12.2737 z"
       id="path5838"
       inkscape:connector-curvature="0" />
    <path
       inkscape:connector-curvature="0"
       id="path5842"
       d="m 1241.5179,599.5237 c -3.7911,6.7504 -13.0054,19.0694 -20.476,27.3754 -17.9393,19.9453 -23.864,29.67 -24.7928,40.6952 -0.6212,7.3754 -0.1031,9.5506 3.5772,15.0254 5.6179,8.3567 12.909,12.6226 21.5866,12.6303 12.9281,0 23.5725,-7.3768 25.6974,-17.836 1.1568,-5.6925 4.6743,-5.6925 5.831,0 2.125,10.4592 12.7693,17.847 25.6976,17.836 8.6775,0 15.9684,-4.2736 21.5865,-12.6303 3.6806,-5.4748 4.1984,-7.65 3.5771,-15.0254 -0.9289,-11.0252 -6.8534,-20.7499 -24.7927,-40.6952 -7.4707,-8.306 -16.6848,-20.625 -20.4762,-27.3754 -3.7909,-6.7504 -7.6195,-12.2737 -8.5078,-12.2737 -0.8882,0 -4.7167,5.5233 -8.5079,12.2737 z"
       style="fill:#fe0808" />
    <path
       inkscape:connector-curvature="0"
       id="path5846"
       d="m 1241.5179,446.7264 c -3.7911,-6.7504 -13.0054,-19.0694 -20.476,-27.3754 -17.9393,-19.9453 -23.864,-29.67 -24.7928,-40.6952 -0.6212,-7.3754 -0.1031,-9.5506 3.5772,-15.0254 5.6179,-8.3567 12.909,-12.6226 21.5866,-12.6303 12.9281,0 23.5725,7.3768 25.6974,17.836 1.1568,5.6925 4.6743,5.6925 5.831,0 2.125,-10.4592 12.7693,-17.847 25.6976,-17.836 8.6775,0 15.9684,4.2736 21.5865,12.6303 3.6806,5.4748 4.1984,7.65 3.5771,15.0254 -0.9289,11.0252 -6.8534,20.7499 -24.7927,40.6952 -7.4707,8.306 -16.6848,20.625 -20.4762,27.3754 -3.7909,6.7504 -7.6195,12.2737 -8.5078,12.2737 -0.8882,0 -4.7167,-5.5233 -8.5079,-12.2737 z"
       style="fill:#fe0808" />
  </g>
</svg>
