<?xml version="1.0" encoding="UTF-8" standalone="no"?>
<!-- Created with Inkscape (http://www.inkscape.org/) -->

<svg
   id="svg10047"
   height="123.00288"
   width="79.090698"
   version="1.1"
   viewBox="0 0 79.090698 123.00288"
   inkscape:version="0.91 r13725"
   sodipodi:docname="baccarat.svgz"
   xmlns:inkscape="http://www.inkscape.org/namespaces/inkscape"
   xmlns:sodipodi="http://sodipodi.sourceforge.net/DTD/sodipodi-0.dtd"
   xmlns="http://www.w3.org/2000/svg"
   xmlns:svg="http://www.w3.org/2000/svg"
   xmlns:rdf="http://www.w3.org/1999/02/22-rdf-syntax-ns#"
   xmlns:cc="http://creativecommons.org/ns#"
   xmlns:dc="http://purl.org/dc/elements/1.1/">
  <sodipodi:namedview
     pagecolor="#ffffff"
     bordercolor="#666666"
     borderopacity="1"
     objecttolerance="10"
     gridtolerance="10"
     guidetolerance="10"
     inkscape:pageopacity="0"
     inkscape:pageshadow="2"
     inkscape:window-width="1920"
     inkscape:window-height="1016"
     id="namedview1491"
     showgrid="false"
     inkscape:zoom="1.3479675"
     inkscape:cx="513.49999"
     inkscape:cy="307.5"
     inkscape:window-x="0"
     inkscape:window-y="0"
     inkscape:window-maximized="1"
     inkscape:current-layer="svg10047"
     showguides="false"
     inkscape:guide-bbox="true"
     inkscape:snap-grids="true"
     inkscape:showpageshadow="2"
     inkscape:pagecheckerboard="0"
     inkscape:deskcolor="#d1d1d1" />
  <metadata
     id="metadata16869">
    <rdf:RDF>
      <cc:Work
         rdf:about="">
        <dc:format>image/svg+xml</dc:format>
        <dc:type
           rdf:resource="http://purl.org/dc/dcmitype/StillImage" />
        <dc:title />
      </cc:Work>
    </rdf:RDF>
  </metadata>
  <defs
     id="defs10049" />
  <g
     transform="matrix(0.18181771,0,0,0.18636805,-569.54863,-13.977647)"
     id="heart_7"
     inkscape:label="#heart_7">
    <rect
       style="display:inline;fill:#ffffff;fill-opacity:1;stroke:#000000;stroke-width:1.26211;stroke-miterlimit:4;stroke-dasharray:none;stroke-opacity:1"
       id="rect5506"
       y="-734.36902"
       x="-3566.8945"
       ry="22.528988"
       rx="20.746819"
       height="658.73773"
       width="433.73785"
       transform="scale(-1)" />
    <path
       d="m 3155.4241,145.5 q 0.1171,-2.909 0.5856,-6.2424 0.5271,-3.3939 1.2883,-6.8485 0.7613,-3.4545 1.6396,-6.9091 0.937,-3.5151 1.991,-6.6667 1.0541,-3.212 2.1081,-5.9394 1.054,-2.7272 2.1082,-4.7878 H 3151.325 V 103.5 h 19.5 v 4.0607 q -1.4054,2.3635 -3.1036,6.4848 -1.6982,4.0606 -3.2207,9.2121 -1.464,5.0909 -2.5766,10.8485 -1.1126,5.7576 -1.3469,11.3939 z"
       id="path5595"
       inkscape:connector-curvature="0"
       style="font-style:normal;font-variant:normal;font-weight:normal;font-stretch:normal;font-size:medium;line-height:125%;font-family:'Ubuntu Condensed';-inkscape-font-specification:'Ubuntu Condensed, ';letter-spacing:0px;word-spacing:0px;fill:#ff0000;fill-opacity:1;stroke:none;stroke-width:1px;stroke-linecap:butt;stroke-linejoin:miter;stroke-opacity:1" />
    <path
       inkscape:connector-curvature="0"
       id="path5625"
       d="m 3544.7259,664.4999 q -0.1171,2.9091 -0.5856,6.2425 -0.5271,3.3939 -1.2883,6.8484 -0.7613,3.4546 -1.6396,6.9092 -0.937,3.515 -1.991,6.6666 -1.0541,3.2121 -2.1081,5.9394 -1.054,2.7273 -2.1082,4.7879 h 13.8199 V 706.5 h -19.5 v -4.0607 q 1.4054,-2.3636 3.1036,-6.4848 1.6982,-4.0607 3.2207,-9.2121 1.464,-5.091 2.5766,-10.8486 1.1126,-5.7576 1.3469,-11.3939 z"
       style="font-style:normal;font-variant:normal;font-weight:normal;font-stretch:normal;font-size:medium;line-height:125%;font-family:'Ubuntu Condensed';-inkscape-font-specification:'Ubuntu Condensed, ';letter-spacing:0px;word-spacing:0px;fill:#ff0000;fill-opacity:1;stroke:none;stroke-width:1px;stroke-linecap:butt;stroke-linejoin:miter;stroke-opacity:1" />
    <path
       style="fill:#fe0808"
       d="m 3229.0177,210.4764 c -3.7911,-6.7504 -13.0054,-19.0694 -20.476,-27.3754 -17.9393,-19.9453 -23.864,-29.67 -24.7928,-40.6952 -0.6212,-7.3754 -0.1031,-9.5506 3.5772,-15.0254 5.6179,-8.3567 12.909,-12.6226 21.5866,-12.6303 12.9281,0 23.5725,7.3768 25.6974,17.836 1.1568,5.6925 4.6743,5.6925 5.831,0 2.125,-10.4592 12.7693,-17.847 25.6976,-17.836 8.6775,0 15.9684,4.2736 21.5865,12.6303 3.6806,5.4748 4.1984,7.65 3.5771,15.0254 -0.9289,11.0252 -6.8534,20.7499 -24.7927,40.6952 -7.4707,8.306 -16.6848,20.625 -20.4762,27.3754 -3.7909,6.7504 -7.6195,12.2737 -8.5078,12.2737 -0.8882,0 -4.7167,-5.5233 -8.5079,-12.2737 z"
       id="path5784"
       inkscape:connector-curvature="0" />
    <path
       inkscape:connector-curvature="0"
       id="path5786"
       d="m 3454.0177,210.4764 c -3.7911,-6.7504 -13.0054,-19.0694 -20.476,-27.3754 -17.9393,-19.9453 -23.864,-29.67 -24.7928,-40.6952 -0.6212,-7.3754 -0.1031,-9.5506 3.5772,-15.0254 5.6179,-8.3567 12.909,-12.6226 21.5866,-12.6303 12.9281,0 23.5725,7.3768 25.6974,17.836 1.1568,5.6925 4.6743,5.6925 5.831,0 2.125,-10.4592 12.7693,-17.847 25.6976,-17.836 8.6775,0 15.9684,4.2736 21.5865,12.6303 3.6806,5.4748 4.1984,7.65 3.5771,15.0254 -0.9289,11.0252 -6.8534,20.7499 -24.7927,40.6952 -7.4707,8.306 -16.6848,20.625 -20.4762,27.3754 -3.7909,6.7504 -7.6195,12.2737 -8.5078,12.2737 -0.8882,0 -4.7167,-5.5233 -8.5079,-12.2737 z"
       style="fill:#fe0808" />
    <path
       inkscape:connector-curvature="0"
       id="path5788"
       d="m 3229.0177,446.7264 c -3.7911,-6.7504 -13.0054,-19.0694 -20.476,-27.3754 -17.9393,-19.9453 -23.864,-29.67 -24.7928,-40.6952 -0.6212,-7.3754 -0.1031,-9.5506 3.5772,-15.0254 5.6179,-8.3567 12.909,-12.6226 21.5866,-12.6303 12.9281,0 23.5725,7.3768 25.6974,17.836 1.1568,5.6925 4.6743,5.6925 5.831,0 2.125,-10.4592 12.7693,-17.847 25.6976,-17.836 8.6775,0 15.9684,4.2736 21.5865,12.6303 3.6806,5.4748 4.1984,7.65 3.5771,15.0254 -0.9289,11.0252 -6.8534,20.7499 -24.7927,40.6952 -7.4707,8.306 -16.6848,20.625 -20.4762,27.3754 -3.7909,6.7504 -7.6195,12.2737 -8.5078,12.2737 -0.8882,0 -4.7167,-5.5233 -8.5079,-12.2737 z"
       style="fill:#fe0808" />
    <path
       style="fill:#fe0808"
       d="m 3454.0177,446.7264 c -3.7911,-6.7504 -13.0054,-19.0694 -20.476,-27.3754 -17.9393,-19.9453 -23.864,-29.67 -24.7928,-40.6952 -0.6212,-7.3754 -0.1031,-9.5506 3.5772,-15.0254 5.6179,-8.3567 12.909,-12.6226 21.5866,-12.6303 12.9281,0 23.5725,7.3768 25.6974,17.836 1.1568,5.6925 4.6743,5.6925 5.831,0 2.125,-10.4592 12.7693,-17.847 25.6976,-17.836 8.6775,0 15.9684,4.2736 21.5865,12.6303 3.6806,5.4748 4.1984,7.65 3.5771,15.0254 -0.9289,11.0252 -6.8534,20.7499 -24.7927,40.6952 -7.4707,8.306 -16.6848,20.625 -20.4762,27.3754 -3.7909,6.7504 -7.6195,12.2737 -8.5078,12.2737 -0.8882,0 -4.7167,-5.5233 -8.5079,-12.2737 z"
       id="path5790"
       inkscape:connector-curvature="0" />
    <path
       inkscape:connector-curvature="0"
       id="path5792"
       d="m 3229.0177,599.5237 c -3.7911,6.7504 -13.0054,19.0694 -20.476,27.3754 -17.9393,19.9453 -23.864,29.67 -24.7928,40.6952 -0.6212,7.3754 -0.1031,9.5506 3.5772,15.0254 5.6179,8.3567 12.909,12.6226 21.5866,12.6303 12.9281,0 23.5725,-7.3768 25.6974,-17.836 1.1568,-5.6925 4.6743,-5.6925 5.831,0 2.125,10.4592 12.7693,17.847 25.6976,17.836 8.6775,0 15.9684,-4.2736 21.5865,-12.6303 3.6806,-5.4748 4.1984,-7.65 3.5771,-15.0254 -0.9289,-11.0252 -6.8534,-20.7499 -24.7927,-40.6952 -7.4707,-8.306 -16.6848,-20.625 -20.4762,-27.3754 -3.7909,-6.7504 -7.6195,-12.2737 -8.5078,-12.2737 -0.8882,0 -4.7167,5.5233 -8.5079,12.2737 z"
       style="fill:#fe0808" />
    <path
       style="fill:#fe0808"
       d="m 3454.0177,599.5237 c -3.7911,6.7504 -13.0054,19.0694 -20.476,27.3754 -17.9393,19.9453 -23.864,29.67 -24.7928,40.6952 -0.6212,7.3754 -0.1031,9.5506 3.5772,15.0254 5.6179,8.3567 12.909,12.6226 21.5866,12.6303 12.9281,0 23.5725,-7.3768 25.6974,-17.836 1.1568,-5.6925 4.6743,-5.6925 5.831,0 2.125,10.4592 12.7693,17.847 25.6976,17.836 8.6775,0 15.9684,-4.2736 21.5865,-12.6303 3.6806,-5.4748 4.1984,-7.65 3.5771,-15.0254 -0.9289,-11.0252 -6.8534,-20.7499 -24.7927,-40.6952 -7.4707,-8.306 -16.6848,-20.625 -20.4762,-27.3754 -3.7909,-6.7504 -7.6195,-12.2737 -8.5078,-12.2737 -0.8882,0 -4.7167,5.5233 -8.5079,12.2737 z"
       id="path5794"
       inkscape:connector-curvature="0" />
    <path
       inkscape:connector-curvature="0"
       id="path5796"
       d="m 3341.5177,328.6014 c -3.7911,-6.7504 -13.0054,-19.0694 -20.476,-27.3754 -17.9393,-19.9453 -23.864,-29.67 -24.7928,-40.6952 -0.6212,-7.3754 -0.1031,-9.5506 3.5772,-15.0254 5.6179,-8.3567 12.909,-12.6226 21.5866,-12.6303 12.9281,0 23.5725,7.3768 25.6974,17.836 1.1568,5.6925 4.6743,5.6925 5.831,0 2.125,-10.4592 12.7693,-17.847 25.6976,-17.836 8.6775,0 15.9684,4.2736 21.5865,12.6303 3.6806,5.4748 4.1984,7.65 3.5771,15.0254 -0.9289,11.0252 -6.8534,20.7499 -24.7927,40.6952 -7.4707,8.306 -16.6848,20.625 -20.4762,27.3754 -3.7909,6.7504 -7.6195,12.2737 -8.5078,12.2737 -0.8882,0 -4.7167,-5.5233 -8.5079,-12.2737 z"
       style="fill:#fe0808" />
  </g>
</svg>
