<?xml version="1.0" encoding="UTF-8" standalone="no"?>
<!-- Created with Inkscape (http://www.inkscape.org/) -->

<svg
   id="svg10047"
   height="123.00288"
   width="79.090698"
   version="1.1"
   viewBox="0 0 79.090698 123.00288"
   inkscape:version="0.91 r13725"
   sodipodi:docname="baccarat.svgz"
   xmlns:inkscape="http://www.inkscape.org/namespaces/inkscape"
   xmlns:sodipodi="http://sodipodi.sourceforge.net/DTD/sodipodi-0.dtd"
   xmlns="http://www.w3.org/2000/svg"
   xmlns:svg="http://www.w3.org/2000/svg"
   xmlns:rdf="http://www.w3.org/1999/02/22-rdf-syntax-ns#"
   xmlns:cc="http://creativecommons.org/ns#"
   xmlns:dc="http://purl.org/dc/elements/1.1/">
  <sodipodi:namedview
     pagecolor="#ffffff"
     bordercolor="#666666"
     borderopacity="1"
     objecttolerance="10"
     gridtolerance="10"
     guidetolerance="10"
     inkscape:pageopacity="0"
     inkscape:pageshadow="2"
     inkscape:window-width="1920"
     inkscape:window-height="1016"
     id="namedview1491"
     showgrid="false"
     inkscape:zoom="1.3479675"
     inkscape:cx="513.49999"
     inkscape:cy="307.5"
     inkscape:window-x="0"
     inkscape:window-y="0"
     inkscape:window-maximized="1"
     inkscape:current-layer="svg10047"
     showguides="false"
     inkscape:guide-bbox="true"
     inkscape:snap-grids="true"
     inkscape:showpageshadow="2"
     inkscape:pagecheckerboard="0"
     inkscape:deskcolor="#d1d1d1" />
  <metadata
     id="metadata16869">
    <rdf:RDF>
      <cc:Work
         rdf:about="">
        <dc:format>image/svg+xml</dc:format>
        <dc:type
           rdf:resource="http://purl.org/dc/dcmitype/StillImage" />
        <dc:title />
      </cc:Work>
    </rdf:RDF>
  </metadata>
  <defs
     id="defs10049" />
  <g
     transform="matrix(0.18181771,0,0,0.18636805,-378.64004,-13.977647)"
     id="heart_5"
     inkscape:label="#heart_5">
    <rect
       style="display:inline;fill:#ffffff;fill-opacity:1;stroke:#000000;stroke-width:1.26211;stroke-miterlimit:4;stroke-dasharray:none;stroke-opacity:1"
       id="rect5540"
       y="-734.36902"
       x="-2516.8945"
       ry="22.528988"
       rx="20.746819"
       height="658.73773"
       width="433.73785"
       transform="scale(-1)" />
    <path
       d="m 2110.0883,107.9493 q -0.3126,4.2711 -0.4376,7.1186 -0.125,2.8474 -0.25,4.5084 5.875,0.7712 8.6251,4.0339 2.7499,3.2628 2.7499,8.839 0,3.1441 -0.9374,5.5763 -0.9375,2.4322 -2.625,4.0932 -1.625,1.661 -3.875,2.4915 -2.2501,0.8898 -4.875,0.8898 -1.8126,0 -3.6876,-0.4745 -1.875,-0.4746 -3.5,-1.3644 l 1.4999,-4.2119 q 2.6876,1.4237 5.5001,1.4237 3,0 5.0626,-2.0763 2.0624,-2.0762 2.0624,-6.3474 0,-4.6864 -2.8125,-6.7034 -2.75,-2.0763 -8.4375,-2.3135 0.3125,-2.9661 0.5,-5.3983 0.1875,-2.4915 0.3125,-4.8051 0.125,-2.3729 0.1875,-4.6865 0.125,-2.3729 0.1875,-5.0423 h 14.625 v 4.4492 z"
       id="path5599"
       inkscape:connector-curvature="0"
       style="font-style:normal;font-variant:normal;font-weight:normal;font-stretch:normal;font-size:medium;line-height:125%;font-family:'Ubuntu Condensed';-inkscape-font-specification:'Ubuntu Condensed, ';letter-spacing:0px;word-spacing:0px;fill:#ff0000;fill-opacity:1;stroke:none;stroke-width:1px;stroke-linecap:butt;stroke-linejoin:miter;stroke-opacity:1" />
    <path
       inkscape:connector-curvature="0"
       id="path5629"
       d="m 2489.9632,702.0509 q 0.3126,-4.2711 0.4376,-7.1186 0.125,-2.8475 0.2499,-4.5085 -5.8749,-0.7712 -8.625,-4.0339 -2.75,-3.2627 -2.75,-8.839 0,-3.144 0.9375,-5.5762 0.9375,-2.4323 2.625,-4.0933 1.625,-1.661 3.875,-2.4915 2.25,-0.8898 4.875,-0.8898 1.8126,0 3.6876,0.4745 1.8749,0.4746 3.4999,1.3644 l -1.4999,4.2119 q -2.6875,-1.4237 -5.5,-1.4237 -3,0 -5.0626,2.0763 -2.0624,2.0762 -2.0624,6.3474 0,4.6864 2.8124,6.7034 2.7501,2.0763 8.4376,2.3136 -0.3126,2.9661 -0.5,5.3983 -0.1875,2.4915 -0.3125,4.805 -0.125,2.373 -0.1875,4.6865 -0.1251,2.3729 -0.1876,5.0424 h -14.625 v -4.4492 z"
       style="font-style:normal;font-variant:normal;font-weight:normal;font-stretch:normal;font-size:medium;line-height:125%;font-family:'Ubuntu Condensed';-inkscape-font-specification:'Ubuntu Condensed, ';letter-spacing:0px;word-spacing:0px;fill:#ff0000;fill-opacity:1;stroke:none;stroke-width:1px;stroke-linecap:butt;stroke-linejoin:miter;stroke-opacity:1" />
    <path
       inkscape:connector-curvature="0"
       id="path5814"
       d="m 2179.0178,210.4764 c -3.7911,-6.7504 -13.0054,-19.0694 -20.476,-27.3754 -17.9393,-19.9453 -23.864,-29.67 -24.7928,-40.6952 -0.6212,-7.3754 -0.1031,-9.5506 3.5772,-15.0254 5.6179,-8.3567 12.909,-12.6226 21.5866,-12.6303 12.9281,0 23.5725,7.3768 25.6974,17.836 1.1568,5.6925 4.6743,5.6925 5.831,0 2.125,-10.4592 12.7693,-17.847 25.6976,-17.836 8.6775,0 15.9684,4.2736 21.5865,12.6303 3.6806,5.4748 4.1984,7.65 3.5771,15.0254 -0.9289,11.0252 -6.8534,20.7499 -24.7927,40.6952 -7.4707,8.306 -16.6848,20.625 -20.4762,27.3754 -3.7909,6.7504 -7.6195,12.2737 -8.5078,12.2737 -0.8882,0 -4.7167,-5.5233 -8.5079,-12.2737 z"
       style="fill:#fe0808" />
    <path
       style="fill:#fe0808"
       d="m 2404.0178,210.4764 c -3.7911,-6.7504 -13.0054,-19.0694 -20.476,-27.3754 -17.9393,-19.9453 -23.864,-29.67 -24.7928,-40.6952 -0.6212,-7.3754 -0.1031,-9.5506 3.5772,-15.0254 5.6179,-8.3567 12.909,-12.6226 21.5866,-12.6303 12.9281,0 23.5725,7.3768 25.6974,17.836 1.1568,5.6925 4.6743,5.6925 5.831,0 2.125,-10.4592 12.7693,-17.847 25.6976,-17.836 8.6775,0 15.9684,4.2736 21.5865,12.6303 3.6806,5.4748 4.1984,7.65 3.5771,15.0254 -0.9289,11.0252 -6.8534,20.7499 -24.7927,40.6952 -7.4707,8.306 -16.6848,20.625 -20.4762,27.3754 -3.7909,6.7504 -7.6195,12.2737 -8.5078,12.2737 -0.8882,0 -4.7167,-5.5233 -8.5079,-12.2737 z"
       id="path5816"
       inkscape:connector-curvature="0" />
    <path
       style="fill:#fe0808"
       d="m 2179.0178,599.5237 c -3.7911,6.7504 -13.0054,19.0694 -20.476,27.3754 -17.9393,19.9453 -23.864,29.67 -24.7928,40.6952 -0.6212,7.3754 -0.1031,9.5506 3.5772,15.0254 5.6179,8.3567 12.909,12.6226 21.5866,12.6303 12.9281,0 23.5725,-7.3768 25.6974,-17.836 1.1568,-5.6925 4.6743,-5.6925 5.831,0 2.125,10.4592 12.7693,17.847 25.6976,17.836 8.6775,0 15.9684,-4.2736 21.5865,-12.6303 3.6806,-5.4748 4.1984,-7.65 3.5771,-15.0254 -0.9289,-11.0252 -6.8534,-20.7499 -24.7927,-40.6952 -7.4707,-8.306 -16.6848,-20.625 -20.4762,-27.3754 -3.7909,-6.7504 -7.6195,-12.2737 -8.5078,-12.2737 -0.8882,0 -4.7167,5.5233 -8.5079,12.2737 z"
       id="path5822"
       inkscape:connector-curvature="0" />
    <path
       inkscape:connector-curvature="0"
       id="path5824"
       d="m 2404.0178,599.5237 c -3.7911,6.7504 -13.0054,19.0694 -20.476,27.3754 -17.9393,19.9453 -23.864,29.67 -24.7928,40.6952 -0.6212,7.3754 -0.1031,9.5506 3.5772,15.0254 5.6179,8.3567 12.909,12.6226 21.5866,12.6303 12.9281,0 23.5725,-7.3768 25.6974,-17.836 1.1568,-5.6925 4.6743,-5.6925 5.831,0 2.125,10.4592 12.7693,17.847 25.6976,17.836 8.6775,0 15.9684,-4.2736 21.5865,-12.6303 3.6806,-5.4748 4.1984,-7.65 3.5771,-15.0254 -0.9289,-11.0252 -6.8534,-20.7499 -24.7927,-40.6952 -7.4707,-8.306 -16.6848,-20.625 -20.4762,-27.3754 -3.7909,-6.7504 -7.6195,-12.2737 -8.5078,-12.2737 -0.8882,0 -4.7167,5.5233 -8.5079,12.2737 z"
       style="fill:#fe0808" />
    <path
       style="fill:#fe0808"
       d="m 2291.5178,446.7264 c -3.7911,-6.7504 -13.0054,-19.0694 -20.476,-27.3754 -17.9393,-19.9453 -23.864,-29.67 -24.7928,-40.6952 -0.6212,-7.3754 -0.1031,-9.5506 3.5772,-15.0254 5.6179,-8.3567 12.909,-12.6226 21.5866,-12.6303 12.9281,0 23.5725,7.3768 25.6974,17.836 1.1568,5.6925 4.6743,5.6925 5.831,0 2.125,-10.4592 12.7693,-17.847 25.6976,-17.836 8.6775,0 15.9684,4.2736 21.5865,12.6303 3.6806,5.4748 4.1984,7.65 3.5771,15.0254 -0.9289,11.0252 -6.8534,20.7499 -24.7927,40.6952 -7.4707,8.306 -16.6848,20.625 -20.4762,27.3754 -3.7909,6.7504 -7.6195,12.2737 -8.5078,12.2737 -0.8882,0 -4.7167,-5.5233 -8.5079,-12.2737 z"
       id="path5826"
       inkscape:connector-curvature="0" />
  </g>
</svg>
