<?xml version="1.0" encoding="UTF-8" standalone="no"?>
<!-- Created with Inkscape (http://www.inkscape.org/) -->

<svg
   id="svg10047"
   height="123.00288"
   width="79.090698"
   version="1.1"
   viewBox="0 0 79.090698 123.00288"
   inkscape:version="0.91 r13725"
   sodipodi:docname="baccarat.svgz"
   xmlns:inkscape="http://www.inkscape.org/namespaces/inkscape"
   xmlns:sodipodi="http://sodipodi.sourceforge.net/DTD/sodipodi-0.dtd"
   xmlns="http://www.w3.org/2000/svg"
   xmlns:svg="http://www.w3.org/2000/svg"
   xmlns:rdf="http://www.w3.org/1999/02/22-rdf-syntax-ns#"
   xmlns:cc="http://creativecommons.org/ns#"
   xmlns:dc="http://purl.org/dc/elements/1.1/">
  <sodipodi:namedview
     pagecolor="#ffffff"
     bordercolor="#666666"
     borderopacity="1"
     objecttolerance="10"
     gridtolerance="10"
     guidetolerance="10"
     inkscape:pageopacity="0"
     inkscape:pageshadow="2"
     inkscape:window-width="1920"
     inkscape:window-height="1016"
     id="namedview1491"
     showgrid="false"
     inkscape:zoom="1.3479675"
     inkscape:cx="513.49999"
     inkscape:cy="307.5"
     inkscape:window-x="0"
     inkscape:window-y="0"
     inkscape:window-maximized="1"
     inkscape:current-layer="svg10047"
     showguides="false"
     inkscape:guide-bbox="true"
     inkscape:snap-grids="true"
     inkscape:showpageshadow="2"
     inkscape:pagecheckerboard="0"
     inkscape:deskcolor="#d1d1d1" />
  <metadata
     id="metadata16869">
    <rdf:RDF>
      <cc:Work
         rdf:about="">
        <dc:format>image/svg+xml</dc:format>
        <dc:type
           rdf:resource="http://purl.org/dc/dcmitype/StillImage" />
        <dc:title />
      </cc:Work>
    </rdf:RDF>
  </metadata>
  <defs
     id="defs10049" />
  <g
     transform="matrix(0.18181771,0,0,0.18636805,-474.09434,-13.977647)"
     id="heart_6"
     inkscape:label="#heart_6">
    <rect
       transform="scale(-1)"
       width="433.73785"
       height="658.73773"
       rx="20.746819"
       ry="22.528988"
       x="-3041.8945"
       y="-734.36902"
       id="rect5524"
       style="display:inline;fill:#ffffff;fill-opacity:1;stroke:#000000;stroke-width:1.26211;stroke-miterlimit:4;stroke-dasharray:none;stroke-opacity:1" />
    <path
       d="m 2643.9533,107.8122 q -2.3084,0.2363 -4.2524,0.8862 -2.0047,0.7088 -3.5234,2.1265 -1.5187,1.4177 -2.5513,3.7216 -1.0935,2.3628 -1.5794,5.9071 2.3691,-0.9451 4.4345,-0.9451 4.3738,0 6.8645,3.308 2.4299,3.367 2.4299,9.2152 0,6.2616 -2.2477,9.8649 -2.3084,3.6034 -7.229,3.6034 -2.4906,0 -4.3737,-0.9451 -1.8833,-0.9452 -3.0982,-3.1308 -1.2757,-2.1266 -1.8832,-5.671 -0.6682,-3.4852 -0.6682,-8.5653 0,-4.4895 0.9113,-8.6836 0.8504,-4.1941 2.855,-7.5021 2.0048,-3.2489 5.2851,-5.3164 3.2804,-2.0084 8.0795,-2.1857 z m -8.7477,15.8312 q -1.8225,0 -3.5841,1.0634 0,0.7089 0,1.4177 -0.061,0.768 -0.061,1.5949 0,2.7173 0.1215,5.1392 0.1215,2.4811 0.6075,4.3123 0.486,1.8902 1.458,2.9536 0.9111,1.1224 2.4906,1.1224 2.3692,0 3.3411,-2.4811 0.9113,-2.4219 0.9113,-6.4979 0,-4.4304 -1.2758,-6.5569 -1.3364,-2.0676 -4.0093,-2.0676 z"
       id="path5597"
       inkscape:connector-curvature="0"
       style="font-style:normal;font-variant:normal;font-weight:normal;font-stretch:normal;font-size:medium;line-height:125%;font-family:'Ubuntu Condensed';-inkscape-font-specification:'Ubuntu Condensed, ';letter-spacing:0px;word-spacing:0px;fill:#ff0000;fill-opacity:1;stroke:none;stroke-width:1px;stroke-linecap:butt;stroke-linejoin:miter;stroke-opacity:1" />
    <path
       inkscape:connector-curvature="0"
       id="path5627"
       d="m 3006.0981,702.1878 q 2.3084,-0.2363 4.2524,-0.8861 2.0046,-0.7089 3.5233,-2.1266 1.5187,-1.4177 2.5514,-3.7216 1.0934,-2.3628 1.5794,-5.907 -2.3691,0.945 -4.4345,0.945 -4.3739,0 -6.8646,-3.308 -2.4298,-3.367 -2.4298,-9.2152 0,-6.2616 2.2476,-9.8649 2.3085,-3.6034 7.229,-3.6034 2.4906,0 4.3738,0.9452 1.8832,0.9451 3.0981,3.1308 1.2757,2.1265 1.8833,5.6709 0.6682,3.4852 0.6682,8.5653 0,4.4895 -0.9113,8.6836 -0.8504,4.1941 -2.8551,7.5021 -2.0047,3.2489 -5.2851,5.3164 -3.2803,2.0084 -8.0794,2.1857 z m 8.7476,-15.8312 q 1.8225,0 3.5842,-1.0633 0,-0.7089 0,-1.4178 0.061,-0.7679 0.061,-1.5949 0,-2.7173 -0.1214,-5.1392 -0.1215,-2.4811 -0.6076,-4.3123 -0.4859,-1.8902 -1.4579,-2.9536 -0.9112,-1.1223 -2.4906,-1.1223 -2.3692,0 -3.3411,2.481 -0.9113,2.4219 -0.9113,6.4979 0,4.4304 1.2757,6.5569 1.3365,2.0676 4.0093,2.0676 z"
       style="font-style:normal;font-variant:normal;font-weight:normal;font-stretch:normal;font-size:medium;line-height:125%;font-family:'Ubuntu Condensed';-inkscape-font-specification:'Ubuntu Condensed, ';letter-spacing:0px;word-spacing:0px;fill:#ff0000;fill-opacity:1;stroke:none;stroke-width:1px;stroke-linecap:butt;stroke-linejoin:miter;stroke-opacity:1" />
    <path
       inkscape:connector-curvature="0"
       id="path5800"
       d="m 2704.0178,210.4764 c -3.7911,-6.7504 -13.0054,-19.0694 -20.476,-27.3754 -17.9393,-19.9453 -23.864,-29.67 -24.7928,-40.6952 -0.6212,-7.3754 -0.1031,-9.5506 3.5772,-15.0254 5.6179,-8.3567 12.909,-12.6226 21.5866,-12.6303 12.9281,0 23.5725,7.3768 25.6974,17.836 1.1568,5.6925 4.6743,5.6925 5.831,0 2.125,-10.4592 12.7693,-17.847 25.6976,-17.836 8.6775,0 15.9684,4.2736 21.5865,12.6303 3.6806,5.4748 4.1984,7.65 3.5771,15.0254 -0.9289,11.0252 -6.8534,20.7499 -24.7927,40.6952 -7.4707,8.306 -16.6848,20.625 -20.4762,27.3754 -3.7909,6.7504 -7.6195,12.2737 -8.5078,12.2737 -0.8882,0 -4.7167,-5.5233 -8.5079,-12.2737 z"
       style="fill:#fe0808" />
    <path
       style="fill:#fe0808"
       d="m 2929.0178,210.4764 c -3.7911,-6.7504 -13.0054,-19.0694 -20.476,-27.3754 -17.9393,-19.9453 -23.864,-29.67 -24.7928,-40.6952 -0.6212,-7.3754 -0.1031,-9.5506 3.5772,-15.0254 5.6179,-8.3567 12.909,-12.6226 21.5866,-12.6303 12.9281,0 23.5725,7.3768 25.6974,17.836 1.1568,5.6925 4.6743,5.6925 5.831,0 2.125,-10.4592 12.7693,-17.847 25.6976,-17.836 8.6775,0 15.9684,4.2736 21.5865,12.6303 3.6806,5.4748 4.1984,7.65 3.5771,15.0254 -0.9289,11.0252 -6.8534,20.7499 -24.7927,40.6952 -7.4707,8.306 -16.6848,20.625 -20.4762,27.3754 -3.7909,6.7504 -7.6195,12.2737 -8.5078,12.2737 -0.8882,0 -4.7167,-5.5233 -8.5079,-12.2737 z"
       id="path5802"
       inkscape:connector-curvature="0" />
    <path
       style="fill:#fe0808"
       d="m 2704.0178,446.7264 c -3.7911,-6.7504 -13.0054,-19.0694 -20.476,-27.3754 -17.9393,-19.9453 -23.864,-29.67 -24.7928,-40.6952 -0.6212,-7.3754 -0.1031,-9.5506 3.5772,-15.0254 5.6179,-8.3567 12.909,-12.6226 21.5866,-12.6303 12.9281,0 23.5725,7.3768 25.6974,17.836 1.1568,5.6925 4.6743,5.6925 5.831,0 2.125,-10.4592 12.7693,-17.847 25.6976,-17.836 8.6775,0 15.9684,4.2736 21.5865,12.6303 3.6806,5.4748 4.1984,7.65 3.5771,15.0254 -0.9289,11.0252 -6.8534,20.7499 -24.7927,40.6952 -7.4707,8.306 -16.6848,20.625 -20.4762,27.3754 -3.7909,6.7504 -7.6195,12.2737 -8.5078,12.2737 -0.8882,0 -4.7167,-5.5233 -8.5079,-12.2737 z"
       id="path5804"
       inkscape:connector-curvature="0" />
    <path
       inkscape:connector-curvature="0"
       id="path5806"
       d="m 2929.0178,446.7264 c -3.7911,-6.7504 -13.0054,-19.0694 -20.476,-27.3754 -17.9393,-19.9453 -23.864,-29.67 -24.7928,-40.6952 -0.6212,-7.3754 -0.1031,-9.5506 3.5772,-15.0254 5.6179,-8.3567 12.909,-12.6226 21.5866,-12.6303 12.9281,0 23.5725,7.3768 25.6974,17.836 1.1568,5.6925 4.6743,5.6925 5.831,0 2.125,-10.4592 12.7693,-17.847 25.6976,-17.836 8.6775,0 15.9684,4.2736 21.5865,12.6303 3.6806,5.4748 4.1984,7.65 3.5771,15.0254 -0.9289,11.0252 -6.8534,20.7499 -24.7927,40.6952 -7.4707,8.306 -16.6848,20.625 -20.4762,27.3754 -3.7909,6.7504 -7.6195,12.2737 -8.5078,12.2737 -0.8882,0 -4.7167,-5.5233 -8.5079,-12.2737 z"
       style="fill:#fe0808" />
    <path
       style="fill:#fe0808"
       d="m 2704.0178,599.5237 c -3.7911,6.7504 -13.0054,19.0694 -20.476,27.3754 -17.9393,19.9453 -23.864,29.67 -24.7928,40.6952 -0.6212,7.3754 -0.1031,9.5506 3.5772,15.0254 5.6179,8.3567 12.909,12.6226 21.5866,12.6303 12.9281,0 23.5725,-7.3768 25.6974,-17.836 1.1568,-5.6925 4.6743,-5.6925 5.831,0 2.125,10.4592 12.7693,17.847 25.6976,17.836 8.6775,0 15.9684,-4.2736 21.5865,-12.6303 3.6806,-5.4748 4.1984,-7.65 3.5771,-15.0254 -0.9289,-11.0252 -6.8534,-20.7499 -24.7927,-40.6952 -7.4707,-8.306 -16.6848,-20.625 -20.4762,-27.3754 -3.7909,-6.7504 -7.6195,-12.2737 -8.5078,-12.2737 -0.8882,0 -4.7167,5.5233 -8.5079,12.2737 z"
       id="path5808"
       inkscape:connector-curvature="0" />
    <path
       inkscape:connector-curvature="0"
       id="path5810"
       d="m 2929.0178,599.5237 c -3.7911,6.7504 -13.0054,19.0694 -20.476,27.3754 -17.9393,19.9453 -23.864,29.67 -24.7928,40.6952 -0.6212,7.3754 -0.1031,9.5506 3.5772,15.0254 5.6179,8.3567 12.909,12.6226 21.5866,12.6303 12.9281,0 23.5725,-7.3768 25.6974,-17.836 1.1568,-5.6925 4.6743,-5.6925 5.831,0 2.125,10.4592 12.7693,17.847 25.6976,17.836 8.6775,0 15.9684,-4.2736 21.5865,-12.6303 3.6806,-5.4748 4.1984,-7.65 3.5771,-15.0254 -0.9289,-11.0252 -6.8534,-20.7499 -24.7927,-40.6952 -7.4707,-8.306 -16.6848,-20.625 -20.4762,-27.3754 -3.7909,-6.7504 -7.6195,-12.2737 -8.5078,-12.2737 -0.8882,0 -4.7167,5.5233 -8.5079,12.2737 z"
       style="fill:#fe0808" />
  </g>
</svg>
