<?xml version="1.0" encoding="UTF-8" standalone="no"?>
<!-- Created with Inkscape (http://www.inkscape.org/) -->

<svg
   id="svg10047"
   height="123.00287"
   width="79.090691"
   version="1.1"
   viewBox="0 0 79.090691 123.00287"
   inkscape:version="0.91 r13725"
   sodipodi:docname="baccarat.svgz"
   xmlns:inkscape="http://www.inkscape.org/namespaces/inkscape"
   xmlns:sodipodi="http://sodipodi.sourceforge.net/DTD/sodipodi-0.dtd"
   xmlns="http://www.w3.org/2000/svg"
   xmlns:svg="http://www.w3.org/2000/svg"
   xmlns:rdf="http://www.w3.org/1999/02/22-rdf-syntax-ns#"
   xmlns:cc="http://creativecommons.org/ns#"
   xmlns:dc="http://purl.org/dc/elements/1.1/">
  <sodipodi:namedview
     pagecolor="#ffffff"
     bordercolor="#666666"
     borderopacity="1"
     objecttolerance="10"
     gridtolerance="10"
     guidetolerance="10"
     inkscape:pageopacity="0"
     inkscape:pageshadow="2"
     inkscape:window-width="1920"
     inkscape:window-height="1016"
     id="namedview1491"
     showgrid="false"
     inkscape:zoom="1.3479675"
     inkscape:cx="513.49999"
     inkscape:cy="307.5"
     inkscape:window-x="0"
     inkscape:window-y="0"
     inkscape:window-maximized="1"
     inkscape:current-layer="svg10047"
     showguides="false"
     inkscape:guide-bbox="true"
     inkscape:snap-grids="true"
     inkscape:showpageshadow="2"
     inkscape:pagecheckerboard="0"
     inkscape:deskcolor="#d1d1d1" />
  <metadata
     id="metadata16869">
    <rdf:RDF>
      <cc:Work
         rdf:about="">
        <dc:format>image/svg+xml</dc:format>
        <dc:type
           rdf:resource="http://purl.org/dc/dcmitype/StillImage" />
        <dc:title />
      </cc:Work>
    </rdf:RDF>
  </metadata>
  <defs
     id="defs10049" />
  <g
     transform="matrix(0.1818177,0,0,0.18636803,-378.64002,-433.30569)"
     id="spade_5"
     inkscape:label="#spade_5">
    <rect
       transform="scale(-1)"
       width="433.73785"
       height="658.73773"
       rx="20.746819"
       ry="22.528988"
       x="-2516.8945"
       y="-2984.3689"
       id="rect6065"
       style="display:inline;fill:#ffffff;fill-opacity:1;stroke:#000000;stroke-width:1.26211;stroke-miterlimit:4;stroke-dasharray:none;stroke-opacity:1" />
    <rect
       style="display:inline;fill:#ffffff;fill-opacity:1;stroke:#000000;stroke-width:1.26211;stroke-miterlimit:4;stroke-dasharray:none;stroke-opacity:1"
       id="rect6067"
       y="-2984.3689"
       x="-2516.8945"
       ry="22.528988"
       rx="20.746819"
       height="658.73773"
       width="433.73785"
       transform="scale(-1)" />
    <path
       style="font-style:normal;font-variant:normal;font-weight:normal;font-stretch:normal;font-size:medium;line-height:125%;font-family:'Ubuntu Condensed';-inkscape-font-specification:'Ubuntu Condensed, ';letter-spacing:0px;word-spacing:0px;fill:#000000;fill-opacity:1;stroke:none;stroke-width:1px;stroke-linecap:butt;stroke-linejoin:miter;stroke-opacity:1"
       inkscape:connector-curvature="0"
       id="path6093"
       d="m 2110.0883,2357.9493 q -0.3126,4.2711 -0.4376,7.1186 -0.125,2.8474 -0.25,4.5084 5.875,0.7712 8.6251,4.0339 2.7499,3.2628 2.7499,8.839 0,3.1441 -0.9374,5.5763 -0.9375,2.4322 -2.625,4.0932 -1.625,1.661 -3.875,2.4915 -2.2501,0.8898 -4.875,0.8898 -1.8126,0 -3.6876,-0.4745 -1.875,-0.4746 -3.5,-1.3644 l 1.4999,-4.2119 q 2.6876,1.4237 5.5001,1.4237 3,0 5.0626,-2.0763 2.0624,-2.0762 2.0624,-6.3474 0,-4.6864 -2.8125,-6.7034 -2.75,-2.0763 -8.4375,-2.3135 0.3125,-2.9661 0.5,-5.3983 0.1875,-2.4915 0.3125,-4.8051 0.125,-2.3729 0.1875,-4.6865 0.125,-2.3729 0.1875,-5.0423 h 14.625 v 4.4492 z" />
    <path
       style="font-style:normal;font-variant:normal;font-weight:normal;font-stretch:normal;font-size:medium;line-height:125%;font-family:'Ubuntu Condensed';-inkscape-font-specification:'Ubuntu Condensed, ';letter-spacing:0px;word-spacing:0px;fill:#000000;fill-opacity:1;stroke:none;stroke-width:1px;stroke-linecap:butt;stroke-linejoin:miter;stroke-opacity:1"
       d="m 2489.9632,2952.0509 q 0.3126,-4.2711 0.4376,-7.1186 0.125,-2.8475 0.2499,-4.5085 -5.8749,-0.7712 -8.625,-4.0339 -2.75,-3.2627 -2.75,-8.839 0,-3.144 0.9375,-5.5762 0.9375,-2.4323 2.625,-4.0933 1.625,-1.661 3.875,-2.4915 2.25,-0.8898 4.875,-0.8898 1.8126,0 3.6876,0.4745 1.8749,0.4746 3.4999,1.3644 l -1.4999,4.2119 q -2.6875,-1.4237 -5.5,-1.4237 -3,0 -5.0626,2.0763 -2.0624,2.0762 -2.0624,6.3474 0,4.6864 2.8124,6.7034 2.7501,2.0763 8.4376,2.3136 -0.3126,2.9661 -0.5,5.3983 -0.1875,2.4915 -0.3125,4.805 -0.125,2.373 -0.1875,4.6865 -0.1251,2.3729 -0.1876,5.0424 h -14.625 v -4.4492 z"
       id="path6121"
       inkscape:connector-curvature="0" />
    <path
       sodipodi:nodetypes="csscsccccscssccccc"
       style="fill:#0b0b0b"
       d="m 2168.9257,2474.4103 c 7.0026,-5.5377 16.4646,-23.7818 16.4646,-34.2016 0,-5.6567 -2.8777,-6.0293 -8.5476,-1.858 -6.1095,4.4944 -15.5322,5.1007 -22.7032,1.4605 -7.6923,-3.9047 -12.1657,-10.355 -12.9719,-18.7037 -0.9838,-10.1873 2.9413,-16.3483 18.2728,-28.6798 11.6652,-9.3828 23.1358,-21.9554 25.4093,-27.8502 1.0683,-2.7699 4.2835,-2.7699 5.3519,0 2.2734,5.8948 13.7439,18.4674 25.4092,27.8502 15.3315,12.3315 19.2568,18.4925 18.273,28.6798 -0.8064,8.3487 -5.2798,14.799 -12.9721,18.7037 -7.1706,3.6402 -16.5934,3.0339 -22.7029,-1.4605 -5.6701,-4.1713 -8.548,-3.7987 -8.548,1.858 0,10.4198 9.462,28.6639 16.4648,34.2016 0.8427,0.6665 -0.079,0.7715 -2.0791,0.2371 -15.472,-4.131 -17.2895,-4.1302 -33.0419,0.02 -2.0051,0.5274 -2.9234,0.4164 -2.0789,-0.2515 z"
       id="path6407"
       inkscape:connector-curvature="0" />
    <path
       inkscape:connector-curvature="0"
       id="path6409"
       d="m 2393.9257,2474.4103 c 7.0026,-5.5377 16.4646,-23.7818 16.4646,-34.2016 0,-5.6567 -2.8777,-6.0293 -8.5476,-1.858 -6.1095,4.4944 -15.5322,5.1007 -22.7032,1.4605 -7.6923,-3.9047 -12.1657,-10.355 -12.9719,-18.7037 -0.9838,-10.1873 2.9413,-16.3483 18.2728,-28.6798 11.6652,-9.3828 23.1358,-21.9554 25.4093,-27.8502 1.0683,-2.7699 4.2835,-2.7699 5.3519,0 2.2734,5.8948 13.7439,18.4674 25.4092,27.8502 15.3315,12.3315 19.2568,18.4925 18.273,28.6798 -0.8064,8.3487 -5.2798,14.799 -12.9721,18.7037 -7.1706,3.6402 -16.5934,3.0339 -22.7029,-1.4605 -5.6701,-4.1713 -8.548,-3.7987 -8.548,1.858 0,10.4198 9.462,28.6639 16.4648,34.2016 0.8427,0.6665 -0.079,0.7715 -2.0791,0.2371 -15.472,-4.131 -17.2895,-4.1302 -33.0419,0.02 -2.0051,0.5274 -2.9234,0.4164 -2.0789,-0.2515 z"
       style="fill:#0b0b0b"
       sodipodi:nodetypes="csscsccccscssccccc" />
    <path
       inkscape:connector-curvature="0"
       id="path6411"
       d="m 2281.4257,2710.6601 c 7.0026,-5.5376 16.4646,-23.7817 16.4646,-34.2015 0,-5.6567 -2.8777,-6.0294 -8.5476,-1.858 -6.1095,4.4944 -15.5322,5.1007 -22.7032,1.4605 -7.6923,-3.9048 -12.1657,-10.355 -12.9719,-18.7037 -0.9838,-10.1873 2.9413,-16.3483 18.2728,-28.6798 11.6652,-9.3828 23.1358,-21.9554 25.4093,-27.8502 1.0683,-2.7699 4.2835,-2.7699 5.3519,0 2.2734,5.8948 13.7439,18.4674 25.4092,27.8502 15.3315,12.3315 19.2568,18.4925 18.273,28.6798 -0.8064,8.3487 -5.2798,14.7989 -12.9721,18.7037 -7.1706,3.6402 -16.5934,3.0339 -22.7029,-1.4605 -5.6701,-4.1714 -8.548,-3.7987 -8.548,1.858 0,10.4198 9.462,28.6639 16.4648,34.2015 0.8427,0.6666 -0.079,0.7716 -2.0791,0.2372 -15.472,-4.1311 -17.2895,-4.1303 -33.0419,0.02 -2.0051,0.5273 -2.9234,0.4164 -2.0789,-0.2515 z"
       style="fill:#0b0b0b"
       sodipodi:nodetypes="csscsccccscssccccc" />
    <path
       inkscape:connector-curvature="0"
       id="path6415"
       d="m 2168.9257,2835.5899 c 7.0026,5.5376 16.4646,23.7817 16.4646,34.2015 0,5.6567 -2.8777,6.0294 -8.5476,1.858 -6.1095,-4.4944 -15.5322,-5.1007 -22.7032,-1.4605 -7.6923,3.9048 -12.1657,10.355 -12.9719,18.7037 -0.9838,10.1873 2.9413,16.3483 18.2728,28.6798 11.6652,9.3828 23.1358,21.9554 25.4093,27.8502 1.0683,2.7699 4.2835,2.7699 5.3519,0 2.2734,-5.8948 13.7439,-18.4674 25.4092,-27.8502 15.3315,-12.3315 19.2568,-18.4925 18.273,-28.6798 -0.8064,-8.3487 -5.2798,-14.7989 -12.9721,-18.7037 -7.1706,-3.6402 -16.5934,-3.0339 -22.7029,1.4605 -5.6701,4.1714 -8.548,3.7987 -8.548,-1.858 0,-10.4198 9.462,-28.6639 16.4648,-34.2015 0.8427,-0.6666 -0.079,-0.7716 -2.0791,-0.2372 -15.472,4.1311 -17.2895,4.1303 -33.0419,-0.02 -2.0051,-0.5273 -2.9234,-0.4164 -2.0789,0.2515 z"
       style="fill:#0b0b0b"
       sodipodi:nodetypes="csscsccccscssccccc" />
    <path
       sodipodi:nodetypes="csscsccccscssccccc"
       style="fill:#0b0b0b"
       d="m 2393.9257,2835.5899 c 7.0026,5.5376 16.4646,23.7817 16.4646,34.2015 0,5.6567 -2.8777,6.0294 -8.5476,1.858 -6.1095,-4.4944 -15.5322,-5.1007 -22.7032,-1.4605 -7.6923,3.9048 -12.1657,10.355 -12.9719,18.7037 -0.9838,10.1873 2.9413,16.3483 18.2728,28.6798 11.6652,9.3828 23.1358,21.9554 25.4093,27.8502 1.0683,2.7699 4.2835,2.7699 5.3519,0 2.2734,-5.8948 13.7439,-18.4674 25.4092,-27.8502 15.3315,-12.3315 19.2568,-18.4925 18.273,-28.6798 -0.8064,-8.3487 -5.2798,-14.7989 -12.9721,-18.7037 -7.1706,-3.6402 -16.5934,-3.0339 -22.7029,1.4605 -5.6701,4.1714 -8.548,3.7987 -8.548,-1.858 0,-10.4198 9.462,-28.6639 16.4648,-34.2015 0.8427,-0.6666 -0.079,-0.7716 -2.0791,-0.2372 -15.472,4.1311 -17.2895,4.1303 -33.0419,-0.02 -2.0051,-0.5273 -2.9234,-0.4164 -2.0789,0.2515 z"
       id="path6417"
       inkscape:connector-curvature="0" />
    <rect
       style="display:inline;fill:#ffffff;fill-opacity:1;stroke:#000000;stroke-width:1.26211;stroke-miterlimit:4;stroke-dasharray:none;stroke-opacity:1"
       id="rect6421"
       y="-2984.3689"
       x="-2516.8945"
       ry="22.528988"
       rx="20.746819"
       height="658.73773"
       width="433.73785"
       transform="scale(-1)" />
    <path
       d="m 2110.0883,2357.9493 q -0.3126,4.2711 -0.4376,7.1186 -0.125,2.8474 -0.25,4.5084 5.875,0.7712 8.6251,4.0339 2.7499,3.2628 2.7499,8.839 0,3.1441 -0.9374,5.5763 -0.9375,2.4322 -2.625,4.0932 -1.625,1.661 -3.875,2.4915 -2.2501,0.8898 -4.875,0.8898 -1.8126,0 -3.6876,-0.4745 -1.875,-0.4746 -3.5,-1.3644 l 1.4999,-4.2119 q 2.6876,1.4237 5.5001,1.4237 3,0 5.0626,-2.0763 2.0624,-2.0762 2.0624,-6.3474 0,-4.6864 -2.8125,-6.7034 -2.75,-2.0763 -8.4375,-2.3135 0.3125,-2.9661 0.5,-5.3983 0.1875,-2.4915 0.3125,-4.8051 0.125,-2.3729 0.1875,-4.6865 0.125,-2.3729 0.1875,-5.0423 h 14.625 v 4.4492 z"
       id="path6425"
       inkscape:connector-curvature="0"
       style="font-style:normal;font-variant:normal;font-weight:normal;font-stretch:normal;font-size:medium;line-height:125%;font-family:'Ubuntu Condensed';-inkscape-font-specification:'Ubuntu Condensed, ';letter-spacing:0px;word-spacing:0px;fill:#000000;fill-opacity:1;stroke:none;stroke-width:1px;stroke-linecap:butt;stroke-linejoin:miter;stroke-opacity:1" />
    <path
       inkscape:connector-curvature="0"
       id="path6427"
       d="m 2489.9632,2952.0509 q 0.3126,-4.2711 0.4376,-7.1186 0.125,-2.8475 0.2499,-4.5085 -5.8749,-0.7712 -8.625,-4.0339 -2.75,-3.2627 -2.75,-8.839 0,-3.144 0.9375,-5.5762 0.9375,-2.4323 2.625,-4.0933 1.625,-1.661 3.875,-2.4915 2.25,-0.8898 4.875,-0.8898 1.8126,0 3.6876,0.4745 1.8749,0.4746 3.4999,1.3644 l -1.4999,4.2119 q -2.6875,-1.4237 -5.5,-1.4237 -3,0 -5.0626,2.0763 -2.0624,2.0762 -2.0624,6.3474 0,4.6864 2.8124,6.7034 2.7501,2.0763 8.4376,2.3136 -0.3126,2.9661 -0.5,5.3983 -0.1875,2.4915 -0.3125,4.805 -0.125,2.373 -0.1875,4.6865 -0.1251,2.3729 -0.1876,5.0424 h -14.625 v -4.4492 z"
       style="font-style:normal;font-variant:normal;font-weight:normal;font-stretch:normal;font-size:medium;line-height:125%;font-family:'Ubuntu Condensed';-inkscape-font-specification:'Ubuntu Condensed, ';letter-spacing:0px;word-spacing:0px;fill:#000000;fill-opacity:1;stroke:none;stroke-width:1px;stroke-linecap:butt;stroke-linejoin:miter;stroke-opacity:1" />
    <path
       inkscape:connector-curvature="0"
       id="path6429"
       d="m 2168.9257,2474.4103 c 7.0026,-5.5377 16.4646,-23.7818 16.4646,-34.2016 0,-5.6567 -2.8777,-6.0293 -8.5476,-1.858 -6.1095,4.4944 -15.5322,5.1007 -22.7032,1.4605 -7.6923,-3.9047 -12.1657,-10.355 -12.9719,-18.7037 -0.9838,-10.1873 2.9413,-16.3483 18.2728,-28.6798 11.6652,-9.3828 23.1358,-21.9554 25.4093,-27.8502 1.0683,-2.7699 4.2835,-2.7699 5.3519,0 2.2734,5.8948 13.7439,18.4674 25.4092,27.8502 15.3315,12.3315 19.2568,18.4925 18.273,28.6798 -0.8064,8.3487 -5.2798,14.799 -12.9721,18.7037 -7.1706,3.6402 -16.5934,3.0339 -22.7029,-1.4605 -5.6701,-4.1713 -8.548,-3.7987 -8.548,1.858 0,10.4198 9.462,28.6639 16.4648,34.2016 0.8427,0.6665 -0.079,0.7715 -2.0791,0.2371 -15.472,-4.131 -17.2895,-4.1302 -33.0419,0.02 -2.0051,0.5274 -2.9234,0.4164 -2.0789,-0.2515 z"
       style="fill:#0b0b0b"
       sodipodi:nodetypes="csscsccccscssccccc" />
    <path
       sodipodi:nodetypes="csscsccccscssccccc"
       style="fill:#0b0b0b"
       d="m 2393.9257,2474.4103 c 7.0026,-5.5377 16.4646,-23.7818 16.4646,-34.2016 0,-5.6567 -2.8777,-6.0293 -8.5476,-1.858 -6.1095,4.4944 -15.5322,5.1007 -22.7032,1.4605 -7.6923,-3.9047 -12.1657,-10.355 -12.9719,-18.7037 -0.9838,-10.1873 2.9413,-16.3483 18.2728,-28.6798 11.6652,-9.3828 23.1358,-21.9554 25.4093,-27.8502 1.0683,-2.7699 4.2835,-2.7699 5.3519,0 2.2734,5.8948 13.7439,18.4674 25.4092,27.8502 15.3315,12.3315 19.2568,18.4925 18.273,28.6798 -0.8064,8.3487 -5.2798,14.799 -12.9721,18.7037 -7.1706,3.6402 -16.5934,3.0339 -22.7029,-1.4605 -5.6701,-4.1713 -8.548,-3.7987 -8.548,1.858 0,10.4198 9.462,28.6639 16.4648,34.2016 0.8427,0.6665 -0.079,0.7715 -2.0791,0.2371 -15.472,-4.131 -17.2895,-4.1302 -33.0419,0.02 -2.0051,0.5274 -2.9234,0.4164 -2.0789,-0.2515 z"
       id="path6431"
       inkscape:connector-curvature="0" />
    <path
       sodipodi:nodetypes="csscsccccscssccccc"
       style="fill:#0b0b0b"
       d="m 2281.4257,2710.6601 c 7.0026,-5.5376 16.4646,-23.7817 16.4646,-34.2015 0,-5.6567 -2.8777,-6.0294 -8.5476,-1.858 -6.1095,4.4944 -15.5322,5.1007 -22.7032,1.4605 -7.6923,-3.9048 -12.1657,-10.355 -12.9719,-18.7037 -0.9838,-10.1873 2.9413,-16.3483 18.2728,-28.6798 11.6652,-9.3828 23.1358,-21.9554 25.4093,-27.8502 1.0683,-2.7699 4.2835,-2.7699 5.3519,0 2.2734,5.8948 13.7439,18.4674 25.4092,27.8502 15.3315,12.3315 19.2568,18.4925 18.273,28.6798 -0.8064,8.3487 -5.2798,14.7989 -12.9721,18.7037 -7.1706,3.6402 -16.5934,3.0339 -22.7029,-1.4605 -5.6701,-4.1714 -8.548,-3.7987 -8.548,1.858 0,10.4198 9.462,28.6639 16.4648,34.2015 0.8427,0.6666 -0.079,0.7716 -2.0791,0.2372 -15.472,-4.1311 -17.2895,-4.1303 -33.0419,0.02 -2.0051,0.5273 -2.9234,0.4164 -2.0789,-0.2515 z"
       id="path6433"
       inkscape:connector-curvature="0" />
    <path
       sodipodi:nodetypes="csscsccccscssccccc"
       style="fill:#0b0b0b"
       d="m 2168.9257,2835.5899 c 7.0026,5.5376 16.4646,23.7817 16.4646,34.2015 0,5.6567 -2.8777,6.0294 -8.5476,1.858 -6.1095,-4.4944 -15.5322,-5.1007 -22.7032,-1.4605 -7.6923,3.9048 -12.1657,10.355 -12.9719,18.7037 -0.9838,10.1873 2.9413,16.3483 18.2728,28.6798 11.6652,9.3828 23.1358,21.9554 25.4093,27.8502 1.0683,2.7699 4.2835,2.7699 5.3519,0 2.2734,-5.8948 13.7439,-18.4674 25.4092,-27.8502 15.3315,-12.3315 19.2568,-18.4925 18.273,-28.6798 -0.8064,-8.3487 -5.2798,-14.7989 -12.9721,-18.7037 -7.1706,-3.6402 -16.5934,-3.0339 -22.7029,1.4605 -5.6701,4.1714 -8.548,3.7987 -8.548,-1.858 0,-10.4198 9.462,-28.6639 16.4648,-34.2015 0.8427,-0.6666 -0.079,-0.7716 -2.0791,-0.2372 -15.472,4.1311 -17.2895,4.1303 -33.0419,-0.02 -2.0051,-0.5273 -2.9234,-0.4164 -2.0789,0.2515 z"
       id="path6435"
       inkscape:connector-curvature="0" />
    <path
       inkscape:connector-curvature="0"
       id="path6437"
       d="m 2393.9257,2835.5899 c 7.0026,5.5376 16.4646,23.7817 16.4646,34.2015 0,5.6567 -2.8777,6.0294 -8.5476,1.858 -6.1095,-4.4944 -15.5322,-5.1007 -22.7032,-1.4605 -7.6923,3.9048 -12.1657,10.355 -12.9719,18.7037 -0.9838,10.1873 2.9413,16.3483 18.2728,28.6798 11.6652,9.3828 23.1358,21.9554 25.4093,27.8502 1.0683,2.7699 4.2835,2.7699 5.3519,0 2.2734,-5.8948 13.7439,-18.4674 25.4092,-27.8502 15.3315,-12.3315 19.2568,-18.4925 18.273,-28.6798 -0.8064,-8.3487 -5.2798,-14.7989 -12.9721,-18.7037 -7.1706,-3.6402 -16.5934,-3.0339 -22.7029,1.4605 -5.6701,4.1714 -8.548,3.7987 -8.548,-1.858 0,-10.4198 9.462,-28.6639 16.4648,-34.2015 0.8427,-0.6666 -0.079,-0.7716 -2.0791,-0.2372 -15.472,4.1311 -17.2895,4.1303 -33.0419,-0.02 -2.0051,-0.5273 -2.9234,-0.4164 -2.0789,0.2515 z"
       style="fill:#0b0b0b"
       sodipodi:nodetypes="csscsccccscssccccc" />
  </g>
</svg>
