<?xml version="1.0" encoding="UTF-8" standalone="no"?>
<!-- Created with Inkscape (http://www.inkscape.org/) -->

<svg
   id="svg10047"
   height="123.00287"
   width="79.090691"
   version="1.1"
   viewBox="0 0 79.090691 123.00287"
   inkscape:version="0.91 r13725"
   sodipodi:docname="baccarat.svgz"
   xmlns:inkscape="http://www.inkscape.org/namespaces/inkscape"
   xmlns:sodipodi="http://sodipodi.sourceforge.net/DTD/sodipodi-0.dtd"
   xmlns="http://www.w3.org/2000/svg"
   xmlns:svg="http://www.w3.org/2000/svg"
   xmlns:rdf="http://www.w3.org/1999/02/22-rdf-syntax-ns#"
   xmlns:cc="http://creativecommons.org/ns#"
   xmlns:dc="http://purl.org/dc/elements/1.1/">
  <sodipodi:namedview
     pagecolor="#ffffff"
     bordercolor="#666666"
     borderopacity="1"
     objecttolerance="10"
     gridtolerance="10"
     guidetolerance="10"
     inkscape:pageopacity="0"
     inkscape:pageshadow="2"
     inkscape:window-width="1920"
     inkscape:window-height="1016"
     id="namedview1491"
     showgrid="false"
     inkscape:zoom="1.3479675"
     inkscape:cx="513.49999"
     inkscape:cy="307.5"
     inkscape:window-x="0"
     inkscape:window-y="0"
     inkscape:window-maximized="1"
     inkscape:current-layer="svg10047"
     showguides="false"
     inkscape:guide-bbox="true"
     inkscape:snap-grids="true"
     inkscape:showpageshadow="2"
     inkscape:pagecheckerboard="0"
     inkscape:deskcolor="#d1d1d1" />
  <metadata
     id="metadata16869">
    <rdf:RDF>
      <cc:Work
         rdf:about="">
        <dc:format>image/svg+xml</dc:format>
        <dc:type
           rdf:resource="http://purl.org/dc/dcmitype/StillImage" />
        <dc:title />
      </cc:Work>
    </rdf:RDF>
  </metadata>
  <defs
     id="defs10049" />
  <g
     transform="matrix(0.1818177,0,0,0.18636803,-474.09431,-433.30569)"
     id="spade_6"
     inkscape:label="#spade_6">
    <rect
       inkscape:label="#_spade"
       style="display:inline;fill:#ffffff;fill-opacity:1;stroke:#000000;stroke-width:1.26211;stroke-miterlimit:4;stroke-dasharray:none;stroke-opacity:1"
       id="rect6061"
       y="-2984.3689"
       x="-3041.8945"
       ry="22.528988"
       rx="20.746819"
       height="658.73773"
       width="433.73785"
       transform="scale(-1)" />
    <path
       style="font-style:normal;font-variant:normal;font-weight:normal;font-stretch:normal;font-size:medium;line-height:125%;font-family:'Ubuntu Condensed';-inkscape-font-specification:'Ubuntu Condensed, ';letter-spacing:0px;word-spacing:0px;fill:#000000;fill-opacity:1;stroke:none;stroke-width:1px;stroke-linecap:butt;stroke-linejoin:miter;stroke-opacity:1"
       inkscape:connector-curvature="0"
       id="path6091"
       d="m 2643.9533,2357.8122 q -2.3084,0.2363 -4.2524,0.8862 -2.0047,0.7088 -3.5234,2.1265 -1.5187,1.4177 -2.5513,3.7216 -1.0935,2.3628 -1.5794,5.9071 2.3691,-0.9451 4.4345,-0.9451 4.3738,0 6.8645,3.308 2.4299,3.367 2.4299,9.2152 0,6.2616 -2.2477,9.8649 -2.3084,3.6034 -7.229,3.6034 -2.4906,0 -4.3737,-0.9451 -1.8833,-0.9452 -3.0982,-3.1308 -1.2757,-2.1266 -1.8832,-5.671 -0.6682,-3.4852 -0.6682,-8.5653 0,-4.4895 0.9113,-8.6836 0.8504,-4.1941 2.855,-7.5021 2.0048,-3.2489 5.2851,-5.3164 3.2804,-2.0084 8.0795,-2.1857 z m -8.7477,15.8312 q -1.8225,0 -3.5841,1.0634 0,0.7089 0,1.4177 -0.061,0.768 -0.061,1.5949 0,2.7173 0.1215,5.1392 0.1215,2.4811 0.6075,4.3123 0.486,1.8902 1.458,2.9536 0.9111,1.1224 2.4906,1.1224 2.3692,0 3.3411,-2.4811 0.9113,-2.4219 0.9113,-6.4979 0,-4.4304 -1.2758,-6.5569 -1.3364,-2.0676 -4.0093,-2.0676 z" />
    <path
       style="font-style:normal;font-variant:normal;font-weight:normal;font-stretch:normal;font-size:medium;line-height:125%;font-family:'Ubuntu Condensed';-inkscape-font-specification:'Ubuntu Condensed, ';letter-spacing:0px;word-spacing:0px;fill:#000000;fill-opacity:1;stroke:none;stroke-width:1px;stroke-linecap:butt;stroke-linejoin:miter;stroke-opacity:1"
       d="m 3006.0981,2952.1878 q 2.3084,-0.2363 4.2524,-0.8861 2.0046,-0.7089 3.5233,-2.1266 1.5187,-1.4177 2.5514,-3.7216 1.0934,-2.3628 1.5794,-5.907 -2.3691,0.945 -4.4345,0.945 -4.3739,0 -6.8646,-3.308 -2.4298,-3.367 -2.4298,-9.2152 0,-6.2616 2.2476,-9.8649 2.3085,-3.6034 7.229,-3.6034 2.4906,0 4.3738,0.9452 1.8832,0.9451 3.0981,3.1308 1.2757,2.1265 1.8833,5.6709 0.6682,3.4852 0.6682,8.5653 0,4.4895 -0.9113,8.6836 -0.8504,4.1941 -2.8551,7.5021 -2.0047,3.2489 -5.2851,5.3164 -3.2803,2.0084 -8.0794,2.1857 z m 8.7476,-15.8312 q 1.8225,0 3.5842,-1.0633 0,-0.7089 0,-1.4178 0.061,-0.7679 0.061,-1.5949 0,-2.7173 -0.1214,-5.1392 -0.1215,-2.4811 -0.6076,-4.3123 -0.4859,-1.8902 -1.4579,-2.9536 -0.9112,-1.1223 -2.4906,-1.1223 -2.3692,0 -3.3411,2.481 -0.9113,2.4219 -0.9113,6.4979 0,4.4304 1.2757,6.5569 1.3365,2.0676 4.0093,2.0676 z"
       id="path6119"
       inkscape:connector-curvature="0" />
    <path
       sodipodi:nodetypes="csscsccccscssccccc"
       style="fill:#0b0b0b"
       d="m 2693.9257,2474.4103 c 7.0026,-5.5377 16.4646,-23.7818 16.4646,-34.2016 0,-5.6567 -2.8777,-6.0293 -8.5476,-1.858 -6.1095,4.4944 -15.5322,5.1007 -22.7032,1.4605 -7.6923,-3.9047 -12.1657,-10.355 -12.9719,-18.7037 -0.9838,-10.1873 2.9413,-16.3483 18.2728,-28.6798 11.6652,-9.3828 23.1358,-21.9554 25.4093,-27.8502 1.0683,-2.7699 4.2835,-2.7699 5.3519,0 2.2734,5.8948 13.7439,18.4674 25.4092,27.8502 15.3315,12.3315 19.2568,18.4925 18.273,28.6798 -0.8064,8.3487 -5.2798,14.799 -12.9721,18.7037 -7.1706,3.6402 -16.5934,3.0339 -22.7029,-1.4605 -5.6701,-4.1713 -8.548,-3.7987 -8.548,1.858 0,10.4198 9.462,28.6639 16.4648,34.2016 0.8427,0.6665 -0.079,0.7715 -2.0791,0.2371 -15.472,-4.131 -17.2895,-4.1302 -33.0419,0.02 -2.0051,0.5274 -2.9234,0.4164 -2.0789,-0.2515 z"
       id="path6371"
       inkscape:connector-curvature="0" />
    <path
       inkscape:connector-curvature="0"
       id="path6373"
       d="m 2918.9257,2474.4103 c 7.0026,-5.5377 16.4646,-23.7818 16.4646,-34.2016 0,-5.6567 -2.8777,-6.0293 -8.5476,-1.858 -6.1095,4.4944 -15.5322,5.1007 -22.7032,1.4605 -7.6923,-3.9047 -12.1657,-10.355 -12.9719,-18.7037 -0.9838,-10.1873 2.9413,-16.3483 18.2728,-28.6798 11.6652,-9.3828 23.1358,-21.9554 25.4093,-27.8502 1.0683,-2.7699 4.2835,-2.7699 5.3519,0 2.2734,5.8948 13.7439,18.4674 25.4092,27.8502 15.3315,12.3315 19.2568,18.4925 18.273,28.6798 -0.8064,8.3487 -5.2798,14.799 -12.9721,18.7037 -7.1706,3.6402 -16.5934,3.0339 -22.7029,-1.4605 -5.6701,-4.1713 -8.548,-3.7987 -8.548,1.858 0,10.4198 9.462,28.6639 16.4648,34.2016 0.8427,0.6665 -0.079,0.7715 -2.0791,0.2371 -15.472,-4.131 -17.2895,-4.1302 -33.0419,0.02 -2.0051,0.5274 -2.9234,0.4164 -2.0789,-0.2515 z"
       style="fill:#0b0b0b"
       sodipodi:nodetypes="csscsccccscssccccc" />
    <path
       inkscape:connector-curvature="0"
       id="path6375"
       d="m 2693.9257,2710.6601 c 7.0026,-5.5376 16.4646,-23.7817 16.4646,-34.2015 0,-5.6567 -2.8777,-6.0294 -8.5476,-1.858 -6.1095,4.4944 -15.5322,5.1007 -22.7032,1.4605 -7.6923,-3.9048 -12.1657,-10.355 -12.9719,-18.7037 -0.9838,-10.1873 2.9413,-16.3483 18.2728,-28.6798 11.6652,-9.3828 23.1358,-21.9554 25.4093,-27.8502 1.0683,-2.7699 4.2835,-2.7699 5.3519,0 2.2734,5.8948 13.7439,18.4674 25.4092,27.8502 15.3315,12.3315 19.2568,18.4925 18.273,28.6798 -0.8064,8.3487 -5.2798,14.7989 -12.9721,18.7037 -7.1706,3.6402 -16.5934,3.0339 -22.7029,-1.4605 -5.6701,-4.1714 -8.548,-3.7987 -8.548,1.858 0,10.4198 9.462,28.6639 16.4648,34.2015 0.8427,0.6666 -0.079,0.7716 -2.0791,0.2372 -15.472,-4.1311 -17.2895,-4.1303 -33.0419,0.02 -2.0051,0.5273 -2.9234,0.4164 -2.0789,-0.2515 z"
       style="fill:#0b0b0b"
       sodipodi:nodetypes="csscsccccscssccccc" />
    <path
       sodipodi:nodetypes="csscsccccscssccccc"
       style="fill:#0b0b0b"
       d="m 2918.9257,2710.6601 c 7.0026,-5.5376 16.4646,-23.7817 16.4646,-34.2015 0,-5.6567 -2.8777,-6.0294 -8.5476,-1.858 -6.1095,4.4944 -15.5322,5.1007 -22.7032,1.4605 -7.6923,-3.9048 -12.1657,-10.355 -12.9719,-18.7037 -0.9838,-10.1873 2.9413,-16.3483 18.2728,-28.6798 11.6652,-9.3828 23.1358,-21.9554 25.4093,-27.8502 1.0683,-2.7699 4.2835,-2.7699 5.3519,0 2.2734,5.8948 13.7439,18.4674 25.4092,27.8502 15.3315,12.3315 19.2568,18.4925 18.273,28.6798 -0.8064,8.3487 -5.2798,14.7989 -12.9721,18.7037 -7.1706,3.6402 -16.5934,3.0339 -22.7029,-1.4605 -5.6701,-4.1714 -8.548,-3.7987 -8.548,1.858 0,10.4198 9.462,28.6639 16.4648,34.2015 0.8427,0.6666 -0.079,0.7716 -2.0791,0.2372 -15.472,-4.1311 -17.2895,-4.1303 -33.0419,0.02 -2.0051,0.5273 -2.9234,0.4164 -2.0789,-0.2515 z"
       id="path6377"
       inkscape:connector-curvature="0" />
    <path
       inkscape:connector-curvature="0"
       id="path6379"
       d="m 2693.9257,2835.5899 c 7.0026,5.5376 16.4646,23.7817 16.4646,34.2015 0,5.6567 -2.8777,6.0294 -8.5476,1.858 -6.1095,-4.4944 -15.5322,-5.1007 -22.7032,-1.4605 -7.6923,3.9048 -12.1657,10.355 -12.9719,18.7037 -0.9838,10.1873 2.9413,16.3483 18.2728,28.6798 11.6652,9.3828 23.1358,21.9554 25.4093,27.8502 1.0683,2.7699 4.2835,2.7699 5.3519,0 2.2734,-5.8948 13.7439,-18.4674 25.4092,-27.8502 15.3315,-12.3315 19.2568,-18.4925 18.273,-28.6798 -0.8064,-8.3487 -5.2798,-14.7989 -12.9721,-18.7037 -7.1706,-3.6402 -16.5934,-3.0339 -22.7029,1.4605 -5.6701,4.1714 -8.548,3.7987 -8.548,-1.858 0,-10.4198 9.462,-28.6639 16.4648,-34.2015 0.8427,-0.6666 -0.079,-0.7716 -2.0791,-0.2372 -15.472,4.1311 -17.2895,4.1303 -33.0419,-0.02 -2.0051,-0.5273 -2.9234,-0.4164 -2.0789,0.2515 z"
       style="fill:#0b0b0b"
       sodipodi:nodetypes="csscsccccscssccccc" />
    <path
       sodipodi:nodetypes="csscsccccscssccccc"
       style="fill:#0b0b0b"
       d="m 2918.9257,2835.5899 c 7.0026,5.5376 16.4646,23.7817 16.4646,34.2015 0,5.6567 -2.8777,6.0294 -8.5476,1.858 -6.1095,-4.4944 -15.5322,-5.1007 -22.7032,-1.4605 -7.6923,3.9048 -12.1657,10.355 -12.9719,18.7037 -0.9838,10.1873 2.9413,16.3483 18.2728,28.6798 11.6652,9.3828 23.1358,21.9554 25.4093,27.8502 1.0683,2.7699 4.2835,2.7699 5.3519,0 2.2734,-5.8948 13.7439,-18.4674 25.4092,-27.8502 15.3315,-12.3315 19.2568,-18.4925 18.273,-28.6798 -0.8064,-8.3487 -5.2798,-14.7989 -12.9721,-18.7037 -7.1706,-3.6402 -16.5934,-3.0339 -22.7029,1.4605 -5.6701,4.1714 -8.548,3.7987 -8.548,-1.858 0,-10.4198 9.462,-28.6639 16.4648,-34.2015 0.8427,-0.6666 -0.079,-0.7716 -2.0791,-0.2372 -15.472,4.1311 -17.2895,4.1303 -33.0419,-0.02 -2.0051,-0.5273 -2.9234,-0.4164 -2.0789,0.2515 z"
       id="path6381"
       inkscape:connector-curvature="0" />
  </g>
</svg>
