<?xml version="1.0" encoding="UTF-8" standalone="no"?>
<!-- Created with Inkscape (http://www.inkscape.org/) -->

<svg
   id="svg10047"
   height="123.00287"
   width="79.090691"
   version="1.1"
   viewBox="0 0 79.090691 123.00287"
   inkscape:version="0.91 r13725"
   sodipodi:docname="baccarat.svgz"
   xmlns:inkscape="http://www.inkscape.org/namespaces/inkscape"
   xmlns:sodipodi="http://sodipodi.sourceforge.net/DTD/sodipodi-0.dtd"
   xmlns="http://www.w3.org/2000/svg"
   xmlns:svg="http://www.w3.org/2000/svg"
   xmlns:rdf="http://www.w3.org/1999/02/22-rdf-syntax-ns#"
   xmlns:cc="http://creativecommons.org/ns#"
   xmlns:dc="http://purl.org/dc/elements/1.1/">
  <sodipodi:namedview
     pagecolor="#ffffff"
     bordercolor="#666666"
     borderopacity="1"
     objecttolerance="10"
     gridtolerance="10"
     guidetolerance="10"
     inkscape:pageopacity="0"
     inkscape:pageshadow="2"
     inkscape:window-width="1920"
     inkscape:window-height="1016"
     id="namedview1491"
     showgrid="false"
     inkscape:zoom="1.3479675"
     inkscape:cx="513.49999"
     inkscape:cy="307.5"
     inkscape:window-x="0"
     inkscape:window-y="0"
     inkscape:window-maximized="1"
     inkscape:current-layer="svg10047"
     showguides="false"
     inkscape:guide-bbox="true"
     inkscape:snap-grids="true"
     inkscape:showpageshadow="2"
     inkscape:pagecheckerboard="0"
     inkscape:deskcolor="#d1d1d1" />
  <metadata
     id="metadata16869">
    <rdf:RDF>
      <cc:Work
         rdf:about="">
        <dc:format>image/svg+xml</dc:format>
        <dc:type
           rdf:resource="http://purl.org/dc/dcmitype/StillImage" />
        <dc:title />
      </cc:Work>
    </rdf:RDF>
  </metadata>
  <defs
     id="defs10049" />
  <g
     transform="matrix(0.1818177,0,0,0.18636803,3.1771069,-433.30569)"
     id="spade_1"
     inkscape:label="#spade_1">
    <rect
       style="display:inline;fill:#ffffff;fill-opacity:1;stroke:#000000;stroke-width:1.26211;stroke-miterlimit:4;stroke-dasharray:none;stroke-opacity:1"
       id="rect6101"
       y="-2984.3689"
       x="-416.89478"
       ry="22.528988"
       rx="20.746819"
       height="658.73773"
       width="433.73785"
       transform="scale(-1)" />
    <path
       style="font-style:normal;font-variant:normal;font-weight:normal;font-stretch:normal;font-size:medium;line-height:125%;font-family:'Ubuntu Condensed';-inkscape-font-specification:'Ubuntu Condensed, ';letter-spacing:0px;word-spacing:0px;fill:#000000;fill-opacity:1;stroke:none;stroke-width:1px;stroke-linecap:butt;stroke-linejoin:miter;stroke-opacity:1"
       inkscape:connector-curvature="0"
       id="path6105"
       d="m 14.699745,2353.5001 q 1.477323,4.5455 2.89309,9.2122 1.477321,4.6059 2.831533,9.6969 1.415766,5.0909 2.769978,10.7879 1.415767,5.697 2.831534,12.3029 h -5.539957 q -0.492441,-2.7272 -1.046437,-5.3939 -0.492441,-2.6666 -1.046436,-5.3333 H 4.9740434 q -0.6155507,2.6667 -1.1079914,5.3333 -0.4924406,2.6667 -0.9848812,5.3939 h -5.3552917 q 1.3542116,-6.6059 2.76997846,-12.3029 1.41576674,-5.697 2.76997844,-10.7879 1.4157668,-5.091 2.8315336,-9.6969 1.4773217,-4.6667 2.9546436,-9.2122 z m -3.016198,6.1818 q -1.538877,5.0304 -2.9546439,10.1213 -1.4157668,5.0909 -2.7084234,10.4242 H 17.285059 q -1.231102,-5.3333 -2.646868,-10.4242 -1.415767,-5.0909 -2.954644,-10.1213 z" />
    <path
       style="font-style:normal;font-variant:normal;font-weight:normal;font-stretch:normal;font-size:medium;line-height:125%;font-family:'Ubuntu Condensed';-inkscape-font-specification:'Ubuntu Condensed, ';letter-spacing:0px;word-spacing:0px;fill:#000000;fill-opacity:1;stroke:none;stroke-width:1px;stroke-linecap:butt;stroke-linejoin:miter;stroke-opacity:1"
       d="m 385.35198,2956.5002 q -1.47732,-4.5454 -2.89308,-9.2121 -1.47733,-4.606 -2.83154,-9.697 -1.41576,-5.0909 -2.76998,-10.7879 -1.41576,-5.697 -2.83153,-12.3029 h 5.53996 q 0.49244,2.7272 1.04643,5.3939 0.49244,2.6666 1.04644,5.3333 h 13.41901 q 0.61555,-2.6667 1.10799,-5.3333 0.49244,-2.6667 0.98488,-5.3939 h 5.35529 q -1.35421,6.6059 -2.76998,12.3029 -1.41576,5.697 -2.76998,10.7879 -1.41576,5.091 -2.83153,9.697 -1.47732,4.6667 -2.95464,9.2121 z m 3.0162,-6.1818 q 1.53888,-5.0304 2.95465,-10.1212 1.41576,-5.0909 2.70842,-10.4242 h -11.26458 q 1.2311,5.3333 2.64687,10.4242 1.41577,5.0908 2.95464,10.1212 z"
       id="path6107"
       inkscape:connector-curvature="0" />
    <path
       sodipodi:nodetypes="csscsccccscssccccc"
       style="fill:#0b0b0b"
       d="m 181.42588,2710.6601 c 7.0026,-5.5376 16.4646,-23.7817 16.4646,-34.2015 0,-5.6567 -2.8777,-6.0294 -8.5476,-1.858 -6.1095,4.4944 -15.5322,5.1007 -22.7032,1.4605 -7.6923,-3.9048 -12.1657,-10.355 -12.9719,-18.7037 -0.9838,-10.1873 2.9413,-16.3483 18.2728,-28.6798 11.6652,-9.3828 23.1358,-21.9554 25.4093,-27.8502 1.0683,-2.7699 4.2835,-2.7699 5.3519,0 2.2734,5.8948 13.7439,18.4674 25.4092,27.8502 15.3315,12.3315 19.2568,18.4925 18.273,28.6798 -0.8064,8.3487 -5.2798,14.7989 -12.9721,18.7037 -7.1706,3.6402 -16.5934,3.0339 -22.7029,-1.4605 -5.6701,-4.1714 -8.548,-3.7987 -8.548,1.858 0,10.4198 9.462,28.6639 16.4648,34.2015 0.8427,0.6666 -0.079,0.7716 -2.0791,0.2372 -15.472,-4.1311 -17.2895,-4.1303 -33.0419,0.02 -2.0051,0.5273 -2.9234,0.4164 -2.0789,-0.2515 z"
       id="path6508"
       inkscape:connector-curvature="0" />
  </g>
</svg>
