<?xml version="1.0" encoding="UTF-8" standalone="no"?>
<!-- Created with Inkscape (http://www.inkscape.org/) -->

<svg
   id="svg10047"
   height="122.99944"
   width="79.000114"
   version="1.1"
   viewBox="0 0 79.000114 122.99944"
   inkscape:version="0.91 r13725"
   sodipodi:docname="salon-karte-66.svgz"
   xmlns:inkscape="http://www.inkscape.org/namespaces/inkscape"
   xmlns:sodipodi="http://sodipodi.sourceforge.net/DTD/sodipodi-0.dtd"
   xmlns:xlink="http://www.w3.org/1999/xlink"
   xmlns="http://www.w3.org/2000/svg"
   xmlns:svg="http://www.w3.org/2000/svg"
   xmlns:rdf="http://www.w3.org/1999/02/22-rdf-syntax-ns#"
   xmlns:cc="http://creativecommons.org/ns#"
   xmlns:dc="http://purl.org/dc/elements/1.1/">
  <sodipodi:namedview
     pagecolor="#ffffff"
     bordercolor="#666666"
     borderopacity="1"
     objecttolerance="10"
     gridtolerance="10"
     guidetolerance="10"
     inkscape:pageopacity="0"
     inkscape:pageshadow="2"
     inkscape:window-width="1920"
     inkscape:window-height="1016"
     id="namedview1491"
     showgrid="false"
     inkscape:zoom="1.3479675"
     inkscape:cx="513.5"
     inkscape:cy="307.5"
     inkscape:window-x="0"
     inkscape:window-y="0"
     inkscape:window-maximized="1"
     inkscape:current-layer="svg10047"
     showguides="true"
     inkscape:guide-bbox="true"
     inkscape:snap-grids="true"
     inkscape:showpageshadow="2"
     inkscape:pagecheckerboard="0"
     inkscape:deskcolor="#d1d1d1" />
  <metadata
     id="metadata16869">
    <rdf:RDF>
      <cc:Work
         rdf:about="">
        <dc:format>image/svg+xml</dc:format>
        <dc:type
           rdf:resource="http://purl.org/dc/dcmitype/StillImage" />
        <dc:title />
      </cc:Work>
    </rdf:RDF>
  </metadata>
  <defs
     id="defs10049">
    <linearGradient
       id="linearGradient17425"
       inkscape:swatch="solid">
      <stop
         style="stop-color:#000000;stop-opacity:1;"
         offset="0"
         id="stop17427" />
    </linearGradient>
    <linearGradient
       inkscape:collect="always"
       xlink:href="#linearGradient17425"
       id="linearGradient10694"
       gradientUnits="userSpaceOnUse"
       gradientTransform="matrix(0.91728841,0,0,0.94849571,-5688.4259,-920.76764)"
       x1="7117.6006"
       y1="1550.6322"
       x2="7683.4717"
       y2="1550.6322" />
  </defs>
  <g
     transform="matrix(0.13169305,0,0,0.13666723,-105.35444,-13.667736)"
     id="club_2"
     inkscape:label="#club_2">
    <rect
       style="fill:#ffffff;stroke:#000000;stroke-width:1.66649"
       id="rect10672"
       y="100.84066"
       x="800.83325"
       ry="49.906242"
       rx="49.896725"
       height="898.32574"
       width="598.21417" />
    <rect
       ry="23.720173"
       y="140.46684"
       x="840.46606"
       height="819.06726"
       width="519.06726"
       id="rect10674"
       style="fill:#000000;fill-opacity:0;stroke:url(#linearGradient10694);stroke-width:0.932762;stroke-linecap:square;stroke-linejoin:bevel;stroke-miterlimit:4;stroke-dasharray:none" />
    <path
       inkscape:connector-curvature="0"
       id="path10678"
       d="m 855.83799,956.60513 c -1.2891,-0.47122 -3.9926,-2.34932 -6.0078,-4.17352 -8.6098,-7.79364 -8.0552,19.96733 -8.0489,-402.84854 0.01,-387.49299 0.035,-391.14011 3.1108,-396.18563 1.7077,-2.80083 5.3964,-6.48961 8.1973,-8.19729 5.0235,-3.06291 8.3657,-3.10488 247.27991,-3.10488 240.1146,0 242.2317,0.027 247.3564,3.15144 2.9845,1.81956 6.4368,5.9443 8.1689,9.75979 2.9323,6.45965 2.9998,15.34476 2.9998,394.8896 0,379.54484 -0.068,388.42995 -2.9998,394.8896 -1.7321,3.81549 -5.1844,7.94022 -8.1689,9.75979 -5.1269,3.12582 -7.1372,3.15048 -247.3564,3.03392 -133.20321,-0.0646 -243.24221,-0.50305 -244.53131,-0.97428 z"
       style="fill:#fbf6e3;fill-opacity:1" />
    <path
       sodipodi:nodetypes="ccccccccccccscscc"
       inkscape:connector-curvature="0"
       id="path10680"
       d="m 863.74369,311.9791 c 2.1194,-14.6251 1.6739,-17.4811 -2.0752,-13.3412 -2.2099,2.44 -6.9549,2.5009 -9.615,0.1234 -2.6871,-2.4022 -2.7456,-7.9617 -0.1223,-10.8662 2.3053,-2.5469 7.2119,-2.7821 9.5392,-0.4573 3.4285,3.4256 3.1936,0.9465 -0.4992,-5.2873 -2.4105,-4.0707 -2.1488,-7.1908 0.8637,-10.29 2.4106,-2.48 5.9123,-2.48 8.3229,0 3.015,3.0992 3.2742,6.2193 0.864,10.29 -3.6928,6.2338 -3.928,8.7129 -0.497,5.2873 2.3248,-2.3248 7.2314,-2.0896 9.5392,0.4573 2.6307,2.9045 2.5722,8.464 -0.1222,10.8662 -2.6602,2.3776 -7.4077,2.3167 -9.6176,-0.1234 -3.7491,-4.1399 -4.1946,-1.2839 -2.0752,13.3412 0.5628,3.8792 0.6313,0.9818 -2.1827,0.9818 -2.817,0 -2.8976,2.8973 -2.3373,-0.9818 z"
       style="fill:#00001e;fill-opacity:1" />
    <path
       style="fill:#00001e;fill-opacity:1"
       d="m 1107.0522,756.43244 c -6.623,46.534 -5.231,55.622 6.485,42.449 6.906,-7.764 21.734,-7.957 30.047,-0.393 8.3974,7.644 8.5804,25.333 0.382,34.575 -7.204,8.103 -22.537,8.852 -29.81,1.455 -10.714,-10.9 -9.98,-3.012 1.56,16.823 7.533,12.952 6.715,22.8796 -2.699,32.7408 -7.533,7.891 -18.476,7.891 -26.009,0 -9.422,-9.8612 -10.232,-19.7888 -2.7,-32.7408 11.54,-19.835 12.275,-27.723 1.553,-16.823 -7.265,7.397 -22.598,6.648 -29.81,-1.455 -8.221,-9.242 -8.038,-26.931 0.382,-34.575 8.313,-7.565 23.149,-7.371 30.055,0.393 11.716,13.173 13.108,4.085 6.485,-42.449 -1.759,-12.343 -1.973,-3.124 6.821,-3.124 8.803,0 9.055,-9.219 7.304,3.124 z"
       id="path10682"
       inkscape:connector-curvature="0"
       sodipodi:nodetypes="ccccccccccccscscc" />
    <path
       style="fill:#00001e;fill-opacity:1"
       d="m 1336.2571,788.02198 c -2.1194,14.6251 -1.6739,17.4811 2.0752,13.3412 2.2099,-2.44 6.9549,-2.5009 9.615,-0.1234 2.6871,2.4022 2.7456,7.9617 0.1223,10.8662 -2.3053,2.5469 -7.2119,2.7821 -9.5392,0.4573 -3.4285,-3.4256 -3.1936,-0.9465 0.4992,5.2873 2.4105,4.0707 2.1488,7.1908 -0.8637,10.29 -2.4106,2.48 -5.9123,2.48 -8.3229,0 -3.015,-3.0992 -3.2742,-6.2193 -0.864,-10.29 3.6928,-6.2338 3.928,-8.7129 0.497,-5.2873 -2.3248,2.3248 -7.2314,2.0896 -9.5392,-0.4573 -2.6307,-2.9045 -2.5722,-8.464 0.1222,-10.8662 2.6602,-2.3776 7.4077,-2.3167 9.6176,0.1234 3.7491,4.1399 4.1946,1.2839 2.0752,-13.3412 -0.5628,-3.8792 -0.6313,-0.9818 2.1827,-0.9818 2.817,0 2.8976,-2.8973 2.3373,0.9818 z"
       id="path10684"
       inkscape:connector-curvature="0"
       sodipodi:nodetypes="ccccccccccccscscc" />
    <path
       sodipodi:nodetypes="ccccccccccccscscc"
       inkscape:connector-curvature="0"
       id="path10686"
       d="m 1107.0522,343.56864 c -6.623,-46.534 -5.231,-55.622 6.485,-42.449 6.906,7.764 21.734,7.957 30.047,0.393 8.3974,-7.644 8.5804,-25.333 0.382,-34.575 -7.204,-8.103 -22.537,-8.852 -29.81,-1.455 -10.714,10.9 -9.98,3.012 1.56,-16.823 7.533,-12.952 6.715,-22.88 -2.699,-32.741 -7.533,-7.891 -18.476,-7.891 -26.009,0 -9.422,9.861 -10.232,19.789 -2.7,32.741 11.54,19.835 12.275,27.723 1.553,16.823 -7.265,-7.397 -22.598,-6.648 -29.81,1.455 -8.221,9.242 -8.038,26.931 0.382,34.575 8.313,7.565 23.149,7.371 30.055,-0.393 11.716,-13.173 13.108,-4.085 6.485,42.449 -1.759,12.343 -1.973,3.124 6.821,3.124 8.803,0 9.055,9.219 7.304,-3.124 z"
       style="fill:#00001e;fill-opacity:1" />
    <path
       sodipodi:nodetypes="ccccccccccccscscc"
       inkscape:connector-curvature="0"
       id="path10688"
       d="m 1336.2571,311.97864 c -2.1194,-14.625 -1.6739,-17.481 2.0752,-13.341 2.2099,2.44 6.9549,2.501 9.615,0.123 2.6871,-2.402 2.7456,-7.961 0.1223,-10.866 -2.3053,-2.547 -7.2119,-2.782 -9.5392,-0.457 -3.4285,3.425 -3.1936,0.946 0.4992,-5.288 2.4105,-4.07 2.1488,-7.19 -0.8637,-10.29 -2.4106,-2.48 -5.9123,-2.48 -8.3229,0 -3.015,3.1 -3.2742,6.22 -0.864,10.29 3.6928,6.234 3.928,8.713 0.497,5.288 -2.3248,-2.325 -7.2314,-2.09 -9.5392,0.457 -2.6307,2.905 -2.5722,8.464 0.1222,10.866 2.6602,2.378 7.4077,2.317 9.6176,-0.123 3.7491,-4.14 4.1946,-1.284 2.0752,13.341 -0.5628,3.879 -0.6313,0.982 2.1827,0.982 2.817,0 2.8976,2.897 2.3373,-0.982 z"
       style="fill:#00001e;fill-opacity:1" />
    <path
       sodipodi:nodetypes="ccccccccccccscscc"
       inkscape:connector-curvature="0"
       id="path10690"
       d="m 863.74369,788.02198 c 2.1194,14.6251 1.6739,17.4811 -2.0752,13.3412 -2.2099,-2.44 -6.9549,-2.5009 -9.615,-0.1234 -2.6871,2.4022 -2.7456,7.9617 -0.1223,10.8662 2.3053,2.5469 7.2119,2.7821 9.5392,0.4573 3.4285,-3.4256 3.1936,-0.9465 -0.4992,5.2873 -2.4105,4.0707 -2.1488,7.1908 0.8637,10.29 2.4106,2.48 5.9123,2.48 8.3229,0 3.015,-3.0992 3.2742,-6.2193 0.864,-10.29 -3.6928,-6.2338 -3.928,-8.7129 -0.497,-5.2873 2.3248,2.3248 7.2314,2.0896 9.5392,-0.4573 2.6307,-2.9045 2.5722,-8.464 -0.1222,-10.8662 -2.6602,-2.3776 -7.4077,-2.3167 -9.6176,0.1234 -3.7491,4.1399 -4.1946,1.2839 -2.0752,-13.3412 0.5628,-3.8792 0.6313,-0.9818 -2.1827,-0.9818 -2.817,0 -2.8976,-2.8973 -2.3373,0.9818 z"
       style="fill:#00001e;fill-opacity:1" />
    <path
       d="m 883.4412,240.28139 -1.4758,19.7191 H 848.43 v -6.325 q 5.2316,-6.9626 15.3369,-18.1245 10.1501,-11.1616 10.1501,-24.6621 0,-7.6005 -2.817,-12.2778 -2.8169,-4.6773 -8.004,-4.6773 -4.6054,0 -7.5116,3.5078 -2.9064,3.4548 -2.9064,7.4943 0,2.073 0.8046,2.073 0.1782,0 0.7155,-0.3722 1.4755,-1.1692 2.8616,-1.1692 1.744,0 2.9514,1.6478 1.2519,1.5943 1.2519,3.7736 0,2.2323 -1.3415,3.8801 -1.3413,1.5944 -3.3088,1.5944 -2.7723,0 -4.6056,-2.817 -1.8333,-2.8701 -1.8333,-7.1221 0,-6.4845 4.4715,-11.4274 4.5162,-4.9964 11.5808,-4.9964 6.9308,0 11.9386,4.571 5.008,4.571 5.008,11.9592 0,7.8662 -4.4266,14.4036 -4.4267,6.5378 -13.0565,16.0518 -8.5851,9.5141 -12.207,14.1913 h 20.3449 q 5.6786,0 6.1704,-1.116 0.5365,-1.1163 0.8496,-5.2089 l 0.4024,-4.5711 z"
       id="path41166"
       inkscape:connector-curvature="0"
       style="font-style:normal;font-variant:normal;font-weight:normal;font-stretch:normal;font-size:medium;line-height:125%;font-family:'Bodoni MT';-inkscape-font-specification:'Bodoni MT, Normal';text-align:start;letter-spacing:0px;word-spacing:0px;writing-mode:lr-tb;text-anchor:start;fill:#000000;fill-opacity:1;stroke:none;stroke-width:1px;stroke-linecap:butt;stroke-linejoin:miter;stroke-opacity:1" />
    <path
       style="font-style:normal;font-variant:normal;font-weight:normal;font-stretch:normal;font-size:medium;line-height:125%;font-family:'Bodoni MT';-inkscape-font-specification:'Bodoni MT, Normal';text-align:start;letter-spacing:0px;word-spacing:0px;writing-mode:lr-tb;text-anchor:start;fill:#000000;fill-opacity:1;stroke:none;stroke-width:1px;stroke-linecap:butt;stroke-linejoin:miter;stroke-opacity:1"
       inkscape:connector-curvature="0"
       id="path12713"
       d="m 1351.4412,240.28139 -1.4758,19.7191 H 1316.43 v -6.325 q 5.2316,-6.9626 15.3369,-18.1245 10.1501,-11.1616 10.1501,-24.6621 0,-7.6005 -2.817,-12.2778 -2.8169,-4.6773 -8.004,-4.6773 -4.6054,0 -7.5116,3.5078 -2.9064,3.4548 -2.9064,7.4943 0,2.073 0.8046,2.073 0.1782,0 0.7155,-0.3722 1.4755,-1.1692 2.8616,-1.1692 1.744,0 2.9514,1.6478 1.2519,1.5943 1.2519,3.7736 0,2.2323 -1.3415,3.8801 -1.3413,1.5944 -3.3088,1.5944 -2.7723,0 -4.6056,-2.817 -1.8333,-2.8701 -1.8333,-7.1221 0,-6.4845 4.4715,-11.4274 4.5162,-4.9964 11.5808,-4.9964 6.9308,0 11.9386,4.571 5.008,4.571 5.008,11.9592 0,7.8662 -4.4266,14.4036 -4.4267,6.5378 -13.0565,16.0518 -8.5851,9.5141 -12.207,14.1913 h 20.3449 q 5.6786,0 6.1704,-1.116 0.5365,-1.1163 0.8496,-5.2089 l 0.4024,-4.5711 z" />
    <path
       style="font-style:normal;font-variant:normal;font-weight:normal;font-stretch:normal;font-size:medium;line-height:125%;font-family:'Bodoni MT';-inkscape-font-specification:'Bodoni MT, Normal';text-align:start;letter-spacing:0px;word-spacing:0px;writing-mode:lr-tb;text-anchor:start;fill:#000000;fill-opacity:1;stroke:none;stroke-width:1px;stroke-linecap:butt;stroke-linejoin:miter;stroke-opacity:1"
       inkscape:connector-curvature="0"
       id="path12715"
       d="m 848.43,859.71959 1.4758,-19.7191 h 33.5354 v 6.325 q -5.2316,6.9626 -15.3369,18.1245 -10.1501,11.1616 -10.1501,24.6621 0,7.6005 2.817,12.2778 2.8169,4.6773 8.004,4.6773 4.6054,0 7.5116,-3.5078 2.9064,-3.4548 2.9064,-7.4943 0,-2.073 -0.8046,-2.073 -0.1782,0 -0.7155,0.3722 -1.4755,1.1692 -2.8616,1.1692 -1.744,0 -2.9514,-1.6478 -1.2519,-1.5943 -1.2519,-3.7736 0,-2.2323 1.3415,-3.8801 1.3413,-1.5944 3.3088,-1.5944 2.7723,0 4.6056,2.817 1.8333,2.8701 1.8333,7.1221 0,6.4845 -4.4715,11.4274 -4.5162,4.9964 -11.5808,4.9964 -6.9308,0 -11.9386,-4.571 -5.008,-4.571 -5.008,-11.9592 0,-7.8662 4.4266,-14.4036 4.4267,-6.5378 13.0565,-16.0518 8.5851,-9.5141 12.207,-14.1913 h -20.3449 q -5.6786,0 -6.1704,1.116 -0.5365,1.1163 -0.8496,5.2089 l -0.4024,4.5711 z" />
    <path
       d="m 1316.43,859.71959 1.4758,-19.7191 h 33.5354 v 6.325 q -5.2316,6.9626 -15.3369,18.1245 -10.1501,11.1616 -10.1501,24.6621 0,7.6005 2.817,12.2778 2.8169,4.6773 8.004,4.6773 4.6054,0 7.5116,-3.5078 2.9064,-3.4548 2.9064,-7.4943 0,-2.073 -0.8046,-2.073 -0.1782,0 -0.7155,0.3722 -1.4755,1.1692 -2.8616,1.1692 -1.744,0 -2.9514,-1.6478 -1.2519,-1.5943 -1.2519,-3.7736 0,-2.2323 1.3415,-3.8801 1.3413,-1.5944 3.3088,-1.5944 2.7723,0 4.6056,2.817 1.8333,2.8701 1.8333,7.1221 0,6.4845 -4.4715,11.4274 -4.5162,4.9964 -11.5808,4.9964 -6.9308,0 -11.9386,-4.571 -5.008,-4.571 -5.008,-11.9592 0,-7.8662 4.4266,-14.4036 4.4267,-6.5378 13.0565,-16.0518 8.5851,-9.5141 12.207,-14.1913 h -20.3449 q -5.6786,0 -6.1704,1.116 -0.5365,1.1163 -0.8496,5.2089 l -0.4024,4.5711 z"
       id="path12717"
       inkscape:connector-curvature="0"
       style="font-style:normal;font-variant:normal;font-weight:normal;font-stretch:normal;font-size:medium;line-height:125%;font-family:'Bodoni MT';-inkscape-font-specification:'Bodoni MT, Normal';text-align:start;letter-spacing:0px;word-spacing:0px;writing-mode:lr-tb;text-anchor:start;fill:#000000;fill-opacity:1;stroke:none;stroke-width:1px;stroke-linecap:butt;stroke-linejoin:miter;stroke-opacity:1" />
  </g>
</svg>
