<?xml version="1.0" encoding="UTF-8" standalone="no"?>
<!-- Created with Inkscape (http://www.inkscape.org/) -->

<svg
   id="svg10047"
   height="122.99944"
   width="79.000114"
   version="1.1"
   viewBox="0 0 79.000114 122.99944"
   inkscape:version="0.91 r13725"
   sodipodi:docname="salon-karte-66.svgz"
   xmlns:inkscape="http://www.inkscape.org/namespaces/inkscape"
   xmlns:sodipodi="http://sodipodi.sourceforge.net/DTD/sodipodi-0.dtd"
   xmlns:xlink="http://www.w3.org/1999/xlink"
   xmlns="http://www.w3.org/2000/svg"
   xmlns:svg="http://www.w3.org/2000/svg"
   xmlns:rdf="http://www.w3.org/1999/02/22-rdf-syntax-ns#"
   xmlns:cc="http://creativecommons.org/ns#"
   xmlns:dc="http://purl.org/dc/elements/1.1/">
  <sodipodi:namedview
     pagecolor="#ffffff"
     bordercolor="#666666"
     borderopacity="1"
     objecttolerance="10"
     gridtolerance="10"
     guidetolerance="10"
     inkscape:pageopacity="0"
     inkscape:pageshadow="2"
     inkscape:window-width="1920"
     inkscape:window-height="1016"
     id="namedview1491"
     showgrid="false"
     inkscape:zoom="1.3479675"
     inkscape:cx="513.5"
     inkscape:cy="307.5"
     inkscape:window-x="0"
     inkscape:window-y="0"
     inkscape:window-maximized="1"
     inkscape:current-layer="svg10047"
     showguides="true"
     inkscape:guide-bbox="true"
     inkscape:snap-grids="true"
     inkscape:showpageshadow="2"
     inkscape:pagecheckerboard="0"
     inkscape:deskcolor="#d1d1d1" />
  <metadata
     id="metadata16869">
    <rdf:RDF>
      <cc:Work
         rdf:about="">
        <dc:format>image/svg+xml</dc:format>
        <dc:type
           rdf:resource="http://purl.org/dc/dcmitype/StillImage" />
        <dc:title />
      </cc:Work>
    </rdf:RDF>
  </metadata>
  <defs
     id="defs10049">
    <linearGradient
       id="linearGradient17425"
       inkscape:swatch="solid">
      <stop
         style="stop-color:#000000;stop-opacity:1;"
         offset="0"
         id="stop17427" />
    </linearGradient>
    <linearGradient
       inkscape:collect="always"
       xlink:href="#linearGradient17425"
       id="linearGradient10582"
       gradientUnits="userSpaceOnUse"
       gradientTransform="matrix(0.91728841,0,0,0.94849571,-2888.4261,-920.76764)"
       x1="7117.6006"
       y1="1550.6322"
       x2="7683.4717"
       y2="1550.6322" />
  </defs>
  <g
     transform="matrix(0.13169305,0,0,0.13666723,-474.09498,-13.667736)"
     id="club_6"
     inkscape:label="#club_6">
    <rect
       width="598.21417"
       height="898.32574"
       rx="49.896725"
       ry="49.906242"
       x="3600.8333"
       y="100.84066"
       id="rect10550"
       style="fill:#ffffff;stroke:#000000;stroke-width:1.66649" />
    <rect
       style="fill:#000000;fill-opacity:0;stroke:url(#linearGradient10582);stroke-width:0.932762;stroke-linecap:square;stroke-linejoin:bevel;stroke-miterlimit:4;stroke-dasharray:none"
       id="rect10552"
       width="519.06726"
       height="819.06726"
       x="3640.4661"
       y="140.46684"
       ry="23.720173" />
    <path
       style="fill:#fbf6e3;fill-opacity:1"
       d="m 3655.8378,956.60513 c -1.2891,-0.47122 -3.9926,-2.34932 -6.0078,-4.17352 -8.6098,-7.79364 -8.0552,19.96733 -8.0489,-402.84854 0.01,-387.49299 0.035,-391.14011 3.1108,-396.18563 1.7077,-2.80083 5.3964,-6.48961 8.1973,-8.19729 5.0235,-3.06291 8.3657,-3.10488 247.2799,-3.10488 240.1146,0 242.2317,0.027 247.3564,3.15144 2.9845,1.81956 6.4368,5.9443 8.1689,9.75979 2.9323,6.45965 2.9998,15.34476 2.9998,394.8896 0,379.54484 -0.068,388.42995 -2.9998,394.8896 -1.7321,3.81549 -5.1844,7.94022 -8.1689,9.75979 -5.1269,3.12582 -7.1372,3.15048 -247.3564,3.03392 -133.2032,-0.0646 -243.2422,-0.50305 -244.5313,-0.97428 z"
       id="path10556"
       inkscape:connector-curvature="0" />
    <path
       style="fill:#00001e;fill-opacity:1"
       d="m 3756.9484,343.56864 c 6.623,-46.534 5.231,-55.622 -6.485,-42.449 -6.906,7.764 -21.734,7.957 -30.047,0.393 -8.3974,-7.644 -8.5804,-25.333 -0.382,-34.575 7.204,-8.103 22.537,-8.852 29.81,-1.455 10.714,10.9 9.98,3.012 -1.56,-16.823 -7.533,-12.952 -6.715,-22.8796 2.699,-32.7408 7.533,-7.891 18.476,-7.891 26.009,0 9.422,9.8612 10.232,19.7888 2.7,32.7408 -11.54,19.835 -12.275,27.723 -1.553,16.823 7.265,-7.397 22.598,-6.648 29.81,1.455 8.221,9.242 8.038,26.931 -0.382,34.575 -8.313,7.565 -23.149,7.371 -30.055,-0.393 -11.716,-13.173 -13.108,-4.085 -6.485,42.449 1.759,12.343 1.973,3.124 -6.821,3.124 -8.803,0 -9.055,9.219 -7.304,-3.124 z"
       id="path10558"
       inkscape:connector-curvature="0"
       sodipodi:nodetypes="ccccccccccccscscc" />
    <path
       style="fill:#00001e;fill-opacity:1"
       d="m 3663.7435,311.9791 c 2.1194,-14.6251 1.6739,-17.4811 -2.0752,-13.3412 -2.2099,2.44 -6.9549,2.5009 -9.615,0.1234 -2.6871,-2.4022 -2.7456,-7.9617 -0.1223,-10.8662 2.3053,-2.5469 7.2119,-2.7821 9.5392,-0.4573 3.4285,3.4256 3.1936,0.9465 -0.4992,-5.2873 -2.4105,-4.0707 -2.1488,-7.1908 0.8637,-10.29 2.4106,-2.48 5.9123,-2.48 8.3229,0 3.015,3.0992 3.2742,6.2193 0.864,10.29 -3.6928,6.2338 -3.928,8.7129 -0.497,5.2873 2.3248,-2.3248 7.2314,-2.0896 9.5392,0.4573 2.6307,2.9045 2.5722,8.464 -0.1222,10.8662 -2.6602,2.3776 -7.4077,2.3167 -9.6176,-0.1234 -3.7491,-4.1399 -4.1946,-1.2839 -2.0752,13.3412 0.5628,3.8792 0.6313,0.9818 -2.1827,0.9818 -2.817,0 -2.8976,2.8973 -2.3373,-0.9818 z"
       id="path10560"
       inkscape:connector-curvature="0"
       sodipodi:nodetypes="ccccccccccccscscc" />
    <path
       sodipodi:nodetypes="ccccccccccccscscc"
       inkscape:connector-curvature="0"
       id="path10562"
       d="m 4043.0524,756.43244 c -6.623,46.534 -5.231,55.622 6.485,42.449 6.906,-7.764 21.734,-7.957 30.047,-0.393 8.3974,7.644 8.5804,25.333 0.382,34.575 -7.204,8.103 -22.537,8.852 -29.81,1.455 -10.714,-10.9 -9.98,-3.012 1.56,16.823 7.533,12.952 6.715,22.8796 -2.699,32.7408 -7.533,7.891 -18.476,7.891 -26.009,0 -9.422,-9.8612 -10.232,-19.7888 -2.7,-32.7408 11.54,-19.835 12.275,-27.723 1.553,-16.823 -7.265,7.397 -22.598,6.648 -29.81,-1.455 -8.221,-9.242 -8.038,-26.931 0.382,-34.575 8.313,-7.565 23.149,-7.371 30.055,0.393 11.716,13.173 13.108,4.085 6.485,-42.449 -1.759,-12.343 -1.973,-3.124 6.821,-3.124 8.803,0 9.055,-9.219 7.304,3.124 z"
       style="fill:#00001e;fill-opacity:1" />
    <path
       sodipodi:nodetypes="ccccccccccccscscc"
       inkscape:connector-curvature="0"
       id="path10564"
       d="m 4136.2569,788.02198 c -2.1194,14.6251 -1.6739,17.4811 2.0752,13.3412 2.2099,-2.44 6.9549,-2.5009 9.615,-0.1234 2.6871,2.4022 2.7456,7.9617 0.1223,10.8662 -2.3053,2.5469 -7.2119,2.7821 -9.5392,0.4573 -3.4285,-3.4256 -3.1936,-0.9465 0.4992,5.2873 2.4105,4.0707 2.1488,7.1908 -0.8637,10.29 -2.4106,2.48 -5.9123,2.48 -8.3229,0 -3.015,-3.0992 -3.2742,-6.2193 -0.864,-10.29 3.6928,-6.2338 3.928,-8.7129 0.497,-5.2873 -2.3248,2.3248 -7.2314,2.0896 -9.5392,-0.4573 -2.6307,-2.9045 -2.5722,-8.464 0.1222,-10.8662 2.6602,-2.3776 7.4077,-2.3167 9.6176,0.1234 3.7491,4.1399 4.1946,1.2839 2.0752,-13.3412 -0.5628,-3.8792 -0.6313,-0.9818 2.1827,-0.9818 2.817,0 2.8976,-2.8973 2.3373,0.9818 z"
       style="fill:#00001e;fill-opacity:1" />
    <path
       style="fill:#00001e;fill-opacity:1"
       d="m 4043.0524,343.56864 c -6.623,-46.534 -5.231,-55.622 6.485,-42.449 6.906,7.764 21.734,7.957 30.047,0.393 8.3974,-7.644 8.5804,-25.333 0.382,-34.575 -7.204,-8.103 -22.537,-8.852 -29.81,-1.455 -10.714,10.9 -9.98,3.012 1.56,-16.823 7.533,-12.952 6.715,-22.88 -2.699,-32.741 -7.533,-7.891 -18.476,-7.891 -26.009,0 -9.422,9.861 -10.232,19.789 -2.7,32.741 11.54,19.835 12.275,27.723 1.553,16.823 -7.265,-7.397 -22.598,-6.648 -29.81,1.455 -8.221,9.242 -8.038,26.931 0.382,34.575 8.313,7.565 23.149,7.371 30.055,-0.393 11.716,-13.173 13.108,-4.085 6.485,42.449 -1.759,12.343 -1.973,3.124 6.821,3.124 8.803,0 9.055,9.219 7.304,-3.124 z"
       id="path10566"
       inkscape:connector-curvature="0"
       sodipodi:nodetypes="ccccccccccccscscc" />
    <path
       style="fill:#00001e;fill-opacity:1"
       d="m 4136.2569,311.97864 c -2.1194,-14.625 -1.6739,-17.481 2.0752,-13.341 2.2099,2.44 6.9549,2.501 9.615,0.123 2.6871,-2.402 2.7456,-7.961 0.1223,-10.866 -2.3053,-2.547 -7.2119,-2.782 -9.5392,-0.457 -3.4285,3.425 -3.1936,0.946 0.4992,-5.288 2.4105,-4.07 2.1488,-7.19 -0.8637,-10.29 -2.4106,-2.48 -5.9123,-2.48 -8.3229,0 -3.015,3.1 -3.2742,6.22 -0.864,10.29 3.6928,6.234 3.928,8.713 0.497,5.288 -2.3248,-2.325 -7.2314,-2.09 -9.5392,0.457 -2.6307,2.905 -2.5722,8.464 0.1222,10.866 2.6602,2.378 7.4077,2.317 9.6176,-0.123 3.7491,-4.14 4.1946,-1.284 2.0752,13.341 -0.5628,3.879 -0.6313,0.982 2.1827,0.982 2.817,0 2.8976,2.897 2.3373,-0.982 z"
       id="path10568"
       inkscape:connector-curvature="0"
       sodipodi:nodetypes="ccccccccccccscscc" />
    <path
       style="fill:#00001e;fill-opacity:1"
       d="m 3756.948,756.43244 c 6.623,46.534 5.231,55.622 -6.485,42.449 -6.906,-7.764 -21.734,-7.957 -30.047,-0.393 -8.3974,7.644 -8.5804,25.333 -0.382,34.575 7.204,8.103 22.537,8.852 29.81,1.455 10.714,-10.9 9.98,-3.012 -1.56,16.823 -7.533,12.952 -6.715,22.8796 2.699,32.7408 7.533,7.891 18.476,7.891 26.009,0 9.422,-9.8612 10.232,-19.7888 2.7,-32.7408 -11.54,-19.835 -12.275,-27.723 -1.553,-16.823 7.265,7.397 22.598,6.648 29.81,-1.455 8.221,-9.242 8.038,-26.931 -0.382,-34.575 -8.313,-7.565 -23.149,-7.371 -30.055,0.393 -11.716,13.173 -13.108,4.085 -6.485,-42.449 1.759,-12.343 1.973,-3.124 -6.821,-3.124 -8.803,0 -9.055,-9.219 -7.304,3.124 z"
       id="path10570"
       inkscape:connector-curvature="0"
       sodipodi:nodetypes="ccccccccccccscscc" />
    <path
       style="fill:#00001e;fill-opacity:1"
       d="m 3663.7435,788.02198 c 2.1194,14.6251 1.6739,17.4811 -2.0752,13.3412 -2.2099,-2.44 -6.9549,-2.5009 -9.615,-0.1234 -2.6871,2.4022 -2.7456,7.9617 -0.1223,10.8662 2.3053,2.5469 7.2119,2.7821 9.5392,0.4573 3.4285,-3.4256 3.1936,-0.9465 -0.4992,5.2873 -2.4105,4.0707 -2.1488,7.1908 0.8637,10.29 2.4106,2.48 5.9123,2.48 8.3229,0 3.015,-3.0992 3.2742,-6.2193 0.864,-10.29 -3.6928,-6.2338 -3.928,-8.7129 -0.497,-5.2873 2.3248,2.3248 7.2314,2.0896 9.5392,-0.4573 2.6307,-2.9045 2.5722,-8.464 -0.1222,-10.8662 -2.6602,-2.3776 -7.4077,-2.3167 -9.6176,0.1234 -3.7491,4.1399 -4.1946,1.2839 -2.0752,-13.3412 0.5628,-3.8792 0.6313,-0.9818 -2.1827,-0.9818 -2.817,0 -2.8976,-2.8973 -2.3373,0.9818 z"
       id="path10572"
       inkscape:connector-curvature="0"
       sodipodi:nodetypes="ccccccccccccscscc" />
    <path
       sodipodi:nodetypes="ccccccccccccscscc"
       inkscape:connector-curvature="0"
       id="path10574"
       d="m 3756.9484,613.56864 c 6.623,-46.534 5.231,-55.622 -6.485,-42.449 -6.906,7.764 -21.734,7.957 -30.047,0.393 -8.3974,-7.644 -8.5804,-25.333 -0.382,-34.575 7.204,-8.103 22.537,-8.852 29.81,-1.455 10.714,10.9 9.98,3.012 -1.56,-16.823 -7.533,-12.952 -6.715,-22.8796 2.699,-32.7408 7.533,-7.891 18.476,-7.891 26.009,0 9.422,9.8612 10.232,19.7888 2.7,32.7408 -11.54,19.835 -12.275,27.723 -1.553,16.823 7.265,-7.397 22.598,-6.648 29.81,1.455 8.221,9.242 8.038,26.931 -0.382,34.575 -8.313,7.565 -23.149,7.371 -30.055,-0.393 -11.716,-13.173 -13.108,-4.085 -6.485,42.449 1.759,12.343 1.973,3.124 -6.821,3.124 -8.803,0 -9.055,9.219 -7.304,-3.124 z"
       style="fill:#00001e;fill-opacity:1" />
    <path
       sodipodi:nodetypes="ccccccccccccscscc"
       inkscape:connector-curvature="0"
       id="path10576"
       d="m 4043.0524,613.56864 c -6.623,-46.534 -5.231,-55.622 6.485,-42.449 6.906,7.764 21.734,7.957 30.047,0.393 8.3974,-7.644 8.5804,-25.333 0.382,-34.575 -7.204,-8.103 -22.537,-8.852 -29.81,-1.455 -10.714,10.9 -9.98,3.012 1.56,-16.823 7.533,-12.952 6.715,-22.88 -2.699,-32.741 -7.533,-7.891 -18.476,-7.891 -26.009,0 -9.422,9.861 -10.232,19.789 -2.7,32.741 11.54,19.835 12.275,27.723 1.553,16.823 -7.265,-7.397 -22.598,-6.648 -29.81,1.455 -8.221,9.242 -8.038,26.931 0.382,34.575 8.313,7.565 23.149,7.371 30.055,-0.393 11.716,-13.173 13.108,-4.085 6.485,42.449 -1.759,12.343 -1.973,3.124 6.821,3.124 8.803,0 9.055,9.219 7.304,-3.124 z"
       style="fill:#00001e;fill-opacity:1" />
    <path
       d="m 3680.2777,190.00079 v 3.1337 q -20.3892,2.8302 -22.7147,27.0901 l 0.1782,0.2017 q 4.1135,-5.3572 9.7924,-5.3572 6.8859,0 11.8493,6.4693 5.0078,6.4188 5.0078,14.9603 0,9.1987 -5.4104,16.3755 -5.3655,7.1263 -12.8328,7.1263 -8.1378,0 -13.5036,-8.1371 -5.3656,-8.1878 -5.3656,-20.5704 0,-16.426 9.3005,-27.8989 9.3451,-11.5234 23.6983,-13.3936 z m -23.2065,34.8737 -0.2682,8.9456 q 0,18.4985 3.3088,21.1265 3.3088,2.5777 6.0363,2.5777 4.2034,0 6.4389,-3.993 2.2803,-4.0433 2.2803,-16.4261 0,-13.09 -2.1012,-16.3245 -2.0572,-3.2347 -5.8576,-3.2347 -5.2763,0 -9.8373,7.3285 z"
       id="path41174"
       inkscape:connector-curvature="0"
       style="font-style:normal;font-variant:normal;font-weight:normal;font-stretch:normal;font-size:medium;line-height:125%;font-family:'Bodoni MT';-inkscape-font-specification:'Bodoni MT, Normal';text-align:start;letter-spacing:0px;word-spacing:0px;writing-mode:lr-tb;text-anchor:start;fill:#000000;fill-opacity:1;stroke:none;stroke-width:1px;stroke-linecap:butt;stroke-linejoin:miter;stroke-opacity:1" />
    <path
       style="font-style:normal;font-variant:normal;font-weight:normal;font-stretch:normal;font-size:medium;line-height:125%;font-family:'Bodoni MT';-inkscape-font-specification:'Bodoni MT, Normal';text-align:start;letter-spacing:0px;word-spacing:0px;writing-mode:lr-tb;text-anchor:start;fill:#000000;fill-opacity:1;stroke:none;stroke-width:1px;stroke-linecap:butt;stroke-linejoin:miter;stroke-opacity:1"
       inkscape:connector-curvature="0"
       id="path12668"
       d="m 4148.2774,190.00079 v 3.1337 q -20.3892,2.8302 -22.7147,27.0901 l 0.1782,0.2017 q 4.1135,-5.3572 9.7924,-5.3572 6.8859,0 11.8493,6.4693 5.0078,6.4188 5.0078,14.9603 0,9.1987 -5.4104,16.3755 -5.3655,7.1263 -12.8328,7.1263 -8.1378,0 -13.5036,-8.1371 -5.3656,-8.1878 -5.3656,-20.5704 0,-16.426 9.3005,-27.8989 9.3451,-11.5234 23.6983,-13.3936 z m -23.2065,34.8737 -0.2682,8.9456 q 0,18.4985 3.3088,21.1265 3.3088,2.5777 6.0363,2.5777 4.2034,0 6.4389,-3.993 2.2803,-4.0433 2.2803,-16.4261 0,-13.09 -2.1012,-16.3245 -2.0572,-3.2347 -5.8576,-3.2347 -5.2763,0 -9.8373,7.3285 z" />
    <path
       style="font-style:normal;font-variant:normal;font-weight:normal;font-stretch:normal;font-size:medium;line-height:125%;font-family:'Bodoni MT';-inkscape-font-specification:'Bodoni MT, Normal';text-align:start;letter-spacing:0px;word-spacing:0px;writing-mode:lr-tb;text-anchor:start;fill:#000000;fill-opacity:1;stroke:none;stroke-width:1px;stroke-linecap:butt;stroke-linejoin:miter;stroke-opacity:1"
       inkscape:connector-curvature="0"
       id="path12670"
       d="m 3651.3913,910.00019 v -3.1337 q 20.3892,-2.8302 22.7147,-27.0901 l -0.1782,-0.2017 q -4.1135,5.3572 -9.7924,5.3572 -6.8859,0 -11.8493,-6.4693 -5.0078,-6.4188 -5.0078,-14.9603 0,-9.1987 5.4104,-16.3755 5.3655,-7.1263 12.8328,-7.1263 8.1378,0 13.5036,8.1371 5.3656,8.1878 5.3656,20.5704 0,16.426 -9.3005,27.8989 -9.3451,11.5234 -23.6983,13.3936 z m 23.2065,-34.8737 0.2682,-8.9456 q 0,-18.4985 -3.3088,-21.1265 -3.3088,-2.5777 -6.0363,-2.5777 -4.2034,0 -6.4389,3.993 -2.2803,4.0433 -2.2803,16.4261 0,13.09 2.1012,16.3245 2.0572,3.2347 5.8576,3.2347 5.2763,0 9.8373,-7.3285 z" />
    <path
       d="m 4119.391,910.00019 v -3.1337 q 20.3892,-2.8302 22.7147,-27.0901 l -0.1782,-0.2017 q -4.1135,5.3572 -9.7924,5.3572 -6.8859,0 -11.8493,-6.4693 -5.0078,-6.4188 -5.0078,-14.9603 0,-9.1987 5.4104,-16.3755 5.3655,-7.1263 12.8328,-7.1263 8.1378,0 13.5036,8.1371 5.3656,8.1878 5.3656,20.5704 0,16.426 -9.3005,27.8989 -9.3451,11.5234 -23.6983,13.3936 z m 23.2065,-34.8737 0.2682,-8.9456 q 0,-18.4985 -3.3088,-21.1265 -3.3088,-2.5777 -6.0363,-2.5777 -4.2034,0 -6.4389,3.993 -2.2803,4.0433 -2.2803,16.4261 0,13.09 2.1012,16.3245 2.0572,3.2347 5.8576,3.2347 5.2763,0 9.8373,-7.3285 z"
       id="path12672"
       inkscape:connector-curvature="0"
       style="font-style:normal;font-variant:normal;font-weight:normal;font-stretch:normal;font-size:medium;line-height:125%;font-family:'Bodoni MT';-inkscape-font-specification:'Bodoni MT, Normal';text-align:start;letter-spacing:0px;word-spacing:0px;writing-mode:lr-tb;text-anchor:start;fill:#000000;fill-opacity:1;stroke:none;stroke-width:1px;stroke-linecap:butt;stroke-linejoin:miter;stroke-opacity:1" />
  </g>
</svg>
