<?xml version="1.0" encoding="UTF-8" standalone="no"?>
<!-- Created with Inkscape (http://www.inkscape.org/) -->

<svg
   id="svg10047"
   height="122.99944"
   width="79.000114"
   version="1.1"
   viewBox="0 0 79.000114 122.99944"
   inkscape:version="0.91 r13725"
   sodipodi:docname="salon-karte-66.svgz"
   xmlns:inkscape="http://www.inkscape.org/namespaces/inkscape"
   xmlns:sodipodi="http://sodipodi.sourceforge.net/DTD/sodipodi-0.dtd"
   xmlns:xlink="http://www.w3.org/1999/xlink"
   xmlns="http://www.w3.org/2000/svg"
   xmlns:svg="http://www.w3.org/2000/svg"
   xmlns:rdf="http://www.w3.org/1999/02/22-rdf-syntax-ns#"
   xmlns:cc="http://creativecommons.org/ns#"
   xmlns:dc="http://purl.org/dc/elements/1.1/">
  <sodipodi:namedview
     pagecolor="#ffffff"
     bordercolor="#666666"
     borderopacity="1"
     objecttolerance="10"
     gridtolerance="10"
     guidetolerance="10"
     inkscape:pageopacity="0"
     inkscape:pageshadow="2"
     inkscape:window-width="1920"
     inkscape:window-height="1016"
     id="namedview1491"
     showgrid="false"
     inkscape:zoom="1.3479675"
     inkscape:cx="513.5"
     inkscape:cy="307.5"
     inkscape:window-x="0"
     inkscape:window-y="0"
     inkscape:window-maximized="1"
     inkscape:current-layer="svg10047"
     showguides="true"
     inkscape:guide-bbox="true"
     inkscape:snap-grids="true"
     inkscape:showpageshadow="2"
     inkscape:pagecheckerboard="0"
     inkscape:deskcolor="#d1d1d1" />
  <metadata
     id="metadata16869">
    <rdf:RDF>
      <cc:Work
         rdf:about="">
        <dc:format>image/svg+xml</dc:format>
        <dc:type
           rdf:resource="http://purl.org/dc/dcmitype/StillImage" />
        <dc:title />
      </cc:Work>
    </rdf:RDF>
  </metadata>
  <defs
     id="defs10049">
    <linearGradient
       id="linearGradient17425"
       inkscape:swatch="solid">
      <stop
         style="stop-color:#000000;stop-opacity:1;"
         offset="0"
         id="stop17427" />
    </linearGradient>
    <linearGradient
       inkscape:collect="always"
       xlink:href="#linearGradient17425"
       id="linearGradient17984"
       gradientUnits="userSpaceOnUse"
       gradientTransform="matrix(0.91728841,0,0,0.94849571,-4988.4259,2079.2321)"
       x1="7117.6006"
       y1="1550.6322"
       x2="7683.4717"
       y2="1550.6322" />
  </defs>
  <g
     transform="matrix(0.13169305,0,0,0.13666723,-197.53958,-423.66941)"
     id="diamond_3"
     inkscape:label="#diamond_3">
    <rect
       style="fill:#ffffff;stroke:#000000;stroke-width:1.66649"
       id="rect17640"
       y="3100.8406"
       x="1500.8333"
       ry="49.906242"
       rx="49.896725"
       height="898.32574"
       width="598.21417" />
    <rect
       ry="23.720173"
       y="3140.4668"
       x="1540.4661"
       height="819.06726"
       width="519.06726"
       id="rect17642"
       style="fill:#000000;fill-opacity:0;stroke:url(#linearGradient17984);stroke-width:0.932762;stroke-linecap:square;stroke-linejoin:bevel;stroke-miterlimit:4;stroke-dasharray:none" />
    <path
       inkscape:connector-curvature="0"
       id="path17646"
       d="m 1555.838,3956.6049 c -1.2891,-0.4713 -3.9926,-2.3494 -6.0078,-4.1736 -8.6098,-7.7936 -8.0552,19.9674 -8.0489,-402.8485 0.01,-387.493 0.035,-391.1401 3.1108,-396.1856 1.7077,-2.8009 5.3964,-6.4896 8.1973,-8.1973 5.0235,-3.0629 8.3657,-3.1049 247.2799,-3.1049 240.1146,0 242.2317,0.027 247.3564,3.1514 2.9845,1.8196 6.4368,5.9443 8.1689,9.7598 2.9323,6.4597 2.9998,15.3448 2.9998,394.8896 0,379.5449 -0.068,388.43 -2.9998,394.8896 -1.7321,3.8155 -5.1844,7.9403 -8.1689,9.7598 -5.1269,3.1258 -7.1372,3.1505 -247.3564,3.0339 -133.2032,-0.065 -243.2422,-0.503 -244.5313,-0.9742 z"
       style="fill:#fbf6e3;fill-opacity:1" />
    <path
       style="font-style:normal;font-variant:normal;font-weight:normal;font-stretch:normal;font-size:medium;line-height:125%;font-family:'Bodoni MT';-inkscape-font-specification:'Bodoni MT, Normal';text-align:start;letter-spacing:0px;word-spacing:0px;writing-mode:lr-tb;text-anchor:start;fill:#ff3030;fill-opacity:1;stroke:none;stroke-width:1px;stroke-linecap:butt;stroke-linejoin:miter;stroke-opacity:1"
       inkscape:connector-curvature="0"
       id="path17738"
       d="m 1565.8399,3222.087 v 0.2078 q 9.7925,0.9362 13.5483,6.2409 3.756,5.2529 3.756,11.6497 0,8.061 -5.8576,13.938 -5.8576,5.8768 -14.0846,5.8768 -6.4389,0 -10.6423,-4.0046 -4.203,-4.0046 -4.203,-8.7894 0,-2.7042 1.2968,-4.5245 1.2968,-1.8721 3.2642,-1.8721 1.8333,0 3.0852,1.612 1.2519,1.5603 1.2519,3.7965 0,3.5364 -2.4146,4.9409 -1.5201,0.7801 -1.5201,1.2481 0,0.988 2.7721,2.9124 2.817,1.8722 6.2602,1.8722 10.9099,0 10.9099,-15.4461 0,-11.1296 -4.024,-14.5101 -3.9797,-3.3803 -8.7192,-3.3803 l -3.8902,0.312 q -2.1461,0 -2.1461,-1.6642 0,-1.6124 1.8333,-1.6124 0.5811,0 2.8167,0.2611 2.2805,0.2609 2.3251,0.2609 1.3861,0 4.0244,-1.7162 2.6825,-1.7161 3.9347,-4.5246 1.2966,-2.8606 1.2966,-8.9972 0,-8.165 -1.9675,-10.8696 -1.9225,-2.7563 -5.5441,-2.7563 -3.3091,0 -5.6343,1.56 -2.3251,1.5083 -2.3251,2.8085 0,0.5719 1.744,1.7162 1.7885,1.0922 1.7885,3.8484 0,1.9245 -1.2966,3.3807 -1.2968,1.4041 -2.9065,1.4041 -1.8332,0 -3.0406,-1.7679 -1.1625,-1.7685 -1.1625,-4.1088 0,-4.2646 3.89,-7.8012 3.8901,-3.5885 10.016,-3.5885 6.8413,0 11.4467,4.5248 4.6056,4.4723 4.6056,10.9214 0,12.2737 -14.4873,16.6423 z" />
    <path
       d="m 2033.8402,3222.087 v 0.2078 q 9.7925,0.9362 13.5483,6.2409 3.756,5.2529 3.756,11.6497 0,8.061 -5.8576,13.938 -5.8576,5.8768 -14.0846,5.8768 -6.4389,0 -10.6423,-4.0046 -4.203,-4.0046 -4.203,-8.7894 0,-2.7042 1.2968,-4.5245 1.2968,-1.8721 3.2642,-1.8721 1.8333,0 3.0852,1.612 1.2519,1.5603 1.2519,3.7965 0,3.5364 -2.4146,4.9409 -1.5201,0.7801 -1.5201,1.2481 0,0.988 2.7721,2.9124 2.817,1.8722 6.2602,1.8722 10.9099,0 10.9099,-15.4461 0,-11.1296 -4.024,-14.5101 -3.9797,-3.3803 -8.7192,-3.3803 l -3.8902,0.312 q -2.1461,0 -2.1461,-1.6642 0,-1.6124 1.8333,-1.6124 0.5811,0 2.8167,0.2611 2.2805,0.2609 2.3251,0.2609 1.3861,0 4.0244,-1.7162 2.6825,-1.7161 3.9347,-4.5246 1.2966,-2.8606 1.2966,-8.9972 0,-8.165 -1.9675,-10.8696 -1.9225,-2.7563 -5.5441,-2.7563 -3.3091,0 -5.6343,1.56 -2.3251,1.5083 -2.3251,2.8085 0,0.5719 1.744,1.7162 1.7885,1.0922 1.7885,3.8484 0,1.9245 -1.2966,3.3807 -1.2968,1.4041 -2.9065,1.4041 -1.8332,0 -3.0406,-1.7679 -1.1625,-1.7685 -1.1625,-4.1088 0,-4.2646 3.89,-7.8012 3.8901,-3.5885 10.016,-3.5885 6.8413,0 11.4467,4.5248 4.6056,4.4723 4.6056,10.9214 0,12.2737 -14.4873,16.6423 z"
       id="path17740"
       inkscape:connector-curvature="0"
       style="font-style:normal;font-variant:normal;font-weight:normal;font-stretch:normal;font-size:medium;line-height:125%;font-family:'Bodoni MT';-inkscape-font-specification:'Bodoni MT, Normal';text-align:start;letter-spacing:0px;word-spacing:0px;writing-mode:lr-tb;text-anchor:start;fill:#ff3030;fill-opacity:1;stroke:none;stroke-width:1px;stroke-linecap:butt;stroke-linejoin:miter;stroke-opacity:1" />
    <path
       d="m 1565.661,3877.9135 v -0.2079 q -9.7925,-0.9361 -13.5483,-6.2409 -3.756,-5.2529 -3.756,-11.6497 0,-8.0609 5.8576,-13.9379 5.8576,-5.8768 14.0846,-5.8768 6.4389,0 10.6423,4.0045 4.203,4.0047 4.203,8.7894 0,2.7043 -1.2968,4.5245 -1.2968,1.8722 -3.2642,1.8722 -1.8333,0 -3.0852,-1.6121 -1.2519,-1.5603 -1.2519,-3.7964 0,-3.5364 2.4146,-4.941 1.5201,-0.7801 1.5201,-1.2481 0,-0.988 -2.7721,-2.9124 -2.817,-1.8722 -6.2602,-1.8722 -10.9099,0 -10.9099,15.4461 0,11.1296 4.024,14.5101 3.9797,3.3803 8.7192,3.3803 l 3.8902,-0.312 q 2.1461,0 2.1461,1.6642 0,1.6124 -1.8333,1.6124 -0.5811,0 -2.8167,-0.2611 -2.2805,-0.2609 -2.3251,-0.2609 -1.3861,0 -4.0244,1.7162 -2.6825,1.7161 -3.9347,4.5246 -1.2966,2.8606 -1.2966,8.9972 0,8.165 1.9675,10.8696 1.9225,2.7563 5.5441,2.7563 3.3091,0 5.6343,-1.56 2.3251,-1.5083 2.3251,-2.8085 0,-0.5719 -1.744,-1.7162 -1.7885,-1.0922 -1.7885,-3.8484 0,-1.9245 1.2966,-3.3807 1.2968,-1.4041 2.9065,-1.4041 1.8332,0 3.0406,1.7679 1.1625,1.7685 1.1625,4.1088 0,4.2646 -3.89,7.8012 -3.8901,3.5885 -10.016,3.5885 -6.8413,0 -11.4467,-4.5248 -4.6056,-4.4723 -4.6056,-10.9214 0,-12.2737 14.4873,-16.6423 z"
       id="path17742"
       inkscape:connector-curvature="0"
       style="font-style:normal;font-variant:normal;font-weight:normal;font-stretch:normal;font-size:medium;line-height:125%;font-family:'Bodoni MT';-inkscape-font-specification:'Bodoni MT, Normal';text-align:start;letter-spacing:0px;word-spacing:0px;writing-mode:lr-tb;text-anchor:start;fill:#ff3030;fill-opacity:1;stroke:none;stroke-width:1px;stroke-linecap:butt;stroke-linejoin:miter;stroke-opacity:1" />
    <path
       style="font-style:normal;font-variant:normal;font-weight:normal;font-stretch:normal;font-size:medium;line-height:125%;font-family:'Bodoni MT';-inkscape-font-specification:'Bodoni MT, Normal';text-align:start;letter-spacing:0px;word-spacing:0px;writing-mode:lr-tb;text-anchor:start;fill:#ff3030;fill-opacity:1;stroke:none;stroke-width:1px;stroke-linecap:butt;stroke-linejoin:miter;stroke-opacity:1"
       inkscape:connector-curvature="0"
       id="path17744"
       d="m 2033.6612,3877.9134 v -0.2078 q -9.7925,-0.9362 -13.5482,-6.2409 -3.7561,-5.2529 -3.7561,-11.6497 0,-8.061 5.8577,-13.938 5.8576,-5.8768 14.0845,-5.8768 6.439,0 10.6423,4.0046 4.203,4.0046 4.203,8.7894 0,2.7042 -1.2968,4.5245 -1.2967,1.8721 -3.2642,1.8721 -1.8333,0 -3.0852,-1.612 -1.2519,-1.5603 -1.2519,-3.7965 0,-3.5364 2.4147,-4.9409 1.5201,-0.7801 1.5201,-1.2481 0,-0.988 -2.7721,-2.9124 -2.817,-1.8722 -6.2602,-1.8722 -10.9099,0 -10.9099,15.4461 0,11.1296 4.024,14.5101 3.9797,3.3803 8.7192,3.3803 l 3.8901,-0.312 q 2.1462,0 2.1462,1.6642 0,1.6124 -1.8333,1.6124 -0.5811,0 -2.8167,-0.2611 -2.2806,-0.2609 -2.3251,-0.2609 -1.3861,0 -4.0244,1.7162 -2.6825,1.7161 -3.9347,4.5246 -1.2966,2.8606 -1.2966,8.9972 0,8.165 1.9675,10.8696 1.9224,2.7563 5.5441,2.7563 3.3091,0 5.6343,-1.56 2.3251,-1.5083 2.3251,-2.8085 0,-0.5719 -1.7441,-1.7162 -1.7884,-1.0922 -1.7884,-3.8484 0,-1.9245 1.2965,-3.3807 1.2969,-1.4041 2.9066,-1.4041 1.8332,0 3.0406,1.7679 1.1625,1.7685 1.1625,4.1088 0,4.2646 -3.89,7.8012 -3.8901,3.5885 -10.016,3.5885 -6.8413,0 -11.4467,-4.5248 -4.6056,-4.4723 -4.6056,-10.9214 0,-12.2737 14.4873,-16.6423 z" />
    <path
       style="fill:#ff3030;fill-opacity:1"
       d="m 1564.6688,3311.4276 c -4.48,-9.0285 -6.0714,-11.7415 -8.263,-14.0864 -1.1322,-1.2112 -2.497,-2.3616 -5.0884,-4.2882 -0.7244,-0.5387 -1.3174,-1.0124 -1.3174,-1.0525 0,-0.04 0.593,-0.5138 1.3174,-1.0525 2.5914,-1.9266 3.9562,-3.077 5.0884,-4.2882 2.1916,-2.3449 3.783,-5.0579 8.263,-14.0864 0.7024,-1.4151 1.3014,-2.5729 1.3312,-2.5729 0.029,0 0.6288,1.1578 1.3309,2.5729 4.4803,9.0285 6.0717,11.7415 8.2633,14.0864 1.1319,1.2112 2.497,2.3616 5.0884,4.2882 0.7244,0.5387 1.3174,1.0124 1.3174,1.0525 0,0.04 -0.593,0.5138 -1.3174,1.0525 -2.5914,1.9266 -3.9565,3.077 -5.0884,4.2882 -2.1916,2.3449 -3.783,5.0579 -8.2633,14.0864 -0.7021,1.4151 -1.3011,2.5729 -1.3309,2.5729 -0.029,0 -0.6288,-1.1578 -1.3312,-2.5729 z"
       id="path18030"
       inkscape:connector-curvature="0" />
    <path
       inkscape:connector-curvature="0"
       id="path18032"
       d="m 2032.6513,3311.4276 c -4.48,-9.0285 -6.0714,-11.7415 -8.263,-14.0864 -1.1322,-1.2112 -2.497,-2.3616 -5.0884,-4.2882 -0.7244,-0.5387 -1.3174,-1.0124 -1.3174,-1.0525 0,-0.04 0.593,-0.5138 1.3174,-1.0525 2.5914,-1.9266 3.9562,-3.077 5.0884,-4.2882 2.1916,-2.3449 3.783,-5.0579 8.263,-14.0864 0.7024,-1.4151 1.3014,-2.5729 1.3312,-2.5729 0.029,0 0.6288,1.1578 1.3309,2.5729 4.4803,9.0285 6.0717,11.7415 8.2633,14.0864 1.1319,1.2112 2.497,2.3616 5.0884,4.2882 0.7244,0.5387 1.3174,1.0124 1.3174,1.0525 0,0.04 -0.593,0.5138 -1.3174,1.0525 -2.5914,1.9266 -3.9565,3.077 -5.0884,4.2882 -2.1916,2.3449 -3.783,5.0579 -8.2633,14.0864 -0.7021,1.4151 -1.3011,2.5729 -1.3309,2.5729 -0.029,0 -0.6288,-1.1578 -1.3312,-2.5729 z"
       style="fill:#ff3030;fill-opacity:1" />
    <path
       style="fill:#ff3030;fill-opacity:1"
       d="m 1567.3312,3788.5734 c 4.48,9.0285 6.0714,11.7415 8.263,14.0864 1.1322,1.2112 2.497,2.3616 5.0884,4.2882 0.7244,0.5387 1.3174,1.0124 1.3174,1.0525 0,0.04 -0.593,0.5138 -1.3174,1.0525 -2.5914,1.9266 -3.9562,3.077 -5.0884,4.2882 -2.1916,2.3449 -3.783,5.0579 -8.263,14.0864 -0.7024,1.4151 -1.3014,2.5729 -1.3312,2.5729 -0.029,0 -0.6288,-1.1578 -1.3309,-2.5729 -4.4803,-9.0285 -6.0717,-11.7415 -8.2633,-14.0864 -1.1319,-1.2112 -2.497,-2.3616 -5.0884,-4.2882 -0.7244,-0.5387 -1.3174,-1.0124 -1.3174,-1.0525 0,-0.04 0.593,-0.5138 1.3174,-1.0525 2.5914,-1.9266 3.9565,-3.077 5.0884,-4.2882 2.1916,-2.3449 3.783,-5.0579 8.2633,-14.0864 0.7021,-1.4151 1.3011,-2.5729 1.3309,-2.5729 0.029,0 0.6288,1.1578 1.3312,2.5729 z"
       id="path18052"
       inkscape:connector-curvature="0" />
    <path
       inkscape:connector-curvature="0"
       id="path18054"
       d="m 2035.3312,3788.5734 c 4.48,9.0285 6.0714,11.7415 8.263,14.0864 1.1322,1.2112 2.497,2.3616 5.0884,4.2882 0.7244,0.5387 1.3174,1.0124 1.3174,1.0525 0,0.04 -0.593,0.5138 -1.3174,1.0525 -2.5914,1.9266 -3.9562,3.077 -5.0884,4.2882 -2.1916,2.3449 -3.783,5.0579 -8.263,14.0864 -0.7024,1.4151 -1.3014,2.5729 -1.3312,2.5729 -0.029,0 -0.6288,-1.1578 -1.3309,-2.5729 -4.4803,-9.0285 -6.0717,-11.7415 -8.2633,-14.0864 -1.1319,-1.2112 -2.497,-2.3616 -5.0884,-4.2882 -0.7244,-0.5387 -1.3174,-1.0124 -1.3174,-1.0525 0,-0.04 0.593,-0.5138 1.3174,-1.0525 2.5914,-1.9266 3.9565,-3.077 5.0884,-4.2882 2.1916,-2.3449 3.783,-5.0579 8.2633,-14.0864 0.7021,-1.4151 1.3011,-2.5729 1.3309,-2.5729 0.029,0 0.6288,1.1578 1.3312,2.5729 z"
       style="fill:#ff3030;fill-opacity:1" />
    <path
       style="fill:#ff3030;fill-opacity:1"
       d="m 1795.84,3341.814 c -14,-28.727 -18.973,-37.3593 -25.822,-44.8205 -3.538,-3.8536 -7.803,-7.5139 -15.901,-13.644 -2.264,-1.7142 -4.117,-3.2213 -4.117,-3.349 0,-0.1277 1.853,-1.6347 4.117,-3.349 8.098,-6.13 12.363,-9.7903 15.901,-13.644 6.849,-7.4612 11.822,-16.0935 25.822,-44.8204 2.195,-4.5026 4.067,-8.1866 4.16,-8.1866 0.09,0 1.965,3.684 4.159,8.1866 14.001,28.7269 18.974,37.3592 25.823,44.8204 3.537,3.8537 7.803,7.514 15.901,13.644 2.264,1.7143 4.117,3.2213 4.117,3.349 0,0.1277 -1.853,1.6348 -4.117,3.349 -8.098,6.1301 -12.364,9.7904 -15.901,13.644 -6.849,7.4612 -11.822,16.0935 -25.823,44.8205 -2.194,4.5026 -4.066,8.1865 -4.159,8.1865 -0.09,0 -1.965,-3.6839 -4.16,-8.1865 z"
       id="path18218"
       inkscape:connector-curvature="0" />
    <path
       style="fill:#ff3030;fill-opacity:1"
       d="m 1795.84,3881.814 c -14,-28.727 -18.973,-37.3593 -25.822,-44.8205 -3.538,-3.8536 -7.803,-7.5139 -15.901,-13.644 -2.264,-1.7142 -4.117,-3.2213 -4.117,-3.349 0,-0.1277 1.853,-1.6347 4.117,-3.349 8.098,-6.13 12.363,-9.7903 15.901,-13.644 6.849,-7.4612 11.822,-16.0935 25.822,-44.8204 2.195,-4.5026 4.067,-8.1866 4.16,-8.1866 0.09,0 1.965,3.684 4.159,8.1866 14.001,28.7269 18.974,37.3592 25.823,44.8204 3.537,3.8537 7.803,7.514 15.901,13.644 2.264,1.7143 4.117,3.2213 4.117,3.349 0,0.1277 -1.853,1.6348 -4.117,3.349 -8.098,6.1301 -12.364,9.7904 -15.901,13.644 -6.849,7.4612 -11.822,16.0935 -25.823,44.8205 -2.194,4.5026 -4.066,8.1865 -4.159,8.1865 -0.09,0 -1.965,-3.6839 -4.16,-8.1865 z"
       id="path18222"
       inkscape:connector-curvature="0" />
    <path
       style="fill:#ff3030;fill-opacity:1"
       d="m 1795.84,3611.814 c -14,-28.727 -18.973,-37.3593 -25.822,-44.8205 -3.538,-3.8536 -7.803,-7.5139 -15.901,-13.644 -2.264,-1.7142 -4.117,-3.2213 -4.117,-3.349 0,-0.1277 1.853,-1.6347 4.117,-3.349 8.098,-6.13 12.363,-9.7903 15.901,-13.644 6.849,-7.4612 11.822,-16.0935 25.822,-44.8204 2.195,-4.5026 4.067,-8.1866 4.16,-8.1866 0.09,0 1.965,3.684 4.159,8.1866 14.001,28.7269 18.974,37.3592 25.823,44.8204 3.537,3.8537 7.803,7.514 15.901,13.644 2.264,1.7143 4.117,3.2213 4.117,3.349 0,0.1277 -1.853,1.6348 -4.117,3.349 -8.098,6.1301 -12.364,9.7904 -15.901,13.644 -6.849,7.4612 -11.822,16.0935 -25.823,44.8205 -2.194,4.5026 -4.066,8.1865 -4.159,8.1865 -0.09,0 -1.965,-3.6839 -4.16,-8.1865 z"
       id="path18226"
       inkscape:connector-curvature="0" />
  </g>
</svg>
