<?xml version="1.0" encoding="UTF-8" standalone="no"?>
<!-- Created with Inkscape (http://www.inkscape.org/) -->

<svg
   id="svg10047"
   height="122.99944"
   width="79.000114"
   version="1.1"
   viewBox="0 0 79.000114 122.99944"
   inkscape:version="0.91 r13725"
   sodipodi:docname="salon-karte-66.svgz"
   xmlns:inkscape="http://www.inkscape.org/namespaces/inkscape"
   xmlns:sodipodi="http://sodipodi.sourceforge.net/DTD/sodipodi-0.dtd"
   xmlns:xlink="http://www.w3.org/1999/xlink"
   xmlns="http://www.w3.org/2000/svg"
   xmlns:svg="http://www.w3.org/2000/svg"
   xmlns:rdf="http://www.w3.org/1999/02/22-rdf-syntax-ns#"
   xmlns:cc="http://creativecommons.org/ns#"
   xmlns:dc="http://purl.org/dc/elements/1.1/">
  <sodipodi:namedview
     pagecolor="#ffffff"
     bordercolor="#666666"
     borderopacity="1"
     objecttolerance="10"
     gridtolerance="10"
     guidetolerance="10"
     inkscape:pageopacity="0"
     inkscape:pageshadow="2"
     inkscape:window-width="1920"
     inkscape:window-height="1016"
     id="namedview1491"
     showgrid="false"
     inkscape:zoom="1.3479675"
     inkscape:cx="513.5"
     inkscape:cy="307.5"
     inkscape:window-x="0"
     inkscape:window-y="0"
     inkscape:window-maximized="1"
     inkscape:current-layer="svg10047"
     showguides="true"
     inkscape:guide-bbox="true"
     inkscape:snap-grids="true"
     inkscape:showpageshadow="2"
     inkscape:pagecheckerboard="0"
     inkscape:deskcolor="#d1d1d1" />
  <metadata
     id="metadata16869">
    <rdf:RDF>
      <cc:Work
         rdf:about="">
        <dc:format>image/svg+xml</dc:format>
        <dc:type
           rdf:resource="http://purl.org/dc/dcmitype/StillImage" />
        <dc:title />
      </cc:Work>
    </rdf:RDF>
  </metadata>
  <defs
     id="defs10049">
    <linearGradient
       id="linearGradient17425"
       inkscape:swatch="solid">
      <stop
         style="stop-color:#000000;stop-opacity:1;"
         offset="0"
         id="stop17427" />
    </linearGradient>
    <linearGradient
       inkscape:collect="always"
       xlink:href="#linearGradient17425"
       id="linearGradient17986"
       gradientUnits="userSpaceOnUse"
       gradientTransform="matrix(0.91728841,0,0,0.94849571,-5688.4259,2079.2321)"
       x1="7117.6006"
       y1="1550.6322"
       x2="7683.4717"
       y2="1550.6322" />
  </defs>
  <g
     transform="matrix(0.13169305,0,0,0.13666723,-105.35444,-423.66941)"
     id="diamond_2"
     inkscape:label="#diamond_2">
    <rect
       width="598.21417"
       height="898.32574"
       rx="49.896725"
       ry="49.906242"
       x="800.83325"
       y="3100.8406"
       id="rect17648"
       style="fill:#ffffff;stroke:#000000;stroke-width:1.66649" />
    <rect
       style="fill:#000000;fill-opacity:0;stroke:url(#linearGradient17986);stroke-width:0.932762;stroke-linecap:square;stroke-linejoin:bevel;stroke-miterlimit:4;stroke-dasharray:none"
       id="rect17650"
       width="519.06726"
       height="819.06726"
       x="840.46606"
       y="3140.4668"
       ry="23.720173" />
    <path
       style="fill:#fbf6e3;fill-opacity:1"
       d="m 855.83799,3956.6049 c -1.2891,-0.4713 -3.9926,-2.3494 -6.0078,-4.1736 -8.6098,-7.7936 -8.0552,19.9674 -8.0489,-402.8485 0.01,-387.493 0.035,-391.1401 3.1108,-396.1856 1.7077,-2.8009 5.3964,-6.4896 8.1973,-8.1973 5.0235,-3.0629 8.3657,-3.1049 247.27991,-3.1049 240.1146,0 242.2317,0.027 247.3564,3.1514 2.9845,1.8196 6.4368,5.9443 8.1689,9.7598 2.9323,6.4597 2.9998,15.3448 2.9998,394.8896 0,379.5449 -0.068,388.43 -2.9998,394.8896 -1.7321,3.8155 -5.1844,7.9403 -8.1689,9.7598 -5.1269,3.1258 -7.1372,3.1505 -247.3564,3.0339 -133.20321,-0.065 -243.24221,-0.503 -244.53131,-0.9742 z"
       id="path17654"
       inkscape:connector-curvature="0" />
    <path
       style="font-style:normal;font-variant:normal;font-weight:normal;font-stretch:normal;font-size:medium;line-height:125%;font-family:'Bodoni MT';-inkscape-font-specification:'Bodoni MT, Normal';text-align:start;letter-spacing:0px;word-spacing:0px;writing-mode:lr-tb;text-anchor:start;fill:#ff3030;fill-opacity:1;stroke:none;stroke-width:1px;stroke-linecap:butt;stroke-linejoin:miter;stroke-opacity:1"
       inkscape:connector-curvature="0"
       id="path17746"
       d="m 883.4412,3240.2811 -1.4758,19.7191 H 848.43 v -6.325 q 5.2316,-6.9626 15.3369,-18.1245 10.1501,-11.1616 10.1501,-24.6621 0,-7.6005 -2.817,-12.2778 -2.8169,-4.6773 -8.004,-4.6773 -4.6054,0 -7.5116,3.5078 -2.9064,3.4548 -2.9064,7.4943 0,2.073 0.8046,2.073 0.1782,0 0.7155,-0.3722 1.4755,-1.1692 2.8616,-1.1692 1.744,0 2.9514,1.6478 1.2519,1.5943 1.2519,3.7736 0,2.2323 -1.3415,3.8801 -1.3413,1.5944 -3.3088,1.5944 -2.7723,0 -4.6056,-2.817 -1.8333,-2.8701 -1.8333,-7.1221 0,-6.4845 4.4715,-11.4274 4.5162,-4.9964 11.5808,-4.9964 6.9308,0 11.9386,4.571 5.008,4.571 5.008,11.9592 0,7.8662 -4.4266,14.4036 -4.4267,6.5378 -13.0565,16.0518 -8.5851,9.5141 -12.207,14.1913 h 20.3449 q 5.6786,0 6.1704,-1.116 0.5365,-1.1163 0.8496,-5.2089 l 0.4024,-4.5711 z" />
    <path
       d="m 1351.4412,3240.2811 -1.4758,19.7191 H 1316.43 v -6.325 q 5.2316,-6.9626 15.3369,-18.1245 10.1501,-11.1616 10.1501,-24.6621 0,-7.6005 -2.817,-12.2778 -2.8169,-4.6773 -8.004,-4.6773 -4.6054,0 -7.5116,3.5078 -2.9064,3.4548 -2.9064,7.4943 0,2.073 0.8046,2.073 0.1782,0 0.7155,-0.3722 1.4755,-1.1692 2.8616,-1.1692 1.744,0 2.9514,1.6478 1.2519,1.5943 1.2519,3.7736 0,2.2323 -1.3415,3.8801 -1.3413,1.5944 -3.3088,1.5944 -2.7723,0 -4.6056,-2.817 -1.8333,-2.8701 -1.8333,-7.1221 0,-6.4845 4.4715,-11.4274 4.5162,-4.9964 11.5808,-4.9964 6.9308,0 11.9386,4.571 5.008,4.571 5.008,11.9592 0,7.8662 -4.4266,14.4036 -4.4267,6.5378 -13.0565,16.0518 -8.5851,9.5141 -12.207,14.1913 h 20.3449 q 5.6786,0 6.1704,-1.116 0.5365,-1.1163 0.8496,-5.2089 l 0.4024,-4.5711 z"
       id="path17748"
       inkscape:connector-curvature="0"
       style="font-style:normal;font-variant:normal;font-weight:normal;font-stretch:normal;font-size:medium;line-height:125%;font-family:'Bodoni MT';-inkscape-font-specification:'Bodoni MT, Normal';text-align:start;letter-spacing:0px;word-spacing:0px;writing-mode:lr-tb;text-anchor:start;fill:#ff3030;fill-opacity:1;stroke:none;stroke-width:1px;stroke-linecap:butt;stroke-linejoin:miter;stroke-opacity:1" />
    <path
       d="m 848.43,3859.7193 1.4758,-19.7191 h 33.5354 v 6.325 q -5.2316,6.9626 -15.3369,18.1245 -10.1501,11.1616 -10.1501,24.6621 0,7.6005 2.817,12.2778 2.8169,4.6773 8.004,4.6773 4.6054,0 7.5116,-3.5078 2.9064,-3.4548 2.9064,-7.4943 0,-2.073 -0.8046,-2.073 -0.1782,0 -0.7155,0.3722 -1.4755,1.1692 -2.8616,1.1692 -1.744,0 -2.9514,-1.6478 -1.2519,-1.5943 -1.2519,-3.7736 0,-2.2323 1.3415,-3.8801 1.3413,-1.5944 3.3088,-1.5944 2.7723,0 4.6056,2.817 1.8333,2.8701 1.8333,7.1221 0,6.4845 -4.4715,11.4274 -4.5162,4.9964 -11.5808,4.9964 -6.9308,0 -11.9386,-4.571 -5.008,-4.571 -5.008,-11.9592 0,-7.8662 4.4266,-14.4036 4.4267,-6.5378 13.0565,-16.0518 8.5851,-9.5141 12.207,-14.1913 h -20.3449 q -5.6786,0 -6.1704,1.116 -0.5365,1.1163 -0.8496,5.2089 l -0.4024,4.5711 z"
       id="path17750"
       inkscape:connector-curvature="0"
       style="font-style:normal;font-variant:normal;font-weight:normal;font-stretch:normal;font-size:medium;line-height:125%;font-family:'Bodoni MT';-inkscape-font-specification:'Bodoni MT, Normal';text-align:start;letter-spacing:0px;word-spacing:0px;writing-mode:lr-tb;text-anchor:start;fill:#ff3030;fill-opacity:1;stroke:none;stroke-width:1px;stroke-linecap:butt;stroke-linejoin:miter;stroke-opacity:1" />
    <path
       style="font-style:normal;font-variant:normal;font-weight:normal;font-stretch:normal;font-size:medium;line-height:125%;font-family:'Bodoni MT';-inkscape-font-specification:'Bodoni MT, Normal';text-align:start;letter-spacing:0px;word-spacing:0px;writing-mode:lr-tb;text-anchor:start;fill:#ff3030;fill-opacity:1;stroke:none;stroke-width:1px;stroke-linecap:butt;stroke-linejoin:miter;stroke-opacity:1"
       inkscape:connector-curvature="0"
       id="path17752"
       d="m 1316.43,3859.7193 1.4758,-19.7191 h 33.5354 v 6.325 q -5.2316,6.9626 -15.3369,18.1245 -10.1501,11.1616 -10.1501,24.6621 0,7.6005 2.817,12.2778 2.8169,4.6773 8.004,4.6773 4.6054,0 7.5116,-3.5078 2.9064,-3.4548 2.9064,-7.4943 0,-2.073 -0.8046,-2.073 -0.1782,0 -0.7155,0.3722 -1.4755,1.1692 -2.8616,1.1692 -1.744,0 -2.9514,-1.6478 -1.2519,-1.5943 -1.2519,-3.7736 0,-2.2323 1.3415,-3.8801 1.3413,-1.5944 3.3088,-1.5944 2.7723,0 4.6056,2.817 1.8333,2.8701 1.8333,7.1221 0,6.4845 -4.4715,11.4274 -4.5162,4.9964 -11.5808,4.9964 -6.9308,0 -11.9386,-4.571 -5.008,-4.571 -5.008,-11.9592 0,-7.8662 4.4266,-14.4036 4.4267,-6.5378 13.0565,-16.0518 8.5851,-9.5141 12.207,-14.1913 h -20.3449 q -5.6786,0 -6.1704,1.116 -0.5365,1.1163 -0.8496,5.2089 l -0.4024,4.5711 z" />
    <path
       inkscape:connector-curvature="0"
       id="path18026"
       d="m 864.6688,3311.4276 c -4.48,-9.0285 -6.0714,-11.7415 -8.263,-14.0864 -1.1322,-1.2112 -2.497,-2.3616 -5.0884,-4.2882 -0.7244,-0.5387 -1.3174,-1.0124 -1.3174,-1.0525 0,-0.04 0.593,-0.5138 1.3174,-1.0525 2.5914,-1.9266 3.9562,-3.077 5.0884,-4.2882 2.1916,-2.3449 3.783,-5.0579 8.263,-14.0864 0.7024,-1.4151 1.3014,-2.5729 1.3312,-2.5729 0.029,0 0.6288,1.1578 1.3309,2.5729 4.4803,9.0285 6.0717,11.7415 8.2633,14.0864 1.1319,1.2112 2.497,2.3616 5.0884,4.2882 0.7244,0.5387 1.3174,1.0124 1.3174,1.0525 0,0.04 -0.593,0.5138 -1.3174,1.0525 -2.5914,1.9266 -3.9565,3.077 -5.0884,4.2882 -2.1916,2.3449 -3.783,5.0579 -8.2633,14.0864 -0.7021,1.4151 -1.3011,2.5729 -1.3309,2.5729 -0.029,0 -0.6288,-1.1578 -1.3312,-2.5729 z"
       style="fill:#ff3030;fill-opacity:1" />
    <path
       style="fill:#ff3030;fill-opacity:1"
       d="m 1332.6513,3311.4276 c -4.48,-9.0285 -6.0714,-11.7415 -8.263,-14.0864 -1.1322,-1.2112 -2.497,-2.3616 -5.0884,-4.2882 -0.7244,-0.5387 -1.3174,-1.0124 -1.3174,-1.0525 0,-0.04 0.593,-0.5138 1.3174,-1.0525 2.5914,-1.9266 3.9562,-3.077 5.0884,-4.2882 2.1916,-2.3449 3.783,-5.0579 8.263,-14.0864 0.7024,-1.4151 1.3014,-2.5729 1.3312,-2.5729 0.029,0 0.6288,1.1578 1.3309,2.5729 4.4803,9.0285 6.0717,11.7415 8.2633,14.0864 1.1319,1.2112 2.497,2.3616 5.0884,4.2882 0.7244,0.5387 1.3174,1.0124 1.3174,1.0525 0,0.04 -0.593,0.5138 -1.3174,1.0525 -2.5914,1.9266 -3.9565,3.077 -5.0884,4.2882 -2.1916,2.3449 -3.783,5.0579 -8.2633,14.0864 -0.7021,1.4151 -1.3011,2.5729 -1.3309,2.5729 -0.029,0 -0.6288,-1.1578 -1.3312,-2.5729 z"
       id="path18028"
       inkscape:connector-curvature="0" />
    <path
       style="fill:#ff3030;fill-opacity:1"
       d="m 1335.3312,3788.5734 c 4.48,9.0285 6.0714,11.7415 8.263,14.0864 1.1322,1.2112 2.497,2.3616 5.0884,4.2882 0.7244,0.5387 1.3174,1.0124 1.3174,1.0525 0,0.04 -0.593,0.5138 -1.3174,1.0525 -2.5914,1.9266 -3.9562,3.077 -5.0884,4.2882 -2.1916,2.3449 -3.783,5.0579 -8.263,14.0864 -0.7024,1.4151 -1.3014,2.5729 -1.3312,2.5729 -0.029,0 -0.6288,-1.1578 -1.3309,-2.5729 -4.4803,-9.0285 -6.0717,-11.7415 -8.2633,-14.0864 -1.1319,-1.2112 -2.497,-2.3616 -5.0884,-4.2882 -0.7244,-0.5387 -1.3174,-1.0124 -1.3174,-1.0525 0,-0.04 0.593,-0.5138 1.3174,-1.0525 2.5914,-1.9266 3.9565,-3.077 5.0884,-4.2882 2.1916,-2.3449 3.783,-5.0579 8.2633,-14.0864 0.7021,-1.4151 1.3011,-2.5729 1.3309,-2.5729 0.029,0 0.6288,1.1578 1.3312,2.5729 z"
       id="path18050"
       inkscape:connector-curvature="0" />
    <path
       inkscape:connector-curvature="0"
       id="path18060"
       d="m 867.3312,3788.5734 c 4.48,9.0285 6.0714,11.7415 8.263,14.0864 1.1322,1.2112 2.497,2.3616 5.0884,4.2882 0.7244,0.5387 1.3174,1.0124 1.3174,1.0525 0,0.04 -0.593,0.5138 -1.3174,1.0525 -2.5914,1.9266 -3.9562,3.077 -5.0884,4.2882 -2.1916,2.3449 -3.783,5.0579 -8.263,14.0864 -0.7024,1.4151 -1.3014,2.5729 -1.3312,2.5729 -0.029,0 -0.6288,-1.1578 -1.3309,-2.5729 -4.4803,-9.0285 -6.0717,-11.7415 -8.2633,-14.0864 -1.1319,-1.2112 -2.497,-2.3616 -5.0884,-4.2882 -0.7244,-0.5387 -1.3174,-1.0124 -1.3174,-1.0525 0,-0.04 0.593,-0.5138 1.3174,-1.0525 2.5914,-1.9266 3.9565,-3.077 5.0884,-4.2882 2.1916,-2.3449 3.783,-5.0579 8.2633,-14.0864 0.7021,-1.4151 1.3011,-2.5729 1.3309,-2.5729 0.029,0 0.6288,1.1578 1.3312,2.5729 z"
       style="fill:#ff3030;fill-opacity:1" />
    <path
       inkscape:connector-curvature="0"
       id="path18228"
       d="m 1095.84,3341.814 c -14,-28.727 -18.973,-37.3593 -25.822,-44.8205 -3.538,-3.8536 -7.803,-7.5139 -15.901,-13.644 -2.264,-1.7142 -4.117,-3.2213 -4.117,-3.349 0,-0.1277 1.853,-1.6347 4.117,-3.349 8.098,-6.13 12.363,-9.7903 15.901,-13.644 6.849,-7.4612 11.822,-16.0935 25.822,-44.8204 2.195,-4.5026 4.067,-8.1866 4.16,-8.1866 0.09,0 1.965,3.684 4.159,8.1866 14.001,28.7269 18.974,37.3592 25.823,44.8204 3.537,3.8537 7.803,7.514 15.901,13.644 2.264,1.7143 4.117,3.2213 4.117,3.349 0,0.1277 -1.853,1.6348 -4.117,3.349 -8.098,6.1301 -12.364,9.7904 -15.901,13.644 -6.849,7.4612 -11.822,16.0935 -25.823,44.8205 -2.194,4.5026 -4.066,8.1865 -4.159,8.1865 -0.09,0 -1.965,-3.6839 -4.16,-8.1865 z"
       style="fill:#ff3030;fill-opacity:1" />
    <path
       inkscape:connector-curvature="0"
       id="path18230"
       d="m 1095.84,3881.814 c -14,-28.727 -18.973,-37.3593 -25.822,-44.8205 -3.538,-3.8536 -7.803,-7.5139 -15.901,-13.644 -2.264,-1.7142 -4.117,-3.2213 -4.117,-3.349 0,-0.1277 1.853,-1.6347 4.117,-3.349 8.098,-6.13 12.363,-9.7903 15.901,-13.644 6.849,-7.4612 11.822,-16.0935 25.822,-44.8204 2.195,-4.5026 4.067,-8.1866 4.16,-8.1866 0.09,0 1.965,3.684 4.159,8.1866 14.001,28.7269 18.974,37.3592 25.823,44.8204 3.537,3.8537 7.803,7.514 15.901,13.644 2.264,1.7143 4.117,3.2213 4.117,3.349 0,0.1277 -1.853,1.6348 -4.117,3.349 -8.098,6.1301 -12.364,9.7904 -15.901,13.644 -6.849,7.4612 -11.822,16.0935 -25.823,44.8205 -2.194,4.5026 -4.066,8.1865 -4.159,8.1865 -0.09,0 -1.965,-3.6839 -4.16,-8.1865 z"
       style="fill:#ff3030;fill-opacity:1" />
  </g>
</svg>
