<?xml version="1.0" encoding="UTF-8" standalone="no"?>
<!-- Created with Inkscape (http://www.inkscape.org/) -->

<svg
   id="svg10047"
   height="122.99944"
   width="79.000114"
   version="1.1"
   viewBox="0 0 79.000114 122.99944"
   inkscape:version="0.91 r13725"
   sodipodi:docname="salon-karte-66.svgz"
   xmlns:inkscape="http://www.inkscape.org/namespaces/inkscape"
   xmlns:sodipodi="http://sodipodi.sourceforge.net/DTD/sodipodi-0.dtd"
   xmlns:xlink="http://www.w3.org/1999/xlink"
   xmlns="http://www.w3.org/2000/svg"
   xmlns:svg="http://www.w3.org/2000/svg"
   xmlns:rdf="http://www.w3.org/1999/02/22-rdf-syntax-ns#"
   xmlns:cc="http://creativecommons.org/ns#"
   xmlns:dc="http://purl.org/dc/elements/1.1/">
  <sodipodi:namedview
     pagecolor="#ffffff"
     bordercolor="#666666"
     borderopacity="1"
     objecttolerance="10"
     gridtolerance="10"
     guidetolerance="10"
     inkscape:pageopacity="0"
     inkscape:pageshadow="2"
     inkscape:window-width="1920"
     inkscape:window-height="1016"
     id="namedview1491"
     showgrid="false"
     inkscape:zoom="1.3479675"
     inkscape:cx="513.5"
     inkscape:cy="307.5"
     inkscape:window-x="0"
     inkscape:window-y="0"
     inkscape:window-maximized="1"
     inkscape:current-layer="svg10047"
     showguides="true"
     inkscape:guide-bbox="true"
     inkscape:snap-grids="true"
     inkscape:showpageshadow="2"
     inkscape:pagecheckerboard="0"
     inkscape:deskcolor="#d1d1d1" />
  <metadata
     id="metadata16869">
    <rdf:RDF>
      <cc:Work
         rdf:about="">
        <dc:format>image/svg+xml</dc:format>
        <dc:type
           rdf:resource="http://purl.org/dc/dcmitype/StillImage" />
        <dc:title />
      </cc:Work>
    </rdf:RDF>
  </metadata>
  <defs
     id="defs10049">
    <linearGradient
       id="linearGradient17425"
       inkscape:swatch="solid">
      <stop
         style="stop-color:#000000;stop-opacity:1;"
         offset="0"
         id="stop17427" />
    </linearGradient>
    <linearGradient
       inkscape:collect="always"
       xlink:href="#linearGradient17425"
       id="linearGradient17978"
       gradientUnits="userSpaceOnUse"
       gradientTransform="matrix(0.91728841,0,0,0.94849571,-2888.4261,2079.2321)"
       x1="7117.6006"
       y1="1550.6322"
       x2="7683.4717"
       y2="1550.6322" />
  </defs>
  <g
     transform="matrix(0.13169305,0,0,0.13666723,-474.09498,-423.66941)"
     id="diamond_6"
     inkscape:label="#diamond_6">
    <rect
       style="fill:#ffffff;stroke:#000000;stroke-width:1.66649"
       id="rect17618"
       y="3100.8406"
       x="3600.8333"
       ry="49.906242"
       rx="49.896725"
       height="898.32574"
       width="598.21417" />
    <rect
       ry="23.720173"
       y="3140.4668"
       x="3640.4661"
       height="819.06726"
       width="519.06726"
       id="rect17620"
       style="fill:#000000;fill-opacity:0;stroke:url(#linearGradient17978);stroke-width:0.932762;stroke-linecap:square;stroke-linejoin:bevel;stroke-miterlimit:4;stroke-dasharray:none" />
    <path
       inkscape:connector-curvature="0"
       id="path17624"
       d="m 3655.8378,3956.6049 c -1.2891,-0.4713 -3.9926,-2.3494 -6.0078,-4.1736 -8.6098,-7.7936 -8.0552,19.9674 -8.0489,-402.8485 0.01,-387.493 0.035,-391.1401 3.1108,-396.1856 1.7077,-2.8009 5.3964,-6.4896 8.1973,-8.1973 5.0235,-3.0629 8.3657,-3.1049 247.2799,-3.1049 240.1146,0 242.2317,0.027 247.3564,3.1514 2.9845,1.8196 6.4368,5.9443 8.1689,9.7598 2.9323,6.4597 2.9998,15.3448 2.9998,394.8896 0,379.5449 -0.068,388.43 -2.9998,394.8896 -1.7321,3.8155 -5.1844,7.9403 -8.1689,9.7598 -5.1269,3.1258 -7.1372,3.1505 -247.3564,3.0339 -133.2032,-0.065 -243.2422,-0.503 -244.5313,-0.9742 z"
       style="fill:#fbf6e3;fill-opacity:1" />
    <path
       style="font-style:normal;font-variant:normal;font-weight:normal;font-stretch:normal;font-size:medium;line-height:125%;font-family:'Bodoni MT';-inkscape-font-specification:'Bodoni MT, Normal';text-align:start;letter-spacing:0px;word-spacing:0px;writing-mode:lr-tb;text-anchor:start;fill:#ff3030;fill-opacity:1;stroke:none;stroke-width:1px;stroke-linecap:butt;stroke-linejoin:miter;stroke-opacity:1"
       inkscape:connector-curvature="0"
       id="path17714"
       d="m 3680.2777,3190.0005 v 3.1337 q -20.3892,2.8302 -22.7147,27.0901 l 0.1782,0.2017 q 4.1135,-5.3572 9.7924,-5.3572 6.8859,0 11.8493,6.4693 5.0078,6.4188 5.0078,14.9603 0,9.1987 -5.4104,16.3755 -5.3655,7.1263 -12.8328,7.1263 -8.1378,0 -13.5036,-8.1371 -5.3656,-8.1878 -5.3656,-20.5704 0,-16.426 9.3005,-27.8989 9.3451,-11.5234 23.6983,-13.3936 z m -23.2065,34.8737 -0.2682,8.9456 q 0,18.4985 3.3088,21.1265 3.3088,2.5777 6.0363,2.5777 4.2034,0 6.4389,-3.993 2.2803,-4.0433 2.2803,-16.4261 0,-13.09 -2.1012,-16.3245 -2.0572,-3.2347 -5.8576,-3.2347 -5.2763,0 -9.8373,7.3285 z" />
    <path
       d="m 4148.2774,3190.0005 v 3.1337 q -20.3892,2.8302 -22.7147,27.0901 l 0.1782,0.2017 q 4.1135,-5.3572 9.7924,-5.3572 6.8859,0 11.8493,6.4693 5.0078,6.4188 5.0078,14.9603 0,9.1987 -5.4104,16.3755 -5.3655,7.1263 -12.8328,7.1263 -8.1378,0 -13.5036,-8.1371 -5.3656,-8.1878 -5.3656,-20.5704 0,-16.426 9.3005,-27.8989 9.3451,-11.5234 23.6983,-13.3936 z m -23.2065,34.8737 -0.2682,8.9456 q 0,18.4985 3.3088,21.1265 3.3088,2.5777 6.0363,2.5777 4.2034,0 6.4389,-3.993 2.2803,-4.0433 2.2803,-16.4261 0,-13.09 -2.1012,-16.3245 -2.0572,-3.2347 -5.8576,-3.2347 -5.2763,0 -9.8373,7.3285 z"
       id="path17716"
       inkscape:connector-curvature="0"
       style="font-style:normal;font-variant:normal;font-weight:normal;font-stretch:normal;font-size:medium;line-height:125%;font-family:'Bodoni MT';-inkscape-font-specification:'Bodoni MT, Normal';text-align:start;letter-spacing:0px;word-spacing:0px;writing-mode:lr-tb;text-anchor:start;fill:#ff3030;fill-opacity:1;stroke:none;stroke-width:1px;stroke-linecap:butt;stroke-linejoin:miter;stroke-opacity:1" />
    <path
       d="m 3651.3913,3909.9999 v -3.1337 q 20.3892,-2.8302 22.7147,-27.0901 l -0.1782,-0.2017 q -4.1135,5.3572 -9.7924,5.3572 -6.8859,0 -11.8493,-6.4693 -5.0078,-6.4188 -5.0078,-14.9603 0,-9.1987 5.4104,-16.3755 5.3655,-7.1263 12.8328,-7.1263 8.1378,0 13.5036,8.1371 5.3656,8.1878 5.3656,20.5704 0,16.426 -9.3005,27.8989 -9.3451,11.5234 -23.6983,13.3936 z m 23.2065,-34.8737 0.2682,-8.9456 q 0,-18.4985 -3.3088,-21.1265 -3.3088,-2.5777 -6.0363,-2.5777 -4.2034,0 -6.4389,3.993 -2.2803,4.0433 -2.2803,16.4261 0,13.09 2.1012,16.3245 2.0572,3.2347 5.8576,3.2347 5.2763,0 9.8373,-7.3285 z"
       id="path17718"
       inkscape:connector-curvature="0"
       style="font-style:normal;font-variant:normal;font-weight:normal;font-stretch:normal;font-size:medium;line-height:125%;font-family:'Bodoni MT';-inkscape-font-specification:'Bodoni MT, Normal';text-align:start;letter-spacing:0px;word-spacing:0px;writing-mode:lr-tb;text-anchor:start;fill:#ff3030;fill-opacity:1;stroke:none;stroke-width:1px;stroke-linecap:butt;stroke-linejoin:miter;stroke-opacity:1" />
    <path
       style="font-style:normal;font-variant:normal;font-weight:normal;font-stretch:normal;font-size:medium;line-height:125%;font-family:'Bodoni MT';-inkscape-font-specification:'Bodoni MT, Normal';text-align:start;letter-spacing:0px;word-spacing:0px;writing-mode:lr-tb;text-anchor:start;fill:#ff3030;fill-opacity:1;stroke:none;stroke-width:1px;stroke-linecap:butt;stroke-linejoin:miter;stroke-opacity:1"
       inkscape:connector-curvature="0"
       id="path17720"
       d="m 4119.391,3909.9999 v -3.1337 q 20.3892,-2.8302 22.7147,-27.0901 l -0.1782,-0.2017 q -4.1135,5.3572 -9.7924,5.3572 -6.8859,0 -11.8493,-6.4693 -5.0078,-6.4188 -5.0078,-14.9603 0,-9.1987 5.4104,-16.3755 5.3655,-7.1263 12.8328,-7.1263 8.1378,0 13.5036,8.1371 5.3656,8.1878 5.3656,20.5704 0,16.426 -9.3005,27.8989 -9.3451,11.5234 -23.6983,13.3936 z m 23.2065,-34.8737 0.2682,-8.9456 q 0,-18.4985 -3.3088,-21.1265 -3.3088,-2.5777 -6.0363,-2.5777 -4.2034,0 -6.4389,3.993 -2.2803,4.0433 -2.2803,16.4261 0,13.09 2.1012,16.3245 2.0572,3.2347 5.8576,3.2347 5.2763,0 9.8373,-7.3285 z" />
    <path
       inkscape:connector-curvature="0"
       id="path18018"
       d="m 3664.6688,3311.4276 c -4.48,-9.0285 -6.0714,-11.7415 -8.263,-14.0864 -1.1322,-1.2112 -2.497,-2.3616 -5.0884,-4.2882 -0.7244,-0.5387 -1.3174,-1.0124 -1.3174,-1.0525 0,-0.04 0.593,-0.5138 1.3174,-1.0525 2.5914,-1.9266 3.9562,-3.077 5.0884,-4.2882 2.1916,-2.3449 3.783,-5.0579 8.263,-14.0864 0.7024,-1.4151 1.3014,-2.5729 1.3312,-2.5729 0.029,0 0.6288,1.1578 1.3309,2.5729 4.4803,9.0285 6.0717,11.7415 8.2633,14.0864 1.1319,1.2112 2.497,2.3616 5.0884,4.2882 0.7244,0.5387 1.3174,1.0124 1.3174,1.0525 0,0.04 -0.593,0.5138 -1.3174,1.0525 -2.5914,1.9266 -3.9565,3.077 -5.0884,4.2882 -2.1916,2.3449 -3.783,5.0579 -8.2633,14.0864 -0.7021,1.4151 -1.3011,2.5729 -1.3309,2.5729 -0.029,0 -0.6288,-1.1578 -1.3312,-2.5729 z"
       style="fill:#ff3030;fill-opacity:1" />
    <path
       style="fill:#ff3030;fill-opacity:1"
       d="m 4132.6513,3311.4276 c -4.48,-9.0285 -6.0714,-11.7415 -8.263,-14.0864 -1.1322,-1.2112 -2.497,-2.3616 -5.0884,-4.2882 -0.7244,-0.5387 -1.3174,-1.0124 -1.3174,-1.0525 0,-0.04 0.593,-0.5138 1.3174,-1.0525 2.5914,-1.9266 3.9562,-3.077 5.0884,-4.2882 2.1916,-2.3449 3.783,-5.0579 8.263,-14.0864 0.7024,-1.4151 1.3014,-2.5729 1.3312,-2.5729 0.029,0 0.6288,1.1578 1.3309,2.5729 4.4803,9.0285 6.0717,11.7415 8.2633,14.0864 1.1319,1.2112 2.497,2.3616 5.0884,4.2882 0.7244,0.5387 1.3174,1.0124 1.3174,1.0525 0,0.04 -0.593,0.5138 -1.3174,1.0525 -2.5914,1.9266 -3.9565,3.077 -5.0884,4.2882 -2.1916,2.3449 -3.783,5.0579 -8.2633,14.0864 -0.7021,1.4151 -1.3011,2.5729 -1.3309,2.5729 -0.029,0 -0.6288,-1.1578 -1.3312,-2.5729 z"
       id="path18020"
       inkscape:connector-curvature="0" />
    <path
       inkscape:connector-curvature="0"
       id="path18040"
       d="m 3667.3312,3788.5734 c 4.48,9.0285 6.0714,11.7415 8.263,14.0864 1.1322,1.2112 2.497,2.3616 5.0884,4.2882 0.7244,0.5387 1.3174,1.0124 1.3174,1.0525 0,0.04 -0.593,0.5138 -1.3174,1.0525 -2.5914,1.9266 -3.9562,3.077 -5.0884,4.2882 -2.1916,2.3449 -3.783,5.0579 -8.263,14.0864 -0.7024,1.4151 -1.3014,2.5729 -1.3312,2.5729 -0.029,0 -0.6288,-1.1578 -1.3309,-2.5729 -4.4803,-9.0285 -6.0717,-11.7415 -8.2633,-14.0864 -1.1319,-1.2112 -2.497,-2.3616 -5.0884,-4.2882 -0.7244,-0.5387 -1.3174,-1.0124 -1.3174,-1.0525 0,-0.04 0.593,-0.5138 1.3174,-1.0525 2.5914,-1.9266 3.9565,-3.077 5.0884,-4.2882 2.1916,-2.3449 3.783,-5.0579 8.2633,-14.0864 0.7021,-1.4151 1.3011,-2.5729 1.3309,-2.5729 0.029,0 0.6288,1.1578 1.3312,2.5729 z"
       style="fill:#ff3030;fill-opacity:1" />
    <path
       style="fill:#ff3030;fill-opacity:1"
       d="m 4135.3312,3788.5734 c 4.48,9.0285 6.0714,11.7415 8.263,14.0864 1.1322,1.2112 2.497,2.3616 5.0884,4.2882 0.7244,0.5387 1.3174,1.0124 1.3174,1.0525 0,0.04 -0.593,0.5138 -1.3174,1.0525 -2.5914,1.9266 -3.9562,3.077 -5.0884,4.2882 -2.1916,2.3449 -3.783,5.0579 -8.263,14.0864 -0.7024,1.4151 -1.3014,2.5729 -1.3312,2.5729 -0.029,0 -0.6288,-1.1578 -1.3309,-2.5729 -4.4803,-9.0285 -6.0717,-11.7415 -8.2633,-14.0864 -1.1319,-1.2112 -2.497,-2.3616 -5.0884,-4.2882 -0.7244,-0.5387 -1.3174,-1.0124 -1.3174,-1.0525 0,-0.04 0.593,-0.5138 1.3174,-1.0525 2.5914,-1.9266 3.9565,-3.077 5.0884,-4.2882 2.1916,-2.3449 3.783,-5.0579 8.2633,-14.0864 0.7021,-1.4151 1.3011,-2.5729 1.3309,-2.5729 0.029,0 0.6288,1.1578 1.3312,2.5729 z"
       id="path18042"
       inkscape:connector-curvature="0" />
    <path
       inkscape:connector-curvature="0"
       id="path18178"
       d="m 3759.84,3341.814 c -14,-28.727 -18.973,-37.3593 -25.822,-44.8205 -3.538,-3.8536 -7.803,-7.5139 -15.901,-13.644 -2.264,-1.7142 -4.117,-3.2213 -4.117,-3.349 0,-0.1277 1.853,-1.6347 4.117,-3.349 8.098,-6.13 12.363,-9.7903 15.901,-13.644 6.849,-7.4612 11.822,-16.0935 25.822,-44.8204 2.195,-4.5026 4.067,-8.1866 4.16,-8.1866 0.09,0 1.965,3.684 4.159,8.1866 14.001,28.7269 18.974,37.3592 25.823,44.8204 3.537,3.8537 7.803,7.514 15.901,13.644 2.264,1.7143 4.117,3.2213 4.117,3.349 0,0.1277 -1.853,1.6348 -4.117,3.349 -8.098,6.1301 -12.364,9.7904 -15.901,13.644 -6.849,7.4612 -11.822,16.0935 -25.823,44.8205 -2.194,4.5026 -4.066,8.1865 -4.159,8.1865 -0.09,0 -1.965,-3.6839 -4.16,-8.1865 z"
       style="fill:#ff3030;fill-opacity:1" />
    <path
       style="fill:#ff3030;fill-opacity:1"
       d="m 4030.84,3341.814 c -14,-28.727 -18.973,-37.3593 -25.822,-44.8205 -3.538,-3.8536 -7.803,-7.5139 -15.901,-13.644 -2.264,-1.7142 -4.117,-3.2213 -4.117,-3.349 0,-0.1277 1.853,-1.6347 4.117,-3.349 8.098,-6.13 12.363,-9.7903 15.901,-13.644 6.849,-7.4612 11.822,-16.0935 25.822,-44.8204 2.195,-4.5026 4.067,-8.1866 4.16,-8.1866 0.09,0 1.965,3.684 4.159,8.1866 14.001,28.7269 18.974,37.3592 25.823,44.8204 3.537,3.8537 7.803,7.514 15.901,13.644 2.264,1.7143 4.117,3.2213 4.117,3.349 0,0.1277 -1.853,1.6348 -4.117,3.349 -8.098,6.1301 -12.364,9.7904 -15.901,13.644 -6.849,7.4612 -11.822,16.0935 -25.823,44.8205 -2.194,4.5026 -4.066,8.1865 -4.159,8.1865 -0.09,0 -1.965,-3.6839 -4.16,-8.1865 z"
       id="path18180"
       inkscape:connector-curvature="0" />
    <path
       style="fill:#ff3030;fill-opacity:1"
       d="m 3759.84,3611.814 c -14,-28.727 -18.973,-37.3593 -25.822,-44.8205 -3.538,-3.8536 -7.803,-7.5139 -15.901,-13.644 -2.264,-1.7142 -4.117,-3.2213 -4.117,-3.349 0,-0.1277 1.853,-1.6347 4.117,-3.349 8.098,-6.13 12.363,-9.7903 15.901,-13.644 6.849,-7.4612 11.822,-16.0935 25.822,-44.8204 2.195,-4.5026 4.067,-8.1866 4.16,-8.1866 0.09,0 1.965,3.684 4.159,8.1866 14.001,28.7269 18.974,37.3592 25.823,44.8204 3.537,3.8537 7.803,7.514 15.901,13.644 2.264,1.7143 4.117,3.2213 4.117,3.349 0,0.1277 -1.853,1.6348 -4.117,3.349 -8.098,6.1301 -12.364,9.7904 -15.901,13.644 -6.849,7.4612 -11.822,16.0935 -25.823,44.8205 -2.194,4.5026 -4.066,8.1865 -4.159,8.1865 -0.09,0 -1.965,-3.6839 -4.16,-8.1865 z"
       id="path18182"
       inkscape:connector-curvature="0" />
    <path
       inkscape:connector-curvature="0"
       id="path18184"
       d="m 4030.84,3611.814 c -14,-28.727 -18.973,-37.3593 -25.822,-44.8205 -3.538,-3.8536 -7.803,-7.5139 -15.901,-13.644 -2.264,-1.7142 -4.117,-3.2213 -4.117,-3.349 0,-0.1277 1.853,-1.6347 4.117,-3.349 8.098,-6.13 12.363,-9.7903 15.901,-13.644 6.849,-7.4612 11.822,-16.0935 25.822,-44.8204 2.195,-4.5026 4.067,-8.1866 4.16,-8.1866 0.09,0 1.965,3.684 4.159,8.1866 14.001,28.7269 18.974,37.3592 25.823,44.8204 3.537,3.8537 7.803,7.514 15.901,13.644 2.264,1.7143 4.117,3.2213 4.117,3.349 0,0.1277 -1.853,1.6348 -4.117,3.349 -8.098,6.1301 -12.364,9.7904 -15.901,13.644 -6.849,7.4612 -11.822,16.0935 -25.823,44.8205 -2.194,4.5026 -4.066,8.1865 -4.159,8.1865 -0.09,0 -1.965,-3.6839 -4.16,-8.1865 z"
       style="fill:#ff3030;fill-opacity:1" />
    <path
       inkscape:connector-curvature="0"
       id="path18186"
       d="m 3759.84,3881.814 c -14,-28.727 -18.973,-37.3593 -25.822,-44.8205 -3.538,-3.8536 -7.803,-7.5139 -15.901,-13.644 -2.264,-1.7142 -4.117,-3.2213 -4.117,-3.349 0,-0.1277 1.853,-1.6347 4.117,-3.349 8.098,-6.13 12.363,-9.7903 15.901,-13.644 6.849,-7.4612 11.822,-16.0935 25.822,-44.8204 2.195,-4.5026 4.067,-8.1866 4.16,-8.1866 0.09,0 1.965,3.684 4.159,8.1866 14.001,28.7269 18.974,37.3592 25.823,44.8204 3.537,3.8537 7.803,7.514 15.901,13.644 2.264,1.7143 4.117,3.2213 4.117,3.349 0,0.1277 -1.853,1.6348 -4.117,3.349 -8.098,6.1301 -12.364,9.7904 -15.901,13.644 -6.849,7.4612 -11.822,16.0935 -25.823,44.8205 -2.194,4.5026 -4.066,8.1865 -4.159,8.1865 -0.09,0 -1.965,-3.6839 -4.16,-8.1865 z"
       style="fill:#ff3030;fill-opacity:1" />
    <path
       style="fill:#ff3030;fill-opacity:1"
       d="m 4030.84,3881.814 c -14,-28.727 -18.973,-37.3593 -25.822,-44.8205 -3.538,-3.8536 -7.803,-7.5139 -15.901,-13.644 -2.264,-1.7142 -4.117,-3.2213 -4.117,-3.349 0,-0.1277 1.853,-1.6347 4.117,-3.349 8.098,-6.13 12.363,-9.7903 15.901,-13.644 6.849,-7.4612 11.822,-16.0935 25.822,-44.8204 2.195,-4.5026 4.067,-8.1866 4.16,-8.1866 0.09,0 1.965,3.684 4.159,8.1866 14.001,28.7269 18.974,37.3592 25.823,44.8204 3.537,3.8537 7.803,7.514 15.901,13.644 2.264,1.7143 4.117,3.2213 4.117,3.349 0,0.1277 -1.853,1.6348 -4.117,3.349 -8.098,6.1301 -12.364,9.7904 -15.901,13.644 -6.849,7.4612 -11.822,16.0935 -25.823,44.8205 -2.194,4.5026 -4.066,8.1865 -4.159,8.1865 -0.09,0 -1.965,-3.6839 -4.16,-8.1865 z"
       id="path18188"
       inkscape:connector-curvature="0" />
  </g>
</svg>
