<?xml version="1.0" encoding="UTF-8" standalone="no"?>
<!-- Created with Inkscape (http://www.inkscape.org/) -->

<svg
   id="svg10047"
   height="122.99944"
   width="79.000114"
   version="1.1"
   viewBox="0 0 79.000114 122.99944"
   inkscape:version="0.91 r13725"
   sodipodi:docname="salon-karte-66.svgz"
   xmlns:inkscape="http://www.inkscape.org/namespaces/inkscape"
   xmlns:sodipodi="http://sodipodi.sourceforge.net/DTD/sodipodi-0.dtd"
   xmlns:xlink="http://www.w3.org/1999/xlink"
   xmlns="http://www.w3.org/2000/svg"
   xmlns:svg="http://www.w3.org/2000/svg"
   xmlns:rdf="http://www.w3.org/1999/02/22-rdf-syntax-ns#"
   xmlns:cc="http://creativecommons.org/ns#"
   xmlns:dc="http://purl.org/dc/elements/1.1/">
  <sodipodi:namedview
     pagecolor="#ffffff"
     bordercolor="#666666"
     borderopacity="1"
     objecttolerance="10"
     gridtolerance="10"
     guidetolerance="10"
     inkscape:pageopacity="0"
     inkscape:pageshadow="2"
     inkscape:window-width="1920"
     inkscape:window-height="1016"
     id="namedview1491"
     showgrid="false"
     inkscape:zoom="1.3479675"
     inkscape:cx="513.5"
     inkscape:cy="307.5"
     inkscape:window-x="0"
     inkscape:window-y="0"
     inkscape:window-maximized="1"
     inkscape:current-layer="svg10047"
     showguides="true"
     inkscape:guide-bbox="true"
     inkscape:snap-grids="true"
     inkscape:showpageshadow="2"
     inkscape:pagecheckerboard="0"
     inkscape:deskcolor="#d1d1d1" />
  <metadata
     id="metadata16869">
    <rdf:RDF>
      <cc:Work
         rdf:about="">
        <dc:format>image/svg+xml</dc:format>
        <dc:type
           rdf:resource="http://purl.org/dc/dcmitype/StillImage" />
        <dc:title />
      </cc:Work>
    </rdf:RDF>
  </metadata>
  <defs
     id="defs10049">
    <linearGradient
       id="linearGradient17425"
       inkscape:swatch="solid">
      <stop
         style="stop-color:#000000;stop-opacity:1;"
         offset="0"
         id="stop17427" />
    </linearGradient>
    <linearGradient
       inkscape:collect="always"
       xlink:href="#linearGradient17425"
       id="linearGradient15926"
       gradientUnits="userSpaceOnUse"
       gradientTransform="matrix(0.91728841,0,0,0.94849571,-2188.4261,1079.2322)"
       x1="7117.6006"
       y1="1550.6322"
       x2="7683.4717"
       y2="1550.6322" />
  </defs>
  <g
     transform="matrix(0.13169305,0,0,0.13666723,-566.28008,-287.00218)"
     id="heart_7"
     inkscape:label="#heart_7">
    <rect
       width="598.21417"
       height="898.32574"
       rx="49.896725"
       ry="49.906242"
       x="4300.833"
       y="2100.8406"
       id="rect15558"
       style="fill:#ffffff;stroke:#000000;stroke-width:1.66649" />
    <rect
       style="fill:#000000;fill-opacity:0;stroke:url(#linearGradient15926);stroke-width:0.932762;stroke-linecap:square;stroke-linejoin:bevel;stroke-miterlimit:4;stroke-dasharray:none"
       id="rect15560"
       width="519.06726"
       height="819.06726"
       x="4340.4658"
       y="2140.4668"
       ry="23.720173" />
    <path
       style="fill:#fbf6e3;fill-opacity:1"
       d="m 4355.8378,2956.605 c -1.2891,-0.4713 -3.9926,-2.3494 -6.0078,-4.1736 -8.6098,-7.7936 -8.0552,19.9674 -8.0489,-402.8485 0.01,-387.493 0.035,-391.1401 3.1108,-396.1856 1.7077,-2.8009 5.3964,-6.4896 8.1973,-8.1973 5.0235,-3.0629 8.3657,-3.1049 247.2799,-3.1049 240.1146,0 242.2317,0.027 247.3564,3.1514 2.9845,1.8196 6.4368,5.9443 8.1689,9.7598 2.9323,6.4597 2.9998,15.3448 2.9998,394.8896 0,379.5449 -0.068,388.43 -2.9998,394.8896 -1.7321,3.8155 -5.1844,7.9403 -8.1689,9.7598 -5.1269,3.1258 -7.1372,3.1505 -247.3564,3.0339 -133.2032,-0.065 -243.2422,-0.503 -244.5313,-0.9742 z"
       id="path15564"
       inkscape:connector-curvature="0" />
    <path
       d="m 4352.8119,2190.0003 h 31.2998 l -6.2154,17.9893 q -0.2242,1.0055 -3.0851,9.1536 -2.8171,8.0952 -3.9795,13.3862 -1.1627,5.2381 -1.1627,8.7832 0,3.1216 1.2073,7.8306 1.252,4.7091 1.252,6.9841 0,2.1166 -1.2966,4.0212 -1.2522,1.8518 -3.443,1.8518 -2.5038,0 -4.1138,-2.3279 -1.565,-2.3279 -1.565,-6.1378 0,-3.968 2.1015,-10.1057 l 14.5322,-41.5873 h -21.3283 q -3.1301,0 -3.9797,0.9523 -0.805,0.8996 -1.7887,5.3439 l -0.7155,3.2276 h -2.2803 z"
       id="path15658"
       inkscape:connector-curvature="0"
       style="font-style:normal;font-variant:normal;font-weight:normal;font-stretch:normal;font-size:medium;line-height:125%;font-family:'Bodoni MT';-inkscape-font-specification:'Bodoni MT, Normal';text-align:start;letter-spacing:0px;word-spacing:0px;writing-mode:lr-tb;text-anchor:start;fill:#ff3030;fill-opacity:1;stroke:none;stroke-width:1px;stroke-linecap:butt;stroke-linejoin:miter;stroke-opacity:1" />
    <path
       style="font-style:normal;font-variant:normal;font-weight:normal;font-stretch:normal;font-size:medium;line-height:125%;font-family:'Bodoni MT';-inkscape-font-specification:'Bodoni MT, Normal';text-align:start;letter-spacing:0px;word-spacing:0px;writing-mode:lr-tb;text-anchor:start;fill:#ff3030;fill-opacity:1;stroke:none;stroke-width:1px;stroke-linecap:butt;stroke-linejoin:miter;stroke-opacity:1"
       inkscape:connector-curvature="0"
       id="path15660"
       d="m 4820.8119,2190.0003 h 31.2998 l -6.2154,17.9893 q -0.2242,1.0055 -3.0851,9.1536 -2.8171,8.0952 -3.9795,13.3862 -1.1627,5.2381 -1.1627,8.7832 0,3.1216 1.2073,7.8306 1.252,4.7091 1.252,6.9841 0,2.1166 -1.2966,4.0212 -1.2522,1.8518 -3.443,1.8518 -2.5038,0 -4.1138,-2.3279 -1.565,-2.3279 -1.565,-6.1378 0,-3.968 2.1015,-10.1057 l 14.5322,-41.5873 h -21.3283 q -3.1301,0 -3.9797,0.9523 -0.805,0.8996 -1.7887,5.3439 l -0.7155,3.2276 h -2.2803 z" />
    <path
       style="font-style:normal;font-variant:normal;font-weight:normal;font-stretch:normal;font-size:medium;line-height:125%;font-family:'Bodoni MT';-inkscape-font-specification:'Bodoni MT, Normal';text-align:start;letter-spacing:0px;word-spacing:0px;writing-mode:lr-tb;text-anchor:start;fill:#ff3030;fill-opacity:1;stroke:none;stroke-width:1px;stroke-linecap:butt;stroke-linejoin:miter;stroke-opacity:1"
       inkscape:connector-curvature="0"
       id="path15662"
       d="m 4379.5509,2910.0003 h -31.2998 l 6.2154,-17.9893 q 0.2242,-1.0054 3.0851,-9.1536 2.8171,-8.0952 3.9795,-13.3862 1.1627,-5.2381 1.1627,-8.7832 0,-3.1216 -1.2073,-7.8306 -1.252,-4.7091 -1.252,-6.9841 0,-2.1166 1.2966,-4.0212 1.2522,-1.8518 3.443,-1.8518 2.5038,0 4.1138,2.328 1.565,2.3278 1.565,6.1377 0,3.968 -2.1015,10.1058 l -14.5322,41.5872 h 21.3283 q 3.1301,0 3.9797,-0.9522 0.805,-0.8997 1.7887,-5.344 l 0.7155,-3.2275 h 2.2803 z" />
    <path
       d="m 4847.5509,2910.0003 h -31.2998 l 6.2154,-17.9893 q 0.2242,-1.0054 3.0851,-9.1536 2.8171,-8.0952 3.9795,-13.3862 1.1627,-5.2381 1.1627,-8.7832 0,-3.1216 -1.2073,-7.8306 -1.252,-4.7091 -1.252,-6.9841 0,-2.1166 1.2966,-4.0212 1.2522,-1.8518 3.443,-1.8518 2.5038,0 4.1138,2.328 1.565,2.3278 1.565,6.1377 0,3.968 -2.1015,10.1058 l -14.5322,41.5872 h 21.3283 q 3.1301,0 3.9797,-0.9522 0.805,-0.8997 1.7887,-5.344 l 0.7155,-3.2275 h 2.2803 z"
       id="path15664"
       inkscape:connector-curvature="0"
       style="font-style:normal;font-variant:normal;font-weight:normal;font-stretch:normal;font-size:medium;line-height:125%;font-family:'Bodoni MT';-inkscape-font-specification:'Bodoni MT, Normal';text-align:start;letter-spacing:0px;word-spacing:0px;writing-mode:lr-tb;text-anchor:start;fill:#ff3030;fill-opacity:1;stroke:none;stroke-width:1px;stroke-linecap:butt;stroke-linejoin:miter;stroke-opacity:1" />
    <path
       style="fill:#ff3030;fill-opacity:1"
       d="m 4365.5359,2313.1086 c -1.4951,-4.9533 -5.1535,-11.7213 -10.2804,-19.0185 -1.1519,-1.6392 -3.9249,-6.7408 -3.9441,-7.2557 -0.01,-0.1673 -0.1821,-0.7323 -0.3908,-1.2555 -1.1867,-2.9717 -1.2311,-7.304 -0.104,-10.1164 1.2395,-3.0927 4.4666,-5.462 7.4395,-5.462 2.548,0 4.8784,1.625 6.1244,4.2702 0.3418,0.7255 0.7862,1.6668 0.9875,2.0919 0.4629,0.9774 0.8012,0.9774 1.2641,0 0.2012,-0.4251 0.6457,-1.3664 0.9875,-2.0919 1.246,-2.6452 3.5764,-4.2702 6.1244,-4.2702 2.9729,0 6.1999,2.3693 7.4395,5.462 1.127,2.8124 1.0827,7.1447 -0.104,10.1164 -0.2087,0.5232 -0.3848,1.0882 -0.3912,1.2555 -0.018,0.5149 -2.7919,5.6165 -3.9437,7.2557 -5.1269,7.2972 -8.7853,14.0652 -10.2804,19.0185 -0.1481,0.4905 -0.3571,0.8919 -0.4643,0.8919 -0.1069,0 -0.316,-0.4014 -0.464,-0.8919 z"
       id="path16003"
       inkscape:connector-curvature="0" />
    <path
       inkscape:connector-curvature="0"
       id="path16005"
       d="m 4833.5184,2313.1086 c -1.4951,-4.9533 -5.1535,-11.7213 -10.2804,-19.0185 -1.1519,-1.6392 -3.9249,-6.7408 -3.9441,-7.2557 -0.01,-0.1673 -0.1821,-0.7323 -0.3908,-1.2555 -1.1867,-2.9717 -1.2311,-7.304 -0.104,-10.1164 1.2395,-3.0927 4.4666,-5.462 7.4395,-5.462 2.548,0 4.8784,1.625 6.1244,4.2702 0.3418,0.7255 0.7862,1.6668 0.9875,2.0919 0.4629,0.9774 0.8012,0.9774 1.2641,0 0.2012,-0.4251 0.6457,-1.3664 0.9875,-2.0919 1.246,-2.6452 3.5764,-4.2702 6.1244,-4.2702 2.9729,0 6.1999,2.3693 7.4395,5.462 1.127,2.8124 1.0827,7.1447 -0.104,10.1164 -0.2087,0.5232 -0.3848,1.0882 -0.3912,1.2555 -0.018,0.5149 -2.7919,5.6165 -3.9437,7.2557 -5.1269,7.2972 -8.7853,14.0652 -10.2804,19.0185 -0.1481,0.4905 -0.3571,0.8919 -0.4643,0.8919 -0.1069,0 -0.316,-0.4014 -0.464,-0.8919 z"
       style="fill:#ff3030;fill-opacity:1" />
    <path
       style="fill:#ff3030;fill-opacity:1"
       d="m 4366.4645,2786.8924 c 1.4951,4.9533 5.1535,11.7213 10.2804,19.0185 1.1519,1.6392 3.9249,6.7408 3.9441,7.2557 0.01,0.1673 0.1821,0.7323 0.3908,1.2555 1.1867,2.9717 1.2311,7.304 0.104,10.1164 -1.2395,3.0927 -4.4666,5.462 -7.4395,5.462 -2.548,0 -4.8784,-1.625 -6.1244,-4.2702 -0.3418,-0.7255 -0.7862,-1.6668 -0.9875,-2.0919 -0.4629,-0.9774 -0.8012,-0.9774 -1.2641,0 -0.2012,0.4251 -0.6457,1.3664 -0.9875,2.0919 -1.246,2.6452 -3.5764,4.2702 -6.1244,4.2702 -2.9729,0 -6.1999,-2.3693 -7.4395,-5.462 -1.127,-2.8124 -1.0827,-7.1447 0.104,-10.1164 0.2087,-0.5232 0.3848,-1.0882 0.3912,-1.2555 0.018,-0.5149 2.7919,-5.6165 3.9437,-7.2557 5.1269,-7.2972 8.7853,-14.0652 10.2804,-19.0185 0.1481,-0.4905 0.3571,-0.8919 0.4643,-0.8919 0.1069,0 0.316,0.4014 0.464,0.8919 z"
       id="path16027"
       inkscape:connector-curvature="0" />
    <path
       inkscape:connector-curvature="0"
       id="path16029"
       d="m 4834.4645,2786.8924 c 1.4951,4.9533 5.1535,11.7213 10.2804,19.0185 1.1519,1.6392 3.9249,6.7408 3.9441,7.2557 0.01,0.1673 0.1821,0.7323 0.3908,1.2555 1.1867,2.9717 1.2311,7.304 0.104,10.1164 -1.2395,3.0927 -4.4666,5.462 -7.4395,5.462 -2.548,0 -4.8784,-1.625 -6.1244,-4.2702 -0.3418,-0.7255 -0.7862,-1.6668 -0.9875,-2.0919 -0.4629,-0.9774 -0.8012,-0.9774 -1.2641,0 -0.2012,0.4251 -0.6457,1.3664 -0.9875,2.0919 -1.246,2.6452 -3.5764,4.2702 -6.1244,4.2702 -2.9729,0 -6.1999,-2.3693 -7.4395,-5.462 -1.127,-2.8124 -1.0827,-7.1447 0.104,-10.1164 0.2087,-0.5232 0.3848,-1.0882 0.3912,-1.2555 0.018,-0.5149 2.7919,-5.6165 3.9437,-7.2557 5.1269,-7.2972 8.7853,-14.0652 10.2804,-19.0185 0.1481,-0.4905 0.3571,-0.8919 0.4643,-0.8919 0.1069,0 0.316,0.4014 0.464,0.8919 z"
       style="fill:#ff3030;fill-opacity:1" />
    <path
       style="fill:#ff3030;fill-opacity:1"
       d="m 4462.5497,2347.1627 c -4.6723,-15.7606 -16.1047,-37.2951 -32.1262,-60.5136 -3.5996,-5.2155 -12.2654,-21.448 -12.3253,-23.0861 -0.022,-0.5324 -0.5691,-2.3301 -1.2214,-3.995 -3.7083,-9.4553 -3.847,-23.2398 -0.325,-32.1885 3.8737,-9.8402 13.9582,-17.379 23.2486,-17.379 7.9625,0 15.245,5.1703 19.1386,13.5871 1.0682,2.3082 2.4571,5.3034 3.086,6.6561 1.4466,3.1099 2.5037,3.1099 3.9502,0 0.629,-1.3527 2.0178,-4.3479 3.0861,-6.6561 3.8936,-8.4168 11.1761,-13.5871 19.1386,-13.5871 9.2903,0 19.3749,7.5388 23.2486,17.379 3.522,8.9487 3.3833,22.7332 -0.3251,32.1885 -0.6522,1.6649 -1.2024,3.4626 -1.2224,3.995 -0.055,1.6381 -8.7246,17.8706 -12.3242,23.0861 -16.0215,23.2185 -27.4539,44.753 -32.1263,60.5136 -0.4625,1.5608 -1.1159,2.8378 -1.4509,2.8378 -0.3339,0 -0.9873,-1.277 -1.4499,-2.8378 z"
       id="path17419"
       inkscape:connector-curvature="0" />
    <path
       inkscape:connector-curvature="0"
       id="path17421"
       d="m 4734.5497,2347.1627 c -4.6723,-15.7606 -16.1047,-37.2951 -32.1262,-60.5136 -3.5996,-5.2155 -12.2654,-21.448 -12.3253,-23.0861 -0.022,-0.5324 -0.5691,-2.3301 -1.2214,-3.995 -3.7083,-9.4553 -3.847,-23.2398 -0.325,-32.1885 3.8737,-9.8402 13.9582,-17.379 23.2486,-17.379 7.9625,0 15.245,5.1703 19.1386,13.5871 1.0682,2.3082 2.4571,5.3034 3.086,6.6561 1.4466,3.1099 2.5037,3.1099 3.9502,0 0.629,-1.3527 2.0178,-4.3479 3.0861,-6.6561 3.8936,-8.4168 11.1761,-13.5871 19.1386,-13.5871 9.2903,0 19.3749,7.5388 23.2486,17.379 3.522,8.9487 3.3833,22.7332 -0.3251,32.1885 -0.6522,1.6649 -1.2024,3.4626 -1.2224,3.995 -0.055,1.6381 -8.7246,17.8706 -12.3242,23.0861 -16.0215,23.2185 -27.4539,44.753 -32.1263,60.5136 -0.4625,1.5608 -1.1159,2.8378 -1.4509,2.8378 -0.3339,0 -0.9873,-1.277 -1.4499,-2.8378 z"
       style="fill:#ff3030;fill-opacity:1" />
    <path
       inkscape:connector-curvature="0"
       id="path17425"
       d="m 4462.5497,2752.8383 c -4.6723,15.7606 -16.1047,37.2951 -32.1262,60.5136 -3.5996,5.2155 -12.2654,21.448 -12.3253,23.0861 -0.022,0.5324 -0.5691,2.3301 -1.2214,3.995 -3.7083,9.4553 -3.847,23.2398 -0.325,32.1885 3.8737,9.8402 13.9582,17.379 23.2486,17.379 7.9625,0 15.245,-5.1703 19.1386,-13.5871 1.0682,-2.3082 2.4571,-5.3034 3.086,-6.6561 1.4466,-3.1099 2.5037,-3.1099 3.9502,0 0.629,1.3527 2.0178,4.3479 3.0861,6.6561 3.8936,8.4168 11.1761,13.5871 19.1386,13.5871 9.2903,0 19.3749,-7.5388 23.2486,-17.379 3.522,-8.9487 3.3833,-22.7332 -0.3251,-32.1885 -0.6522,-1.6649 -1.2024,-3.4626 -1.2224,-3.995 -0.055,-1.6381 -8.7246,-17.8706 -12.3242,-23.0861 -16.0215,-23.2185 -27.4539,-44.753 -32.1263,-60.5136 -0.4625,-1.5608 -1.1159,-2.8378 -1.4509,-2.8378 -0.3339,0 -0.9873,1.277 -1.4499,2.8378 z"
       style="fill:#ff3030;fill-opacity:1" />
    <path
       style="fill:#ff3030;fill-opacity:1"
       d="m 4734.5497,2752.8383 c -4.6723,15.7606 -16.1047,37.2951 -32.1262,60.5136 -3.5996,5.2155 -12.2654,21.448 -12.3253,23.0861 -0.022,0.5324 -0.5691,2.3301 -1.2214,3.995 -3.7083,9.4553 -3.847,23.2398 -0.325,32.1885 3.8737,9.8402 13.9582,17.379 23.2486,17.379 7.9625,0 15.245,-5.1703 19.1386,-13.5871 1.0682,-2.3082 2.4571,-5.3034 3.086,-6.6561 1.4466,-3.1099 2.5037,-3.1099 3.9502,0 0.629,1.3527 2.0178,4.3479 3.0861,6.6561 3.8936,8.4168 11.1761,13.5871 19.1386,13.5871 9.2903,0 19.3749,-7.5388 23.2486,-17.379 3.522,-8.9487 3.3833,-22.7332 -0.3251,-32.1885 -0.6522,-1.6649 -1.2024,-3.4626 -1.2224,-3.995 -0.055,-1.6381 -8.7246,-17.8706 -12.3242,-23.0861 -16.0215,-23.2185 -27.4539,-44.753 -32.1263,-60.5136 -0.4625,-1.5608 -1.1159,-2.8378 -1.4509,-2.8378 -0.3339,0 -0.9873,1.277 -1.4499,2.8378 z"
       id="path17427"
       inkscape:connector-curvature="0" />
    <path
       style="fill:#ff3030;fill-opacity:1"
       d="m 4598.5496,2437.1627 c -4.6723,-15.7606 -16.1047,-37.2951 -32.1262,-60.5136 -3.5996,-5.2155 -12.2654,-21.448 -12.3253,-23.0861 -0.022,-0.5324 -0.5691,-2.3301 -1.2214,-3.995 -3.7083,-9.4553 -3.847,-23.2398 -0.325,-32.1885 3.8737,-9.8402 13.9582,-17.379 23.2486,-17.379 7.9625,0 15.245,5.1703 19.1386,13.5871 1.0682,2.3082 2.4571,5.3034 3.086,6.6561 1.4466,3.1099 2.5037,3.1099 3.9502,0 0.629,-1.3527 2.0178,-4.3479 3.0861,-6.6561 3.8936,-8.4168 11.1761,-13.5871 19.1386,-13.5871 9.2903,0 19.3749,7.5388 23.2486,17.379 3.522,8.9487 3.3833,22.7332 -0.3251,32.1885 -0.6522,1.6649 -1.2024,3.4626 -1.2224,3.995 -0.055,1.6381 -8.7246,17.8706 -12.3242,23.0861 -16.0215,23.2185 -27.4539,44.753 -32.1263,60.5136 -0.4625,1.5608 -1.1159,2.8378 -1.4509,2.8378 -0.3339,0 -0.9873,-1.277 -1.4499,-2.8378 z"
       id="path17431"
       inkscape:connector-curvature="0" />
    <path
       style="fill:#ff3030;fill-opacity:1"
       d="m 4598.5497,2662.8383 c -4.6723,15.7606 -16.1047,37.2951 -32.1262,60.5136 -3.5996,5.2155 -12.2654,21.448 -12.3253,23.0861 -0.022,0.5324 -0.5691,2.3301 -1.2214,3.995 -3.7083,9.4553 -3.847,23.2398 -0.325,32.1885 3.8737,9.8402 13.9582,17.379 23.2486,17.379 7.9625,0 15.245,-5.1703 19.1386,-13.5871 1.0682,-2.3082 2.4571,-5.3034 3.086,-6.6561 1.4466,-3.1099 2.5037,-3.1099 3.9502,0 0.629,1.3527 2.0178,4.3479 3.0861,6.6561 3.8936,8.4168 11.1761,13.5871 19.1386,13.5871 9.2903,0 19.3749,-7.5388 23.2486,-17.379 3.522,-8.9487 3.3833,-22.7332 -0.3251,-32.1885 -0.6522,-1.6649 -1.2024,-3.4626 -1.2224,-3.995 -0.055,-1.6381 -8.7246,-17.8706 -12.3242,-23.0861 -16.0215,-23.2185 -27.4539,-44.753 -32.1263,-60.5136 -0.4625,-1.5608 -1.1159,-2.8378 -1.4509,-2.8378 -0.3339,0 -0.9873,1.277 -1.4499,2.8378 z"
       id="path17433"
       inkscape:connector-curvature="0" />
    <path
       inkscape:connector-curvature="0"
       id="path17435"
       d="m 4598.5496,2617.1627 c -4.6723,-15.7606 -16.1047,-37.2951 -32.1262,-60.5136 -3.5996,-5.2155 -12.2654,-21.448 -12.3253,-23.0861 -0.022,-0.5324 -0.5691,-2.3301 -1.2214,-3.995 -3.7083,-9.4553 -3.847,-23.2398 -0.325,-32.1885 3.8737,-9.8402 13.9582,-17.379 23.2486,-17.379 7.9625,0 15.245,5.1703 19.1386,13.5871 1.0682,2.3082 2.4571,5.3034 3.086,6.6561 1.4466,3.1099 2.5037,3.1099 3.9502,0 0.629,-1.3527 2.0178,-4.3479 3.0861,-6.6561 3.8936,-8.4168 11.1761,-13.5871 19.1386,-13.5871 9.2903,0 19.3749,7.5388 23.2486,17.379 3.522,8.9487 3.3833,22.7332 -0.3251,32.1885 -0.6522,1.6649 -1.2024,3.4626 -1.2224,3.995 -0.055,1.6381 -8.7246,17.8706 -12.3242,23.0861 -16.0215,23.2185 -27.4539,44.753 -32.1263,60.5136 -0.4625,1.5608 -1.1159,2.8378 -1.4509,2.8378 -0.3339,0 -0.9873,-1.277 -1.4499,-2.8378 z"
       style="fill:#ff3030;fill-opacity:1" />
  </g>
</svg>
