<?xml version="1.0" encoding="UTF-8" standalone="no"?>
<!-- Created with Inkscape (http://www.inkscape.org/) -->

<svg
   id="svg10047"
   height="122.99944"
   width="79.000114"
   version="1.1"
   viewBox="0 0 79.000114 122.99944"
   inkscape:version="0.91 r13725"
   sodipodi:docname="salon-karte-66.svgz"
   xmlns:inkscape="http://www.inkscape.org/namespaces/inkscape"
   xmlns:sodipodi="http://sodipodi.sourceforge.net/DTD/sodipodi-0.dtd"
   xmlns:xlink="http://www.w3.org/1999/xlink"
   xmlns="http://www.w3.org/2000/svg"
   xmlns:svg="http://www.w3.org/2000/svg"
   xmlns:rdf="http://www.w3.org/1999/02/22-rdf-syntax-ns#"
   xmlns:cc="http://creativecommons.org/ns#"
   xmlns:dc="http://purl.org/dc/elements/1.1/">
  <sodipodi:namedview
     pagecolor="#ffffff"
     bordercolor="#666666"
     borderopacity="1"
     objecttolerance="10"
     gridtolerance="10"
     guidetolerance="10"
     inkscape:pageopacity="0"
     inkscape:pageshadow="2"
     inkscape:window-width="1920"
     inkscape:window-height="1016"
     id="namedview1491"
     showgrid="false"
     inkscape:zoom="1.3479675"
     inkscape:cx="513.5"
     inkscape:cy="307.5"
     inkscape:window-x="0"
     inkscape:window-y="0"
     inkscape:window-maximized="1"
     inkscape:current-layer="svg10047"
     showguides="true"
     inkscape:guide-bbox="true"
     inkscape:snap-grids="true"
     inkscape:showpageshadow="2"
     inkscape:pagecheckerboard="0"
     inkscape:deskcolor="#d1d1d1" />
  <metadata
     id="metadata16869">
    <rdf:RDF>
      <cc:Work
         rdf:about="">
        <dc:format>image/svg+xml</dc:format>
        <dc:type
           rdf:resource="http://purl.org/dc/dcmitype/StillImage" />
        <dc:title />
      </cc:Work>
    </rdf:RDF>
  </metadata>
  <defs
     id="defs10049">
    <linearGradient
       id="linearGradient17425"
       inkscape:swatch="solid">
      <stop
         style="stop-color:#000000;stop-opacity:1;"
         offset="0"
         id="stop17427" />
    </linearGradient>
    <linearGradient
       inkscape:collect="always"
       xlink:href="#linearGradient17425"
       id="linearGradient15936"
       gradientUnits="userSpaceOnUse"
       gradientTransform="matrix(0.91728841,0,0,0.94849571,-5688.4259,1079.2322)"
       x1="7117.6006"
       y1="1550.6322"
       x2="7683.4717"
       y2="1550.6322" />
  </defs>
  <g
     transform="matrix(0.13169305,0,0,0.13666723,-105.35444,-287.00218)"
     id="heart_2"
     inkscape:label="#heart_2">
    <rect
       style="fill:#ffffff;stroke:#000000;stroke-width:1.66649"
       id="rect15598"
       y="2100.8406"
       x="800.83325"
       ry="49.906242"
       rx="49.896725"
       height="898.32574"
       width="598.21417" />
    <rect
       ry="23.720173"
       y="2140.4668"
       x="840.46606"
       height="819.06726"
       width="519.06726"
       id="rect15600"
       style="fill:#000000;fill-opacity:0;stroke:url(#linearGradient15936);stroke-width:0.932762;stroke-linecap:square;stroke-linejoin:bevel;stroke-miterlimit:4;stroke-dasharray:none" />
    <path
       inkscape:connector-curvature="0"
       id="path15604"
       d="m 855.83799,2956.605 c -1.2891,-0.4713 -3.9926,-2.3494 -6.0078,-4.1736 -8.6098,-7.7936 -8.0552,19.9674 -8.0489,-402.8485 0.01,-387.493 0.035,-391.1401 3.1108,-396.1856 1.7077,-2.8009 5.3964,-6.4896 8.1973,-8.1973 5.0235,-3.0629 8.3657,-3.1049 247.27991,-3.1049 240.1146,0 242.2317,0.027 247.3564,3.1514 2.9845,1.8196 6.4368,5.9443 8.1689,9.7598 2.9323,6.4597 2.9998,15.3448 2.9998,394.8896 0,379.5449 -0.068,388.43 -2.9998,394.8896 -1.7321,3.8155 -5.1844,7.9403 -8.1689,9.7598 -5.1269,3.1258 -7.1372,3.1505 -247.3564,3.0339 -133.20321,-0.065 -243.24221,-0.503 -244.53131,-0.9742 z"
       style="fill:#fbf6e3;fill-opacity:1" />
    <path
       d="m 883.4412,2240.2812 -1.4758,19.7191 H 848.43 v -6.325 q 5.2316,-6.9626 15.3369,-18.1245 10.1501,-11.1616 10.1501,-24.6621 0,-7.6005 -2.817,-12.2778 -2.8169,-4.6773 -8.004,-4.6773 -4.6054,0 -7.5116,3.5078 -2.9064,3.4548 -2.9064,7.4943 0,2.073 0.8046,2.073 0.1782,0 0.7155,-0.3722 1.4755,-1.1692 2.8616,-1.1692 1.744,0 2.9514,1.6478 1.2519,1.5943 1.2519,3.7736 0,2.2323 -1.3415,3.8801 -1.3413,1.5944 -3.3088,1.5944 -2.7723,0 -4.6056,-2.817 -1.8333,-2.8701 -1.8333,-7.1221 0,-6.4845 4.4715,-11.4274 4.5162,-4.9964 11.5808,-4.9964 6.9308,0 11.9386,4.571 5.008,4.571 5.008,11.9592 0,7.8662 -4.4266,14.4036 -4.4267,6.5378 -13.0565,16.0518 -8.5851,9.5141 -12.207,14.1913 h 20.3449 q 5.6786,0 6.1704,-1.116 0.5365,-1.1163 0.8496,-5.2089 l 0.4024,-4.5711 z"
       id="path15698"
       inkscape:connector-curvature="0"
       style="font-style:normal;font-variant:normal;font-weight:normal;font-stretch:normal;font-size:medium;line-height:125%;font-family:'Bodoni MT';-inkscape-font-specification:'Bodoni MT, Normal';text-align:start;letter-spacing:0px;word-spacing:0px;writing-mode:lr-tb;text-anchor:start;fill:#ff3030;fill-opacity:1;stroke:none;stroke-width:1px;stroke-linecap:butt;stroke-linejoin:miter;stroke-opacity:1" />
    <path
       style="font-style:normal;font-variant:normal;font-weight:normal;font-stretch:normal;font-size:medium;line-height:125%;font-family:'Bodoni MT';-inkscape-font-specification:'Bodoni MT, Normal';text-align:start;letter-spacing:0px;word-spacing:0px;writing-mode:lr-tb;text-anchor:start;fill:#ff3030;fill-opacity:1;stroke:none;stroke-width:1px;stroke-linecap:butt;stroke-linejoin:miter;stroke-opacity:1"
       inkscape:connector-curvature="0"
       id="path15700"
       d="m 1351.4412,2240.2812 -1.4758,19.7191 H 1316.43 v -6.325 q 5.2316,-6.9626 15.3369,-18.1245 10.1501,-11.1616 10.1501,-24.6621 0,-7.6005 -2.817,-12.2778 -2.8169,-4.6773 -8.004,-4.6773 -4.6054,0 -7.5116,3.5078 -2.9064,3.4548 -2.9064,7.4943 0,2.073 0.8046,2.073 0.1782,0 0.7155,-0.3722 1.4755,-1.1692 2.8616,-1.1692 1.744,0 2.9514,1.6478 1.2519,1.5943 1.2519,3.7736 0,2.2323 -1.3415,3.8801 -1.3413,1.5944 -3.3088,1.5944 -2.7723,0 -4.6056,-2.817 -1.8333,-2.8701 -1.8333,-7.1221 0,-6.4845 4.4715,-11.4274 4.5162,-4.9964 11.5808,-4.9964 6.9308,0 11.9386,4.571 5.008,4.571 5.008,11.9592 0,7.8662 -4.4266,14.4036 -4.4267,6.5378 -13.0565,16.0518 -8.5851,9.5141 -12.207,14.1913 h 20.3449 q 5.6786,0 6.1704,-1.116 0.5365,-1.1163 0.8496,-5.2089 l 0.4024,-4.5711 z" />
    <path
       style="font-style:normal;font-variant:normal;font-weight:normal;font-stretch:normal;font-size:medium;line-height:125%;font-family:'Bodoni MT';-inkscape-font-specification:'Bodoni MT, Normal';text-align:start;letter-spacing:0px;word-spacing:0px;writing-mode:lr-tb;text-anchor:start;fill:#ff3030;fill-opacity:1;stroke:none;stroke-width:1px;stroke-linecap:butt;stroke-linejoin:miter;stroke-opacity:1"
       inkscape:connector-curvature="0"
       id="path15702"
       d="m 848.43,2859.7194 1.4758,-19.7191 h 33.5354 v 6.325 q -5.2316,6.9626 -15.3369,18.1245 -10.1501,11.1616 -10.1501,24.6621 0,7.6005 2.817,12.2778 2.8169,4.6773 8.004,4.6773 4.6054,0 7.5116,-3.5078 2.9064,-3.4548 2.9064,-7.4943 0,-2.073 -0.8046,-2.073 -0.1782,0 -0.7155,0.3722 -1.4755,1.1692 -2.8616,1.1692 -1.744,0 -2.9514,-1.6478 -1.2519,-1.5943 -1.2519,-3.7736 0,-2.2323 1.3415,-3.8801 1.3413,-1.5944 3.3088,-1.5944 2.7723,0 4.6056,2.817 1.8333,2.8701 1.8333,7.1221 0,6.4845 -4.4715,11.4274 -4.5162,4.9964 -11.5808,4.9964 -6.9308,0 -11.9386,-4.571 -5.008,-4.571 -5.008,-11.9592 0,-7.8662 4.4266,-14.4036 4.4267,-6.5378 13.0565,-16.0518 8.5851,-9.5141 12.207,-14.1913 h -20.3449 q -5.6786,0 -6.1704,1.116 -0.5365,1.1163 -0.8496,5.2089 l -0.4024,4.5711 z" />
    <path
       d="m 1316.43,2859.7194 1.4758,-19.7191 h 33.5354 v 6.325 q -5.2316,6.9626 -15.3369,18.1245 -10.1501,11.1616 -10.1501,24.6621 0,7.6005 2.817,12.2778 2.8169,4.6773 8.004,4.6773 4.6054,0 7.5116,-3.5078 2.9064,-3.4548 2.9064,-7.4943 0,-2.073 -0.8046,-2.073 -0.1782,0 -0.7155,0.3722 -1.4755,1.1692 -2.8616,1.1692 -1.744,0 -2.9514,-1.6478 -1.2519,-1.5943 -1.2519,-3.7736 0,-2.2323 1.3415,-3.8801 1.3413,-1.5944 3.3088,-1.5944 2.7723,0 4.6056,2.817 1.8333,2.8701 1.8333,7.1221 0,6.4845 -4.4715,11.4274 -4.5162,4.9964 -11.5808,4.9964 -6.9308,0 -11.9386,-4.571 -5.008,-4.571 -5.008,-11.9592 0,-7.8662 4.4266,-14.4036 4.4267,-6.5378 13.0565,-16.0518 8.5851,-9.5141 12.207,-14.1913 h -20.3449 q -5.6786,0 -6.1704,1.116 -0.5365,1.1163 -0.8496,5.2089 l -0.4024,4.5711 z"
       id="path15704"
       inkscape:connector-curvature="0"
       style="font-style:normal;font-variant:normal;font-weight:normal;font-stretch:normal;font-size:medium;line-height:125%;font-family:'Bodoni MT';-inkscape-font-specification:'Bodoni MT, Normal';text-align:start;letter-spacing:0px;word-spacing:0px;writing-mode:lr-tb;text-anchor:start;fill:#ff3030;fill-opacity:1;stroke:none;stroke-width:1px;stroke-linecap:butt;stroke-linejoin:miter;stroke-opacity:1" />
    <path
       style="fill:#ff3030;fill-opacity:1"
       d="m 865.53587,2313.1085 c -1.4951,-4.9533 -5.1535,-11.7213 -10.2804,-19.0185 -1.1519,-1.6392 -3.9249,-6.7408 -3.9441,-7.2557 -0.01,-0.1673 -0.1821,-0.7323 -0.3908,-1.2555 -1.1867,-2.9717 -1.2311,-7.304 -0.104,-10.1164 1.2395,-3.0927 4.4666,-5.462 7.4395,-5.462 2.548,0 4.8784,1.625 6.1244,4.2702 0.3418,0.7255 0.7862,1.6668 0.9875,2.0919 0.4629,0.9774 0.8012,0.9774 1.2641,0 0.2012,-0.4251 0.6457,-1.3664 0.9875,-2.0919 1.246,-2.6452 3.5764,-4.2702 6.1244,-4.2702 2.9729,0 6.1999,2.3693 7.4395,5.462 1.127,2.8124 1.0827,7.1447 -0.104,10.1164 -0.2087,0.5232 -0.3848,1.0882 -0.3912,1.2555 -0.018,0.5149 -2.7919,5.6165 -3.9437,7.2557 -5.1269,7.2972 -8.7853,14.0652 -10.2804,19.0185 -0.1481,0.4905 -0.3571,0.8919 -0.4643,0.8919 -0.1069,0 -0.316,-0.4014 -0.464,-0.8919 z"
       id="path16007"
       inkscape:connector-curvature="0" />
    <path
       inkscape:connector-curvature="0"
       id="path16009"
       d="m 1333.5184,2313.1085 c -1.4951,-4.9533 -5.1535,-11.7213 -10.2804,-19.0185 -1.1519,-1.6392 -3.9249,-6.7408 -3.9441,-7.2557 -0.01,-0.1673 -0.1821,-0.7323 -0.3908,-1.2555 -1.1867,-2.9717 -1.2311,-7.304 -0.104,-10.1164 1.2395,-3.0927 4.4666,-5.462 7.4395,-5.462 2.548,0 4.8784,1.625 6.1244,4.2702 0.3418,0.7255 0.7862,1.6668 0.9875,2.0919 0.4629,0.9774 0.8012,0.9774 1.2641,0 0.2012,-0.4251 0.6457,-1.3664 0.9875,-2.0919 1.246,-2.6452 3.5764,-4.2702 6.1244,-4.2702 2.9729,0 6.1999,2.3693 7.4395,5.462 1.127,2.8124 1.0827,7.1447 -0.104,10.1164 -0.2087,0.5232 -0.3848,1.0882 -0.3912,1.2555 -0.018,0.5149 -2.7919,5.6165 -3.9437,7.2557 -5.1269,7.2972 -8.7853,14.0652 -10.2804,19.0185 -0.1481,0.4905 -0.3571,0.8919 -0.4643,0.8919 -0.1069,0 -0.316,-0.4014 -0.464,-0.8919 z"
       style="fill:#ff3030;fill-opacity:1" />
    <path
       inkscape:connector-curvature="0"
       id="path16031"
       d="m 866.46413,2786.8924 c 1.4951,4.9533 5.1535,11.7213 10.2804,19.0185 1.1519,1.6392 3.9249,6.7408 3.9441,7.2557 0.01,0.1673 0.1821,0.7323 0.3908,1.2555 1.1867,2.9717 1.2311,7.304 0.104,10.1164 -1.2395,3.0927 -4.4666,5.462 -7.4395,5.462 -2.548,0 -4.8784,-1.625 -6.1244,-4.2702 -0.3418,-0.7255 -0.7862,-1.6668 -0.9875,-2.0919 -0.4629,-0.9774 -0.8012,-0.9774 -1.2641,0 -0.2012,0.4251 -0.6457,1.3664 -0.9875,2.0919 -1.246,2.6452 -3.5764,4.2702 -6.1244,4.2702 -2.9729,0 -6.1999,-2.3693 -7.4395,-5.462 -1.127,-2.8124 -1.0827,-7.1447 0.104,-10.1164 0.2087,-0.5232 0.3848,-1.0882 0.3912,-1.2555 0.018,-0.5149 2.7919,-5.6165 3.9437,-7.2557 5.1269,-7.2972 8.7853,-14.0652 10.2804,-19.0185 0.1481,-0.4905 0.3571,-0.8919 0.4643,-0.8919 0.1069,0 0.316,0.4014 0.464,0.8919 z"
       style="fill:#ff3030;fill-opacity:1" />
    <path
       style="fill:#ff3030;fill-opacity:1"
       d="m 1334.4641,2786.8924 c 1.4951,4.9533 5.1535,11.7213 10.2804,19.0185 1.1519,1.6392 3.9249,6.7408 3.9441,7.2557 0.01,0.1673 0.1821,0.7323 0.3908,1.2555 1.1867,2.9717 1.2311,7.304 0.104,10.1164 -1.2395,3.0927 -4.4666,5.462 -7.4395,5.462 -2.548,0 -4.8784,-1.625 -6.1244,-4.2702 -0.3418,-0.7255 -0.7862,-1.6668 -0.9875,-2.0919 -0.4629,-0.9774 -0.8012,-0.9774 -1.2641,0 -0.2012,0.4251 -0.6457,1.3664 -0.9875,2.0919 -1.246,2.6452 -3.5764,4.2702 -6.1244,4.2702 -2.9729,0 -6.1999,-2.3693 -7.4395,-5.462 -1.127,-2.8124 -1.0827,-7.1447 0.104,-10.1164 0.2087,-0.5232 0.3848,-1.0882 0.3912,-1.2555 0.018,-0.5149 2.7919,-5.6165 3.9437,-7.2557 5.1269,-7.2972 8.7853,-14.0652 10.2804,-19.0185 0.1481,-0.4905 0.3571,-0.8919 0.4643,-0.8919 0.1069,0 0.316,0.4014 0.464,0.8919 z"
       id="path16033"
       inkscape:connector-curvature="0" />
    <path
       inkscape:connector-curvature="0"
       id="path17522"
       d="m 1098.5497,2347.1627 c -4.6723,-15.7606 -16.1047,-37.2951 -32.1262,-60.5136 -3.5996,-5.2155 -12.2654,-21.448 -12.3253,-23.0861 -0.022,-0.5324 -0.5691,-2.3301 -1.2214,-3.995 -3.7083,-9.4553 -3.847,-23.2398 -0.325,-32.1885 3.8737,-9.8402 13.9582,-17.379 23.2486,-17.379 7.9625,0 15.245,5.1703 19.1386,13.5871 1.0682,2.3082 2.4571,5.3034 3.086,6.6561 1.4466,3.1099 2.5037,3.1099 3.9502,0 0.629,-1.3527 2.0178,-4.3479 3.0861,-6.6561 3.8936,-8.4168 11.1761,-13.5871 19.1386,-13.5871 9.2903,0 19.3749,7.5388 23.2486,17.379 3.522,8.9487 3.3833,22.7332 -0.3251,32.1885 -0.6522,1.6649 -1.2024,3.4626 -1.2224,3.995 -0.055,1.6381 -8.7246,17.8706 -12.3242,23.0861 -16.0215,23.2185 -27.4539,44.753 -32.1263,60.5136 -0.4625,1.5608 -1.1159,2.8378 -1.4509,2.8378 -0.3339,0 -0.9873,-1.277 -1.4499,-2.8378 z"
       style="fill:#ff3030;fill-opacity:1" />
    <path
       style="fill:#ff3030;fill-opacity:1"
       d="m 1098.5497,2752.8383 c -4.6723,15.7606 -16.1047,37.2951 -32.1262,60.5136 -3.5996,5.2155 -12.2654,21.448 -12.3253,23.0861 -0.022,0.5324 -0.5691,2.3301 -1.2214,3.995 -3.7083,9.4553 -3.847,23.2398 -0.325,32.1885 3.8737,9.8402 13.9582,17.379 23.2486,17.379 7.9625,0 15.245,-5.1703 19.1386,-13.5871 1.0682,-2.3082 2.4571,-5.3034 3.086,-6.6561 1.4466,-3.1099 2.5037,-3.1099 3.9502,0 0.629,1.3527 2.0178,4.3479 3.0861,6.6561 3.8936,8.4168 11.1761,13.5871 19.1386,13.5871 9.2903,0 19.3749,-7.5388 23.2486,-17.379 3.522,-8.9487 3.3833,-22.7332 -0.3251,-32.1885 -0.6522,-1.6649 -1.2024,-3.4626 -1.2224,-3.995 -0.055,-1.6381 -8.7246,-17.8706 -12.3242,-23.0861 -16.0215,-23.2185 -27.4539,-44.753 -32.1263,-60.5136 -0.4625,-1.5608 -1.1159,-2.8378 -1.4509,-2.8378 -0.3339,0 -0.9873,1.277 -1.4499,2.8378 z"
       id="path17524"
       inkscape:connector-curvature="0" />
  </g>
</svg>
