<?xml version="1.0" encoding="UTF-8" standalone="no"?>
<!-- Created with Inkscape (http://www.inkscape.org/) -->

<svg
   id="svg10047"
   height="122.99944"
   width="79.000114"
   version="1.1"
   viewBox="0 0 79.000114 122.99944"
   inkscape:version="0.91 r13725"
   sodipodi:docname="salon-karte-66.svgz"
   xmlns:inkscape="http://www.inkscape.org/namespaces/inkscape"
   xmlns:sodipodi="http://sodipodi.sourceforge.net/DTD/sodipodi-0.dtd"
   xmlns:xlink="http://www.w3.org/1999/xlink"
   xmlns="http://www.w3.org/2000/svg"
   xmlns:svg="http://www.w3.org/2000/svg"
   xmlns:rdf="http://www.w3.org/1999/02/22-rdf-syntax-ns#"
   xmlns:cc="http://creativecommons.org/ns#"
   xmlns:dc="http://purl.org/dc/elements/1.1/">
  <sodipodi:namedview
     pagecolor="#ffffff"
     bordercolor="#666666"
     borderopacity="1"
     objecttolerance="10"
     gridtolerance="10"
     guidetolerance="10"
     inkscape:pageopacity="0"
     inkscape:pageshadow="2"
     inkscape:window-width="1920"
     inkscape:window-height="1016"
     id="namedview1491"
     showgrid="false"
     inkscape:zoom="1.3479675"
     inkscape:cx="513.5"
     inkscape:cy="307.5"
     inkscape:window-x="0"
     inkscape:window-y="0"
     inkscape:window-maximized="1"
     inkscape:current-layer="svg10047"
     showguides="true"
     inkscape:guide-bbox="true"
     inkscape:snap-grids="true"
     inkscape:showpageshadow="2"
     inkscape:pagecheckerboard="0"
     inkscape:deskcolor="#d1d1d1" />
  <metadata
     id="metadata16869">
    <rdf:RDF>
      <cc:Work
         rdf:about="">
        <dc:format>image/svg+xml</dc:format>
        <dc:type
           rdf:resource="http://purl.org/dc/dcmitype/StillImage" />
        <dc:title />
      </cc:Work>
    </rdf:RDF>
  </metadata>
  <defs
     id="defs10049">
    <linearGradient
       id="linearGradient17425"
       inkscape:swatch="solid">
      <stop
         style="stop-color:#000000;stop-opacity:1;"
         offset="0"
         id="stop17427" />
    </linearGradient>
    <linearGradient
       inkscape:collect="always"
       xlink:href="#linearGradient17425"
       id="linearGradient15934"
       gradientUnits="userSpaceOnUse"
       gradientTransform="matrix(0.91728841,0,0,0.94849571,-4988.4259,1079.2322)"
       x1="7117.6006"
       y1="1550.6322"
       x2="7683.4717"
       y2="1550.6322" />
  </defs>
  <g
     transform="matrix(0.13169305,0,0,0.13666723,-197.53958,-287.00218)"
     id="heart_3"
     inkscape:label="#heart_3">
    <rect
       width="598.21417"
       height="898.32574"
       rx="49.896725"
       ry="49.906242"
       x="1500.8333"
       y="2100.8406"
       id="rect15590"
       style="fill:#ffffff;stroke:#000000;stroke-width:1.66649" />
    <rect
       style="fill:#000000;fill-opacity:0;stroke:url(#linearGradient15934);stroke-width:0.932762;stroke-linecap:square;stroke-linejoin:bevel;stroke-miterlimit:4;stroke-dasharray:none"
       id="rect15592"
       width="519.06726"
       height="819.06726"
       x="1540.4661"
       y="2140.4668"
       ry="23.720173" />
    <path
       style="fill:#fbf6e3;fill-opacity:1"
       d="m 1555.838,2956.605 c -1.2891,-0.4713 -3.9926,-2.3494 -6.0078,-4.1736 -8.6098,-7.7936 -8.0552,19.9674 -8.0489,-402.8485 0.01,-387.493 0.035,-391.1401 3.1108,-396.1856 1.7077,-2.8009 5.3964,-6.4896 8.1973,-8.1973 5.0235,-3.0629 8.3657,-3.1049 247.2799,-3.1049 240.1146,0 242.2317,0.027 247.3564,3.1514 2.9845,1.8196 6.4368,5.9443 8.1689,9.7598 2.9323,6.4597 2.9998,15.3448 2.9998,394.8896 0,379.5449 -0.068,388.43 -2.9998,394.8896 -1.7321,3.8155 -5.1844,7.9403 -8.1689,9.7598 -5.1269,3.1258 -7.1372,3.1505 -247.3564,3.0339 -133.2032,-0.065 -243.2422,-0.503 -244.5313,-0.9742 z"
       id="path15596"
       inkscape:connector-curvature="0" />
    <path
       d="m 1565.8399,2222.0871 v 0.2078 q 9.7925,0.9362 13.5483,6.2409 3.756,5.2529 3.756,11.6497 0,8.061 -5.8576,13.938 -5.8576,5.8768 -14.0846,5.8768 -6.4389,0 -10.6423,-4.0046 -4.203,-4.0046 -4.203,-8.7894 0,-2.7042 1.2968,-4.5245 1.2968,-1.8721 3.2642,-1.8721 1.8333,0 3.0852,1.612 1.2519,1.5603 1.2519,3.7965 0,3.5364 -2.4146,4.9409 -1.5201,0.7801 -1.5201,1.2481 0,0.988 2.7721,2.9124 2.817,1.8722 6.2602,1.8722 10.9099,0 10.9099,-15.4461 0,-11.1296 -4.024,-14.5101 -3.9797,-3.3803 -8.7192,-3.3803 l -3.8902,0.312 q -2.1461,0 -2.1461,-1.6642 0,-1.6124 1.8333,-1.6124 0.5811,0 2.8167,0.2611 2.2805,0.2609 2.3251,0.2609 1.3861,0 4.0244,-1.7162 2.6825,-1.7161 3.9347,-4.5246 1.2966,-2.8606 1.2966,-8.9972 0,-8.165 -1.9675,-10.8696 -1.9225,-2.7563 -5.5441,-2.7563 -3.3091,0 -5.6343,1.56 -2.3251,1.5083 -2.3251,2.8085 0,0.5719 1.744,1.7162 1.7885,1.0922 1.7885,3.8484 0,1.9245 -1.2966,3.3807 -1.2968,1.4041 -2.9065,1.4041 -1.8332,0 -3.0406,-1.7679 -1.1625,-1.7685 -1.1625,-4.1088 0,-4.2646 3.89,-7.8012 3.8901,-3.5885 10.016,-3.5885 6.8413,0 11.4467,4.5248 4.6056,4.4723 4.6056,10.9214 0,12.2737 -14.4873,16.6423 z"
       id="path15690"
       inkscape:connector-curvature="0"
       style="font-style:normal;font-variant:normal;font-weight:normal;font-stretch:normal;font-size:medium;line-height:125%;font-family:'Bodoni MT';-inkscape-font-specification:'Bodoni MT, Normal';text-align:start;letter-spacing:0px;word-spacing:0px;writing-mode:lr-tb;text-anchor:start;fill:#ff3030;fill-opacity:1;stroke:none;stroke-width:1px;stroke-linecap:butt;stroke-linejoin:miter;stroke-opacity:1" />
    <path
       style="font-style:normal;font-variant:normal;font-weight:normal;font-stretch:normal;font-size:medium;line-height:125%;font-family:'Bodoni MT';-inkscape-font-specification:'Bodoni MT, Normal';text-align:start;letter-spacing:0px;word-spacing:0px;writing-mode:lr-tb;text-anchor:start;fill:#ff3030;fill-opacity:1;stroke:none;stroke-width:1px;stroke-linecap:butt;stroke-linejoin:miter;stroke-opacity:1"
       inkscape:connector-curvature="0"
       id="path15692"
       d="m 2033.8402,2222.0871 v 0.2078 q 9.7925,0.9362 13.5483,6.2409 3.756,5.2529 3.756,11.6497 0,8.061 -5.8576,13.938 -5.8576,5.8768 -14.0846,5.8768 -6.4389,0 -10.6423,-4.0046 -4.203,-4.0046 -4.203,-8.7894 0,-2.7042 1.2968,-4.5245 1.2968,-1.8721 3.2642,-1.8721 1.8333,0 3.0852,1.612 1.2519,1.5603 1.2519,3.7965 0,3.5364 -2.4146,4.9409 -1.5201,0.7801 -1.5201,1.2481 0,0.988 2.7721,2.9124 2.817,1.8722 6.2602,1.8722 10.9099,0 10.9099,-15.4461 0,-11.1296 -4.024,-14.5101 -3.9797,-3.3803 -8.7192,-3.3803 l -3.8902,0.312 q -2.1461,0 -2.1461,-1.6642 0,-1.6124 1.8333,-1.6124 0.5811,0 2.8167,0.2611 2.2805,0.2609 2.3251,0.2609 1.3861,0 4.0244,-1.7162 2.6825,-1.7161 3.9347,-4.5246 1.2966,-2.8606 1.2966,-8.9972 0,-8.165 -1.9675,-10.8696 -1.9225,-2.7563 -5.5441,-2.7563 -3.3091,0 -5.6343,1.56 -2.3251,1.5083 -2.3251,2.8085 0,0.5719 1.744,1.7162 1.7885,1.0922 1.7885,3.8484 0,1.9245 -1.2966,3.3807 -1.2968,1.4041 -2.9065,1.4041 -1.8332,0 -3.0406,-1.7679 -1.1625,-1.7685 -1.1625,-4.1088 0,-4.2646 3.89,-7.8012 3.8901,-3.5885 10.016,-3.5885 6.8413,0 11.4467,4.5248 4.6056,4.4723 4.6056,10.9214 0,12.2737 -14.4873,16.6423 z" />
    <path
       style="font-style:normal;font-variant:normal;font-weight:normal;font-stretch:normal;font-size:medium;line-height:125%;font-family:'Bodoni MT';-inkscape-font-specification:'Bodoni MT, Normal';text-align:start;letter-spacing:0px;word-spacing:0px;writing-mode:lr-tb;text-anchor:start;fill:#ff3030;fill-opacity:1;stroke:none;stroke-width:1px;stroke-linecap:butt;stroke-linejoin:miter;stroke-opacity:1"
       inkscape:connector-curvature="0"
       id="path15694"
       d="m 1565.661,2877.9136 v -0.2079 q -9.7925,-0.9361 -13.5483,-6.2409 -3.756,-5.2529 -3.756,-11.6497 0,-8.0609 5.8576,-13.9379 5.8576,-5.8768 14.0846,-5.8768 6.4389,0 10.6423,4.0045 4.203,4.0047 4.203,8.7894 0,2.7043 -1.2968,4.5245 -1.2968,1.8722 -3.2642,1.8722 -1.8333,0 -3.0852,-1.6121 -1.2519,-1.5603 -1.2519,-3.7964 0,-3.5364 2.4146,-4.941 1.5201,-0.7801 1.5201,-1.2481 0,-0.988 -2.7721,-2.9124 -2.817,-1.8722 -6.2602,-1.8722 -10.9099,0 -10.9099,15.4461 0,11.1296 4.024,14.5101 3.9797,3.3803 8.7192,3.3803 l 3.8902,-0.312 q 2.1461,0 2.1461,1.6642 0,1.6124 -1.8333,1.6124 -0.5811,0 -2.8167,-0.2611 -2.2805,-0.2609 -2.3251,-0.2609 -1.3861,0 -4.0244,1.7162 -2.6825,1.7161 -3.9347,4.5246 -1.2966,2.8606 -1.2966,8.9972 0,8.165 1.9675,10.8696 1.9225,2.7563 5.5441,2.7563 3.3091,0 5.6343,-1.56 2.3251,-1.5083 2.3251,-2.8085 0,-0.5719 -1.744,-1.7162 -1.7885,-1.0922 -1.7885,-3.8484 0,-1.9245 1.2966,-3.3807 1.2968,-1.4041 2.9065,-1.4041 1.8332,0 3.0406,1.7679 1.1625,1.7685 1.1625,4.1088 0,4.2646 -3.89,7.8012 -3.8901,3.5885 -10.016,3.5885 -6.8413,0 -11.4467,-4.5248 -4.6056,-4.4723 -4.6056,-10.9214 0,-12.2737 14.4873,-16.6423 z" />
    <path
       d="m 2033.6612,2877.9135 v -0.2078 q -9.7925,-0.9362 -13.5482,-6.2409 -3.7561,-5.2529 -3.7561,-11.6497 0,-8.061 5.8577,-13.938 5.8576,-5.8768 14.0845,-5.8768 6.439,0 10.6423,4.0046 4.203,4.0046 4.203,8.7894 0,2.7042 -1.2968,4.5245 -1.2967,1.8721 -3.2642,1.8721 -1.8333,0 -3.0852,-1.612 -1.2519,-1.5603 -1.2519,-3.7965 0,-3.5364 2.4147,-4.9409 1.5201,-0.7801 1.5201,-1.2481 0,-0.988 -2.7721,-2.9124 -2.817,-1.8722 -6.2602,-1.8722 -10.9099,0 -10.9099,15.4461 0,11.1296 4.024,14.5101 3.9797,3.3803 8.7192,3.3803 l 3.8901,-0.312 q 2.1462,0 2.1462,1.6642 0,1.6124 -1.8333,1.6124 -0.5811,0 -2.8167,-0.2611 -2.2806,-0.2609 -2.3251,-0.2609 -1.3861,0 -4.0244,1.7162 -2.6825,1.7161 -3.9347,4.5246 -1.2966,2.8606 -1.2966,8.9972 0,8.165 1.9675,10.8696 1.9224,2.7563 5.5441,2.7563 3.3091,0 5.6343,-1.56 2.3251,-1.5083 2.3251,-2.8085 0,-0.5719 -1.7441,-1.7162 -1.7884,-1.0922 -1.7884,-3.8484 0,-1.9245 1.2965,-3.3807 1.2969,-1.4041 2.9066,-1.4041 1.8332,0 3.0406,1.7679 1.1625,1.7685 1.1625,4.1088 0,4.2646 -3.89,7.8012 -3.8901,3.5885 -10.016,3.5885 -6.8413,0 -11.4467,-4.5248 -4.6056,-4.4723 -4.6056,-10.9214 0,-12.2737 14.4873,-16.6423 z"
       id="path15696"
       inkscape:connector-curvature="0"
       style="font-style:normal;font-variant:normal;font-weight:normal;font-stretch:normal;font-size:medium;line-height:125%;font-family:'Bodoni MT';-inkscape-font-specification:'Bodoni MT, Normal';text-align:start;letter-spacing:0px;word-spacing:0px;writing-mode:lr-tb;text-anchor:start;fill:#ff3030;fill-opacity:1;stroke:none;stroke-width:1px;stroke-linecap:butt;stroke-linejoin:miter;stroke-opacity:1" />
    <path
       style="fill:#ff3030;fill-opacity:1"
       d="m 1565.5359,2313.1086 c -1.4951,-4.9533 -5.1535,-11.7213 -10.2804,-19.0185 -1.1519,-1.6392 -3.9249,-6.7408 -3.9441,-7.2557 -0.01,-0.1673 -0.1821,-0.7323 -0.3908,-1.2555 -1.1867,-2.9717 -1.2311,-7.304 -0.104,-10.1164 1.2395,-3.0927 4.4666,-5.462 7.4395,-5.462 2.548,0 4.8784,1.625 6.1244,4.2702 0.3418,0.7255 0.7862,1.6668 0.9875,2.0919 0.4629,0.9774 0.8012,0.9774 1.2641,0 0.2012,-0.4251 0.6457,-1.3664 0.9875,-2.0919 1.246,-2.6452 3.5764,-4.2702 6.1244,-4.2702 2.9729,0 6.1999,2.3693 7.4395,5.462 1.127,2.8124 1.0827,7.1447 -0.104,10.1164 -0.2087,0.5232 -0.3848,1.0882 -0.3912,1.2555 -0.018,0.5149 -2.7919,5.6165 -3.9437,7.2557 -5.1269,7.2972 -8.7853,14.0652 -10.2804,19.0185 -0.1481,0.4905 -0.3571,0.8919 -0.4643,0.8919 -0.1069,0 -0.316,-0.4014 -0.464,-0.8919 z"
       id="path16011"
       inkscape:connector-curvature="0" />
    <path
       inkscape:connector-curvature="0"
       id="path16013"
       d="m 2033.5184,2313.1086 c -1.4951,-4.9533 -5.1535,-11.7213 -10.2804,-19.0185 -1.1519,-1.6392 -3.9249,-6.7408 -3.9441,-7.2557 -0.01,-0.1673 -0.1821,-0.7323 -0.3908,-1.2555 -1.1867,-2.9717 -1.2311,-7.304 -0.104,-10.1164 1.2395,-3.0927 4.4666,-5.462 7.4395,-5.462 2.548,0 4.8784,1.625 6.1244,4.2702 0.3418,0.7255 0.7862,1.6668 0.9875,2.0919 0.4629,0.9774 0.8012,0.9774 1.2641,0 0.2012,-0.4251 0.6457,-1.3664 0.9875,-2.0919 1.246,-2.6452 3.5764,-4.2702 6.1244,-4.2702 2.9729,0 6.1999,2.3693 7.4395,5.462 1.127,2.8124 1.0827,7.1447 -0.104,10.1164 -0.2087,0.5232 -0.3848,1.0882 -0.3912,1.2555 -0.018,0.5149 -2.7919,5.6165 -3.9437,7.2557 -5.1269,7.2972 -8.7853,14.0652 -10.2804,19.0185 -0.1481,0.4905 -0.3571,0.8919 -0.4643,0.8919 -0.1069,0 -0.316,-0.4014 -0.464,-0.8919 z"
       style="fill:#ff3030;fill-opacity:1" />
    <path
       style="fill:#ff3030;fill-opacity:1"
       d="m 1566.4641,2786.8924 c 1.4951,4.9533 5.1535,11.7213 10.2804,19.0185 1.1519,1.6392 3.9249,6.7408 3.9441,7.2557 0.01,0.1673 0.1821,0.7323 0.3908,1.2555 1.1867,2.9717 1.2311,7.304 0.104,10.1164 -1.2395,3.0927 -4.4666,5.462 -7.4395,5.462 -2.548,0 -4.8784,-1.625 -6.1244,-4.2702 -0.3418,-0.7255 -0.7862,-1.6668 -0.9875,-2.0919 -0.4629,-0.9774 -0.8012,-0.9774 -1.2641,0 -0.2012,0.4251 -0.6457,1.3664 -0.9875,2.0919 -1.246,2.6452 -3.5764,4.2702 -6.1244,4.2702 -2.9729,0 -6.1999,-2.3693 -7.4395,-5.462 -1.127,-2.8124 -1.0827,-7.1447 0.104,-10.1164 0.2087,-0.5232 0.3848,-1.0882 0.3912,-1.2555 0.018,-0.5149 2.7919,-5.6165 3.9437,-7.2557 5.1269,-7.2972 8.7853,-14.0652 10.2804,-19.0185 0.1481,-0.4905 0.3571,-0.8919 0.4643,-0.8919 0.1069,0 0.316,0.4014 0.464,0.8919 z"
       id="path16035"
       inkscape:connector-curvature="0" />
    <path
       inkscape:connector-curvature="0"
       id="path16037"
       d="m 2034.4641,2786.8924 c 1.4951,4.9533 5.1535,11.7213 10.2804,19.0185 1.1519,1.6392 3.9249,6.7408 3.9441,7.2557 0.01,0.1673 0.1821,0.7323 0.3908,1.2555 1.1867,2.9717 1.2311,7.304 0.104,10.1164 -1.2395,3.0927 -4.4666,5.462 -7.4395,5.462 -2.548,0 -4.8784,-1.625 -6.1244,-4.2702 -0.3418,-0.7255 -0.7862,-1.6668 -0.9875,-2.0919 -0.4629,-0.9774 -0.8012,-0.9774 -1.2641,0 -0.2012,0.4251 -0.6457,1.3664 -0.9875,2.0919 -1.246,2.6452 -3.5764,4.2702 -6.1244,4.2702 -2.9729,0 -6.1999,-2.3693 -7.4395,-5.462 -1.127,-2.8124 -1.0827,-7.1447 0.104,-10.1164 0.2087,-0.5232 0.3848,-1.0882 0.3912,-1.2555 0.018,-0.5149 2.7919,-5.6165 3.9437,-7.2557 5.1269,-7.2972 8.7853,-14.0652 10.2804,-19.0185 0.1481,-0.4905 0.3571,-0.8919 0.4643,-0.8919 0.1069,0 0.316,0.4014 0.464,0.8919 z"
       style="fill:#ff3030;fill-opacity:1" />
    <path
       style="fill:#ff3030;fill-opacity:1"
       d="m 1798.5496,2347.1627 c -4.6723,-15.7606 -16.1047,-37.2951 -32.1262,-60.5136 -3.5996,-5.2155 -12.2654,-21.448 -12.3253,-23.0861 -0.022,-0.5324 -0.5691,-2.3301 -1.2214,-3.995 -3.7083,-9.4553 -3.847,-23.2398 -0.325,-32.1885 3.8737,-9.8402 13.9582,-17.379 23.2486,-17.379 7.9625,0 15.245,5.1703 19.1386,13.5871 1.0682,2.3082 2.4571,5.3034 3.086,6.6561 1.4466,3.1099 2.5037,3.1099 3.9502,0 0.629,-1.3527 2.0178,-4.3479 3.0861,-6.6561 3.8936,-8.4168 11.1761,-13.5871 19.1386,-13.5871 9.2903,0 19.3749,7.5388 23.2486,17.379 3.522,8.9487 3.3833,22.7332 -0.3251,32.1885 -0.6522,1.6649 -1.2024,3.4626 -1.2224,3.995 -0.055,1.6381 -8.7246,17.8706 -12.3242,23.0861 -16.0215,23.2185 -27.4539,44.753 -32.1263,60.5136 -0.4625,1.5608 -1.1159,2.8378 -1.4509,2.8378 -0.3339,0 -0.9873,-1.277 -1.4499,-2.8378 z"
       id="path17512"
       inkscape:connector-curvature="0" />
    <path
       inkscape:connector-curvature="0"
       id="path17516"
       d="m 1798.5496,2752.8383 c -4.6723,15.7606 -16.1047,37.2951 -32.1262,60.5136 -3.5996,5.2155 -12.2654,21.448 -12.3253,23.0861 -0.022,0.5324 -0.5691,2.3301 -1.2214,3.995 -3.7083,9.4553 -3.847,23.2398 -0.325,32.1885 3.8737,9.8402 13.9582,17.379 23.2486,17.379 7.9625,0 15.245,-5.1703 19.1386,-13.5871 1.0682,-2.3082 2.4571,-5.3034 3.086,-6.6561 1.4466,-3.1099 2.5037,-3.1099 3.9502,0 0.629,1.3527 2.0178,4.3479 3.0861,6.6561 3.8936,8.4168 11.1761,13.5871 19.1386,13.5871 9.2903,0 19.3749,-7.5388 23.2486,-17.379 3.522,-8.9487 3.3833,-22.7332 -0.3251,-32.1885 -0.6522,-1.6649 -1.2024,-3.4626 -1.2224,-3.995 -0.055,-1.6381 -8.7246,-17.8706 -12.3242,-23.0861 -16.0215,-23.2185 -27.4539,-44.753 -32.1263,-60.5136 -0.4625,-1.5608 -1.1159,-2.8378 -1.4509,-2.8378 -0.3339,0 -0.9873,1.277 -1.4499,2.8378 z"
       style="fill:#ff3030;fill-opacity:1" />
    <path
       inkscape:connector-curvature="0"
       id="path17520"
       d="m 1798.5495,2617.1627 c -4.6723,-15.7606 -16.1047,-37.2951 -32.1262,-60.5136 -3.5996,-5.2155 -12.2654,-21.448 -12.3253,-23.0861 -0.022,-0.5324 -0.5691,-2.3301 -1.2214,-3.995 -3.7083,-9.4553 -3.847,-23.2398 -0.325,-32.1885 3.8737,-9.8402 13.9582,-17.379 23.2486,-17.379 7.9625,0 15.245,5.1703 19.1386,13.5871 1.0682,2.3082 2.4571,5.3034 3.086,6.6561 1.4466,3.1099 2.5037,3.1099 3.9502,0 0.629,-1.3527 2.0178,-4.3479 3.0861,-6.6561 3.8936,-8.4168 11.1761,-13.5871 19.1386,-13.5871 9.2903,0 19.3749,7.5388 23.2486,17.379 3.522,8.9487 3.3833,22.7332 -0.3251,32.1885 -0.6522,1.6649 -1.2024,3.4626 -1.2224,3.995 -0.055,1.6381 -8.7246,17.8706 -12.3242,23.0861 -16.0215,23.2185 -27.4539,44.753 -32.1263,60.5136 -0.4625,1.5608 -1.1159,2.8378 -1.4509,2.8378 -0.3339,0 -0.9873,-1.277 -1.4499,-2.8378 z"
       style="fill:#ff3030;fill-opacity:1" />
  </g>
</svg>
