<?xml version="1.0" encoding="UTF-8" standalone="no"?>
<!-- Created with Inkscape (http://www.inkscape.org/) -->

<svg
   id="svg10047"
   height="122.99944"
   width="79.000114"
   version="1.1"
   viewBox="0 0 79.000114 122.99944"
   inkscape:version="0.91 r13725"
   sodipodi:docname="salon-karte-66.svgz"
   xmlns:inkscape="http://www.inkscape.org/namespaces/inkscape"
   xmlns:sodipodi="http://sodipodi.sourceforge.net/DTD/sodipodi-0.dtd"
   xmlns:xlink="http://www.w3.org/1999/xlink"
   xmlns="http://www.w3.org/2000/svg"
   xmlns:svg="http://www.w3.org/2000/svg"
   xmlns:rdf="http://www.w3.org/1999/02/22-rdf-syntax-ns#"
   xmlns:cc="http://creativecommons.org/ns#"
   xmlns:dc="http://purl.org/dc/elements/1.1/">
  <sodipodi:namedview
     pagecolor="#ffffff"
     bordercolor="#666666"
     borderopacity="1"
     objecttolerance="10"
     gridtolerance="10"
     guidetolerance="10"
     inkscape:pageopacity="0"
     inkscape:pageshadow="2"
     inkscape:window-width="1920"
     inkscape:window-height="1016"
     id="namedview1491"
     showgrid="false"
     inkscape:zoom="1.3479675"
     inkscape:cx="513.5"
     inkscape:cy="307.5"
     inkscape:window-x="0"
     inkscape:window-y="0"
     inkscape:window-maximized="1"
     inkscape:current-layer="svg10047"
     showguides="true"
     inkscape:guide-bbox="true"
     inkscape:snap-grids="true"
     inkscape:showpageshadow="2"
     inkscape:pagecheckerboard="0"
     inkscape:deskcolor="#d1d1d1" />
  <metadata
     id="metadata16869">
    <rdf:RDF>
      <cc:Work
         rdf:about="">
        <dc:format>image/svg+xml</dc:format>
        <dc:type
           rdf:resource="http://purl.org/dc/dcmitype/StillImage" />
        <dc:title />
      </cc:Work>
    </rdf:RDF>
  </metadata>
  <defs
     id="defs10049">
    <linearGradient
       id="linearGradient17425"
       inkscape:swatch="solid">
      <stop
         style="stop-color:#000000;stop-opacity:1;"
         offset="0"
         id="stop17427" />
    </linearGradient>
    <linearGradient
       inkscape:collect="always"
       xlink:href="#linearGradient17425"
       id="linearGradient15930"
       gradientUnits="userSpaceOnUse"
       gradientTransform="matrix(0.91728841,0,0,0.94849571,-3588.4259,1079.2322)"
       x1="7117.6006"
       y1="1550.6322"
       x2="7683.4717"
       y2="1550.6322" />
  </defs>
  <g
     transform="matrix(0.13169305,0,0,0.13666723,-381.90985,-287.00218)"
     id="heart_5"
     inkscape:label="#heart_5">
    <rect
       style="fill:#ffffff;stroke:#000000;stroke-width:1.66649"
       id="rect15574"
       y="2100.8406"
       x="2900.8333"
       ry="49.906242"
       rx="49.896725"
       height="898.32574"
       width="598.21417" />
    <rect
       ry="23.720173"
       y="2140.4668"
       x="2940.4661"
       height="819.06726"
       width="519.06726"
       id="rect15576"
       style="fill:#000000;fill-opacity:0;stroke:url(#linearGradient15930);stroke-width:0.932762;stroke-linecap:square;stroke-linejoin:bevel;stroke-miterlimit:4;stroke-dasharray:none" />
    <path
       inkscape:connector-curvature="0"
       id="path15580"
       d="m 2955.838,2956.605 c -1.2891,-0.4713 -3.9926,-2.3494 -6.0078,-4.1736 -8.6098,-7.7936 -8.0552,19.9674 -8.0489,-402.8485 0.01,-387.493 0.035,-391.1401 3.1108,-396.1856 1.7077,-2.8009 5.3964,-6.4896 8.1973,-8.1973 5.0235,-3.0629 8.3657,-3.1049 247.2799,-3.1049 240.1146,0 242.2317,0.027 247.3564,3.1514 2.9845,1.8196 6.4368,5.9443 8.1689,9.7598 2.9323,6.4597 2.9998,15.3448 2.9998,394.8896 0,379.5449 -0.068,388.43 -2.9998,394.8896 -1.7321,3.8155 -5.1844,7.9403 -8.1689,9.7598 -5.1269,3.1258 -7.1372,3.1505 -247.3564,3.0339 -133.2032,-0.065 -243.2422,-0.503 -244.5313,-0.9742 z"
       style="fill:#fbf6e3;fill-opacity:1" />
    <path
       d="m 2955.1837,2202.1301 -0.7155,18.9532 q 4.7399,-1.6677 9.2111,-1.6677 8.451,0 14.0849,5.6101 5.6341,5.5594 5.6341,13.9493 0,8.8953 -6.1259,14.9606 -6.1258,6.0647 -14.4872,6.0647 -6.8863,0 -10.5526,-3.9928 -3.6666,-3.9927 -3.6666,-9.1478 0,-2.2744 1.252,-3.8918 1.2522,-1.6173 3.443,-1.6173 1.7887,0 2.9959,1.415 1.2071,1.4153 1.2071,3.5379 0,3.6392 -2.8617,5.0037 -1.1624,0.5561 -1.1624,1.1119 0,1.4154 2.3698,3.0326 2.4147,1.6174 6.0363,1.6174 11.6704,0 11.6704,-16.3251 0,-18.5488 -12.4751,-18.5488 -3.6219,0 -5.6788,1.2132 -2.012,1.1623 -2.459,1.1623 -0.8945,0 -0.8496,-1.971 l 0.8496,-20.4696 q 0.2242,-6.1154 1.2966,-7.4799 1.1177,-1.4152 6.573,-1.4152 h 9.6134 q 4.3372,0 5.4104,-0.455 1.0729,-0.4547 1.5647,-2.7797 h 1.9229 q -0.2683,8.3898 -2.2803,10.2601 -1.9677,1.8697 -6.7967,1.8697 z"
       id="path15674"
       inkscape:connector-curvature="0"
       style="font-style:normal;font-variant:normal;font-weight:normal;font-stretch:normal;font-size:medium;line-height:125%;font-family:'Bodoni MT';-inkscape-font-specification:'Bodoni MT, Normal';text-align:start;letter-spacing:0px;word-spacing:0px;writing-mode:lr-tb;text-anchor:start;fill:#ff3030;fill-opacity:1;stroke:none;stroke-width:1px;stroke-linecap:butt;stroke-linejoin:miter;stroke-opacity:1" />
    <path
       style="font-style:normal;font-variant:normal;font-weight:normal;font-stretch:normal;font-size:medium;line-height:125%;font-family:'Bodoni MT';-inkscape-font-specification:'Bodoni MT, Normal';text-align:start;letter-spacing:0px;word-spacing:0px;writing-mode:lr-tb;text-anchor:start;fill:#ff3030;fill-opacity:1;stroke:none;stroke-width:1px;stroke-linecap:butt;stroke-linejoin:miter;stroke-opacity:1"
       inkscape:connector-curvature="0"
       id="path15676"
       d="m 3423.3177,2202.1301 -0.7155,18.9532 q 4.7399,-1.6677 9.2111,-1.6677 8.451,0 14.0849,5.6101 5.6341,5.5594 5.6341,13.9493 0,8.8953 -6.1259,14.9606 -6.1258,6.0647 -14.4872,6.0647 -6.8863,0 -10.5526,-3.9928 -3.6666,-3.9927 -3.6666,-9.1478 0,-2.2744 1.252,-3.8918 1.2522,-1.6173 3.443,-1.6173 1.7887,0 2.9959,1.415 1.2071,1.4153 1.2071,3.5379 0,3.6392 -2.8617,5.0037 -1.1624,0.5561 -1.1624,1.1119 0,1.4154 2.3698,3.0326 2.4147,1.6174 6.0363,1.6174 11.6704,0 11.6704,-16.3251 0,-18.5488 -12.4751,-18.5488 -3.6219,0 -5.6788,1.2132 -2.012,1.1623 -2.459,1.1623 -0.8945,0 -0.8496,-1.971 l 0.8496,-20.4696 q 0.2242,-6.1154 1.2966,-7.4799 1.1177,-1.4152 6.573,-1.4152 h 9.6134 q 4.3372,0 5.4104,-0.455 1.0729,-0.4547 1.5647,-2.7797 h 1.9229 q -0.2683,8.3898 -2.2803,10.2601 -1.9677,1.8697 -6.7967,1.8697 z" />
    <path
       style="font-style:normal;font-variant:normal;font-weight:normal;font-stretch:normal;font-size:medium;line-height:125%;font-family:'Bodoni MT';-inkscape-font-specification:'Bodoni MT, Normal';text-align:start;letter-spacing:0px;word-spacing:0px;writing-mode:lr-tb;text-anchor:start;fill:#ff3030;fill-opacity:1;stroke:none;stroke-width:1px;stroke-linecap:butt;stroke-linejoin:miter;stroke-opacity:1"
       inkscape:connector-curvature="0"
       id="path15678"
       d="m 2976.7807,2897.8705 0.7155,-18.9532 q -4.7399,1.6677 -9.2111,1.6677 -8.451,0 -14.0849,-5.6101 -5.6341,-5.5594 -5.6341,-13.9493 0,-8.8953 6.1259,-14.9606 6.1258,-6.0647 14.4872,-6.0647 6.8863,0 10.5526,3.9928 3.6666,3.9927 3.6666,9.1478 0,2.2744 -1.252,3.8918 -1.2522,1.6173 -3.443,1.6173 -1.7887,0 -2.9959,-1.415 -1.2071,-1.4153 -1.2071,-3.5379 0,-3.6392 2.8617,-5.0037 1.1624,-0.5561 1.1624,-1.1119 0,-1.4154 -2.3698,-3.0326 -2.4147,-1.6174 -6.0363,-1.6174 -11.6704,0 -11.6704,16.3251 0,18.5488 12.4751,18.5488 3.6219,0 5.6788,-1.2132 2.012,-1.1623 2.459,-1.1623 0.8945,0 0.8496,1.971 l -0.8496,20.4696 q -0.2242,6.1154 -1.2966,7.4799 -1.1177,1.4152 -6.573,1.4152 h -9.6134 q -4.3372,0 -5.4104,0.455 -1.0729,0.4547 -1.5647,2.7797 h -1.9229 q 0.2683,-8.3898 2.2803,-10.2601 1.9677,-1.8697 6.7967,-1.8697 z" />
    <path
       d="m 3444.9146,2897.8705 0.7155,-18.9532 q -4.7399,1.6677 -9.2111,1.6677 -8.451,0 -14.0849,-5.6101 -5.6341,-5.5594 -5.6341,-13.9493 0,-8.8953 6.1259,-14.9606 6.1258,-6.0647 14.4872,-6.0647 6.8863,0 10.5526,3.9928 3.6666,3.9927 3.6666,9.1478 0,2.2744 -1.252,3.8918 -1.2522,1.6173 -3.443,1.6173 -1.7887,0 -2.9959,-1.415 -1.2071,-1.4153 -1.2071,-3.5379 0,-3.6392 2.8617,-5.0037 1.1624,-0.5561 1.1624,-1.1119 0,-1.4154 -2.3698,-3.0326 -2.4147,-1.6174 -6.0363,-1.6174 -11.6704,0 -11.6704,16.3251 0,18.5488 12.4751,18.5488 3.6219,0 5.6788,-1.2132 2.012,-1.1623 2.459,-1.1623 0.8945,0 0.8496,1.971 l -0.8496,20.4696 q -0.2242,6.1154 -1.2966,7.4799 -1.1177,1.4152 -6.573,1.4152 h -9.6134 q -4.3372,0 -5.4104,0.455 -1.0729,0.4547 -1.5647,2.7797 h -1.9229 q 0.2683,-8.3898 2.2803,-10.2601 1.9677,-1.8697 6.7967,-1.8697 z"
       id="path15680"
       inkscape:connector-curvature="0"
       style="font-style:normal;font-variant:normal;font-weight:normal;font-stretch:normal;font-size:medium;line-height:125%;font-family:'Bodoni MT';-inkscape-font-specification:'Bodoni MT, Normal';text-align:start;letter-spacing:0px;word-spacing:0px;writing-mode:lr-tb;text-anchor:start;fill:#ff3030;fill-opacity:1;stroke:none;stroke-width:1px;stroke-linecap:butt;stroke-linejoin:miter;stroke-opacity:1" />
    <path
       inkscape:connector-curvature="0"
       id="path15995"
       d="m 2965.5359,2313.1085 c -1.4951,-4.9533 -5.1535,-11.7213 -10.2804,-19.0185 -1.1519,-1.6392 -3.9249,-6.7408 -3.9441,-7.2557 -0.01,-0.1673 -0.1821,-0.7323 -0.3908,-1.2555 -1.1867,-2.9717 -1.2311,-7.304 -0.104,-10.1164 1.2395,-3.0927 4.4666,-5.462 7.4395,-5.462 2.548,0 4.8784,1.625 6.1244,4.2702 0.3418,0.7255 0.7862,1.6668 0.9875,2.0919 0.4629,0.9774 0.8012,0.9774 1.2641,0 0.2012,-0.4251 0.6457,-1.3664 0.9875,-2.0919 1.246,-2.6452 3.5764,-4.2702 6.1244,-4.2702 2.9729,0 6.1999,2.3693 7.4395,5.462 1.127,2.8124 1.0827,7.1447 -0.104,10.1164 -0.2087,0.5232 -0.3848,1.0882 -0.3912,1.2555 -0.018,0.5149 -2.7919,5.6165 -3.9437,7.2557 -5.1269,7.2972 -8.7853,14.0652 -10.2804,19.0185 -0.1481,0.4905 -0.3571,0.8919 -0.4643,0.8919 -0.1069,0 -0.316,-0.4014 -0.464,-0.8919 z"
       style="fill:#ff3030;fill-opacity:1" />
    <path
       style="fill:#ff3030;fill-opacity:1"
       d="m 3433.5184,2313.1085 c -1.4951,-4.9533 -5.1535,-11.7213 -10.2804,-19.0185 -1.1519,-1.6392 -3.9249,-6.7408 -3.9441,-7.2557 -0.01,-0.1673 -0.1821,-0.7323 -0.3908,-1.2555 -1.1867,-2.9717 -1.2311,-7.304 -0.104,-10.1164 1.2395,-3.0927 4.4666,-5.462 7.4395,-5.462 2.548,0 4.8784,1.625 6.1244,4.2702 0.3418,0.7255 0.7862,1.6668 0.9875,2.0919 0.4629,0.9774 0.8012,0.9774 1.2641,0 0.2012,-0.4251 0.6457,-1.3664 0.9875,-2.0919 1.246,-2.6452 3.5764,-4.2702 6.1244,-4.2702 2.9729,0 6.1999,2.3693 7.4395,5.462 1.127,2.8124 1.0827,7.1447 -0.104,10.1164 -0.2087,0.5232 -0.3848,1.0882 -0.3912,1.2555 -0.018,0.5149 -2.7919,5.6165 -3.9437,7.2557 -5.1269,7.2972 -8.7853,14.0652 -10.2804,19.0185 -0.1481,0.4905 -0.3571,0.8919 -0.4643,0.8919 -0.1069,0 -0.316,-0.4014 -0.464,-0.8919 z"
       id="path15997"
       inkscape:connector-curvature="0" />
    <path
       style="fill:#ff3030;fill-opacity:1"
       d="m 2966.4641,2786.8924 c 1.4951,4.9533 5.1535,11.7213 10.2804,19.0185 1.1519,1.6392 3.9249,6.7408 3.9441,7.2557 0.01,0.1673 0.1821,0.7323 0.3908,1.2555 1.1867,2.9717 1.2311,7.304 0.104,10.1164 -1.2395,3.0927 -4.4666,5.462 -7.4395,5.462 -2.548,0 -4.8784,-1.625 -6.1244,-4.2702 -0.3418,-0.7255 -0.7862,-1.6668 -0.9875,-2.0919 -0.4629,-0.9774 -0.8012,-0.9774 -1.2641,0 -0.2012,0.4251 -0.6457,1.3664 -0.9875,2.0919 -1.246,2.6452 -3.5764,4.2702 -6.1244,4.2702 -2.9729,0 -6.1999,-2.3693 -7.4395,-5.462 -1.127,-2.8124 -1.0827,-7.1447 0.104,-10.1164 0.2087,-0.5232 0.3848,-1.0882 0.3912,-1.2555 0.018,-0.5149 2.7919,-5.6165 3.9437,-7.2557 5.1269,-7.2972 8.7853,-14.0652 10.2804,-19.0185 0.1481,-0.4905 0.3571,-0.8919 0.4643,-0.8919 0.1069,0 0.316,0.4014 0.464,0.8919 z"
       id="path16019"
       inkscape:connector-curvature="0" />
    <path
       inkscape:connector-curvature="0"
       id="path16021"
       d="m 3434.4641,2786.8924 c 1.4951,4.9533 5.1535,11.7213 10.2804,19.0185 1.1519,1.6392 3.9249,6.7408 3.9441,7.2557 0.01,0.1673 0.1821,0.7323 0.3908,1.2555 1.1867,2.9717 1.2311,7.304 0.104,10.1164 -1.2395,3.0927 -4.4666,5.462 -7.4395,5.462 -2.548,0 -4.8784,-1.625 -6.1244,-4.2702 -0.3418,-0.7255 -0.7862,-1.6668 -0.9875,-2.0919 -0.4629,-0.9774 -0.8012,-0.9774 -1.2641,0 -0.2012,0.4251 -0.6457,1.3664 -0.9875,2.0919 -1.246,2.6452 -3.5764,4.2702 -6.1244,4.2702 -2.9729,0 -6.1999,-2.3693 -7.4395,-5.462 -1.127,-2.8124 -1.0827,-7.1447 0.104,-10.1164 0.2087,-0.5232 0.3848,-1.0882 0.3912,-1.2555 0.018,-0.5149 2.7919,-5.6165 3.9437,-7.2557 5.1269,-7.2972 8.7853,-14.0652 10.2804,-19.0185 0.1481,-0.4905 0.3571,-0.8919 0.4643,-0.8919 0.1069,0 0.316,0.4014 0.464,0.8919 z"
       style="fill:#ff3030;fill-opacity:1" />
    <path
       inkscape:connector-curvature="0"
       id="path17455"
       d="m 3062.5496,2347.1627 c -4.6723,-15.7606 -16.1047,-37.2951 -32.1262,-60.5136 -3.5996,-5.2155 -12.2654,-21.448 -12.3253,-23.0861 -0.022,-0.5324 -0.5691,-2.3301 -1.2214,-3.995 -3.7083,-9.4553 -3.847,-23.2398 -0.325,-32.1885 3.8737,-9.8402 13.9582,-17.379 23.2486,-17.379 7.9625,0 15.245,5.1703 19.1386,13.5871 1.0682,2.3082 2.4571,5.3034 3.086,6.6561 1.4466,3.1099 2.5037,3.1099 3.9502,0 0.629,-1.3527 2.0178,-4.3479 3.0861,-6.6561 3.8936,-8.4168 11.1761,-13.5871 19.1386,-13.5871 9.2903,0 19.3749,7.5388 23.2486,17.379 3.522,8.9487 3.3833,22.7332 -0.3251,32.1885 -0.6522,1.6649 -1.2024,3.4626 -1.2224,3.995 -0.055,1.6381 -8.7246,17.8706 -12.3242,23.0861 -16.0215,23.2185 -27.4539,44.753 -32.1263,60.5136 -0.4625,1.5608 -1.1159,2.8378 -1.4509,2.8378 -0.3339,0 -0.9873,-1.277 -1.4499,-2.8378 z"
       style="fill:#ff3030;fill-opacity:1" />
    <path
       style="fill:#ff3030;fill-opacity:1"
       d="m 3334.5496,2347.1627 c -4.6723,-15.7606 -16.1047,-37.2951 -32.1262,-60.5136 -3.5996,-5.2155 -12.2654,-21.448 -12.3253,-23.0861 -0.022,-0.5324 -0.5691,-2.3301 -1.2214,-3.995 -3.7083,-9.4553 -3.847,-23.2398 -0.325,-32.1885 3.8737,-9.8402 13.9582,-17.379 23.2486,-17.379 7.9625,0 15.245,5.1703 19.1386,13.5871 1.0682,2.3082 2.4571,5.3034 3.086,6.6561 1.4466,3.1099 2.5037,3.1099 3.9502,0 0.629,-1.3527 2.0178,-4.3479 3.0861,-6.6561 3.8936,-8.4168 11.1761,-13.5871 19.1386,-13.5871 9.2903,0 19.3749,7.5388 23.2486,17.379 3.522,8.9487 3.3833,22.7332 -0.3251,32.1885 -0.6522,1.6649 -1.2024,3.4626 -1.2224,3.995 -0.055,1.6381 -8.7246,17.8706 -12.3242,23.0861 -16.0215,23.2185 -27.4539,44.753 -32.1263,60.5136 -0.4625,1.5608 -1.1159,2.8378 -1.4509,2.8378 -0.3339,0 -0.9873,-1.277 -1.4499,-2.8378 z"
       id="path17457"
       inkscape:connector-curvature="0" />
    <path
       style="fill:#ff3030;fill-opacity:1"
       d="m 3062.5496,2752.8383 c -4.6723,15.7606 -16.1047,37.2951 -32.1262,60.5136 -3.5996,5.2155 -12.2654,21.448 -12.3253,23.0861 -0.022,0.5324 -0.5691,2.3301 -1.2214,3.995 -3.7083,9.4553 -3.847,23.2398 -0.325,32.1885 3.8737,9.8402 13.9582,17.379 23.2486,17.379 7.9625,0 15.245,-5.1703 19.1386,-13.5871 1.0682,-2.3082 2.4571,-5.3034 3.086,-6.6561 1.4466,-3.1099 2.5037,-3.1099 3.9502,0 0.629,1.3527 2.0178,4.3479 3.0861,6.6561 3.8936,8.4168 11.1761,13.5871 19.1386,13.5871 9.2903,0 19.3749,-7.5388 23.2486,-17.379 3.522,-8.9487 3.3833,-22.7332 -0.3251,-32.1885 -0.6522,-1.6649 -1.2024,-3.4626 -1.2224,-3.995 -0.055,-1.6381 -8.7246,-17.8706 -12.3242,-23.0861 -16.0215,-23.2185 -27.4539,-44.753 -32.1263,-60.5136 -0.4625,-1.5608 -1.1159,-2.8378 -1.4509,-2.8378 -0.3339,0 -0.9873,1.277 -1.4499,2.8378 z"
       id="path17459"
       inkscape:connector-curvature="0" />
    <path
       inkscape:connector-curvature="0"
       id="path17461"
       d="m 3334.5496,2752.8383 c -4.6723,15.7606 -16.1047,37.2951 -32.1262,60.5136 -3.5996,5.2155 -12.2654,21.448 -12.3253,23.0861 -0.022,0.5324 -0.5691,2.3301 -1.2214,3.995 -3.7083,9.4553 -3.847,23.2398 -0.325,32.1885 3.8737,9.8402 13.9582,17.379 23.2486,17.379 7.9625,0 15.245,-5.1703 19.1386,-13.5871 1.0682,-2.3082 2.4571,-5.3034 3.086,-6.6561 1.4466,-3.1099 2.5037,-3.1099 3.9502,0 0.629,1.3527 2.0178,4.3479 3.0861,6.6561 3.8936,8.4168 11.1761,13.5871 19.1386,13.5871 9.2903,0 19.3749,-7.5388 23.2486,-17.379 3.522,-8.9487 3.3833,-22.7332 -0.3251,-32.1885 -0.6522,-1.6649 -1.2024,-3.4626 -1.2224,-3.995 -0.055,-1.6381 -8.7246,-17.8706 -12.3242,-23.0861 -16.0215,-23.2185 -27.4539,-44.753 -32.1263,-60.5136 -0.4625,-1.5608 -1.1159,-2.8378 -1.4509,-2.8378 -0.3339,0 -0.9873,1.277 -1.4499,2.8378 z"
       style="fill:#ff3030;fill-opacity:1" />
    <path
       style="fill:#ff3030;fill-opacity:1"
       d="m 3198.5495,2617.1627 c -4.6723,-15.7606 -16.1047,-37.2951 -32.1262,-60.5136 -3.5996,-5.2155 -12.2654,-21.448 -12.3253,-23.0861 -0.022,-0.5324 -0.5691,-2.3301 -1.2214,-3.995 -3.7083,-9.4553 -3.847,-23.2398 -0.325,-32.1885 3.8737,-9.8402 13.9582,-17.379 23.2486,-17.379 7.9625,0 15.245,5.1703 19.1386,13.5871 1.0682,2.3082 2.4571,5.3034 3.086,6.6561 1.4466,3.1099 2.5037,3.1099 3.9502,0 0.629,-1.3527 2.0178,-4.3479 3.0861,-6.6561 3.8936,-8.4168 11.1761,-13.5871 19.1386,-13.5871 9.2903,0 19.3749,7.5388 23.2486,17.379 3.522,8.9487 3.3833,22.7332 -0.3251,32.1885 -0.6522,1.6649 -1.2024,3.4626 -1.2224,3.995 -0.055,1.6381 -8.7246,17.8706 -12.3242,23.0861 -16.0215,23.2185 -27.4539,44.753 -32.1263,60.5136 -0.4625,1.5608 -1.1159,2.8378 -1.4509,2.8378 -0.3339,0 -0.9873,-1.277 -1.4499,-2.8378 z"
       id="path17467"
       inkscape:connector-curvature="0" />
  </g>
</svg>
