<?xml version="1.0" encoding="UTF-8" standalone="no"?>
<!-- Created with Inkscape (http://www.inkscape.org/) -->

<svg
   id="svg10047"
   height="122.99944"
   width="79.000114"
   version="1.1"
   viewBox="0 0 79.000114 122.99944"
   inkscape:version="0.91 r13725"
   sodipodi:docname="salon-karte-66.svgz"
   xmlns:inkscape="http://www.inkscape.org/namespaces/inkscape"
   xmlns:sodipodi="http://sodipodi.sourceforge.net/DTD/sodipodi-0.dtd"
   xmlns:xlink="http://www.w3.org/1999/xlink"
   xmlns="http://www.w3.org/2000/svg"
   xmlns:svg="http://www.w3.org/2000/svg"
   xmlns:rdf="http://www.w3.org/1999/02/22-rdf-syntax-ns#"
   xmlns:cc="http://creativecommons.org/ns#"
   xmlns:dc="http://purl.org/dc/elements/1.1/">
  <sodipodi:namedview
     pagecolor="#ffffff"
     bordercolor="#666666"
     borderopacity="1"
     objecttolerance="10"
     gridtolerance="10"
     guidetolerance="10"
     inkscape:pageopacity="0"
     inkscape:pageshadow="2"
     inkscape:window-width="1920"
     inkscape:window-height="1016"
     id="namedview1491"
     showgrid="false"
     inkscape:zoom="1.3479675"
     inkscape:cx="513.5"
     inkscape:cy="307.5"
     inkscape:window-x="0"
     inkscape:window-y="0"
     inkscape:window-maximized="1"
     inkscape:current-layer="svg10047"
     showguides="true"
     inkscape:guide-bbox="true"
     inkscape:snap-grids="true"
     inkscape:showpageshadow="2"
     inkscape:pagecheckerboard="0"
     inkscape:deskcolor="#d1d1d1" />
  <metadata
     id="metadata16869">
    <rdf:RDF>
      <cc:Work
         rdf:about="">
        <dc:format>image/svg+xml</dc:format>
        <dc:type
           rdf:resource="http://purl.org/dc/dcmitype/StillImage" />
        <dc:title />
      </cc:Work>
    </rdf:RDF>
  </metadata>
  <defs
     id="defs10049">
    <linearGradient
       id="linearGradient17425"
       inkscape:swatch="solid">
      <stop
         style="stop-color:#000000;stop-opacity:1;"
         offset="0"
         id="stop17427" />
    </linearGradient>
    <linearGradient
       inkscape:collect="always"
       xlink:href="#linearGradient17425"
       id="linearGradient15197"
       gradientUnits="userSpaceOnUse"
       gradientTransform="matrix(0.91728841,0,0,0.94849571,-2888.4261,79.232197)"
       x1="7117.6006"
       y1="1550.6322"
       x2="7683.4717"
       y2="1550.6322" />
  </defs>
  <g
     transform="matrix(0.13169305,0,0,0.13666723,-474.09498,-150.33494)"
     id="spade_6"
     inkscape:label="#spade_6">
    <rect
       style="fill:#ffffff;stroke:#000000;stroke-width:1.66649"
       id="rect14929"
       y="1100.8405"
       x="3600.8333"
       ry="49.906242"
       rx="49.896725"
       height="898.32574"
       width="598.21417" />
    <rect
       ry="23.720173"
       y="1140.4667"
       x="3640.4661"
       height="819.06726"
       width="519.06726"
       id="rect14931"
       style="fill:#000000;fill-opacity:0;stroke:url(#linearGradient15197);stroke-width:0.932762;stroke-linecap:square;stroke-linejoin:bevel;stroke-miterlimit:4;stroke-dasharray:none" />
    <path
       inkscape:connector-curvature="0"
       id="path14935"
       d="m 3655.8378,1956.605 c -1.2891,-0.4713 -3.9926,-2.3494 -6.0078,-4.1736 -8.6098,-7.7936 -8.0552,19.9674 -8.0489,-402.8485 0.01,-387.493 0.035,-391.1401 3.1108,-396.1856 1.7077,-2.8009 5.3964,-6.4896 8.1973,-8.1973 5.0235,-3.0629 8.3657,-3.1049 247.2799,-3.1049 240.1146,0 242.2317,0.027 247.3564,3.1514 2.9845,1.8196 6.4368,5.9443 8.1689,9.7598 2.9323,6.4597 2.9998,15.3448 2.9998,394.8896 0,379.5449 -0.068,388.43 -2.9998,394.8896 -1.7321,3.8155 -5.1844,7.9403 -8.1689,9.7598 -5.1269,3.1258 -7.1372,3.1505 -247.3564,3.0339 -133.2032,-0.065 -243.2422,-0.503 -244.5313,-0.9742 z"
       style="fill:#fbf6e3;fill-opacity:1" />
    <path
       style="font-style:normal;font-variant:normal;font-weight:normal;font-stretch:normal;font-size:medium;line-height:125%;font-family:'Bodoni MT';-inkscape-font-specification:'Bodoni MT, Normal';text-align:start;letter-spacing:0px;word-spacing:0px;writing-mode:lr-tb;text-anchor:start;fill:#000000;fill-opacity:1;stroke:none;stroke-width:1px;stroke-linecap:butt;stroke-linejoin:miter;stroke-opacity:1"
       inkscape:connector-curvature="0"
       id="path15123"
       d="m 3680.2777,1190.0006 v 3.1337 q -20.3892,2.8302 -22.7147,27.0901 l 0.1782,0.2017 q 4.1135,-5.3572 9.7924,-5.3572 6.8859,0 11.8493,6.4693 5.0078,6.4188 5.0078,14.9603 0,9.1987 -5.4104,16.3755 -5.3655,7.1263 -12.8328,7.1263 -8.1378,0 -13.5036,-8.1371 -5.3656,-8.1878 -5.3656,-20.5704 0,-16.426 9.3005,-27.8989 9.3451,-11.5234 23.6983,-13.3936 z m -23.2065,34.8737 -0.2682,8.9456 q 0,18.4985 3.3088,21.1265 3.3088,2.5777 6.0363,2.5777 4.2034,0 6.4389,-3.993 2.2803,-4.0433 2.2803,-16.4261 0,-13.09 -2.1012,-16.3245 -2.0572,-3.2347 -5.8576,-3.2347 -5.2763,0 -9.8373,7.3285 z" />
    <path
       d="m 4148.2774,1190.0006 v 3.1337 q -20.3892,2.8302 -22.7147,27.0901 l 0.1782,0.2017 q 4.1135,-5.3572 9.7924,-5.3572 6.8859,0 11.8493,6.4693 5.0078,6.4188 5.0078,14.9603 0,9.1987 -5.4104,16.3755 -5.3655,7.1263 -12.8328,7.1263 -8.1378,0 -13.5036,-8.1371 -5.3656,-8.1878 -5.3656,-20.5704 0,-16.426 9.3005,-27.8989 9.3451,-11.5234 23.6983,-13.3936 z m -23.2065,34.8737 -0.2682,8.9456 q 0,18.4985 3.3088,21.1265 3.3088,2.5777 6.0363,2.5777 4.2034,0 6.4389,-3.993 2.2803,-4.0433 2.2803,-16.4261 0,-13.09 -2.1012,-16.3245 -2.0572,-3.2347 -5.8576,-3.2347 -5.2763,0 -9.8373,7.3285 z"
       id="path15125"
       inkscape:connector-curvature="0"
       style="font-style:normal;font-variant:normal;font-weight:normal;font-stretch:normal;font-size:medium;line-height:125%;font-family:'Bodoni MT';-inkscape-font-specification:'Bodoni MT, Normal';text-align:start;letter-spacing:0px;word-spacing:0px;writing-mode:lr-tb;text-anchor:start;fill:#000000;fill-opacity:1;stroke:none;stroke-width:1px;stroke-linecap:butt;stroke-linejoin:miter;stroke-opacity:1" />
    <path
       d="m 3651.3913,1910 v -3.1337 q 20.3892,-2.8302 22.7147,-27.0901 l -0.1782,-0.2017 q -4.1135,5.3572 -9.7924,5.3572 -6.8859,0 -11.8493,-6.4693 -5.0078,-6.4188 -5.0078,-14.9603 0,-9.1987 5.4104,-16.3755 5.3655,-7.1263 12.8328,-7.1263 8.1378,0 13.5036,8.1371 5.3656,8.1878 5.3656,20.5704 0,16.426 -9.3005,27.8989 -9.3451,11.5234 -23.6983,13.3936 z m 23.2065,-34.8737 0.2682,-8.9456 q 0,-18.4985 -3.3088,-21.1265 -3.3088,-2.5777 -6.0363,-2.5777 -4.2034,0 -6.4389,3.993 -2.2803,4.0433 -2.2803,16.4261 0,13.09 2.1012,16.3245 2.0572,3.2347 5.8576,3.2347 5.2763,0 9.8373,-7.3285 z"
       id="path15127"
       inkscape:connector-curvature="0"
       style="font-style:normal;font-variant:normal;font-weight:normal;font-stretch:normal;font-size:medium;line-height:125%;font-family:'Bodoni MT';-inkscape-font-specification:'Bodoni MT, Normal';text-align:start;letter-spacing:0px;word-spacing:0px;writing-mode:lr-tb;text-anchor:start;fill:#000000;fill-opacity:1;stroke:none;stroke-width:1px;stroke-linecap:butt;stroke-linejoin:miter;stroke-opacity:1" />
    <path
       style="font-style:normal;font-variant:normal;font-weight:normal;font-stretch:normal;font-size:medium;line-height:125%;font-family:'Bodoni MT';-inkscape-font-specification:'Bodoni MT, Normal';text-align:start;letter-spacing:0px;word-spacing:0px;writing-mode:lr-tb;text-anchor:start;fill:#000000;fill-opacity:1;stroke:none;stroke-width:1px;stroke-linecap:butt;stroke-linejoin:miter;stroke-opacity:1"
       inkscape:connector-curvature="0"
       id="path15129"
       d="m 4119.391,1910 v -3.1337 q 20.3892,-2.8302 22.7147,-27.0901 l -0.1782,-0.2017 q -4.1135,5.3572 -9.7924,5.3572 -6.8859,0 -11.8493,-6.4693 -5.0078,-6.4188 -5.0078,-14.9603 0,-9.1987 5.4104,-16.3755 5.3655,-7.1263 12.8328,-7.1263 8.1378,0 13.5036,8.1371 5.3656,8.1878 5.3656,20.5704 0,16.426 -9.3005,27.8989 -9.3451,11.5234 -23.6983,13.3936 z m 23.2065,-34.8737 0.2682,-8.9456 q 0,-18.4985 -3.3088,-21.1265 -3.3088,-2.5777 -6.0363,-2.5777 -4.2034,0 -6.4389,3.993 -2.2803,4.0433 -2.2803,16.4261 0,13.09 2.1012,16.3245 2.0572,3.2347 5.8576,3.2347 5.2763,0 9.8373,-7.3285 z" />
    <path
       inkscape:connector-curvature="0"
       id="path15368"
       d="m 3754.2113,1348.5266 c 0.24,-0.9783 1.811,-5.7726 3.491,-10.6542 2.948,-8.5621 3.071,-9.2958 3.49,-20.7781 0.424,-11.6485 0.104,-15.8335 -1.209,-15.8335 -0.856,0 -3.337,4.2247 -4.44,7.5614 -1.491,4.5113 -5.24,9.3784 -8.857,11.4998 -3.008,1.7643 -4.188,2.0108 -9.372,1.9591 -5.122,-0.052 -6.555,-0.3772 -10.521,-2.3934 -5.653,-2.874 -9.295,-7.3706 -11.351,-14.0104 -4.4579,-14.4028 1.265,-28.8001 19.309,-48.5629 2.259,-2.4744 5.569,-6.4959 7.358,-8.9367 1.788,-2.4408 4.125,-5.6028 5.194,-7.0266 4.504,-5.9962 13.387,-23.174 14.428,-27.9 1.028,-4.6712 3.375,-4.5846 4.551,0.169 1.221,4.9338 10.054,21.9274 14.413,27.7318 1.071,1.4238 3.408,4.5858 5.197,7.0266 1.786,2.4408 5.098,6.4624 7.357,8.9367 18.042,19.7628 23.7677,34.1602 19.307,48.5629 -2.054,6.6398 -5.698,11.1365 -11.351,14.0104 -3.964,2.0162 -5.397,2.342 -10.52,2.3934 -5.184,0.052 -6.362,-0.1941 -9.37,-1.959 -3.617,-2.1214 -7.366,-6.9886 -8.858,-11.4999 -1.104,-3.3367 -3.583,-7.5613 -4.439,-7.5613 -1.314,0 -1.634,4.185 -1.209,15.8334 0.418,11.4824 0.542,12.2161 3.489,20.7781 4.316,12.5375 4.318,12.554 2.149,11.8858 -7.46,-2.2974 -9.613,-2.2988 -16.895,-0.021 -1.599,0.5022 -1.732,0.3799 -1.341,-1.2205 z"
       style="fill:#000000;fill-opacity:1" />
    <path
       style="fill:#000000;fill-opacity:1"
       d="m 4026.2113,1348.5266 c 0.24,-0.9783 1.811,-5.7726 3.491,-10.6542 2.948,-8.5621 3.071,-9.2958 3.49,-20.7781 0.424,-11.6485 0.104,-15.8335 -1.209,-15.8335 -0.856,0 -3.337,4.2247 -4.44,7.5614 -1.491,4.5113 -5.24,9.3784 -8.857,11.4998 -3.008,1.7643 -4.188,2.0108 -9.372,1.9591 -5.122,-0.052 -6.555,-0.3772 -10.521,-2.3934 -5.653,-2.874 -9.295,-7.3706 -11.351,-14.0104 -4.4579,-14.4028 1.265,-28.8001 19.309,-48.5629 2.259,-2.4744 5.569,-6.4959 7.358,-8.9367 1.788,-2.4408 4.125,-5.6028 5.194,-7.0266 4.504,-5.9962 13.387,-23.174 14.428,-27.9 1.028,-4.6712 3.375,-4.5846 4.551,0.169 1.221,4.9338 10.054,21.9274 14.413,27.7318 1.071,1.4238 3.408,4.5858 5.197,7.0266 1.786,2.4408 5.098,6.4624 7.357,8.9367 18.042,19.7628 23.7677,34.1602 19.307,48.5629 -2.054,6.6398 -5.698,11.1365 -11.351,14.0104 -3.964,2.0162 -5.397,2.342 -10.52,2.3934 -5.184,0.052 -6.362,-0.1941 -9.37,-1.959 -3.617,-2.1214 -7.366,-6.9886 -8.858,-11.4999 -1.104,-3.3367 -3.583,-7.5613 -4.439,-7.5613 -1.314,0 -1.634,4.185 -1.209,15.8334 0.418,11.4824 0.542,12.2161 3.489,20.7781 4.316,12.5375 4.318,12.554 2.149,11.8858 -7.46,-2.2974 -9.613,-2.2988 -16.895,-0.021 -1.599,0.5022 -1.732,0.3799 -1.341,-1.2205 z"
       id="path15370"
       inkscape:connector-curvature="0" />
    <path
       style="fill:#000000;fill-opacity:1"
       d="m 3754.2113,1618.5266 c 0.24,-0.9783 1.811,-5.7726 3.491,-10.6542 2.948,-8.5621 3.071,-9.2958 3.49,-20.7781 0.424,-11.6485 0.104,-15.8335 -1.209,-15.8335 -0.856,0 -3.337,4.2247 -4.44,7.5614 -1.491,4.5113 -5.24,9.3784 -8.857,11.4998 -3.008,1.7643 -4.188,2.0108 -9.372,1.9591 -5.122,-0.052 -6.555,-0.3772 -10.521,-2.3934 -5.653,-2.874 -9.295,-7.3706 -11.351,-14.0104 -4.4579,-14.4028 1.265,-28.8001 19.309,-48.5629 2.259,-2.4744 5.569,-6.4959 7.358,-8.9367 1.788,-2.4408 4.125,-5.6028 5.194,-7.0266 4.504,-5.9962 13.387,-23.174 14.428,-27.9 1.028,-4.6712 3.375,-4.5846 4.551,0.169 1.221,4.9338 10.054,21.9274 14.413,27.7318 1.071,1.4238 3.408,4.5858 5.197,7.0266 1.786,2.4408 5.098,6.4624 7.357,8.9367 18.042,19.7628 23.7677,34.1602 19.307,48.5629 -2.054,6.6398 -5.698,11.1365 -11.351,14.0104 -3.964,2.0162 -5.397,2.342 -10.52,2.3934 -5.184,0.052 -6.362,-0.1941 -9.37,-1.959 -3.617,-2.1214 -7.366,-6.9886 -8.858,-11.4999 -1.104,-3.3367 -3.583,-7.5613 -4.439,-7.5613 -1.314,0 -1.634,4.185 -1.209,15.8334 0.418,11.4824 0.542,12.2161 3.489,20.7781 4.316,12.5375 4.318,12.554 2.149,11.8858 -7.46,-2.2974 -9.613,-2.2988 -16.895,-0.021 -1.599,0.5022 -1.732,0.3799 -1.341,-1.2205 z"
       id="path15372"
       inkscape:connector-curvature="0" />
    <path
       inkscape:connector-curvature="0"
       id="path15374"
       d="m 4026.2113,1618.5266 c 0.24,-0.9783 1.811,-5.7726 3.491,-10.6542 2.948,-8.5621 3.071,-9.2958 3.49,-20.7781 0.424,-11.6485 0.104,-15.8335 -1.209,-15.8335 -0.856,0 -3.337,4.2247 -4.44,7.5614 -1.491,4.5113 -5.24,9.3784 -8.857,11.4998 -3.008,1.7643 -4.188,2.0108 -9.372,1.9591 -5.122,-0.052 -6.555,-0.3772 -10.521,-2.3934 -5.653,-2.874 -9.295,-7.3706 -11.351,-14.0104 -4.4579,-14.4028 1.265,-28.8001 19.309,-48.5629 2.259,-2.4744 5.569,-6.4959 7.358,-8.9367 1.788,-2.4408 4.125,-5.6028 5.194,-7.0266 4.504,-5.9962 13.387,-23.174 14.428,-27.9 1.028,-4.6712 3.375,-4.5846 4.551,0.169 1.221,4.9338 10.054,21.9274 14.413,27.7318 1.071,1.4238 3.408,4.5858 5.197,7.0266 1.786,2.4408 5.098,6.4624 7.357,8.9367 18.042,19.7628 23.7677,34.1602 19.307,48.5629 -2.054,6.6398 -5.698,11.1365 -11.351,14.0104 -3.964,2.0162 -5.397,2.342 -10.52,2.3934 -5.184,0.052 -6.362,-0.1941 -9.37,-1.959 -3.617,-2.1214 -7.366,-6.9886 -8.858,-11.4999 -1.104,-3.3367 -3.583,-7.5613 -4.439,-7.5613 -1.314,0 -1.634,4.185 -1.209,15.8334 0.418,11.4824 0.542,12.2161 3.489,20.7781 4.316,12.5375 4.318,12.554 2.149,11.8858 -7.46,-2.2974 -9.613,-2.2988 -16.895,-0.021 -1.599,0.5022 -1.732,0.3799 -1.341,-1.2205 z"
       style="fill:#000000;fill-opacity:1" />
    <path
       style="fill:#000000;fill-opacity:1"
       d="m 3754.2113,1751.4745 c 0.24,0.9783 1.811,5.7726 3.491,10.6542 2.948,8.5621 3.071,9.2958 3.49,20.7781 0.424,11.6485 0.104,15.8335 -1.209,15.8335 -0.856,0 -3.337,-4.2247 -4.44,-7.5614 -1.491,-4.5113 -5.24,-9.3784 -8.857,-11.4998 -3.008,-1.7643 -4.188,-2.0108 -9.372,-1.9591 -5.122,0.052 -6.555,0.3772 -10.521,2.3934 -5.653,2.874 -9.295,7.3706 -11.351,14.0104 -4.4579,14.4028 1.265,28.8001 19.309,48.5629 2.259,2.4744 5.569,6.4959 7.358,8.9367 1.788,2.4408 4.125,5.6028 5.194,7.0266 4.504,5.9962 13.387,23.174 14.428,27.9 1.028,4.6712 3.375,4.5846 4.551,-0.169 1.221,-4.9338 10.054,-21.9274 14.413,-27.7318 1.071,-1.4238 3.408,-4.5858 5.197,-7.0266 1.786,-2.4408 5.098,-6.4624 7.357,-8.9367 18.042,-19.7628 23.7677,-34.1602 19.307,-48.5629 -2.054,-6.6398 -5.698,-11.1365 -11.351,-14.0104 -3.964,-2.0162 -5.397,-2.342 -10.52,-2.3934 -5.184,-0.052 -6.362,0.1941 -9.37,1.959 -3.617,2.1214 -7.366,6.9886 -8.858,11.4999 -1.104,3.3367 -3.583,7.5613 -4.439,7.5613 -1.314,0 -1.634,-4.185 -1.209,-15.8334 0.418,-11.4824 0.542,-12.2161 3.489,-20.7781 4.316,-12.5375 4.318,-12.554 2.149,-11.8858 -7.46,2.2974 -9.613,2.2988 -16.895,0.021 -1.599,-0.5022 -1.732,-0.3799 -1.341,1.2205 z"
       id="path15376"
       inkscape:connector-curvature="0" />
    <path
       inkscape:connector-curvature="0"
       id="path15378"
       d="m 4026.2113,1751.4745 c 0.24,0.9783 1.811,5.7726 3.491,10.6542 2.948,8.5621 3.071,9.2958 3.49,20.7781 0.424,11.6485 0.104,15.8335 -1.209,15.8335 -0.856,0 -3.337,-4.2247 -4.44,-7.5614 -1.491,-4.5113 -5.24,-9.3784 -8.857,-11.4998 -3.008,-1.7643 -4.188,-2.0108 -9.372,-1.9591 -5.122,0.052 -6.555,0.3772 -10.521,2.3934 -5.653,2.874 -9.295,7.3706 -11.351,14.0104 -4.4579,14.4028 1.265,28.8001 19.309,48.5629 2.259,2.4744 5.569,6.4959 7.358,8.9367 1.788,2.4408 4.125,5.6028 5.194,7.0266 4.504,5.9962 13.387,23.174 14.428,27.9 1.028,4.6712 3.375,4.5846 4.551,-0.169 1.221,-4.9338 10.054,-21.9274 14.413,-27.7318 1.071,-1.4238 3.408,-4.5858 5.197,-7.0266 1.786,-2.4408 5.098,-6.4624 7.357,-8.9367 18.042,-19.7628 23.7677,-34.1602 19.307,-48.5629 -2.054,-6.6398 -5.698,-11.1365 -11.351,-14.0104 -3.964,-2.0162 -5.397,-2.342 -10.52,-2.3934 -5.184,-0.052 -6.362,0.1941 -9.37,1.959 -3.617,2.1214 -7.366,6.9886 -8.858,11.4999 -1.104,3.3367 -3.583,7.5613 -4.439,7.5613 -1.314,0 -1.634,-4.185 -1.209,-15.8334 0.418,-11.4824 0.542,-12.2161 3.489,-20.7781 4.316,-12.5375 4.318,-12.554 2.149,-11.8858 -7.46,2.2974 -9.613,2.2988 -16.895,0.021 -1.599,-0.5022 -1.732,-0.3799 -1.341,1.2205 z"
       style="fill:#000000;fill-opacity:1" />
    <path
       inkscape:connector-curvature="0"
       id="path15394"
       d="m 3662.8678,1313.5435 c 0.075,-0.307 0.5794,-1.814 1.1169,-3.349 0.9434,-2.691 0.9827,-2.921 1.1169,-6.531 0.1357,-3.661 0.033,-4.977 -0.387,-4.977 -0.2738,0 -1.0678,1.328 -1.4208,2.377 -0.477,1.418 -1.6767,2.948 -2.8341,3.615 -0.9627,0.554 -1.3402,0.632 -2.999,0.616 -1.6392,-0.02 -2.0977,-0.119 -3.3669,-0.753 -1.8089,-0.903 -2.9743,-2.316 -3.6322,-4.404 -1.4266,-4.527 0.4048,-9.052 6.1788,-15.264 0.723,-0.778 1.7821,-2.042 2.3547,-2.809 0.5722,-0.767 1.3198,-1.761 1.662,-2.209 1.4413,-1.884 4.2838,-7.284 4.617,-8.769 0.329,-1.469 1.0799,-1.441 1.4562,0.05 0.3908,1.55 3.2173,6.892 4.6122,8.716 0.3427,0.448 1.0906,1.442 1.6632,2.209 0.5714,0.767 1.6312,2.031 2.3541,2.809 5.7736,6.212 7.6058,10.738 6.1783,15.265 -0.6573,2.087 -1.8233,3.5 -3.6324,4.404 -1.2683,0.633 -1.7271,0.736 -3.3663,0.752 -1.6588,0.02 -2.0358,-0.06 -2.9984,-0.616 -1.1574,-0.667 -2.3572,-2.197 -2.8347,-3.615 -0.3532,-1.049 -1.1464,-2.376 -1.4204,-2.376 -0.4204,0 -0.5228,1.315 -0.3868,4.976 0.1338,3.61 0.1734,3.84 1.1165,6.531 1.381,3.941 1.3816,3.947 0.6877,3.737 -2.3874,-0.723 -3.0763,-0.723 -5.4065,-0.01 -0.5117,0.157 -0.5542,0.119 -0.429,-0.384 z"
       style="fill:#000000;fill-opacity:1" />
    <path
       inkscape:connector-curvature="0"
       id="path15396"
       d="m 3669.1322,1786.5789 c -0.075,0.307 -0.5794,1.814 -1.1169,3.349 -0.9434,2.691 -0.9827,2.921 -1.1169,6.531 -0.1357,3.661 -0.033,4.977 0.387,4.977 0.2738,0 1.0678,-1.328 1.4208,-2.377 0.477,-1.418 1.6767,-2.948 2.8341,-3.615 0.9627,-0.554 1.3402,-0.632 2.999,-0.616 1.6392,0.02 2.0977,0.119 3.3669,0.753 1.8089,0.903 2.9743,2.316 3.6322,4.404 1.4266,4.527 -0.4048,9.052 -6.1788,15.264 -0.723,0.778 -1.7821,2.042 -2.3547,2.809 -0.5722,0.767 -1.3198,1.761 -1.662,2.209 -1.4413,1.884 -4.2838,7.284 -4.617,8.769 -0.329,1.469 -1.0799,1.441 -1.4562,-0.05 -0.3908,-1.55 -3.2173,-6.892 -4.6122,-8.716 -0.3427,-0.448 -1.0906,-1.442 -1.6632,-2.209 -0.5714,-0.767 -1.6312,-2.031 -2.3541,-2.809 -5.7736,-6.212 -7.6058,-10.738 -6.1783,-15.265 0.6573,-2.087 1.8233,-3.5 3.6324,-4.404 1.2683,-0.633 1.7271,-0.736 3.3663,-0.752 1.6588,-0.02 2.0358,0.06 2.9984,0.616 1.1574,0.667 2.3572,2.197 2.8347,3.615 0.3532,1.049 1.1464,2.376 1.4204,2.376 0.4204,0 0.5228,-1.315 0.3868,-4.976 -0.1338,-3.61 -0.1734,-3.84 -1.1165,-6.531 -1.381,-3.941 -1.3816,-3.947 -0.6877,-3.737 2.3874,0.723 3.0763,0.723 5.4065,0.01 0.5117,-0.157 0.5542,-0.119 0.429,0.384 z"
       style="fill:#000000;fill-opacity:1" />
    <path
       style="fill:#000000;fill-opacity:1"
       d="m 4130.8678,1313.5435 c 0.075,-0.307 0.5794,-1.814 1.1169,-3.349 0.9434,-2.691 0.9827,-2.921 1.1169,-6.531 0.1357,-3.661 0.033,-4.977 -0.387,-4.977 -0.2738,0 -1.0678,1.328 -1.4208,2.377 -0.477,1.418 -1.6767,2.948 -2.8341,3.615 -0.9627,0.554 -1.3402,0.632 -2.999,0.616 -1.6392,-0.02 -2.0977,-0.119 -3.3669,-0.753 -1.8089,-0.903 -2.9743,-2.316 -3.6322,-4.404 -1.4266,-4.527 0.4048,-9.052 6.1788,-15.264 0.723,-0.778 1.7821,-2.042 2.3547,-2.809 0.5722,-0.767 1.3198,-1.761 1.662,-2.209 1.4413,-1.884 4.2838,-7.284 4.617,-8.769 0.329,-1.469 1.0799,-1.441 1.4562,0.05 0.3908,1.55 3.2173,6.892 4.6122,8.716 0.3427,0.448 1.0906,1.442 1.6632,2.209 0.5714,0.767 1.6312,2.031 2.3541,2.809 5.7736,6.212 7.6058,10.738 6.1783,15.265 -0.6573,2.087 -1.8233,3.5 -3.6324,4.404 -1.2683,0.633 -1.7271,0.736 -3.3663,0.752 -1.6588,0.02 -2.0358,-0.06 -2.9984,-0.616 -1.1574,-0.667 -2.3572,-2.197 -2.8347,-3.615 -0.3532,-1.049 -1.1464,-2.376 -1.4204,-2.376 -0.4204,0 -0.5228,1.315 -0.3868,4.976 0.1338,3.61 0.1734,3.84 1.1165,6.531 1.381,3.941 1.3816,3.947 0.6877,3.737 -2.3874,-0.723 -3.0763,-0.723 -5.4065,-0.01 -0.5117,0.157 -0.5542,0.119 -0.429,-0.384 z"
       id="path15398"
       inkscape:connector-curvature="0" />
    <path
       style="fill:#000000;fill-opacity:1"
       d="m 4137.1322,1786.5789 c -0.075,0.307 -0.5794,1.814 -1.1169,3.349 -0.9434,2.691 -0.9827,2.921 -1.1169,6.531 -0.1357,3.661 -0.033,4.977 0.387,4.977 0.2738,0 1.0678,-1.328 1.4208,-2.377 0.477,-1.418 1.6767,-2.948 2.8341,-3.615 0.9627,-0.554 1.3402,-0.632 2.999,-0.616 1.6392,0.02 2.0977,0.119 3.3669,0.753 1.8089,0.903 2.9743,2.316 3.6322,4.404 1.4266,4.527 -0.4048,9.052 -6.1788,15.264 -0.723,0.778 -1.7821,2.042 -2.3547,2.809 -0.5722,0.767 -1.3198,1.761 -1.662,2.209 -1.4413,1.884 -4.2838,7.284 -4.617,8.769 -0.329,1.469 -1.0799,1.441 -1.4562,-0.05 -0.3908,-1.55 -3.2173,-6.892 -4.6122,-8.716 -0.3427,-0.448 -1.0906,-1.442 -1.6632,-2.209 -0.5714,-0.767 -1.6312,-2.031 -2.3541,-2.809 -5.7736,-6.212 -7.6058,-10.738 -6.1783,-15.265 0.6573,-2.087 1.8233,-3.5 3.6324,-4.404 1.2683,-0.633 1.7271,-0.736 3.3663,-0.752 1.6588,-0.02 2.0358,0.06 2.9984,0.616 1.1574,0.667 2.3572,2.197 2.8347,3.615 0.3532,1.049 1.1464,2.376 1.4204,2.376 0.4204,0 0.5228,-1.315 0.3868,-4.976 -0.1338,-3.61 -0.1734,-3.84 -1.1165,-6.531 -1.381,-3.941 -1.3816,-3.947 -0.6877,-3.737 2.3874,0.723 3.0763,0.723 5.4065,0.01 0.5117,-0.157 0.5542,-0.119 0.429,0.384 z"
       id="path15400"
       inkscape:connector-curvature="0" />
  </g>
</svg>
