<?xml version="1.0" encoding="UTF-8" standalone="no"?>
<!-- Created with Inkscape (http://www.inkscape.org/) -->

<svg
   id="svg10047"
   height="122.99944"
   width="79.000114"
   version="1.1"
   viewBox="0 0 79.000114 122.99944"
   inkscape:version="0.91 r13725"
   sodipodi:docname="salon-karte-66.svgz"
   xmlns:inkscape="http://www.inkscape.org/namespaces/inkscape"
   xmlns:sodipodi="http://sodipodi.sourceforge.net/DTD/sodipodi-0.dtd"
   xmlns:xlink="http://www.w3.org/1999/xlink"
   xmlns="http://www.w3.org/2000/svg"
   xmlns:svg="http://www.w3.org/2000/svg"
   xmlns:rdf="http://www.w3.org/1999/02/22-rdf-syntax-ns#"
   xmlns:cc="http://creativecommons.org/ns#"
   xmlns:dc="http://purl.org/dc/elements/1.1/">
  <sodipodi:namedview
     pagecolor="#ffffff"
     bordercolor="#666666"
     borderopacity="1"
     objecttolerance="10"
     gridtolerance="10"
     guidetolerance="10"
     inkscape:pageopacity="0"
     inkscape:pageshadow="2"
     inkscape:window-width="1920"
     inkscape:window-height="1016"
     id="namedview1491"
     showgrid="false"
     inkscape:zoom="1.3479675"
     inkscape:cx="513.5"
     inkscape:cy="307.5"
     inkscape:window-x="0"
     inkscape:window-y="0"
     inkscape:window-maximized="1"
     inkscape:current-layer="svg10047"
     showguides="true"
     inkscape:guide-bbox="true"
     inkscape:snap-grids="true"
     inkscape:showpageshadow="2"
     inkscape:pagecheckerboard="0"
     inkscape:deskcolor="#d1d1d1" />
  <metadata
     id="metadata16869">
    <rdf:RDF>
      <cc:Work
         rdf:about="">
        <dc:format>image/svg+xml</dc:format>
        <dc:type
           rdf:resource="http://purl.org/dc/dcmitype/StillImage" />
        <dc:title />
      </cc:Work>
    </rdf:RDF>
  </metadata>
  <defs
     id="defs10049">
    <linearGradient
       id="linearGradient17425"
       inkscape:swatch="solid">
      <stop
         style="stop-color:#000000;stop-opacity:1;"
         offset="0"
         id="stop17427" />
    </linearGradient>
    <linearGradient
       inkscape:collect="always"
       xlink:href="#linearGradient17425"
       id="linearGradient15195"
       gradientUnits="userSpaceOnUse"
       gradientTransform="matrix(0.91728841,0,0,0.94849571,-2188.4261,79.232197)"
       x1="7117.6006"
       y1="1550.6322"
       x2="7683.4717"
       y2="1550.6322" />
  </defs>
  <g
     transform="matrix(0.13169305,0,0,0.13666723,-566.28008,-150.33494)"
     id="spade_7"
     inkscape:label="#spade_7">
    <rect
       style="fill:#ffffff;stroke:#000000;stroke-width:1.66649"
       id="rect14899"
       y="1100.8405"
       x="4300.833"
       ry="49.906242"
       rx="49.896725"
       height="898.32574"
       width="598.21417" />
    <rect
       ry="23.720173"
       y="1140.4667"
       x="4340.4658"
       height="819.06726"
       width="519.06726"
       id="rect14901"
       style="fill:#000000;fill-opacity:0;stroke:url(#linearGradient15195);stroke-width:0.932762;stroke-linecap:square;stroke-linejoin:bevel;stroke-miterlimit:4;stroke-dasharray:none" />
    <path
       inkscape:connector-curvature="0"
       id="path14905"
       d="m 4355.8378,1956.605 c -1.2891,-0.4713 -3.9926,-2.3494 -6.0078,-4.1736 -8.6098,-7.7936 -8.0552,19.9674 -8.0489,-402.8485 0.01,-387.493 0.035,-391.1401 3.1108,-396.1856 1.7077,-2.8009 5.3964,-6.4896 8.1973,-8.1973 5.0235,-3.0629 8.3657,-3.1049 247.2799,-3.1049 240.1146,0 242.2317,0.027 247.3564,3.1514 2.9845,1.8196 6.4368,5.9443 8.1689,9.7598 2.9323,6.4597 2.9998,15.3448 2.9998,394.8896 0,379.5449 -0.068,388.43 -2.9998,394.8896 -1.7321,3.8155 -5.1844,7.9403 -8.1689,9.7598 -5.1269,3.1258 -7.1372,3.1505 -247.3564,3.0339 -133.2032,-0.065 -243.2422,-0.503 -244.5313,-0.9742 z"
       style="fill:#fbf6e3;fill-opacity:1" />
    <path
       style="font-style:normal;font-variant:normal;font-weight:normal;font-stretch:normal;font-size:medium;line-height:125%;font-family:'Bodoni MT';-inkscape-font-specification:'Bodoni MT, Normal';text-align:start;letter-spacing:0px;word-spacing:0px;writing-mode:lr-tb;text-anchor:start;fill:#000000;fill-opacity:1;stroke:none;stroke-width:1px;stroke-linecap:butt;stroke-linejoin:miter;stroke-opacity:1"
       inkscape:connector-curvature="0"
       id="path15115"
       d="m 4352.8119,1190.0003 h 31.2998 l -6.2154,17.9893 q -0.2242,1.0055 -3.0851,9.1536 -2.8171,8.0952 -3.9795,13.3862 -1.1627,5.2381 -1.1627,8.7832 0,3.1216 1.2073,7.8306 1.252,4.7091 1.252,6.9841 0,2.1166 -1.2966,4.0212 -1.2522,1.8518 -3.443,1.8518 -2.5038,0 -4.1138,-2.3279 -1.565,-2.3279 -1.565,-6.1378 0,-3.968 2.1015,-10.1057 l 14.5322,-41.5873 h -21.3283 q -3.1301,0 -3.9797,0.9523 -0.805,0.8996 -1.7887,5.3439 l -0.7155,3.2276 h -2.2803 z" />
    <path
       d="m 4820.8119,1190.0003 h 31.2998 l -6.2154,17.9893 q -0.2242,1.0055 -3.0851,9.1536 -2.8171,8.0952 -3.9795,13.3862 -1.1627,5.2381 -1.1627,8.7832 0,3.1216 1.2073,7.8306 1.252,4.7091 1.252,6.9841 0,2.1166 -1.2966,4.0212 -1.2522,1.8518 -3.443,1.8518 -2.5038,0 -4.1138,-2.3279 -1.565,-2.3279 -1.565,-6.1378 0,-3.968 2.1015,-10.1057 l 14.5322,-41.5873 h -21.3283 q -3.1301,0 -3.9797,0.9523 -0.805,0.8996 -1.7887,5.3439 l -0.7155,3.2276 h -2.2803 z"
       id="path15117"
       inkscape:connector-curvature="0"
       style="font-style:normal;font-variant:normal;font-weight:normal;font-stretch:normal;font-size:medium;line-height:125%;font-family:'Bodoni MT';-inkscape-font-specification:'Bodoni MT, Normal';text-align:start;letter-spacing:0px;word-spacing:0px;writing-mode:lr-tb;text-anchor:start;fill:#000000;fill-opacity:1;stroke:none;stroke-width:1px;stroke-linecap:butt;stroke-linejoin:miter;stroke-opacity:1" />
    <path
       d="m 4379.5509,1910.0003 h -31.2998 l 6.2154,-17.9893 q 0.2242,-1.0054 3.0851,-9.1536 2.8171,-8.0952 3.9795,-13.3862 1.1627,-5.2381 1.1627,-8.7832 0,-3.1216 -1.2073,-7.8306 -1.252,-4.7091 -1.252,-6.9841 0,-2.1166 1.2966,-4.0212 1.2522,-1.8518 3.443,-1.8518 2.5038,0 4.1138,2.328 1.565,2.3278 1.565,6.1377 0,3.968 -2.1015,10.1058 l -14.5322,41.5872 h 21.3283 q 3.1301,0 3.9797,-0.9522 0.805,-0.8997 1.7887,-5.344 l 0.7155,-3.2275 h 2.2803 z"
       id="path15119"
       inkscape:connector-curvature="0"
       style="font-style:normal;font-variant:normal;font-weight:normal;font-stretch:normal;font-size:medium;line-height:125%;font-family:'Bodoni MT';-inkscape-font-specification:'Bodoni MT, Normal';text-align:start;letter-spacing:0px;word-spacing:0px;writing-mode:lr-tb;text-anchor:start;fill:#000000;fill-opacity:1;stroke:none;stroke-width:1px;stroke-linecap:butt;stroke-linejoin:miter;stroke-opacity:1" />
    <path
       style="font-style:normal;font-variant:normal;font-weight:normal;font-stretch:normal;font-size:medium;line-height:125%;font-family:'Bodoni MT';-inkscape-font-specification:'Bodoni MT, Normal';text-align:start;letter-spacing:0px;word-spacing:0px;writing-mode:lr-tb;text-anchor:start;fill:#000000;fill-opacity:1;stroke:none;stroke-width:1px;stroke-linecap:butt;stroke-linejoin:miter;stroke-opacity:1"
       inkscape:connector-curvature="0"
       id="path15121"
       d="m 4847.5509,1910.0003 h -31.2998 l 6.2154,-17.9893 q 0.2242,-1.0054 3.0851,-9.1536 2.8171,-8.0952 3.9795,-13.3862 1.1627,-5.2381 1.1627,-8.7832 0,-3.1216 -1.2073,-7.8306 -1.252,-4.7091 -1.252,-6.9841 0,-2.1166 1.2966,-4.0212 1.2522,-1.8518 3.443,-1.8518 2.5038,0 4.1138,2.328 1.565,2.3278 1.565,6.1377 0,3.968 -2.1015,10.1058 l -14.5322,41.5872 h 21.3283 q 3.1301,0 3.9797,-0.9522 0.805,-0.8997 1.7887,-5.344 l 0.7155,-3.2275 h 2.2803 z" />
    <path
       style="fill:#000000;fill-opacity:1"
       d="m 4454.2113,1348.5266 c 0.24,-0.9783 1.811,-5.7726 3.491,-10.6542 2.948,-8.5621 3.071,-9.2958 3.49,-20.7781 0.424,-11.6485 0.104,-15.8335 -1.209,-15.8335 -0.856,0 -3.337,4.2247 -4.44,7.5614 -1.491,4.5113 -5.24,9.3784 -8.857,11.4998 -3.008,1.7643 -4.188,2.0108 -9.372,1.9591 -5.122,-0.052 -6.555,-0.3772 -10.521,-2.3934 -5.653,-2.874 -9.295,-7.3706 -11.351,-14.0104 -4.4579,-14.4028 1.265,-28.8001 19.309,-48.5629 2.259,-2.4744 5.569,-6.4959 7.358,-8.9367 1.788,-2.4408 4.125,-5.6028 5.194,-7.0266 4.504,-5.9962 13.387,-23.174 14.428,-27.9 1.028,-4.6712 3.375,-4.5846 4.551,0.169 1.221,4.9338 10.054,21.9274 14.413,27.7318 1.071,1.4238 3.408,4.5858 5.197,7.0266 1.786,2.4408 5.098,6.4624 7.357,8.9367 18.042,19.7628 23.7677,34.1602 19.307,48.5629 -2.054,6.6398 -5.698,11.1365 -11.351,14.0104 -3.964,2.0162 -5.397,2.342 -10.52,2.3934 -5.184,0.052 -6.362,-0.1941 -9.37,-1.959 -3.617,-2.1214 -7.366,-6.9886 -8.858,-11.4999 -1.104,-3.3367 -3.583,-7.5613 -4.439,-7.5613 -1.314,0 -1.634,4.185 -1.209,15.8334 0.418,11.4824 0.542,12.2161 3.489,20.7781 4.316,12.5375 4.318,12.554 2.149,11.8858 -7.46,-2.2974 -9.613,-2.2988 -16.895,-0.021 -1.599,0.5022 -1.732,0.3799 -1.341,-1.2205 z"
       id="path15346"
       inkscape:connector-curvature="0" />
    <path
       inkscape:connector-curvature="0"
       id="path15348"
       d="m 4726.2113,1348.5266 c 0.24,-0.9783 1.811,-5.7726 3.491,-10.6542 2.948,-8.5621 3.071,-9.2958 3.49,-20.7781 0.424,-11.6485 0.104,-15.8335 -1.209,-15.8335 -0.856,0 -3.337,4.2247 -4.44,7.5614 -1.491,4.5113 -5.24,9.3784 -8.857,11.4998 -3.008,1.7643 -4.188,2.0108 -9.372,1.9591 -5.122,-0.052 -6.555,-0.3772 -10.521,-2.3934 -5.653,-2.874 -9.295,-7.3706 -11.351,-14.0104 -4.4579,-14.4028 1.265,-28.8001 19.309,-48.5629 2.259,-2.4744 5.569,-6.4959 7.358,-8.9367 1.788,-2.4408 4.125,-5.6028 5.194,-7.0266 4.504,-5.9962 13.387,-23.174 14.428,-27.9 1.028,-4.6712 3.375,-4.5846 4.551,0.169 1.221,4.9338 10.054,21.9274 14.413,27.7318 1.071,1.4238 3.408,4.5858 5.197,7.0266 1.786,2.4408 5.098,6.4624 7.357,8.9367 18.042,19.7628 23.7677,34.1602 19.307,48.5629 -2.054,6.6398 -5.698,11.1365 -11.351,14.0104 -3.964,2.0162 -5.397,2.342 -10.52,2.3934 -5.184,0.052 -6.362,-0.1941 -9.37,-1.959 -3.617,-2.1214 -7.366,-6.9886 -8.858,-11.4999 -1.104,-3.3367 -3.583,-7.5613 -4.439,-7.5613 -1.314,0 -1.634,4.185 -1.209,15.8334 0.418,11.4824 0.542,12.2161 3.489,20.7781 4.316,12.5375 4.318,12.554 2.149,11.8858 -7.46,-2.2974 -9.613,-2.2988 -16.895,-0.021 -1.599,0.5022 -1.732,0.3799 -1.341,-1.2205 z"
       style="fill:#000000;fill-opacity:1" />
    <path
       inkscape:connector-curvature="0"
       id="path15358"
       d="m 4454.2113,1751.4745 c 0.24,0.9783 1.811,5.7726 3.491,10.6542 2.948,8.5621 3.071,9.2958 3.49,20.7781 0.424,11.6485 0.104,15.8335 -1.209,15.8335 -0.856,0 -3.337,-4.2247 -4.44,-7.5614 -1.491,-4.5113 -5.24,-9.3784 -8.857,-11.4998 -3.008,-1.7643 -4.188,-2.0108 -9.372,-1.9591 -5.122,0.052 -6.555,0.3772 -10.521,2.3934 -5.653,2.874 -9.295,7.3706 -11.351,14.0104 -4.4579,14.4028 1.265,28.8001 19.309,48.5629 2.259,2.4744 5.569,6.4959 7.358,8.9367 1.788,2.4408 4.125,5.6028 5.194,7.0266 4.504,5.9962 13.387,23.174 14.428,27.9 1.028,4.6712 3.375,4.5846 4.551,-0.169 1.221,-4.9338 10.054,-21.9274 14.413,-27.7318 1.071,-1.4238 3.408,-4.5858 5.197,-7.0266 1.786,-2.4408 5.098,-6.4624 7.357,-8.9367 18.042,-19.7628 23.7677,-34.1602 19.307,-48.5629 -2.054,-6.6398 -5.698,-11.1365 -11.351,-14.0104 -3.964,-2.0162 -5.397,-2.342 -10.52,-2.3934 -5.184,-0.052 -6.362,0.1941 -9.37,1.959 -3.617,2.1214 -7.366,6.9886 -8.858,11.4999 -1.104,3.3367 -3.583,7.5613 -4.439,7.5613 -1.314,0 -1.634,-4.185 -1.209,-15.8334 0.418,-11.4824 0.542,-12.2161 3.489,-20.7781 4.316,-12.5375 4.318,-12.554 2.149,-11.8858 -7.46,2.2974 -9.613,2.2988 -16.895,0.021 -1.599,-0.5022 -1.732,-0.3799 -1.341,1.2205 z"
       style="fill:#000000;fill-opacity:1" />
    <path
       style="fill:#000000;fill-opacity:1"
       d="m 4726.2113,1751.4745 c 0.24,0.9783 1.811,5.7726 3.491,10.6542 2.948,8.5621 3.071,9.2958 3.49,20.7781 0.424,11.6485 0.104,15.8335 -1.209,15.8335 -0.856,0 -3.337,-4.2247 -4.44,-7.5614 -1.491,-4.5113 -5.24,-9.3784 -8.857,-11.4998 -3.008,-1.7643 -4.188,-2.0108 -9.372,-1.9591 -5.122,0.052 -6.555,0.3772 -10.521,2.3934 -5.653,2.874 -9.295,7.3706 -11.351,14.0104 -4.4579,14.4028 1.265,28.8001 19.309,48.5629 2.259,2.4744 5.569,6.4959 7.358,8.9367 1.788,2.4408 4.125,5.6028 5.194,7.0266 4.504,5.9962 13.387,23.174 14.428,27.9 1.028,4.6712 3.375,4.5846 4.551,-0.169 1.221,-4.9338 10.054,-21.9274 14.413,-27.7318 1.071,-1.4238 3.408,-4.5858 5.197,-7.0266 1.786,-2.4408 5.098,-6.4624 7.357,-8.9367 18.042,-19.7628 23.7677,-34.1602 19.307,-48.5629 -2.054,-6.6398 -5.698,-11.1365 -11.351,-14.0104 -3.964,-2.0162 -5.397,-2.342 -10.52,-2.3934 -5.184,-0.052 -6.362,0.1941 -9.37,1.959 -3.617,2.1214 -7.366,6.9886 -8.858,11.4999 -1.104,3.3367 -3.583,7.5613 -4.439,7.5613 -1.314,0 -1.634,-4.185 -1.209,-15.8334 0.418,-11.4824 0.542,-12.2161 3.489,-20.7781 4.316,-12.5375 4.318,-12.554 2.149,-11.8858 -7.46,2.2974 -9.613,2.2988 -16.895,0.021 -1.599,-0.5022 -1.732,-0.3799 -1.341,1.2205 z"
       id="path15360"
       inkscape:connector-curvature="0" />
    <path
       style="fill:#000000;fill-opacity:1"
       d="m 4590.2917,1438.5236 c 0.2406,-0.9803 1.8146,-5.784 3.498,-10.6754 2.954,-8.5793 3.0772,-9.3144 3.497,-20.8197 0.4248,-11.6719 0.1042,-15.8651 -1.2114,-15.8651 -0.8578,0 -3.3438,4.2331 -4.449,7.5764 -1.4938,4.5203 -5.2504,9.3972 -8.8746,11.5228 -3.014,1.7679 -4.1964,2.0148 -9.3908,1.9631 -5.1322,-0.052 -6.568,-0.378 -10.542,-2.3982 -5.6644,-2.8798 -9.3136,-7.3854 -11.3738,-14.0384 -4.4667,-14.4316 1.2676,-28.8577 19.3478,-48.6601 2.2634,-2.4794 5.58,-6.5089 7.3726,-8.9545 1.7916,-2.4458 4.1332,-5.614 5.2044,-7.0406 4.513,-6.0082 13.4138,-23.2204 14.4568,-27.9558 1.0302,-4.6806 3.3818,-4.5938 4.5602,0.1692 1.2234,4.9438 10.074,21.9712 14.4418,27.7874 1.0732,1.4266 3.4148,4.5948 5.2074,7.0406 1.7896,2.4456 5.1082,6.4752 7.3716,8.9545 18.0782,19.8024 23.8153,34.2286 19.3458,48.6601 -2.0582,6.653 -5.7094,11.1587 -11.3738,14.0384 -3.972,2.0202 -5.4078,2.3466 -10.541,2.3982 -5.1944,0.052 -6.3748,-0.1945 -9.3888,-1.963 -3.6242,-2.1256 -7.3808,-7.0026 -8.8756,-11.5229 -1.1062,-3.3433 -3.5902,-7.5763 -4.448,-7.5763 -1.3166,0 -1.6372,4.1932 -1.2114,15.865 0.4188,11.5054 0.5432,12.2405 3.496,20.8197 4.3246,12.5625 4.3266,12.579 2.1532,11.9096 -7.4748,-2.302 -9.6322,-2.3034 -16.9286,-0.021 -1.6022,0.5032 -1.7356,0.3807 -1.3438,-1.2229 z"
       id="path15362"
       inkscape:connector-curvature="0" />
    <path
       inkscape:connector-curvature="0"
       id="path15364"
       d="m 4590.2917,1661.1976 c 0.2406,0.9803 1.8146,5.784 3.498,10.6754 2.954,8.5793 3.0772,9.3144 3.497,20.8197 0.4248,11.6719 0.1042,15.8651 -1.2114,15.8651 -0.8578,0 -3.3438,-4.2331 -4.449,-7.5764 -1.4938,-4.5203 -5.2504,-9.3972 -8.8746,-11.5228 -3.014,-1.7679 -4.1964,-2.0148 -9.3908,-1.9631 -5.1322,0.052 -6.568,0.378 -10.542,2.3982 -5.6644,2.8798 -9.3136,7.3854 -11.3738,14.0384 -4.4667,14.4316 1.2676,28.8577 19.3478,48.6601 2.2634,2.4794 5.58,6.5089 7.3726,8.9545 1.7916,2.4458 4.1332,5.614 5.2044,7.0406 4.513,6.0082 13.4138,23.2204 14.4568,27.9558 1.0302,4.6806 3.3818,4.5938 4.5602,-0.1692 1.2234,-4.9438 10.074,-21.9712 14.4418,-27.7874 1.0732,-1.4266 3.4148,-4.5948 5.2074,-7.0406 1.7896,-2.4456 5.1082,-6.4752 7.3716,-8.9545 18.0782,-19.8024 23.8153,-34.2286 19.3458,-48.6601 -2.0582,-6.653 -5.7094,-11.1587 -11.3738,-14.0384 -3.972,-2.0202 -5.4078,-2.3466 -10.541,-2.3982 -5.1944,-0.052 -6.3748,0.1945 -9.3888,1.963 -3.6242,2.1256 -7.3808,7.0026 -8.8756,11.5229 -1.1062,3.3433 -3.5902,7.5763 -4.448,7.5763 -1.3166,0 -1.6372,-4.1932 -1.2114,-15.865 0.4188,-11.5054 0.5432,-12.2405 3.496,-20.8197 4.3246,-12.5625 4.3266,-12.579 2.1532,-11.9096 -7.4748,2.302 -9.6322,2.3034 -16.9286,0.021 -1.6022,-0.5032 -1.7356,-0.3807 -1.3438,1.2229 z"
       style="fill:#000000;fill-opacity:1" />
    <path
       inkscape:connector-curvature="0"
       id="path15366"
       d="m 4590.2917,1618.5235 c 0.2406,-0.9803 1.8146,-5.784 3.498,-10.6754 2.954,-8.5793 3.0772,-9.3144 3.497,-20.8197 0.4248,-11.6719 0.1042,-15.8651 -1.2114,-15.8651 -0.8578,0 -3.3438,4.2331 -4.449,7.5764 -1.4938,4.5203 -5.2504,9.3972 -8.8746,11.5228 -3.014,1.7679 -4.1964,2.0148 -9.3908,1.9631 -5.1322,-0.052 -6.568,-0.378 -10.542,-2.3982 -5.6644,-2.8798 -9.3136,-7.3854 -11.3738,-14.0384 -4.4667,-14.4316 1.2676,-28.8577 19.3478,-48.6601 2.2634,-2.4794 5.58,-6.5089 7.3726,-8.9545 1.7916,-2.4458 4.1332,-5.614 5.2044,-7.0406 4.513,-6.0082 13.4138,-23.2204 14.4568,-27.9558 1.0302,-4.6806 3.3818,-4.5938 4.5602,0.1692 1.2234,4.9438 10.074,21.9712 14.4418,27.7874 1.0732,1.4266 3.4148,4.5948 5.2074,7.0406 1.7896,2.4456 5.1082,6.4752 7.3716,8.9545 18.0782,19.8024 23.8153,34.2286 19.3458,48.6601 -2.0582,6.653 -5.7094,11.1587 -11.3738,14.0384 -3.972,2.0202 -5.4078,2.3466 -10.541,2.3982 -5.1944,0.052 -6.3748,-0.1945 -9.3888,-1.963 -3.6242,-2.1256 -7.3808,-7.0026 -8.8756,-11.5229 -1.1062,-3.3433 -3.5902,-7.5763 -4.448,-7.5763 -1.3166,0 -1.6372,4.1932 -1.2114,15.865 0.4188,11.5054 0.5432,12.2405 3.496,20.8197 4.3246,12.5625 4.3266,12.579 2.1532,11.9096 -7.4748,-2.302 -9.6322,-2.3034 -16.9286,-0.021 -1.6022,0.5032 -1.7356,0.3807 -1.3438,-1.2229 z"
       style="fill:#000000;fill-opacity:1" />
    <path
       style="fill:#000000;fill-opacity:1"
       d="m 4362.8678,1313.5435 c 0.075,-0.307 0.5794,-1.814 1.1169,-3.349 0.9434,-2.691 0.9827,-2.921 1.1169,-6.531 0.1357,-3.661 0.033,-4.977 -0.387,-4.977 -0.2738,0 -1.0678,1.328 -1.4208,2.377 -0.477,1.418 -1.6767,2.948 -2.8341,3.615 -0.9627,0.554 -1.3402,0.632 -2.999,0.616 -1.6392,-0.02 -2.0977,-0.119 -3.3669,-0.753 -1.8089,-0.903 -2.9743,-2.316 -3.6322,-4.404 -1.4266,-4.527 0.4048,-9.052 6.1788,-15.264 0.723,-0.778 1.7821,-2.042 2.3547,-2.809 0.5722,-0.767 1.3198,-1.761 1.662,-2.209 1.4413,-1.884 4.2838,-7.284 4.617,-8.769 0.329,-1.469 1.0799,-1.441 1.4562,0.05 0.3908,1.55 3.2173,6.892 4.6122,8.716 0.3427,0.448 1.0906,1.442 1.6632,2.209 0.5714,0.767 1.6312,2.031 2.3541,2.809 5.7736,6.212 7.6058,10.738 6.1783,15.265 -0.6573,2.087 -1.8233,3.5 -3.6324,4.404 -1.2683,0.633 -1.7271,0.736 -3.3663,0.752 -1.6588,0.02 -2.0358,-0.06 -2.9984,-0.616 -1.1574,-0.667 -2.3572,-2.197 -2.8347,-3.615 -0.3532,-1.049 -1.1464,-2.376 -1.4204,-2.376 -0.4204,0 -0.5228,1.315 -0.3868,4.976 0.1338,3.61 0.1734,3.84 1.1165,6.531 1.381,3.941 1.3816,3.947 0.6877,3.737 -2.3874,-0.723 -3.0763,-0.723 -5.4065,-0.01 -0.5117,0.157 -0.5542,0.119 -0.429,-0.384 z"
       id="path15386"
       inkscape:connector-curvature="0" />
    <path
       style="fill:#000000;fill-opacity:1"
       d="m 4369.1322,1786.5789 c -0.075,0.307 -0.5794,1.814 -1.1169,3.349 -0.9434,2.691 -0.9827,2.921 -1.1169,6.531 -0.1357,3.661 -0.033,4.977 0.387,4.977 0.2738,0 1.0678,-1.328 1.4208,-2.377 0.477,-1.418 1.6767,-2.948 2.8341,-3.615 0.9627,-0.554 1.3402,-0.632 2.999,-0.616 1.6392,0.02 2.0977,0.119 3.3669,0.753 1.8089,0.903 2.9743,2.316 3.6322,4.404 1.4266,4.527 -0.4048,9.052 -6.1788,15.264 -0.723,0.778 -1.7821,2.042 -2.3547,2.809 -0.5722,0.767 -1.3198,1.761 -1.662,2.209 -1.4413,1.884 -4.2838,7.284 -4.617,8.769 -0.329,1.469 -1.0799,1.441 -1.4562,-0.05 -0.3908,-1.55 -3.2173,-6.892 -4.6122,-8.716 -0.3427,-0.448 -1.0906,-1.442 -1.6632,-2.209 -0.5714,-0.767 -1.6312,-2.031 -2.3541,-2.809 -5.7736,-6.212 -7.6058,-10.738 -6.1783,-15.265 0.6573,-2.087 1.8233,-3.5 3.6324,-4.404 1.2683,-0.633 1.7271,-0.736 3.3663,-0.752 1.6588,-0.02 2.0358,0.06 2.9984,0.616 1.1574,0.667 2.3572,2.197 2.8347,3.615 0.3532,1.049 1.1464,2.376 1.4204,2.376 0.4204,0 0.5228,-1.315 0.3868,-4.976 -0.1338,-3.61 -0.1734,-3.84 -1.1165,-6.531 -1.381,-3.941 -1.3816,-3.947 -0.6877,-3.737 2.3874,0.723 3.0763,0.723 5.4065,0.01 0.5117,-0.157 0.5542,-0.119 0.429,0.384 z"
       id="path15388"
       inkscape:connector-curvature="0" />
    <path
       inkscape:connector-curvature="0"
       id="path15390"
       d="m 4830.8678,1313.5435 c 0.075,-0.307 0.5794,-1.814 1.1169,-3.349 0.9434,-2.691 0.9827,-2.921 1.1169,-6.531 0.1357,-3.661 0.033,-4.977 -0.387,-4.977 -0.2738,0 -1.0678,1.328 -1.4208,2.377 -0.477,1.418 -1.6767,2.948 -2.8341,3.615 -0.9627,0.554 -1.3402,0.632 -2.999,0.616 -1.6392,-0.02 -2.0977,-0.119 -3.3669,-0.753 -1.8089,-0.903 -2.9743,-2.316 -3.6322,-4.404 -1.4266,-4.527 0.4048,-9.052 6.1788,-15.264 0.723,-0.778 1.7821,-2.042 2.3547,-2.809 0.5722,-0.767 1.3198,-1.761 1.662,-2.209 1.4413,-1.884 4.2838,-7.284 4.617,-8.769 0.329,-1.469 1.0799,-1.441 1.4562,0.05 0.3908,1.55 3.2173,6.892 4.6122,8.716 0.3427,0.448 1.0906,1.442 1.6632,2.209 0.5714,0.767 1.6312,2.031 2.3541,2.809 5.7736,6.212 7.6058,10.738 6.1783,15.265 -0.6573,2.087 -1.8233,3.5 -3.6324,4.404 -1.2683,0.633 -1.7271,0.736 -3.3663,0.752 -1.6588,0.02 -2.0358,-0.06 -2.9984,-0.616 -1.1574,-0.667 -2.3572,-2.197 -2.8347,-3.615 -0.3532,-1.049 -1.1464,-2.376 -1.4204,-2.376 -0.4204,0 -0.5228,1.315 -0.3868,4.976 0.1338,3.61 0.1734,3.84 1.1165,6.531 1.381,3.941 1.3816,3.947 0.6877,3.737 -2.3874,-0.723 -3.0763,-0.723 -5.4065,-0.01 -0.5117,0.157 -0.5542,0.119 -0.429,-0.384 z"
       style="fill:#000000;fill-opacity:1" />
    <path
       inkscape:connector-curvature="0"
       id="path15392"
       d="m 4837.1322,1786.5789 c -0.075,0.307 -0.5794,1.814 -1.1169,3.349 -0.9434,2.691 -0.9827,2.921 -1.1169,6.531 -0.1357,3.661 -0.033,4.977 0.387,4.977 0.2738,0 1.0678,-1.328 1.4208,-2.377 0.477,-1.418 1.6767,-2.948 2.8341,-3.615 0.9627,-0.554 1.3402,-0.632 2.999,-0.616 1.6392,0.02 2.0977,0.119 3.3669,0.753 1.8089,0.903 2.9743,2.316 3.6322,4.404 1.4266,4.527 -0.4048,9.052 -6.1788,15.264 -0.723,0.778 -1.7821,2.042 -2.3547,2.809 -0.5722,0.767 -1.3198,1.761 -1.662,2.209 -1.4413,1.884 -4.2838,7.284 -4.617,8.769 -0.329,1.469 -1.0799,1.441 -1.4562,-0.05 -0.3908,-1.55 -3.2173,-6.892 -4.6122,-8.716 -0.3427,-0.448 -1.0906,-1.442 -1.6632,-2.209 -0.5714,-0.767 -1.6312,-2.031 -2.3541,-2.809 -5.7736,-6.212 -7.6058,-10.738 -6.1783,-15.265 0.6573,-2.087 1.8233,-3.5 3.6324,-4.404 1.2683,-0.633 1.7271,-0.736 3.3663,-0.752 1.6588,-0.02 2.0358,0.06 2.9984,0.616 1.1574,0.667 2.3572,2.197 2.8347,3.615 0.3532,1.049 1.1464,2.376 1.4204,2.376 0.4204,0 0.5228,-1.315 0.3868,-4.976 -0.1338,-3.61 -0.1734,-3.84 -1.1165,-6.531 -1.381,-3.941 -1.3816,-3.947 -0.6877,-3.737 2.3874,0.723 3.0763,0.723 5.4065,0.01 0.5117,-0.157 0.5542,-0.119 0.429,0.384 z"
       style="fill:#000000;fill-opacity:1" />
  </g>
</svg>
