<?xml version="1.0" encoding="UTF-8" standalone="no"?>
<!-- Created with Inkscape (http://www.inkscape.org/) -->

<svg
   id="svg10047"
   height="122.94574"
   width="78.999786"
   version="1.1"
   viewBox="0 0 78.999786 122.94574"
   inkscape:version="0.91 r13725"
   sodipodi:docname="kaiser-jubilaum.svgz"
   xmlns:inkscape="http://www.inkscape.org/namespaces/inkscape"
   xmlns:sodipodi="http://sodipodi.sourceforge.net/DTD/sodipodi-0.dtd"
   xmlns="http://www.w3.org/2000/svg"
   xmlns:svg="http://www.w3.org/2000/svg"
   xmlns:rdf="http://www.w3.org/1999/02/22-rdf-syntax-ns#"
   xmlns:cc="http://creativecommons.org/ns#"
   xmlns:dc="http://purl.org/dc/elements/1.1/">
  <sodipodi:namedview
     pagecolor="#ffffff"
     bordercolor="#666666"
     borderopacity="1"
     objecttolerance="10"
     gridtolerance="10"
     guidetolerance="10"
     inkscape:pageopacity="0"
     inkscape:pageshadow="2"
     inkscape:window-width="1920"
     inkscape:window-height="1016"
     id="namedview1491"
     showgrid="false"
     inkscape:zoom="1.3479675"
     inkscape:cx="513.49999"
     inkscape:cy="307.5"
     inkscape:window-x="0"
     inkscape:window-y="0"
     inkscape:window-maximized="1"
     inkscape:current-layer="svg10047"
     showguides="true"
     inkscape:guide-bbox="true"
     inkscape:snap-grids="true"
     inkscape:showpageshadow="2"
     inkscape:pagecheckerboard="0"
     inkscape:deskcolor="#d1d1d1" />
  <metadata
     id="metadata16869">
    <rdf:RDF>
      <cc:Work
         rdf:about="">
        <dc:format>image/svg+xml</dc:format>
        <dc:type
           rdf:resource="http://purl.org/dc/dcmitype/StillImage" />
        <dc:title />
      </cc:Work>
    </rdf:RDF>
  </metadata>
  <defs
     id="defs10049" />
  <g
     id="club_3"
     transform="matrix(0.13620652,0,0,0.13660647,-204.30978,-286.87359)"
     inkscape:label="#club_3">
    <rect
       style="font-style:normal;font-variant:normal;font-weight:500;font-stretch:normal;font-size:medium;line-height:125%;font-family:Gaelic;-inkscape-font-specification:'Gaelic Medium';letter-spacing:0px;word-spacing:0px;fill:#ffffff;fill-opacity:1;stroke:#000000;stroke-width:1.99898;stroke-linecap:butt;stroke-linejoin:miter;stroke-miterlimit:4;stroke-dasharray:none;stroke-opacity:1"
       id="rect6130"
       y="2100.9995"
       x="1500.9995"
       ry="49.888176"
       rx="48.210754"
       height="898.00043"
       width="578.00104" />
    <path
       inkscape:connector-curvature="0"
       id="path6366-5"
       d="m 1540.6709,2175.0944 v -9.5889 q 6.1024,0 8.861,-0.9478 2.8004,-0.9477 4.3469,-3.7351 1.5465,-2.8432 1.5465,-7.1359 0,-5.1846 -2.2988,-8.9199 -2.2571,-3.7351 -6.7294,-3.7351 -4.9321,0 -7.1891,3.9581 -2.2571,3.9025 -2.466,11.7073 h -8.0669 q 0,-13.3798 4.9321,-19.0104 4.9738,-5.6865 12.163,-5.6865 8.7356,0 13.1661,5.7422 4.4305,5.7422 4.4305,14.662 0,6.5785 -2.5496,11.0941 -2.5079,4.5157 -5.6845,6.4112 10.8673,4.2926 10.8673,18.5087 0,11.8187 -5.977,17.7281 -5.9352,5.8537 -13.9603,5.8537 -10.2403,0 -15.1724,-7.3032 Q 1526,2197.394 1526,2184.5159 h 7.6908 q 0.2089,8.9199 3.6363,13.6585 3.4692,4.6829 9.1954,4.6829 5.2247,0 8.1923,-3.8466 3.0094,-3.9025 3.0094,-9.8119 0,-6.1881 -3.511,-10.1463 -3.511,-4.014 -11.2017,-4.014 -1.0031,0 -2.3406,0.056 z"
       style="font-style:normal;font-variant:normal;font-weight:normal;font-stretch:normal;font-size:medium;line-height:125%;font-family:Rockwell;-inkscape-font-specification:Rockwell;letter-spacing:0px;word-spacing:0px;fill:#000000;fill-opacity:1;stroke:none;stroke-width:1px;stroke-linecap:butt;stroke-linejoin:miter;stroke-opacity:1" />
    <path
       d="m 2028.6709,2175.0944 v -9.5889 q 6.1024,0 8.861,-0.9478 2.8004,-0.9477 4.3469,-3.7351 1.5465,-2.8432 1.5465,-7.1359 0,-5.1846 -2.2988,-8.9199 -2.2571,-3.7351 -6.7294,-3.7351 -4.9321,0 -7.1891,3.9581 -2.2571,3.9025 -2.466,11.7073 h -8.0669 q 0,-13.3798 4.9321,-19.0104 4.9738,-5.6865 12.163,-5.6865 8.7356,0 13.1661,5.7422 4.4305,5.7422 4.4305,14.662 0,6.5785 -2.5496,11.0941 -2.5079,4.5157 -5.6845,6.4112 10.8673,4.2926 10.8673,18.5087 0,11.8187 -5.977,17.7281 -5.9352,5.8537 -13.9603,5.8537 -10.2403,0 -15.1724,-7.3032 Q 2014,2197.394 2014,2184.5159 h 7.6908 q 0.2089,8.9199 3.6363,13.6585 3.4692,4.6829 9.1954,4.6829 5.2247,0 8.1923,-3.8466 3.0094,-3.9025 3.0094,-9.8119 0,-6.1881 -3.511,-10.1463 -3.511,-4.014 -11.2017,-4.014 -1.0031,0 -2.3406,0.056 z"
       id="path6375"
       inkscape:connector-curvature="0"
       style="font-style:normal;font-variant:normal;font-weight:normal;font-stretch:normal;font-size:medium;line-height:125%;font-family:Rockwell;-inkscape-font-specification:Rockwell;letter-spacing:0px;word-spacing:0px;fill:#000000;fill-opacity:1;stroke:none;stroke-width:1px;stroke-linecap:butt;stroke-linejoin:miter;stroke-opacity:1" />
    <path
       d="m 1551.3292,2924.8061 v 9.5889 q -6.1024,0 -8.861,0.9478 -2.8004,0.9477 -4.3469,3.7351 -1.5465,2.8432 -1.5465,7.1359 0,5.1846 2.2988,8.9199 2.2571,3.7351 6.7294,3.7351 4.9321,0 7.1891,-3.9581 2.2571,-3.9025 2.466,-11.7073 h 8.0669 q 0,13.3798 -4.9321,19.0104 -4.9738,5.6865 -12.163,5.6865 -8.7356,0 -13.1661,-5.7422 -4.4305,-5.7422 -4.4305,-14.662 0,-6.5785 2.5496,-11.0941 2.5079,-4.5157 5.6845,-6.4112 -10.8673,-4.2926 -10.8673,-18.5087 0,-11.8187 5.977,-17.7281 5.9352,-5.8537 13.9603,-5.8537 10.2403,0 15.1724,7.3032 4.8903,7.303 4.8903,20.1811 h -7.6908 q -0.2089,-8.9199 -3.6363,-13.6585 -3.4692,-4.6829 -9.1954,-4.6829 -5.2247,0 -8.1923,3.8466 -3.0094,3.9025 -3.0094,9.8119 0,6.1881 3.511,10.1463 3.511,4.014 11.2017,4.014 1.0031,0 2.3406,-0.056 z"
       id="path6739"
       inkscape:connector-curvature="0"
       style="font-style:normal;font-variant:normal;font-weight:normal;font-stretch:normal;font-size:medium;line-height:125%;font-family:Rockwell;-inkscape-font-specification:Rockwell;letter-spacing:0px;word-spacing:0px;fill:#000000;fill-opacity:1;stroke:none;stroke-width:1px;stroke-linecap:butt;stroke-linejoin:miter;stroke-opacity:1" />
    <path
       inkscape:connector-curvature="0"
       id="path6747"
       d="m 2039.3292,2924.8061 v 9.5889 q -6.1024,0 -8.861,0.9478 -2.8004,0.9477 -4.3469,3.7351 -1.5465,2.8432 -1.5465,7.1359 0,5.1846 2.2988,8.9199 2.2571,3.7351 6.7294,3.7351 4.9321,0 7.1891,-3.9581 2.2571,-3.9025 2.466,-11.7073 h 8.0669 q 0,13.3798 -4.9321,19.0104 -4.9738,5.6865 -12.163,5.6865 -8.7356,0 -13.1661,-5.7422 -4.4305,-5.7422 -4.4305,-14.662 0,-6.5785 2.5496,-11.0941 2.5079,-4.5157 5.6845,-6.4112 -10.8673,-4.2926 -10.8673,-18.5087 0,-11.8187 5.977,-17.7281 5.9352,-5.8537 13.9603,-5.8537 10.2403,0 15.1724,7.3032 4.8903,7.303 4.8903,20.1811 h -7.6908 q -0.2089,-8.9199 -3.6363,-13.6585 -3.4692,-4.6829 -9.1954,-4.6829 -5.2247,0 -8.1923,3.8466 -3.0094,3.9025 -3.0094,9.8119 0,6.1881 3.511,10.1463 3.511,4.014 11.2017,4.014 1.0031,0 2.3406,-0.056 z"
       style="font-style:normal;font-variant:normal;font-weight:normal;font-stretch:normal;font-size:medium;line-height:125%;font-family:Rockwell;-inkscape-font-specification:Rockwell;letter-spacing:0px;word-spacing:0px;fill:#000000;fill-opacity:1;stroke:none;stroke-width:1px;stroke-linecap:butt;stroke-linejoin:miter;stroke-opacity:1" />
    <path
       style="fill:#0a0a0a"
       d="m 1539.6359,2282.9324 c 1.8864,-1.4881 3.1233,-3.2447 3.9688,-5.6366 0.6482,-1.834 0.7259,-2.6795 0.7527,-8.1868 l 0.029,-6.1415 -1.0238,-0.097 c -1.4645,-0.1391 -2.8518,0.6688 -5.2832,3.0766 -3.1304,3.0999 -5.5237,3.9772 -8.6377,3.1663 -1.8328,-0.4772 -4.6087,-3.1564 -5.1123,-4.9339 -0.4392,-1.5504 -0.4392,-4.0228 0,-5.5732 0.5036,-1.7775 3.2795,-4.4567 5.1123,-4.9339 3.114,-0.8109 5.5073,0.066 8.6377,3.1663 2.4314,2.4078 3.8187,3.2157 5.2832,3.0767 1.0198,-0.097 1.0237,-0.1042 0.9915,-1.8353 -0.04,-2.1153 -0.8206,-3.9321 -3.1931,-7.427 -2.1634,-3.1871 -2.7189,-4.661 -2.7189,-7.2136 0,-2.5086 0.5646,-3.8096 2.3554,-5.4276 2.9684,-2.682 7.4228,-2.682 10.3912,0 1.7908,1.618 2.3554,2.919 2.3554,5.4276 0,2.5526 -0.5556,4.0265 -2.719,7.2136 -2.3725,3.4949 -3.1536,5.3117 -3.193,7.427 -0.032,1.7311 -0.028,1.7384 0.9915,1.8353 1.4644,0.139 2.8518,-0.6689 5.2832,-3.0767 2.301,-2.2785 3.8515,-3.1726 5.8936,-3.3982 2.2696,-0.2507 4.0067,0.4265 5.8498,2.2808 1.8118,1.8227 2.3498,3.1213 2.3498,5.6716 0,2.5503 -0.538,3.8489 -2.3498,5.6716 -1.8431,1.8543 -3.5802,2.5315 -5.8498,2.2808 -2.0421,-0.2256 -3.5926,-1.1197 -5.8936,-3.3982 -2.4314,-2.4078 -3.8188,-3.2157 -5.2832,-3.0766 l -1.0239,0.097 0.029,6.1415 c 0.026,5.5073 0.1045,6.3528 0.7528,8.1868 0.8455,2.3919 2.0823,4.1485 3.9687,5.6366 l 1.3538,1.0678 -1.1246,-0.2204 c -2.9691,-0.5818 -4.8205,-0.8093 -6.5871,-0.8093 -1.7666,0 -3.6181,0.2275 -6.5871,0.8093 l -1.1246,0.2204 1.3537,-1.0678 z"
       id="path8731"
       inkscape:connector-curvature="0" />
    <path
       inkscape:connector-curvature="0"
       id="path8733"
       d="m 2027.6359,2282.9324 c 1.8864,-1.4881 3.1233,-3.2447 3.9688,-5.6366 0.6482,-1.834 0.7259,-2.6795 0.7527,-8.1868 l 0.029,-6.1415 -1.0238,-0.097 c -1.4645,-0.1391 -2.8518,0.6688 -5.2832,3.0766 -3.1304,3.0999 -5.5237,3.9772 -8.6377,3.1663 -1.8328,-0.4772 -4.6087,-3.1564 -5.1123,-4.9339 -0.4392,-1.5504 -0.4392,-4.0228 0,-5.5732 0.5036,-1.7775 3.2795,-4.4567 5.1123,-4.9339 3.114,-0.8109 5.5073,0.066 8.6377,3.1663 2.4314,2.4078 3.8187,3.2157 5.2832,3.0767 1.0198,-0.097 1.0237,-0.1042 0.9915,-1.8353 -0.04,-2.1153 -0.8206,-3.9321 -3.1931,-7.427 -2.1634,-3.1871 -2.7189,-4.661 -2.7189,-7.2136 0,-2.5086 0.5646,-3.8096 2.3554,-5.4276 2.9684,-2.682 7.4228,-2.682 10.3912,0 1.7908,1.618 2.3554,2.919 2.3554,5.4276 0,2.5526 -0.5556,4.0265 -2.719,7.2136 -2.3725,3.4949 -3.1536,5.3117 -3.193,7.427 -0.032,1.7311 -0.028,1.7384 0.9915,1.8353 1.4644,0.139 2.8518,-0.6689 5.2832,-3.0767 2.301,-2.2785 3.8515,-3.1726 5.8936,-3.3982 2.2696,-0.2507 4.0067,0.4265 5.8498,2.2808 1.8118,1.8227 2.3498,3.1213 2.3498,5.6716 0,2.5503 -0.538,3.8489 -2.3498,5.6716 -1.8431,1.8543 -3.5802,2.5315 -5.8498,2.2808 -2.0421,-0.2256 -3.5926,-1.1197 -5.8936,-3.3982 -2.4314,-2.4078 -3.8188,-3.2157 -5.2832,-3.0766 l -1.0239,0.097 0.029,6.1415 c 0.026,5.5073 0.1045,6.3528 0.7528,8.1868 0.8455,2.3919 2.0823,4.1485 3.9687,5.6366 l 1.3538,1.0678 -1.1246,-0.2204 c -2.9691,-0.5818 -4.8205,-0.8093 -6.5871,-0.8093 -1.7666,0 -3.6181,0.2275 -6.5871,0.8093 l -1.1246,0.2204 1.3537,-1.0678 z"
       style="fill:#0a0a0a" />
    <path
       inkscape:connector-curvature="0"
       id="path8783"
       d="m 1539.6359,2817.0682 c 1.8864,1.4881 3.1233,3.2447 3.9688,5.6366 0.6482,1.834 0.7259,2.6795 0.7527,8.1868 l 0.029,6.1415 -1.0238,0.097 c -1.4645,0.1391 -2.8518,-0.6688 -5.2832,-3.0766 -3.1304,-3.0999 -5.5237,-3.9772 -8.6377,-3.1663 -1.8328,0.4772 -4.6087,3.1564 -5.1123,4.9339 -0.4392,1.5504 -0.4392,4.0228 0,5.5732 0.5036,1.7775 3.2795,4.4567 5.1123,4.9339 3.114,0.8109 5.5073,-0.066 8.6377,-3.1663 2.4314,-2.4078 3.8187,-3.2157 5.2832,-3.0767 1.0198,0.097 1.0237,0.1042 0.9915,1.8353 -0.04,2.1153 -0.8206,3.9321 -3.1931,7.427 -2.1634,3.1871 -2.7189,4.661 -2.7189,7.2136 0,2.5086 0.5646,3.8096 2.3554,5.4276 2.9684,2.682 7.4228,2.682 10.3912,0 1.7908,-1.618 2.3554,-2.919 2.3554,-5.4276 0,-2.5526 -0.5556,-4.0265 -2.719,-7.2136 -2.3725,-3.4949 -3.1536,-5.3117 -3.193,-7.427 -0.032,-1.7311 -0.028,-1.7384 0.9915,-1.8353 1.4644,-0.139 2.8518,0.6689 5.2832,3.0767 2.301,2.2785 3.8515,3.1726 5.8936,3.3982 2.2696,0.2507 4.0067,-0.4265 5.8498,-2.2808 1.8118,-1.8227 2.3498,-3.1213 2.3498,-5.6716 0,-2.5503 -0.538,-3.8489 -2.3498,-5.6716 -1.8431,-1.8543 -3.5802,-2.5315 -5.8498,-2.2808 -2.0421,0.2256 -3.5926,1.1197 -5.8936,3.3982 -2.4314,2.4078 -3.8188,3.2157 -5.2832,3.0766 l -1.0239,-0.097 0.029,-6.1415 c 0.026,-5.5073 0.1045,-6.3528 0.7528,-8.1868 0.8455,-2.3919 2.0823,-4.1485 3.9687,-5.6366 l 1.3538,-1.0678 -1.1246,0.2204 c -2.9691,0.5818 -4.8205,0.8093 -6.5871,0.8093 -1.7666,0 -3.6181,-0.2275 -6.5871,-0.8093 l -1.1246,-0.2204 1.3537,1.0678 z"
       style="fill:#0a0a0a" />
    <path
       style="fill:#0a0a0a"
       d="m 2027.6359,2817.0682 c 1.8864,1.4881 3.1233,3.2447 3.9688,5.6366 0.6482,1.834 0.7259,2.6795 0.7527,8.1868 l 0.029,6.1415 -1.0238,0.097 c -1.4645,0.1391 -2.8518,-0.6688 -5.2832,-3.0766 -3.1304,-3.0999 -5.5237,-3.9772 -8.6377,-3.1663 -1.8328,0.4772 -4.6087,3.1564 -5.1123,4.9339 -0.4392,1.5504 -0.4392,4.0228 0,5.5732 0.5036,1.7775 3.2795,4.4567 5.1123,4.9339 3.114,0.8109 5.5073,-0.066 8.6377,-3.1663 2.4314,-2.4078 3.8187,-3.2157 5.2832,-3.0767 1.0198,0.097 1.0237,0.1042 0.9915,1.8353 -0.04,2.1153 -0.8206,3.9321 -3.1931,7.427 -2.1634,3.1871 -2.7189,4.661 -2.7189,7.2136 0,2.5086 0.5646,3.8096 2.3554,5.4276 2.9684,2.682 7.4228,2.682 10.3912,0 1.7908,-1.618 2.3554,-2.919 2.3554,-5.4276 0,-2.5526 -0.5556,-4.0265 -2.719,-7.2136 -2.3725,-3.4949 -3.1536,-5.3117 -3.193,-7.427 -0.032,-1.7311 -0.028,-1.7384 0.9915,-1.8353 1.4644,-0.139 2.8518,0.6689 5.2832,3.0767 2.301,2.2785 3.8515,3.1726 5.8936,3.3982 2.2696,0.2507 4.0067,-0.4265 5.8498,-2.2808 1.8118,-1.8227 2.3498,-3.1213 2.3498,-5.6716 0,-2.5503 -0.538,-3.8489 -2.3498,-5.6716 -1.8431,-1.8543 -3.5802,-2.5315 -5.8498,-2.2808 -2.0421,0.2256 -3.5926,1.1197 -5.8936,3.3982 -2.4314,2.4078 -3.8188,3.2157 -5.2832,3.0766 l -1.0239,-0.097 0.029,-6.1415 c 0.026,-5.5073 0.1045,-6.3528 0.7528,-8.1868 0.8455,-2.3919 2.0823,-4.1485 3.9687,-5.6366 l 1.3538,-1.0678 -1.1246,0.2204 c -2.9691,0.5818 -4.8205,0.8093 -6.5871,0.8093 -1.7666,0 -3.6181,-0.2275 -6.5871,-0.8093 l -1.1246,-0.2204 1.3537,1.0678 z"
       id="path8785"
       inkscape:connector-curvature="0" />
    <path
       inkscape:connector-curvature="0"
       id="path6445-6"
       d="m 1773.7983,2609.2416 c 4.802,-3.8442 7.9502,-8.3819 10.1024,-14.5612 1.65,-4.7378 1.8479,-6.9219 1.9161,-21.1491 l 0.076,-15.8657 -2.6061,-0.2511 c -3.7281,-0.3591 -7.2593,1.7278 -13.4485,7.948 -7.9681,8.008 -14.0603,10.2744 -21.9867,8.1797 -4.6651,-1.2328 -11.7312,-8.154 -13.013,-12.7461 -1.118,-4.005 -1.118,-10.3922 0,-14.3972 1.2818,-4.5921 8.3479,-11.5132 13.013,-12.7461 7.9264,-2.0947 14.0186,0.1718 21.9867,8.1797 6.1892,6.2202 9.7204,8.3072 13.4485,7.948 2.5957,-0.2501 2.6058,-0.269 2.5237,-4.7411 -0.1006,-5.4645 -2.0886,-10.1579 -8.1277,-19.1865 -5.507,-8.2332 -6.9212,-12.0409 -6.9212,-18.6349 0,-6.4806 1.4371,-9.8416 5.9957,-14.0215 7.556,-6.9284 18.8943,-6.9284 26.4502,0 4.5586,4.1799 5.9958,7.5409 5.9958,14.0215 0,6.594 -1.4143,10.4017 -6.9212,18.6349 -6.0391,9.0286 -8.0273,13.722 -8.1276,19.1865 -0.082,4.4721 -0.072,4.491 2.5236,4.7411 3.728,0.3592 7.2592,-1.7278 13.4485,-7.948 5.8569,-5.8862 9.8037,-8.1958 15.0016,-8.7786 5.7775,-0.6478 10.1991,1.1017 14.8907,5.8919 4.6117,4.7088 5.9812,8.0634 5.9812,14.6517 0,6.5883 -1.3695,9.943 -5.9812,14.6517 -4.6916,4.7902 -9.1132,6.5397 -14.8907,5.8919 -5.1979,-0.5828 -9.1447,-2.8924 -15.0016,-8.7786 -6.1893,-6.2202 -9.7205,-8.3071 -13.4485,-7.948 l -2.6062,0.2511 0.076,15.8657 c 0.068,14.2272 0.2661,16.4113 1.9163,21.1491 2.1521,6.1793 5.3003,10.717 10.1022,14.5612 l 3.4459,2.7586 -2.8627,-0.5693 c -7.5575,-1.5031 -12.2704,-2.0907 -16.7672,-2.0907 -4.4966,0 -9.2096,0.5876 -16.767,2.0907 l -2.8627,0.5693 z"
       style="fill:#0a0a0a" />
    <path
       style="fill:#0a0a0a"
       d="m 1773.7983,2309.2416 c 4.802,-3.8442 7.9502,-8.3819 10.1024,-14.5612 1.65,-4.7378 1.8479,-6.9219 1.9161,-21.1491 l 0.076,-15.8657 -2.6061,-0.2511 c -3.7281,-0.3591 -7.2593,1.7278 -13.4485,7.948 -7.9681,8.008 -14.0603,10.2744 -21.9867,8.1797 -4.6651,-1.2328 -11.7312,-8.154 -13.013,-12.7461 -1.118,-4.005 -1.118,-10.3922 0,-14.3972 1.2818,-4.5921 8.3479,-11.5132 13.013,-12.7461 7.9264,-2.0947 14.0186,0.1718 21.9867,8.1797 6.1892,6.2202 9.7204,8.3072 13.4485,7.948 2.5957,-0.2501 2.6058,-0.269 2.5237,-4.7411 -0.1006,-5.4645 -2.0886,-10.1579 -8.1277,-19.1865 -5.507,-8.2332 -6.9212,-12.0409 -6.9212,-18.6349 0,-6.4806 1.4371,-9.8416 5.9957,-14.0215 7.556,-6.9284 18.8943,-6.9284 26.4502,0 4.5586,4.1799 5.9958,7.5409 5.9958,14.0215 0,6.594 -1.4143,10.4017 -6.9212,18.6349 -6.0391,9.0286 -8.0273,13.722 -8.1276,19.1865 -0.082,4.4721 -0.072,4.491 2.5236,4.7411 3.728,0.3592 7.2592,-1.7278 13.4485,-7.948 5.8569,-5.8862 9.8037,-8.1958 15.0016,-8.7786 5.7775,-0.6478 10.1991,1.1017 14.8907,5.8919 4.6117,4.7088 5.9812,8.0634 5.9812,14.6517 0,6.5883 -1.3695,9.943 -5.9812,14.6517 -4.6916,4.7902 -9.1132,6.5397 -14.8907,5.8919 -5.1979,-0.5828 -9.1447,-2.8924 -15.0016,-8.7786 -6.1893,-6.2202 -9.7205,-8.3071 -13.4485,-7.948 l -2.6062,0.2511 0.076,15.8657 c 0.068,14.2272 0.2661,16.4113 1.9163,21.1491 2.1521,6.1793 5.3003,10.717 10.1022,14.5612 l 3.4459,2.7586 -2.8627,-0.5693 c -7.5575,-1.5031 -12.2704,-2.0907 -16.7672,-2.0907 -4.4966,0 -9.2096,0.5876 -16.767,2.0907 l -2.8627,0.5693 z"
       id="path6447-1"
       inkscape:connector-curvature="0" />
    <path
       inkscape:connector-curvature="0"
       id="path6449-1"
       d="m 1773.7983,2790.7588 c 4.802,3.8442 7.9502,8.3819 10.1024,14.5612 1.65,4.7378 1.8479,6.9219 1.9161,21.1491 l 0.076,15.8657 -2.6061,0.2511 c -3.7281,0.3591 -7.2593,-1.7278 -13.4485,-7.948 -7.9681,-8.008 -14.0603,-10.2744 -21.9867,-8.1797 -4.6651,1.2328 -11.7312,8.154 -13.013,12.7461 -1.118,4.005 -1.118,10.3922 0,14.3972 1.2818,4.5921 8.3479,11.5132 13.013,12.7461 7.9264,2.0947 14.0186,-0.1718 21.9867,-8.1797 6.1892,-6.2202 9.7204,-8.3072 13.4485,-7.948 2.5957,0.2501 2.6058,0.269 2.5237,4.7411 -0.1006,5.4645 -2.0886,10.1579 -8.1277,19.1865 -5.507,8.2332 -6.9212,12.0409 -6.9212,18.6349 0,6.4806 1.4371,9.8416 5.9957,14.0215 7.556,6.9284 18.8943,6.9284 26.4502,0 4.5586,-4.1799 5.9958,-7.5409 5.9958,-14.0215 0,-6.594 -1.4143,-10.4017 -6.9212,-18.6349 -6.0391,-9.0286 -8.0273,-13.722 -8.1276,-19.1865 -0.082,-4.4721 -0.072,-4.491 2.5236,-4.7411 3.728,-0.3592 7.2592,1.7278 13.4485,7.948 5.8569,5.8862 9.8037,8.1958 15.0016,8.7786 5.7775,0.6478 10.1991,-1.1017 14.8907,-5.8919 4.6117,-4.7088 5.9812,-8.0634 5.9812,-14.6517 0,-6.5883 -1.3695,-9.943 -5.9812,-14.6517 -4.6916,-4.7902 -9.1132,-6.5397 -14.8907,-5.8919 -5.1979,0.5828 -9.1447,2.8924 -15.0016,8.7786 -6.1893,6.2202 -9.7205,8.3071 -13.4485,7.948 l -2.6062,-0.2511 0.076,-15.8657 c 0.068,-14.2272 0.2661,-16.4113 1.9163,-21.1491 2.1521,-6.1793 5.3003,-10.717 10.1022,-14.5612 l 3.4459,-2.7586 -2.8627,0.5693 c -7.5575,1.5031 -12.2704,2.0907 -16.7672,2.0907 -4.4966,0 -9.2096,-0.5876 -16.767,-2.0907 l -2.8627,-0.5693 z"
       style="fill:#0a0a0a" />
    <path
       style="fill:#0a0a0a"
       d="m 1773.7983,2609.2416 c 4.802,-3.8442 7.9502,-8.3819 10.1024,-14.5612 1.65,-4.7378 1.8479,-6.9219 1.9161,-21.1491 l 0.076,-15.8657 -2.6061,-0.2511 c -3.7281,-0.3591 -7.2593,1.7278 -13.4485,7.948 -7.9681,8.008 -14.0603,10.2744 -21.9867,8.1797 -4.6651,-1.2328 -11.7312,-8.154 -13.013,-12.7461 -1.118,-4.005 -1.118,-10.3922 0,-14.3972 1.2818,-4.5921 8.3479,-11.5132 13.013,-12.7461 7.9264,-2.0947 14.0186,0.1718 21.9867,8.1797 6.1892,6.2202 9.7204,8.3072 13.4485,7.948 2.5957,-0.2501 2.6058,-0.269 2.5237,-4.7411 -0.1006,-5.4645 -2.0886,-10.1579 -8.1277,-19.1865 -5.507,-8.2332 -6.9212,-12.0409 -6.9212,-18.6349 0,-6.4806 1.4371,-9.8416 5.9957,-14.0215 7.556,-6.9284 18.8943,-6.9284 26.4502,0 4.5586,4.1799 5.9958,7.5409 5.9958,14.0215 0,6.594 -1.4143,10.4017 -6.9212,18.6349 -6.0391,9.0286 -8.0273,13.722 -8.1276,19.1865 -0.082,4.4721 -0.072,4.491 2.5236,4.7411 3.728,0.3592 7.2592,-1.7278 13.4485,-7.948 5.8569,-5.8862 9.8037,-8.1958 15.0016,-8.7786 5.7775,-0.6478 10.1991,1.1017 14.8907,5.8919 4.6117,4.7088 5.9812,8.0634 5.9812,14.6517 0,6.5883 -1.3695,9.943 -5.9812,14.6517 -4.6916,4.7902 -9.1132,6.5397 -14.8907,5.8919 -5.1979,-0.5828 -9.1447,-2.8924 -15.0016,-8.7786 -6.1893,-6.2202 -9.7205,-8.3071 -13.4485,-7.948 l -2.6062,0.2511 0.076,15.8657 c 0.068,14.2272 0.2661,16.4113 1.9163,21.1491 2.1521,6.1793 5.3003,10.717 10.1022,14.5612 l 3.4459,2.7586 -2.8627,-0.5693 c -7.5575,-1.5031 -12.2704,-2.0907 -16.7672,-2.0907 -4.4966,0 -9.2096,0.5876 -16.767,2.0907 l -2.8627,0.5693 z"
       id="path6451-5"
       inkscape:connector-curvature="0" />
    <path
       inkscape:connector-curvature="0"
       id="path10121"
       d="m 1578.608,2969.5383 c -0.347,-0.3672 -0.632,-38.9588 -0.632,-85.7589 0,-82.2583 -0.06,-85.1695 -1.802,-87.4482 -1.767,-2.3087 -2.209,-2.3674 -21.489,-2.8564 L 1535,2792.9756 v -243.1243 -243.1244 l 19.568,-0.4992 c 17.134,-0.4371 19.777,-0.721 21.252,-2.282 1.582,-1.6748 1.713,-6.9885 2.156,-87.8642 L 1578.449,2130 h 212.051 212.051 l 0.472,86.0815 c 0.444,80.8757 0.575,86.1894 2.157,87.8642 1.475,1.561 4.117,1.8449 21.252,2.282 l 19.568,0.4992 v 243.1244 243.1243 l -19.568,0.4992 c -17.135,0.4372 -19.777,0.7211 -21.252,2.282 -1.582,1.6749 -1.713,6.9885 -2.157,87.8642 l -0.472,86.0816 -211.655,0.2518 c -116.411,0.1384 -211.939,-0.049 -212.288,-0.4161 z m 420.641,-85.9527 c 0,-81.6793 0.05,-83.6964 1.88,-86.8749 3.8,-6.5887 6.015,-7.2218 25.272,-7.226 h 17.237 V 2549.855 2310.2252 h -17.237 c -19.257,0 -21.472,-0.6373 -25.272,-7.2259 -1.834,-3.1786 -1.877,-5.1956 -1.88,-86.8749 v -83.6206 h -208.745 -208.745 v 83.6208 c 0,81.6794 -0.05,83.6964 -1.88,86.875 -3.801,6.5886 -6.015,7.2217 -25.272,7.2259 h -17.238 v 239.6297 239.6298 h 17.238 c 19.257,0 21.471,0.6373 25.272,7.226 1.833,3.1785 1.877,5.1955 1.88,86.8749 v 83.6205 h 208.745 208.745 z"
       style="fill:#b7b772" />
    <path
       inkscape:connector-curvature="0"
       id="path10149"
       d="m 1582.052,2881.815 -0.4314,-84.9427 -4.2875,-3.6871 c -3.9918,-3.4328 -5.4934,-3.687 -21.7754,-3.687 h -17.4879 v -239.1475 -239.1475 l 14.1349,-0.01 c 7.7742,0 16.7685,-0.7398 19.9874,-1.6336 10.3408,-2.8708 10.1926,-1.4954 10.1926,-94.5784 v -82.5664 h 207.8214 207.8215 l 0.1531,70.6746 c 0.084,38.871 0.6,77.361 1.1461,85.5334 1.3854,20.732 2.1459,21.3998 25.3844,22.2893 l 17.6313,0.6748 v 238.9553 238.9552 h -17.4039 c -23.7667,0 -24.2824,0.4358 -25.603,21.6383 -0.5413,8.6901 -1.057,47.2598 -1.1461,85.7106 l -0.1619,69.9106 h -207.7721 -207.7721 l -0.4314,-84.9427 z m 217.3227,28.3319 c 4.969,-2.5502 9.458,-9.0867 10.2389,-14.909 0.8387,-6.2529 -1.5275,-12.5353 -10.9953,-29.1931 -3.8958,-6.8543 -5.1313,-15.4227 -2.2239,-15.4227 2.9147,0 9.7961,4.2287 13.677,8.4046 8.1526,8.7722 18.0257,10.7351 26.7807,5.3242 13.977,-8.6382 12.5601,-29.1535 -2.5782,-37.3288 -4.7594,-2.5702 -6.3038,-2.73 -11.4583,-1.1857 -3.2766,0.9817 -9.6035,4.8971 -14.0599,8.701 -4.4563,3.8039 -9.4958,6.9161 -11.1988,6.9161 -2.9624,0 -3.0699,-0.7436 -2.486,-17.1911 0.6599,-18.5854 2.5565,-24.3659 10.3979,-31.6909 l 4.1121,-3.8413 h -19.5564 -19.5565 l 5.1938,5.3484 c 7.1882,7.4021 8.6236,12.0431 9.5701,30.944 l 0.8227,16.4271 h -3.6808 c -2.1773,0 -6.8806,-2.7991 -11.514,-6.8523 -13.8494,-12.1151 -22.2665,-12.7174 -31.7062,-2.2687 -4.9338,5.4611 -5.4871,6.9445 -5.4871,14.7103 0,8.1034 0.3814,8.9996 6.1767,14.5125 5.1705,4.9186 7.2311,5.8758 12.6488,5.8758 6.9784,0 10.4136,-1.8449 20.5953,-11.0612 12.991,-11.7593 15.6475,-2.2897 4.5841,16.341 -7.3825,12.4319 -9.0738,22.0628 -5.1927,29.5682 4.6811,9.0523 17.3609,12.7614 26.896,7.8677 v 9e-4 z m 4.5428,-305.0067 c -7.2873,-7.9058 -9.1078,-14.3444 -9.1185,-32.2501 -0.01,-13.3189 0.1757,-14.1349 3.1831,-14.1349 1.7554,0 6.7408,3.1131 11.0787,6.9181 10.5703,9.2716 17.1322,11.2247 24.9088,7.414 15.347,-7.5206 17.2357,-27.5495 3.5188,-37.3168 -3.7934,-2.7012 -6.1889,-3.2191 -12.2119,-2.6404 -6.105,0.5866 -8.7321,1.8624 -14.1846,6.8884 -7.7793,7.1707 -12.6959,10.088 -14.805,8.7846 -2.4622,-1.5218 -1.7054,-7.3539 1.7897,-13.7923 10.1886,-18.7686 11.9943,-22.9924 11.9891,-28.0443 -0.01,-7.292 -4.4866,-14.3306 -11.1235,-17.4801 -6.539,-3.1029 -10.333,-3.2026 -16.9331,-0.4449 -13.7752,5.7557 -15.4062,19.7583 -4.4714,38.3877 6.6806,11.3816 9.2927,19.702 6.6904,21.3103 -2.1331,1.3183 -9.2256,-2.5414 -13.8873,-7.5574 -5.4076,-5.8188 -11.0814,-8.4046 -18.441,-8.4046 -5.3598,0 -7.3074,0.9394 -12.3007,5.9326 -5.4826,5.4827 -5.9326,6.5835 -5.9326,14.5126 0,7.6612 0.5733,9.2145 5.3547,14.507 9.208,10.1921 18.6406,9.5917 31.542,-2.0077 4.8916,-4.398 9.1761,-6.9668 11.6201,-6.9668 h 3.8713 l -0.7821,16.5015 c -0.8432,17.7895 -2.722,23.4779 -10.4479,31.6336 l -4.3427,4.5843 h 19.6372 19.6373 z m -13.7114,-294.7011 c 3.7821,0 9.9105,0.5417 13.6187,1.2038 l 6.7422,1.2037 -6.2442,-6.7741 c -3.4343,-3.7258 -6.9802,-9.4248 -7.8798,-12.6645 -2.152,-7.7504 -2.1901,-35.6883 -0.049,-35.6883 2.9147,0 9.7961,4.2287 13.677,8.4045 11.2269,12.0804 27.7221,10.7632 34.1225,-2.7247 5.4411,-11.4661 1.1949,-23.5846 -10.2243,-29.1805 -7.7766,-3.8107 -14.3385,-1.8576 -24.9088,7.4141 -4.3379,3.8049 -9.4133,6.918 -11.2786,6.918 -3.0437,0 -3.2996,-0.5671 -2.4946,-5.5277 0.4933,-3.0402 3.7634,-10.2718 7.2669,-16.0702 7.4827,-12.3844 9.1334,-21.2708 5.3208,-28.6437 -9.3755,-18.1301 -37.5345,-11.7544 -37.5345,8.4985 0,5.1382 1.8191,10.2003 7.6405,21.2615 4.2023,7.9847 7.6405,15.8595 7.6405,17.4996 0,5.2793 -6.6739,3.5539 -14.9157,-3.8562 -13.3498,-12.0027 -22.2239,-12.6084 -31.6622,-2.1614 -4.806,5.3197 -5.3774,6.864 -5.3774,14.5321 0,7.9291 0.45,9.03 5.9326,14.5126 5.0917,5.0916 6.8846,5.9326 12.6488,5.9326 7.1351,0 10.1498,-1.5781 20.9823,-10.9835 3.6902,-3.2041 8.0839,-5.8256 9.7637,-5.8256 2.9177,0 3.0203,0.7692 2.2949,17.207 -0.8278,18.7579 -3.6169,27.0393 -11.0851,32.9137 -5.4245,4.2669 -4.8404,5.1022 2.6316,3.7629 3.5719,-0.6403 9.5888,-1.1642 13.3708,-1.1642 z"
       style="fill:#feefd3;fill-opacity:1;stroke:#fffecd;stroke-width:0.541452;stroke-miterlimit:4;stroke-dasharray:none;stroke-opacity:1" />
  </g>
</svg>
