<?xml version="1.0" encoding="UTF-8" standalone="no"?>
<!-- Created with Inkscape (http://www.inkscape.org/) -->

<svg
   id="svg10047"
   height="122.94574"
   width="78.999786"
   version="1.1"
   viewBox="0 0 78.999786 122.94574"
   inkscape:version="0.91 r13725"
   sodipodi:docname="kaiser-jubilaum.svgz"
   xmlns:inkscape="http://www.inkscape.org/namespaces/inkscape"
   xmlns:sodipodi="http://sodipodi.sourceforge.net/DTD/sodipodi-0.dtd"
   xmlns="http://www.w3.org/2000/svg"
   xmlns:svg="http://www.w3.org/2000/svg"
   xmlns:rdf="http://www.w3.org/1999/02/22-rdf-syntax-ns#"
   xmlns:cc="http://creativecommons.org/ns#"
   xmlns:dc="http://purl.org/dc/elements/1.1/">
  <sodipodi:namedview
     pagecolor="#ffffff"
     bordercolor="#666666"
     borderopacity="1"
     objecttolerance="10"
     gridtolerance="10"
     guidetolerance="10"
     inkscape:pageopacity="0"
     inkscape:pageshadow="2"
     inkscape:window-width="1920"
     inkscape:window-height="1016"
     id="namedview1491"
     showgrid="false"
     inkscape:zoom="1.3479675"
     inkscape:cx="513.49999"
     inkscape:cy="307.5"
     inkscape:window-x="0"
     inkscape:window-y="0"
     inkscape:window-maximized="1"
     inkscape:current-layer="svg10047"
     showguides="true"
     inkscape:guide-bbox="true"
     inkscape:snap-grids="true"
     inkscape:showpageshadow="2"
     inkscape:pagecheckerboard="0"
     inkscape:deskcolor="#d1d1d1" />
  <metadata
     id="metadata16869">
    <rdf:RDF>
      <cc:Work
         rdf:about="">
        <dc:format>image/svg+xml</dc:format>
        <dc:type
           rdf:resource="http://purl.org/dc/dcmitype/StillImage" />
        <dc:title />
      </cc:Work>
    </rdf:RDF>
  </metadata>
  <defs
     id="defs10049" />
  <g
     id="club_4"
     transform="matrix(0.13620652,0,0,0.13660647,-299.65435,-286.87359)"
     inkscape:label="#club_4">
    <rect
       style="font-style:normal;font-variant:normal;font-weight:500;font-stretch:normal;font-size:medium;line-height:125%;font-family:Gaelic;-inkscape-font-specification:'Gaelic Medium';letter-spacing:0px;word-spacing:0px;fill:#ffffff;fill-opacity:1;stroke:#000000;stroke-width:1.99898;stroke-linecap:butt;stroke-linejoin:miter;stroke-miterlimit:4;stroke-dasharray:none;stroke-opacity:1"
       id="rect6015"
       y="2100.9995"
       x="2200.9995"
       ry="49.888176"
       rx="48.210754"
       height="898.00043"
       width="578.00104" />
    <path
       inkscape:connector-curvature="0"
       id="path6383"
       d="m 2249.1601,2190.6593 h -19.4595 q -0.9979,-5.3067 -3.7006,-8.9586 l 24.0748,-49.7004 h 6.6944 v 49.0727 H 2266 v 9.5863 h -9.2308 v 11.6976 h 5.2807 v 9.6434 h -19.0437 v -9.6434 h 6.1539 z m 0,-9.5863 v -31.2695 l -15.1767,31.2695 z"
       style="font-style:normal;font-variant:normal;font-weight:normal;font-stretch:normal;font-size:medium;line-height:125%;font-family:Rockwell;-inkscape-font-specification:Rockwell;letter-spacing:0px;word-spacing:0px;fill:#000000;fill-opacity:1;stroke:none;stroke-width:1px;stroke-linecap:butt;stroke-linejoin:miter;stroke-opacity:1" />
    <path
       d="m 2737.1601,2190.6593 h -19.4595 q -0.9979,-5.3067 -3.7006,-8.9586 l 24.0748,-49.7004 h 6.6944 v 49.0727 H 2754 v 9.5863 h -9.2308 v 11.6976 h 5.2807 v 9.6434 h -19.0437 v -9.6434 h 6.1539 z m 0,-9.5863 v -31.2695 l -15.1767,31.2695 z"
       id="path6551-9"
       inkscape:connector-curvature="0"
       style="font-style:normal;font-variant:normal;font-weight:normal;font-stretch:normal;font-size:medium;line-height:125%;font-family:Rockwell;-inkscape-font-specification:Rockwell;letter-spacing:0px;word-spacing:0px;fill:#000000;fill-opacity:1;stroke:none;stroke-width:1px;stroke-linecap:butt;stroke-linejoin:miter;stroke-opacity:1" />
    <path
       d="m 2242.8399,2909.2412 h 19.4595 q 0.9979,5.3067 3.7006,8.9586 l -24.0748,49.7004 h -6.6944 v -49.0727 H 2226 v -9.5863 h 9.2308 v -11.6976 h -5.2807 v -9.6434 h 19.0437 v 9.6434 h -6.1539 z m 0,9.5863 v 31.2695 l 15.1767,-31.2695 z"
       id="path6755"
       inkscape:connector-curvature="0"
       style="font-style:normal;font-variant:normal;font-weight:normal;font-stretch:normal;font-size:medium;line-height:125%;font-family:Rockwell;-inkscape-font-specification:Rockwell;letter-spacing:0px;word-spacing:0px;fill:#000000;fill-opacity:1;stroke:none;stroke-width:1px;stroke-linecap:butt;stroke-linejoin:miter;stroke-opacity:1" />
    <path
       inkscape:connector-curvature="0"
       id="path6809"
       d="m 2730.8399,2909.2412 h 19.4595 q 0.9979,5.3067 3.7006,8.9586 l -24.0748,49.7004 h -6.6944 v -49.0727 H 2714 v -9.5863 h 9.2308 v -11.6976 h -5.2807 v -9.6434 h 19.0437 v 9.6434 h -6.1539 z m 0,9.5863 v 31.2695 l 15.1767,-31.2695 z"
       style="font-style:normal;font-variant:normal;font-weight:normal;font-stretch:normal;font-size:medium;line-height:125%;font-family:Rockwell;-inkscape-font-specification:Rockwell;letter-spacing:0px;word-spacing:0px;fill:#000000;fill-opacity:1;stroke:none;stroke-width:1px;stroke-linecap:butt;stroke-linejoin:miter;stroke-opacity:1" />
    <path
       inkscape:connector-curvature="0"
       id="path8727"
       d="m 2239.6359,2282.9324 c 1.8864,-1.4881 3.1233,-3.2447 3.9688,-5.6366 0.6482,-1.834 0.7259,-2.6795 0.7527,-8.1868 l 0.029,-6.1415 -1.0238,-0.097 c -1.4645,-0.1391 -2.8518,0.6688 -5.2832,3.0766 -3.1304,3.0999 -5.5237,3.9772 -8.6377,3.1663 -1.8328,-0.4772 -4.6087,-3.1564 -5.1123,-4.9339 -0.4392,-1.5504 -0.4392,-4.0228 0,-5.5732 0.5036,-1.7775 3.2795,-4.4567 5.1123,-4.9339 3.114,-0.8109 5.5073,0.066 8.6377,3.1663 2.4314,2.4078 3.8187,3.2157 5.2832,3.0767 1.0198,-0.097 1.0237,-0.1042 0.9915,-1.8353 -0.04,-2.1153 -0.8206,-3.9321 -3.1931,-7.427 -2.1634,-3.1871 -2.7189,-4.661 -2.7189,-7.2136 0,-2.5086 0.5646,-3.8096 2.3554,-5.4276 2.9684,-2.682 7.4228,-2.682 10.3912,0 1.7908,1.618 2.3554,2.919 2.3554,5.4276 0,2.5526 -0.5556,4.0265 -2.719,7.2136 -2.3725,3.4949 -3.1536,5.3117 -3.193,7.427 -0.032,1.7311 -0.028,1.7384 0.9915,1.8353 1.4644,0.139 2.8518,-0.6689 5.2832,-3.0767 2.301,-2.2785 3.8515,-3.1726 5.8936,-3.3982 2.2696,-0.2507 4.0067,0.4265 5.8498,2.2808 1.8118,1.8227 2.3498,3.1213 2.3498,5.6716 0,2.5503 -0.538,3.8489 -2.3498,5.6716 -1.8431,1.8543 -3.5802,2.5315 -5.8498,2.2808 -2.0421,-0.2256 -3.5926,-1.1197 -5.8936,-3.3982 -2.4314,-2.4078 -3.8188,-3.2157 -5.2832,-3.0766 l -1.0239,0.097 0.029,6.1415 c 0.026,5.5073 0.1045,6.3528 0.7528,8.1868 0.8455,2.3919 2.0823,4.1485 3.9687,5.6366 l 1.3538,1.0678 -1.1246,-0.2204 c -2.9691,-0.5818 -4.8205,-0.8093 -6.5871,-0.8093 -1.7666,0 -3.6181,0.2275 -6.5871,0.8093 l -1.1246,0.2204 1.3537,-1.0678 z"
       style="fill:#0a0a0a" />
    <path
       style="fill:#0a0a0a"
       d="m 2727.6359,2282.9324 c 1.8864,-1.4881 3.1233,-3.2447 3.9688,-5.6366 0.6482,-1.834 0.7259,-2.6795 0.7527,-8.1868 l 0.029,-6.1415 -1.0238,-0.097 c -1.4645,-0.1391 -2.8518,0.6688 -5.2832,3.0766 -3.1304,3.0999 -5.5237,3.9772 -8.6377,3.1663 -1.8328,-0.4772 -4.6087,-3.1564 -5.1123,-4.9339 -0.4392,-1.5504 -0.4392,-4.0228 0,-5.5732 0.5036,-1.7775 3.2795,-4.4567 5.1123,-4.9339 3.114,-0.8109 5.5073,0.066 8.6377,3.1663 2.4314,2.4078 3.8187,3.2157 5.2832,3.0767 1.0198,-0.097 1.0237,-0.1042 0.9915,-1.8353 -0.04,-2.1153 -0.8206,-3.9321 -3.1931,-7.427 -2.1634,-3.1871 -2.7189,-4.661 -2.7189,-7.2136 0,-2.5086 0.5646,-3.8096 2.3554,-5.4276 2.9684,-2.682 7.4228,-2.682 10.3912,0 1.7908,1.618 2.3554,2.919 2.3554,5.4276 0,2.5526 -0.5556,4.0265 -2.719,7.2136 -2.3725,3.4949 -3.1536,5.3117 -3.193,7.427 -0.032,1.7311 -0.028,1.7384 0.9915,1.8353 1.4644,0.139 2.8518,-0.6689 5.2832,-3.0767 2.301,-2.2785 3.8515,-3.1726 5.8936,-3.3982 2.2696,-0.2507 4.0067,0.4265 5.8498,2.2808 1.8118,1.8227 2.3498,3.1213 2.3498,5.6716 0,2.5503 -0.538,3.8489 -2.3498,5.6716 -1.8431,1.8543 -3.5802,2.5315 -5.8498,2.2808 -2.0421,-0.2256 -3.5926,-1.1197 -5.8936,-3.3982 -2.4314,-2.4078 -3.8188,-3.2157 -5.2832,-3.0766 l -1.0239,0.097 0.029,6.1415 c 0.026,5.5073 0.1045,6.3528 0.7528,8.1868 0.8455,2.3919 2.0823,4.1485 3.9687,5.6366 l 1.3538,1.0678 -1.1246,-0.2204 c -2.9691,-0.5818 -4.8205,-0.8093 -6.5871,-0.8093 -1.7666,0 -3.6181,0.2275 -6.5871,0.8093 l -1.1246,0.2204 1.3537,-1.0678 z"
       id="path8729"
       inkscape:connector-curvature="0" />
    <path
       style="fill:#0a0a0a"
       d="m 2239.6359,2817.0682 c 1.8864,1.4881 3.1233,3.2447 3.9688,5.6366 0.6482,1.834 0.7259,2.6795 0.7527,8.1868 l 0.029,6.1415 -1.0238,0.097 c -1.4645,0.1391 -2.8518,-0.6688 -5.2832,-3.0766 -3.1304,-3.0999 -5.5237,-3.9772 -8.6377,-3.1663 -1.8328,0.4772 -4.6087,3.1564 -5.1123,4.9339 -0.4392,1.5504 -0.4392,4.0228 0,5.5732 0.5036,1.7775 3.2795,4.4567 5.1123,4.9339 3.114,0.8109 5.5073,-0.066 8.6377,-3.1663 2.4314,-2.4078 3.8187,-3.2157 5.2832,-3.0767 1.0198,0.097 1.0237,0.1042 0.9915,1.8353 -0.04,2.1153 -0.8206,3.9321 -3.1931,7.427 -2.1634,3.1871 -2.7189,4.661 -2.7189,7.2136 0,2.5086 0.5646,3.8096 2.3554,5.4276 2.9684,2.682 7.4228,2.682 10.3912,0 1.7908,-1.618 2.3554,-2.919 2.3554,-5.4276 0,-2.5526 -0.5556,-4.0265 -2.719,-7.2136 -2.3725,-3.4949 -3.1536,-5.3117 -3.193,-7.427 -0.032,-1.7311 -0.028,-1.7384 0.9915,-1.8353 1.4644,-0.139 2.8518,0.6689 5.2832,3.0767 2.301,2.2785 3.8515,3.1726 5.8936,3.3982 2.2696,0.2507 4.0067,-0.4265 5.8498,-2.2808 1.8118,-1.8227 2.3498,-3.1213 2.3498,-5.6716 0,-2.5503 -0.538,-3.8489 -2.3498,-5.6716 -1.8431,-1.8543 -3.5802,-2.5315 -5.8498,-2.2808 -2.0421,0.2256 -3.5926,1.1197 -5.8936,3.3982 -2.4314,2.4078 -3.8188,3.2157 -5.2832,3.0766 l -1.0239,-0.097 0.029,-6.1415 c 0.026,-5.5073 0.1045,-6.3528 0.7528,-8.1868 0.8455,-2.3919 2.0823,-4.1485 3.9687,-5.6366 l 1.3538,-1.0678 -1.1246,0.2204 c -2.9691,0.5818 -4.8205,0.8093 -6.5871,0.8093 -1.7666,0 -3.6181,-0.2275 -6.5871,-0.8093 l -1.1246,-0.2204 1.3537,1.0678 z"
       id="path8779"
       inkscape:connector-curvature="0" />
    <path
       inkscape:connector-curvature="0"
       id="path8781"
       d="m 2727.6359,2817.0682 c 1.8864,1.4881 3.1233,3.2447 3.9688,5.6366 0.6482,1.834 0.7259,2.6795 0.7527,8.1868 l 0.029,6.1415 -1.0238,0.097 c -1.4645,0.1391 -2.8518,-0.6688 -5.2832,-3.0766 -3.1304,-3.0999 -5.5237,-3.9772 -8.6377,-3.1663 -1.8328,0.4772 -4.6087,3.1564 -5.1123,4.9339 -0.4392,1.5504 -0.4392,4.0228 0,5.5732 0.5036,1.7775 3.2795,4.4567 5.1123,4.9339 3.114,0.8109 5.5073,-0.066 8.6377,-3.1663 2.4314,-2.4078 3.8187,-3.2157 5.2832,-3.0767 1.0198,0.097 1.0237,0.1042 0.9915,1.8353 -0.04,2.1153 -0.8206,3.9321 -3.1931,7.427 -2.1634,3.1871 -2.7189,4.661 -2.7189,7.2136 0,2.5086 0.5646,3.8096 2.3554,5.4276 2.9684,2.682 7.4228,2.682 10.3912,0 1.7908,-1.618 2.3554,-2.919 2.3554,-5.4276 0,-2.5526 -0.5556,-4.0265 -2.719,-7.2136 -2.3725,-3.4949 -3.1536,-5.3117 -3.193,-7.427 -0.032,-1.7311 -0.028,-1.7384 0.9915,-1.8353 1.4644,-0.139 2.8518,0.6689 5.2832,3.0767 2.301,2.2785 3.8515,3.1726 5.8936,3.3982 2.2696,0.2507 4.0067,-0.4265 5.8498,-2.2808 1.8118,-1.8227 2.3498,-3.1213 2.3498,-5.6716 0,-2.5503 -0.538,-3.8489 -2.3498,-5.6716 -1.8431,-1.8543 -3.5802,-2.5315 -5.8498,-2.2808 -2.0421,0.2256 -3.5926,1.1197 -5.8936,3.3982 -2.4314,2.4078 -3.8188,3.2157 -5.2832,3.0766 l -1.0239,-0.097 0.029,-6.1415 c 0.026,-5.5073 0.1045,-6.3528 0.7528,-8.1868 0.8455,-2.3919 2.0823,-4.1485 3.9687,-5.6366 l 1.3538,-1.0678 -1.1246,0.2204 c -2.9691,0.5818 -4.8205,0.8093 -6.5871,0.8093 -1.7666,0 -3.6181,-0.2275 -6.5871,-0.8093 l -1.1246,-0.2204 1.3537,1.0678 z"
       style="fill:#0a0a0a" />
    <path
       inkscape:connector-curvature="0"
       id="path6409-8"
       d="m 2347.7983,2309.2416 c 4.802,-3.8442 7.9502,-8.3819 10.1024,-14.5612 1.65,-4.7378 1.8479,-6.9219 1.9161,-21.1491 l 0.076,-15.8657 -2.6061,-0.2511 c -3.7281,-0.3591 -7.2593,1.7278 -13.4485,7.948 -7.9681,8.008 -14.0603,10.2744 -21.9867,8.1797 -4.6651,-1.2328 -11.7312,-8.154 -13.013,-12.7461 -1.118,-4.005 -1.118,-10.3922 0,-14.3972 1.2818,-4.5921 8.3479,-11.5132 13.013,-12.7461 7.9264,-2.0947 14.0186,0.1718 21.9867,8.1797 6.1892,6.2202 9.7204,8.3072 13.4485,7.948 2.5957,-0.2501 2.6058,-0.269 2.5237,-4.7411 -0.1006,-5.4645 -2.0886,-10.1579 -8.1277,-19.1865 -5.507,-8.2332 -6.9212,-12.0409 -6.9212,-18.6349 0,-6.4806 1.4371,-9.8416 5.9957,-14.0215 7.556,-6.9284 18.8943,-6.9284 26.4502,0 4.5586,4.1799 5.9958,7.5409 5.9958,14.0215 0,6.594 -1.4143,10.4017 -6.9212,18.6349 -6.0391,9.0286 -8.0273,13.722 -8.1276,19.1865 -0.082,4.4721 -0.072,4.491 2.5236,4.7411 3.728,0.3592 7.2592,-1.7278 13.4485,-7.948 5.8569,-5.8862 9.8037,-8.1958 15.0016,-8.7786 5.7775,-0.6478 10.1991,1.1017 14.8907,5.8919 4.6117,4.7088 5.9812,8.0634 5.9812,14.6517 0,6.5883 -1.3695,9.943 -5.9812,14.6517 -4.6916,4.7902 -9.1132,6.5397 -14.8907,5.8919 -5.1979,-0.5828 -9.1447,-2.8924 -15.0016,-8.7786 -6.1893,-6.2202 -9.7205,-8.3071 -13.4485,-7.948 l -2.6062,0.2511 0.076,15.8657 c 0.068,14.2272 0.2661,16.4113 1.9163,21.1491 2.1521,6.1793 5.3003,10.717 10.1022,14.5612 l 3.4459,2.7586 -2.8627,-0.5693 c -7.5575,-1.5031 -12.2704,-2.0907 -16.7672,-2.0907 -4.4966,0 -9.2096,0.5876 -16.767,2.0907 l -2.8627,0.5693 z"
       style="fill:#0a0a0a" />
    <path
       style="fill:#0a0a0a"
       d="m 2599.7983,2309.2416 c 4.802,-3.8442 7.9502,-8.3819 10.1024,-14.5612 1.65,-4.7378 1.8479,-6.9219 1.9161,-21.1491 l 0.076,-15.8657 -2.6061,-0.2511 c -3.7281,-0.3591 -7.2593,1.7278 -13.4485,7.948 -7.9681,8.008 -14.0603,10.2744 -21.9867,8.1797 -4.6651,-1.2328 -11.7312,-8.154 -13.013,-12.7461 -1.118,-4.005 -1.118,-10.3922 0,-14.3972 1.2818,-4.5921 8.3479,-11.5132 13.013,-12.7461 7.9264,-2.0947 14.0186,0.1718 21.9867,8.1797 6.1892,6.2202 9.7204,8.3072 13.4485,7.948 2.5957,-0.2501 2.6058,-0.269 2.5237,-4.7411 -0.1006,-5.4645 -2.0886,-10.1579 -8.1277,-19.1865 -5.507,-8.2332 -6.9212,-12.0409 -6.9212,-18.6349 0,-6.4806 1.4371,-9.8416 5.9957,-14.0215 7.556,-6.9284 18.8943,-6.9284 26.4502,0 4.5586,4.1799 5.9958,7.5409 5.9958,14.0215 0,6.594 -1.4143,10.4017 -6.9212,18.6349 -6.0391,9.0286 -8.0273,13.722 -8.1276,19.1865 -0.082,4.4721 -0.072,4.491 2.5236,4.7411 3.728,0.3592 7.2592,-1.7278 13.4485,-7.948 5.8569,-5.8862 9.8037,-8.1958 15.0016,-8.7786 5.7775,-0.6478 10.1991,1.1017 14.8907,5.8919 4.6117,4.7088 5.9812,8.0634 5.9812,14.6517 0,6.5883 -1.3695,9.943 -5.9812,14.6517 -4.6916,4.7902 -9.1132,6.5397 -14.8907,5.8919 -5.1979,-0.5828 -9.1447,-2.8924 -15.0016,-8.7786 -6.1893,-6.2202 -9.7205,-8.3071 -13.4485,-7.948 l -2.6062,0.2511 0.076,15.8657 c 0.068,14.2272 0.2661,16.4113 1.9163,21.1491 2.1521,6.1793 5.3003,10.717 10.1022,14.5612 l 3.4459,2.7586 -2.8627,-0.5693 c -7.5575,-1.5031 -12.2704,-2.0907 -16.7672,-2.0907 -4.4966,0 -9.2096,0.5876 -16.767,2.0907 l -2.8627,0.5693 z"
       id="path6411-4"
       inkscape:connector-curvature="0" />
    <path
       style="fill:#0a0a0a"
       d="m 2347.7983,2790.7588 c 4.802,3.8442 7.9502,8.3819 10.1024,14.5612 1.65,4.7378 1.8479,6.9219 1.9161,21.1491 l 0.076,15.8657 -2.6061,0.2511 c -3.7281,0.3591 -7.2593,-1.7278 -13.4485,-7.948 -7.9681,-8.008 -14.0603,-10.2744 -21.9867,-8.1797 -4.6651,1.2328 -11.7312,8.154 -13.013,12.7461 -1.118,4.005 -1.118,10.3922 0,14.3972 1.2818,4.5921 8.3479,11.5132 13.013,12.7461 7.9264,2.0947 14.0186,-0.1718 21.9867,-8.1797 6.1892,-6.2202 9.7204,-8.3072 13.4485,-7.948 2.5957,0.2501 2.6058,0.269 2.5237,4.7411 -0.1006,5.4645 -2.0886,10.1579 -8.1277,19.1865 -5.507,8.2332 -6.9212,12.0409 -6.9212,18.6349 0,6.4806 1.4371,9.8416 5.9957,14.0215 7.556,6.9284 18.8943,6.9284 26.4502,0 4.5586,-4.1799 5.9958,-7.5409 5.9958,-14.0215 0,-6.594 -1.4143,-10.4017 -6.9212,-18.6349 -6.0391,-9.0286 -8.0273,-13.722 -8.1276,-19.1865 -0.082,-4.4721 -0.072,-4.491 2.5236,-4.7411 3.728,-0.3592 7.2592,1.7278 13.4485,7.948 5.8569,5.8862 9.8037,8.1958 15.0016,8.7786 5.7775,0.6478 10.1991,-1.1017 14.8907,-5.8919 4.6117,-4.7088 5.9812,-8.0634 5.9812,-14.6517 0,-6.5883 -1.3695,-9.943 -5.9812,-14.6517 -4.6916,-4.7902 -9.1132,-6.5397 -14.8907,-5.8919 -5.1979,0.5828 -9.1447,2.8924 -15.0016,8.7786 -6.1893,6.2202 -9.7205,8.3071 -13.4485,7.948 l -2.6062,-0.2511 0.076,-15.8657 c 0.068,-14.2272 0.2661,-16.4113 1.9163,-21.1491 2.1521,-6.1793 5.3003,-10.717 10.1022,-14.5612 l 3.4459,-2.7586 -2.8627,0.5693 c -7.5575,1.5031 -12.2704,2.0907 -16.7672,2.0907 -4.4966,0 -9.2096,-0.5876 -16.767,-2.0907 l -2.8627,-0.5693 z"
       id="path6416"
       inkscape:connector-curvature="0" />
    <path
       inkscape:connector-curvature="0"
       id="path6419-8"
       d="m 2599.7983,2790.7588 c 4.802,3.8442 7.9502,8.3819 10.1024,14.5612 1.65,4.7378 1.8479,6.9219 1.9161,21.1491 l 0.076,15.8657 -2.6061,0.2511 c -3.7281,0.3591 -7.2593,-1.7278 -13.4485,-7.948 -7.9681,-8.008 -14.0603,-10.2744 -21.9867,-8.1797 -4.6651,1.2328 -11.7312,8.154 -13.013,12.7461 -1.118,4.005 -1.118,10.3922 0,14.3972 1.2818,4.5921 8.3479,11.5132 13.013,12.7461 7.9264,2.0947 14.0186,-0.1718 21.9867,-8.1797 6.1892,-6.2202 9.7204,-8.3072 13.4485,-7.948 2.5957,0.2501 2.6058,0.269 2.5237,4.7411 -0.1006,5.4645 -2.0886,10.1579 -8.1277,19.1865 -5.507,8.2332 -6.9212,12.0409 -6.9212,18.6349 0,6.4806 1.4371,9.8416 5.9957,14.0215 7.556,6.9284 18.8943,6.9284 26.4502,0 4.5586,-4.1799 5.9958,-7.5409 5.9958,-14.0215 0,-6.594 -1.4143,-10.4017 -6.9212,-18.6349 -6.0391,-9.0286 -8.0273,-13.722 -8.1276,-19.1865 -0.082,-4.4721 -0.072,-4.491 2.5236,-4.7411 3.728,-0.3592 7.2592,1.7278 13.4485,7.948 5.8569,5.8862 9.8037,8.1958 15.0016,8.7786 5.7775,0.6478 10.1991,-1.1017 14.8907,-5.8919 4.6117,-4.7088 5.9812,-8.0634 5.9812,-14.6517 0,-6.5883 -1.3695,-9.943 -5.9812,-14.6517 -4.6916,-4.7902 -9.1132,-6.5397 -14.8907,-5.8919 -5.1979,0.5828 -9.1447,2.8924 -15.0016,8.7786 -6.1893,6.2202 -9.7205,8.3071 -13.4485,7.948 l -2.6062,-0.2511 0.076,-15.8657 c 0.068,-14.2272 0.2661,-16.4113 1.9163,-21.1491 2.1521,-6.1793 5.3003,-10.717 10.1022,-14.5612 l 3.4459,-2.7586 -2.8627,0.5693 c -7.5575,1.5031 -12.2704,2.0907 -16.7672,2.0907 -4.4966,0 -9.2096,-0.5876 -16.767,-2.0907 l -2.8627,-0.5693 z"
       style="fill:#0a0a0a" />
    <path
       style="fill:#b7b772"
       d="m 2278.608,2969.5383 c -0.347,-0.3672 -0.632,-38.9588 -0.632,-85.7589 0,-82.2583 -0.06,-85.1695 -1.802,-87.4482 -1.767,-2.3087 -2.209,-2.3674 -21.489,-2.8564 L 2235,2792.9756 v -243.1243 -243.1244 l 19.568,-0.4992 c 17.134,-0.4371 19.777,-0.721 21.252,-2.282 1.582,-1.6748 1.713,-6.9885 2.156,-87.8642 L 2278.449,2130 h 212.051 212.051 l 0.472,86.0815 c 0.444,80.8757 0.575,86.1894 2.157,87.8642 1.475,1.561 4.117,1.8449 21.252,2.282 l 19.568,0.4992 v 243.1244 243.1243 l -19.568,0.4992 c -17.135,0.4372 -19.777,0.7211 -21.252,2.282 -1.582,1.6749 -1.713,6.9885 -2.157,87.8642 l -0.472,86.0816 -211.655,0.2518 c -116.411,0.1384 -211.939,-0.049 -212.288,-0.4161 z m 420.641,-85.9527 c 0,-81.6793 0.05,-83.6964 1.88,-86.8749 3.8,-6.5887 6.015,-7.2218 25.272,-7.226 h 17.237 V 2549.855 2310.2252 h -17.237 c -19.257,0 -21.472,-0.6373 -25.272,-7.2259 -1.834,-3.1786 -1.877,-5.1956 -1.88,-86.8749 v -83.6206 h -208.745 -208.745 v 83.6208 c 0,81.6794 -0.05,83.6964 -1.88,86.875 -3.801,6.5886 -6.015,7.2217 -25.272,7.2259 h -17.238 v 239.6297 239.6298 h 17.238 c 19.257,0 21.471,0.6373 25.272,7.226 1.833,3.1785 1.877,5.1955 1.88,86.8749 v 83.6205 h 208.745 208.745 z"
       id="path10123"
       inkscape:connector-curvature="0" />
    <path
       inkscape:connector-curvature="0"
       id="path10151"
       d="m 2281.9095,2881.8151 -0.4195,-84.9425 -4.2875,-3.6872 c -3.9919,-3.433 -5.4932,-3.6872 -21.7754,-3.6872 h -17.488 v -239.1475 -239.1475 l 14.135,-0.01 c 7.7742,0 16.7124,-0.7243 19.8628,-1.5992 10.59,-2.9404 10.3171,-0.4589 10.3171,-93.8219 v -83.3573 h 207.8215 207.8215 v 41.01 c 0,22.5556 0.4566,60.8127 1.0148,85.0158 1.2736,55.2307 -0.5851,51.5193 26.2804,52.4772 l 18.5477,0.6613 v 238.9591 238.9592 h -18.4066 c -27.1103,0 -25.1527,-3.7876 -26.4189,51.117 -0.5596,24.2673 -1.0174,62.5769 -1.0174,85.1324 v 41.0101 h -207.784 -207.7839 l -0.4196,-84.9426 z m 93.1553,27.4676 c 5.6963,-3.6067 8.342,-9.1261 8.2789,-17.2712 -0.048,-6.199 -1.3408,-9.7875 -7.0234,-19.4952 -7.1662,-12.2419 -9.2611,-21.8942 -4.7518,-21.8942 1.217,0 6.4774,3.5491 11.6898,7.8868 7.7647,6.4619 10.7713,8.0112 16.6409,8.5752 6.3695,0.6121 7.7803,0.1472 12.7226,-4.1923 12.1991,-10.7109 9.7179,-30.1968 -4.6073,-36.1822 -7.8253,-3.2696 -14.3945,-1.296 -24.1756,7.2631 -4.7018,4.1145 -9.884,7.4808 -11.516,7.4808 -2.7498,0 -2.9672,-1.1795 -2.9672,-16.0941 0,-17.9184 1.8872,-24.5092 9.1748,-32.041 l 4.4357,-4.5843 h -19.4592 -19.4593 l 4.4669,3.7586 c 7.7275,6.5022 10.073,14.0503 10.1108,32.5369 0.031,15.3268 -0.1677,16.4271 -2.9716,16.4271 -1.6529,0 -6.54,-3.1395 -10.8604,-6.9765 -4.3203,-3.8371 -9.6653,-7.6648 -11.8778,-8.506 -9.4331,-3.5864 -21.8661,3.4898 -24.7139,14.0659 -4.5689,16.9673 12.2169,33.2025 26.4902,25.6214 1.8357,-0.975 7.0109,-4.7571 11.5003,-8.4045 4.4895,-3.6475 9.1311,-6.6317 10.3147,-6.6317 4.3863,0 2.3181,9.7129 -4.5759,21.4899 -8.8707,15.1538 -9.814,25.3882 -3.078,33.3935 6.3709,7.5713 17.6517,9.1969 26.2118,3.7771 v -1e-4 z m 246.711,2.4102 c 8.5242,-2.3676 13.4691,-9.1771 13.4691,-18.5481 0,-6.2028 -1.3154,-10.0832 -6.8764,-20.285 -6.9732,-12.7925 -8.9771,-22.2377 -4.718,-22.2377 1.1872,0 6.4006,3.5446 11.5853,7.8768 7.8817,6.5858 10.6563,7.9949 16.9293,8.5977 7.1157,0.6837 7.8186,0.405 13.6284,-5.4049 5.7194,-5.7193 6.1258,-6.7049 6.1258,-14.8562 0,-10.278 -3.2471,-15.8988 -11.427,-19.7804 -7.8123,-3.7072 -14.2314,-1.9105 -24.6518,6.9003 -13.4333,11.3583 -14.3485,10.8101 -14.3485,-8.596 0,-17.9184 1.8872,-24.5092 9.1749,-32.041 l 4.4356,-4.5843 h -19.4592 -19.4592 l 4.1303,3.4754 c 7.8803,6.6307 10.4809,14.7992 10.4809,32.9204 0,15.368 -0.1814,16.3266 -3.0903,16.3266 -1.6997,0 -5.9975,-2.6585 -9.5506,-5.9078 -3.5532,-3.2493 -8.7787,-7.0922 -11.6123,-8.5398 -13.8159,-7.058 -29.7626,6.8985 -26.944,23.5813 1.4409,8.5287 10.7641,16.844 18.8856,16.844 5.8579,0 7.3146,-0.7945 21.7134,-11.8427 8.2995,-6.3682 10.5982,-6.3578 10.5982,0.048 0,3.2465 -2.5401,9.2829 -7.2039,17.1197 -6.1431,10.3225 -7.2039,13.2905 -7.2039,20.1556 0,6.8183 0.6846,8.7652 4.4723,12.7187 3.644,3.8035 8.9829,6.5602 14.5198,7.4971 0.4202,0.071 3.2985,-0.5746 6.3962,-1.4349 z m -263.053,-601.2991 c 4.5874,-0.501 11.7784,-0.2368 15.98,0.5872 4.2016,0.8239 7.9506,1.1867 8.331,0.8063 0.3804,-0.3804 -1.1667,-2.4148 -3.438,-4.5208 -8.1748,-7.5802 -10.2401,-14.1706 -10.2401,-32.6768 0,-13.2824 0.4461,-16.87 2.0978,-16.87 1.1538,0 6.7119,3.782 12.3513,8.4045 8.9657,7.3491 11.0944,8.4046 16.9502,8.4046 5.3016,0 7.8144,-0.9813 12.0612,-4.71 12.0727,-10.6 9.6686,-28.9616 -4.6838,-35.7723 -7.5576,-3.5863 -14.949,-1.3197 -25.1021,7.6977 -4.2153,3.7438 -9.1071,6.8069 -10.8706,6.8069 -2.8404,0 -3.116,-0.6746 -2.4137,-5.91 0.4359,-3.2505 3.6209,-10.5992 7.0776,-16.3306 5.4197,-8.9859 6.285,-11.6274 6.285,-19.1861 0,-7.7269 -0.5503,-9.3157 -4.6438,-13.4092 -8.091,-8.0911 -20.7717,-8.1433 -28.7963,-0.1187 -7.8847,7.8847 -7.2004,18.6709 2.1453,33.8121 3.1001,5.0226 5.9991,11.8344 6.4421,15.1373 0.7157,5.3362 0.4482,6.0052 -2.4009,6.0052 -1.7635,0 -6.6553,-3.0631 -10.8707,-6.8069 -4.2153,-3.7438 -10.3764,-7.6196 -13.6914,-8.6128 -5.2331,-1.5678 -6.7855,-1.4122 -11.7834,1.1815 -8.9125,4.6252 -11.9639,9.7648 -11.8174,19.9044 0.1167,8.0688 0.5331,9.0127 6.3854,14.4716 5.3146,4.9574 7.2896,5.8399 13.0698,5.8399 5.992,0 8.0397,-1.0087 17.0626,-8.4046 5.6393,-4.6225 11.1974,-8.4045 12.3512,-8.4045 1.6517,0 2.0979,3.5876 2.0979,16.87 0,18.8821 -1.9355,24.7648 -11.0626,33.6242 -4.8635,4.7209 -4.8897,4.8155 -1.0984,3.9636 2.1363,-0.4801 7.6374,-1.2827 12.2248,-1.7837 z m 252.1364,0 c 4.5873,-0.501 11.7783,-0.2368 15.9799,0.5872 4.2017,0.8239 7.8955,1.2418 8.2087,0.9286 0.3131,-0.3131 -1.6756,-2.8142 -4.4194,-5.558 -7.64,-7.64 -9.1364,-12.844 -9.1364,-31.7737 0,-19.3194 0.7747,-20.2065 10.3103,-11.8062 11.7423,10.3442 14.3142,11.7571 21.4016,11.7571 5.9198,0 7.6559,-0.8058 12.7828,-5.9326 5.3846,-5.3846 5.9326,-6.6736 5.9326,-13.9546 0,-9.83 -3.9904,-16.9601 -11.4812,-20.5147 -7.8526,-3.7263 -14.3905,-1.8707 -24.4628,6.9434 -4.7018,4.1144 -9.884,7.4808 -11.516,7.4808 -5.2735,0 -3.6904,-8.6636 3.9092,-21.3934 5.8938,-9.8725 6.8443,-12.6368 6.8592,-19.9475 0.015,-7.6459 -0.4945,-8.9828 -5.1463,-13.4915 -6.5445,-6.3432 -14.9245,-7.7795 -23.008,-3.9437 -13.1344,6.2327 -14.1982,17.8211 -3.446,37.5377 11.6359,21.337 8.6907,27.5427 -6.7974,14.3223 -10.8699,-9.2784 -17.4669,-11.2248 -25.1354,-7.416 -8.7652,4.3536 -12.1065,9.9153 -12.0062,19.985 0.079,7.9288 0.495,8.8598 6.4353,14.4008 4.9417,4.6096 7.5729,5.924 11.8588,5.924 6.6312,0 9.45,-1.4169 20.1389,-10.1231 12.2056,-9.9417 12.6739,-9.594 12.6739,9.4081 0,18.5448 -1.8246,24.408 -10.3893,33.3845 -5.3526,5.6099 -5.4475,5.8789 -1.7716,5.017 2.1362,-0.5008 7.6374,-1.3205 12.2248,-1.8215 z"
       style="fill:#feefd3;fill-opacity:1;stroke:#fffecd;stroke-width:0.541452;stroke-miterlimit:4;stroke-dasharray:none;stroke-opacity:1" />
  </g>
</svg>
