<?xml version="1.0" encoding="UTF-8" standalone="no"?>
<!-- Created with Inkscape (http://www.inkscape.org/) -->

<svg
   id="svg10047"
   height="122.94574"
   width="78.999786"
   version="1.1"
   viewBox="0 0 78.999786 122.94574"
   inkscape:version="0.91 r13725"
   sodipodi:docname="kaiser-jubilaum.svgz"
   xmlns:inkscape="http://www.inkscape.org/namespaces/inkscape"
   xmlns:sodipodi="http://sodipodi.sourceforge.net/DTD/sodipodi-0.dtd"
   xmlns="http://www.w3.org/2000/svg"
   xmlns:svg="http://www.w3.org/2000/svg"
   xmlns:rdf="http://www.w3.org/1999/02/22-rdf-syntax-ns#"
   xmlns:cc="http://creativecommons.org/ns#"
   xmlns:dc="http://purl.org/dc/elements/1.1/">
  <sodipodi:namedview
     pagecolor="#ffffff"
     bordercolor="#666666"
     borderopacity="1"
     objecttolerance="10"
     gridtolerance="10"
     guidetolerance="10"
     inkscape:pageopacity="0"
     inkscape:pageshadow="2"
     inkscape:window-width="1920"
     inkscape:window-height="1016"
     id="namedview1491"
     showgrid="false"
     inkscape:zoom="1.3479675"
     inkscape:cx="513.49999"
     inkscape:cy="307.5"
     inkscape:window-x="0"
     inkscape:window-y="0"
     inkscape:window-maximized="1"
     inkscape:current-layer="svg10047"
     showguides="true"
     inkscape:guide-bbox="true"
     inkscape:snap-grids="true"
     inkscape:showpageshadow="2"
     inkscape:pagecheckerboard="0"
     inkscape:deskcolor="#d1d1d1" />
  <metadata
     id="metadata16869">
    <rdf:RDF>
      <cc:Work
         rdf:about="">
        <dc:format>image/svg+xml</dc:format>
        <dc:type
           rdf:resource="http://purl.org/dc/dcmitype/StillImage" />
        <dc:title />
      </cc:Work>
    </rdf:RDF>
  </metadata>
  <defs
     id="defs10049" />
  <g
     id="club_2"
     transform="matrix(0.13620652,0,0,0.13660647,-108.96522,-286.87359)"
     inkscape:label="#club_2">
    <rect
       width="578.00104"
       height="898.00043"
       rx="48.210754"
       ry="49.888176"
       x="800.99951"
       y="2100.9995"
       id="rect6256"
       style="font-style:normal;font-variant:normal;font-weight:500;font-stretch:normal;font-size:medium;line-height:125%;font-family:Gaelic;-inkscape-font-specification:'Gaelic Medium';letter-spacing:0px;word-spacing:0px;fill:#ffffff;fill-opacity:1;stroke:#000000;stroke-width:1.99898;stroke-linecap:butt;stroke-linejoin:miter;stroke-miterlimit:4;stroke-dasharray:none;stroke-opacity:1" />
    <path
       inkscape:connector-curvature="0"
       id="path6357"
       d="m 866,2183.8615 -0.5765,28.1388 H 826 q 0,-8.153 2.26164,-15.5698 2.30598,-7.4168 6.43015,-12.9653 4.16852,-5.5485 12.68293,-13.4749 5.36585,-5.0389 7.27273,-8.3794 1.90687,-3.397 1.90687,-7.8698 0,-5.4918 -2.7051,-8.9454 -2.7051,-3.5102 -7.45011,-3.5102 -5.54323,0 -8.1153,3.9631 -2.57206,3.9632 -2.57206,13.022 0,2.2647 0.0887,4.3029 h -8.20399 q -0.0443,-2.0382 -0.0443,-3.3405 0,-12.7954 4.74501,-19.9858 4.74502,-7.247 13.92462,-7.247 9.26829,0 14.19068,6.1713 4.96674,6.1712 4.96674,15.1733 0,7.5302 -3.23724,12.8522 -3.23726,5.322 -12.37252,13.5314 -8.86917,8.0397 -11.66296,13.0786 -2.74945,5.0389 -3.19291,8.9456 h 23.23725 l 0.35477,-17.8911 h 7.49446 z"
       style="font-style:normal;font-variant:normal;font-weight:normal;font-stretch:normal;font-size:medium;line-height:125%;font-family:Rockwell;-inkscape-font-specification:Rockwell;letter-spacing:0px;word-spacing:0px;fill:#000000;fill-opacity:1;stroke:none;stroke-width:1px;stroke-linecap:butt;stroke-linejoin:miter;stroke-opacity:1" />
    <path
       d="m 1354,2183.8615 -0.5765,28.1388 H 1314 q 0,-8.153 2.2617,-15.5698 2.3059,-7.4168 6.4301,-12.9653 4.1685,-5.5485 12.683,-13.4749 5.3658,-5.0389 7.2727,-8.3794 1.9069,-3.397 1.9069,-7.8698 0,-5.4918 -2.7052,-8.9454 -2.705,-3.5102 -7.4501,-3.5102 -5.5432,0 -8.1153,3.9631 -2.572,3.9632 -2.572,13.022 0,2.2647 0.089,4.3029 h -8.204 q -0.044,-2.0382 -0.044,-3.3405 0,-12.7954 4.745,-19.9858 4.745,-7.247 13.9246,-7.247 9.2683,0 14.1907,6.1713 4.9667,6.1712 4.9667,15.1733 0,7.5302 -3.2372,12.8522 -3.2373,5.322 -12.3725,13.5314 -8.8692,8.0397 -11.663,13.0786 -2.7494,5.0389 -3.1929,8.9456 h 23.2373 l 0.3547,-17.8911 h 7.4945 z"
       id="path6370-0"
       inkscape:connector-curvature="0"
       style="font-style:normal;font-variant:normal;font-weight:normal;font-stretch:normal;font-size:medium;line-height:125%;font-family:Rockwell;-inkscape-font-specification:Rockwell;letter-spacing:0px;word-spacing:0px;fill:#000000;fill-opacity:1;stroke:none;stroke-width:1px;stroke-linecap:butt;stroke-linejoin:miter;stroke-opacity:1" />
    <path
       d="m 826.00007,2916.039 0.5765,-28.1388 h 39.4235 q 0,8.153 -2.26164,15.5698 -2.30598,7.4168 -6.43015,12.9653 -4.16852,5.5485 -12.68293,13.4749 -5.36585,5.0389 -7.27273,8.3794 -1.90687,3.397 -1.90687,7.8698 0,5.4918 2.7051,8.9454 2.7051,3.5102 7.45011,3.5102 5.54323,0 8.1153,-3.9631 2.57206,-3.9632 2.57206,-13.022 0,-2.2647 -0.0887,-4.3029 h 8.20399 q 0.0443,2.0382 0.0443,3.3405 0,12.7954 -4.74501,19.9858 -4.74502,7.247 -13.92462,7.247 -9.26829,0 -14.19068,-6.1713 -4.96674,-6.1712 -4.96674,-15.1733 0,-7.5302 3.23724,-12.8522 3.23726,-5.322 12.37252,-13.5314 8.86917,-8.0397 11.66296,-13.0786 2.74945,-5.0389 3.19291,-8.9456 h -23.23725 l -0.35477,17.8911 h -7.49446 z"
       id="path6735"
       inkscape:connector-curvature="0"
       style="font-style:normal;font-variant:normal;font-weight:normal;font-stretch:normal;font-size:medium;line-height:125%;font-family:Rockwell;-inkscape-font-specification:Rockwell;letter-spacing:0px;word-spacing:0px;fill:#000000;fill-opacity:1;stroke:none;stroke-width:1px;stroke-linecap:butt;stroke-linejoin:miter;stroke-opacity:1" />
    <path
       inkscape:connector-curvature="0"
       id="path6743"
       d="m 1314.0001,2916.039 0.5765,-28.1388 h 39.4235 q 0,8.153 -2.2617,15.5698 -2.3059,7.4168 -6.4301,12.9653 -4.1685,5.5485 -12.683,13.4749 -5.3658,5.0389 -7.2727,8.3794 -1.9069,3.397 -1.9069,7.8698 0,5.4918 2.7052,8.9454 2.705,3.5102 7.4501,3.5102 5.5432,0 8.1153,-3.9631 2.572,-3.9632 2.572,-13.022 0,-2.2647 -0.089,-4.3029 h 8.204 q 0.044,2.0382 0.044,3.3405 0,12.7954 -4.745,19.9858 -4.745,7.247 -13.9246,7.247 -9.2683,0 -14.1907,-6.1713 -4.9667,-6.1712 -4.9667,-15.1733 0,-7.5302 3.2372,-12.8522 3.2373,-5.322 12.3725,-13.5314 8.8692,-8.0397 11.663,-13.0786 2.7494,-5.0389 3.1929,-8.9456 h -23.2373 l -0.3547,17.8911 h -7.4945 z"
       style="font-style:normal;font-variant:normal;font-weight:normal;font-stretch:normal;font-size:medium;line-height:125%;font-family:Rockwell;-inkscape-font-specification:Rockwell;letter-spacing:0px;word-spacing:0px;fill:#000000;fill-opacity:1;stroke:none;stroke-width:1px;stroke-linecap:butt;stroke-linejoin:miter;stroke-opacity:1" />
    <path
       style="fill:#0a0a0a"
       d="m 839.6359,2282.9324 c 1.8864,-1.4881 3.1233,-3.2447 3.9688,-5.6366 0.6482,-1.834 0.7259,-2.6795 0.7527,-8.1868 l 0.029,-6.1415 -1.0238,-0.097 c -1.4645,-0.1391 -2.8518,0.6688 -5.2832,3.0766 -3.1304,3.0999 -5.5237,3.9772 -8.6377,3.1663 -1.8328,-0.4772 -4.6087,-3.1564 -5.1123,-4.9339 -0.4392,-1.5504 -0.4392,-4.0228 0,-5.5732 0.5036,-1.7775 3.2795,-4.4567 5.1123,-4.9339 3.114,-0.8109 5.5073,0.066 8.6377,3.1663 2.4314,2.4078 3.8187,3.2157 5.2832,3.0767 1.0198,-0.097 1.0237,-0.1042 0.9915,-1.8353 -0.04,-2.1153 -0.8206,-3.9321 -3.1931,-7.427 -2.1634,-3.1871 -2.7189,-4.661 -2.7189,-7.2136 0,-2.5086 0.5646,-3.8096 2.3554,-5.4276 2.9684,-2.682 7.4228,-2.682 10.3912,0 1.7908,1.618 2.3554,2.919 2.3554,5.4276 0,2.5526 -0.5556,4.0265 -2.719,7.2136 -2.3725,3.4949 -3.1536,5.3117 -3.193,7.427 -0.032,1.7311 -0.028,1.7384 0.9915,1.8353 1.4644,0.139 2.8518,-0.6689 5.2832,-3.0767 2.301,-2.2785 3.8515,-3.1726 5.8936,-3.3982 2.2696,-0.2507 4.0067,0.4265 5.8498,2.2808 1.8118,1.8227 2.3498,3.1213 2.3498,5.6716 0,2.5503 -0.538,3.8489 -2.3498,5.6716 -1.8431,1.8543 -3.5802,2.5315 -5.8498,2.2808 -2.0421,-0.2256 -3.5926,-1.1197 -5.8936,-3.3982 -2.4314,-2.4078 -3.8188,-3.2157 -5.2832,-3.0766 l -1.0239,0.097 0.029,6.1415 c 0.026,5.5073 0.1045,6.3528 0.7528,8.1868 0.8455,2.3919 2.0823,4.1485 3.9687,5.6366 l 1.3538,1.0678 -1.1246,-0.2204 c -2.9691,-0.5818 -4.8205,-0.8093 -6.5871,-0.8093 -1.7666,0 -3.6181,0.2275 -6.5871,0.8093 l -1.1246,0.2204 1.3537,-1.0678 z"
       id="path8735"
       inkscape:connector-curvature="0" />
    <path
       inkscape:connector-curvature="0"
       id="path8737"
       d="m 1327.6359,2282.9324 c 1.8864,-1.4881 3.1233,-3.2447 3.9688,-5.6366 0.6482,-1.834 0.7259,-2.6795 0.7527,-8.1868 l 0.029,-6.1415 -1.0238,-0.097 c -1.4645,-0.1391 -2.8518,0.6688 -5.2832,3.0766 -3.1304,3.0999 -5.5237,3.9772 -8.6377,3.1663 -1.8328,-0.4772 -4.6087,-3.1564 -5.1123,-4.9339 -0.4392,-1.5504 -0.4392,-4.0228 0,-5.5732 0.5036,-1.7775 3.2795,-4.4567 5.1123,-4.9339 3.114,-0.8109 5.5073,0.066 8.6377,3.1663 2.4314,2.4078 3.8187,3.2157 5.2832,3.0767 1.0198,-0.097 1.0237,-0.1042 0.9915,-1.8353 -0.04,-2.1153 -0.8206,-3.9321 -3.1931,-7.427 -2.1634,-3.1871 -2.7189,-4.661 -2.7189,-7.2136 0,-2.5086 0.5646,-3.8096 2.3554,-5.4276 2.9684,-2.682 7.4228,-2.682 10.3912,0 1.7908,1.618 2.3554,2.919 2.3554,5.4276 0,2.5526 -0.5556,4.0265 -2.719,7.2136 -2.3725,3.4949 -3.1536,5.3117 -3.193,7.427 -0.032,1.7311 -0.028,1.7384 0.9915,1.8353 1.4644,0.139 2.8518,-0.6689 5.2832,-3.0767 2.301,-2.2785 3.8515,-3.1726 5.8936,-3.3982 2.2696,-0.2507 4.0067,0.4265 5.8498,2.2808 1.8118,1.8227 2.3498,3.1213 2.3498,5.6716 0,2.5503 -0.538,3.8489 -2.3498,5.6716 -1.8431,1.8543 -3.5802,2.5315 -5.8498,2.2808 -2.0421,-0.2256 -3.5926,-1.1197 -5.8936,-3.3982 -2.4314,-2.4078 -3.8188,-3.2157 -5.2832,-3.0766 l -1.0239,0.097 0.029,6.1415 c 0.026,5.5073 0.1045,6.3528 0.7528,8.1868 0.8455,2.3919 2.0823,4.1485 3.9687,5.6366 l 1.3538,1.0678 -1.1246,-0.2204 c -2.9691,-0.5818 -4.8205,-0.8093 -6.5871,-0.8093 -1.7666,0 -3.6181,0.2275 -6.5871,0.8093 l -1.1246,0.2204 1.3537,-1.0678 z"
       style="fill:#0a0a0a" />
    <path
       inkscape:connector-curvature="0"
       id="path8787"
       d="m 839.6359,2817.0682 c 1.8864,1.4881 3.1233,3.2447 3.9688,5.6366 0.6482,1.834 0.7259,2.6795 0.7527,8.1868 l 0.029,6.1415 -1.0238,0.097 c -1.4645,0.1391 -2.8518,-0.6688 -5.2832,-3.0766 -3.1304,-3.0999 -5.5237,-3.9772 -8.6377,-3.1663 -1.8328,0.4772 -4.6087,3.1564 -5.1123,4.9339 -0.4392,1.5504 -0.4392,4.0228 0,5.5732 0.5036,1.7775 3.2795,4.4567 5.1123,4.9339 3.114,0.8109 5.5073,-0.066 8.6377,-3.1663 2.4314,-2.4078 3.8187,-3.2157 5.2832,-3.0767 1.0198,0.097 1.0237,0.1042 0.9915,1.8353 -0.04,2.1153 -0.8206,3.9321 -3.1931,7.427 -2.1634,3.1871 -2.7189,4.661 -2.7189,7.2136 0,2.5086 0.5646,3.8096 2.3554,5.4276 2.9684,2.682 7.4228,2.682 10.3912,0 1.7908,-1.618 2.3554,-2.919 2.3554,-5.4276 0,-2.5526 -0.5556,-4.0265 -2.719,-7.2136 -2.3725,-3.4949 -3.1536,-5.3117 -3.193,-7.427 -0.032,-1.7311 -0.028,-1.7384 0.9915,-1.8353 1.4644,-0.139 2.8518,0.6689 5.2832,3.0767 2.301,2.2785 3.8515,3.1726 5.8936,3.3982 2.2696,0.2507 4.0067,-0.4265 5.8498,-2.2808 1.8118,-1.8227 2.3498,-3.1213 2.3498,-5.6716 0,-2.5503 -0.538,-3.8489 -2.3498,-5.6716 -1.8431,-1.8543 -3.5802,-2.5315 -5.8498,-2.2808 -2.0421,0.2256 -3.5926,1.1197 -5.8936,3.3982 -2.4314,2.4078 -3.8188,3.2157 -5.2832,3.0766 l -1.0239,-0.097 0.029,-6.1415 c 0.026,-5.5073 0.1045,-6.3528 0.7528,-8.1868 0.8455,-2.3919 2.0823,-4.1485 3.9687,-5.6366 l 1.3538,-1.0678 -1.1246,0.2204 c -2.9691,0.5818 -4.8205,0.8093 -6.5871,0.8093 -1.7666,0 -3.6181,-0.2275 -6.5871,-0.8093 l -1.1246,-0.2204 1.3537,1.0678 z"
       style="fill:#0a0a0a" />
    <path
       style="fill:#0a0a0a"
       d="m 1327.6359,2817.0682 c 1.8864,1.4881 3.1233,3.2447 3.9688,5.6366 0.6482,1.834 0.7259,2.6795 0.7527,8.1868 l 0.029,6.1415 -1.0238,0.097 c -1.4645,0.1391 -2.8518,-0.6688 -5.2832,-3.0766 -3.1304,-3.0999 -5.5237,-3.9772 -8.6377,-3.1663 -1.8328,0.4772 -4.6087,3.1564 -5.1123,4.9339 -0.4392,1.5504 -0.4392,4.0228 0,5.5732 0.5036,1.7775 3.2795,4.4567 5.1123,4.9339 3.114,0.8109 5.5073,-0.066 8.6377,-3.1663 2.4314,-2.4078 3.8187,-3.2157 5.2832,-3.0767 1.0198,0.097 1.0237,0.1042 0.9915,1.8353 -0.04,2.1153 -0.8206,3.9321 -3.1931,7.427 -2.1634,3.1871 -2.7189,4.661 -2.7189,7.2136 0,2.5086 0.5646,3.8096 2.3554,5.4276 2.9684,2.682 7.4228,2.682 10.3912,0 1.7908,-1.618 2.3554,-2.919 2.3554,-5.4276 0,-2.5526 -0.5556,-4.0265 -2.719,-7.2136 -2.3725,-3.4949 -3.1536,-5.3117 -3.193,-7.427 -0.032,-1.7311 -0.028,-1.7384 0.9915,-1.8353 1.4644,-0.139 2.8518,0.6689 5.2832,3.0767 2.301,2.2785 3.8515,3.1726 5.8936,3.3982 2.2696,0.2507 4.0067,-0.4265 5.8498,-2.2808 1.8118,-1.8227 2.3498,-3.1213 2.3498,-5.6716 0,-2.5503 -0.538,-3.8489 -2.3498,-5.6716 -1.8431,-1.8543 -3.5802,-2.5315 -5.8498,-2.2808 -2.0421,0.2256 -3.5926,1.1197 -5.8936,3.3982 -2.4314,2.4078 -3.8188,3.2157 -5.2832,3.0766 l -1.0239,-0.097 0.029,-6.1415 c 0.026,-5.5073 0.1045,-6.3528 0.7528,-8.1868 0.8455,-2.3919 2.0823,-4.1485 3.9687,-5.6366 l 1.3538,-1.0678 -1.1246,0.2204 c -2.9691,0.5818 -4.8205,0.8093 -6.5871,0.8093 -1.7666,0 -3.6181,-0.2275 -6.5871,-0.8093 l -1.1246,-0.2204 1.3537,1.0678 z"
       id="path8789"
       inkscape:connector-curvature="0" />
    <path
       inkscape:connector-curvature="0"
       id="path6461"
       d="m 1073.7983,2309.2416 c 4.802,-3.8442 7.9502,-8.3819 10.1024,-14.5612 1.65,-4.7378 1.8479,-6.9219 1.9161,-21.1491 l 0.076,-15.8657 -2.6061,-0.2511 c -3.7281,-0.3591 -7.2593,1.7278 -13.4485,7.948 -7.9681,8.008 -14.0603,10.2744 -21.9867,8.1797 -4.6651,-1.2328 -11.7312,-8.154 -13.013,-12.7461 -1.118,-4.005 -1.118,-10.3922 0,-14.3972 1.2818,-4.5921 8.3479,-11.5132 13.013,-12.7461 7.9264,-2.0947 14.0186,0.1718 21.9867,8.1797 6.1892,6.2202 9.7204,8.3072 13.4485,7.948 2.5957,-0.2501 2.6058,-0.269 2.5237,-4.7411 -0.1006,-5.4645 -2.0886,-10.1579 -8.1277,-19.1865 -5.507,-8.2332 -6.9212,-12.0409 -6.9212,-18.6349 0,-6.4806 1.4371,-9.8416 5.9957,-14.0215 7.556,-6.9284 18.8943,-6.9284 26.4502,0 4.5586,4.1799 5.9958,7.5409 5.9958,14.0215 0,6.594 -1.4143,10.4017 -6.9212,18.6349 -6.0391,9.0286 -8.0273,13.722 -8.1276,19.1865 -0.082,4.4721 -0.072,4.491 2.5236,4.7411 3.728,0.3592 7.2592,-1.7278 13.4485,-7.948 5.8569,-5.8862 9.8037,-8.1958 15.0016,-8.7786 5.7775,-0.6478 10.1991,1.1017 14.8907,5.8919 4.6117,4.7088 5.9812,8.0634 5.9812,14.6517 0,6.5883 -1.3695,9.943 -5.9812,14.6517 -4.6916,4.7902 -9.1132,6.5397 -14.8907,5.8919 -5.1979,-0.5828 -9.1447,-2.8924 -15.0016,-8.7786 -6.1893,-6.2202 -9.7205,-8.3071 -13.4485,-7.948 l -2.6062,0.2511 0.076,15.8657 c 0.068,14.2272 0.2661,16.4113 1.9163,21.1491 2.1521,6.1793 5.3003,10.717 10.1022,14.5612 l 3.4459,2.7586 -2.8627,-0.5693 c -7.5575,-1.5031 -12.2704,-2.0907 -16.7672,-2.0907 -4.4966,0 -9.2096,0.5876 -16.767,2.0907 l -2.8627,0.5693 z"
       style="fill:#0a0a0a" />
    <path
       style="fill:#0a0a0a"
       d="m 1073.7983,2790.7588 c 4.802,3.8442 7.9502,8.3819 10.1024,14.5612 1.65,4.7378 1.8479,6.9219 1.9161,21.1491 l 0.076,15.8657 -2.6061,0.2511 c -3.7281,0.3591 -7.2593,-1.7278 -13.4485,-7.948 -7.9681,-8.008 -14.0603,-10.2744 -21.9867,-8.1797 -4.6651,1.2328 -11.7312,8.154 -13.013,12.7461 -1.118,4.005 -1.118,10.3922 0,14.3972 1.2818,4.5921 8.3479,11.5132 13.013,12.7461 7.9264,2.0947 14.0186,-0.1718 21.9867,-8.1797 6.1892,-6.2202 9.7204,-8.3072 13.4485,-7.948 2.5957,0.2501 2.6058,0.269 2.5237,4.7411 -0.1006,5.4645 -2.0886,10.1579 -8.1277,19.1865 -5.507,8.2332 -6.9212,12.0409 -6.9212,18.6349 0,6.4806 1.4371,9.8416 5.9957,14.0215 7.556,6.9284 18.8943,6.9284 26.4502,0 4.5586,-4.1799 5.9958,-7.5409 5.9958,-14.0215 0,-6.594 -1.4143,-10.4017 -6.9212,-18.6349 -6.0391,-9.0286 -8.0273,-13.722 -8.1276,-19.1865 -0.082,-4.4721 -0.072,-4.491 2.5236,-4.7411 3.728,-0.3592 7.2592,1.7278 13.4485,7.948 5.8569,5.8862 9.8037,8.1958 15.0016,8.7786 5.7775,0.6478 10.1991,-1.1017 14.8907,-5.8919 4.6117,-4.7088 5.9812,-8.0634 5.9812,-14.6517 0,-6.5883 -1.3695,-9.943 -5.9812,-14.6517 -4.6916,-4.7902 -9.1132,-6.5397 -14.8907,-5.8919 -5.1979,0.5828 -9.1447,2.8924 -15.0016,8.7786 -6.1893,6.2202 -9.7205,8.3071 -13.4485,7.948 l -2.6062,-0.2511 0.076,-15.8657 c 0.068,-14.2272 0.2661,-16.4113 1.9163,-21.1491 2.1521,-6.1793 5.3003,-10.717 10.1022,-14.5612 l 3.4459,-2.7586 -2.8627,0.5693 c -7.5575,1.5031 -12.2704,2.0907 -16.7672,2.0907 -4.4966,0 -9.2096,-0.5876 -16.767,-2.0907 l -2.8627,-0.5693 z"
       id="path6463-4"
       inkscape:connector-curvature="0" />
    <path
       style="fill:#b7b772"
       d="m 878.608,2969.5383 c -0.347,-0.3672 -0.632,-38.9588 -0.632,-85.7589 0,-82.2583 -0.06,-85.1695 -1.802,-87.4482 -1.767,-2.3087 -2.209,-2.3674 -21.489,-2.8564 L 835,2792.9756 v -243.1243 -243.1244 l 19.568,-0.4992 c 17.134,-0.4371 19.777,-0.721 21.252,-2.282 1.582,-1.6748 1.713,-6.9885 2.156,-87.8642 L 878.449,2130 h 212.051 212.051 l 0.472,86.0815 c 0.444,80.8757 0.575,86.1894 2.157,87.8642 1.475,1.561 4.117,1.8449 21.252,2.282 l 19.568,0.4992 v 243.1244 243.1243 l -19.568,0.4992 c -17.135,0.4372 -19.777,0.7211 -21.252,2.282 -1.582,1.6749 -1.713,6.9885 -2.157,87.8642 l -0.472,86.0816 -211.655,0.2518 c -116.411,0.1384 -211.939,-0.049 -212.288,-0.4161 z m 420.641,-85.9527 c 0,-81.6793 0.05,-83.6964 1.88,-86.8749 3.8,-6.5887 6.015,-7.2218 25.272,-7.226 h 17.237 V 2549.855 2310.2252 h -17.237 c -19.257,0 -21.472,-0.6373 -25.272,-7.2259 -1.834,-3.1786 -1.877,-5.1956 -1.88,-86.8749 v -83.6206 H 1090.504 881.759 v 83.6208 c 0,81.6794 -0.05,83.6964 -1.88,86.875 -3.801,6.5886 -6.015,7.2217 -25.272,7.2259 h -17.238 v 239.6297 239.6298 h 17.238 c 19.257,0 21.471,0.6373 25.272,7.226 1.833,3.1785 1.877,5.1955 1.88,86.8749 v 83.6205 h 208.745 208.745 z"
       id="path10119"
       inkscape:connector-curvature="0" />
    <path
       inkscape:connector-curvature="0"
       id="path10155"
       d="m 882.79345,2893.7909 c -0.0668,-40.1317 -0.59877,-78.7136 -1.18208,-85.7377 -1.47214,-17.727 -2.61493,-18.555 -25.60743,-18.555 H 838.60009 V 2550.543 2311.5877 l 17.63125,-0.6748 c 22.41885,-0.8582 23.81498,-1.9137 25.38821,-19.1948 0.59288,-6.5125 1.12689,-45.0198 1.18669,-85.5717 l 0.10872,-73.7308 h 207.82144 207.8215 l 0.086,82.1353 c 0.062,59.4283 0.5905,83.6139 1.9101,87.4837 2.4062,7.0558 8.1882,8.971 27.4195,9.0823 l 14.8991,0.086 v 239.1475 239.1475 h -17.488 c -16.2819,0 -17.7835,0.2542 -21.7754,3.687 l -4.2875,3.6871 -0.4314,84.9427 -0.4314,84.9427 H 1090.6868 882.91476 l -0.12151,-72.9668 z m 218.23635,15.4918 c 5.6963,-3.6067 8.3421,-9.1261 8.279,-17.2712 -0.048,-6.199 -1.3408,-9.7875 -7.0235,-19.4952 -7.1661,-12.2419 -9.261,-21.8942 -4.7518,-21.8942 1.2171,0 6.4775,3.5491 11.6898,7.8868 7.7648,6.4619 10.7713,8.0112 16.6409,8.5752 6.373,0.6124 7.7794,0.1479 12.7385,-4.2061 12.8287,-11.2637 9.8196,-30.7758 -5.6501,-36.6375 -7.0457,-2.6698 -13.8645,-0.3921 -23.1486,7.7322 -4.7018,4.1145 -9.884,7.4808 -11.516,7.4808 -2.7498,0 -2.9673,-1.1795 -2.9673,-16.0941 0,-17.919 1.8874,-24.5098 9.1756,-32.041 l 4.4363,-4.5843 h -18.9602 -18.9602 l 4.4363,4.5843 c 7.2882,7.5312 9.1755,14.122 9.1755,32.041 0,14.9844 -0.2072,16.0941 -3.0052,16.0941 -1.6528,0 -6.54,-3.1394 -10.8603,-6.9765 -4.3203,-3.837 -9.6654,-7.6647 -11.8779,-8.5059 -9.433,-3.5864 -21.866,3.4898 -24.7139,14.0659 -4.5688,16.9673 12.2169,33.2025 26.4902,25.6214 1.8358,-0.975 7.011,-4.7571 11.5004,-8.4045 4.4894,-3.6475 9.131,-6.6318 10.3147,-6.6318 4.3863,0 2.3181,9.7129 -4.576,21.49 -8.8706,15.1538 -9.814,25.3881 -3.0779,33.3935 6.3708,7.5713 17.6516,9.1969 26.2117,3.7771 z m -16.891,-598.8464 c 4.8894,-0.5181 12.3275,-0.2704 16.5291,0.5504 4.2016,0.8207 7.9505,1.181 8.3309,0.8006 0.3804,-0.3804 -1.1666,-2.4148 -3.4379,-4.5208 -8.1749,-7.5802 -10.2402,-14.1706 -10.2402,-32.6768 0,-13.2824 0.4462,-16.87 2.0979,-16.87 1.1538,0 6.7118,3.782 12.3512,8.4045 8.9657,7.3491 11.0945,8.4046 16.9502,8.4046 5.3059,0 7.8143,-0.9812 12.0771,-4.7239 12.1782,-10.6927 9.7875,-28.8838 -4.6996,-35.7584 -7.5576,-3.5863 -14.9491,-1.3197 -25.1021,7.6977 -4.2154,3.7438 -9.1072,6.8069 -10.8707,6.8069 -2.8491,0 -3.1166,-0.669 -2.4009,-6.0052 0.443,-3.3029 3.3419,-10.1147 6.4421,-15.1373 9.3717,-15.1834 10.0316,-25.9258 2.0809,-33.8765 -7.948,-7.9479 -20.6664,-7.8825 -28.6965,0.1477 -7.5968,7.5968 -6.8654,18.9954 2.1569,33.6127 3.1396,5.0865 6.0708,11.9505 6.5138,15.2534 0.7157,5.3362 0.4482,6.0052 -2.401,6.0052 -1.7635,0 -6.6553,-3.0631 -10.8706,-6.8069 -10.1531,-9.0174 -17.5445,-11.284 -25.1021,-7.6977 -14.3524,6.8107 -16.7565,25.1723 -4.6838,35.7723 4.2468,3.7287 6.7596,4.71 12.0612,4.71 5.8558,0 7.9845,-1.0555 16.9502,-8.4046 5.6394,-4.6225 11.1975,-8.4045 12.3513,-8.4045 1.6552,0 2.094,3.6276 2.0794,17.1911 -0.017,15.5875 -0.3803,17.8242 -3.8977,23.978 -2.1337,3.7328 -5.2198,7.7257 -6.8581,8.8732 -3.446,2.4137 -4.0282,5.699 -0.7897,4.4563 1.2039,-0.462 6.1894,-1.2639 11.0787,-1.782 z"
       style="fill:#feefd3;fill-opacity:1;stroke:#fffecd;stroke-width:0.541452;stroke-miterlimit:4;stroke-dasharray:none;stroke-opacity:1" />
  </g>
</svg>
