<?xml version="1.0" encoding="UTF-8" standalone="no"?>
<!-- Created with Inkscape (http://www.inkscape.org/) -->

<svg
   id="svg10047"
   height="122.94574"
   width="78.999786"
   version="1.1"
   viewBox="0 0 78.999786 122.94574"
   inkscape:version="0.91 r13725"
   sodipodi:docname="kaiser-jubilaum.svgz"
   xmlns:inkscape="http://www.inkscape.org/namespaces/inkscape"
   xmlns:sodipodi="http://sodipodi.sourceforge.net/DTD/sodipodi-0.dtd"
   xmlns="http://www.w3.org/2000/svg"
   xmlns:svg="http://www.w3.org/2000/svg"
   xmlns:rdf="http://www.w3.org/1999/02/22-rdf-syntax-ns#"
   xmlns:cc="http://creativecommons.org/ns#"
   xmlns:dc="http://purl.org/dc/elements/1.1/">
  <sodipodi:namedview
     pagecolor="#ffffff"
     bordercolor="#666666"
     borderopacity="1"
     objecttolerance="10"
     gridtolerance="10"
     guidetolerance="10"
     inkscape:pageopacity="0"
     inkscape:pageshadow="2"
     inkscape:window-width="1920"
     inkscape:window-height="1016"
     id="namedview1491"
     showgrid="false"
     inkscape:zoom="1.3479675"
     inkscape:cx="513.49999"
     inkscape:cy="307.5"
     inkscape:window-x="0"
     inkscape:window-y="0"
     inkscape:window-maximized="1"
     inkscape:current-layer="svg10047"
     showguides="true"
     inkscape:guide-bbox="true"
     inkscape:snap-grids="true"
     inkscape:showpageshadow="2"
     inkscape:pagecheckerboard="0"
     inkscape:deskcolor="#d1d1d1" />
  <metadata
     id="metadata16869">
    <rdf:RDF>
      <cc:Work
         rdf:about="">
        <dc:format>image/svg+xml</dc:format>
        <dc:type
           rdf:resource="http://purl.org/dc/dcmitype/StillImage" />
        <dc:title />
      </cc:Work>
    </rdf:RDF>
  </metadata>
  <defs
     id="defs10049" />
  <g
     id="club_7"
     transform="matrix(0.13620652,0,0,0.13660647,-585.68804,-286.87359)"
     inkscape:label="#club_7">
    <rect
       width="578.00104"
       height="898.00043"
       rx="48.210754"
       ry="49.888176"
       x="4300.9995"
       y="2100.9995"
       id="rect5725"
       style="font-style:normal;font-variant:normal;font-weight:500;font-stretch:normal;font-size:medium;line-height:125%;font-family:Gaelic;-inkscape-font-specification:'Gaelic Medium';letter-spacing:0px;word-spacing:0px;fill:#ffffff;fill-opacity:1;stroke:#000000;stroke-width:1.99898;stroke-linecap:butt;stroke-linejoin:miter;stroke-miterlimit:4;stroke-dasharray:none;stroke-opacity:1" />
    <path
       inkscape:connector-curvature="0"
       id="path6429-9"
       d="m 4330.6951,2212.0003 v -9.7337 h 8.5155 q 0.6905,-15.4931 5.7537,-32.4261 5.0633,-16.933 11.0012,-27.5307 h -22.0483 v 10.7704 H 4326 v -21.0799 h 40 v 8.1786 q -6.26,9.3879 -11.8757,28.5097 -5.6156,19.064 -5.6156,33.578 h 7.4568 v 9.7337 z"
       style="font-style:normal;font-variant:normal;font-weight:normal;font-stretch:normal;font-size:medium;line-height:125%;font-family:Rockwell;-inkscape-font-specification:Rockwell;letter-spacing:0px;word-spacing:0px;fill:#000000;fill-opacity:1;stroke:none;stroke-width:1px;stroke-linecap:butt;stroke-linejoin:miter;stroke-opacity:1" />
    <path
       d="m 4818.6951,2212.0003 v -9.7337 h 8.5155 q 0.6905,-15.4931 5.7537,-32.4261 5.0633,-16.933 11.0012,-27.5307 h -22.0483 v 10.7704 H 4814 v -21.0799 h 40 v 8.1786 q -6.26,9.3879 -11.8757,28.5097 -5.6156,19.064 -5.6156,33.578 h 7.4568 v 9.7337 z"
       id="path6563-6"
       inkscape:connector-curvature="0"
       style="font-style:normal;font-variant:normal;font-weight:normal;font-stretch:normal;font-size:medium;line-height:125%;font-family:Rockwell;-inkscape-font-specification:Rockwell;letter-spacing:0px;word-spacing:0px;fill:#000000;fill-opacity:1;stroke:none;stroke-width:1px;stroke-linecap:butt;stroke-linejoin:miter;stroke-opacity:1" />
    <path
       d="m 4361.3049,2887.9002 v 9.7337 h -8.5155 q -0.6905,15.4931 -5.7537,32.4261 -5.0633,16.933 -11.0012,27.5307 h 22.0483 v -10.7704 H 4366 v 21.0799 h -40 v -8.1786 q 6.26,-9.3879 11.8757,-28.5097 5.6156,-19.064 5.6156,-33.578 h -7.4568 v -9.7337 z"
       id="path6789"
       inkscape:connector-curvature="0"
       style="font-style:normal;font-variant:normal;font-weight:normal;font-stretch:normal;font-size:medium;line-height:125%;font-family:Rockwell;-inkscape-font-specification:Rockwell;letter-spacing:0px;word-spacing:0px;fill:#000000;fill-opacity:1;stroke:none;stroke-width:1px;stroke-linecap:butt;stroke-linejoin:miter;stroke-opacity:1" />
    <path
       inkscape:connector-curvature="0"
       id="path6821"
       d="m 4849.3049,2887.9002 v 9.7337 h -8.5155 q -0.6905,15.4931 -5.7537,32.4261 -5.0633,16.933 -11.0012,27.5307 h 22.0483 v -10.7704 H 4854 v 21.0799 h -40 v -8.1786 q 6.26,-9.3879 11.8757,-28.5097 5.6156,-19.064 5.6156,-33.578 h -7.4568 v -9.7337 z"
       style="font-style:normal;font-variant:normal;font-weight:normal;font-stretch:normal;font-size:medium;line-height:125%;font-family:Rockwell;-inkscape-font-specification:Rockwell;letter-spacing:0px;word-spacing:0px;fill:#000000;fill-opacity:1;stroke:none;stroke-width:1px;stroke-linecap:butt;stroke-linejoin:miter;stroke-opacity:1" />
    <path
       inkscape:connector-curvature="0"
       id="path8715"
       d="m 4339.6359,2282.9324 c 1.8864,-1.4881 3.1233,-3.2447 3.9688,-5.6366 0.6482,-1.834 0.7259,-2.6795 0.7527,-8.1868 l 0.029,-6.1415 -1.0238,-0.097 c -1.4645,-0.1391 -2.8518,0.6688 -5.2832,3.0766 -3.1304,3.0999 -5.5237,3.9772 -8.6377,3.1663 -1.8328,-0.4772 -4.6087,-3.1564 -5.1123,-4.9339 -0.4392,-1.5504 -0.4392,-4.0228 0,-5.5732 0.5036,-1.7775 3.2795,-4.4567 5.1123,-4.9339 3.114,-0.8109 5.5073,0.066 8.6377,3.1663 2.4314,2.4078 3.8187,3.2157 5.2832,3.0767 1.0198,-0.097 1.0237,-0.1042 0.9915,-1.8353 -0.04,-2.1153 -0.8206,-3.9321 -3.1931,-7.427 -2.1634,-3.1871 -2.7189,-4.661 -2.7189,-7.2136 0,-2.5086 0.5646,-3.8096 2.3554,-5.4276 2.9684,-2.682 7.4228,-2.682 10.3912,0 1.7908,1.618 2.3554,2.919 2.3554,5.4276 0,2.5526 -0.5556,4.0265 -2.719,7.2136 -2.3725,3.4949 -3.1536,5.3117 -3.193,7.427 -0.032,1.7311 -0.028,1.7384 0.9915,1.8353 1.4644,0.139 2.8518,-0.6689 5.2832,-3.0767 2.301,-2.2785 3.8515,-3.1726 5.8936,-3.3982 2.2696,-0.2507 4.0067,0.4265 5.8498,2.2808 1.8118,1.8227 2.3498,3.1213 2.3498,5.6716 0,2.5503 -0.538,3.8489 -2.3498,5.6716 -1.8431,1.8543 -3.5802,2.5315 -5.8498,2.2808 -2.0421,-0.2256 -3.5926,-1.1197 -5.8936,-3.3982 -2.4314,-2.4078 -3.8188,-3.2157 -5.2832,-3.0766 l -1.0239,0.097 0.029,6.1415 c 0.026,5.5073 0.1045,6.3528 0.7528,8.1868 0.8455,2.3919 2.0823,4.1485 3.9687,5.6366 l 1.3538,1.0678 -1.1246,-0.2204 c -2.9691,-0.5818 -4.8205,-0.8093 -6.5871,-0.8093 -1.7666,0 -3.6181,0.2275 -6.5871,0.8093 l -1.1246,0.2204 1.3537,-1.0678 z"
       style="fill:#0a0a0a" />
    <path
       style="fill:#0a0a0a"
       d="m 4827.6359,2282.9324 c 1.8864,-1.4881 3.1233,-3.2447 3.9688,-5.6366 0.6482,-1.834 0.7259,-2.6795 0.7527,-8.1868 l 0.029,-6.1415 -1.0238,-0.097 c -1.4645,-0.1391 -2.8518,0.6688 -5.2832,3.0766 -3.1304,3.0999 -5.5237,3.9772 -8.6377,3.1663 -1.8328,-0.4772 -4.6087,-3.1564 -5.1123,-4.9339 -0.4392,-1.5504 -0.4392,-4.0228 0,-5.5732 0.5036,-1.7775 3.2795,-4.4567 5.1123,-4.9339 3.114,-0.8109 5.5073,0.066 8.6377,3.1663 2.4314,2.4078 3.8187,3.2157 5.2832,3.0767 1.0198,-0.097 1.0237,-0.1042 0.9915,-1.8353 -0.04,-2.1153 -0.8206,-3.9321 -3.1931,-7.427 -2.1634,-3.1871 -2.7189,-4.661 -2.7189,-7.2136 0,-2.5086 0.5646,-3.8096 2.3554,-5.4276 2.9684,-2.682 7.4228,-2.682 10.3912,0 1.7908,1.618 2.3554,2.919 2.3554,5.4276 0,2.5526 -0.5556,4.0265 -2.719,7.2136 -2.3725,3.4949 -3.1536,5.3117 -3.193,7.427 -0.032,1.7311 -0.028,1.7384 0.9915,1.8353 1.4644,0.139 2.8518,-0.6689 5.2832,-3.0767 2.301,-2.2785 3.8515,-3.1726 5.8936,-3.3982 2.2696,-0.2507 4.0067,0.4265 5.8498,2.2808 1.8118,1.8227 2.3498,3.1213 2.3498,5.6716 0,2.5503 -0.538,3.8489 -2.3498,5.6716 -1.8431,1.8543 -3.5802,2.5315 -5.8498,2.2808 -2.0421,-0.2256 -3.5926,-1.1197 -5.8936,-3.3982 -2.4314,-2.4078 -3.8188,-3.2157 -5.2832,-3.0766 l -1.0239,0.097 0.029,6.1415 c 0.026,5.5073 0.1045,6.3528 0.7528,8.1868 0.8455,2.3919 2.0823,4.1485 3.9687,5.6366 l 1.3538,1.0678 -1.1246,-0.2204 c -2.9691,-0.5818 -4.8205,-0.8093 -6.5871,-0.8093 -1.7666,0 -3.6181,0.2275 -6.5871,0.8093 l -1.1246,0.2204 1.3537,-1.0678 z"
       id="path8717"
       inkscape:connector-curvature="0" />
    <path
       style="fill:#0a0a0a"
       d="m 4339.6359,2817.0682 c 1.8864,1.4881 3.1233,3.2447 3.9688,5.6366 0.6482,1.834 0.7259,2.6795 0.7527,8.1868 l 0.029,6.1415 -1.0238,0.097 c -1.4645,0.1391 -2.8518,-0.6688 -5.2832,-3.0766 -3.1304,-3.0999 -5.5237,-3.9772 -8.6377,-3.1663 -1.8328,0.4772 -4.6087,3.1564 -5.1123,4.9339 -0.4392,1.5504 -0.4392,4.0228 0,5.5732 0.5036,1.7775 3.2795,4.4567 5.1123,4.9339 3.114,0.8109 5.5073,-0.066 8.6377,-3.1663 2.4314,-2.4078 3.8187,-3.2157 5.2832,-3.0767 1.0198,0.097 1.0237,0.1042 0.9915,1.8353 -0.04,2.1153 -0.8206,3.9321 -3.1931,7.427 -2.1634,3.1871 -2.7189,4.661 -2.7189,7.2136 0,2.5086 0.5646,3.8096 2.3554,5.4276 2.9684,2.682 7.4228,2.682 10.3912,0 1.7908,-1.618 2.3554,-2.919 2.3554,-5.4276 0,-2.5526 -0.5556,-4.0265 -2.719,-7.2136 -2.3725,-3.4949 -3.1536,-5.3117 -3.193,-7.427 -0.032,-1.7311 -0.028,-1.7384 0.9915,-1.8353 1.4644,-0.139 2.8518,0.6689 5.2832,3.0767 2.301,2.2785 3.8515,3.1726 5.8936,3.3982 2.2696,0.2507 4.0067,-0.4265 5.8498,-2.2808 1.8118,-1.8227 2.3498,-3.1213 2.3498,-5.6716 0,-2.5503 -0.538,-3.8489 -2.3498,-5.6716 -1.8431,-1.8543 -3.5802,-2.5315 -5.8498,-2.2808 -2.0421,0.2256 -3.5926,1.1197 -5.8936,3.3982 -2.4314,2.4078 -3.8188,3.2157 -5.2832,3.0766 l -1.0239,-0.097 0.029,-6.1415 c 0.026,-5.5073 0.1045,-6.3528 0.7528,-8.1868 0.8455,-2.3919 2.0823,-4.1485 3.9687,-5.6366 l 1.3538,-1.0678 -1.1246,0.2204 c -2.9691,0.5818 -4.8205,0.8093 -6.5871,0.8093 -1.7666,0 -3.6181,-0.2275 -6.5871,-0.8093 l -1.1246,-0.2204 1.3537,1.0678 z"
       id="path8767"
       inkscape:connector-curvature="0" />
    <path
       inkscape:connector-curvature="0"
       id="path8769"
       d="m 4827.6359,2817.0682 c 1.8864,1.4881 3.1233,3.2447 3.9688,5.6366 0.6482,1.834 0.7259,2.6795 0.7527,8.1868 l 0.029,6.1415 -1.0238,0.097 c -1.4645,0.1391 -2.8518,-0.6688 -5.2832,-3.0766 -3.1304,-3.0999 -5.5237,-3.9772 -8.6377,-3.1663 -1.8328,0.4772 -4.6087,3.1564 -5.1123,4.9339 -0.4392,1.5504 -0.4392,4.0228 0,5.5732 0.5036,1.7775 3.2795,4.4567 5.1123,4.9339 3.114,0.8109 5.5073,-0.066 8.6377,-3.1663 2.4314,-2.4078 3.8187,-3.2157 5.2832,-3.0767 1.0198,0.097 1.0237,0.1042 0.9915,1.8353 -0.04,2.1153 -0.8206,3.9321 -3.1931,7.427 -2.1634,3.1871 -2.7189,4.661 -2.7189,7.2136 0,2.5086 0.5646,3.8096 2.3554,5.4276 2.9684,2.682 7.4228,2.682 10.3912,0 1.7908,-1.618 2.3554,-2.919 2.3554,-5.4276 0,-2.5526 -0.5556,-4.0265 -2.719,-7.2136 -2.3725,-3.4949 -3.1536,-5.3117 -3.193,-7.427 -0.032,-1.7311 -0.028,-1.7384 0.9915,-1.8353 1.4644,-0.139 2.8518,0.6689 5.2832,3.0767 2.301,2.2785 3.8515,3.1726 5.8936,3.3982 2.2696,0.2507 4.0067,-0.4265 5.8498,-2.2808 1.8118,-1.8227 2.3498,-3.1213 2.3498,-5.6716 0,-2.5503 -0.538,-3.8489 -2.3498,-5.6716 -1.8431,-1.8543 -3.5802,-2.5315 -5.8498,-2.2808 -2.0421,0.2256 -3.5926,1.1197 -5.8936,3.3982 -2.4314,2.4078 -3.8188,3.2157 -5.2832,3.0766 l -1.0239,-0.097 0.029,-6.1415 c 0.026,-5.5073 0.1045,-6.3528 0.7528,-8.1868 0.8455,-2.3919 2.0823,-4.1485 3.9687,-5.6366 l 1.3538,-1.0678 -1.1246,0.2204 c -2.9691,0.5818 -4.8205,0.8093 -6.5871,0.8093 -1.7666,0 -3.6181,-0.2275 -6.5871,-0.8093 l -1.1246,-0.2204 1.3537,1.0678 z"
       style="fill:#0a0a0a" />
    <path
       style="fill:#0a0a0a"
       d="m 4447.7983,2309.2416 c 4.802,-3.8442 7.9502,-8.3819 10.1024,-14.5612 1.65,-4.7378 1.8479,-6.9219 1.9161,-21.1491 l 0.076,-15.8657 -2.6061,-0.2511 c -3.7281,-0.3591 -7.2593,1.7278 -13.4485,7.948 -7.9681,8.008 -14.0603,10.2744 -21.9867,8.1797 -4.6651,-1.2328 -11.7312,-8.154 -13.013,-12.7461 -1.118,-4.005 -1.118,-10.3922 0,-14.3972 1.2818,-4.5921 8.3479,-11.5132 13.013,-12.7461 7.9264,-2.0947 14.0186,0.1718 21.9867,8.1797 6.1892,6.2202 9.7204,8.3072 13.4485,7.948 2.5957,-0.2501 2.6058,-0.269 2.5237,-4.7411 -0.1006,-5.4645 -2.0886,-10.1579 -8.1277,-19.1865 -5.507,-8.2332 -6.9212,-12.0409 -6.9212,-18.6349 0,-6.4806 1.4371,-9.8416 5.9957,-14.0215 7.556,-6.9284 18.8943,-6.9284 26.4502,0 4.5586,4.1799 5.9958,7.5409 5.9958,14.0215 0,6.594 -1.4143,10.4017 -6.9212,18.6349 -6.0391,9.0286 -8.0273,13.722 -8.1276,19.1865 -0.082,4.4721 -0.072,4.491 2.5236,4.7411 3.728,0.3592 7.2592,-1.7278 13.4485,-7.948 5.8569,-5.8862 9.8037,-8.1958 15.0016,-8.7786 5.7775,-0.6478 10.1991,1.1017 14.8907,5.8919 4.6117,4.7088 5.9812,8.0634 5.9812,14.6517 0,6.5883 -1.3695,9.943 -5.9812,14.6517 -4.6916,4.7902 -9.1132,6.5397 -14.8907,5.8919 -5.1979,-0.5828 -9.1447,-2.8924 -15.0016,-8.7786 -6.1893,-6.2202 -9.7205,-8.3071 -13.4485,-7.948 l -2.6062,0.2511 0.076,15.8657 c 0.068,14.2272 0.2661,16.4113 1.9163,21.1491 2.1521,6.1793 5.3003,10.717 10.1022,14.5612 l 3.4459,2.7586 -2.8627,-0.5693 c -7.5575,-1.5031 -12.2704,-2.0907 -16.7672,-2.0907 -4.4966,0 -9.2096,0.5876 -16.767,2.0907 l -2.8627,0.5693 z"
       id="path6310"
       inkscape:connector-curvature="0" />
    <path
       inkscape:connector-curvature="0"
       id="path6328-3"
       d="m 4699.7983,2309.2416 c 4.802,-3.8442 7.9502,-8.3819 10.1024,-14.5612 1.65,-4.7378 1.8479,-6.9219 1.9161,-21.1491 l 0.076,-15.8657 -2.6061,-0.2511 c -3.7281,-0.3591 -7.2593,1.7278 -13.4485,7.948 -7.9681,8.008 -14.0603,10.2744 -21.9867,8.1797 -4.6651,-1.2328 -11.7312,-8.154 -13.013,-12.7461 -1.118,-4.005 -1.118,-10.3922 0,-14.3972 1.2818,-4.5921 8.3479,-11.5132 13.013,-12.7461 7.9264,-2.0947 14.0186,0.1718 21.9867,8.1797 6.1892,6.2202 9.7204,8.3072 13.4485,7.948 2.5957,-0.2501 2.6058,-0.269 2.5237,-4.7411 -0.1006,-5.4645 -2.0886,-10.1579 -8.1277,-19.1865 -5.507,-8.2332 -6.9212,-12.0409 -6.9212,-18.6349 0,-6.4806 1.4371,-9.8416 5.9957,-14.0215 7.556,-6.9284 18.8943,-6.9284 26.4502,0 4.5586,4.1799 5.9958,7.5409 5.9958,14.0215 0,6.594 -1.4143,10.4017 -6.9212,18.6349 -6.0391,9.0286 -8.0273,13.722 -8.1276,19.1865 -0.082,4.4721 -0.072,4.491 2.5236,4.7411 3.728,0.3592 7.2592,-1.7278 13.4485,-7.948 5.8569,-5.8862 9.8037,-8.1958 15.0016,-8.7786 5.7775,-0.6478 10.1991,1.1017 14.8907,5.8919 4.6117,4.7088 5.9812,8.0634 5.9812,14.6517 0,6.5883 -1.3695,9.943 -5.9812,14.6517 -4.6916,4.7902 -9.1132,6.5397 -14.8907,5.8919 -5.1979,-0.5828 -9.1447,-2.8924 -15.0016,-8.7786 -6.1893,-6.2202 -9.7205,-8.3071 -13.4485,-7.948 l -2.6062,0.2511 0.076,15.8657 c 0.068,14.2272 0.2661,16.4113 1.9163,21.1491 2.1521,6.1793 5.3003,10.717 10.1022,14.5612 l 3.4459,2.7586 -2.8627,-0.5693 c -7.5575,-1.5031 -12.2704,-2.0907 -16.7672,-2.0907 -4.4966,0 -9.2096,0.5876 -16.767,2.0907 l -2.8627,0.5693 z"
       style="fill:#0a0a0a" />
    <path
       inkscape:connector-curvature="0"
       id="path6336"
       d="m 4447.7983,2790.7588 c 4.802,3.8442 7.9502,8.3819 10.1024,14.5612 1.65,4.7378 1.8479,6.9219 1.9161,21.1491 l 0.076,15.8657 -2.6061,0.2511 c -3.7281,0.3591 -7.2593,-1.7278 -13.4485,-7.948 -7.9681,-8.008 -14.0603,-10.2744 -21.9867,-8.1797 -4.6651,1.2328 -11.7312,8.154 -13.013,12.7461 -1.118,4.005 -1.118,10.3922 0,14.3972 1.2818,4.5921 8.3479,11.5132 13.013,12.7461 7.9264,2.0947 14.0186,-0.1718 21.9867,-8.1797 6.1892,-6.2202 9.7204,-8.3072 13.4485,-7.948 2.5957,0.2501 2.6058,0.269 2.5237,4.7411 -0.1006,5.4645 -2.0886,10.1579 -8.1277,19.1865 -5.507,8.2332 -6.9212,12.0409 -6.9212,18.6349 0,6.4806 1.4371,9.8416 5.9957,14.0215 7.556,6.9284 18.8943,6.9284 26.4502,0 4.5586,-4.1799 5.9958,-7.5409 5.9958,-14.0215 0,-6.594 -1.4143,-10.4017 -6.9212,-18.6349 -6.0391,-9.0286 -8.0273,-13.722 -8.1276,-19.1865 -0.082,-4.4721 -0.072,-4.491 2.5236,-4.7411 3.728,-0.3592 7.2592,1.7278 13.4485,7.948 5.8569,5.8862 9.8037,8.1958 15.0016,8.7786 5.7775,0.6478 10.1991,-1.1017 14.8907,-5.8919 4.6117,-4.7088 5.9812,-8.0634 5.9812,-14.6517 0,-6.5883 -1.3695,-9.943 -5.9812,-14.6517 -4.6916,-4.7902 -9.1132,-6.5397 -14.8907,-5.8919 -5.1979,0.5828 -9.1447,2.8924 -15.0016,8.7786 -6.1893,6.2202 -9.7205,8.3071 -13.4485,7.948 l -2.6062,-0.2511 0.076,-15.8657 c 0.068,-14.2272 0.2661,-16.4113 1.9163,-21.1491 2.1521,-6.1793 5.3003,-10.717 10.1022,-14.5612 l 3.4459,-2.7586 -2.8627,0.5693 c -7.5575,1.5031 -12.2704,2.0907 -16.7672,2.0907 -4.4966,0 -9.2096,-0.5876 -16.767,-2.0907 l -2.8627,-0.5693 z"
       style="fill:#0a0a0a" />
    <path
       style="fill:#0a0a0a"
       d="m 4699.7983,2790.7588 c 4.802,3.8442 7.9502,8.3819 10.1024,14.5612 1.65,4.7378 1.8479,6.9219 1.9161,21.1491 l 0.076,15.8657 -2.6061,0.2511 c -3.7281,0.3591 -7.2593,-1.7278 -13.4485,-7.948 -7.9681,-8.008 -14.0603,-10.2744 -21.9867,-8.1797 -4.6651,1.2328 -11.7312,8.154 -13.013,12.7461 -1.118,4.005 -1.118,10.3922 0,14.3972 1.2818,4.5921 8.3479,11.5132 13.013,12.7461 7.9264,2.0947 14.0186,-0.1718 21.9867,-8.1797 6.1892,-6.2202 9.7204,-8.3072 13.4485,-7.948 2.5957,0.2501 2.6058,0.269 2.5237,4.7411 -0.1006,5.4645 -2.0886,10.1579 -8.1277,19.1865 -5.507,8.2332 -6.9212,12.0409 -6.9212,18.6349 0,6.4806 1.4371,9.8416 5.9957,14.0215 7.556,6.9284 18.8943,6.9284 26.4502,0 4.5586,-4.1799 5.9958,-7.5409 5.9958,-14.0215 0,-6.594 -1.4143,-10.4017 -6.9212,-18.6349 -6.0391,-9.0286 -8.0273,-13.722 -8.1276,-19.1865 -0.082,-4.4721 -0.072,-4.491 2.5236,-4.7411 3.728,-0.3592 7.2592,1.7278 13.4485,7.948 5.8569,5.8862 9.8037,8.1958 15.0016,8.7786 5.7775,0.6478 10.1991,-1.1017 14.8907,-5.8919 4.6117,-4.7088 5.9812,-8.0634 5.9812,-14.6517 0,-6.5883 -1.3695,-9.943 -5.9812,-14.6517 -4.6916,-4.7902 -9.1132,-6.5397 -14.8907,-5.8919 -5.1979,0.5828 -9.1447,2.8924 -15.0016,8.7786 -6.1893,6.2202 -9.7205,8.3071 -13.4485,7.948 l -2.6062,-0.2511 0.076,-15.8657 c 0.068,-14.2272 0.2661,-16.4113 1.9163,-21.1491 2.1521,-6.1793 5.3003,-10.717 10.1022,-14.5612 l 3.4459,-2.7586 -2.8627,0.5693 c -7.5575,1.5031 -12.2704,2.0907 -16.7672,2.0907 -4.4966,0 -9.2096,-0.5876 -16.767,-2.0907 l -2.8627,-0.5693 z"
       id="path6344"
       inkscape:connector-curvature="0" />
    <path
       inkscape:connector-curvature="0"
       id="path6346"
       d="m 4447.7983,2609.2416 c 4.802,-3.8442 7.9502,-8.3819 10.1024,-14.5612 1.65,-4.7378 1.8479,-6.9219 1.9161,-21.1491 l 0.076,-15.8657 -2.6061,-0.2511 c -3.7281,-0.3591 -7.2593,1.7278 -13.4485,7.948 -7.9681,8.008 -14.0603,10.2744 -21.9867,8.1797 -4.6651,-1.2328 -11.7312,-8.154 -13.013,-12.7461 -1.118,-4.005 -1.118,-10.3922 0,-14.3972 1.2818,-4.5921 8.3479,-11.5132 13.013,-12.7461 7.9264,-2.0947 14.0186,0.1718 21.9867,8.1797 6.1892,6.2202 9.7204,8.3072 13.4485,7.948 2.5957,-0.2501 2.6058,-0.269 2.5237,-4.7411 -0.1006,-5.4645 -2.0886,-10.1579 -8.1277,-19.1865 -5.507,-8.2332 -6.9212,-12.0409 -6.9212,-18.6349 0,-6.4806 1.4371,-9.8416 5.9957,-14.0215 7.556,-6.9284 18.8943,-6.9284 26.4502,0 4.5586,4.1799 5.9958,7.5409 5.9958,14.0215 0,6.594 -1.4143,10.4017 -6.9212,18.6349 -6.0391,9.0286 -8.0273,13.722 -8.1276,19.1865 -0.082,4.4721 -0.072,4.491 2.5236,4.7411 3.728,0.3592 7.2592,-1.7278 13.4485,-7.948 5.8569,-5.8862 9.8037,-8.1958 15.0016,-8.7786 5.7775,-0.6478 10.1991,1.1017 14.8907,5.8919 4.6117,4.7088 5.9812,8.0634 5.9812,14.6517 0,6.5883 -1.3695,9.943 -5.9812,14.6517 -4.6916,4.7902 -9.1132,6.5397 -14.8907,5.8919 -5.1979,-0.5828 -9.1447,-2.8924 -15.0016,-8.7786 -6.1893,-6.2202 -9.7205,-8.3071 -13.4485,-7.948 l -2.6062,0.2511 0.076,15.8657 c 0.068,14.2272 0.2661,16.4113 1.9163,21.1491 2.1521,6.1793 5.3003,10.717 10.1022,14.5612 l 3.4459,2.7586 -2.8627,-0.5693 c -7.5575,-1.5031 -12.2704,-2.0907 -16.7672,-2.0907 -4.4966,0 -9.2096,0.5876 -16.767,2.0907 l -2.8627,0.5693 z"
       style="fill:#0a0a0a" />
    <path
       style="fill:#0a0a0a"
       d="m 4699.7983,2609.2416 c 4.802,-3.8442 7.9502,-8.3819 10.1024,-14.5612 1.65,-4.7378 1.8479,-6.9219 1.9161,-21.1491 l 0.076,-15.8657 -2.6061,-0.2511 c -3.7281,-0.3591 -7.2593,1.7278 -13.4485,7.948 -7.9681,8.008 -14.0603,10.2744 -21.9867,8.1797 -4.6651,-1.2328 -11.7312,-8.154 -13.013,-12.7461 -1.118,-4.005 -1.118,-10.3922 0,-14.3972 1.2818,-4.5921 8.3479,-11.5132 13.013,-12.7461 7.9264,-2.0947 14.0186,0.1718 21.9867,8.1797 6.1892,6.2202 9.7204,8.3072 13.4485,7.948 2.5957,-0.2501 2.6058,-0.269 2.5237,-4.7411 -0.1006,-5.4645 -2.0886,-10.1579 -8.1277,-19.1865 -5.507,-8.2332 -6.9212,-12.0409 -6.9212,-18.6349 0,-6.4806 1.4371,-9.8416 5.9957,-14.0215 7.556,-6.9284 18.8943,-6.9284 26.4502,0 4.5586,4.1799 5.9958,7.5409 5.9958,14.0215 0,6.594 -1.4143,10.4017 -6.9212,18.6349 -6.0391,9.0286 -8.0273,13.722 -8.1276,19.1865 -0.082,4.4721 -0.072,4.491 2.5236,4.7411 3.728,0.3592 7.2592,-1.7278 13.4485,-7.948 5.8569,-5.8862 9.8037,-8.1958 15.0016,-8.7786 5.7775,-0.6478 10.1991,1.1017 14.8907,5.8919 4.6117,4.7088 5.9812,8.0634 5.9812,14.6517 0,6.5883 -1.3695,9.943 -5.9812,14.6517 -4.6916,4.7902 -9.1132,6.5397 -14.8907,5.8919 -5.1979,-0.5828 -9.1447,-2.8924 -15.0016,-8.7786 -6.1893,-6.2202 -9.7205,-8.3071 -13.4485,-7.948 l -2.6062,0.2511 0.076,15.8657 c 0.068,14.2272 0.2661,16.4113 1.9163,21.1491 2.1521,6.1793 5.3003,10.717 10.1022,14.5612 l 3.4459,2.7586 -2.8627,-0.5693 c -7.5575,-1.5031 -12.2704,-2.0907 -16.7672,-2.0907 -4.4966,0 -9.2096,0.5876 -16.767,2.0907 l -2.8627,0.5693 z"
       id="path6351"
       inkscape:connector-curvature="0" />
    <path
       inkscape:connector-curvature="0"
       id="path6353-8"
       d="m 4573.7983,2459.2416 c 4.802,-3.8442 7.9502,-8.3819 10.1024,-14.5612 1.65,-4.7378 1.8479,-6.9219 1.9161,-21.1491 l 0.076,-15.8657 -2.6061,-0.2511 c -3.7281,-0.3591 -7.2593,1.7278 -13.4485,7.948 -7.9681,8.008 -14.0603,10.2744 -21.9867,8.1797 -4.6651,-1.2328 -11.7312,-8.154 -13.013,-12.7461 -1.118,-4.005 -1.118,-10.3922 0,-14.3972 1.2818,-4.5921 8.3479,-11.5132 13.013,-12.7461 7.9264,-2.0947 14.0186,0.1718 21.9867,8.1797 6.1892,6.2202 9.7204,8.3072 13.4485,7.948 2.5957,-0.2501 2.6058,-0.269 2.5237,-4.7411 -0.1006,-5.4645 -2.0886,-10.1579 -8.1277,-19.1865 -5.507,-8.2332 -6.9212,-12.0409 -6.9212,-18.6349 0,-6.4806 1.4371,-9.8416 5.9957,-14.0215 7.556,-6.9284 18.8943,-6.9284 26.4502,0 4.5586,4.1799 5.9958,7.5409 5.9958,14.0215 0,6.594 -1.4143,10.4017 -6.9212,18.6349 -6.0391,9.0286 -8.0273,13.722 -8.1276,19.1865 -0.082,4.4721 -0.072,4.491 2.5236,4.7411 3.728,0.3592 7.2592,-1.7278 13.4485,-7.948 5.8569,-5.8862 9.8037,-8.1958 15.0016,-8.7786 5.7775,-0.6478 10.1991,1.1017 14.8907,5.8919 4.6117,4.7088 5.9812,8.0634 5.9812,14.6517 0,6.5883 -1.3695,9.943 -5.9812,14.6517 -4.6916,4.7902 -9.1132,6.5397 -14.8907,5.8919 -5.1979,-0.5828 -9.1447,-2.8924 -15.0016,-8.7786 -6.1893,-6.2202 -9.7205,-8.3071 -13.4485,-7.948 l -2.6062,0.2511 0.076,15.8657 c 0.068,14.2272 0.2661,16.4113 1.9163,21.1491 2.1521,6.1793 5.3003,10.717 10.1022,14.5612 l 3.4459,2.7586 -2.8627,-0.5693 c -7.5575,-1.5031 -12.2704,-2.0907 -16.7672,-2.0907 -4.4966,0 -9.2096,0.5876 -16.767,2.0907 l -2.8627,0.5693 z"
       style="fill:#0a0a0a" />
    <path
       inkscape:connector-curvature="0"
       id="path10129"
       d="m 4378.608,2969.5383 c -0.347,-0.3672 -0.632,-38.9588 -0.632,-85.7589 0,-82.2583 -0.06,-85.1695 -1.802,-87.4482 -1.767,-2.3087 -2.209,-2.3674 -21.489,-2.8564 L 4335,2792.9756 v -243.1243 -243.1244 l 19.568,-0.4992 c 17.134,-0.4371 19.777,-0.721 21.252,-2.282 1.582,-1.6748 1.713,-6.9885 2.156,-87.8642 L 4378.449,2130 h 212.051 212.051 l 0.472,86.0815 c 0.444,80.8757 0.575,86.1894 2.157,87.8642 1.475,1.561 4.117,1.8449 21.252,2.282 l 19.568,0.4992 v 243.1244 243.1243 l -19.568,0.4992 c -17.135,0.4372 -19.777,0.7211 -21.252,2.282 -1.582,1.6749 -1.713,6.9885 -2.157,87.8642 l -0.472,86.0816 -211.655,0.2518 c -116.411,0.1384 -211.939,-0.049 -212.288,-0.4161 z m 420.641,-85.9527 c 0,-81.6793 0.05,-83.6964 1.88,-86.8749 3.8,-6.5887 6.015,-7.2218 25.272,-7.226 h 17.237 V 2549.855 2310.2252 h -17.237 c -19.257,0 -21.472,-0.6373 -25.272,-7.2259 -1.834,-3.1786 -1.877,-5.1956 -1.88,-86.8749 v -83.6206 h -208.745 -208.745 v 83.6208 c 0,81.6794 -0.05,83.6964 -1.88,86.875 -3.801,6.5886 -6.015,7.2217 -25.272,7.2259 h -17.238 v 239.6297 239.6298 h 17.238 c 19.257,0 21.471,0.6373 25.272,7.226 1.833,3.1785 1.877,5.1955 1.88,86.8749 v 83.6205 h 208.745 208.745 z"
       style="fill:#b7b772" />
    <path
       inkscape:connector-curvature="0"
       id="path10147"
       d="m 4381.8441,2883.4004 c 0,-87.9892 -0.1768,-90.3558 -6.9449,-92.953 -1.3605,-0.5221 -10.3253,-0.9492 -19.9218,-0.9492 h -17.4481 V 2550.539 2311.5799 l 18.5477,-0.6613 c 17.9647,-0.6405 18.6611,-0.7932 22.1574,-4.8579 l 3.6097,-4.1966 v -84.7242 -84.7243 h 208.5856 208.5855 l 0.022,83.6634 c 0.017,64.2565 0.4697,84.5496 1.95,87.4837 2.7169,5.385 10.2355,7.4546 27.4434,7.5542 l 14.899,0.086 v 239.1475 239.1475 h -17.4481 c -9.5965,0 -18.5613,0.4271 -19.9218,0.9492 -6.7681,2.5972 -6.9449,4.9638 -6.9449,92.953 v 83.3573 h -208.5855 -208.5856 v -83.3573 z m 87.1885,28.3468 c 2.9894,-0.8304 7.4591,-3.6223 9.9327,-6.2042 3.8006,-3.967 4.4974,-5.9267 4.4974,-12.6486 0,-6.6559 -1.0875,-9.7848 -6.6623,-19.1686 -6.6891,-11.2595 -9.9967,-23.1037 -6.4518,-23.1037 3.097,0 9.8912,4.1145 13.8782,8.4046 14.4097,15.505 35.9103,8.024 35.9103,-12.4948 0,-9.2439 -3.4408,-14.9404 -11.7843,-19.5098 -4.696,-2.5717 -6.2243,-2.7309 -11.3818,-1.1857 -3.2766,0.9817 -9.6036,4.8971 -14.0599,8.701 -4.4564,3.8039 -9.4216,6.9161 -11.0339,6.9161 -2.7001,0 -2.9302,-1.2357 -2.9165,-15.663 0.013,-13.2376 0.5739,-16.8635 3.625,-23.4158 1.9856,-4.2641 5.4306,-9.079 7.6557,-10.6999 l 4.0455,-2.947 h -19.8241 -19.8242 l 4.342,4.5843 c 7.4929,7.911 9.2715,13.3182 10.3014,31.3185 l 0.9621,16.8168 h -3.8159 c -2.3918,0 -7.0461,-2.8266 -12.4708,-7.5736 -10.2964,-9.0102 -16.4947,-10.7226 -24.7067,-6.8258 -7.7716,3.6879 -11.4161,10.1675 -11.4232,20.3096 -0.01,7.4938 0.5067,8.7147 5.9269,14.1349 5.0917,5.0917 6.8847,5.9326 12.6489,5.9326 7.2381,0 10.5777,-1.7726 20.8394,-11.0612 13.264,-12.0064 15.5277,-2.3357 4.0086,17.1253 -5.7508,9.7157 -6.7551,12.6424 -6.7551,19.6849 0,7.4733 0.5162,8.7592 5.3438,13.3123 2.9391,2.7719 6.8931,5.3381 8.7866,5.7027 1.8935,0.3645 3.7866,0.7526 4.2068,0.8624 0.4202,0.1097 3.2099,-0.4799 6.1992,-1.3104 z m 252.1364,0 c 2.9894,-0.8304 7.4345,-3.5967 9.8781,-6.1472 3.7643,-3.9292 4.4428,-5.8757 4.4428,-12.7467 0,-6.8516 -1.0201,-9.7977 -6.5767,-18.9943 -7.0437,-11.6577 -10.0183,-23.2369 -5.9694,-23.2369 1.2452,0 5.1767,2.2349 8.7365,4.9664 14.4311,11.073 15.8465,11.8427 21.7771,11.8427 4.8075,0 7.1773,-1.149 12.3808,-6.0027 6.0535,-5.6467 6.4352,-6.5011 6.4352,-14.4049 0,-9.9855 -3.403,-15.5871 -12.0906,-19.9021 -7.7256,-3.8372 -15.0851,-1.6591 -25.426,7.5251 -4.2154,3.7438 -9.0166,6.8069 -10.6695,6.8069 -2.7976,0 -3.0052,-1.1096 -3.0052,-16.0617 0,-17.8664 2.8102,-26.7309 10.5346,-33.2306 l 4.0766,-3.4303 h -19.4592 -19.4592 l 4.342,4.5843 c 7.2967,7.7037 8.8129,12.5668 9.648,30.944 0.7665,16.8684 0.7188,17.1911 -2.5395,17.1911 -1.8263,0 -7.3801,-3.4324 -12.3417,-7.6277 -10.5452,-8.9162 -16.4688,-10.5812 -24.3463,-6.843 -8.3305,3.9532 -11.5792,9.5232 -11.5792,19.8528 0,8.104 0.4257,9.1562 5.9326,14.6631 5.1268,5.1269 6.863,5.9326 12.7827,5.9326 7.0874,0 9.6593,-1.4129 21.4017,-11.7571 3.1541,-2.7786 6.8537,-5.052 8.2212,-5.052 4.3151,0 1.6429,11.7821 -5.3665,23.6613 -5.1976,8.8086 -6.2974,12.0573 -6.2974,18.602 0,11.1968 6.3579,18.2153 18.3372,20.2424 0.4203,0.071 3.2099,-0.5501 6.1993,-1.3806 z m -241.6649,-304.4446 c -7.9371,-7.2486 -10.4869,-15.2154 -10.5248,-32.8844 -0.032,-14.8766 0.1267,-15.663 3.1581,-15.663 1.7555,0 6.7409,3.1106 11.0788,6.9125 10.2085,8.9471 17.4989,11.0716 25.0691,7.3055 7.102,-3.5333 11.0978,-9.0683 12.1364,-16.8117 1.6299,-12.1522 -7.6998,-23.3925 -19.3858,-23.3557 -6.218,0.019 -8.9724,1.4495 -19.8132,10.2864 -4.3819,3.5719 -9.0273,6.4944 -10.3232,6.4944 -4.1558,0 -1.244,-11.4507 5.9319,-23.3272 5.5703,-9.2192 6.6313,-12.2491 6.6313,-18.9373 0,-6.7399 -0.6939,-8.6864 -4.5208,-12.6808 -9.1399,-9.54 -22.4755,-9.4733 -30.5755,0.153 -3.0312,3.6025 -3.8702,6.2841 -3.8702,12.3705 0,6.4232 1.1721,9.7821 6.7578,19.366 6.6279,11.3723 9.3601,21.4315 6.1266,22.5571 -1.5984,0.5565 -4.4976,-1.3157 -17.5672,-11.344 -5.0777,-3.8962 -7.9436,-4.9664 -13.2994,-4.9664 -5.8928,0 -7.6387,0.8118 -12.7596,5.9326 -5.4826,5.4827 -5.9326,6.5835 -5.9326,14.5126 0,7.6612 0.5734,9.2145 5.3548,14.507 9.2026,10.1862 18.5502,9.3697 32.411,-2.831 4.1919,-3.6899 8.5124,-6.1435 10.818,-6.1435 h 3.8385 l -0.9621,16.8166 c -1.0299,17.9999 -2.8083,23.4069 -10.3008,31.3185 l -4.3414,4.5843 h 19.7162 19.7163 z m 250.6446,-1.4643 c -7.0975,-7.313 -9.0666,-14.3412 -9.0666,-32.3614 0,-13.4941 0.2445,-14.7217 2.9314,-14.7217 1.6123,0 6.5716,3.1072 11.0206,6.9048 10.4958,8.959 17.8317,11.0722 25.3876,7.3132 8.2973,-4.128 11.8517,-9.915 11.8517,-19.2964 0,-12.4555 -8.1971,-20.8993 -20.2887,-20.8993 -5.0892,0 -7.7132,1.3515 -16.3178,8.4046 -5.6394,4.6225 -11.228,8.4045 -12.4191,8.4045 -4.5423,0 -2.3268,-9.7584 5.0172,-22.0989 6.0492,-10.1648 7.1948,-13.3364 7.2585,-20.0956 0.065,-6.8647 -0.5785,-8.7091 -4.4453,-12.7478 -9.1369,-9.543 -22.4743,-9.4776 -30.5754,0.1499 -3.0597,3.6362 -3.8703,6.2699 -3.8703,12.5746 0,6.7348 1.0654,9.7462 6.851,19.366 4.8949,8.1387 6.8583,13.0566 6.8765,17.2244 0.023,5.3411 -0.2647,5.7461 -3.4128,4.8002 -1.891,-0.5682 -5.845,-3.2625 -8.7866,-5.9872 -8.678,-8.0383 -12.5186,-9.9947 -19.621,-9.9947 -5.7642,0 -7.5571,0.841 -12.6488,5.9326 -5.4253,5.4253 -5.9326,6.6377 -5.9326,14.177 0,5.3117 0.9345,9.5882 2.6271,12.0225 9.1434,13.1495 20.699,13.1294 35.0086,-0.061 3.9248,-3.6177 8.1183,-6.0936 10.321,-6.0936 h 3.7102 l -0.7512,15.663 c -0.9112,19.0005 -2.4208,24.3425 -8.9089,31.5258 l -4.9955,5.5306 h 19.3248 19.3248 l -5.4704,-5.6363 z m -139.719,-145.5955 c 2.5213,0 7.9914,0.5058 12.1557,1.1316 l 7.5715,1.1379 -4.7262,-4.98 c -7.984,-8.4126 -9.8051,-13.7741 -10.7477,-31.6416 -0.5955,-11.2884 -0.3344,-16.7698 0.833,-17.4913 2.2458,-1.388 9.2465,2.3477 14.0149,7.4786 5.4077,5.8187 11.0814,8.4045 18.4411,8.4045 5.3597,0 7.3074,-0.9393 12.3007,-5.9326 5.5122,-5.5122 5.9326,-6.5537 5.9326,-14.6967 0,-8.1431 -0.4204,-9.1845 -5.9326,-14.6968 -4.9933,-4.9932 -6.941,-5.9326 -12.3007,-5.9326 -7.3597,0 -13.0334,2.5858 -18.4411,8.4046 -4.9545,5.3311 -11.127,8.4993 -13.5914,6.9762 -2.8481,-1.7602 0.017,-10.8414 6.9777,-22.1191 7.7785,-12.6021 8.8441,-23.9946 2.9047,-31.0532 -13.5865,-16.1467 -38.8644,-4.7681 -35.4976,15.9788 0.4786,2.9493 3.7469,10.1234 7.2628,15.9425 7.353,12.1696 9.0981,22.327 3.674,21.3838 -1.681,-0.2923 -6.6771,-3.6209 -11.1026,-7.397 -9.0994,-7.7641 -14.1336,-9.6321 -21.5172,-7.9847 -15.6366,3.4887 -20.5571,24.6371 -8.4,36.1027 4.5372,4.2791 6.4432,5.0241 12.8543,5.0241 6.3434,0 8.4293,-0.7946 13.2621,-5.052 18.1631,-16.0005 18.7236,-15.8706 18.7236,4.337 0,18.5724 -1.8449,24.4823 -10.3893,33.2806 l -5.6557,5.8238 8.4045,-1.2114 c 4.6225,-0.6663 10.4675,-1.2143 12.9889,-1.2177 z m -127.5963,-149.7059 c 4.6225,-0.054 11.4989,0.4527 15.281,1.1256 l 6.8764,1.2234 -5.6557,-5.8077 c -8.5413,-8.7706 -10.3893,-14.6877 -10.3893,-33.2644 0,-18.4377 0.4523,-18.9127 10.5982,-11.1278 3.5598,2.7315 8.5782,6.5135 11.1519,8.4046 13.1903,9.6914 32.0074,-2.9348 29.7258,-19.9458 -1.0487,-7.8186 -5.0457,-13.2853 -12.3752,-16.9258 -7.6685,-3.8088 -14.2655,-1.8624 -25.1354,7.416 -15.2383,13.0071 -18.7125,6.5572 -7.1278,-13.233 8.0745,-13.7935 9.7059,-21.2426 6.3902,-29.1781 -8.0973,-19.3795 -37.6773,-13.1368 -37.6773,7.9515 0,6.8899 1.0642,9.6286 9.5464,24.5666 2.1475,3.7821 4.371,9.1113 4.941,11.8428 0.9404,4.5065 0.6984,4.9663 -2.6146,4.9663 -2.1267,0 -7.0895,-2.9351 -11.887,-7.0302 -9.7374,-8.3117 -13.9728,-10.165 -20.4217,-8.9362 -9.995,1.9045 -16.2385,10.2997 -16.2385,21.8345 0,7.5393 0.5074,8.7517 5.9326,14.177 5.0917,5.0916 6.8847,5.9326 12.6489,5.9326 7.2203,0 10.5823,-1.7777 20.7329,-10.9631 3.5532,-3.2153 7.954,-5.846 9.7796,-5.846 3.2603,0 3.3034,0.2995 2.4288,16.8789 -0.9688,18.3636 -4.1443,27.8605 -11.1616,33.3803 -4.9738,3.9124 -4.6396,4.8698 1.2795,3.6659 2.7315,-0.5555 8.7484,-1.0541 13.3709,-1.1079 z m 252.9004,-0.098 c 4.2022,0 10.7349,0.5505 14.5169,1.2234 l 6.8765,1.2234 -5.6558,-5.8077 c -8.5412,-8.7706 -10.3893,-14.6877 -10.3893,-33.2644 0,-18.9121 0.4353,-19.2525 12.277,-9.5997 10.9558,8.9307 13.584,10.2662 20.2543,10.2922 4.6426,0.018 7.0644,-1.1667 12.2248,-5.9802 6.0535,-5.6467 6.4352,-6.5012 6.4352,-14.4049 0,-9.9855 -3.403,-15.5872 -12.0906,-19.9022 -7.6685,-3.8088 -14.2655,-1.8624 -25.1354,7.416 -4.4563,3.8039 -9.4216,6.9161 -11.0339,6.9161 -4.4653,0 -3.6883,-6.9674 1.8744,-16.8091 8.2556,-14.6058 9.2463,-16.8595 9.9489,-22.6313 2.2405,-18.4062 -21.5085,-28.8131 -34.1855,-14.9801 -4.3552,4.7524 -5.0154,6.54 -4.9933,13.5214 0.022,6.7933 1.0914,9.8173 6.8765,19.436 7.4677,12.4166 9.2003,21.4631 4.1106,21.4631 -1.5072,0 -6.7998,-3.4324 -11.7614,-7.6277 -10.5452,-8.9162 -16.4688,-10.5812 -24.3463,-6.843 -8.3305,3.953 -11.5792,9.523 -11.5792,19.8527 0,8.104 0.4257,9.1562 5.9326,14.6631 5.1268,5.1268 6.863,5.9326 12.7827,5.9326 7.0874,0 9.6593,-1.4129 21.4017,-11.7571 3.1541,-2.7786 7.034,-5.052 8.6219,-5.052 2.697,0 2.8392,1.0822 2.1587,16.4271 -0.8844,19.941 -2.2504,24.7889 -9.002,31.9477 -2.8717,3.0449 -5.2213,5.7406 -5.2213,5.9904 0,0.2498 2.5787,-0.018 5.7304,-0.5958 3.1517,-0.5775 9.1686,-1.05 13.3709,-1.05 z"
       style="fill:#feefd3;fill-opacity:1;stroke:#fffecd;stroke-width:0.541452;stroke-miterlimit:4;stroke-dasharray:none;stroke-opacity:1" />
  </g>
</svg>
