<?xml version="1.0" encoding="UTF-8" standalone="no"?>
<!-- Created with Inkscape (http://www.inkscape.org/) -->

<svg
   id="svg10047"
   height="122.94574"
   width="78.999786"
   version="1.1"
   viewBox="0 0 78.999786 122.94574"
   inkscape:version="0.91 r13725"
   sodipodi:docname="kaiser-jubilaum.svgz"
   xmlns:inkscape="http://www.inkscape.org/namespaces/inkscape"
   xmlns:sodipodi="http://sodipodi.sourceforge.net/DTD/sodipodi-0.dtd"
   xmlns="http://www.w3.org/2000/svg"
   xmlns:svg="http://www.w3.org/2000/svg"
   xmlns:rdf="http://www.w3.org/1999/02/22-rdf-syntax-ns#"
   xmlns:cc="http://creativecommons.org/ns#"
   xmlns:dc="http://purl.org/dc/elements/1.1/">
  <sodipodi:namedview
     pagecolor="#ffffff"
     bordercolor="#666666"
     borderopacity="1"
     objecttolerance="10"
     gridtolerance="10"
     guidetolerance="10"
     inkscape:pageopacity="0"
     inkscape:pageshadow="2"
     inkscape:window-width="1920"
     inkscape:window-height="1016"
     id="namedview1491"
     showgrid="false"
     inkscape:zoom="1.3479675"
     inkscape:cx="513.49999"
     inkscape:cy="307.5"
     inkscape:window-x="0"
     inkscape:window-y="0"
     inkscape:window-maximized="1"
     inkscape:current-layer="svg10047"
     showguides="true"
     inkscape:guide-bbox="true"
     inkscape:snap-grids="true"
     inkscape:showpageshadow="2"
     inkscape:pagecheckerboard="0"
     inkscape:deskcolor="#d1d1d1" />
  <metadata
     id="metadata16869">
    <rdf:RDF>
      <cc:Work
         rdf:about="">
        <dc:format>image/svg+xml</dc:format>
        <dc:type
           rdf:resource="http://purl.org/dc/dcmitype/StillImage" />
        <dc:title />
      </cc:Work>
    </rdf:RDF>
  </metadata>
  <defs
     id="defs10049" />
  <g
     id="club_6"
     transform="matrix(0.13620652,0,0,0.13660647,-490.34348,-286.87359)"
     inkscape:label="#club_6">
    <rect
       width="578.00104"
       height="898.00043"
       rx="48.210754"
       ry="49.888176"
       x="3600.9995"
       y="2100.9995"
       id="rect5825"
       style="font-style:normal;font-variant:normal;font-weight:500;font-stretch:normal;font-size:medium;line-height:125%;font-family:Gaelic;-inkscape-font-specification:'Gaelic Medium';letter-spacing:0px;word-spacing:0px;fill:#ffffff;fill-opacity:1;stroke:#000000;stroke-width:1.99898;stroke-linecap:butt;stroke-linejoin:miter;stroke-miterlimit:4;stroke-dasharray:none;stroke-opacity:1" />
    <path
       inkscape:connector-curvature="0"
       id="path6425-8"
       d="m 3665.5536,2156.1397 h -7.5447 q -0.6696,-6.6342 -3.75,-10.8153 -3.0357,-4.1812 -7.4107,-4.1812 -5.9375,0 -9.2411,7.7491 -3.3036,7.6933 -3.4375,21.1288 6.3393,-8.5853 14.5982,-8.5853 7.0983,0 12.1429,6.5784 5.0893,6.5226 5.0893,17.5051 0,10.9269 -5,18.7318 -5,7.7491 -13.6607,7.7491 -9.6875,0 -15.5358,-9.9233 -5.8035,-9.9791 -5.8035,-29.6028 0,-18.6759 5.625,-29.547 5.625,-10.9269 16.2053,-10.9269 8.3036,0 12.8572,6.8572 4.5982,6.8014 4.8661,17.2823 z m -30.9375,25.5888 q 2.0089,21.0731 12.3214,21.0731 5.2678,0 8.2143,-4.8502 2.9464,-4.8501 2.9464,-11.5958 0,-6.6341 -2.8125,-10.7038 -2.7679,-4.0697 -7.5,-4.0697 -6.6518,0 -13.1696,10.1464 z"
       style="font-style:normal;font-variant:normal;font-weight:normal;font-stretch:normal;font-size:medium;line-height:125%;font-family:Rockwell;-inkscape-font-specification:Rockwell;letter-spacing:0px;word-spacing:0px;fill:#000000;fill-opacity:1;stroke:none;stroke-width:1px;stroke-linecap:butt;stroke-linejoin:miter;stroke-opacity:1" />
    <path
       d="m 4153.5536,2156.1397 h -7.5447 q -0.6696,-6.6342 -3.75,-10.8153 -3.0357,-4.1812 -7.4107,-4.1812 -5.9375,0 -9.2411,7.7491 -3.3036,7.6933 -3.4375,21.1288 6.3393,-8.5853 14.5982,-8.5853 7.0983,0 12.1429,6.5784 5.0893,6.5226 5.0893,17.5051 0,10.9269 -5,18.7318 -5,7.7491 -13.6607,7.7491 -9.6875,0 -15.5358,-9.9233 -5.8035,-9.9791 -5.8035,-29.6028 0,-18.6759 5.625,-29.547 5.625,-10.9269 16.2053,-10.9269 8.3036,0 12.8572,6.8572 4.5982,6.8014 4.8661,17.2823 z m -30.9375,25.5888 q 2.0089,21.0731 12.3214,21.0731 5.2678,0 8.2143,-4.8502 2.9464,-4.8501 2.9464,-11.5958 0,-6.6341 -2.8125,-10.7038 -2.7679,-4.0697 -7.5,-4.0697 -6.6518,0 -13.1696,10.1464 z"
       id="path6559-5"
       inkscape:connector-curvature="0"
       style="font-style:normal;font-variant:normal;font-weight:normal;font-stretch:normal;font-size:medium;line-height:125%;font-family:Rockwell;-inkscape-font-specification:Rockwell;letter-spacing:0px;word-spacing:0px;fill:#000000;fill-opacity:1;stroke:none;stroke-width:1px;stroke-linecap:butt;stroke-linejoin:miter;stroke-opacity:1" />
    <path
       d="m 3626.4464,2943.7608 h 7.5447 q 0.6696,6.6342 3.75,10.8153 3.0357,4.1812 7.4107,4.1812 5.9375,0 9.2411,-7.7491 3.3036,-7.6933 3.4375,-21.1288 -6.3393,8.5853 -14.5982,8.5853 -7.0983,0 -12.1429,-6.5784 -5.0893,-6.5226 -5.0893,-17.5051 0,-10.9269 5,-18.7318 5,-7.7491 13.6607,-7.7491 9.6875,0 15.5358,9.9233 5.8035,9.9791 5.8035,29.6028 0,18.6759 -5.625,29.547 -5.625,10.9269 -16.2053,10.9269 -8.3036,0 -12.8572,-6.8572 -4.5982,-6.8014 -4.8661,-17.2823 z m 30.9375,-25.5888 q -2.0089,-21.0731 -12.3214,-21.0731 -5.2678,0 -8.2143,4.8502 -2.9464,4.8501 -2.9464,11.5958 0,6.6341 2.8125,10.7038 2.7679,4.0697 7.5,4.0697 6.6518,0 13.1696,-10.1464 z"
       id="path6785"
       inkscape:connector-curvature="0"
       style="font-style:normal;font-variant:normal;font-weight:normal;font-stretch:normal;font-size:medium;line-height:125%;font-family:Rockwell;-inkscape-font-specification:Rockwell;letter-spacing:0px;word-spacing:0px;fill:#000000;fill-opacity:1;stroke:none;stroke-width:1px;stroke-linecap:butt;stroke-linejoin:miter;stroke-opacity:1" />
    <path
       inkscape:connector-curvature="0"
       id="path6817"
       d="m 4114.4464,2943.7608 h 7.5447 q 0.6696,6.6342 3.75,10.8153 3.0357,4.1812 7.4107,4.1812 5.9375,0 9.2411,-7.7491 3.3036,-7.6933 3.4375,-21.1288 -6.3393,8.5853 -14.5982,8.5853 -7.0983,0 -12.1429,-6.5784 -5.0893,-6.5226 -5.0893,-17.5051 0,-10.9269 5,-18.7318 5,-7.7491 13.6607,-7.7491 9.6875,0 15.5358,9.9233 5.8035,9.9791 5.8035,29.6028 0,18.6759 -5.625,29.547 -5.625,10.9269 -16.2053,10.9269 -8.3036,0 -12.8572,-6.8572 -4.5982,-6.8014 -4.8661,-17.2823 z m 30.9375,-25.5888 q -2.0089,-21.0731 -12.3214,-21.0731 -5.2678,0 -8.2143,4.8502 -2.9464,4.8501 -2.9464,11.5958 0,6.6341 2.8125,10.7038 2.7679,4.0697 7.5,4.0697 6.6518,0 13.1696,-10.1464 z"
       style="font-style:normal;font-variant:normal;font-weight:normal;font-stretch:normal;font-size:medium;line-height:125%;font-family:Rockwell;-inkscape-font-specification:Rockwell;letter-spacing:0px;word-spacing:0px;fill:#000000;fill-opacity:1;stroke:none;stroke-width:1px;stroke-linecap:butt;stroke-linejoin:miter;stroke-opacity:1" />
    <path
       style="fill:#0a0a0a"
       d="m 3639.6359,2282.9324 c 1.8864,-1.4881 3.1233,-3.2447 3.9688,-5.6366 0.6482,-1.834 0.7259,-2.6795 0.7527,-8.1868 l 0.029,-6.1415 -1.0238,-0.097 c -1.4645,-0.1391 -2.8518,0.6688 -5.2832,3.0766 -3.1304,3.0999 -5.5237,3.9772 -8.6377,3.1663 -1.8328,-0.4772 -4.6087,-3.1564 -5.1123,-4.9339 -0.4392,-1.5504 -0.4392,-4.0228 0,-5.5732 0.5036,-1.7775 3.2795,-4.4567 5.1123,-4.9339 3.114,-0.8109 5.5073,0.066 8.6377,3.1663 2.4314,2.4078 3.8187,3.2157 5.2832,3.0767 1.0198,-0.097 1.0237,-0.1042 0.9915,-1.8353 -0.04,-2.1153 -0.8206,-3.9321 -3.1931,-7.427 -2.1634,-3.1871 -2.7189,-4.661 -2.7189,-7.2136 0,-2.5086 0.5646,-3.8096 2.3554,-5.4276 2.9684,-2.682 7.4228,-2.682 10.3912,0 1.7908,1.618 2.3554,2.919 2.3554,5.4276 0,2.5526 -0.5556,4.0265 -2.719,7.2136 -2.3725,3.4949 -3.1536,5.3117 -3.193,7.427 -0.032,1.7311 -0.028,1.7384 0.9915,1.8353 1.4644,0.139 2.8518,-0.6689 5.2832,-3.0767 2.301,-2.2785 3.8515,-3.1726 5.8936,-3.3982 2.2696,-0.2507 4.0067,0.4265 5.8498,2.2808 1.8118,1.8227 2.3498,3.1213 2.3498,5.6716 0,2.5503 -0.538,3.8489 -2.3498,5.6716 -1.8431,1.8543 -3.5802,2.5315 -5.8498,2.2808 -2.0421,-0.2256 -3.5926,-1.1197 -5.8936,-3.3982 -2.4314,-2.4078 -3.8188,-3.2157 -5.2832,-3.0766 l -1.0239,0.097 0.029,6.1415 c 0.026,5.5073 0.1045,6.3528 0.7528,8.1868 0.8455,2.3919 2.0823,4.1485 3.9687,5.6366 l 1.3538,1.0678 -1.1246,-0.2204 c -2.9691,-0.5818 -4.8205,-0.8093 -6.5871,-0.8093 -1.7666,0 -3.6181,0.2275 -6.5871,0.8093 l -1.1246,0.2204 1.3537,-1.0678 z"
       id="path8719"
       inkscape:connector-curvature="0" />
    <path
       inkscape:connector-curvature="0"
       id="path8721"
       d="m 4127.6359,2282.9324 c 1.8864,-1.4881 3.1233,-3.2447 3.9688,-5.6366 0.6482,-1.834 0.7259,-2.6795 0.7527,-8.1868 l 0.029,-6.1415 -1.0238,-0.097 c -1.4645,-0.1391 -2.8518,0.6688 -5.2832,3.0766 -3.1304,3.0999 -5.5237,3.9772 -8.6377,3.1663 -1.8328,-0.4772 -4.6087,-3.1564 -5.1123,-4.9339 -0.4392,-1.5504 -0.4392,-4.0228 0,-5.5732 0.5036,-1.7775 3.2795,-4.4567 5.1123,-4.9339 3.114,-0.8109 5.5073,0.066 8.6377,3.1663 2.4314,2.4078 3.8187,3.2157 5.2832,3.0767 1.0198,-0.097 1.0237,-0.1042 0.9915,-1.8353 -0.04,-2.1153 -0.8206,-3.9321 -3.1931,-7.427 -2.1634,-3.1871 -2.7189,-4.661 -2.7189,-7.2136 0,-2.5086 0.5646,-3.8096 2.3554,-5.4276 2.9684,-2.682 7.4228,-2.682 10.3912,0 1.7908,1.618 2.3554,2.919 2.3554,5.4276 0,2.5526 -0.5556,4.0265 -2.719,7.2136 -2.3725,3.4949 -3.1536,5.3117 -3.193,7.427 -0.032,1.7311 -0.028,1.7384 0.9915,1.8353 1.4644,0.139 2.8518,-0.6689 5.2832,-3.0767 2.301,-2.2785 3.8515,-3.1726 5.8936,-3.3982 2.2696,-0.2507 4.0067,0.4265 5.8498,2.2808 1.8118,1.8227 2.3498,3.1213 2.3498,5.6716 0,2.5503 -0.538,3.8489 -2.3498,5.6716 -1.8431,1.8543 -3.5802,2.5315 -5.8498,2.2808 -2.0421,-0.2256 -3.5926,-1.1197 -5.8936,-3.3982 -2.4314,-2.4078 -3.8188,-3.2157 -5.2832,-3.0766 l -1.0239,0.097 0.029,6.1415 c 0.026,5.5073 0.1045,6.3528 0.7528,8.1868 0.8455,2.3919 2.0823,4.1485 3.9687,5.6366 l 1.3538,1.0678 -1.1246,-0.2204 c -2.9691,-0.5818 -4.8205,-0.8093 -6.5871,-0.8093 -1.7666,0 -3.6181,0.2275 -6.5871,0.8093 l -1.1246,0.2204 1.3537,-1.0678 z"
       style="fill:#0a0a0a" />
    <path
       inkscape:connector-curvature="0"
       id="path8771"
       d="m 3639.6359,2817.0682 c 1.8864,1.4881 3.1233,3.2447 3.9688,5.6366 0.6482,1.834 0.7259,2.6795 0.7527,8.1868 l 0.029,6.1415 -1.0238,0.097 c -1.4645,0.1391 -2.8518,-0.6688 -5.2832,-3.0766 -3.1304,-3.0999 -5.5237,-3.9772 -8.6377,-3.1663 -1.8328,0.4772 -4.6087,3.1564 -5.1123,4.9339 -0.4392,1.5504 -0.4392,4.0228 0,5.5732 0.5036,1.7775 3.2795,4.4567 5.1123,4.9339 3.114,0.8109 5.5073,-0.066 8.6377,-3.1663 2.4314,-2.4078 3.8187,-3.2157 5.2832,-3.0767 1.0198,0.097 1.0237,0.1042 0.9915,1.8353 -0.04,2.1153 -0.8206,3.9321 -3.1931,7.427 -2.1634,3.1871 -2.7189,4.661 -2.7189,7.2136 0,2.5086 0.5646,3.8096 2.3554,5.4276 2.9684,2.682 7.4228,2.682 10.3912,0 1.7908,-1.618 2.3554,-2.919 2.3554,-5.4276 0,-2.5526 -0.5556,-4.0265 -2.719,-7.2136 -2.3725,-3.4949 -3.1536,-5.3117 -3.193,-7.427 -0.032,-1.7311 -0.028,-1.7384 0.9915,-1.8353 1.4644,-0.139 2.8518,0.6689 5.2832,3.0767 2.301,2.2785 3.8515,3.1726 5.8936,3.3982 2.2696,0.2507 4.0067,-0.4265 5.8498,-2.2808 1.8118,-1.8227 2.3498,-3.1213 2.3498,-5.6716 0,-2.5503 -0.538,-3.8489 -2.3498,-5.6716 -1.8431,-1.8543 -3.5802,-2.5315 -5.8498,-2.2808 -2.0421,0.2256 -3.5926,1.1197 -5.8936,3.3982 -2.4314,2.4078 -3.8188,3.2157 -5.2832,3.0766 l -1.0239,-0.097 0.029,-6.1415 c 0.026,-5.5073 0.1045,-6.3528 0.7528,-8.1868 0.8455,-2.3919 2.0823,-4.1485 3.9687,-5.6366 l 1.3538,-1.0678 -1.1246,0.2204 c -2.9691,0.5818 -4.8205,0.8093 -6.5871,0.8093 -1.7666,0 -3.6181,-0.2275 -6.5871,-0.8093 l -1.1246,-0.2204 1.3537,1.0678 z"
       style="fill:#0a0a0a" />
    <path
       style="fill:#0a0a0a"
       d="m 4127.6359,2817.0682 c 1.8864,1.4881 3.1233,3.2447 3.9688,5.6366 0.6482,1.834 0.7259,2.6795 0.7527,8.1868 l 0.029,6.1415 -1.0238,0.097 c -1.4645,0.1391 -2.8518,-0.6688 -5.2832,-3.0766 -3.1304,-3.0999 -5.5237,-3.9772 -8.6377,-3.1663 -1.8328,0.4772 -4.6087,3.1564 -5.1123,4.9339 -0.4392,1.5504 -0.4392,4.0228 0,5.5732 0.5036,1.7775 3.2795,4.4567 5.1123,4.9339 3.114,0.8109 5.5073,-0.066 8.6377,-3.1663 2.4314,-2.4078 3.8187,-3.2157 5.2832,-3.0767 1.0198,0.097 1.0237,0.1042 0.9915,1.8353 -0.04,2.1153 -0.8206,3.9321 -3.1931,7.427 -2.1634,3.1871 -2.7189,4.661 -2.7189,7.2136 0,2.5086 0.5646,3.8096 2.3554,5.4276 2.9684,2.682 7.4228,2.682 10.3912,0 1.7908,-1.618 2.3554,-2.919 2.3554,-5.4276 0,-2.5526 -0.5556,-4.0265 -2.719,-7.2136 -2.3725,-3.4949 -3.1536,-5.3117 -3.193,-7.427 -0.032,-1.7311 -0.028,-1.7384 0.9915,-1.8353 1.4644,-0.139 2.8518,0.6689 5.2832,3.0767 2.301,2.2785 3.8515,3.1726 5.8936,3.3982 2.2696,0.2507 4.0067,-0.4265 5.8498,-2.2808 1.8118,-1.8227 2.3498,-3.1213 2.3498,-5.6716 0,-2.5503 -0.538,-3.8489 -2.3498,-5.6716 -1.8431,-1.8543 -3.5802,-2.5315 -5.8498,-2.2808 -2.0421,0.2256 -3.5926,1.1197 -5.8936,3.3982 -2.4314,2.4078 -3.8188,3.2157 -5.2832,3.0766 l -1.0239,-0.097 0.029,-6.1415 c 0.026,-5.5073 0.1045,-6.3528 0.7528,-8.1868 0.8455,-2.3919 2.0823,-4.1485 3.9687,-5.6366 l 1.3538,-1.0678 -1.1246,0.2204 c -2.9691,0.5818 -4.8205,0.8093 -6.5871,0.8093 -1.7666,0 -3.6181,-0.2275 -6.5871,-0.8093 l -1.1246,-0.2204 1.3537,1.0678 z"
       id="path8773"
       inkscape:connector-curvature="0" />
    <path
       inkscape:connector-curvature="0"
       id="path6381"
       d="m 3747.7983,2309.2416 c 4.802,-3.8442 7.9502,-8.3819 10.1024,-14.5612 1.65,-4.7378 1.8479,-6.9219 1.9161,-21.1491 l 0.076,-15.8657 -2.6061,-0.2511 c -3.7281,-0.3591 -7.2593,1.7278 -13.4485,7.948 -7.9681,8.008 -14.0603,10.2744 -21.9867,8.1797 -4.6651,-1.2328 -11.7312,-8.154 -13.013,-12.7461 -1.118,-4.005 -1.118,-10.3922 0,-14.3972 1.2818,-4.5921 8.3479,-11.5132 13.013,-12.7461 7.9264,-2.0947 14.0186,0.1718 21.9867,8.1797 6.1892,6.2202 9.7204,8.3072 13.4485,7.948 2.5957,-0.2501 2.6058,-0.269 2.5237,-4.7411 -0.1006,-5.4645 -2.0886,-10.1579 -8.1277,-19.1865 -5.507,-8.2332 -6.9212,-12.0409 -6.9212,-18.6349 0,-6.4806 1.4371,-9.8416 5.9957,-14.0215 7.556,-6.9284 18.8943,-6.9284 26.4502,0 4.5586,4.1799 5.9958,7.5409 5.9958,14.0215 0,6.594 -1.4143,10.4017 -6.9212,18.6349 -6.0391,9.0286 -8.0273,13.722 -8.1276,19.1865 -0.082,4.4721 -0.072,4.491 2.5236,4.7411 3.728,0.3592 7.2592,-1.7278 13.4485,-7.948 5.8569,-5.8862 9.8037,-8.1958 15.0016,-8.7786 5.7775,-0.6478 10.1991,1.1017 14.8907,5.8919 4.6117,4.7088 5.9812,8.0634 5.9812,14.6517 0,6.5883 -1.3695,9.943 -5.9812,14.6517 -4.6916,4.7902 -9.1132,6.5397 -14.8907,5.8919 -5.1979,-0.5828 -9.1447,-2.8924 -15.0016,-8.7786 -6.1893,-6.2202 -9.7205,-8.3071 -13.4485,-7.948 l -2.6062,0.2511 0.076,15.8657 c 0.068,14.2272 0.2661,16.4113 1.9163,21.1491 2.1521,6.1793 5.3003,10.717 10.1022,14.5612 l 3.4459,2.7586 -2.8627,-0.5693 c -7.5575,-1.5031 -12.2704,-2.0907 -16.7672,-2.0907 -4.4966,0 -9.2096,0.5876 -16.767,2.0907 l -2.8627,0.5693 z"
       style="fill:#0a0a0a" />
    <path
       style="fill:#0a0a0a"
       d="m 3999.7983,2309.2416 c 4.802,-3.8442 7.9502,-8.3819 10.1024,-14.5612 1.65,-4.7378 1.8479,-6.9219 1.9161,-21.1491 l 0.076,-15.8657 -2.6061,-0.2511 c -3.7281,-0.3591 -7.2593,1.7278 -13.4485,7.948 -7.9681,8.008 -14.0603,10.2744 -21.9867,8.1797 -4.6651,-1.2328 -11.7312,-8.154 -13.013,-12.7461 -1.118,-4.005 -1.118,-10.3922 0,-14.3972 1.2818,-4.5921 8.3479,-11.5132 13.013,-12.7461 7.9264,-2.0947 14.0186,0.1718 21.9867,8.1797 6.1892,6.2202 9.7204,8.3072 13.4485,7.948 2.5957,-0.2501 2.6058,-0.269 2.5237,-4.7411 -0.1006,-5.4645 -2.0886,-10.1579 -8.1277,-19.1865 -5.507,-8.2332 -6.9212,-12.0409 -6.9212,-18.6349 0,-6.4806 1.4371,-9.8416 5.9957,-14.0215 7.556,-6.9284 18.8943,-6.9284 26.4502,0 4.5586,4.1799 5.9958,7.5409 5.9958,14.0215 0,6.594 -1.4143,10.4017 -6.9212,18.6349 -6.0391,9.0286 -8.0273,13.722 -8.1276,19.1865 -0.082,4.4721 -0.072,4.491 2.5236,4.7411 3.728,0.3592 7.2592,-1.7278 13.4485,-7.948 5.8569,-5.8862 9.8037,-8.1958 15.0016,-8.7786 5.7775,-0.6478 10.1991,1.1017 14.8907,5.8919 4.6117,4.7088 5.9812,8.0634 5.9812,14.6517 0,6.5883 -1.3695,9.943 -5.9812,14.6517 -4.6916,4.7902 -9.1132,6.5397 -14.8907,5.8919 -5.1979,-0.5828 -9.1447,-2.8924 -15.0016,-8.7786 -6.1893,-6.2202 -9.7205,-8.3071 -13.4485,-7.948 l -2.6062,0.2511 0.076,15.8657 c 0.068,14.2272 0.2661,16.4113 1.9163,21.1491 2.1521,6.1793 5.3003,10.717 10.1022,14.5612 l 3.4459,2.7586 -2.8627,-0.5693 c -7.5575,-1.5031 -12.2704,-2.0907 -16.7672,-2.0907 -4.4966,0 -9.2096,0.5876 -16.767,2.0907 l -2.8627,0.5693 z"
       id="path6384-0"
       inkscape:connector-curvature="0" />
    <path
       style="fill:#0a0a0a"
       d="m 3747.7983,2790.7588 c 4.802,3.8442 7.9502,8.3819 10.1024,14.5612 1.65,4.7378 1.8479,6.9219 1.9161,21.1491 l 0.076,15.8657 -2.6061,0.2511 c -3.7281,0.3591 -7.2593,-1.7278 -13.4485,-7.948 -7.9681,-8.008 -14.0603,-10.2744 -21.9867,-8.1797 -4.6651,1.2328 -11.7312,8.154 -13.013,12.7461 -1.118,4.005 -1.118,10.3922 0,14.3972 1.2818,4.5921 8.3479,11.5132 13.013,12.7461 7.9264,2.0947 14.0186,-0.1718 21.9867,-8.1797 6.1892,-6.2202 9.7204,-8.3072 13.4485,-7.948 2.5957,0.2501 2.6058,0.269 2.5237,4.7411 -0.1006,5.4645 -2.0886,10.1579 -8.1277,19.1865 -5.507,8.2332 -6.9212,12.0409 -6.9212,18.6349 0,6.4806 1.4371,9.8416 5.9957,14.0215 7.556,6.9284 18.8943,6.9284 26.4502,0 4.5586,-4.1799 5.9958,-7.5409 5.9958,-14.0215 0,-6.594 -1.4143,-10.4017 -6.9212,-18.6349 -6.0391,-9.0286 -8.0273,-13.722 -8.1276,-19.1865 -0.082,-4.4721 -0.072,-4.491 2.5236,-4.7411 3.728,-0.3592 7.2592,1.7278 13.4485,7.948 5.8569,5.8862 9.8037,8.1958 15.0016,8.7786 5.7775,0.6478 10.1991,-1.1017 14.8907,-5.8919 4.6117,-4.7088 5.9812,-8.0634 5.9812,-14.6517 0,-6.5883 -1.3695,-9.943 -5.9812,-14.6517 -4.6916,-4.7902 -9.1132,-6.5397 -14.8907,-5.8919 -5.1979,0.5828 -9.1447,2.8924 -15.0016,8.7786 -6.1893,6.2202 -9.7205,8.3071 -13.4485,7.948 l -2.6062,-0.2511 0.076,-15.8657 c 0.068,-14.2272 0.2661,-16.4113 1.9163,-21.1491 2.1521,-6.1793 5.3003,-10.717 10.1022,-14.5612 l 3.4459,-2.7586 -2.8627,0.5693 c -7.5575,1.5031 -12.2704,2.0907 -16.7672,2.0907 -4.4966,0 -9.2096,-0.5876 -16.767,-2.0907 l -2.8627,-0.5693 z"
       id="path6387"
       inkscape:connector-curvature="0" />
    <path
       inkscape:connector-curvature="0"
       id="path6389"
       d="m 3999.7983,2790.7588 c 4.802,3.8442 7.9502,8.3819 10.1024,14.5612 1.65,4.7378 1.8479,6.9219 1.9161,21.1491 l 0.076,15.8657 -2.6061,0.2511 c -3.7281,0.3591 -7.2593,-1.7278 -13.4485,-7.948 -7.9681,-8.008 -14.0603,-10.2744 -21.9867,-8.1797 -4.6651,1.2328 -11.7312,8.154 -13.013,12.7461 -1.118,4.005 -1.118,10.3922 0,14.3972 1.2818,4.5921 8.3479,11.5132 13.013,12.7461 7.9264,2.0947 14.0186,-0.1718 21.9867,-8.1797 6.1892,-6.2202 9.7204,-8.3072 13.4485,-7.948 2.5957,0.2501 2.6058,0.269 2.5237,4.7411 -0.1006,5.4645 -2.0886,10.1579 -8.1277,19.1865 -5.507,8.2332 -6.9212,12.0409 -6.9212,18.6349 0,6.4806 1.4371,9.8416 5.9957,14.0215 7.556,6.9284 18.8943,6.9284 26.4502,0 4.5586,-4.1799 5.9958,-7.5409 5.9958,-14.0215 0,-6.594 -1.4143,-10.4017 -6.9212,-18.6349 -6.0391,-9.0286 -8.0273,-13.722 -8.1276,-19.1865 -0.082,-4.4721 -0.072,-4.491 2.5236,-4.7411 3.728,-0.3592 7.2592,1.7278 13.4485,7.948 5.8569,5.8862 9.8037,8.1958 15.0016,8.7786 5.7775,0.6478 10.1991,-1.1017 14.8907,-5.8919 4.6117,-4.7088 5.9812,-8.0634 5.9812,-14.6517 0,-6.5883 -1.3695,-9.943 -5.9812,-14.6517 -4.6916,-4.7902 -9.1132,-6.5397 -14.8907,-5.8919 -5.1979,0.5828 -9.1447,2.8924 -15.0016,8.7786 -6.1893,6.2202 -9.7205,8.3071 -13.4485,7.948 l -2.6062,-0.2511 0.076,-15.8657 c 0.068,-14.2272 0.2661,-16.4113 1.9163,-21.1491 2.1521,-6.1793 5.3003,-10.717 10.1022,-14.5612 l 3.4459,-2.7586 -2.8627,0.5693 c -7.5575,1.5031 -12.2704,2.0907 -16.7672,2.0907 -4.4966,0 -9.2096,-0.5876 -16.767,-2.0907 l -2.8627,-0.5693 z"
       style="fill:#0a0a0a" />
    <path
       style="fill:#0a0a0a"
       d="m 3747.7983,2609.2416 c 4.802,-3.8442 7.9502,-8.3819 10.1024,-14.5612 1.65,-4.7378 1.8479,-6.9219 1.9161,-21.1491 l 0.076,-15.8657 -2.6061,-0.2511 c -3.7281,-0.3591 -7.2593,1.7278 -13.4485,7.948 -7.9681,8.008 -14.0603,10.2744 -21.9867,8.1797 -4.6651,-1.2328 -11.7312,-8.154 -13.013,-12.7461 -1.118,-4.005 -1.118,-10.3922 0,-14.3972 1.2818,-4.5921 8.3479,-11.5132 13.013,-12.7461 7.9264,-2.0947 14.0186,0.1718 21.9867,8.1797 6.1892,6.2202 9.7204,8.3072 13.4485,7.948 2.5957,-0.2501 2.6058,-0.269 2.5237,-4.7411 -0.1006,-5.4645 -2.0886,-10.1579 -8.1277,-19.1865 -5.507,-8.2332 -6.9212,-12.0409 -6.9212,-18.6349 0,-6.4806 1.4371,-9.8416 5.9957,-14.0215 7.556,-6.9284 18.8943,-6.9284 26.4502,0 4.5586,4.1799 5.9958,7.5409 5.9958,14.0215 0,6.594 -1.4143,10.4017 -6.9212,18.6349 -6.0391,9.0286 -8.0273,13.722 -8.1276,19.1865 -0.082,4.4721 -0.072,4.491 2.5236,4.7411 3.728,0.3592 7.2592,-1.7278 13.4485,-7.948 5.8569,-5.8862 9.8037,-8.1958 15.0016,-8.7786 5.7775,-0.6478 10.1991,1.1017 14.8907,5.8919 4.6117,4.7088 5.9812,8.0634 5.9812,14.6517 0,6.5883 -1.3695,9.943 -5.9812,14.6517 -4.6916,4.7902 -9.1132,6.5397 -14.8907,5.8919 -5.1979,-0.5828 -9.1447,-2.8924 -15.0016,-8.7786 -6.1893,-6.2202 -9.7205,-8.3071 -13.4485,-7.948 l -2.6062,0.2511 0.076,15.8657 c 0.068,14.2272 0.2661,16.4113 1.9163,21.1491 2.1521,6.1793 5.3003,10.717 10.1022,14.5612 l 3.4459,2.7586 -2.8627,-0.5693 c -7.5575,-1.5031 -12.2704,-2.0907 -16.7672,-2.0907 -4.4966,0 -9.2096,0.5876 -16.767,2.0907 l -2.8627,0.5693 z"
       id="path6391"
       inkscape:connector-curvature="0" />
    <path
       inkscape:connector-curvature="0"
       id="path6393"
       d="m 3999.7983,2609.2416 c 4.802,-3.8442 7.9502,-8.3819 10.1024,-14.5612 1.65,-4.7378 1.8479,-6.9219 1.9161,-21.1491 l 0.076,-15.8657 -2.6061,-0.2511 c -3.7281,-0.3591 -7.2593,1.7278 -13.4485,7.948 -7.9681,8.008 -14.0603,10.2744 -21.9867,8.1797 -4.6651,-1.2328 -11.7312,-8.154 -13.013,-12.7461 -1.118,-4.005 -1.118,-10.3922 0,-14.3972 1.2818,-4.5921 8.3479,-11.5132 13.013,-12.7461 7.9264,-2.0947 14.0186,0.1718 21.9867,8.1797 6.1892,6.2202 9.7204,8.3072 13.4485,7.948 2.5957,-0.2501 2.6058,-0.269 2.5237,-4.7411 -0.1006,-5.4645 -2.0886,-10.1579 -8.1277,-19.1865 -5.507,-8.2332 -6.9212,-12.0409 -6.9212,-18.6349 0,-6.4806 1.4371,-9.8416 5.9957,-14.0215 7.556,-6.9284 18.8943,-6.9284 26.4502,0 4.5586,4.1799 5.9958,7.5409 5.9958,14.0215 0,6.594 -1.4143,10.4017 -6.9212,18.6349 -6.0391,9.0286 -8.0273,13.722 -8.1276,19.1865 -0.082,4.4721 -0.072,4.491 2.5236,4.7411 3.728,0.3592 7.2592,-1.7278 13.4485,-7.948 5.8569,-5.8862 9.8037,-8.1958 15.0016,-8.7786 5.7775,-0.6478 10.1991,1.1017 14.8907,5.8919 4.6117,4.7088 5.9812,8.0634 5.9812,14.6517 0,6.5883 -1.3695,9.943 -5.9812,14.6517 -4.6916,4.7902 -9.1132,6.5397 -14.8907,5.8919 -5.1979,-0.5828 -9.1447,-2.8924 -15.0016,-8.7786 -6.1893,-6.2202 -9.7205,-8.3071 -13.4485,-7.948 l -2.6062,0.2511 0.076,15.8657 c 0.068,14.2272 0.2661,16.4113 1.9163,21.1491 2.1521,6.1793 5.3003,10.717 10.1022,14.5612 l 3.4459,2.7586 -2.8627,-0.5693 c -7.5575,-1.5031 -12.2704,-2.0907 -16.7672,-2.0907 -4.4966,0 -9.2096,0.5876 -16.767,2.0907 l -2.8627,0.5693 z"
       style="fill:#0a0a0a" />
    <path
       style="fill:#b7b772"
       d="m 3678.608,2969.5383 c -0.347,-0.3672 -0.632,-38.9588 -0.632,-85.7589 0,-82.2583 -0.06,-85.1695 -1.802,-87.4482 -1.767,-2.3087 -2.209,-2.3674 -21.489,-2.8564 L 3635,2792.9756 v -243.1243 -243.1244 l 19.568,-0.4992 c 17.134,-0.4371 19.777,-0.721 21.252,-2.282 1.582,-1.6748 1.713,-6.9885 2.156,-87.8642 L 3678.449,2130 h 212.051 212.051 l 0.472,86.0815 c 0.444,80.8757 0.575,86.1894 2.157,87.8642 1.475,1.561 4.117,1.8449 21.252,2.282 l 19.568,0.4992 v 243.1244 243.1243 l -19.568,0.4992 c -17.135,0.4372 -19.777,0.7211 -21.252,2.282 -1.582,1.6749 -1.713,6.9885 -2.157,87.8642 l -0.472,86.0816 -211.655,0.2518 c -116.411,0.1384 -211.939,-0.049 -212.288,-0.4161 z m 420.641,-85.9527 c 0,-81.6793 0.05,-83.6964 1.88,-86.8749 3.8,-6.5887 6.015,-7.2218 25.272,-7.226 h 17.237 V 2549.855 2310.2252 h -17.237 c -19.257,0 -21.472,-0.6373 -25.272,-7.2259 -1.834,-3.1786 -1.877,-5.1956 -1.88,-86.8749 v -83.6206 h -208.745 -208.745 v 83.6208 c 0,81.6794 -0.05,83.6964 -1.88,86.875 -3.801,6.5886 -6.015,7.2217 -25.272,7.2259 h -17.238 v 239.6297 239.6298 h 17.238 c 19.257,0 21.471,0.6373 25.272,7.226 1.833,3.1785 1.877,5.1955 1.88,86.8749 v 83.6205 h 208.745 208.745 z"
       id="path10127"
       inkscape:connector-curvature="0" />
    <path
       inkscape:connector-curvature="0"
       id="path10145"
       d="m 3681.9748,2883.4004 c 0,-87.9892 -0.1769,-90.3558 -6.9449,-92.953 -1.3605,-0.5221 -10.3254,-0.9492 -19.9218,-0.9492 h -17.4482 v -239.1475 -239.1475 l 14.899,-0.086 c 17.2079,-0.1 24.7265,-2.1693 27.4434,-7.5543 1.4803,-2.9341 1.9326,-23.2271 1.9499,-87.4836 l 0.023,-83.6635 h 208.5855 208.5855 v 84.7243 84.7242 l 3.6097,4.1966 c 3.4963,4.0647 4.1928,4.2174 22.1575,4.8579 l 18.5477,0.6613 v 238.9591 238.9592 h -17.4482 c -9.5965,0 -18.5613,0.4271 -19.9218,0.9492 -6.7681,2.5972 -6.9449,4.9638 -6.9449,92.953 v 83.3573 h -208.5855 -208.5855 v -83.3573 z m 87.1885,28.3468 c 2.9894,-0.8304 7.4345,-3.5967 9.8781,-6.1472 3.7643,-3.9292 4.4428,-5.8757 4.4428,-12.7467 0,-6.8516 -1.0201,-9.7977 -6.5767,-18.9943 -7.0437,-11.6577 -10.0183,-23.2369 -5.9694,-23.2369 1.2452,0 5.1767,2.2349 8.7365,4.9664 14.4311,11.073 15.8465,11.8427 21.7771,11.8427 4.8075,0 7.1773,-1.149 12.3808,-6.0027 6.0535,-5.6467 6.4352,-6.5011 6.4352,-14.4049 0,-9.9855 -3.403,-15.5871 -12.0906,-19.9021 -7.7256,-3.8372 -15.0851,-1.6591 -25.426,7.5251 -4.2154,3.7438 -9.0166,6.8069 -10.6695,6.8069 -2.7976,0 -3.0052,-1.1096 -3.0052,-16.0617 0,-17.8664 2.8102,-26.7309 10.5346,-33.2306 l 4.0766,-3.4303 h -19.4592 -19.4592 l 4.342,4.5843 c 7.2967,7.7037 8.8129,12.5668 9.648,30.944 0.7665,16.8684 0.7188,17.1911 -2.5395,17.1911 -1.8263,0 -7.3801,-3.4324 -12.3417,-7.6277 -10.5452,-8.9162 -16.4688,-10.5812 -24.3463,-6.843 -8.3305,3.9532 -11.5792,9.5232 -11.5792,19.8528 0,8.104 0.4257,9.1562 5.9326,14.6631 5.1268,5.1269 6.863,5.9326 12.7827,5.9326 7.0874,0 9.6593,-1.4129 21.4017,-11.7571 3.1541,-2.7786 6.8536,-5.052 8.2212,-5.052 4.3151,0 1.6429,11.7821 -5.3665,23.6613 -5.1976,8.8086 -6.2974,12.0573 -6.2974,18.602 0,11.1968 6.3579,18.2153 18.3372,20.2424 0.4202,0.071 3.2099,-0.5501 6.1993,-1.3806 z m 257.7585,-2.4645 c 5.7762,-3.6572 8.631,-9.5329 8.5105,-17.5166 -0.09,-5.9624 -1.4888,-9.7227 -7.1656,-19.2618 -7.2753,-12.2248 -9.403,-21.8822 -4.8213,-21.8822 1.228,0 5.9266,3.0087 10.4413,6.686 10.6575,8.6807 13.5111,10.1231 20.0266,10.1231 6.7547,0 15.2527,-7.0206 17.7848,-14.6929 5.1215,-15.5183 -9.1567,-31.3799 -23.8748,-26.5225 -3.0137,0.9947 -8.8816,4.83 -13.0398,8.5231 -4.1582,3.693 -8.9127,6.7146 -10.5656,6.7146 -2.8006,0 -3.0051,-1.1111 -3.0051,-16.3266 0,-18.1212 2.6005,-26.2897 10.4808,-32.9205 l 4.1304,-3.4755 h -19.4592 -19.4593 l 4.4357,4.5843 c 7.2876,7.5318 9.1749,14.1225 9.1749,32.041 0,19.4374 -0.9031,19.9646 -14.5018,8.4664 -4.9616,-4.1952 -11.2257,-8.0412 -13.9202,-8.5467 -9.7278,-1.8249 -21.3349,7.117 -22.0142,16.9594 -0.7521,10.8965 0.017,13.3357 6.1346,19.4532 5.8099,5.8099 6.5127,6.0886 13.6284,5.4049 6.2731,-0.6028 9.0476,-2.0119 16.9294,-8.5977 5.1847,-4.3322 10.3981,-7.8768 11.5852,-7.8768 4.3167,0 2.355,9.6513 -4.198,20.6536 -5.0881,8.5427 -6.4919,12.5173 -7.035,19.9174 -0.6106,8.3208 -0.2681,9.7326 3.4271,14.124 6.5251,7.7547 17.7254,9.439 26.3702,3.9655 v 2e-4 z M 3778.143,2605.8383 c -7.0975,-7.313 -9.0666,-14.3412 -9.0666,-32.3614 0,-13.9435 0.1699,-14.7217 3.2137,-14.7217 1.7676,0 6.6451,3.0852 10.8391,6.8559 9.8974,8.8986 17.6572,11.1578 25.2868,7.3621 8.2973,-4.128 11.8517,-9.915 11.8517,-19.2964 0,-12.4555 -8.1971,-20.8993 -20.2887,-20.8993 -5.0892,0 -7.7132,1.3515 -16.3178,8.4046 -5.6394,4.6225 -11.228,8.4045 -12.4191,8.4045 -4.5423,0 -2.3268,-9.7584 5.0172,-22.0989 6.0492,-10.1648 7.1948,-13.3364 7.2585,-20.0956 0.065,-6.8647 -0.5785,-8.7091 -4.4453,-12.7478 -9.1369,-9.543 -22.4743,-9.4776 -30.5754,0.1499 -3.0597,3.6363 -3.8703,6.2699 -3.8703,12.5746 0,6.7349 1.0654,9.7463 6.851,19.366 4.8949,8.1387 6.8583,13.0566 6.8765,17.2244 0.023,5.3411 -0.2647,5.7462 -3.4128,4.8003 -1.891,-0.5682 -5.845,-3.2625 -8.7866,-5.9873 -8.678,-8.0383 -12.5186,-9.9947 -19.621,-9.9947 -5.7642,0 -7.5571,0.841 -12.6488,5.9326 -5.4253,5.4253 -5.9326,6.6377 -5.9326,14.177 0,5.3117 0.9345,9.5882 2.6271,12.0225 9.1434,13.1495 20.699,13.1294 35.0086,-0.061 3.9248,-3.6177 8.1183,-6.0936 10.321,-6.0936 h 3.7102 l -0.7512,15.663 c -0.9112,19.0005 -2.4208,24.3425 -8.9089,31.5258 l -4.9955,5.5306 h 19.3248 19.3248 l -5.4704,-5.6363 z m 253.9013,2.2313 c -7.9192,-6.197 -10.8315,-15.1377 -10.8315,-33.2527 0,-14.875 0.2189,-16.0617 2.9632,-16.0617 1.6298,0 6.2587,2.8522 10.2865,6.3382 13.5849,11.7577 22.571,12.7508 31.8067,3.5151 9.1239,-9.124 8.4243,-22.3231 -1.6521,-31.1703 -4.1902,-3.679 -6.7187,-4.6607 -12.005,-4.6607 -5.8558,0 -7.9845,1.0555 -16.9502,8.4046 -5.6394,4.6225 -11.1975,8.4045 -12.3513,8.4045 -4.4191,0 -2.1999,-9.8222 4.9969,-22.1165 6.0438,-10.3247 7.0947,-13.3295 7.0947,-20.2859 0,-6.8966 -0.6772,-8.8729 -4.3571,-12.7138 -8.9787,-9.3718 -22.3733,-9.2291 -30.4117,0.3239 -3.0534,3.6288 -3.8702,6.273 -3.8702,12.5291 0,6.5447 1.0998,9.7934 6.2973,18.6019 7.0429,11.936 9.6832,23.6613 5.328,23.6613 -1.3888,0 -5.4321,-2.6307 -8.9853,-5.8459 -10.0918,-9.1322 -13.5282,-10.9632 -20.5756,-10.9632 -17.036,0 -25.8385,23.3604 -13.465,35.7339 9.3392,9.3392 19.5049,8.1887 32.3619,-3.6625 3.636,-3.3515 8.0015,-6.0937 9.7012,-6.0937 2.9061,0 3.0904,0.9595 3.0904,16.0941 0,17.918 -1.8871,24.5087 -9.1743,32.041 l -4.4351,4.5843 h 19.7446 19.7445 z m -268.3162,-297.6305 c 4.2022,0 10.7349,0.5505 14.5169,1.2234 l 6.8765,1.2234 -5.6558,-5.8077 c -8.5412,-8.7706 -10.3893,-14.6877 -10.3893,-33.2644 0,-19.0021 0.4683,-19.3498 12.674,-9.4081 10.6888,8.7062 13.5076,10.1231 20.1389,10.1231 4.2983,0 6.9212,-1.3183 11.9432,-6.0027 6.0535,-5.6467 6.4352,-6.5012 6.4352,-14.4049 0,-9.9855 -3.403,-15.5872 -12.0906,-19.9022 -7.6685,-3.8088 -14.2655,-1.8624 -25.1354,7.416 -4.4563,3.8039 -9.4216,6.9161 -11.0339,6.9161 -4.4653,0 -3.6883,-6.9674 1.8744,-16.8091 8.2556,-14.6058 9.2463,-16.8595 9.9489,-22.6313 2.2405,-18.4062 -21.5085,-28.8131 -34.1855,-14.9801 -4.3553,4.7524 -5.0154,6.54 -4.9933,13.5214 0.021,6.7933 1.0914,9.8173 6.8765,19.436 7.4677,12.4166 9.2003,21.4631 4.1106,21.4631 -1.5072,0 -6.7998,-3.4324 -11.7614,-7.6277 -10.5452,-8.9162 -16.4688,-10.5812 -24.3463,-6.843 -8.3305,3.953 -11.5792,9.523 -11.5792,19.8527 0,8.104 0.4257,9.1562 5.9326,14.6631 5.1268,5.1268 6.863,5.9326 12.7827,5.9326 7.0874,0 9.6593,-1.4129 21.4017,-11.7571 3.1541,-2.7786 7.0695,-5.052 8.7009,-5.052 2.8026,0 2.9212,0.9054 2.1519,16.4271 -0.9925,20.0239 -2.356,24.8244 -9.0742,31.9477 -2.8717,3.0449 -5.2213,5.7406 -5.2213,5.9904 0,0.2498 2.5787,-0.018 5.7304,-0.5958 3.1517,-0.5775 9.1686,-1.05 13.3709,-1.05 z m 252.1363,0 c 4.2023,0 10.7349,0.5505 14.517,1.2234 l 6.8764,1.2234 -5.6558,-5.8077 c -8.5412,-8.7706 -10.3892,-14.6877 -10.3892,-33.2644 0,-13.0307 0.4211,-16.0941 2.2128,-16.0941 1.217,0 6.4774,3.5491 11.6898,7.8868 7.7647,6.4619 10.7713,8.0112 16.6409,8.5752 6.3571,0.6108 7.7836,0.1442 12.6665,-4.143 9.7439,-8.5552 11.1074,-21.2142 3.2862,-30.5092 -8.5737,-10.1892 -19.7362,-9.4071 -32.9255,2.307 -4.1582,3.693 -9.0032,6.7146 -10.7668,6.7146 -2.8491,0 -3.1166,-0.669 -2.4009,-6.0052 0.443,-3.3029 3.3053,-10.0553 6.3607,-15.0054 7.325,-11.8675 9.1014,-18.5161 7.0162,-26.2599 -3.8041,-14.1275 -22.8249,-18.3328 -33.5061,-7.4078 -4.1401,4.2346 -4.7213,5.8805 -4.7062,13.3277 0.015,7.3222 0.9629,10.0805 6.8592,19.9572 11.9332,19.9889 8.2303,27.9339 -6.7982,14.5865 -10.153,-9.0174 -17.5445,-11.284 -25.1021,-7.6977 -9.3515,4.4376 -12.319,10.5259 -11.8124,24.235 0.1077,2.9169 2.1455,6.3657 6.0945,10.3147 5.1269,5.1268 6.863,5.9326 12.7828,5.9326 7.0874,0 9.6593,-1.4129 21.4016,-11.7571 9.5548,-8.4172 10.3103,-7.5351 10.3103,12.0387 0,18.8333 -2.8433,28.0679 -10.1073,32.8275 -5.3147,3.4822 -4.4652,5.0514 2.0847,3.8512 3.1518,-0.5775 9.1686,-1.05 13.3709,-1.05 z"
       style="fill:#feefd3;fill-opacity:1;stroke:#fffecd;stroke-width:0.541452;stroke-miterlimit:4;stroke-dasharray:none;stroke-opacity:1" />
  </g>
</svg>
