<?xml version="1.0" encoding="UTF-8" standalone="no"?>
<!-- Created with Inkscape (http://www.inkscape.org/) -->

<svg
   id="svg10047"
   height="122.94574"
   width="78.999786"
   version="1.1"
   viewBox="0 0 78.999786 122.94574"
   inkscape:version="0.91 r13725"
   sodipodi:docname="kaiser-jubilaum.svgz"
   xmlns:inkscape="http://www.inkscape.org/namespaces/inkscape"
   xmlns:sodipodi="http://sodipodi.sourceforge.net/DTD/sodipodi-0.dtd"
   xmlns="http://www.w3.org/2000/svg"
   xmlns:svg="http://www.w3.org/2000/svg"
   xmlns:rdf="http://www.w3.org/1999/02/22-rdf-syntax-ns#"
   xmlns:cc="http://creativecommons.org/ns#"
   xmlns:dc="http://purl.org/dc/elements/1.1/">
  <sodipodi:namedview
     pagecolor="#ffffff"
     bordercolor="#666666"
     borderopacity="1"
     objecttolerance="10"
     gridtolerance="10"
     guidetolerance="10"
     inkscape:pageopacity="0"
     inkscape:pageshadow="2"
     inkscape:window-width="1920"
     inkscape:window-height="1016"
     id="namedview1491"
     showgrid="false"
     inkscape:zoom="1.3479675"
     inkscape:cx="513.49999"
     inkscape:cy="307.5"
     inkscape:window-x="0"
     inkscape:window-y="0"
     inkscape:window-maximized="1"
     inkscape:current-layer="svg10047"
     showguides="true"
     inkscape:guide-bbox="true"
     inkscape:snap-grids="true"
     inkscape:showpageshadow="2"
     inkscape:pagecheckerboard="0"
     inkscape:deskcolor="#d1d1d1" />
  <metadata
     id="metadata16869">
    <rdf:RDF>
      <cc:Work
         rdf:about="">
        <dc:format>image/svg+xml</dc:format>
        <dc:type
           rdf:resource="http://purl.org/dc/dcmitype/StillImage" />
        <dc:title />
      </cc:Work>
    </rdf:RDF>
  </metadata>
  <defs
     id="defs10049" />
  <g
     id="club_5"
     transform="matrix(0.13620652,0,0,0.13660647,-394.99891,-286.87359)"
     inkscape:label="#club_5">
    <rect
       style="font-style:normal;font-variant:normal;font-weight:500;font-stretch:normal;font-size:medium;line-height:125%;font-family:Gaelic;-inkscape-font-specification:'Gaelic Medium';letter-spacing:0px;word-spacing:0px;fill:#ffffff;fill-opacity:1;stroke:#000000;stroke-width:1.99898;stroke-linecap:butt;stroke-linejoin:miter;stroke-miterlimit:4;stroke-dasharray:none;stroke-opacity:1"
       id="rect5921"
       y="2100.9995"
       x="2900.9995"
       ry="49.888176"
       rx="48.210754"
       height="898.00043"
       width="578.00104" />
    <path
       inkscape:connector-curvature="0"
       id="path5951"
       d="m 2978.0905,2131.3409 c -0.045,168.2551 -0.045,168.2551 -0.045,168.2551 v 0"
       style="fill:#aa8800;fill-rule:evenodd;stroke:#cb9a00;stroke-width:1.9531;stroke-linecap:butt;stroke-linejoin:miter;stroke-miterlimit:4;stroke-dasharray:none;stroke-opacity:1" />
    <path
       inkscape:connector-curvature="0"
       id="path6379"
       d="m 2926,2185.5792 h 7.611 q 0.6765,7.9377 3.8478,12.6436 3.2135,4.7058 8.4567,4.7058 5.2854,0 8.4989,-4.876 3.2135,-4.8759 3.2135,-12.5301 0,-8.1077 -3.1289,-12.36 -3.129,-4.3089 -7.7802,-4.3089 -6.9767,0 -11.797,9.4683 -2.7061,-3.5718 -6.1311,-5.7263 l 2.4102,-40.5954 h 31.3742 v 20.9213 h -7.2728 v -10.7724 h -18.0126 l -1.3108,23.0758 q 5.37,-5.8398 11.9661,-5.8398 8.3721,0 13.1924,7.484 4.8626,7.4841 4.8626,18.54 0,11.6796 -5.3277,19.1637 -5.2854,7.4274 -14.8414,7.4274 -8.8795,0 -14.0381,-6.7469 -5.1585,-6.747 -5.7928,-19.6741 z"
       style="font-style:normal;font-variant:normal;font-weight:normal;font-stretch:normal;font-size:medium;line-height:125%;font-family:Rockwell;-inkscape-font-specification:Rockwell;letter-spacing:0px;word-spacing:0px;fill:#000000;fill-opacity:1;stroke:none;stroke-width:1px;stroke-linecap:butt;stroke-linejoin:miter;stroke-opacity:1" />
    <path
       d="m 3414,2185.5792 h 7.611 q 0.6765,7.9377 3.8478,12.6436 3.2135,4.7058 8.4567,4.7058 5.2854,0 8.4989,-4.876 3.2135,-4.8759 3.2135,-12.5301 0,-8.1077 -3.1289,-12.36 -3.129,-4.3089 -7.7802,-4.3089 -6.9767,0 -11.797,9.4683 -2.7061,-3.5718 -6.1311,-5.7263 l 2.4102,-40.5954 h 31.3742 v 20.9213 h -7.2728 v -10.7724 h -18.0126 l -1.3108,23.0758 q 5.37,-5.8398 11.9661,-5.8398 8.3721,0 13.1924,7.484 4.8626,7.4841 4.8626,18.54 0,11.6796 -5.3277,19.1637 -5.2854,7.4274 -14.8414,7.4274 -8.8795,0 -14.0381,-6.7469 -5.1585,-6.747 -5.7928,-19.6741 z"
       id="path6555-1"
       inkscape:connector-curvature="0"
       style="font-style:normal;font-variant:normal;font-weight:normal;font-stretch:normal;font-size:medium;line-height:125%;font-family:Rockwell;-inkscape-font-specification:Rockwell;letter-spacing:0px;word-spacing:0px;fill:#000000;fill-opacity:1;stroke:none;stroke-width:1px;stroke-linecap:butt;stroke-linejoin:miter;stroke-opacity:1" />
    <path
       d="m 2966,2914.3213 h -7.611 q -0.6765,-7.9377 -3.8478,-12.6436 -3.2135,-4.7058 -8.4567,-4.7058 -5.2854,0 -8.4989,4.876 -3.2135,4.8759 -3.2135,12.5301 0,8.1077 3.1289,12.36 3.129,4.3089 7.7802,4.3089 6.9767,0 11.797,-9.4683 2.7061,3.5718 6.1311,5.7263 l -2.4102,40.5954 h -31.3742 v -20.9213 h 7.2728 v 10.7724 h 18.0126 l 1.3108,-23.0758 q -5.37,5.8398 -11.9661,5.8398 -8.3721,0 -13.1924,-7.484 -4.8626,-7.4841 -4.8626,-18.54 0,-11.6796 5.3277,-19.1637 5.2854,-7.4274 14.8414,-7.4274 8.8795,0 14.0381,6.7469 5.1585,6.747 5.7928,19.6741 z"
       id="path6751"
       inkscape:connector-curvature="0"
       style="font-style:normal;font-variant:normal;font-weight:normal;font-stretch:normal;font-size:medium;line-height:125%;font-family:Rockwell;-inkscape-font-specification:Rockwell;letter-spacing:0px;word-spacing:0px;fill:#000000;fill-opacity:1;stroke:none;stroke-width:1px;stroke-linecap:butt;stroke-linejoin:miter;stroke-opacity:1" />
    <path
       inkscape:connector-curvature="0"
       id="path6813"
       d="m 3454,2914.3213 h -7.611 q -0.6765,-7.9377 -3.8478,-12.6436 -3.2135,-4.7058 -8.4567,-4.7058 -5.2854,0 -8.4989,4.876 -3.2135,4.8759 -3.2135,12.5301 0,8.1077 3.1289,12.36 3.129,4.3089 7.7802,4.3089 6.9767,0 11.797,-9.4683 2.7061,3.5718 6.1311,5.7263 l -2.4102,40.5954 h -31.3742 v -20.9213 h 7.2728 v 10.7724 h 18.0126 l 1.3108,-23.0758 q -5.37,5.8398 -11.9661,5.8398 -8.3721,0 -13.1924,-7.484 -4.8626,-7.4841 -4.8626,-18.54 0,-11.6796 5.3277,-19.1637 5.2854,-7.4274 14.8414,-7.4274 8.8795,0 14.0381,6.7469 5.1585,6.747 5.7928,19.6741 z"
       style="font-style:normal;font-variant:normal;font-weight:normal;font-stretch:normal;font-size:medium;line-height:125%;font-family:Rockwell;-inkscape-font-specification:Rockwell;letter-spacing:0px;word-spacing:0px;fill:#000000;fill-opacity:1;stroke:none;stroke-width:1px;stroke-linecap:butt;stroke-linejoin:miter;stroke-opacity:1" />
    <path
       inkscape:connector-curvature="0"
       id="path8723"
       d="m 2939.6359,2282.9324 c 1.8864,-1.4881 3.1233,-3.2447 3.9688,-5.6366 0.6482,-1.834 0.7259,-2.6795 0.7527,-8.1868 l 0.029,-6.1415 -1.0238,-0.097 c -1.4645,-0.1391 -2.8518,0.6688 -5.2832,3.0766 -3.1304,3.0999 -5.5237,3.9772 -8.6377,3.1663 -1.8328,-0.4772 -4.6087,-3.1564 -5.1123,-4.9339 -0.4392,-1.5504 -0.4392,-4.0228 0,-5.5732 0.5036,-1.7775 3.2795,-4.4567 5.1123,-4.9339 3.114,-0.8109 5.5073,0.066 8.6377,3.1663 2.4314,2.4078 3.8187,3.2157 5.2832,3.0767 1.0198,-0.097 1.0237,-0.1042 0.9915,-1.8353 -0.04,-2.1153 -0.8206,-3.9321 -3.1931,-7.427 -2.1634,-3.1871 -2.7189,-4.661 -2.7189,-7.2136 0,-2.5086 0.5646,-3.8096 2.3554,-5.4276 2.9684,-2.682 7.4228,-2.682 10.3912,0 1.7908,1.618 2.3554,2.919 2.3554,5.4276 0,2.5526 -0.5556,4.0265 -2.719,7.2136 -2.3725,3.4949 -3.1536,5.3117 -3.193,7.427 -0.032,1.7311 -0.028,1.7384 0.9915,1.8353 1.4644,0.139 2.8518,-0.6689 5.2832,-3.0767 2.301,-2.2785 3.8515,-3.1726 5.8936,-3.3982 2.2696,-0.2507 4.0067,0.4265 5.8498,2.2808 1.8118,1.8227 2.3498,3.1213 2.3498,5.6716 0,2.5503 -0.538,3.8489 -2.3498,5.6716 -1.8431,1.8543 -3.5802,2.5315 -5.8498,2.2808 -2.0421,-0.2256 -3.5926,-1.1197 -5.8936,-3.3982 -2.4314,-2.4078 -3.8188,-3.2157 -5.2832,-3.0766 l -1.0239,0.097 0.029,6.1415 c 0.026,5.5073 0.1045,6.3528 0.7528,8.1868 0.8455,2.3919 2.0823,4.1485 3.9687,5.6366 l 1.3538,1.0678 -1.1246,-0.2204 c -2.9691,-0.5818 -4.8205,-0.8093 -6.5871,-0.8093 -1.7666,0 -3.6181,0.2275 -6.5871,0.8093 l -1.1246,0.2204 1.3537,-1.0678 z"
       style="fill:#0a0a0a" />
    <path
       style="fill:#0a0a0a"
       d="m 3427.6359,2282.9324 c 1.8864,-1.4881 3.1233,-3.2447 3.9688,-5.6366 0.6482,-1.834 0.7259,-2.6795 0.7527,-8.1868 l 0.029,-6.1415 -1.0238,-0.097 c -1.4645,-0.1391 -2.8518,0.6688 -5.2832,3.0766 -3.1304,3.0999 -5.5237,3.9772 -8.6377,3.1663 -1.8328,-0.4772 -4.6087,-3.1564 -5.1123,-4.9339 -0.4392,-1.5504 -0.4392,-4.0228 0,-5.5732 0.5036,-1.7775 3.2795,-4.4567 5.1123,-4.9339 3.114,-0.8109 5.5073,0.066 8.6377,3.1663 2.4314,2.4078 3.8187,3.2157 5.2832,3.0767 1.0198,-0.097 1.0237,-0.1042 0.9915,-1.8353 -0.04,-2.1153 -0.8206,-3.9321 -3.1931,-7.427 -2.1634,-3.1871 -2.7189,-4.661 -2.7189,-7.2136 0,-2.5086 0.5646,-3.8096 2.3554,-5.4276 2.9684,-2.682 7.4228,-2.682 10.3912,0 1.7908,1.618 2.3554,2.919 2.3554,5.4276 0,2.5526 -0.5556,4.0265 -2.719,7.2136 -2.3725,3.4949 -3.1536,5.3117 -3.193,7.427 -0.032,1.7311 -0.028,1.7384 0.9915,1.8353 1.4644,0.139 2.8518,-0.6689 5.2832,-3.0767 2.301,-2.2785 3.8515,-3.1726 5.8936,-3.3982 2.2696,-0.2507 4.0067,0.4265 5.8498,2.2808 1.8118,1.8227 2.3498,3.1213 2.3498,5.6716 0,2.5503 -0.538,3.8489 -2.3498,5.6716 -1.8431,1.8543 -3.5802,2.5315 -5.8498,2.2808 -2.0421,-0.2256 -3.5926,-1.1197 -5.8936,-3.3982 -2.4314,-2.4078 -3.8188,-3.2157 -5.2832,-3.0766 l -1.0239,0.097 0.029,6.1415 c 0.026,5.5073 0.1045,6.3528 0.7528,8.1868 0.8455,2.3919 2.0823,4.1485 3.9687,5.6366 l 1.3538,1.0678 -1.1246,-0.2204 c -2.9691,-0.5818 -4.8205,-0.8093 -6.5871,-0.8093 -1.7666,0 -3.6181,0.2275 -6.5871,0.8093 l -1.1246,0.2204 1.3537,-1.0678 z"
       id="path8725"
       inkscape:connector-curvature="0" />
    <path
       style="fill:#0a0a0a"
       d="m 2939.6359,2817.0682 c 1.8864,1.4881 3.1233,3.2447 3.9688,5.6366 0.6482,1.834 0.7259,2.6795 0.7527,8.1868 l 0.029,6.1415 -1.0238,0.097 c -1.4645,0.1391 -2.8518,-0.6688 -5.2832,-3.0766 -3.1304,-3.0999 -5.5237,-3.9772 -8.6377,-3.1663 -1.8328,0.4772 -4.6087,3.1564 -5.1123,4.9339 -0.4392,1.5504 -0.4392,4.0228 0,5.5732 0.5036,1.7775 3.2795,4.4567 5.1123,4.9339 3.114,0.8109 5.5073,-0.066 8.6377,-3.1663 2.4314,-2.4078 3.8187,-3.2157 5.2832,-3.0767 1.0198,0.097 1.0237,0.1042 0.9915,1.8353 -0.04,2.1153 -0.8206,3.9321 -3.1931,7.427 -2.1634,3.1871 -2.7189,4.661 -2.7189,7.2136 0,2.5086 0.5646,3.8096 2.3554,5.4276 2.9684,2.682 7.4228,2.682 10.3912,0 1.7908,-1.618 2.3554,-2.919 2.3554,-5.4276 0,-2.5526 -0.5556,-4.0265 -2.719,-7.2136 -2.3725,-3.4949 -3.1536,-5.3117 -3.193,-7.427 -0.032,-1.7311 -0.028,-1.7384 0.9915,-1.8353 1.4644,-0.139 2.8518,0.6689 5.2832,3.0767 2.301,2.2785 3.8515,3.1726 5.8936,3.3982 2.2696,0.2507 4.0067,-0.4265 5.8498,-2.2808 1.8118,-1.8227 2.3498,-3.1213 2.3498,-5.6716 0,-2.5503 -0.538,-3.8489 -2.3498,-5.6716 -1.8431,-1.8543 -3.5802,-2.5315 -5.8498,-2.2808 -2.0421,0.2256 -3.5926,1.1197 -5.8936,3.3982 -2.4314,2.4078 -3.8188,3.2157 -5.2832,3.0766 l -1.0239,-0.097 0.029,-6.1415 c 0.026,-5.5073 0.1045,-6.3528 0.7528,-8.1868 0.8455,-2.3919 2.0823,-4.1485 3.9687,-5.6366 l 1.3538,-1.0678 -1.1246,0.2204 c -2.9691,0.5818 -4.8205,0.8093 -6.5871,0.8093 -1.7666,0 -3.6181,-0.2275 -6.5871,-0.8093 l -1.1246,-0.2204 1.3537,1.0678 z"
       id="path8775"
       inkscape:connector-curvature="0" />
    <path
       inkscape:connector-curvature="0"
       id="path8777"
       d="m 3427.6359,2817.0682 c 1.8864,1.4881 3.1233,3.2447 3.9688,5.6366 0.6482,1.834 0.7259,2.6795 0.7527,8.1868 l 0.029,6.1415 -1.0238,0.097 c -1.4645,0.1391 -2.8518,-0.6688 -5.2832,-3.0766 -3.1304,-3.0999 -5.5237,-3.9772 -8.6377,-3.1663 -1.8328,0.4772 -4.6087,3.1564 -5.1123,4.9339 -0.4392,1.5504 -0.4392,4.0228 0,5.5732 0.5036,1.7775 3.2795,4.4567 5.1123,4.9339 3.114,0.8109 5.5073,-0.066 8.6377,-3.1663 2.4314,-2.4078 3.8187,-3.2157 5.2832,-3.0767 1.0198,0.097 1.0237,0.1042 0.9915,1.8353 -0.04,2.1153 -0.8206,3.9321 -3.1931,7.427 -2.1634,3.1871 -2.7189,4.661 -2.7189,7.2136 0,2.5086 0.5646,3.8096 2.3554,5.4276 2.9684,2.682 7.4228,2.682 10.3912,0 1.7908,-1.618 2.3554,-2.919 2.3554,-5.4276 0,-2.5526 -0.5556,-4.0265 -2.719,-7.2136 -2.3725,-3.4949 -3.1536,-5.3117 -3.193,-7.427 -0.032,-1.7311 -0.028,-1.7384 0.9915,-1.8353 1.4644,-0.139 2.8518,0.6689 5.2832,3.0767 2.301,2.2785 3.8515,3.1726 5.8936,3.3982 2.2696,0.2507 4.0067,-0.4265 5.8498,-2.2808 1.8118,-1.8227 2.3498,-3.1213 2.3498,-5.6716 0,-2.5503 -0.538,-3.8489 -2.3498,-5.6716 -1.8431,-1.8543 -3.5802,-2.5315 -5.8498,-2.2808 -2.0421,0.2256 -3.5926,1.1197 -5.8936,3.3982 -2.4314,2.4078 -3.8188,3.2157 -5.2832,3.0766 l -1.0239,-0.097 0.029,-6.1415 c 0.026,-5.5073 0.1045,-6.3528 0.7528,-8.1868 0.8455,-2.3919 2.0823,-4.1485 3.9687,-5.6366 l 1.3538,-1.0678 -1.1246,0.2204 c -2.9691,0.5818 -4.8205,0.8093 -6.5871,0.8093 -1.7666,0 -3.6181,-0.2275 -6.5871,-0.8093 l -1.1246,-0.2204 1.3537,1.0678 z"
       style="fill:#0a0a0a" />
    <path
       style="fill:#0a0a0a"
       d="m 3047.7983,2309.2416 c 4.802,-3.8442 7.9502,-8.3819 10.1024,-14.5612 1.65,-4.7378 1.8479,-6.9219 1.9161,-21.1491 l 0.076,-15.8657 -2.6061,-0.2511 c -3.7281,-0.3591 -7.2593,1.7278 -13.4485,7.948 -7.9681,8.008 -14.0603,10.2744 -21.9867,8.1797 -4.6651,-1.2328 -11.7312,-8.154 -13.013,-12.7461 -1.118,-4.005 -1.118,-10.3922 0,-14.3972 1.2818,-4.5921 8.3479,-11.5132 13.013,-12.7461 7.9264,-2.0947 14.0186,0.1718 21.9867,8.1797 6.1892,6.2202 9.7204,8.3072 13.4485,7.948 2.5957,-0.2501 2.6058,-0.269 2.5237,-4.7411 -0.1006,-5.4645 -2.0886,-10.1579 -8.1277,-19.1865 -5.507,-8.2332 -6.9212,-12.0409 -6.9212,-18.6349 0,-6.4806 1.4371,-9.8416 5.9957,-14.0215 7.556,-6.9284 18.8943,-6.9284 26.4502,0 4.5586,4.1799 5.9958,7.5409 5.9958,14.0215 0,6.594 -1.4143,10.4017 -6.9212,18.6349 -6.0391,9.0286 -8.0273,13.722 -8.1276,19.1865 -0.082,4.4721 -0.072,4.491 2.5236,4.7411 3.728,0.3592 7.2592,-1.7278 13.4485,-7.948 5.8569,-5.8862 9.8037,-8.1958 15.0016,-8.7786 5.7775,-0.6478 10.1991,1.1017 14.8907,5.8919 4.6117,4.7088 5.9812,8.0634 5.9812,14.6517 0,6.5883 -1.3695,9.943 -5.9812,14.6517 -4.6916,4.7902 -9.1132,6.5397 -14.8907,5.8919 -5.1979,-0.5828 -9.1447,-2.8924 -15.0016,-8.7786 -6.1893,-6.2202 -9.7205,-8.3071 -13.4485,-7.948 l -2.6062,0.2511 0.076,15.8657 c 0.068,14.2272 0.2661,16.4113 1.9163,21.1491 2.1521,6.1793 5.3003,10.717 10.1022,14.5612 l 3.4459,2.7586 -2.8627,-0.5693 c -7.5575,-1.5031 -12.2704,-2.0907 -16.7672,-2.0907 -4.4966,0 -9.2096,0.5876 -16.767,2.0907 l -2.8627,0.5693 z"
       id="path6397"
       inkscape:connector-curvature="0" />
    <path
       inkscape:connector-curvature="0"
       id="path6399"
       d="m 3299.7983,2309.2416 c 4.802,-3.8442 7.9502,-8.3819 10.1024,-14.5612 1.65,-4.7378 1.8479,-6.9219 1.9161,-21.1491 l 0.076,-15.8657 -2.6061,-0.2511 c -3.7281,-0.3591 -7.2593,1.7278 -13.4485,7.948 -7.9681,8.008 -14.0603,10.2744 -21.9867,8.1797 -4.6651,-1.2328 -11.7312,-8.154 -13.013,-12.7461 -1.118,-4.005 -1.118,-10.3922 0,-14.3972 1.2818,-4.5921 8.3479,-11.5132 13.013,-12.7461 7.9264,-2.0947 14.0186,0.1718 21.9867,8.1797 6.1892,6.2202 9.7204,8.3072 13.4485,7.948 2.5957,-0.2501 2.6058,-0.269 2.5237,-4.7411 -0.1006,-5.4645 -2.0886,-10.1579 -8.1277,-19.1865 -5.507,-8.2332 -6.9212,-12.0409 -6.9212,-18.6349 0,-6.4806 1.4371,-9.8416 5.9957,-14.0215 7.556,-6.9284 18.8943,-6.9284 26.4502,0 4.5586,4.1799 5.9958,7.5409 5.9958,14.0215 0,6.594 -1.4143,10.4017 -6.9212,18.6349 -6.0391,9.0286 -8.0273,13.722 -8.1276,19.1865 -0.082,4.4721 -0.072,4.491 2.5236,4.7411 3.728,0.3592 7.2592,-1.7278 13.4485,-7.948 5.8569,-5.8862 9.8037,-8.1958 15.0016,-8.7786 5.7775,-0.6478 10.1991,1.1017 14.8907,5.8919 4.6117,4.7088 5.9812,8.0634 5.9812,14.6517 0,6.5883 -1.3695,9.943 -5.9812,14.6517 -4.6916,4.7902 -9.1132,6.5397 -14.8907,5.8919 -5.1979,-0.5828 -9.1447,-2.8924 -15.0016,-8.7786 -6.1893,-6.2202 -9.7205,-8.3071 -13.4485,-7.948 l -2.6062,0.2511 0.076,15.8657 c 0.068,14.2272 0.2661,16.4113 1.9163,21.1491 2.1521,6.1793 5.3003,10.717 10.1022,14.5612 l 3.4459,2.7586 -2.8627,-0.5693 c -7.5575,-1.5031 -12.2704,-2.0907 -16.7672,-2.0907 -4.4966,0 -9.2096,0.5876 -16.767,2.0907 l -2.8627,0.5693 z"
       style="fill:#0a0a0a" />
    <path
       inkscape:connector-curvature="0"
       id="path6401-0"
       d="m 3047.7983,2790.7588 c 4.802,3.8442 7.9502,8.3819 10.1024,14.5612 1.65,4.7378 1.8479,6.9219 1.9161,21.1491 l 0.076,15.8657 -2.6061,0.2511 c -3.7281,0.3591 -7.2593,-1.7278 -13.4485,-7.948 -7.9681,-8.008 -14.0603,-10.2744 -21.9867,-8.1797 -4.6651,1.2328 -11.7312,8.154 -13.013,12.7461 -1.118,4.005 -1.118,10.3922 0,14.3972 1.2818,4.5921 8.3479,11.5132 13.013,12.7461 7.9264,2.0947 14.0186,-0.1718 21.9867,-8.1797 6.1892,-6.2202 9.7204,-8.3072 13.4485,-7.948 2.5957,0.2501 2.6058,0.269 2.5237,4.7411 -0.1006,5.4645 -2.0886,10.1579 -8.1277,19.1865 -5.507,8.2332 -6.9212,12.0409 -6.9212,18.6349 0,6.4806 1.4371,9.8416 5.9957,14.0215 7.556,6.9284 18.8943,6.9284 26.4502,0 4.5586,-4.1799 5.9958,-7.5409 5.9958,-14.0215 0,-6.594 -1.4143,-10.4017 -6.9212,-18.6349 -6.0391,-9.0286 -8.0273,-13.722 -8.1276,-19.1865 -0.082,-4.4721 -0.072,-4.491 2.5236,-4.7411 3.728,-0.3592 7.2592,1.7278 13.4485,7.948 5.8569,5.8862 9.8037,8.1958 15.0016,8.7786 5.7775,0.6478 10.1991,-1.1017 14.8907,-5.8919 4.6117,-4.7088 5.9812,-8.0634 5.9812,-14.6517 0,-6.5883 -1.3695,-9.943 -5.9812,-14.6517 -4.6916,-4.7902 -9.1132,-6.5397 -14.8907,-5.8919 -5.1979,0.5828 -9.1447,2.8924 -15.0016,8.7786 -6.1893,6.2202 -9.7205,8.3071 -13.4485,7.948 l -2.6062,-0.2511 0.076,-15.8657 c 0.068,-14.2272 0.2661,-16.4113 1.9163,-21.1491 2.1521,-6.1793 5.3003,-10.717 10.1022,-14.5612 l 3.4459,-2.7586 -2.8627,0.5693 c -7.5575,1.5031 -12.2704,2.0907 -16.7672,2.0907 -4.4966,0 -9.2096,-0.5876 -16.767,-2.0907 l -2.8627,-0.5693 z"
       style="fill:#0a0a0a" />
    <path
       style="fill:#0a0a0a"
       d="m 3299.7983,2790.7588 c 4.802,3.8442 7.9502,8.3819 10.1024,14.5612 1.65,4.7378 1.8479,6.9219 1.9161,21.1491 l 0.076,15.8657 -2.6061,0.2511 c -3.7281,0.3591 -7.2593,-1.7278 -13.4485,-7.948 -7.9681,-8.008 -14.0603,-10.2744 -21.9867,-8.1797 -4.6651,1.2328 -11.7312,8.154 -13.013,12.7461 -1.118,4.005 -1.118,10.3922 0,14.3972 1.2818,4.5921 8.3479,11.5132 13.013,12.7461 7.9264,2.0947 14.0186,-0.1718 21.9867,-8.1797 6.1892,-6.2202 9.7204,-8.3072 13.4485,-7.948 2.5957,0.2501 2.6058,0.269 2.5237,4.7411 -0.1006,5.4645 -2.0886,10.1579 -8.1277,19.1865 -5.507,8.2332 -6.9212,12.0409 -6.9212,18.6349 0,6.4806 1.4371,9.8416 5.9957,14.0215 7.556,6.9284 18.8943,6.9284 26.4502,0 4.5586,-4.1799 5.9958,-7.5409 5.9958,-14.0215 0,-6.594 -1.4143,-10.4017 -6.9212,-18.6349 -6.0391,-9.0286 -8.0273,-13.722 -8.1276,-19.1865 -0.082,-4.4721 -0.072,-4.491 2.5236,-4.7411 3.728,-0.3592 7.2592,1.7278 13.4485,7.948 5.8569,5.8862 9.8037,8.1958 15.0016,8.7786 5.7775,0.6478 10.1991,-1.1017 14.8907,-5.8919 4.6117,-4.7088 5.9812,-8.0634 5.9812,-14.6517 0,-6.5883 -1.3695,-9.943 -5.9812,-14.6517 -4.6916,-4.7902 -9.1132,-6.5397 -14.8907,-5.8919 -5.1979,0.5828 -9.1447,2.8924 -15.0016,8.7786 -6.1893,6.2202 -9.7205,8.3071 -13.4485,7.948 l -2.6062,-0.2511 0.076,-15.8657 c 0.068,-14.2272 0.2661,-16.4113 1.9163,-21.1491 2.1521,-6.1793 5.3003,-10.717 10.1022,-14.5612 l 3.4459,-2.7586 -2.8627,0.5693 c -7.5575,1.5031 -12.2704,2.0907 -16.7672,2.0907 -4.4966,0 -9.2096,-0.5876 -16.767,-2.0907 l -2.8627,-0.5693 z"
       id="path6403-3"
       inkscape:connector-curvature="0" />
    <path
       style="fill:#0a0a0a"
       d="m 3173.7983,2609.2416 c 4.802,-3.8442 7.9502,-8.3819 10.1024,-14.5612 1.65,-4.7378 1.8479,-6.9219 1.9161,-21.1491 l 0.076,-15.8657 -2.6061,-0.2511 c -3.7281,-0.3591 -7.2593,1.7278 -13.4485,7.948 -7.9681,8.008 -14.0603,10.2744 -21.9867,8.1797 -4.6651,-1.2328 -11.7312,-8.154 -13.013,-12.7461 -1.118,-4.005 -1.118,-10.3922 0,-14.3972 1.2818,-4.5921 8.3479,-11.5132 13.013,-12.7461 7.9264,-2.0947 14.0186,0.1718 21.9867,8.1797 6.1892,6.2202 9.7204,8.3072 13.4485,7.948 2.5957,-0.2501 2.6058,-0.269 2.5237,-4.7411 -0.1006,-5.4645 -2.0886,-10.1579 -8.1277,-19.1865 -5.507,-8.2332 -6.9212,-12.0409 -6.9212,-18.6349 0,-6.4806 1.4371,-9.8416 5.9957,-14.0215 7.556,-6.9284 18.8943,-6.9284 26.4502,0 4.5586,4.1799 5.9958,7.5409 5.9958,14.0215 0,6.594 -1.4143,10.4017 -6.9212,18.6349 -6.0391,9.0286 -8.0273,13.722 -8.1276,19.1865 -0.082,4.4721 -0.072,4.491 2.5236,4.7411 3.728,0.3592 7.2592,-1.7278 13.4485,-7.948 5.8569,-5.8862 9.8037,-8.1958 15.0016,-8.7786 5.7775,-0.6478 10.1991,1.1017 14.8907,5.8919 4.6117,4.7088 5.9812,8.0634 5.9812,14.6517 0,6.5883 -1.3695,9.943 -5.9812,14.6517 -4.6916,4.7902 -9.1132,6.5397 -14.8907,5.8919 -5.1979,-0.5828 -9.1447,-2.8924 -15.0016,-8.7786 -6.1893,-6.2202 -9.7205,-8.3071 -13.4485,-7.948 l -2.6062,0.2511 0.076,15.8657 c 0.068,14.2272 0.2661,16.4113 1.9163,21.1491 2.1521,6.1793 5.3003,10.717 10.1022,14.5612 l 3.4459,2.7586 -2.8627,-0.5693 c -7.5575,-1.5031 -12.2704,-2.0907 -16.7672,-2.0907 -4.4966,0 -9.2096,0.5876 -16.767,2.0907 l -2.8627,0.5693 z"
       id="path6407"
       inkscape:connector-curvature="0" />
    <path
       inkscape:connector-curvature="0"
       id="path10125"
       d="m 2978.608,2969.5383 c -0.347,-0.3672 -0.632,-38.9588 -0.632,-85.7589 0,-82.2583 -0.06,-85.1695 -1.802,-87.4482 -1.767,-2.3087 -2.209,-2.3674 -21.489,-2.8564 L 2935,2792.9756 v -243.1243 -243.1244 l 19.568,-0.4992 c 17.134,-0.4371 19.777,-0.721 21.252,-2.282 1.582,-1.6748 1.713,-6.9885 2.156,-87.8642 L 2978.449,2130 h 212.051 212.051 l 0.472,86.0815 c 0.444,80.8757 0.575,86.1894 2.157,87.8642 1.475,1.561 4.117,1.8449 21.252,2.282 l 19.568,0.4992 v 243.1244 243.1243 l -19.568,0.4992 c -17.135,0.4372 -19.777,0.7211 -21.252,2.282 -1.582,1.6749 -1.713,6.9885 -2.157,87.8642 l -0.472,86.0816 -211.655,0.2518 c -116.411,0.1384 -211.939,-0.049 -212.288,-0.4161 z m 420.641,-85.9527 c 0,-81.6793 0.05,-83.6964 1.88,-86.8749 3.8,-6.5887 6.015,-7.2218 25.272,-7.226 h 17.237 V 2549.855 2310.2252 h -17.237 c -19.257,0 -21.472,-0.6373 -25.272,-7.2259 -1.834,-3.1786 -1.877,-5.1956 -1.88,-86.8749 v -83.6206 h -208.745 -208.745 v 83.6208 c 0,81.6794 -0.05,83.6964 -1.88,86.875 -3.801,6.5886 -6.015,7.2217 -25.272,7.2259 h -17.238 v 239.6297 239.6298 h 17.238 c 19.257,0 21.471,0.6373 25.272,7.226 1.833,3.1785 1.877,5.1955 1.88,86.8749 v 83.6205 h 208.745 208.745 z"
       style="fill:#b7b772" />
    <path
       inkscape:connector-curvature="0"
       id="path10153"
       d="m 2982.1234,2882.5947 v -84.163 l -4.4668,-4.4668 c -4.4225,-4.4225 -4.642,-4.4667 -22.1574,-4.4667 h -17.6907 v -239.1475 -239.1475 l 14.1349,-0.01 c 7.7742,0 16.7125,-0.7243 19.8629,-1.5992 10.59,-2.9404 10.3171,-0.4589 10.3171,-93.8219 v -83.3573 h 208.5855 208.5855 v 84.7243 84.7242 l 3.6097,4.1966 c 3.4963,4.0647 4.1928,4.2174 22.1575,4.8579 l 18.5477,0.6613 v 238.9591 238.9592 h -18.4102 c -17.9455,0 -18.5047,0.102 -22.1574,4.0433 l -3.7473,4.0434 v 84.5864 84.5864 h -208.5855 -208.5855 v -84.163 z m 92.8107,26.688 c 5.7762,-3.6572 8.6309,-9.5329 8.5105,-17.5166 -0.09,-5.9624 -1.4888,-9.7227 -7.1657,-19.2618 -7.2752,-12.2248 -9.4029,-21.8822 -4.8212,-21.8822 1.228,0 5.9266,3.0087 10.4413,6.686 10.6575,8.6807 13.5111,10.1231 20.0265,10.1231 6.7548,0 15.2528,-7.0206 17.7849,-14.6929 5.1215,-15.5183 -9.1567,-31.3799 -23.8748,-26.5225 -3.0137,0.9947 -8.8817,4.83 -13.0399,8.5231 -4.1581,3.693 -8.9126,6.7146 -10.5655,6.7146 -2.8007,0 -3.0052,-1.1111 -3.0052,-16.3266 0,-18.1212 2.6006,-26.2897 10.4809,-32.9205 l 4.1304,-3.4755 h -19.4593 -19.4592 l 4.4357,4.5843 c 7.2876,7.5319 9.1748,14.1227 9.1748,32.0411 0,19.4374 -0.903,19.9646 -14.5017,8.4665 -4.9617,-4.1953 -11.2258,-8.0413 -13.9203,-8.5468 -9.7277,-1.8249 -21.3348,7.117 -22.0141,16.9595 -0.7521,10.8965 0.017,13.3356 6.1346,19.4531 5.8099,5.8099 6.5127,6.0886 13.6284,5.4049 6.273,-0.6028 9.0476,-2.0119 16.9294,-8.5977 5.1847,-4.3322 10.398,-7.8768 11.5852,-7.8768 4.3167,0 2.355,9.6514 -4.198,20.6536 -5.0881,8.5427 -6.492,12.5173 -7.035,19.9174 -0.6107,8.3209 -0.2681,9.7327 3.427,14.1241 6.5252,7.7546 17.7255,9.4389 26.3703,3.9655 z m 252.1364,0 c 5.6963,-3.6067 8.342,-9.1261 8.2789,-17.2712 -0.048,-6.199 -1.3408,-9.7875 -7.0234,-19.4952 -7.1662,-12.2419 -9.2611,-21.8942 -4.7518,-21.8942 1.217,0 6.4774,3.5491 11.6898,7.8868 7.7647,6.4619 10.7713,8.0112 16.6409,8.5752 6.3695,0.6121 7.7803,0.1472 12.7226,-4.1923 12.1991,-10.7109 9.7179,-30.1968 -4.6073,-36.1822 -7.8253,-3.2696 -14.3945,-1.296 -24.1756,7.2631 -4.7017,4.1145 -9.884,7.4808 -11.516,7.4808 -2.7498,0 -2.9672,-1.1795 -2.9672,-16.0941 0,-17.9184 1.8872,-24.5092 9.1748,-32.041 l 4.4357,-4.5843 h -19.4592 -19.4593 l 4.4669,3.7586 c 7.7275,6.5022 10.073,14.0503 10.1108,32.5369 0.031,15.3268 -0.1677,16.4271 -2.9716,16.4271 -1.6529,0 -6.54,-3.1395 -10.8604,-6.9765 -4.3203,-3.8371 -9.6653,-7.6648 -11.8778,-8.506 -9.4331,-3.5864 -21.8661,3.4898 -24.7139,14.0659 -4.5689,16.9673 12.2169,33.2025 26.4902,25.6214 1.8357,-0.975 7.0109,-4.7571 11.5003,-8.4045 4.4895,-3.6475 9.1311,-6.6317 10.3147,-6.6317 4.3863,0 2.3181,9.7129 -4.5759,21.4899 -8.8707,15.1538 -9.814,25.3882 -3.078,33.3935 6.3709,7.5713 17.6517,9.1969 26.2118,3.7771 v -1e-4 z M 3204.3209,2605.982 c -6.9622,-7.13 -9.7918,-16.8732 -9.7918,-33.7168 0,-13.229 0.076,-13.51 3.655,-13.51 2.1871,0 6.7671,2.7981 11.4037,6.9668 4.2618,3.8317 10.0016,7.6128 12.7551,8.4025 10.82,3.1032 22.3852,-5.429 23.7481,-17.52 2.5132,-22.2977 -20.7148,-32.1717 -36.2809,-15.4224 -5.148,5.5394 -12.145,9.0955 -14.083,7.1575 -2.3973,-2.3973 0.017,-9.8877 6.8198,-21.16 7.6705,-12.7096 9.1765,-22.9573 4.4725,-30.4347 -3.1476,-5.0035 -11.5138,-9.8103 -17.0746,-9.8103 -5.5936,0 -13.942,4.8223 -16.9837,9.8103 -4.8363,7.9309 -3.7474,14.9518 4.759,30.6843 7.4864,13.8462 9.1248,19.5316 6.1572,21.3656 -2.0542,1.2696 -9.2142,-2.6808 -13.7977,-7.6127 -15.5661,-16.7493 -38.7941,-6.8753 -36.2809,15.4224 1.3605,12.0695 12.9293,20.6228 23.7111,17.5306 2.7332,-0.7839 8.5588,-4.565 12.9457,-8.4025 4.708,-4.1186 9.4744,-6.9774 11.6329,-6.9774 h 3.6567 l -0.6755,17.1911 c -0.7284,18.5349 -1.7961,21.8367 -9.7594,30.18 l -5.1048,5.3483 h 19.7394 19.7395 z m -140.4442,-295.5429 c 4.2022,0 10.7349,0.5505 14.5169,1.2234 l 6.8765,1.2234 -5.6558,-5.8077 c -8.5412,-8.7706 -10.3893,-14.6877 -10.3893,-33.2644 0,-13.0307 0.4212,-16.0941 2.2128,-16.0941 1.2171,0 6.4775,3.5491 11.6898,7.8868 7.7648,6.4619 10.7713,8.0112 16.6409,8.5752 6.3571,0.6108 7.7837,0.1442 12.6665,-4.143 9.636,-8.4604 10.9661,-21.3822 3.1565,-30.6634 -8.441,-10.0315 -19.6792,-9.1882 -32.7958,2.4612 -4.1581,3.693 -9.0032,6.7146 -10.7667,6.7146 -2.8492,0 -3.1166,-0.669 -2.4009,-6.0052 0.443,-3.3029 3.3053,-10.0553 6.3607,-15.0054 7.325,-11.8675 9.1014,-18.5161 7.0162,-26.2599 -3.8041,-14.1275 -22.825,-18.3328 -33.5061,-7.4078 -4.1401,4.2346 -4.7213,5.8805 -4.7062,13.3277 0.015,7.3222 0.9628,10.0805 6.8592,19.9572 11.9331,19.9889 8.2303,27.9339 -6.7982,14.5865 -10.1531,-9.0174 -17.5445,-11.284 -25.1022,-7.6977 -9.3515,4.4376 -12.3189,10.5259 -11.8124,24.235 0.1078,2.9169 2.1456,6.3657 6.0946,10.3147 5.1268,5.1268 6.863,5.9326 12.7827,5.9326 7.0874,0 9.6593,-1.4129 21.4017,-11.7571 9.5356,-8.4003 10.3102,-7.5132 10.3102,11.8062 0,18.8279 -1.5061,24.1434 -8.9503,31.5876 -2.6414,2.6414 -4.8026,5.1561 -4.8026,5.5881 0,0.432 2.5787,0.313 5.7304,-0.2645 3.1517,-0.5775 9.1686,-1.05 13.3709,-1.05 z m 246.8518,-0.045 c 4.5874,-0.501 11.7784,-0.2367 15.98,0.5872 4.2016,0.8239 7.9506,1.1868 8.331,0.8064 0.3804,-0.3805 -1.1667,-2.4148 -3.438,-4.5209 -8.1748,-7.5801 -10.2401,-14.1705 -10.2401,-32.6767 0,-13.2824 0.4461,-16.87 2.0978,-16.87 1.1538,0 6.7119,3.782 12.3513,8.4045 8.9657,7.3491 11.0944,8.4046 16.9502,8.4046 5.3016,0 7.8144,-0.9813 12.0612,-4.71 12.0727,-10.6 9.6686,-28.9616 -4.6838,-35.7723 -7.5576,-3.5863 -14.949,-1.3197 -25.1021,7.6977 -4.2153,3.7438 -9.1071,6.8069 -10.8706,6.8069 -2.8404,0 -3.116,-0.6746 -2.4137,-5.91 0.4359,-3.2505 3.6209,-10.5992 7.0776,-16.3306 5.4197,-8.9859 6.285,-11.6274 6.285,-19.1861 0,-7.7269 -0.5503,-9.3157 -4.6438,-13.4092 -8.091,-8.0911 -20.7717,-8.1433 -28.7963,-0.1187 -7.8847,7.8847 -7.2003,18.6709 2.1453,33.8121 3.1002,5.0226 5.9991,11.8344 6.4421,15.1373 0.7157,5.3362 0.4482,6.0052 -2.4009,6.0052 -1.7635,0 -6.6553,-3.0631 -10.8707,-6.8069 -4.2153,-3.7438 -10.3764,-7.6196 -13.6914,-8.6128 -5.2331,-1.5678 -6.7855,-1.4122 -11.7834,1.1815 -8.9125,4.6252 -11.9639,9.7648 -11.8174,19.9044 0.1166,8.0688 0.5331,9.0127 6.3854,14.4716 5.3146,4.9574 7.2896,5.8399 13.0698,5.8399 5.992,0 8.0397,-1.0087 17.0626,-8.4046 5.6394,-4.6225 11.1974,-8.4045 12.3512,-8.4045 1.6517,0 2.0979,3.5876 2.0979,16.87 0,18.8821 -1.9355,24.7648 -11.0626,33.6242 -4.8635,4.7209 -4.8897,4.8155 -1.0984,3.9636 2.1363,-0.4801 7.6374,-1.2827 12.2248,-1.7837 z"
       style="fill:#feefd3;fill-opacity:1;stroke:#fffecd;stroke-width:0.541452;stroke-miterlimit:4;stroke-dasharray:none;stroke-opacity:1" />
  </g>
</svg>
