<?xml version="1.0" encoding="UTF-8" standalone="no"?>
<!-- Created with Inkscape (http://www.inkscape.org/) -->

<svg
   id="svg10047"
   height="122.94575"
   width="78.999786"
   version="1.1"
   viewBox="0 0 78.999786 122.94575"
   inkscape:version="0.91 r13725"
   sodipodi:docname="kaiser-jubilaum.svgz"
   xmlns:inkscape="http://www.inkscape.org/namespaces/inkscape"
   xmlns:sodipodi="http://sodipodi.sourceforge.net/DTD/sodipodi-0.dtd"
   xmlns="http://www.w3.org/2000/svg"
   xmlns:svg="http://www.w3.org/2000/svg"
   xmlns:rdf="http://www.w3.org/1999/02/22-rdf-syntax-ns#"
   xmlns:cc="http://creativecommons.org/ns#"
   xmlns:dc="http://purl.org/dc/elements/1.1/">
  <sodipodi:namedview
     pagecolor="#ffffff"
     bordercolor="#666666"
     borderopacity="1"
     objecttolerance="10"
     gridtolerance="10"
     guidetolerance="10"
     inkscape:pageopacity="0"
     inkscape:pageshadow="2"
     inkscape:window-width="1920"
     inkscape:window-height="1016"
     id="namedview1491"
     showgrid="false"
     inkscape:zoom="1.3479675"
     inkscape:cx="513.49999"
     inkscape:cy="307.5"
     inkscape:window-x="0"
     inkscape:window-y="0"
     inkscape:window-maximized="1"
     inkscape:current-layer="svg10047"
     showguides="true"
     inkscape:guide-bbox="true"
     inkscape:snap-grids="true"
     inkscape:showpageshadow="2"
     inkscape:pagecheckerboard="0"
     inkscape:deskcolor="#d1d1d1" />
  <metadata
     id="metadata16869">
    <rdf:RDF>
      <cc:Work
         rdf:about="">
        <dc:format>image/svg+xml</dc:format>
        <dc:type
           rdf:resource="http://purl.org/dc/dcmitype/StillImage" />
        <dc:title />
      </cc:Work>
    </rdf:RDF>
  </metadata>
  <defs
     id="defs10049" />
  <g
     id="diamond_2"
     transform="matrix(0.13620652,0,0,0.13660648,-108.96522,-150.26713)"
     inkscape:label="#diamond_2">
    <g
       id="g17127">
      <rect
         style="font-style:normal;font-variant:normal;font-weight:500;font-stretch:normal;font-size:medium;line-height:125%;font-family:Gaelic;-inkscape-font-specification:'Gaelic Medium';letter-spacing:0px;word-spacing:0px;fill:#ffffff;fill-opacity:1;stroke:#000000;stroke-width:1.99898;stroke-linecap:butt;stroke-linejoin:miter;stroke-miterlimit:4;stroke-dasharray:none;stroke-opacity:1"
         id="rect6637"
         y="1100.9995"
         x="800.99951"
         ry="49.888176"
         rx="48.210754"
         height="898.00043"
         width="578.00104" />
      <path
         style="fill:#fe0303;image-rendering:auto"
         d="m 845.68768,1283.6763 c -0.172,-0.2698 -0.953,-1.5108 -1.735,-2.7578 -2.705,-4.3101 -4.424,-6.4368 -8.401,-10.3903 -3.977,-3.9536 -6.117,-5.6628 -10.452,-8.3509 -1.255,-0.7777 -2.503,-1.5539 -2.775,-1.7247 -0.433,-0.273 -0.433,-0.3485 0,-0.6215 0.272,-0.1709 1.52,-0.9473 2.774,-1.7253 8.192,-5.0821 14.871,-11.906 19.776,-20.2035 l 1.125,-1.9028 1.125,1.9028 c 4.905,8.2975 11.585,15.1214 19.776,20.2035 1.255,0.778 2.503,1.5544 2.774,1.7253 0.434,0.273 0.434,0.3485 0,0.6215 -0.271,0.1708 -1.52,0.947 -2.774,1.7247 -4.336,2.6881 -6.475,4.3973 -10.453,8.3509 -3.977,3.9535 -5.696,6.0802 -8.4,10.3903 -0.783,1.247 -1.563,2.488 -1.735,2.7578 -0.275,0.4309 -0.351,0.4309 -0.625,0 z"
         id="path6734"
         inkscape:connector-curvature="0" />
      <path
         inkscape:connector-curvature="0"
         id="path6736"
         d="m 1333.6877,1283.6763 c -0.172,-0.2698 -0.953,-1.5108 -1.735,-2.7578 -2.705,-4.3101 -4.424,-6.4368 -8.401,-10.3903 -3.977,-3.9536 -6.117,-5.6628 -10.452,-8.3509 -1.255,-0.7777 -2.503,-1.5539 -2.775,-1.7247 -0.433,-0.273 -0.433,-0.3485 0,-0.6215 0.272,-0.1709 1.52,-0.9473 2.774,-1.7253 8.192,-5.0821 14.871,-11.906 19.776,-20.2035 l 1.125,-1.9028 1.125,1.9028 c 4.905,8.2975 11.585,15.1214 19.776,20.2035 1.255,0.778 2.503,1.5544 2.774,1.7253 0.434,0.273 0.434,0.3485 0,0.6215 -0.271,0.1708 -1.52,0.947 -2.774,1.7247 -4.336,2.6881 -6.475,4.3973 -10.453,8.3509 -3.977,3.9535 -5.696,6.0802 -8.4,10.3903 -0.783,1.247 -1.563,2.488 -1.735,2.7578 -0.275,0.4309 -0.351,0.4309 -0.625,0 z"
         style="fill:#fe0303;image-rendering:auto" />
      <path
         inkscape:connector-curvature="0"
         id="path6738"
         d="m 845.68768,1863.6763 c -0.172,-0.2698 -0.953,-1.5108 -1.735,-2.7578 -2.705,-4.3101 -4.424,-6.4368 -8.401,-10.3903 -3.977,-3.9536 -6.117,-5.6628 -10.452,-8.3509 -1.255,-0.7777 -2.503,-1.5539 -2.775,-1.7247 -0.433,-0.273 -0.433,-0.3485 0,-0.6215 0.272,-0.1709 1.52,-0.9473 2.774,-1.7253 8.192,-5.0821 14.871,-11.906 19.776,-20.2035 l 1.125,-1.9028 1.125,1.9028 c 4.905,8.2975 11.585,15.1214 19.776,20.2035 1.255,0.778 2.503,1.5544 2.774,1.7253 0.434,0.273 0.434,0.3485 0,0.6215 -0.271,0.1708 -1.52,0.947 -2.774,1.7247 -4.336,2.6881 -6.475,4.3973 -10.453,8.3509 -3.977,3.9535 -5.696,6.0802 -8.4,10.3903 -0.783,1.247 -1.563,2.488 -1.735,2.7578 -0.275,0.4309 -0.351,0.4309 -0.625,0 z"
         style="fill:#fe0303;image-rendering:auto" />
      <path
         style="fill:#fe0303;image-rendering:auto"
         d="m 1333.6877,1863.6763 c -0.172,-0.2698 -0.953,-1.5108 -1.735,-2.7578 -2.705,-4.3101 -4.424,-6.4368 -8.401,-10.3903 -3.977,-3.9536 -6.117,-5.6628 -10.452,-8.3509 -1.255,-0.7777 -2.503,-1.5539 -2.775,-1.7247 -0.433,-0.273 -0.433,-0.3485 0,-0.6215 0.272,-0.1709 1.52,-0.9473 2.774,-1.7253 8.192,-5.0821 14.871,-11.906 19.776,-20.2035 l 1.125,-1.9028 1.125,1.9028 c 4.905,8.2975 11.585,15.1214 19.776,20.2035 1.255,0.778 2.503,1.5544 2.774,1.7253 0.434,0.273 0.434,0.3485 0,0.6215 -0.271,0.1708 -1.52,0.947 -2.774,1.7247 -4.336,2.6881 -6.475,4.3973 -10.453,8.3509 -3.977,3.9535 -5.696,6.0802 -8.4,10.3903 -0.783,1.247 -1.563,2.488 -1.735,2.7578 -0.275,0.4309 -0.351,0.4309 -0.625,0 z"
         id="path6740"
         inkscape:connector-curvature="0" />
      <path
         d="m 866,1183.8615 -0.5765,28.1388 H 826 q 0,-8.153 2.26164,-15.5698 2.30598,-7.4168 6.43015,-12.9653 4.16852,-5.5485 12.68293,-13.4749 5.36585,-5.0389 7.27273,-8.3794 1.90687,-3.397 1.90687,-7.8698 0,-5.4918 -2.7051,-8.9454 -2.7051,-3.5102 -7.45011,-3.5102 -5.54323,0 -8.1153,3.9631 -2.57206,3.9632 -2.57206,13.022 0,2.2647 0.0887,4.3029 h -8.20399 q -0.0443,-2.0382 -0.0443,-3.3405 0,-12.7954 4.74501,-19.9858 4.74502,-7.247 13.92462,-7.247 9.26829,0 14.19068,6.1713 4.96674,6.1712 4.96674,15.1733 0,7.5302 -3.23724,12.8522 -3.23726,5.322 -12.37252,13.5314 -8.86917,8.0397 -11.66296,13.0786 -2.74945,5.0389 -3.19291,8.9456 h 23.23725 l 0.35477,-17.8911 h 7.49446 z"
         id="path6742"
         inkscape:connector-curvature="0"
         style="font-style:normal;font-variant:normal;font-weight:normal;font-stretch:normal;font-size:medium;line-height:125%;font-family:Rockwell;-inkscape-font-specification:Rockwell;letter-spacing:0px;word-spacing:0px;fill:#ff0000;fill-opacity:1;stroke:none;stroke-width:1px;stroke-linecap:butt;stroke-linejoin:miter;stroke-opacity:1" />
      <path
         inkscape:connector-curvature="0"
         id="path6746"
         d="m 1354,1183.8615 -0.5765,28.1388 H 1314 q 0,-8.153 2.2617,-15.5698 2.3059,-7.4168 6.4301,-12.9653 4.1685,-5.5485 12.683,-13.4749 5.3658,-5.0389 7.2727,-8.3794 1.9069,-3.397 1.9069,-7.8698 0,-5.4918 -2.7052,-8.9454 -2.705,-3.5102 -7.4501,-3.5102 -5.5432,0 -8.1153,3.9631 -2.572,3.9632 -2.572,13.022 0,2.2647 0.089,4.3029 h -8.204 q -0.044,-2.0382 -0.044,-3.3405 0,-12.7954 4.745,-19.9858 4.745,-7.247 13.9246,-7.247 9.2683,0 14.1907,6.1713 4.9667,6.1712 4.9667,15.1733 0,7.5302 -3.2372,12.8522 -3.2373,5.322 -12.3725,13.5314 -8.8692,8.0397 -11.663,13.0786 -2.7494,5.0389 -3.1929,8.9456 h 23.2373 l 0.3547,-17.8911 h 7.4945 z"
         style="font-style:normal;font-variant:normal;font-weight:normal;font-stretch:normal;font-size:medium;line-height:125%;font-family:Rockwell;-inkscape-font-specification:Rockwell;letter-spacing:0px;word-spacing:0px;fill:#ff0000;fill-opacity:1;stroke:none;stroke-width:1px;stroke-linecap:butt;stroke-linejoin:miter;stroke-opacity:1" />
      <path
         inkscape:connector-curvature="0"
         id="path7001-7"
         d="m 826.00007,1916.039 0.5765,-28.1388 h 39.4235 q 0,8.153 -2.26164,15.5698 -2.30598,7.4168 -6.43015,12.9653 -4.16852,5.5485 -12.68293,13.4749 -5.36585,5.0389 -7.27273,8.3794 -1.90687,3.397 -1.90687,7.8698 0,5.4918 2.7051,8.9454 2.7051,3.5102 7.45011,3.5102 5.54323,0 8.1153,-3.9631 2.57206,-3.9632 2.57206,-13.022 0,-2.2647 -0.0887,-4.3029 h 8.20399 q 0.0443,2.0382 0.0443,3.3405 0,12.7954 -4.74501,19.9858 -4.74502,7.247 -13.92462,7.247 -9.26829,0 -14.19068,-6.1713 -4.96674,-6.1712 -4.96674,-15.1733 0,-7.5302 3.23724,-12.8522 3.23726,-5.322 12.37252,-13.5314 8.86917,-8.0397 11.66296,-13.0786 2.74945,-5.0389 3.19291,-8.9456 h -23.23725 l -0.35477,17.8911 h -7.49446 z"
         style="font-style:normal;font-variant:normal;font-weight:normal;font-stretch:normal;font-size:medium;line-height:125%;font-family:Rockwell;-inkscape-font-specification:Rockwell;letter-spacing:0px;word-spacing:0px;fill:#ff0000;fill-opacity:1;stroke:none;stroke-width:1px;stroke-linecap:butt;stroke-linejoin:miter;stroke-opacity:1" />
      <path
         d="m 1314.0001,1916.039 0.5765,-28.1388 h 39.4235 q 0,8.153 -2.2617,15.5698 -2.3059,7.4168 -6.4301,12.9653 -4.1685,5.5485 -12.683,13.4749 -5.3658,5.0389 -7.2727,8.3794 -1.9069,3.397 -1.9069,7.8698 0,5.4918 2.7052,8.9454 2.705,3.5102 7.4501,3.5102 5.5432,0 8.1153,-3.9631 2.572,-3.9632 2.572,-13.022 0,-2.2647 -0.089,-4.3029 h 8.204 q 0.044,2.0382 0.044,3.3405 0,12.7954 -4.745,19.9858 -4.745,7.247 -13.9246,7.247 -9.2683,0 -14.1907,-6.1713 -4.9667,-6.1712 -4.9667,-15.1733 0,-7.5302 3.2372,-12.8522 3.2373,-5.322 12.3725,-13.5314 8.8692,-8.0397 11.663,-13.0786 2.7494,-5.0389 3.1929,-8.9456 h -23.2373 l -0.3547,17.8911 h -7.4945 z"
         id="path7005-9"
         inkscape:connector-curvature="0"
         style="font-style:normal;font-variant:normal;font-weight:normal;font-stretch:normal;font-size:medium;line-height:125%;font-family:Rockwell;-inkscape-font-specification:Rockwell;letter-spacing:0px;word-spacing:0px;fill:#ff0000;fill-opacity:1;stroke:none;stroke-width:1px;stroke-linecap:butt;stroke-linejoin:miter;stroke-opacity:1" />
      <path
         inkscape:connector-curvature="0"
         id="path8572"
         d="m 878.608,1969.5383 c -0.347,-0.3672 -0.632,-38.9588 -0.632,-85.7589 0,-82.2583 -0.06,-85.1695 -1.802,-87.4482 -1.767,-2.3087 -2.209,-2.3674 -21.489,-2.8564 L 835,1792.9756 v -243.1243 -243.1244 l 19.568,-0.4992 c 17.134,-0.4371 19.777,-0.721 21.252,-2.282 1.582,-1.6748 1.713,-6.9885 2.156,-87.8642 L 878.449,1130 h 212.051 212.051 l 0.472,86.0815 c 0.444,80.8757 0.575,86.1894 2.157,87.8642 1.475,1.561 4.117,1.8449 21.252,2.282 l 19.568,0.4992 v 243.1244 243.1243 l -19.568,0.4992 c -17.135,0.4372 -19.777,0.7211 -21.252,2.282 -1.582,1.6749 -1.713,6.9885 -2.157,87.8642 l -0.472,86.0816 -211.655,0.2518 c -116.411,0.1384 -211.939,-0.049 -212.288,-0.4161 z m 420.641,-85.9527 c 0,-81.6793 0.05,-83.6964 1.88,-86.8749 3.8,-6.5887 6.015,-7.2218 25.272,-7.226 h 17.237 V 1549.855 1310.2252 h -17.237 c -19.257,0 -21.472,-0.6373 -25.272,-7.2259 -1.834,-3.1786 -1.877,-5.1956 -1.88,-86.8749 v -83.6206 H 1090.504 881.759 v 83.6208 c 0,81.6794 -0.05,83.6964 -1.88,86.875 -3.801,6.5886 -6.015,7.2217 -25.272,7.2259 h -17.238 v 239.6297 239.6298 h 17.238 c 19.257,0 21.471,0.6373 25.272,7.226 1.833,3.1785 1.877,5.1955 1.88,86.8749 v 83.6205 h 208.745 208.745 z"
         style="fill:#b7b772" />
      <path
         style="fill:#feefd3;fill-opacity:1;stroke:#fffecd;stroke-width:0.541452;stroke-miterlimit:4;stroke-dasharray:none;stroke-opacity:1"
         d="m 883.08797,1920.2316 c -0.002,-25.844 -0.4582,-64.1008 -1.01418,-85.0151 -1.28465,-48.3248 0.28269,-45.5519 -26.28253,-46.499 l -18.55248,-0.6615 0.38679,-238.5769 0.38679,-238.577 18.85958,-0.764 c 16.98176,-0.688 19.12525,-1.0928 21.52768,-4.0657 2.28846,-2.8318 2.81207,-8.2484 3.67988,-38.0674 0.55648,-19.1212 1.01178,-57.3469 1.01178,-84.9461 v -50.1803 h 207.78392 207.784 l 0.4195,84.6872 0.4196,84.6873 3.7046,3.9425 c 3.5771,3.8068 4.3264,3.9425 21.7754,3.9425 h 18.0708 v 238.9552 238.9552 l -17.1911,0.6756 c -9.4551,0.3715 -18.666,1.475 -20.4686,2.4521 -6.3533,3.4439 -6.6552,7.697 -6.6552,93.7551 v 82.2893 H 1090.9128 883.09128 l -0.003,-46.989 h 5e-5 z m 214.06253,-18.3258 c 9.4201,-14.5661 27.1093,-32.5037 42.0862,-42.6771 7.04,-4.7821 12.8,-9.1606 12.8,-9.73 0,-0.5695 -4.2978,-3.6858 -9.5506,-6.9252 -13.017,-8.0276 -34.9345,-29.4896 -43.4931,-42.5893 -3.8762,-5.9329 -7.4944,-11.3109 -8.0403,-11.9511 -0.5459,-0.6401 -4.8612,4.5313 -9.5894,11.492 -10.2918,15.1512 -26.8624,31.5579 -42.0239,41.6083 -6.0933,4.0391 -11.0787,7.8499 -11.0787,8.4683 0,0.6185 4.6416,4.1239 10.3147,7.79 13.833,8.9391 35.0557,30.1204 43.8241,43.7387 3.9233,6.0933 7.348,11.0787 7.6105,11.0787 0.2624,0 3.4757,-4.6365 7.1405,-10.3033 z m 1.1517,-601.0051 c 9.2684,-13.8896 31.058,-35.2802 44.1839,-43.3749 5.2528,-3.2395 9.5506,-6.3789 9.5506,-6.9766 0,-0.5977 -4.9854,-4.3915 -11.0787,-8.4307 -15.1984,-10.0748 -31.7384,-26.4664 -42.1037,-41.7257 -7.8784,-11.5982 -8.8564,-12.515 -10.6296,-9.9639 -18.8759,27.1561 -30.1454,38.9965 -49.1267,51.6153 -5.9605,3.9625 -10.8373,7.7897 -10.8373,8.5047 0,0.7151 4.2978,3.9089 9.5506,7.0975 13.3078,8.0781 33.1415,27.6018 43.4365,42.7577 4.7691,7.0209 8.8263,12.599 9.016,12.3957 0.1897,-0.2033 3.807,-5.5579 8.0384,-11.8991 z"
         id="path8870"
         inkscape:connector-curvature="0" />
      <path
         style="fill:#fe0303;image-rendering:auto"
         d="m 1089.1927,1311.1646 c -0.4442,-0.697 -2.4611,-3.903 -4.4823,-7.1243 -6.9857,-11.1345 -11.4277,-16.6285 -21.7018,-26.8418 -10.2742,-10.2133 -15.8011,-14.6288 -27.0019,-21.5731 -3.2407,-2.0091 -6.4658,-4.0141 -7.1668,-4.4555 -1.1198,-0.7052 -1.1198,-0.9003 0,-1.6053 0.701,-0.4416 3.9254,-2.4474 7.1652,-4.4572 21.1621,-13.1288 38.4179,-30.7573 51.0892,-52.1924 l 2.9058,-4.9155 2.9056,4.9155 c 12.6714,21.4351 29.9272,39.0636 51.0893,52.1924 3.2397,2.0098 6.4641,4.0156 7.1652,4.4572 1.1198,0.705 1.1198,0.9001 0,1.6053 -0.7011,0.4414 -3.9262,2.4464 -7.1669,4.4555 -11.2008,6.9443 -16.7276,11.3598 -27.0018,21.5731 -10.2742,10.2133 -14.7162,15.7073 -21.7019,26.8418 -2.021,3.2213 -4.038,6.4273 -4.4822,7.1243 -0.7092,1.1132 -0.9055,1.1132 -1.6147,0 z"
         id="path6730"
         inkscape:connector-curvature="0" />
      <path
         style="fill:#fe0303;image-rendering:auto"
         d="m 1090.8074,1788.8344 c 0.4442,0.697 2.4611,3.903 4.4823,7.1243 6.9856,11.1345 11.4276,16.6285 21.7018,26.8418 10.2742,10.2133 15.801,14.6289 27.0019,21.5731 3.2407,2.0091 6.4658,4.0141 7.1668,4.4555 1.1197,0.7052 1.1197,0.9003 0,1.6053 -0.701,0.4416 -3.9255,2.4474 -7.1652,4.4572 -21.1621,13.1288 -38.4179,30.7573 -51.0892,52.1924 l -2.9058,4.9155 -2.9056,-4.9155 c -12.6714,-21.4351 -29.9272,-39.0636 -51.0893,-52.1924 -3.2398,-2.0098 -6.4641,-4.0156 -7.1652,-4.4572 -1.1198,-0.705 -1.1198,-0.9001 0,-1.6053 0.7011,-0.4414 3.9262,-2.4464 7.1669,-4.4555 11.2008,-6.9442 16.7276,-11.3598 27.0018,-21.5731 10.2742,-10.2133 14.7162,-15.7073 21.7019,-26.8418 2.021,-3.2213 4.038,-6.4273 4.4822,-7.1243 0.7092,-1.1132 0.9055,-1.1132 1.6147,0 z"
         id="path6732"
         inkscape:connector-curvature="0" />
    </g>
  </g>
</svg>
