<?xml version="1.0" encoding="UTF-8" standalone="no"?>
<!-- Created with Inkscape (http://www.inkscape.org/) -->

<svg
   id="svg10047"
   height="122.94575"
   width="78.999786"
   version="1.1"
   viewBox="0 0 78.999786 122.94575"
   inkscape:version="0.91 r13725"
   sodipodi:docname="kaiser-jubilaum.svgz"
   xmlns:inkscape="http://www.inkscape.org/namespaces/inkscape"
   xmlns:sodipodi="http://sodipodi.sourceforge.net/DTD/sodipodi-0.dtd"
   xmlns="http://www.w3.org/2000/svg"
   xmlns:svg="http://www.w3.org/2000/svg"
   xmlns:rdf="http://www.w3.org/1999/02/22-rdf-syntax-ns#"
   xmlns:cc="http://creativecommons.org/ns#"
   xmlns:dc="http://purl.org/dc/elements/1.1/">
  <sodipodi:namedview
     pagecolor="#ffffff"
     bordercolor="#666666"
     borderopacity="1"
     objecttolerance="10"
     gridtolerance="10"
     guidetolerance="10"
     inkscape:pageopacity="0"
     inkscape:pageshadow="2"
     inkscape:window-width="1920"
     inkscape:window-height="1016"
     id="namedview1491"
     showgrid="false"
     inkscape:zoom="1.3479675"
     inkscape:cx="513.49999"
     inkscape:cy="307.5"
     inkscape:window-x="0"
     inkscape:window-y="0"
     inkscape:window-maximized="1"
     inkscape:current-layer="svg10047"
     showguides="true"
     inkscape:guide-bbox="true"
     inkscape:snap-grids="true"
     inkscape:showpageshadow="2"
     inkscape:pagecheckerboard="0"
     inkscape:deskcolor="#d1d1d1" />
  <metadata
     id="metadata16869">
    <rdf:RDF>
      <cc:Work
         rdf:about="">
        <dc:format>image/svg+xml</dc:format>
        <dc:type
           rdf:resource="http://purl.org/dc/dcmitype/StillImage" />
        <dc:title />
      </cc:Work>
    </rdf:RDF>
  </metadata>
  <defs
     id="defs10049" />
  <g
     id="diamond_6"
     transform="matrix(0.13620652,0,0,0.13660648,-490.34348,-150.26713)"
     inkscape:label="#diamond_6">
    <rect
       width="578.00104"
       height="898.00043"
       rx="48.210754"
       ry="49.888176"
       x="3600.9995"
       y="1100.9995"
       id="rect6214"
       style="font-style:normal;font-variant:normal;font-weight:500;font-stretch:normal;font-size:medium;line-height:125%;font-family:Gaelic;-inkscape-font-specification:'Gaelic Medium';letter-spacing:0px;word-spacing:0px;fill:#ffffff;fill-opacity:1;stroke:#000000;stroke-width:1.99898;stroke-linecap:butt;stroke-linejoin:miter;stroke-miterlimit:4;stroke-dasharray:none;stroke-opacity:1" />
    <path
       inkscape:connector-curvature="0"
       id="path6329"
       d="m 3645.6877,1283.6763 c -0.172,-0.2698 -0.953,-1.5108 -1.735,-2.7578 -2.705,-4.3101 -4.424,-6.4368 -8.401,-10.3903 -3.977,-3.9536 -6.117,-5.6628 -10.452,-8.3509 -1.255,-0.7777 -2.503,-1.5539 -2.775,-1.7247 -0.433,-0.273 -0.433,-0.3485 0,-0.6215 0.272,-0.1709 1.52,-0.9473 2.774,-1.7253 8.192,-5.0821 14.871,-11.906 19.776,-20.2035 l 1.125,-1.9028 1.125,1.9028 c 4.905,8.2975 11.585,15.1214 19.776,20.2035 1.255,0.778 2.503,1.5544 2.774,1.7253 0.434,0.273 0.434,0.3485 0,0.6215 -0.271,0.1708 -1.52,0.947 -2.774,1.7247 -4.336,2.6881 -6.475,4.3973 -10.453,8.3509 -3.977,3.9535 -5.696,6.0802 -8.4,10.3903 -0.783,1.247 -1.563,2.488 -1.735,2.7578 -0.275,0.4309 -0.351,0.4309 -0.625,0 z"
       style="fill:#fe0303;image-rendering:auto" />
    <path
       style="fill:#fe0303;image-rendering:auto"
       d="m 4133.6877,1283.6763 c -0.172,-0.2698 -0.953,-1.5108 -1.735,-2.7578 -2.705,-4.3101 -4.424,-6.4368 -8.401,-10.3903 -3.977,-3.9536 -6.117,-5.6628 -10.452,-8.3509 -1.255,-0.7777 -2.503,-1.5539 -2.775,-1.7247 -0.433,-0.273 -0.433,-0.3485 0,-0.6215 0.272,-0.1709 1.52,-0.9473 2.774,-1.7253 8.192,-5.0821 14.871,-11.906 19.776,-20.2035 l 1.125,-1.9028 1.125,1.9028 c 4.905,8.2975 11.585,15.1214 19.776,20.2035 1.255,0.778 2.503,1.5544 2.774,1.7253 0.434,0.273 0.434,0.3485 0,0.6215 -0.271,0.1708 -1.52,0.947 -2.774,1.7247 -4.336,2.6881 -6.475,4.3973 -10.453,8.3509 -3.977,3.9535 -5.696,6.0802 -8.4,10.3903 -0.783,1.247 -1.563,2.488 -1.735,2.7578 -0.275,0.4309 -0.351,0.4309 -0.625,0 z"
       id="path6335"
       inkscape:connector-curvature="0" />
    <path
       style="fill:#fe0303;image-rendering:auto"
       d="m 3645.6877,1863.6763 c -0.172,-0.2698 -0.953,-1.5108 -1.735,-2.7578 -2.705,-4.3101 -4.424,-6.4368 -8.401,-10.3903 -3.977,-3.9536 -6.117,-5.6628 -10.452,-8.3509 -1.255,-0.7777 -2.503,-1.5539 -2.775,-1.7247 -0.433,-0.273 -0.433,-0.3485 0,-0.6215 0.272,-0.1709 1.52,-0.9473 2.774,-1.7253 8.192,-5.0821 14.871,-11.906 19.776,-20.2035 l 1.125,-1.9028 1.125,1.9028 c 4.905,8.2975 11.585,15.1214 19.776,20.2035 1.255,0.778 2.503,1.5544 2.774,1.7253 0.434,0.273 0.434,0.3485 0,0.6215 -0.271,0.1708 -1.52,0.947 -2.774,1.7247 -4.336,2.6881 -6.475,4.3973 -10.453,8.3509 -3.977,3.9535 -5.696,6.0802 -8.4,10.3903 -0.783,1.247 -1.563,2.488 -1.735,2.7578 -0.275,0.4309 -0.351,0.4309 -0.625,0 z"
       id="path6338"
       inkscape:connector-curvature="0" />
    <path
       inkscape:connector-curvature="0"
       id="path6340"
       d="m 4133.6877,1863.6763 c -0.172,-0.2698 -0.953,-1.5108 -1.735,-2.7578 -2.705,-4.3101 -4.424,-6.4368 -8.401,-10.3903 -3.977,-3.9536 -6.117,-5.6628 -10.452,-8.3509 -1.255,-0.7777 -2.503,-1.5539 -2.775,-1.7247 -0.433,-0.273 -0.433,-0.3485 0,-0.6215 0.272,-0.1709 1.52,-0.9473 2.774,-1.7253 8.192,-5.0821 14.871,-11.906 19.776,-20.2035 l 1.125,-1.9028 1.125,1.9028 c 4.905,8.2975 11.585,15.1214 19.776,20.2035 1.255,0.778 2.503,1.5544 2.774,1.7253 0.434,0.273 0.434,0.3485 0,0.6215 -0.271,0.1708 -1.52,0.947 -2.774,1.7247 -4.336,2.6881 -6.475,4.3973 -10.453,8.3509 -3.977,3.9535 -5.696,6.0802 -8.4,10.3903 -0.783,1.247 -1.563,2.488 -1.735,2.7578 -0.275,0.4309 -0.351,0.4309 -0.625,0 z"
       style="fill:#fe0303;image-rendering:auto" />
    <path
       style="font-style:normal;font-variant:normal;font-weight:normal;font-stretch:normal;font-size:medium;line-height:125%;font-family:Rockwell;-inkscape-font-specification:Rockwell;letter-spacing:0px;word-spacing:0px;fill:#ff0000;fill-opacity:1;stroke:none;stroke-width:1px;stroke-linecap:butt;stroke-linejoin:miter;stroke-opacity:1"
       inkscape:connector-curvature="0"
       id="path6772"
       d="m 3665.5536,1156.1397 h -7.5447 q -0.6696,-6.6342 -3.75,-10.8153 -3.0357,-4.1812 -7.4107,-4.1812 -5.9375,0 -9.2411,7.7491 -3.3036,7.6933 -3.4375,21.1288 6.3393,-8.5853 14.5982,-8.5853 7.0983,0 12.1429,6.5784 5.0893,6.5226 5.0893,17.5051 0,10.9269 -5,18.7318 -5,7.7491 -13.6607,7.7491 -9.6875,0 -15.5358,-9.9233 -5.8035,-9.9791 -5.8035,-29.6028 0,-18.6759 5.625,-29.547 5.625,-10.9269 16.2053,-10.9269 8.3036,0 12.8572,6.8572 4.5982,6.8014 4.8661,17.2823 z m -30.9375,25.5888 q 2.0089,21.0731 12.3214,21.0731 5.2678,0 8.2143,-4.8502 2.9464,-4.8501 2.9464,-11.5958 0,-6.6341 -2.8125,-10.7038 -2.7679,-4.0697 -7.5,-4.0697 -6.6518,0 -13.1696,10.1464 z" />
    <path
       style="font-style:normal;font-variant:normal;font-weight:normal;font-stretch:normal;font-size:medium;line-height:125%;font-family:Rockwell;-inkscape-font-specification:Rockwell;letter-spacing:0px;word-spacing:0px;fill:#ff0000;fill-opacity:1;stroke:none;stroke-width:1px;stroke-linecap:butt;stroke-linejoin:miter;stroke-opacity:1"
       d="m 4153.5536,1156.1397 h -7.5447 q -0.6696,-6.6342 -3.75,-10.8153 -3.0357,-4.1812 -7.4107,-4.1812 -5.9375,0 -9.2411,7.7491 -3.3036,7.6933 -3.4375,21.1288 6.3393,-8.5853 14.5982,-8.5853 7.0983,0 12.1429,6.5784 5.0893,6.5226 5.0893,17.5051 0,10.9269 -5,18.7318 -5,7.7491 -13.6607,7.7491 -9.6875,0 -15.5358,-9.9233 -5.8035,-9.9791 -5.8035,-29.6028 0,-18.6759 5.625,-29.547 5.625,-10.9269 16.2053,-10.9269 8.3036,0 12.8572,6.8572 4.5982,6.8014 4.8661,17.2823 z m -30.9375,25.5888 q 2.0089,21.0731 12.3214,21.0731 5.2678,0 8.2143,-4.8502 2.9464,-4.8501 2.9464,-11.5958 0,-6.6341 -2.8125,-10.7038 -2.7679,-4.0697 -7.5,-4.0697 -6.6518,0 -13.1696,10.1464 z"
       id="path6876"
       inkscape:connector-curvature="0" />
    <path
       style="font-style:normal;font-variant:normal;font-weight:normal;font-stretch:normal;font-size:medium;line-height:125%;font-family:Rockwell;-inkscape-font-specification:Rockwell;letter-spacing:0px;word-spacing:0px;fill:#ff0000;fill-opacity:1;stroke:none;stroke-width:1px;stroke-linecap:butt;stroke-linejoin:miter;stroke-opacity:1"
       d="m 3626.4464,1943.7608 h 7.5447 q 0.6696,6.6342 3.75,10.8153 3.0357,4.1812 7.4107,4.1812 5.9375,0 9.2411,-7.7491 3.3036,-7.6933 3.4375,-21.1288 -6.3393,8.5853 -14.5982,8.5853 -7.0983,0 -12.1429,-6.5784 -5.0893,-6.5226 -5.0893,-17.5051 0,-10.9269 5,-18.7318 5,-7.7491 13.6607,-7.7491 9.6875,0 15.5358,9.9233 5.8035,9.9791 5.8035,29.6028 0,18.6759 -5.625,29.547 -5.625,10.9269 -16.2053,10.9269 -8.3036,0 -12.8572,-6.8572 -4.5982,-6.8014 -4.8661,-17.2823 z m 30.9375,-25.5888 q -2.0089,-21.0731 -12.3214,-21.0731 -5.2678,0 -8.2143,4.8502 -2.9464,4.8501 -2.9464,11.5958 0,6.6341 2.8125,10.7038 2.7679,4.0697 7.5,4.0697 6.6518,0 13.1696,-10.1464 z"
       id="path7025-8"
       inkscape:connector-curvature="0" />
    <path
       style="font-style:normal;font-variant:normal;font-weight:normal;font-stretch:normal;font-size:medium;line-height:125%;font-family:Rockwell;-inkscape-font-specification:Rockwell;letter-spacing:0px;word-spacing:0px;fill:#ff0000;fill-opacity:1;stroke:none;stroke-width:1px;stroke-linecap:butt;stroke-linejoin:miter;stroke-opacity:1"
       inkscape:connector-curvature="0"
       id="path7041-9"
       d="m 4114.4464,1943.7608 h 7.5447 q 0.6696,6.6342 3.75,10.8153 3.0357,4.1812 7.4107,4.1812 5.9375,0 9.2411,-7.7491 3.3036,-7.6933 3.4375,-21.1288 -6.3393,8.5853 -14.5982,8.5853 -7.0983,0 -12.1429,-6.5784 -5.0893,-6.5226 -5.0893,-17.5051 0,-10.9269 5,-18.7318 5,-7.7491 13.6607,-7.7491 9.6875,0 15.5358,9.9233 5.8035,9.9791 5.8035,29.6028 0,18.6759 -5.625,29.547 -5.625,10.9269 -16.2053,10.9269 -8.3036,0 -12.8572,-6.8572 -4.5982,-6.8014 -4.8661,-17.2823 z m 30.9375,-25.5888 q -2.0089,-21.0731 -12.3214,-21.0731 -5.2678,0 -8.2143,4.8502 -2.9464,4.8501 -2.9464,11.5958 0,6.6341 2.8125,10.7038 2.7679,4.0697 7.5,4.0697 6.6518,0 13.1696,-10.1464 z" />
    <path
       style="fill:#b7b772"
       d="m 3678.608,1969.5383 c -0.347,-0.3672 -0.632,-38.9588 -0.632,-85.7589 0,-82.2583 -0.06,-85.1695 -1.802,-87.4482 -1.767,-2.3087 -2.209,-2.3674 -21.489,-2.8564 L 3635,1792.9756 v -243.1243 -243.1244 l 19.568,-0.4992 c 17.134,-0.4371 19.777,-0.721 21.252,-2.282 1.582,-1.6748 1.713,-6.9885 2.156,-87.8642 L 3678.449,1130 h 212.051 212.051 l 0.472,86.0815 c 0.444,80.8757 0.575,86.1894 2.157,87.8642 1.475,1.561 4.117,1.8449 21.252,2.282 l 19.568,0.4992 v 243.1244 243.1243 l -19.568,0.4992 c -17.135,0.4372 -19.777,0.7211 -21.252,2.282 -1.582,1.6749 -1.713,6.9885 -2.157,87.8642 l -0.472,86.0816 -211.655,0.2518 c -116.411,0.1384 -211.939,-0.049 -212.288,-0.4161 z m 420.641,-85.9527 c 0,-81.6793 0.05,-83.6964 1.88,-86.8749 3.8,-6.5887 6.015,-7.2218 25.272,-7.226 h 17.237 V 1549.855 1310.2252 h -17.237 c -19.257,0 -21.472,-0.6373 -25.272,-7.2259 -1.834,-3.1786 -1.877,-5.1956 -1.88,-86.8749 v -83.6206 h -208.745 -208.745 v 83.6208 c 0,81.6794 -0.05,83.6964 -1.88,86.875 -3.801,6.5886 -6.015,7.2217 -25.272,7.2259 h -17.238 v 239.6297 239.6298 h 17.238 c 19.257,0 21.471,0.6373 25.272,7.226 1.833,3.1785 1.877,5.1955 1.88,86.8749 v 83.6205 h 208.745 208.745 z"
       id="path8580"
       inkscape:connector-curvature="0" />
    <path
       inkscape:connector-curvature="0"
       id="path8884"
       d="m 3682.0081,1883.8634 c 0,-93.3631 0.2729,-90.8816 -10.3171,-93.8226 -3.1504,-0.8749 -12.0887,-1.5945 -19.8629,-1.5992 l -14.1349,-0.01 v -239.1475 -239.1475 h 17.4482 c 9.5965,0 18.5613,-0.4272 19.9218,-0.9493 6.7681,-2.5971 6.9449,-4.9638 6.9449,-92.9529 v -83.3573 h 208.5855 208.5855 v 83.3573 c 0,87.9891 0.1768,90.3558 6.9449,92.9529 1.3605,0.5221 10.3253,0.9493 19.9218,0.9493 h 17.4482 v 239.1475 239.1475 l -14.1349,0.01 c -7.7742,0 -16.6933,0.7191 -19.8203,1.5875 -10.834,3.0083 -10.3597,-1.2366 -10.3597,92.7215 v 84.4694 h -208.5855 -208.5855 v -83.3572 z m 89.6094,17.3247 c 10.3557,-15.5773 24.3679,-29.8725 40.3106,-41.1249 7.5467,-5.3264 13.7213,-10.1324 13.7213,-10.6799 0,-0.5475 -4.6416,-3.9949 -10.3147,-7.6609 -13.8736,-8.9654 -35.0636,-30.1328 -43.895,-43.8484 -3.9624,-6.1536 -7.4144,-10.9671 -7.6713,-10.6967 -0.2569,0.2704 -3.9291,5.68 -8.1605,12.0212 -9.2684,13.8896 -31.058,35.2803 -44.1839,43.375 -5.2529,3.2394 -9.5506,6.4299 -9.5506,7.0901 0,0.6601 4.1726,3.735 9.2725,6.833 13.3789,8.1272 35.024,29.3852 44.3503,43.5568 4.3997,6.6856 8.1784,12.1557 8.397,12.1557 0.2186,0 3.6946,-4.9595 7.7243,-11.021 z m 252.0295,-0.058 c 8.7683,-13.6183 29.991,-34.7996 43.8241,-43.7387 5.673,-3.6661 10.3146,-7.1715 10.3146,-7.79 0,-0.6184 -4.9854,-4.4292 -11.0787,-8.4683 -15.1615,-10.0504 -31.7321,-26.4571 -42.0238,-41.6083 -4.7283,-6.9607 -9.0436,-12.1321 -9.5895,-11.492 -0.5459,0.6402 -4.1641,6.0182 -8.0403,11.9511 -8.5586,13.0997 -30.4761,34.5617 -43.4931,42.5893 -5.2528,3.2394 -9.5506,6.3557 -9.5506,6.9252 0,0.5694 5.76,4.9479 12.8,9.73 14.9769,10.1734 32.6661,28.111 42.0863,42.6771 3.6648,5.6668 6.878,10.3033 7.1405,10.3033 0.2624,0 3.6872,-4.9854 7.6105,-11.0787 z m -251.2296,-300.2715 c 10.3664,-15.3744 28.0137,-32.8631 43.013,-42.6263 l 11.9384,-7.771 -12.7025,-8.5531 c -15.1266,-10.1854 -31.8347,-26.7429 -42.0004,-41.6217 -4.057,-5.9379 -8.0457,-10.7514 -8.8636,-10.6967 -0.818,0.055 -4.8998,5.2017 -9.0706,11.4377 -9.9081,14.8138 -26.3508,31.0865 -41.0417,40.6173 -6.4774,4.2022 -11.786,8.0322 -11.7969,8.511 -0.011,0.4787 5.6674,4.7336 12.6183,9.4552 15.1347,10.2806 31.5437,26.8558 41.5904,42.0117 4.0391,6.0932 7.5659,11.0787 7.8372,11.0787 0.2713,0 4.0866,-5.3293 8.4784,-11.8428 z m 251.3335,0.7641 c 4.0282,-6.0933 12.8484,-16.6033 19.6007,-23.3555 6.7522,-6.7522 17.2621,-15.5725 23.3554,-19.6006 6.0933,-4.0281 11.0787,-7.8077 11.0787,-8.3989 0,-0.5913 -5.2246,-4.4924 -11.6103,-8.6692 -13.8048,-9.0297 -34.0023,-29.514 -43.297,-43.912 -3.6713,-5.6871 -6.8474,-10.1568 -7.0579,-9.9327 -0.2105,0.2241 -3.8959,5.6722 -8.1898,12.1067 -10.0201,15.0156 -25.9982,30.9549 -41.3765,41.2762 -6.6777,4.4817 -12.1644,8.5634 -12.1928,9.0704 -0.028,0.5071 4.7741,4.1309 10.6724,8.0529 15.3329,10.1958 32.1536,26.7685 42.2402,41.6176 4.791,7.0531 8.8778,12.8238 9.082,12.8238 0.2041,0 3.6668,-4.9855 7.6949,-11.0787 z m -250.1445,-302.5035 c 9.6876,-14.2208 27.3917,-31.4364 42.623,-41.4471 l 11.2094,-7.3673 -11.9734,-7.8331 c -14.9405,-9.7741 -34.2391,-28.9617 -43.755,-43.5031 -3.9875,-6.0933 -7.4834,-11.0788 -7.7687,-11.0788 -0.2854,0 -3.5173,4.6365 -7.1821,10.3033 -9.4201,14.5661 -27.1094,32.5038 -42.0862,42.6771 -7.04,4.7821 -12.7796,9.0865 -12.7546,9.5653 0.025,0.4787 5.2292,4.3087 11.565,8.5109 13.9709,9.2664 36.0229,31.6454 44.0976,44.7516 3.2548,5.2829 6.3859,9.065 6.958,8.4046 0.5722,-0.6605 4.6523,-6.503 9.067,-12.9834 z m 252.2065,-0.1015 c 9.5483,-14.0144 29.7896,-33.6933 42.7614,-41.5733 5.0663,-3.0776 9.2114,-6.0746 9.2114,-6.66 0,-0.5853 -6.1745,-5.4223 -13.7212,-10.7487 -16.0076,-11.2981 -31.1403,-26.7778 -40.8483,-41.7849 -3.7864,-5.8532 -7.3912,-10.0632 -8.0106,-9.3555 -0.6194,0.7077 -4.6878,6.516 -9.041,12.9075 -9.6837,14.2179 -26.2813,30.5081 -41.0762,40.3154 -6.0933,4.0392 -11.0787,7.833 -11.0787,8.4307 0,0.5977 4.2978,3.7345 9.5506,6.9708 13.2479,8.1619 35.5797,30.1994 44.6442,44.0556 4.1672,6.3703 8.0121,11.0747 8.5442,10.4544 0.532,-0.6203 4.6109,-6.4758 9.0642,-13.0121 z"
       style="fill:#feefd3;fill-opacity:1;stroke:#fffecd;stroke-width:0.541452;stroke-miterlimit:4;stroke-dasharray:none;stroke-opacity:1" />
    <path
       inkscape:connector-curvature="0"
       id="path6309"
       d="m 3763.1926,1311.1646 c -0.4442,-0.697 -2.4611,-3.903 -4.4823,-7.1243 -6.9857,-11.1345 -11.4277,-16.6285 -21.7018,-26.8418 -10.2742,-10.2133 -15.8011,-14.6288 -27.0019,-21.5731 -3.2407,-2.0091 -6.4657,-4.0141 -7.1668,-4.4555 -1.1198,-0.7052 -1.1198,-0.9003 0,-1.6053 0.7011,-0.4416 3.9255,-2.4474 7.1653,-4.4572 21.162,-13.1288 38.4178,-30.7573 51.0891,-52.1924 l 2.9058,-4.9155 2.9056,4.9155 c 12.6714,21.4351 29.9272,39.0636 51.0893,52.1924 3.2397,2.0098 6.4641,4.0156 7.1652,4.4572 1.1198,0.705 1.1198,0.9001 0,1.6053 -0.7011,0.4414 -3.9262,2.4464 -7.1669,4.4555 -11.2008,6.9443 -16.7276,11.3598 -27.0018,21.5731 -10.2742,10.2133 -14.7162,15.7073 -21.7019,26.8418 -2.021,3.2213 -4.038,6.4273 -4.4822,7.1243 -0.7092,1.1132 -0.9055,1.1132 -1.6147,0 z"
       style="fill:#fe0303;image-rendering:auto" />
    <path
       inkscape:connector-curvature="0"
       id="path6311"
       d="m 3764.8073,1788.8344 c 0.4442,0.697 2.4611,3.903 4.4823,7.1243 6.9857,11.1345 11.4277,16.6285 21.7018,26.8418 10.2742,10.2133 15.8011,14.6289 27.0019,21.5731 3.2407,2.0091 6.4658,4.0141 7.1668,4.4555 1.1198,0.7052 1.1198,0.9003 0,1.6053 -0.701,0.4416 -3.9254,2.4474 -7.1652,4.4572 -21.1621,13.1288 -38.4179,30.7573 -51.0892,52.1924 l -2.9058,4.9155 -2.9056,-4.9155 c -12.6714,-21.4351 -29.9272,-39.0636 -51.0893,-52.1924 -3.2397,-2.0098 -6.4641,-4.0156 -7.1652,-4.4572 -1.1198,-0.705 -1.1198,-0.9001 0,-1.6053 0.7011,-0.4414 3.9262,-2.4464 7.1669,-4.4555 11.2008,-6.9442 16.7276,-11.3598 27.0018,-21.5731 10.2742,-10.2133 14.7162,-15.7073 21.7019,-26.8418 2.021,-3.2213 4.038,-6.4273 4.4822,-7.1243 0.7092,-1.1132 0.9055,-1.1132 1.6147,0 z"
       style="fill:#fe0303;image-rendering:auto" />
    <path
       inkscape:connector-curvature="0"
       id="path6317"
       d="m 3763.1926,1611.1646 c -0.4442,-0.697 -2.4611,-3.903 -4.4823,-7.1243 -6.9857,-11.1345 -11.4277,-16.6285 -21.7018,-26.8418 -10.2742,-10.2133 -15.8011,-14.6288 -27.0019,-21.5731 -3.2407,-2.0091 -6.4657,-4.0141 -7.1668,-4.4555 -1.1198,-0.7052 -1.1198,-0.9003 0,-1.6053 0.7011,-0.4416 3.9255,-2.4474 7.1653,-4.4572 21.162,-13.1288 38.4178,-30.7573 51.0891,-52.1924 l 2.9058,-4.9155 2.9056,4.9155 c 12.6714,21.4351 29.9272,39.0636 51.0893,52.1924 3.2397,2.0098 6.4641,4.0156 7.1652,4.4572 1.1198,0.705 1.1198,0.9001 0,1.6053 -0.7011,0.4414 -3.9262,2.4464 -7.1669,4.4555 -11.2008,6.9443 -16.7276,11.3598 -27.0018,21.5731 -10.2742,10.2133 -14.7162,15.7073 -21.7019,26.8418 -2.021,3.2213 -4.038,6.4273 -4.4822,7.1243 -0.7092,1.1132 -0.9055,1.1132 -1.6147,0 z"
       style="fill:#fe0303;image-rendering:auto" />
    <path
       style="fill:#fe0303;image-rendering:auto"
       d="m 4015.1926,1311.1646 c -0.4442,-0.697 -2.4611,-3.903 -4.4823,-7.1243 -6.9857,-11.1345 -11.4277,-16.6285 -21.7018,-26.8418 -10.2742,-10.2133 -15.8011,-14.6288 -27.0018,-21.5731 -3.2408,-2.0091 -6.4658,-4.0141 -7.1669,-4.4555 -1.1198,-0.7052 -1.1198,-0.9003 0,-1.6053 0.7011,-0.4416 3.9255,-2.4474 7.1653,-4.4572 21.162,-13.1288 38.4178,-30.7573 51.0891,-52.1924 l 2.9058,-4.9155 2.9056,4.9155 c 12.6714,21.4351 29.9272,39.0636 51.0893,52.1924 3.2397,2.0098 6.4641,4.0156 7.1652,4.4572 1.1198,0.705 1.1198,0.9001 0,1.6053 -0.7011,0.4414 -3.9262,2.4464 -7.1669,4.4555 -11.2008,6.9443 -16.7276,11.3598 -27.0018,21.5731 -10.2742,10.2133 -14.7162,15.7073 -21.7019,26.8418 -2.021,3.2213 -4.038,6.4273 -4.4822,7.1243 -0.7092,1.1132 -0.9055,1.1132 -1.6147,0 z"
       id="path6320-7"
       inkscape:connector-curvature="0" />
    <path
       style="fill:#fe0303;image-rendering:auto"
       d="m 4016.8073,1788.8344 c 0.4442,0.697 2.4611,3.903 4.4823,7.1243 6.9857,11.1345 11.4277,16.6285 21.7018,26.8418 10.2742,10.2133 15.8011,14.6289 27.0019,21.5731 3.2407,2.0091 6.4658,4.0141 7.1668,4.4555 1.1198,0.7052 1.1198,0.9003 0,1.6053 -0.701,0.4416 -3.9254,2.4474 -7.1652,4.4572 -21.1621,13.1288 -38.4179,30.7573 -51.0892,52.1924 l -2.9058,4.9155 -2.9056,-4.9155 c -12.6714,-21.4351 -29.9272,-39.0636 -51.0893,-52.1924 -3.2397,-2.0098 -6.4641,-4.0156 -7.1652,-4.4572 -1.1198,-0.705 -1.1198,-0.9001 0,-1.6053 0.7011,-0.4414 3.9262,-2.4464 7.1669,-4.4555 11.2008,-6.9442 16.7276,-11.3598 27.0018,-21.5731 10.2742,-10.2133 14.7162,-15.7073 21.7019,-26.8418 2.021,-3.2213 4.038,-6.4273 4.4822,-7.1243 0.7092,-1.1132 0.9055,-1.1132 1.6147,0 z"
       id="path6322-3"
       inkscape:connector-curvature="0" />
    <path
       style="fill:#fe0303;image-rendering:auto"
       d="m 4015.1926,1611.1654 c -0.4442,-0.697 -2.4611,-3.903 -4.4823,-7.1243 -6.9857,-11.1345 -11.4277,-16.6285 -21.7018,-26.8418 -10.2742,-10.2134 -15.8011,-14.6289 -27.0018,-21.5731 -3.2408,-2.0091 -6.4658,-4.0141 -7.1669,-4.4555 -1.1198,-0.7053 -1.1198,-0.9003 0,-1.6054 0.7011,-0.4416 3.9255,-2.4473 7.1653,-4.4571 21.162,-13.1288 38.4178,-30.7573 51.0891,-52.1924 l 2.9058,-4.9155 2.9056,4.9155 c 12.6714,21.4351 29.9272,39.0636 51.0893,52.1924 3.2397,2.0098 6.4641,4.0155 7.1652,4.4571 1.1198,0.7051 1.1198,0.9001 0,1.6054 -0.7011,0.4414 -3.9262,2.4464 -7.1669,4.4555 -11.2008,6.9442 -16.7276,11.3597 -27.0018,21.5731 -10.2742,10.2133 -14.7162,15.7073 -21.7019,26.8418 -2.021,3.2213 -4.038,6.4273 -4.4822,7.1243 -0.7092,1.1132 -0.9055,1.1132 -1.6147,0 z"
       id="path6327"
       inkscape:connector-curvature="0" />
  </g>
</svg>
