<?xml version="1.0" encoding="UTF-8" standalone="no"?>
<!-- Created with Inkscape (http://www.inkscape.org/) -->

<svg
   id="svg10047"
   height="122.94575"
   width="78.999786"
   version="1.1"
   viewBox="0 0 78.999786 122.94575"
   inkscape:version="0.91 r13725"
   sodipodi:docname="kaiser-jubilaum.svgz"
   xmlns:inkscape="http://www.inkscape.org/namespaces/inkscape"
   xmlns:sodipodi="http://sodipodi.sourceforge.net/DTD/sodipodi-0.dtd"
   xmlns="http://www.w3.org/2000/svg"
   xmlns:svg="http://www.w3.org/2000/svg"
   xmlns:rdf="http://www.w3.org/1999/02/22-rdf-syntax-ns#"
   xmlns:cc="http://creativecommons.org/ns#"
   xmlns:dc="http://purl.org/dc/elements/1.1/">
  <sodipodi:namedview
     pagecolor="#ffffff"
     bordercolor="#666666"
     borderopacity="1"
     objecttolerance="10"
     gridtolerance="10"
     guidetolerance="10"
     inkscape:pageopacity="0"
     inkscape:pageshadow="2"
     inkscape:window-width="1920"
     inkscape:window-height="1016"
     id="namedview1491"
     showgrid="false"
     inkscape:zoom="1.3479675"
     inkscape:cx="513.49999"
     inkscape:cy="307.5"
     inkscape:window-x="0"
     inkscape:window-y="0"
     inkscape:window-maximized="1"
     inkscape:current-layer="svg10047"
     showguides="true"
     inkscape:guide-bbox="true"
     inkscape:snap-grids="true"
     inkscape:showpageshadow="2"
     inkscape:pagecheckerboard="0"
     inkscape:deskcolor="#d1d1d1" />
  <metadata
     id="metadata16869">
    <rdf:RDF>
      <cc:Work
         rdf:about="">
        <dc:format>image/svg+xml</dc:format>
        <dc:type
           rdf:resource="http://purl.org/dc/dcmitype/StillImage" />
        <dc:title />
      </cc:Work>
    </rdf:RDF>
  </metadata>
  <defs
     id="defs10049" />
  <g
     id="diamond_4"
     transform="matrix(0.13620652,0,0,0.13660648,-299.65435,-150.26713)"
     inkscape:label="#diamond_4">
    <rect
       style="font-style:normal;font-variant:normal;font-weight:500;font-stretch:normal;font-size:medium;line-height:125%;font-family:Gaelic;-inkscape-font-specification:'Gaelic Medium';letter-spacing:0px;word-spacing:0px;fill:#ffffff;fill-opacity:1;stroke:#000000;stroke-width:1.99898;stroke-linecap:butt;stroke-linejoin:miter;stroke-miterlimit:4;stroke-dasharray:none;stroke-opacity:1"
       id="rect6440"
       y="1100.9995"
       x="2200.9995"
       ry="49.888176"
       rx="48.210754"
       height="898.00043"
       width="578.00104" />
    <ellipse
       style="fill:#ffffff;fill-opacity:1;stroke:#0c0000;stroke-width:2.70753;stroke-miterlimit:4;stroke-dasharray:none;stroke-opacity:0"
       id="ellipse6479"
       cx="2266.3857"
       cy="1297.4878"
       rx="10.638906"
       ry="10.641262" />
    <path
       style="fill:#aa8800;fill-rule:evenodd;stroke:#cb9a00;stroke-width:1.9531;stroke-linecap:butt;stroke-linejoin:miter;stroke-miterlimit:4;stroke-dasharray:none;stroke-opacity:1"
       d="m 2701.5185,1131.3409 c 0.045,168.2551 0.045,168.2551 0.045,168.2551 v 0"
       id="path6489"
       inkscape:connector-curvature="0" />
    <path
       style="fill:#fe0303;image-rendering:auto"
       d="m 2245.6877,1283.6763 c -0.172,-0.2698 -0.953,-1.5108 -1.735,-2.7578 -2.705,-4.3101 -4.424,-6.4368 -8.401,-10.3903 -3.977,-3.9536 -6.117,-5.6628 -10.452,-8.3509 -1.255,-0.7777 -2.503,-1.5539 -2.775,-1.7247 -0.433,-0.273 -0.433,-0.3485 0,-0.6215 0.272,-0.1709 1.52,-0.9473 2.774,-1.7253 8.192,-5.0821 14.871,-11.906 19.776,-20.2035 l 1.125,-1.9028 1.125,1.9028 c 4.905,8.2975 11.585,15.1214 19.776,20.2035 1.255,0.778 2.503,1.5544 2.774,1.7253 0.434,0.273 0.434,0.3485 0,0.6215 -0.271,0.1708 -1.52,0.947 -2.774,1.7247 -4.336,2.6881 -6.475,4.3973 -10.453,8.3509 -3.977,3.9535 -5.696,6.0802 -8.4,10.3903 -0.783,1.247 -1.563,2.488 -1.735,2.7578 -0.275,0.4309 -0.351,0.4309 -0.625,0 z"
       id="path6525"
       inkscape:connector-curvature="0" />
    <path
       inkscape:connector-curvature="0"
       id="path6527"
       d="m 2733.6877,1283.6763 c -0.172,-0.2698 -0.953,-1.5108 -1.735,-2.7578 -2.705,-4.3101 -4.424,-6.4368 -8.401,-10.3903 -3.977,-3.9536 -6.117,-5.6628 -10.452,-8.3509 -1.255,-0.7777 -2.503,-1.5539 -2.775,-1.7247 -0.433,-0.273 -0.433,-0.3485 0,-0.6215 0.272,-0.1709 1.52,-0.9473 2.774,-1.7253 8.192,-5.0821 14.871,-11.906 19.776,-20.2035 l 1.125,-1.9028 1.125,1.9028 c 4.905,8.2975 11.585,15.1214 19.776,20.2035 1.255,0.778 2.503,1.5544 2.774,1.7253 0.434,0.273 0.434,0.3485 0,0.6215 -0.271,0.1708 -1.52,0.947 -2.774,1.7247 -4.336,2.6881 -6.475,4.3973 -10.453,8.3509 -3.977,3.9535 -5.696,6.0802 -8.4,10.3903 -0.783,1.247 -1.563,2.488 -1.735,2.7578 -0.275,0.4309 -0.351,0.4309 -0.625,0 z"
       style="fill:#fe0303;image-rendering:auto" />
    <path
       inkscape:connector-curvature="0"
       id="path6529"
       d="m 2245.6877,1863.6763 c -0.172,-0.2698 -0.953,-1.5108 -1.735,-2.7578 -2.705,-4.3101 -4.424,-6.4368 -8.401,-10.3903 -3.977,-3.9536 -6.117,-5.6628 -10.452,-8.3509 -1.255,-0.7777 -2.503,-1.5539 -2.775,-1.7247 -0.433,-0.273 -0.433,-0.3485 0,-0.6215 0.272,-0.1709 1.52,-0.9473 2.774,-1.7253 8.192,-5.0821 14.871,-11.906 19.776,-20.2035 l 1.125,-1.9028 1.125,1.9028 c 4.905,8.2975 11.585,15.1214 19.776,20.2035 1.255,0.778 2.503,1.5544 2.774,1.7253 0.434,0.273 0.434,0.3485 0,0.6215 -0.271,0.1708 -1.52,0.947 -2.774,1.7247 -4.336,2.6881 -6.475,4.3973 -10.453,8.3509 -3.977,3.9535 -5.696,6.0802 -8.4,10.3903 -0.783,1.247 -1.563,2.488 -1.735,2.7578 -0.275,0.4309 -0.351,0.4309 -0.625,0 z"
       style="fill:#fe0303;image-rendering:auto" />
    <path
       style="fill:#fe0303;image-rendering:auto"
       d="m 2733.6877,1863.6763 c -0.172,-0.2698 -0.953,-1.5108 -1.735,-2.7578 -2.705,-4.3101 -4.424,-6.4368 -8.401,-10.3903 -3.977,-3.9536 -6.117,-5.6628 -10.452,-8.3509 -1.255,-0.7777 -2.503,-1.5539 -2.775,-1.7247 -0.433,-0.273 -0.433,-0.3485 0,-0.6215 0.272,-0.1709 1.52,-0.9473 2.774,-1.7253 8.192,-5.0821 14.871,-11.906 19.776,-20.2035 l 1.125,-1.9028 1.125,1.9028 c 4.905,8.2975 11.585,15.1214 19.776,20.2035 1.255,0.778 2.503,1.5544 2.774,1.7253 0.434,0.273 0.434,0.3485 0,0.6215 -0.271,0.1708 -1.52,0.947 -2.774,1.7247 -4.336,2.6881 -6.475,4.3973 -10.453,8.3509 -3.977,3.9535 -5.696,6.0802 -8.4,10.3903 -0.783,1.247 -1.563,2.488 -1.735,2.7578 -0.275,0.4309 -0.351,0.4309 -0.625,0 z"
       id="path6531"
       inkscape:connector-curvature="0" />
    <path
       style="font-style:normal;font-variant:normal;font-weight:normal;font-stretch:normal;font-size:medium;line-height:125%;font-family:Rockwell;-inkscape-font-specification:Rockwell;letter-spacing:0px;word-spacing:0px;fill:#ff0000;fill-opacity:1;stroke:none;stroke-width:1px;stroke-linecap:butt;stroke-linejoin:miter;stroke-opacity:1"
       inkscape:connector-curvature="0"
       id="path6752"
       d="m 2249.1601,1190.6593 h -19.4595 q -0.9979,-5.3067 -3.7006,-8.9586 l 24.0748,-49.7004 h 6.6944 v 49.0727 H 2266 v 9.5863 h -9.2308 v 11.6976 h 5.2807 v 9.6434 h -19.0437 v -9.6434 h 6.1539 z m 0,-9.5863 v -31.2695 l -15.1767,31.2695 z" />
    <path
       style="font-style:normal;font-variant:normal;font-weight:normal;font-stretch:normal;font-size:medium;line-height:125%;font-family:Rockwell;-inkscape-font-specification:Rockwell;letter-spacing:0px;word-spacing:0px;fill:#ff0000;fill-opacity:1;stroke:none;stroke-width:1px;stroke-linecap:butt;stroke-linejoin:miter;stroke-opacity:1"
       d="m 2737.1601,1190.6593 h -19.4595 q -0.9979,-5.3067 -3.7006,-8.9586 l 24.0748,-49.7004 h 6.6944 v 49.0727 H 2754 v 9.5863 h -9.2308 v 11.6976 h 5.2807 v 9.6434 h -19.0437 v -9.6434 h 6.1539 z m 0,-9.5863 v -31.2695 l -15.1767,31.2695 z"
       id="path6872-2"
       inkscape:connector-curvature="0" />
    <path
       style="font-style:normal;font-variant:normal;font-weight:normal;font-stretch:normal;font-size:medium;line-height:125%;font-family:Rockwell;-inkscape-font-specification:Rockwell;letter-spacing:0px;word-spacing:0px;fill:#ff0000;fill-opacity:1;stroke:none;stroke-width:1px;stroke-linecap:butt;stroke-linejoin:miter;stroke-opacity:1"
       d="m 2242.8399,1909.2412 h 19.4595 q 0.9979,5.3067 3.7006,8.9586 l -24.0748,49.7004 h -6.6944 v -49.0727 H 2226 v -9.5863 h 9.2308 v -11.6976 h -5.2807 v -9.6434 h 19.0437 v 9.6434 h -6.1539 z m 0,9.5863 v 31.2695 l 15.1767,-31.2695 z"
       id="path7011-3"
       inkscape:connector-curvature="0" />
    <path
       style="font-style:normal;font-variant:normal;font-weight:normal;font-stretch:normal;font-size:medium;line-height:125%;font-family:Rockwell;-inkscape-font-specification:Rockwell;letter-spacing:0px;word-spacing:0px;fill:#ff0000;fill-opacity:1;stroke:none;stroke-width:1px;stroke-linecap:butt;stroke-linejoin:miter;stroke-opacity:1"
       inkscape:connector-curvature="0"
       id="path7037-7"
       d="m 2730.8399,1909.2412 h 19.4595 q 0.9979,5.3067 3.7006,8.9586 l -24.0748,49.7004 h -6.6944 v -49.0727 H 2714 v -9.5863 h 9.2308 v -11.6976 h -5.2807 v -9.6434 h 19.0437 v 9.6434 h -6.1539 z m 0,9.5863 v 31.2695 l 15.1767,-31.2695 z" />
    <path
       style="fill:#b7b772"
       d="m 2278.608,1969.5383 c -0.347,-0.3672 -0.632,-38.9588 -0.632,-85.7589 0,-82.2583 -0.06,-85.1695 -1.802,-87.4482 -1.767,-2.3087 -2.209,-2.3674 -21.489,-2.8564 L 2235,1792.9756 v -243.1243 -243.1244 l 19.568,-0.4992 c 17.134,-0.4371 19.777,-0.721 21.252,-2.282 1.582,-1.6748 1.713,-6.9885 2.156,-87.8642 L 2278.449,1130 h 212.051 212.051 l 0.472,86.0815 c 0.444,80.8757 0.575,86.1894 2.157,87.8642 1.475,1.561 4.117,1.8449 21.252,2.282 l 19.568,0.4992 v 243.1244 243.1243 l -19.568,0.4992 c -17.135,0.4372 -19.777,0.7211 -21.252,2.282 -1.582,1.6749 -1.713,6.9885 -2.157,87.8642 l -0.472,86.0816 -211.655,0.2518 c -116.411,0.1384 -211.939,-0.049 -212.288,-0.4161 z m 420.641,-85.9527 c 0,-81.6793 0.05,-83.6964 1.88,-86.8749 3.8,-6.5887 6.015,-7.2218 25.272,-7.226 h 17.237 V 1549.855 1310.2252 h -17.237 c -19.257,0 -21.472,-0.6373 -25.272,-7.2259 -1.834,-3.1786 -1.877,-5.1956 -1.88,-86.8749 v -83.6206 h -208.745 -208.745 v 83.6208 c 0,81.6794 -0.05,83.6964 -1.88,86.875 -3.801,6.5886 -6.015,7.2217 -25.272,7.2259 h -17.238 v 239.6297 239.6298 h 17.238 c 19.257,0 21.471,0.6373 25.272,7.226 1.833,3.1785 1.877,5.1955 1.88,86.8749 v 83.6205 h 208.745 208.745 z"
       id="path8576"
       inkscape:connector-curvature="0" />
    <path
       inkscape:connector-curvature="0"
       id="path8874"
       d="m 2281.7891,1882.7512 c 0,-93.9581 0.4742,-89.7132 -10.3598,-92.7221 -3.1269,-0.8685 -12.046,-1.5828 -19.8202,-1.5875 l -14.1349,-0.01 v -239.1475 -239.1475 h 18.4101 c 17.9456,0 18.5048,-0.1021 22.1575,-4.0434 l 3.7473,-4.0434 v -84.5864 -84.5863 h 208.5855 208.5855 v 83.3573 c 0,87.9891 0.1768,90.3558 6.9449,92.9529 1.3605,0.5221 10.3253,0.9493 19.9218,0.9493 h 17.4482 v 238.9552 238.9552 l -17.1911,0.7511 c -9.4552,0.4131 -18.42,1.2706 -19.9219,1.9055 -7.0735,2.9906 -7.2019,4.652 -7.2019,93.1583 v 83.3572 h -208.5855 -208.5855 v -84.4694 z m 89.3938,19.1763 c 7.9173,-13.1769 30.7026,-35.9775 44.7002,-44.73 6.0484,-3.782 10.9903,-7.2202 10.9819,-7.6405 -0.01,-0.4202 -4.5682,-3.5146 -10.1331,-6.8764 -13.3594,-8.0707 -34.731,-29.142 -44.7098,-44.0817 l -8.0097,-11.9916 -8.0788,11.9916 c -9.5401,14.1608 -31.2891,35.6332 -44.7153,44.1466 -5.2455,3.3261 -9.5432,6.3996 -9.5506,6.83 -0.01,0.4304 5.3159,4.3136 11.8294,8.6294 15.2441,10.1003 32.1188,26.9563 42.1111,42.064 4.3434,6.5671 8.2493,11.9157 8.6797,11.8859 0.4304,-0.03 3.5331,-4.6322 6.895,-10.2273 z m 252.4448,-0.7971 c 9.5132,-14.5375 28.8134,-33.7283 43.7429,-43.4952 l 11.9612,-7.8251 -11.9612,-8.0214 c -15.3717,-10.3083 -34.8111,-29.6961 -43.9219,-43.805 -3.9347,-6.0933 -7.3668,-11.0787 -7.6268,-11.0787 -0.2601,0 -3.1233,4.2977 -6.3627,9.5506 -8.0834,13.1075 -29.4693,34.901 -43.375,44.2017 -6.3412,4.2413 -11.5295,8.2461 -11.5295,8.8997 0,0.6536 5.1883,4.6585 11.5295,8.8997 13.9057,9.3007 35.2916,31.0943 43.375,44.2018 3.2394,5.2528 6.1213,9.5506 6.4042,9.5506 0.2829,0 3.7769,-4.9854 7.7643,-11.0787 z m -252.1202,-599.0149 c 9.5291,-14.5292 28.7838,-33.8213 43.7571,-43.842 l 11.9916,-8.0253 -12.7557,-8.5252 c -15.7054,-10.4966 -35.1682,-30.0826 -43.3176,-43.5918 -3.3619,-5.5728 -6.4771,-10.1569 -6.9228,-10.1867 -0.4457,-0.03 -4.2253,5.1658 -8.3991,11.5461 -9.0748,13.8722 -31.4016,35.9079 -44.656,44.0738 -5.2529,3.2363 -9.5397,6.3021 -9.5264,6.813 0.013,0.5109 4.9988,4.1365 11.0788,8.0569 14.0943,9.0881 34.1672,29.1753 43.5166,43.5475 3.9976,6.1451 7.4257,11.1819 7.6179,11.1927 0.1923,0.011 3.6193,-4.9657 7.6156,-11.059 z m 251.6317,0.4982 c 9.7937,-15.1395 26.4988,-32.064 42.3941,-42.9509 l 13.7403,-9.4109 -10.2084,-6.7049 c -20.1604,-13.2414 -38.2532,-31.5762 -47.7578,-48.3968 -2.2553,-3.9913 -4.4705,-7.2577 -4.9226,-7.2585 -0.4521,-9e-4 -3.8697,4.634 -7.5947,10.2998 -9.6794,14.7224 -27.3453,32.5891 -42.1994,42.679 -7.04,4.7821 -12.7911,9.0865 -12.7803,9.5653 0.011,0.4787 5.1125,4.1837 11.337,8.2332 13.2678,8.6316 35.7481,31.3793 44.4329,44.9613 3.3541,5.2455 6.237,9.5432 6.4064,9.5506 0.1694,0.01 3.388,-4.7479 7.1525,-10.5672 z"
       style="fill:#feefd3;fill-opacity:1;stroke:#fffecd;stroke-width:0.541452;stroke-miterlimit:4;stroke-dasharray:none;stroke-opacity:1" />
    <path
       style="fill:#fe0303;image-rendering:auto"
       d="m 2363.1926,1311.1646 c -0.4442,-0.697 -2.4611,-3.903 -4.4823,-7.1243 -6.9857,-11.1345 -11.4277,-16.6285 -21.7018,-26.8418 -10.2742,-10.2133 -15.8011,-14.6288 -27.0018,-21.5731 -3.2408,-2.0091 -6.4658,-4.0141 -7.1669,-4.4555 -1.1198,-0.7052 -1.1198,-0.9003 0,-1.6053 0.7011,-0.4416 3.9255,-2.4474 7.1653,-4.4572 21.162,-13.1288 38.4178,-30.7573 51.0891,-52.1924 l 2.9058,-4.9155 2.9056,4.9155 c 12.6714,21.4351 29.9272,39.0636 51.0893,52.1924 3.2397,2.0098 6.4641,4.0156 7.1652,4.4572 1.1198,0.705 1.1198,0.9001 0,1.6053 -0.7011,0.4414 -3.9262,2.4464 -7.1669,4.4555 -11.2008,6.9443 -16.7276,11.3598 -27.0018,21.5731 -10.2742,10.2133 -14.7162,15.7073 -21.7019,26.8418 -2.021,3.2213 -4.038,6.4273 -4.4822,7.1243 -0.7092,1.1132 -0.9055,1.1132 -1.6147,0 z"
       id="path6517"
       inkscape:connector-curvature="0" />
    <path
       style="fill:#fe0303;image-rendering:auto"
       d="m 2364.8073,1788.8344 c 0.4442,0.697 2.4611,3.903 4.4823,7.1243 6.9857,11.1345 11.4277,16.6285 21.7018,26.8418 10.2742,10.2133 15.8011,14.6289 27.0019,21.5731 3.2407,2.0091 6.4658,4.0141 7.1668,4.4555 1.1198,0.7052 1.1198,0.9003 0,1.6053 -0.701,0.4416 -3.9254,2.4474 -7.1652,4.4572 -21.1621,13.1288 -38.4179,30.7573 -51.0892,52.1924 l -2.9058,4.9155 -2.9056,-4.9155 c -12.6714,-21.4351 -29.9272,-39.0636 -51.0893,-52.1924 -3.2397,-2.0098 -6.4641,-4.0156 -7.1652,-4.4572 -1.1198,-0.705 -1.1198,-0.9001 0,-1.6053 0.7011,-0.4414 3.9262,-2.4464 7.1669,-4.4555 11.2008,-6.9442 16.7276,-11.3598 27.0018,-21.5731 10.2742,-10.2133 14.7162,-15.7073 21.7019,-26.8418 2.021,-3.2213 4.038,-6.4273 4.4822,-7.1243 0.7092,-1.1132 0.9055,-1.1132 1.6147,0 z"
       id="path6519"
       inkscape:connector-curvature="0" />
    <path
       inkscape:connector-curvature="0"
       id="path6521"
       d="m 2615.1926,1311.1646 c -0.4442,-0.697 -2.4611,-3.903 -4.4823,-7.1243 -6.9857,-11.1345 -11.4277,-16.6285 -21.7018,-26.8418 -10.2742,-10.2133 -15.8011,-14.6288 -27.0018,-21.5731 -3.2408,-2.0091 -6.4658,-4.0141 -7.1669,-4.4555 -1.1198,-0.7052 -1.1198,-0.9003 0,-1.6053 0.7011,-0.4416 3.9255,-2.4474 7.1653,-4.4572 21.162,-13.1288 38.4178,-30.7573 51.0891,-52.1924 l 2.9058,-4.9155 2.9056,4.9155 c 12.6714,21.4351 29.9272,39.0636 51.0893,52.1924 3.2397,2.0098 6.4641,4.0156 7.1652,4.4572 1.1198,0.705 1.1198,0.9001 0,1.6053 -0.7011,0.4414 -3.9262,2.4464 -7.1669,4.4555 -11.2008,6.9443 -16.7276,11.3598 -27.0018,21.5731 -10.2742,10.2133 -14.7162,15.7073 -21.7019,26.8418 -2.021,3.2213 -4.038,6.4273 -4.4822,7.1243 -0.7092,1.1132 -0.9055,1.1132 -1.6147,0 z"
       style="fill:#fe0303;image-rendering:auto" />
    <path
       inkscape:connector-curvature="0"
       id="path6523"
       d="m 2616.8073,1788.8344 c 0.4442,0.697 2.4611,3.903 4.4823,7.1243 6.9857,11.1345 11.4277,16.6285 21.7018,26.8418 10.2742,10.2133 15.8011,14.6289 27.0019,21.5731 3.2407,2.0091 6.4658,4.0141 7.1668,4.4555 1.1198,0.7052 1.1198,0.9003 0,1.6053 -0.701,0.4416 -3.9254,2.4474 -7.1652,4.4572 -21.1621,13.1288 -38.4179,30.7573 -51.0892,52.1924 l -2.9058,4.9155 -2.9056,-4.9155 c -12.6714,-21.4351 -29.9272,-39.0636 -51.0893,-52.1924 -3.2397,-2.0098 -6.4641,-4.0156 -7.1652,-4.4572 -1.1198,-0.705 -1.1198,-0.9001 0,-1.6053 0.7011,-0.4414 3.9262,-2.4464 7.1669,-4.4555 11.2008,-6.9442 16.7276,-11.3598 27.0018,-21.5731 10.2742,-10.2133 14.7162,-15.7073 21.7019,-26.8418 2.021,-3.2213 4.038,-6.4273 4.4822,-7.1243 0.7092,-1.1132 0.9055,-1.1132 1.6147,0 z"
       style="fill:#fe0303;image-rendering:auto" />
  </g>
</svg>
