<?xml version="1.0" encoding="UTF-8" standalone="no"?>
<!-- Created with Inkscape (http://www.inkscape.org/) -->

<svg
   id="svg10047"
   height="122.94575"
   width="78.999786"
   version="1.1"
   viewBox="0 0 78.999786 122.94575"
   inkscape:version="0.91 r13725"
   sodipodi:docname="kaiser-jubilaum.svgz"
   xmlns:inkscape="http://www.inkscape.org/namespaces/inkscape"
   xmlns:sodipodi="http://sodipodi.sourceforge.net/DTD/sodipodi-0.dtd"
   xmlns="http://www.w3.org/2000/svg"
   xmlns:svg="http://www.w3.org/2000/svg"
   xmlns:rdf="http://www.w3.org/1999/02/22-rdf-syntax-ns#"
   xmlns:cc="http://creativecommons.org/ns#"
   xmlns:dc="http://purl.org/dc/elements/1.1/">
  <sodipodi:namedview
     pagecolor="#ffffff"
     bordercolor="#666666"
     borderopacity="1"
     objecttolerance="10"
     gridtolerance="10"
     guidetolerance="10"
     inkscape:pageopacity="0"
     inkscape:pageshadow="2"
     inkscape:window-width="1920"
     inkscape:window-height="1016"
     id="namedview1491"
     showgrid="false"
     inkscape:zoom="1.3479675"
     inkscape:cx="513.49999"
     inkscape:cy="307.5"
     inkscape:window-x="0"
     inkscape:window-y="0"
     inkscape:window-maximized="1"
     inkscape:current-layer="svg10047"
     showguides="true"
     inkscape:guide-bbox="true"
     inkscape:snap-grids="true"
     inkscape:showpageshadow="2"
     inkscape:pagecheckerboard="0"
     inkscape:deskcolor="#d1d1d1" />
  <metadata
     id="metadata16869">
    <rdf:RDF>
      <cc:Work
         rdf:about="">
        <dc:format>image/svg+xml</dc:format>
        <dc:type
           rdf:resource="http://purl.org/dc/dcmitype/StillImage" />
        <dc:title />
      </cc:Work>
    </rdf:RDF>
  </metadata>
  <defs
     id="defs10049" />
  <g
     id="diamond_3"
     transform="matrix(0.13620652,0,0,0.13660648,-204.30978,-150.26713)"
     inkscape:label="#diamond_3">
    <rect
       style="font-style:normal;font-variant:normal;font-weight:500;font-stretch:normal;font-size:medium;line-height:125%;font-family:Gaelic;-inkscape-font-specification:'Gaelic Medium';letter-spacing:0px;word-spacing:0px;fill:#ffffff;fill-opacity:1;stroke:#000000;stroke-width:1.99898;stroke-linecap:butt;stroke-linejoin:miter;stroke-miterlimit:4;stroke-dasharray:none;stroke-opacity:1"
       id="rect6533"
       y="1100.9995"
       x="1500.9995"
       ry="49.888176"
       rx="48.210754"
       height="898.00043"
       width="578.00104" />
    <path
       style="fill:#fe0303;image-rendering:auto"
       d="m 1545.6877,1283.6763 c -0.172,-0.2698 -0.953,-1.5108 -1.735,-2.7578 -2.705,-4.3101 -4.424,-6.4368 -8.401,-10.3903 -3.977,-3.9536 -6.117,-5.6628 -10.452,-8.3509 -1.255,-0.7777 -2.503,-1.5539 -2.775,-1.7247 -0.433,-0.273 -0.433,-0.3485 0,-0.6215 0.272,-0.1709 1.52,-0.9473 2.774,-1.7253 8.192,-5.0821 14.871,-11.906 19.776,-20.2035 l 1.125,-1.9028 1.125,1.9028 c 4.905,8.2975 11.585,15.1214 19.776,20.2035 1.255,0.778 2.503,1.5544 2.774,1.7253 0.434,0.273 0.434,0.3485 0,0.6215 -0.271,0.1708 -1.52,0.947 -2.774,1.7247 -4.336,2.6881 -6.475,4.3973 -10.453,8.3509 -3.977,3.9535 -5.696,6.0802 -8.4,10.3903 -0.783,1.247 -1.563,2.488 -1.735,2.7578 -0.275,0.4309 -0.351,0.4309 -0.625,0 z"
       id="path6628"
       inkscape:connector-curvature="0" />
    <path
       inkscape:connector-curvature="0"
       id="path6630"
       d="m 2033.6877,1283.6763 c -0.172,-0.2698 -0.953,-1.5108 -1.735,-2.7578 -2.705,-4.3101 -4.424,-6.4368 -8.401,-10.3903 -3.977,-3.9536 -6.117,-5.6628 -10.452,-8.3509 -1.255,-0.7777 -2.503,-1.5539 -2.775,-1.7247 -0.433,-0.273 -0.433,-0.3485 0,-0.6215 0.272,-0.1709 1.52,-0.9473 2.774,-1.7253 8.192,-5.0821 14.871,-11.906 19.776,-20.2035 l 1.125,-1.9028 1.125,1.9028 c 4.905,8.2975 11.585,15.1214 19.776,20.2035 1.255,0.778 2.503,1.5544 2.774,1.7253 0.434,0.273 0.434,0.3485 0,0.6215 -0.271,0.1708 -1.52,0.947 -2.774,1.7247 -4.336,2.6881 -6.475,4.3973 -10.453,8.3509 -3.977,3.9535 -5.696,6.0802 -8.4,10.3903 -0.783,1.247 -1.563,2.488 -1.735,2.7578 -0.275,0.4309 -0.351,0.4309 -0.625,0 z"
       style="fill:#fe0303;image-rendering:auto" />
    <path
       inkscape:connector-curvature="0"
       id="path6633"
       d="m 1545.6877,1863.6763 c -0.172,-0.2698 -0.953,-1.5108 -1.735,-2.7578 -2.705,-4.3101 -4.424,-6.4368 -8.401,-10.3903 -3.977,-3.9536 -6.117,-5.6628 -10.452,-8.3509 -1.255,-0.7777 -2.503,-1.5539 -2.775,-1.7247 -0.433,-0.273 -0.433,-0.3485 0,-0.6215 0.272,-0.1709 1.52,-0.9473 2.774,-1.7253 8.192,-5.0821 14.871,-11.906 19.776,-20.2035 l 1.125,-1.9028 1.125,1.9028 c 4.905,8.2975 11.585,15.1214 19.776,20.2035 1.255,0.778 2.503,1.5544 2.774,1.7253 0.434,0.273 0.434,0.3485 0,0.6215 -0.271,0.1708 -1.52,0.947 -2.774,1.7247 -4.336,2.6881 -6.475,4.3973 -10.453,8.3509 -3.977,3.9535 -5.696,6.0802 -8.4,10.3903 -0.783,1.247 -1.563,2.488 -1.735,2.7578 -0.275,0.4309 -0.351,0.4309 -0.625,0 z"
       style="fill:#fe0303;image-rendering:auto" />
    <path
       style="fill:#fe0303;image-rendering:auto"
       d="m 2033.6877,1863.6763 c -0.172,-0.2698 -0.953,-1.5108 -1.735,-2.7578 -2.705,-4.3101 -4.424,-6.4368 -8.401,-10.3903 -3.977,-3.9536 -6.117,-5.6628 -10.452,-8.3509 -1.255,-0.7777 -2.503,-1.5539 -2.775,-1.7247 -0.433,-0.273 -0.433,-0.3485 0,-0.6215 0.272,-0.1709 1.52,-0.9473 2.774,-1.7253 8.192,-5.0821 14.871,-11.906 19.776,-20.2035 l 1.125,-1.9028 1.125,1.9028 c 4.905,8.2975 11.585,15.1214 19.776,20.2035 1.255,0.778 2.503,1.5544 2.774,1.7253 0.434,0.273 0.434,0.3485 0,0.6215 -0.271,0.1708 -1.52,0.947 -2.774,1.7247 -4.336,2.6881 -6.475,4.3973 -10.453,8.3509 -3.977,3.9535 -5.696,6.0802 -8.4,10.3903 -0.783,1.247 -1.563,2.488 -1.735,2.7578 -0.275,0.4309 -0.351,0.4309 -0.625,0 z"
       id="path6635"
       inkscape:connector-curvature="0" />
    <path
       style="font-style:normal;font-variant:normal;font-weight:normal;font-stretch:normal;font-size:medium;line-height:125%;font-family:Rockwell;-inkscape-font-specification:Rockwell;letter-spacing:0px;word-spacing:0px;fill:#ff0000;fill-opacity:1;stroke:none;stroke-width:1px;stroke-linecap:butt;stroke-linejoin:miter;stroke-opacity:1"
       inkscape:connector-curvature="0"
       id="path6744"
       d="m 1540.6709,1175.0944 v -9.5889 q 6.1024,0 8.861,-0.9478 2.8004,-0.9477 4.3469,-3.7351 1.5465,-2.8432 1.5465,-7.1359 0,-5.1846 -2.2988,-8.9199 -2.2571,-3.7351 -6.7294,-3.7351 -4.9321,0 -7.1891,3.9581 -2.2571,3.9025 -2.466,11.7073 h -8.0669 q 0,-13.3798 4.9321,-19.0104 4.9738,-5.6865 12.163,-5.6865 8.7356,0 13.1661,5.7422 4.4305,5.7422 4.4305,14.662 0,6.5785 -2.5496,11.0941 -2.5079,4.5157 -5.6845,6.4112 10.8673,4.2926 10.8673,18.5087 0,11.8187 -5.977,17.7281 -5.9352,5.8537 -13.9603,5.8537 -10.2403,0 -15.1724,-7.3032 Q 1526,1197.394 1526,1184.5159 h 7.6908 q 0.2089,8.9199 3.6363,13.6585 3.4692,4.6829 9.1954,4.6829 5.2247,0 8.1923,-3.8466 3.0094,-3.9025 3.0094,-9.8119 0,-6.1881 -3.511,-10.1463 -3.511,-4.014 -11.2017,-4.014 -1.0031,0 -2.3406,0.056 z" />
    <path
       style="font-style:normal;font-variant:normal;font-weight:normal;font-stretch:normal;font-size:medium;line-height:125%;font-family:Rockwell;-inkscape-font-specification:Rockwell;letter-spacing:0px;word-spacing:0px;fill:#ff0000;fill-opacity:1;stroke:none;stroke-width:1px;stroke-linecap:butt;stroke-linejoin:miter;stroke-opacity:1"
       d="m 2028.6709,1175.0944 v -9.5889 q 6.1024,0 8.861,-0.9478 2.8004,-0.9477 4.3469,-3.7351 1.5465,-2.8432 1.5465,-7.1359 0,-5.1846 -2.2988,-8.9199 -2.2571,-3.7351 -6.7294,-3.7351 -4.9321,0 -7.1891,3.9581 -2.2571,3.9025 -2.466,11.7073 h -8.0669 q 0,-13.3798 4.9321,-19.0104 4.9738,-5.6865 12.163,-5.6865 8.7356,0 13.1661,5.7422 4.4305,5.7422 4.4305,14.662 0,6.5785 -2.5496,11.0941 -2.5079,4.5157 -5.6845,6.4112 10.8673,4.2926 10.8673,18.5087 0,11.8187 -5.977,17.7281 -5.9352,5.8537 -13.9603,5.8537 -10.2403,0 -15.1724,-7.3032 Q 2014,1197.394 2014,1184.5159 h 7.6908 q 0.2089,8.9199 3.6363,13.6585 3.4692,4.6829 9.1954,4.6829 5.2247,0 8.1923,-3.8466 3.0094,-3.9025 3.0094,-9.8119 0,-6.1881 -3.511,-10.1463 -3.511,-4.014 -11.2017,-4.014 -1.0031,0 -2.3406,0.056 z"
       id="path6748"
       inkscape:connector-curvature="0" />
    <path
       style="font-style:normal;font-variant:normal;font-weight:normal;font-stretch:normal;font-size:medium;line-height:125%;font-family:Rockwell;-inkscape-font-specification:Rockwell;letter-spacing:0px;word-spacing:0px;fill:#ff0000;fill-opacity:1;stroke:none;stroke-width:1px;stroke-linecap:butt;stroke-linejoin:miter;stroke-opacity:1"
       d="m 1551.3292,1924.8061 v 9.5889 q -6.1024,0 -8.861,0.9478 -2.8004,0.9477 -4.3469,3.7351 -1.5465,2.8432 -1.5465,7.1359 0,5.1846 2.2988,8.9199 2.2571,3.7351 6.7294,3.7351 4.9321,0 7.1891,-3.9581 2.2571,-3.9025 2.466,-11.7073 h 8.0669 q 0,13.3798 -4.9321,19.0104 -4.9738,5.6865 -12.163,5.6865 -8.7356,0 -13.1661,-5.7422 -4.4305,-5.7422 -4.4305,-14.662 0,-6.5785 2.5496,-11.0941 2.5079,-4.5157 5.6845,-6.4112 -10.8673,-4.2926 -10.8673,-18.5087 0,-11.8187 5.977,-17.7281 5.9352,-5.8537 13.9603,-5.8537 10.2403,0 15.1724,7.3032 4.8903,7.303 4.8903,20.1811 h -7.6908 q -0.2089,-8.9199 -3.6363,-13.6585 -3.4692,-4.6829 -9.1954,-4.6829 -5.2247,0 -8.1923,3.8466 -3.0094,3.9025 -3.0094,9.8119 0,6.1881 3.511,10.1463 3.511,4.014 11.2017,4.014 1.0031,0 2.3406,-0.056 z"
       id="path7003-2"
       inkscape:connector-curvature="0" />
    <path
       style="font-style:normal;font-variant:normal;font-weight:normal;font-stretch:normal;font-size:medium;line-height:125%;font-family:Rockwell;-inkscape-font-specification:Rockwell;letter-spacing:0px;word-spacing:0px;fill:#ff0000;fill-opacity:1;stroke:none;stroke-width:1px;stroke-linecap:butt;stroke-linejoin:miter;stroke-opacity:1"
       inkscape:connector-curvature="0"
       id="path7007-0"
       d="m 2039.3292,1924.8061 v 9.5889 q -6.1024,0 -8.861,0.9478 -2.8004,0.9477 -4.3469,3.7351 -1.5465,2.8432 -1.5465,7.1359 0,5.1846 2.2988,8.9199 2.2571,3.7351 6.7294,3.7351 4.9321,0 7.1891,-3.9581 2.2571,-3.9025 2.466,-11.7073 h 8.0669 q 0,13.3798 -4.9321,19.0104 -4.9738,5.6865 -12.163,5.6865 -8.7356,0 -13.1661,-5.7422 -4.4305,-5.7422 -4.4305,-14.662 0,-6.5785 2.5496,-11.0941 2.5079,-4.5157 5.6845,-6.4112 -10.8673,-4.2926 -10.8673,-18.5087 0,-11.8187 5.977,-17.7281 5.9352,-5.8537 13.9603,-5.8537 10.2403,0 15.1724,7.3032 4.8903,7.303 4.8903,20.1811 h -7.6908 q -0.2089,-8.9199 -3.6363,-13.6585 -3.4692,-4.6829 -9.1954,-4.6829 -5.2247,0 -8.1923,3.8466 -3.0094,3.9025 -3.0094,9.8119 0,6.1881 3.511,10.1463 3.511,4.014 11.2017,4.014 1.0031,0 2.3406,-0.056 z" />
    <path
       inkscape:connector-curvature="0"
       id="path8574"
       d="m 1578.608,1969.5383 c -0.347,-0.3672 -0.632,-38.9588 -0.632,-85.7589 0,-82.2583 -0.06,-85.1695 -1.802,-87.4482 -1.767,-2.3087 -2.209,-2.3674 -21.489,-2.8564 L 1535,1792.9756 v -243.1243 -243.1244 l 19.568,-0.4992 c 17.134,-0.4371 19.777,-0.721 21.252,-2.282 1.582,-1.6748 1.713,-6.9885 2.156,-87.8642 L 1578.449,1130 h 212.051 212.051 l 0.472,86.0815 c 0.444,80.8757 0.575,86.1894 2.157,87.8642 1.475,1.561 4.117,1.8449 21.252,2.282 l 19.568,0.4992 v 243.1244 243.1243 l -19.568,0.4992 c -17.135,0.4372 -19.777,0.7211 -21.252,2.282 -1.582,1.6749 -1.713,6.9885 -2.157,87.8642 l -0.472,86.0816 -211.655,0.2518 c -116.411,0.1384 -211.939,-0.049 -212.288,-0.4161 z m 420.641,-85.9527 c 0,-81.6793 0.05,-83.6964 1.88,-86.8749 3.8,-6.5887 6.015,-7.2218 25.272,-7.226 h 17.237 V 1549.855 1310.2252 h -17.237 c -19.257,0 -21.472,-0.6373 -25.272,-7.2259 -1.834,-3.1786 -1.877,-5.1956 -1.88,-86.8749 v -83.6206 h -208.745 -208.745 v 83.6208 c 0,81.6794 -0.05,83.6964 -1.88,86.875 -3.801,6.5886 -6.015,7.2217 -25.272,7.2259 h -17.238 v 239.6297 239.6298 h 17.238 c 19.257,0 21.471,0.6373 25.272,7.226 1.833,3.1785 1.877,5.1955 1.88,86.8749 v 83.6205 h 208.745 208.745 z"
       style="fill:#b7b772" />
    <path
       inkscape:connector-curvature="0"
       id="path8872"
       d="m 1582.8075,1896.5461 c -0.084,-38.8711 -0.5999,-77.3611 -1.1461,-85.5335 -1.3854,-20.732 -2.1459,-21.3997 -25.3844,-22.2892 l -17.6312,-0.6749 v -238.9552 -238.9552 h 17.4038 c 23.6008,0 24.2692,-0.5448 25.6118,-20.8753 0.5462,-8.2693 1.0619,-46.8386 1.1461,-85.7096 l 0.1531,-70.6746 h 207.7721 207.7721 l 0.4314,84.9426 0.4314,84.9427 4.2875,3.6871 c 3.9918,3.4328 5.4935,3.6871 21.7754,3.6871 h 17.488 v 238.9552 238.9552 l -17.1912,0.6756 c -9.4551,0.3715 -18.6659,1.475 -20.4686,2.4521 -6.3532,3.4439 -6.6551,7.697 -6.6551,93.7551 v 82.2893 h -207.8215 -207.8215 z m 216.9437,1.7501 c 9.6837,-14.218 26.2813,-30.5081 41.0762,-40.3155 6.0933,-4.0392 11.0787,-7.8809 11.0787,-8.5372 0,-0.6563 -4.1727,-3.7281 -9.2726,-6.8261 -13.4719,-8.1837 -34.8317,-29.2013 -44.2387,-43.5301 -4.4482,-6.7753 -8.5617,-11.7723 -9.1413,-11.1045 -0.5795,0.6679 -4.6591,6.5069 -9.0657,12.9757 -9.7298,14.283 -29.5451,33.6262 -42.5071,41.4943 -5.2529,3.1886 -9.5506,6.3112 -9.5506,6.9393 0,0.628 5.6871,5.005 12.638,9.7266 15.1507,10.2914 31.5456,26.8588 41.6229,42.0606 4.057,6.1202 7.8419,10.5899 8.4109,9.9326 0.5689,-0.6572 4.5961,-6.4243 8.9493,-12.8157 z m -1.9631,-296.6732 c 9.1598,-14.1849 28.8544,-33.8795 43.0393,-43.0393 6.0933,-3.9347 11.0582,-7.6365 11.0333,-8.2261 -0.025,-0.5896 -5.2078,-4.5103 -11.5173,-8.7125 -14.5755,-9.7075 -32.9466,-28.0881 -42.3569,-42.3786 -4.0219,-6.1077 -7.6077,-11.1049 -7.9684,-11.1049 -0.3608,0 -3.9466,4.9951 -7.9685,11.1002 -9.5982,14.5697 -27.3315,32.3203 -42.0768,42.1178 -6.5135,4.3279 -11.8427,8.3597 -11.8427,8.9595 0,0.5998 4.9854,4.3099 11.0787,8.2446 14.1848,9.1598 33.8795,28.8544 43.0393,43.0393 3.9347,6.0932 7.4312,11.0787 7.77,11.0787 0.3388,0 3.8353,-4.9855 7.77,-11.0787 z m 0.3374,-300.34 c 9.1303,-14.0524 30.7583,-35.4493 44.23,-43.7572 5.2528,-3.2395 9.5506,-6.399 9.5506,-7.0213 0,-0.6223 -4.6416,-4.1212 -10.3147,-7.7754 -13.2442,-8.5309 -35.9934,-31.2801 -44.5243,-44.5243 -3.6542,-5.6731 -6.8262,-10.3147 -7.049,-10.3147 -0.2228,0 -3.3949,4.6416 -7.0491,10.3147 -3.6541,5.6731 -12.8462,16.517 -20.4268,24.0975 -7.5805,7.5806 -18.4244,16.7727 -24.0975,20.4268 -5.673,3.6542 -10.3146,7.1531 -10.3146,7.7754 0,0.6223 4.2977,3.7818 9.5506,7.0213 13.4716,8.3079 35.0997,29.7048 44.2299,43.7572 4.2565,6.5512 7.9049,11.9113 8.1075,11.9113 0.2026,0 3.8509,-5.3601 8.1074,-11.9113 z"
       style="fill:#feefd3;fill-opacity:1;stroke:#fffecd;stroke-width:0.541452;stroke-miterlimit:4;stroke-dasharray:none;stroke-opacity:1" />
    <path
       style="fill:#fe0303;image-rendering:auto"
       d="m 1789.1927,1311.1646 c -0.4442,-0.697 -2.4611,-3.903 -4.4823,-7.1243 -6.9857,-11.1345 -11.4277,-16.6285 -21.7018,-26.8418 -10.2742,-10.2133 -15.8011,-14.6288 -27.0019,-21.5731 -3.2407,-2.0091 -6.4658,-4.0141 -7.1668,-4.4555 -1.1198,-0.7052 -1.1198,-0.9003 0,-1.6053 0.701,-0.4416 3.9254,-2.4474 7.1652,-4.4572 21.1621,-13.1288 38.4179,-30.7573 51.0892,-52.1924 l 2.9058,-4.9155 2.9056,4.9155 c 12.6714,21.4351 29.9272,39.0636 51.0893,52.1924 3.2397,2.0098 6.4641,4.0156 7.1652,4.4572 1.1198,0.705 1.1198,0.9001 0,1.6053 -0.7011,0.4414 -3.9262,2.4464 -7.1669,4.4555 -11.2008,6.9443 -16.7276,11.3598 -27.0018,21.5731 -10.2742,10.2133 -14.7162,15.7073 -21.7019,26.8418 -2.021,3.2213 -4.038,6.4273 -4.4822,7.1243 -0.7092,1.1132 -0.9055,1.1132 -1.6147,0 z"
       id="path6621"
       inkscape:connector-curvature="0" />
    <path
       style="fill:#fe0303;image-rendering:auto"
       d="m 1790.8074,1788.8344 c 0.4442,0.697 2.4611,3.903 4.4823,7.1243 6.9856,11.1345 11.4276,16.6285 21.7018,26.8418 10.2742,10.2133 15.801,14.6289 27.0019,21.5731 3.2407,2.0091 6.4658,4.0141 7.1668,4.4555 1.1197,0.7052 1.1197,0.9003 0,1.6053 -0.701,0.4416 -3.9255,2.4474 -7.1652,4.4572 -21.1621,13.1288 -38.4179,30.7573 -51.0892,52.1924 l -2.9058,4.9155 -2.9056,-4.9155 c -12.6714,-21.4351 -29.9272,-39.0636 -51.0893,-52.1924 -3.2398,-2.0098 -6.4641,-4.0156 -7.1652,-4.4572 -1.1198,-0.705 -1.1198,-0.9001 0,-1.6053 0.7011,-0.4414 3.9262,-2.4464 7.1669,-4.4555 11.2008,-6.9442 16.7276,-11.3598 27.0018,-21.5731 10.2742,-10.2133 14.7162,-15.7073 21.7019,-26.8418 2.021,-3.2213 4.038,-6.4273 4.4822,-7.1243 0.7092,-1.1132 0.9055,-1.1132 1.6147,0 z"
       id="path6623"
       inkscape:connector-curvature="0" />
    <path
       style="fill:#fe0303;image-rendering:auto"
       d="m 1789.1927,1611.1646 c -0.4442,-0.697 -2.4611,-3.903 -4.4823,-7.1243 -6.9857,-11.1345 -11.4277,-16.6285 -21.7018,-26.8418 -10.2742,-10.2133 -15.8011,-14.6288 -27.0019,-21.5731 -3.2407,-2.0091 -6.4658,-4.0141 -7.1668,-4.4555 -1.1198,-0.7052 -1.1198,-0.9003 0,-1.6053 0.701,-0.4416 3.9254,-2.4474 7.1652,-4.4572 21.1621,-13.1288 38.4179,-30.7573 51.0892,-52.1924 l 2.9058,-4.9155 2.9056,4.9155 c 12.6714,21.4351 29.9272,39.0636 51.0893,52.1924 3.2397,2.0098 6.4641,4.0156 7.1652,4.4572 1.1198,0.705 1.1198,0.9001 0,1.6053 -0.7011,0.4414 -3.9262,2.4464 -7.1669,4.4555 -11.2008,6.9443 -16.7276,11.3598 -27.0018,21.5731 -10.2742,10.2133 -14.7162,15.7073 -21.7019,26.8418 -2.021,3.2213 -4.038,6.4273 -4.4822,7.1243 -0.7092,1.1132 -0.9055,1.1132 -1.6147,0 z"
       id="path6625"
       inkscape:connector-curvature="0" />
  </g>
</svg>
