<?xml version="1.0" encoding="UTF-8" standalone="no"?>
<!-- Created with Inkscape (http://www.inkscape.org/) -->

<svg
   id="svg10047"
   height="122.94575"
   width="78.999786"
   version="1.1"
   viewBox="0 0 78.999786 122.94575"
   inkscape:version="0.91 r13725"
   sodipodi:docname="kaiser-jubilaum.svgz"
   xmlns:inkscape="http://www.inkscape.org/namespaces/inkscape"
   xmlns:sodipodi="http://sodipodi.sourceforge.net/DTD/sodipodi-0.dtd"
   xmlns="http://www.w3.org/2000/svg"
   xmlns:svg="http://www.w3.org/2000/svg"
   xmlns:rdf="http://www.w3.org/1999/02/22-rdf-syntax-ns#"
   xmlns:cc="http://creativecommons.org/ns#"
   xmlns:dc="http://purl.org/dc/elements/1.1/">
  <sodipodi:namedview
     pagecolor="#ffffff"
     bordercolor="#666666"
     borderopacity="1"
     objecttolerance="10"
     gridtolerance="10"
     guidetolerance="10"
     inkscape:pageopacity="0"
     inkscape:pageshadow="2"
     inkscape:window-width="1920"
     inkscape:window-height="1016"
     id="namedview1491"
     showgrid="false"
     inkscape:zoom="1.3479675"
     inkscape:cx="513.49999"
     inkscape:cy="307.5"
     inkscape:window-x="0"
     inkscape:window-y="0"
     inkscape:window-maximized="1"
     inkscape:current-layer="svg10047"
     showguides="true"
     inkscape:guide-bbox="true"
     inkscape:snap-grids="true"
     inkscape:showpageshadow="2"
     inkscape:pagecheckerboard="0"
     inkscape:deskcolor="#d1d1d1" />
  <metadata
     id="metadata16869">
    <rdf:RDF>
      <cc:Work
         rdf:about="">
        <dc:format>image/svg+xml</dc:format>
        <dc:type
           rdf:resource="http://purl.org/dc/dcmitype/StillImage" />
        <dc:title />
      </cc:Work>
    </rdf:RDF>
  </metadata>
  <defs
     id="defs10049" />
  <g
     id="diamond_7"
     transform="matrix(0.13620652,0,0,0.13660648,-585.68804,-150.26713)"
     inkscape:label="#diamond_7">
    <rect
       width="578.00104"
       height="898.00043"
       rx="48.210754"
       ry="49.888176"
       x="4300.9995"
       y="1100.9995"
       id="rect6065"
       style="font-style:normal;font-variant:normal;font-weight:500;font-stretch:normal;font-size:medium;line-height:125%;font-family:Gaelic;-inkscape-font-specification:'Gaelic Medium';letter-spacing:0px;word-spacing:0px;fill:#ffffff;fill-opacity:1;stroke:#000000;stroke-width:1.99898;stroke-linecap:butt;stroke-linejoin:miter;stroke-miterlimit:4;stroke-dasharray:none;stroke-opacity:1" />
    <path
       inkscape:connector-curvature="0"
       id="path6172-6"
       d="m 4345.6877,1283.6763 c -0.172,-0.2698 -0.953,-1.5108 -1.735,-2.7578 -2.705,-4.3101 -4.424,-6.4368 -8.401,-10.3903 -3.977,-3.9536 -6.117,-5.6628 -10.452,-8.3509 -1.255,-0.7777 -2.503,-1.5539 -2.775,-1.7247 -0.433,-0.273 -0.433,-0.3485 0,-0.6215 0.272,-0.1709 1.52,-0.9473 2.774,-1.7253 8.192,-5.0821 14.871,-11.906 19.776,-20.2035 l 1.125,-1.9028 1.125,1.9028 c 4.905,8.2975 11.585,15.1214 19.776,20.2035 1.255,0.778 2.503,1.5544 2.774,1.7253 0.434,0.273 0.434,0.3485 0,0.6215 -0.271,0.1708 -1.52,0.947 -2.774,1.7247 -4.336,2.6881 -6.475,4.3973 -10.453,8.3509 -3.977,3.9535 -5.696,6.0802 -8.4,10.3903 -0.783,1.247 -1.563,2.488 -1.735,2.7578 -0.275,0.4309 -0.351,0.4309 -0.625,0 z"
       style="fill:#fe0303;image-rendering:auto" />
    <path
       style="fill:#fe0303;image-rendering:auto"
       d="m 4833.6877,1283.6763 c -0.172,-0.2698 -0.953,-1.5108 -1.735,-2.7578 -2.705,-4.3101 -4.424,-6.4368 -8.401,-10.3903 -3.977,-3.9536 -6.117,-5.6628 -10.452,-8.3509 -1.255,-0.7777 -2.503,-1.5539 -2.775,-1.7247 -0.433,-0.273 -0.433,-0.3485 0,-0.6215 0.272,-0.1709 1.52,-0.9473 2.774,-1.7253 8.192,-5.0821 14.871,-11.906 19.776,-20.2035 l 1.125,-1.9028 1.125,1.9028 c 4.905,8.2975 11.585,15.1214 19.776,20.2035 1.255,0.778 2.503,1.5544 2.774,1.7253 0.434,0.273 0.434,0.3485 0,0.6215 -0.271,0.1708 -1.52,0.947 -2.774,1.7247 -4.336,2.6881 -6.475,4.3973 -10.453,8.3509 -3.977,3.9535 -5.696,6.0802 -8.4,10.3903 -0.783,1.247 -1.563,2.488 -1.735,2.7578 -0.275,0.4309 -0.351,0.4309 -0.625,0 z"
       id="path6193"
       inkscape:connector-curvature="0" />
    <path
       style="fill:#fe0303;image-rendering:auto"
       d="m 4345.6877,1863.6763 c -0.172,-0.2698 -0.953,-1.5108 -1.735,-2.7578 -2.705,-4.3101 -4.424,-6.4368 -8.401,-10.3903 -3.977,-3.9536 -6.117,-5.6628 -10.452,-8.3509 -1.255,-0.7777 -2.503,-1.5539 -2.775,-1.7247 -0.433,-0.273 -0.433,-0.3485 0,-0.6215 0.272,-0.1709 1.52,-0.9473 2.774,-1.7253 8.192,-5.0821 14.871,-11.906 19.776,-20.2035 l 1.125,-1.9028 1.125,1.9028 c 4.905,8.2975 11.585,15.1214 19.776,20.2035 1.255,0.778 2.503,1.5544 2.774,1.7253 0.434,0.273 0.434,0.3485 0,0.6215 -0.271,0.1708 -1.52,0.947 -2.774,1.7247 -4.336,2.6881 -6.475,4.3973 -10.453,8.3509 -3.977,3.9535 -5.696,6.0802 -8.4,10.3903 -0.783,1.247 -1.563,2.488 -1.735,2.7578 -0.275,0.4309 -0.351,0.4309 -0.625,0 z"
       id="path6210"
       inkscape:connector-curvature="0" />
    <path
       inkscape:connector-curvature="0"
       id="path6212"
       d="m 4833.6877,1863.6763 c -0.172,-0.2698 -0.953,-1.5108 -1.735,-2.7578 -2.705,-4.3101 -4.424,-6.4368 -8.401,-10.3903 -3.977,-3.9536 -6.117,-5.6628 -10.452,-8.3509 -1.255,-0.7777 -2.503,-1.5539 -2.775,-1.7247 -0.433,-0.273 -0.433,-0.3485 0,-0.6215 0.272,-0.1709 1.52,-0.9473 2.774,-1.7253 8.192,-5.0821 14.871,-11.906 19.776,-20.2035 l 1.125,-1.9028 1.125,1.9028 c 4.905,8.2975 11.585,15.1214 19.776,20.2035 1.255,0.778 2.503,1.5544 2.774,1.7253 0.434,0.273 0.434,0.3485 0,0.6215 -0.271,0.1708 -1.52,0.947 -2.774,1.7247 -4.336,2.6881 -6.475,4.3973 -10.453,8.3509 -3.977,3.9535 -5.696,6.0802 -8.4,10.3903 -0.783,1.247 -1.563,2.488 -1.735,2.7578 -0.275,0.4309 -0.351,0.4309 -0.625,0 z"
       style="fill:#fe0303;image-rendering:auto" />
    <path
       style="font-style:normal;font-variant:normal;font-weight:normal;font-stretch:normal;font-size:medium;line-height:125%;font-family:Rockwell;-inkscape-font-specification:Rockwell;letter-spacing:0px;word-spacing:0px;fill:#ff0000;fill-opacity:1;stroke:none;stroke-width:1px;stroke-linecap:butt;stroke-linejoin:miter;stroke-opacity:1"
       inkscape:connector-curvature="0"
       id="path6774"
       d="m 4330.6951,1212.0003 v -9.7337 h 8.5155 q 0.6905,-15.4931 5.7537,-32.4261 5.0633,-16.933 11.0012,-27.5307 h -22.0483 v 10.7704 H 4326 v -21.0799 h 40 v 8.1786 q -6.26,9.3879 -11.8757,28.5097 -5.6156,19.064 -5.6156,33.578 h 7.4568 v 9.7337 z" />
    <path
       style="font-style:normal;font-variant:normal;font-weight:normal;font-stretch:normal;font-size:medium;line-height:125%;font-family:Rockwell;-inkscape-font-specification:Rockwell;letter-spacing:0px;word-spacing:0px;fill:#ff0000;fill-opacity:1;stroke:none;stroke-width:1px;stroke-linecap:butt;stroke-linejoin:miter;stroke-opacity:1"
       d="m 4818.6951,1212.0003 v -9.7337 h 8.5155 q 0.6905,-15.4931 5.7537,-32.4261 5.0633,-16.933 11.0012,-27.5307 h -22.0483 v 10.7704 H 4814 v -21.0799 h 40 v 8.1786 q -6.26,9.3879 -11.8757,28.5097 -5.6156,19.064 -5.6156,33.578 h 7.4568 v 9.7337 z"
       id="path6878"
       inkscape:connector-curvature="0" />
    <path
       style="font-style:normal;font-variant:normal;font-weight:normal;font-stretch:normal;font-size:medium;line-height:125%;font-family:Rockwell;-inkscape-font-specification:Rockwell;letter-spacing:0px;word-spacing:0px;fill:#ff0000;fill-opacity:1;stroke:none;stroke-width:1px;stroke-linecap:butt;stroke-linejoin:miter;stroke-opacity:1"
       d="m 4361.3049,1887.9002 v 9.7337 h -8.5155 q -0.6905,15.4931 -5.7537,32.4261 -5.0633,16.933 -11.0012,27.5307 h 22.0483 v -10.7704 H 4366 v 21.0799 h -40 v -8.1786 q 6.26,-9.3879 11.8757,-28.5097 5.6156,-19.064 5.6156,-33.578 h -7.4568 v -9.7337 z"
       id="path7027-1"
       inkscape:connector-curvature="0" />
    <path
       style="font-style:normal;font-variant:normal;font-weight:normal;font-stretch:normal;font-size:medium;line-height:125%;font-family:Rockwell;-inkscape-font-specification:Rockwell;letter-spacing:0px;word-spacing:0px;fill:#ff0000;fill-opacity:1;stroke:none;stroke-width:1px;stroke-linecap:butt;stroke-linejoin:miter;stroke-opacity:1"
       inkscape:connector-curvature="0"
       id="path7043-2"
       d="m 4849.3049,1887.9002 v 9.7337 h -8.5155 q -0.6905,15.4931 -5.7537,32.4261 -5.0633,16.933 -11.0012,27.5307 h 22.0483 v -10.7704 H 4854 v 21.0799 h -40 v -8.1786 q 6.26,-9.3879 11.8757,-28.5097 5.6156,-19.064 5.6156,-33.578 h -7.4568 v -9.7337 z" />
    <path
       inkscape:connector-curvature="0"
       id="path8582"
       d="m 4378.608,1969.5383 c -0.347,-0.3672 -0.632,-38.9588 -0.632,-85.7589 0,-82.2583 -0.06,-85.1695 -1.802,-87.4482 -1.767,-2.3087 -2.209,-2.3674 -21.489,-2.8564 L 4335,1792.9756 v -243.1243 -243.1244 l 19.568,-0.4992 c 17.134,-0.4371 19.777,-0.721 21.252,-2.282 1.582,-1.6748 1.713,-6.9885 2.156,-87.8642 L 4378.449,1130 h 212.051 212.051 l 0.472,86.0815 c 0.444,80.8757 0.575,86.1894 2.157,87.8642 1.475,1.561 4.117,1.8449 21.252,2.282 l 19.568,0.4992 v 243.1244 243.1243 l -19.568,0.4992 c -17.135,0.4372 -19.777,0.7211 -21.252,2.282 -1.582,1.6749 -1.713,6.9885 -2.157,87.8642 l -0.472,86.0816 -211.655,0.2518 c -116.411,0.1384 -211.939,-0.049 -212.288,-0.4161 z m 420.641,-85.9527 c 0,-81.6793 0.05,-83.6964 1.88,-86.8749 3.8,-6.5887 6.015,-7.2218 25.272,-7.226 h 17.237 V 1549.855 1310.2252 h -17.237 c -19.257,0 -21.472,-0.6373 -25.272,-7.2259 -1.834,-3.1786 -1.877,-5.1956 -1.88,-86.8749 v -83.6206 h -208.745 -208.745 v 83.6208 c 0,81.6794 -0.05,83.6964 -1.88,86.875 -3.801,6.5886 -6.015,7.2217 -25.272,7.2259 h -17.238 v 239.6297 239.6298 h 17.238 c 19.257,0 21.471,0.6373 25.272,7.226 1.833,3.1785 1.877,5.1955 1.88,86.8749 v 83.6205 h 208.745 208.745 z"
       style="fill:#b7b772" />
    <path
       inkscape:connector-curvature="0"
       id="path8882"
       d="m 4381.8774,1882.7512 c 0,-93.9581 0.4743,-89.7132 -10.3597,-92.7221 -3.1269,-0.8685 -12.046,-1.5828 -19.8202,-1.5875 l -14.1349,-0.01 v -239.1475 -239.1475 h 17.4481 c 9.5965,0 18.5613,-0.4272 19.9218,-0.9493 6.7681,-2.5971 6.9449,-4.9638 6.9449,-92.9529 v -83.3573 h 208.5856 208.5855 v 83.3573 c 0,87.9891 0.1768,90.3558 6.9449,92.9529 1.3605,0.5221 10.3253,0.9493 19.9218,0.9493 h 17.4481 v 239.1475 239.1475 l -14.8989,0.086 c -17.2079,0.1 -24.7265,2.1693 -27.4434,7.5543 -1.4804,2.9341 -1.9327,23.2271 -1.95,87.4837 l -0.023,83.6634 h -208.5855 -208.5856 v -84.4694 z m 89.7023,18.3792 c 9.5133,-14.5375 28.8134,-33.7283 43.7429,-43.4952 l 11.9613,-7.8251 -11.9613,-8.0048 c -14.9,-9.9715 -34.1615,-29.2404 -43.8568,-43.8734 l -7.3746,-11.1305 -7.6057,11.1305 c -10.1715,14.8852 -28.4729,33.2761 -42.518,42.7258 -6.3034,4.2411 -11.4607,8.2457 -11.4607,8.8993 0,0.6536 5.1882,4.6585 11.5294,8.8997 13.9057,9.3007 35.2917,31.0943 43.375,44.2018 3.2395,5.2528 6.1214,9.5506 6.4043,9.5506 0.2829,0 3.7768,-4.9854 7.7642,-11.0787 z m 252.0435,0.058 c 10.3557,-15.5773 24.3679,-29.8725 40.3106,-41.1248 7.5467,-5.3265 13.7213,-10.1325 13.7213,-10.6799 0,-0.5475 -4.6416,-3.995 -10.3147,-7.661 -13.8736,-8.9654 -35.0636,-30.1328 -43.895,-43.8484 -3.9624,-6.1536 -7.4144,-10.9671 -7.6713,-10.6967 -0.2568,0.2705 -3.9291,5.68 -8.1605,12.0212 -9.2684,13.8896 -31.058,35.2803 -44.1839,43.375 -5.2529,3.2394 -9.5506,6.43 -9.5506,7.0901 0,0.6602 4.1726,3.735 9.2725,6.8331 13.3789,8.1272 35.024,29.3851 44.3503,43.5568 4.3997,6.6856 8.1784,12.1556 8.397,12.1556 0.2186,0 3.6946,-4.9594 7.7243,-11.021 z m -251.3379,-300.3177 c 10.3996,-15.4116 26.5646,-31.4495 42.3525,-42.0195 l 12.6493,-8.4688 -13.771,-9.432 c -15.9694,-10.9377 -32.6302,-27.8311 -42.5097,-43.1032 l -6.9293,-10.7116 -8.5186,12.7237 c -10.6165,15.8572 -26.663,31.8174 -42.012,41.7861 -6.4704,4.2022 -11.7732,8.0322 -11.784,8.511 -0.011,0.4787 5.7302,4.7762 12.7579,9.55 15.1671,10.3026 34.6898,30.1333 42.7702,43.445 3.1885,5.2528 6.0704,9.5506 6.4042,9.5506 0.3338,0 4.1995,-5.3241 8.5905,-11.8313 z m 252.1378,-0.012 c 10.3664,-15.3744 28.0137,-32.8631 43.013,-42.6263 l 11.9384,-7.771 -12.7025,-8.5531 c -15.1266,-10.1854 -31.8347,-26.7429 -42.0004,-41.6217 -4.057,-5.9379 -8.0457,-10.7514 -8.8636,-10.6967 -0.818,0.055 -4.8998,5.2017 -9.0706,11.4377 -9.9081,14.8138 -26.3508,31.0865 -41.0417,40.6173 -6.4774,4.2022 -11.786,8.0322 -11.7969,8.511 -0.011,0.4787 5.6674,4.7336 12.6183,9.4552 15.1347,10.2806 31.5437,26.8558 41.5904,42.0117 4.0391,6.0932 7.5659,11.0787 7.8372,11.0787 0.2713,0 4.0866,-5.3293 8.4784,-11.8428 z M 4619.9208,1426.011 c 7.3309,-7.063 17.6267,-15.4923 22.8795,-18.7317 5.2529,-3.2395 9.5274,-6.3079 9.499,-6.8188 -0.028,-0.5108 -5.6635,-4.6966 -12.5224,-9.3017 -15.8497,-10.6414 -31.0492,-25.8298 -41.5608,-41.5303 l -8.2398,-12.3073 -7.3328,11.2399 c -9.3551,14.3397 -32.2192,36.964 -45.3336,44.8582 -5.5849,3.3618 -10.1613,6.4562 -10.1696,6.8764 -0.01,0.4202 4.9042,3.8585 10.9169,7.6405 14.3041,8.9974 33.891,28.3103 43.899,43.2849 l 7.9925,11.9588 8.3216,-12.1634 c 4.5769,-6.69 14.3196,-17.9424 21.6505,-25.0055 z m -148.5201,-123.8957 c 9.1208,-14.1243 28.5545,-33.4995 43.9705,-43.8378 l 12.0098,-8.0541 -12.0098,-7.7935 c -14.925,-9.6852 -36.0072,-30.857 -44.1,-44.2874 -3.3618,-5.5791 -6.477,-10.1684 -6.9227,-10.1982 -0.4457,-0.03 -4.2278,5.18 -8.4046,11.5776 -8.9729,13.7438 -31.6794,36.032 -44.8738,44.0472 -5.13,3.1163 -9.3214,6.132 -9.314,6.7015 0.01,0.5695 4.3051,3.7553 9.5506,7.0795 13.2774,8.4143 36.3918,31.3129 45.0628,44.6422 3.9937,6.1393 7.3998,11.1712 7.5692,11.182 0.1694,0.011 3.5273,-4.9657 7.462,-11.059 z m 254.2114,-2.996 c 9.6876,-14.2208 27.3917,-31.4364 42.623,-41.4471 l 11.2094,-7.3673 -11.9734,-7.8331 c -14.9405,-9.7741 -34.2391,-28.9617 -43.755,-43.5031 -3.9875,-6.0933 -7.4834,-11.0788 -7.7687,-11.0788 -0.2853,0 -3.5173,4.6365 -7.1821,10.3033 -9.4201,14.5661 -27.1093,32.5038 -42.0862,42.6771 -7.04,4.7821 -12.7796,9.0865 -12.7546,9.5653 0.025,0.4787 5.2292,4.3087 11.565,8.5109 13.9709,9.2664 36.0229,31.6454 44.0976,44.7516 3.2548,5.2829 6.3859,9.065 6.958,8.4046 0.5722,-0.6605 4.6523,-6.503 9.067,-12.9834 z"
       style="fill:#feefd3;fill-opacity:1;stroke:#fffecd;stroke-width:0.541452;stroke-miterlimit:4;stroke-dasharray:none;stroke-opacity:1" />
    <path
       inkscape:connector-curvature="0"
       id="path6158"
       d="m 4463.1926,1311.1646 c -0.4442,-0.697 -2.4611,-3.903 -4.4823,-7.1243 -6.9857,-11.1345 -11.4277,-16.6285 -21.7018,-26.8418 -10.2742,-10.2133 -15.8011,-14.6288 -27.0019,-21.5731 -3.2407,-2.0091 -6.4657,-4.0141 -7.1668,-4.4555 -1.1198,-0.7052 -1.1198,-0.9003 0,-1.6053 0.7011,-0.4416 3.9255,-2.4474 7.1653,-4.4572 21.162,-13.1288 38.4178,-30.7573 51.0891,-52.1924 l 2.9058,-4.9155 2.9056,4.9155 c 12.6714,21.4351 29.9272,39.0636 51.0893,52.1924 3.2397,2.0098 6.4641,4.0156 7.1652,4.4572 1.1198,0.705 1.1198,0.9001 0,1.6053 -0.7011,0.4414 -3.9262,2.4464 -7.1669,4.4555 -11.2008,6.9443 -16.7276,11.3598 -27.0018,21.5731 -10.2742,10.2133 -14.7162,15.7073 -21.7019,26.8418 -2.021,3.2213 -4.038,6.4273 -4.4822,7.1243 -0.7092,1.1132 -0.9055,1.1132 -1.6147,0 z"
       style="fill:#fe0303;image-rendering:auto" />
    <path
       inkscape:connector-curvature="0"
       id="path6160-9"
       d="m 4464.8073,1788.8344 c 0.4442,0.697 2.4611,3.903 4.4823,7.1243 6.9857,11.1345 11.4277,16.6285 21.7018,26.8418 10.2742,10.2133 15.8011,14.6289 27.0019,21.5731 3.2407,2.0091 6.4658,4.0141 7.1668,4.4555 1.1198,0.7052 1.1198,0.9003 0,1.6053 -0.701,0.4416 -3.9254,2.4474 -7.1652,4.4572 -21.1621,13.1288 -38.4179,30.7573 -51.0892,52.1924 l -2.9058,4.9155 -2.9056,-4.9155 c -12.6714,-21.4351 -29.9272,-39.0636 -51.0893,-52.1924 -3.2397,-2.0098 -6.4641,-4.0156 -7.1652,-4.4572 -1.1198,-0.705 -1.1198,-0.9001 0,-1.6053 0.7011,-0.4414 3.9262,-2.4464 7.1669,-4.4555 11.2008,-6.9442 16.7276,-11.3598 27.0018,-21.5731 10.2742,-10.2133 14.7162,-15.7073 21.7019,-26.8418 2.021,-3.2213 4.038,-6.4273 4.4822,-7.1243 0.7092,-1.1132 0.9055,-1.1132 1.6147,0 z"
       style="fill:#fe0303;image-rendering:auto" />
    <path
       inkscape:connector-curvature="0"
       id="path6162-3"
       d="m 4463.1926,1611.1646 c -0.4442,-0.697 -2.4611,-3.903 -4.4823,-7.1243 -6.9857,-11.1345 -11.4277,-16.6285 -21.7018,-26.8418 -10.2742,-10.2133 -15.8011,-14.6288 -27.0019,-21.5731 -3.2407,-2.0091 -6.4657,-4.0141 -7.1668,-4.4555 -1.1198,-0.7052 -1.1198,-0.9003 0,-1.6053 0.7011,-0.4416 3.9255,-2.4474 7.1653,-4.4572 21.162,-13.1288 38.4178,-30.7573 51.0891,-52.1924 l 2.9058,-4.9155 2.9056,4.9155 c 12.6714,21.4351 29.9272,39.0636 51.0893,52.1924 3.2397,2.0098 6.4641,4.0156 7.1652,4.4572 1.1198,0.705 1.1198,0.9001 0,1.6053 -0.7011,0.4414 -3.9262,2.4464 -7.1669,4.4555 -11.2008,6.9443 -16.7276,11.3598 -27.0018,21.5731 -10.2742,10.2133 -14.7162,15.7073 -21.7019,26.8418 -2.021,3.2213 -4.038,6.4273 -4.4822,7.1243 -0.7092,1.1132 -0.9055,1.1132 -1.6147,0 z"
       style="fill:#fe0303;image-rendering:auto" />
    <path
       style="fill:#fe0303;image-rendering:auto"
       d="m 4715.1926,1311.1646 c -0.4442,-0.697 -2.4611,-3.903 -4.4823,-7.1243 -6.9857,-11.1345 -11.4277,-16.6285 -21.7018,-26.8418 -10.2742,-10.2133 -15.8011,-14.6288 -27.0018,-21.5731 -3.2408,-2.0091 -6.4658,-4.0141 -7.1669,-4.4555 -1.1198,-0.7052 -1.1198,-0.9003 0,-1.6053 0.7011,-0.4416 3.9255,-2.4474 7.1653,-4.4572 21.162,-13.1288 38.4178,-30.7573 51.0891,-52.1924 l 2.9058,-4.9155 2.9056,4.9155 c 12.6714,21.4351 29.9272,39.0636 51.0893,52.1924 3.2397,2.0098 6.4641,4.0156 7.1652,4.4572 1.1198,0.705 1.1198,0.9001 0,1.6053 -0.7011,0.4414 -3.9262,2.4464 -7.1669,4.4555 -11.2008,6.9443 -16.7276,11.3598 -27.0018,21.5731 -10.2742,10.2133 -14.7162,15.7073 -21.7019,26.8418 -2.021,3.2213 -4.038,6.4273 -4.4822,7.1243 -0.7092,1.1132 -0.9055,1.1132 -1.6147,0 z"
       id="path6164-1"
       inkscape:connector-curvature="0" />
    <path
       style="fill:#fe0303;image-rendering:auto"
       d="m 4716.8073,1788.8344 c 0.4442,0.697 2.4611,3.903 4.4823,7.1243 6.9857,11.1345 11.4277,16.6285 21.7018,26.8418 10.2742,10.2133 15.8011,14.6289 27.0019,21.5731 3.2407,2.0091 6.4658,4.0141 7.1668,4.4555 1.1198,0.7052 1.1198,0.9003 0,1.6053 -0.701,0.4416 -3.9254,2.4474 -7.1652,4.4572 -21.1621,13.1288 -38.4179,30.7573 -51.0892,52.1924 l -2.9058,4.9155 -2.9056,-4.9155 c -12.6714,-21.4351 -29.9272,-39.0636 -51.0893,-52.1924 -3.2397,-2.0098 -6.4641,-4.0156 -7.1652,-4.4572 -1.1198,-0.705 -1.1198,-0.9001 0,-1.6053 0.7011,-0.4414 3.9262,-2.4464 7.1669,-4.4555 11.2008,-6.9442 16.7276,-11.3598 27.0018,-21.5731 10.2742,-10.2133 14.7162,-15.7073 21.7019,-26.8418 2.021,-3.2213 4.038,-6.4273 4.4822,-7.1243 0.7092,-1.1132 0.9055,-1.1132 1.6147,0 z"
       id="path6166-9"
       inkscape:connector-curvature="0" />
    <path
       style="fill:#fe0303;image-rendering:auto"
       d="m 4715.1926,1611.1654 c -0.4442,-0.697 -2.4611,-3.903 -4.4823,-7.1243 -6.9857,-11.1345 -11.4277,-16.6285 -21.7018,-26.8418 -10.2742,-10.2134 -15.8011,-14.6289 -27.0018,-21.5731 -3.2408,-2.0091 -6.4658,-4.0141 -7.1669,-4.4555 -1.1198,-0.7053 -1.1198,-0.9003 0,-1.6054 0.7011,-0.4416 3.9255,-2.4473 7.1653,-4.4571 21.162,-13.1288 38.4178,-30.7573 51.0891,-52.1924 l 2.9058,-4.9155 2.9056,4.9155 c 12.6714,21.4351 29.9272,39.0636 51.0893,52.1924 3.2397,2.0098 6.4641,4.0155 7.1652,4.4571 1.1198,0.7051 1.1198,0.9001 0,1.6054 -0.7011,0.4414 -3.9262,2.4464 -7.1669,4.4555 -11.2008,6.9442 -16.7276,11.3597 -27.0018,21.5731 -10.2742,10.2133 -14.7162,15.7073 -21.7019,26.8418 -2.021,3.2213 -4.038,6.4273 -4.4822,7.1243 -0.7092,1.1132 -0.9055,1.1132 -1.6147,0 z"
       id="path6168-4"
       inkscape:connector-curvature="0" />
    <path
       inkscape:connector-curvature="0"
       id="path6170-7"
       d="m 4589.1926,1461.1646 c -0.4442,-0.697 -2.4611,-3.903 -4.4823,-7.1243 -6.9857,-11.1345 -11.4277,-16.6285 -21.7018,-26.8418 -10.2742,-10.2133 -15.8011,-14.6288 -27.0018,-21.5731 -3.2408,-2.0091 -6.4658,-4.0141 -7.1669,-4.4555 -1.1198,-0.7052 -1.1198,-0.9003 0,-1.6053 0.7011,-0.4416 3.9255,-2.4474 7.1653,-4.4572 21.162,-13.1288 38.4178,-30.7573 51.0891,-52.1924 l 2.9058,-4.9155 2.9056,4.9155 c 12.6714,21.4351 29.9272,39.0636 51.0893,52.1924 3.2397,2.0098 6.4641,4.0156 7.1652,4.4572 1.1198,0.705 1.1198,0.9001 0,1.6053 -0.7011,0.4414 -3.9262,2.4464 -7.1669,4.4555 -11.2008,6.9443 -16.7276,11.3598 -27.0018,21.5731 -10.2742,10.2133 -14.7162,15.7073 -21.7019,26.8418 -2.021,3.2213 -4.038,6.4273 -4.4822,7.1243 -0.7092,1.1132 -0.9055,1.1132 -1.6147,0 z"
       style="fill:#fe0303;image-rendering:auto" />
  </g>
</svg>
