<?xml version="1.0" encoding="UTF-8" standalone="no"?>
<!-- Created with Inkscape (http://www.inkscape.org/) -->

<svg
   id="svg10047"
   height="122.94575"
   width="78.999786"
   version="1.1"
   viewBox="0 0 78.999786 122.94575"
   inkscape:version="0.91 r13725"
   sodipodi:docname="kaiser-jubilaum.svgz"
   xmlns:inkscape="http://www.inkscape.org/namespaces/inkscape"
   xmlns:sodipodi="http://sodipodi.sourceforge.net/DTD/sodipodi-0.dtd"
   xmlns="http://www.w3.org/2000/svg"
   xmlns:svg="http://www.w3.org/2000/svg"
   xmlns:rdf="http://www.w3.org/1999/02/22-rdf-syntax-ns#"
   xmlns:cc="http://creativecommons.org/ns#"
   xmlns:dc="http://purl.org/dc/elements/1.1/">
  <sodipodi:namedview
     pagecolor="#ffffff"
     bordercolor="#666666"
     borderopacity="1"
     objecttolerance="10"
     gridtolerance="10"
     guidetolerance="10"
     inkscape:pageopacity="0"
     inkscape:pageshadow="2"
     inkscape:window-width="1920"
     inkscape:window-height="1016"
     id="namedview1491"
     showgrid="false"
     inkscape:zoom="1.3479675"
     inkscape:cx="513.49999"
     inkscape:cy="307.5"
     inkscape:window-x="0"
     inkscape:window-y="0"
     inkscape:window-maximized="1"
     inkscape:current-layer="svg10047"
     showguides="true"
     inkscape:guide-bbox="true"
     inkscape:snap-grids="true"
     inkscape:showpageshadow="2"
     inkscape:pagecheckerboard="0"
     inkscape:deskcolor="#d1d1d1" />
  <metadata
     id="metadata16869">
    <rdf:RDF>
      <cc:Work
         rdf:about="">
        <dc:format>image/svg+xml</dc:format>
        <dc:type
           rdf:resource="http://purl.org/dc/dcmitype/StillImage" />
        <dc:title />
      </cc:Work>
    </rdf:RDF>
  </metadata>
  <defs
     id="defs10049" />
  <g
     id="diamond_5"
     transform="matrix(0.13620652,0,0,0.13660648,-394.99891,-150.26713)"
     inkscape:label="#diamond_5">
    <rect
       style="font-style:normal;font-variant:normal;font-weight:500;font-stretch:normal;font-size:medium;line-height:125%;font-family:Gaelic;-inkscape-font-specification:'Gaelic Medium';letter-spacing:0px;word-spacing:0px;fill:#ffffff;fill-opacity:1;stroke:#000000;stroke-width:1.99898;stroke-linecap:butt;stroke-linejoin:miter;stroke-miterlimit:4;stroke-dasharray:none;stroke-opacity:1"
       id="rect6342"
       y="1100.9995"
       x="2900.9995"
       ry="49.888176"
       rx="48.210754"
       height="898.00043"
       width="578.00104" />
    <path
       style="fill:#fe0303;image-rendering:auto"
       d="m 2945.6877,1283.6763 c -0.172,-0.2698 -0.953,-1.5108 -1.735,-2.7578 -2.705,-4.3101 -4.424,-6.4368 -8.401,-10.3903 -3.977,-3.9536 -6.117,-5.6628 -10.452,-8.3509 -1.255,-0.7777 -2.503,-1.5539 -2.775,-1.7247 -0.433,-0.273 -0.433,-0.3485 0,-0.6215 0.272,-0.1709 1.52,-0.9473 2.774,-1.7253 8.192,-5.0821 14.871,-11.906 19.776,-20.2035 l 1.125,-1.9028 1.125,1.9028 c 4.905,8.2975 11.585,15.1214 19.776,20.2035 1.255,0.778 2.503,1.5544 2.774,1.7253 0.434,0.273 0.434,0.3485 0,0.6215 -0.271,0.1708 -1.52,0.947 -2.774,1.7247 -4.336,2.6881 -6.475,4.3973 -10.453,8.3509 -3.977,3.9535 -5.696,6.0802 -8.4,10.3903 -0.783,1.247 -1.563,2.488 -1.735,2.7578 -0.275,0.4309 -0.351,0.4309 -0.625,0 z"
       id="path6432"
       inkscape:connector-curvature="0" />
    <path
       inkscape:connector-curvature="0"
       id="path6434"
       d="m 3433.6877,1283.6763 c -0.172,-0.2698 -0.953,-1.5108 -1.735,-2.7578 -2.705,-4.3101 -4.424,-6.4368 -8.401,-10.3903 -3.977,-3.9536 -6.117,-5.6628 -10.452,-8.3509 -1.255,-0.7777 -2.503,-1.5539 -2.775,-1.7247 -0.433,-0.273 -0.433,-0.3485 0,-0.6215 0.272,-0.1709 1.52,-0.9473 2.774,-1.7253 8.192,-5.0821 14.871,-11.906 19.776,-20.2035 l 1.125,-1.9028 1.125,1.9028 c 4.905,8.2975 11.585,15.1214 19.776,20.2035 1.255,0.778 2.503,1.5544 2.774,1.7253 0.434,0.273 0.434,0.3485 0,0.6215 -0.271,0.1708 -1.52,0.947 -2.774,1.7247 -4.336,2.6881 -6.475,4.3973 -10.453,8.3509 -3.977,3.9535 -5.696,6.0802 -8.4,10.3903 -0.783,1.247 -1.563,2.488 -1.735,2.7578 -0.275,0.4309 -0.351,0.4309 -0.625,0 z"
       style="fill:#fe0303;image-rendering:auto" />
    <path
       inkscape:connector-curvature="0"
       id="path6436"
       d="m 2945.6877,1863.6763 c -0.172,-0.2698 -0.953,-1.5108 -1.735,-2.7578 -2.705,-4.3101 -4.424,-6.4368 -8.401,-10.3903 -3.977,-3.9536 -6.117,-5.6628 -10.452,-8.3509 -1.255,-0.7777 -2.503,-1.5539 -2.775,-1.7247 -0.433,-0.273 -0.433,-0.3485 0,-0.6215 0.272,-0.1709 1.52,-0.9473 2.774,-1.7253 8.192,-5.0821 14.871,-11.906 19.776,-20.2035 l 1.125,-1.9028 1.125,1.9028 c 4.905,8.2975 11.585,15.1214 19.776,20.2035 1.255,0.778 2.503,1.5544 2.774,1.7253 0.434,0.273 0.434,0.3485 0,0.6215 -0.271,0.1708 -1.52,0.947 -2.774,1.7247 -4.336,2.6881 -6.475,4.3973 -10.453,8.3509 -3.977,3.9535 -5.696,6.0802 -8.4,10.3903 -0.783,1.247 -1.563,2.488 -1.735,2.7578 -0.275,0.4309 -0.351,0.4309 -0.625,0 z"
       style="fill:#fe0303;image-rendering:auto" />
    <path
       style="fill:#fe0303;image-rendering:auto"
       d="m 3433.6877,1863.6763 c -0.172,-0.2698 -0.953,-1.5108 -1.735,-2.7578 -2.705,-4.3101 -4.424,-6.4368 -8.401,-10.3903 -3.977,-3.9536 -6.117,-5.6628 -10.452,-8.3509 -1.255,-0.7777 -2.503,-1.5539 -2.775,-1.7247 -0.433,-0.273 -0.433,-0.3485 0,-0.6215 0.272,-0.1709 1.52,-0.9473 2.774,-1.7253 8.192,-5.0821 14.871,-11.906 19.776,-20.2035 l 1.125,-1.9028 1.125,1.9028 c 4.905,8.2975 11.585,15.1214 19.776,20.2035 1.255,0.778 2.503,1.5544 2.774,1.7253 0.434,0.273 0.434,0.3485 0,0.6215 -0.271,0.1708 -1.52,0.947 -2.774,1.7247 -4.336,2.6881 -6.475,4.3973 -10.453,8.3509 -3.977,3.9535 -5.696,6.0802 -8.4,10.3903 -0.783,1.247 -1.563,2.488 -1.735,2.7578 -0.275,0.4309 -0.351,0.4309 -0.625,0 z"
       id="path6438"
       inkscape:connector-curvature="0" />
    <path
       style="font-style:normal;font-variant:normal;font-weight:normal;font-stretch:normal;font-size:medium;line-height:125%;font-family:Rockwell;-inkscape-font-specification:Rockwell;letter-spacing:0px;word-spacing:0px;fill:#ff0000;fill-opacity:1;stroke:none;stroke-width:1px;stroke-linecap:butt;stroke-linejoin:miter;stroke-opacity:1"
       inkscape:connector-curvature="0"
       id="path6750"
       d="m 2926,1185.5792 h 7.611 q 0.6765,7.9377 3.8478,12.6436 3.2135,4.7058 8.4567,4.7058 5.2854,0 8.4989,-4.876 3.2135,-4.8759 3.2135,-12.5301 0,-8.1077 -3.1289,-12.36 -3.129,-4.3089 -7.7802,-4.3089 -6.9767,0 -11.797,9.4683 -2.7061,-3.5718 -6.1311,-5.7263 l 2.4102,-40.5954 h 31.3742 v 20.9213 h -7.2728 v -10.7724 h -18.0126 l -1.3108,23.0758 q 5.37,-5.8398 11.9661,-5.8398 8.3721,0 13.1924,7.484 4.8626,7.4841 4.8626,18.54 0,11.6796 -5.3277,19.1637 -5.2854,7.4274 -14.8414,7.4274 -8.8795,0 -14.0381,-6.7469 -5.1585,-6.747 -5.7928,-19.6741 z" />
    <path
       style="font-style:normal;font-variant:normal;font-weight:normal;font-stretch:normal;font-size:medium;line-height:125%;font-family:Rockwell;-inkscape-font-specification:Rockwell;letter-spacing:0px;word-spacing:0px;fill:#ff0000;fill-opacity:1;stroke:none;stroke-width:1px;stroke-linecap:butt;stroke-linejoin:miter;stroke-opacity:1"
       d="m 3414,1185.5792 h 7.611 q 0.6765,7.9377 3.8478,12.6436 3.2135,4.7058 8.4567,4.7058 5.2854,0 8.4989,-4.876 3.2135,-4.8759 3.2135,-12.5301 0,-8.1077 -3.1289,-12.36 -3.129,-4.3089 -7.7802,-4.3089 -6.9767,0 -11.797,9.4683 -2.7061,-3.5718 -6.1311,-5.7263 l 2.4102,-40.5954 h 31.3742 v 20.9213 h -7.2728 v -10.7724 h -18.0126 l -1.3108,23.0758 q 5.37,-5.8398 11.9661,-5.8398 8.3721,0 13.1924,7.484 4.8626,7.4841 4.8626,18.54 0,11.6796 -5.3277,19.1637 -5.2854,7.4274 -14.8414,7.4274 -8.8795,0 -14.0381,-6.7469 -5.1585,-6.747 -5.7928,-19.6741 z"
       id="path6874"
       inkscape:connector-curvature="0" />
    <path
       style="font-style:normal;font-variant:normal;font-weight:normal;font-stretch:normal;font-size:medium;line-height:125%;font-family:Rockwell;-inkscape-font-specification:Rockwell;letter-spacing:0px;word-spacing:0px;fill:#ff0000;fill-opacity:1;stroke:none;stroke-width:1px;stroke-linecap:butt;stroke-linejoin:miter;stroke-opacity:1"
       d="m 2966,1914.3213 h -7.611 q -0.6765,-7.9377 -3.8478,-12.6436 -3.2135,-4.7058 -8.4567,-4.7058 -5.2854,0 -8.4989,4.876 -3.2135,4.8759 -3.2135,12.5301 0,8.1077 3.1289,12.36 3.129,4.3089 7.7802,4.3089 6.9767,0 11.797,-9.4683 2.7061,3.5718 6.1311,5.7263 l -2.4102,40.5954 h -31.3742 v -20.9213 h 7.2728 v 10.7724 h 18.0126 l 1.3108,-23.0758 q -5.37,5.8398 -11.9661,5.8398 -8.3721,0 -13.1924,-7.484 -4.8626,-7.4841 -4.8626,-18.54 0,-11.6796 5.3277,-19.1637 5.2854,-7.4274 14.8414,-7.4274 8.8795,0 14.0381,6.7469 5.1585,6.747 5.7928,19.6741 z"
       id="path7009-5"
       inkscape:connector-curvature="0" />
    <path
       style="font-style:normal;font-variant:normal;font-weight:normal;font-stretch:normal;font-size:medium;line-height:125%;font-family:Rockwell;-inkscape-font-specification:Rockwell;letter-spacing:0px;word-spacing:0px;fill:#ff0000;fill-opacity:1;stroke:none;stroke-width:1px;stroke-linecap:butt;stroke-linejoin:miter;stroke-opacity:1"
       inkscape:connector-curvature="0"
       id="path7039-9"
       d="m 3454,1914.3213 h -7.611 q -0.6765,-7.9377 -3.8478,-12.6436 -3.2135,-4.7058 -8.4567,-4.7058 -5.2854,0 -8.4989,4.876 -3.2135,4.8759 -3.2135,12.5301 0,8.1077 3.1289,12.36 3.129,4.3089 7.7802,4.3089 6.9767,0 11.797,-9.4683 2.7061,3.5718 6.1311,5.7263 l -2.4102,40.5954 h -31.3742 v -20.9213 h 7.2728 v 10.7724 h 18.0126 l 1.3108,-23.0758 q -5.37,5.8398 -11.9661,5.8398 -8.3721,0 -13.1924,-7.484 -4.8626,-7.4841 -4.8626,-18.54 0,-11.6796 5.3277,-19.1637 5.2854,-7.4274 14.8414,-7.4274 8.8795,0 14.0381,6.7469 5.1585,6.747 5.7928,19.6741 z" />
    <path
       inkscape:connector-curvature="0"
       id="path8578"
       d="m 2978.608,1969.5383 c -0.347,-0.3672 -0.632,-38.9588 -0.632,-85.7589 0,-82.2583 -0.06,-85.1695 -1.802,-87.4482 -1.767,-2.3087 -2.209,-2.3674 -21.489,-2.8564 L 2935,1792.9756 v -243.1243 -243.1244 l 19.568,-0.4992 c 17.134,-0.4371 19.777,-0.721 21.252,-2.282 1.582,-1.6748 1.713,-6.9885 2.156,-87.8642 L 2978.449,1130 h 212.051 212.051 l 0.472,86.0815 c 0.444,80.8757 0.575,86.1894 2.157,87.8642 1.475,1.561 4.117,1.8449 21.252,2.282 l 19.568,0.4992 v 243.1244 243.1243 l -19.568,0.4992 c -17.135,0.4372 -19.777,0.7211 -21.252,2.282 -1.582,1.6749 -1.713,6.9885 -2.157,87.8642 l -0.472,86.0816 -211.655,0.2518 c -116.411,0.1384 -211.939,-0.049 -212.288,-0.4161 z m 420.641,-85.9527 c 0,-81.6793 0.05,-83.6964 1.88,-86.8749 3.8,-6.5887 6.015,-7.2218 25.272,-7.226 h 17.237 V 1549.855 1310.2252 h -17.237 c -19.257,0 -21.472,-0.6373 -25.272,-7.2259 -1.834,-3.1786 -1.877,-5.1956 -1.88,-86.8749 v -83.6206 h -208.745 -208.745 v 83.6208 c 0,81.6794 -0.05,83.6964 -1.88,86.875 -3.801,6.5886 -6.015,7.2217 -25.272,7.2259 h -17.238 v 239.6297 239.6298 h 17.238 c 19.257,0 21.471,0.6373 25.272,7.226 1.833,3.1785 1.877,5.1955 1.88,86.8749 v 83.6205 h 208.745 208.745 z"
       style="fill:#b7b772" />
    <path
       inkscape:connector-curvature="0"
       id="path8886"
       d="m 2982.3885,1884.9313 c 0,-86.0581 -0.3019,-90.3112 -6.6551,-93.7551 -1.8027,-0.9771 -11.0135,-2.0806 -20.4687,-2.4521 l -17.1911,-0.6756 v -238.9552 -238.9552 h 17.488 c 16.2819,0 17.7835,-0.2543 21.7754,-3.6871 l 4.2875,-3.6871 0.4314,-84.9427 0.4314,-84.9426 h 207.7721 207.772 l 0.1532,70.6746 c 0.084,38.871 0.5999,77.4403 1.1461,85.7096 1.3426,20.3305 2.011,20.8753 25.6118,20.8753 h 17.4038 v 238.9552 238.9552 l -17.6312,0.6749 c -23.2385,0.8895 -23.999,1.5572 -25.3844,22.2892 -0.5462,8.1724 -1.0619,46.6624 -1.1461,85.5335 l -0.1532,70.6745 H 3190.21 2982.3885 Z m 88.7551,16.9745 c 9.4201,-14.5661 27.1093,-32.5037 42.0862,-42.6771 7.04,-4.7821 12.8,-9.1606 12.8,-9.73 0,-0.5695 -4.2978,-3.6858 -9.5506,-6.9252 -13.017,-8.0276 -34.9345,-29.4896 -43.4931,-42.5893 -3.8762,-5.9329 -7.4944,-11.3109 -8.0403,-11.9511 -0.5459,-0.6401 -4.8612,4.5313 -9.5894,11.492 -10.2918,15.1512 -26.8624,31.5579 -42.0239,41.6083 -6.0933,4.0391 -11.0787,7.8499 -11.0787,8.4683 0,0.6185 4.6416,4.1239 10.3147,7.79 13.833,8.9391 35.0557,30.1204 43.8241,43.7387 3.9233,6.0933 7.348,11.0787 7.6105,11.0787 0.2624,0 3.4757,-4.6365 7.1405,-10.3033 z m 251.4684,0.7527 c 8.0582,-13.2896 29.1694,-34.7082 43.5157,-44.1493 6.6211,-4.3574 12.0385,-8.4002 12.0385,-8.9842 0,-0.5839 -4.2978,-3.7121 -9.5507,-6.9515 -13.1258,-8.0947 -34.9154,-29.4854 -44.1838,-43.375 -4.2315,-6.3412 -7.9037,-11.7508 -8.1606,-12.0212 -0.2569,-0.2704 -3.7183,4.5431 -7.692,10.6967 -9.1635,14.1903 -28.5748,33.5753 -43.9356,43.8762 l -11.9041,7.9827 11.9041,7.7574 c 14.7183,9.5913 34.1538,28.9478 43.818,43.6401 4.008,6.0933 7.5285,11.0787 7.8234,11.0787 0.2948,0 3.142,-4.2978 6.3271,-9.5506 z m -124.9329,-300.5929 c 8.7699,-13.8092 28.583,-33.7322 42.941,-43.179 6.294,-4.1411 11.6792,-7.7649 11.967,-8.0527 0.2879,-0.2879 -4.8617,-4.1348 -11.4436,-8.5487 -15.1868,-10.1845 -34.4604,-29.4881 -43.8712,-43.9396 l -7.2995,-11.2094 -7.8225,11.9735 c -9.7946,14.992 -29.2191,34.3017 -43.5567,43.2994 -6.0266,3.7821 -10.9751,7.2777 -10.9966,7.7681 -0.022,0.4904 5.2902,4.3648 11.8037,8.6097 13.9995,9.1237 35.5404,30.9293 43.8257,44.3642 3.2394,5.2528 6.3079,9.533 6.8188,9.5115 0.5108,-0.022 3.9461,-4.7902 7.6339,-10.597 z m -125.3838,-301.1649 c 9.2684,-13.8896 31.058,-35.2802 44.1839,-43.3749 5.2528,-3.2395 9.5506,-6.3789 9.5506,-6.9766 0,-0.5977 -4.9854,-4.3915 -11.0787,-8.4307 -15.1984,-10.0748 -31.7384,-26.4664 -42.1037,-41.7257 -7.8784,-11.5982 -8.8564,-12.515 -10.6296,-9.9639 -18.861,27.1347 -31.3184,40.1966 -49.6493,52.0586 -5.6731,3.6711 -10.3147,7.2792 -10.3147,8.0181 0,0.7389 4.2978,3.9522 9.5506,7.1408 13.3078,8.0781 33.1415,27.6018 43.4365,42.7577 4.7691,7.0209 8.8263,12.599 9.016,12.3957 0.1897,-0.2033 3.807,-5.5579 8.0384,-11.8991 z m 250.1966,2.7429 c 8.1356,-13.2052 30.731,-36.1356 44.3175,-44.9746 6.2245,-4.0495 11.3262,-7.7545 11.337,-8.2332 0.011,-0.4788 -5.7403,-4.7832 -12.7803,-9.5653 -14.9768,-10.1733 -32.6661,-28.111 -42.0862,-42.6771 -3.6648,-5.6668 -6.8967,-10.3033 -7.1821,-10.3033 -0.2853,0 -3.7812,4.9855 -7.7686,11.0788 -9.507,14.5277 -28.8108,33.7265 -43.7142,43.4762 l -11.9325,7.8063 13.5559,9.2846 c 16.0401,10.986 32.1994,27.2214 42.3801,42.5795 4.0392,6.0933 7.4892,11.0788 7.6666,11.0788 0.1775,0 2.9705,-4.2978 6.2068,-9.5507 z"
       style="fill:#feefd3;fill-opacity:1;stroke:#fffecd;stroke-width:0.541452;stroke-miterlimit:4;stroke-dasharray:none;stroke-opacity:1" />
    <path
       style="fill:#fe0303;image-rendering:auto"
       d="m 3063.1926,1311.1646 c -0.4442,-0.697 -2.4611,-3.903 -4.4823,-7.1243 -6.9857,-11.1345 -11.4277,-16.6285 -21.7018,-26.8418 -10.2742,-10.2133 -15.8011,-14.6288 -27.0018,-21.5731 -3.2408,-2.0091 -6.4658,-4.0141 -7.1669,-4.4555 -1.1198,-0.7052 -1.1198,-0.9003 0,-1.6053 0.7011,-0.4416 3.9255,-2.4474 7.1653,-4.4572 21.162,-13.1288 38.4178,-30.7573 51.0891,-52.1924 l 2.9058,-4.9155 2.9056,4.9155 c 12.6714,21.4351 29.9272,39.0636 51.0893,52.1924 3.2397,2.0098 6.4641,4.0156 7.1652,4.4572 1.1198,0.705 1.1198,0.9001 0,1.6053 -0.7011,0.4414 -3.9262,2.4464 -7.1669,4.4555 -11.2008,6.9443 -16.7276,11.3598 -27.0018,21.5731 -10.2742,10.2133 -14.7162,15.7073 -21.7019,26.8418 -2.021,3.2213 -4.038,6.4273 -4.4822,7.1243 -0.7092,1.1132 -0.9055,1.1132 -1.6147,0 z"
       id="path6421-2"
       inkscape:connector-curvature="0" />
    <path
       style="fill:#fe0303;image-rendering:auto"
       d="m 3064.8073,1788.8344 c 0.4442,0.697 2.4611,3.903 4.4823,7.1243 6.9857,11.1345 11.4277,16.6285 21.7018,26.8418 10.2742,10.2133 15.8011,14.6289 27.0019,21.5731 3.2407,2.0091 6.4658,4.0141 7.1668,4.4555 1.1198,0.7052 1.1198,0.9003 0,1.6053 -0.701,0.4416 -3.9254,2.4474 -7.1652,4.4572 -21.1621,13.1288 -38.4179,30.7573 -51.0892,52.1924 l -2.9058,4.9155 -2.9056,-4.9155 c -12.6714,-21.4351 -29.9272,-39.0636 -51.0893,-52.1924 -3.2397,-2.0098 -6.4641,-4.0156 -7.1652,-4.4572 -1.1198,-0.705 -1.1198,-0.9001 0,-1.6053 0.7011,-0.4414 3.9262,-2.4464 7.1669,-4.4555 11.2008,-6.9442 16.7276,-11.3598 27.0018,-21.5731 10.2742,-10.2133 14.7162,-15.7073 21.7019,-26.8418 2.021,-3.2213 4.038,-6.4273 4.4822,-7.1243 0.7092,-1.1132 0.9055,-1.1132 1.6147,0 z"
       id="path6423-2"
       inkscape:connector-curvature="0" />
    <path
       inkscape:connector-curvature="0"
       id="path6426"
       d="m 3315.1926,1311.1646 c -0.4442,-0.697 -2.4611,-3.903 -4.4823,-7.1243 -6.9857,-11.1345 -11.4277,-16.6285 -21.7018,-26.8418 -10.2742,-10.2133 -15.8011,-14.6288 -27.0018,-21.5731 -3.2408,-2.0091 -6.4658,-4.0141 -7.1669,-4.4555 -1.1198,-0.7052 -1.1198,-0.9003 0,-1.6053 0.7011,-0.4416 3.9255,-2.4474 7.1653,-4.4572 21.162,-13.1288 38.4178,-30.7573 51.0891,-52.1924 l 2.9058,-4.9155 2.9056,4.9155 c 12.6714,21.4351 29.9272,39.0636 51.0893,52.1924 3.2397,2.0098 6.4641,4.0156 7.1652,4.4572 1.1198,0.705 1.1198,0.9001 0,1.6053 -0.7011,0.4414 -3.9262,2.4464 -7.1669,4.4555 -11.2008,6.9443 -16.7276,11.3598 -27.0018,21.5731 -10.2742,10.2133 -14.7162,15.7073 -21.7019,26.8418 -2.021,3.2213 -4.038,6.4273 -4.4822,7.1243 -0.7092,1.1132 -0.9055,1.1132 -1.6147,0 z"
       style="fill:#fe0303;image-rendering:auto" />
    <path
       inkscape:connector-curvature="0"
       id="path6428"
       d="m 3316.8073,1788.8344 c 0.4442,0.697 2.4611,3.903 4.4823,7.1243 6.9857,11.1345 11.4277,16.6285 21.7018,26.8418 10.2742,10.2133 15.8011,14.6289 27.0019,21.5731 3.2407,2.0091 6.4658,4.0141 7.1668,4.4555 1.1198,0.7052 1.1198,0.9003 0,1.6053 -0.701,0.4416 -3.9254,2.4474 -7.1652,4.4572 -21.1621,13.1288 -38.4179,30.7573 -51.0892,52.1924 l -2.9058,4.9155 -2.9056,-4.9155 c -12.6714,-21.4351 -29.9272,-39.0636 -51.0893,-52.1924 -3.2397,-2.0098 -6.4641,-4.0156 -7.1652,-4.4572 -1.1198,-0.705 -1.1198,-0.9001 0,-1.6053 0.7011,-0.4414 3.9262,-2.4464 7.1669,-4.4555 11.2008,-6.9442 16.7276,-11.3598 27.0018,-21.5731 10.2742,-10.2133 14.7162,-15.7073 21.7019,-26.8418 2.021,-3.2213 4.038,-6.4273 4.4822,-7.1243 0.7092,-1.1132 0.9055,-1.1132 1.6147,0 z"
       style="fill:#fe0303;image-rendering:auto" />
    <path
       style="fill:#fe0303;image-rendering:auto"
       d="m 3189.1926,1611.1654 c -0.4442,-0.697 -2.4611,-3.903 -4.4823,-7.1243 -6.9857,-11.1345 -11.4277,-16.6285 -21.7018,-26.8418 -10.2742,-10.2134 -15.8011,-14.6289 -27.0018,-21.5731 -3.2408,-2.0091 -6.4658,-4.0141 -7.1669,-4.4555 -1.1198,-0.7053 -1.1198,-0.9003 0,-1.6054 0.7011,-0.4416 3.9255,-2.4473 7.1653,-4.4571 21.162,-13.1288 38.4178,-30.7573 51.0891,-52.1924 l 2.9058,-4.9155 2.9056,4.9155 c 12.6714,21.4351 29.9272,39.0636 51.0893,52.1924 3.2397,2.0098 6.4641,4.0155 7.1652,4.4571 1.1198,0.7051 1.1198,0.9001 0,1.6054 -0.7011,0.4414 -3.9262,2.4464 -7.1669,4.4555 -11.2008,6.9442 -16.7276,11.3597 -27.0018,21.5731 -10.2742,10.2133 -14.7162,15.7073 -21.7019,26.8418 -2.021,3.2213 -4.038,6.4273 -4.4822,7.1243 -0.7092,1.1132 -0.9055,1.1132 -1.6147,0 z"
       id="path6430"
       inkscape:connector-curvature="0" />
  </g>
</svg>
