<?xml version="1.0" encoding="UTF-8" standalone="no"?>
<!-- Created with Inkscape (http://www.inkscape.org/) -->

<svg
   id="svg10047"
   height="123.00012"
   width="78.999786"
   version="1.1"
   viewBox="0 0 78.999786 123.00012"
   inkscape:version="0.91 r13725"
   sodipodi:docname="kaiser-jubilaum.svgz"
   xmlns:inkscape="http://www.inkscape.org/namespaces/inkscape"
   xmlns:sodipodi="http://sodipodi.sourceforge.net/DTD/sodipodi-0.dtd"
   xmlns="http://www.w3.org/2000/svg"
   xmlns:svg="http://www.w3.org/2000/svg"
   xmlns:rdf="http://www.w3.org/1999/02/22-rdf-syntax-ns#"
   xmlns:cc="http://creativecommons.org/ns#"
   xmlns:dc="http://purl.org/dc/elements/1.1/">
  <sodipodi:namedview
     pagecolor="#ffffff"
     bordercolor="#666666"
     borderopacity="1"
     objecttolerance="10"
     gridtolerance="10"
     guidetolerance="10"
     inkscape:pageopacity="0"
     inkscape:pageshadow="2"
     inkscape:window-width="1920"
     inkscape:window-height="1016"
     id="namedview1491"
     showgrid="false"
     inkscape:zoom="1.3479675"
     inkscape:cx="513.49999"
     inkscape:cy="307.5"
     inkscape:window-x="0"
     inkscape:window-y="0"
     inkscape:window-maximized="1"
     inkscape:current-layer="svg10047"
     showguides="true"
     inkscape:guide-bbox="true"
     inkscape:snap-grids="true"
     inkscape:showpageshadow="2"
     inkscape:pagecheckerboard="0"
     inkscape:deskcolor="#d1d1d1" />
  <metadata
     id="metadata16869">
    <rdf:RDF>
      <cc:Work
         rdf:about="">
        <dc:format>image/svg+xml</dc:format>
        <dc:type
           rdf:resource="http://purl.org/dc/dcmitype/StillImage" />
        <dc:title />
      </cc:Work>
    </rdf:RDF>
  </metadata>
  <defs
     id="defs10049" />
  <g
     id="heart_4"
     inkscape:label="#heart_4"
     transform="matrix(0.13620652,0,0,0.13666689,-299.65435,-13.666689)">
    <rect
       width="578.00104"
       height="898.00043"
       rx="48.210754"
       ry="49.888176"
       x="2200.9995"
       y="100.99949"
       id="rect7683"
       style="font-style:normal;font-variant:normal;font-weight:500;font-stretch:normal;font-size:medium;line-height:125%;font-family:Gaelic;-inkscape-font-specification:'Gaelic Medium';letter-spacing:0px;word-spacing:0px;fill:#ffffff;fill-opacity:1;stroke:#000000;stroke-width:1.99898;stroke-linecap:butt;stroke-linejoin:miter;stroke-miterlimit:4;stroke-dasharray:none;stroke-opacity:1" />
    <path
       style="font-style:normal;font-variant:normal;font-weight:normal;font-stretch:normal;font-size:medium;line-height:125%;font-family:Rockwell;-inkscape-font-specification:Rockwell;letter-spacing:0px;word-spacing:0px;fill:#d40000;fill-opacity:1;stroke:none;stroke-width:1px;stroke-linecap:butt;stroke-linejoin:miter;stroke-opacity:1"
       d="m 2249.1601,190.65938 h -19.4595 q -0.9979,-5.3067 -3.7006,-8.9586 l 24.0748,-49.7004 h 6.6944 v 49.0727 H 2266 v 9.5863 h -9.2308 v 11.6976 h 5.2807 v 9.6434 h -19.0437 v -9.6434 h 6.1539 z m 0,-9.5863 v -31.2695 l -15.1767,31.2695 z"
       id="path7909"
       inkscape:connector-curvature="0" />
    <path
       style="font-style:normal;font-variant:normal;font-weight:normal;font-stretch:normal;font-size:medium;line-height:125%;font-family:Rockwell;-inkscape-font-specification:Rockwell;letter-spacing:0px;word-spacing:0px;fill:#d40000;fill-opacity:1;stroke:none;stroke-width:1px;stroke-linecap:butt;stroke-linejoin:miter;stroke-opacity:1"
       inkscape:connector-curvature="0"
       id="path8019-4"
       d="m 2737.1601,190.65938 h -19.4595 q -0.9979,-5.3067 -3.7006,-8.9586 l 24.0748,-49.7004 h 6.6944 v 49.0727 H 2754 v 9.5863 h -9.2308 v 11.6976 h 5.2807 v 9.6434 h -19.0437 v -9.6434 h 6.1539 z m 0,-9.5863 v -31.2695 l -15.1767,31.2695 z" />
    <path
       style="font-style:normal;font-variant:normal;font-weight:normal;font-stretch:normal;font-size:medium;line-height:125%;font-family:Rockwell;-inkscape-font-specification:Rockwell;letter-spacing:0px;word-spacing:0px;fill:#d40000;fill-opacity:1;stroke:none;stroke-width:1px;stroke-linecap:butt;stroke-linejoin:miter;stroke-opacity:1"
       inkscape:connector-curvature="0"
       id="path8155"
       d="m 2242.8399,909.24128 h 19.4595 q 0.9979,5.3067 3.7006,8.9586 l -24.0748,49.7004 h -6.6944 v -49.0727 H 2226 v -9.5863 h 9.2308 v -11.6976 h -5.2807 v -9.6434 h 19.0437 v 9.6434 h -6.1539 z m 0,9.5863 v 31.2695 l 15.1767,-31.2695 z" />
    <path
       style="font-style:normal;font-variant:normal;font-weight:normal;font-stretch:normal;font-size:medium;line-height:125%;font-family:Rockwell;-inkscape-font-specification:Rockwell;letter-spacing:0px;word-spacing:0px;fill:#d40000;fill-opacity:1;stroke:none;stroke-width:1px;stroke-linecap:butt;stroke-linejoin:miter;stroke-opacity:1"
       d="m 2730.8399,909.24128 h 19.4595 q 0.9979,5.3067 3.7006,8.9586 l -24.0748,49.7004 h -6.6944 v -49.0727 H 2714 v -9.5863 h 9.2308 v -11.6976 h -5.2807 v -9.6434 h 19.0437 v 9.6434 h -6.1539 z m 0,9.5863 v 31.2695 l 15.1767,-31.2695 z"
       id="path8189-8"
       inkscape:connector-curvature="0" />
    <path
       inkscape:connector-curvature="0"
       id="path8483"
       d="m 2245.5085,283.47068 c 0,-1.0872 -2.3969,-5.3419 -4.3588,-7.7375 -1.1166,-1.3634 -4.375,-5.0555 -7.241,-8.2046 -2.8659,-3.1491 -5.7684,-6.4663 -6.4498,-7.3717 -1.7564,-2.3332 -3.7433,-6.5452 -4.2358,-8.979 -1.1067,-5.4703 2.0057,-11.7351 7.0746,-14.2397 1.9862,-0.9813 2.268,-1.0326 4.7416,-0.8624 2.3262,0.16 2.8905,0.3362 4.885,1.5255 2.262,1.3488 4.583,3.6853 5.3394,5.3751 0.5132,1.1466 0.9593,1.1466 1.4726,0 0.7563,-1.6898 3.0772,-4.0263 5.3393,-5.3751 1.9945,-1.1893 2.5589,-1.3655 4.885,-1.5255 2.4736,-0.1702 2.7555,-0.1189 4.7416,0.8624 5.069,2.5046 8.1814,8.7694 7.0747,14.2397 -0.4925,2.4338 -2.4795,6.6458 -4.2359,8.979 -0.6815,0.9054 -3.5839,4.2226 -6.4498,7.3717 -2.8659,3.1491 -6.1243,6.8412 -7.2409,8.2046 -1.9621,2.3956 -4.3589,6.6503 -4.3589,7.7375 0,0.2913 -0.2212,0.5296 -0.4914,0.5296 -0.2704,0 -0.4915,-0.2383 -0.4915,-0.5296 z"
       style="fill:#d40000" />
    <path
       style="fill:#d40000"
       d="m 2733.5085,283.47068 c 0,-1.0872 -2.3969,-5.3419 -4.3588,-7.7375 -1.1166,-1.3634 -4.375,-5.0555 -7.241,-8.2046 -2.8659,-3.1491 -5.7684,-6.4663 -6.4498,-7.3717 -1.7564,-2.3332 -3.7433,-6.5452 -4.2358,-8.979 -1.1067,-5.4703 2.0057,-11.7351 7.0746,-14.2397 1.9862,-0.9813 2.268,-1.0326 4.7416,-0.8624 2.3262,0.16 2.8905,0.3362 4.885,1.5255 2.262,1.3488 4.583,3.6853 5.3394,5.3751 0.5132,1.1466 0.9593,1.1466 1.4726,0 0.7563,-1.6898 3.0772,-4.0263 5.3393,-5.3751 1.9945,-1.1893 2.5589,-1.3655 4.885,-1.5255 2.4736,-0.1702 2.7555,-0.1189 4.7416,0.8624 5.069,2.5046 8.1814,8.7694 7.0747,14.2397 -0.4925,2.4338 -2.4795,6.6458 -4.2359,8.979 -0.6815,0.9054 -3.5839,4.2226 -6.4498,7.3717 -2.8659,3.1491 -6.1243,6.8412 -7.2409,8.2046 -1.9621,2.3956 -4.3589,6.6503 -4.3589,7.7375 0,0.2913 -0.2212,0.5296 -0.4914,0.5296 -0.2704,0 -0.4915,-0.2383 -0.4915,-0.5296 z"
       id="path8485"
       inkscape:connector-curvature="0" />
    <path
       style="fill:#d40000"
       d="m 2245.5085,816.52988 c 0,1.0872 -2.3969,5.3419 -4.3588,7.7375 -1.1166,1.3634 -4.375,5.0555 -7.241,8.2046 -2.8659,3.1491 -5.7684,6.4663 -6.4498,7.3717 -1.7564,2.3332 -3.7433,6.5452 -4.2358,8.979 -1.1067,5.4703 2.0057,11.7351 7.0746,14.2397 1.9862,0.9813 2.268,1.0326 4.7416,0.8624 2.3262,-0.16 2.8905,-0.3362 4.885,-1.5255 2.262,-1.3488 4.583,-3.6853 5.3394,-5.3751 0.5132,-1.1466 0.9593,-1.1466 1.4726,0 0.7563,1.6898 3.0772,4.0263 5.3393,5.3751 1.9945,1.1893 2.5589,1.3655 4.885,1.5255 2.4736,0.1702 2.7555,0.1189 4.7416,-0.8624 5.069,-2.5046 8.1814,-8.7694 7.0747,-14.2397 -0.4925,-2.4338 -2.4795,-6.6458 -4.2359,-8.979 -0.6815,-0.9054 -3.5839,-4.2226 -6.4498,-7.3717 -2.8659,-3.1491 -6.1243,-6.8412 -7.2409,-8.2046 -1.9621,-2.3956 -4.3589,-6.6503 -4.3589,-7.7375 0,-0.2913 -0.2212,-0.5296 -0.4914,-0.5296 -0.2704,0 -0.4915,0.2383 -0.4915,0.5296 z"
       id="path8535"
       inkscape:connector-curvature="0" />
    <path
       inkscape:connector-curvature="0"
       id="path8537"
       d="m 2733.5085,816.52988 c 0,1.0872 -2.3969,5.3419 -4.3588,7.7375 -1.1166,1.3634 -4.375,5.0555 -7.241,8.2046 -2.8659,3.1491 -5.7684,6.4663 -6.4498,7.3717 -1.7564,2.3332 -3.7433,6.5452 -4.2358,8.979 -1.1067,5.4703 2.0057,11.7351 7.0746,14.2397 1.9862,0.9813 2.268,1.0326 4.7416,0.8624 2.3262,-0.16 2.8905,-0.3362 4.885,-1.5255 2.262,-1.3488 4.583,-3.6853 5.3394,-5.3751 0.5132,-1.1466 0.9593,-1.1466 1.4726,0 0.7563,1.6898 3.0772,4.0263 5.3393,5.3751 1.9945,1.1893 2.5589,1.3655 4.885,1.5255 2.4736,0.1702 2.7555,0.1189 4.7416,-0.8624 5.069,-2.5046 8.1814,-8.7694 7.0747,-14.2397 -0.4925,-2.4338 -2.4795,-6.6458 -4.2359,-8.979 -0.6815,-0.9054 -3.5839,-4.2226 -6.4498,-7.3717 -2.8659,-3.1491 -6.1243,-6.8412 -7.2409,-8.2046 -1.9621,-2.3956 -4.3589,-6.6503 -4.3589,-7.7375 0,-0.2913 -0.2212,-0.5296 -0.4914,-0.5296 -0.2704,0 -0.4915,0.2383 -0.4915,0.5296 z"
       style="fill:#d40000" />
    <path
       style="fill:#b7b772"
       d="m 2278.608,969.5383 c -0.347,-0.3672 -0.632,-38.9588 -0.632,-85.7589 0,-82.2583 -0.06,-85.1695 -1.802,-87.4482 -1.767,-2.3087 -2.209,-2.3674 -21.489,-2.8564 L 2235,792.9756 V 549.8513 306.7269 l 19.568,-0.4992 c 17.134,-0.4371 19.777,-0.721 21.252,-2.282 1.582,-1.6748 1.713,-6.9885 2.156,-87.8642 L 2278.449,130 h 212.051 212.051 l 0.472,86.0815 c 0.444,80.8757 0.575,86.1894 2.157,87.8642 1.475,1.561 4.117,1.8449 21.252,2.282 l 19.568,0.4992 v 243.1244 243.1243 l -19.568,0.4992 c -17.135,0.4372 -19.777,0.7211 -21.252,2.282 -1.582,1.6749 -1.713,6.9885 -2.157,87.8642 l -0.472,86.0816 -211.655,0.2518 c -116.411,0.1384 -211.939,-0.049 -212.288,-0.4161 z m 420.641,-85.9527 c 0,-81.6793 0.05,-83.6964 1.88,-86.8749 3.8,-6.5887 6.015,-7.2218 25.272,-7.226 h 17.237 V 549.855 310.2252 h -17.237 c -19.257,0 -21.472,-0.6373 -25.272,-7.2259 -1.834,-3.1786 -1.877,-5.1956 -1.88,-86.8749 v -83.6206 h -208.745 -208.745 v 83.6208 c 0,81.6794 -0.05,83.6964 -1.88,86.875 -3.801,6.5886 -6.015,7.2217 -25.272,7.2259 h -17.238 V 549.8552 789.485 h 17.238 c 19.257,0 21.471,0.6373 25.272,7.226 1.833,3.1785 1.877,5.1955 1.88,86.8749 v 83.6205 h 208.745 208.745 z"
       id="path8360"
       inkscape:connector-curvature="0" />
    <path
       inkscape:connector-curvature="0"
       id="path8835"
       d="m 2282.504,878.99523 c 0,-93.80546 0.7353,-91.43501 -28.3617,-91.43501 h -13.6088 V 549.99556 312.4309 l 19.8194,-1.43399 19.8194,-1.43398 1.2688,-87.43853 1.2687,-87.43853 h 207.4179 207.4179 v 83.00831 c 0,90.90178 0.9308,94.20044 26.5813,94.20044 h 15.3892 v 237.8328 237.8328 h -15.3892 c -25.6505,0 -26.5813,3.29865 -26.5813,94.20044 v 83.00831 H 2490.0248 2282.504 Z m 70.3173,25.79072 c 10.4626,-8.47207 10.9558,-8.47207 20.0495,0 16.781,15.63387 40.6329,8.90055 48.5094,-13.69413 6.1823,-17.7343 -2.7311,-38.31705 -28.5435,-65.91261 -11.0099,-11.77044 -22.6231,-25.57453 -25.8072,-30.67572 -4.2774,-6.85285 -6.4616,-7.65472 -8.3639,-3.07061 -1.4161,3.41239 -12.4914,18.12053 -24.6119,32.68481 -36.2733,43.58677 -39.9561,55.80401 -23.2309,77.06664 11.3865,14.47553 26.9243,15.808 41.9985,3.60162 z m 253.5468,-0.37447 c 8.1187,-8.9711 8.2946,-8.9711 17.9239,0 11.6042,10.8109 25.5958,11.58992 39.0394,2.1737 22.7827,-15.95769 16.6218,-42.73128 -18.8626,-81.97136 -10.5631,-11.68118 -21.3123,-24.97169 -23.8869,-29.53454 -4.0772,-7.22541 -7.9889,-4.21426 -30.3121,23.33387 -41.5043,51.21869 -44.7629,60.98243 -27.624,82.77094 11.6762,14.84389 31.8611,16.33385 43.7223,3.22739 z m -235.3753,-601.6277 c 2.6818,-5.01097 15.1137,-20.80997 27.6263,-35.10889 25.3273,-28.94293 29.7311,-41.77952 21.2515,-61.94647 -8.9013,-21.17002 -30.6534,-26.2885 -46.9998,-11.05952 -9.0937,8.47208 -9.5869,8.47208 -20.0495,0 -15.0742,-12.20636 -30.612,-10.8739 -41.9985,3.60161 -16.7939,21.35004 -13.0343,33.72028 23.6728,77.89065 12.4425,14.97225 22.6226,29.13729 22.6226,31.47787 0,7.59992 8.87,4.49597 13.8746,-4.85525 z m 251.9777,-0.28909 c 2.7669,-5.16996 14.52,-20.08437 26.118,-33.14313 26.5361,-29.87813 32.0215,-43.43842 24.7111,-61.08715 -9.4314,-22.7695 -32.4254,-29.13565 -49.1058,-13.5955 -9.0938,8.47208 -9.587,8.47208 -20.0496,0 -15.0742,-12.20636 -30.612,-10.8739 -41.9984,3.60162 -16.794,21.35004 -13.0344,33.72028 23.6728,77.89064 12.4424,14.97226 22.6226,29.1373 22.6226,31.47787 0,7.70268 8.9005,4.439 14.0293,-5.14435 z"
       style="fill:#feefd3;fill-opacity:1;stroke:#fffecd;stroke-width:1.65238;stroke-miterlimit:4;stroke-dasharray:none;stroke-opacity:1" />
    <path
       style="fill:#d40000"
       d="m 2361.7179,310.63208 c 0,-2.8086 -6.2526,-13.7998 -11.3709,-19.9885 -2.9129,-3.5222 -11.4131,-13.0599 -18.8894,-21.1951 -7.4763,-8.1352 -15.0479,-16.7048 -16.8257,-19.0437 -4.5819,-6.0275 -9.7652,-16.9084 -11.0498,-23.1958 -2.8873,-14.1315 5.2323,-30.3156 18.4556,-36.7858 5.181,-2.5351 5.9164,-2.6676 12.3693,-2.228 6.0681,0.4134 7.5403,0.8687 12.7434,3.941 5.901,3.4844 11.9557,9.5204 13.9288,13.8857 1.3388,2.9619 2.5027,2.9619 3.8415,0 1.9731,-4.3653 8.0278,-10.4013 13.9288,-13.8857 5.2031,-3.0723 6.6753,-3.5276 12.7434,-3.941 6.4529,-0.4396 7.1883,-0.3071 12.3694,2.228 13.2233,6.4702 21.3429,22.6543 18.4556,36.7858 -1.2847,6.2874 -6.468,17.1683 -11.0498,23.1958 -1.7779,2.3389 -9.3495,10.9085 -16.8258,19.0437 -7.4763,8.1352 -15.9765,17.6729 -18.8894,21.1951 -5.1183,6.1887 -11.3709,17.1799 -11.3709,19.9885 0,0.7525 -0.5769,1.3682 -1.282,1.3682 -0.7052,0 -1.2821,-0.6157 -1.2821,-1.3682 z"
       id="path8457"
       inkscape:connector-curvature="0" />
    <path
       inkscape:connector-curvature="0"
       id="path8459-7"
       d="m 2613.7179,310.63208 c 0,-2.8086 -6.2526,-13.7998 -11.3709,-19.9885 -2.9129,-3.5222 -11.4131,-13.0599 -18.8894,-21.1951 -7.4763,-8.1352 -15.0479,-16.7048 -16.8257,-19.0437 -4.5819,-6.0275 -9.7652,-16.9084 -11.0498,-23.1958 -2.8873,-14.1315 5.2323,-30.3156 18.4556,-36.7858 5.181,-2.5351 5.9164,-2.6676 12.3693,-2.228 6.0681,0.4134 7.5403,0.8687 12.7434,3.941 5.901,3.4844 11.9557,9.5204 13.9288,13.8857 1.3388,2.9619 2.5027,2.9619 3.8415,0 1.9731,-4.3653 8.0278,-10.4013 13.9288,-13.8857 5.2031,-3.0723 6.6753,-3.5276 12.7434,-3.941 6.4529,-0.4396 7.1883,-0.3071 12.3694,2.228 13.2233,6.4702 21.3429,22.6543 18.4556,36.7858 -1.2847,6.2874 -6.468,17.1683 -11.0498,23.1958 -1.7779,2.3389 -9.3495,10.9085 -16.8258,19.0437 -7.4763,8.1352 -15.9765,17.6729 -18.8894,21.1951 -5.1183,6.1887 -11.3709,17.1799 -11.3709,19.9885 0,0.7525 -0.5769,1.3682 -1.282,1.3682 -0.7052,0 -1.2821,-0.6157 -1.2821,-1.3682 z"
       style="fill:#d40000" />
    <path
       inkscape:connector-curvature="0"
       id="path8461"
       d="m 2361.7179,789.36848 c 0,2.8086 -6.2526,13.7998 -11.3709,19.9885 -2.9129,3.5222 -11.4131,13.0599 -18.8894,21.1951 -7.4763,8.1352 -15.0479,16.7048 -16.8257,19.0437 -4.5819,6.0275 -9.7652,16.9084 -11.0498,23.1958 -2.8873,14.1315 5.2323,30.3156 18.4556,36.7858 5.181,2.5351 5.9164,2.6676 12.3693,2.228 6.0681,-0.4134 7.5403,-0.8687 12.7434,-3.941 5.901,-3.4844 11.9557,-9.5204 13.9288,-13.8857 1.3388,-2.9619 2.5027,-2.9619 3.8415,0 1.9731,4.3653 8.0278,10.4013 13.9288,13.8857 5.2031,3.0723 6.6753,3.5276 12.7434,3.941 6.4529,0.4396 7.1883,0.3071 12.3694,-2.228 13.2233,-6.4702 21.3429,-22.6543 18.4556,-36.7858 -1.2847,-6.2874 -6.468,-17.1683 -11.0498,-23.1958 -1.7779,-2.3389 -9.3495,-10.9085 -16.8258,-19.0437 -7.4763,-8.1352 -15.9765,-17.6729 -18.8894,-21.1951 -5.1183,-6.1887 -11.3709,-17.1799 -11.3709,-19.9885 0,-0.7525 -0.5769,-1.3682 -1.282,-1.3682 -0.7052,0 -1.2821,0.6157 -1.2821,1.3682 z"
       style="fill:#d40000" />
    <path
       style="fill:#d40000"
       d="m 2613.7179,789.36848 c 0,2.8086 -6.2526,13.7998 -11.3709,19.9885 -2.9129,3.5222 -11.4131,13.0599 -18.8894,21.1951 -7.4763,8.1352 -15.0479,16.7048 -16.8257,19.0437 -4.5819,6.0275 -9.7652,16.9084 -11.0498,23.1958 -2.8873,14.1315 5.2323,30.3156 18.4556,36.7858 5.181,2.5351 5.9164,2.6676 12.3693,2.228 6.0681,-0.4134 7.5403,-0.8687 12.7434,-3.941 5.901,-3.4844 11.9557,-9.5204 13.9288,-13.8857 1.3388,-2.9619 2.5027,-2.9619 3.8415,0 1.9731,4.3653 8.0278,10.4013 13.9288,13.8857 5.2031,3.0723 6.6753,3.5276 12.7434,3.941 6.4529,0.4396 7.1883,0.3071 12.3694,-2.228 13.2233,-6.4702 21.3429,-22.6543 18.4556,-36.7858 -1.2847,-6.2874 -6.468,-17.1683 -11.0498,-23.1958 -1.7779,-2.3389 -9.3495,-10.9085 -16.8258,-19.0437 -7.4763,-8.1352 -15.9765,-17.6729 -18.8894,-21.1951 -5.1183,-6.1887 -11.3709,-17.1799 -11.3709,-19.9885 0,-0.7525 -0.5769,-1.3682 -1.282,-1.3682 -0.7052,0 -1.2821,0.6157 -1.2821,1.3682 z"
       id="path8463-1"
       inkscape:connector-curvature="0" />
  </g>
</svg>
