<?xml version="1.0" encoding="UTF-8" standalone="no"?>
<!-- Created with Inkscape (http://www.inkscape.org/) -->

<svg
   id="svg10047"
   height="123.00012"
   width="78.999786"
   version="1.1"
   viewBox="0 0 78.999786 123.00012"
   inkscape:version="0.91 r13725"
   sodipodi:docname="kaiser-jubilaum.svgz"
   xmlns:inkscape="http://www.inkscape.org/namespaces/inkscape"
   xmlns:sodipodi="http://sodipodi.sourceforge.net/DTD/sodipodi-0.dtd"
   xmlns="http://www.w3.org/2000/svg"
   xmlns:svg="http://www.w3.org/2000/svg"
   xmlns:rdf="http://www.w3.org/1999/02/22-rdf-syntax-ns#"
   xmlns:cc="http://creativecommons.org/ns#"
   xmlns:dc="http://purl.org/dc/elements/1.1/">
  <sodipodi:namedview
     pagecolor="#ffffff"
     bordercolor="#666666"
     borderopacity="1"
     objecttolerance="10"
     gridtolerance="10"
     guidetolerance="10"
     inkscape:pageopacity="0"
     inkscape:pageshadow="2"
     inkscape:window-width="1920"
     inkscape:window-height="1016"
     id="namedview1491"
     showgrid="false"
     inkscape:zoom="1.3479675"
     inkscape:cx="513.49999"
     inkscape:cy="307.5"
     inkscape:window-x="0"
     inkscape:window-y="0"
     inkscape:window-maximized="1"
     inkscape:current-layer="svg10047"
     showguides="true"
     inkscape:guide-bbox="true"
     inkscape:snap-grids="true"
     inkscape:showpageshadow="2"
     inkscape:pagecheckerboard="0"
     inkscape:deskcolor="#d1d1d1" />
  <metadata
     id="metadata16869">
    <rdf:RDF>
      <cc:Work
         rdf:about="">
        <dc:format>image/svg+xml</dc:format>
        <dc:type
           rdf:resource="http://purl.org/dc/dcmitype/StillImage" />
        <dc:title />
      </cc:Work>
    </rdf:RDF>
  </metadata>
  <defs
     id="defs10049" />
  <g
     id="heart_6"
     transform="matrix(0.13620652,0,0,0.13666689,-490.34348,-13.666689)"
     inkscape:label="#heart_6">
    <rect
       style="font-style:normal;font-variant:normal;font-weight:500;font-stretch:normal;font-size:medium;line-height:125%;font-family:Gaelic;-inkscape-font-specification:'Gaelic Medium';letter-spacing:0px;word-spacing:0px;fill:#ffffff;fill-opacity:1;stroke:#000000;stroke-width:1.99898;stroke-linecap:butt;stroke-linejoin:miter;stroke-miterlimit:4;stroke-dasharray:none;stroke-opacity:1"
       id="rect7541"
       y="100.99949"
       x="3600.9995"
       ry="49.888176"
       rx="48.210754"
       height="898.00043"
       width="578.00104" />
    <path
       style="font-style:normal;font-variant:normal;font-weight:normal;font-stretch:normal;font-size:medium;line-height:125%;font-family:Rockwell;-inkscape-font-specification:Rockwell;letter-spacing:0px;word-spacing:0px;fill:#d40000;fill-opacity:1;stroke:none;stroke-width:1px;stroke-linecap:butt;stroke-linejoin:miter;stroke-opacity:1"
       d="m 3665.5536,156.13978 h -7.5447 q -0.6696,-6.6342 -3.75,-10.8153 -3.0357,-4.1812 -7.4107,-4.1812 -5.9375,0 -9.2411,7.7491 -3.3036,7.6933 -3.4375,21.1288 6.3393,-8.5853 14.5982,-8.5853 7.0983,0 12.1429,6.5784 5.0893,6.5226 5.0893,17.5051 0,10.9269 -5,18.7318 -5,7.7491 -13.6607,7.7491 -9.6875,0 -15.5358,-9.9233 -5.8035,-9.9791 -5.8035,-29.6028 0,-18.6759 5.625,-29.547 5.625,-10.9269 16.2053,-10.9269 8.3036,0 12.8572,6.8572 4.5982,6.8014 4.8661,17.2823 z m -30.9375,25.5888 q 2.0089,21.0731 12.3214,21.0731 5.2678,0 8.2143,-4.8502 2.9464,-4.8501 2.9464,-11.5958 0,-6.6341 -2.8125,-10.7038 -2.7679,-4.0697 -7.5,-4.0697 -6.6518,0 -13.1696,10.1464 z"
       id="path7937"
       inkscape:connector-curvature="0" />
    <path
       style="font-style:normal;font-variant:normal;font-weight:normal;font-stretch:normal;font-size:medium;line-height:125%;font-family:Rockwell;-inkscape-font-specification:Rockwell;letter-spacing:0px;word-spacing:0px;fill:#d40000;fill-opacity:1;stroke:none;stroke-width:1px;stroke-linecap:butt;stroke-linejoin:miter;stroke-opacity:1"
       inkscape:connector-curvature="0"
       id="path8023-4"
       d="m 4153.5536,156.13978 h -7.5447 q -0.6696,-6.6342 -3.75,-10.8153 -3.0357,-4.1812 -7.4107,-4.1812 -5.9375,0 -9.2411,7.7491 -3.3036,7.6933 -3.4375,21.1288 6.3393,-8.5853 14.5982,-8.5853 7.0983,0 12.1429,6.5784 5.0893,6.5226 5.0893,17.5051 0,10.9269 -5,18.7318 -5,7.7491 -13.6607,7.7491 -9.6875,0 -15.5358,-9.9233 -5.8035,-9.9791 -5.8035,-29.6028 0,-18.6759 5.625,-29.547 5.625,-10.9269 16.2053,-10.9269 8.3036,0 12.8572,6.8572 4.5982,6.8014 4.8661,17.2823 z m -30.9375,25.5888 q 2.0089,21.0731 12.3214,21.0731 5.2678,0 8.2143,-4.8502 2.9464,-4.8501 2.9464,-11.5958 0,-6.6341 -2.8125,-10.7038 -2.7679,-4.0697 -7.5,-4.0697 -6.6518,0 -13.1696,10.1464 z" />
    <path
       style="font-style:normal;font-variant:normal;font-weight:normal;font-stretch:normal;font-size:medium;line-height:125%;font-family:Rockwell;-inkscape-font-specification:Rockwell;letter-spacing:0px;word-spacing:0px;fill:#d40000;fill-opacity:1;stroke:none;stroke-width:1px;stroke-linecap:butt;stroke-linejoin:miter;stroke-opacity:1"
       inkscape:connector-curvature="0"
       id="path8177"
       d="m 3626.4464,943.76088 h 7.5447 q 0.6696,6.6342 3.75,10.8153 3.0357,4.1812 7.4107,4.1812 5.9375,0 9.2411,-7.7491 3.3036,-7.6933 3.4375,-21.1288 -6.3393,8.5853 -14.5982,8.5853 -7.0983,0 -12.1429,-6.5784 -5.0893,-6.5226 -5.0893,-17.5051 0,-10.9269 5,-18.7318 5,-7.7491 13.6607,-7.7491 9.6875,0 15.5358,9.9233 5.8035,9.9791 5.8035,29.6028 0,18.6759 -5.625,29.547 -5.625,10.9269 -16.2053,10.9269 -8.3036,0 -12.8572,-6.8572 -4.5982,-6.8014 -4.8661,-17.2823 z m 30.9375,-25.5888 q -2.0089,-21.0731 -12.3214,-21.0731 -5.2678,0 -8.2143,4.8502 -2.9464,4.8501 -2.9464,11.5958 0,6.6341 2.8125,10.7038 2.7679,4.0697 7.5,4.0697 6.6518,0 13.1696,-10.1464 z" />
    <path
       style="font-style:normal;font-variant:normal;font-weight:normal;font-stretch:normal;font-size:medium;line-height:125%;font-family:Rockwell;-inkscape-font-specification:Rockwell;letter-spacing:0px;word-spacing:0px;fill:#d40000;fill-opacity:1;stroke:none;stroke-width:1px;stroke-linecap:butt;stroke-linejoin:miter;stroke-opacity:1"
       d="m 4114.4464,943.76088 h 7.5447 q 0.6696,6.6342 3.75,10.8153 3.0357,4.1812 7.4107,4.1812 5.9375,0 9.2411,-7.7491 3.3036,-7.6933 3.4375,-21.1288 -6.3393,8.5853 -14.5982,8.5853 -7.0983,0 -12.1429,-6.5784 -5.0893,-6.5226 -5.0893,-17.5051 0,-10.9269 5,-18.7318 5,-7.7491 13.6607,-7.7491 9.6875,0 15.5358,9.9233 5.8035,9.9791 5.8035,29.6028 0,18.6759 -5.625,29.547 -5.625,10.9269 -16.2053,10.9269 -8.3036,0 -12.8572,-6.8572 -4.5982,-6.8014 -4.8661,-17.2823 z m 30.9375,-25.5888 q -2.0089,-21.0731 -12.3214,-21.0731 -5.2678,0 -8.2143,4.8502 -2.9464,4.8501 -2.9464,11.5958 0,6.6341 2.8125,10.7038 2.7679,4.0697 7.5,4.0697 6.6518,0 13.1696,-10.1464 z"
       id="path8193"
       inkscape:connector-curvature="0" />
    <path
       inkscape:connector-curvature="0"
       id="path8491"
       d="m 3645.5085,283.47068 c 0,-1.0872 -2.3969,-5.3419 -4.3588,-7.7375 -1.1166,-1.3634 -4.375,-5.0555 -7.241,-8.2046 -2.8659,-3.1491 -5.7684,-6.4663 -6.4498,-7.3717 -1.7564,-2.3332 -3.7433,-6.5452 -4.2358,-8.979 -1.1067,-5.4703 2.0057,-11.7351 7.0746,-14.2397 1.9862,-0.9813 2.268,-1.0326 4.7416,-0.8624 2.3262,0.16 2.8905,0.3362 4.885,1.5255 2.262,1.3488 4.583,3.6853 5.3394,5.3751 0.5132,1.1466 0.9593,1.1466 1.4726,0 0.7563,-1.6898 3.0772,-4.0263 5.3393,-5.3751 1.9945,-1.1893 2.5589,-1.3655 4.885,-1.5255 2.4736,-0.1702 2.7555,-0.1189 4.7416,0.8624 5.069,2.5046 8.1814,8.7694 7.0747,14.2397 -0.4925,2.4338 -2.4795,6.6458 -4.2359,8.979 -0.6815,0.9054 -3.5839,4.2226 -6.4498,7.3717 -2.8659,3.1491 -6.1243,6.8412 -7.2409,8.2046 -1.9621,2.3956 -4.3589,6.6503 -4.3589,7.7375 0,0.2913 -0.2212,0.5296 -0.4914,0.5296 -0.2704,0 -0.4915,-0.2383 -0.4915,-0.5296 z"
       style="fill:#d40000" />
    <path
       style="fill:#d40000"
       d="m 4133.5085,283.47068 c 0,-1.0872 -2.3969,-5.3419 -4.3588,-7.7375 -1.1166,-1.3634 -4.375,-5.0555 -7.241,-8.2046 -2.8659,-3.1491 -5.7684,-6.4663 -6.4498,-7.3717 -1.7564,-2.3332 -3.7433,-6.5452 -4.2358,-8.979 -1.1067,-5.4703 2.0057,-11.7351 7.0746,-14.2397 1.9862,-0.9813 2.268,-1.0326 4.7416,-0.8624 2.3262,0.16 2.8905,0.3362 4.885,1.5255 2.262,1.3488 4.583,3.6853 5.3394,5.3751 0.5132,1.1466 0.9593,1.1466 1.4726,0 0.7563,-1.6898 3.0772,-4.0263 5.3393,-5.3751 1.9945,-1.1893 2.5589,-1.3655 4.885,-1.5255 2.4736,-0.1702 2.7555,-0.1189 4.7416,0.8624 5.069,2.5046 8.1814,8.7694 7.0747,14.2397 -0.4925,2.4338 -2.4795,6.6458 -4.2359,8.979 -0.6815,0.9054 -3.5839,4.2226 -6.4498,7.3717 -2.8659,3.1491 -6.1243,6.8412 -7.2409,8.2046 -1.9621,2.3956 -4.3589,6.6503 -4.3589,7.7375 0,0.2913 -0.2212,0.5296 -0.4914,0.5296 -0.2704,0 -0.4915,-0.2383 -0.4915,-0.5296 z"
       id="path8493"
       inkscape:connector-curvature="0" />
    <path
       style="fill:#b7b772"
       d="m 3678.608,969.5383 c -0.347,-0.3672 -0.632,-38.9588 -0.632,-85.7589 0,-82.2583 -0.06,-85.1695 -1.802,-87.4482 -1.767,-2.3087 -2.209,-2.3674 -21.489,-2.8564 L 3635,792.9756 V 549.8513 306.7269 l 19.568,-0.4992 c 17.134,-0.4371 19.777,-0.721 21.252,-2.282 1.582,-1.6748 1.713,-6.9885 2.156,-87.8642 L 3678.449,130 h 212.051 212.051 l 0.472,86.0815 c 0.444,80.8757 0.575,86.1894 2.157,87.8642 1.475,1.561 4.117,1.8449 21.252,2.282 l 19.568,0.4992 v 243.1244 243.1243 l -19.568,0.4992 c -17.135,0.4372 -19.777,0.7211 -21.252,2.282 -1.582,1.6749 -1.713,6.9885 -2.157,87.8642 l -0.472,86.0816 -211.655,0.2518 c -116.411,0.1384 -211.939,-0.049 -212.288,-0.4161 z m 420.641,-85.9527 c 0,-81.6793 0.05,-83.6964 1.88,-86.8749 3.8,-6.5887 6.015,-7.2218 25.272,-7.226 h 17.237 V 549.855 310.2252 h -17.237 c -19.257,0 -21.472,-0.6373 -25.272,-7.2259 -1.834,-3.1786 -1.877,-5.1956 -1.88,-86.8749 v -83.6206 h -208.745 -208.745 v 83.6208 c 0,81.6794 -0.05,83.6964 -1.88,86.875 -3.801,6.5886 -6.015,7.2217 -25.272,7.2259 h -17.238 V 549.8552 789.485 h 17.238 c 19.257,0 21.471,0.6373 25.272,7.226 1.833,3.1785 1.877,5.1955 1.88,86.8749 v 83.6205 h 208.745 208.745 z"
       id="path8356"
       inkscape:connector-curvature="0" />
    <path
       inkscape:connector-curvature="0"
       id="path8840"
       d="m 3680.4575,877.33044 -1.2687,-87.43853 -19.8194,-1.43399 -19.8194,-1.43399 V 549.72742 312.4309 l 19.8194,-1.43399 19.8194,-1.43398 1.2687,-87.43853 1.2688,-87.43853 h 207.4179 207.4178 v 83.00831 c 0,58.34417 1.6628,84.67106 5.5961,88.60438 3.0778,3.07783 13.5705,5.59606 23.3169,5.59606 h 17.7209 v 237.8328 237.8328 h -17.7209 c -9.7464,0 -20.2391,2.51823 -23.3169,5.59607 -3.9333,3.93333 -5.5961,30.26021 -5.5961,88.60437 v 83.00831 h -207.4178 -207.4179 z m 74.3165,27.08128 c 9.6293,-8.9711 9.8053,-8.9711 17.924,0 11.8612,13.10645 32.0461,11.6165 43.7223,-3.22739 17.1917,-21.85572 13.6582,-32.40444 -27.6419,-82.52048 -25.4067,-30.83008 -25.7146,-31.02566 -32.6437,-20.73547 -3.8473,5.71353 -16.0512,20.63241 -27.1198,33.15314 -11.0686,12.52073 -22.0892,27.93216 -24.4904,34.24765 -12.7414,33.5125 24.8476,62.74808 50.2495,39.08255 z m 251.4213,0.37447 c 9.0937,-8.47207 9.5869,-8.47207 20.0495,0 15.0742,12.20637 30.612,10.8739 41.9984,-3.60163 16.7252,-21.26263 13.0425,-33.47986 -23.2308,-77.06664 -12.1205,-14.56428 -23.1959,-29.27242 -24.6119,-32.6848 -1.9024,-4.58411 -4.0866,-3.78224 -8.3639,3.0706 -3.1841,5.10119 -14.8095,18.9183 -25.8342,30.70464 -11.0248,11.78634 -23.2707,29.15 -27.2133,38.5859 -6.3849,15.28122 -6.4049,18.63252 -0.1832,30.66397 10.7199,20.73011 31.3889,25.23466 47.3894,10.32796 z M 3796.8115,571.89615 c 27.7036,-31.53387 34.6331,-52.93396 22.926,-70.80119 -10.6425,-16.24257 -23.9773,-18.94411 -41.7496,-8.4582 -14.9941,8.84673 -15.2483,8.84034 -28.0327,-0.70464 -11.9068,-8.88968 -13.8737,-9.08733 -25.5121,-2.56358 -17.5079,9.81387 -25.666,28.09715 -19.6259,43.98392 2.6068,6.85635 16.2689,26.05615 30.3603,42.66623 14.0913,16.61008 25.744,32.7039 25.8948,35.76402 0.1508,3.06011 2.774,1.57501 5.8293,-3.30019 3.0552,-4.8752 16.5147,-21.33908 29.9099,-36.58637 z m 254.4133,-3.0525 c 31.9709,-36.631 35.0619,-61.65329 9.6711,-78.29 -11.6344,-7.62315 -12.9978,-7.55809 -29.3529,1.40048 l -17.1519,9.39497 -12.7572,-9.52465 c -11.762,-8.78159 -13.741,-8.97319 -25.3678,-2.45591 -17.5079,9.81387 -25.666,28.09715 -19.6259,43.98392 2.6068,6.85635 16.2689,26.05615 30.3602,42.66623 14.0914,16.61008 25.7307,32.7039 25.8653,35.76402 0.1345,3.06011 3.8069,0.39499 8.1609,-5.92278 4.354,-6.31768 17.9431,-22.97498 30.1982,-37.01628 z M 3770.1249,307.63903 c 0,-2.34058 10.1802,-16.50562 22.6226,-31.47787 36.7071,-44.17037 40.4667,-56.54061 23.6728,-77.89065 -11.3865,-14.47551 -26.9242,-15.80797 -41.9985,-3.60161 -10.4625,8.47208 -10.9558,8.47208 -20.0495,0 -16.6804,-15.54016 -39.6744,-9.174 -49.1059,13.59549 -7.3103,17.64874 -1.8249,31.20902 24.7111,61.08716 11.5981,13.05875 23.3512,27.97316 26.118,33.14313 5.1289,9.58335 14.0294,12.84702 14.0294,5.14435 z m 251.8229,0 c 0,-2.34058 10.1802,-16.50562 22.6227,-31.47787 36.7071,-44.17037 40.4667,-56.54061 23.6727,-77.89065 -11.3864,-14.47551 -26.9242,-15.80797 -41.9984,-3.60161 -10.4626,8.47208 -10.9558,8.47208 -20.0495,0 -16.3464,-15.22898 -38.0985,-10.1105 -46.9998,11.05952 -8.4796,20.16695 -4.0758,33.00354 21.2515,61.94647 12.5126,14.29892 24.9444,30.09792 27.6262,35.10889 5.0047,9.35122 13.8746,12.45517 13.8746,4.85525 z"
       style="fill:#feefd3;fill-opacity:1;stroke:#fffecd;stroke-width:1.65238;stroke-miterlimit:4;stroke-dasharray:none;stroke-opacity:1" />
    <path
       style="fill:#d40000"
       d="m 3762.7179,310.63208 c 0,-2.8086 -6.2526,-13.7998 -11.3709,-19.9885 -2.9129,-3.5222 -11.4131,-13.0599 -18.8894,-21.1951 -7.4763,-8.1352 -15.0479,-16.7048 -16.8257,-19.0437 -4.5819,-6.0275 -9.7652,-16.9084 -11.0498,-23.1958 -2.8873,-14.1315 5.2323,-30.3156 18.4556,-36.7858 5.181,-2.5351 5.9164,-2.6676 12.3693,-2.228 6.0681,0.4134 7.5403,0.8687 12.7434,3.941 5.901,3.4844 11.9557,9.5204 13.9288,13.8857 1.3388,2.9619 2.5027,2.9619 3.8415,0 1.9731,-4.3653 8.0278,-10.4013 13.9288,-13.8857 5.2031,-3.0723 6.6753,-3.5276 12.7434,-3.941 6.4529,-0.4396 7.1883,-0.3071 12.3694,2.228 13.2233,6.4702 21.3429,22.6543 18.4556,36.7858 -1.2847,6.2874 -6.468,17.1683 -11.0498,23.1958 -1.7779,2.3389 -9.3495,10.9085 -16.8258,19.0437 -7.4763,8.1352 -15.9765,17.6729 -18.8894,21.1951 -5.1183,6.1887 -11.3709,17.1799 -11.3709,19.9885 0,0.7525 -0.5769,1.3682 -1.282,1.3682 -0.7052,0 -1.2821,-0.6157 -1.2821,-1.3682 z"
       id="path8435"
       inkscape:connector-curvature="0" />
    <path
       inkscape:connector-curvature="0"
       id="path8437"
       d="m 4014.7179,310.63208 c 0,-2.8086 -6.2526,-13.7998 -11.3709,-19.9885 -2.9129,-3.5222 -11.4131,-13.0599 -18.8894,-21.1951 -7.4763,-8.1352 -15.0479,-16.7048 -16.8257,-19.0437 -4.5819,-6.0275 -9.7652,-16.9084 -11.0498,-23.1958 -2.8873,-14.1315 5.2323,-30.3156 18.4556,-36.7858 5.181,-2.5351 5.9164,-2.6676 12.3693,-2.228 6.0681,0.4134 7.5403,0.8687 12.7434,3.941 5.901,3.4844 11.9557,9.5204 13.9288,13.8857 1.3388,2.9619 2.5027,2.9619 3.8415,0 1.9731,-4.3653 8.0278,-10.4013 13.9288,-13.8857 5.2031,-3.0723 6.6753,-3.5276 12.7434,-3.941 6.4529,-0.4396 7.1883,-0.3071 12.3694,2.228 13.2233,6.4702 21.3429,22.6543 18.4556,36.7858 -1.2847,6.2874 -6.468,17.1683 -11.0498,23.1958 -1.7779,2.3389 -9.3495,10.9085 -16.8258,19.0437 -7.4763,8.1352 -15.9765,17.6729 -18.8894,21.1951 -5.1183,6.1887 -11.3709,17.1799 -11.3709,19.9885 0,0.7525 -0.5769,1.3682 -1.282,1.3682 -0.7052,0 -1.2821,-0.6157 -1.2821,-1.3682 z"
       style="fill:#d40000" />
    <path
       inkscape:connector-curvature="0"
       id="path8439"
       d="m 3762.7179,610.63208 c 0,-2.8086 -6.2526,-13.7998 -11.3709,-19.9885 -2.9129,-3.5222 -11.4131,-13.0599 -18.8894,-21.1951 -7.4763,-8.1352 -15.0479,-16.7048 -16.8257,-19.0437 -4.5819,-6.0275 -9.7652,-16.9084 -11.0498,-23.1958 -2.8873,-14.1315 5.2323,-30.3156 18.4556,-36.7858 5.181,-2.5351 5.9164,-2.6676 12.3693,-2.228 6.0681,0.4134 7.5403,0.8687 12.7434,3.941 5.901,3.4844 11.9557,9.5204 13.9288,13.8857 1.3388,2.9619 2.5027,2.9619 3.8415,0 1.9731,-4.3653 8.0278,-10.4013 13.9288,-13.8857 5.2031,-3.0723 6.6753,-3.5276 12.7434,-3.941 6.4529,-0.4396 7.1883,-0.3071 12.3694,2.228 13.2233,6.4702 21.3429,22.6543 18.4556,36.7858 -1.2847,6.2874 -6.468,17.1683 -11.0498,23.1958 -1.7779,2.3389 -9.3495,10.9085 -16.8258,19.0437 -7.4763,8.1352 -15.9765,17.6729 -18.8894,21.1951 -5.1183,6.1887 -11.3709,17.1799 -11.3709,19.9885 0,0.7525 -0.5769,1.3682 -1.282,1.3682 -0.7052,0 -1.2821,-0.6157 -1.2821,-1.3682 z"
       style="fill:#d40000" />
    <path
       style="fill:#d40000"
       d="m 4014.7179,610.63208 c 0,-2.8086 -6.2526,-13.7998 -11.3709,-19.9885 -2.9129,-3.5222 -11.4131,-13.0599 -18.8894,-21.1951 -7.4763,-8.1352 -15.0479,-16.7048 -16.8257,-19.0437 -4.5819,-6.0275 -9.7652,-16.9084 -11.0498,-23.1958 -2.8873,-14.1315 5.2323,-30.3156 18.4556,-36.7858 5.181,-2.5351 5.9164,-2.6676 12.3693,-2.228 6.0681,0.4134 7.5403,0.8687 12.7434,3.941 5.901,3.4844 11.9557,9.5204 13.9288,13.8857 1.3388,2.9619 2.5027,2.9619 3.8415,0 1.9731,-4.3653 8.0278,-10.4013 13.9288,-13.8857 5.2031,-3.0723 6.6753,-3.5276 12.7434,-3.941 6.4529,-0.4396 7.1883,-0.3071 12.3694,2.228 13.2233,6.4702 21.3429,22.6543 18.4556,36.7858 -1.2847,6.2874 -6.468,17.1683 -11.0498,23.1958 -1.7779,2.3389 -9.3495,10.9085 -16.8258,19.0437 -7.4763,8.1352 -15.9765,17.6729 -18.8894,21.1951 -5.1183,6.1887 -11.3709,17.1799 -11.3709,19.9885 0,0.7525 -0.5769,1.3682 -1.282,1.3682 -0.7052,0 -1.2821,-0.6157 -1.2821,-1.3682 z"
       id="path8441-9"
       inkscape:connector-curvature="0" />
    <path
       inkscape:connector-curvature="0"
       id="path8443-5"
       d="m 3762.7179,789.36848 c 0,2.8086 -6.2526,13.7998 -11.3709,19.9885 -2.9129,3.5222 -11.4131,13.0599 -18.8894,21.1951 -7.4763,8.1352 -15.0479,16.7048 -16.8257,19.0437 -4.5819,6.0275 -9.7652,16.9084 -11.0498,23.1958 -2.8873,14.1315 5.2323,30.3156 18.4556,36.7858 5.181,2.5351 5.9164,2.6676 12.3693,2.228 6.0681,-0.4134 7.5403,-0.8687 12.7434,-3.941 5.901,-3.4844 11.9557,-9.5204 13.9288,-13.8857 1.3388,-2.9619 2.5027,-2.9619 3.8415,0 1.9731,4.3653 8.0278,10.4013 13.9288,13.8857 5.2031,3.0723 6.6753,3.5276 12.7434,3.941 6.4529,0.4396 7.1883,0.3071 12.3694,-2.228 13.2233,-6.4702 21.3429,-22.6543 18.4556,-36.7858 -1.2847,-6.2874 -6.468,-17.1683 -11.0498,-23.1958 -1.7779,-2.3389 -9.3495,-10.9085 -16.8258,-19.0437 -7.4763,-8.1352 -15.9765,-17.6729 -18.8894,-21.1951 -5.1183,-6.1887 -11.3709,-17.1799 -11.3709,-19.9885 0,-0.7525 -0.5769,-1.3682 -1.282,-1.3682 -0.7052,0 -1.2821,0.6157 -1.2821,1.3682 z"
       style="fill:#d40000" />
    <path
       style="fill:#d40000"
       d="m 4014.7179,789.36848 c 0,2.8086 -6.2526,13.7998 -11.3709,19.9885 -2.9129,3.5222 -11.4131,13.0599 -18.8894,21.1951 -7.4763,8.1352 -15.0479,16.7048 -16.8257,19.0437 -4.5819,6.0275 -9.7652,16.9084 -11.0498,23.1958 -2.8873,14.1315 5.2323,30.3156 18.4556,36.7858 5.181,2.5351 5.9164,2.6676 12.3693,2.228 6.0681,-0.4134 7.5403,-0.8687 12.7434,-3.941 5.901,-3.4844 11.9557,-9.5204 13.9288,-13.8857 1.3388,-2.9619 2.5027,-2.9619 3.8415,0 1.9731,4.3653 8.0278,10.4013 13.9288,13.8857 5.2031,3.0723 6.6753,3.5276 12.7434,3.941 6.4529,0.4396 7.1883,0.3071 12.3694,-2.228 13.2233,-6.4702 21.3429,-22.6543 18.4556,-36.7858 -1.2847,-6.2874 -6.468,-17.1683 -11.0498,-23.1958 -1.7779,-2.3389 -9.3495,-10.9085 -16.8258,-19.0437 -7.4763,-8.1352 -15.9765,-17.6729 -18.8894,-21.1951 -5.1183,-6.1887 -11.3709,-17.1799 -11.3709,-19.9885 0,-0.7525 -0.5769,-1.3682 -1.282,-1.3682 -0.7052,0 -1.2821,0.6157 -1.2821,1.3682 z"
       id="path8445-0"
       inkscape:connector-curvature="0" />
    <path
       style="fill:#d40000"
       d="m 3645.5085,816.52988 c 0,1.0872 -2.3969,5.3419 -4.3588,7.7375 -1.1166,1.3634 -4.375,5.0555 -7.241,8.2046 -2.8659,3.1491 -5.7684,6.4663 -6.4498,7.3717 -1.7564,2.3332 -3.7433,6.5452 -4.2358,8.979 -1.1067,5.4703 2.0057,11.7351 7.0746,14.2397 1.9862,0.9813 2.268,1.0326 4.7416,0.8624 2.3262,-0.16 2.8905,-0.3362 4.885,-1.5255 2.262,-1.3488 4.583,-3.6853 5.3394,-5.3751 0.5132,-1.1466 0.9593,-1.1466 1.4726,0 0.7563,1.6898 3.0772,4.0263 5.3393,5.3751 1.9945,1.1893 2.5589,1.3655 4.885,1.5255 2.4736,0.1702 2.7555,0.1189 4.7416,-0.8624 5.069,-2.5046 8.1814,-8.7694 7.0747,-14.2397 -0.4925,-2.4338 -2.4795,-6.6458 -4.2359,-8.979 -0.6815,-0.9054 -3.5839,-4.2226 -6.4498,-7.3717 -2.8659,-3.1491 -6.1243,-6.8412 -7.2409,-8.2046 -1.9621,-2.3956 -4.3589,-6.6503 -4.3589,-7.7375 0,-0.2913 -0.2212,-0.5296 -0.4914,-0.5296 -0.2704,0 -0.4915,0.2383 -0.4915,0.5296 z"
       id="path4987"
       inkscape:connector-curvature="0" />
    <path
       inkscape:connector-curvature="0"
       id="path4989"
       d="m 4133.5085,816.52988 c 0,1.0872 -2.3969,5.3419 -4.3588,7.7375 -1.1166,1.3634 -4.375,5.0555 -7.241,8.2046 -2.8659,3.1491 -5.7684,6.4663 -6.4498,7.3717 -1.7564,2.3332 -3.7433,6.5452 -4.2358,8.979 -1.1067,5.4703 2.0057,11.7351 7.0746,14.2397 1.9862,0.9813 2.268,1.0326 4.7416,0.8624 2.3262,-0.16 2.8905,-0.3362 4.885,-1.5255 2.262,-1.3488 4.583,-3.6853 5.3394,-5.3751 0.5132,-1.1466 0.9593,-1.1466 1.4726,0 0.7563,1.6898 3.0772,4.0263 5.3393,5.3751 1.9945,1.1893 2.5589,1.3655 4.885,1.5255 2.4736,0.1702 2.7555,0.1189 4.7416,-0.8624 5.069,-2.5046 8.1814,-8.7694 7.0747,-14.2397 -0.4925,-2.4338 -2.4795,-6.6458 -4.2359,-8.979 -0.6815,-0.9054 -3.5839,-4.2226 -6.4498,-7.3717 -2.8659,-3.1491 -6.1243,-6.8412 -7.2409,-8.2046 -1.9621,-2.3956 -4.3589,-6.6503 -4.3589,-7.7375 0,-0.2913 -0.2212,-0.5296 -0.4914,-0.5296 -0.2704,0 -0.4915,0.2383 -0.4915,0.5296 z"
       style="fill:#d40000" />
  </g>
</svg>
