<?xml version="1.0" encoding="UTF-8" standalone="no"?>
<!-- Created with Inkscape (http://www.inkscape.org/) -->

<svg
   id="svg10047"
   height="123.00012"
   width="78.999786"
   version="1.1"
   viewBox="0 0 78.999786 123.00012"
   inkscape:version="0.91 r13725"
   sodipodi:docname="kaiser-jubilaum.svgz"
   xmlns:inkscape="http://www.inkscape.org/namespaces/inkscape"
   xmlns:sodipodi="http://sodipodi.sourceforge.net/DTD/sodipodi-0.dtd"
   xmlns="http://www.w3.org/2000/svg"
   xmlns:svg="http://www.w3.org/2000/svg"
   xmlns:rdf="http://www.w3.org/1999/02/22-rdf-syntax-ns#"
   xmlns:cc="http://creativecommons.org/ns#"
   xmlns:dc="http://purl.org/dc/elements/1.1/">
  <sodipodi:namedview
     pagecolor="#ffffff"
     bordercolor="#666666"
     borderopacity="1"
     objecttolerance="10"
     gridtolerance="10"
     guidetolerance="10"
     inkscape:pageopacity="0"
     inkscape:pageshadow="2"
     inkscape:window-width="1920"
     inkscape:window-height="1016"
     id="namedview1491"
     showgrid="false"
     inkscape:zoom="1.3479675"
     inkscape:cx="513.49999"
     inkscape:cy="307.5"
     inkscape:window-x="0"
     inkscape:window-y="0"
     inkscape:window-maximized="1"
     inkscape:current-layer="svg10047"
     showguides="true"
     inkscape:guide-bbox="true"
     inkscape:snap-grids="true"
     inkscape:showpageshadow="2"
     inkscape:pagecheckerboard="0"
     inkscape:deskcolor="#d1d1d1" />
  <metadata
     id="metadata16869">
    <rdf:RDF>
      <cc:Work
         rdf:about="">
        <dc:format>image/svg+xml</dc:format>
        <dc:type
           rdf:resource="http://purl.org/dc/dcmitype/StillImage" />
        <dc:title />
      </cc:Work>
    </rdf:RDF>
  </metadata>
  <defs
     id="defs10049" />
  <g
     id="heart_3"
     inkscape:label="#heart_3"
     transform="matrix(0.13620652,0,0,0.13666689,-204.30978,-13.666689)">
    <rect
       width="578.00104"
       height="898.00043"
       rx="48.210754"
       ry="49.888176"
       x="1500.9995"
       y="100.99949"
       id="rect7755"
       style="font-style:normal;font-variant:normal;font-weight:500;font-stretch:normal;font-size:medium;line-height:125%;font-family:Gaelic;-inkscape-font-specification:'Gaelic Medium';letter-spacing:0px;word-spacing:0px;fill:#ffffff;fill-opacity:1;stroke:#000000;stroke-width:1.99898;stroke-linecap:butt;stroke-linejoin:miter;stroke-miterlimit:4;stroke-dasharray:none;stroke-opacity:1" />
    <ellipse
       ry="10.641262"
       rx="10.638906"
       transform="scale(-1)"
       cy="-803.39795"
       cx="-2013.2233"
       id="ellipse7773"
       style="fill:#ffffff;fill-opacity:1;stroke:#0c0000;stroke-width:2.70753;stroke-miterlimit:4;stroke-dasharray:none;stroke-opacity:0" />
    <ellipse
       ry="10.641262"
       rx="10.638906"
       style="fill:#ffffff;fill-opacity:1;stroke:#0c0000;stroke-width:2.70753;stroke-miterlimit:4;stroke-dasharray:none;stroke-opacity:0"
       id="ellipse7825"
       cx="1566.3856"
       cy="-803.39795"
       transform="scale(1,-1)" />
    <path
       style="font-style:normal;font-variant:normal;font-weight:normal;font-stretch:normal;font-size:medium;line-height:125%;font-family:Rockwell;-inkscape-font-specification:Rockwell;letter-spacing:0px;word-spacing:0px;fill:#d40000;fill-opacity:1;stroke:none;stroke-width:1px;stroke-linecap:butt;stroke-linejoin:miter;stroke-opacity:1"
       d="m 1540.6709,175.09448 v -9.5889 q 6.1024,0 8.861,-0.9478 2.8004,-0.9477 4.3469,-3.7351 1.5465,-2.8432 1.5465,-7.1359 0,-5.1846 -2.2988,-8.9199 -2.2571,-3.7351 -6.7294,-3.7351 -4.9321,0 -7.1891,3.9581 -2.2571,3.9025 -2.466,11.7073 h -8.0669 q 0,-13.3798 4.9321,-19.0104 4.9738,-5.6865 12.163,-5.6865 8.7356,0 13.1661,5.7422 4.4305,5.7422 4.4305,14.662 0,6.5785 -2.5496,11.0941 -2.5079,4.5157 -5.6845,6.4112 10.8673,4.2926 10.8673,18.5087 0,11.8187 -5.977,17.7281 -5.9352,5.8537 -13.9603,5.8537 -10.2403,0 -15.1724,-7.3032 -4.8903,-7.303 -4.8903,-20.1811 h 7.6908 q 0.2089,8.9199 3.6363,13.6585 3.4692,4.6829 9.1954,4.6829 5.2247,0 8.1923,-3.8466 3.0094,-3.9025 3.0094,-9.8119 0,-6.1881 -3.511,-10.1463 -3.511,-4.014 -11.2017,-4.014 -1.0031,0 -2.3406,0.056 z"
       id="path7901-7"
       inkscape:connector-curvature="0" />
    <path
       style="font-style:normal;font-variant:normal;font-weight:normal;font-stretch:normal;font-size:medium;line-height:125%;font-family:Rockwell;-inkscape-font-specification:Rockwell;letter-spacing:0px;word-spacing:0px;fill:#d40000;fill-opacity:1;stroke:none;stroke-width:1px;stroke-linecap:butt;stroke-linejoin:miter;stroke-opacity:1"
       inkscape:connector-curvature="0"
       id="path7905"
       d="m 2028.6709,175.09448 v -9.5889 q 6.1024,0 8.861,-0.9478 2.8004,-0.9477 4.3469,-3.7351 1.5465,-2.8432 1.5465,-7.1359 0,-5.1846 -2.2988,-8.9199 -2.2571,-3.7351 -6.7294,-3.7351 -4.9321,0 -7.1891,3.9581 -2.2571,3.9025 -2.466,11.7073 h -8.0669 q 0,-13.3798 4.9321,-19.0104 4.9738,-5.6865 12.163,-5.6865 8.7356,0 13.1661,5.7422 4.4305,5.7422 4.4305,14.662 0,6.5785 -2.5496,11.0941 -2.5079,4.5157 -5.6845,6.4112 10.8673,4.2926 10.8673,18.5087 0,11.8187 -5.977,17.7281 -5.9352,5.8537 -13.9603,5.8537 -10.2403,0 -15.1724,-7.3032 -4.8903,-7.303 -4.8903,-20.1811 h 7.6908 q 0.2089,8.9199 3.6363,13.6585 3.4692,4.6829 9.1954,4.6829 5.2247,0 8.1923,-3.8466 3.0094,-3.9025 3.0094,-9.8119 0,-6.1881 -3.511,-10.1463 -3.511,-4.014 -11.2017,-4.014 -1.0031,0 -2.3406,0.056 z" />
    <path
       style="font-style:normal;font-variant:normal;font-weight:normal;font-stretch:normal;font-size:medium;line-height:125%;font-family:Rockwell;-inkscape-font-specification:Rockwell;letter-spacing:0px;word-spacing:0px;fill:#d40000;fill-opacity:1;stroke:none;stroke-width:1px;stroke-linecap:butt;stroke-linejoin:miter;stroke-opacity:1"
       inkscape:connector-curvature="0"
       id="path8147"
       d="m 1551.3292,924.80618 v 9.5889 q -6.1024,0 -8.861,0.9478 -2.8004,0.9477 -4.3469,3.7351 -1.5465,2.8432 -1.5465,7.1359 0,5.1846 2.2988,8.9199 2.2571,3.7351 6.7294,3.7351 4.9321,0 7.1891,-3.9581 2.2571,-3.9025 2.466,-11.7073 h 8.0669 q 0,13.3798 -4.9321,19.0104 -4.9738,5.6865 -12.163,5.6865 -8.7356,0 -13.1661,-5.7422 -4.4305,-5.7422 -4.4305,-14.662 0,-6.5785 2.5496,-11.0941 2.5079,-4.5157 5.6845,-6.4112 -10.8673,-4.2926 -10.8673,-18.5087 0,-11.8187 5.977,-17.7281 5.9352,-5.8537 13.9603,-5.8537 10.2403,0 15.1724,7.3032 4.8903,7.303 4.8903,20.1811 h -7.6908 q -0.2089,-8.9199 -3.6363,-13.6585 -3.4692,-4.6829 -9.1954,-4.6829 -5.2247,0 -8.1923,3.8466 -3.0094,3.9025 -3.0094,9.8119 0,6.1881 3.511,10.1463 3.511,4.014 11.2017,4.014 1.0031,0 2.3406,-0.056 z" />
    <path
       style="font-style:normal;font-variant:normal;font-weight:normal;font-stretch:normal;font-size:medium;line-height:125%;font-family:Rockwell;-inkscape-font-specification:Rockwell;letter-spacing:0px;word-spacing:0px;fill:#d40000;fill-opacity:1;stroke:none;stroke-width:1px;stroke-linecap:butt;stroke-linejoin:miter;stroke-opacity:1"
       d="m 2039.3292,924.80618 v 9.5889 q -6.1024,0 -8.861,0.9478 -2.8004,0.9477 -4.3469,3.7351 -1.5465,2.8432 -1.5465,7.1359 0,5.1846 2.2988,8.9199 2.2571,3.7351 6.7294,3.7351 4.9321,0 7.1891,-3.9581 2.2571,-3.9025 2.466,-11.7073 h 8.0669 q 0,13.3798 -4.9321,19.0104 -4.9738,5.6865 -12.163,5.6865 -8.7356,0 -13.1661,-5.7422 -4.4305,-5.7422 -4.4305,-14.662 0,-6.5785 2.5496,-11.0941 2.5079,-4.5157 5.6845,-6.4112 -10.8673,-4.2926 -10.8673,-18.5087 0,-11.8187 5.977,-17.7281 5.9352,-5.8537 13.9603,-5.8537 10.2403,0 15.1724,7.3032 4.8903,7.303 4.8903,20.1811 h -7.6908 q -0.2089,-8.9199 -3.6363,-13.6585 -3.4692,-4.6829 -9.1954,-4.6829 -5.2247,0 -8.1923,3.8466 -3.0094,3.9025 -3.0094,9.8119 0,6.1881 3.511,10.1463 3.511,4.014 11.2017,4.014 1.0031,0 2.3406,-0.056 z"
       id="path8151"
       inkscape:connector-curvature="0" />
    <path
       style="fill:#d40000"
       d="m 1545.5085,283.47068 c 0,-1.0872 -2.3969,-5.3419 -4.3588,-7.7375 -1.1166,-1.3634 -4.375,-5.0555 -7.241,-8.2046 -2.8659,-3.1491 -5.7684,-6.4663 -6.4498,-7.3717 -1.7564,-2.3332 -3.7433,-6.5452 -4.2358,-8.979 -1.1067,-5.4703 2.0057,-11.7351 7.0746,-14.2397 1.9862,-0.9813 2.268,-1.0326 4.7416,-0.8624 2.3262,0.16 2.8905,0.3362 4.885,1.5255 2.262,1.3488 4.583,3.6853 5.3394,5.3751 0.5132,1.1466 0.9593,1.1466 1.4726,0 0.7563,-1.6898 3.0772,-4.0263 5.3393,-5.3751 1.9945,-1.1893 2.5589,-1.3655 4.885,-1.5255 2.4736,-0.1702 2.7555,-0.1189 4.7416,0.8624 5.069,2.5046 8.1814,8.7694 7.0747,14.2397 -0.4925,2.4338 -2.4795,6.6458 -4.2359,8.979 -0.6815,0.9054 -3.5839,4.2226 -6.4498,7.3717 -2.8659,3.1491 -6.1243,6.8412 -7.2409,8.2046 -1.9621,2.3956 -4.3589,6.6503 -4.3589,7.7375 0,0.2913 -0.2212,0.5296 -0.4914,0.5296 -0.2704,0 -0.4915,-0.2383 -0.4915,-0.5296 z"
       id="path8487"
       inkscape:connector-curvature="0" />
    <path
       inkscape:connector-curvature="0"
       id="path8489"
       d="m 2033.5085,283.47068 c 0,-1.0872 -2.3969,-5.3419 -4.3588,-7.7375 -1.1166,-1.3634 -4.375,-5.0555 -7.241,-8.2046 -2.8659,-3.1491 -5.7684,-6.4663 -6.4498,-7.3717 -1.7564,-2.3332 -3.7433,-6.5452 -4.2358,-8.979 -1.1067,-5.4703 2.0057,-11.7351 7.0746,-14.2397 1.9862,-0.9813 2.268,-1.0326 4.7416,-0.8624 2.3262,0.16 2.8905,0.3362 4.885,1.5255 2.262,1.3488 4.583,3.6853 5.3394,5.3751 0.5132,1.1466 0.9593,1.1466 1.4726,0 0.7563,-1.6898 3.0772,-4.0263 5.3393,-5.3751 1.9945,-1.1893 2.5589,-1.3655 4.885,-1.5255 2.4736,-0.1702 2.7555,-0.1189 4.7416,0.8624 5.069,2.5046 8.1814,8.7694 7.0747,14.2397 -0.4925,2.4338 -2.4795,6.6458 -4.2359,8.979 -0.6815,0.9054 -3.5839,4.2226 -6.4498,7.3717 -2.8659,3.1491 -6.1243,6.8412 -7.2409,8.2046 -1.9621,2.3956 -4.3589,6.6503 -4.3589,7.7375 0,0.2913 -0.2212,0.5296 -0.4914,0.5296 -0.2704,0 -0.4915,-0.2383 -0.4915,-0.5296 z"
       style="fill:#d40000" />
    <path
       inkscape:connector-curvature="0"
       id="path8539"
       d="m 1545.5085,816.52988 c 0,1.0872 -2.3969,5.3419 -4.3588,7.7375 -1.1166,1.3634 -4.375,5.0555 -7.241,8.2046 -2.8659,3.1491 -5.7684,6.4663 -6.4498,7.3717 -1.7564,2.3332 -3.7433,6.5452 -4.2358,8.979 -1.1067,5.4703 2.0057,11.7351 7.0746,14.2397 1.9862,0.9813 2.268,1.0326 4.7416,0.8624 2.3262,-0.16 2.8905,-0.3362 4.885,-1.5255 2.262,-1.3488 4.583,-3.6853 5.3394,-5.3751 0.5132,-1.1466 0.9593,-1.1466 1.4726,0 0.7563,1.6898 3.0772,4.0263 5.3393,5.3751 1.9945,1.1893 2.5589,1.3655 4.885,1.5255 2.4736,0.1702 2.7555,0.1189 4.7416,-0.8624 5.069,-2.5046 8.1814,-8.7694 7.0747,-14.2397 -0.4925,-2.4338 -2.4795,-6.6458 -4.2359,-8.979 -0.6815,-0.9054 -3.5839,-4.2226 -6.4498,-7.3717 -2.8659,-3.1491 -6.1243,-6.8412 -7.2409,-8.2046 -1.9621,-2.3956 -4.3589,-6.6503 -4.3589,-7.7375 0,-0.2913 -0.2212,-0.5296 -0.4914,-0.5296 -0.2704,0 -0.4915,0.2383 -0.4915,0.5296 z"
       style="fill:#d40000" />
    <path
       style="fill:#d40000"
       d="m 2033.5085,816.52988 c 0,1.0872 -2.3969,5.3419 -4.3588,7.7375 -1.1166,1.3634 -4.375,5.0555 -7.241,8.2046 -2.8659,3.1491 -5.7684,6.4663 -6.4498,7.3717 -1.7564,2.3332 -3.7433,6.5452 -4.2358,8.979 -1.1067,5.4703 2.0057,11.7351 7.0746,14.2397 1.9862,0.9813 2.268,1.0326 4.7416,0.8624 2.3262,-0.16 2.8905,-0.3362 4.885,-1.5255 2.262,-1.3488 4.583,-3.6853 5.3394,-5.3751 0.5132,-1.1466 0.9593,-1.1466 1.4726,0 0.7563,1.6898 3.0772,4.0263 5.3393,5.3751 1.9945,1.1893 2.5589,1.3655 4.885,1.5255 2.4736,0.1702 2.7555,0.1189 4.7416,-0.8624 5.069,-2.5046 8.1814,-8.7694 7.0747,-14.2397 -0.4925,-2.4338 -2.4795,-6.6458 -4.2359,-8.979 -0.6815,-0.9054 -3.5839,-4.2226 -6.4498,-7.3717 -2.8659,-3.1491 -6.1243,-6.8412 -7.2409,-8.2046 -1.9621,-2.3956 -4.3589,-6.6503 -4.3589,-7.7375 0,-0.2913 -0.2212,-0.5296 -0.4914,-0.5296 -0.2704,0 -0.4915,0.2383 -0.4915,0.5296 z"
       id="path8541"
       inkscape:connector-curvature="0" />
    <path
       inkscape:connector-curvature="0"
       id="path8362"
       d="m 1578.608,969.5383 c -0.347,-0.3672 -0.632,-38.9588 -0.632,-85.7589 0,-82.2583 -0.06,-85.1695 -1.802,-87.4482 -1.767,-2.3087 -2.209,-2.3674 -21.489,-2.8564 L 1535,792.9756 V 549.8513 306.7269 l 19.568,-0.4992 c 17.134,-0.4371 19.777,-0.721 21.252,-2.282 1.582,-1.6748 1.713,-6.9885 2.156,-87.8642 L 1578.449,130 h 212.051 212.051 l 0.472,86.0815 c 0.444,80.8757 0.575,86.1894 2.157,87.8642 1.475,1.561 4.117,1.8449 21.252,2.282 l 19.568,0.4992 v 243.1244 243.1243 l -19.568,0.4992 c -17.135,0.4372 -19.777,0.7211 -21.252,2.282 -1.582,1.6749 -1.713,6.9885 -2.157,87.8642 l -0.472,86.0816 -211.655,0.2518 c -116.411,0.1384 -211.939,-0.049 -212.288,-0.4161 z m 420.641,-85.9527 c 0,-81.6793 0.05,-83.6964 1.88,-86.8749 3.8,-6.5887 6.015,-7.2218 25.272,-7.226 h 17.237 V 549.855 310.2252 h -17.237 c -19.257,0 -21.472,-0.6373 -25.272,-7.2259 -1.834,-3.1786 -1.877,-5.1956 -1.88,-86.8749 v -83.6206 h -208.745 -208.745 v 83.6208 c 0,81.6794 -0.05,83.6964 -1.88,86.875 -3.801,6.5886 -6.015,7.2217 -25.272,7.2259 h -17.238 V 549.8552 789.485 h 17.238 c 19.257,0 21.471,0.6373 25.272,7.226 1.833,3.1785 1.877,5.1955 1.88,86.8749 v 83.6205 h 208.745 208.745 z"
       style="fill:#b7b772" />
    <path
       inkscape:connector-curvature="0"
       id="path8833"
       d="m 1582.9958,881.76066 c 0,-90.90179 -0.9308,-94.20044 -26.5813,-94.20044 h -15.3892 v -237.8328 -237.8328 h 13.6088 c 29.097,0 28.3617,2.37044 28.3617,-91.435 v -85.77375 h 207.5208 207.5208 v 85.77375 c 0,93.80544 -0.7353,91.435 28.3617,91.435 h 13.6088 v 237.8328 237.8328 h -15.3892 c -25.6505,0 -26.5813,3.29865 -26.5813,94.20044 v 83.00831 h -207.5208 -207.5208 z m 197.9526,22.65106 c 8.1187,-8.9711 8.2946,-8.9711 17.9239,0 18.4736,17.2107 43.9558,8.78545 51.8355,-17.13856 4.3156,-14.1982 -3.1224,-30.22626 -26.0764,-56.19164 -11.0685,-12.52073 -23.2724,-27.46194 -27.1197,-33.20276 -6.9498,-10.37021 -7.1461,-10.25274 -30.3121,18.13727 -43.7345,53.59706 -47.1573,63.32265 -29.9735,85.1683 11.6762,14.84389 31.8611,16.33384 43.7223,3.22739 z m 42.8404,-333.91356 c 25.4204,-30.11342 31.8264,-46.30956 24.9155,-62.99377 -9.0891,-21.9431 -42.1171,-27.5315 -53.5343,-9.0581 -2.3059,3.73097 -5.48,3.24357 -10.9456,-1.68072 -15.2398,-13.73039 -31.8732,-14.22293 -44.7704,-1.32573 -6.5412,6.54123 -11.8932,16.82399 -11.8932,22.85059 0,12.36631 21.1974,47.66093 37.0789,61.738 5.7804,5.12368 13.6127,15.31603 17.4051,22.64967 l 6.8952,13.33388 7.4923,-10.99118 c 4.1208,-6.04515 16.4312,-21.58034 27.3565,-34.52264 z m 3.253,-304.69636 c 9.845,-11.37507 19.8229,-25.73924 22.1729,-31.92038 12.4554,-32.7601 -26.6742,-63.65156 -49.1573,-38.80801 -8.1446,8.99973 -8.3611,8.99084 -21.7293,-0.89274 -16.4389,-12.15382 -35.0992,-7.70893 -45.5108,10.84074 -9.7562,17.38179 -4.4818,30.63964 28.3221,71.19132 l 29.1946,36.08983 9.4038,-12.90941 c 5.1721,-7.10017 17.4589,-22.21628 27.304,-33.59135 z"
       style="fill:#feefd3;fill-opacity:1;stroke:#fffecd;stroke-width:1.65238;stroke-miterlimit:4;stroke-dasharray:none;stroke-opacity:1" />
    <path
       style="fill:#d40000"
       d="m 1788.7179,310.63208 c 0,-2.8086 -6.2526,-13.7998 -11.3709,-19.9885 -2.9129,-3.5222 -11.4131,-13.0599 -18.8894,-21.1951 -7.4763,-8.1352 -15.0479,-16.7048 -16.8257,-19.0437 -4.5819,-6.0275 -9.7652,-16.9084 -11.0498,-23.1958 -2.8873,-14.1315 5.2323,-30.3156 18.4556,-36.7858 5.181,-2.5351 5.9164,-2.6676 12.3693,-2.228 6.0681,0.4134 7.5403,0.8687 12.7434,3.941 5.901,3.4844 11.9557,9.5204 13.9288,13.8857 1.3388,2.9619 2.5027,2.9619 3.8415,0 1.9731,-4.3653 8.0278,-10.4013 13.9288,-13.8857 5.2031,-3.0723 6.6753,-3.5276 12.7434,-3.941 6.4529,-0.4396 7.1883,-0.3071 12.3694,2.228 13.2233,6.4702 21.3429,22.6543 18.4556,36.7858 -1.2847,6.2874 -6.468,17.1683 -11.0498,23.1958 -1.7779,2.3389 -9.3495,10.9085 -16.8258,19.0437 -7.4763,8.1352 -15.9765,17.6729 -18.8894,21.1951 -5.1183,6.1887 -11.3709,17.1799 -11.3709,19.9885 0,0.7525 -0.5769,1.3682 -1.282,1.3682 -0.7052,0 -1.2821,-0.6157 -1.2821,-1.3682 z"
       id="path8465"
       inkscape:connector-curvature="0" />
    <path
       inkscape:connector-curvature="0"
       id="path8467"
       d="m 1788.7179,610.63208 c 0,-2.8086 -6.2526,-13.7998 -11.3709,-19.9885 -2.9129,-3.5222 -11.4131,-13.0599 -18.8894,-21.1951 -7.4763,-8.1352 -15.0479,-16.7048 -16.8257,-19.0437 -4.5819,-6.0275 -9.7652,-16.9084 -11.0498,-23.1958 -2.8873,-14.1315 5.2323,-30.3156 18.4556,-36.7858 5.181,-2.5351 5.9164,-2.6676 12.3693,-2.228 6.0681,0.4134 7.5403,0.8687 12.7434,3.941 5.901,3.4844 11.9557,9.5204 13.9288,13.8857 1.3388,2.9619 2.5027,2.9619 3.8415,0 1.9731,-4.3653 8.0278,-10.4013 13.9288,-13.8857 5.2031,-3.0723 6.6753,-3.5276 12.7434,-3.941 6.4529,-0.4396 7.1883,-0.3071 12.3694,2.228 13.2233,6.4702 21.3429,22.6543 18.4556,36.7858 -1.2847,6.2874 -6.468,17.1683 -11.0498,23.1958 -1.7779,2.3389 -9.3495,10.9085 -16.8258,19.0437 -7.4763,8.1352 -15.9765,17.6729 -18.8894,21.1951 -5.1183,6.1887 -11.3709,17.1799 -11.3709,19.9885 0,0.7525 -0.5769,1.3682 -1.282,1.3682 -0.7052,0 -1.2821,-0.6157 -1.2821,-1.3682 z"
       style="fill:#d40000" />
    <path
       inkscape:connector-curvature="0"
       id="path8469"
       d="m 1788.7179,789.36848 c 0,2.8086 -6.2526,13.7998 -11.3709,19.9885 -2.9129,3.5222 -11.4131,13.0599 -18.8894,21.1951 -7.4763,8.1352 -15.0479,16.7048 -16.8257,19.0437 -4.5819,6.0275 -9.7652,16.9084 -11.0498,23.1958 -2.8873,14.1315 5.2323,30.3156 18.4556,36.7858 5.181,2.5351 5.9164,2.6676 12.3693,2.228 6.0681,-0.4134 7.5403,-0.8687 12.7434,-3.941 5.901,-3.4844 11.9557,-9.5204 13.9288,-13.8857 1.3388,-2.9619 2.5027,-2.9619 3.8415,0 1.9731,4.3653 8.0278,10.4013 13.9288,13.8857 5.2031,3.0723 6.6753,3.5276 12.7434,3.941 6.4529,0.4396 7.1883,0.3071 12.3694,-2.228 13.2233,-6.4702 21.3429,-22.6543 18.4556,-36.7858 -1.2847,-6.2874 -6.468,-17.1683 -11.0498,-23.1958 -1.7779,-2.3389 -9.3495,-10.9085 -16.8258,-19.0437 -7.4763,-8.1352 -15.9765,-17.6729 -18.8894,-21.1951 -5.1183,-6.1887 -11.3709,-17.1799 -11.3709,-19.9885 0,-0.7525 -0.5769,-1.3682 -1.282,-1.3682 -0.7052,0 -1.2821,0.6157 -1.2821,1.3682 z"
       style="fill:#d40000" />
  </g>
</svg>
