<?xml version="1.0" encoding="UTF-8" standalone="no"?>
<!-- Created with Inkscape (http://www.inkscape.org/) -->

<svg
   id="svg10047"
   height="123.00012"
   width="78.999786"
   version="1.1"
   viewBox="0 0 78.999786 123.00012"
   inkscape:version="0.91 r13725"
   sodipodi:docname="kaiser-jubilaum.svgz"
   xmlns:inkscape="http://www.inkscape.org/namespaces/inkscape"
   xmlns:sodipodi="http://sodipodi.sourceforge.net/DTD/sodipodi-0.dtd"
   xmlns="http://www.w3.org/2000/svg"
   xmlns:svg="http://www.w3.org/2000/svg"
   xmlns:rdf="http://www.w3.org/1999/02/22-rdf-syntax-ns#"
   xmlns:cc="http://creativecommons.org/ns#"
   xmlns:dc="http://purl.org/dc/elements/1.1/">
  <sodipodi:namedview
     pagecolor="#ffffff"
     bordercolor="#666666"
     borderopacity="1"
     objecttolerance="10"
     gridtolerance="10"
     guidetolerance="10"
     inkscape:pageopacity="0"
     inkscape:pageshadow="2"
     inkscape:window-width="1920"
     inkscape:window-height="1016"
     id="namedview1491"
     showgrid="false"
     inkscape:zoom="1.3479675"
     inkscape:cx="513.49999"
     inkscape:cy="307.5"
     inkscape:window-x="0"
     inkscape:window-y="0"
     inkscape:window-maximized="1"
     inkscape:current-layer="svg10047"
     showguides="true"
     inkscape:guide-bbox="true"
     inkscape:snap-grids="true"
     inkscape:showpageshadow="2"
     inkscape:pagecheckerboard="0"
     inkscape:deskcolor="#d1d1d1" />
  <metadata
     id="metadata16869">
    <rdf:RDF>
      <cc:Work
         rdf:about="">
        <dc:format>image/svg+xml</dc:format>
        <dc:type
           rdf:resource="http://purl.org/dc/dcmitype/StillImage" />
        <dc:title />
      </cc:Work>
    </rdf:RDF>
  </metadata>
  <defs
     id="defs10049" />
  <g
     id="heart_2"
     inkscape:label="#heart_2"
     transform="matrix(0.13620652,0,0,0.13666689,-108.96522,-13.666689)">
    <rect
       style="font-style:normal;font-variant:normal;font-weight:500;font-stretch:normal;font-size:medium;line-height:125%;font-family:Gaelic;-inkscape-font-specification:'Gaelic Medium';letter-spacing:0px;word-spacing:0px;fill:#ffffff;fill-opacity:1;stroke:#000000;stroke-width:1.99898;stroke-linecap:butt;stroke-linejoin:miter;stroke-miterlimit:4;stroke-dasharray:none;stroke-opacity:1"
       id="rect7827"
       y="100.99949"
       x="800.99951"
       ry="49.888176"
       rx="48.210754"
       height="898.00043"
       width="578.00104" />
    <path
       style="font-style:normal;font-variant:normal;font-weight:normal;font-stretch:normal;font-size:medium;line-height:125%;font-family:Rockwell;-inkscape-font-specification:Rockwell;letter-spacing:0px;word-spacing:0px;fill:#d40000;fill-opacity:1;stroke:none;stroke-width:1px;stroke-linecap:butt;stroke-linejoin:miter;stroke-opacity:1"
       d="m 866,183.86158 -0.5765,28.1388 H 826 q 0,-8.153 2.26164,-15.5698 2.30598,-7.4168 6.43015,-12.9653 4.16852,-5.5485 12.68293,-13.4749 5.36585,-5.0389 7.27273,-8.3794 1.90687,-3.397 1.90687,-7.8698 0,-5.4918 -2.7051,-8.9454 -2.7051,-3.5102 -7.45011,-3.5102 -5.54323,0 -8.1153,3.9631 -2.57206,3.9632 -2.57206,13.022 0,2.2647 0.0887,4.3029 h -8.20399 q -0.0443,-2.0382 -0.0443,-3.3405 0,-12.7954 4.74501,-19.9858 4.74502,-7.247 13.92462,-7.247 9.26829,0 14.19068,6.1713 4.96674,6.1712 4.96674,15.1733 0,7.5302 -3.23724,12.8522 -3.23726,5.322 -12.37252,13.5314 -8.86917,8.0397 -11.66296,13.0786 -2.74945,5.0389 -3.19291,8.9456 h 23.23725 l 0.35477,-17.8911 h 7.49446 z"
       id="path7899-2"
       inkscape:connector-curvature="0" />
    <path
       style="font-style:normal;font-variant:normal;font-weight:normal;font-stretch:normal;font-size:medium;line-height:125%;font-family:Rockwell;-inkscape-font-specification:Rockwell;letter-spacing:0px;word-spacing:0px;fill:#d40000;fill-opacity:1;stroke:none;stroke-width:1px;stroke-linecap:butt;stroke-linejoin:miter;stroke-opacity:1"
       inkscape:connector-curvature="0"
       id="path7903-7"
       d="m 1354,183.86158 -0.5765,28.1388 H 1314 q 0,-8.153 2.2617,-15.5698 2.3059,-7.4168 6.4301,-12.9653 4.1685,-5.5485 12.683,-13.4749 5.3658,-5.0389 7.2727,-8.3794 1.9069,-3.397 1.9069,-7.8698 0,-5.4918 -2.7052,-8.9454 -2.705,-3.5102 -7.4501,-3.5102 -5.5432,0 -8.1153,3.9631 -2.572,3.9632 -2.572,13.022 0,2.2647 0.089,4.3029 h -8.204 q -0.044,-2.0382 -0.044,-3.3405 0,-12.7954 4.745,-19.9858 4.745,-7.247 13.9246,-7.247 9.2683,0 14.1907,6.1713 4.9667,6.1712 4.9667,15.1733 0,7.5302 -3.2372,12.8522 -3.2373,5.322 -12.3725,13.5314 -8.8692,8.0397 -11.663,13.0786 -2.7494,5.0389 -3.1929,8.9456 h 23.2373 l 0.3547,-17.8911 h 7.4945 z" />
    <path
       style="font-style:normal;font-variant:normal;font-weight:normal;font-stretch:normal;font-size:medium;line-height:125%;font-family:Rockwell;-inkscape-font-specification:Rockwell;letter-spacing:0px;word-spacing:0px;fill:#d40000;fill-opacity:1;stroke:none;stroke-width:1px;stroke-linecap:butt;stroke-linejoin:miter;stroke-opacity:1"
       inkscape:connector-curvature="0"
       id="path8145"
       d="m 826.00007,916.03908 0.5765,-28.1388 h 39.4235 q 0,8.153 -2.26164,15.5698 -2.30598,7.4168 -6.43015,12.9653 -4.16852,5.5485 -12.68293,13.4749 -5.36585,5.0389 -7.27273,8.3794 -1.90687,3.397 -1.90687,7.8698 0,5.4918 2.7051,8.9454 2.7051,3.5102 7.45011,3.5102 5.54323,0 8.1153,-3.9631 2.57206,-3.9632 2.57206,-13.022 0,-2.2647 -0.0887,-4.3029 h 8.20399 q 0.0443,2.0382 0.0443,3.3405 0,12.7954 -4.74501,19.9858 -4.74502,7.247 -13.92462,7.247 -9.26829,0 -14.19068,-6.1713 -4.96674,-6.1712 -4.96674,-15.1733 0,-7.5302 3.23724,-12.8522 3.23726,-5.322 12.37252,-13.5314 8.86917,-8.0397 11.66296,-13.0786 2.74945,-5.0389 3.19291,-8.9456 h -23.23725 l -0.35477,17.8911 h -7.49446 z" />
    <path
       style="font-style:normal;font-variant:normal;font-weight:normal;font-stretch:normal;font-size:medium;line-height:125%;font-family:Rockwell;-inkscape-font-specification:Rockwell;letter-spacing:0px;word-spacing:0px;fill:#d40000;fill-opacity:1;stroke:none;stroke-width:1px;stroke-linecap:butt;stroke-linejoin:miter;stroke-opacity:1"
       d="m 1314.0001,916.03908 0.5765,-28.1388 h 39.4235 q 0,8.153 -2.2617,15.5698 -2.3059,7.4168 -6.4301,12.9653 -4.1685,5.5485 -12.683,13.4749 -5.3658,5.0389 -7.2727,8.3794 -1.9069,3.397 -1.9069,7.8698 0,5.4918 2.7052,8.9454 2.705,3.5102 7.4501,3.5102 5.5432,0 8.1153,-3.9631 2.572,-3.9632 2.572,-13.022 0,-2.2647 -0.089,-4.3029 h 8.204 q 0.044,2.0382 0.044,3.3405 0,12.7954 -4.745,19.9858 -4.745,7.247 -13.9246,7.247 -9.2683,0 -14.1907,-6.1713 -4.9667,-6.1712 -4.9667,-15.1733 0,-7.5302 3.2372,-12.8522 3.2373,-5.322 12.3725,-13.5314 8.8692,-8.0397 11.663,-13.0786 2.7494,-5.0389 3.1929,-8.9456 h -23.2373 l -0.3547,17.8911 h -7.4945 z"
       id="path8149"
       inkscape:connector-curvature="0" />
    <path
       style="fill:#d40000"
       d="m 845.50852,283.47068 c 0,-1.0872 -2.3969,-5.3419 -4.3588,-7.7375 -1.1166,-1.3634 -4.375,-5.0555 -7.241,-8.2046 -2.8659,-3.1491 -5.7684,-6.4663 -6.4498,-7.3717 -1.7564,-2.3332 -3.7433,-6.5452 -4.2358,-8.979 -1.1067,-5.4703 2.0057,-11.7351 7.0746,-14.2397 1.9862,-0.9813 2.268,-1.0326 4.7416,-0.8624 2.3262,0.16 2.8905,0.3362 4.885,1.5255 2.262,1.3488 4.583,3.6853 5.3394,5.3751 0.5132,1.1466 0.9593,1.1466 1.4726,0 0.7563,-1.6898 3.0772,-4.0263 5.3393,-5.3751 1.9945,-1.1893 2.5589,-1.3655 4.885,-1.5255 2.4736,-0.1702 2.7555,-0.1189 4.7416,0.8624 5.069,2.5046 8.1814,8.7694 7.0747,14.2397 -0.4925,2.4338 -2.4795,6.6458 -4.2359,8.979 -0.6815,0.9054 -3.5839,4.2226 -6.4498,7.3717 -2.8659,3.1491 -6.1243,6.8412 -7.2409,8.2046 -1.9621,2.3956 -4.3589,6.6503 -4.3589,7.7375 0,0.2913 -0.2212,0.5296 -0.4914,0.5296 -0.2704,0 -0.4915,-0.2383 -0.4915,-0.5296 z"
       id="path8475"
       inkscape:connector-curvature="0" />
    <path
       inkscape:connector-curvature="0"
       id="path8477"
       d="m 1333.5085,283.47068 c 0,-1.0872 -2.3969,-5.3419 -4.3588,-7.7375 -1.1166,-1.3634 -4.375,-5.0555 -7.241,-8.2046 -2.8659,-3.1491 -5.7684,-6.4663 -6.4498,-7.3717 -1.7564,-2.3332 -3.7433,-6.5452 -4.2358,-8.979 -1.1067,-5.4703 2.0057,-11.7351 7.0746,-14.2397 1.9862,-0.9813 2.268,-1.0326 4.7416,-0.8624 2.3262,0.16 2.8905,0.3362 4.885,1.5255 2.262,1.3488 4.583,3.6853 5.3394,5.3751 0.5132,1.1466 0.9593,1.1466 1.4726,0 0.7563,-1.6898 3.0772,-4.0263 5.3393,-5.3751 1.9945,-1.1893 2.5589,-1.3655 4.885,-1.5255 2.4736,-0.1702 2.7555,-0.1189 4.7416,0.8624 5.069,2.5046 8.1814,8.7694 7.0747,14.2397 -0.4925,2.4338 -2.4795,6.6458 -4.2359,8.979 -0.6815,0.9054 -3.5839,4.2226 -6.4498,7.3717 -2.8659,3.1491 -6.1243,6.8412 -7.2409,8.2046 -1.9621,2.3956 -4.3589,6.6503 -4.3589,7.7375 0,0.2913 -0.2212,0.5296 -0.4914,0.5296 -0.2704,0 -0.4915,-0.2383 -0.4915,-0.5296 z"
       style="fill:#d40000" />
    <path
       inkscape:connector-curvature="0"
       id="path8527"
       d="m 845.50852,816.52988 c 0,1.0872 -2.3969,5.3419 -4.3588,7.7375 -1.1166,1.3634 -4.375,5.0555 -7.241,8.2046 -2.8659,3.1491 -5.7684,6.4663 -6.4498,7.3717 -1.7564,2.3332 -3.7433,6.5452 -4.2358,8.979 -1.1067,5.4703 2.0057,11.7351 7.0746,14.2397 1.9862,0.9813 2.268,1.0326 4.7416,0.8624 2.3262,-0.16 2.8905,-0.3362 4.885,-1.5255 2.262,-1.3488 4.583,-3.6853 5.3394,-5.3751 0.5132,-1.1466 0.9593,-1.1466 1.4726,0 0.7563,1.6898 3.0772,4.0263 5.3393,5.3751 1.9945,1.1893 2.5589,1.3655 4.885,1.5255 2.4736,0.1702 2.7555,0.1189 4.7416,-0.8624 5.069,-2.5046 8.1814,-8.7694 7.0747,-14.2397 -0.4925,-2.4338 -2.4795,-6.6458 -4.2359,-8.979 -0.6815,-0.9054 -3.5839,-4.2226 -6.4498,-7.3717 -2.8659,-3.1491 -6.1243,-6.8412 -7.2409,-8.2046 -1.9621,-2.3956 -4.3589,-6.6503 -4.3589,-7.7375 0,-0.2913 -0.2212,-0.5296 -0.4914,-0.5296 -0.2704,0 -0.4915,0.2383 -0.4915,0.5296 z"
       style="fill:#d40000" />
    <path
       style="fill:#d40000"
       d="m 1333.5085,816.52988 c 0,1.0872 -2.3969,5.3419 -4.3588,7.7375 -1.1166,1.3634 -4.375,5.0555 -7.241,8.2046 -2.8659,3.1491 -5.7684,6.4663 -6.4498,7.3717 -1.7564,2.3332 -3.7433,6.5452 -4.2358,8.979 -1.1067,5.4703 2.0057,11.7351 7.0746,14.2397 1.9862,0.9813 2.268,1.0326 4.7416,0.8624 2.3262,-0.16 2.8905,-0.3362 4.885,-1.5255 2.262,-1.3488 4.583,-3.6853 5.3394,-5.3751 0.5132,-1.1466 0.9593,-1.1466 1.4726,0 0.7563,1.6898 3.0772,4.0263 5.3393,5.3751 1.9945,1.1893 2.5589,1.3655 4.885,1.5255 2.4736,0.1702 2.7555,0.1189 4.7416,-0.8624 5.069,-2.5046 8.1814,-8.7694 7.0747,-14.2397 -0.4925,-2.4338 -2.4795,-6.6458 -4.2359,-8.979 -0.6815,-0.9054 -3.5839,-4.2226 -6.4498,-7.3717 -2.8659,-3.1491 -6.1243,-6.8412 -7.2409,-8.2046 -1.9621,-2.3956 -4.3589,-6.6503 -4.3589,-7.7375 0,-0.2913 -0.2212,-0.5296 -0.4914,-0.5296 -0.2704,0 -0.4915,0.2383 -0.4915,0.5296 z"
       id="path8529"
       inkscape:connector-curvature="0" />
    <path
       style="fill:#b7b772"
       d="m 878.608,969.5383 c -0.347,-0.3672 -0.632,-38.9588 -0.632,-85.7589 0,-82.2583 -0.06,-85.1695 -1.802,-87.4482 -1.767,-2.3087 -2.209,-2.3674 -21.489,-2.8564 L 835,792.9756 V 549.8513 306.7269 l 19.568,-0.4992 c 17.134,-0.4371 19.777,-0.721 21.252,-2.282 1.582,-1.6748 1.713,-6.9885 2.156,-87.8642 L 878.449,130 h 212.051 212.051 l 0.472,86.0815 c 0.444,80.8757 0.575,86.1894 2.157,87.8642 1.475,1.561 4.117,1.8449 21.252,2.282 l 19.568,0.4992 v 243.1244 243.1243 l -19.568,0.4992 c -17.135,0.4372 -19.777,0.7211 -21.252,2.282 -1.582,1.6749 -1.713,6.9885 -2.157,87.8642 l -0.472,86.0816 -211.655,0.2518 c -116.411,0.1384 -211.939,-0.049 -212.288,-0.4161 z m 420.641,-85.9527 c 0,-81.6793 0.05,-83.6964 1.88,-86.8749 3.8,-6.5887 6.015,-7.2218 25.272,-7.226 h 17.237 V 549.855 310.2252 h -17.237 c -19.257,0 -21.472,-0.6373 -25.272,-7.2259 -1.834,-3.1786 -1.877,-5.1956 -1.88,-86.8749 V 132.5038 H 1090.504 881.759 v 83.6208 c 0,81.6794 -0.05,83.6964 -1.88,86.875 -3.801,6.5886 -6.015,7.2217 -25.272,7.2259 H 837.369 V 549.8552 789.485 h 17.238 c 19.257,0 21.471,0.6373 25.272,7.226 1.833,3.1785 1.877,5.1955 1.88,86.8749 v 83.6205 h 208.745 208.745 z"
       id="path8364"
       inkscape:connector-curvature="0" />
    <path
       inkscape:connector-curvature="0"
       id="path8831"
       d="m 883.48758,881.76066 c 0,-90.90179 -0.93081,-94.20044 -26.58131,-94.20044 h -15.38918 v -237.8328 -237.8328 h 15.38918 c 25.6505,0 26.58131,-3.29866 26.58131,-94.20044 v -83.00831 h 207.41792 207.4178 l 1.2688,87.43853 1.2687,87.43853 19.8194,1.43398 19.8194,1.43399 v 237.56466 237.56466 h -13.6087 c -29.097,0 -28.3618,-2.37045 -28.3618,91.43501 v 85.77374 H 1091.0084 883.48758 Z m 196.22872,23.02529 c 10.4626,-8.47207 10.9558,-8.47207 20.0495,0 16.0752,14.97629 36.6517,10.43657 47.4638,-10.47177 6.1295,-11.85312 6.1004,-15.30333 -0.2576,-30.52015 -3.9426,-9.4359 -16.1885,-26.79956 -27.2133,-38.5859 -11.0247,-11.78635 -22.6501,-25.60345 -25.8342,-30.70464 -4.2773,-6.85285 -6.4616,-7.65472 -8.3639,-3.07061 -1.416,3.41239 -12.4914,18.12053 -24.6119,32.68481 -36.2733,43.58677 -39.9561,55.80401 -23.2309,77.06664 11.3865,14.47553 26.9243,15.808 41.9985,3.60162 z m 18.3263,-602.29127 c 2.7669,-5.16997 14.52,-20.08438 26.118,-33.14313 26.1371,-29.42894 30.979,-41.29746 24.4678,-59.97542 -8.2141,-23.56303 -31.7523,-30.64785 -48.8626,-14.70723 -9.0937,8.47208 -9.5869,8.47208 -20.0495,0 -15.0742,-12.20636 -30.612,-10.8739 -41.9984,3.60161 -16.794,21.35004 -13.0344,33.72028 23.6727,77.89065 12.4425,14.97225 22.6227,29.13729 22.6227,31.47787 0,7.70267 8.9004,4.439 14.0293,-5.14435 z"
       style="fill:#feefd3;fill-opacity:1;stroke:#fffecd;stroke-width:1.65238;stroke-miterlimit:4;stroke-dasharray:none;stroke-opacity:1" />
    <path
       inkscape:connector-curvature="0"
       id="path8471"
       d="m 1088.7179,310.63208 c 0,-2.8086 -6.2526,-13.7998 -11.3709,-19.9885 -2.9129,-3.5222 -11.4131,-13.0599 -18.8894,-21.1951 -7.4763,-8.1352 -15.0479,-16.7048 -16.8257,-19.0437 -4.5819,-6.0275 -9.7652,-16.9084 -11.0498,-23.1958 -2.8873,-14.1315 5.2323,-30.3156 18.4556,-36.7858 5.181,-2.5351 5.9164,-2.6676 12.3693,-2.228 6.0681,0.4134 7.5403,0.8687 12.7434,3.941 5.901,3.4844 11.9557,9.5204 13.9288,13.8857 1.3388,2.9619 2.5027,2.9619 3.8415,0 1.9731,-4.3653 8.0278,-10.4013 13.9288,-13.8857 5.2031,-3.0723 6.6753,-3.5276 12.7434,-3.941 6.4529,-0.4396 7.1883,-0.3071 12.3694,2.228 13.2233,6.4702 21.3429,22.6543 18.4556,36.7858 -1.2847,6.2874 -6.468,17.1683 -11.0498,23.1958 -1.7779,2.3389 -9.3495,10.9085 -16.8258,19.0437 -7.4763,8.1352 -15.9765,17.6729 -18.8894,21.1951 -5.1183,6.1887 -11.3709,17.1799 -11.3709,19.9885 0,0.7525 -0.5769,1.3682 -1.282,1.3682 -0.7052,0 -1.2821,-0.6157 -1.2821,-1.3682 z"
       style="fill:#d40000" />
    <path
       style="fill:#d40000"
       d="m 1088.7179,789.36848 c 0,2.8086 -6.2526,13.7998 -11.3709,19.9885 -2.9129,3.5222 -11.4131,13.0599 -18.8894,21.1951 -7.4763,8.1352 -15.0479,16.7048 -16.8257,19.0437 -4.5819,6.0275 -9.7652,16.9084 -11.0498,23.1958 -2.8873,14.1315 5.2323,30.3156 18.4556,36.7858 5.181,2.5351 5.9164,2.6676 12.3693,2.228 6.0681,-0.4134 7.5403,-0.8687 12.7434,-3.941 5.901,-3.4844 11.9557,-9.5204 13.9288,-13.8857 1.3388,-2.9619 2.5027,-2.9619 3.8415,0 1.9731,4.3653 8.0278,10.4013 13.9288,13.8857 5.2031,3.0723 6.6753,3.5276 12.7434,3.941 6.4529,0.4396 7.1883,0.3071 12.3694,-2.228 13.2233,-6.4702 21.3429,-22.6543 18.4556,-36.7858 -1.2847,-6.2874 -6.468,-17.1683 -11.0498,-23.1958 -1.7779,-2.3389 -9.3495,-10.9085 -16.8258,-19.0437 -7.4763,-8.1352 -15.9765,-17.6729 -18.8894,-21.1951 -5.1183,-6.1887 -11.3709,-17.1799 -11.3709,-19.9885 0,-0.7525 -0.5769,-1.3682 -1.282,-1.3682 -0.7052,0 -1.2821,0.6157 -1.2821,1.3682 z"
       id="path8473"
       inkscape:connector-curvature="0" />
  </g>
</svg>
