<?xml version="1.0" encoding="UTF-8" standalone="no"?>
<!-- Created with Inkscape (http://www.inkscape.org/) -->

<svg
   id="svg10047"
   height="123.00012"
   width="78.999786"
   version="1.1"
   viewBox="0 0 78.999786 123.00012"
   inkscape:version="0.91 r13725"
   sodipodi:docname="kaiser-jubilaum.svgz"
   xmlns:inkscape="http://www.inkscape.org/namespaces/inkscape"
   xmlns:sodipodi="http://sodipodi.sourceforge.net/DTD/sodipodi-0.dtd"
   xmlns="http://www.w3.org/2000/svg"
   xmlns:svg="http://www.w3.org/2000/svg"
   xmlns:rdf="http://www.w3.org/1999/02/22-rdf-syntax-ns#"
   xmlns:cc="http://creativecommons.org/ns#"
   xmlns:dc="http://purl.org/dc/elements/1.1/">
  <sodipodi:namedview
     pagecolor="#ffffff"
     bordercolor="#666666"
     borderopacity="1"
     objecttolerance="10"
     gridtolerance="10"
     guidetolerance="10"
     inkscape:pageopacity="0"
     inkscape:pageshadow="2"
     inkscape:window-width="1920"
     inkscape:window-height="1016"
     id="namedview1491"
     showgrid="false"
     inkscape:zoom="1.3479675"
     inkscape:cx="513.49999"
     inkscape:cy="307.5"
     inkscape:window-x="0"
     inkscape:window-y="0"
     inkscape:window-maximized="1"
     inkscape:current-layer="svg10047"
     showguides="true"
     inkscape:guide-bbox="true"
     inkscape:snap-grids="true"
     inkscape:showpageshadow="2"
     inkscape:pagecheckerboard="0"
     inkscape:deskcolor="#d1d1d1" />
  <metadata
     id="metadata16869">
    <rdf:RDF>
      <cc:Work
         rdf:about="">
        <dc:format>image/svg+xml</dc:format>
        <dc:type
           rdf:resource="http://purl.org/dc/dcmitype/StillImage" />
        <dc:title />
      </cc:Work>
    </rdf:RDF>
  </metadata>
  <defs
     id="defs10049" />
  <g
     id="heart_5"
     transform="matrix(0.13620652,0,0,0.13666689,-394.99891,-13.666689)"
     inkscape:label="#heart_5">
    <rect
       width="578.00104"
       height="898.00043"
       rx="48.210754"
       ry="49.888176"
       x="2900.9995"
       y="100.99949"
       id="rect7609"
       style="font-style:normal;font-variant:normal;font-weight:500;font-stretch:normal;font-size:medium;line-height:125%;font-family:Gaelic;-inkscape-font-specification:'Gaelic Medium';letter-spacing:0px;word-spacing:0px;fill:#ffffff;fill-opacity:1;stroke:#000000;stroke-width:1.99898;stroke-linecap:butt;stroke-linejoin:miter;stroke-miterlimit:4;stroke-dasharray:none;stroke-opacity:1" />
    <path
       style="font-style:normal;font-variant:normal;font-weight:normal;font-stretch:normal;font-size:medium;line-height:125%;font-family:Rockwell;-inkscape-font-specification:Rockwell;letter-spacing:0px;word-spacing:0px;fill:#d40000;fill-opacity:1;stroke:none;stroke-width:1px;stroke-linecap:butt;stroke-linejoin:miter;stroke-opacity:1"
       d="m 2926,185.57928 h 7.611 q 0.6765,7.9377 3.8478,12.6436 3.2135,4.7058 8.4567,4.7058 5.2854,0 8.4989,-4.876 3.2135,-4.8759 3.2135,-12.5301 0,-8.1077 -3.1289,-12.36 -3.129,-4.3089 -7.7802,-4.3089 -6.9767,0 -11.797,9.4683 -2.7061,-3.5718 -6.1311,-5.7263 l 2.4102,-40.5954 h 31.3742 v 20.9213 h -7.2728 v -10.7724 h -18.0126 l -1.3108,23.0758 q 5.37,-5.8398 11.9661,-5.8398 8.3721,0 13.1924,7.484 4.8626,7.4841 4.8626,18.54 0,11.6796 -5.3277,19.1637 -5.2854,7.4274 -14.8414,7.4274 -8.8795,0 -14.0381,-6.7469 -5.1585,-6.747 -5.7928,-19.6741 z"
       id="path7907-0"
       inkscape:connector-curvature="0" />
    <path
       style="font-style:normal;font-variant:normal;font-weight:normal;font-stretch:normal;font-size:medium;line-height:125%;font-family:Rockwell;-inkscape-font-specification:Rockwell;letter-spacing:0px;word-spacing:0px;fill:#d40000;fill-opacity:1;stroke:none;stroke-width:1px;stroke-linecap:butt;stroke-linejoin:miter;stroke-opacity:1"
       inkscape:connector-curvature="0"
       id="path8021"
       d="m 3414,185.57928 h 7.611 q 0.6765,7.9377 3.8478,12.6436 3.2135,4.7058 8.4567,4.7058 5.2854,0 8.4989,-4.876 3.2135,-4.8759 3.2135,-12.5301 0,-8.1077 -3.1289,-12.36 -3.129,-4.3089 -7.7802,-4.3089 -6.9767,0 -11.797,9.4683 -2.7061,-3.5718 -6.1311,-5.7263 l 2.4102,-40.5954 h 31.3742 v 20.9213 h -7.2728 v -10.7724 h -18.0126 l -1.3108,23.0758 q 5.37,-5.8398 11.9661,-5.8398 8.3721,0 13.1924,7.484 4.8626,7.4841 4.8626,18.54 0,11.6796 -5.3277,19.1637 -5.2854,7.4274 -14.8414,7.4274 -8.8795,0 -14.0381,-6.7469 -5.1585,-6.747 -5.7928,-19.6741 z" />
    <path
       style="font-style:normal;font-variant:normal;font-weight:normal;font-stretch:normal;font-size:medium;line-height:125%;font-family:Rockwell;-inkscape-font-specification:Rockwell;letter-spacing:0px;word-spacing:0px;fill:#d40000;fill-opacity:1;stroke:none;stroke-width:1px;stroke-linecap:butt;stroke-linejoin:miter;stroke-opacity:1"
       inkscape:connector-curvature="0"
       id="path8153"
       d="m 2966,914.32138 h -7.611 q -0.6765,-7.9377 -3.8478,-12.6436 -3.2135,-4.7058 -8.4567,-4.7058 -5.2854,0 -8.4989,4.876 -3.2135,4.8759 -3.2135,12.5301 0,8.1077 3.1289,12.36 3.129,4.3089 7.7802,4.3089 6.9767,0 11.797,-9.4683 2.7061,3.5718 6.1311,5.7263 l -2.4102,40.5954 h -31.3742 v -20.9213 h 7.2728 v 10.7724 h 18.0126 l 1.3108,-23.0758 q -5.37,5.8398 -11.9661,5.8398 -8.3721,0 -13.1924,-7.484 -4.8626,-7.4841 -4.8626,-18.54 0,-11.6796 5.3277,-19.1637 5.2854,-7.4274 14.8414,-7.4274 8.8795,0 14.0381,6.7469 5.1585,6.747 5.7928,19.6741 z" />
    <path
       style="font-style:normal;font-variant:normal;font-weight:normal;font-stretch:normal;font-size:medium;line-height:125%;font-family:Rockwell;-inkscape-font-specification:Rockwell;letter-spacing:0px;word-spacing:0px;fill:#d40000;fill-opacity:1;stroke:none;stroke-width:1px;stroke-linecap:butt;stroke-linejoin:miter;stroke-opacity:1"
       d="m 3454,914.32138 h -7.611 q -0.6765,-7.9377 -3.8478,-12.6436 -3.2135,-4.7058 -8.4567,-4.7058 -5.2854,0 -8.4989,4.876 -3.2135,4.8759 -3.2135,12.5301 0,8.1077 3.1289,12.36 3.129,4.3089 7.7802,4.3089 6.9767,0 11.797,-9.4683 2.7061,3.5718 6.1311,5.7263 l -2.4102,40.5954 h -31.3742 v -20.9213 h 7.2728 v 10.7724 h 18.0126 l 1.3108,-23.0758 q -5.37,5.8398 -11.9661,5.8398 -8.3721,0 -13.1924,-7.484 -4.8626,-7.4841 -4.8626,-18.54 0,-11.6796 5.3277,-19.1637 5.2854,-7.4274 14.8414,-7.4274 8.8795,0 14.0381,6.7469 5.1585,6.747 5.7928,19.6741 z"
       id="path8191-6"
       inkscape:connector-curvature="0" />
    <path
       style="fill:#d40000"
       d="m 2945.5085,283.47068 c 0,-1.0872 -2.3969,-5.3419 -4.3588,-7.7375 -1.1166,-1.3634 -4.375,-5.0555 -7.241,-8.2046 -2.8659,-3.1491 -5.7684,-6.4663 -6.4498,-7.3717 -1.7564,-2.3332 -3.7433,-6.5452 -4.2358,-8.979 -1.1067,-5.4703 2.0057,-11.7351 7.0746,-14.2397 1.9862,-0.9813 2.268,-1.0326 4.7416,-0.8624 2.3262,0.16 2.8905,0.3362 4.885,1.5255 2.262,1.3488 4.583,3.6853 5.3394,5.3751 0.5132,1.1466 0.9593,1.1466 1.4726,0 0.7563,-1.6898 3.0772,-4.0263 5.3393,-5.3751 1.9945,-1.1893 2.5589,-1.3655 4.885,-1.5255 2.4736,-0.1702 2.7555,-0.1189 4.7416,0.8624 5.069,2.5046 8.1814,8.7694 7.0747,14.2397 -0.4925,2.4338 -2.4795,6.6458 -4.2359,8.979 -0.6815,0.9054 -3.5839,4.2226 -6.4498,7.3717 -2.8659,3.1491 -6.1243,6.8412 -7.2409,8.2046 -1.9621,2.3956 -4.3589,6.6503 -4.3589,7.7375 0,0.2913 -0.2212,0.5296 -0.4914,0.5296 -0.2704,0 -0.4915,-0.2383 -0.4915,-0.5296 z"
       id="path8495"
       inkscape:connector-curvature="0" />
    <path
       inkscape:connector-curvature="0"
       id="path8497"
       d="m 3433.5085,283.47068 c 0,-1.0872 -2.3969,-5.3419 -4.3588,-7.7375 -1.1166,-1.3634 -4.375,-5.0555 -7.241,-8.2046 -2.8659,-3.1491 -5.7684,-6.4663 -6.4498,-7.3717 -1.7564,-2.3332 -3.7433,-6.5452 -4.2358,-8.979 -1.1067,-5.4703 2.0057,-11.7351 7.0746,-14.2397 1.9862,-0.9813 2.268,-1.0326 4.7416,-0.8624 2.3262,0.16 2.8905,0.3362 4.885,1.5255 2.262,1.3488 4.583,3.6853 5.3394,5.3751 0.5132,1.1466 0.9593,1.1466 1.4726,0 0.7563,-1.6898 3.0772,-4.0263 5.3393,-5.3751 1.9945,-1.1893 2.5589,-1.3655 4.885,-1.5255 2.4736,-0.1702 2.7555,-0.1189 4.7416,0.8624 5.069,2.5046 8.1814,8.7694 7.0747,14.2397 -0.4925,2.4338 -2.4795,6.6458 -4.2359,8.979 -0.6815,0.9054 -3.5839,4.2226 -6.4498,7.3717 -2.8659,3.1491 -6.1243,6.8412 -7.2409,8.2046 -1.9621,2.3956 -4.3589,6.6503 -4.3589,7.7375 0,0.2913 -0.2212,0.5296 -0.4914,0.5296 -0.2704,0 -0.4915,-0.2383 -0.4915,-0.5296 z"
       style="fill:#d40000" />
    <path
       inkscape:connector-curvature="0"
       id="path8547"
       d="m 2945.5085,816.52988 c 0,1.0872 -2.3969,5.3419 -4.3588,7.7375 -1.1166,1.3634 -4.375,5.0555 -7.241,8.2046 -2.8659,3.1491 -5.7684,6.4663 -6.4498,7.3717 -1.7564,2.3332 -3.7433,6.5452 -4.2358,8.979 -1.1067,5.4703 2.0057,11.7351 7.0746,14.2397 1.9862,0.9813 2.268,1.0326 4.7416,0.8624 2.3262,-0.16 2.8905,-0.3362 4.885,-1.5255 2.262,-1.3488 4.583,-3.6853 5.3394,-5.3751 0.5132,-1.1466 0.9593,-1.1466 1.4726,0 0.7563,1.6898 3.0772,4.0263 5.3393,5.3751 1.9945,1.1893 2.5589,1.3655 4.885,1.5255 2.4736,0.1702 2.7555,0.1189 4.7416,-0.8624 5.069,-2.5046 8.1814,-8.7694 7.0747,-14.2397 -0.4925,-2.4338 -2.4795,-6.6458 -4.2359,-8.979 -0.6815,-0.9054 -3.5839,-4.2226 -6.4498,-7.3717 -2.8659,-3.1491 -6.1243,-6.8412 -7.2409,-8.2046 -1.9621,-2.3956 -4.3589,-6.6503 -4.3589,-7.7375 0,-0.2913 -0.2212,-0.5296 -0.4914,-0.5296 -0.2704,0 -0.4915,0.2383 -0.4915,0.5296 z"
       style="fill:#d40000" />
    <path
       style="fill:#d40000"
       d="m 3433.5085,816.52988 c 0,1.0872 -2.3969,5.3419 -4.3588,7.7375 -1.1166,1.3634 -4.375,5.0555 -7.241,8.2046 -2.8659,3.1491 -5.7684,6.4663 -6.4498,7.3717 -1.7564,2.3332 -3.7433,6.5452 -4.2358,8.979 -1.1067,5.4703 2.0057,11.7351 7.0746,14.2397 1.9862,0.9813 2.268,1.0326 4.7416,0.8624 2.3262,-0.16 2.8905,-0.3362 4.885,-1.5255 2.262,-1.3488 4.583,-3.6853 5.3394,-5.3751 0.5132,-1.1466 0.9593,-1.1466 1.4726,0 0.7563,1.6898 3.0772,4.0263 5.3393,5.3751 1.9945,1.1893 2.5589,1.3655 4.885,1.5255 2.4736,0.1702 2.7555,0.1189 4.7416,-0.8624 5.069,-2.5046 8.1814,-8.7694 7.0747,-14.2397 -0.4925,-2.4338 -2.4795,-6.6458 -4.2359,-8.979 -0.6815,-0.9054 -3.5839,-4.2226 -6.4498,-7.3717 -2.8659,-3.1491 -6.1243,-6.8412 -7.2409,-8.2046 -1.9621,-2.3956 -4.3589,-6.6503 -4.3589,-7.7375 0,-0.2913 -0.2212,-0.5296 -0.4914,-0.5296 -0.2704,0 -0.4915,0.2383 -0.4915,0.5296 z"
       id="path8549"
       inkscape:connector-curvature="0" />
    <path
       inkscape:connector-curvature="0"
       id="path8358"
       d="m 2978.608,969.5383 c -0.347,-0.3672 -0.632,-38.9588 -0.632,-85.7589 0,-82.2583 -0.06,-85.1695 -1.802,-87.4482 -1.767,-2.3087 -2.209,-2.3674 -21.489,-2.8564 L 2935,792.9756 V 549.8513 306.7269 l 19.568,-0.4992 c 17.134,-0.4371 19.777,-0.721 21.252,-2.282 1.582,-1.6748 1.713,-6.9885 2.156,-87.8642 L 2978.449,130 h 212.051 212.051 l 0.472,86.0815 c 0.444,80.8757 0.575,86.1894 2.157,87.8642 1.475,1.561 4.117,1.8449 21.252,2.282 l 19.568,0.4992 v 243.1244 243.1243 l -19.568,0.4992 c -17.135,0.4372 -19.777,0.7211 -21.252,2.282 -1.582,1.6749 -1.713,6.9885 -2.157,87.8642 l -0.472,86.0816 -211.655,0.2518 c -116.411,0.1384 -211.939,-0.049 -212.288,-0.4161 z m 420.641,-85.9527 c 0,-81.6793 0.05,-83.6964 1.88,-86.8749 3.8,-6.5887 6.015,-7.2218 25.272,-7.226 h 17.237 V 549.855 310.2252 h -17.237 c -19.257,0 -21.472,-0.6373 -25.272,-7.2259 -1.834,-3.1786 -1.877,-5.1956 -1.88,-86.8749 v -83.6206 h -208.745 -208.745 v 83.6208 c 0,81.6794 -0.05,83.6964 -1.88,86.875 -3.801,6.5886 -6.015,7.2217 -25.272,7.2259 h -17.238 V 549.8552 789.485 h 17.238 c 19.257,0 21.471,0.6373 25.272,7.226 1.833,3.1785 1.877,5.1955 1.88,86.8749 v 83.6205 h 208.745 208.745 z"
       style="fill:#b7b772" />
    <path
       inkscape:connector-curvature="0"
       id="path8837"
       d="m 2980.9493,877.33044 -1.2687,-87.43853 -19.8194,-1.43399 -19.8194,-1.43399 V 549.72742 312.4309 l 19.8194,-1.43399 19.8194,-1.43398 1.2687,-87.43853 1.2688,-87.43853 h 207.4178 207.4179 v 83.00831 c 0,58.34417 1.6627,84.67106 5.5961,88.60438 3.0778,3.07783 13.5704,5.59606 23.3169,5.59606 h 17.7209 v 237.8328 237.8328 h -17.7209 c -9.7465,0 -20.2391,2.51823 -23.3169,5.59607 -3.9334,3.93333 -5.5961,30.26021 -5.5961,88.60437 v 83.00831 h -207.4179 -207.4178 z m 73.1041,27.08128 c 8.1187,-8.9711 8.2946,-8.9711 17.9239,0 25.402,23.66553 62.991,-5.57005 50.2495,-39.08255 -2.4011,-6.31549 -13.4218,-21.72692 -24.4904,-34.24765 -11.0686,-12.52073 -23.2725,-27.46194 -27.1198,-33.20276 -6.9497,-10.37021 -7.1461,-10.25274 -30.312,18.13727 -43.7346,53.59706 -47.1573,63.32265 -29.9735,85.1683 11.6761,14.84389 31.8611,16.33384 43.7223,3.22739 z m 251.8229,0 c 8.1187,-8.9711 8.2947,-8.9711 17.924,0 18.4735,17.2107 43.9558,8.78545 51.8354,-17.13856 4.1786,-13.7473 -2.7574,-29.46212 -23.666,-53.6201 -9.845,-11.37508 -22.0907,-26.38364 -27.2126,-33.35237 l -9.3126,-12.67043 -23.3169,28.48043 c -43.6948,53.37094 -47.1645,63.2189 -29.9736,85.07364 11.6762,14.84389 31.8611,16.33384 43.7223,3.22739 z m -87.2911,-327.4718 c 26.8344,-30.81127 35.1852,-48.06847 31.4624,-65.01799 -5.7193,-26.03993 -32.9989,-33.57047 -54.2224,-14.9681 -5.4908,4.81272 -8.6291,5.24063 -10.9456,1.49246 -11.5552,-18.69677 -44.4656,-12.83578 -53.7471,9.57179 -7.4411,17.96455 -3.5121,27.121 28.3806,66.14038 15.2223,18.62373 27.8028,35.95984 27.9568,38.5247 0.154,2.56487 2.7797,0.66789 5.8349,-4.21551 3.0553,-4.88341 14.4315,-19.07088 25.2804,-31.52773 z M 3100.1468,265.8018 c 9.845,-11.37507 19.8228,-25.73924 22.1729,-31.92038 12.4894,-32.84964 -26.6863,-63.63824 -49.2497,-38.70589 -8.2785,9.14759 -8.376,9.14759 -20.0053,0 -16.0823,-12.6504 -31.2101,-11.55476 -42.7336,3.09498 -17.1288,21.77568 -13.8681,31.56824 27.5152,82.63512 l 25.5219,31.49405 9.4392,-12.95797 c 5.1916,-7.12688 17.4943,-22.26484 27.3394,-33.63991 z m 251.1733,1.50835 c 20.4226,-22.33773 28.1862,-40.32126 24.2232,-56.11079 -5.8637,-23.36314 -35.4641,-32.80446 -50.558,-16.12595 -8.1446,8.99973 -8.361,8.99084 -21.7293,-0.89274 -16.4389,-12.15382 -35.0991,-7.70893 -45.5108,10.84074 -9.8284,17.51059 -4.3053,31.31037 28.4824,71.16478 l 29.2169,35.51397 9.2816,-12.72708 c 5.1049,-6.9999 17.0722,-21.24822 26.594,-31.66293 z"
       style="fill:#feefd3;fill-opacity:1;stroke:#fffecd;stroke-width:1.65238;stroke-miterlimit:4;stroke-dasharray:none;stroke-opacity:1" />
    <path
       inkscape:connector-curvature="0"
       id="path8447-8"
       d="m 3061.7179,310.63208 c 0,-2.8086 -6.2526,-13.7998 -11.3709,-19.9885 -2.9129,-3.5222 -11.4131,-13.0599 -18.8894,-21.1951 -7.4763,-8.1352 -15.0479,-16.7048 -16.8257,-19.0437 -4.5819,-6.0275 -9.7652,-16.9084 -11.0498,-23.1958 -2.8873,-14.1315 5.2323,-30.3156 18.4556,-36.7858 5.181,-2.5351 5.9164,-2.6676 12.3693,-2.228 6.0681,0.4134 7.5403,0.8687 12.7434,3.941 5.901,3.4844 11.9557,9.5204 13.9288,13.8857 1.3388,2.9619 2.5027,2.9619 3.8415,0 1.9731,-4.3653 8.0278,-10.4013 13.9288,-13.8857 5.2031,-3.0723 6.6753,-3.5276 12.7434,-3.941 6.4529,-0.4396 7.1883,-0.3071 12.3694,2.228 13.2233,6.4702 21.3429,22.6543 18.4556,36.7858 -1.2847,6.2874 -6.468,17.1683 -11.0498,23.1958 -1.7779,2.3389 -9.3495,10.9085 -16.8258,19.0437 -7.4763,8.1352 -15.9765,17.6729 -18.8894,21.1951 -5.1183,6.1887 -11.3709,17.1799 -11.3709,19.9885 0,0.7525 -0.5769,1.3682 -1.282,1.3682 -0.7052,0 -1.2821,-0.6157 -1.2821,-1.3682 z"
       style="fill:#d40000" />
    <path
       style="fill:#d40000"
       d="m 3313.7179,310.63208 c 0,-2.8086 -6.2526,-13.7998 -11.3709,-19.9885 -2.9129,-3.5222 -11.4131,-13.0599 -18.8894,-21.1951 -7.4763,-8.1352 -15.0479,-16.7048 -16.8257,-19.0437 -4.5819,-6.0275 -9.7652,-16.9084 -11.0498,-23.1958 -2.8873,-14.1315 5.2323,-30.3156 18.4556,-36.7858 5.181,-2.5351 5.9164,-2.6676 12.3693,-2.228 6.0681,0.4134 7.5403,0.8687 12.7434,3.941 5.901,3.4844 11.9557,9.5204 13.9288,13.8857 1.3388,2.9619 2.5027,2.9619 3.8415,0 1.9731,-4.3653 8.0278,-10.4013 13.9288,-13.8857 5.2031,-3.0723 6.6753,-3.5276 12.7434,-3.941 6.4529,-0.4396 7.1883,-0.3071 12.3694,2.228 13.2233,6.4702 21.3429,22.6543 18.4556,36.7858 -1.2847,6.2874 -6.468,17.1683 -11.0498,23.1958 -1.7779,2.3389 -9.3495,10.9085 -16.8258,19.0437 -7.4763,8.1352 -15.9765,17.6729 -18.8894,21.1951 -5.1183,6.1887 -11.3709,17.1799 -11.3709,19.9885 0,0.7525 -0.5769,1.3682 -1.282,1.3682 -0.7052,0 -1.2821,-0.6157 -1.2821,-1.3682 z"
       id="path8449-9"
       inkscape:connector-curvature="0" />
    <path
       style="fill:#d40000"
       d="m 3188.7179,610.63208 c 0,-2.8086 -6.2526,-13.7998 -11.3709,-19.9885 -2.9129,-3.5222 -11.4131,-13.0599 -18.8894,-21.1951 -7.4763,-8.1352 -15.0479,-16.7048 -16.8257,-19.0437 -4.5819,-6.0275 -9.7652,-16.9084 -11.0498,-23.1958 -2.8873,-14.1315 5.2323,-30.3156 18.4556,-36.7858 5.181,-2.5351 5.9164,-2.6676 12.3693,-2.228 6.0681,0.4134 7.5403,0.8687 12.7434,3.941 5.901,3.4844 11.9557,9.5204 13.9288,13.8857 1.3388,2.9619 2.5027,2.9619 3.8415,0 1.9731,-4.3653 8.0278,-10.4013 13.9288,-13.8857 5.2031,-3.0723 6.6753,-3.5276 12.7434,-3.941 6.4529,-0.4396 7.1883,-0.3071 12.3694,2.228 13.2233,6.4702 21.3429,22.6543 18.4556,36.7858 -1.2847,6.2874 -6.468,17.1683 -11.0498,23.1958 -1.7779,2.3389 -9.3495,10.9085 -16.8258,19.0437 -7.4763,8.1352 -15.9765,17.6729 -18.8894,21.1951 -5.1183,6.1887 -11.3709,17.1799 -11.3709,19.9885 0,0.7525 -0.5769,1.3682 -1.282,1.3682 -0.7052,0 -1.2821,-0.6157 -1.2821,-1.3682 z"
       id="path8451-2"
       inkscape:connector-curvature="0" />
    <path
       style="fill:#d40000"
       d="m 3061.7179,789.36848 c 0,2.8086 -6.2526,13.7998 -11.3709,19.9885 -2.9129,3.5222 -11.4131,13.0599 -18.8894,21.1951 -7.4763,8.1352 -15.0479,16.7048 -16.8257,19.0437 -4.5819,6.0275 -9.7652,16.9084 -11.0498,23.1958 -2.8873,14.1315 5.2323,30.3156 18.4556,36.7858 5.181,2.5351 5.9164,2.6676 12.3693,2.228 6.0681,-0.4134 7.5403,-0.8687 12.7434,-3.941 5.901,-3.4844 11.9557,-9.5204 13.9288,-13.8857 1.3388,-2.9619 2.5027,-2.9619 3.8415,0 1.9731,4.3653 8.0278,10.4013 13.9288,13.8857 5.2031,3.0723 6.6753,3.5276 12.7434,3.941 6.4529,0.4396 7.1883,0.3071 12.3694,-2.228 13.2233,-6.4702 21.3429,-22.6543 18.4556,-36.7858 -1.2847,-6.2874 -6.468,-17.1683 -11.0498,-23.1958 -1.7779,-2.3389 -9.3495,-10.9085 -16.8258,-19.0437 -7.4763,-8.1352 -15.9765,-17.6729 -18.8894,-21.1951 -5.1183,-6.1887 -11.3709,-17.1799 -11.3709,-19.9885 0,-0.7525 -0.5769,-1.3682 -1.282,-1.3682 -0.7052,0 -1.2821,0.6157 -1.2821,1.3682 z"
       id="path8453-6"
       inkscape:connector-curvature="0" />
    <path
       inkscape:connector-curvature="0"
       id="path8455-6"
       d="m 3313.7179,789.36848 c 0,2.8086 -6.2526,13.7998 -11.3709,19.9885 -2.9129,3.5222 -11.4131,13.0599 -18.8894,21.1951 -7.4763,8.1352 -15.0479,16.7048 -16.8257,19.0437 -4.5819,6.0275 -9.7652,16.9084 -11.0498,23.1958 -2.8873,14.1315 5.2323,30.3156 18.4556,36.7858 5.181,2.5351 5.9164,2.6676 12.3693,2.228 6.0681,-0.4134 7.5403,-0.8687 12.7434,-3.941 5.901,-3.4844 11.9557,-9.5204 13.9288,-13.8857 1.3388,-2.9619 2.5027,-2.9619 3.8415,0 1.9731,4.3653 8.0278,10.4013 13.9288,13.8857 5.2031,3.0723 6.6753,3.5276 12.7434,3.941 6.4529,0.4396 7.1883,0.3071 12.3694,-2.228 13.2233,-6.4702 21.3429,-22.6543 18.4556,-36.7858 -1.2847,-6.2874 -6.468,-17.1683 -11.0498,-23.1958 -1.7779,-2.3389 -9.3495,-10.9085 -16.8258,-19.0437 -7.4763,-8.1352 -15.9765,-17.6729 -18.8894,-21.1951 -5.1183,-6.1887 -11.3709,-17.1799 -11.3709,-19.9885 0,-0.7525 -0.5769,-1.3682 -1.282,-1.3682 -0.7052,0 -1.2821,0.6157 -1.2821,1.3682 z"
       style="fill:#d40000" />
  </g>
</svg>
