<?xml version="1.0" encoding="UTF-8" standalone="no"?>
<!-- Created with Inkscape (http://www.inkscape.org/) -->

<svg
   id="svg10047"
   height="122.94574"
   width="78.999794"
   version="1.1"
   viewBox="0 0 78.999794 122.94574"
   inkscape:version="0.91 r13725"
   sodipodi:docname="kaiser-jubilaum.svgz"
   xmlns:inkscape="http://www.inkscape.org/namespaces/inkscape"
   xmlns:sodipodi="http://sodipodi.sourceforge.net/DTD/sodipodi-0.dtd"
   xmlns="http://www.w3.org/2000/svg"
   xmlns:svg="http://www.w3.org/2000/svg"
   xmlns:rdf="http://www.w3.org/1999/02/22-rdf-syntax-ns#"
   xmlns:cc="http://creativecommons.org/ns#"
   xmlns:dc="http://purl.org/dc/elements/1.1/">
  <sodipodi:namedview
     pagecolor="#ffffff"
     bordercolor="#666666"
     borderopacity="1"
     objecttolerance="10"
     gridtolerance="10"
     guidetolerance="10"
     inkscape:pageopacity="0"
     inkscape:pageshadow="2"
     inkscape:window-width="1920"
     inkscape:window-height="1016"
     id="namedview1491"
     showgrid="false"
     inkscape:zoom="1.3479675"
     inkscape:cx="513.49999"
     inkscape:cy="307.5"
     inkscape:window-x="0"
     inkscape:window-y="0"
     inkscape:window-maximized="1"
     inkscape:current-layer="svg10047"
     showguides="true"
     inkscape:guide-bbox="true"
     inkscape:snap-grids="true"
     inkscape:showpageshadow="2"
     inkscape:pagecheckerboard="0"
     inkscape:deskcolor="#d1d1d1" />
  <metadata
     id="metadata16869">
    <rdf:RDF>
      <cc:Work
         rdf:about="">
        <dc:format>image/svg+xml</dc:format>
        <dc:type
           rdf:resource="http://purl.org/dc/dcmitype/StillImage" />
        <dc:title />
      </cc:Work>
    </rdf:RDF>
  </metadata>
  <defs
     id="defs10049" />
  <g
     id="spade_7"
     transform="matrix(0.13620654,0,0,0.13660647,-585.68813,-423.48006)"
     inkscape:label="#spade_7">
    <rect
       style="font-style:normal;font-variant:normal;font-weight:500;font-stretch:normal;font-size:medium;line-height:125%;font-family:Gaelic;-inkscape-font-specification:'Gaelic Medium';letter-spacing:0px;word-spacing:0px;fill:#ffffff;fill-opacity:1;stroke:#000000;stroke-width:1.99898;stroke-linecap:butt;stroke-linejoin:miter;stroke-miterlimit:4;stroke-dasharray:none;stroke-opacity:1"
       id="rect5686"
       y="3100.9995"
       x="4300.9995"
       ry="49.888176"
       rx="48.210754"
       height="898.00043"
       width="578.00104" />
    <path
       d="m 4330.6951,3212.0002 v -9.7337 h 8.5155 q 0.6905,-15.4931 5.7537,-32.4261 5.0633,-16.933 11.0012,-27.5307 h -22.0483 v 10.7704 H 4326 v -21.0799 h 40 v 8.1786 q -6.26,9.3879 -11.8757,28.5097 -5.6156,19.064 -5.6156,33.578 h 7.4568 v 9.7337 z"
       id="path5297"
       inkscape:connector-curvature="0"
       style="font-style:normal;font-variant:normal;font-weight:normal;font-stretch:normal;font-size:medium;line-height:125%;font-family:Rockwell;-inkscape-font-specification:Rockwell;letter-spacing:0px;word-spacing:0px;fill:#000000;fill-opacity:1;stroke:none;stroke-width:1px;stroke-linecap:butt;stroke-linejoin:miter;stroke-opacity:1" />
    <path
       inkscape:connector-curvature="0"
       id="path5380"
       d="m 4818.6951,3212.0002 v -9.7337 h 8.5155 q 0.6905,-15.4931 5.7537,-32.4261 5.0633,-16.933 11.0012,-27.5307 h -22.0483 v 10.7704 H 4814 v -21.0799 h 40 v 8.1786 q -6.26,9.3879 -11.8757,28.5097 -5.6156,19.064 -5.6156,33.578 h 7.4568 v 9.7337 z"
       style="font-style:normal;font-variant:normal;font-weight:normal;font-stretch:normal;font-size:medium;line-height:125%;font-family:Rockwell;-inkscape-font-specification:Rockwell;letter-spacing:0px;word-spacing:0px;fill:#000000;fill-opacity:1;stroke:none;stroke-width:1px;stroke-linecap:butt;stroke-linejoin:miter;stroke-opacity:1" />
    <path
       inkscape:connector-curvature="0"
       id="path11875"
       d="m 4361.3049,3887.9001 v 9.7337 h -8.5155 q -0.6905,15.4931 -5.7537,32.4261 -5.0633,16.933 -11.0012,27.5307 h 22.0483 v -10.7704 H 4366 v 21.0799 h -40 v -8.1786 q 6.26,-9.3879 11.8757,-28.5097 5.6156,-19.064 5.6156,-33.578 h -7.4568 v -9.7337 z"
       style="font-style:normal;font-variant:normal;font-weight:normal;font-stretch:normal;font-size:medium;line-height:125%;font-family:Rockwell;-inkscape-font-specification:Rockwell;letter-spacing:0px;word-spacing:0px;fill:#000000;fill-opacity:1;stroke:none;stroke-width:1px;stroke-linecap:butt;stroke-linejoin:miter;stroke-opacity:1" />
    <path
       d="m 4849.3049,3887.9001 v 9.7337 h -8.5155 q -0.6905,15.4931 -5.7537,32.4261 -5.0633,16.933 -11.0012,27.5307 h 22.0483 v -10.7704 H 4854 v 21.0799 h -40 v -8.1786 q 6.26,-9.3879 11.8757,-28.5097 5.6156,-19.064 5.6156,-33.578 h -7.4568 v -9.7337 z"
       id="path11907"
       inkscape:connector-curvature="0"
       style="font-style:normal;font-variant:normal;font-weight:normal;font-stretch:normal;font-size:medium;line-height:125%;font-family:Rockwell;-inkscape-font-specification:Rockwell;letter-spacing:0px;word-spacing:0px;fill:#000000;fill-opacity:1;stroke:none;stroke-width:1px;stroke-linecap:butt;stroke-linejoin:miter;stroke-opacity:1" />
    <path
       style="fill:#050505"
       d="m 4449.9915,3310.7163 c 2.0975,-2.4196 4.4018,-6.8257 6.9486,-13.2869 3.398,-8.6207 5.5303,-24.0616 3.3227,-24.0616 -0.4993,0 -3.2946,2.1831 -6.2121,4.8513 -7.2031,6.5878 -10.9671,8.1875 -19.1564,8.1416 -5.4383,-0.03 -7.1572,-0.3842 -10.798,-2.2227 -8.0066,-4.0432 -13.4856,-11.1681 -15.6555,-20.3589 -2.3712,-10.0433 4.9409,-24.2047 19.129,-37.0473 20.673,-18.7126 27.165,-25.3562 32.634,-33.3962 1.996,-2.9345 3.7044,-5.3355 3.7963,-5.3355 0.092,0 1.8001,2.401 3.7962,5.3355 5.469,8.04 11.9609,14.6836 32.634,33.3962 14.1881,12.8426 21.5001,27.004 19.1289,37.0473 -2.1699,9.1908 -7.6488,16.3157 -15.6554,20.3589 -3.6408,1.8385 -5.3597,2.1923 -10.7981,2.2227 -8.1892,0.046 -11.9532,-1.5538 -19.1563,-8.1416 -2.9175,-2.6682 -5.7129,-4.8513 -6.2121,-4.8513 -2.2076,0 -0.075,15.4409 3.3227,24.0616 2.5468,6.4612 4.8511,10.8673 6.9486,13.2869 1.5387,1.7749 1.096,1.7536 -7.0635,-0.34 l -6.7993,-1.1827 -6.9451,1.1746 c -8.5095,1.439 -8.7365,2.1098 -7.2092,0.3481 z"
       id="path6510-8"
       inkscape:connector-curvature="0"
       sodipodi:nodetypes="sssscssssssssscssscscss" />
    <path
       sodipodi:nodetypes="sssscssssssssscssscscss"
       inkscape:connector-curvature="0"
       id="path6515"
       d="m 4701.9915,3310.7163 c 2.0975,-2.4196 4.4018,-6.8257 6.9486,-13.2869 3.398,-8.6207 5.5303,-24.0616 3.3227,-24.0616 -0.4993,0 -3.2946,2.1831 -6.2121,4.8513 -7.2031,6.5878 -10.9671,8.1875 -19.1564,8.1416 -5.4383,-0.03 -7.1572,-0.3842 -10.798,-2.2227 -8.0066,-4.0432 -13.4856,-11.1681 -15.6555,-20.3589 -2.3712,-10.0433 4.9409,-24.2047 19.129,-37.0473 20.673,-18.7126 27.165,-25.3562 32.634,-33.3962 1.996,-2.9345 3.7044,-5.3355 3.7963,-5.3355 0.092,0 1.8001,2.401 3.7962,5.3355 5.469,8.04 11.9609,14.6836 32.634,33.3962 14.1881,12.8426 21.5001,27.004 19.1289,37.0473 -2.1699,9.1908 -7.6488,16.3157 -15.6554,20.3589 -3.6408,1.8385 -5.3597,2.1923 -10.7981,2.2227 -8.1892,0.046 -11.9532,-1.5538 -19.1563,-8.1416 -2.9175,-2.6682 -5.7129,-4.8513 -6.2121,-4.8513 -2.2076,0 -0.075,15.4409 3.3227,24.0616 2.5468,6.4612 4.8511,10.8673 6.9486,13.2869 1.5387,1.7749 1.096,1.7536 -7.0635,-0.34 l -6.7993,-1.1827 -6.9451,1.1746 c -8.5095,1.439 -8.7365,2.1098 -7.2092,0.3481 z"
       style="fill:#050505" />
    <path
       sodipodi:nodetypes="sssscssssssssscssscscss"
       inkscape:connector-curvature="0"
       id="path6518-8"
       d="m 4449.9915,3610.7163 c 2.0975,-2.4196 4.4018,-6.8257 6.9486,-13.2869 3.398,-8.6207 5.5303,-24.0616 3.3227,-24.0616 -0.4993,0 -3.2946,2.1831 -6.2121,4.8513 -7.2031,6.5878 -10.9671,8.1875 -19.1564,8.1416 -5.4383,-0.03 -7.1572,-0.3842 -10.798,-2.2227 -8.0066,-4.0432 -13.4856,-11.1681 -15.6555,-20.3589 -2.3712,-10.0433 4.9409,-24.2047 19.129,-37.0473 20.673,-18.7126 27.165,-25.3562 32.634,-33.3962 1.996,-2.9345 3.7044,-5.3355 3.7963,-5.3355 0.092,0 1.8001,2.401 3.7962,5.3355 5.469,8.04 11.9609,14.6836 32.634,33.3962 14.1881,12.8426 21.5001,27.004 19.1289,37.0473 -2.1699,9.1908 -7.6488,16.3157 -15.6554,20.3589 -3.6408,1.8385 -5.3597,2.1923 -10.7981,2.2227 -8.1892,0.046 -11.9532,-1.5538 -19.1563,-8.1416 -2.9175,-2.6682 -5.7129,-4.8513 -6.2121,-4.8513 -2.2076,0 -0.075,15.4409 3.3227,24.0616 2.5468,6.4612 4.8511,10.8673 6.9486,13.2869 1.5387,1.7749 1.096,1.7536 -7.0635,-0.34 l -6.7993,-1.1827 -6.9451,1.1746 c -8.5095,1.439 -8.7365,2.1098 -7.2092,0.3481 z"
       style="fill:#050505" />
    <path
       style="fill:#050505"
       d="m 4701.9915,3610.7163 c 2.0975,-2.4196 4.4018,-6.8257 6.9486,-13.2869 3.398,-8.6207 5.5303,-24.0616 3.3227,-24.0616 -0.4993,0 -3.2946,2.1831 -6.2121,4.8513 -7.2031,6.5878 -10.9671,8.1875 -19.1564,8.1416 -5.4383,-0.03 -7.1572,-0.3842 -10.798,-2.2227 -8.0066,-4.0432 -13.4856,-11.1681 -15.6555,-20.3589 -2.3712,-10.0433 4.9409,-24.2047 19.129,-37.0473 20.673,-18.7126 27.165,-25.3562 32.634,-33.3962 1.996,-2.9345 3.7044,-5.3355 3.7963,-5.3355 0.092,0 1.8001,2.401 3.7962,5.3355 5.469,8.04 11.9609,14.6836 32.634,33.3962 14.1881,12.8426 21.5001,27.004 19.1289,37.0473 -2.1699,9.1908 -7.6488,16.3157 -15.6554,20.3589 -3.6408,1.8385 -5.3597,2.1923 -10.7981,2.2227 -8.1892,0.046 -11.9532,-1.5538 -19.1563,-8.1416 -2.9175,-2.6682 -5.7129,-4.8513 -6.2121,-4.8513 -2.2076,0 -0.075,15.4409 3.3227,24.0616 2.5468,6.4612 4.8511,10.8673 6.9486,13.2869 1.5387,1.7749 1.096,1.7536 -7.0635,-0.34 l -6.7993,-1.1827 -6.9451,1.1746 c -8.5095,1.439 -8.7365,2.1098 -7.2092,0.3481 z"
       id="path6520-3"
       inkscape:connector-curvature="0"
       sodipodi:nodetypes="sssscssssssssscssscscss" />
    <path
       sodipodi:nodetypes="sssscssssssssscssscscss"
       inkscape:connector-curvature="0"
       id="path6522-1"
       d="m 4449.9915,3789.284 c 2.0975,2.4196 4.4018,6.8257 6.9486,13.2869 3.398,8.6207 5.5303,24.0616 3.3227,24.0616 -0.4993,0 -3.2946,-2.1831 -6.2121,-4.8513 -7.2031,-6.5878 -10.9671,-8.1875 -19.1564,-8.1416 -5.4383,0.03 -7.1572,0.3842 -10.798,2.2227 -8.0066,4.0432 -13.4856,11.1681 -15.6555,20.3589 -2.3712,10.0433 4.9409,24.2047 19.129,37.0473 20.673,18.7126 27.165,25.3562 32.634,33.3962 1.996,2.9345 3.7044,5.3355 3.7963,5.3355 0.092,0 1.8001,-2.401 3.7962,-5.3355 5.469,-8.04 11.9609,-14.6836 32.634,-33.3962 14.1881,-12.8426 21.5001,-27.004 19.1289,-37.0473 -2.1699,-9.1908 -7.6488,-16.3157 -15.6554,-20.3589 -3.6408,-1.8385 -5.3597,-2.1923 -10.7981,-2.2227 -8.1892,-0.046 -11.9532,1.5538 -19.1563,8.1416 -2.9175,2.6682 -5.7129,4.8513 -6.2121,4.8513 -2.2076,0 -0.075,-15.4409 3.3227,-24.0616 2.5468,-6.4612 4.8511,-10.8673 6.9486,-13.2869 1.5387,-1.7749 1.096,-1.7536 -7.0635,0.34 l -6.7993,1.1827 -6.9451,-1.1746 c -8.5095,-1.439 -8.7365,-2.1098 -7.2092,-0.3481 z"
       style="fill:#050505" />
    <path
       style="fill:#050505"
       d="m 4701.9915,3789.284 c 2.0975,2.4196 4.4018,6.8257 6.9486,13.2869 3.398,8.6207 5.5303,24.0616 3.3227,24.0616 -0.4993,0 -3.2946,-2.1831 -6.2121,-4.8513 -7.2031,-6.5878 -10.9671,-8.1875 -19.1564,-8.1416 -5.4383,0.03 -7.1572,0.3842 -10.798,2.2227 -8.0066,4.0432 -13.4856,11.1681 -15.6555,20.3589 -2.3712,10.0433 4.9409,24.2047 19.129,37.0473 20.673,18.7126 27.165,25.3562 32.634,33.3962 1.996,2.9345 3.7044,5.3355 3.7963,5.3355 0.092,0 1.8001,-2.401 3.7962,-5.3355 5.469,-8.04 11.9609,-14.6836 32.634,-33.3962 14.1881,-12.8426 21.5001,-27.004 19.1289,-37.0473 -2.1699,-9.1908 -7.6488,-16.3157 -15.6554,-20.3589 -3.6408,-1.8385 -5.3597,-2.1923 -10.7981,-2.2227 -8.1892,-0.046 -11.9532,1.5538 -19.1563,8.1416 -2.9175,2.6682 -5.7129,4.8513 -6.2121,4.8513 -2.2076,0 -0.075,-15.4409 3.3227,-24.0616 2.5468,-6.4612 4.8511,-10.8673 6.9486,-13.2869 1.5387,-1.7749 1.096,-1.7536 -7.0635,0.34 l -6.7993,1.1827 -6.9451,-1.1746 c -8.5095,-1.439 -8.7365,-2.1098 -7.2092,-0.3481 z"
       id="path6533"
       inkscape:connector-curvature="0"
       sodipodi:nodetypes="sssscssssssssscssscscss" />
    <path
       sodipodi:nodetypes="sssscssssssssscssscscss"
       inkscape:connector-curvature="0"
       id="path6535"
       d="m 4575.9915,3460.7163 c 2.0975,-2.4196 4.4018,-6.8257 6.9486,-13.2869 3.398,-8.6207 5.5303,-24.0616 3.3227,-24.0616 -0.4993,0 -3.2946,2.1831 -6.2121,4.8513 -7.2031,6.5878 -10.9671,8.1875 -19.1564,8.1416 -5.4383,-0.03 -7.1572,-0.3842 -10.798,-2.2227 -8.0066,-4.0432 -13.4856,-11.1681 -15.6555,-20.3589 -2.3712,-10.0433 4.9409,-24.2047 19.129,-37.0473 20.673,-18.7126 27.165,-25.3562 32.634,-33.3962 1.996,-2.9345 3.7044,-5.3355 3.7963,-5.3355 0.092,0 1.8001,2.401 3.7962,5.3355 5.469,8.04 11.9609,14.6836 32.634,33.3962 14.1881,12.8426 21.5001,27.004 19.1289,37.0473 -2.1699,9.1908 -7.6488,16.3157 -15.6554,20.3589 -3.6408,1.8385 -5.3597,2.1923 -10.7981,2.2227 -8.1892,0.046 -11.9532,-1.5538 -19.1563,-8.1416 -2.9175,-2.6682 -5.7129,-4.8513 -6.2121,-4.8513 -2.2076,0 -0.075,15.4409 3.3227,24.0616 2.5468,6.4612 4.8511,10.8673 6.9486,13.2869 1.5387,1.7749 1.096,1.7536 -7.0635,-0.34 l -6.7993,-1.1827 -6.9451,1.1746 c -8.5095,1.439 -8.7365,2.1098 -7.2092,0.3481 z"
       style="fill:#050505" />
    <path
       sodipodi:nodetypes="sssscssssssssscssscscss"
       inkscape:connector-curvature="0"
       id="path6795"
       d="m 4340.4967,3283.5032 c 0.824,-0.9366 1.7293,-2.6422 2.7298,-5.1433 1.3349,-3.3371 2.1726,-9.3142 1.3053,-9.3142 -0.1961,0 -1.2943,0.8451 -2.4404,1.8779 -2.8298,2.5501 -4.3085,3.1694 -7.5258,3.1516 -2.1364,-0.012 -2.8117,-0.1487 -4.242,-0.8604 -3.1455,-1.5651 -5.298,-4.3231 -6.1504,-7.8809 -0.9316,-3.8877 1.9411,-9.3695 7.5149,-14.3408 8.1216,-7.2436 10.672,-9.8153 12.8206,-12.9276 0.7841,-1.1359 1.4553,-2.0653 1.4914,-2.0653 0.036,0 0.7071,0.9294 1.4913,2.0653 2.1486,3.1123 4.6989,5.684 12.8205,12.9276 5.5739,4.9713 8.4465,10.4531 7.515,14.3408 -0.8525,3.5578 -3.0049,6.3158 -6.1504,7.8809 -1.4303,0.7117 -2.1056,0.8486 -4.2421,0.8604 -3.2172,0.018 -4.6959,-0.6015 -7.5257,-3.1516 -1.1461,-1.0328 -2.2443,-1.8779 -2.4405,-1.8779 -0.8672,0 -0.029,5.9771 1.3054,9.3142 1.0005,2.5011 1.9058,4.2067 2.7298,5.1433 0.6045,0.687 0.4306,0.6788 -2.7749,-0.1316 l -2.6712,-0.4579 -2.7284,0.4547 c -3.3431,0.5571 -3.4322,0.8167 -2.8322,0.1348 z"
       style="fill:#050505" />
    <path
       style="fill:#050505"
       d="m 4828.4967,3283.5032 c 0.824,-0.9366 1.7293,-2.6422 2.7298,-5.1433 1.3349,-3.3371 2.1726,-9.3142 1.3053,-9.3142 -0.1961,0 -1.2943,0.8451 -2.4404,1.8779 -2.8298,2.5501 -4.3085,3.1694 -7.5258,3.1516 -2.1364,-0.012 -2.8117,-0.1487 -4.242,-0.8604 -3.1455,-1.5651 -5.298,-4.3231 -6.1504,-7.8809 -0.9316,-3.8877 1.9411,-9.3695 7.5149,-14.3408 8.1216,-7.2436 10.672,-9.8153 12.8206,-12.9276 0.7841,-1.1359 1.4553,-2.0653 1.4914,-2.0653 0.036,0 0.7071,0.9294 1.4913,2.0653 2.1486,3.1123 4.6989,5.684 12.8205,12.9276 5.5739,4.9713 8.4465,10.4531 7.515,14.3408 -0.8525,3.5578 -3.0049,6.3158 -6.1504,7.8809 -1.4303,0.7117 -2.1056,0.8486 -4.2421,0.8604 -3.2172,0.018 -4.6959,-0.6015 -7.5257,-3.1516 -1.1461,-1.0328 -2.2443,-1.8779 -2.4405,-1.8779 -0.8672,0 -0.029,5.9771 1.3054,9.3142 1.0005,2.5011 1.9058,4.2067 2.7298,5.1433 0.6045,0.687 0.4306,0.6788 -2.7749,-0.1316 l -2.6712,-0.4579 -2.7284,0.4547 c -3.3431,0.5571 -3.4322,0.8167 -2.8322,0.1348 z"
       id="path6799"
       inkscape:connector-curvature="0"
       sodipodi:nodetypes="sssscssssssssscssscscss" />
    <path
       style="fill:#050505"
       d="m 4340.4967,3816.4971 c 0.824,0.9366 1.7293,2.6422 2.7298,5.1433 1.3349,3.3371 2.1726,9.3142 1.3053,9.3142 -0.1961,0 -1.2943,-0.8451 -2.4404,-1.8779 -2.8298,-2.5501 -4.3085,-3.1694 -7.5258,-3.1516 -2.1364,0.012 -2.8117,0.1487 -4.242,0.8604 -3.1455,1.5651 -5.298,4.3231 -6.1504,7.8809 -0.9316,3.8877 1.9411,9.3695 7.5149,14.3408 8.1216,7.2436 10.672,9.8153 12.8206,12.9276 0.7841,1.1359 1.4553,2.0653 1.4914,2.0653 0.036,0 0.7071,-0.9294 1.4913,-2.0653 2.1486,-3.1123 4.6989,-5.684 12.8205,-12.9276 5.5739,-4.9713 8.4465,-10.4531 7.515,-14.3408 -0.8525,-3.5578 -3.0049,-6.3158 -6.1504,-7.8809 -1.4303,-0.7117 -2.1056,-0.8486 -4.2421,-0.8604 -3.2172,-0.018 -4.6959,0.6015 -7.5257,3.1516 -1.1461,1.0328 -2.2443,1.8779 -2.4405,1.8779 -0.8672,0 -0.029,-5.9771 1.3054,-9.3142 1.0005,-2.5011 1.9058,-4.2067 2.7298,-5.1433 0.6045,-0.687 0.4306,-0.6788 -2.7749,0.1316 l -2.6712,0.4579 -2.7284,-0.4547 c -3.3431,-0.5571 -3.4322,-0.8167 -2.8322,-0.1348 z"
       id="path6998"
       inkscape:connector-curvature="0"
       sodipodi:nodetypes="sssscssssssssscssscscss" />
    <path
       sodipodi:nodetypes="sssscssssssssscssscscss"
       inkscape:connector-curvature="0"
       id="path7000"
       d="m 4828.4967,3816.4971 c 0.824,0.9366 1.7293,2.6422 2.7298,5.1433 1.3349,3.3371 2.1726,9.3142 1.3053,9.3142 -0.1961,0 -1.2943,-0.8451 -2.4404,-1.8779 -2.8298,-2.5501 -4.3085,-3.1694 -7.5258,-3.1516 -2.1364,0.012 -2.8117,0.1487 -4.242,0.8604 -3.1455,1.5651 -5.298,4.3231 -6.1504,7.8809 -0.9316,3.8877 1.9411,9.3695 7.5149,14.3408 8.1216,7.2436 10.672,9.8153 12.8206,12.9276 0.7841,1.1359 1.4553,2.0653 1.4914,2.0653 0.036,0 0.7071,-0.9294 1.4913,-2.0653 2.1486,-3.1123 4.6989,-5.684 12.8205,-12.9276 5.5739,-4.9713 8.4465,-10.4531 7.515,-14.3408 -0.8525,-3.5578 -3.0049,-6.3158 -6.1504,-7.8809 -1.4303,-0.7117 -2.1056,-0.8486 -4.2421,-0.8604 -3.2172,-0.018 -4.6959,0.6015 -7.5257,3.1516 -1.1461,1.0328 -2.2443,1.8779 -2.4405,1.8779 -0.8672,0 -0.029,-5.9771 1.3054,-9.3142 1.0005,-2.5011 1.9058,-4.2067 2.7298,-5.1433 0.6045,-0.687 0.4306,-0.6788 -2.7749,0.1316 l -2.6712,0.4579 -2.7284,-0.4547 c -3.3431,-0.5571 -3.4322,-0.8167 -2.8322,-0.1348 z"
       style="fill:#050505" />
    <path
       inkscape:connector-curvature="0"
       id="path10296"
       d="m 4378.608,3969.5383 c -0.347,-0.3672 -0.632,-38.9588 -0.632,-85.7589 0,-82.2583 -0.06,-85.1695 -1.802,-87.4482 -1.767,-2.3087 -2.209,-2.3674 -21.489,-2.8564 L 4335,3792.9756 v -243.1243 -243.1244 l 19.568,-0.4992 c 17.134,-0.4371 19.777,-0.721 21.252,-2.282 1.582,-1.6748 1.713,-6.9885 2.156,-87.8642 L 4378.449,3130 h 212.051 212.051 l 0.472,86.0815 c 0.444,80.8757 0.575,86.1894 2.157,87.8642 1.475,1.561 4.117,1.8449 21.252,2.282 l 19.568,0.4992 v 243.1244 243.1243 l -19.568,0.4992 c -17.135,0.4372 -19.777,0.7211 -21.252,2.282 -1.582,1.6749 -1.713,6.9885 -2.157,87.8642 l -0.472,86.0816 -211.655,0.2518 c -116.411,0.1384 -211.939,-0.049 -212.288,-0.4161 z m 420.641,-85.9527 c 0,-81.6793 0.05,-83.6964 1.88,-86.8749 3.8,-6.5887 6.015,-7.2218 25.272,-7.226 h 17.237 V 3549.855 3310.2252 h -17.237 c -19.257,0 -21.472,-0.6373 -25.272,-7.2259 -1.834,-3.1786 -1.877,-5.1956 -1.88,-86.8749 v -83.6206 h -208.745 -208.745 v 83.6208 c 0,81.6794 -0.05,83.6964 -1.88,86.875 -3.801,6.5886 -6.015,7.2217 -25.272,7.2259 h -17.238 v 239.6297 239.6298 h 17.238 c 19.257,0 21.471,0.6373 25.272,7.226 1.833,3.1785 1.877,5.1955 1.88,86.8749 v 83.6205 h 208.745 208.745 z"
       style="fill:#b7b772" />
    <path
       inkscape:connector-curvature="0"
       id="path10316"
       d="m 4382.9905,3903.4031 c 0,-35.1662 -0.4547,-73.4211 -1.0106,-85.0109 -1.38,-28.7746 -1.4355,-28.8388 -25.5854,-29.6055 l -17.7188,-0.5624 v -238.9826 -238.9826 h 17.6426 c 24.4199,0 24.2974,0.1345 25.6559,-28.1896 0.559,-11.656 1.0163,-49.9651 1.0163,-85.1313 v -63.9386 h 207.784 207.7839 l 0.4196,84.9425 0.4195,84.9426 4.2875,3.6872 c 3.9919,3.433 5.4932,3.6872 21.7754,3.6872 h 17.4879 v 239.1475 239.1475 l -14.1349,0.01 c -7.7742,0 -16.7685,0.7398 -19.9873,1.6336 -10.3409,2.8708 -10.1926,1.4954 -10.1926,94.5784 v 82.5664 H 4590.812 4382.9905 v -63.9386 z m 85.3455,3.9607 c 1.6925,-2.7315 12.3387,-14.0411 23.6581,-25.1325 23.7165,-23.2388 29.4732,-32.2549 28.141,-44.0742 -1.5597,-13.8375 -13.6889,-25.1534 -26.9611,-25.1534 -7.9441,0 -12.3599,1.7857 -19.1431,7.7415 -3.0632,2.6895 -5.9675,4.492 -6.454,4.0054 -1.6347,-1.6346 4.0643,-23.1403 7.929,-29.921 2.1045,-3.6923 3.5501,-6.9896 3.2125,-7.3273 -0.3377,-0.3376 -3.7362,0.1723 -7.5523,1.1332 -4.9441,1.2449 -9.0548,1.2957 -14.3014,0.1767 -4.0496,-0.8637 -7.5597,-1.3736 -7.8002,-1.1332 -0.2405,0.2405 1.2846,3.4583 3.3891,7.1506 3.8648,6.7807 9.5638,28.2864 7.9291,29.921 -0.4865,0.4866 -3.3908,-1.3159 -6.454,-4.0054 -6.7832,-5.9558 -11.199,-7.7415 -19.1432,-7.7415 -13.2722,0 -25.4013,11.3159 -26.961,25.1534 -1.3322,11.8193 4.4245,20.8354 28.141,44.0742 11.3194,11.0914 21.9656,22.401 23.6581,25.1325 1.6925,2.7315 3.6528,4.9663 4.3562,4.9663 0.7033,0 2.6636,-2.2348 4.3562,-4.9663 z m 249.3082,3.397 c 0,-0.8632 11.2282,-13.0808 24.9515,-27.1503 27.2562,-27.9437 31.2495,-34.1775 29.6297,-46.2541 -1.787,-13.3228 -13.9774,-24.3527 -26.915,-24.3527 -7.9442,0 -12.36,1.7857 -19.1432,7.7415 -3.0632,2.6895 -5.9374,4.522 -6.3872,4.0722 -1.7053,-1.7053 2.6237,-19.0617 6.9391,-27.8212 2.4741,-5.0221 4.2786,-9.3508 4.0101,-9.6194 -0.2687,-0.2686 -3.6107,0.2978 -7.4268,1.2587 -4.944,1.2449 -9.0547,1.2957 -14.3013,0.1767 -4.0497,-0.8637 -7.4986,-1.4348 -7.6644,-1.2691 -0.1657,0.1658 1.6605,4.415 4.0583,9.4428 4.0642,8.5222 8.5197,26.3691 6.9699,27.9189 -0.3778,0.3778 -3.5823,-1.7914 -7.1211,-4.8204 -14.2934,-12.2347 -35.1441,-7.9483 -42.7439,8.7869 -7.1286,15.6976 -1.9424,26.7081 24.8232,52.7015 10.7072,10.3983 21.3155,21.5725 23.5741,24.8316 3.9951,5.765 6.747,7.5418 6.747,4.3564 z m -257.9143,-300.1515 c 2.285,-0.4824 7.3617,-0.1584 11.2814,0.7201 3.9198,0.8784 7.3956,1.3285 7.724,1.0001 0.3283,-0.3284 -1.1249,-3.618 -3.2294,-7.3104 -3.8382,-6.7341 -9.5682,-28.2819 -7.9508,-29.8993 0.4746,-0.4745 3.7582,1.6155 7.297,4.6446 14.2934,12.2346 35.1441,7.9483 42.7439,-8.787 7.1215,-15.682 3.0794,-24.0428 -25.8917,-53.5553 -12.4326,-12.6649 -23.7567,-24.7273 -25.1646,-26.8053 l -2.5599,-3.7782 -2.5599,3.7782 c -1.4079,2.078 -12.732,14.1404 -25.1646,26.8053 -29.2015,29.7472 -33.1694,38.0699 -25.6026,53.701 8.1627,16.8619 28.108,20.9216 42.4548,8.6413 3.5388,-3.0291 6.7924,-5.1492 7.2302,-4.7113 0.4378,0.4378 0.066,4.7446 -0.826,9.5705 -1.3404,7.2514 -3.9255,13.9237 -10.5072,27.1197 -0.3326,0.667 1.0097,0.882 2.983,0.4779 1.9732,-0.4042 5.4573,-1.1295 7.7424,-1.6119 z m 252.1363,0 c 2.285,-0.4824 7.3617,-0.1584 11.2815,0.7201 3.9198,0.8784 7.3895,1.3345 7.7104,1.0136 0.321,-0.321 -1.122,-3.6354 -3.2067,-7.3653 -4.0628,-7.2691 -8.9947,-24.3049 -8.1989,-28.3208 0.3782,-1.9087 1.9366,-1.2274 7.1352,3.1193 7.824,6.5418 11.5294,7.693 21.637,6.7217 14.494,-1.3927 25.8104,-15.542 23.8528,-29.824 -1.4599,-10.6512 -6.5346,-17.6809 -28.3307,-39.2447 -10.9809,-10.864 -21.5181,-22.0335 -23.416,-24.8212 -1.8978,-2.7877 -3.9103,-5.0732 -4.4721,-5.079 -0.5618,-0.01 -2.4077,2.2244 -4.1021,4.9559 -1.6944,2.7315 -12.3461,14.075 -23.6705,25.2077 -27.8437,27.3724 -32.7312,37.551 -25.5862,53.2848 7.5998,16.7353 28.4505,21.0216 42.7439,8.787 3.5388,-3.0291 6.7725,-5.1691 7.186,-4.7556 1.5739,1.5739 -4.0188,23.116 -7.721,29.7401 -2.1305,3.8118 -3.8737,7.201 -3.8737,7.5314 0,0.5716 1.4456,0.3526 11.0311,-1.671 z m -114.6459,-149.3416 c 3.5651,0.9049 6.7983,1.3289 7.185,0.9421 0.3867,-0.3867 -0.7281,-3.2741 -2.4774,-6.4164 -3.9317,-7.0626 -8.0597,-20.797 -8.0597,-26.8158 v -4.5027 l 4.9663,4.0739 c 13.3995,10.9918 27.5141,11.4287 38.3389,1.1868 6.2642,-5.9268 9.0028,-12.0504 9.0028,-20.1304 0,-11.3832 -4.9728,-18.8547 -26.9649,-40.5143 -11.0937,-10.9259 -22.2442,-22.5404 -24.779,-25.8101 l -4.6086,-5.9448 -7.0933,9.001 c -3.9012,4.9506 -14.3356,15.7521 -23.1875,24.0034 -8.8519,8.2513 -17.892,18.0698 -20.0891,21.819 -8.1132,13.8441 -7.6867,24.9508 1.3534,35.247 10.978,12.5033 26.0847,12.9299 40.4542,1.1424 l 4.9663,-4.0739 v 4.6191 c 0,5.8596 -5.2888,23.1282 -8.3061,27.1203 -4.1521,5.4937 -3.0383,6.543 5.2131,4.9115 5.1863,-1.0254 9.6645,-0.9803 14.0856,0.1418 z M 4474.701,3303.3555 c -3.9653,-8.3147 -8.532,-26.357 -7.0471,-27.8419 0.3354,-0.3354 3.7876,1.8158 7.6714,4.7804 11.2299,8.5719 21.9874,9.1442 33.1413,1.7629 6.4401,-4.2619 12.0597,-14.6839 12.0379,-22.3255 -0.031,-11.002 -6.5421,-20.6068 -28.8272,-42.5258 -11.6253,-11.4344 -22.6131,-22.8528 -24.4172,-25.3742 l -3.2803,-4.5843 -3.2917,4.5843 c -1.8105,2.5214 -12.8611,14.062 -24.5571,25.6458 -24.1752,23.9434 -29.6661,32.6446 -28.2922,44.8334 1.0008,8.8796 7.4771,18.0161 15.5354,21.9171 10.7937,5.2251 20.6696,3.558 31.1195,-5.2532 2.767,-2.3331 5.4057,-3.8671 5.8639,-3.409 1.5637,1.5638 -2.7734,18.6303 -6.9969,27.5328 l -4.2148,8.8843 9.3271,-0.8747 c 5.1299,-0.4811 11.7338,-0.2954 14.6754,0.4127 2.9416,0.7081 5.4752,1.2175 5.6302,1.1319 0.155,-0.086 -1.6799,-4.2693 -4.0776,-9.297 z m 252.0181,-0.011 c -4.195,-8.5152 -8.6596,-26.1008 -7.038,-27.7224 0.3955,-0.3954 3.8967,1.7066 7.7805,4.6712 15.2422,11.6346 32.2992,8.1503 41.3366,-8.4441 8.5796,-15.7534 3.9665,-25.8481 -24.8589,-54.3974 -11.6819,-11.57 -22.721,-23.0993 -24.5315,-25.6207 l -3.2917,-4.5843 -3.2803,4.5843 c -1.8041,2.5214 -12.7919,13.9398 -24.4172,25.3742 -22.2851,21.919 -28.7959,31.5238 -28.8272,42.5258 -0.022,7.6416 5.5978,18.0636 12.038,22.3255 11.1771,7.3967 21.6817,6.8285 32.9596,-1.7828 3.9338,-3.0037 7.4471,-5.1663 7.8076,-4.8059 1.5643,1.5643 -2.9942,19.5023 -7.026,27.6471 l -4.4062,8.9013 9.486,-0.8917 c 5.2173,-0.4905 11.8927,-0.3124 14.8343,0.3957 2.9416,0.7081 5.4799,1.2128 5.6406,1.1215 0.1607,-0.091 -1.7321,-4.2749 -4.2062,-9.297 z"
       style="fill:#feefd3;fill-opacity:1;stroke:#fffecd;stroke-width:0.541452;stroke-miterlimit:4;stroke-dasharray:none;stroke-opacity:1" />
  </g>
</svg>
