<?xml version="1.0" encoding="UTF-8" standalone="no"?>
<!-- Created with Inkscape (http://www.inkscape.org/) -->

<svg
   id="svg10047"
   height="122.94574"
   width="78.999794"
   version="1.1"
   viewBox="0 0 78.999794 122.94574"
   inkscape:version="0.91 r13725"
   sodipodi:docname="kaiser-jubilaum.svgz"
   xmlns:inkscape="http://www.inkscape.org/namespaces/inkscape"
   xmlns:sodipodi="http://sodipodi.sourceforge.net/DTD/sodipodi-0.dtd"
   xmlns="http://www.w3.org/2000/svg"
   xmlns:svg="http://www.w3.org/2000/svg"
   xmlns:rdf="http://www.w3.org/1999/02/22-rdf-syntax-ns#"
   xmlns:cc="http://creativecommons.org/ns#"
   xmlns:dc="http://purl.org/dc/elements/1.1/">
  <sodipodi:namedview
     pagecolor="#ffffff"
     bordercolor="#666666"
     borderopacity="1"
     objecttolerance="10"
     gridtolerance="10"
     guidetolerance="10"
     inkscape:pageopacity="0"
     inkscape:pageshadow="2"
     inkscape:window-width="1920"
     inkscape:window-height="1016"
     id="namedview1491"
     showgrid="false"
     inkscape:zoom="1.3479675"
     inkscape:cx="513.49999"
     inkscape:cy="307.5"
     inkscape:window-x="0"
     inkscape:window-y="0"
     inkscape:window-maximized="1"
     inkscape:current-layer="svg10047"
     showguides="true"
     inkscape:guide-bbox="true"
     inkscape:snap-grids="true"
     inkscape:showpageshadow="2"
     inkscape:pagecheckerboard="0"
     inkscape:deskcolor="#d1d1d1" />
  <metadata
     id="metadata16869">
    <rdf:RDF>
      <cc:Work
         rdf:about="">
        <dc:format>image/svg+xml</dc:format>
        <dc:type
           rdf:resource="http://purl.org/dc/dcmitype/StillImage" />
        <dc:title />
      </cc:Work>
    </rdf:RDF>
  </metadata>
  <defs
     id="defs10049" />
  <g
     id="spade_3"
     transform="matrix(0.13620654,0,0,0.13660647,-204.30981,-423.48006)"
     inkscape:label="#spade_3">
    <rect
       width="578.00104"
       height="898.00043"
       rx="48.210754"
       ry="49.888176"
       x="1500.9995"
       y="3100.9995"
       id="rect6271"
       style="font-style:normal;font-variant:normal;font-weight:500;font-stretch:normal;font-size:medium;line-height:125%;font-family:Gaelic;-inkscape-font-specification:'Gaelic Medium';letter-spacing:0px;word-spacing:0px;fill:#ffffff;fill-opacity:1;stroke:#000000;stroke-width:1.99898;stroke-linecap:butt;stroke-linejoin:miter;stroke-miterlimit:4;stroke-dasharray:none;stroke-opacity:1" />
    <ellipse
       ry="10.641262"
       rx="10.638906"
       transform="scale(-1)"
       cy="-3803.3979"
       cx="-2013.2233"
       id="ellipse6291"
       style="fill:#ffffff;fill-opacity:1;stroke:#0c0000;stroke-width:2.70753;stroke-miterlimit:4;stroke-dasharray:none;stroke-opacity:0" />
    <ellipse
       ry="10.641262"
       rx="10.638906"
       style="fill:#ffffff;fill-opacity:1;stroke:#0c0000;stroke-width:2.70753;stroke-miterlimit:4;stroke-dasharray:none;stroke-opacity:0"
       id="ellipse6345"
       cx="1566.3856"
       cy="-3803.3979"
       transform="scale(1,-1)" />
    <path
       d="m 1540.6709,3175.0943 v -9.5889 q 6.1024,0 8.861,-0.9478 2.8004,-0.9477 4.3469,-3.7351 1.5465,-2.8432 1.5465,-7.1359 0,-5.1846 -2.2988,-8.9199 -2.2571,-3.7351 -6.7294,-3.7351 -4.9321,0 -7.1891,3.9581 -2.2571,3.9025 -2.466,11.7073 h -8.0669 q 0,-13.3798 4.9321,-19.0104 4.9738,-5.6865 12.163,-5.6865 8.7356,0 13.1661,5.7422 4.4305,5.7422 4.4305,14.662 0,6.5785 -2.5496,11.0941 -2.5079,4.5157 -5.6845,6.4112 10.8673,4.2926 10.8673,18.5087 0,11.8187 -5.977,17.7281 -5.9352,5.8537 -13.9603,5.8537 -10.2403,0 -15.1724,-7.3032 -4.8903,-7.303 -4.8903,-20.1811 h 7.6908 q 0.2089,8.9199 3.6363,13.6585 3.4692,4.6829 9.1954,4.6829 5.2247,0 8.1923,-3.8466 3.0094,-3.9025 3.0094,-9.8119 0,-6.1881 -3.511,-10.1463 -3.511,-4.014 -11.2017,-4.014 -1.0031,0 -2.3406,0.056 z"
       id="path7381"
       inkscape:connector-curvature="0"
       style="font-style:normal;font-variant:normal;font-weight:normal;font-stretch:normal;font-size:medium;line-height:125%;font-family:Rockwell;-inkscape-font-specification:Rockwell;letter-spacing:0px;word-spacing:0px;fill:#000000;fill-opacity:1;stroke:none;stroke-width:1px;stroke-linecap:butt;stroke-linejoin:miter;stroke-opacity:1" />
    <path
       inkscape:connector-curvature="0"
       id="path7397"
       d="m 2028.6709,3175.0943 v -9.5889 q 6.1024,0 8.861,-0.9478 2.8004,-0.9477 4.3469,-3.7351 1.5465,-2.8432 1.5465,-7.1359 0,-5.1846 -2.2988,-8.9199 -2.2571,-3.7351 -6.7294,-3.7351 -4.9321,0 -7.1891,3.9581 -2.2571,3.9025 -2.466,11.7073 h -8.0669 q 0,-13.3798 4.9321,-19.0104 4.9738,-5.6865 12.163,-5.6865 8.7356,0 13.1661,5.7422 4.4305,5.7422 4.4305,14.662 0,6.5785 -2.5496,11.0941 -2.5079,4.5157 -5.6845,6.4112 10.8673,4.2926 10.8673,18.5087 0,11.8187 -5.977,17.7281 -5.9352,5.8537 -13.9603,5.8537 -10.2403,0 -15.1724,-7.3032 -4.8903,-7.303 -4.8903,-20.1811 h 7.6908 q 0.2089,8.9199 3.6363,13.6585 3.4692,4.6829 9.1954,4.6829 5.2247,0 8.1923,-3.8466 3.0094,-3.9025 3.0094,-9.8119 0,-6.1881 -3.511,-10.1463 -3.511,-4.014 -11.2017,-4.014 -1.0031,0 -2.3406,0.056 z"
       style="font-style:normal;font-variant:normal;font-weight:normal;font-stretch:normal;font-size:medium;line-height:125%;font-family:Rockwell;-inkscape-font-specification:Rockwell;letter-spacing:0px;word-spacing:0px;fill:#000000;fill-opacity:1;stroke:none;stroke-width:1px;stroke-linecap:butt;stroke-linejoin:miter;stroke-opacity:1" />
    <path
       inkscape:connector-curvature="0"
       id="path11825"
       d="m 1551.3292,3924.806 v 9.5889 q -6.1024,0 -8.861,0.9478 -2.8004,0.9477 -4.3469,3.7351 -1.5465,2.8432 -1.5465,7.1359 0,5.1846 2.2988,8.9199 2.2571,3.7351 6.7294,3.7351 4.9321,0 7.1891,-3.9581 2.2571,-3.9025 2.466,-11.7073 h 8.0669 q 0,13.3798 -4.9321,19.0104 -4.9738,5.6865 -12.163,5.6865 -8.7356,0 -13.1661,-5.7422 -4.4305,-5.7422 -4.4305,-14.662 0,-6.5785 2.5496,-11.0941 2.5079,-4.5157 5.6845,-6.4112 -10.8673,-4.2926 -10.8673,-18.5087 0,-11.8187 5.977,-17.7281 5.9352,-5.8537 13.9603,-5.8537 10.2403,0 15.1724,7.3032 4.8903,7.303 4.8903,20.1811 h -7.6908 q -0.2089,-8.9199 -3.6363,-13.6585 -3.4692,-4.6829 -9.1954,-4.6829 -5.2247,0 -8.1923,3.8466 -3.0094,3.9025 -3.0094,9.8119 0,6.1881 3.511,10.1463 3.511,4.014 11.2017,4.014 1.0031,0 2.3406,-0.056 z"
       style="font-style:normal;font-variant:normal;font-weight:normal;font-stretch:normal;font-size:medium;line-height:125%;font-family:Rockwell;-inkscape-font-specification:Rockwell;letter-spacing:0px;word-spacing:0px;fill:#000000;fill-opacity:1;stroke:none;stroke-width:1px;stroke-linecap:butt;stroke-linejoin:miter;stroke-opacity:1" />
    <path
       d="m 2039.3292,3924.806 v 9.5889 q -6.1024,0 -8.861,0.9478 -2.8004,0.9477 -4.3469,3.7351 -1.5465,2.8432 -1.5465,7.1359 0,5.1846 2.2988,8.9199 2.2571,3.7351 6.7294,3.7351 4.9321,0 7.1891,-3.9581 2.2571,-3.9025 2.466,-11.7073 h 8.0669 q 0,13.3798 -4.9321,19.0104 -4.9738,5.6865 -12.163,5.6865 -8.7356,0 -13.1661,-5.7422 -4.4305,-5.7422 -4.4305,-14.662 0,-6.5785 2.5496,-11.0941 2.5079,-4.5157 5.6845,-6.4112 -10.8673,-4.2926 -10.8673,-18.5087 0,-11.8187 5.977,-17.7281 5.9352,-5.8537 13.9603,-5.8537 10.2403,0 15.1724,7.3032 4.8903,7.303 4.8903,20.1811 h -7.6908 q -0.2089,-8.9199 -3.6363,-13.6585 -3.4692,-4.6829 -9.1954,-4.6829 -5.2247,0 -8.1923,3.8466 -3.0094,3.9025 -3.0094,9.8119 0,6.1881 3.511,10.1463 3.511,4.014 11.2017,4.014 1.0031,0 2.3406,-0.056 z"
       id="path11833"
       inkscape:connector-curvature="0"
       style="font-style:normal;font-variant:normal;font-weight:normal;font-stretch:normal;font-size:medium;line-height:125%;font-family:Rockwell;-inkscape-font-specification:Rockwell;letter-spacing:0px;word-spacing:0px;fill:#000000;fill-opacity:1;stroke:none;stroke-width:1px;stroke-linecap:butt;stroke-linejoin:miter;stroke-opacity:1" />
    <path
       style="fill:#050505"
       d="m 1775.9915,3310.7163 c 2.0975,-2.4196 4.4018,-6.8257 6.9486,-13.2869 3.398,-8.6207 5.5303,-24.0616 3.3227,-24.0616 -0.4993,0 -3.2946,2.1831 -6.2121,4.8513 -7.2031,6.5878 -10.9671,8.1875 -19.1564,8.1416 -5.4383,-0.03 -7.1572,-0.3842 -10.798,-2.2227 -8.0066,-4.0432 -13.4856,-11.1681 -15.6555,-20.3589 -2.3712,-10.0433 4.9409,-24.2047 19.129,-37.0473 20.673,-18.7126 27.165,-25.3562 32.634,-33.3962 1.996,-2.9345 3.7044,-5.3355 3.7963,-5.3355 0.092,0 1.8001,2.401 3.7962,5.3355 5.469,8.04 11.9609,14.6836 32.634,33.3962 14.1881,12.8426 21.5001,27.004 19.1289,37.0473 -2.1699,9.1908 -7.6488,16.3157 -15.6554,20.3589 -3.6408,1.8385 -5.3597,2.1923 -10.7981,2.2227 -8.1892,0.046 -11.9532,-1.5538 -19.1563,-8.1416 -2.9175,-2.6682 -5.7129,-4.8513 -6.2121,-4.8513 -2.2076,0 -0.075,15.4409 3.3227,24.0616 2.5468,6.4612 4.8511,10.8673 6.9486,13.2869 1.5387,1.7749 1.096,1.7536 -7.0635,-0.34 l -6.7993,-1.1827 -6.9451,1.1746 c -8.5095,1.439 -8.7365,2.1098 -7.2092,0.3481 z"
       id="path6709"
       inkscape:connector-curvature="0"
       sodipodi:nodetypes="sssscssssssssscssscscss" />
    <path
       sodipodi:nodetypes="sssscssssssssscssscscss"
       inkscape:connector-curvature="0"
       id="path6711"
       d="m 1775.9915,3789.284 c 2.0975,2.4196 4.4018,6.8257 6.9486,13.2869 3.398,8.6207 5.5303,24.0616 3.3227,24.0616 -0.4993,0 -3.2946,-2.1831 -6.2121,-4.8513 -7.2031,-6.5878 -10.9671,-8.1875 -19.1564,-8.1416 -5.4383,0.03 -7.1572,0.3842 -10.798,2.2227 -8.0066,4.0432 -13.4856,11.1681 -15.6555,20.3589 -2.3712,10.0433 4.9409,24.2047 19.129,37.0473 20.673,18.7126 27.165,25.3562 32.634,33.3962 1.996,2.9345 3.7044,5.3355 3.7963,5.3355 0.092,0 1.8001,-2.401 3.7962,-5.3355 5.469,-8.04 11.9609,-14.6836 32.634,-33.3962 14.1881,-12.8426 21.5001,-27.004 19.1289,-37.0473 -2.1699,-9.1908 -7.6488,-16.3157 -15.6554,-20.3589 -3.6408,-1.8385 -5.3597,-2.1923 -10.7981,-2.2227 -8.1892,-0.046 -11.9532,1.5538 -19.1563,8.1416 -2.9175,2.6682 -5.7129,4.8513 -6.2121,4.8513 -2.2076,0 -0.075,-15.4409 3.3227,-24.0616 2.5468,-6.4612 4.8511,-10.8673 6.9486,-13.2869 1.5387,-1.7749 1.096,-1.7536 -7.0635,0.34 l -6.7993,1.1827 -6.9451,-1.1746 c -8.5095,-1.439 -8.7365,-2.1098 -7.2092,-0.3481 z"
       style="fill:#050505" />
    <path
       sodipodi:nodetypes="sssscssssssssscssscscss"
       inkscape:connector-curvature="0"
       id="path6713"
       d="m 1775.9915,3610.7163 c 2.0975,-2.4196 4.4018,-6.8257 6.9486,-13.2869 3.398,-8.6207 5.5303,-24.0616 3.3227,-24.0616 -0.4993,0 -3.2946,2.1831 -6.2121,4.8513 -7.2031,6.5878 -10.9671,8.1875 -19.1564,8.1416 -5.4383,-0.03 -7.1572,-0.3842 -10.798,-2.2227 -8.0066,-4.0432 -13.4856,-11.1681 -15.6555,-20.3589 -2.3712,-10.0433 4.9409,-24.2047 19.129,-37.0473 20.673,-18.7126 27.165,-25.3562 32.634,-33.3962 1.996,-2.9345 3.7044,-5.3355 3.7963,-5.3355 0.092,0 1.8001,2.401 3.7962,5.3355 5.469,8.04 11.9609,14.6836 32.634,33.3962 14.1881,12.8426 21.5001,27.004 19.1289,37.0473 -2.1699,9.1908 -7.6488,16.3157 -15.6554,20.3589 -3.6408,1.8385 -5.3597,2.1923 -10.7981,2.2227 -8.1892,0.046 -11.9532,-1.5538 -19.1563,-8.1416 -2.9175,-2.6682 -5.7129,-4.8513 -6.2121,-4.8513 -2.2076,0 -0.075,15.4409 3.3227,24.0616 2.5468,6.4612 4.8511,10.8673 6.9486,13.2869 1.5387,1.7749 1.096,1.7536 -7.0635,-0.34 l -6.7993,-1.1827 -6.9451,1.1746 c -8.5095,1.439 -8.7365,2.1098 -7.2092,0.3481 z"
       style="fill:#050505" />
    <path
       style="fill:#050505"
       d="m 1540.4967,3283.5032 c 0.824,-0.9366 1.7293,-2.6422 2.7298,-5.1433 1.3349,-3.3371 2.1726,-9.3142 1.3053,-9.3142 -0.1961,0 -1.2943,0.8451 -2.4404,1.8779 -2.8298,2.5501 -4.3085,3.1694 -7.5258,3.1516 -2.1364,-0.012 -2.8117,-0.1487 -4.242,-0.8604 -3.1455,-1.5651 -5.298,-4.3231 -6.1504,-7.8809 -0.9316,-3.8877 1.9411,-9.3695 7.5149,-14.3408 8.1216,-7.2436 10.672,-9.8153 12.8206,-12.9276 0.7841,-1.1359 1.4553,-2.0653 1.4914,-2.0653 0.036,0 0.7071,0.9294 1.4913,2.0653 2.1486,3.1123 4.6989,5.684 12.8205,12.9276 5.5739,4.9713 8.4465,10.4531 7.515,14.3408 -0.8525,3.5578 -3.0049,6.3158 -6.1504,7.8809 -1.4303,0.7117 -2.1056,0.8486 -4.2421,0.8604 -3.2172,0.018 -4.6959,-0.6015 -7.5257,-3.1516 -1.1461,-1.0328 -2.2443,-1.8779 -2.4405,-1.8779 -0.8672,0 -0.029,5.9771 1.3054,9.3142 1.0005,2.5011 1.9058,4.2067 2.7298,5.1433 0.6045,0.687 0.4306,0.6788 -2.7749,-0.1316 l -2.6712,-0.4579 -2.7284,0.4547 c -3.3431,0.5571 -3.4322,0.8167 -2.8322,0.1348 z"
       id="path6851"
       inkscape:connector-curvature="0"
       sodipodi:nodetypes="sssscssssssssscssscscss" />
    <path
       sodipodi:nodetypes="sssscssssssssscssscscss"
       inkscape:connector-curvature="0"
       id="path6853"
       d="m 2028.4967,3283.5032 c 0.824,-0.9366 1.7293,-2.6422 2.7298,-5.1433 1.3349,-3.3371 2.1726,-9.3142 1.3053,-9.3142 -0.1961,0 -1.2943,0.8451 -2.4404,1.8779 -2.8298,2.5501 -4.3085,3.1694 -7.5258,3.1516 -2.1364,-0.012 -2.8117,-0.1487 -4.242,-0.8604 -3.1455,-1.5651 -5.298,-4.3231 -6.1504,-7.8809 -0.9316,-3.8877 1.9411,-9.3695 7.5149,-14.3408 8.1216,-7.2436 10.672,-9.8153 12.8206,-12.9276 0.7841,-1.1359 1.4553,-2.0653 1.4914,-2.0653 0.036,0 0.7071,0.9294 1.4913,2.0653 2.1486,3.1123 4.6989,5.684 12.8205,12.9276 5.5739,4.9713 8.4465,10.4531 7.515,14.3408 -0.8525,3.5578 -3.0049,6.3158 -6.1504,7.8809 -1.4303,0.7117 -2.1056,0.8486 -4.2421,0.8604 -3.2172,0.018 -4.6959,-0.6015 -7.5257,-3.1516 -1.1461,-1.0328 -2.2443,-1.8779 -2.4405,-1.8779 -0.8672,0 -0.029,5.9771 1.3054,9.3142 1.0005,2.5011 1.9058,4.2067 2.7298,5.1433 0.6045,0.687 0.4306,0.6788 -2.7749,-0.1316 l -2.6712,-0.4579 -2.7284,0.4547 c -3.3431,0.5571 -3.4322,0.8167 -2.8322,0.1348 z"
       style="fill:#050505" />
    <path
       sodipodi:nodetypes="sssscssssssssscssscscss"
       inkscape:connector-curvature="0"
       id="path7015-9"
       d="m 1540.4967,3816.4971 c 0.824,0.9366 1.7293,2.6422 2.7298,5.1433 1.3349,3.3371 2.1726,9.3142 1.3053,9.3142 -0.1961,0 -1.2943,-0.8451 -2.4404,-1.8779 -2.8298,-2.5501 -4.3085,-3.1694 -7.5258,-3.1516 -2.1364,0.012 -2.8117,0.1487 -4.242,0.8604 -3.1455,1.5651 -5.298,4.3231 -6.1504,7.8809 -0.9316,3.8877 1.9411,9.3695 7.5149,14.3408 8.1216,7.2436 10.672,9.8153 12.8206,12.9276 0.7841,1.1359 1.4553,2.0653 1.4914,2.0653 0.036,0 0.7071,-0.9294 1.4913,-2.0653 2.1486,-3.1123 4.6989,-5.684 12.8205,-12.9276 5.5739,-4.9713 8.4465,-10.4531 7.515,-14.3408 -0.8525,-3.5578 -3.0049,-6.3158 -6.1504,-7.8809 -1.4303,-0.7117 -2.1056,-0.8486 -4.2421,-0.8604 -3.2172,-0.018 -4.6959,0.6015 -7.5257,3.1516 -1.1461,1.0328 -2.2443,1.8779 -2.4405,1.8779 -0.8672,0 -0.029,-5.9771 1.3054,-9.3142 1.0005,-2.5011 1.9058,-4.2067 2.7298,-5.1433 0.6045,-0.687 0.4306,-0.6788 -2.7749,0.1316 l -2.6712,0.4579 -2.7284,-0.4547 c -3.3431,-0.5571 -3.4322,-0.8167 -2.8322,-0.1348 z"
       style="fill:#050505" />
    <path
       style="fill:#050505"
       d="m 2028.4967,3816.4971 c 0.824,0.9366 1.7293,2.6422 2.7298,5.1433 1.3349,3.3371 2.1726,9.3142 1.3053,9.3142 -0.1961,0 -1.2943,-0.8451 -2.4404,-1.8779 -2.8298,-2.5501 -4.3085,-3.1694 -7.5258,-3.1516 -2.1364,0.012 -2.8117,0.1487 -4.242,0.8604 -3.1455,1.5651 -5.298,4.3231 -6.1504,7.8809 -0.9316,3.8877 1.9411,9.3695 7.5149,14.3408 8.1216,7.2436 10.672,9.8153 12.8206,12.9276 0.7841,1.1359 1.4553,2.0653 1.4914,2.0653 0.036,0 0.7071,-0.9294 1.4913,-2.0653 2.1486,-3.1123 4.6989,-5.684 12.8205,-12.9276 5.5739,-4.9713 8.4465,-10.4531 7.515,-14.3408 -0.8525,-3.5578 -3.0049,-6.3158 -6.1504,-7.8809 -1.4303,-0.7117 -2.1056,-0.8486 -4.2421,-0.8604 -3.2172,-0.018 -4.6959,0.6015 -7.5257,3.1516 -1.1461,1.0328 -2.2443,1.8779 -2.4405,1.8779 -0.8672,0 -0.029,-5.9771 1.3054,-9.3142 1.0005,-2.5011 1.9058,-4.2067 2.7298,-5.1433 0.6045,-0.687 0.4306,-0.6788 -2.7749,0.1316 l -2.6712,0.4579 -2.7284,-0.4547 c -3.3431,-0.5571 -3.4322,-0.8167 -2.8322,-0.1348 z"
       id="path7017"
       inkscape:connector-curvature="0"
       sodipodi:nodetypes="sssscssssssssscssscscss" />
    <path
       inkscape:connector-curvature="0"
       id="path10288"
       d="m 1578.608,3969.5383 c -0.347,-0.3672 -0.632,-38.9588 -0.632,-85.7589 0,-82.2583 -0.06,-85.1695 -1.802,-87.4482 -1.767,-2.3087 -2.209,-2.3674 -21.489,-2.8564 L 1535,3792.9756 v -243.1243 -243.1244 l 19.568,-0.4992 c 17.134,-0.4371 19.777,-0.721 21.252,-2.282 1.582,-1.6748 1.713,-6.9885 2.156,-87.8642 L 1578.449,3130 h 212.051 212.051 l 0.472,86.0815 c 0.444,80.8757 0.575,86.1894 2.157,87.8642 1.475,1.561 4.117,1.8449 21.252,2.282 l 19.568,0.4992 v 243.1244 243.1243 l -19.568,0.4992 c -17.135,0.4372 -19.777,0.7211 -21.252,2.282 -1.582,1.6749 -1.713,6.9885 -2.157,87.8642 l -0.472,86.0816 -211.655,0.2518 c -116.411,0.1384 -211.939,-0.049 -212.288,-0.4161 z m 420.641,-85.9527 c 0,-81.6793 0.05,-83.6964 1.88,-86.8749 3.8,-6.5887 6.015,-7.2218 25.272,-7.226 h 17.237 V 3549.855 3310.2252 h -17.237 c -19.257,0 -21.472,-0.6373 -25.272,-7.2259 -1.834,-3.1786 -1.877,-5.1956 -1.88,-86.8749 v -83.6206 h -208.745 -208.745 v 83.6208 c 0,81.6794 -0.05,83.6964 -1.88,86.875 -3.801,6.5886 -6.015,7.2217 -25.272,7.2259 h -17.238 v 239.6297 239.6298 h 17.238 c 19.257,0 21.471,0.6373 25.272,7.226 1.833,3.1785 1.877,5.1955 1.88,86.8749 v 83.6205 h 208.745 208.745 z"
       style="fill:#b7b772" />
    <path
       inkscape:connector-curvature="0"
       id="path10326"
       d="m 1581.6082,3881.8098 -0.4192,-85.5319 -3.3958,-3.3949 c -3.0429,-3.0422 -5.3054,-3.4631 -21.7754,-4.0503 l -18.3797,-0.6553 v -238.9591 -238.9592 h 16.7372 c 18.187,0 23.2761,-1.3994 25.8811,-7.1168 1.177,-2.5834 1.6966,-29.2052 1.6966,-86.9332 v -83.2095 h 208.5855 208.5855 v 83.3573 c 0,87.9891 0.1769,90.3558 6.9449,92.953 1.3606,0.5221 10.3254,0.9492 19.9219,0.9492 h 17.4481 v 238.9592 238.9591 l -18.5477,0.6613 c -17.9647,0.6405 -18.6612,0.7932 -22.1574,4.8579 l -3.6098,4.1965 v 84.7243 84.7243 h -208.5483 -208.5483 z m 213.3695,24.6173 c 2.2499,-3.2466 13.0083,-14.5383 23.9076,-25.0926 21.202,-20.531 27.3844,-29.8378 27.4139,-41.2679 0.02,-7.7004 -4.7807,-16.7344 -11.6948,-22.0081 -4.8656,-3.7111 -7.0023,-4.2908 -15.8175,-4.2908 -9.4969,0 -10.6643,0.3869 -17.1139,5.6719 -3.807,3.1196 -7.2484,5.3453 -7.6476,4.9462 -1.7323,-1.7324 2.3453,-18.6412 6.5289,-27.0731 2.5113,-5.0617 4.3708,-9.3983 4.1322,-9.637 -0.2387,-0.2386 -3.6915,0.2609 -7.673,1.1101 -4.8755,1.0398 -9.6025,1.0398 -14.4781,0 -3.9814,-0.8492 -7.3793,-1.4037 -7.5507,-1.2323 -0.1714,0.1714 1.711,4.4206 4.1832,9.4427 4.5159,9.1739 8.7932,25.9707 7.0559,27.708 -0.512,0.5121 -3.4372,-1.2695 -6.5004,-3.959 -6.8622,-6.0251 -11.1961,-7.7415 -19.5472,-7.7415 -9.4665,0 -19.3362,6.7089 -23.7812,16.1651 -7.1311,15.1707 -2.2134,25.4214 25.295,52.727 11.2213,11.1385 21.9589,22.5382 23.8614,25.3326 1.9025,2.7945 3.8812,5.0855 4.3973,5.0913 0.516,0.01 2.7791,-2.6459 5.029,-5.8926 z m -9.4281,-295.8281 c 3.1392,-0.5294 8.5379,-0.2004 11.997,0.7311 3.4591,0.9314 6.5186,1.4641 6.7989,1.1838 0.2803,-0.2803 -1.4751,-4.645 -3.9009,-9.6993 -4.1017,-8.5459 -8.1019,-25.6689 -6.3955,-27.3753 0.4122,-0.4122 3.1337,1.3438 6.0477,3.9024 6.4816,5.6909 11.0013,7.5033 18.7116,7.5033 11.2116,0 19.1933,-5.0626 24.5983,-15.6021 7.5759,-14.7727 1.8802,-26.9156 -24.8103,-52.8946 -10.721,-10.4351 -21.3415,-21.6407 -23.6011,-24.9013 -2.2596,-3.2606 -4.5542,-5.9284 -5.0992,-5.9284 -0.5449,0 -2.1833,2.0187 -3.6408,4.4861 -1.4575,2.4673 -12.4879,14.3292 -24.512,26.3597 -12.34,12.3465 -23.1309,24.5359 -24.7753,27.986 -9.1788,19.2583 3.7096,40.4946 24.5762,40.4946 7.8787,0 11.3845,-1.4809 18.8401,-7.9588 2.8198,-2.4499 5.492,-4.0892 5.9384,-3.6428 1.6308,1.6308 -3.0552,20.1141 -6.9962,27.5957 -5.5832,10.5993 -5.5337,10.3983 -2.3396,9.5134 1.5702,-0.4351 5.4234,-1.2241 8.5627,-1.7535 z m 15.6494,-306.2387 c -3.6392,-7.2455 -9.0084,-27.5887 -7.6421,-28.9549 0.3258,-0.3259 3.8109,1.865 7.7447,4.8687 11.2779,8.6113 21.7825,9.1795 32.9596,1.7828 6.5535,-4.3369 12.0529,-14.7054 12.0529,-22.7242 0,-10.8449 -5.5044,-19.0071 -27.4874,-40.7595 -11.4664,-11.3462 -22.7004,-23.0361 -24.9645,-25.9777 l -4.1165,-5.3484 -2.5471,3.8203 c -1.4009,2.1011 -12.3131,13.5746 -24.2492,25.4966 -28.8903,28.8562 -33.6484,38.2811 -26.8647,53.2136 1.5305,3.369 5.2827,8.3205 8.3383,11.0033 9.9463,8.733 22.1563,8.5581 34.006,-0.4869 3.8838,-2.9646 7.436,-5.0157 7.8936,-4.5581 1.6335,1.6335 -2.7354,18.6316 -7.033,27.3637 l -4.3732,8.8856 9.3392,-0.876 c 5.1365,-0.4819 11.7459,-0.2967 14.6875,0.4114 2.9416,0.7081 5.5396,1.153 5.7735,0.9886 0.2339,-0.1645 -1.349,-3.8314 -3.5176,-8.1489 z"
       style="fill:#feefd3;fill-opacity:1;stroke:#fffecd;stroke-width:0.541452;stroke-miterlimit:4;stroke-dasharray:none;stroke-opacity:1" />
  </g>
</svg>
