<?xml version="1.0" encoding="UTF-8" standalone="no"?>
<!-- Created with Inkscape (http://www.inkscape.org/) -->

<svg
   id="svg10047"
   height="122.94574"
   width="78.999794"
   version="1.1"
   viewBox="0 0 78.999794 122.94574"
   inkscape:version="0.91 r13725"
   sodipodi:docname="kaiser-jubilaum.svgz"
   xmlns:inkscape="http://www.inkscape.org/namespaces/inkscape"
   xmlns:sodipodi="http://sodipodi.sourceforge.net/DTD/sodipodi-0.dtd"
   xmlns="http://www.w3.org/2000/svg"
   xmlns:svg="http://www.w3.org/2000/svg"
   xmlns:rdf="http://www.w3.org/1999/02/22-rdf-syntax-ns#"
   xmlns:cc="http://creativecommons.org/ns#"
   xmlns:dc="http://purl.org/dc/elements/1.1/">
  <sodipodi:namedview
     pagecolor="#ffffff"
     bordercolor="#666666"
     borderopacity="1"
     objecttolerance="10"
     gridtolerance="10"
     guidetolerance="10"
     inkscape:pageopacity="0"
     inkscape:pageshadow="2"
     inkscape:window-width="1920"
     inkscape:window-height="1016"
     id="namedview1491"
     showgrid="false"
     inkscape:zoom="1.3479675"
     inkscape:cx="513.49999"
     inkscape:cy="307.5"
     inkscape:window-x="0"
     inkscape:window-y="0"
     inkscape:window-maximized="1"
     inkscape:current-layer="svg10047"
     showguides="true"
     inkscape:guide-bbox="true"
     inkscape:snap-grids="true"
     inkscape:showpageshadow="2"
     inkscape:pagecheckerboard="0"
     inkscape:deskcolor="#d1d1d1" />
  <metadata
     id="metadata16869">
    <rdf:RDF>
      <cc:Work
         rdf:about="">
        <dc:format>image/svg+xml</dc:format>
        <dc:type
           rdf:resource="http://purl.org/dc/dcmitype/StillImage" />
        <dc:title />
      </cc:Work>
    </rdf:RDF>
  </metadata>
  <defs
     id="defs10049" />
  <g
     id="spade_6"
     transform="matrix(0.13620654,0,0,0.13660647,-490.34355,-423.48006)"
     inkscape:label="#spade_6">
    <rect
       style="font-style:normal;font-variant:normal;font-weight:500;font-stretch:normal;font-size:medium;line-height:125%;font-family:Gaelic;-inkscape-font-specification:'Gaelic Medium';letter-spacing:0px;word-spacing:0px;fill:#ffffff;fill-opacity:1;stroke:#000000;stroke-width:1.99898;stroke-linecap:butt;stroke-linejoin:miter;stroke-miterlimit:4;stroke-dasharray:none;stroke-opacity:1"
       id="rect5968"
       y="3100.9995"
       x="3600.9995"
       ry="49.888176"
       rx="48.210754"
       height="898.00043"
       width="578.00104" />
    <path
       d="m 3665.5536,3156.1396 h -7.5447 q -0.6696,-6.6342 -3.75,-10.8153 -3.0357,-4.1812 -7.4107,-4.1812 -5.9375,0 -9.2411,7.7491 -3.3036,7.6933 -3.4375,21.1288 6.3393,-8.5853 14.5982,-8.5853 7.0983,0 12.1429,6.5784 5.0893,6.5226 5.0893,17.5051 0,10.9269 -5,18.7318 -5,7.7491 -13.6607,7.7491 -9.6875,0 -15.5358,-9.9233 -5.8035,-9.9791 -5.8035,-29.6028 0,-18.6759 5.625,-29.547 5.625,-10.9269 16.2053,-10.9269 8.3036,0 12.8572,6.8572 4.5982,6.8014 4.8661,17.2823 z m -30.9375,25.5888 q 2.0089,21.0731 12.3214,21.0731 5.2678,0 8.2143,-4.8502 2.9464,-4.8501 2.9464,-11.5958 0,-6.6341 -2.8125,-10.7038 -2.7679,-4.0697 -7.5,-4.0697 -6.6518,0 -13.1696,10.1464 z"
       id="path5270"
       inkscape:connector-curvature="0"
       style="font-style:normal;font-variant:normal;font-weight:normal;font-stretch:normal;font-size:medium;line-height:125%;font-family:Rockwell;-inkscape-font-specification:Rockwell;letter-spacing:0px;word-spacing:0px;fill:#000000;fill-opacity:1;stroke:none;stroke-width:1px;stroke-linecap:butt;stroke-linejoin:miter;stroke-opacity:1" />
    <path
       inkscape:connector-curvature="0"
       id="path5376"
       d="m 4153.5536,3156.1396 h -7.5447 q -0.6696,-6.6342 -3.75,-10.8153 -3.0357,-4.1812 -7.4107,-4.1812 -5.9375,0 -9.2411,7.7491 -3.3036,7.6933 -3.4375,21.1288 6.3393,-8.5853 14.5982,-8.5853 7.0983,0 12.1429,6.5784 5.0893,6.5226 5.0893,17.5051 0,10.9269 -5,18.7318 -5,7.7491 -13.6607,7.7491 -9.6875,0 -15.5358,-9.9233 -5.8035,-9.9791 -5.8035,-29.6028 0,-18.6759 5.625,-29.547 5.625,-10.9269 16.2053,-10.9269 8.3036,0 12.8572,6.8572 4.5982,6.8014 4.8661,17.2823 z m -30.9375,25.5888 q 2.0089,21.0731 12.3214,21.0731 5.2678,0 8.2143,-4.8502 2.9464,-4.8501 2.9464,-11.5958 0,-6.6341 -2.8125,-10.7038 -2.7679,-4.0697 -7.5,-4.0697 -6.6518,0 -13.1696,10.1464 z"
       style="font-style:normal;font-variant:normal;font-weight:normal;font-stretch:normal;font-size:medium;line-height:125%;font-family:Rockwell;-inkscape-font-specification:Rockwell;letter-spacing:0px;word-spacing:0px;fill:#000000;fill-opacity:1;stroke:none;stroke-width:1px;stroke-linecap:butt;stroke-linejoin:miter;stroke-opacity:1" />
    <path
       inkscape:connector-curvature="0"
       id="path11871"
       d="m 3626.4464,3943.7607 h 7.5447 q 0.6696,6.6342 3.75,10.8153 3.0357,4.1812 7.4107,4.1812 5.9375,0 9.2411,-7.7491 3.3036,-7.6933 3.4375,-21.1288 -6.3393,8.5853 -14.5982,8.5853 -7.0983,0 -12.1429,-6.5784 -5.0893,-6.5226 -5.0893,-17.5051 0,-10.9269 5,-18.7318 5,-7.7491 13.6607,-7.7491 9.6875,0 15.5358,9.9233 5.8035,9.9791 5.8035,29.6028 0,18.6759 -5.625,29.547 -5.625,10.9269 -16.2053,10.9269 -8.3036,0 -12.8572,-6.8572 -4.5982,-6.8014 -4.8661,-17.2823 z m 30.9375,-25.5888 q -2.0089,-21.0731 -12.3214,-21.0731 -5.2678,0 -8.2143,4.8502 -2.9464,4.8501 -2.9464,11.5958 0,6.6341 2.8125,10.7038 2.7679,4.0697 7.5,4.0697 6.6518,0 13.1696,-10.1464 z"
       style="font-style:normal;font-variant:normal;font-weight:normal;font-stretch:normal;font-size:medium;line-height:125%;font-family:Rockwell;-inkscape-font-specification:Rockwell;letter-spacing:0px;word-spacing:0px;fill:#000000;fill-opacity:1;stroke:none;stroke-width:1px;stroke-linecap:butt;stroke-linejoin:miter;stroke-opacity:1" />
    <path
       d="m 4114.4464,3943.7607 h 7.5447 q 0.6696,6.6342 3.75,10.8153 3.0357,4.1812 7.4107,4.1812 5.9375,0 9.2411,-7.7491 3.3036,-7.6933 3.4375,-21.1288 -6.3393,8.5853 -14.5982,8.5853 -7.0983,0 -12.1429,-6.5784 -5.0893,-6.5226 -5.0893,-17.5051 0,-10.9269 5,-18.7318 5,-7.7491 13.6607,-7.7491 9.6875,0 15.5358,9.9233 5.8035,9.9791 5.8035,29.6028 0,18.6759 -5.625,29.547 -5.625,10.9269 -16.2053,10.9269 -8.3036,0 -12.8572,-6.8572 -4.5982,-6.8014 -4.8661,-17.2823 z m 30.9375,-25.5888 q -2.0089,-21.0731 -12.3214,-21.0731 -5.2678,0 -8.2143,4.8502 -2.9464,4.8501 -2.9464,11.5958 0,6.6341 2.8125,10.7038 2.7679,4.0697 7.5,4.0697 6.6518,0 13.1696,-10.1464 z"
       id="path11903"
       inkscape:connector-curvature="0"
       style="font-style:normal;font-variant:normal;font-weight:normal;font-stretch:normal;font-size:medium;line-height:125%;font-family:Rockwell;-inkscape-font-specification:Rockwell;letter-spacing:0px;word-spacing:0px;fill:#000000;fill-opacity:1;stroke:none;stroke-width:1px;stroke-linecap:butt;stroke-linejoin:miter;stroke-opacity:1" />
    <path
       sodipodi:nodetypes="sssscssssssssscssscscss"
       inkscape:connector-curvature="0"
       id="path6603"
       d="m 3749.9915,3310.7163 c 2.0975,-2.4196 4.4018,-6.8257 6.9486,-13.2869 3.398,-8.6207 5.5303,-24.0616 3.3227,-24.0616 -0.4993,0 -3.2946,2.1831 -6.2121,4.8513 -7.2031,6.5878 -10.9671,8.1875 -19.1564,8.1416 -5.4383,-0.03 -7.1572,-0.3842 -10.798,-2.2227 -8.0066,-4.0432 -13.4856,-11.1681 -15.6555,-20.3589 -2.3712,-10.0433 4.9409,-24.2047 19.129,-37.0473 20.673,-18.7126 27.165,-25.3562 32.634,-33.3962 1.996,-2.9345 3.7044,-5.3355 3.7963,-5.3355 0.092,0 1.8001,2.401 3.7962,5.3355 5.469,8.04 11.9609,14.6836 32.634,33.3962 14.1881,12.8426 21.5001,27.004 19.1289,37.0473 -2.1699,9.1908 -7.6488,16.3157 -15.6554,20.3589 -3.6408,1.8385 -5.3597,2.1923 -10.7981,2.2227 -8.1892,0.046 -11.9532,-1.5538 -19.1563,-8.1416 -2.9175,-2.6682 -5.7129,-4.8513 -6.2121,-4.8513 -2.2076,0 -0.075,15.4409 3.3227,24.0616 2.5468,6.4612 4.8511,10.8673 6.9486,13.2869 1.5387,1.7749 1.096,1.7536 -7.0635,-0.34 l -6.7993,-1.1827 -6.9451,1.1746 c -8.5095,1.439 -8.7365,2.1098 -7.2092,0.3481 z"
       style="fill:#050505" />
    <path
       style="fill:#050505"
       d="m 4001.9915,3310.7163 c 2.0975,-2.4196 4.4018,-6.8257 6.9486,-13.2869 3.398,-8.6207 5.5303,-24.0616 3.3227,-24.0616 -0.4993,0 -3.2946,2.1831 -6.2121,4.8513 -7.2031,6.5878 -10.9671,8.1875 -19.1564,8.1416 -5.4383,-0.03 -7.1572,-0.3842 -10.798,-2.2227 -8.0066,-4.0432 -13.4856,-11.1681 -15.6555,-20.3589 -2.3712,-10.0433 4.9409,-24.2047 19.129,-37.0473 20.673,-18.7126 27.165,-25.3562 32.634,-33.3962 1.996,-2.9345 3.7044,-5.3355 3.7963,-5.3355 0.092,0 1.8001,2.401 3.7962,5.3355 5.469,8.04 11.9609,14.6836 32.634,33.3962 14.1881,12.8426 21.5001,27.004 19.1289,37.0473 -2.1699,9.1908 -7.6488,16.3157 -15.6554,20.3589 -3.6408,1.8385 -5.3597,2.1923 -10.7981,2.2227 -8.1892,0.046 -11.9532,-1.5538 -19.1563,-8.1416 -2.9175,-2.6682 -5.7129,-4.8513 -6.2121,-4.8513 -2.2076,0 -0.075,15.4409 3.3227,24.0616 2.5468,6.4612 4.8511,10.8673 6.9486,13.2869 1.5387,1.7749 1.096,1.7536 -7.0635,-0.34 l -6.7993,-1.1827 -6.9451,1.1746 c -8.5095,1.439 -8.7365,2.1098 -7.2092,0.3481 z"
       id="path6609"
       inkscape:connector-curvature="0"
       sodipodi:nodetypes="sssscssssssssscssscscss" />
    <path
       style="fill:#050505"
       d="m 3749.9915,3610.7163 c 2.0975,-2.4196 4.4018,-6.8257 6.9486,-13.2869 3.398,-8.6207 5.5303,-24.0616 3.3227,-24.0616 -0.4993,0 -3.2946,2.1831 -6.2121,4.8513 -7.2031,6.5878 -10.9671,8.1875 -19.1564,8.1416 -5.4383,-0.03 -7.1572,-0.3842 -10.798,-2.2227 -8.0066,-4.0432 -13.4856,-11.1681 -15.6555,-20.3589 -2.3712,-10.0433 4.9409,-24.2047 19.129,-37.0473 20.673,-18.7126 27.165,-25.3562 32.634,-33.3962 1.996,-2.9345 3.7044,-5.3355 3.7963,-5.3355 0.092,0 1.8001,2.401 3.7962,5.3355 5.469,8.04 11.9609,14.6836 32.634,33.3962 14.1881,12.8426 21.5001,27.004 19.1289,37.0473 -2.1699,9.1908 -7.6488,16.3157 -15.6554,20.3589 -3.6408,1.8385 -5.3597,2.1923 -10.7981,2.2227 -8.1892,0.046 -11.9532,-1.5538 -19.1563,-8.1416 -2.9175,-2.6682 -5.7129,-4.8513 -6.2121,-4.8513 -2.2076,0 -0.075,15.4409 3.3227,24.0616 2.5468,6.4612 4.8511,10.8673 6.9486,13.2869 1.5387,1.7749 1.096,1.7536 -7.0635,-0.34 l -6.7993,-1.1827 -6.9451,1.1746 c -8.5095,1.439 -8.7365,2.1098 -7.2092,0.3481 z"
       id="path6612"
       inkscape:connector-curvature="0"
       sodipodi:nodetypes="sssscssssssssscssscscss" />
    <path
       sodipodi:nodetypes="sssscssssssssscssscscss"
       inkscape:connector-curvature="0"
       id="path6619"
       d="m 4001.9915,3610.7163 c 2.0975,-2.4196 4.4018,-6.8257 6.9486,-13.2869 3.398,-8.6207 5.5303,-24.0616 3.3227,-24.0616 -0.4993,0 -3.2946,2.1831 -6.2121,4.8513 -7.2031,6.5878 -10.9671,8.1875 -19.1564,8.1416 -5.4383,-0.03 -7.1572,-0.3842 -10.798,-2.2227 -8.0066,-4.0432 -13.4856,-11.1681 -15.6555,-20.3589 -2.3712,-10.0433 4.9409,-24.2047 19.129,-37.0473 20.673,-18.7126 27.165,-25.3562 32.634,-33.3962 1.996,-2.9345 3.7044,-5.3355 3.7963,-5.3355 0.092,0 1.8001,2.401 3.7962,5.3355 5.469,8.04 11.9609,14.6836 32.634,33.3962 14.1881,12.8426 21.5001,27.004 19.1289,37.0473 -2.1699,9.1908 -7.6488,16.3157 -15.6554,20.3589 -3.6408,1.8385 -5.3597,2.1923 -10.7981,2.2227 -8.1892,0.046 -11.9532,-1.5538 -19.1563,-8.1416 -2.9175,-2.6682 -5.7129,-4.8513 -6.2121,-4.8513 -2.2076,0 -0.075,15.4409 3.3227,24.0616 2.5468,6.4612 4.8511,10.8673 6.9486,13.2869 1.5387,1.7749 1.096,1.7536 -7.0635,-0.34 l -6.7993,-1.1827 -6.9451,1.1746 c -8.5095,1.439 -8.7365,2.1098 -7.2092,0.3481 z"
       style="fill:#050505" />
    <path
       style="fill:#050505"
       d="m 3749.9915,3789.284 c 2.0975,2.4196 4.4018,6.8257 6.9486,13.2869 3.398,8.6207 5.5303,24.0616 3.3227,24.0616 -0.4993,0 -3.2946,-2.1831 -6.2121,-4.8513 -7.2031,-6.5878 -10.9671,-8.1875 -19.1564,-8.1416 -5.4383,0.03 -7.1572,0.3842 -10.798,2.2227 -8.0066,4.0432 -13.4856,11.1681 -15.6555,20.3589 -2.3712,10.0433 4.9409,24.2047 19.129,37.0473 20.673,18.7126 27.165,25.3562 32.634,33.3962 1.996,2.9345 3.7044,5.3355 3.7963,5.3355 0.092,0 1.8001,-2.401 3.7962,-5.3355 5.469,-8.04 11.9609,-14.6836 32.634,-33.3962 14.1881,-12.8426 21.5001,-27.004 19.1289,-37.0473 -2.1699,-9.1908 -7.6488,-16.3157 -15.6554,-20.3589 -3.6408,-1.8385 -5.3597,-2.1923 -10.7981,-2.2227 -8.1892,-0.046 -11.9532,1.5538 -19.1563,8.1416 -2.9175,2.6682 -5.7129,4.8513 -6.2121,4.8513 -2.2076,0 -0.075,-15.4409 3.3227,-24.0616 2.5468,-6.4612 4.8511,-10.8673 6.9486,-13.2869 1.5387,-1.7749 1.096,-1.7536 -7.0635,0.34 l -6.7993,1.1827 -6.9451,-1.1746 c -8.5095,-1.439 -8.7365,-2.1098 -7.2092,-0.3481 z"
       id="path6631"
       inkscape:connector-curvature="0"
       sodipodi:nodetypes="sssscssssssssscssscscss" />
    <path
       sodipodi:nodetypes="sssscssssssssscssscscss"
       inkscape:connector-curvature="0"
       id="path6636"
       d="m 4001.9915,3789.284 c 2.0975,2.4196 4.4018,6.8257 6.9486,13.2869 3.398,8.6207 5.5303,24.0616 3.3227,24.0616 -0.4993,0 -3.2946,-2.1831 -6.2121,-4.8513 -7.2031,-6.5878 -10.9671,-8.1875 -19.1564,-8.1416 -5.4383,0.03 -7.1572,0.3842 -10.798,2.2227 -8.0066,4.0432 -13.4856,11.1681 -15.6555,20.3589 -2.3712,10.0433 4.9409,24.2047 19.129,37.0473 20.673,18.7126 27.165,25.3562 32.634,33.3962 1.996,2.9345 3.7044,5.3355 3.7963,5.3355 0.092,0 1.8001,-2.401 3.7962,-5.3355 5.469,-8.04 11.9609,-14.6836 32.634,-33.3962 14.1881,-12.8426 21.5001,-27.004 19.1289,-37.0473 -2.1699,-9.1908 -7.6488,-16.3157 -15.6554,-20.3589 -3.6408,-1.8385 -5.3597,-2.1923 -10.7981,-2.2227 -8.1892,-0.046 -11.9532,1.5538 -19.1563,8.1416 -2.9175,2.6682 -5.7129,4.8513 -6.2121,4.8513 -2.2076,0 -0.075,-15.4409 3.3227,-24.0616 2.5468,-6.4612 4.8511,-10.8673 6.9486,-13.2869 1.5387,-1.7749 1.096,-1.7536 -7.0635,0.34 l -6.7993,1.1827 -6.9451,-1.1746 c -8.5095,-1.439 -8.7365,-2.1098 -7.2092,-0.3481 z"
       style="fill:#050505" />
    <path
       style="fill:#050505"
       d="m 3640.4967,3283.5032 c 0.824,-0.9366 1.7293,-2.6422 2.7298,-5.1433 1.3349,-3.3371 2.1726,-9.3142 1.3053,-9.3142 -0.1961,0 -1.2943,0.8451 -2.4404,1.8779 -2.8298,2.5501 -4.3085,3.1694 -7.5258,3.1516 -2.1364,-0.012 -2.8117,-0.1487 -4.242,-0.8604 -3.1455,-1.5651 -5.298,-4.3231 -6.1504,-7.8809 -0.9316,-3.8877 1.9411,-9.3695 7.5149,-14.3408 8.1216,-7.2436 10.672,-9.8153 12.8206,-12.9276 0.7841,-1.1359 1.4553,-2.0653 1.4914,-2.0653 0.036,0 0.7071,0.9294 1.4913,2.0653 2.1486,3.1123 4.6989,5.684 12.8205,12.9276 5.5739,4.9713 8.4465,10.4531 7.515,14.3408 -0.8525,3.5578 -3.0049,6.3158 -6.1504,7.8809 -1.4303,0.7117 -2.1056,0.8486 -4.2421,0.8604 -3.2172,0.018 -4.6959,-0.6015 -7.5257,-3.1516 -1.1461,-1.0328 -2.2443,-1.8779 -2.4405,-1.8779 -0.8672,0 -0.029,5.9771 1.3054,9.3142 1.0005,2.5011 1.9058,4.2067 2.7298,5.1433 0.6045,0.687 0.4306,0.6788 -2.7749,-0.1316 l -2.6712,-0.4579 -2.7284,0.4547 c -3.3431,0.5571 -3.4322,0.8167 -2.8322,0.1348 z"
       id="path6826"
       inkscape:connector-curvature="0"
       sodipodi:nodetypes="sssscssssssssscssscscss" />
    <path
       sodipodi:nodetypes="sssscssssssssscssscscss"
       inkscape:connector-curvature="0"
       id="path6831"
       d="m 4128.4967,3283.5032 c 0.824,-0.9366 1.7293,-2.6422 2.7298,-5.1433 1.3349,-3.3371 2.1726,-9.3142 1.3053,-9.3142 -0.1961,0 -1.2943,0.8451 -2.4404,1.8779 -2.8298,2.5501 -4.3085,3.1694 -7.5258,3.1516 -2.1364,-0.012 -2.8117,-0.1487 -4.242,-0.8604 -3.1455,-1.5651 -5.298,-4.3231 -6.1504,-7.8809 -0.9316,-3.8877 1.9411,-9.3695 7.5149,-14.3408 8.1216,-7.2436 10.672,-9.8153 12.8206,-12.9276 0.7841,-1.1359 1.4553,-2.0653 1.4914,-2.0653 0.036,0 0.7071,0.9294 1.4913,2.0653 2.1486,3.1123 4.6989,5.684 12.8205,12.9276 5.5739,4.9713 8.4465,10.4531 7.515,14.3408 -0.8525,3.5578 -3.0049,6.3158 -6.1504,7.8809 -1.4303,0.7117 -2.1056,0.8486 -4.2421,0.8604 -3.2172,0.018 -4.6959,-0.6015 -7.5257,-3.1516 -1.1461,-1.0328 -2.2443,-1.8779 -2.4405,-1.8779 -0.8672,0 -0.029,5.9771 1.3054,9.3142 1.0005,2.5011 1.9058,4.2067 2.7298,5.1433 0.6045,0.687 0.4306,0.6788 -2.7749,-0.1316 l -2.6712,-0.4579 -2.7284,0.4547 c -3.3431,0.5571 -3.4322,0.8167 -2.8322,0.1348 z"
       style="fill:#050505" />
    <path
       sodipodi:nodetypes="sssscssssssssscssscscss"
       inkscape:connector-curvature="0"
       id="path7002"
       d="m 3640.4967,3816.4971 c 0.824,0.9366 1.7293,2.6422 2.7298,5.1433 1.3349,3.3371 2.1726,9.3142 1.3053,9.3142 -0.1961,0 -1.2943,-0.8451 -2.4404,-1.8779 -2.8298,-2.5501 -4.3085,-3.1694 -7.5258,-3.1516 -2.1364,0.012 -2.8117,0.1487 -4.242,0.8604 -3.1455,1.5651 -5.298,4.3231 -6.1504,7.8809 -0.9316,3.8877 1.9411,9.3695 7.5149,14.3408 8.1216,7.2436 10.672,9.8153 12.8206,12.9276 0.7841,1.1359 1.4553,2.0653 1.4914,2.0653 0.036,0 0.7071,-0.9294 1.4913,-2.0653 2.1486,-3.1123 4.6989,-5.684 12.8205,-12.9276 5.5739,-4.9713 8.4465,-10.4531 7.515,-14.3408 -0.8525,-3.5578 -3.0049,-6.3158 -6.1504,-7.8809 -1.4303,-0.7117 -2.1056,-0.8486 -4.2421,-0.8604 -3.2172,-0.018 -4.6959,0.6015 -7.5257,3.1516 -1.1461,1.0328 -2.2443,1.8779 -2.4405,1.8779 -0.8672,0 -0.029,-5.9771 1.3054,-9.3142 1.0005,-2.5011 1.9058,-4.2067 2.7298,-5.1433 0.6045,-0.687 0.4306,-0.6788 -2.7749,0.1316 l -2.6712,0.4579 -2.7284,-0.4547 c -3.3431,-0.5571 -3.4322,-0.8167 -2.8322,-0.1348 z"
       style="fill:#050505" />
    <path
       style="fill:#050505"
       d="m 4128.4967,3816.4971 c 0.824,0.9366 1.7293,2.6422 2.7298,5.1433 1.3349,3.3371 2.1726,9.3142 1.3053,9.3142 -0.1961,0 -1.2943,-0.8451 -2.4404,-1.8779 -2.8298,-2.5501 -4.3085,-3.1694 -7.5258,-3.1516 -2.1364,0.012 -2.8117,0.1487 -4.242,0.8604 -3.1455,1.5651 -5.298,4.3231 -6.1504,7.8809 -0.9316,3.8877 1.9411,9.3695 7.5149,14.3408 8.1216,7.2436 10.672,9.8153 12.8206,12.9276 0.7841,1.1359 1.4553,2.0653 1.4914,2.0653 0.036,0 0.7071,-0.9294 1.4913,-2.0653 2.1486,-3.1123 4.6989,-5.684 12.8205,-12.9276 5.5739,-4.9713 8.4465,-10.4531 7.515,-14.3408 -0.8525,-3.5578 -3.0049,-6.3158 -6.1504,-7.8809 -1.4303,-0.7117 -2.1056,-0.8486 -4.2421,-0.8604 -3.2172,-0.018 -4.6959,0.6015 -7.5257,3.1516 -1.1461,1.0328 -2.2443,1.8779 -2.4405,1.8779 -0.8672,0 -0.029,-5.9771 1.3054,-9.3142 1.0005,-2.5011 1.9058,-4.2067 2.7298,-5.1433 0.6045,-0.687 0.4306,-0.6788 -2.7749,0.1316 l -2.6712,0.4579 -2.7284,-0.4547 c -3.3431,-0.5571 -3.4322,-0.8167 -2.8322,-0.1348 z"
       id="path7004"
       inkscape:connector-curvature="0"
       sodipodi:nodetypes="sssscssssssssscssscscss" />
    <path
       style="fill:#b7b772"
       d="m 3678.608,3969.5383 c -0.347,-0.3672 -0.632,-38.9588 -0.632,-85.7589 0,-82.2583 -0.06,-85.1695 -1.802,-87.4482 -1.767,-2.3087 -2.209,-2.3674 -21.489,-2.8564 L 3635,3792.9756 v -243.1243 -243.1244 l 19.568,-0.4992 c 17.134,-0.4371 19.777,-0.721 21.252,-2.282 1.582,-1.6748 1.713,-6.9885 2.156,-87.8642 L 3678.449,3130 h 212.051 212.051 l 0.472,86.0815 c 0.444,80.8757 0.575,86.1894 2.157,87.8642 1.475,1.561 4.117,1.8449 21.252,2.282 l 19.568,0.4992 v 243.1244 243.1243 l -19.568,0.4992 c -17.135,0.4372 -19.777,0.7211 -21.252,2.282 -1.582,1.6749 -1.713,6.9885 -2.157,87.8642 l -0.472,86.0816 -211.655,0.2518 c -116.411,0.1384 -211.939,-0.049 -212.288,-0.4161 z m 420.641,-85.9527 c 0,-81.6793 0.05,-83.6964 1.88,-86.8749 3.8,-6.5887 6.015,-7.2218 25.272,-7.226 h 17.237 V 3549.855 3310.2252 h -17.237 c -19.257,0 -21.472,-0.6373 -25.272,-7.2259 -1.834,-3.1786 -1.877,-5.1956 -1.88,-86.8749 v -83.6206 h -208.745 -208.745 v 83.6208 c 0,81.6794 -0.05,83.6964 -1.88,86.875 -3.801,6.5886 -6.015,7.2217 -25.272,7.2259 h -17.238 v 239.6297 239.6298 h 17.238 c 19.257,0 21.471,0.6373 25.272,7.226 1.833,3.1785 1.877,5.1955 1.88,86.8749 v 83.6205 h 208.745 208.745 z"
       id="path10294"
       inkscape:connector-curvature="0" />
    <path
       inkscape:connector-curvature="0"
       id="path10314"
       d="m 3682.4645,3882.9142 c -0.9781,-77.4256 -1.2916,-84.7413 -3.7809,-88.2113 -3.5827,-4.9943 -7.107,-5.8152 -25.7424,-5.9965 l -15.663,-0.1523 v -239.1475 -239.1475 h 18.4067 c 27.6904,0 25.1766,6.4765 26.4164,-68.0592 0.5586,-33.5858 1.0166,-71.8956 1.0178,-85.1327 v -24.0676 h 207.7839 207.784 l 0.4195,84.9425 0.4196,84.9426 4.2874,3.6872 c 3.9919,3.433 5.4932,3.6872 21.7755,3.6872 h 17.4879 v 239.1475 239.1475 l -14.1349,0.01 c -7.7742,0 -16.7125,0.7243 -19.8629,1.5992 -10.59,2.941 -10.3171,0.4595 -10.3171,93.8226 v 83.3566 H 3891.1455 3683.529 l -1.0666,-84.4275 z m 83.174,27.8466 c 0,-0.8632 11.2282,-13.0808 24.9515,-27.1503 27.2562,-27.9437 31.2495,-34.1775 29.6297,-46.2541 -1.787,-13.3228 -13.9774,-24.3527 -26.915,-24.3527 -7.9442,0 -12.36,1.7857 -19.1432,7.7415 -3.0632,2.6895 -5.9374,4.522 -6.3872,4.0722 -1.7053,-1.7053 2.6237,-19.0617 6.9391,-27.8212 2.4741,-5.0221 4.2787,-9.3508 4.01,-9.6194 -0.2686,-0.2686 -3.6106,0.2978 -7.4267,1.2587 -4.944,1.2449 -9.0547,1.2957 -14.3014,0.1767 -4.0496,-0.8637 -7.5537,-1.3797 -7.7867,-1.1466 -0.2331,0.2331 1.3294,3.5605 3.4722,7.3944 3.7193,6.6545 9.3218,28.2014 7.7433,29.7799 -0.4135,0.4135 -3.6472,-1.7265 -7.186,-4.7555 -14.2934,-12.2347 -35.1441,-7.9483 -42.7439,8.7869 -7.1286,15.6976 -1.9424,26.7081 24.8232,52.7015 10.7072,10.3983 21.3155,21.5725 23.5741,24.8316 3.9951,5.765 6.747,7.5418 6.747,4.3564 z m 254.818,-3.5129 c 1.8951,-2.7837 12.6354,-14.1888 23.8674,-25.3448 12.3588,-12.2751 21.85,-23.0934 24.0391,-27.4003 7.1235,-14.0151 3.3921,-29.1755 -9.1365,-37.1209 -11.1805,-7.0905 -22.9203,-5.8342 -33.6686,3.603 -4.4638,3.9193 -5.5764,4.346 -5.9723,2.2907 -0.7914,-4.1095 4.1088,-21.091 8.1964,-28.4045 2.0847,-3.73 3.5201,-7.052 3.1899,-7.3822 -0.3303,-0.3303 -3.6621,0.1704 -7.404,1.1127 -4.635,1.1671 -9.341,1.2519 -14.7644,0.2662 -4.3784,-0.7958 -7.7265,-1.0201 -7.4401,-0.4983 5.223,9.5157 9.2658,21.0544 9.9402,28.3708 l 0.8375,9.085 -7.3574,-6.0288 c -6.9336,-5.6816 -7.9441,-6.0288 -17.5493,-6.0288 -8.8152,0 -10.952,0.5797 -15.8176,4.2908 -6.9141,5.2737 -11.7146,14.3077 -11.6948,22.0081 0.029,11.4301 6.2119,20.7369 27.4139,41.2679 10.8993,10.5543 21.6577,21.846 23.9076,25.0926 2.25,3.2467 4.513,5.8983 5.0291,5.8926 0.516,-0.01 2.4888,-2.288 4.3839,-5.0718 z m -260.596,-296.6386 c 2.285,-0.4824 7.3617,-0.1584 11.2815,0.7201 3.9198,0.8784 7.3895,1.3345 7.7104,1.0136 0.321,-0.321 -1.122,-3.6354 -3.2067,-7.3653 -4.0628,-7.2691 -8.9947,-24.3049 -8.1989,-28.3208 0.3782,-1.9087 1.9366,-1.2274 7.1351,3.1193 7.8241,6.5418 11.5295,7.693 21.637,6.7217 14.4941,-1.3927 25.8105,-15.542 23.8529,-29.824 -1.4599,-10.6512 -6.5346,-17.6809 -28.3307,-39.2447 -10.9809,-10.864 -21.5181,-22.0335 -23.416,-24.8212 -1.8978,-2.7877 -3.9103,-5.0732 -4.4721,-5.079 -0.5618,-0.01 -2.4077,2.2244 -4.1021,4.9559 -1.6944,2.7315 -12.3461,14.075 -23.6705,25.2077 -27.8437,27.3724 -32.7312,37.551 -25.5862,53.2848 7.5998,16.7353 28.4505,21.0216 42.7439,8.787 3.5388,-3.0291 6.7725,-5.1691 7.186,-4.7556 1.5739,1.5739 -4.0188,23.116 -7.721,29.7401 -2.1305,3.8118 -3.8737,7.201 -3.8737,7.5314 0,0.5716 1.4456,0.3526 11.0311,-1.671 z m 252.1363,0 c 2.2851,-0.4824 7.3617,-0.1584 11.2815,0.7201 3.9198,0.8784 7.3768,1.3472 7.6823,1.0417 0.3055,-0.3054 -1.4484,-4.2828 -3.8976,-8.8385 -4.2314,-7.8706 -9.0961,-26.5576 -7.3645,-28.2892 0.4464,-0.4464 3.1187,1.1929 5.9384,3.6428 7.4557,6.4779 10.9614,7.9588 18.8401,7.9588 15.2675,0 27.5705,-11.9063 27.5174,-26.6301 -0.016,-4.4306 -1.2802,-10.371 -2.9507,-13.8645 -1.6382,-3.4262 -12.5426,-15.753 -24.8125,-28.0492 -12.0394,-12.0652 -23.0656,-23.927 -24.5026,-26.3597 -1.437,-2.4326 -3.0585,-4.4229 -3.6035,-4.4229 -0.5449,0 -2.8396,2.6678 -5.0992,5.9284 -2.2596,3.2606 -13.0587,14.64 -23.9979,25.2876 -21.2424,20.6761 -27.2769,29.7507 -27.306,41.0626 -0.024,9.4126 6.811,20.3424 15.5722,24.9009 4.7119,2.4516 16.0356,2.83 21.5821,0.7212 2.0625,-0.7842 6.3439,-3.7032 9.5143,-6.4869 l 5.7643,-5.0611 -0.8444,9.161 c -0.7004,7.5994 -3.5947,15.8801 -10.0351,28.711 -0.3348,0.667 1.0058,0.882 2.979,0.4779 1.9733,-0.4042 5.4574,-1.1295 7.7424,-1.6119 z m -237.2834,-307.2642 c -4.195,-8.5151 -8.6596,-26.1008 -7.038,-27.7223 0.3955,-0.3955 3.8967,1.7066 7.7805,4.6712 15.2422,11.6346 32.2992,8.1503 41.3366,-8.4442 8.5796,-15.7537 3.9665,-25.8484 -24.8589,-54.3977 -11.6819,-11.57 -22.721,-23.0993 -24.5315,-25.6207 l -3.2917,-4.5843 -3.2803,4.5843 c -1.8041,2.5214 -12.7919,13.9398 -24.4172,25.3742 -22.2851,21.919 -28.7959,31.5238 -28.8272,42.5258 -0.022,7.6416 5.5978,18.0636 12.038,22.3255 11.1771,7.3967 21.6817,6.8285 32.9596,-1.7828 3.9338,-3.0037 7.4471,-5.1663 7.8075,-4.8059 1.5644,1.5643 -2.9941,19.5023 -7.0259,27.6471 l -4.4062,8.9013 9.486,-0.8917 c 5.2173,-0.4905 11.8927,-0.3124 14.8343,0.3957 2.9416,0.7081 5.4799,1.2128 5.6406,1.1215 0.1607,-0.091 -1.7321,-4.2749 -4.2062,-9.297 z m 256.4864,8.8241 c -8.1053,-15.9435 -13.8364,-34.0981 -11.5012,-36.4333 0.4577,-0.4576 4.0098,1.5935 7.8937,4.5581 11.8496,9.045 24.0597,9.2199 34.0059,0.4869 3.0556,-2.6828 6.8078,-7.6343 8.3384,-11.0033 6.8066,-14.9831 1.9245,-24.6497 -26.9564,-53.3733 -11.899,-11.8342 -22.7753,-23.2358 -24.1696,-25.3369 l -2.535,-3.8203 -4.1165,5.3484 c -2.2641,2.9416 -13.4982,14.6315 -24.9646,25.9777 -21.983,21.7524 -27.4874,29.9146 -27.4874,40.7595 0,8.0188 5.4994,18.3873 12.0529,22.7242 11.2219,7.4263 21.6793,6.8303 33.0948,-1.8861 l 7.2875,-5.5643 -0.9031,8.7499 c -0.5015,4.8595 -2.9752,13.178 -5.5636,18.7093 l -4.6606,9.9595 9.526,-0.939 c 5.2393,-0.5165 11.5889,-0.2853 14.1103,0.5137 5.8837,1.8645 7.2681,1.9849 6.5485,0.5693 z"
       style="fill:#feefd3;fill-opacity:1;stroke:#fffecd;stroke-width:0.541452;stroke-miterlimit:4;stroke-dasharray:none;stroke-opacity:1" />
  </g>
</svg>
