<?xml version="1.0" encoding="UTF-8" standalone="no"?>
<!-- Created with Inkscape (http://www.inkscape.org/) -->

<svg
   id="svg10047"
   height="122.94574"
   width="78.999794"
   version="1.1"
   viewBox="0 0 78.999794 122.94574"
   inkscape:version="0.91 r13725"
   sodipodi:docname="kaiser-jubilaum.svgz"
   xmlns:inkscape="http://www.inkscape.org/namespaces/inkscape"
   xmlns:sodipodi="http://sodipodi.sourceforge.net/DTD/sodipodi-0.dtd"
   xmlns="http://www.w3.org/2000/svg"
   xmlns:svg="http://www.w3.org/2000/svg"
   xmlns:rdf="http://www.w3.org/1999/02/22-rdf-syntax-ns#"
   xmlns:cc="http://creativecommons.org/ns#"
   xmlns:dc="http://purl.org/dc/elements/1.1/">
  <sodipodi:namedview
     pagecolor="#ffffff"
     bordercolor="#666666"
     borderopacity="1"
     objecttolerance="10"
     gridtolerance="10"
     guidetolerance="10"
     inkscape:pageopacity="0"
     inkscape:pageshadow="2"
     inkscape:window-width="1920"
     inkscape:window-height="1016"
     id="namedview1491"
     showgrid="false"
     inkscape:zoom="1.3479675"
     inkscape:cx="513.49999"
     inkscape:cy="307.5"
     inkscape:window-x="0"
     inkscape:window-y="0"
     inkscape:window-maximized="1"
     inkscape:current-layer="svg10047"
     showguides="true"
     inkscape:guide-bbox="true"
     inkscape:snap-grids="true"
     inkscape:showpageshadow="2"
     inkscape:pagecheckerboard="0"
     inkscape:deskcolor="#d1d1d1" />
  <metadata
     id="metadata16869">
    <rdf:RDF>
      <cc:Work
         rdf:about="">
        <dc:format>image/svg+xml</dc:format>
        <dc:type
           rdf:resource="http://purl.org/dc/dcmitype/StillImage" />
        <dc:title />
      </cc:Work>
    </rdf:RDF>
  </metadata>
  <defs
     id="defs10049" />
  <g
     id="spade_2"
     transform="matrix(0.13620654,0,0,0.13660647,-108.96524,-423.48006)"
     inkscape:label="#spade_2">
    <rect
       style="font-style:normal;font-variant:normal;font-weight:500;font-stretch:normal;font-size:medium;line-height:125%;font-family:Gaelic;-inkscape-font-specification:'Gaelic Medium';letter-spacing:0px;word-spacing:0px;fill:#ffffff;fill-opacity:1;stroke:#000000;stroke-width:1.99898;stroke-linecap:butt;stroke-linejoin:miter;stroke-miterlimit:4;stroke-dasharray:none;stroke-opacity:1"
       id="rect6517"
       y="3100.9995"
       x="800.99951"
       ry="49.888176"
       rx="48.210754"
       height="898.00043"
       width="578.00104" />
    <path
       d="m 866,3183.8614 -0.5765,28.1388 H 826 q 0,-8.153 2.26164,-15.5698 2.30598,-7.4168 6.43015,-12.9653 4.16852,-5.5485 12.68293,-13.4749 5.36585,-5.0389 7.27273,-8.3794 1.90687,-3.397 1.90687,-7.8698 0,-5.4918 -2.7051,-8.9454 -2.7051,-3.5102 -7.45011,-3.5102 -5.54323,0 -8.1153,3.9631 -2.57206,3.9632 -2.57206,13.022 0,2.2647 0.0887,4.3029 h -8.20399 q -0.0443,-2.0382 -0.0443,-3.3405 0,-12.7954 4.74501,-19.9858 4.74502,-7.247 13.92462,-7.247 9.26829,0 14.19068,6.1713 4.96674,6.1712 4.96674,15.1733 0,7.5302 -3.23724,12.8522 -3.23726,5.322 -12.37252,13.5314 -8.86917,8.0397 -11.66296,13.0786 -2.74945,5.0389 -3.19291,8.9456 h 23.23725 l 0.35477,-17.8911 h 7.49446 z"
       id="path7354"
       inkscape:connector-curvature="0"
       style="font-style:normal;font-variant:normal;font-weight:normal;font-stretch:normal;font-size:medium;line-height:125%;font-family:Rockwell;-inkscape-font-specification:Rockwell;letter-spacing:0px;word-spacing:0px;fill:#000000;fill-opacity:1;stroke:none;stroke-width:1px;stroke-linecap:butt;stroke-linejoin:miter;stroke-opacity:1" />
    <path
       inkscape:connector-curvature="0"
       id="path7385"
       d="m 1354,3183.8614 -0.5765,28.1388 H 1314 q 0,-8.153 2.2617,-15.5698 2.3059,-7.4168 6.4301,-12.9653 4.1685,-5.5485 12.683,-13.4749 5.3658,-5.0389 7.2727,-8.3794 1.9069,-3.397 1.9069,-7.8698 0,-5.4918 -2.7052,-8.9454 -2.705,-3.5102 -7.4501,-3.5102 -5.5432,0 -8.1153,3.9631 -2.572,3.9632 -2.572,13.022 0,2.2647 0.089,4.3029 h -8.204 q -0.044,-2.0382 -0.044,-3.3405 0,-12.7954 4.745,-19.9858 4.745,-7.247 13.9246,-7.247 9.2683,0 14.1907,6.1713 4.9667,6.1712 4.9667,15.1733 0,7.5302 -3.2372,12.8522 -3.2373,5.322 -12.3725,13.5314 -8.8692,8.0397 -11.663,13.0786 -2.7494,5.0389 -3.1929,8.9456 h 23.2373 l 0.3547,-17.8911 h 7.4945 z"
       style="font-style:normal;font-variant:normal;font-weight:normal;font-stretch:normal;font-size:medium;line-height:125%;font-family:Rockwell;-inkscape-font-specification:Rockwell;letter-spacing:0px;word-spacing:0px;fill:#000000;fill-opacity:1;stroke:none;stroke-width:1px;stroke-linecap:butt;stroke-linejoin:miter;stroke-opacity:1" />
    <path
       inkscape:connector-curvature="0"
       id="path11821"
       d="m 826.00007,3916.0389 0.5765,-28.1388 h 39.4235 q 0,8.153 -2.26164,15.5698 -2.30598,7.4168 -6.43015,12.9653 -4.16852,5.5485 -12.68293,13.4749 -5.36585,5.0389 -7.27273,8.3794 -1.90687,3.397 -1.90687,7.8698 0,5.4918 2.7051,8.9454 2.7051,3.5102 7.45011,3.5102 5.54323,0 8.1153,-3.9631 2.57206,-3.9632 2.57206,-13.022 0,-2.2647 -0.0887,-4.3029 h 8.20399 q 0.0443,2.0382 0.0443,3.3405 0,12.7954 -4.74501,19.9858 -4.74502,7.247 -13.92462,7.247 -9.26829,0 -14.19068,-6.1713 -4.96674,-6.1712 -4.96674,-15.1733 0,-7.5302 3.23724,-12.8522 3.23726,-5.322 12.37252,-13.5314 8.86917,-8.0397 11.66296,-13.0786 2.74945,-5.0389 3.19291,-8.9456 h -23.23725 l -0.35477,17.8911 h -7.49446 z"
       style="font-style:normal;font-variant:normal;font-weight:normal;font-stretch:normal;font-size:medium;line-height:125%;font-family:Rockwell;-inkscape-font-specification:Rockwell;letter-spacing:0px;word-spacing:0px;fill:#000000;fill-opacity:1;stroke:none;stroke-width:1px;stroke-linecap:butt;stroke-linejoin:miter;stroke-opacity:1" />
    <path
       d="m 1314.0001,3916.0389 0.5765,-28.1388 h 39.4235 q 0,8.153 -2.2617,15.5698 -2.3059,7.4168 -6.4301,12.9653 -4.1685,5.5485 -12.683,13.4749 -5.3658,5.0389 -7.2727,8.3794 -1.9069,3.397 -1.9069,7.8698 0,5.4918 2.7052,8.9454 2.705,3.5102 7.4501,3.5102 5.5432,0 8.1153,-3.9631 2.572,-3.9632 2.572,-13.022 0,-2.2647 -0.089,-4.3029 h 8.204 q 0.044,2.0382 0.044,3.3405 0,12.7954 -4.745,19.9858 -4.745,7.247 -13.9246,7.247 -9.2683,0 -14.1907,-6.1713 -4.9667,-6.1712 -4.9667,-15.1733 0,-7.5302 3.2372,-12.8522 3.2373,-5.322 12.3725,-13.5314 8.8692,-8.0397 11.663,-13.0786 2.7494,-5.0389 3.1929,-8.9456 h -23.2373 l -0.3547,17.8911 h -7.4945 z"
       id="path11829"
       inkscape:connector-curvature="0"
       style="font-style:normal;font-variant:normal;font-weight:normal;font-stretch:normal;font-size:medium;line-height:125%;font-family:Rockwell;-inkscape-font-specification:Rockwell;letter-spacing:0px;word-spacing:0px;fill:#000000;fill-opacity:1;stroke:none;stroke-width:1px;stroke-linecap:butt;stroke-linejoin:miter;stroke-opacity:1" />
    <path
       sodipodi:nodetypes="sssscssssssssscssscscss"
       inkscape:connector-curvature="0"
       id="path6715"
       d="m 1075.9915,3310.7163 c 2.0975,-2.4196 4.4018,-6.8257 6.9486,-13.2869 3.398,-8.6207 5.5303,-24.0616 3.3227,-24.0616 -0.4993,0 -3.2946,2.1831 -6.2121,4.8513 -7.2031,6.5878 -10.9671,8.1875 -19.1564,8.1416 -5.4383,-0.03 -7.1572,-0.3842 -10.798,-2.2227 -8.0066,-4.0432 -13.4856,-11.1681 -15.6555,-20.3589 -2.3712,-10.0433 4.9409,-24.2047 19.129,-37.0473 20.673,-18.7126 27.165,-25.3562 32.634,-33.3962 1.996,-2.9345 3.7044,-5.3355 3.7963,-5.3355 0.092,0 1.8001,2.401 3.7962,5.3355 5.469,8.04 11.9609,14.6836 32.634,33.3962 14.1881,12.8426 21.5001,27.004 19.1289,37.0473 -2.1699,9.1908 -7.6488,16.3157 -15.6554,20.3589 -3.6408,1.8385 -5.3597,2.1923 -10.7981,2.2227 -8.1892,0.046 -11.9532,-1.5538 -19.1563,-8.1416 -2.9175,-2.6682 -5.7129,-4.8513 -6.2121,-4.8513 -2.2076,0 -0.075,15.4409 3.3227,24.0616 2.5468,6.4612 4.8511,10.8673 6.9486,13.2869 1.5387,1.7749 1.096,1.7536 -7.0635,-0.34 l -6.7993,-1.1827 -6.9451,1.1746 c -8.5095,1.439 -8.7365,2.1098 -7.2092,0.3481 z"
       style="fill:#050505" />
    <path
       style="fill:#050505"
       d="m 1075.9915,3789.284 c 2.0975,2.4196 4.4018,6.8257 6.9486,13.2869 3.398,8.6207 5.5303,24.0616 3.3227,24.0616 -0.4993,0 -3.2946,-2.1831 -6.2121,-4.8513 -7.2031,-6.5878 -10.9671,-8.1875 -19.1564,-8.1416 -5.4383,0.03 -7.1572,0.3842 -10.798,2.2227 -8.0066,4.0432 -13.4856,11.1681 -15.6555,20.3589 -2.3712,10.0433 4.9409,24.2047 19.129,37.0473 20.673,18.7126 27.165,25.3562 32.634,33.3962 1.996,2.9345 3.7044,5.3355 3.7963,5.3355 0.092,0 1.8001,-2.401 3.7962,-5.3355 5.469,-8.04 11.9609,-14.6836 32.634,-33.3962 14.1881,-12.8426 21.5001,-27.004 19.1289,-37.0473 -2.1699,-9.1908 -7.6488,-16.3157 -15.6554,-20.3589 -3.6408,-1.8385 -5.3597,-2.1923 -10.7981,-2.2227 -8.1892,-0.046 -11.9532,1.5538 -19.1563,8.1416 -2.9175,2.6682 -5.7129,4.8513 -6.2121,4.8513 -2.2076,0 -0.075,-15.4409 3.3227,-24.0616 2.5468,-6.4612 4.8511,-10.8673 6.9486,-13.2869 1.5387,-1.7749 1.096,-1.7536 -7.0635,0.34 l -6.7993,1.1827 -6.9451,-1.1746 c -8.5095,-1.439 -8.7365,-2.1098 -7.2092,-0.3481 z"
       id="path6717"
       inkscape:connector-curvature="0"
       sodipodi:nodetypes="sssscssssssssscssscscss" />
    <path
       style="fill:#050505"
       d="m 840.49668,3283.5032 c 0.824,-0.9366 1.7293,-2.6422 2.7298,-5.1433 1.3349,-3.3371 2.1726,-9.3142 1.3053,-9.3142 -0.1961,0 -1.2943,0.8451 -2.4404,1.8779 -2.8298,2.5501 -4.3085,3.1694 -7.5258,3.1516 -2.1364,-0.012 -2.8117,-0.1487 -4.242,-0.8604 -3.1455,-1.5651 -5.298,-4.3231 -6.1504,-7.8809 -0.9316,-3.8877 1.9411,-9.3695 7.5149,-14.3408 8.1216,-7.2436 10.672,-9.8153 12.8206,-12.9276 0.7841,-1.1359 1.4553,-2.0653 1.4914,-2.0653 0.036,0 0.7071,0.9294 1.4913,2.0653 2.1486,3.1123 4.6989,5.684 12.8205,12.9276 5.5739,4.9713 8.4465,10.4531 7.515,14.3408 -0.8525,3.5578 -3.0049,6.3158 -6.1504,7.8809 -1.4303,0.7117 -2.1056,0.8486 -4.2421,0.8604 -3.2172,0.018 -4.6959,-0.6015 -7.5257,-3.1516 -1.1461,-1.0328 -2.2443,-1.8779 -2.4405,-1.8779 -0.8672,0 -0.029,5.9771 1.3054,9.3142 1.0005,2.5011 1.9058,4.2067 2.7298,5.1433 0.6045,0.687 0.4306,0.6788 -2.7749,-0.1316 l -2.6712,-0.4579 -2.7284,0.4547 c -3.3431,0.5571 -3.4322,0.8167 -2.8322,0.1348 z"
       id="path6855"
       inkscape:connector-curvature="0"
       sodipodi:nodetypes="sssscssssssssscssscscss" />
    <path
       sodipodi:nodetypes="sssscssssssssscssscscss"
       inkscape:connector-curvature="0"
       id="path6857"
       d="m 1328.4967,3283.5032 c 0.824,-0.9366 1.7293,-2.6422 2.7298,-5.1433 1.3349,-3.3371 2.1726,-9.3142 1.3053,-9.3142 -0.1961,0 -1.2943,0.8451 -2.4404,1.8779 -2.8298,2.5501 -4.3085,3.1694 -7.5258,3.1516 -2.1364,-0.012 -2.8117,-0.1487 -4.242,-0.8604 -3.1455,-1.5651 -5.298,-4.3231 -6.1504,-7.8809 -0.9316,-3.8877 1.9411,-9.3695 7.5149,-14.3408 8.1216,-7.2436 10.672,-9.8153 12.8206,-12.9276 0.7841,-1.1359 1.4553,-2.0653 1.4914,-2.0653 0.036,0 0.7071,0.9294 1.4913,2.0653 2.1486,3.1123 4.6989,5.684 12.8205,12.9276 5.5739,4.9713 8.4465,10.4531 7.515,14.3408 -0.8525,3.5578 -3.0049,6.3158 -6.1504,7.8809 -1.4303,0.7117 -2.1056,0.8486 -4.2421,0.8604 -3.2172,0.018 -4.6959,-0.6015 -7.5257,-3.1516 -1.1461,-1.0328 -2.2443,-1.8779 -2.4405,-1.8779 -0.8672,0 -0.029,5.9771 1.3054,9.3142 1.0005,2.5011 1.9058,4.2067 2.7298,5.1433 0.6045,0.687 0.4306,0.6788 -2.7749,-0.1316 l -2.6712,-0.4579 -2.7284,0.4547 c -3.3431,0.5571 -3.4322,0.8167 -2.8322,0.1348 z"
       style="fill:#050505" />
    <path
       sodipodi:nodetypes="sssscssssssssscssscscss"
       inkscape:connector-curvature="0"
       id="path7019-8"
       d="m 840.49668,3816.4971 c 0.824,0.9366 1.7293,2.6422 2.7298,5.1433 1.3349,3.3371 2.1726,9.3142 1.3053,9.3142 -0.1961,0 -1.2943,-0.8451 -2.4404,-1.8779 -2.8298,-2.5501 -4.3085,-3.1694 -7.5258,-3.1516 -2.1364,0.012 -2.8117,0.1487 -4.242,0.8604 -3.1455,1.5651 -5.298,4.3231 -6.1504,7.8809 -0.9316,3.8877 1.9411,9.3695 7.5149,14.3408 8.1216,7.2436 10.672,9.8153 12.8206,12.9276 0.7841,1.1359 1.4553,2.0653 1.4914,2.0653 0.036,0 0.7071,-0.9294 1.4913,-2.0653 2.1486,-3.1123 4.6989,-5.684 12.8205,-12.9276 5.5739,-4.9713 8.4465,-10.4531 7.515,-14.3408 -0.8525,-3.5578 -3.0049,-6.3158 -6.1504,-7.8809 -1.4303,-0.7117 -2.1056,-0.8486 -4.2421,-0.8604 -3.2172,-0.018 -4.6959,0.6015 -7.5257,3.1516 -1.1461,1.0328 -2.2443,1.8779 -2.4405,1.8779 -0.8672,0 -0.029,-5.9771 1.3054,-9.3142 1.0005,-2.5011 1.9058,-4.2067 2.7298,-5.1433 0.6045,-0.687 0.4306,-0.6788 -2.7749,0.1316 l -2.6712,0.4579 -2.7284,-0.4547 c -3.3431,-0.5571 -3.4322,-0.8167 -2.8322,-0.1348 z"
       style="fill:#050505" />
    <path
       style="fill:#050505"
       d="m 1328.4967,3816.4971 c 0.824,0.9366 1.7293,2.6422 2.7298,5.1433 1.3349,3.3371 2.1726,9.3142 1.3053,9.3142 -0.1961,0 -1.2943,-0.8451 -2.4404,-1.8779 -2.8298,-2.5501 -4.3085,-3.1694 -7.5258,-3.1516 -2.1364,0.012 -2.8117,0.1487 -4.242,0.8604 -3.1455,1.5651 -5.298,4.3231 -6.1504,7.8809 -0.9316,3.8877 1.9411,9.3695 7.5149,14.3408 8.1216,7.2436 10.672,9.8153 12.8206,12.9276 0.7841,1.1359 1.4553,2.0653 1.4914,2.0653 0.036,0 0.7071,-0.9294 1.4913,-2.0653 2.1486,-3.1123 4.6989,-5.684 12.8205,-12.9276 5.5739,-4.9713 8.4465,-10.4531 7.515,-14.3408 -0.8525,-3.5578 -3.0049,-6.3158 -6.1504,-7.8809 -1.4303,-0.7117 -2.1056,-0.8486 -4.2421,-0.8604 -3.2172,-0.018 -4.6959,0.6015 -7.5257,3.1516 -1.1461,1.0328 -2.2443,1.8779 -2.4405,1.8779 -0.8672,0 -0.029,-5.9771 1.3054,-9.3142 1.0005,-2.5011 1.9058,-4.2067 2.7298,-5.1433 0.6045,-0.687 0.4306,-0.6788 -2.7749,0.1316 l -2.6712,0.4579 -2.7284,-0.4547 c -3.3431,-0.5571 -3.4322,-0.8167 -2.8322,-0.1348 z"
       id="path7046"
       inkscape:connector-curvature="0"
       sodipodi:nodetypes="sssscssssssssscssscscss" />
    <path
       style="fill:#b7b772"
       d="m 878.608,3969.5383 c -0.347,-0.3672 -0.632,-38.9588 -0.632,-85.7589 0,-82.2583 -0.06,-85.1695 -1.802,-87.4482 -1.767,-2.3087 -2.209,-2.3674 -21.489,-2.8564 L 835,3792.9756 v -243.1243 -243.1244 l 19.568,-0.4992 c 17.134,-0.4371 19.777,-0.721 21.252,-2.282 1.582,-1.6748 1.713,-6.9885 2.156,-87.8642 L 878.449,3130 h 212.051 212.051 l 0.472,86.0815 c 0.444,80.8757 0.575,86.1894 2.157,87.8642 1.475,1.561 4.117,1.8449 21.252,2.282 l 19.568,0.4992 v 243.1244 243.1243 l -19.568,0.4992 c -17.135,0.4372 -19.777,0.7211 -21.252,2.282 -1.582,1.6749 -1.713,6.9885 -2.157,87.8642 l -0.472,86.0816 -211.655,0.2518 c -116.411,0.1384 -211.939,-0.049 -212.288,-0.4161 z m 420.641,-85.9527 c 0,-81.6793 0.05,-83.6964 1.88,-86.8749 3.8,-6.5887 6.015,-7.2218 25.272,-7.226 h 17.237 V 3549.855 3310.2252 h -17.237 c -19.257,0 -21.472,-0.6373 -25.272,-7.2259 -1.834,-3.1786 -1.877,-5.1956 -1.88,-86.8749 v -83.6206 H 1090.504 881.759 v 83.6208 c 0,81.6794 -0.05,83.6964 -1.88,86.875 -3.801,6.5886 -6.015,7.2217 -25.272,7.2259 h -17.238 v 239.6297 239.6298 h 17.238 c 19.257,0 21.471,0.6373 25.272,7.226 1.833,3.1785 1.877,5.1955 1.88,86.8749 v 83.6205 h 208.745 208.745 z"
       id="path10286"
       inkscape:connector-curvature="0" />
    <path
       inkscape:connector-curvature="0"
       id="path10318"
       d="m 882.08364,3883.9844 c 0,-93.363 0.27288,-90.8815 -10.31711,-93.8225 -3.15036,-0.8749 -12.08864,-1.5946 -19.86284,-1.5993 l -14.13492,-0.01 v -239.1475 -239.1475 h 17.69068 c 17.5154,0 17.73495,-0.044 22.15744,-4.4667 l 4.46675,-4.4668 v -84.163 -84.163 h 208.58556 208.5855 v 84.5864 84.5863 l 3.7473,4.0434 c 3.6527,3.9414 4.2118,4.0434 22.1574,4.0434 h 18.4102 v 238.9866 238.9865 l -18.4716,0.5453 c -18.0455,0.5328 -18.5565,0.6442 -22.1574,4.8305 l -3.6859,4.2851 v 84.7243 84.7243 H 1090.6692 882.08364 v -83.3573 z m 213.04046,22.42 c 2.2586,-3.2591 12.8669,-14.4333 23.574,-24.8316 26.7657,-25.9934 31.9518,-37.0039 24.8232,-52.7015 -7.5998,-16.7352 -28.4505,-21.0216 -42.7439,-8.7869 -3.5388,3.029 -6.7432,5.1982 -7.121,4.8204 -1.5498,-1.5498 2.9056,-19.3967 6.9699,-27.9189 2.3977,-5.0278 4.1444,-9.3566 3.8815,-9.6195 -0.2629,-0.2629 -3.6003,0.3082 -7.4164,1.2691 -4.944,1.2449 -9.0547,1.2957 -14.3014,0.1767 -4.0496,-0.8637 -7.5032,-1.4301 -7.6746,-1.2587 -0.1714,0.1714 1.7126,4.4206 4.1868,9.4427 4.3153,8.7595 8.6444,26.1159 6.9391,27.8212 -0.4498,0.4498 -3.3241,-1.3827 -6.3873,-4.0722 -6.7832,-5.9558 -11.199,-7.7415 -19.1431,-7.7415 -13.2722,0 -25.4014,11.3159 -26.9611,25.1534 -1.3145,11.6627 4.2414,20.3647 27.9683,43.8054 11.3621,11.2251 22.1805,22.6452 24.0407,25.378 1.8602,2.7328 3.8045,4.9734 4.3205,4.9792 0.5161,0.01 2.7862,-2.6561 5.0448,-5.9153 z m 5.5947,-603.1526 c -4.0854,-8.252 -8.6701,-26.2077 -7.0941,-27.7836 0.3604,-0.3604 3.8738,1.8022 7.8075,4.8059 11.2779,8.6113 21.7826,9.1795 32.9597,1.7828 6.4401,-4.2619 12.0597,-14.6839 12.0379,-22.3255 -0.031,-11.002 -6.5421,-20.6068 -28.8271,-42.5258 -11.6254,-11.4344 -22.6131,-22.8528 -24.4173,-25.3742 l -3.2803,-4.5843 -3.2917,4.5843 c -1.8104,2.5214 -12.8496,14.0507 -24.5315,25.6207 -22.0673,21.856 -28.6692,31.4734 -28.7015,41.8111 -0.044,14.0777 13.6618,28.0744 27.4908,28.0744 6.0921,0 13.2728,-3.0721 19.5478,-8.3631 2.767,-2.3331 5.423,-3.8499 5.9022,-3.3706 1.6125,1.6125 -4.0805,23.1325 -7.8857,29.8083 l -3.7698,6.6138 9.5298,-0.8964 c 5.2414,-0.4931 11.9366,-0.3171 14.8782,0.391 2.9416,0.7081 5.5219,1.1708 5.7339,1.0282 0.2121,-0.1426 -1.6279,-4.3263 -4.0888,-9.297 z"
       style="fill:#feefd3;fill-opacity:1;stroke:#fffecd;stroke-width:0.541452;stroke-miterlimit:4;stroke-dasharray:none;stroke-opacity:1" />
  </g>
</svg>
