<?xml version="1.0" encoding="UTF-8" standalone="no"?>
<!-- Created with Inkscape (http://www.inkscape.org/) -->

<svg
   id="svg10047"
   height="122.94574"
   width="78.999794"
   version="1.1"
   viewBox="0 0 78.999794 122.94574"
   inkscape:version="0.91 r13725"
   sodipodi:docname="kaiser-jubilaum.svgz"
   xmlns:inkscape="http://www.inkscape.org/namespaces/inkscape"
   xmlns:sodipodi="http://sodipodi.sourceforge.net/DTD/sodipodi-0.dtd"
   xmlns="http://www.w3.org/2000/svg"
   xmlns:svg="http://www.w3.org/2000/svg"
   xmlns:rdf="http://www.w3.org/1999/02/22-rdf-syntax-ns#"
   xmlns:cc="http://creativecommons.org/ns#"
   xmlns:dc="http://purl.org/dc/elements/1.1/">
  <sodipodi:namedview
     pagecolor="#ffffff"
     bordercolor="#666666"
     borderopacity="1"
     objecttolerance="10"
     gridtolerance="10"
     guidetolerance="10"
     inkscape:pageopacity="0"
     inkscape:pageshadow="2"
     inkscape:window-width="1920"
     inkscape:window-height="1016"
     id="namedview1491"
     showgrid="false"
     inkscape:zoom="1.3479675"
     inkscape:cx="513.49999"
     inkscape:cy="307.5"
     inkscape:window-x="0"
     inkscape:window-y="0"
     inkscape:window-maximized="1"
     inkscape:current-layer="svg10047"
     showguides="true"
     inkscape:guide-bbox="true"
     inkscape:snap-grids="true"
     inkscape:showpageshadow="2"
     inkscape:pagecheckerboard="0"
     inkscape:deskcolor="#d1d1d1" />
  <metadata
     id="metadata16869">
    <rdf:RDF>
      <cc:Work
         rdf:about="">
        <dc:format>image/svg+xml</dc:format>
        <dc:type
           rdf:resource="http://purl.org/dc/dcmitype/StillImage" />
        <dc:title />
      </cc:Work>
    </rdf:RDF>
  </metadata>
  <defs
     id="defs10049" />
  <g
     id="spade_4"
     transform="matrix(0.13620654,0,0,0.13660647,-299.65439,-423.48006)"
     inkscape:label="#spade_4">
    <rect
       width="578.00104"
       height="898.00043"
       rx="48.210754"
       ry="49.888176"
       x="2200.9995"
       y="3100.9995"
       id="rect6171"
       style="font-style:normal;font-variant:normal;font-weight:500;font-stretch:normal;font-size:medium;line-height:125%;font-family:Gaelic;-inkscape-font-specification:'Gaelic Medium';letter-spacing:0px;word-spacing:0px;fill:#ffffff;fill-opacity:1;stroke:#000000;stroke-width:1.99898;stroke-linecap:butt;stroke-linejoin:miter;stroke-miterlimit:4;stroke-dasharray:none;stroke-opacity:1" />
    <path
       d="m 2249.1601,3190.6592 h -19.4595 q -0.9979,-5.3067 -3.7006,-8.9586 l 24.0748,-49.7004 h 6.6944 v 49.0727 H 2266 v 9.5863 h -9.2308 v 11.6976 h 5.2807 v 9.6434 h -19.0437 v -9.6434 h 6.1539 z m 0,-9.5863 v -31.2695 l -15.1767,31.2695 z"
       id="path7471"
       inkscape:connector-curvature="0"
       style="font-style:normal;font-variant:normal;font-weight:normal;font-stretch:normal;font-size:medium;line-height:125%;font-family:Rockwell;-inkscape-font-specification:Rockwell;letter-spacing:0px;word-spacing:0px;fill:#000000;fill-opacity:1;stroke:none;stroke-width:1px;stroke-linecap:butt;stroke-linejoin:miter;stroke-opacity:1" />
    <path
       inkscape:connector-curvature="0"
       id="path5368"
       d="m 2737.1601,3190.6592 h -19.4595 q -0.9979,-5.3067 -3.7006,-8.9586 l 24.0748,-49.7004 h 6.6944 v 49.0727 H 2754 v 9.5863 h -9.2308 v 11.6976 h 5.2807 v 9.6434 h -19.0437 v -9.6434 h 6.1539 z m 0,-9.5863 v -31.2695 l -15.1767,31.2695 z"
       style="font-style:normal;font-variant:normal;font-weight:normal;font-stretch:normal;font-size:medium;line-height:125%;font-family:Rockwell;-inkscape-font-specification:Rockwell;letter-spacing:0px;word-spacing:0px;fill:#000000;fill-opacity:1;stroke:none;stroke-width:1px;stroke-linecap:butt;stroke-linejoin:miter;stroke-opacity:1" />
    <path
       inkscape:connector-curvature="0"
       id="path11841"
       d="m 2242.8399,3909.2411 h 19.4595 q 0.9979,5.3067 3.7006,8.9586 l -24.0748,49.7004 h -6.6944 v -49.0727 H 2226 v -9.5863 h 9.2308 v -11.6976 h -5.2807 v -9.6434 h 19.0437 v 9.6434 h -6.1539 z m 0,9.5863 v 31.2695 l 15.1767,-31.2695 z"
       style="font-style:normal;font-variant:normal;font-weight:normal;font-stretch:normal;font-size:medium;line-height:125%;font-family:Rockwell;-inkscape-font-specification:Rockwell;letter-spacing:0px;word-spacing:0px;fill:#000000;fill-opacity:1;stroke:none;stroke-width:1px;stroke-linecap:butt;stroke-linejoin:miter;stroke-opacity:1" />
    <path
       d="m 2730.8399,3909.2411 h 19.4595 q 0.9979,5.3067 3.7006,8.9586 l -24.0748,49.7004 h -6.6944 v -49.0727 H 2714 v -9.5863 h 9.2308 v -11.6976 h -5.2807 v -9.6434 h 19.0437 v 9.6434 h -6.1539 z m 0,9.5863 v 31.2695 l 15.1767,-31.2695 z"
       id="path11895"
       inkscape:connector-curvature="0"
       style="font-style:normal;font-variant:normal;font-weight:normal;font-stretch:normal;font-size:medium;line-height:125%;font-family:Rockwell;-inkscape-font-specification:Rockwell;letter-spacing:0px;word-spacing:0px;fill:#000000;fill-opacity:1;stroke:none;stroke-width:1px;stroke-linecap:butt;stroke-linejoin:miter;stroke-opacity:1" />
    <path
       sodipodi:nodetypes="sssscssssssssscssscscss"
       inkscape:connector-curvature="0"
       id="path6696"
       d="m 2349.9915,3310.7163 c 2.0975,-2.4196 4.4018,-6.8257 6.9486,-13.2869 3.398,-8.6207 5.5303,-24.0616 3.3227,-24.0616 -0.4993,0 -3.2946,2.1831 -6.2121,4.8513 -7.2031,6.5878 -10.9671,8.1875 -19.1564,8.1416 -5.4383,-0.03 -7.1572,-0.3842 -10.798,-2.2227 -8.0066,-4.0432 -13.4856,-11.1681 -15.6555,-20.3589 -2.3712,-10.0433 4.9409,-24.2047 19.129,-37.0473 20.673,-18.7126 27.165,-25.3562 32.634,-33.3962 1.996,-2.9345 3.7044,-5.3355 3.7963,-5.3355 0.092,0 1.8001,2.401 3.7962,5.3355 5.469,8.04 11.9609,14.6836 32.634,33.3962 14.1881,12.8426 21.5001,27.004 19.1289,37.0473 -2.1699,9.1908 -7.6488,16.3157 -15.6554,20.3589 -3.6408,1.8385 -5.3597,2.1923 -10.7981,2.2227 -8.1892,0.046 -11.9532,-1.5538 -19.1563,-8.1416 -2.9175,-2.6682 -5.7129,-4.8513 -6.2121,-4.8513 -2.2076,0 -0.075,15.4409 3.3227,24.0616 2.5468,6.4612 4.8511,10.8673 6.9486,13.2869 1.5387,1.7749 1.096,1.7536 -7.0635,-0.34 l -6.7993,-1.1827 -6.9451,1.1746 c -8.5095,1.439 -8.7365,2.1098 -7.2092,0.3481 z"
       style="fill:#050505" />
    <path
       style="fill:#050505"
       d="m 2601.9915,3310.7163 c 2.0975,-2.4196 4.4018,-6.8257 6.9486,-13.2869 3.398,-8.6207 5.5303,-24.0616 3.3227,-24.0616 -0.4993,0 -3.2946,2.1831 -6.2121,4.8513 -7.2031,6.5878 -10.9671,8.1875 -19.1564,8.1416 -5.4383,-0.03 -7.1572,-0.3842 -10.798,-2.2227 -8.0066,-4.0432 -13.4856,-11.1681 -15.6555,-20.3589 -2.3712,-10.0433 4.9409,-24.2047 19.129,-37.0473 20.673,-18.7126 27.165,-25.3562 32.634,-33.3962 1.996,-2.9345 3.7044,-5.3355 3.7963,-5.3355 0.092,0 1.8001,2.401 3.7962,5.3355 5.469,8.04 11.9609,14.6836 32.634,33.3962 14.1881,12.8426 21.5001,27.004 19.1289,37.0473 -2.1699,9.1908 -7.6488,16.3157 -15.6554,20.3589 -3.6408,1.8385 -5.3597,2.1923 -10.7981,2.2227 -8.1892,0.046 -11.9532,-1.5538 -19.1563,-8.1416 -2.9175,-2.6682 -5.7129,-4.8513 -6.2121,-4.8513 -2.2076,0 -0.075,15.4409 3.3227,24.0616 2.5468,6.4612 4.8511,10.8673 6.9486,13.2869 1.5387,1.7749 1.096,1.7536 -7.0635,-0.34 l -6.7993,-1.1827 -6.9451,1.1746 c -8.5095,1.439 -8.7365,2.1098 -7.2092,0.3481 z"
       id="path6699"
       inkscape:connector-curvature="0"
       sodipodi:nodetypes="sssscssssssssscssscscss" />
    <path
       style="fill:#050505"
       d="m 2349.9915,3789.284 c 2.0975,2.4196 4.4018,6.8257 6.9486,13.2869 3.398,8.6207 5.5303,24.0616 3.3227,24.0616 -0.4993,0 -3.2946,-2.1831 -6.2121,-4.8513 -7.2031,-6.5878 -10.9671,-8.1875 -19.1564,-8.1416 -5.4383,0.03 -7.1572,0.3842 -10.798,2.2227 -8.0066,4.0432 -13.4856,11.1681 -15.6555,20.3589 -2.3712,10.0433 4.9409,24.2047 19.129,37.0473 20.673,18.7126 27.165,25.3562 32.634,33.3962 1.996,2.9345 3.7044,5.3355 3.7963,5.3355 0.092,0 1.8001,-2.401 3.7962,-5.3355 5.469,-8.04 11.9609,-14.6836 32.634,-33.3962 14.1881,-12.8426 21.5001,-27.004 19.1289,-37.0473 -2.1699,-9.1908 -7.6488,-16.3157 -15.6554,-20.3589 -3.6408,-1.8385 -5.3597,-2.1923 -10.7981,-2.2227 -8.1892,-0.046 -11.9532,1.5538 -19.1563,8.1416 -2.9175,2.6682 -5.7129,4.8513 -6.2121,4.8513 -2.2076,0 -0.075,-15.4409 3.3227,-24.0616 2.5468,-6.4612 4.8511,-10.8673 6.9486,-13.2869 1.5387,-1.7749 1.096,-1.7536 -7.0635,0.34 l -6.7993,1.1827 -6.9451,-1.1746 c -8.5095,-1.439 -8.7365,-2.1098 -7.2092,-0.3481 z"
       id="path6705"
       inkscape:connector-curvature="0"
       sodipodi:nodetypes="sssscssssssssscssscscss" />
    <path
       sodipodi:nodetypes="sssscssssssssscssscscss"
       inkscape:connector-curvature="0"
       id="path6707"
       d="m 2601.9915,3789.284 c 2.0975,2.4196 4.4018,6.8257 6.9486,13.2869 3.398,8.6207 5.5303,24.0616 3.3227,24.0616 -0.4993,0 -3.2946,-2.1831 -6.2121,-4.8513 -7.2031,-6.5878 -10.9671,-8.1875 -19.1564,-8.1416 -5.4383,0.03 -7.1572,0.3842 -10.798,2.2227 -8.0066,4.0432 -13.4856,11.1681 -15.6555,20.3589 -2.3712,10.0433 4.9409,24.2047 19.129,37.0473 20.673,18.7126 27.165,25.3562 32.634,33.3962 1.996,2.9345 3.7044,5.3355 3.7963,5.3355 0.092,0 1.8001,-2.401 3.7962,-5.3355 5.469,-8.04 11.9609,-14.6836 32.634,-33.3962 14.1881,-12.8426 21.5001,-27.004 19.1289,-37.0473 -2.1699,-9.1908 -7.6488,-16.3157 -15.6554,-20.3589 -3.6408,-1.8385 -5.3597,-2.1923 -10.7981,-2.2227 -8.1892,-0.046 -11.9532,1.5538 -19.1563,8.1416 -2.9175,2.6682 -5.7129,4.8513 -6.2121,4.8513 -2.2076,0 -0.075,-15.4409 3.3227,-24.0616 2.5468,-6.4612 4.8511,-10.8673 6.9486,-13.2869 1.5387,-1.7749 1.096,-1.7536 -7.0635,0.34 l -6.7993,1.1827 -6.9451,-1.1746 c -8.5095,-1.439 -8.7365,-2.1098 -7.2092,-0.3481 z"
       style="fill:#050505" />
    <path
       sodipodi:nodetypes="sssscssssssssscssscscss"
       inkscape:connector-curvature="0"
       id="path6847"
       d="m 2240.4967,3283.5032 c 0.824,-0.9366 1.7293,-2.6422 2.7298,-5.1433 1.3349,-3.3371 2.1726,-9.3142 1.3053,-9.3142 -0.1961,0 -1.2943,0.8451 -2.4404,1.8779 -2.8298,2.5501 -4.3085,3.1694 -7.5258,3.1516 -2.1364,-0.012 -2.8117,-0.1487 -4.242,-0.8604 -3.1455,-1.5651 -5.298,-4.3231 -6.1504,-7.8809 -0.9316,-3.8877 1.9411,-9.3695 7.5149,-14.3408 8.1216,-7.2436 10.672,-9.8153 12.8206,-12.9276 0.7841,-1.1359 1.4553,-2.0653 1.4914,-2.0653 0.036,0 0.7071,0.9294 1.4913,2.0653 2.1486,3.1123 4.6989,5.684 12.8205,12.9276 5.5739,4.9713 8.4465,10.4531 7.515,14.3408 -0.8525,3.5578 -3.0049,6.3158 -6.1504,7.8809 -1.4303,0.7117 -2.1056,0.8486 -4.2421,0.8604 -3.2172,0.018 -4.6959,-0.6015 -7.5257,-3.1516 -1.1461,-1.0328 -2.2443,-1.8779 -2.4405,-1.8779 -0.8672,0 -0.029,5.9771 1.3054,9.3142 1.0005,2.5011 1.9058,4.2067 2.7298,5.1433 0.6045,0.687 0.4306,0.6788 -2.7749,-0.1316 l -2.6712,-0.4579 -2.7284,0.4547 c -3.3431,0.5571 -3.4322,0.8167 -2.8322,0.1348 z"
       style="fill:#050505" />
    <path
       style="fill:#050505"
       d="m 2728.4967,3283.5032 c 0.824,-0.9366 1.7293,-2.6422 2.7298,-5.1433 1.3349,-3.3371 2.1726,-9.3142 1.3053,-9.3142 -0.1961,0 -1.2943,0.8451 -2.4404,1.8779 -2.8298,2.5501 -4.3085,3.1694 -7.5258,3.1516 -2.1364,-0.012 -2.8117,-0.1487 -4.242,-0.8604 -3.1455,-1.5651 -5.298,-4.3231 -6.1504,-7.8809 -0.9316,-3.8877 1.9411,-9.3695 7.5149,-14.3408 8.1216,-7.2436 10.672,-9.8153 12.8206,-12.9276 0.7841,-1.1359 1.4553,-2.0653 1.4914,-2.0653 0.036,0 0.7071,0.9294 1.4913,2.0653 2.1486,3.1123 4.6989,5.684 12.8205,12.9276 5.5739,4.9713 8.4465,10.4531 7.515,14.3408 -0.8525,3.5578 -3.0049,6.3158 -6.1504,7.8809 -1.4303,0.7117 -2.1056,0.8486 -4.2421,0.8604 -3.2172,0.018 -4.6959,-0.6015 -7.5257,-3.1516 -1.1461,-1.0328 -2.2443,-1.8779 -2.4405,-1.8779 -0.8672,0 -0.029,5.9771 1.3054,9.3142 1.0005,2.5011 1.9058,4.2067 2.7298,5.1433 0.6045,0.687 0.4306,0.6788 -2.7749,-0.1316 l -2.6712,-0.4579 -2.7284,0.4547 c -3.3431,0.5571 -3.4322,0.8167 -2.8322,0.1348 z"
       id="path6849"
       inkscape:connector-curvature="0"
       sodipodi:nodetypes="sssscssssssssscssscscss" />
    <path
       style="fill:#050505"
       d="m 2240.4967,3816.4971 c 0.824,0.9366 1.7293,2.6422 2.7298,5.1433 1.3349,3.3371 2.1726,9.3142 1.3053,9.3142 -0.1961,0 -1.2943,-0.8451 -2.4404,-1.8779 -2.8298,-2.5501 -4.3085,-3.1694 -7.5258,-3.1516 -2.1364,0.012 -2.8117,0.1487 -4.242,0.8604 -3.1455,1.5651 -5.298,4.3231 -6.1504,7.8809 -0.9316,3.8877 1.9411,9.3695 7.5149,14.3408 8.1216,7.2436 10.672,9.8153 12.8206,12.9276 0.7841,1.1359 1.4553,2.0653 1.4914,2.0653 0.036,0 0.7071,-0.9294 1.4913,-2.0653 2.1486,-3.1123 4.6989,-5.684 12.8205,-12.9276 5.5739,-4.9713 8.4465,-10.4531 7.515,-14.3408 -0.8525,-3.5578 -3.0049,-6.3158 -6.1504,-7.8809 -1.4303,-0.7117 -2.1056,-0.8486 -4.2421,-0.8604 -3.2172,-0.018 -4.6959,0.6015 -7.5257,3.1516 -1.1461,1.0328 -2.2443,1.8779 -2.4405,1.8779 -0.8672,0 -0.029,-5.9771 1.3054,-9.3142 1.0005,-2.5011 1.9058,-4.2067 2.7298,-5.1433 0.6045,-0.687 0.4306,-0.6788 -2.7749,0.1316 l -2.6712,0.4579 -2.7284,-0.4547 c -3.3431,-0.5571 -3.4322,-0.8167 -2.8322,-0.1348 z"
       id="path7010"
       inkscape:connector-curvature="0"
       sodipodi:nodetypes="sssscssssssssscssscscss" />
    <path
       sodipodi:nodetypes="sssscssssssssscssscscss"
       inkscape:connector-curvature="0"
       id="path7013"
       d="m 2728.4967,3816.4971 c 0.824,0.9366 1.7293,2.6422 2.7298,5.1433 1.3349,3.3371 2.1726,9.3142 1.3053,9.3142 -0.1961,0 -1.2943,-0.8451 -2.4404,-1.8779 -2.8298,-2.5501 -4.3085,-3.1694 -7.5258,-3.1516 -2.1364,0.012 -2.8117,0.1487 -4.242,0.8604 -3.1455,1.5651 -5.298,4.3231 -6.1504,7.8809 -0.9316,3.8877 1.9411,9.3695 7.5149,14.3408 8.1216,7.2436 10.672,9.8153 12.8206,12.9276 0.7841,1.1359 1.4553,2.0653 1.4914,2.0653 0.036,0 0.7071,-0.9294 1.4913,-2.0653 2.1486,-3.1123 4.6989,-5.684 12.8205,-12.9276 5.5739,-4.9713 8.4465,-10.4531 7.515,-14.3408 -0.8525,-3.5578 -3.0049,-6.3158 -6.1504,-7.8809 -1.4303,-0.7117 -2.1056,-0.8486 -4.2421,-0.8604 -3.2172,-0.018 -4.6959,0.6015 -7.5257,3.1516 -1.1461,1.0328 -2.2443,1.8779 -2.4405,1.8779 -0.8672,0 -0.029,-5.9771 1.3054,-9.3142 1.0005,-2.5011 1.9058,-4.2067 2.7298,-5.1433 0.6045,-0.687 0.4306,-0.6788 -2.7749,0.1316 l -2.6712,0.4579 -2.7284,-0.4547 c -3.3431,-0.5571 -3.4322,-0.8167 -2.8322,-0.1348 z"
       style="fill:#050505" />
    <path
       style="fill:#b7b772"
       d="m 2278.608,3969.5383 c -0.347,-0.3672 -0.632,-38.9588 -0.632,-85.7589 0,-82.2583 -0.06,-85.1695 -1.802,-87.4482 -1.767,-2.3087 -2.209,-2.3674 -21.489,-2.8564 L 2235,3792.9756 v -243.1243 -243.1244 l 19.568,-0.4992 c 17.134,-0.4371 19.777,-0.721 21.252,-2.282 1.582,-1.6748 1.713,-6.9885 2.156,-87.8642 L 2278.449,3130 h 212.051 212.051 l 0.472,86.0815 c 0.444,80.8757 0.575,86.1894 2.157,87.8642 1.475,1.561 4.117,1.8449 21.252,2.282 l 19.568,0.4992 v 243.1244 243.1243 l -19.568,0.4992 c -17.135,0.4372 -19.777,0.7211 -21.252,2.282 -1.582,1.6749 -1.713,6.9885 -2.157,87.8642 l -0.472,86.0816 -211.655,0.2518 c -116.411,0.1384 -211.939,-0.049 -212.288,-0.4161 z m 420.641,-85.9527 c 0,-81.6793 0.05,-83.6964 1.88,-86.8749 3.8,-6.5887 6.015,-7.2218 25.272,-7.226 h 17.237 V 3549.855 3310.2252 h -17.237 c -19.257,0 -21.472,-0.6373 -25.272,-7.2259 -1.834,-3.1786 -1.877,-5.1956 -1.88,-86.8749 v -83.6206 h -208.745 -208.745 v 83.6208 c 0,81.6794 -0.05,83.6964 -1.88,86.875 -3.801,6.5886 -6.015,7.2217 -25.272,7.2259 h -17.238 v 239.6297 239.6298 h 17.238 c 19.257,0 21.471,0.6373 25.272,7.226 1.833,3.1785 1.877,5.1955 1.88,86.8749 v 83.6205 h 208.745 208.745 z"
       id="path10290"
       inkscape:connector-curvature="0" />
    <path
       inkscape:connector-curvature="0"
       id="path10320"
       d="m 2281.8224,3882.6174 v -84.7243 l -3.6859,-4.2851 c -3.6009,-4.1863 -4.112,-4.2977 -22.1575,-4.8305 l -18.4715,-0.5453 v -238.9865 -238.9866 h 17.4482 c 9.5964,0 18.5613,-0.4271 19.9218,-0.9492 6.768,-2.5972 6.9449,-4.9639 6.9449,-92.953 v -83.3573 h 208.5855 208.5855 v 83.2095 c 0,57.728 0.5196,84.3498 1.6966,86.9332 2.605,5.7174 7.6941,7.1168 25.8811,7.1168 h 16.7372 v 238.9592 238.9591 l -18.3797,0.6553 c -16.47,0.5872 -18.7325,1.0081 -21.7754,4.0503 l -3.3957,3.3949 -0.4193,85.5319 -0.4192,85.5319 h -208.5483 -208.5483 z m 86.9501,24.305 c 2.0178,-2.9627 13.0697,-14.8199 24.5597,-26.3493 27.6597,-27.7541 31.4318,-35.9129 23.8083,-51.4948 -8.7093,-17.8011 -28.1855,-21.5306 -43.2706,-8.2857 -2.8968,2.5434 -5.632,4.2591 -6.0784,3.8127 -1.7316,-1.7316 3.1331,-20.4186 7.3644,-28.2892 2.4492,-4.5557 4.1955,-8.5406 3.8808,-8.8554 -0.3148,-0.3148 -3.6339,0.1986 -7.3759,1.1409 -4.6154,1.1621 -9.3441,1.2513 -14.7028,0.2774 -4.3446,-0.7897 -7.8993,-1.0951 -7.8993,-0.6787 0,0.4164 1.3097,2.9012 2.9105,5.5218 3.7202,6.0901 7.7862,19.8897 7.7862,26.4253 v 5.0609 l -6.994,-5.3386 c -8.256,-6.302 -12.2309,-7.5079 -21.357,-6.4792 -12.7211,1.4338 -23.6044,13.9329 -23.6044,27.1089 0,11.1166 6.3252,20.5221 27.559,40.9802 10.7394,10.347 21.4031,21.5213 23.6972,24.8317 2.2941,3.3103 4.5933,6.0141 5.1093,6.0084 0.516,-0.01 2.5892,-2.4345 4.607,-5.3973 z m 251.4805,0.4852 c 1.5993,-2.7074 12.3658,-14.2254 23.9257,-25.5956 21.4093,-21.0582 28.7848,-31.6485 28.8221,-41.3845 0.027,-6.9907 -7.0396,-18.7205 -13.9944,-23.2301 -10.6567,-6.9099 -22.5844,-5.55 -33.2192,3.7875 -4.524,3.9721 -5.5726,4.3661 -5.9807,2.2472 -0.8977,-4.6618 2.7797,-18.4872 7.2933,-27.4195 2.442,-4.8326 4.1057,-8.7866 3.6972,-8.7866 -0.4086,0 -3.6814,0.74 -7.2731,1.6443 -4.3528,1.0961 -9.1642,1.1657 -14.4296,0.2087 -4.3446,-0.7897 -7.8992,-1.263 -7.8992,-1.0519 0,0.2111 2.1083,4.8893 4.6852,10.3959 2.6273,5.6145 5.085,13.8864 5.5956,18.833 l 0.9103,8.8209 -5.9776,-4.6874 c -8.7152,-6.8341 -11.8951,-8.1861 -19.248,-8.1834 -14.0856,0 -25.7155,10.8593 -26.8967,25.1029 -1.0879,13.1184 3.0224,19.7705 26.5049,42.8951 11.095,10.9259 22.0558,22.444 24.3573,25.5957 2.3015,3.1517 4.6424,5.7303 5.2019,5.7303 0.5594,0 2.3257,-2.2151 3.925,-4.9225 z m -240.9603,-595.2384 c -8.3416,-16.4084 -13.8241,-34.1104 -11.3351,-36.5994 0.5491,-0.549 2.8821,0.8062 5.1846,3.0116 5.1471,4.93 13.9876,8.7562 20.2314,8.7562 15.1337,0 29.4789,-17.0387 26.7793,-31.8076 -1.7767,-9.7196 -7.7803,-17.7284 -29.6159,-39.5075 -11.6543,-11.6242 -22.3637,-22.854 -23.7986,-24.9551 l -2.609,-3.8203 -4.0076,5.3484 c -2.2042,2.9416 -13.3973,14.6315 -24.8735,25.9777 -22.5207,22.2655 -27.4663,29.7243 -27.4231,41.3591 0.046,12.4786 10.0378,24.4732 22.3031,26.7741 8.0087,1.5025 14.8636,-0.4608 22.8195,-6.5356 l 7.2874,-5.5643 -0.903,8.7499 c -0.5016,4.8595 -2.9753,13.178 -5.5637,18.7093 l -4.6606,9.9595 9.526,-0.939 c 5.2394,-0.5165 11.589,-0.2853 14.1104,0.5137 5.8837,1.8645 7.2681,1.9849 6.5484,0.5693 z m 247.8513,-8.404 c -4.3736,-8.1234 -9.0322,-26.2132 -7.2178,-28.0276 0.5434,-0.5434 3.8619,1.4719 7.3743,4.4784 6.9214,5.9245 15.778,8.2341 24.3526,6.3508 6.8441,-1.5032 16.1193,-10.3902 19.1636,-18.3616 5.3013,-13.8811 0.7011,-22.4395 -27.4986,-51.1601 -11.9656,-12.1866 -22.936,-23.8766 -24.3787,-25.9777 l -2.623,-3.8203 -4.7987,6.1124 c -2.6393,3.3618 -13.8482,15.0518 -24.9086,25.9777 -13.1134,12.9539 -21.2516,22.2927 -23.3913,26.8422 -7.1362,15.1728 -2.065,30.9225 12.3207,38.2646 10.1371,5.1738 20.4944,3.2635 31.6384,-5.8351 l 5.2178,-4.2601 -1.0722,9.155 c -0.8892,7.5931 -3.1538,13.8654 -9.8187,27.1949 -0.331,0.662 3.7619,0.8007 9.0954,0.3081 5.3334,-0.4925 11.76,-0.2722 14.2814,0.4895 2.5214,0.7618 5.034,1.1391 5.5837,0.8385 0.5496,-0.3007 -0.9445,-4.157 -3.3203,-8.5696 z"
       style="fill:#feefd3;fill-opacity:1;stroke:#fffecd;stroke-width:0.541452;stroke-miterlimit:4;stroke-dasharray:none;stroke-opacity:1" />
  </g>
</svg>
