<?xml version="1.0" encoding="UTF-8" standalone="no"?>
<!-- Created with Inkscape (http://www.inkscape.org/) -->

<svg
   id="svg10047"
   height="122.94574"
   width="78.999794"
   version="1.1"
   viewBox="0 0 78.999794 122.94574"
   inkscape:version="0.91 r13725"
   sodipodi:docname="kaiser-jubilaum.svgz"
   xmlns:inkscape="http://www.inkscape.org/namespaces/inkscape"
   xmlns:sodipodi="http://sodipodi.sourceforge.net/DTD/sodipodi-0.dtd"
   xmlns="http://www.w3.org/2000/svg"
   xmlns:svg="http://www.w3.org/2000/svg"
   xmlns:rdf="http://www.w3.org/1999/02/22-rdf-syntax-ns#"
   xmlns:cc="http://creativecommons.org/ns#"
   xmlns:dc="http://purl.org/dc/elements/1.1/">
  <sodipodi:namedview
     pagecolor="#ffffff"
     bordercolor="#666666"
     borderopacity="1"
     objecttolerance="10"
     gridtolerance="10"
     guidetolerance="10"
     inkscape:pageopacity="0"
     inkscape:pageshadow="2"
     inkscape:window-width="1920"
     inkscape:window-height="1016"
     id="namedview1491"
     showgrid="false"
     inkscape:zoom="1.3479675"
     inkscape:cx="513.49999"
     inkscape:cy="307.5"
     inkscape:window-x="0"
     inkscape:window-y="0"
     inkscape:window-maximized="1"
     inkscape:current-layer="svg10047"
     showguides="true"
     inkscape:guide-bbox="true"
     inkscape:snap-grids="true"
     inkscape:showpageshadow="2"
     inkscape:pagecheckerboard="0"
     inkscape:deskcolor="#d1d1d1" />
  <metadata
     id="metadata16869">
    <rdf:RDF>
      <cc:Work
         rdf:about="">
        <dc:format>image/svg+xml</dc:format>
        <dc:type
           rdf:resource="http://purl.org/dc/dcmitype/StillImage" />
        <dc:title />
      </cc:Work>
    </rdf:RDF>
  </metadata>
  <defs
     id="defs10049" />
  <g
     id="spade_5"
     transform="matrix(0.13620654,0,0,0.13660647,-394.99897,-423.48006)"
     inkscape:label="#spade_5">
    <rect
       width="578.00104"
       height="898.00043"
       rx="48.210754"
       ry="49.888176"
       x="2900.9995"
       y="3100.9995"
       id="rect6070"
       style="font-style:normal;font-variant:normal;font-weight:500;font-stretch:normal;font-size:medium;line-height:125%;font-family:Gaelic;-inkscape-font-specification:'Gaelic Medium';letter-spacing:0px;word-spacing:0px;fill:#ffffff;fill-opacity:1;stroke:#000000;stroke-width:1.99898;stroke-linecap:butt;stroke-linejoin:miter;stroke-miterlimit:4;stroke-dasharray:none;stroke-opacity:1" />
    <path
       d="m 2926,3185.5791 h 7.611 q 0.6765,7.9377 3.8478,12.6436 3.2135,4.7058 8.4567,4.7058 5.2854,0 8.4989,-4.876 3.2135,-4.8759 3.2135,-12.5301 0,-8.1077 -3.1289,-12.36 -3.129,-4.3089 -7.7802,-4.3089 -6.9767,0 -11.797,9.4683 -2.7061,-3.5718 -6.1311,-5.7263 l 2.4102,-40.5954 h 31.3742 v 20.9213 h -7.2728 v -10.7724 h -18.0126 l -1.3108,23.0758 q 5.37,-5.8398 11.9661,-5.8398 8.3721,0 13.1924,7.484 4.8626,7.4841 4.8626,18.54 0,11.6796 -5.3277,19.1637 -5.2854,7.4274 -14.8414,7.4274 -8.8795,0 -14.0381,-6.7469 -5.1585,-6.747 -5.7928,-19.6741 z"
       id="path7443"
       inkscape:connector-curvature="0"
       style="font-style:normal;font-variant:normal;font-weight:normal;font-stretch:normal;font-size:medium;line-height:125%;font-family:Rockwell;-inkscape-font-specification:Rockwell;letter-spacing:0px;word-spacing:0px;fill:#000000;fill-opacity:1;stroke:none;stroke-width:1px;stroke-linecap:butt;stroke-linejoin:miter;stroke-opacity:1" />
    <path
       inkscape:connector-curvature="0"
       id="path5372"
       d="m 3414,3185.5791 h 7.611 q 0.6765,7.9377 3.8478,12.6436 3.2135,4.7058 8.4567,4.7058 5.2854,0 8.4989,-4.876 3.2135,-4.8759 3.2135,-12.5301 0,-8.1077 -3.1289,-12.36 -3.129,-4.3089 -7.7802,-4.3089 -6.9767,0 -11.797,9.4683 -2.7061,-3.5718 -6.1311,-5.7263 l 2.4102,-40.5954 h 31.3742 v 20.9213 h -7.2728 v -10.7724 h -18.0126 l -1.3108,23.0758 q 5.37,-5.8398 11.9661,-5.8398 8.3721,0 13.1924,7.484 4.8626,7.4841 4.8626,18.54 0,11.6796 -5.3277,19.1637 -5.2854,7.4274 -14.8414,7.4274 -8.8795,0 -14.0381,-6.7469 -5.1585,-6.747 -5.7928,-19.6741 z"
       style="font-style:normal;font-variant:normal;font-weight:normal;font-stretch:normal;font-size:medium;line-height:125%;font-family:Rockwell;-inkscape-font-specification:Rockwell;letter-spacing:0px;word-spacing:0px;fill:#000000;fill-opacity:1;stroke:none;stroke-width:1px;stroke-linecap:butt;stroke-linejoin:miter;stroke-opacity:1" />
    <path
       inkscape:connector-curvature="0"
       id="path11837"
       d="m 2966,3914.3212 h -7.611 q -0.6765,-7.9377 -3.8478,-12.6436 -3.2135,-4.7058 -8.4567,-4.7058 -5.2854,0 -8.4989,4.876 -3.2135,4.8759 -3.2135,12.5301 0,8.1077 3.1289,12.36 3.129,4.3089 7.7802,4.3089 6.9767,0 11.797,-9.4683 2.7061,3.5718 6.1311,5.7263 l -2.4102,40.5954 h -31.3742 v -20.9213 h 7.2728 v 10.7724 h 18.0126 l 1.3108,-23.0758 q -5.37,5.8398 -11.9661,5.8398 -8.3721,0 -13.1924,-7.484 -4.8626,-7.4841 -4.8626,-18.54 0,-11.6796 5.3277,-19.1637 5.2854,-7.4274 14.8414,-7.4274 8.8795,0 14.0381,6.7469 5.1585,6.747 5.7928,19.6741 z"
       style="font-style:normal;font-variant:normal;font-weight:normal;font-stretch:normal;font-size:medium;line-height:125%;font-family:Rockwell;-inkscape-font-specification:Rockwell;letter-spacing:0px;word-spacing:0px;fill:#000000;fill-opacity:1;stroke:none;stroke-width:1px;stroke-linecap:butt;stroke-linejoin:miter;stroke-opacity:1" />
    <path
       d="m 3454,3914.3212 h -7.611 q -0.6765,-7.9377 -3.8478,-12.6436 -3.2135,-4.7058 -8.4567,-4.7058 -5.2854,0 -8.4989,4.876 -3.2135,4.8759 -3.2135,12.5301 0,8.1077 3.1289,12.36 3.129,4.3089 7.7802,4.3089 6.9767,0 11.797,-9.4683 2.7061,3.5718 6.1311,5.7263 l -2.4102,40.5954 h -31.3742 v -20.9213 h 7.2728 v 10.7724 h 18.0126 l 1.3108,-23.0758 q -5.37,5.8398 -11.9661,5.8398 -8.3721,0 -13.1924,-7.484 -4.8626,-7.4841 -4.8626,-18.54 0,-11.6796 5.3277,-19.1637 5.2854,-7.4274 14.8414,-7.4274 8.8795,0 14.0381,6.7469 5.1585,6.747 5.7928,19.6741 z"
       id="path11899"
       inkscape:connector-curvature="0"
       style="font-style:normal;font-variant:normal;font-weight:normal;font-stretch:normal;font-size:medium;line-height:125%;font-family:Rockwell;-inkscape-font-specification:Rockwell;letter-spacing:0px;word-spacing:0px;fill:#000000;fill-opacity:1;stroke:none;stroke-width:1px;stroke-linecap:butt;stroke-linejoin:miter;stroke-opacity:1" />
    <path
       style="fill:#050505"
       d="m 3049.9915,3310.7163 c 2.0975,-2.4196 4.4018,-6.8257 6.9486,-13.2869 3.398,-8.6207 5.5303,-24.0616 3.3227,-24.0616 -0.4993,0 -3.2946,2.1831 -6.2121,4.8513 -7.2031,6.5878 -10.9671,8.1875 -19.1564,8.1416 -5.4383,-0.03 -7.1572,-0.3842 -10.798,-2.2227 -8.0066,-4.0432 -13.4856,-11.1681 -15.6555,-20.3589 -2.3712,-10.0433 4.9409,-24.2047 19.129,-37.0473 20.673,-18.7126 27.165,-25.3562 32.634,-33.3962 1.996,-2.9345 3.7044,-5.3355 3.7963,-5.3355 0.092,0 1.8001,2.401 3.7962,5.3355 5.469,8.04 11.9609,14.6836 32.634,33.3962 14.1881,12.8426 21.5001,27.004 19.1289,37.0473 -2.1699,9.1908 -7.6488,16.3157 -15.6554,20.3589 -3.6408,1.8385 -5.3597,2.1923 -10.7981,2.2227 -8.1892,0.046 -11.9532,-1.5538 -19.1563,-8.1416 -2.9175,-2.6682 -5.7129,-4.8513 -6.2121,-4.8513 -2.2076,0 -0.075,15.4409 3.3227,24.0616 2.5468,6.4612 4.8511,10.8673 6.9486,13.2869 1.5387,1.7749 1.096,1.7536 -7.0635,-0.34 l -6.7993,-1.1827 -6.9451,1.1746 c -8.5095,1.439 -8.7365,2.1098 -7.2092,0.3481 z"
       id="path6651"
       inkscape:connector-curvature="0"
       sodipodi:nodetypes="sssscssssssssscssscscss" />
    <path
       sodipodi:nodetypes="sssscssssssssscssscscss"
       inkscape:connector-curvature="0"
       id="path6654"
       d="m 3301.9915,3310.7163 c 2.0975,-2.4196 4.4018,-6.8257 6.9486,-13.2869 3.398,-8.6207 5.5303,-24.0616 3.3227,-24.0616 -0.4993,0 -3.2946,2.1831 -6.2121,4.8513 -7.2031,6.5878 -10.9671,8.1875 -19.1564,8.1416 -5.4383,-0.03 -7.1572,-0.3842 -10.798,-2.2227 -8.0066,-4.0432 -13.4856,-11.1681 -15.6555,-20.3589 -2.3712,-10.0433 4.9409,-24.2047 19.129,-37.0473 20.673,-18.7126 27.165,-25.3562 32.634,-33.3962 1.996,-2.9345 3.7044,-5.3355 3.7963,-5.3355 0.092,0 1.8001,2.401 3.7962,5.3355 5.469,8.04 11.9609,14.6836 32.634,33.3962 14.1881,12.8426 21.5001,27.004 19.1289,37.0473 -2.1699,9.1908 -7.6488,16.3157 -15.6554,20.3589 -3.6408,1.8385 -5.3597,2.1923 -10.7981,2.2227 -8.1892,0.046 -11.9532,-1.5538 -19.1563,-8.1416 -2.9175,-2.6682 -5.7129,-4.8513 -6.2121,-4.8513 -2.2076,0 -0.075,15.4409 3.3227,24.0616 2.5468,6.4612 4.8511,10.8673 6.9486,13.2869 1.5387,1.7749 1.096,1.7536 -7.0635,-0.34 l -6.7993,-1.1827 -6.9451,1.1746 c -8.5095,1.439 -8.7365,2.1098 -7.2092,0.3481 z"
       style="fill:#050505" />
    <path
       sodipodi:nodetypes="sssscssssssssscssscscss"
       inkscape:connector-curvature="0"
       id="path6669"
       d="m 3175.9915,3610.7163 c 2.0975,-2.4196 4.4018,-6.8257 6.9486,-13.2869 3.398,-8.6207 5.5303,-24.0616 3.3227,-24.0616 -0.4993,0 -3.2946,2.1831 -6.2121,4.8513 -7.2031,6.5878 -10.9671,8.1875 -19.1564,8.1416 -5.4383,-0.03 -7.1572,-0.3842 -10.798,-2.2227 -8.0066,-4.0432 -13.4856,-11.1681 -15.6555,-20.3589 -2.3712,-10.0433 4.9409,-24.2047 19.129,-37.0473 20.673,-18.7126 27.165,-25.3562 32.634,-33.3962 1.996,-2.9345 3.7044,-5.3355 3.7963,-5.3355 0.092,0 1.8001,2.401 3.7962,5.3355 5.469,8.04 11.9609,14.6836 32.634,33.3962 14.1881,12.8426 21.5001,27.004 19.1289,37.0473 -2.1699,9.1908 -7.6488,16.3157 -15.6554,20.3589 -3.6408,1.8385 -5.3597,2.1923 -10.7981,2.2227 -8.1892,0.046 -11.9532,-1.5538 -19.1563,-8.1416 -2.9175,-2.6682 -5.7129,-4.8513 -6.2121,-4.8513 -2.2076,0 -0.075,15.4409 3.3227,24.0616 2.5468,6.4612 4.8511,10.8673 6.9486,13.2869 1.5387,1.7749 1.096,1.7536 -7.0635,-0.34 l -6.7993,-1.1827 -6.9451,1.1746 c -8.5095,1.439 -8.7365,2.1098 -7.2092,0.3481 z"
       style="fill:#050505" />
    <path
       sodipodi:nodetypes="sssscssssssssscssscscss"
       inkscape:connector-curvature="0"
       id="path6687"
       d="m 3049.9915,3789.284 c 2.0975,2.4196 4.4018,6.8257 6.9486,13.2869 3.398,8.6207 5.5303,24.0616 3.3227,24.0616 -0.4993,0 -3.2946,-2.1831 -6.2121,-4.8513 -7.2031,-6.5878 -10.9671,-8.1875 -19.1564,-8.1416 -5.4383,0.03 -7.1572,0.3842 -10.798,2.2227 -8.0066,4.0432 -13.4856,11.1681 -15.6555,20.3589 -2.3712,10.0433 4.9409,24.2047 19.129,37.0473 20.673,18.7126 27.165,25.3562 32.634,33.3962 1.996,2.9345 3.7044,5.3355 3.7963,5.3355 0.092,0 1.8001,-2.401 3.7962,-5.3355 5.469,-8.04 11.9609,-14.6836 32.634,-33.3962 14.1881,-12.8426 21.5001,-27.004 19.1289,-37.0473 -2.1699,-9.1908 -7.6488,-16.3157 -15.6554,-20.3589 -3.6408,-1.8385 -5.3597,-2.1923 -10.7981,-2.2227 -8.1892,-0.046 -11.9532,1.5538 -19.1563,8.1416 -2.9175,2.6682 -5.7129,4.8513 -6.2121,4.8513 -2.2076,0 -0.075,-15.4409 3.3227,-24.0616 2.5468,-6.4612 4.8511,-10.8673 6.9486,-13.2869 1.5387,-1.7749 1.096,-1.7536 -7.0635,0.34 l -6.7993,1.1827 -6.9451,-1.1746 c -8.5095,-1.439 -8.7365,-2.1098 -7.2092,-0.3481 z"
       style="fill:#050505" />
    <path
       style="fill:#050505"
       d="m 3301.9915,3789.284 c 2.0975,2.4196 4.4018,6.8257 6.9486,13.2869 3.398,8.6207 5.5303,24.0616 3.3227,24.0616 -0.4993,0 -3.2946,-2.1831 -6.2121,-4.8513 -7.2031,-6.5878 -10.9671,-8.1875 -19.1564,-8.1416 -5.4383,0.03 -7.1572,0.3842 -10.798,2.2227 -8.0066,4.0432 -13.4856,11.1681 -15.6555,20.3589 -2.3712,10.0433 4.9409,24.2047 19.129,37.0473 20.673,18.7126 27.165,25.3562 32.634,33.3962 1.996,2.9345 3.7044,5.3355 3.7963,5.3355 0.092,0 1.8001,-2.401 3.7962,-5.3355 5.469,-8.04 11.9609,-14.6836 32.634,-33.3962 14.1881,-12.8426 21.5001,-27.004 19.1289,-37.0473 -2.1699,-9.1908 -7.6488,-16.3157 -15.6554,-20.3589 -3.6408,-1.8385 -5.3597,-2.1923 -10.7981,-2.2227 -8.1892,-0.046 -11.9532,1.5538 -19.1563,8.1416 -2.9175,2.6682 -5.7129,4.8513 -6.2121,4.8513 -2.2076,0 -0.075,-15.4409 3.3227,-24.0616 2.5468,-6.4612 4.8511,-10.8673 6.9486,-13.2869 1.5387,-1.7749 1.096,-1.7536 -7.0635,0.34 l -6.7993,1.1827 -6.9451,-1.1746 c -8.5095,-1.439 -8.7365,-2.1098 -7.2092,-0.3481 z"
       id="path6691"
       inkscape:connector-curvature="0"
       sodipodi:nodetypes="sssscssssssssscssscscss" />
    <path
       sodipodi:nodetypes="sssscssssssssscssscscss"
       inkscape:connector-curvature="0"
       id="path6833"
       d="m 2940.4967,3283.5032 c 0.824,-0.9366 1.7293,-2.6422 2.7298,-5.1433 1.3349,-3.3371 2.1726,-9.3142 1.3053,-9.3142 -0.1961,0 -1.2943,0.8451 -2.4404,1.8779 -2.8298,2.5501 -4.3085,3.1694 -7.5258,3.1516 -2.1364,-0.012 -2.8117,-0.1487 -4.242,-0.8604 -3.1455,-1.5651 -5.298,-4.3231 -6.1504,-7.8809 -0.9316,-3.8877 1.9411,-9.3695 7.5149,-14.3408 8.1216,-7.2436 10.672,-9.8153 12.8206,-12.9276 0.7841,-1.1359 1.4553,-2.0653 1.4914,-2.0653 0.036,0 0.7071,0.9294 1.4913,2.0653 2.1486,3.1123 4.6989,5.684 12.8205,12.9276 5.5739,4.9713 8.4465,10.4531 7.515,14.3408 -0.8525,3.5578 -3.0049,6.3158 -6.1504,7.8809 -1.4303,0.7117 -2.1056,0.8486 -4.2421,0.8604 -3.2172,0.018 -4.6959,-0.6015 -7.5257,-3.1516 -1.1461,-1.0328 -2.2443,-1.8779 -2.4405,-1.8779 -0.8672,0 -0.029,5.9771 1.3054,9.3142 1.0005,2.5011 1.9058,4.2067 2.7298,5.1433 0.6045,0.687 0.4306,0.6788 -2.7749,-0.1316 l -2.6712,-0.4579 -2.7284,0.4547 c -3.3431,0.5571 -3.4322,0.8167 -2.8322,0.1348 z"
       style="fill:#050505" />
    <path
       style="fill:#050505"
       d="m 3428.4967,3283.5032 c 0.824,-0.9366 1.7293,-2.6422 2.7298,-5.1433 1.3349,-3.3371 2.1726,-9.3142 1.3053,-9.3142 -0.1961,0 -1.2943,0.8451 -2.4404,1.8779 -2.8298,2.5501 -4.3085,3.1694 -7.5258,3.1516 -2.1364,-0.012 -2.8117,-0.1487 -4.242,-0.8604 -3.1455,-1.5651 -5.298,-4.3231 -6.1504,-7.8809 -0.9316,-3.8877 1.9411,-9.3695 7.5149,-14.3408 8.1216,-7.2436 10.672,-9.8153 12.8206,-12.9276 0.7841,-1.1359 1.4553,-2.0653 1.4914,-2.0653 0.036,0 0.7071,0.9294 1.4913,2.0653 2.1486,3.1123 4.6989,5.684 12.8205,12.9276 5.5739,4.9713 8.4465,10.4531 7.515,14.3408 -0.8525,3.5578 -3.0049,6.3158 -6.1504,7.8809 -1.4303,0.7117 -2.1056,0.8486 -4.2421,0.8604 -3.2172,0.018 -4.6959,-0.6015 -7.5257,-3.1516 -1.1461,-1.0328 -2.2443,-1.8779 -2.4405,-1.8779 -0.8672,0 -0.029,5.9771 1.3054,9.3142 1.0005,2.5011 1.9058,4.2067 2.7298,5.1433 0.6045,0.687 0.4306,0.6788 -2.7749,-0.1316 l -2.6712,-0.4579 -2.7284,0.4547 c -3.3431,0.5571 -3.4322,0.8167 -2.8322,0.1348 z"
       id="path6835"
       inkscape:connector-curvature="0"
       sodipodi:nodetypes="sssscssssssssscssscscss" />
    <path
       style="fill:#050505"
       d="m 2940.4967,3816.4971 c 0.824,0.9366 1.7293,2.6422 2.7298,5.1433 1.3349,3.3371 2.1726,9.3142 1.3053,9.3142 -0.1961,0 -1.2943,-0.8451 -2.4404,-1.8779 -2.8298,-2.5501 -4.3085,-3.1694 -7.5258,-3.1516 -2.1364,0.012 -2.8117,0.1487 -4.242,0.8604 -3.1455,1.5651 -5.298,4.3231 -6.1504,7.8809 -0.9316,3.8877 1.9411,9.3695 7.5149,14.3408 8.1216,7.2436 10.672,9.8153 12.8206,12.9276 0.7841,1.1359 1.4553,2.0653 1.4914,2.0653 0.036,0 0.7071,-0.9294 1.4913,-2.0653 2.1486,-3.1123 4.6989,-5.684 12.8205,-12.9276 5.5739,-4.9713 8.4465,-10.4531 7.515,-14.3408 -0.8525,-3.5578 -3.0049,-6.3158 -6.1504,-7.8809 -1.4303,-0.7117 -2.1056,-0.8486 -4.2421,-0.8604 -3.2172,-0.018 -4.6959,0.6015 -7.5257,3.1516 -1.1461,1.0328 -2.2443,1.8779 -2.4405,1.8779 -0.8672,0 -0.029,-5.9771 1.3054,-9.3142 1.0005,-2.5011 1.9058,-4.2067 2.7298,-5.1433 0.6045,-0.687 0.4306,-0.6788 -2.7749,0.1316 l -2.6712,0.4579 -2.7284,-0.4547 c -3.3431,-0.5571 -3.4322,-0.8167 -2.8322,-0.1348 z"
       id="path7006"
       inkscape:connector-curvature="0"
       sodipodi:nodetypes="sssscssssssssscssscscss" />
    <path
       sodipodi:nodetypes="sssscssssssssscssscscss"
       inkscape:connector-curvature="0"
       id="path7008"
       d="m 3428.4967,3816.4971 c 0.824,0.9366 1.7293,2.6422 2.7298,5.1433 1.3349,3.3371 2.1726,9.3142 1.3053,9.3142 -0.1961,0 -1.2943,-0.8451 -2.4404,-1.8779 -2.8298,-2.5501 -4.3085,-3.1694 -7.5258,-3.1516 -2.1364,0.012 -2.8117,0.1487 -4.242,0.8604 -3.1455,1.5651 -5.298,4.3231 -6.1504,7.8809 -0.9316,3.8877 1.9411,9.3695 7.5149,14.3408 8.1216,7.2436 10.672,9.8153 12.8206,12.9276 0.7841,1.1359 1.4553,2.0653 1.4914,2.0653 0.036,0 0.7071,-0.9294 1.4913,-2.0653 2.1486,-3.1123 4.6989,-5.684 12.8205,-12.9276 5.5739,-4.9713 8.4465,-10.4531 7.515,-14.3408 -0.8525,-3.5578 -3.0049,-6.3158 -6.1504,-7.8809 -1.4303,-0.7117 -2.1056,-0.8486 -4.2421,-0.8604 -3.2172,-0.018 -4.6959,0.6015 -7.5257,3.1516 -1.1461,1.0328 -2.2443,1.8779 -2.4405,1.8779 -0.8672,0 -0.029,-5.9771 1.3054,-9.3142 1.0005,-2.5011 1.9058,-4.2067 2.7298,-5.1433 0.6045,-0.687 0.4306,-0.6788 -2.7749,0.1316 l -2.6712,0.4579 -2.7284,-0.4547 c -3.3431,-0.5571 -3.4322,-0.8167 -2.8322,-0.1348 z"
       style="fill:#050505" />
    <path
       inkscape:connector-curvature="0"
       id="path10292"
       d="m 2978.608,3969.5383 c -0.347,-0.3672 -0.632,-38.9588 -0.632,-85.7589 0,-82.2583 -0.06,-85.1695 -1.802,-87.4482 -1.767,-2.3087 -2.209,-2.3674 -21.489,-2.8564 L 2935,3792.9756 v -243.1243 -243.1244 l 19.568,-0.4992 c 17.134,-0.4371 19.777,-0.721 21.252,-2.282 1.582,-1.6748 1.713,-6.9885 2.156,-87.8642 L 2978.449,3130 h 212.051 212.051 l 0.472,86.0815 c 0.444,80.8757 0.575,86.1894 2.157,87.8642 1.475,1.561 4.117,1.8449 21.252,2.282 l 19.568,0.4992 v 243.1244 243.1243 l -19.568,0.4992 c -17.135,0.4372 -19.777,0.7211 -21.252,2.282 -1.582,1.6749 -1.713,6.9885 -2.157,87.8642 l -0.472,86.0816 -211.655,0.2518 c -116.411,0.1384 -211.939,-0.049 -212.288,-0.4161 z m 420.641,-85.9527 c 0,-81.6793 0.05,-83.6964 1.88,-86.8749 3.8,-6.5887 6.015,-7.2218 25.272,-7.226 h 17.237 V 3549.855 3310.2252 h -17.237 c -19.257,0 -21.472,-0.6373 -25.272,-7.2259 -1.834,-3.1786 -1.877,-5.1956 -1.88,-86.8749 v -83.6206 h -208.745 -208.745 v 83.6208 c 0,81.6794 -0.05,83.6964 -1.88,86.875 -3.801,6.5886 -6.015,7.2217 -25.272,7.2259 h -17.238 v 239.6297 239.6298 h 17.238 c 19.257,0 21.471,0.6373 25.272,7.226 1.833,3.1785 1.877,5.1955 1.88,86.8749 v 83.6205 h 208.745 208.745 z"
       style="fill:#b7b772" />
    <path
       inkscape:connector-curvature="0"
       id="path10312"
       d="m 2981.7237,3882.6174 v -84.7243 l -3.6859,-4.2851 c -3.6009,-4.1863 -4.1119,-4.2977 -22.1574,-4.8305 l -18.4716,-0.5453 v -238.9865 -238.9866 h 18.4102 c 17.9456,0 18.5047,-0.1021 22.1574,-4.0434 l 3.7473,-4.0434 v -84.5863 -84.5864 h 208.5855 208.5856 v 84.163 84.163 l 4.4667,4.4668 c 4.4225,4.4225 4.642,4.4667 22.1574,4.4667 h 17.6907 v 239.1475 239.1475 l -14.1349,0.01 c -7.7742,0 -16.7125,0.7243 -19.8628,1.5992 -10.59,2.941 -10.3171,0.4595 -10.3171,93.8226 v 83.3566 h -208.5856 -208.5855 v -84.7243 z m 84.0455,28.0796 c 0,-0.8982 10.5877,-12.4163 23.5283,-25.5957 23.8403,-24.2802 29.6127,-32.2299 31.0198,-42.7207 1.1807,-8.8026 -4.4216,-19.4821 -13.1697,-25.1054 -6.0894,-3.9142 -8.1204,-4.4214 -15.6695,-3.913 -7.2263,0.4867 -9.903,1.5439 -16.045,6.3368 -5.6259,4.3902 -7.4864,5.1958 -7.8557,3.4017 -0.8045,-3.9085 4.1608,-21.0048 8.1989,-28.2296 2.0847,-3.73 3.5201,-7.052 3.1899,-7.3822 -0.3303,-0.3303 -3.6621,0.1704 -7.404,1.1127 -4.635,1.1671 -9.341,1.2519 -14.7644,0.2662 -4.3784,-0.7958 -7.7265,-1.0201 -7.4401,-0.4983 5.223,9.5157 9.2658,21.0544 9.9402,28.3708 l 0.8375,9.085 -7.3574,-6.0288 c -6.9336,-5.6816 -7.9441,-6.0288 -17.5493,-6.0288 -8.8152,0 -10.952,0.5797 -15.8176,4.2908 -6.9141,5.2737 -11.7146,14.3077 -11.6948,22.0081 0.03,11.4301 6.2119,20.7369 27.4139,41.2679 10.8993,10.5543 21.6577,21.846 23.9076,25.0926 4.0104,5.787 6.7314,7.513 6.7314,4.2699 z m 254.0901,-2.7898 c 1.4369,-2.4326 12.4631,-14.2945 24.5025,-26.3597 28.7427,-28.8044 32.5039,-36.7566 24.8164,-52.4692 -8.7093,-17.8011 -28.1855,-21.5306 -43.2706,-8.2857 -2.8968,2.5434 -5.632,4.2591 -6.0784,3.8127 -1.7316,-1.7316 3.1331,-20.4186 7.3644,-28.2892 2.4492,-4.5557 4.1955,-8.5406 3.8808,-8.8554 -0.3148,-0.3148 -3.6339,0.1986 -7.3759,1.1409 -4.6154,1.1621 -9.3441,1.2513 -14.7028,0.2774 -8.4875,-1.5427 -9.0817,-1.1649 -5.7187,3.6364 3.3717,4.8138 8.5161,21.309 8.5161,27.3064 v 5.3865 l -6.994,-5.3386 c -8.256,-6.302 -12.2309,-7.5079 -21.357,-6.4792 -12.7211,1.4338 -23.6044,13.9329 -23.6044,27.1089 0,11.1536 6.3289,20.4662 29.0847,42.7968 11.5621,11.3462 22.2048,22.5204 23.6503,24.8317 3.2968,5.2715 4.0558,5.2485 7.2866,-0.2207 z m -134.539,-297.3082 c 3.1392,-0.5294 8.5379,-0.2004 11.997,0.7311 7.5525,2.0336 8.7119,1.2642 5.4944,-3.6464 -3.6947,-5.6388 -8.6822,-21.5909 -8.6822,-27.7692 v -5.4989 l 7.0425,5.7709 c 6.1582,5.0461 8.2211,5.837 16.4271,6.2976 7.3362,0.4119 10.4299,-0.1299 14.1738,-2.4822 8.1307,-5.1084 13.2341,-13.214 13.9796,-22.2035 1.0674,-12.8723 -4.029,-20.9051 -28.6765,-45.199 -11.5375,-11.3719 -22.3363,-22.6563 -23.9973,-25.0763 l -3.02,-4.4 -7.0916,8.9843 c -3.9004,4.9414 -14.6194,16.0298 -23.8199,24.641 -12.8539,12.0306 -17.8183,17.8382 -21.435,25.0757 -5.7347,11.4762 -5.8433,15.2185 -0.7387,25.4621 5.068,10.1702 13.5413,15.5625 24.4361,15.5508 7.4173,-0.01 10.0954,-1.1763 20.3608,-8.8826 l 4.7186,-3.5423 -0.037,3.5423 c -0.07,6.5995 -3.1676,17.2585 -7.6028,26.1581 -3.6248,7.2733 -3.9524,8.7362 -1.8266,8.156 1.4247,-0.3889 5.1588,-1.1401 8.2981,-1.6695 h 10e-5 z m -106.1262,-298.4298 c -8.1053,-15.9435 -13.8364,-34.0981 -11.5012,-36.4333 0.4577,-0.4576 4.0098,1.5935 7.8937,4.5581 11.8496,9.045 24.0597,9.2199 34.0059,0.4869 3.0556,-2.6828 6.8078,-7.6343 8.3384,-11.0033 6.8066,-14.9831 1.9245,-24.6497 -26.9564,-53.3733 -11.899,-11.8342 -22.7753,-23.2358 -24.1696,-25.3369 l -2.535,-3.8203 -4.1165,5.3484 c -2.2641,2.9416 -13.4982,14.6315 -24.9646,25.9777 -21.983,21.7524 -27.4874,29.9146 -27.4874,40.7595 0,8.0188 5.4994,18.3873 12.0529,22.7242 11.2219,7.4263 21.6793,6.8303 33.0948,-1.8861 l 7.2875,-5.5643 -0.9031,8.7499 c -0.5015,4.8595 -2.9752,13.178 -5.5636,18.7093 l -4.6606,9.9595 9.526,-0.939 c 5.2393,-0.5165 11.5889,-0.2853 14.1103,0.5137 5.8837,1.8645 7.2681,1.9849 6.5485,0.5693 z m 252.1363,0 c -8.3416,-16.4084 -13.8241,-34.1104 -11.3351,-36.5994 0.5491,-0.549 2.8821,0.8062 5.1846,3.0116 12.3014,11.7827 28.8517,11.3974 39.6696,-0.9235 6.9735,-7.9423 9.0297,-15.8083 6.4971,-24.8539 -2.643,-9.4399 -7.7715,-15.904 -30.7946,-38.8151 -10.5571,-10.5057 -20.3625,-20.8204 -21.7898,-22.9215 l -2.5951,-3.8203 -4.0077,5.3484 c -2.2042,2.9416 -13.3972,14.6315 -24.8734,25.9777 -22.3307,22.0776 -27.4483,29.7289 -27.4483,41.0379 0,6.8789 3.9263,16.111 8.6799,20.4098 4.1266,3.7317 13.3509,7.3167 18.8259,7.3167 5.791,0 12.8908,-3.1405 19.7333,-8.7287 l 5.2163,-4.2601 -0.9132,8.8787 c -0.5141,4.9992 -2.9495,13.2306 -5.5737,18.8382 l -4.6606,9.9595 9.526,-0.939 c 5.2393,-0.5165 11.589,-0.2853 14.1103,0.5137 5.8838,1.8645 7.2682,1.9849 6.5485,0.5693 z"
       style="fill:#feefd3;fill-opacity:1;stroke:#fffecd;stroke-width:0.541452;stroke-miterlimit:4;stroke-dasharray:none;stroke-opacity:1" />
  </g>
</svg>
