<?xml version="1.0" encoding="UTF-8" standalone="no"?>
<!-- Created with Inkscape (http://www.inkscape.org/) -->

<svg
   id="svg10047"
   height="123.00031"
   width="79.014153"
   version="1.1"
   viewBox="0 0 79.014153 123.00031"
   inkscape:version="0.91 r13725"
   sodipodi:docname="russian.svgz"
   xmlns:inkscape="http://www.inkscape.org/namespaces/inkscape"
   xmlns:sodipodi="http://sodipodi.sourceforge.net/DTD/sodipodi-0.dtd"
   xmlns="http://www.w3.org/2000/svg"
   xmlns:svg="http://www.w3.org/2000/svg"
   xmlns:rdf="http://www.w3.org/1999/02/22-rdf-syntax-ns#"
   xmlns:cc="http://creativecommons.org/ns#"
   xmlns:dc="http://purl.org/dc/elements/1.1/">
  <sodipodi:namedview
     pagecolor="#ffffff"
     bordercolor="#666666"
     borderopacity="1"
     objecttolerance="10"
     gridtolerance="10"
     guidetolerance="10"
     inkscape:pageopacity="0"
     inkscape:pageshadow="2"
     inkscape:window-width="1920"
     inkscape:window-height="1016"
     id="namedview1491"
     showgrid="false"
     inkscape:zoom="1.3479675"
     inkscape:cx="513.5"
     inkscape:cy="307.5"
     inkscape:window-x="0"
     inkscape:window-y="0"
     inkscape:window-maximized="1"
     inkscape:current-layer="svg10047"
     showguides="false"
     inkscape:guide-bbox="true"
     inkscape:snap-grids="true"
     inkscape:showpageshadow="2"
     inkscape:pagecheckerboard="0"
     inkscape:deskcolor="#d1d1d1" />
  <metadata
     id="metadata16869">
    <rdf:RDF>
      <cc:Work
         rdf:about="">
        <dc:format>image/svg+xml</dc:format>
        <dc:type
           rdf:resource="http://purl.org/dc/dcmitype/StillImage" />
        <dc:title />
      </cc:Work>
    </rdf:RDF>
  </metadata>
  <defs
     id="defs10049" />
  <g
     id="back"
     transform="matrix(0.39506971,0,0,0.41000135,-1323.4835,-184.5006)">
    <rect
       style="fill:#ffffff;stroke:#000000;stroke-width:0.555556"
       id="rect6472-8"
       y="450.27777"
       x="3350.2776"
       ry="16.63579"
       rx="16.635847"
       height="299.44421"
       width="199.44498" />
    <path
       style="fill:#aa5500;fill-opacity:1;stroke:none"
       id="rect6472-7"
       d="m 3368.7497,450.27776 -18.4722,36.94441 v 1.11111 l 19.0278,-38.05552 z m 11.1112,0 -29.5834,59.16662 v 1.11111 l 30.1389,-60.27773 z m 5.5556,0 -35.139,70.27772 v 2.22222 l 36.2501,-72.49994 z m 5.5555,0 -40.6945,81.38882 v 3.33333 l 42.3612,-84.72215 z m 5.5556,0 -46.2501,92.49992 v 4.44444 l 48.4723,-96.94436 z m 5.5556,0 -51.8057,103.61103 v 5.55555 l 54.5835,-109.16658 z m 16.6667,0 -68.4724,136.94433 v 1.11111 l 69.0279,-138.05544 z m 5.5556,0 -74.028,148.05543 v 2.22222 l 75.1391,-150.27765 z m 5.5555,0 -79.5835,159.16654 v 1.11111 l 80.1391,-160.27765 z m 16.6667,0 -96.2502,192.49984 v 5.55555 l 99.028,-198.05539 z m 5.5556,0 -101.8058,203.61095 v 4.44444 l 104.028,-208.05539 z m 5.5556,0 -107.3614,214.72205 v 3.33333 l 109.028,-218.05538 z m 5.5555,0 -112.9169,225.83315 v 2.22222 l 114.0281,-228.05537 z m 5.5556,0 -118.4725,236.94425 v 1.11111 l 119.0281,-238.05536 z m 11.1112,0 -129.5837,259.16646 v 1.11111 l 130.1392,-260.27757 z m 5.5555,0 -135.1392,270.27756 v 2.22222 l 136.2503,-272.49978 z m 5.5556,0 -140.6948,281.38866 v 1.42361 c 0,0.58783 0.028,1.16436 0.087,1.73611 l 142.2747,-284.54838 h -1.6667 z m 5.5556,0 -144.8094,289.61782 c 0.3333,0.74553 0.7282,1.45339 1.1632,2.13542 l 145.8684,-291.75324 z m 5.5555,0 -147.1705,294.34004 c 0.5975,0.62176 1.2392,1.19608 1.9271,1.71875 l 148.0212,-296.05879 z m 16.6667,0 -149.7226,299.4442 h 0.5556 l 149.7226,-299.4442 z m 5.5556,0 -149.7226,299.4442 h 1.1111 l 149.7226,-299.4442 z m 5.5556,0 -149.7226,299.4442 h 0.5555 l 149.7226,-299.4442 z m -165.6602,0.22569 c -0.4206,0.0685 -0.8407,0.14379 -1.25,0.24306 l -12.6736,25.36456 v 2.22222 z m -6.1805,2.32639 c -0.9886,0.62435 -1.911,1.3574 -2.7431,2.17014 l -4.8438,9.70485 c -0.095,0.72345 -0.1562,1.45456 -0.1562,2.20486 v 1.42361 z m 186.3199,1.80555 -147.5351,295.08657 h 2.7778 L 3546.1461,456.5972 c -0.5521,-0.69888 -1.1499,-1.36076 -1.8056,-1.96181 z m 3.6632,4.89583 -145.0872,290.19074 h 2.2222 l 143.8546,-287.7081 c -0.2631,-0.8594 -0.5978,-1.6894 -0.9896,-2.48264 z m 1.7187,8.80208 -140.6948,281.38866 h 1.6667 l 139.0281,-278.05533 z m 0,12.22221 -134.5836,269.16645 h 1.1111 l 133.4725,-266.94423 z m 0,12.22221 -128.4725,256.94424 h 0.5555 l 127.917,-255.83313 z m 0,22.22221 -117.3614,234.72203 h 0.5556 l 116.8058,-233.61092 z m 0,9.99999 -112.3614,224.72204 h 1.1112 l 111.2502,-222.49982 z m 0,9.99999 -107.3613,214.72205 h 1.6666 l 105.6947,-211.38872 z m 0,9.99999 -102.3613,204.72206 h 2.2222 l 100.1391,-200.27762 z m 0,10 -97.3613,194.72206 h 2.7778 l 94.5835,-189.16651 z m 0,33.3333 -80.6946,161.38876 h 0.5555 l 80.1391,-160.27765 z m 0,9.99999 -75.6946,151.38877 h 1.1111 l 74.5835,-149.16655 z m 0,12.22222 -69.5835,139.16655 h 0.5556 l 69.0279,-138.05544 z m 0,33.3333 -52.9168,105.83325 h 2.7778 l 50.139,-100.2777 z m 0,12.22222 -46.8056,93.61103 h 2.2222 l 44.5834,-89.16659 z m 0,12.22221 -40.6945,81.38882 h 1.6667 l 39.0278,-78.05549 z m 0,12.22221 -34.5834,69.16661 h 1.1111 l 33.4723,-66.94439 z m 0,12.22221 -28.4722,56.9444 h 0.5555 l 27.9167,-55.83329 z m 0,22.22221 -17.3611,34.72219 h 0.5555 l 16.8056,-33.61108 z m 0,9.99999 -12.0312,24.07984 c 0.4471,-0.12774 0.8887,-0.27081 1.3194,-0.43403 l 10.7118,-21.42359 z m -0.1562,10.29513 -4.8438,9.70485 c 2.5937,-2.53322 4.3447,-5.91674 4.8438,-9.70485 z"
       inkscape:connector-curvature="0" />
    <path
       style="fill:#5555aa;fill-opacity:1;stroke:none"
       id="rect6472-2"
       d="m 3369.5831,450.27776 149.7226,299.4442 h 0.5556 l -149.7227,-299.4442 z m 5,0 149.7226,299.4442 h 1.1111 l -149.7226,-299.4442 z m 6.1111,0 149.7226,299.4442 h 0.5556 l -149.7226,-299.4442 z m 14.4445,0 148.0212,296.05879 c 0.6879,-0.52267 1.3296,-1.09699 1.9271,-1.71875 L 3397.9165,450.27776 Z m 6.1111,0 145.8685,291.75324 c 0.4349,-0.68203 0.8298,-1.38989 1.1632,-2.13542 L 3403.4721,450.27776 Z m 6.1112,0 142.2746,284.54838 c 0.059,-0.57175 0.087,-1.14828 0.087,-1.73611 v -1.42361 L 3409.0278,450.27776 h -1.6666 z m 6.1111,0 136.2503,272.49978 v -2.22222 L 3414.5832,450.27776 Z m 6.1111,0 130.1392,260.27757 v -1.11111 L 3420.1388,450.27776 Z m 11.1112,0 119.028,238.05536 v -1.11111 L 3431.2499,450.27776 Z m 5,0 114.028,228.05537 v -2.22222 L 3436.8055,450.27776 Z m 5,0 109.028,218.05538 v -3.33333 L 3442.3611,450.27776 Z m 5,0 104.028,208.05539 v -4.44444 L 3447.9166,450.27776 Z m 5,0 99.028,198.05539 v -5.55555 l -96.2502,-192.49984 z m 18.8889,0 80.1391,160.27765 v -1.11111 l -79.5835,-159.16654 z m 5.0001,0 75.139,150.27765 v -2.22222 l -74.0279,-148.05543 z m 6.1111,0 69.0279,138.05544 v -1.11111 L 3481.25,450.27776 Z m 14.4445,0 54.5834,109.16658 v -5.55555 l -51.8056,-103.61103 z m 6.1111,0 48.4723,96.94436 v -4.44444 l -46.2501,-92.49992 z m 6.1111,0 42.3612,84.72215 v -3.33333 l -40.6945,-81.38882 z m 6.1112,0 36.25,72.49994 v -2.22222 l -35.1389,-70.27772 z m 6.1111,0 30.1389,60.27773 v -1.11111 l -29.5834,-59.16662 z m 11.1111,0 19.0278,38.05552 v -1.11111 l -18.4722,-36.94441 z m 5.1042,0.22569 13.9236,27.82984 v -2.22222 l -12.6736,-25.36456 c -0.4093,-0.0993 -0.8293,-0.17452 -1.25,-0.24306 z m 6.1806,2.32639 7.743,15.50346 v -1.42361 c 0,-0.7503 -0.061,-1.48141 -0.1562,-2.20486 l -4.8438,-9.70485 c -0.8321,-0.81274 -1.7545,-1.54579 -2.743,-2.17014 z m -186.32,1.80555 c -0.6557,0.60105 -1.2535,1.26293 -1.8055,1.96181 l 146.5629,293.12476 h 2.7777 z m -3.6632,4.89583 c -0.3918,0.79324 -0.7265,1.62324 -0.9896,2.48264 l 143.8546,287.7081 h 2.2222 z m -1.7187,8.80208 v 3.33333 l 139.0281,278.05533 h 1.6667 z m 0,12.22221 v 2.22222 l 133.4726,266.94423 h 1.1111 z m 0,12.22221 v 1.11111 l 127.917,255.83313 h 0.5555 z m 0,22.22221 v 1.11111 l 116.8058,233.61092 h 0.5556 z m 0,9.99999 v 2.22222 l 111.2503,222.49982 h 1.1111 z m 0,9.99999 v 3.33333 l 105.6947,211.38872 h 1.6667 z m 0,9.99999 v 4.44444 l 100.1391,200.27762 h 2.2223 z m 0,10 v 5.55555 l 94.5836,189.16651 h 2.7777 z m 0,33.3333 v 1.11111 l 80.1391,160.27765 h 0.5555 z m 0,9.99999 v 2.22222 l 74.5835,149.16655 h 1.1111 z m 0,12.22222 v 1.11111 l 69.0279,138.05544 h 0.5556 z m 0,33.3333 v 5.55555 l 50.139,100.2777 h 2.7778 z m 0,12.22222 v 4.44444 l 44.5834,89.16659 h 2.2223 z m 0,12.22221 v 3.33333 l 39.0279,78.05549 h 1.6666 z m 0,12.22221 v 2.22222 l 33.4723,66.94439 h 1.1111 z m 0,12.22221 v 1.11111 l 27.9167,55.83329 h 0.5556 z m 0,22.22221 v 1.11111 l 16.8056,33.61108 h 0.5555 z m 0,9.99999 v 2.22222 l 10.7118,21.42359 c 0.4307,0.16322 0.8723,0.30629 1.3195,0.43403 z m 0.1562,10.29513 c 0.4991,3.78811 2.2501,7.17163 4.8438,9.70485 z"
       inkscape:connector-curvature="0" />
  </g>
</svg>
