<?xml version="1.0" encoding="UTF-8" standalone="no"?>
<!-- Created with Inkscape (http://www.inkscape.org/) -->

<svg
   id="svg10047"
   height="123.0042"
   width="78.99588"
   version="1.1"
   viewBox="0 0 78.99588 123.0042"
   inkscape:version="0.91 r13725"
   sodipodi:docname="russian.svgz"
   xmlns:inkscape="http://www.inkscape.org/namespaces/inkscape"
   xmlns:sodipodi="http://sodipodi.sourceforge.net/DTD/sodipodi-0.dtd"
   xmlns="http://www.w3.org/2000/svg"
   xmlns:svg="http://www.w3.org/2000/svg"
   xmlns:rdf="http://www.w3.org/1999/02/22-rdf-syntax-ns#"
   xmlns:cc="http://creativecommons.org/ns#"
   xmlns:dc="http://purl.org/dc/elements/1.1/">
  <sodipodi:namedview
     pagecolor="#ffffff"
     bordercolor="#666666"
     borderopacity="1"
     objecttolerance="10"
     gridtolerance="10"
     guidetolerance="10"
     inkscape:pageopacity="0"
     inkscape:pageshadow="2"
     inkscape:window-width="1920"
     inkscape:window-height="1016"
     id="namedview1491"
     showgrid="false"
     inkscape:zoom="1.3479675"
     inkscape:cx="513.5"
     inkscape:cy="307.5"
     inkscape:window-x="0"
     inkscape:window-y="0"
     inkscape:window-maximized="1"
     inkscape:current-layer="svg10047"
     showguides="false"
     inkscape:guide-bbox="true"
     inkscape:snap-grids="true"
     inkscape:showpageshadow="2"
     inkscape:pagecheckerboard="0"
     inkscape:deskcolor="#d1d1d1" />
  <metadata
     id="metadata16869">
    <rdf:RDF>
      <cc:Work
         rdf:about="">
        <dc:format>image/svg+xml</dc:format>
        <dc:type
           rdf:resource="http://purl.org/dc/dcmitype/StillImage" />
        <dc:title />
      </cc:Work>
    </rdf:RDF>
  </metadata>
  <defs
     id="defs10049" />
  <g
     id="club_1"
     inkscape:label="#club_1"
     transform="matrix(0.39504857,0,0,0.4100177,-39.504861,-41.002754)">
    <rect
       style="fill:#ffffff;stroke:#000000;stroke-width:0.555504"
       id="rect56"
       y="100.28015"
       x="100.27776"
       ry="16.635406"
       rx="16.632639"
       height="299.44177"
       width="199.40948" />
    <path
       id="path60"
       d="m 116.3319,150.3332 c -0.83319,-0.0172 -1.38865,0.27777 -1.94411,0.83332 -0.55546,0.55555 -0.83319,1.11111 -0.83319,1.94443 0,0.83333 0.31606,1.32777 0.83319,1.94443 0.49492,0.59055 0.83319,0.83332 1.11092,1.38887 0.27773,0.55556 0.55546,1.66666 0.55546,2.22221 0,0.55555 0,0.49944 0,0.83332 h -0.55546 c -0.55546,0 -1.66638,-0.55555 -1.94411,-0.83332 l -0.83318,-0.83333 c -0.55546,-0.55555 -1.11092,-0.83332 -1.94411,-0.83332 -0.83318,0 -1.38864,0.27777 -1.9441,0.83332 -0.55546,0.55555 -0.83319,1.1111 -0.83319,1.94443 0,0.83332 0.27773,1.38887 0.83319,1.94443 0.55546,0.55555 1.11092,0.83332 1.9441,0.83332 0.83319,0 1.38865,-0.27777 1.94411,-0.83332 l 0.83318,-0.83333 c 0.27773,-0.27778 1.38865,-0.83333 1.94411,-0.83333 h 0.55546 c -0.0139,0.78666 -0.0722,2.16054 -0.27773,2.77776 -0.27773,0.83332 -0.83319,1.66665 -1.38865,2.2222 -0.55546,0.55555 -2.22183,1.66665 -2.22183,1.66665 v 0.27778 c 0,0 2.77729,-0.55555 3.33275,-0.55555 h 1.66637 c 0.55546,0 3.33275,0.55555 3.33275,0.55555 v -0.27778 c 0,0 -1.66637,-1.1111 -2.22183,-1.66665 -0.55546,-0.55555 -1.11092,-1.38888 -1.38865,-2.2222 -0.20552,-0.61722 -0.26384,-1.9911 -0.27773,-2.77776 h 0.55546 c 0.55546,0 1.66638,0.55555 1.94411,0.83333 l 0.83318,0.83333 c 0.55546,0.55555 1.11092,0.83332 1.94411,0.83332 0.83318,0 1.38864,-0.27777 1.9441,-0.83332 0.55546,-0.55556 0.83319,-1.11111 0.83319,-1.94443 0,-0.83333 -0.27773,-1.38888 -0.83319,-1.94443 -0.55546,-0.55555 -1.11092,-0.83332 -1.9441,-0.83332 -0.83319,0 -1.38865,0.27777 -1.94411,0.83332 l -0.83318,0.83333 c -0.27773,0.27777 -1.38865,0.83332 -1.94411,0.83332 h -0.55546 c 0,-0.38666 0,-0.27777 0,-0.83332 0,-0.55555 0.27773,-1.66665 0.55546,-2.22221 0.27773,-0.55555 0.55546,-0.83332 1.11092,-1.38887 0.55268,-0.55277 0.83319,-1.1111 0.83319,-1.94443 0,-0.83332 -0.27773,-1.38888 -0.83319,-1.94443 -0.55546,-0.55555 -1.11092,-0.83332 -1.9441,-0.83332"
       inkscape:connector-curvature="0" />
    <path
       id="path62"
       d="m 283.30122,350.00014 c 0.83319,0.0172 1.38865,-0.27777 1.9441,-0.83333 0.55546,-0.55555 0.83319,-1.1111 0.83319,-1.94442 0,-0.83333 -0.31606,-1.32777 -0.83319,-1.94443 -0.49491,-0.59055 -0.83318,-0.83333 -1.11091,-1.38888 -0.27773,-0.55555 -0.55546,-1.66665 -0.55546,-2.2222 0,-0.55555 0,-0.49944 0,-0.83332 h 0.55546 c 0.55546,0 1.66637,0.55555 1.9441,0.83332 l 0.83319,0.83333 c 0.55546,0.55555 1.11091,0.83332 1.9441,0.83332 0.83319,0 1.38865,-0.27777 1.94411,-0.83332 0.55545,-0.55555 0.83318,-1.1111 0.83318,-1.94443 0,-0.83333 -0.27773,-1.38888 -0.83318,-1.94443 -0.55546,-0.55555 -1.11092,-0.83332 -1.94411,-0.83332 -0.83319,0 -1.38864,0.27777 -1.9441,0.83332 l -0.83319,0.83333 c -0.27773,0.27777 -1.38864,0.83333 -1.9441,0.83333 h -0.55546 c 0.0139,-0.78666 0.0722,-2.16054 0.27773,-2.77776 0.27773,-0.83332 0.83319,-1.66665 1.38864,-2.2222 0.55546,-0.55555 2.22184,-1.66665 2.22184,-1.66665 v -0.27778 c 0,0 -2.77729,0.55555 -3.33275,0.55555 h -1.66638 c -0.55546,0 -3.33275,-0.55555 -3.33275,-0.55555 v 0.27778 c 0,0 1.66638,1.1111 2.22184,1.66665 0.55545,0.55555 1.11091,1.38888 1.38864,2.2222 0.20552,0.61722 0.26384,1.9911 0.27773,2.77776 h -0.55546 c -0.55546,0 -1.66637,-0.55556 -1.9441,-0.83333 l -0.83319,-0.83333 c -0.55546,-0.55555 -1.11091,-0.83332 -1.9441,-0.83332 -0.83319,0 -1.38865,0.27777 -1.94411,0.83332 -0.55545,0.55555 -0.83318,1.1111 -0.83318,1.94443 0,0.83333 0.27773,1.38888 0.83318,1.94443 0.55546,0.55555 1.11092,0.83332 1.94411,0.83332 0.83319,0 1.38864,-0.27777 1.9441,-0.83332 l 0.83319,-0.83333 c 0.27773,-0.27777 1.38864,-0.83332 1.9441,-0.83332 h 0.55546 c 0,0.38666 0,0.27777 0,0.83332 0,0.55555 -0.27773,1.66665 -0.55546,2.2222 -0.27773,0.55555 -0.55546,0.83333 -1.11091,1.38888 -0.55268,0.55277 -0.83319,1.1111 -0.83319,1.94443 0,0.83332 0.27773,1.38887 0.83319,1.94442 0.55545,0.55556 1.11091,0.83333 1.9441,0.83333"
       inkscape:connector-curvature="0" />
    <path
       id="path64"
       d="m 110.30902,116.99972 v 2.80001 h 4.22149 v 25.19999 h 2.77729 v -25.19999 h 4.11039 v -2.80001 h -4.11039 -2.77729 z"
       inkscape:connector-curvature="0" />
    <path
       inkscape:connector-curvature="0"
       d="m 200.00002,228.00158 c -2.1995,-0.0451 -3.6669,0.73316 -5.1333,2.20001 -1.4669,1.46686 -2.2,2.93318 -2.2,5.13319 0,2.20002 0.8349,3.50463 2.2,5.1332 1.3063,1.55815 2.2001,2.20001 2.9333,3.66633 0.7331,1.46685 1.4669,4.40003 1.4669,5.86634 0,1.46686 0,1.31891 0,2.20001 h -1.4669 c -1.4669,0 -4.4002,-1.46685 -5.1333,-2.20001 l -2.2,-2.20002 c -1.4669,-1.46686 -2.9333,-2.20002 -5.1333,-2.20002 -2.2001,0 -3.667,0.73316 -5.1333,2.20002 -1.4669,1.46686 -2.2001,2.93318 -2.2001,5.13319 0,2.20002 0.7332,3.66633 2.2001,5.13319 1.4669,1.46687 2.9332,2.20002 5.1333,2.20002 2.2,0 3.6669,-0.73315 5.1333,-2.20002 l 2.2,-2.20002 c 0.7331,-0.73315 3.6669,-2.20001 5.1333,-2.20001 h 1.4669 c -0.037,2.07682 -0.1904,5.70354 -0.7332,7.33321 -0.7332,2.20001 -2.2001,4.40003 -3.667,5.86634 -1.4669,1.46686 -5.8669,4.40003 -5.8669,4.40003 v 0.73316 c 0,0 7.3333,-1.46686 8.8002,-1.46686 h 4.4001 c 1.4669,0 8.8002,1.46686 8.8002,1.46686 v -0.73316 c 0,0 -4.4001,-2.93317 -5.867,-4.40003 -1.4669,-1.46686 -2.9332,-3.66633 -3.6669,-5.86634 -0.5434,-1.62967 -0.6969,-5.25639 -0.7333,-7.33321 h 1.467 c 1.4669,0 4.4001,1.46686 5.1332,2.20001 l 2.2001,2.20002 c 1.4669,1.46687 2.9332,2.20002 5.1333,2.20002 2.2,0 3.6669,-0.73315 5.1333,-2.20002 1.4669,-1.46686 2.2,-2.93317 2.2,-5.13319 0,-2.20001 -0.7331,-3.66633 -2.2,-5.13319 -1.4669,-1.46686 -2.9333,-2.20002 -5.1333,-2.20002 -2.2001,0 -3.667,0.73316 -5.1333,2.20002 l -2.2001,2.20002 c -0.7331,0.73316 -3.6669,2.20001 -5.1332,2.20001 h -1.467 c 0,-1.02026 0,-0.73315 0,-2.20001 0,-1.46686 0.7333,-4.40004 1.467,-5.86634 0.7332,-1.46687 1.4669,-2.20003 2.9332,-3.66633 1.4591,-1.45917 2.2,-2.93318 2.2,-5.1332 0,-2.20001 -0.7331,-3.66633 -2.2,-5.13319 -1.4669,-1.46685 -2.9332,-2.20001 -5.1333,-2.20001"
       id="path27415-6" />
    <path
       id="path64-3"
       d="m 288.89504,382.99968 v -2.80001 h -4.22149 v -25.19999 h -2.77729 v 25.19999 h -4.11039 v 2.80001 h 4.11039 2.77729 z"
       inkscape:connector-curvature="0" />
  </g>
</svg>
