<?xml version="1.0" encoding="UTF-8" standalone="no"?>
<!-- Created with Inkscape (http://www.inkscape.org/) -->

<svg
   id="svg10047"
   height="123.0042"
   width="78.995888"
   version="1.1"
   viewBox="0 0 78.995888 123.0042"
   inkscape:version="0.91 r13725"
   sodipodi:docname="russian.svgz"
   xmlns:inkscape="http://www.inkscape.org/namespaces/inkscape"
   xmlns:sodipodi="http://sodipodi.sourceforge.net/DTD/sodipodi-0.dtd"
   xmlns="http://www.w3.org/2000/svg"
   xmlns:svg="http://www.w3.org/2000/svg"
   xmlns:rdf="http://www.w3.org/1999/02/22-rdf-syntax-ns#"
   xmlns:cc="http://creativecommons.org/ns#"
   xmlns:dc="http://purl.org/dc/elements/1.1/">
  <sodipodi:namedview
     pagecolor="#ffffff"
     bordercolor="#666666"
     borderopacity="1"
     objecttolerance="10"
     gridtolerance="10"
     guidetolerance="10"
     inkscape:pageopacity="0"
     inkscape:pageshadow="2"
     inkscape:window-width="1920"
     inkscape:window-height="1016"
     id="namedview1491"
     showgrid="false"
     inkscape:zoom="1.3479675"
     inkscape:cx="513.5"
     inkscape:cy="307.5"
     inkscape:window-x="0"
     inkscape:window-y="0"
     inkscape:window-maximized="1"
     inkscape:current-layer="svg10047"
     showguides="false"
     inkscape:guide-bbox="true"
     inkscape:snap-grids="true"
     inkscape:showpageshadow="2"
     inkscape:pagecheckerboard="0"
     inkscape:deskcolor="#d1d1d1" />
  <metadata
     id="metadata16869">
    <rdf:RDF>
      <cc:Work
         rdf:about="">
        <dc:format>image/svg+xml</dc:format>
        <dc:type
           rdf:resource="http://purl.org/dc/dcmitype/StillImage" />
        <dc:title />
      </cc:Work>
    </rdf:RDF>
  </metadata>
  <defs
     id="defs10049" />
  <g
     id="club_2"
     inkscape:label="#club_2"
     transform="matrix(0.39504858,0,0,0.4100177,-138.26705,-41.002779)">
    <rect
       width="199.40948"
       height="299.44177"
       rx="16.632639"
       ry="16.635406"
       x="350.27786"
       y="100.28021"
       id="rect27409"
       style="fill:#ffffff;stroke:#000000;stroke-width:0.555504" />
    <path
       inkscape:connector-curvature="0"
       d="m 450.00002,123.00158 c -2.1995,-0.0451 -3.6669,0.73316 -5.1333,2.20001 -1.4669,1.46686 -2.2,2.93318 -2.2,5.13319 0,2.20002 0.8349,3.50463 2.2,5.1332 1.3063,1.55815 2.2001,2.20001 2.9333,3.66633 0.7331,1.46685 1.4669,4.40003 1.4669,5.86634 0,1.46686 0,1.31891 0,2.20001 h -1.4669 c -1.4669,0 -4.4002,-1.46685 -5.1333,-2.20001 l -2.2,-2.20002 c -1.4669,-1.46686 -2.9333,-2.20002 -5.1333,-2.20002 -2.2001,0 -3.667,0.73316 -5.1333,2.20002 -1.4669,1.46686 -2.2001,2.93318 -2.2001,5.13319 0,2.20002 0.7332,3.66633 2.2001,5.13319 1.4669,1.46687 2.9332,2.20002 5.1333,2.20002 2.2,0 3.6669,-0.73315 5.1333,-2.20002 l 2.2,-2.20002 c 0.7331,-0.73315 3.6669,-2.20001 5.1333,-2.20001 h 1.4669 c -0.037,2.07682 -0.1904,5.70354 -0.7332,7.33321 -0.7332,2.20001 -2.2001,4.40003 -3.667,5.86634 -1.4669,1.46686 -5.8669,4.40003 -5.8669,4.40003 v 0.73316 c 0,0 7.3333,-1.46686 8.8002,-1.46686 h 4.4001 c 1.4669,0 8.8002,1.46686 8.8002,1.46686 v -0.73316 c 0,0 -4.4001,-2.93317 -5.867,-4.40003 -1.4669,-1.46686 -2.9332,-3.66633 -3.6669,-5.86634 -0.5434,-1.62967 -0.6969,-5.25639 -0.7333,-7.33321 h 1.467 c 1.4669,0 4.4001,1.46686 5.1332,2.20001 l 2.2001,2.20002 c 1.4669,1.46687 2.9332,2.20002 5.1333,2.20002 2.2,0 3.6669,-0.73315 5.1333,-2.20002 1.4669,-1.46686 2.2,-2.93317 2.2,-5.13319 0,-2.20001 -0.7331,-3.66633 -2.2,-5.13319 -1.4669,-1.46686 -2.9333,-2.20002 -5.1333,-2.20002 -2.2001,0 -3.667,0.73316 -5.1333,2.20002 l -2.2001,2.20002 c -0.7331,0.73316 -3.6669,2.20001 -5.1332,2.20001 h -1.467 c 0,-1.02026 0,-0.73315 0,-2.20001 0,-1.46686 0.7333,-4.40004 1.467,-5.86634 0.7332,-1.46687 1.4669,-2.20003 2.9332,-3.66633 1.4591,-1.45917 2.2,-2.93318 2.2,-5.1332 0,-2.20001 -0.7331,-3.66633 -2.2,-5.13319 -1.4669,-1.46685 -2.9332,-2.20001 -5.1333,-2.20001"
       id="path27415" />
    <path
       inkscape:connector-curvature="0"
       d="m 366.00002,151.00041 c -0.8,-0.0165 -1.3333,0.26665 -1.8667,0.79996 -0.5333,0.53331 -0.7999,1.06662 -0.7999,1.86659 0,0.79996 0.3034,1.27461 0.7999,1.86658 0.4753,0.56691 0.8,0.79998 1.0667,1.33328 0.2667,0.53331 0.5333,1.59993 0.5333,2.13324 0,0.53331 0,0.47946 0,0.79997 h -0.5333 c -0.5333,0 -1.6,-0.53331 -1.8666,-0.79997 l -0.8,-0.79996 c -0.5334,-0.5333 -1.0667,-0.79997 -1.8667,-0.79997 -0.8,0 -1.3334,0.26667 -1.8667,0.79997 -0.5334,0.53331 -0.8,1.06662 -0.8,1.86658 0,0.79997 0.2666,1.33328 0.8,1.86659 0.5333,0.53331 1.0667,0.79997 1.8667,0.79997 0.8,0 1.3333,-0.26666 1.8667,-0.79997 l 0.8,-0.79996 c 0.2666,-0.26666 1.3333,-0.79997 1.8666,-0.79997 h 0.5333 c -0.013,0.75517 -0.069,2.07405 -0.2666,2.66655 -0.2667,0.79997 -0.8,1.59993 -1.3334,2.13325 -0.5333,0.53331 -2.1333,1.59993 -2.1333,1.59993 v 0.26665 c 0,0 2.6667,-0.53331 3.2,-0.53331 h 1.6 c 0.5333,0 3.2,0.53331 3.2,0.53331 v -0.26665 c 0,0 -1.6,-1.06662 -2.1334,-1.59993 -0.5333,-0.53332 -1.0666,-1.33328 -1.3333,-2.13325 -0.1973,-0.5925 -0.2533,-1.91138 -0.2666,-2.66655 h 0.5333 c 0.5333,0 1.6,0.53331 1.8666,0.79997 l 0.8,0.79996 c 0.5334,0.53331 1.0667,0.79997 1.8667,0.79997 0.8,0 1.3334,-0.26666 1.8667,-0.79997 0.5334,-0.53331 0.8,-1.06662 0.8,-1.86659 0,-0.79996 -0.2666,-1.33327 -0.8,-1.86658 -0.5333,-0.5333 -1.0667,-0.79997 -1.8667,-0.79997 -0.8,0 -1.3333,0.26667 -1.8667,0.79997 l -0.8,0.79996 c -0.2666,0.26666 -1.3333,0.79997 -1.8666,0.79997 h -0.5333 c 0,-0.37118 0,-0.26666 0,-0.79997 0,-0.53331 0.2666,-1.59993 0.5333,-2.13324 0.2667,-0.5333 0.5333,-0.79997 1.0666,-1.33328 0.5307,-0.53064 0.8,-1.06662 0.8,-1.86658 0,-0.79997 -0.2666,-1.33328 -0.8,-1.86659 -0.5333,-0.53331 -1.0666,-0.79996 -1.8666,-0.79996"
       id="path27417" />
    <path
       inkscape:connector-curvature="0"
       d="m 534.00002,348.99904 c -0.8,0.0165 -1.3333,-0.26666 -1.8667,-0.79997 -0.5333,-0.53331 -0.8,-1.06662 -0.8,-1.86659 0,-0.79996 0.3035,-1.27461 0.8,-1.86658 0.4752,-0.56691 0.8001,-0.79997 1.0667,-1.33328 0.2666,-0.53331 0.5334,-1.59993 0.5334,-2.13324 0,-0.53331 0,-0.47945 0,-0.79997 h -0.5334 c -0.5333,0 -1.6,0.53331 -1.8667,0.79997 l -0.8,0.79996 c -0.5333,0.53331 -1.0666,0.79997 -1.8666,0.79997 -0.8,0 -1.3333,-0.26666 -1.8667,-0.79997 -0.5333,-0.53331 -0.8,-1.06662 -0.8,-1.86658 0,-0.79997 0.2667,-1.33328 0.8,-1.86659 0.5334,-0.53331 1.0667,-0.79997 1.8667,-0.79997 0.8,0 1.3333,0.26666 1.8666,0.79997 l 0.8,0.79997 c 0.2667,0.26665 1.3334,0.79996 1.8667,0.79996 h 0.5334 c -0.014,-0.75517 -0.069,-2.07404 -0.2668,-2.66655 -0.2666,-0.79997 -0.7999,-1.59993 -1.3333,-2.13324 -0.5333,-0.53331 -2.1333,-1.59994 -2.1333,-1.59994 v -0.26665 c 0,0 2.6667,0.53331 3.2,0.53331 h 1.6 c 0.5333,0 3.2,-0.53331 3.2,-0.53331 v 0.26665 c 0,0 -1.6,1.06663 -2.1333,1.59994 -0.5334,0.53331 -1.0667,1.33327 -1.3333,2.13324 -0.1974,0.59251 -0.2534,1.91138 -0.2668,2.66655 h 0.5334 c 0.5333,0 1.6,-0.53331 1.8667,-0.79996 l 0.8,-0.79997 c 0.5333,-0.53331 1.0666,-0.79997 1.8666,-0.79997 0.8,0 1.3333,0.26666 1.8667,0.79997 0.5333,0.53331 0.8,1.06662 0.8,1.86659 0,0.79996 -0.2667,1.33327 -0.8,1.86658 -0.5334,0.53331 -1.0667,0.79997 -1.8667,0.79997 -0.8,0 -1.3333,-0.26666 -1.8666,-0.79997 l -0.8,-0.79996 c -0.2667,-0.26666 -1.3334,-0.79997 -1.8667,-0.79997 h -0.5334 c 0,0.37119 0,0.26666 0,0.79997 0,0.53331 0.2668,1.59993 0.5334,2.13324 0.2666,0.53331 0.5333,0.79997 1.0667,1.33328 0.5306,0.53064 0.8,1.06662 0.8,1.86658 0,0.79997 -0.2667,1.33328 -0.8,1.86659 -0.5334,0.53331 -1.0667,0.79997 -1.8667,0.79997"
       id="path27419" />
    <path
       inkscape:connector-curvature="0"
       d="m 450.00002,376.99788 c 2.1995,0.045 3.6669,-0.7331 5.1333,-2.2 1.4669,-1.4668 2.2,-2.9331 2.2,-5.1332 0,-2.2 -0.8349,-3.5046 -2.2,-5.1332 -1.3063,-1.5581 -2.2001,-2.2 -2.9333,-3.6663 -0.7331,-1.4668 -1.4669,-4.4 -1.4669,-5.8663 0,-1.4669 0,-1.3189 0,-2.2 h 1.4669 c 1.4669,0 4.4002,1.4668 5.1333,2.2 l 2.2,2.2 c 1.4669,1.4669 2.9333,2.2 5.1333,2.2 2.2001,0 3.667,-0.7331 5.1333,-2.2 1.4669,-1.4669 2.2001,-2.9332 2.2001,-5.1332 0,-2.2 -0.7332,-3.6663 -2.2001,-5.1332 -1.4669,-1.4669 -2.9332,-2.2 -5.1333,-2.2 -2.2,0 -3.6669,0.7331 -5.1333,2.2 l -2.2,2.2 c -0.7331,0.7332 -3.6669,2.2 -5.1333,2.2 h -1.4669 c 0.037,-2.0768 0.1904,-5.7035 0.7332,-7.3332 0.7332,-2.2 2.2001,-4.4 3.667,-5.8663 1.4669,-1.4669 5.8669,-4.4 5.8669,-4.4 v -0.7332 c 0,0 -7.3333,1.4669 -8.8002,1.4669 h -4.4001 c -1.4669,0 -8.8002,-1.4669 -8.8002,-1.4669 v 0.7332 c 0,0 4.4001,2.9331 5.867,4.4 1.4669,1.4669 2.9332,3.6663 3.6669,5.8663 0.5434,1.6297 0.6969,5.2564 0.7333,7.3332 h -1.467 c -1.4669,0 -4.4001,-1.4668 -5.1332,-2.2 l -2.2001,-2.2 c -1.4669,-1.4669 -2.9332,-2.2 -5.1333,-2.2 -2.2,0 -3.6669,0.7331 -5.1333,2.2 -1.4669,1.4669 -2.2,2.9332 -2.2,5.1332 0,2.2 0.7331,3.6663 2.2,5.1332 1.4669,1.4669 2.9333,2.2 5.1333,2.2 2.2001,0 3.667,-0.7331 5.1333,-2.2 l 2.2001,-2.2 c 0.7331,-0.7332 3.6669,-2.2 5.1332,-2.2 h 1.467 c 0,1.0202 0,0.7331 0,2.2 0,1.4668 -0.7333,4.4 -1.467,5.8663 -0.7332,1.4669 -1.4669,2.2 -2.9332,3.6663 -1.4591,1.4592 -2.2,2.9332 -2.2,5.1332 0,2.2001 0.7331,3.6664 2.2,5.1332 1.4669,1.4669 2.9332,2.2 5.1333,2.2"
       id="path27421" />
    <path
       id="path80"
       d="m 365.66373,116.99972 c -3.07724,0 -5.55459,2.4976 -5.55459,5.6 v 2.8 h 2.77729 v -2.8 c 0,-1.5512 1.23868,-2.8 2.7773,-2.8 1.53861,0 2.77729,1.2488 2.77729,2.8 v 2.8 c 0,0.63168 -0.2083,1.7164 -0.55546,2.184 -2.47901,5.09824 -5.15354,9.5928 -7.77642,14.616 v 2.8 h 5.55459 5.55458 v -2.8 -2.8 h -2.77729 v 2.8 h -2.77729 -2.49957 c 2.49346,-4.4324 4.56476,-8.72032 6.94323,-13.216 0.69432,-0.93464 1.11092,-2.3212 1.11092,-3.584 v -2.8 c 0,-3.1024 -2.47735,-5.6 -5.55458,-5.6"
       inkscape:connector-curvature="0" />
    <path
       id="path80-8"
       d="m 533.14059,382.99968 c 3.07723,0 5.55458,-2.49761 5.55458,-5.6 v -2.80001 h -2.77729 v 2.80001 c 0,1.55119 -1.23867,2.8 -2.77729,2.8 -1.53861,0 -2.77729,-1.24881 -2.77729,-2.8 v -2.80001 c 0,-0.63168 0.2083,-1.7164 0.55546,-2.184 2.47901,-5.09824 5.15354,-9.5928 7.77642,-14.616 v -2.8 h -5.55459 -5.55458 v 2.8 2.8 h 2.77729 v -2.8 h 2.77729 2.49957 c -2.49346,4.4324 -4.56476,8.72031 -6.94323,13.216 -0.69432,0.93464 -1.11092,2.3212 -1.11092,3.584 v 2.80001 c 0,3.10239 2.47735,5.6 5.55458,5.6"
       inkscape:connector-curvature="0" />
  </g>
</svg>
