<?xml version="1.0" encoding="UTF-8" standalone="no"?>
<!-- Created with Inkscape (http://www.inkscape.org/) -->

<svg
   id="svg10047"
   height="123.00418"
   width="78.995865"
   version="1.1"
   viewBox="0 0 78.995865 123.00418"
   inkscape:version="0.91 r13725"
   sodipodi:docname="russian.svgz"
   xmlns:inkscape="http://www.inkscape.org/namespaces/inkscape"
   xmlns:sodipodi="http://sodipodi.sourceforge.net/DTD/sodipodi-0.dtd"
   xmlns="http://www.w3.org/2000/svg"
   xmlns:svg="http://www.w3.org/2000/svg"
   xmlns:rdf="http://www.w3.org/1999/02/22-rdf-syntax-ns#"
   xmlns:cc="http://creativecommons.org/ns#"
   xmlns:dc="http://purl.org/dc/elements/1.1/">
  <sodipodi:namedview
     pagecolor="#ffffff"
     bordercolor="#666666"
     borderopacity="1"
     objecttolerance="10"
     gridtolerance="10"
     guidetolerance="10"
     inkscape:pageopacity="0"
     inkscape:pageshadow="2"
     inkscape:window-width="1920"
     inkscape:window-height="1016"
     id="namedview1491"
     showgrid="false"
     inkscape:zoom="1.3479675"
     inkscape:cx="513.5"
     inkscape:cy="307.5"
     inkscape:window-x="0"
     inkscape:window-y="0"
     inkscape:window-maximized="1"
     inkscape:current-layer="svg10047"
     showguides="false"
     inkscape:guide-bbox="true"
     inkscape:snap-grids="true"
     inkscape:showpageshadow="2"
     inkscape:pagecheckerboard="0"
     inkscape:deskcolor="#d1d1d1" />
  <metadata
     id="metadata16869">
    <rdf:RDF>
      <cc:Work
         rdf:about="">
        <dc:format>image/svg+xml</dc:format>
        <dc:type
           rdf:resource="http://purl.org/dc/dcmitype/StillImage" />
        <dc:title />
      </cc:Work>
    </rdf:RDF>
  </metadata>
  <defs
     id="defs10049" />
  <g
     id="diamond_2"
     transform="matrix(0.39504849,0,0,0.41001767,-138.26695,-471.5213)"
     inkscape:label="#diamond_2">
    <rect
       width="199.40948"
       height="299.44177"
       rx="16.632639"
       ry="16.635406"
       x="350.27771"
       y="1150.2802"
       id="rect30768"
       style="fill:#ffffff;stroke:#000000;stroke-width:0.555504" />
    <path
       style="fill:#ff0000"
       id="path30770"
       d="m 450.00002,1216.9997 c 0,0 -4.4,-7.3331 -9.5331,-12.4669 -5.1332,-5.1331 -12.4669,-9.5331 -12.4669,-9.5331 0,0 7.3332,-4.4 12.4669,-9.5331 5.1331,-5.1332 9.5331,-12.4669 9.5331,-12.4669 0,0 4.4,7.3331 9.5331,12.4669 5.1331,5.1331 12.4669,9.5331 12.4669,9.5331 0,0 -7.3332,4.4 -12.4669,9.5331 -5.1331,5.1332 -9.5331,12.4669 -9.5331,12.4669"
       inkscape:connector-curvature="0" />
    <path
       inkscape:connector-curvature="0"
       d="m 450.00002,1426.9997 c 0,0 -4.4,-7.3331 -9.5331,-12.4669 -5.1332,-5.1331 -12.4669,-9.5331 -12.4669,-9.5331 0,0 7.3332,-4.4 12.4669,-9.5331 5.1331,-5.1332 9.5331,-12.4669 9.5331,-12.4669 0,0 4.4,7.3331 9.5331,12.4669 5.1331,5.1331 12.4669,9.5331 12.4669,9.5331 0,0 -7.3332,4.4 -12.4669,9.5331 -5.1331,5.1332 -9.5331,12.4669 -9.5331,12.4669"
       id="path30774"
       style="fill:#ff0000" />
    <path
       inkscape:connector-curvature="0"
       d="m 366.00002,1216.9997 c 0,0 -1.6,-2.6666 -3.4666,-4.5334 -1.8666,-1.8666 -4.5334,-3.4666 -4.5334,-3.4666 0,0 2.6666,-1.6 4.5334,-3.4666 1.8666,-1.8666 3.4666,-4.5334 3.4666,-4.5334 0,0 1.6,2.6666 3.4666,4.5334 1.8666,1.8666 4.5334,3.4666 4.5334,3.4666 0,0 -2.6666,1.6 -4.5334,3.4666 -1.8666,1.8666 -3.4666,4.5334 -3.4666,4.5334"
       id="path30776"
       style="fill:#ff0000" />
    <path
       inkscape:connector-curvature="0"
       d="m 534.00002,1398.9997 c 0,0 -1.6,-2.6666 -3.4666,-4.5334 -1.8666,-1.8666 -4.5334,-3.4666 -4.5334,-3.4666 0,0 2.6666,-1.6 4.5334,-3.4666 1.8666,-1.8666 3.4666,-4.5334 3.4666,-4.5334 0,0 1.6,2.6666 3.4666,4.5334 1.8666,1.8666 4.5334,3.4666 4.5334,3.4666 0,0 -2.6666,1.6 -4.5334,3.4666 -1.8666,1.8666 -3.4666,4.5334 -3.4666,4.5334"
       id="path30782"
       style="fill:#ff0000" />
    <path
       style="fill:#ff0000"
       id="path80-0-7-3"
       d="m 365.65473,1166.9997 c -3.07724,0 -5.55459,2.4976 -5.55459,5.6 v 2.8 h 2.77729 v -2.8 c 0,-1.5512 1.23868,-2.8 2.7773,-2.8 1.53861,0 2.77729,1.2488 2.77729,2.8 v 2.8 c 0,0.6317 -0.2083,1.7164 -0.55546,2.184 -2.47901,5.0982 -5.15354,9.5928 -7.77642,14.616 v 2.8 h 5.55459 5.55458 v -2.8 -2.8 h -2.77729 v 2.8 h -2.77729 -2.49957 c 2.49346,-4.4324 4.56476,-8.7203 6.94323,-13.216 0.69432,-0.9346 1.11092,-2.3212 1.11092,-3.584 v -2.8 c 0,-3.1024 -2.47735,-5.6 -5.55458,-5.6"
       inkscape:connector-curvature="0" />
    <path
       style="fill:#ff0000"
       id="path80-8-6-5"
       d="m 533.15473,1432.9997 c 3.07723,0 5.55458,-2.4976 5.55458,-5.6 v -2.8 h -2.77729 v 2.8 c 0,1.5512 -1.23867,2.8 -2.77729,2.8 -1.53861,0 -2.77729,-1.2488 -2.77729,-2.8 v -2.8 c 0,-0.6317 0.2083,-1.7164 0.55546,-2.184 2.47901,-5.0983 5.15354,-9.5928 7.77642,-14.616 v -2.8 h -5.55459 -5.55458 v 2.8 2.8 h 2.77729 v -2.8 h 2.77729 2.49957 c -2.49346,4.4324 -4.56476,8.7203 -6.94323,13.216 -0.69432,0.9346 -1.11092,2.3212 -1.11092,3.584 v 2.8 c 0,3.1024 2.47735,5.6 5.55458,5.6"
       inkscape:connector-curvature="0" />
  </g>
</svg>
