<?xml version="1.0" encoding="UTF-8" standalone="no"?>
<!-- Created with Inkscape (http://www.inkscape.org/) -->

<svg
   id="svg10047"
   height="123.00296"
   width="78.995888"
   version="1.1"
   viewBox="0 0 78.995888 123.00296"
   inkscape:version="0.91 r13725"
   sodipodi:docname="russian.svgz"
   xmlns:inkscape="http://www.inkscape.org/namespaces/inkscape"
   xmlns:sodipodi="http://sodipodi.sourceforge.net/DTD/sodipodi-0.dtd"
   xmlns="http://www.w3.org/2000/svg"
   xmlns:svg="http://www.w3.org/2000/svg"
   xmlns:rdf="http://www.w3.org/1999/02/22-rdf-syntax-ns#"
   xmlns:cc="http://creativecommons.org/ns#"
   xmlns:dc="http://purl.org/dc/elements/1.1/">
  <sodipodi:namedview
     pagecolor="#ffffff"
     bordercolor="#666666"
     borderopacity="1"
     objecttolerance="10"
     gridtolerance="10"
     guidetolerance="10"
     inkscape:pageopacity="0"
     inkscape:pageshadow="2"
     inkscape:window-width="1920"
     inkscape:window-height="1016"
     id="namedview1491"
     showgrid="false"
     inkscape:zoom="1.3479675"
     inkscape:cx="513.5"
     inkscape:cy="307.5"
     inkscape:window-x="0"
     inkscape:window-y="0"
     inkscape:window-maximized="1"
     inkscape:current-layer="svg10047"
     showguides="false"
     inkscape:guide-bbox="true"
     inkscape:snap-grids="true"
     inkscape:showpageshadow="2"
     inkscape:pagecheckerboard="0"
     inkscape:deskcolor="#d1d1d1" />
  <metadata
     id="metadata16869">
    <rdf:RDF>
      <cc:Work
         rdf:about="">
        <dc:format>image/svg+xml</dc:format>
        <dc:type
           rdf:resource="http://purl.org/dc/dcmitype/StillImage" />
        <dc:title />
      </cc:Work>
    </rdf:RDF>
  </metadata>
  <defs
     id="defs10049" />
  <g
     id="diamond_6"
     inkscape:label="#diamond_6"
     transform="matrix(0.3950486,0,0,0.41001359,-533.31559,-471.51661)">
    <rect
       style="fill:#ffffff;stroke:#000000;stroke-width:0.555504"
       id="rect10563"
       y="1150.2802"
       x="1350.2777"
       ry="16.635406"
       rx="16.632639"
       height="299.44177"
       width="199.40948" />
    <path
       inkscape:connector-curvature="0"
       d="m 1406,1216.9997 c 0,0 -4.4,-7.3331 -9.5331,-12.4669 -5.1332,-5.1331 -12.4669,-9.5331 -12.4669,-9.5331 0,0 7.3332,-4.4 12.4669,-9.5331 5.1331,-5.1332 9.5331,-12.4669 9.5331,-12.4669 0,0 4.4,7.3331 9.5331,12.4669 5.1331,5.1331 12.4669,9.5331 12.4669,9.5331 0,0 -7.3332,4.4 -12.4669,9.5331 -5.1331,5.1332 -9.5331,12.4669 -9.5331,12.4669"
       id="path10569"
       style="fill:#ff0000" />
    <path
       style="fill:#ff0000"
       id="path10571"
       d="m 1494,1216.9997 c 0,0 -4.4,-7.3331 -9.5331,-12.4669 -5.1332,-5.1331 -12.4669,-9.5331 -12.4669,-9.5331 0,0 7.3332,-4.4 12.4669,-9.5331 5.1331,-5.1332 9.5331,-12.4669 9.5331,-12.4669 0,0 4.4,7.3331 9.5331,12.4669 5.1331,5.1331 12.4669,9.5331 12.4669,9.5331 0,0 -7.3332,4.4 -12.4669,9.5331 -5.1331,5.1332 -9.5331,12.4669 -9.5331,12.4669"
       inkscape:connector-curvature="0" />
    <path
       style="fill:#ff0000"
       id="path10573"
       d="m 1406,1321.9997 c 0,0 -4.4,-7.3331 -9.5331,-12.4669 -5.1332,-5.1331 -12.4669,-9.5331 -12.4669,-9.5331 0,0 7.3332,-4.4 12.4669,-9.5331 5.1331,-5.1332 9.5331,-12.4669 9.5331,-12.4669 0,0 4.4,7.3331 9.5331,12.4669 5.1331,5.1331 12.4669,9.5331 12.4669,9.5331 0,0 -7.3332,4.4 -12.4669,9.5331 -5.1331,5.1332 -9.5331,12.4669 -9.5331,12.4669"
       inkscape:connector-curvature="0" />
    <path
       inkscape:connector-curvature="0"
       d="m 1494,1321.9997 c 0,0 -4.4,-7.3331 -9.5331,-12.4669 -5.1332,-5.1331 -12.4669,-9.5331 -12.4669,-9.5331 0,0 7.3332,-4.4 12.4669,-9.5331 5.1331,-5.1332 9.5331,-12.4669 9.5331,-12.4669 0,0 4.4,7.3331 9.5331,12.4669 5.1331,5.1331 12.4669,9.5331 12.4669,9.5331 0,0 -7.3332,4.4 -12.4669,9.5331 -5.1331,5.1332 -9.5331,12.4669 -9.5331,12.4669"
       id="path10575"
       style="fill:#ff0000" />
    <path
       style="fill:#ff0000"
       id="path10577"
       d="m 1406,1426.9997 c 0,0 -4.4,-7.3331 -9.5331,-12.4669 -5.1332,-5.1331 -12.4669,-9.5331 -12.4669,-9.5331 0,0 7.3332,-4.4 12.4669,-9.5331 5.1331,-5.1332 9.5331,-12.4669 9.5331,-12.4669 0,0 4.4,7.3331 9.5331,12.4669 5.1331,5.1331 12.4669,9.5331 12.4669,9.5331 0,0 -7.3332,4.4 -12.4669,9.5331 -5.1331,5.1332 -9.5331,12.4669 -9.5331,12.4669"
       inkscape:connector-curvature="0" />
    <path
       inkscape:connector-curvature="0"
       d="m 1494,1426.9997 c 0,0 -4.4,-7.3331 -9.5331,-12.4669 -5.1332,-5.1331 -12.4669,-9.5331 -12.4669,-9.5331 0,0 7.3332,-4.4 12.4669,-9.5331 5.1331,-5.1332 9.5331,-12.4669 9.5331,-12.4669 0,0 4.4,7.3331 9.5331,12.4669 5.1331,5.1331 12.4669,9.5331 12.4669,9.5331 0,0 -7.3332,4.4 -12.4669,9.5331 -5.1331,5.1332 -9.5331,12.4669 -9.5331,12.4669"
       id="path10579"
       style="fill:#ff0000" />
    <path
       inkscape:connector-curvature="0"
       d="m 1366,1216.9997 c 0,0 -1.6,-2.6666 -3.4666,-4.5334 -1.8666,-1.8666 -4.5334,-3.4666 -4.5334,-3.4666 0,0 2.6666,-1.6 4.5334,-3.4666 1.8666,-1.8666 3.4666,-4.5334 3.4666,-4.5334 0,0 1.6,2.6666 3.4666,4.5334 1.8666,1.8666 4.5334,3.4666 4.5334,3.4666 0,0 -2.6666,1.6 -4.5334,3.4666 -1.8666,1.8666 -3.4666,4.5334 -3.4666,4.5334"
       id="path10691"
       style="fill:#ff0000" />
    <path
       style="fill:#ff0000"
       id="path206-0-2-2"
       d="m 1365.6547,1166.9997 c -3.0772,0 -5.5545,2.4976 -5.5545,5.6 v 11.2 5.6 c 0,3.1024 2.4773,5.6 5.5545,5.6 3.0773,0 5.5546,-2.4976 5.5546,-5.6 v -5.6 c 0,-3.1024 -2.4773,-5.6 -5.5546,-5.6 -1.0126,0 -1.9618,0.2795 -2.7772,0.7526 v -6.3526 c 0,-1.5512 1.2386,-2.8 2.7772,-2.8 1.5387,0 2.7773,1.2488 2.7773,2.8 v 0.56 h 2.7773 v -0.56 c 0,-3.1024 -2.4773,-5.6 -5.5546,-5.6 m 0,14 c 1.5387,0 2.7773,1.2488 2.7773,2.8 v 5.6 c 0,1.5512 -1.2386,2.8 -2.7773,2.8 -1.5386,0 -2.7772,-1.2488 -2.7772,-2.8 v -5.6 c 0,-1.5512 1.2386,-2.8 2.7772,-2.8"
       inkscape:connector-curvature="0" />
    <path
       style="fill:#ff0000"
       id="path206-1-3-4"
       d="m 1534.155,1432.9997 c 3.0771,0 5.5545,-2.4976 5.5545,-5.6 v -11.2 -5.6 c 0,-3.1024 -2.4774,-5.6 -5.5545,-5.6 -3.0773,0 -5.5546,2.4976 -5.5546,5.6 v 5.6 c 0,3.1024 2.4773,5.6 5.5546,5.6 1.0126,0 1.9618,-0.2794 2.7772,-0.7526 v 6.3526 c 0,1.5512 -1.2386,2.8 -2.7772,2.8 -1.5388,0 -2.7773,-1.2488 -2.7773,-2.8 v -0.56 h -2.7773 v 0.56 c 0,3.1024 2.4773,5.6 5.5546,5.6 m 0,-14 c -1.5388,0 -2.7773,-1.2488 -2.7773,-2.8 v -5.6 c 0,-1.5512 1.2385,-2.8 2.7773,-2.8 1.5386,0 2.7772,1.2488 2.7772,2.8 v 5.6 c 0,1.5512 -1.2386,2.8 -2.7772,2.8"
       inkscape:connector-curvature="0" />
    <path
       inkscape:connector-curvature="0"
       d="m 1534,1398.9997 c 0,0 -1.6,-2.6666 -3.4666,-4.5334 -1.8666,-1.8666 -4.5334,-3.4666 -4.5334,-3.4666 0,0 2.6666,-1.6 4.5334,-3.4666 1.8666,-1.8666 3.4666,-4.5334 3.4666,-4.5334 0,0 1.6,2.6666 3.4666,4.5334 1.8666,1.8666 4.5334,3.4666 4.5334,3.4666 0,0 -2.6666,1.6 -4.5334,3.4666 -1.8666,1.8666 -3.4666,4.5334 -3.4666,4.5334"
       id="path10691-0"
       style="fill:#ff0000" />
  </g>
</svg>
