<?xml version="1.0" encoding="UTF-8" standalone="no"?>
<!-- Created with Inkscape (http://www.inkscape.org/) -->

<svg
   id="svg10047"
   height="123.00416"
   width="78.995865"
   version="1.1"
   viewBox="0 0 78.995865 123.00416"
   inkscape:version="0.91 r13725"
   sodipodi:docname="russian.svgz"
   xmlns:inkscape="http://www.inkscape.org/namespaces/inkscape"
   xmlns:sodipodi="http://sodipodi.sourceforge.net/DTD/sodipodi-0.dtd"
   xmlns="http://www.w3.org/2000/svg"
   xmlns:svg="http://www.w3.org/2000/svg"
   xmlns:rdf="http://www.w3.org/1999/02/22-rdf-syntax-ns#"
   xmlns:cc="http://creativecommons.org/ns#"
   xmlns:dc="http://purl.org/dc/elements/1.1/">
  <sodipodi:namedview
     pagecolor="#ffffff"
     bordercolor="#666666"
     borderopacity="1"
     objecttolerance="10"
     gridtolerance="10"
     guidetolerance="10"
     inkscape:pageopacity="0"
     inkscape:pageshadow="2"
     inkscape:window-width="1920"
     inkscape:window-height="1016"
     id="namedview1491"
     showgrid="false"
     inkscape:zoom="1.3479675"
     inkscape:cx="513.5"
     inkscape:cy="307.5"
     inkscape:window-x="0"
     inkscape:window-y="0"
     inkscape:window-maximized="1"
     inkscape:current-layer="svg10047"
     showguides="false"
     inkscape:guide-bbox="true"
     inkscape:snap-grids="true"
     inkscape:showpageshadow="2"
     inkscape:pagecheckerboard="0"
     inkscape:deskcolor="#d1d1d1" />
  <metadata
     id="metadata16869">
    <rdf:RDF>
      <cc:Work
         rdf:about="">
        <dc:format>image/svg+xml</dc:format>
        <dc:type
           rdf:resource="http://purl.org/dc/dcmitype/StillImage" />
        <dc:title />
      </cc:Work>
    </rdf:RDF>
  </metadata>
  <defs
     id="defs10049" />
  <g
     id="diamond_4"
     inkscape:label="#diamond_4"
     transform="matrix(0.39504849,0,0,0.41001758,-335.7912,-471.5212)">
    <rect
       style="fill:#ffffff;stroke:#000000;stroke-width:0.555504"
       id="rect10605"
       y="1150.2802"
       x="850.27771"
       ry="16.635406"
       rx="16.632639"
       height="299.44177"
       width="199.40948" />
    <path
       inkscape:connector-curvature="0"
       d="m 906.00002,1216.9997 c 0,0 -4.4,-7.3331 -9.5331,-12.4669 -5.1332,-5.1331 -12.4669,-9.5331 -12.4669,-9.5331 0,0 7.3332,-4.4 12.4669,-9.5331 5.1331,-5.1332 9.5331,-12.4669 9.5331,-12.4669 0,0 4.4,7.3331 9.5331,12.4669 5.1331,5.1331 12.4669,9.5331 12.4669,9.5331 0,0 -7.3332,4.4 -12.4669,9.5331 -5.1331,5.1332 -9.5331,12.4669 -9.5331,12.4669"
       id="path10611"
       style="fill:#ff0000" />
    <path
       style="fill:#ff0000"
       id="path10613"
       d="m 994.00002,1216.9997 c 0,0 -4.4,-7.3331 -9.5331,-12.4669 -5.1332,-5.1331 -12.4669,-9.5331 -12.4669,-9.5331 0,0 7.3332,-4.4 12.4669,-9.5331 5.1331,-5.1332 9.5331,-12.4669 9.5331,-12.4669 0,0 4.4,7.3331 9.53308,12.4669 5.1331,5.1331 12.4669,9.5331 12.4669,9.5331 0,0 -7.3332,4.4 -12.4669,9.5331 -5.13308,5.1332 -9.53308,12.4669 -9.53308,12.4669"
       inkscape:connector-curvature="0" />
    <path
       style="fill:#ff0000"
       id="path10617"
       d="m 906.00002,1426.9997 c 0,0 -4.4,-7.3331 -9.5331,-12.4669 -5.1332,-5.1331 -12.4669,-9.5331 -12.4669,-9.5331 0,0 7.3332,-4.4 12.4669,-9.5331 5.1331,-5.1332 9.5331,-12.4669 9.5331,-12.4669 0,0 4.4,7.3331 9.5331,12.4669 5.1331,5.1331 12.4669,9.5331 12.4669,9.5331 0,0 -7.3332,4.4 -12.4669,9.5331 -5.1331,5.1332 -9.5331,12.4669 -9.5331,12.4669"
       inkscape:connector-curvature="0" />
    <path
       inkscape:connector-curvature="0"
       d="m 994.00002,1426.9997 c 0,0 -4.4,-7.3331 -9.5331,-12.4669 -5.1332,-5.1331 -12.4669,-9.5331 -12.4669,-9.5331 0,0 7.3332,-4.4 12.4669,-9.5331 5.1331,-5.1332 9.5331,-12.4669 9.5331,-12.4669 0,0 4.4,7.3331 9.53308,12.4669 5.1331,5.1331 12.4669,9.5331 12.4669,9.5331 0,0 -7.3332,4.4 -12.4669,9.5331 -5.13308,5.1332 -9.53308,12.4669 -9.53308,12.4669"
       id="path10619"
       style="fill:#ff0000" />
    <path
       style="fill:#ff0000"
       id="path10695"
       d="m 866.00002,1216.9997 c 0,0 -1.6,-2.6666 -3.4666,-4.5334 -1.8666,-1.8666 -4.5334,-3.4666 -4.5334,-3.4666 0,0 2.6666,-1.6 4.5334,-3.4666 1.8666,-1.8666 3.4666,-4.5334 3.4666,-4.5334 0,0 1.6,2.6666 3.4666,4.5334 1.8666,1.8666 4.5334,3.4666 4.5334,3.4666 0,0 -2.6666,1.6 -4.5334,3.4666 -1.8666,1.8666 -3.4666,4.5334 -3.4666,4.5334"
       inkscape:connector-curvature="0" />
    <path
       style="fill:#ff0000"
       id="path164-3-1-9"
       d="m 865.65477,1166.9997 -5.55459,19.6 v 2.8 h 6.6655 v 5.6 h 2.77729 v -5.6 h 1.66638 v -2.8 h -1.66638 v -8.4 h -2.77729 v 8.4 h -3.77711 l 5.55458,-19.6 z"
       inkscape:connector-curvature="0" />
    <path
       style="fill:#ff0000"
       id="path164-4-7-8"
       d="m 1034.1547,1432.9997 5.5546,-19.6 v -2.8 h -6.6655 v -5.6 h -2.7773 v 5.6 h -1.6664 v 2.8 h 1.6664 v 8.4 h 2.7773 v -8.4 h 3.7771 l -5.5546,19.6 z"
       inkscape:connector-curvature="0" />
    <path
       style="fill:#ff0000"
       id="path10695-3"
       d="m 1034,1398.9997 c 0,0 -1.6,-2.6666 -3.4666,-4.5334 -1.8666,-1.8666 -4.5334,-3.4666 -4.5334,-3.4666 0,0 2.6666,-1.6 4.5334,-3.4666 1.8666,-1.8666 3.4666,-4.5334 3.4666,-4.5334 0,0 1.6,2.6666 3.4666,4.5334 1.8666,1.8666 4.5334,3.4666 4.5334,3.4666 0,0 -2.6666,1.6 -4.5334,3.4666 -1.8666,1.8666 -3.4666,4.5334 -3.4666,4.5334"
       inkscape:connector-curvature="0" />
  </g>
</svg>
