<?xml version="1.0" encoding="UTF-8" standalone="no"?>
<!-- Created with Inkscape (http://www.inkscape.org/) -->

<svg
   id="svg10047"
   height="123.00296"
   width="78.995888"
   version="1.1"
   viewBox="0 0 78.995888 123.00296"
   inkscape:version="0.91 r13725"
   sodipodi:docname="russian.svgz"
   xmlns:inkscape="http://www.inkscape.org/namespaces/inkscape"
   xmlns:sodipodi="http://sodipodi.sourceforge.net/DTD/sodipodi-0.dtd"
   xmlns="http://www.w3.org/2000/svg"
   xmlns:svg="http://www.w3.org/2000/svg"
   xmlns:rdf="http://www.w3.org/1999/02/22-rdf-syntax-ns#"
   xmlns:cc="http://creativecommons.org/ns#"
   xmlns:dc="http://purl.org/dc/elements/1.1/">
  <sodipodi:namedview
     pagecolor="#ffffff"
     bordercolor="#666666"
     borderopacity="1"
     objecttolerance="10"
     gridtolerance="10"
     guidetolerance="10"
     inkscape:pageopacity="0"
     inkscape:pageshadow="2"
     inkscape:window-width="1920"
     inkscape:window-height="1016"
     id="namedview1491"
     showgrid="false"
     inkscape:zoom="1.3479675"
     inkscape:cx="513.5"
     inkscape:cy="307.5"
     inkscape:window-x="0"
     inkscape:window-y="0"
     inkscape:window-maximized="1"
     inkscape:current-layer="svg10047"
     showguides="false"
     inkscape:guide-bbox="true"
     inkscape:snap-grids="true"
     inkscape:showpageshadow="2"
     inkscape:pagecheckerboard="0"
     inkscape:deskcolor="#d1d1d1" />
  <metadata
     id="metadata16869">
    <rdf:RDF>
      <cc:Work
         rdf:about="">
        <dc:format>image/svg+xml</dc:format>
        <dc:type
           rdf:resource="http://purl.org/dc/dcmitype/StillImage" />
        <dc:title />
      </cc:Work>
    </rdf:RDF>
  </metadata>
  <defs
     id="defs10049" />
  <g
     id="diamond_7"
     inkscape:label="#diamond_7"
     transform="matrix(0.3950486,0,0,0.41001359,-632.07779,-471.51661)">
    <rect
       width="199.40948"
       height="299.44177"
       rx="16.632639"
       ry="16.635406"
       x="1600.2778"
       y="1150.2802"
       id="rect10534"
       style="fill:#ffffff;stroke:#000000;stroke-width:0.555504" />
    <path
       style="fill:#ff0000"
       id="path10541"
       d="m 1656,1216.9997 c 0,0 -4.4,-7.3331 -9.5331,-12.4669 -5.1332,-5.1331 -12.4669,-9.5331 -12.4669,-9.5331 0,0 7.3332,-4.4 12.4669,-9.5331 5.1331,-5.1332 9.5331,-12.4669 9.5331,-12.4669 0,0 4.4,7.3331 9.5331,12.4669 5.1331,5.1331 12.4669,9.5331 12.4669,9.5331 0,0 -7.3332,4.4 -12.4669,9.5331 -5.1331,5.1332 -9.5331,12.4669 -9.5331,12.4669"
       inkscape:connector-curvature="0" />
    <path
       inkscape:connector-curvature="0"
       d="m 1744,1216.9997 c 0,0 -4.4,-7.3331 -9.5331,-12.4669 -5.1332,-5.1331 -12.4669,-9.5331 -12.4669,-9.5331 0,0 7.3332,-4.4 12.4669,-9.5331 5.1331,-5.1332 9.5331,-12.4669 9.5331,-12.4669 0,0 4.4,7.3331 9.5331,12.4669 5.1331,5.1331 12.4669,9.5331 12.4669,9.5331 0,0 -7.3332,4.4 -12.4669,9.5331 -5.1331,5.1332 -9.5331,12.4669 -9.5331,12.4669"
       id="path10543"
       style="fill:#ff0000" />
    <path
       inkscape:connector-curvature="0"
       d="m 1656,1321.9997 c 0,0 -4.4,-7.3331 -9.5331,-12.4669 -5.1332,-5.1331 -12.4669,-9.5331 -12.4669,-9.5331 0,0 7.3332,-4.4 12.4669,-9.5331 5.1331,-5.1332 9.5331,-12.4669 9.5331,-12.4669 0,0 4.4,7.3331 9.5331,12.4669 5.1331,5.1331 12.4669,9.5331 12.4669,9.5331 0,0 -7.3332,4.4 -12.4669,9.5331 -5.1331,5.1332 -9.5331,12.4669 -9.5331,12.4669"
       id="path10548"
       style="fill:#ff0000" />
    <path
       style="fill:#ff0000"
       id="path10550"
       d="m 1744,1321.9997 c 0,0 -4.4,-7.3331 -9.5331,-12.4669 -5.1332,-5.1331 -12.4669,-9.5331 -12.4669,-9.5331 0,0 7.3332,-4.4 12.4669,-9.5331 5.1331,-5.1332 9.5331,-12.4669 9.5331,-12.4669 0,0 4.4,7.3331 9.5331,12.4669 5.1331,5.1331 12.4669,9.5331 12.4669,9.5331 0,0 -7.3332,4.4 -12.4669,9.5331 -5.1331,5.1332 -9.5331,12.4669 -9.5331,12.4669"
       inkscape:connector-curvature="0" />
    <path
       inkscape:connector-curvature="0"
       d="m 1656,1426.9997 c 0,0 -4.4,-7.3331 -9.5331,-12.4669 -5.1332,-5.1331 -12.4669,-9.5331 -12.4669,-9.5331 0,0 7.3332,-4.4 12.4669,-9.5331 5.1331,-5.1332 9.5331,-12.4669 9.5331,-12.4669 0,0 4.4,7.3331 9.5331,12.4669 5.1331,5.1331 12.4669,9.5331 12.4669,9.5331 0,0 -7.3332,4.4 -12.4669,9.5331 -5.1331,5.1332 -9.5331,12.4669 -9.5331,12.4669"
       id="path10552"
       style="fill:#ff0000" />
    <path
       style="fill:#ff0000"
       id="path10555"
       d="m 1744,1426.9997 c 0,0 -4.4,-7.3331 -9.5331,-12.4669 -5.1332,-5.1331 -12.4669,-9.5331 -12.4669,-9.5331 0,0 7.3332,-4.4 12.4669,-9.5331 5.1331,-5.1332 9.5331,-12.4669 9.5331,-12.4669 0,0 4.4,7.3331 9.5331,12.4669 5.1331,5.1331 12.4669,9.5331 12.4669,9.5331 0,0 -7.3332,4.4 -12.4669,9.5331 -5.1331,5.1332 -9.5331,12.4669 -9.5331,12.4669"
       inkscape:connector-curvature="0" />
    <path
       style="fill:#ff0000"
       id="path10557"
       d="m 1700,1269.4997 c 0,0 -4.4,-7.3331 -9.5331,-12.4669 -5.1332,-5.1331 -12.4669,-9.5331 -12.4669,-9.5331 0,0 7.3332,-4.4 12.4669,-9.5331 5.1331,-5.1332 9.5331,-12.4669 9.5331,-12.4669 0,0 4.4,7.3331 9.5331,12.4669 5.1331,5.1331 12.4669,9.5331 12.4669,9.5331 0,0 -7.3332,4.4 -12.4669,9.5331 -5.1331,5.1332 -9.5331,12.4669 -9.5331,12.4669"
       inkscape:connector-curvature="0" />
    <path
       inkscape:connector-curvature="0"
       d="m 1616,1216.9997 c 0,0 -1.6,-2.6666 -3.4666,-4.5334 -1.8666,-1.8666 -4.5334,-3.4666 -4.5334,-3.4666 0,0 2.6666,-1.6 4.5334,-3.4666 1.8666,-1.8666 3.4666,-4.5334 3.4666,-4.5334 0,0 1.6,2.6666 3.4666,4.5334 1.8666,1.8666 4.5334,3.4666 4.5334,3.4666 0,0 -2.6666,1.6 -4.5334,3.4666 -1.8666,1.8666 -3.4666,4.5334 -3.4666,4.5334"
       id="path10687"
       style="fill:#ff0000" />
    <path
       style="fill:#ff0000"
       id="path10689"
       d="m 1616,1216.9997 c 0,0 -1.6,-2.6666 -3.4666,-4.5334 -1.8666,-1.8666 -4.5334,-3.4666 -4.5334,-3.4666 0,0 2.6666,-1.6 4.5334,-3.4666 1.8666,-1.8666 3.4666,-4.5334 3.4666,-4.5334 0,0 1.6,2.6666 3.4666,4.5334 1.8666,1.8666 4.5334,3.4666 4.5334,3.4666 0,0 -2.6666,1.6 -4.5334,3.4666 -1.8666,1.8666 -3.4666,4.5334 -3.4666,4.5334"
       inkscape:connector-curvature="0" />
    <path
       style="fill:#ff0000"
       id="path230-1-6-2"
       d="m 1610.044,1166.9997 v 2.8 2.8 h 2.7773 v -2.8 h 5.5545 l -5.5545,25.2 h 2.7772 l 5.5546,-25.2 v -2.8 h -11.1091"
       inkscape:connector-curvature="0" />
    <path
       style="fill:#ff0000"
       id="path230-3-4-9"
       d="m 1789.6532,1432.9997 v -2.8 -2.8 h -2.7773 v 2.8 h -5.5545 l 5.5545,-25.2 h -2.7772 l -5.5546,25.2 v 2.8 h 11.1091"
       inkscape:connector-curvature="0" />
    <path
       inkscape:connector-curvature="0"
       d="m 1784,1398.9997 c 0,0 -1.6,-2.6666 -3.4666,-4.5334 -1.8666,-1.8666 -4.5334,-3.4666 -4.5334,-3.4666 0,0 2.6666,-1.6 4.5334,-3.4666 1.8666,-1.8666 3.4666,-4.5334 3.4666,-4.5334 0,0 1.6,2.6666 3.4666,4.5334 1.8666,1.8666 4.5334,3.4666 4.5334,3.4666 0,0 -2.6666,1.6 -4.5334,3.4666 -1.8666,1.8666 -3.4666,4.5334 -3.4666,4.5334"
       id="path10687-6"
       style="fill:#ff0000" />
    <path
       style="fill:#ff0000"
       id="path10689-1"
       d="m 1784,1398.9997 c 0,0 -1.6,-2.6666 -3.4666,-4.5334 -1.8666,-1.8666 -4.5334,-3.4666 -4.5334,-3.4666 0,0 2.6666,-1.6 4.5334,-3.4666 1.8666,-1.8666 3.4666,-4.5334 3.4666,-4.5334 0,0 1.6,2.6666 3.4666,4.5334 1.8666,1.8666 4.5334,3.4666 4.5334,3.4666 0,0 -2.6666,1.6 -4.5334,3.4666 -1.8666,1.8666 -3.4666,4.5334 -3.4666,4.5334"
       inkscape:connector-curvature="0" />
  </g>
</svg>
