<?xml version="1.0" encoding="UTF-8" standalone="no"?>
<!-- Created with Inkscape (http://www.inkscape.org/) -->

<svg
   id="svg10047"
   height="123.00226"
   width="78.995865"
   version="1.1"
   viewBox="0 0 78.995865 123.00226"
   inkscape:version="0.91 r13725"
   sodipodi:docname="russian.svgz"
   xmlns:inkscape="http://www.inkscape.org/namespaces/inkscape"
   xmlns:sodipodi="http://sodipodi.sourceforge.net/DTD/sodipodi-0.dtd"
   xmlns="http://www.w3.org/2000/svg"
   xmlns:svg="http://www.w3.org/2000/svg"
   xmlns:rdf="http://www.w3.org/1999/02/22-rdf-syntax-ns#"
   xmlns:cc="http://creativecommons.org/ns#"
   xmlns:dc="http://purl.org/dc/elements/1.1/">
  <sodipodi:namedview
     pagecolor="#ffffff"
     bordercolor="#666666"
     borderopacity="1"
     objecttolerance="10"
     gridtolerance="10"
     guidetolerance="10"
     inkscape:pageopacity="0"
     inkscape:pageshadow="2"
     inkscape:window-width="1920"
     inkscape:window-height="1016"
     id="namedview1491"
     showgrid="false"
     inkscape:zoom="1.3479675"
     inkscape:cx="513.5"
     inkscape:cy="307.5"
     inkscape:window-x="0"
     inkscape:window-y="0"
     inkscape:window-maximized="1"
     inkscape:current-layer="svg10047"
     showguides="false"
     inkscape:guide-bbox="true"
     inkscape:snap-grids="true"
     inkscape:showpageshadow="2"
     inkscape:pagecheckerboard="0"
     inkscape:deskcolor="#d1d1d1" />
  <metadata
     id="metadata16869">
    <rdf:RDF>
      <cc:Work
         rdf:about="">
        <dc:format>image/svg+xml</dc:format>
        <dc:type
           rdf:resource="http://purl.org/dc/dcmitype/StillImage" />
        <dc:title />
      </cc:Work>
    </rdf:RDF>
  </metadata>
  <defs
     id="defs10049" />
  <g
     id="diamond_5"
     inkscape:label="#diamond_5"
     transform="matrix(0.39504849,0,0,0.41001125,-434.55332,-471.51392)">
    <rect
       width="199.40948"
       height="299.44177"
       rx="16.632639"
       ry="16.635406"
       x="1100.2777"
       y="1150.2802"
       id="rect10585"
       style="fill:#ffffff;stroke:#000000;stroke-width:0.555504" />
    <path
       style="fill:#ff0000"
       id="path10591"
       d="m 1156,1216.9997 c 0,0 -4.4,-7.3331 -9.5331,-12.4669 -5.1332,-5.1331 -12.4669,-9.5331 -12.4669,-9.5331 0,0 7.3332,-4.4 12.4669,-9.5331 5.1331,-5.1332 9.5331,-12.4669 9.5331,-12.4669 0,0 4.4,7.3331 9.5331,12.4669 5.1331,5.1331 12.4669,9.5331 12.4669,9.5331 0,0 -7.3332,4.4 -12.4669,9.5331 -5.1331,5.1332 -9.5331,12.4669 -9.5331,12.4669"
       inkscape:connector-curvature="0" />
    <path
       inkscape:connector-curvature="0"
       d="m 1244,1216.9997 c 0,0 -4.4,-7.3331 -9.5331,-12.4669 -5.1332,-5.1331 -12.4669,-9.5331 -12.4669,-9.5331 0,0 7.3332,-4.4 12.4669,-9.5331 5.1331,-5.1332 9.5331,-12.4669 9.5331,-12.4669 0,0 4.4,7.3331 9.5331,12.4669 5.1331,5.1331 12.4669,9.5331 12.4669,9.5331 0,0 -7.3332,4.4 -12.4669,9.5331 -5.1331,5.1332 -9.5331,12.4669 -9.5331,12.4669"
       id="path10593"
       style="fill:#ff0000" />
    <path
       style="fill:#ff0000"
       id="path10597"
       d="m 1200,1321.9997 c 0,0 -4.4,-7.3331 -9.5331,-12.4669 -5.1332,-5.1331 -12.4669,-9.5331 -12.4669,-9.5331 0,0 7.3332,-4.4 12.4669,-9.5331 5.1331,-5.1332 9.5331,-12.4669 9.5331,-12.4669 0,0 4.4,7.3331 9.5331,12.4669 5.1331,5.1331 12.4669,9.5331 12.4669,9.5331 0,0 -7.3332,4.4 -12.4669,9.5331 -5.1331,5.1332 -9.5331,12.4669 -9.5331,12.4669"
       inkscape:connector-curvature="0" />
    <path
       inkscape:connector-curvature="0"
       d="m 1156,1426.9997 c 0,0 -4.4,-7.3331 -9.5331,-12.4669 -5.1332,-5.1331 -12.4669,-9.5331 -12.4669,-9.5331 0,0 7.3332,-4.4 12.4669,-9.5331 5.1331,-5.1332 9.5331,-12.4669 9.5331,-12.4669 0,0 4.4,7.3331 9.5331,12.4669 5.1331,5.1331 12.4669,9.5331 12.4669,9.5331 0,0 -7.3332,4.4 -12.4669,9.5331 -5.1331,5.1332 -9.5331,12.4669 -9.5331,12.4669"
       id="path10599"
       style="fill:#ff0000" />
    <path
       style="fill:#ff0000"
       id="path10601"
       d="m 1244,1426.9997 c 0,0 -4.4,-7.3331 -9.5331,-12.4669 -5.1332,-5.1331 -12.4669,-9.5331 -12.4669,-9.5331 0,0 7.3332,-4.4 12.4669,-9.5331 5.1331,-5.1332 9.5331,-12.4669 9.5331,-12.4669 0,0 4.4,7.3331 9.5331,12.4669 5.1331,5.1331 12.4669,9.5331 12.4669,9.5331 0,0 -7.3332,4.4 -12.4669,9.5331 -5.1331,5.1332 -9.5331,12.4669 -9.5331,12.4669"
       inkscape:connector-curvature="0" />
    <path
       inkscape:connector-curvature="0"
       d="m 1116,1216.9997 c 0,0 -1.6,-2.6666 -3.4666,-4.5334 -1.8666,-1.8666 -4.5334,-3.4666 -4.5334,-3.4666 0,0 2.6666,-1.6 4.5334,-3.4666 1.8666,-1.8666 3.4666,-4.5334 3.4666,-4.5334 0,0 1.6,2.6666 3.4666,4.5334 1.8666,1.8666 4.5334,3.4666 4.5334,3.4666 0,0 -2.6666,1.6 -4.5334,3.4666 -1.8666,1.8666 -3.4666,4.5334 -3.4666,4.5334"
       id="path10693"
       style="fill:#ff0000" />
    <path
       style="fill:#ff0000"
       id="path184-6-6-8"
       d="m 1110.1002,1166.9997 v 8.4 2.8 h 5.5545 c 1.5387,0 2.7773,1.2488 2.7773,2.8 v 8.4 c 0,1.5512 -1.2386,2.8 -2.7773,2.8 -1.5386,0 -2.7772,-1.2488 -2.7772,-2.8 v -2.8 h -2.7773 v 2.8 c 0,3.1024 2.4773,5.6 5.5545,5.6 3.0773,0 5.5546,-2.4976 5.5546,-5.6 v -8.4 c 0,-3.1024 -2.4773,-5.6 -5.5546,-5.6 h -2.7772 v -5.6 h 2.7772 5.5546 v -2.8 h -5.5546 -2.7772 z"
       inkscape:connector-curvature="0" />
    <path
       style="fill:#ff0000"
       id="path184-9-0-7"
       d="m 1289.7092,1432.9997 v -8.4 -2.8 h -5.5545 c -1.5387,0 -2.7773,-1.2488 -2.7773,-2.8 v -8.4 c 0,-1.5512 1.2386,-2.8 2.7773,-2.8 1.5388,0 2.7772,1.2488 2.7772,2.8 v 2.8 h 2.7773 v -2.8 c 0,-3.1024 -2.4773,-5.6 -5.5545,-5.6 -3.0771,0 -5.5545,2.4976 -5.5545,5.6 v 8.4 c 0,3.1024 2.4774,5.6 5.5545,5.6 h 2.7772 v 5.6 h -2.7772 -5.5545 v 2.8 h 5.5545 2.7772 z"
       inkscape:connector-curvature="0" />
    <path
       inkscape:connector-curvature="0"
       d="m 1284,1398.9997 c 0,0 -1.6,-2.6666 -3.4666,-4.5334 -1.8666,-1.8666 -4.5334,-3.4666 -4.5334,-3.4666 0,0 2.6666,-1.6 4.5334,-3.4666 1.8666,-1.8666 3.4666,-4.5334 3.4666,-4.5334 0,0 1.6,2.6666 3.4666,4.5334 1.8666,1.8666 4.5334,3.4666 4.5334,3.4666 0,0 -2.6666,1.6 -4.5334,3.4666 -1.8666,1.8666 -3.4666,4.5334 -3.4666,4.5334"
       id="path10693-6"
       style="fill:#ff0000" />
  </g>
</svg>
