<?xml version="1.0" encoding="UTF-8" standalone="no"?>
<!-- Created with Inkscape (http://www.inkscape.org/) -->

<svg
   id="svg10047"
   height="123.00444"
   width="78.996002"
   version="1.1"
   viewBox="0 0 78.996002 123.00444"
   inkscape:version="0.91 r13725"
   sodipodi:docname="russian.svgz"
   xmlns:inkscape="http://www.inkscape.org/namespaces/inkscape"
   xmlns:sodipodi="http://sodipodi.sourceforge.net/DTD/sodipodi-0.dtd"
   xmlns="http://www.w3.org/2000/svg"
   xmlns:svg="http://www.w3.org/2000/svg"
   xmlns:rdf="http://www.w3.org/1999/02/22-rdf-syntax-ns#"
   xmlns:cc="http://creativecommons.org/ns#"
   xmlns:dc="http://purl.org/dc/elements/1.1/">
  <sodipodi:namedview
     pagecolor="#ffffff"
     bordercolor="#666666"
     borderopacity="1"
     objecttolerance="10"
     gridtolerance="10"
     guidetolerance="10"
     inkscape:pageopacity="0"
     inkscape:pageshadow="2"
     inkscape:window-width="1920"
     inkscape:window-height="1016"
     id="namedview1491"
     showgrid="false"
     inkscape:zoom="1.3479675"
     inkscape:cx="513.5"
     inkscape:cy="307.5"
     inkscape:window-x="0"
     inkscape:window-y="0"
     inkscape:window-maximized="1"
     inkscape:current-layer="svg10047"
     showguides="false"
     inkscape:guide-bbox="true"
     inkscape:snap-grids="true"
     inkscape:showpageshadow="2"
     inkscape:pagecheckerboard="0"
     inkscape:deskcolor="#d1d1d1" />
  <metadata
     id="metadata16869">
    <rdf:RDF>
      <cc:Work
         rdf:about="">
        <dc:format>image/svg+xml</dc:format>
        <dc:type
           rdf:resource="http://purl.org/dc/dcmitype/StillImage" />
        <dc:title />
      </cc:Work>
    </rdf:RDF>
  </metadata>
  <defs
     id="defs10049" />
  <g
     id="diamond_1"
     inkscape:label="#diamond_1"
     transform="matrix(0.39575414,0,0,0.41092777,-39.575442,-472.84073)">
    <rect
       style="fill:#ffffff;stroke:#000000;stroke-width:0.554395;stroke-miterlimit:4;stroke-dasharray:none;stroke-opacity:1"
       id="rect6472"
       y="1150.9435"
       x="100.27727"
       ry="16.598839"
       rx="16.603268"
       height="298.77908"
       width="199.05438" />
    <path
       inkscape:connector-curvature="0"
       d="m 241.3762,1420.7229 c -4.15581,-1.5383 -9.12661,-3.7405 -12.0886,-5.5324 0.61302,2.1967 0.88461,2.4227 1.32513,4.1249 -1.21171,-0.7417 -4.2209,-1.5878 -6.35378,-2.3182 -1.07746,-0.3689 -0.72801,-0.2559 -3.25377,-1.0423 1.32622,3.0325 2.13161,5.9089 2.70351,7.7252 -2.19518,-1.0319 -7.67229,-3.2577 -9.8824,-4.2599 -2.21011,-1.0023 -5.0037,-2.199 -7.25607,-3.1114 0.41107,1.2897 0.56028,1.6602 0.8187,2.4973 0.24451,0.792 0.5922,2.0422 0.69219,2.3884 -0.26592,-0.062 -1.69151,-0.4984 -2.56007,-0.6337 -2.25747,-0.3517 -4.30429,-0.7065 -6.83865,-0.4547 -2.53436,0.2517 -5.05482,0.8487 -7.4667,1.5352 0.15192,-1.9172 1.42587,-3.5917 1.61926,-5.39 -2.80041,0.8651 -8.05871,2.852 -10.75185,4.0101 -2.69313,1.1581 -5.30695,2.4821 -7.79007,4.0105 0.39318,-1.5608 1.13808,-2.9788 1.98915,-4.3494 0.85107,-1.3707 1.80831,-2.694 2.62615,-4.0658 -2.10272,0.2172 -3.91844,0.717 -5.79592,1.3608 -1.93694,0.6642 -4.29741,1.8702 -5.58471,2.5614 0.29124,-1.0674 0.13557,-1.3606 0.79579,-3.345 -1.55275,0.5605 -1.19653,0.3353 -3.18123,1.405 -1.98471,1.0698 -3.7457,1.9579 -5.70941,2.7262 -2.61434,1.0228 -5.31637,1.8382 -8.04384,2.4915 -2.72747,0.6531 -6.90875,1.473 -9.75098,1.4399 1.14709,-2.5334 1.04065,-3.8165 1.40552,-5.2067 -2.25256,1.0434 -4.96902,2.5021 -7.28475,3.4176 -2.31573,0.9154 -5.04924,1.6393 -7.56975,1.9166 0.27393,-1.7506 0.46843,-3.1254 0.90005,-4.6406 0.46853,-1.6448 1.63559,-3.2932 1.82375,-4.7949 -0.44009,-0.091 -0.80423,-0.1372 -1.32203,-0.089 -0.5178,0.049 -1.18926,0.1919 -2.24398,0.48 0.2114,-0.9483 0.68509,-2.2186 1.24042,-3.5627 0.55533,-1.3441 1.1923,-2.7621 1.73029,-4.0057 0.32432,-0.7497 0.67735,-1.363 1.03512,-2.0358 0.35777,-0.6728 0.72029,-1.4052 1.06361,-2.3929 -1.15171,0.029 -1.76151,-0.072 -2.36203,-0.1169 -0.60051,-0.045 -1.19175,-0.034 -2.30634,0.2163 0.56954,-0.7624 1.25099,-1.7252 1.95874,-2.7394 0.70775,-1.0141 1.4418,-2.0796 2.11654,-3.0471 0.33355,-0.4784 1.38567,-1.5772 2.50147,-2.6938 1.1158,-1.1166 2.29528,-2.2509 2.88352,-2.8002 0.15257,-0.1425 -0.23758,-0.2429 -0.82587,-0.3434 -0.58829,-0.1004 -1.37471,-0.2008 -2.01468,-0.3432 0,0 0.37682,-0.5417 0.82174,-1.2334 1.24804,-2.4656 3.29987,-4.5758 5.13311,-6.1745 1.43329,-1.2459 2.92322,-2.4486 4.24252,-3.7817 -0.82199,-0.2675 -2.31987,-0.5334 -3.00558,-0.6534 0.5562,-0.7598 1.22288,-1.7353 1.92919,-2.524 0.82157,-0.9174 1.44134,-1.4053 2.67052,-2.5519 1.22919,-1.1465 4.09698,-2.4027 3.35013,-3.9646 -0.44374,-0.9279 -1.93827,-0.8059 -3.07803,0.081 -1.13976,0.8872 -2.01893,1.8162 -2.87231,2.866 -0.69295,0.8525 -1.45396,1.7111 -1.80292,2.7599 -1.05174,-0.6094 -0.88832,-0.7775 -1.62253,-0.9764 -0.82944,1.4496 -1.27749,4.7981 -1.95357,7.1867 -0.25616,0.905 -0.46343,1.6934 -0.79669,2.7068 -0.49862,-0.3545 -1.38739,-0.3706 -2.47612,-1.0662 -0.98365,1.8988 -1.51312,4.0071 -2.17173,6.0518 -0.65862,2.0448 -1.44638,4.0259 -2.9466,5.6705 -1.24453,-1.8473 -1.78985,-4.0336 -2.06674,-6.2886 -0.27689,-2.255 -0.28535,-4.5788 -0.45615,-6.7009 -0.74341,0.2927 -1.08607,0.4958 -1.36089,0.6772 -0.27482,0.1815 -0.4818,0.3412 -0.95385,0.5471 0.0123,-0.4496 0.20749,-1.3873 0.41012,-2.3141 0.20264,-0.9268 0.44455,-1.7643 0.7441,-2.6219 0.31397,-0.8989 0.44646,-1.3732 1.10055,-2.6356 0.65409,-1.2623 1.34748,-2.5574 1.62573,-3.205 -0.61774,-0.1135 -0.75462,-0.1136 -0.90746,-0.1095 -0.15284,0 -0.32163,0.012 -1.00319,-0.084 0.41112,-1.3104 1.22647,-2.661 2.2361,-3.9319 1.00963,-1.2709 2.21354,-2.4622 3.40178,-3.4538 1.54212,-1.287 3.28144,-2.3076 5.10666,-3.1804 1.82523,-0.8729 3.73636,-1.5982 5.62211,-2.2947 -1.32882,-0.886 -1.18206,-1.341 -2.64481,-2.2969 0.76962,-0.5414 2.1621,-1.0863 3.98614,-1.7377 -1.41121,-0.8519 -1.94256,-1.3897 -5.00169,-3.0429 -3.1616,-1.7086 -7.40581,-2.7637 -8.34499,-3.1858 0.66047,-0.2894 1.58674,-0.7758 2.51172,-1.3527 0.92499,-0.5769 1.84869,-1.2444 2.50405,-1.8957 -1.32869,-1.0406 -3.02932,-2.0357 -4.83726,-3.0108 -1.80794,-0.9751 -3.72319,-1.9302 -5.48113,-2.891 2.9944,-1.4557 6.47203,-2.5106 10.02493,-3.0451 3.55289,-0.5344 7.18106,-0.5485 10.47654,0.077 -0.5625,-0.9434 -0.82351,-1.3324 -1.01504,-1.714 -0.19152,-0.3816 -0.31357,-0.7558 -0.59815,-1.6693 0.95556,0.2609 2.10364,0.4657 3.26528,0.7415 1.16164,0.2758 2.33685,0.6226 3.34665,1.1675 2.71134,1.4632 5.2978,3.0255 7.66885,4.9452 2.37104,1.9196 4.52667,4.1965 6.37633,7.0887 0.82307,-2.0248 1.25539,-2.9414 2.4838,-4.3187 0.86445,1.5356 2.42094,4.1251 3.07684,5.7489 0.65591,1.6239 1.23802,3.2771 1.80731,4.93 2.04882,-0.7919 3.04569,-1.6044 3.45853,-2.5113 0.41283,-0.9068 0.24163,-1.9081 -0.0457,-3.0773 1.81481,0.4019 3.23645,1.0389 4.66269,1.5145 1.42625,0.4757 2.97486,0.816 4.44232,0.5465 1.29573,-0.238 2.17204,-0.803 3.49721,-1.8452 -0.63439,-0.372 -2.08846,-0.7824 -3.50243,-1.1843 -1.41397,-0.4019 -1.54762,-0.4636 -3.2618,-1.1329 1.35924,-1.3353 2.74429,-1.9017 4.23272,-2.4611 1.17422,-0.4442 2.51994,-0.7642 3.82248,-0.997 1.30253,-0.2329 2.56188,-0.3785 3.56337,-0.4741 0.91251,-1.6239 1.73551,-3.3381 2.70829,-4.7993 0.97278,-1.4612 2.09532,-2.6693 3.60689,-3.281 1.48037,0.493 2.61508,1.791 3.5319,3.2893 0.91682,1.4983 1.61576,3.1969 2.2246,4.4912 1.54076,0.3595 3.74537,0.6468 5.86793,1.1117 2.12255,0.4649 4.16306,1.1073 5.37561,2.1771 -1.1197,0.7846 -2.1946,1.2655 -3.37434,1.71 -1.535,0.5784 -3.20716,0.803 -4.76532,1.2248 0.53827,0.3383 2.25335,1.6611 3.58302,1.8281 1.94643,0.2445 4.102,-0.5969 5.74125,-1.296 1.63926,-0.699 2.40905,-1.1041 3.99703,-1.2732 -0.96952,1.6129 -1.93609,2.4282 -1.40423,3.3554 0.62165,1.0837 2.26072,1.5878 3.37472,1.9224 -0.26313,-1.2376 -0.49877,-1.686 -0.32503,-2.6398 0.17374,-0.9538 0.2974,-1.8693 0.60421,-2.7593 0.3895,-1.1299 0.88841,-2.0447 1.55406,-3.2302 0.66565,-1.1855 1.43687,-2.3219 2.18752,-2.9358 0.66785,1.0468 1.06594,1.8095 1.43056,2.6129 0.36463,0.8035 0.69579,1.6476 1.22979,2.8575 1.01441,-2.4048 2.36733,-4.4668 3.94521,-6.2141 1.57789,-1.7473 3.38075,-3.1799 5.29505,-4.3261 1.9143,-1.1462 3.94004,-2.006 5.9637,-2.6074 2.02366,-0.6015 4.04523,-0.9447 5.95119,-1.0579 -0.22301,0.4226 -0.36012,0.8131 -0.45847,1.2333 -0.0983,0.4202 -0.15793,0.8702 -0.22584,1.4117 0.39965,0.1396 1.67455,0.01 3.16191,-0.1078 1.48737,-0.1152 3.1872,-0.2134 4.43674,-0.01 1.93999,0.3224 3.91072,0.7547 5.79982,1.3881 1.8891,0.6335 3.69659,1.4681 5.31008,2.5952 0.79472,0.5552 1.53034,1.1732 2.16589,1.9018 0.63555,0.7286 1.17105,1.5678 1.56552,2.5655 -0.96904,0.091 -2.24031,0.3234 -3.57582,0.6331 -1.33552,0.3097 -2.73526,0.6961 -3.96127,1.0938 -0.5253,0.1704 -1.03601,0.3625 -1.54125,0.578 -0.50525,0.2155 -1.00502,0.4545 -1.50847,0.7189 0.34412,0.3725 0.70071,0.7729 1.06248,1.1784 0.36176,0.4055 0.7287,0.8161 1.09348,1.209 0.32513,0.3502 0.72353,0.7037 1.08891,1.0521 0.36536,0.3484 0.6977,0.6918 0.89071,1.0216 -0.70873,0.3633 -1.91592,0.7008 -3.2458,1.0384 -1.32989,0.3376 -2.78246,0.6753 -3.98196,1.0389 -1.25855,0.3816 -2.29412,0.4991 -3.43695,0.7623 -1.14283,0.2632 -2.39291,0.6722 -4.08047,1.6368 1.14341,0.4966 2.13099,0.9708 3.08929,1.8074 -0.64207,0.6898 -1.31506,1.3957 -1.94558,1.9595 2.52486,0.9048 4.86494,1.5037 6.47075,2.1538 1.6058,0.6501 2.97023,1.3512 4.52954,2.4604 1.55543,1.1064 3.26141,2.5507 4.70005,4.0461 1.43865,1.4953 2.60996,3.0416 3.09605,4.352 -0.73337,0.01 -1.45046,0.1521 -2.00529,0.4185 0.97334,1.9428 1.69441,3.1238 2.18175,4.8183 0.56424,1.9618 0.90315,4.9322 0.82382,6.0685 -1.50448,-0.9195 -1.66795,-0.6935 -2.74656,-0.9608 0.0546,1.6221 0.0824,2.8939 0.0187,4.3388 -0.0681,1.5437 -0.17487,2.9655 -0.42787,4.6157 -0.25297,1.6502 -0.69453,3.2614 -1.39748,4.7598 -1.68202,-2.0173 -2.68442,-4.3948 -3.45905,-6.8721 -0.77463,-2.4773 -1.3215,-5.0542 -2.09244,-7.4705 -0.54825,0.4007 -1.01345,1.0134 -1.38337,1.3187 -0.31433,-0.4199 -0.85763,-1.4152 -1.3708,-2.472 -0.51317,-1.0568 -0.99622,-2.1752 -1.19004,-2.8416 -0.19383,-0.6663 -0.41504,-1.665 -0.62768,-2.5948 -0.21263,-0.9298 -0.48941,-2.5184 -0.64887,-2.9091 -0.33438,0.552 -0.587,1.3378 -0.80923,1.8598 -0.34157,-0.7778 -0.9646,-2.0137 -1.8024,-3.2183 -0.8378,-1.2046 -1.78343,-2.4209 -3.09102,-3.0307 -0.75575,-0.3525 -1.86349,-0.7285 -2.48972,-0.2426 -0.62623,0.4858 -0.53184,1.6216 -0.32572,2.4034 0.33636,1.2756 1.28986,2.2604 2.39609,3.1493 1.10622,0.8889 3.01317,3.0212 3.72031,4.1444 -0.61226,0.4982 -1.24251,0.5969 -2.16716,1.005 1.16344,1.1044 1.83747,1.5554 2.72846,2.3643 1.42047,1.2898 2.79788,2.6322 4.17064,3.967 1.37276,1.3349 3.26805,3.5517 4.02912,5.325 -1.10773,0.5711 -2.25934,0.1735 -3.27334,0.6289 1.27972,1.3076 4.55874,4.1344 6.46505,6.5329 0.73814,0.9288 1.37615,2.1878 1.89943,3.01 -0.65636,0.2978 -2.51209,0.06 -2.93754,0.3203 0.96361,1.8961 1.8316,3.8215 2.52518,5.7987 0.69357,1.9771 1.21274,4.0059 1.47871,6.1088 -0.99771,0.2413 -2.05789,-0.077 -2.63422,0.044 1.01522,3.9028 1.71322,6.7332 2.37071,10.5291 -4.44688,-1.4245 -6.16969,-2.0629 -9.20351,-3.233 -2.35665,-0.9089 -4.89596,-2.2639 -6.9842,-2.9396 0.43548,2.4371 1.14332,4.8106 2.14665,6.9967 -7.5867,-2.4058 -10.17247,-2.5173 -15.07619,-4.3324 z"
       id="path8973"
       style="fill:#ff0000;stroke:none" />
    <path
       inkscape:connector-curvature="0"
       d="m 253.38106,1422.5536 c -0.051,-1.3927 -2.02119,-7.0987 -2.17061,-8.6971 3.04922,1.1738 6.69437,3.3297 10.17529,4.6782 2.01882,0.7821 3.88751,1.6243 6.18881,1.9706 -0.10806,-1.8774 -0.61584,-3.627 -1.32394,-5.3105 -0.70811,-1.6835 -1.61656,-3.301 -2.52598,-4.9143 2.57592,0.6361 2.20266,0.5507 4.90615,0.8736 -0.72936,-1.6445 -1.76152,-5.3309 -2.54166,-6.9473 -0.78016,-1.6165 -1.70604,-3.1524 -3.01829,-4.4751 0.80391,-0.5551 2.45244,-0.088 3.10246,-0.1772 -0.13639,-1.007 -0.94692,-1.7208 -1.57788,-2.4648 -1.09127,-1.2866 -2.3605,-2.3751 -3.75994,-3.3879 -1.39945,-1.0127 -2.73478,-2.0231 -3.37522,-3.3733 1.9322,-0.072 2.63233,-0.1048 4.4822,-0.3461 -1.0337,-1.8328 -2.78732,-3.2813 -4.3299,-4.778 -1.12368,-1.0902 -2.28608,-2.1429 -3.57409,-3.0473 -1.288,-0.9044 -2.60846,-1.7725 -3.76881,-2.8292 1.95354,-0.583 1.69618,-0.8797 3.04742,-1.3895 -0.93573,-1.1067 -3.94189,-3.7197 -4.6024,-4.8568 -0.84155,-1.0249 -1.47142,-2.2818 -1.54137,-3.456 -0.0699,-1.1742 0.73508,-2.5511 1.81816,-2.9592 1.5015,-0.5659 3.31999,0.418 4.59979,1.419 1.27981,1.001 2.37139,2.3453 3.47045,3.4786 0.73405,-0.801 0.97984,-1.1089 1.36811,-1.8758 0.42463,0.6884 1.23535,3.3693 1.49547,5.0841 0.35254,2.324 1.7097,5.2038 2.40767,6.6277 0.62523,-0.3953 1.63975,-1.5196 2.27015,-1.7483 0.13999,2.1656 0.70581,5.2674 1.27322,7.2458 0.56742,1.9785 1.74999,4.735 2.36922,6.6647 1.02158,-2.9694 0.78537,-5.4065 0.85013,-8.1307 0.0369,-1.5544 -0.23001,-3.5186 -0.26407,-4.657 1.54084,0.4568 1.76734,0.1943 2.86798,0.482 -0.41027,-1.6556 -0.59393,-2.1671 -1.16846,-3.3959 -1.14905,-2.4575 -3.21404,-5.4088 -3.7961,-6.4702 0.84842,-0.1063 1.20417,-0.08 1.50415,-0.07 0.29998,0.011 0.54418,0.01 1.16949,-0.1622 -1.58828,-1.6117 -3.74657,-3.2868 -6.13322,-4.8098 -2.38666,-1.523 -5.00168,-2.894 -7.50346,-3.8973 -1.2455,-0.4995 -2.56177,-0.7587 -3.89575,-0.9578 -1.33397,-0.1991 -2.68565,-0.3382 -4.00193,-0.5974 0.81842,-0.5976 1.39403,-1.0477 1.77031,-1.4133 0.37628,-0.3657 0.94233,-0.8802 1.35251,-1.2433 -0.45088,-0.369 -1.46854,-0.8389 -2.26454,-1.1881 -0.79601,-0.3493 -1.91514,-0.9669 -2.59488,-1.3718 0.62275,-0.338 1.85768,-0.8036 3.25465,-1.2717 1.39697,-0.468 2.95599,-0.9386 4.22691,-1.2865 1.53269,-0.4195 2.76371,-0.6952 4.16284,-0.9707 1.39912,-0.2754 2.96635,-0.5506 5.17147,-0.9691 -0.4951,-0.6943 -1.327,-1.3754 -2.22347,-2.0539 -0.89646,-0.6786 -1.85749,-1.3545 -2.61082,-2.0387 1.20593,-0.8738 3.23303,-1.3664 5.39556,-1.8186 2.16253,-0.452 4.4605,-0.8636 6.20816,-1.5753 -0.58846,-0.9109 -1.7836,-1.928 -3.1957,-2.8327 -1.41209,-0.9046 -3.04112,-1.6969 -4.49737,-2.1579 -1.62619,-0.5149 -3.34185,-0.664 -5.07123,-0.6579 -1.72938,0.01 -3.47249,0.1675 -5.15358,0.2736 -0.72621,0.01 -1.51523,0.2266 -2.34036,0.472 -0.82515,0.2454 -1.68642,0.5153 -2.55715,0.6183 0.60796,-0.9496 0.80971,-1.5194 0.92075,-2.0003 0.11104,-0.4809 0.13135,-0.8729 0.37643,-1.4673 -0.69005,0.1424 -1.8236,0.3897 -3.02625,0.7518 -1.20264,0.3622 -2.4744,0.8392 -3.44084,1.4414 -1.71181,1.0665 -3.33578,2.3513 -4.78814,3.7992 -1.45236,1.448 -2.73313,3.059 -3.75854,4.778 -0.92735,1.2632 -1.34179,2.6593 -1.55528,4.1075 -0.2135,1.4481 -0.22605,2.9484 -0.34959,4.4199 -0.46771,-1.5955 -0.9609,-3.1838 -1.46528,-4.7687 -0.50439,-1.585 -1.01997,-3.1667 -1.53251,-4.7492 -0.93952,1.1323 -1.53672,2.1488 -1.94609,3.1266 -0.85944,2.1516 -0.86217,4.8543 -0.85649,6.408 -0.80155,0.1274 -2.33494,-0.8312 -3.47139,-1.3235 -0.76802,-0.3327 -1.73065,-0.448 -2.2576,-1.0996 -0.40107,-0.4959 -0.93092,-1.007 -0.46174,-1.8587 -1.96812,0.747 -3.79468,1.2189 -5.58408,1.2207 -1.7894,0 -3.68512,-0.7811 -5.36111,-1.6004 -0.93203,-0.4556 -1.94825,-1.1786 -2.53555,-1.8068 0.37592,0.046 2.08814,-0.3684 3.87243,-0.8514 1.7843,-0.483 3.64068,-1.0345 4.3049,-1.2625 -0.71145,-0.7512 -1.51111,-0.925 -2.3318,-1.2451 -1.14029,-0.4449 -2.38068,-0.834 -3.55405,-0.9205 -1.17337,-0.087 -2.31091,-0.058 -3.33904,-0.2283 -0.25327,-1.3356 -0.95186,-3.0865 -1.82167,-4.6143 -0.86979,-1.5279 -1.9108,-2.8326 -2.84886,-3.2759 -1.20156,0.5524 -2.14219,1.8401 -2.99133,3.3332 -0.84913,1.4931 -1.60676,3.1917 -2.44233,4.5661 -1.64383,0.4838 -3.45914,0.6969 -5.24415,1.0064 -1.78501,0.3095 -3.53972,0.7153 -5.06235,1.5842 1.00197,0.6445 2.61566,0.9603 4.10961,1.2598 1.49394,0.2995 2.86814,0.5828 3.39112,1.1622 -1.59712,0.8559 -3.27605,1.9938 -5.03908,2.7652 -1.76304,0.7714 -3.23797,0.7955 -4.88228,0.7321 -1.16761,-0.045 -2.0801,-0.5122 -3.41679,-0.7854 -0.0332,1.0175 -0.50723,1.4026 -0.98942,1.9478 -0.79468,0.8983 -1.59415,1.2161 -2.98389,2.0064 -1.38973,0.7904 -1.49575,1.105 -2.55746,1.6389 -0.25262,-1.3948 -1.37855,-5.0688 -1.99846,-6.4105 -0.61992,-1.3417 -1.39527,-2.5895 -2.26962,-3.6089 -0.41556,1.6566 -0.67027,3.327 -0.80377,5.0078 -0.1335,1.6807 -0.14581,3.3719 -0.0766,5.07 l -1.08689,-0.5576 c 0.0496,-3.9391 -1.66507,-7.5317 -4.00334,-10.564 -2.33827,-3.0323 -5.30019,-5.5044 -7.74527,-7.2024 -0.53175,-0.4473 -1.27864,-0.8354 -2.15423,-1.1728 -0.8756,-0.3374 -1.87989,-0.6241 -2.92643,-0.8686 0.0656,0.2218 0.46737,0.876 0.89042,1.6034 0.42306,0.7274 0.86744,1.5281 1.01836,2.0427 -0.75693,-0.2263 -2.18122,-0.6627 -3.55759,-1.0371 -1.37636,-0.3743 -2.7048,-0.6865 -3.27,-0.6643 -1.96461,0.028 -3.32664,-0.023 -4.53195,-0.029 -1.20531,-0.01 -2.25389,0.035 -3.59161,0.2476 -1.03182,0.164 -2.04141,0.3013 -3.03961,0.5519 -0.9982,0.2505 -1.98501,0.6141 -2.97127,1.2305 1.53119,0.6917 3.52686,1.7539 5.52253,2.816 1.99567,1.0622 3.99134,2.1244 5.52253,2.816 -0.4194,0.5403 -1.28525,1.0179 -2.22269,1.4817 -0.93744,0.4638 -1.94648,0.9137 -2.65225,1.3985 2.12402,1.3933 5.66521,2.3589 8.42769,3.6916 2.42689,1.1707 5.58471,2.5025 7.14774,3.7768 -1.45926,0.3936 -3.97743,1.2391 -4.93555,1.605 0.77817,0.6976 1.65996,1.3947 2.44532,1.7574 -1.21568,0.516 -1.78055,0.5274 -2.68615,0.7286 -0.95409,0.2119 -1.94784,0.2371 -2.88846,0.5027 -1.36049,0.3842 -2.65986,0.9699 -3.94216,1.566 -1.27692,0.5936 -2.545,1.2256 -3.7235,1.9966 -1.25405,0.8204 -2.47488,1.7188 -3.53356,2.7793 -1.0638,1.0657 -2.20561,2.4337 -2.7864,3.5554 0.71128,-0.044 0.89328,-0.01 1.57742,0.045 -0.51474,0.9232 -1.25352,2.4123 -1.85885,3.6293 -0.45335,0.9114 -0.97079,1.7968 -1.32777,2.7501 -0.31685,0.8461 -0.6208,1.6349 -0.71464,2.6146 1.30507,-0.663 0.91225,-0.3711 1.77441,-0.8161 -0.006,0.9644 -0.23836,3.1385 -0.28665,4.7111 -0.0438,1.4272 -0.0826,2.8733 -0.003,4.2837 0.0799,1.4105 0.37615,2.774 1.2959,4.0026 0.98112,-1.8428 1.49382,-3.832 1.96302,-5.8356 0.46919,-2.0036 0.89487,-4.0216 1.70195,-5.9218 1.14048,0.8865 1.80082,1.1699 3.04002,1.8881 0.37105,-1.6447 0.6997,-4.2508 1.38698,-6.2817 0.48269,-1.4263 1.3612,-2.9934 1.90475,-4.095 0.62624,0.018 1.33295,0.5564 2.05694,0.6896 1.11317,-1.0705 2.19636,-2.4354 3.45371,-3.4618 1.25736,-1.0263 3.06452,-2.0778 4.49874,-1.4297 0.89351,0.4037 1.28843,1.7174 1.19109,2.6952 -0.10056,1.0103 -1.05766,1.75 -1.7552,2.4858 -0.77121,0.8137 -1.48277,1.1519 -2.63885,2.0829 -1.15608,0.931 -1.43564,1.4461 -2.42329,2.4061 2.44714,0.4215 2.44957,0.9521 3.65801,1.2704 -1.1893,0.94 -3.39691,2.8464 -5.06336,4.307 -1.06043,0.9293 -2.25447,1.7373 -3.13988,2.8349 -0.87222,1.0813 -1.55812,2.3486 -2.07535,3.6144 l 2.89555,0.8509 c -0.10389,0.2562 -3.91516,3.2784 -6.00084,5.5744 -1.3516,1.4964 -2.65363,3.5005 -3.89166,5.1005 0.90091,0.072 1.50416,0.024 2.25486,-0.014 0.84627,-0.042 1.58237,-0.2384 2.53085,-0.2378 -0.3751,1.2439 -1.05317,2.5554 -1.67726,3.7866 -0.68365,1.3487 -1.57433,2.5849 -2.25897,3.933 -0.52716,1.0381 -1.10599,2.394 -1.41939,3.1918 1.41574,0.4397 2.57179,-0.1106 4.66171,-0.2283 -0.46022,1.326 -1.7357,3.8333 -2.19005,5.073 -0.73343,1.2921 -1.4062,3.5152 -1.27423,4.33 3.51206,-0.9651 7.14875,-2.4267 10.60111,-4.5673 2.38337,-1.4819 3.86039,-2.3848 6.46126,-3.481 -0.40564,1.5785 -1.01713,2.6739 -1.42927,4.0425 -0.42835,1.4225 -0.61546,2.46 -1.08172,4.3237 2.57305,0.094 5.08644,-0.3788 7.55556,-1.0715 2.46912,-0.6926 4.93672,-1.3894 7.28997,-2.3917 1.62988,-0.6942 3.18553,-1.5894 4.6945,-2.4935 1.50897,-0.9042 2.84842,-2.059 4.06824,-3.3117 1.17652,-1.2083 2.12443,-2.6234 3.08831,-4.0072 0.73878,-1.0606 0.91287,-1.4576 2.06045,-3.2848 l 0.40652,-0.05 c -0.92357,1.9038 -1.44588,3.688 -2.1111,5.6597 -0.55972,1.6392 -1.17666,2.7915 -1.53659,4.4784 1.45548,-0.1806 2.96374,-0.8295 5.63457,-1.631 2.67084,-0.8014 4.96668,-0.8475 6.74343,-0.9968 -1.00088,1.0511 -2.49307,4.8377 -2.66988,5.7592 1.10939,-0.7199 2.64185,-1.2607 3.99459,-1.8172 1.71831,-0.7069 3.26881,-1.1848 5.22887,-1.9301 1.96006,-0.7453 4.69627,-1.359 6.76812,-1.4765 -0.62149,0.9567 -0.79824,1.6321 -1.095,2.4886 -0.20506,0.5918 -0.31315,1.1105 -0.46967,1.8196 0.39871,-0.119 1.49936,-0.545 2.28036,-0.6866 0.56412,-0.1022 1.14306,-0.096 1.71606,-0.1136 0.66247,-0.02 1.32763,-0.042 1.9883,0.011 0.61007,0.049 1.19211,0.1393 1.81428,0.2828 -0.25195,-0.7534 -0.63245,-1.5587 -0.89978,-2.3556 -0.17386,-0.5184 -0.34214,-0.8402 -0.45709,-1.5753 0.32794,0 1.30969,0.088 1.95188,0.2152 1.25504,0.248 3.10006,0.9567 3.68844,1.0621 1.88672,0.6481 3.73266,1.3925 5.56315,2.1723 1.83049,0.7798 4.83873,2.0925 6.66366,2.8826 -0.37348,-1.1355 -0.90871,-1.9203 -1.44125,-2.7353 -0.53254,-0.815 -1.26125,-2.8537 -1.42508,-3.6121 6.36095,1.1082 6.99554,1.7897 10.151,2.8701 -1.23031,-4.2542 -3.0601,-8.8616 -4.45228,-12.3391 l 0.69733,0.291 c 0.67019,1.3882 1.74798,3.1936 2.67073,4.3965 0.92275,1.2029 2.0574,2.2847 3.23197,3.2685 2.22216,1.8612 4.61857,3.5408 7.15983,4.9347 2.58839,1.4198 5.37549,2.4607 8.15743,3.4484 2.84813,1.0112 4.75438,1.4171 8.70775,2.5263 z"
       id="path8971"
       style="fill:#ffffff;stroke:none" />
    <path
       inkscape:connector-curvature="0"
       d="m 243.70462,1415.2178 c -1.44627,-1.2247 -1.67662,-1.4716 -4.18585,-3.8473 l 0.67294,-0.3288 c 0,0 3.57948,2.9624 5.33836,4.4798 1.84574,1.5923 5.47141,4.8522 5.47141,4.8522 l -0.20224,0.3726 c -2.39133,-1.7167 -4.80663,-3.5911 -7.09462,-5.5285 z"
       id="path8969"
       style="fill:#ff0000;stroke:none" />
    <path
       inkscape:connector-curvature="0"
       d="m 133.70716,1419.0569 c 0.36691,-0.8755 0.8777,-1.6864 1.35014,-2.5108 0.86409,-1.5079 1.71455,-3.03 2.71325,-4.4518 0.43727,-0.6225 1.01935,-1.3404 1.43012,-1.7781 l 0.53212,0.3501 c -1.09245,2.0387 -2.46591,4.1682 -3.83291,6.1643 -0.57736,0.843 -1.47203,1.7755 -1.84194,2.4499 z"
       id="path8967"
       style="fill:#ff0000;stroke:none" />
    <path
       inkscape:connector-curvature="0"
       d="m 149.60468,1417.897 c 0.9242,-0.8482 1.82699,-1.2776 2.83118,-2.0333 1.97471,-1.4372 3.97484,-2.8417 5.98257,-4.2357 0.18855,0.1763 0.3771,0.3526 0.56565,0.5289 -0.58451,0.6336 -1.95681,1.5793 -2.98375,2.3032 -1.65543,1.167 -2.97175,2.1308 -5.11343,3.2824 -0.56031,0.2869 -1.13373,0.549 -1.69934,0.8259 0.0882,-0.1335 0.32891,-0.5379 0.41712,-0.6714 z"
       id="path8965"
       style="fill:#ff0000;stroke:none" />
    <path
       inkscape:connector-curvature="0"
       d="m 264.61989,1417.6938 c -0.86681,-1.2582 -2.26634,-2.87 -3.4554,-4.2585 -0.67231,-0.7851 -2.07872,-2.301 -2.07872,-2.301 0.15266,-0.1427 0.30532,-0.2855 0.45798,-0.4282 0,0 1.27641,1.2186 1.84973,1.8874 1.46549,1.7094 3.20642,3.9901 4.04525,5.4095 z"
       id="path8963"
       style="fill:#ff0000;stroke:none" />
    <path
       inkscape:connector-curvature="0"
       d="m 148.95433,1380.8086 c 0.86056,-2.1835 1.84255,-4.403 3.32541,-6.2322 1.87301,-2.3105 4.1865,-4.0196 6.83327,-5.7388 0.15802,2.1202 -0.13588,4.321 -0.24951,6.3167 -0.11776,2.068 0.0188,4.1427 0.0281,6.2141 1.17944,-1.2307 2.35888,-2.4615 3.53832,-3.6923 0.8923,0.8931 1.8491,1.7369 2.55701,2.7659 0.95044,1.3815 1.69508,2.905 2.21193,4.492 0.64912,1.9931 0.76579,4.4163 1.07714,6.1953 -0.57144,-0.06 -0.73017,-0.06 -1.34152,-0.092 2.01609,4.5029 3.98774,9.5252 4.73149,14.406 -1.58018,-0.1006 -2.98578,-0.9661 -4.45809,-1.4788 -1.03523,3.5407 -0.85531,4.1318 -1.92387,7.6847 -0.63382,1.3178 -1.26766,2.6356 -1.90149,3.9533 -0.62045,-1.4689 -1.699,-3.0863 -2.50627,-4.6519 -1.18451,-2.2971 -2.16775,-3.9114 -3.42845,-6.9547 -0.96576,0.2427 -1.0748,0.3211 -1.57631,0.5615 -0.59596,0.2858 -1.16944,0.5954 -1.68187,1.0372 -0.50918,-0.8703 -0.62434,-1.4139 -0.83604,-2.1522 -0.58466,-2.0391 -0.96107,-4.1383 -1.18529,-6.2426 -0.17775,-1.6682 -0.16268,-3.353 -0.12357,-5.0295 0.0245,-1.0518 0.14971,-2.0992 0.22457,-3.1488 -1.51776,-0.057 -3.05982,0.067 -4.8935,0.019 0.25072,-3.1788 0.6185,-5.796 1.5785,-8.2319 z"
       id="path8961"
       style="fill:#ff0000;stroke:none" />
    <path
       inkscape:connector-curvature="0"
       d="m 157.65076,1371.8504 c -1.4721,0.7768 -2.12662,1.6129 -3.00841,2.5914 -1.50523,1.6704 -2.90749,3.4771 -3.82405,5.5188 -1.05637,2.3531 -1.62554,4.8902 -1.8239,7.5197 1.36921,-0.1063 3.90684,-0.4288 5.01072,-0.592 -0.19659,0.7325 -0.63433,2.048 -0.7646,3.1039 -0.2171,1.7595 -0.16444,3.5493 -0.0199,5.3158 0.21755,2.658 0.6572,5.3056 1.33077,7.8955 1.37486,-0.9303 1.96285,-1.3474 3.39915,-1.8663 1.29559,3.6225 2.23429,5.2004 3.32706,7.2995 l 2.12717,3.9245 c 0.66356,-1.6208 0.9099,-2.7052 1.23936,-4.0918 0.52102,-2.1929 0.5866,-3.9784 1.16034,-6.662 1.27156,0.2637 2.77728,1.0762 3.98064,1.5428 0.11786,-0.5524 -0.16321,-1.221 -0.32999,-1.8116 -0.94275,-3.3386 -2.54696,-6.4542 -3.76556,-9.7007 -0.39687,-1.0573 -0.74714,-1.7796 -1.15472,-3.1842 0.80055,0.2679 1.34924,0.3166 2.02387,0.4749 -0.23716,-1.39 -0.15022,-2.8677 -0.65284,-4.1875 -0.68669,-1.8032 -1.91644,-3.4608 -3.13799,-4.8612 -0.74177,0.6374 -1.50852,1.2441 -2.30364,1.8117 -0.98207,0.701 -1.25422,1.1858 -3.04077,1.9638 -0.14528,-4.2027 0.0229,-8.1054 0.22726,-12.005 z"
       id="path8959"
       style="fill:#ffffff;stroke:none" />
    <path
       inkscape:connector-curvature="0"
       d="m 158.6281,1397.9469 c -0.99407,-1.5567 -2.11035,-3.1168 -2.57848,-4.8877 -0.23309,-0.8817 -0.2128,-1.8274 -0.0808,-2.7283 0.10003,-0.6824 0.33063,-1.3543 0.65282,-1.9698 0.35232,-0.673 0.68844,-1.4695 1.37375,-1.8339 0.57704,-0.3067 1.34867,-0.3219 1.97359,-0.12 0.73233,0.2366 1.25695,0.888 1.75641,1.4553 0.42014,0.4772 0.85615,0.9966 1.01236,1.6038 0.52544,2.0425 -0.30317,4.1987 -0.39645,6.301 -0.0923,2.0792 -0.006,4.1653 -0.16133,6.2416 -0.54303,-0.5165 -0.93629,-0.7276 -1.33869,-1.155 -0.83805,-0.8902 -1.55964,-1.8836 -2.21322,-2.907 z"
       id="path8957"
       style="fill:#ff0000;stroke:none" />
    <path
       inkscape:connector-curvature="0"
       d="m 161.15816,1394.8053 c 0.11563,-0.8792 0.35206,-1.7495 0.36303,-2.6357 0.0128,-1.0348 0.10668,-2.1486 -0.34759,-3.0866 -0.31548,-0.6514 -0.86368,-1.2741 -1.55042,-1.5561 -0.34377,-0.1411 -0.78849,-0.1639 -1.12118,0 -0.6305,0.3107 -1.02516,1.0103 -1.24284,1.6591 -0.4224,1.2591 -0.34871,2.6896 0,3.9694 0.42246,1.5505 1.55683,2.838 2.45182,4.1897 0.3456,0.522 0.88542,1.1878 1.12377,1.5093 0.0291,-0.4197 0.016,-1.3506 0.0696,-2.0235 0.054,-0.6781 0.16507,-1.3509 0.2538,-2.0256 z"
       id="path8955"
       style="fill:#ffffff;stroke:none" />
    <path
       inkscape:connector-curvature="0"
       d="m 158.69966,1393.4914 c -0.242,-0.4882 -0.53303,-0.9699 -0.64212,-1.5006 -0.14339,-0.6974 -0.3187,-1.4916 0,-2.133 0.22125,-0.4452 0.68484,-0.9293 1.19756,-0.9293 0.47487,0 0.86209,0.4703 1.10914,0.8607 0.37329,0.5899 0.44705,1.3395 0.43173,2.0301 -0.0132,0.5922 -0.31251,1.146 -0.44707,1.724 -0.14583,0.6263 -0.26014,1.259 -0.39021,1.8885 -0.21476,-0.3203 -0.4773,-0.6085 -0.6869,-0.9314 -0.21093,-0.325 -0.40071,-0.6632 -0.57213,-1.009 z"
       id="path8953"
       style="fill:#ff0000;stroke:none" />
    <path
       inkscape:connector-curvature="0"
       d="m 154.27584,1396.127 c -0.15255,-1.4257 -0.10948,-2.8736 0.0264,-4.3014 0.0918,-0.9642 0.184,-2.0339 0.53074,-2.8595 l 0.63929,0.098 c -0.30122,0.6696 -0.26476,1.4357 -0.33393,2.1615 -0.13161,1.3808 -0.24686,2.7744 -0.15298,4.1583 0.1166,1.7189 0.37005,3.4414 0.88579,5.092 l -0.54812,0.3489 c -0.51092,-1.7014 -0.87649,-3.1024 -1.04719,-4.6975 z"
       id="path8951"
       style="fill:#ff0000;stroke:none" />
    <path
       inkscape:connector-curvature="0"
       d="m 165.12814,1396.9464 c -0.34995,-0.6515 -1.04986,-1.9545 -1.04986,-1.9545 l 0.44379,0.014 c 0.29757,0.3824 0.73947,0.9764 1.0769,1.4869 0.32189,0.487 0.90227,1.5011 0.90227,1.5011 -0.10775,0.3022 -0.21549,0.6044 -0.32324,0.9067 0,0 -0.6999,-1.303 -1.04986,-1.9544 z"
       id="path8947"
       style="fill:#ff0000;stroke:none" />
    <path
       inkscape:connector-curvature="0"
       d="m 163.33347,1384.519 -0.82582,-2.2614 0.44769,0.1396 0.44769,0.1395 0.29002,0.9088 c 0.15951,0.4998 0.47112,1.4547 0.69248,2.1219 l 0.40245,1.213 h -0.31435 -0.31435 z"
       id="path8945"
       style="fill:#ff0000;stroke:none" />
    <path
       inkscape:connector-curvature="0"
       d="m 152.11892,1380.9108 c 0.71543,-1.6865 1.70882,-3.6245 2.73942,-4.7647 l 0.73877,0.2695 c -0.62006,0.6798 -1.03929,1.6192 -1.55169,2.4584 -0.51239,0.8392 -1.07947,2.3022 -1.60995,3.8921 l -0.96451,2.8908 -0.78957,0.2418 c 0.53916,-1.9354 0.76181,-3.3949 1.43753,-4.9879 z"
       id="path8943"
       style="fill:#ff0000;stroke:none" />
    <path
       inkscape:connector-curvature="0"
       d="m 255.77375,1413.9326 c -2.01493,-1.6199 -3.60043,-3.7426 -5.08358,-5.8626 -0.7081,-1.0121 -1.45448,-2.0538 -1.79862,-3.241 -0.45428,-1.5672 -0.55967,-3.2796 -0.28273,-4.8879 0.37723,-2.1908 1.35297,-4.2984 2.58972,-6.1454 0.44446,-0.6637 1.30062,-1.7616 1.68744,-1.7014 -0.2676,1.0162 -0.21001,1.7168 -0.0951,2.5643 0.16091,1.1866 0.60284,2.3281 1.08428,3.424 0.6972,1.587 1.5102,3.1531 2.58887,4.5086 0.93475,1.1747 2.04671,2.2385 3.3012,3.0608 1.23234,0.8078 2.69858,1.1815 4.04787,1.7722 -0.22137,0.2308 -2.00623,0.674 -3.04149,0.8787 -1.25774,0.2486 -1.81623,0.1527 -3.82337,0.4188 0.28931,2.0175 0.24981,4.035 0.37471,6.0525 -0.6593,-0.042 -1.09099,-0.4733 -1.54922,-0.8416 z"
       id="path8941"
       style="fill:#ff0000;stroke:none" />
    <path
       inkscape:connector-curvature="0"
       d="m 254.4611,1406.7493 c 0.90543,-0.1244 1.81085,-0.2488 2.71628,-0.3732 -0.74278,-0.8243 -1.47413,-1.6585 -2.10601,-2.5677 -1.21031,-1.7414 -2.53914,-3.4825 -3.20498,-5.4974 -0.25052,-0.7581 -0.26452,-1.8968 -0.26452,-2.3811 -0.69073,0.6774 -1.3229,2.7654 -1.4182,3.6092 -0.16706,1.652 -0.16175,3.3834 0.32407,4.9707 0.30051,0.9819 0.95782,1.8231 1.55413,2.6582 0.80932,1.1334 1.89151,2.3568 2.72651,3.1646 -0.17149,-1.5044 -0.0686,-1.4661 -0.32728,-3.5833 z"
       id="path8939"
       style="fill:#ffffff;stroke:none" />
    <path
       inkscape:connector-curvature="0"
       d="m 140.09929,1414.311 c 0.46701,-1.6535 1.58296,-3.7816 1.9084,-5.4657 -1.59025,-0.1698 -3.61657,-0.6866 -5.22174,-1.2897 1.05133,-0.4041 1.9632,-0.7891 2.84467,-1.3628 1.59807,-1.0401 3.20508,-2.2112 4.35017,-3.7175 0.89214,-1.1736 1.48966,-2.572 1.84256,-3.986 0.52488,-2.1032 0.2375,-4.32 0.35625,-6.48 0.72736,0.7427 1.0099,1.0957 1.41372,1.6343 1.23408,2.3859 2.3975,4.8614 2.87967,7.4795 0.28634,1.5547 0.29092,3.1864 -0.0197,4.7368 -0.2661,1.3283 -0.83286,2.6196 -1.55203,3.7733 -0.76106,1.2209 -1.70104,2.38 -2.86007,3.23 -1.01838,0.7467 -2.21997,1.3018 -3.45883,1.5411 -0.81332,0.1572 -1.67301,0.065 -2.48311,-0.093 z"
       id="path8937"
       style="fill:#ff0000;stroke:none" />
    <path
       inkscape:connector-curvature="0"
       d="m 146.68288,1410.4303 c 1.07136,-0.9695 1.94089,-2.2559 2.39296,-3.6177 0.60571,-1.8247 0.62627,-3.8481 0.30799,-5.739 -0.25822,-1.5342 -1.41737,-3.601 -1.76447,-4.342 0.1516,1.7464 -0.54957,3.6825 -1.39121,5.3043 -0.98582,1.8996 -3.34144,3.9061 -4.1394,4.9034 0.97215,0.021 2.19512,0.069 2.60058,-0.031 -0.53628,1.3656 -1.85232,4.3508 -2.25921,5.7596 1.77701,-0.2335 3.06431,-1.1619 4.25276,-2.2373 z"
       id="path8935"
       style="fill:#ffffff;stroke:none" />
    <path
       inkscape:connector-curvature="0"
       d="m 187.4692,1411.0451 h -3.46453 l 3.19349,-3.0212 v -2.2043 l 4.05032,0.9587 2.44612,-0.8555 -0.61107,3.3021 2.23975,2.1859 -4.73203,-0.306 -2.16007,1.9147 z"
       id="path8933"
       style="fill:#ff0000;stroke:none" />
    <path
       inkscape:connector-curvature="0"
       d="m 222.30947,1410.7941 c -0.92669,-1.1963 -2.95906,-3.3929 -4.51638,-4.8812 l -2.83148,-2.7061 c 0.35888,0 0.33436,0.048 0.69324,0.048 l 2.65899,2.0983 c 1.35057,1.0657 3.13329,3.2913 4.18161,4.6909 l 1.90601,2.5447 c -0.13571,0.1269 -0.27141,0.2538 -0.40711,0.3807 z"
       id="path8931"
       style="fill:#ff0000;stroke:none" />
    <path
       inkscape:connector-curvature="0"
       d="m 207.58471,1411.4673 -0.4347,-0.7595 -3.98439,0.4412 1.86558,-2.5813 -0.88783,-2.0661 4.06564,0.025 3.81198,-2.2559 -0.60052,4.0784 1.74147,2.4046 -3.71845,0.2914 -1.42408,1.1817 -0.4347,-0.7594 z"
       id="path8929"
       style="fill:#ff0000;stroke:none" />
    <path
       inkscape:connector-curvature="0"
       d="m 232.79946,1407.6824 c -0.51508,-1.6963 -0.44355,-2.5422 -0.54126,-5.2919 -0.64574,-0.045 -1.78518,0.3824 -2.64835,0.6738 -0.70128,0.2366 -0.93521,0.5299 -2.04382,0.8685 0.66689,-2.8549 1.56687,-6.2387 2.79174,-9.2 0.81406,-1.9682 2.21991,-4.3873 3.00569,-5.6383 -0.66083,0.089 -1.38114,0.3508 -2.11863,0.7441 0.17224,-1.7699 0.047,-4.3411 0.67509,-6.388 0.83765,-2.7301 2.68848,-5.0611 4.03272,-7.5581 1.3297,0.8106 1.53548,1.2254 2.21736,1.7686 1.04952,-2.0471 1.45064,-3.3778 2.14983,-5.0777 0.40167,-0.9765 0.68942,-1.9094 1.17486,-2.9418 1.30052,1.2657 3.17477,2.7375 4.4083,4.4108 1.35122,1.8329 2.38087,3.9229 3.18754,6.0427 1.0751,2.8251 1.42333,5.8628 1.68148,8.8636 -0.63317,0.084 -1.26635,0.1675 -1.89952,0.2512 -0.55573,4.4876 -0.69865,9.1534 -2.89204,13.2569 -0.54279,1.1204 -1.09802,2.2351 -1.64665,3.3528 -0.98004,-0.9405 -1.71935,-1.7688 -2.34921,-2.4349 -0.62424,0.6662 -1.6692,2.2898 -2.60892,3.3467 -1.44673,1.6271 -2.25068,2.515 -4.64571,4.5898 -1.22192,-1.7866 -1.53142,-2.3245 -1.9305,-3.6388 z"
       id="path8927"
       style="fill:#ff0000;stroke:none" />
    <path
       inkscape:connector-curvature="0"
       d="m 237.68873,1406.715 c 1.62377,-1.8072 2.78265,-4.0009 3.9579,-6.121 1.03166,0.5477 1.78336,0.9665 2.56738,1.5636 0.52094,-0.8552 1.10242,-1.6778 1.4828,-2.6006 0.69561,-1.6875 1.15039,-3.4829 1.42819,-5.2875 0.38941,-2.5298 0.21332,-5.1149 0.31998,-7.6724 0.56365,0.063 1.12731,0.1256 1.69096,0.1884 -0.48928,-2.325 -0.74275,-4.7564 -1.72168,-6.9236 -1.28316,-2.8408 -3.0656,-5.4636 -5.31701,-7.6921 -0.55998,1.7237 -0.83604,2.5258 -1.32393,3.7626 -0.71806,1.8203 -1.28342,2.8254 -2.35679,5.3764 -0.74921,-0.7278 -1.47199,-1.3056 -2.16673,-2.0062 -1.01288,1.0962 -1.71304,1.867 -2.29551,2.9762 -0.36493,0.695 -0.5699,1.4717 -0.71854,2.2424 -0.21406,1.1098 -0.12598,2.0491 -0.24043,3.3823 1.29556,-0.1398 2.17671,-0.4293 3.1523,-0.6143 -0.83239,1.8467 -2.1192,3.7326 -2.9699,5.5678 -1.59225,2.2053 -2.77348,5.3931 -3.4116,7.9919 1.05945,-0.1486 3.47795,-0.678 4.31523,-1.1353 -0.30147,1.7732 -0.60451,3.1182 -0.42916,4.6723 0.17403,1.5425 0.76454,2.9519 1.44843,4.4255 1.08743,-0.4862 1.84607,-1.2705 2.58811,-2.0964 z"
       id="path8925"
       style="fill:#ffffff;stroke:none" />
    <path
       inkscape:connector-curvature="0"
       d="m 243.65673,1398.6345 c 0.56516,-2.122 1.06717,-4.2671 1.39563,-6.4386 0.25216,-1.6669 0.4292,-3.3593 0.4385,-5.0389 0.43066,0 0.27958,0 0.71024,0 0.0306,2.7722 -0.28852,5.837 -0.80011,8.7057 -0.17923,1.005 -0.41246,2.0107 -0.79118,2.9584 -0.092,0.2303 -0.23737,0.4355 -0.35605,0.6532 -0.28781,0 -0.5756,0 -0.8634,0 0.0888,-0.2799 0.19078,-0.556 0.26637,-0.8398 z"
       id="path8923"
       style="fill:#ff0000;stroke:none" />
    <path
       inkscape:connector-curvature="0"
       d="m 231.82149,1398.8664 -0.43636,-0.4882 c 1.39385,-3.3757 2.08553,-4.5028 4.40046,-7.3458 l 0.39705,0.4901 c -2.13411,2.7865 -2.73561,3.8693 -4.36115,7.3439 z"
       id="path8921"
       style="fill:#ff0000;stroke:none" />
    <path
       inkscape:connector-curvature="0"
       d="m 238.0262,1395.4619 c 0.0649,-2.4578 -0.81943,-4.9798 -0.25208,-7.3717 0.27721,-1.1688 0.78837,-2.4126 1.7272,-3.1607 0.54603,-0.4351 1.31762,-0.5712 2.0157,-0.5684 0.67462,0 1.4133,0.1478 1.94341,0.5653 0.48766,0.384 0.76937,1.0151 0.92516,1.6163 0.31659,1.2219 0.22781,2.5552 -0.0478,3.787 -0.22105,0.988 -0.67767,1.935 -1.25937,2.7627 -1.16451,1.6569 -2.79674,2.9393 -4.34647,4.2408 -0.29168,0.245 -0.84557,0.9189 -0.92717,0.6676 -0.006,-0.717 0.19899,-1.6897 0.22141,-2.5389 z"
       id="path8919"
       style="fill:#ff0000;stroke:none" />
    <path
       inkscape:connector-curvature="0"
       d="m 241.68593,1392.5989 c 0.33452,-0.5033 0.7481,-0.9734 0.95346,-1.5421 0.43065,-1.1925 0.95111,-2.5722 0.52902,-3.7678 -0.2036,-0.5767 -0.77101,-1.0275 -1.33871,-1.2517 -0.46349,-0.1831 -1.04881,-0.2232 -1.49445,0 -0.61709,0.3091 -1.03908,0.9983 -1.24283,1.6591 -0.58408,1.8943 0.20101,3.9606 0.26404,5.9424 0.0199,0.6265 -0.0444,1.4251 0.0361,1.8803 0.37269,-0.2921 0.85842,-0.9573 1.25446,-1.4633 0.36757,-0.4697 0.70875,-0.9601 1.03893,-1.4569 z"
       id="path8917"
       style="fill:#ffffff;stroke:none" />
    <path
       inkscape:connector-curvature="0"
       d="m 239.89691,1389.8631 c -0.19023,-0.9391 -0.42472,-2.2578 0.32326,-2.8564 0.52789,-0.4224 1.55683,-0.2761 2.016,0.2202 0.45663,0.4935 0.20542,1.3592 0.0634,2.0165 -0.12946,0.599 -0.50077,1.1215 -0.81141,1.6497 -0.3763,0.6398 -0.72527,1.3004 -1.26862,1.8301 -0.005,-1.0525 -0.1346,-1.932 -0.32258,-2.8601 z"
       id="path8915"
       style="fill:#ff0000;stroke:none" />
    <path
       inkscape:connector-curvature="0"
       d="m 234.31095,1385.5707 c 0.0125,-0.6644 1.4034,-3.0901 1.78297,-3.5813 l 0.25276,0.3298 c -0.60424,1.2687 -0.97131,2.4493 -1.39852,3.7181 z"
       id="path8913"
       style="fill:#ff0000;stroke:none" />
    <path
       inkscape:connector-curvature="0"
       d="m 246.52021,1383.6112 c -0.16542,-0.6159 -1.04742,-2.5475 -1.95999,-4.2924 -0.64336,-1.2462 -1.30827,-2.4813 -1.94165,-3.7325 h 0.40771 0.40772 l 1.45898,2.8927 c 0.80245,1.5909 1.63794,3.2455 1.85665,3.6768 l 0.39767,0.7841 -0.16317,0.8955 -0.16316,0.8955 z"
       id="path8911"
       style="fill:#ff0000;stroke:none" />
    <path
       inkscape:connector-curvature="0"
       d="m 175.02658,1412.5192 c 1.01578,-1.2944 2.997,-3.3327 4.55552,-4.9423 1.38631,-1.4318 4.26318,-4.192 4.26318,-4.192 l 0.63945,0.3484 c -1.68507,1.9077 -4.26655,4.5492 -9.26417,9.3049 z"
       id="path8909"
       style="fill:#ff0000;stroke:none" />
    <path
       inkscape:connector-curvature="0"
       d="m 132.5096,1410.4479 c 0.50896,-1.1366 1.18893,-2.1929 1.8274,-3.2638 1.28411,-2.1537 2.54456,-4.3316 4.02645,-6.3537 0.31117,-0.4246 0.61958,-0.8544 1.01725,-1.2075 l 0.41864,0.3636 c -0.91952,1.8202 -2.50748,3.9014 -3.67914,5.902 -0.44712,0.7634 -0.82386,1.5672 -1.27769,2.3266 -0.50064,0.8378 -1.06319,1.6368 -1.59235,2.4567 z"
       id="path8907"
       style="fill:#ff0000;stroke:none" />
    <path
       inkscape:connector-curvature="0"
       d="m 265.81467,1408.371 c -1.51998,-2.5214 -3.08644,-5.0205 -4.80632,-7.4092 -0.38464,-0.5343 -0.82014,-1.0298 -1.23021,-1.5446 0.15705,-0.1469 0.3141,-0.2937 0.47115,-0.4406 0.92601,0.9831 2.08119,2.4631 2.98019,3.7978 1.30543,1.938 2.25741,3.7712 3.48442,6.083 -0.13737,0.1285 -0.27474,0.2569 -0.41211,0.3853 -0.16237,-0.2906 -0.31528,-0.5867 -0.48712,-0.8717 z"
       id="path8905"
       style="fill:#ff0000;stroke:none" />
    <path
       inkscape:connector-curvature="0"
       d="m 188.79491,1404.7034 c -3.13616,-0.9963 -5.00392,-4.2623 -7.96155,-5.6769 -2.64617,-1.2656 -6.05224,-0.814 -8.50745,-2.3966 -1.37184,-0.8842 -2.49235,-2.2421 -3.09682,-3.7211 -0.64742,-1.584 -0.2217,-3.3985 -0.39351,-5.0927 -0.17411,-1.7168 -0.0706,-3.5036 -0.64559,-5.1373 -0.76276,-2.1671 -2.70144,-3.8032 -3.6231,-5.9123 -0.44898,-1.0275 -1.01436,-2.119 -0.90448,-3.2287 0.12916,-1.3043 1.00699,-2.4609 1.78888,-3.5333 1.34636,-1.8466 3.69043,-2.9225 4.89663,-4.8568 1.26717,-2.0322 0.68628,-4.9463 2.259,-6.7698 1.0564,-1.2249 2.82552,-1.7049 4.36388,-2.272 3.07438,-1.1332 6.49655,-1.0894 9.57747,-2.2046 3.41772,-1.2372 6.21863,-3.9955 9.73249,-4.9232 1.56463,-0.413 3.2686,-0.569 4.84833,-0.2318 4.31768,0.9216 7.45637,4.875 11.73113,5.9665 2.78022,0.7098 5.93406,-0.71 8.62448,0.2695 1.61979,0.5896 2.98262,1.8401 4.0048,3.1859 2.02835,2.6704 2.0198,6.4062 3.84838,9.2071 1.15253,1.7654 3.64492,2.6594 4.37966,4.6208 0.64078,1.7107 0.21459,3.6914 -0.26881,5.4493 -0.62389,2.2687 -2.74251,3.9951 -3.31312,6.2769 -0.81721,3.2679 1.36055,6.9984 -0.0248,10.0837 -0.75947,1.6914 -2.51065,2.8842 -4.17344,3.7969 -2.06829,1.1352 -4.66605,1.0185 -6.86592,1.8951 -3.50523,1.3967 -6.30566,4.315 -9.95669,5.3069 -1.90042,0.5163 -3.9447,0.3212 -5.9181,0.2535 -2.16875,-0.074 -4.29839,-0.805 -6.46686,-0.7234 -1.93765,0.073 -3.77323,1.1961 -5.70851,1.0784 -0.78022,-0.047 -1.45455,-0.5901 -2.22635,-0.71 0,0 -2e-5,0 -2e-5,0 z"
       id="path8903"
       style="fill:#ff0000;stroke:none" />
    <path
       inkscape:connector-curvature="0"
       d="m 194.6534,1403.9674 c 1.32295,-0.237 2.64629,-0.5939 3.99187,-0.5795 2.52623,0.027 4.94519,1.3847 7.46755,1.2475 1.45818,-0.079 3.04573,-0.3297 4.20515,-1.1848 3.69175,-2.7225 5.32939,-4.6209 11.01064,-5.4779 2.50667,-0.3782 5.14603,-1.4786 6.76469,-3.3596 0.7603,-0.8835 0.84183,-2.1646 1.01946,-3.2991 0.4146,-2.6481 -0.59303,-5.4362 0.0839,-8.0337 0.68436,-2.6259 3.46358,-4.5248 3.90774,-7.1982 0.21783,-1.3111 -0.0992,-2.7327 -0.67708,-3.9296 -1.2094,-2.5049 -4.24892,-3.7688 -5.55826,-6.2229 -1.00273,-1.8794 -0.57852,-4.3149 -1.58874,-6.1903 -0.59351,-1.1017 -1.47766,-2.0717 -2.52306,-2.7797 -0.99691,-0.6752 -2.21304,-1.0371 -3.40454,-1.2843 -2.53325,-0.5256 -5.26446,0.276 -7.76409,-0.382 -3.91944,-1.0319 -6.80564,-4.7136 -10.79664,-5.4485 -1.55174,-0.2857 -3.19831,0.032 -4.71358,0.4775 -2.85971,0.8416 -5.235,2.876 -7.97032,4.0626 -2.4575,1.0661 -5.63726,1.4665 -8.33637,2.0837 -2.69912,0.6172 -4.50419,0.9539 -6.36201,2.8874 -1.4839,1.5443 -1.03572,4.6957 -2.36542,6.6259 -1.22186,1.7735 -3.65572,2.4674 -4.90973,4.1932 -0.67239,0.9254 -1.27461,2.0226 -1.29114,3.1518 -0.0242,1.6509 1.11805,3.1231 1.75209,4.6572 0.85382,2.0659 2.12657,3.9799 2.76103,6.1177 0.39509,1.3313 0.55451,2.7265 0.6307,4.1091 0.0731,1.3271 -0.57223,2.7127 -0.16853,3.9836 0.47379,1.4915 1.53183,2.9044 2.88017,3.7691 1.495,0.9588 3.55896,0.6077 5.23617,1.227 1.987,0.7337 3.76493,1.9121 5.62196,2.9128 2.71178,1.4612 4.98807,4.0531 8.05883,4.5128 1.02482,0.1534 2.01791,-0.4661 3.03753,-0.6488 z"
       id="path8901"
       style="fill:#ffffff;stroke:none" />
    <path
       inkscape:connector-curvature="0"
       d="m 188.42319,1402.7965 c -2.71838,-1.5737 -4.88966,-3.9539 -7.67268,-5.4192 -2.86553,-1.5087 -6.98767,-1.0303 -9.14235,-3.3932 -0.85821,-0.9412 -0.73799,-2.4112 -0.9203,-3.6512 -0.33103,-2.2516 0.2183,-4.5985 -0.3057,-6.8159 -0.5415,-2.2915 -1.87578,-4.34 -2.88029,-6.4819 -0.48955,-1.0438 -1.54904,-1.9576 -1.53303,-3.1028 0.0194,-1.3875 1.13287,-2.5746 1.96179,-3.7098 1.0469,-1.4338 2.77146,-2.3474 3.74067,-3.8309 1.44193,-2.2071 1.00366,-5.4605 2.9257,-7.2975 1.4707,-1.4056 3.8151,-1.5959 5.81623,-2.1147 2.88631,-0.7482 5.39646,-0.7795 7.87971,-1.712 2.48325,-0.9326 4.93961,-2.7664 8.04904,-4.1352 1.55651,-0.6852 3.952,-0.4111 5.80314,0.1311 2.61369,0.7655 4.37239,3.271 6.91245,4.2393 1.80591,0.6885 3.79487,0.8381 5.7256,1.0424 1.62069,0.1715 3.3348,-0.3237 4.88886,0.1511 1.49404,0.4565 2.91792,1.3358 3.92681,2.4907 0.76273,0.8732 0.99569,2.0726 1.41793,3.1386 0.75883,1.9157 0.8773,4.0994 1.99997,5.8416 1.13036,1.7542 3.68648,2.4726 4.57913,4.3495 0.54711,1.1503 0.52596,2.5476 0.2625,3.7871 -0.59655,2.8067 -3.3751,4.8702 -4.04544,7.6613 -0.65443,2.7249 1.03061,5.7277 0.13828,8.3893 -0.37689,1.1242 -1.21695,2.1339 -2.19914,2.8419 -3.14241,2.2653 -7.56672,2.1847 -11.04312,3.9404 -2.07454,1.0477 -3.49851,3.2777 -5.75512,3.8834 -2.79249,0.7496 -5.78179,-0.4261 -8.67723,-0.5647 -1.33338,-0.064 -2.67311,-0.2349 -4.00305,-0.1228 -2.09387,0.1764 -4.08536,1.4902 -6.17169,1.2445 -0.61679,-0.073 -1.14616,-0.4721 -1.67867,-0.7804 z"
       id="path8899"
       style="fill:#ff0000;stroke:none" />
    <path
       inkscape:connector-curvature="0"
       d="m 211.74814,1398.683 c 1.64806,-0.4688 3.33967,-0.8764 4.86952,-1.6301 1.37049,-0.6751 2.65289,-1.5444 3.78208,-2.5518 1.36927,-1.2216 2.57566,-2.6364 3.55348,-4.1673 1.02417,-1.6035 1.81358,-3.3617 2.36628,-5.1673 0.71491,-2.3355 1.10428,-4.7802 1.19329,-7.2134 0.0684,-1.8697 -0.10674,-3.7609 -0.50958,-5.5911 -0.40647,-1.8467 -1.01417,-3.6765 -1.90669,-5.3573 -0.7918,-1.4911 -1.87493,-2.8352 -3.01115,-4.1032 -0.94965,-1.0599 -1.92542,-2.1523 -3.15456,-2.8999 -2.25394,-1.3709 -4.89516,-2.0889 -7.47247,-2.7457 -4.18729,-1.0672 -8.51503,-1.7342 -12.84288,-1.9062 -2.68766,-0.1069 -5.49279,-0.2572 -8.04988,0.5466 -6.15339,1.9344 -12.10677,5.3183 -16.4447,9.9436 -0.87917,0.9375 -1.31445,2.2034 -1.74313,3.3971 -0.99692,2.7758 -1.87963,5.6861 -1.88047,8.6232 -5.7e-4,2.3608 0.54125,4.7624 1.50757,6.9322 1.5819,3.5521 3.75612,7.0671 6.83681,9.5452 3.15707,2.5395 7.23858,3.9961 11.24436,4.8987 3.86601,0.8711 7.9338,0.4188 11.90424,0.3999 2.33309,-0.011 4.68282,0.017 6.99234,-0.3019 0.93943,-0.1296 1.8554,-0.3925 2.76554,-0.6513 z"
       id="path8897"
       style="fill:#ffffff;stroke:none" />
    <path
       inkscape:connector-curvature="0"
       d="m 212.93094,1360.1724 c -0.34907,0.01 -0.71542,0.043 -1.09493,0.1037 -1.57877,0.2407 -3.24344,0.5877 -4.54123,1.486 -1.74335,1.2068 -2.82362,3.1435 -3.913,4.9249 -1.54786,2.5311 -1.79882,5.7164 -3.6617,8.0871 l -3.73351,-1.6244 c -0.0291,-2.1044 0.3108,-4.9871 1.00518,-6.7738 1.10888,0.1722 2.47097,0.2535 3.28476,-0.034 1.10047,-0.3895 1.42669,-0.6981 2.31549,-1.4343 0.53153,-0.4402 0.98886,-1.1223 0.96928,-1.7971 -0.0226,-0.7771 -0.54561,-1.6052 -1.23852,-2.0045 -0.61756,-0.3558 -1.46082,-0.273 -2.15395,-0.086 -1.73972,0.4684 -3.1069,1.8088 -4.50533,2.8858 -2.40672,-0.474 -4.76525,-1.2503 -7.21571,-1.417 -1.72451,-0.1173 -3.56467,-0.2629 -5.18742,0.3111 -1.1167,0.3949 -2.12544,1.1508 -2.85398,2.0563 -0.65907,0.8191 -1.08951,1.8401 -1.22056,2.8685 -0.11957,0.9382 -0.009,1.9714 0.43079,2.8167 0.4892,0.9408 1.65966,1.5042 2.44113,2.0217 0.25648,2.4645 0.94098,4.888 1.54366,7.3095 -0.69816,0.4035 -1.31325,0.7096 -2.08214,1.2096 -1.18893,0.7732 -1.84426,1.7342 -2.15395,2.3501 -0.67337,1.3393 -0.47539,1.4769 -0.37694,3.5252 -0.97524,-0.16 -2.29395,-1.324 -2.81808,-2.2292 -0.44599,-0.7702 -0.65296,-1.6948 -0.59233,-2.5747 0.0584,-0.8473 0.84222,-1.8277 1.41801,-2.4711 0.71284,-0.7964 1.32204,-1.1028 2.36934,-1.4342 -0.53108,-0.1411 -0.93091,-0.3191 -1.34621,-0.4839 -1.45158,0.6633 -2.853,1.8269 -3.60786,3.2314 -0.51896,0.9657 -0.70425,2.1724 -0.44874,3.2314 0.24194,1.0028 0.98972,1.8608 1.77701,2.5575 1.01134,0.8949 2.46133,1.534 3.70195,1.7959 0.48059,0.9984 1.37244,2.1313 2.31114,2.9388 0.56117,0.4828 1.19119,0.9388 1.90265,1.1751 1.53837,0.5108 3.27773,0.7629 4.86433,0.4147 1.39834,-0.3069 2.67306,-1.142 3.6976,-2.1082 0.96146,-0.9067 1.64433,-2.0943 2.13599,-3.3005 1.05047,-2.577 1.54459,-5.3766 1.63341,-8.1562 0.7862,-0.093 1.1147,-0.4202 1.65136,-0.6739 0.64685,-0.3058 1.2931,-0.6033 1.8847,-1.0196 -0.0258,3.7407 -0.78208,8.3247 -0.0179,11.9924 0.28016,1.3449 1.16173,2.5156 1.68726,3.7844 -1.89063,1.141 -4.31837,0.6658 -6.40799,0.432 l 0.1436,0.4147 c 0.92682,0.2891 2.30977,0.543 3.48221,0.553 1.02326,0.01 2.31723,0.1271 4.15039,-0.5298 0.72829,0.7456 1.41962,0.8534 2.67043,1.2901 0.34633,0.1241 0.69647,0.2767 1.05903,0.3456 1.03733,0.1971 2.10981,0.298 3.15911,0.1728 0.9538,-0.1138 2.4358,-0.5685 3.28477,-1.0022 0.85365,-0.4361 2.70908,-1.2226 3.6128,-2.1399 l -0.18443,-0.7114 c -1.83846,1.6041 -3.89832,2.5378 -6.47979,2.6093 -1.88025,0.052 -4.51394,-0.797 -5.531,-1.8865 0.79642,-0.9977 1.33517,-2.3024 1.68725,-3.5597 1.31962,-4.7122 0.43784,-9.9002 1.74366,-14.616 0.46003,-1.6613 1.24352,-3.2529 2.20779,-4.7002 0.44857,-0.6732 1.4649,-1.9651 2.20779,-2.16 -0.38674,1.3355 -1.2699,3.4702 -1.61545,5.0285 -0.28225,2.7938 -0.81192,3.6678 -0.89748,6.4801 -0.0558,1.8339 0.38497,4.9911 0.68208,6.6183 1.05488,-3.3278 1.43204,-5.4039 2.87193,-8.2945 0.51095,-1.0257 0.98741,-2.8935 1.9924,-3.6288 0,1.3621 -0.98457,4.4729 -0.71799,6.7047 0.18073,1.513 0.79837,2.9154 1.54366,4.3027 0.52664,0.9803 1.26382,1.9594 2.2796,2.4711 1.15094,0.5798 2.60907,0.7892 3.85915,0.4493 0.9573,-0.2604 1.86643,-0.961 2.35138,-1.7972 0.47265,-0.8149 0.44626,-1.8369 0.34105,-2.7648 -0.10799,-0.9523 -0.26839,-2.0679 -0.98723,-2.7303 -0.75112,-0.6921 -1.95252,-1.0023 -2.97962,-0.8467 -0.63122,0.096 -1.03047,0.1983 -1.57956,1.0368 0.73691,0 1.53684,-0.2933 2.20779,0 0.81987,0.3585 1.50439,1.1438 1.77701,1.97 0.27818,0.843 0.22813,1.8942 -0.2872,2.6265 -0.60235,0.8561 -1.78781,1.4989 -2.85397,1.4516 -0.84604,-0.038 -1.5745,-0.7444 -2.15395,-1.3479 -0.86993,-0.906 -1.50639,-2.055 -1.83085,-3.2486 -0.39171,-1.441 -0.19586,-2.9924 -0.0538,-4.4756 0.18249,-1.9079 0.5923,-3.7989 1.16672,-5.6333 0.65261,-2.0841 1.75947,-4.019 2.56678,-6.0481 -0.84326,0.5615 -1.78162,1.0197 -2.53088,1.6935 -2.22082,1.997 -4.22869,5.1671 -5.69,8.2426 0.55645,-2.9083 1.32185,-6.47 2.85397,-9.7978 0.28027,-0.6088 0.34658,-0.5452 0.59234,-1.7453 -1.43234,0.8673 -3.15698,1.3327 -4.43354,2.4019 -0.99067,0.8298 -1.83383,1.8145 -2.53088,2.8858 -0.81232,1.2485 -1.39969,2.6406 -1.86675,4.0436 -0.61376,1.8435 -1.00688,3.7602 -1.22057,5.6851 -0.31089,2.8005 0.35491,5.6663 -0.0898,8.45 -0.16242,1.0168 -0.92628,2.6251 -1.36417,3.5079 -0.36352,-0.9265 -0.91765,-2.1902 -1.09492,-3.3524 -0.27883,-1.8279 0.16297,-3.7 0.0718,-5.5469 -0.0689,-1.3952 -0.17566,-2.7983 -0.46669,-4.1645 -0.15617,-0.7331 -0.20231,-1.3509 -0.68208,-2.1427 2.90433,-4.1659 4.25036,-9.3769 7.7542,-13.0465 0.58513,-0.6129 1.35959,-1.08 2.17189,-1.3652 1.22594,-0.4303 2.58571,-0.6295 3.8771,-0.4493 1.19363,0.1667 2.35606,0.6854 3.32067,1.3825 0.85862,0.6204 1.91291,1.6544 2.49498,2.5229 0.98046,1.4628 1.29312,2.3716 1.65136,4.0781 0.28757,1.3697 0.0616,3.2725 0.0538,4.6656 0.55618,-0.9506 0.4809,-0.7444 0.84363,-1.6243 0.37555,-1.9851 0.27519,-3.6559 -0.37694,-5.5642 -0.48443,-1.4176 -1.3442,-2.4027 -2.40524,-3.4906 -1.31063,-1.3439 -2.96267,-2.4368 -4.75663,-3.0586 -0.95072,-0.3295 -1.87857,-0.5262 -2.92577,-0.5011 z m -11.8826,1.8144 c 0.27772,-0.018 0.54906,0.021 0.77183,0.1555 0.32869,0.1978 0.53871,0.6494 0.48464,1.0195 -0.0538,0.3682 -0.55014,0.5312 -0.75388,0.8468 -0.008,0.01 -0.008,0.026 -0.0179,0.035 -0.0159,0.015 -0.0365,0.021 -0.0538,0.035 -0.4702,0.3568 -0.92284,0.8101 -1.50776,0.9331 -0.79557,0.1673 -1.32707,0.1237 -2.42319,-0.3283 0.51167,-0.8336 1.53782,-2.0392 2.69243,-2.5056 0.24226,-0.098 0.53001,-0.172 0.80773,-0.1901 z m -15.41865,1.6243 c 2.9972,0.029 5.88296,1.1724 8.68758,2.2119 -0.56333,2.3202 -1.20255,5.0908 -1.61546,7.4411 -1.29422,0.098 -2.22224,0.071 -3.01552,0.8361 -0.57617,0.5556 -0.9918,1.3752 -0.96928,2.16 0.0225,0.7809 0.53217,1.5291 1.07697,2.1081 0.75122,0.7985 2.01261,1.1076 2.85398,1.2961 -0.0992,2.3976 0.34153,5.2813 -0.28719,7.6032 -0.32117,1.1861 -0.85577,2.4023 -1.74111,3.2832 -0.99394,0.842 -1.63276,1.1206 -2.74628,1.417 -1.11158,0.2669 -2.38284,0.4447 -3.44631,0.035 -1.11592,-0.4304 -2.01286,-1.4013 -2.58473,-2.4193 -0.17799,-0.3168 -0.59851,-0.7084 -0.64619,-1.0713 0.4999,-0.3352 1.90371,-0.972 2.14313,-1.2276 1.04929,-1.1204 1.61729,-1.3679 2.36221,-2.695 0.51269,-0.9134 0.43613,-1.9208 0.43387,-3.4037 0.50722,-0.039 1.41723,0 1.7085,0.2064 0.64986,0.4687 1.46349,1.0958 1.84243,2.1778 0.36984,1.056 0.20838,2.3774 -0.41284,3.3177 -0.73092,1.1064 -2.17111,1.6159 -3.46426,2.0737 0.69595,0.016 0.55705,-0.01 1.11754,0.076 0.8146,-0.047 2.55708,-0.865 3.04675,-1.5624 0.61643,-0.8779 0.9698,-2.0024 0.87953,-3.0585 -0.0864,-1.0111 -0.83059,-2.5203 -1.53134,-3.2781 -0.80789,-0.8735 -1.77091,-1.5491 -3.28297,-1.514 -0.14367,-0.7483 -0.2527,-1.1326 -0.37566,-1.6995 -0.36487,-1.6825 -0.72024,-3.0992 -1.07442,-5.0516 0.84769,0.085 2.30786,-0.6753 3.01552,-1.3651 0.5234,-0.5101 0.88963,-1.2918 0.80773,-2.0045 -0.0781,-0.68 -0.60584,-1.3137 -1.18467,-1.7107 -0.55042,-0.3775 -1.28078,-0.4896 -1.9565,-0.5011 -0.7185,-0.012 -1.51734,0.062 -2.1001,0.4665 -0.7161,0.4975 -1.53392,1.7618 -1.34621,2.7303 -0.56379,-0.1442 -0.62289,-0.4223 -0.86158,-0.553 -0.31357,-0.1717 -0.47988,-0.5592 -0.55644,-0.8985 -0.12485,-0.5536 -0.0313,-1.1543 0.19745,-1.6762 0.5606,-1.2791 1.52451,-2.4767 2.74628,-3.2141 0.66123,-0.3991 1.49919,-0.5433 2.27959,-0.5357 z m 0.1436,4.9767 c 0.34286,0 0.67395,0.089 0.93337,0.2592 0.33625,0.2202 0.43857,0.7146 0.44874,1.1059 0.008,0.3161 -0.0982,0.6531 -0.30514,0.8986 -0.26076,0.3094 -0.67524,0.509 -1.07697,0.6048 -0.55921,0.1334 -0.79675,0.074 -1.72316,-0.086 -0.2784,-1.2083 0.06,-1.9993 0.78978,-2.5229 0.25155,-0.1805 0.59051,-0.2619 0.93338,-0.2592 z m 5.69,6.2036 c 0.29248,-0.039 0.62384,0.063 0.91543,0.034 v 1.2788 1.8662 c 0.13905,0.4569 -0.8126,0.2398 -1.14877,0.052 -0.46732,-0.2611 -0.72545,-0.863 -0.75388,-1.3824 -0.0343,-0.6259 0.19036,-1.3954 0.71798,-1.7626 0.0812,-0.056 0.17174,-0.073 0.26924,-0.086 z m 4.52328,0.034 c 0.8131,0.1351 1.18399,0.2645 1.70521,0.553 0.44469,0.2461 0.98242,0.4744 1.14877,0.985 -0.45626,0.6051 -0.90522,0.8592 -1.43596,1.1923 -0.41928,0.2631 -0.84656,0.6221 -1.34622,0.6221 0,-0.7465 -0.0718,-2.6059 -0.0718,-3.3524 z m -11.88259,6.722 c 0.20375,1.1843 0.14514,1.5572 -0.0718,2.2982 -0.18767,0.6411 -0.59437,1.2226 -1.02312,1.7453 -0.2433,0.2967 -0.5442,0.5552 -0.86158,0.7776 -0.49941,0.3501 -1.15726,0.8023 -1.61546,0.864 0,-0.5713 -0.29188,-1.4461 -0.14359,-2.1427 0.17267,-0.8112 0.56709,-1.6182 1.16672,-2.2118 0.67674,-0.6701 1.04464,-1.06 2.54883,-1.3306 z"
       id="path8895"
       style="fill:#ff0000;stroke:none" />
    <path
       inkscape:connector-curvature="0"
       d="m 133.70716,1400.3525 c 0,-0.672 8.17975,-9.0897 8.83285,-9.0897 0.21109,0.2725 0.34844,0.4004 0.34844,0.8191 l -1.93911,1.6301 c -1.06651,0.8966 -2.97304,2.8118 -4.23675,4.2561 -1.02736,1.1742 -1.77872,1.9498 -2.27323,2.3421 -0.4098,0.1213 -0.4611,0.029 -0.7322,0.042 z"
       id="path8881"
       style="fill:#ff0000;stroke:none" />
    <path
       inkscape:connector-curvature="0"
       d="m 260.94744,1396.0488 c -0.93457,-0.7512 -1.85668,-1.5202 -2.8297,-2.2209 -0.732,-0.527 -1.50632,-0.9927 -2.25949,-1.489 0,-0.2484 0,-0.4967 0,-0.7451 0.51537,0.3148 1.04435,0.6082 1.54608,0.9442 1.10172,0.738 2.17413,1.5219 3.20959,2.3504 0.77036,0.6163 2.2301,1.9459 2.2301,1.9459 l -0.64409,0.2454 c -0.17657,-0.199 -0.83103,-0.6922 -1.25249,-1.0309 z"
       id="path8879"
       style="fill:#ff0000;stroke:none" />
    <path
       inkscape:connector-curvature="0"
       d="m 140.19897,1388.29 c 1.15593,-1.3726 2.45818,-2.6219 3.72595,-3.8972 0.44914,-0.4471 0.89855,-0.894 1.34733,-1.3415 0.29355,0 0.58711,0 0.88066,0 -1.35863,1.5462 -2.74193,3.0758 -4.24903,4.4908 -0.53157,0.5038 -1.07496,1.003 -1.6845,1.4187 -0.1712,0.096 -0.75504,0.1455 -0.42238,-0.1342 0.13399,-0.1789 0.26798,-0.3577 0.40197,-0.5366 z"
       id="path8877"
       style="fill:#ff0000;stroke:none" />
    <path
       inkscape:connector-curvature="0"
       d="m 256.58163,1387.2344 c -0.77044,-0.7786 -2.28127,-2.1212 -3.35741,-2.9836 l -1.95661,-1.568 c 0.43876,0 0.87752,0 1.31628,0 l 3.03433,2.6496 c 1.66889,1.4573 2.3069,2.111 3.03434,2.986 l -0.43254,0.4943 z"
       id="path8875"
       style="fill:#ff0000;stroke:none" />
    <path
       inkscape:connector-curvature="0"
       d="m 129.76175,1386.6978 c 0.45728,-4.3036 1.83348,-8.5208 4.01594,-12.2068 1.77132,-2.9917 4.35845,-5.5099 7.11994,-7.6228 2.25394,-1.7245 4.83671,-3.0739 7.52555,-3.9826 2.13291,-0.7208 4.41047,-0.9812 6.6626,-1.1096 l -0.46972,0.7527 c -2.76564,0.4023 -5.60395,0.9555 -8.14253,2.1545 -3.17083,1.4976 -6.15076,3.5771 -8.53815,6.1452 -2.36554,2.5445 -4.11174,5.6767 -5.45592,8.88 -1.10765,2.6397 -1.49248,5.4925 -2.07178,8.3341 z"
       id="path8873"
       style="fill:#ff0000;stroke:none" />
    <path
       inkscape:connector-curvature="0"
       d="m 266.89899,1383.7504 c -0.39852,-1.928 -0.60315,-3.9389 -1.40592,-5.7364 -1.34272,-3.0065 -3.1148,-5.9662 -5.57496,-8.1539 -2.94535,-2.6192 -6.71237,-4.309 -10.47318,-5.4868 -2.11782,-0.6633 -4.38571,-0.7096 -6.6061,-0.8261 l 0.65719,-0.7661 c 4.10229,-0.096 9.02546,1.1621 12.84456,3.4068 3.70426,2.1772 6.8271,5.5417 8.94999,9.2783 1.85119,3.2584 2.52116,7.1243 2.95519,10.8482 l -0.76453,0.8833 c -0.19339,-1.1491 -0.34634,-2.3061 -0.58224,-3.4473 z"
       id="path8871"
       style="fill:#ff0000;stroke:none" />
    <path
       inkscape:connector-curvature="0"
       d="m 267.88812,1378.9228 c -2.24246,-5.8497 -4.7814,-8.704 -8.50952,-11.8079 -2.77929,-2.314 -6.40904,-3.4529 -9.80502,-4.6422 l 0.59108,-0.4595 c 2.08152,0.4301 4.98796,1.3394 7.18786,2.6324 2.86452,1.6835 5.49014,3.9017 7.5493,6.5099 1.72854,2.1895 2.90472,4.8049 3.84567,7.4334 z"
       id="path8869"
       style="fill:#ff0000;stroke:none" />
    <path
       inkscape:connector-curvature="0"
       d="m 147.92715,1377.3592 c 1.01273,-1.5986 4.77031,-5.9992 6.57252,-7.6973 l 2.12815,-2.0053 0.15263,0.4282 0.15263,0.4281 -1.61539,1.5771 c -2.13597,2.0853 -4.41138,4.6458 -5.64307,6.3499 l -0.99797,1.3807 h -0.52254 -0.52254 l 0.29558,-0.4666 z"
       id="path8867"
       style="fill:#ff0000;stroke:none" />
    <path
       inkscape:connector-curvature="0"
       d="m 240.80052,1367.3544 c 0.18328,-0.1059 0.36656,-0.2118 0.54984,-0.3177 3.54687,2.7412 6.60872,5.9945 9.3972,9.9857 -0.2901,0.019 -0.5802,0.038 -0.8703,0.057 -2.8607,-3.9051 -5.73786,-6.5875 -9.07674,-9.7248 z"
       id="path8865"
       style="fill:#ff0000;stroke:none" />
    <path
       inkscape:connector-curvature="0"
       d="m 129.93248,1376.3055 c 1.92359,-3.1386 3.34414,-5.9389 5.78745,-8.2408 2.59743,-2.447 6.34855,-4.3391 9.11229,-5.6207 l 0.92629,0.2887 c -4.75282,2.4263 -7.43476,4.237 -10.41516,7.2342 -1.69671,1.7063 -2.5979,3.6384 -4.08449,5.9518 z"
       id="path8863"
       style="fill:#ff0000;stroke:none" />
    <path
       inkscape:connector-curvature="0"
       d="m 160.45266,1375.5271 c 0,0 0.34271,-2.3918 0.76157,-4.6345 0.41885,-2.2428 0.88543,-4.9176 1.03683,-5.944 0.1514,-1.0264 0.37005,-2.0102 0.48589,-2.186 l 0.81602,0.5961 -0.57312,2.2879 c -0.31521,1.2584 -1.67641,9.959 -1.67641,9.959 z"
       id="path8861"
       style="fill:#ff0000;stroke:none" />
    <path
       inkscape:connector-curvature="0"
       d="m 235.85855,1368.0882 c -0.78654,-2.4539 -1.30932,-4.9769 -1.67789,-7.5463 0.30663,0.1772 0.61326,0.3544 0.91989,0.5316 0.33883,1.9185 0.58013,3.5557 1.121,5.2674 0.44192,1.3986 1.72334,4.0489 1.72334,4.0489 -0.0832,0.6746 -0.16641,1.3492 -0.24963,2.0238 0,0 -1.35861,-2.8337 -1.83671,-4.3254 z"
       id="path8859"
       style="fill:#ff0000;stroke:none" />
    <path
       inkscape:connector-curvature="0"
       d="m 166.85234,1365.8481 c -0.30111,0 0.92347,-2.4565 1.20301,-3.7338 0.36847,-1.6838 0.55747,-3.4115 0.61487,-5.1341 0.0521,-1.5635 0.0534,-2.3587 -0.24663,-4.6865 l 0.73185,0.3667 c 0.37547,2.4114 0.51236,5.4133 0.0793,8.0676 -0.30177,1.8494 -1.06566,3.4455 -1.83926,5.3126 z"
       id="path8857"
       style="fill:#ff0000;stroke:none" />
    <path
       inkscape:connector-curvature="0"
       d="m 229.12879,1361.3043 c -0.52993,-1.775 -0.84478,-3.6083 -1.18983,-5.4282 -0.17151,-0.9046 -0.43723,-2.7273 -0.43723,-2.7273 0.23465,-0.3921 0.46931,-0.7841 0.70396,-1.1762 0.30562,1.5299 0.45439,3.0581 0.73555,4.5779 0.24871,1.3443 0.50512,2.689 0.8412,4.0142 0.16772,0.6614 0.58566,1.9614 0.58566,1.9614 -0.092,0.4343 -0.18408,0.8685 -0.27611,1.3027 0,0 -0.70553,-1.6615 -0.9632,-2.5245 z"
       id="path8855"
       style="fill:#ff0000;stroke:none" />
    <path
       inkscape:connector-curvature="0"
       d="m 151.1831,1359.7602 c -0.12399,-0.1175 -0.0668,-0.496 -0.11133,-0.6551 1.07357,0.2042 2.13193,0.5172 3.22017,0.6179 3.24335,0.3 6.51415,-0.033 9.77122,-0.05 -0.0951,0.2655 -0.19028,0.531 -0.28542,0.7965 -3.03776,0.022 -6.09251,0.3879 -9.11329,0.067 -1.18226,-0.1258 -2.51253,-0.2681 -3.48135,-0.7759 z"
       id="path8853"
       style="fill:#ff0000;stroke:none" />
    <path
       inkscape:connector-curvature="0"
       d="m 234.65425,1358.4167 c 0,0 3.70894,0.053 5.56227,0 2.75563,-0.079 5.28903,-0.2577 8.25678,-0.472 -0.34548,0.344 -0.69097,0.6879 -1.03646,1.0319 0,0 -4.08198,0.084 -6.12297,0.126 -2.04099,0.042 -6.12297,0.126 -6.12297,0.126 -0.17889,-0.2706 -0.35777,-0.5412 -0.53665,-0.8119 z"
       id="path8851"
       style="fill:#ff0000;stroke:none" />
    <path
       inkscape:connector-curvature="0"
       d="m 157.45876,1355.7246 c -2.43627,-1.492 -4.9299,-2.9639 -7.62322,-3.917 -2.67843,-0.9478 -5.53703,-1.3273 -8.34425,-1.7399 l 1.27262,-0.5991 c 3.00663,0.3596 5.84762,0.8226 8.58819,1.8553 2.24899,0.8475 4.27919,2.2055 6.29943,3.5071 0.73976,0.4767 1.85171,1.3507 2.12268,1.5697 l -0.31952,0.762 c -0.66531,-0.4793 -1.29662,-1.0098 -1.99593,-1.4381 z"
       id="path8849"
       style="fill:#ff0000;stroke:none" />
    <path
       inkscape:connector-curvature="0"
       d="m 159.26939,1352.2146 c -1.44726,-1.8604 -3.15618,-3.5629 -5.09474,-4.904 -2.21384,-1.5316 -4.75422,-2.5739 -7.2928,-3.4702 -2.1271,-0.751 -4.35211,-1.2322 -6.58195,-1.5737 -1.50043,-0.2298 -3.82741,-0.2766 -4.54288,-0.3151 l -0.95129,-0.8513 c 1.37155,0 2.95158,0.02 4.41617,0.1797 2.23733,0.244 4.48922,0.5444 6.64678,1.1857 2.82422,0.8396 5.67214,1.8407 8.1383,3.4537 2.34862,1.5361 4.38828,3.5732 6.11889,5.7821 0.88572,1.1305 1.53542,2.2163 2.12374,3.7485 l -0.47946,1.1549 c -0.64998,-1.6391 -1.46662,-3.0609 -2.50076,-4.3903 z"
       id="path8847"
       style="fill:#ff0000;stroke:none" />
    <path
       inkscape:connector-curvature="0"
       d="m 162.24279,1352.4257 c -1.09912,-2.1662 -2.65676,-4.0223 -4.15293,-5.9885 l 0.52378,-0.4646 c 1.46492,1.582 2.91518,3.3925 3.95308,5.3526 0.92562,1.7481 1.55654,3.5537 1.96664,5.5985 -0.24538,0 -0.49075,0 -0.73613,0 -0.35321,-1.8212 -0.83664,-3.0833 -1.55444,-4.498 z"
       id="path8845"
       style="fill:#ff0000;stroke:none" />
    <path
       inkscape:connector-curvature="0"
       d="m 239.25044,1354.4626 c 1.62154,-1.504 3.40294,-2.9291 5.41272,-3.8654 2.88845,-1.3456 6.35751,-2.3655 9.25837,-2.3819 l -0.12442,0.7008 c -2.27793,0.2714 -5.34385,0.906 -7.78957,2.0043 -2.30317,1.0343 -4.09444,2.3564 -6.28363,4.2285 z"
       id="path8843"
       style="fill:#ff0000;stroke:none" />
    <path
       inkscape:connector-curvature="0"
       d="m 235.10055,1354.5555 c 0.36015,-1.2415 1.85952,-3.9291 3.34102,-5.4678 2.83789,-2.9476 6.44441,-5.2267 10.22473,-6.7934 3.5527,-1.4724 6.36246,-1.9337 11.30899,-2.2849 -0.21911,0.2726 -0.366,0.6719 -0.63077,0.8645 -3.21793,0.1357 -5.85635,0.6081 -8.58267,1.6314 -3.67451,1.3791 -7.2499,3.3188 -10.15688,5.9552 -1.90164,1.7247 -3.3836,3.9268 -4.52353,6.2327 z"
       id="path8841"
       style="fill:#ff0000;stroke:none" />
    <path
       inkscape:connector-curvature="0"
       d="m 233.77534,1350.3473 c 1.03698,-2.6913 2.64854,-5.2042 4.59787,-7.3303 1.66314,-1.8139 3.80644,-3.2322 5.89151,-4.4501 0.31814,0.099 0.63628,0.1983 0.95442,0.2975 -1.97042,1.2905 -3.48636,2.2223 -4.92962,3.6784 -2.07797,2.0965 -3.96071,4.4802 -5.23261,7.1436 -0.68661,1.4378 -0.96136,3.0828 -1.22338,4.6206 -0.28208,0.1631 -0.56415,0.3261 -0.84622,0.4891 0.16461,-1.5118 0.24656,-3.0435 0.78803,-4.4488 z"
       id="path8839"
       style="fill:#ff0000;stroke:none" />
    <path
       inkscape:connector-curvature="0"
       d="m 202.46366,1346.4727 c -0.0155,-0.2309 0.22274,-0.5233 0.40939,-0.5599 1.25899,-0.247 3.89237,0.128 3.89237,0.128 3.95313,0.1208 4.74184,0.2267 4.35067,0.5837 -0.0915,0.084 -2.10122,0.2545 -4.46809,0.28 0,0 -2.58342,0.066 -3.73057,0.04 -0.21785,-0.01 -0.43912,-0.2538 -0.45377,-0.4718 z"
       id="path8837"
       style="fill:#ff0000;stroke:none" />
    <path
       inkscape:connector-curvature="0"
       d="m 188.72304,1346.4732 c 0,0 1.92753,-0.2421 2.89548,-0.3188 0.90835,-0.072 1.81997,-0.094 2.73034,-0.1323 1.00927,-0.043 1.97876,-0.167 3.02856,-0.1093 0.17313,0.01 0.37303,0.1034 0.45193,0.2583 0.0743,0.1457 0.10914,0.467 -0.0527,0.4882 -1.40296,0.1838 -2.92743,0.041 -4.39105,0.068 -1.58273,0.029 -4.74791,0.1007 -4.74791,0.1007 z"
       id="path8835"
       style="fill:#ff0000;stroke:none" />
    <path
       inkscape:connector-curvature="0"
       d="m 199.46506,1346.416 c 0.0538,-1.4897 0.18846,-2.0692 0.24654,-3.1101 0.10073,-0.9317 0.10291,-1.7327 0.33544,-2.6433 l 0.22266,0.033 c 0.11617,0.9035 0.31562,2.361 0.32487,2.6043 0.13999,1.4172 0.22408,2.1556 0.24718,3.0963 0.008,0.3068 -0.38328,0.3884 -0.63216,0.3999 -0.27816,0.013 -0.75242,-0.1612 -0.74453,-0.3798 z"
       id="path8833"
       style="fill:#ff0000;stroke:none" />
    <path
       inkscape:connector-curvature="0"
       d="m 268.55017,1364.7335 c -1.17971,-0.6622 -1.85996,-1.9678 -2.8557,-2.8835 -1.07832,-0.9917 -2.13313,-2.0362 -3.37034,-2.8208 -1.55864,-0.9885 -3.50533,-2.1729 -5.02493,-2.3261 0.53866,-0.4004 1.06876,-0.7469 1.66393,-1.0016 1.45485,-0.6228 3.00457,-1.0967 4.57944,-1.2528 1.21876,-0.1209 2.47531,-0.035 3.66537,0.2546 1.4527,0.3531 2.8664,0.9583 4.11756,1.7776 1.06419,0.6968 2.13347,1.5154 2.78871,2.6075 0.35782,0.5964 0.56854,1.3209 0.54118,2.0162 -0.0456,1.1591 -0.35169,2.451 -1.16344,3.2799 -0.61594,0.629 -1.59158,0.8783 -2.47019,0.9351 -0.84496,0.054 -1.7333,-0.1716 -2.47159,-0.5861 z"
       id="path8831"
       style="fill:#ff0000;stroke:none" />
    <path
       inkscape:connector-curvature="0"
       d="m 272.43166,1363.3304 c 0.35201,-0.3257 0.53233,-0.8352 0.59162,-1.3113 0.0922,-0.7407 -0.0377,-1.5482 -0.39186,-2.2047 -0.60065,-1.1134 -1.67256,-1.9557 -2.75701,-2.6037 -0.93964,-0.5616 -2.03781,-0.8445 -3.11555,-1.0335 -1.38424,-0.2427 -2.83052,-0.3569 -4.21458,-0.1132 -0.52113,0.092 -1.31233,0.3332 -1.47679,0.5821 0.27372,-0.018 2.16181,1.2323 3.12557,2.0106 1.26651,1.0227 1.68548,1.1364 3.44759,3.4588 0.535,0.7051 1.34151,1.2166 2.16979,1.5267 0.4284,0.1604 0.91097,0.197 1.36505,0.1415 0.44188,-0.054 0.92946,-0.151 1.25617,-0.4533 z"
       id="path8829"
       style="fill:#ffffff;stroke:none" />
    <path
       inkscape:connector-curvature="0"
       d="m 266.23317,1358.8737 c -0.66888,-0.6424 -1.01003,-1.0266 -2.13783,-1.7804 1.013,-2e-4 2.24659,-0.1088 3.30271,0.2117 1.38169,0.4192 2.82481,1.0604 3.75221,2.1725 0.40159,0.4815 0.71194,1.1488 0.63819,1.7729 -0.0347,0.2933 -0.22614,0.6021 -0.48577,0.7393 -0.48123,0.2543 -1.11306,0.1362 -1.62947,-0.034 -0.69664,-0.2289 -1.25099,-0.782 -1.80064,-1.2688 -0.6101,-0.5403 -1.05157,-1.2493 -1.6394,-1.8137 z"
       id="path8827"
       style="fill:#ff0000;stroke:none" />
    <path
       inkscape:connector-curvature="0"
       d="m 126.91403,1363.9383 c -0.71645,-0.4055 -1.30812,-1.1156 -1.58979,-1.8898 -0.30747,-0.845 -0.25365,-1.8367 0.003,-2.6987 0.26897,-0.9034 0.85315,-1.7274 1.54373,-2.3672 1.00848,-0.9344 2.29678,-1.5944 3.61471,-1.9807 1.90442,-0.5582 3.95588,-0.4914 5.93834,-0.4095 1.36534,0.056 2.69613,0.3142 4.05258,0.6184 -0.55448,0.5544 -0.55448,0.5544 -1.10896,1.1087 -0.66888,0.6687 -1.91332,1.4035 -2.7724,2.2173 -1.25408,1.1879 -2.29077,2.6213 -3.45098,3.8657 -0.93601,1.004 -2.23269,1.7297 -3.57088,1.9619 -0.88454,0.1534 -1.87812,0.016 -2.65933,-0.4261 z"
       id="path8825"
       style="fill:#ff0000;stroke:none" />
    <path
       inkscape:connector-curvature="0"
       d="m 134.57475,1358.9286 c 0.99365,-0.9258 1.98638,-1.5594 3.12943,-2.6091 -0.55448,0 -1.4743,-0.2309 -2.21792,-0.2772 -0.9239,-0.058 -1.85929,-0.1207 -2.77707,0 -1.20403,0.1584 -2.45749,0.3527 -3.51924,0.942 -0.90541,0.5025 -1.8566,1.1706 -2.26897,2.1215 -0.34688,0.8 -0.34688,1.8169 0,2.6169 0.22801,0.5258 0.72257,0.9629 1.25459,1.1731 0.63578,0.2511 1.40427,0.2235 2.04998,0 0.88112,-0.3051 1.50723,-1.1036 2.19832,-1.7294 0.7669,-0.6945 1.39392,-1.5325 2.15088,-2.2378 z"
       id="path8823"
       style="fill:#ffffff;stroke:none" />
    <path
       inkscape:connector-curvature="0"
       d="m 127.9311,1359.7962 c 0.13992,-0.8328 0.99704,-1.4196 1.71428,-1.8656 0.89897,-0.559 2.00609,-0.7046 3.04787,-0.8931 0.7362,-0.1333 1.68405,-0.1637 2.23853,-0.1637 -1.48313,1.3842 -2.57299,3.7579 -4.55409,4.6326 -0.51118,0.2257 -1.20224,0.3606 -1.67526,0.063 -0.54579,-0.3432 -0.87815,-1.1377 -0.77133,-1.7734 z"
       id="path8821"
       style="fill:#ff0000;stroke:none" />
    <path
       inkscape:connector-curvature="0"
       d="m 154.14019,1250.697 c -0.94091,0.1613 -1.99746,0.259 -2.72987,0.9573 -0.81017,0.7725 -1.31828,2.0181 -1.46481,3.2167 -0.23521,1.9239 0.54306,3.8457 1.02207,5.7088 0.57257,2.2269 1.48323,4.4244 2.20146,6.4904 0.67865,0.051 1.51964,-0.4462 2.0715,-0.858 0.16273,-0.1473 -0.53318,-1.3566 -0.7844,-2.0425 -0.25449,-0.6949 -0.37676,-1.0031 -0.73209,-2.0995 0.31013,-0.4515 0.72968,-0.7738 1.15921,-1.0489 0.95125,-0.6093 2.04175,-0.8716 3.06877,-1.287 0.5364,0.766 0.89355,1.6798 1.34214,2.5185 0.36726,0.6866 0.70222,1.3981 1.10476,2.0576 0.48077,-0.2793 1.28744,-0.7833 1.76108,-1.0782 -0.011,-0.592 -1.17601,-2.5926 -1.75823,-3.8923 -1.01051,-2.2558 -1.73742,-4.7075 -3.01142,-6.7793 -0.18647,-0.3032 -0.39587,-0.606 -0.66657,-0.8085 -0.76614,-0.573 -1.68298,-0.8767 -2.58358,-1.0551 -1e-5,0 -1e-5,0 -2e-5,0 z m -0.69911,2.8529 c 0.58722,-0.2874 1.36913,-0.3435 1.91424,0.038 0.98811,0.6919 1.38666,2.1932 1.64696,3.5137 -0.24968,0.4725 -1.00655,0.5257 -1.51952,0.7619 -0.82078,0.3779 -1.6607,0.6983 -2.49111,1.0472 -0.44921,-0.7854 -0.83789,-1.5992 -0.96614,-2.4987 -0.0582,-0.408 -0.0464,-0.8576 0.10057,-1.2349 0.26319,-0.6759 0.72254,-1.3375 1.315,-1.6274 z"
       id="path8819"
       style="fill:#ff0000;stroke:none" />
    <path
       inkscape:connector-curvature="0"
       d="m 244.54231,1252.3245 c -1.22486,0.4488 -2.3219,1.4308 -3.14601,2.5656 -0.67415,0.9284 -1.0206,2.1332 -1.33732,3.2867 -0.22303,0.8122 -0.34312,1.6662 -0.38487,2.5166 -0.0433,0.8804 -0.12474,1.8133 0.14086,2.6405 0.27451,0.8549 0.78056,1.6631 1.43152,2.1827 0.93476,0.7461 2.13766,1.2197 3.27198,1.118 0.55919,-0.05 1.05385,-0.472 1.51924,-0.8321 0.51384,-0.3975 0.99664,-0.8797 1.37208,-1.4407 -0.27385,-0.4243 -0.53454,-0.9236 -0.88769,-1.2934 -0.20497,-0.2146 -0.46977,-0.3371 -0.69808,-0.5195 -0.67692,0.7275 -1.14591,1.8669 -2.03076,2.1827 -0.46546,0.1661 -1.06069,0.093 -1.44566,-0.2511 -0.35103,-0.3134 -0.46027,-0.9056 -0.51967,-1.4121 -0.1156,-0.9861 0.13904,-1.9904 0.34239,-2.9589 0.0684,-0.2917 0.0392,-0.753 0.43201,-0.4798 1.39554,0.263 2.663,1.0359 3.99937,1.537 0.51176,0.1918 1.05352,0.629 1.53891,0.5626 0.33686,-0.7508 0.86682,-1.4031 1.10655,-2.206 0.31838,-1.0664 0.57551,-2.2399 0.40535,-3.3503 -0.14607,-0.9532 -0.61169,-1.8539 -1.18184,-2.5657 -0.4675,-0.5836 -1.08145,-1.0601 -1.74365,-1.2828 -0.69896,-0.2351 -1.49082,-0.2543 -2.18471,0 z m 1.21513,1.9147 c 0.40112,-0.055 0.87701,0.1373 1.1319,0.4978 0.49236,0.6963 0.49981,1.7725 0.37319,2.6581 -0.0992,0.694 -0.53839,1.2646 -0.85696,1.8656 -0.48397,0.1722 -0.98001,-0.3166 -1.45378,-0.528 -0.62938,-0.2809 -1.25269,-0.5945 -1.83718,-0.9804 0.0208,-0.5474 0.42923,-1.0877 0.72756,-1.5721 0.26428,-0.4292 0.583,-0.8168 0.92836,-1.1614 0.30145,-0.3008 0.59062,-0.7255 0.98691,-0.7796 z"
       id="path8815"
       style="fill:#ff0000;stroke:none" />
    <path
       inkscape:connector-curvature="0"
       d="m 234.48221,1262.8292 c -0.34274,-0.092 -0.67671,-0.2237 -1.01506,-0.3356 0.60611,-1.5613 1.25261,-3.1028 1.82654,-4.6803 0.31167,-0.8566 0.65742,-1.7032 0.87752,-2.5967 0.28402,-1.153 0.40965,-2.3509 0.56408,-3.5361 0.12551,-0.9631 0.19614,-1.9347 0.29421,-2.902 0.47757,0.1227 0.93459,0.3229 1.40591,0.4678 0.40216,0.1236 0.80938,0.2244 1.21283,0.3424 0.22239,0.065 0.44385,0.1342 0.66577,0.2013 -1.1997,3.612 -2.31477,7.2848 -3.01731,11.0648 -0.17234,0.9273 -0.19239,1.8835 -0.28936,2.8252 -0.1913,0.013 -0.47731,-0.1775 -0.71283,-0.2766 -0.26683,-0.1122 -0.51973,-0.2698 -0.7929,-0.3596 -0.33215,-0.1091 -0.68308,-0.1238 -1.0194,-0.2146 z"
       id="path8811"
       style="fill:#ff0000;stroke:none" />
    <path
       inkscape:connector-curvature="0"
       d="m 225.44984,1245.9103 c -0.15542,3.218 -0.18016,6.5044 -0.93106,9.6094 -0.32269,1.3344 -0.96962,2.537 -1.51121,3.774 -0.27178,0.6794 0.51065,0.3849 0.79322,0.5108 1.02153,0.455 2.11192,0.7194 3.20086,0.8567 1.59802,0.2013 3.36257,0.7166 4.82247,-0.058 0.49841,-0.2643 0.80513,-0.8824 1.08218,-1.4274 0.40659,-0.7997 0.80893,-1.6927 0.80837,-2.6192 -4.8e-4,-0.7958 -0.29018,-1.6051 -0.69709,-2.2488 -0.36274,-0.5738 -0.91606,-0.9777 -1.46645,-1.2979 -0.63983,-0.3722 -1.35032,-0.6558 -2.06687,-0.6852 -0.69365,-0.029 -1.35438,0.3497 -2.03693,0.4971 0.41619,-1.9517 1.01021,-3.8725 1.8976,-5.61 -0.89974,-0.9155 -2.17631,-0.9936 -3.31846,-1.2533 -0.18907,-0.043 -0.38453,-0.032 -0.57663,-0.049 0,0 0,0 0,0 z m 3.62873,8.5778 c 0.51554,0.1709 1.10782,0.4425 1.36254,0.9857 0.2372,0.5058 0.13006,1.1793 -0.03,1.7238 -0.17886,0.6084 -0.48444,1.2813 -0.98979,1.5545 -0.83333,0.4505 -2.01002,0.032 -2.75741,-0.1904 0.0653,-0.7675 0.39382,-1.4823 0.44212,-2.3529 0.047,-0.618 0.35441,-1.3181 0.96865,-1.3308 0.35716,-0.056 0.65535,-0.3241 1.00386,-0.3899 1e-5,0 2e-5,0 2e-5,0 z"
       id="path8809"
       style="fill:#ff0000;stroke:none" />
    <path
       inkscape:connector-curvature="0"
       d="m 217.30184,1258.5465 c 0.16621,-0.8441 0.46677,-1.2258 0.49361,-1.8191 0.3235,-1.5166 0.68233,-3.0403 0.73469,-4.6092 -0.47819,-0.5201 -1.17974,-0.5548 -1.79985,-0.7059 -0.41978,-0.1022 -0.40803,-0.036 -1.28222,-0.1312 -0.25787,1.1073 -0.52074,2.5896 -0.62624,3.909 -0.0802,1.0032 -0.002,2.0149 -0.003,3.0224 -1.17895,-0.2515 -2.40507,-0.3083 -3.52601,-0.8398 0.33374,-0.9093 0.51335,-1.5442 0.77114,-2.3158 0.33047,-0.9892 0.75041,-1.9443 0.99427,-2.9661 0.39691,-1.6631 0.75029,-3.3766 0.75127,-5.1012 5.3e-4,-1.255 -0.27286,-2.5264 -0.54246,-3.713 0.50728,0 0.92978,0.027 1.38869,0.1049 0.81464,0.1385 1.91635,0.3828 2.40653,0.6425 -0.40729,0.7713 -0.53825,1.4571 -0.71558,2.2193 -0.20194,0.868 -0.50454,1.7493 -0.39144,2.6578 0.94394,0.359 1.9399,0.5613 2.93597,0.5206 0.03,-1.5098 0.6225,-3.2639 0.61643,-4.8993 0.84273,-0.071 2.05608,0.5574 2.90097,0.5415 -0.43333,1.0704 -0.8761,2.3676 -1.18506,3.6009 -0.43149,1.7222 -0.78678,3.4854 -0.92534,5.2707 -0.1235,1.5912 0.18089,2.3646 0.0882,4.7915 -0.68351,0.072 -1.05699,0.056 -1.58446,0.024 -0.5028,-0.03 -1.11488,-0.048 -1.49995,-0.2045 z"
       id="path8801"
       style="fill:#ff0000;stroke:none" />
    <path
       style="fill:#ff0000;stroke:none"
       id="path8803"
       d="m 172.00478,1257.8287 c -0.12057,-0.521 -0.31219,-1.0747 -0.20624,-1.5999 0.048,-0.2379 0.17341,-0.4898 0.36138,-0.6034 0.71042,-0.4294 1.68357,0.3983 2.40755,0 0.5759,-0.3168 0.95685,-1.0369 1.20209,-1.7149 0.7815,-2.1604 0.10353,-4.73 0.6701,-6.9774 0.2499,-0.9912 0.53267,-2.0692 1.18163,-2.7819 0.75727,-0.8317 1.86056,-1.1745 2.88294,-1.4342 1.27837,-0.3246 2.6174,-0.079 3.92609,-0.1191 0.0763,0.8805 0.15259,1.761 0.22889,2.6415 -1.59545,0.3067 -3.35768,0.078 -4.79004,0.9486 -0.69282,0.4212 -1.30327,1.1268 -1.63448,1.9437 -0.88082,2.1725 -0.0746,4.8484 -0.64895,7.1527 -0.24069,0.9656 -0.51235,2.0215 -1.15013,2.7078 -0.52702,0.567 -1.29608,0.7817 -2.00423,0.9417 -0.67068,0.1515 -1.48591,0.4432 -2.05047,0 -0.28409,-0.223 -0.28766,-0.7229 -0.37613,-1.1052 z"
       inkscape:connector-curvature="0" />
    <path
       style="fill:#ff0000;stroke:none"
       id="path8799"
       d="m 181.43253,1256.6043 c -0.45876,-0.4768 -0.92969,-0.9889 -1.19634,-1.6305 -0.39083,-0.9405 -0.4972,-2.0283 -0.51561,-3.0705 -0.0263,-1.4869 0.41825,-3.4464 0.5803,-4.4114 0.21577,0 0.43155,0 0.64732,0 0.41296,1.389 0.16812,4.096 1.14471,5.6834 0.38294,0.6224 1.01854,1.1482 1.67781,1.2281 0.4033,0.049 0.75552,-0.637 1.13999,-0.4887 0.3052,0.1178 0.47031,0.5711 0.51847,0.9372 0.1082,0.8227 -0.0388,1.8449 -0.57129,2.4081 -0.5092,0.5385 -1.36397,0.598 -2.0407,0.4332 -0.547,-0.1332 -0.96979,-0.6578 -1.38466,-1.0889 z"
       inkscape:connector-curvature="0" />
    <path
       inkscape:connector-curvature="0"
       d="m 202.8112,1257.26 c -0.47464,-0.1337 -0.96498,-0.596 -1.33339,-1.0472 -0.6128,-0.7506 -1.1295,-1.6643 -1.37209,-2.6555 -0.43847,-1.7915 -0.48932,-3.7882 -0.0611,-5.583 0.32623,-1.3674 1.00633,-2.6882 1.92749,-3.6306 0.95264,-0.9746 2.20532,-1.7003 3.4745,-1.8391 0.98576,-0.1078 2.03971,0.2232 2.88424,0.8179 0.79814,0.562 1.51128,1.4321 1.83827,2.4407 0.24484,0.7551 0,1.6119 0,2.4179 -0.73086,0 -1.46173,0 -2.19259,0 -0.26924,-1.1171 -0.12215,-2.5016 -0.80774,-3.3512 -0.38985,-0.4832 -1.05265,-0.777 -1.61792,-0.6687 -0.53156,0.1019 -0.90325,0.6997 -1.26205,1.1621 -0.69288,0.8931 -1.37394,1.8895 -1.66227,3.0396 -0.40976,1.6344 -0.43242,3.4764 0,5.1031 0.22072,0.8303 0.59995,1.7518 1.26645,2.1594 0.52739,0.3225 1.27332,0.3409 1.79189,0 0.72242,-0.475 0.92229,-1.6029 1.26689,-2.4741 0.22764,-0.5755 0.30935,-0.9678 0.5214,-1.7995 0.80514,-0.085 1.8354,0.1533 2.5255,0.5499 -0.0108,0.703 -0.0263,1.1901 -0.21541,1.7308 -0.4228,1.2089 -1.15638,2.2835 -1.98229,3.1755 -0.19903,0.2149 -0.43673,0.3951 -0.69402,0.5001 -0.96405,0.3934 -2.03827,0.6326 -3.04592,0.43 -0.50618,-0.1677 -0.87389,-0.2759 -1.24979,-0.4781 z"
       id="path8797"
       style="fill:#ff0000;stroke:none" />
    <path
       inkscape:connector-curvature="0"
       d="m 191.54638,1242.3873 c -0.78868,0.3092 -1.43973,1.0257 -1.97942,1.7559 -0.55263,0.7477 -0.99251,1.6435 -1.21653,2.5904 -0.80764,3.414 -0.22194,7.0716 -0.33291,10.6073 0.71021,-0.089 1.42042,-0.1787 2.13063,-0.268 0.0808,-1.6844 0.15294,-3.3694 0.21639,-5.0548 1.39157,-0.1961 1.7476,-0.2664 2.62437,-0.2303 0.71445,0.029 1.97508,0.1117 2.12137,0.3631 0.0776,1.6406 0.15465,3.2813 0.23129,4.922 0.73796,0 1.47591,0 2.21386,0 -0.0759,-2.4522 -0.18037,-4.9057 -0.40798,-7.345 -0.14455,-1.5492 0.0117,-3.2359 -0.6074,-4.6218 -0.51647,-1.1561 -1.38325,-2.2297 -2.43025,-2.7188 -0.79168,-0.3698 -1.75463,-0.3171 -2.56342,0 z m -0.13317,2.8912 c 0.62088,-0.4705 1.62112,-0.49 2.23051,0 0.79845,0.6419 0.72759,2.0825 1.00401,3.157 0.0825,0.3209 0.12965,0.6524 0.19447,0.9787 -1.35384,0 -3.13141,0.2166 -4.48525,0.2166 -0.14729,-0.4263 -0.0951,-1.0095 -0.009,-1.4995 0.1782,-1.0144 0.31395,-2.2834 1.06531,-2.8528 z"
       id="path8795"
       style="fill:#ff0000;stroke:none" />
    <path
       style="fill:#ff0000;stroke:none"
       id="path8805"
       d="m 165.5693,1260.158 c -0.69489,-0.7159 -1.13602,-1.7584 -1.39923,-2.7878 -0.2335,-0.9132 -0.2505,-1.9122 -0.12041,-2.8522 0.17755,-1.283 0.60307,-2.4478 1.20704,-3.6417 0.41748,-0.09 0.83495,-0.1796 1.25242,-0.2694 -0.1353,1.6727 -0.9462,3.3892 -0.54151,5.0044 0.18091,0.7222 0.65245,1.4173 1.23998,1.746 0.53694,0.3003 1.26435,-0.2839 1.79084,0.04 0.30616,0.1883 0.60235,0.5841 0.59495,0.9834 -0.0142,0.7674 -0.68765,1.3582 -1.21246,1.8322 -0.38773,0.3503 -0.8627,0.6807 -1.35568,0.68 -0.53,-6e-4 -1.06114,-0.3283 -1.45594,-0.735 z"
       inkscape:connector-curvature="0" />
    <path
       style="fill:#ff0000;stroke:none"
       id="path8791"
       d="m 160.09379,1251.2985 c -0.30608,-0.1455 -0.64187,-0.4574 -0.67735,-0.8362 -0.0842,-0.8985 0.61543,-1.7313 1.20254,-2.3319 1.12988,-1.1558 2.65678,-1.8119 4.14495,-2.12 1.75815,-0.364 3.61907,-0.1298 5.34883,0.3835 1.03512,0.3072 1.93189,1.0536 2.89783,1.5804 -0.0995,0.2757 -0.19905,0.5515 -0.29857,0.8272 -0.72479,-0.2198 -1.47278,-0.3009 -2.21748,-0.3604 -1.13292,-0.091 -2.29287,-0.2472 -3.40694,0.01 -1.04781,0.2384 -2.00665,0.8551 -2.96506,1.3974 -0.71041,0.402 -1.29406,1.1178 -2.0547,1.3705 -0.63262,0.21 -1.36554,0.3727 -1.97405,0.083 z"
       inkscape:connector-curvature="0" />
    <path
       inkscape:connector-curvature="0"
       d="m 197.07833,1225.4027 c -2.01732,-0.2312 -3.92651,-1.0673 -5.88138,-1.6319 -0.14241,-0.2317 -0.28482,-0.4634 -0.42723,-0.6951 1.5487,0.1401 3.13952,0.8173 4.6461,0.4203 1.00043,-0.2636 2.00625,-0.8842 2.58101,-1.772 0.2532,-0.3911 0.1769,-0.9237 0.26535,-1.3856 -1.15038,0.1586 -2.30667,0.6749 -3.45113,0.4757 -0.73845,-0.1285 -1.4952,-0.4784 -2.00747,-1.0439 -0.72126,-0.7962 -1.20582,-1.9233 -1.23575,-3.0145 -0.0204,-0.7442 0.26704,-1.5315 0.7288,-2.1023 0.52434,-0.6481 1.33582,-1.0444 2.12486,-1.2622 0.70354,-0.1941 1.48688,-0.2165 2.18428,0 1.04035,0.3231 1.81373,1.2377 2.72059,1.8566 0.96492,-0.495 1.84625,-1.2309 2.89476,-1.485 0.81655,-0.198 1.72149,-0.2783 2.51591,0 0.73233,0.2564 1.40675,0.7969 1.84298,1.4577 0.6141,0.9303 0.89901,2.1214 0.90437,3.2482 0.005,1.0066 -0.30104,2.034 -0.78031,2.9099 -0.5409,0.9885 -1.36538,1.8244 -2.26815,2.4703 -0.93717,0.6705 -2.03782,1.1161 -3.14953,1.3735 -1.37005,0.3172 -2.8127,0.3402 -4.20806,0.1803 z"
       id="path8789"
       style="fill:#ff0000;stroke:none" />
    <path
       inkscape:connector-curvature="0"
       d="m 199.66444,1213.5022 c 0.49601,-1.4942 1.41296,-2.8747 1.37281,-4.4155 -0.018,-0.6892 -0.23456,-1.4469 -0.71606,-1.9404 -0.58378,-0.5983 -1.49503,-0.9041 -2.33079,-0.9261 -1.28466,-0.034 -2.46605,0.7398 -3.6527,1.233 -0.48134,0.2 -0.91871,0.4973 -1.39965,0.6973 -0.32329,-0.337 -0.28578,-0.6116 -0.24927,-0.7841 1.84454,-0.9566 3.76602,-2.0785 5.8378,-2.1408 0.59249,-0.018 1.208,0.1852 1.70332,0.5108 0.7041,0.4627 1.36483,1.1337 1.62671,1.9344 0.34235,1.0467 0.0281,2.2237 -0.22134,3.2964 -0.208,0.8945 -0.71936,1.6897 -1.04719,2.5485 -0.35733,0.1761 -0.64357,0.064 -0.92364,-0.014 z"
       id="path8787"
       style="fill:#ff0000;stroke:none" />
    <path
       inkscape:connector-curvature="0"
       d="m 180.57493,1206.0123 c -0.57251,-0.7189 -2.03584,-2.0898 -1.66486,-2.7276 1.64988,-0.1681 3.33109,-0.032 4.96941,-0.3047 4.2087,-0.7008 8.13269,-2.8268 12.35922,-3.4013 1.9521,-0.2653 3.96406,-0.3403 5.90654,-0.01 3.08279,0.5277 5.79855,2.5481 8.87124,3.1355 2.99642,0.5729 6.10299,0.056 9.13524,0.3429 -0.42303,0.8784 -0.95196,1.6968 -1.43545,2.5403 -2.90261,0.048 -5.83674,-0.148 -8.65867,-0.8341 -3.5511,-0.8633 -6.59495,-3.5653 -10.20843,-4.0812 -1.45661,-0.208 -2.97443,0.024 -4.39154,0.4306 -2.93784,0.8419 -5.34287,3.1375 -8.25165,4.0814 -2.02688,0.6578 -4.16898,0.8779 -6.2891,1.0629 -0.11397,-0.079 -0.22804,-0.1581 -0.34195,-0.2369 z"
       id="path8785"
       style="fill:#ff0000;stroke:none" />
    <path
       inkscape:connector-curvature="0"
       d="m 175.74288,1199.7943 c -0.43327,-1.5724 -1.81841,-2.7292 -2.4999,-4.1672 2.03086,-0.066 4.00354,0.6944 6.02609,0.7597 2.21531,0.072 4.47904,0.1161 6.63769,-0.4043 3.74039,-0.9017 6.85016,-3.8589 10.6174,-4.6315 1.60199,-0.3285 3.29586,-0.2825 4.89921,0.039 2.99042,0.5994 5.55591,2.6686 8.50355,3.4632 2.4924,0.6719 5.08138,1.1182 7.65654,1.0742 2.31002,-0.039 4.61439,-0.5034 6.83379,-1.1977 -0.01,1.365 -1.24465,2.2852 -1.96375,3.3304 -0.33201,0.7679 -1.20332,0.411 -1.82884,0.4712 -1.73148,0.1664 -3.48151,-0.1003 -5.2078,-0.317 -2.07001,-0.2598 -4.15933,-0.5383 -6.15153,-1.1757 -2.84894,-0.9115 -5.29738,-2.9583 -8.17949,-3.7501 -1.20165,-0.3302 -2.47993,-0.5772 -3.71037,-0.3929 -5.32807,0.798 -9.74048,4.9104 -14.9425,6.3455 -1.56636,0.4322 -3.20118,0.5967 -4.82102,0.6607 -0.62352,0.025 -1.3089,0.2763 -1.86907,-0.1073 z"
       id="path8783"
       style="fill:#ff0000;stroke:none" />
    <path
       inkscape:connector-curvature="0"
       d="m 141.03074,1190.5775 c -1.1762,-0.392 -2.37802,-0.932 -3.32681,-1.663 1.37115,0.094 2.77234,0 3.88128,-0.5543 1.10894,-0.5543 1.66341,-1.1087 1.66341,-1.1087 -2.21788,-0.5543 -2.21788,-0.5543 -3.32682,-1.1086 -1.19207,-0.5959 -2.21787,-1.663 -2.21787,-2.7716 0,-1.1086 0.55447,-2.2173 1.10894,-2.7716 1.10893,-1.1087 2.21787,-1.1087 3.32681,-1.1087 1.86595,0.057 2.99968,0.7817 3.88128,1.663 1.01843,-0.1403 2.29721,-0.3979 3.41901,-0.1874 1.0104,0.1896 2.08037,0.5483 2.80872,1.2736 0.87006,0.8664 1.53484,1.6854 1.53484,3.3484 0,1.6629 -0.84206,2.8103 -1.90418,3.705 -1.56524,1.3184 -3.64051,1.8382 -5.85839,1.8382 -1.81678,0 -3.32681,0 -4.99022,-0.5543 z"
       id="path8781"
       style="fill:#ff0000;stroke:none" />
    <path
       inkscape:connector-curvature="0"
       d="m 246.93433,1190.0232 c -0.95893,-0.2518 -1.83622,-0.5492 -2.75177,-1.1287 0.78,0.019 1.84801,-0.2971 2.75177,-0.5343 0.56529,-0.1484 0.95596,-0.2675 1.66341,-0.5543 -0.99406,-0.4476 -2.18977,-0.6547 -2.96837,-1.429 -0.79062,-0.7862 -1.46739,-1.3426 -1.46739,-3.0056 0,-1.663 0.31387,-1.9811 0.9661,-2.6648 0.72662,-0.7617 1.80625,-1.2155 2.91519,-1.2155 1.6634,0 3.32681,1.1087 3.94522,2.1513 1.04499,-0.4883 1.68128,-0.7547 2.57597,-0.9113 0.80003,-0.1401 1.65375,-0.2369 2.43411,-0.015 0.59804,0.1702 1.02488,0.4375 1.57961,0.992 0.55446,0.5544 1.10893,1.1087 1.10893,2.2173 0,1.1087 0,1.663 -0.55446,2.7716 -0.55447,1.1087 -1.10894,1.663 -1.66341,2.2173 -1.10894,1.1087 -3.88129,1.663 -6.09916,1.663 -1.42074,0 -2.99454,-0.1759 -4.43575,-0.5543 z"
       id="path8779"
       style="fill:#ff0000;stroke:none" />
    <path
       inkscape:connector-curvature="0"
       d="m 195.94486,1190.0869 c -0.59258,-0.083 -1.38349,-0.2677 -1.75287,-0.3868 l -0.12744,-0.1497 c 1.07313,0 1.84285,-0.046 2.70978,-0.3217 0.82453,-0.2618 1.72422,-0.5753 2.28153,-1.2369 0.29409,-0.3491 0.45921,-0.8707 0.43864,-1.2971 -1.02495,0.171 -2.82933,0.348 -4.00893,-0.287 -1.04592,-0.563 -2.01485,-1.6492 -2.16926,-2.8267 -0.13617,-1.0385 0.45167,-2.1746 1.20576,-2.9017 0.95549,-0.9213 2.40365,-1.4315 3.73059,-1.3935 1.08648,0.031 2.14599,0.655 2.9842,1.3139 0.63617,-0.3948 1.49963,-0.6501 2.25711,-0.5061 1.04294,0.1983 2.21789,0.8126 2.63494,1.7886 0.68876,1.6119 0.10189,3.729 -0.87376,5.1854 -0.89649,1.3382 -2.60152,1.9683 -4.10146,2.556 -0.97598,0.3825 -2.04232,0.5253 -3.08842,0.5927 -0.70666,0.045 -1.41913,-0.031 -2.12041,-0.1294 z"
       id="path8777"
       style="fill:#ff0000;stroke:none" />
    <path
       inkscape:connector-curvature="0"
       d="m 222.38531,1186.1502 c -6.40221,-1.7127 -11.26844,-7.6551 -17.68723,-9.3 -3.77598,-0.9676 -7.85848,-0.9981 -11.66842,-0.1856 -3.93446,0.8391 -7.29048,3.4998 -10.99567,5.1065 -3.71469,1.6109 -7.22707,4.1792 -11.25729,4.5427 -2.32167,0.2094 -4.63688,-0.6784 -6.84872,-1.4142 -5.39799,-1.7959 -9.94715,-5.8066 -15.4501,-7.2493 -3.62314,-0.9499 -7.45155,-0.7669 -11.20611,-0.8321 l -1.25293,-3.2875 c 5.66055,-0.283 11.78947,1.9544 17.36907,3.994 4.17101,1.5246 7.62239,4.7876 11.8483,6.0915 1.69727,0.5236 3.51761,0.8688 5.27592,0.6494 4.55897,-0.5688 8.64985,-3.2043 12.9014,-5.0007 4.74746,-2.0059 8.97354,-5.8289 14.06632,-6.4463 2.66547,-0.3231 5.39123,0.5791 7.91574,1.5218 3.46701,1.2946 6.42547,3.7402 9.65685,5.5754 2.76551,1.5706 5.22598,4.0602 8.32804,4.6518 2.26679,0.4323 4.67539,-0.1582 6.85601,-0.9313 4.09974,-1.4535 7.22282,-5.0664 11.22088,-6.7971 3.3407,-1.4461 6.87585,-2.6952 10.49026,-2.9202 3.68627,-0.2294 7.50837,0.039 10.96638,1.6297 l -2.51818,2.0535 c -3.74062,-1.5468 -7.93791,-1.566 -11.87781,-1.0428 -2.85556,0.3792 -5.45691,1.853 -8.11289,2.9763 -4.78099,2.0222 -8.98799,5.7013 -14.04996,6.7618 -1.29783,0.2719 -2.68783,0.1957 -3.96986,-0.1473 z"
       id="path8775"
       style="fill:#ff0000;stroke:none" />
    <path
       inkscape:connector-curvature="0"
       d="m 223.67446,1181.6902 c -3.83273,-0.9968 -7.04146,-3.7176 -10.59594,-5.5056 -3.99733,-2.0108 -7.66652,-5.2207 -12.06592,-5.8722 -2.92645,-0.4333 -5.94169,0.5028 -8.76194,1.4203 -6.32198,2.0569 -11.4992,7.1302 -17.86949,9.0206 -2.31303,0.6864 -4.79541,1.1206 -7.17904,0.7804 -2.76236,-0.3942 -5.20813,-2.0686 -7.77308,-3.2012 -5.25065,-2.3184 -10.0296,-5.9835 -15.58232,-7.3536 -3.09284,-0.7631 -6.35655,-0.2489 -9.53068,-0.3972 l -1.03665,-3.4777 c 2.92522,-0.1156 6.60833,0.207 9.74059,1.1429 8.12454,2.4274 14.56325,9.3317 22.7493,11.3812 1.9588,0.4904 4.07664,0.6051 6.04399,0.1528 6.50814,-1.4962 11.61854,-6.9314 17.90835,-9.2192 3.1676,-1.1522 6.48558,-2.1275 9.84184,-2.2173 2.16235,-0.058 4.37173,0.3196 6.40362,1.0876 3.48003,1.3154 6.34163,3.9681 9.54689,5.8915 2.65021,1.5903 4.99213,4.1055 8.00641,4.6698 1.97306,0.3694 4.05276,-0.27 5.94284,-0.9629 5.04341,-1.8489 8.90341,-6.3168 13.88612,-8.3344 3.61066,-1.462 7.47641,-2.4619 11.34994,-2.6309 3.82022,-0.1667 7.78322,0.4325 11.36491,1.6103 l -1.93474,2.3693 c -3.23517,-1.3999 -8.29425,-1.5215 -12.43733,-1.1195 -3.42572,0.3325 -6.70827,1.6143 -9.91383,2.8856 -5.40992,2.1457 -9.93209,6.6687 -15.59168,7.9499 -0.81836,0.1852 -1.69971,0.1408 -2.51216,-0.071 z"
       id="path8773"
       style="fill:#ff0000;stroke:none" />
    <path
       inkscape:connector-curvature="0"
       d="m 216.43853,1171.7306 c 0,-1.1087 0.30814,-1.8788 0.92993,-2.5255 1.15361,-1.2 2.95135,-1.9091 4.61476,-1.9091 1.66341,0 2.77235,0.5543 4.43575,1.1086 1.66341,0.5543 3.32682,1.1087 5.5447,1.1087 2.21787,0 4.4395,-1.2623 6.09915,-2.2173 l 0.55447,0.5543 c -2.09616,1.6435 -4.43586,3.7843 -7.03522,5.0321 -3.02776,1.4534 -6.27203,2.7284 -9.69949,2.7284 -2.11724,0 -5.44405,-1.7541 -5.44405,-3.8802 z"
       id="path8771"
       style="fill:#ff0000;stroke:none" />
    <path
       inkscape:connector-curvature="0"
       d="m 161.48742,1174.865 c -1.22711,-0.5943 -2.58731,-1.4393 -3.05094,-2.7163 -0.40548,-1.1167 -0.25052,-2.622 0.5264,-3.5234 0.97821,-1.1349 2.42397,-1.3418 4.30613,-1.3287 2.03944,0.014 4.60858,1.8385 7.04654,2.0456 2.20486,0.1872 4.46922,-0.1402 6.59583,-0.7488 0.9668,-0.2767 1.80374,-0.8855 2.72197,-1.2968 0.2549,0.1576 0.5098,0.3056 0.76469,0.4632 -1.65182,1.4752 -3.15669,3.1745 -5.07508,4.2826 -3.00172,1.7339 -6.32847,3.2416 -9.78664,3.5392 -1.36573,0.1176 -2.81637,-0.1197 -4.0489,-0.7166 z"
       id="path8762-1"
       style="fill:#ff0000;stroke:none" />
    <path
       style="fill:#ff0000"
       id="path10647-2"
       d="m 200.00002,1321.9997 c 0,0 -4.4,-7.3331 -9.5331,-12.4669 -5.1332,-5.1331 -12.4669,-9.5331 -12.4669,-9.5331 0,0 7.3332,-4.4 12.4669,-9.5331 5.1331,-5.1332 9.5331,-12.4669 9.5331,-12.4669 0,0 4.4,7.3331 9.5331,12.4669 5.1331,5.1331 12.4669,9.5331 12.4669,9.5331 0,0 -7.3332,4.4 -12.4669,9.5331 -5.1331,5.1332 -9.5331,12.4669 -9.5331,12.4669"
       inkscape:connector-curvature="0" />
    <path
       inkscape:connector-curvature="0"
       d="m 116.00002,1216.9997 c 0,0 -1.6,-2.6666 -3.4666,-4.5334 -1.8666,-1.8666 -4.5334,-3.4666 -4.5334,-3.4666 0,0 2.6666,-1.6 4.5334,-3.4666 1.8666,-1.8666 3.4666,-4.5334 3.4666,-4.5334 0,0 1.6,2.6666 3.4666,4.5334 1.8666,1.8666 4.5334,3.4666 4.5334,3.4666 0,0 -2.6666,1.6 -4.5334,3.4666 -1.8666,1.8666 -3.4666,4.5334 -3.4666,4.5334"
       id="path10709"
       style="fill:#ff0000" />
    <path
       style="fill:#ff0000"
       id="path64-4-0-2"
       d="m 110.30002,1166.9997 v 2.8 h 4.22149 v 25.2 h 2.77729 v -25.2 h 4.11039 v -2.8 h -4.11039 -2.77729 z"
       inkscape:connector-curvature="0" />
    <path
       style="fill:#ff0000"
       id="path64-3-4-6"
       d="m 288.90919,1432.9997 v -2.8 h -4.22149 v -25.2 h -2.77729 v 25.2 h -4.11039 v 2.8 h 4.11039 2.77729 z"
       inkscape:connector-curvature="0" />
    <path
       inkscape:connector-curvature="0"
       d="m 284.00002,1398.9997 c 0,0 -1.6,-2.6666 -3.4666,-4.5334 -1.8666,-1.8666 -4.5334,-3.4666 -4.5334,-3.4666 0,0 2.6666,-1.6 4.5334,-3.4666 1.8666,-1.8666 3.4666,-4.5334 3.4666,-4.5334 0,0 1.6,2.6666 3.4666,4.5334 1.8666,1.8666 4.5334,3.4666 4.5334,3.4666 0,0 -2.6666,1.6 -4.5334,3.4666 -1.8666,1.8666 -3.4666,4.5334 -3.4666,4.5334"
       id="path10709-6"
       style="fill:#ff0000" />
  </g>
</svg>
