<?xml version="1.0" encoding="UTF-8" standalone="no"?>
<!-- Created with Inkscape (http://www.inkscape.org/) -->

<svg
   id="svg10047"
   height="123.00307"
   width="78.993607"
   version="1.1"
   viewBox="0 0 78.993607 123.00307"
   inkscape:version="0.91 r13725"
   sodipodi:docname="russian.svgz"
   xmlns:inkscape="http://www.inkscape.org/namespaces/inkscape"
   xmlns:sodipodi="http://sodipodi.sourceforge.net/DTD/sodipodi-0.dtd"
   xmlns="http://www.w3.org/2000/svg"
   xmlns:svg="http://www.w3.org/2000/svg"
   xmlns:rdf="http://www.w3.org/1999/02/22-rdf-syntax-ns#"
   xmlns:cc="http://creativecommons.org/ns#"
   xmlns:dc="http://purl.org/dc/elements/1.1/">
  <sodipodi:namedview
     pagecolor="#ffffff"
     bordercolor="#666666"
     borderopacity="1"
     objecttolerance="10"
     gridtolerance="10"
     guidetolerance="10"
     inkscape:pageopacity="0"
     inkscape:pageshadow="2"
     inkscape:window-width="1920"
     inkscape:window-height="1016"
     id="namedview1491"
     showgrid="false"
     inkscape:zoom="1.3479675"
     inkscape:cx="513.5"
     inkscape:cy="307.5"
     inkscape:window-x="0"
     inkscape:window-y="0"
     inkscape:window-maximized="1"
     inkscape:current-layer="svg10047"
     showguides="false"
     inkscape:guide-bbox="true"
     inkscape:snap-grids="true"
     inkscape:showpageshadow="2"
     inkscape:pagecheckerboard="0"
     inkscape:deskcolor="#d1d1d1" />
  <metadata
     id="metadata16869">
    <rdf:RDF>
      <cc:Work
         rdf:about="">
        <dc:format>image/svg+xml</dc:format>
        <dc:type
           rdf:resource="http://purl.org/dc/dcmitype/StillImage" />
        <dc:title />
      </cc:Work>
    </rdf:RDF>
  </metadata>
  <defs
     id="defs10049" />
  <g
     id="heart_2"
     inkscape:label="#heart_2"
     transform="matrix(0.39503719,0,0,0.41001396,-138.26301,-328.01218)">
    <rect
       width="199.40948"
       height="299.44177"
       rx="16.632639"
       ry="16.635406"
       x="350.27774"
       y="800.28021"
       id="rect10197"
       style="fill:#ffffff;stroke:#000000;stroke-width:0.555504" />
    <path
       inkscape:connector-curvature="0"
       d="m 450.00002,833.99972 c 0,0 1.001,-6.1341 2.9332,-8.0668 1.9326,-1.9327 5.3339,-2.9332 8.0668,-2.9332 2.733,0 6.1342,1.001 8.0669,2.9332 1.9327,1.9327 2.9332,5.3339 2.9332,8.0668 0,2.733 -1.4669,6.59996 -2.9332,8.06686 -1.4669,1.4668 -2.9332,2.2 -4.4,3.6668 -1.4669,1.4669 -2.2,1.4669 -3.6669,2.9332 -1.4668,1.4668 -2.2,2.2 -3.6668,3.6668 -1.4669,1.4669 -3.6669,4.4 -5.1332,7.3332 -1.4668,2.9331 -2.2,7.3331 -2.2,7.3331 0,0 -0.7331,-4.4 -2.2,-7.3331 -1.4668,-2.9332 -3.6668,-5.8669 -5.1331,-7.3332 -1.4669,-1.4668 -2.2,-2.2 -3.6669,-3.6668 -1.4668,-1.4669 -2.2,-1.4669 -3.6668,-2.9332 -1.4669,-1.4668 -2.9332,-2.2 -4.4,-3.6668 -1.4669,-1.4669 -2.9332,-5.33386 -2.9332,-8.06686 0,-2.7329 1.001,-6.1341 2.9332,-8.0668 1.9327,-1.9327 5.3339,-2.9332 8.0668,-2.9332 2.733,0 6.1342,1.001 8.0669,2.9332 1.9327,1.9327 2.9331,8.0668 2.9331,8.0668"
       id="path10199"
       style="fill:#ff0000" />
    <path
       style="fill:#ff0000"
       id="path10203"
       d="m 450.00002,1065.9997 c 0,0 1.001,6.1341 2.9332,8.0668 1.9326,1.9327 5.3339,2.9332 8.0668,2.9332 2.733,0 6.1342,-1.001 8.0669,-2.9332 1.9327,-1.9327 2.9332,-5.3339 2.9332,-8.0668 0,-2.733 -1.4669,-6.6 -2.9332,-8.0669 -1.4669,-1.4668 -2.9332,-2.2 -4.4,-3.6668 -1.4669,-1.4669 -2.2,-1.4669 -3.6669,-2.9332 -1.4668,-1.4668 -2.2,-2.2 -3.6668,-3.6668 -1.4669,-1.4669 -3.6669,-4.4 -5.1332,-7.3332 -1.4668,-2.9331 -2.2,-7.3331 -2.2,-7.3331 0,0 -0.7331,4.4 -2.2,7.3331 -1.4668,2.9332 -3.6668,5.8669 -5.1331,7.3332 -1.4669,1.4668 -2.2,2.2 -3.6669,3.6668 -1.4668,1.4669 -2.2,1.4669 -3.6668,2.9332 -1.4669,1.4668 -2.9332,2.2 -4.4,3.6668 -1.4669,1.4669 -2.9332,5.3339 -2.9332,8.0669 0,2.7329 1.001,6.1341 2.9332,8.0668 1.9327,1.9327 5.3339,2.9332 8.0668,2.9332 2.733,0 6.1342,-1.001 8.0669,-2.9332 1.9327,-1.9327 2.9331,-8.0668 2.9331,-8.0668"
       inkscape:connector-curvature="0" />
    <path
       inkscape:connector-curvature="0"
       d="m 366.00002,854.99968 c 0,0 0.364,-2.2306 1.0666,-2.9334 0.7028,-0.7028 1.9396,-1.0666 2.9334,-1.0666 0.9938,0 2.2306,0.364 2.9334,1.0666 0.7028,0.7028 1.0666,1.9396 1.0666,2.9334 0,0.9938 -0.5334,2.4 -1.0666,2.9334 -0.5334,0.5334 -1.0666,0.8 -1.6,1.3334 -0.5334,0.5334 -0.8,0.5334 -1.3334,1.0666 -0.5334,0.5334 -0.8,0.8 -1.3334,1.3334 -0.5334,0.5334 -1.3334,1.6 -1.8666,2.6666 -0.5334,1.0666 -0.8,2.6666 -0.8,2.6666 0,0 -0.2666,-1.6 -0.8,-2.6666 -0.5334,-1.0666 -1.3334,-2.1334 -1.8666,-2.6666 -0.5334,-0.5334 -0.8,-0.8 -1.3334,-1.3334 -0.5334,-0.5334 -0.8,-0.5334 -1.3334,-1.0666 -0.5334,-0.5334 -1.0666,-0.8 -1.6,-1.3334 -0.5334,-0.5334 -1.0666,-1.9396 -1.0666,-2.9334 0,-0.9938 0.364,-2.2306 1.0666,-2.9334 0.7028,-0.7028 1.9396,-1.0666 2.9334,-1.0666 0.9938,0 2.2306,0.364 2.9334,1.0666 0.7028,0.7028 1.0666,2.9334 1.0666,2.9334"
       id="path10205"
       style="fill:#ff0000" />
    <path
       inkscape:connector-curvature="0"
       d="m 534.00002,1044.9997 c 0,0 -0.364,2.2306 -1.0666,2.9334 -0.7028,0.7028 -1.9396,1.0666 -2.9334,1.0666 -0.9938,0 -2.2306,-0.364 -2.9334,-1.0666 -0.7028,-0.7028 -1.0666,-1.9396 -1.0666,-2.9334 0,-0.9937 0.5334,-2.3999 1.0666,-2.9333 0.5334,-0.5334 1.0666,-0.8 1.6,-1.3334 0.5334,-0.5334 0.8,-0.5334 1.3334,-1.0666 0.5334,-0.5334 0.8,-0.8 1.3334,-1.3334 0.5334,-0.5334 1.3334,-1.6 1.8666,-2.6666 0.5334,-1.0666 0.8,-2.6666 0.8,-2.6666 0,0 0.2666,1.6 0.8,2.6666 0.5334,1.0666 1.3334,2.1334 1.8666,2.6666 0.5334,0.5334 0.8,0.8 1.3334,1.3334 0.5334,0.5334 0.8,0.5334 1.3334,1.0666 0.5334,0.5334 1.0666,0.8 1.6,1.3334 0.5334,0.5334 1.0666,1.9396 1.0666,2.9333 0,0.9938 -0.364,2.2306 -1.0666,2.9334 -0.7028,0.7028 -1.9396,1.0666 -2.9334,1.0666 -0.9938,0 -2.2306,-0.364 -2.9334,-1.0666 -0.7028,-0.7028 -1.0666,-2.9334 -1.0666,-2.9334"
       id="path10207"
       style="fill:#ff0000" />
    <path
       style="fill:#ff0000"
       id="path80-8-6"
       d="m 533.15473,1082.9997 c 3.07723,0 5.55458,-2.4976 5.55458,-5.6 v -2.8 h -2.77729 v 2.8 c 0,1.5512 -1.23867,2.8 -2.77729,2.8 -1.53861,0 -2.77729,-1.2488 -2.77729,-2.8 v -2.8 c 0,-0.6317 0.2083,-1.7164 0.55546,-2.184 2.47901,-5.0983 5.15354,-9.5928 7.77642,-14.616 v -2.8 h -5.55459 -5.55458 v 2.8 2.8 h 2.77729 v -2.8 h 2.77729 2.49957 c -2.49346,4.4324 -4.56476,8.7203 -6.94323,13.216 -0.69432,0.9346 -1.11092,2.3212 -1.11092,3.584 v 2.8 c 0,3.1024 2.47735,5.6 5.55458,5.6"
       inkscape:connector-curvature="0" />
    <path
       style="fill:#ff0000"
       id="path80-0-7"
       d="m 365.65473,816.99972 c -3.07724,0 -5.55459,2.4976 -5.55459,5.6 v 2.8 h 2.77729 v -2.8 c 0,-1.5512 1.23868,-2.8 2.7773,-2.8 1.53861,0 2.77729,1.2488 2.77729,2.8 v 2.8 c 0,0.6317 -0.2083,1.7164 -0.55546,2.184 -2.47901,5.0982 -5.15354,9.5928 -7.77642,14.61596 v 2.8 h 5.55459 5.55458 v -2.8 -2.8 h -2.77729 v 2.8 h -2.77729 -2.49957 c 2.49346,-4.43236 4.56476,-8.72026 6.94323,-13.21596 0.69432,-0.9346 1.11092,-2.3212 1.11092,-3.584 v -2.8 c 0,-3.1024 -2.47735,-5.6 -5.55458,-5.6"
       inkscape:connector-curvature="0" />
  </g>
</svg>
