<?xml version="1.0" encoding="UTF-8" standalone="no"?>
<!-- Created with Inkscape (http://www.inkscape.org/) -->

<svg
   id="svg10047"
   height="122.99929"
   width="79.000107"
   version="1.1"
   viewBox="0 0 79.000107 122.99929"
   inkscape:version="0.91 r13725"
   sodipodi:docname="russian.svgz"
   xmlns:inkscape="http://www.inkscape.org/namespaces/inkscape"
   xmlns:sodipodi="http://sodipodi.sourceforge.net/DTD/sodipodi-0.dtd"
   xmlns="http://www.w3.org/2000/svg"
   xmlns:svg="http://www.w3.org/2000/svg"
   xmlns:rdf="http://www.w3.org/1999/02/22-rdf-syntax-ns#"
   xmlns:cc="http://creativecommons.org/ns#"
   xmlns:dc="http://purl.org/dc/elements/1.1/">
  <sodipodi:namedview
     pagecolor="#ffffff"
     bordercolor="#666666"
     borderopacity="1"
     objecttolerance="10"
     gridtolerance="10"
     guidetolerance="10"
     inkscape:pageopacity="0"
     inkscape:pageshadow="2"
     inkscape:window-width="1920"
     inkscape:window-height="1016"
     id="namedview1491"
     showgrid="false"
     inkscape:zoom="1.3479675"
     inkscape:cx="513.5"
     inkscape:cy="307.5"
     inkscape:window-x="0"
     inkscape:window-y="0"
     inkscape:window-maximized="1"
     inkscape:current-layer="svg10047"
     showguides="false"
     inkscape:guide-bbox="true"
     inkscape:snap-grids="true"
     inkscape:showpageshadow="2"
     inkscape:pagecheckerboard="0"
     inkscape:deskcolor="#d1d1d1" />
  <metadata
     id="metadata16869">
    <rdf:RDF>
      <cc:Work
         rdf:about="">
        <dc:format>image/svg+xml</dc:format>
        <dc:type
           rdf:resource="http://purl.org/dc/dcmitype/StillImage" />
        <dc:title />
      </cc:Work>
    </rdf:RDF>
  </metadata>
  <defs
     id="defs10049" />
  <g
     id="spade_3"
     transform="matrix(0.39506971,0,0,0.41000135,-237.04181,-184.50162)"
     inkscape:label="#spade_3">
    <rect
       style="fill:#ffffff;stroke:#000000;stroke-width:0.555504"
       id="rect10283"
       y="450.28021"
       x="600.27771"
       ry="16.635406"
       rx="16.632639"
       height="299.44177"
       width="199.40948" />
    <path
       id="path10285"
       d="m 700.00052,472.99972 c -0.7331,3.66686 -1.5702,4.61561 -2.9332,6.6 -1.1743,1.70996 -2.8172,3.0591 -4.4001,4.40001 -1.6044,1.35904 -3.4365,2.4244 -5.1333,3.66685 -1.9723,1.44375 -4.3005,2.52339 -5.867,4.39999 -1.7512,2.09826 -3.6669,4.60021 -3.6669,7.33316 0,2.18625 1.3244,4.38625 2.9332,5.86685 1.9377,1.78255 4.7015,2.9942 7.3333,2.93314 2.9531,-0.0682 5.9402,-1.61699 8.0671,-3.66684 1.5741,-1.5169 2.9332,-5.86685 2.9332,-5.86685 v 1.46685 c 0,0.73315 -0.073,4.0095 -0.7331,5.86685 -0.7723,2.17305 -2.1066,4.16845 -3.667,5.86685 -1.6555,1.80014 -5.867,4.4 -5.867,4.4 v 0.73315 c 0,0 5.8368,-1.22156 8.8002,-1.46686 1.462,-0.12099 2.9382,-0.12099 4.4001,0 2.9635,0.2453 8.8003,1.46686 8.8003,1.46686 v -0.73315 c 0,0 -4.2131,-2.59986 -5.867,-4.4 -1.5599,-1.6984 -2.8947,-3.6938 -3.667,-5.86685 -0.66,-1.8568 -0.7331,-5.86685 -0.7331,-5.86685 v -1.46685 c 0,0 1.359,4.3494 2.9332,5.86685 2.1269,2.04929 5.114,3.59864 8.067,3.66684 2.6324,0.0605 5.3962,-1.15059 7.3334,-2.93314 1.6088,-1.4806 2.9332,-3.68005 2.9332,-5.86685 0,-2.73295 -1.9157,-5.2349 -3.6669,-7.33316 -1.5665,-1.8766 -3.8941,-2.95624 -5.867,-4.39999 -1.6968,-1.2419 -3.5289,-2.30725 -5.1333,-3.66685 -1.583,-1.34091 -3.2259,-2.69005 -4.4001,-4.40001 -1.363,-1.98439 -2.2001,-2.93314 -2.9333,-6.6"
       inkscape:connector-curvature="0" />
    <path
       inkscape:connector-curvature="0"
       d="m 700.00052,577.99972 c -0.7331,3.66686 -1.5702,4.61561 -2.9332,6.6 -1.1743,1.70996 -2.8172,3.0591 -4.4001,4.40001 -1.6044,1.35904 -3.4365,2.4244 -5.1333,3.66685 -1.9723,1.44375 -4.3005,2.52339 -5.867,4.39999 -1.7512,2.09826 -3.6669,4.60021 -3.6669,7.33316 0,2.18625 1.3244,4.38625 2.9332,5.86685 1.9377,1.78255 4.7015,2.9942 7.3333,2.93314 2.9531,-0.0682 5.9402,-1.61699 8.0671,-3.66684 1.5741,-1.5169 2.9332,-5.86685 2.9332,-5.86685 v 1.46685 c 0,0.73315 -0.073,4.0095 -0.7331,5.86685 -0.7723,2.17305 -2.1066,4.16845 -3.667,5.86685 -1.6555,1.80014 -5.867,4.4 -5.867,4.4 v 0.73315 c 0,0 5.8368,-1.22156 8.8002,-1.46686 1.462,-0.12099 2.9382,-0.12099 4.4001,0 2.9635,0.2453 8.8003,1.46686 8.8003,1.46686 v -0.73315 c 0,0 -4.2131,-2.59986 -5.867,-4.4 -1.5599,-1.6984 -2.8947,-3.6938 -3.667,-5.86685 -0.66,-1.8568 -0.7331,-5.86685 -0.7331,-5.86685 v -1.46685 c 0,0 1.359,4.3494 2.9332,5.86685 2.1269,2.04929 5.114,3.59864 8.067,3.66684 2.6324,0.0605 5.3962,-1.15059 7.3334,-2.93314 1.6088,-1.4806 2.9332,-3.68005 2.9332,-5.86685 0,-2.73295 -1.9157,-5.2349 -3.6669,-7.33316 -1.5665,-1.8766 -3.8941,-2.95624 -5.867,-4.39999 -1.6968,-1.2419 -3.5289,-2.30725 -5.1333,-3.66685 -1.583,-1.34091 -3.2259,-2.69005 -4.4001,-4.40001 -1.363,-1.98439 -2.2001,-2.93314 -2.9333,-6.6"
       id="path10287" />
    <path
       inkscape:connector-curvature="0"
       d="m 699.99952,726.99971 c 0.7331,-3.6669 1.5702,-4.6156 2.9332,-6.6 1.1743,-1.71 2.8172,-3.0591 4.4001,-4.4 1.6044,-1.359 3.4365,-2.4244 5.1333,-3.6669 1.9723,-1.4437 4.3005,-2.5233 5.867,-4.3999 1.7512,-2.0983 3.6669,-4.6003 3.6669,-7.3332 0,-2.1863 -1.3244,-4.3863 -2.9332,-5.8669 -1.9377,-1.7825 -4.7015,-2.9942 -7.3333,-2.9331 -2.9531,0.068 -5.9402,1.617 -8.0671,3.6668 -1.5741,1.5169 -2.9332,5.8669 -2.9332,5.8669 v -1.4669 c 0,-0.7331 0.073,-4.0095 0.7331,-5.8668 0.7723,-2.1731 2.1066,-4.1685 3.667,-5.8669 1.6555,-1.8001 5.867,-4.4 5.867,-4.4 v -0.7331 c 0,0 -5.8368,1.2216 -8.8002,1.4669 -1.462,0.1209 -2.9382,0.1209 -4.4001,0 -2.9635,-0.2453 -8.8003,-1.4669 -8.8003,-1.4669 v 0.7331 c 0,0 4.2131,2.5999 5.867,4.4 1.5599,1.6984 2.8947,3.6938 3.667,5.8669 0.66,1.8568 0.7331,5.8668 0.7331,5.8668 v 1.4669 c 0,0 -1.359,-4.3494 -2.9332,-5.8669 -2.1269,-2.0492 -5.114,-3.5986 -8.067,-3.6668 -2.6324,-0.061 -5.3962,1.1506 -7.3334,2.9331 -1.6088,1.4806 -2.9332,3.6801 -2.9332,5.8669 0,2.7329 1.9157,5.2349 3.6669,7.3332 1.5665,1.8766 3.8941,2.9562 5.867,4.3999 1.6968,1.2419 3.5289,2.3073 5.1333,3.6669 1.583,1.3409 3.2259,2.69 4.4001,4.4 1.363,1.9844 2.2001,2.9331 2.9333,6.6"
       id="path10289" />
    <path
       id="path10293"
       d="m 616.00022,500.99973 c -0.2666,1.3334 -0.571,1.6784 -1.0666,2.4 -0.4271,0.6218 -1.0245,1.1124 -1.6001,1.6 -0.5834,0.4942 -1.2496,0.8816 -1.8666,1.3334 -0.7172,0.525 -1.5638,0.9176 -2.1335,1.6 -0.6368,0.763 -1.3334,1.6728 -1.3334,2.6666 0,0.795 0.4816,1.595 1.0666,2.1334 0.7046,0.6482 1.7097,1.0888 2.6667,1.0666 1.0738,-0.0248 2.16,-0.588 2.9335,-1.3334 0.5724,-0.5516 1.0666,-2.1334 1.0666,-2.1334 v 0.5334 c 0,0.2666 -0.027,1.458 -0.2666,2.1334 -0.2808,0.7902 -0.766,1.5158 -1.3335,2.1334 -0.602,0.6546 -2.1334,1.6 -2.1334,1.6 v 0.2666 c 0,0 2.1225,-0.4442 3.2001,-0.5334 0.5316,-0.044 1.0684,-0.044 1.6,0 1.0776,0.0892 3.2001,0.5334 3.2001,0.5334 v -0.2666 c 0,0 -1.532,-0.9454 -2.1334,-1.6 -0.5673,-0.6176 -1.0527,-1.3432 -1.3335,-2.1334 -0.24,-0.6752 -0.2666,-2.1334 -0.2666,-2.1334 v -0.5334 c 0,0 0.4942,1.5816 1.0666,2.1334 0.7735,0.7452 1.8597,1.3086 2.9335,1.3334 0.9572,0.022 1.9622,-0.4184 2.6667,-1.0666 0.585,-0.5384 1.0666,-1.3382 1.0666,-2.1334 0,-0.9938 -0.6966,-1.9036 -1.3334,-2.6666 -0.5697,-0.6824 -1.4161,-1.075 -2.1335,-1.6 -0.617,-0.4516 -1.2832,-0.839 -1.8666,-1.3334 -0.5757,-0.4876 -1.1731,-0.9782 -1.6001,-1.6 -0.4956,-0.7216 -0.8,-1.0666 -1.0666,-2.4"
       inkscape:connector-curvature="0" />
    <path
       id="path10295"
       d="m 783.99982,698.99972 c 0.2666,-1.3334 0.571,-1.6784 1.0666,-2.4 0.4271,-0.6218 1.0245,-1.1124 1.6001,-1.6 0.5834,-0.4942 1.2496,-0.8816 1.8666,-1.3334 0.7172,-0.525 1.5638,-0.9176 2.1335,-1.6 0.6368,-0.763 1.3334,-1.6728 1.3334,-2.6666 0,-0.795 -0.4816,-1.595 -1.0666,-2.1334 -0.7046,-0.6482 -1.7097,-1.0888 -2.6667,-1.0666 -1.0738,0.025 -2.16,0.588 -2.9335,1.3334 -0.5724,0.5516 -1.0666,2.1334 -1.0666,2.1334 v -0.5334 c 0,-0.2666 0.027,-1.458 0.2666,-2.1334 0.2808,-0.7902 0.766,-1.5158 1.3335,-2.1334 0.602,-0.6546 2.1334,-1.6 2.1334,-1.6 v -0.2666 c 0,0 -2.1225,0.4442 -3.2001,0.5334 -0.5316,0.044 -1.0684,0.044 -1.6,0 -1.0776,-0.089 -3.2001,-0.5334 -3.2001,-0.5334 v 0.2666 c 0,0 1.532,0.9454 2.1334,1.6 0.5673,0.6176 1.0527,1.3432 1.3335,2.1334 0.24,0.6752 0.2666,2.1334 0.2666,2.1334 v 0.5334 c 0,0 -0.4942,-1.5816 -1.0666,-2.1334 -0.7735,-0.7452 -1.8597,-1.3086 -2.9335,-1.3334 -0.9572,-0.022 -1.9622,0.4184 -2.6667,1.0666 -0.585,0.5384 -1.0666,1.3382 -1.0666,2.1334 0,0.9938 0.6966,1.9036 1.3334,2.6666 0.5697,0.6824 1.4161,1.075 2.1335,1.6 0.617,0.4516 1.2832,0.839 1.8666,1.3334 0.5757,0.4876 1.1731,0.9782 1.6001,1.6 0.4956,0.7216 0.8,1.0666 1.0666,2.4"
       inkscape:connector-curvature="0" />
    <path
       id="path10-2"
       d="m 615.65976,466.99972 c -3.07724,0 -5.55458,2.49759 -5.55458,5.59999 v 2.80001 h 2.77729 v -2.80001 c 0,-1.55119 1.23867,-2.79999 2.77729,-2.79999 1.53862,0 2.77729,1.2488 2.77729,2.79999 v 2.80001 c 0,1.5512 -1.23867,2.8 -2.77729,2.8 h -2.77729 v 2.79999 h 2.77729 c 1.53862,0 2.77729,1.24881 2.77729,2.80001 v 5.6 c 0,1.5512 -1.23867,2.79999 -2.77729,2.79999 -1.53862,0 -2.77729,-1.24879 -2.77729,-2.79999 v -2.8 h -2.77729 v 2.8 c 0,3.1024 2.47734,5.6 5.55458,5.6 3.07724,0 5.55458,-2.4976 5.55458,-5.6 v -5.6 c 0,-1.68001 -0.73487,-3.17521 -1.89189,-4.2 1.15702,-1.0248 1.89189,-2.51776 1.89189,-4.2 v -2.80001 c 0,-3.1024 -2.47734,-5.59999 -5.55458,-5.59999"
       inkscape:connector-curvature="0" />
    <path
       id="path10-7-3"
       d="m 784.15478,732.99968 c 3.07724,0 5.55458,-2.49759 5.55458,-5.59999 v -2.80001 h -2.77729 v 2.80001 c 0,1.55119 -1.23867,2.79999 -2.77729,2.79999 -1.53862,0 -2.77729,-1.2488 -2.77729,-2.79999 v -2.80001 c 0,-1.5512 1.23867,-2.8 2.77729,-2.8 h 2.77729 v -2.79999 h -2.77729 c -1.53862,0 -2.77729,-1.24881 -2.77729,-2.80001 v -5.6 c 0,-1.5512 1.23867,-2.79999 2.77729,-2.79999 1.53862,0 2.77729,1.24879 2.77729,2.79999 v 2.8 h 2.77729 v -2.8 c 0,-3.1024 -2.47734,-5.6 -5.55458,-5.6 -3.07724,0 -5.55458,2.4976 -5.55458,5.6 v 5.6 c 0,1.68001 0.73487,3.17521 1.89189,4.2 -1.15702,1.0248 -1.89189,2.51776 -1.89189,4.2 v 2.80001 c 0,3.1024 2.47734,5.59999 5.55458,5.59999"
       inkscape:connector-curvature="0" />
  </g>
</svg>
