<?xml version="1.0" encoding="UTF-8" standalone="no"?>
<!-- Created with Inkscape (http://www.inkscape.org/) -->

<svg
   id="svg10047"
   height="123.00282"
   width="78.999634"
   version="1.1"
   viewBox="0 0 78.999634 123.00282"
   inkscape:version="0.91 r13725"
   sodipodi:docname="dondorf-haupstadte-spiel.svgz"
   xmlns:inkscape="http://www.inkscape.org/namespaces/inkscape"
   xmlns:sodipodi="http://sodipodi.sourceforge.net/DTD/sodipodi-0.dtd"
   xmlns="http://www.w3.org/2000/svg"
   xmlns:svg="http://www.w3.org/2000/svg"
   xmlns:rdf="http://www.w3.org/1999/02/22-rdf-syntax-ns#"
   xmlns:cc="http://creativecommons.org/ns#"
   xmlns:dc="http://purl.org/dc/elements/1.1/">
  <sodipodi:namedview
     pagecolor="#ffffff"
     bordercolor="#666666"
     borderopacity="1"
     objecttolerance="10"
     gridtolerance="10"
     guidetolerance="10"
     inkscape:pageopacity="0"
     inkscape:pageshadow="2"
     inkscape:window-width="1920"
     inkscape:window-height="1016"
     id="namedview1491"
     showgrid="false"
     inkscape:zoom="1.3479675"
     inkscape:cx="513.5"
     inkscape:cy="307.5"
     inkscape:window-x="0"
     inkscape:window-y="0"
     inkscape:window-maximized="1"
     inkscape:current-layer="svg10047"
     showguides="true"
     inkscape:guide-bbox="true"
     inkscape:snap-grids="true"
     inkscape:showpageshadow="2"
     inkscape:pagecheckerboard="0"
     inkscape:deskcolor="#d1d1d1" />
  <metadata
     id="metadata16869">
    <rdf:RDF>
      <cc:Work
         rdf:about="">
        <dc:format>image/svg+xml</dc:format>
        <dc:type
           rdf:resource="http://purl.org/dc/dcmitype/StillImage" />
        <dc:title />
      </cc:Work>
    </rdf:RDF>
  </metadata>
  <defs
     id="defs10049" />
  <g
     transform="matrix(0.12908438,0,0,0.1366698,-103.2675,-287.00657)"
     id="club_2"
     inkscape:label="#club_2">
    <rect
       width="610.31671"
       height="898.31677"
       rx="50.906204"
       ry="49.905743"
       x="800.84161"
       y="2100.8416"
       id="rect9144"
       style="fill:#ffffff;stroke:#000000;stroke-width:1.68326" />
    <rect
       width="530.50201"
       height="818.50201"
       rx="44.24889"
       ry="45.471661"
       x="840.7547"
       y="2140.6489"
       id="rect9146"
       style="fill:none;stroke:#000000;stroke-width:1.498" />
    <rect
       width="49.846199"
       height="103.83645"
       rx="4.1576452"
       ry="5.7686071"
       x="815.09161"
       y="2164.9526"
       id="rect9148"
       style="fill:#ffffff;stroke:#000000;stroke-width:0.16355;stroke-opacity:1" />
    <rect
       transform="scale(-1)"
       style="fill:#ffffff;stroke:#000000;stroke-width:0.16355;stroke-opacity:1"
       id="rect9150"
       y="-2934.8184"
       x="-1395.9277"
       ry="5.7686071"
       rx="4.1576452"
       height="103.83645"
       width="49.846199" />
    <path
       d="m 851.99998,2253.211 -2.54749,6.789 h -21.45251 v -0.9624 q 9.46592,-8.3758 13.32738,-13.6821 3.86145,-5.3063 3.86145,-9.7023 0,-3.3555 -2.11843,-5.5145 -2.11844,-2.1589 -5.06816,-2.1589 -2.68156,0 -4.82682,1.5347 -2.11843,1.5086 -3.13742,4.448 h -0.99219 q 0.67039,-4.8122 3.4324,-7.3874 2.78883,-2.5751 6.94526,-2.5751 4.42458,0 7.3743,2.7572 2.97654,2.7573 2.97654,6.5029 0,2.6792 -1.28716,5.3584 -1.98435,4.2139 -6.43575,8.922 -6.67709,7.0751 -8.33966,8.5318 h 9.49274 q 2.89608,0 4.04915,-0.2081 1.17989,-0.2081 2.11844,-0.8324 0.93855,-0.6503 1.63575,-1.8208 z"
       id="path9164"
       inkscape:connector-curvature="0"
       style="font-style:normal;font-variant:normal;font-weight:normal;font-stretch:normal;font-size:medium;line-height:125%;font-family:'Times New Roman';-inkscape-font-specification:'Times New Roman, ';letter-spacing:0px;word-spacing:0px;fill:#000000;fill-opacity:1;stroke:none;stroke-width:1px;stroke-linecap:butt;stroke-linejoin:miter;stroke-opacity:1" />
    <path
       style="font-style:normal;font-variant:normal;font-weight:normal;font-stretch:normal;font-size:medium;line-height:125%;font-family:'Times New Roman';-inkscape-font-specification:'Times New Roman, ';letter-spacing:0px;word-spacing:0px;fill:#000000;fill-opacity:1;stroke:none;stroke-width:1px;stroke-linecap:butt;stroke-linejoin:miter;stroke-opacity:1"
       inkscape:connector-curvature="0"
       id="path9180"
       d="m 1362.0001,2846.789 2.5475,-6.789 h 21.4525 v 0.9624 q -9.4659,8.3758 -13.3274,13.6821 -3.8614,5.3063 -3.8614,9.7023 0,3.3555 2.1184,5.5145 2.1185,2.1589 5.0682,2.1589 2.6815,0 4.8268,-1.5347 2.1184,-1.5086 3.1374,-4.448 h 0.9922 q -0.6704,4.8122 -3.4324,7.3874 -2.7888,2.5751 -6.9453,2.5751 -4.4245,0 -7.3742,-2.7572 -2.9766,-2.7573 -2.9766,-6.5029 0,-2.6792 1.2872,-5.3584 1.9843,-4.2139 6.4357,-8.922 6.6771,-7.0751 8.3397,-8.5318 h -9.4928 q -2.896,0 -4.0491,0.2081 -1.1799,0.2081 -2.1185,0.8324 -0.9385,0.6503 -1.6357,1.8208 z" />
    <path
       style="fill:#111111"
       d="m 1367.1772,2887.3048 c 0,0.2719 0.5312,1.2844 1.1805,2.25 3.0522,4.539 4.0731,13.1835 1.7772,15.0485 -0.5264,0.4276 -1.1265,0.7775 -1.3333,0.7775 -0.2069,0 -0.9479,-0.9322 -1.6467,-2.0715 -2.2093,-3.602 -6.0518,-4.7365 -9.6241,-2.8414 -4.7806,2.5361 -4.688,8.8266 0.1647,11.1832 3.5973,1.747 7.2887,0.6001 9.4594,-2.9388 0.6988,-1.1393 1.4398,-2.0715 1.6467,-2.0715 1.0921,0 2.2399,1.6208 2.4458,3.4539 l 0.2192,1.9506 -2.1163,1.3063 c -3.6683,2.2643 -4.8446,6.3866 -2.8837,10.1064 2.528,4.7958 8.7986,4.7029 11.1478,-0.1653 1.8116,-3.7541 0.6235,-7.7162 -2.9808,-9.9411 l -2.1164,-1.3063 0.2193,-1.9506 c 0.2059,-1.8331 1.3536,-3.4539 2.4458,-3.4539 0.2069,0 0.9479,0.9322 1.6467,2.0715 2.1706,3.5389 5.8621,4.6858 9.4593,2.9388 3.374,-1.6385 4.6509,-5.213 2.9821,-8.3482 -2.6538,-4.9858 -9.3816,-4.9823 -12.4414,0.01 -0.6988,1.1393 -1.4398,2.0715 -1.6467,2.0715 -0.2069,0 -0.8069,-0.3499 -1.3333,-0.7775 -2.2959,-1.865 -1.275,-10.5095 1.7771,-15.0485 1.3642,-2.0287 1.5217,-2.8862 0.4479,-2.4392 -2.8802,1.1989 -5.3479,1.2006 -8.1642,0.01 -0.4583,-0.1944 -0.7326,-0.1257 -0.7326,0.1834 z"
       id="path11857"
       inkscape:connector-curvature="0" />
    <path
       inkscape:connector-curvature="0"
       id="path11885"
       d="m 835.17718,2212.5988 c 0,-0.2719 0.5312,-1.2844 1.1805,-2.25 3.0522,-4.539 4.0731,-13.1835 1.7772,-15.0485 -0.5264,-0.4276 -1.1265,-0.7775 -1.3333,-0.7775 -0.2069,0 -0.9479,0.9322 -1.6467,2.0715 -2.2093,3.602 -6.0518,4.7365 -9.6241,2.8414 -4.7806,-2.5361 -4.688,-8.8266 0.1647,-11.1832 3.5973,-1.747 7.2887,-0.6001 9.4594,2.9388 0.6988,1.1393 1.4398,2.0715 1.6467,2.0715 1.0921,0 2.2399,-1.6208 2.4458,-3.4539 l 0.2192,-1.9506 -2.1163,-1.3063 c -3.6683,-2.2643 -4.8446,-6.3866 -2.8837,-10.1064 2.528,-4.7958 8.7986,-4.7029 11.1478,0.1653 1.8116,3.7541 0.6235,7.7162 -2.9808,9.9411 l -2.1164,1.3063 0.2193,1.9506 c 0.2059,1.8331 1.3536,3.4539 2.4458,3.4539 0.2069,0 0.9479,-0.9322 1.6467,-2.0715 2.1706,-3.5389 5.8621,-4.6858 9.4593,-2.9388 3.374,1.6385 4.6509,5.213 2.9821,8.3482 -2.6538,4.9858 -9.3816,4.9823 -12.4414,-0.01 -0.6988,-1.1393 -1.4398,-2.0715 -1.6467,-2.0715 -0.2069,0 -0.8069,0.3499 -1.3333,0.7775 -2.2959,1.865 -1.275,10.5095 1.7771,15.0485 1.3642,2.0287 1.5217,2.8862 0.4479,2.4392 -2.8802,-1.1989 -5.3479,-1.2006 -8.1642,-0.01 -0.4583,0.1944 -0.7326,0.1257 -0.7326,-0.1834 z"
       style="fill:#111111" />
    <path
       inkscape:connector-curvature="0"
       id="path12395"
       d="m 1090.1918,2306.0093 c 0,-0.8835 1.7413,-4.1741 3.8696,-7.3124 10.0044,-14.7517 13.3507,-42.8463 5.8253,-48.9075 -1.7255,-1.3898 -3.6923,-2.527 -4.3703,-2.527 -0.6782,0 -3.1071,3.0296 -5.3977,6.7324 -7.2417,11.7066 -19.8365,15.3936 -31.5455,9.2347 -15.6699,-8.2424 -15.3663,-28.6866 0.5399,-36.3457 11.791,-5.6775 23.8908,-1.9503 31.0056,9.5511 2.2906,3.7028 4.7195,6.7324 5.3977,6.7324 3.5796,0 7.3416,-5.2674 8.0168,-11.225 l 0.7184,-6.3397 -6.9367,-4.2454 c -12.024,-7.359 -15.8794,-20.7564 -9.4524,-32.8456 8.2866,-15.5865 28.84,-15.2845 36.5401,0.5371 5.938,12.201 2.044,25.0777 -9.7704,32.3085 l -6.9367,4.2454 0.7184,6.3397 c 0.6751,5.9576 4.4371,11.225 8.0168,11.225 0.6782,0 3.1071,-3.0296 5.3977,-6.7324 7.1147,-11.5014 19.2145,-15.2286 31.0055,-9.5511 11.0592,5.3252 15.2444,16.9423 9.7745,27.1317 -8.6984,16.2038 -30.7505,16.1926 -40.78,-0.021 -2.2906,-3.7028 -4.7195,-6.7324 -5.3977,-6.7324 -0.678,0 -2.6449,1.1372 -4.3704,2.527 -7.5253,6.0612 -4.179,34.1558 5.8252,48.9075 4.4716,6.5934 4.9878,9.3802 1.4682,7.9276 -9.4407,-3.8964 -17.529,-3.9021 -26.7605,-0.019 -1.502,0.6319 -2.4014,0.4086 -2.4014,-0.5961 z"
       style="fill:#111111" />
    <circle
       r="4.629539"
       style="opacity:1;fill:#ffffff;fill-opacity:1;stroke:#ffffff;stroke-width:0.740922;stroke-opacity:1"
       id="circle12397"
       cx="1106.0596"
       cy="-2245.3"
       transform="scale(1,-1)" />
    <path
       style="fill:#111111"
       d="m 1090.1918,2793.9907 c 0,0.8835 1.7413,4.1741 3.8696,7.3124 10.0044,14.7517 13.3507,42.8463 5.8253,48.9075 -1.7255,1.3899 -3.6923,2.527 -4.3703,2.527 -0.6782,0 -3.1071,-3.0296 -5.3977,-6.7324 -7.2417,-11.7066 -19.8365,-15.3936 -31.5455,-9.2347 -15.6699,8.2424 -15.3663,28.6866 0.5399,36.3457 11.791,5.6775 23.8908,1.9503 31.0056,-9.5511 2.2906,-3.7028 4.7195,-6.7324 5.3977,-6.7324 3.5796,0 7.3416,5.2674 8.0168,11.225 l 0.7184,6.3397 -6.9367,4.2454 c -12.024,7.359 -15.8794,20.7564 -9.4524,32.8456 8.2866,15.5865 28.84,15.2845 36.5401,-0.5371 5.938,-12.201 2.044,-25.0777 -9.7704,-32.3085 l -6.9367,-4.2454 0.7184,-6.3397 c 0.6751,-5.9576 4.4371,-11.225 8.0168,-11.225 0.6782,0 3.1071,3.0296 5.3977,6.7324 7.1147,11.5014 19.2145,15.2286 31.0055,9.5511 11.0592,-5.3252 15.2444,-16.9423 9.7745,-27.1317 -8.6984,-16.2038 -30.7505,-16.1926 -40.78,0.021 -2.2906,3.7028 -4.7195,6.7324 -5.3977,6.7324 -0.678,0 -2.6449,-1.1372 -4.3704,-2.527 -7.5253,-6.0612 -4.179,-34.1558 5.8252,-48.9075 4.4716,-6.5934 4.9878,-9.3802 1.4682,-7.9276 -9.4407,3.8964 -17.529,3.9021 -26.7605,0.019 -1.502,-0.6319 -2.4014,-0.4086 -2.4014,0.5962 z"
       id="path12401"
       inkscape:connector-curvature="0" />
    <circle
       cy="2854.7"
       cx="1106.0596"
       id="circle12403"
       style="opacity:1;fill:#ffffff;fill-opacity:1;stroke:#ffffff;stroke-width:0.740922;stroke-opacity:1"
       r="4.629539" />
  </g>
</svg>
