<?xml version="1.0" encoding="UTF-8" standalone="no"?>
<!-- Created with Inkscape (http://www.inkscape.org/) -->

<svg
   id="svg10047"
   height="123.00282"
   width="78.999634"
   version="1.1"
   viewBox="0 0 78.999634 123.00282"
   inkscape:version="0.91 r13725"
   sodipodi:docname="dondorf-haupstadte-spiel.svgz"
   xmlns:inkscape="http://www.inkscape.org/namespaces/inkscape"
   xmlns:sodipodi="http://sodipodi.sourceforge.net/DTD/sodipodi-0.dtd"
   xmlns="http://www.w3.org/2000/svg"
   xmlns:svg="http://www.w3.org/2000/svg"
   xmlns:rdf="http://www.w3.org/1999/02/22-rdf-syntax-ns#"
   xmlns:cc="http://creativecommons.org/ns#"
   xmlns:dc="http://purl.org/dc/elements/1.1/">
  <sodipodi:namedview
     pagecolor="#ffffff"
     bordercolor="#666666"
     borderopacity="1"
     objecttolerance="10"
     gridtolerance="10"
     guidetolerance="10"
     inkscape:pageopacity="0"
     inkscape:pageshadow="2"
     inkscape:window-width="1920"
     inkscape:window-height="1016"
     id="namedview1491"
     showgrid="false"
     inkscape:zoom="1.3479675"
     inkscape:cx="513.5"
     inkscape:cy="307.5"
     inkscape:window-x="0"
     inkscape:window-y="0"
     inkscape:window-maximized="1"
     inkscape:current-layer="svg10047"
     showguides="true"
     inkscape:guide-bbox="true"
     inkscape:snap-grids="true"
     inkscape:showpageshadow="2"
     inkscape:pagecheckerboard="0"
     inkscape:deskcolor="#d1d1d1" />
  <metadata
     id="metadata16869">
    <rdf:RDF>
      <cc:Work
         rdf:about="">
        <dc:format>image/svg+xml</dc:format>
        <dc:type
           rdf:resource="http://purl.org/dc/dcmitype/StillImage" />
        <dc:title />
      </cc:Work>
    </rdf:RDF>
  </metadata>
  <defs
     id="defs10049" />
  <g
     transform="matrix(0.12908438,0,0,0.1366698,-464.70376,-287.00657)"
     id="club_6"
     inkscape:label="#club_6">
    <rect
       style="fill:#ffffff;stroke:#000000;stroke-width:1.68326"
       id="rect9112"
       y="2100.8416"
       x="3600.8416"
       ry="49.905743"
       rx="50.906204"
       height="898.31677"
       width="610.31671" />
    <rect
       style="fill:none;stroke:#000000;stroke-width:1.498"
       id="rect9114"
       y="2140.6489"
       x="3640.7546"
       ry="45.471661"
       rx="44.24889"
       height="818.50201"
       width="530.50201" />
    <rect
       style="fill:#ffffff;stroke:#000000;stroke-width:0.16355;stroke-opacity:1"
       id="rect9116"
       y="2164.9526"
       x="3615.0916"
       ry="5.7686071"
       rx="4.1576452"
       height="103.83645"
       width="49.846199" />
    <rect
       width="49.846199"
       height="103.83645"
       rx="4.1576452"
       ry="5.7686071"
       x="-4195.9277"
       y="-2934.8184"
       id="rect9118"
       style="fill:#ffffff;stroke:#000000;stroke-width:0.16355;stroke-opacity:1"
       transform="scale(-1)" />
    <path
       d="m 3651.2438,2224 v 0.946 q -3.6966,0.3324 -6.049,1.3551 -2.3243,0.9972 -4.6207,3.0682 -2.2684,2.0711 -3.7807,4.6278 -1.4842,2.5313 -2.4924,6.0341 4.0327,-2.5312 8.0933,-2.5312 3.8927,0 6.7492,2.8636 2.8565,2.8636 2.8565,7.3636 0,4.3467 -2.8845,7.9262 -3.4726,4.3466 -9.1856,4.3466 -3.8925,0 -6.609,-2.3523 -5.3209,-4.5767 -5.3209,-11.8636 0,-4.6534 2.0443,-8.8466 2.0443,-4.1932 5.825,-7.4404 3.8086,-3.2471 7.2812,-4.3721 3.4726,-1.125 6.4691,-1.125 z m -17.4188,17.8977 q -0.5041,3.4517 -0.5041,5.5739 0,2.4545 0.9801,5.3438 1.0082,2.8636 2.9685,4.5511 1.4282,1.2017 3.4726,1.2017 2.4364,0 4.3407,-2.0966 1.9323,-2.0966 1.9323,-5.983 0,-4.3721 -1.9042,-7.5681 -1.9044,-3.1961 -5.405,-3.1961 -1.0641,0 -2.2963,0.4091 -1.2043,0.4091 -3.5846,1.7642 z"
       id="path9168"
       inkscape:connector-curvature="0"
       style="font-style:normal;font-variant:normal;font-weight:normal;font-stretch:normal;font-size:medium;line-height:125%;font-family:'Times New Roman';-inkscape-font-specification:'Times New Roman, ';letter-spacing:0px;word-spacing:0px;fill:#000000;fill-opacity:1;stroke:none;stroke-width:1px;stroke-linecap:butt;stroke-linejoin:miter;stroke-opacity:1" />
    <path
       style="font-style:normal;font-variant:normal;font-weight:normal;font-stretch:normal;font-size:medium;line-height:125%;font-family:'Times New Roman';-inkscape-font-specification:'Times New Roman, ';letter-spacing:0px;word-spacing:0px;fill:#000000;fill-opacity:1;stroke:none;stroke-width:1px;stroke-linecap:butt;stroke-linejoin:miter;stroke-opacity:1"
       inkscape:connector-curvature="0"
       id="path9184"
       d="m 4162.7563,2876 v -0.946 q 3.6966,-0.3324 6.049,-1.3551 2.3243,-0.9972 4.6207,-3.0682 2.2684,-2.0711 3.7807,-4.6278 1.4842,-2.5313 2.4924,-6.0341 -4.0327,2.5312 -8.0933,2.5312 -3.8927,0 -6.7492,-2.8636 -2.8565,-2.8636 -2.8565,-7.3636 0,-4.3467 2.8845,-7.9262 3.4726,-4.3466 9.1856,-4.3466 3.8925,0 6.609,2.3523 5.3209,4.5767 5.3209,11.8636 0,4.6534 -2.0443,8.8466 -2.0443,4.1932 -5.825,7.4404 -3.8086,3.2471 -7.2812,4.3721 -3.4726,1.125 -6.4691,1.125 z m 17.4188,-17.8977 q 0.5041,-3.4517 0.5041,-5.5739 0,-2.4545 -0.9801,-5.3438 -1.0082,-2.8636 -2.9685,-4.5511 -1.4282,-1.2017 -3.4726,-1.2017 -2.4364,0 -4.3407,2.0966 -1.9323,2.0966 -1.9323,5.983 0,4.3721 1.9042,7.5681 1.9044,3.1961 5.405,3.1961 1.0641,0 2.2963,-0.4091 1.2043,-0.4091 3.5846,-1.7642 z" />
    <path
       style="fill:#111111"
       d="m 4167.1772,2887.3048 c 0,0.2719 0.5312,1.2844 1.1805,2.25 3.0522,4.539 4.0731,13.1835 1.7772,15.0485 -0.5264,0.4276 -1.1265,0.7775 -1.3333,0.7775 -0.2069,0 -0.9479,-0.9322 -1.6467,-2.0715 -2.2093,-3.602 -6.0518,-4.7365 -9.6241,-2.8414 -4.7806,2.5361 -4.688,8.8266 0.1647,11.1832 3.5973,1.747 7.2887,0.6001 9.4594,-2.9388 0.6988,-1.1393 1.4398,-2.0715 1.6467,-2.0715 1.0921,0 2.2399,1.6208 2.4458,3.4539 l 0.2192,1.9506 -2.1163,1.3063 c -3.6683,2.2643 -4.8446,6.3866 -2.8837,10.1064 2.528,4.7958 8.7986,4.7029 11.1478,-0.1653 1.8116,-3.7541 0.6235,-7.7162 -2.9808,-9.9411 l -2.1164,-1.3063 0.2193,-1.9506 c 0.2059,-1.8331 1.3536,-3.4539 2.4458,-3.4539 0.2069,0 0.9479,0.9322 1.6467,2.0715 2.1706,3.5389 5.8621,4.6858 9.4593,2.9388 3.374,-1.6385 4.6509,-5.213 2.9821,-8.3482 -2.6538,-4.9858 -9.3816,-4.9823 -12.4414,0.01 -0.6988,1.1393 -1.4398,2.0715 -1.6467,2.0715 -0.2069,0 -0.8069,-0.3499 -1.3333,-0.7775 -2.2959,-1.865 -1.275,-10.5095 1.7771,-15.0485 1.3642,-2.0287 1.5217,-2.8862 0.4479,-2.4392 -2.8802,1.1989 -5.3479,1.2006 -8.1642,0.01 -0.4583,-0.1944 -0.7326,-0.1257 -0.7326,0.1834 z"
       id="path11853"
       inkscape:connector-curvature="0" />
    <path
       inkscape:connector-curvature="0"
       id="path11877"
       d="m 3635.1772,2212.6988 c 0,-0.2719 0.5312,-1.2844 1.1805,-2.25 3.0522,-4.539 4.0731,-13.1835 1.7772,-15.0485 -0.5264,-0.4276 -1.1265,-0.7775 -1.3333,-0.7775 -0.2069,0 -0.9479,0.9322 -1.6467,2.0715 -2.2093,3.602 -6.0518,4.7365 -9.6241,2.8414 -4.7806,-2.5361 -4.688,-8.8266 0.1647,-11.1832 3.5973,-1.747 7.2887,-0.6001 9.4594,2.9388 0.6988,1.1393 1.4398,2.0715 1.6467,2.0715 1.0921,0 2.2399,-1.6208 2.4458,-3.4539 l 0.2192,-1.9506 -2.1163,-1.3063 c -3.6683,-2.2643 -4.8446,-6.3866 -2.8837,-10.1064 2.528,-4.7958 8.7986,-4.7029 11.1478,0.1653 1.8116,3.7541 0.6235,7.7162 -2.9808,9.9411 l -2.1164,1.3063 0.2193,1.9506 c 0.2059,1.8331 1.3536,3.4539 2.4458,3.4539 0.2069,0 0.9479,-0.9322 1.6467,-2.0715 2.1706,-3.5389 5.8621,-4.6858 9.4593,-2.9388 3.374,1.6385 4.6509,5.213 2.9821,8.3482 -2.6538,4.9858 -9.3816,4.9823 -12.4414,-0.01 -0.6988,-1.1393 -1.4398,-2.0715 -1.6467,-2.0715 -0.2069,0 -0.8069,0.3499 -1.3333,0.7775 -2.2959,1.865 -1.275,10.5095 1.7771,15.0485 1.3642,2.0287 1.5217,2.8862 0.4479,2.4392 -2.8802,-1.1989 -5.3479,-1.2006 -8.1642,-0.01 -0.4583,0.1944 -0.7326,0.1257 -0.7326,-0.1834 z"
       style="fill:#111111" />
    <path
       inkscape:connector-curvature="0"
       id="path12221"
       d="m 3723.1918,2306.0093 c 0,-0.8835 1.7413,-4.1741 3.8696,-7.3124 10.0044,-14.7517 13.3507,-42.8463 5.8253,-48.9075 -1.7255,-1.3898 -3.6923,-2.527 -4.3703,-2.527 -0.6782,0 -3.1071,3.0296 -5.3977,6.7324 -7.2417,11.7066 -19.8365,15.3936 -31.5455,9.2347 -15.6699,-8.2424 -15.3663,-28.6866 0.5399,-36.3457 11.791,-5.6775 23.8908,-1.9503 31.0056,9.5511 2.2906,3.7028 4.7195,6.7324 5.3977,6.7324 3.5796,0 7.3416,-5.2674 8.0168,-11.225 l 0.7184,-6.3397 -6.9367,-4.2454 c -12.024,-7.359 -15.8794,-20.7564 -9.4524,-32.8456 8.2866,-15.5865 28.84,-15.2845 36.5401,0.5371 5.938,12.201 2.044,25.0777 -9.7704,32.3085 l -6.9367,4.2454 0.7184,6.3397 c 0.6751,5.9576 4.4371,11.225 8.0168,11.225 0.6782,0 3.1071,-3.0296 5.3977,-6.7324 7.1147,-11.5014 19.2145,-15.2286 31.0055,-9.5511 11.0592,5.3252 15.2444,16.9423 9.7745,27.1317 -8.6984,16.2038 -30.7505,16.1926 -40.78,-0.021 -2.2906,-3.7028 -4.7195,-6.7324 -5.3977,-6.7324 -0.678,0 -2.6449,1.1372 -4.3704,2.527 -7.5253,6.0612 -4.179,34.1558 5.8252,48.9075 4.4716,6.5934 4.9878,9.3802 1.4682,7.9276 -9.4407,-3.8964 -17.529,-3.9021 -26.7605,-0.019 -1.502,0.6319 -2.4014,0.4086 -2.4014,-0.5961 z"
       style="fill:#111111" />
    <circle
       r="4.629539"
       style="opacity:1;fill:#ffffff;fill-opacity:1;stroke:#ffffff;stroke-width:0.740922;stroke-opacity:1"
       id="circle12223"
       cx="3739.0596"
       cy="-2245.3"
       transform="scale(1,-1)" />
    <path
       style="fill:#111111"
       d="m 4057.1918,2306.0093 c 0,-0.8835 1.7413,-4.1741 3.8696,-7.3124 10.0044,-14.7517 13.3507,-42.8463 5.8253,-48.9075 -1.7255,-1.3898 -3.6923,-2.527 -4.3703,-2.527 -0.6782,0 -3.1071,3.0296 -5.3977,6.7324 -7.2417,11.7066 -19.8365,15.3936 -31.5455,9.2347 -15.6699,-8.2424 -15.3663,-28.6866 0.5399,-36.3457 11.791,-5.6775 23.8908,-1.9503 31.0056,9.5511 2.2906,3.7028 4.7195,6.7324 5.3977,6.7324 3.5796,0 7.3416,-5.2674 8.0168,-11.225 l 0.7184,-6.3397 -6.9367,-4.2454 c -12.024,-7.359 -15.8794,-20.7564 -9.4524,-32.8456 8.2866,-15.5865 28.84,-15.2845 36.5401,0.5371 5.938,12.201 2.044,25.0777 -9.7704,32.3085 l -6.9367,4.2454 0.7184,6.3397 c 0.6751,5.9576 4.4371,11.225 8.0168,11.225 0.6782,0 3.1071,-3.0296 5.3977,-6.7324 7.1147,-11.5014 19.2145,-15.2286 31.0055,-9.5511 11.0592,5.3252 15.2444,16.9423 9.7745,27.1317 -8.6984,16.2038 -30.7505,16.1926 -40.78,-0.021 -2.2906,-3.7028 -4.7195,-6.7324 -5.3977,-6.7324 -0.678,0 -2.6449,1.1372 -4.3704,2.527 -7.5253,6.0612 -4.179,34.1558 5.8252,48.9075 4.4716,6.5934 4.9878,9.3802 1.4682,7.9276 -9.4407,-3.8964 -17.529,-3.9021 -26.7605,-0.019 -1.502,0.6319 -2.4014,0.4086 -2.4014,-0.5961 z"
       id="path12227"
       inkscape:connector-curvature="0" />
    <circle
       transform="scale(1,-1)"
       cy="-2245.3"
       cx="4073.0596"
       id="circle12229"
       style="opacity:1;fill:#ffffff;fill-opacity:1;stroke:#ffffff;stroke-width:0.740922;stroke-opacity:1"
       r="4.629539" />
    <path
       inkscape:connector-curvature="0"
       id="path12233"
       d="m 4057.1918,2614.0093 c 0,-0.8835 1.7413,-4.1741 3.8696,-7.3124 10.0044,-14.7517 13.3507,-42.8463 5.8253,-48.9075 -1.7255,-1.3898 -3.6923,-2.527 -4.3703,-2.527 -0.6782,0 -3.1071,3.0296 -5.3977,6.7324 -7.2417,11.7066 -19.8365,15.3936 -31.5455,9.2347 -15.6699,-8.2424 -15.3663,-28.6866 0.5399,-36.3457 11.791,-5.6775 23.8908,-1.9503 31.0056,9.5511 2.2906,3.7028 4.7195,6.7324 5.3977,6.7324 3.5796,0 7.3416,-5.2674 8.0168,-11.225 l 0.7184,-6.3397 -6.9367,-4.2454 c -12.024,-7.359 -15.8794,-20.7564 -9.4524,-32.8456 8.2866,-15.5865 28.84,-15.2845 36.5401,0.5371 5.938,12.201 2.044,25.0777 -9.7704,32.3085 l -6.9367,4.2454 0.7184,6.3397 c 0.6751,5.9576 4.4371,11.225 8.0168,11.225 0.6782,0 3.1071,-3.0296 5.3977,-6.7324 7.1147,-11.5014 19.2145,-15.2286 31.0055,-9.5511 11.0592,5.3252 15.2444,16.9423 9.7745,27.1317 -8.6984,16.2038 -30.7505,16.1926 -40.78,-0.021 -2.2906,-3.7028 -4.7195,-6.7324 -5.3977,-6.7324 -0.678,0 -2.6449,1.1372 -4.3704,2.527 -7.5253,6.0612 -4.179,34.1558 5.8252,48.9075 4.4716,6.5934 4.9878,9.3802 1.4682,7.9276 -9.4407,-3.8964 -17.529,-3.9021 -26.7605,-0.019 -1.502,0.6319 -2.4014,0.4086 -2.4014,-0.5961 z"
       style="fill:#111111" />
    <circle
       r="4.629539"
       style="opacity:1;fill:#ffffff;fill-opacity:1;stroke:#ffffff;stroke-width:0.740922;stroke-opacity:1"
       id="circle12235"
       cx="4073.0596"
       cy="-2553.3"
       transform="scale(1,-1)" />
    <path
       style="fill:#111111"
       d="m 3723.1918,2793.9907 c 0,0.8835 1.7413,4.1741 3.8696,7.3124 10.0044,14.7517 13.3507,42.8463 5.8253,48.9075 -1.7255,1.3899 -3.6923,2.527 -4.3703,2.527 -0.6782,0 -3.1071,-3.0296 -5.3977,-6.7324 -7.2417,-11.7066 -19.8365,-15.3936 -31.5455,-9.2347 -15.6699,8.2424 -15.3663,28.6866 0.5399,36.3457 11.791,5.6775 23.8908,1.9503 31.0056,-9.5511 2.2906,-3.7028 4.7195,-6.7324 5.3977,-6.7324 3.5796,0 7.3416,5.2674 8.0168,11.225 l 0.7184,6.3397 -6.9367,4.2454 c -12.024,7.359 -15.8794,20.7564 -9.4524,32.8456 8.2866,15.5865 28.84,15.2845 36.5401,-0.5371 5.938,-12.201 2.044,-25.0777 -9.7704,-32.3085 l -6.9367,-4.2454 0.7184,-6.3397 c 0.6751,-5.9576 4.4371,-11.225 8.0168,-11.225 0.6782,0 3.1071,3.0296 5.3977,6.7324 7.1147,11.5014 19.2145,15.2286 31.0055,9.5511 11.0592,-5.3252 15.2444,-16.9423 9.7745,-27.1317 -8.6984,-16.2038 -30.7505,-16.1926 -40.78,0.021 -2.2906,3.7028 -4.7195,6.7324 -5.3977,6.7324 -0.678,0 -2.6449,-1.1372 -4.3704,-2.527 -7.5253,-6.0612 -4.179,-34.1558 5.8252,-48.9075 4.4716,-6.5934 4.9878,-9.3802 1.4682,-7.9276 -9.4407,3.8964 -17.529,3.9021 -26.7605,0.019 -1.502,-0.6319 -2.4014,-0.4086 -2.4014,0.5962 z"
       id="path12239"
       inkscape:connector-curvature="0" />
    <circle
       cy="2854.7"
       cx="3739.0596"
       id="circle12241"
       style="opacity:1;fill:#ffffff;fill-opacity:1;stroke:#ffffff;stroke-width:0.740922;stroke-opacity:1"
       r="4.629539" />
    <path
       inkscape:connector-curvature="0"
       id="path12245"
       d="m 4057.1918,2793.9907 c 0,0.8835 1.7413,4.1741 3.8696,7.3124 10.0044,14.7517 13.3507,42.8463 5.8253,48.9075 -1.7255,1.3899 -3.6923,2.527 -4.3703,2.527 -0.6782,0 -3.1071,-3.0296 -5.3977,-6.7324 -7.2417,-11.7066 -19.8365,-15.3936 -31.5455,-9.2347 -15.6699,8.2424 -15.3663,28.6866 0.5399,36.3457 11.791,5.6775 23.8908,1.9503 31.0056,-9.5511 2.2906,-3.7028 4.7195,-6.7324 5.3977,-6.7324 3.5796,0 7.3416,5.2674 8.0168,11.225 l 0.7184,6.3397 -6.9367,4.2454 c -12.024,7.359 -15.8794,20.7564 -9.4524,32.8456 8.2866,15.5865 28.84,15.2845 36.5401,-0.5371 5.938,-12.201 2.044,-25.0777 -9.7704,-32.3085 l -6.9367,-4.2454 0.7184,-6.3397 c 0.6751,-5.9576 4.4371,-11.225 8.0168,-11.225 0.6782,0 3.1071,3.0296 5.3977,6.7324 7.1147,11.5014 19.2145,15.2286 31.0055,9.5511 11.0592,-5.3252 15.2444,-16.9423 9.7745,-27.1317 -8.6984,-16.2038 -30.7505,-16.1926 -40.78,0.021 -2.2906,3.7028 -4.7195,6.7324 -5.3977,6.7324 -0.678,0 -2.6449,-1.1372 -4.3704,-2.527 -7.5253,-6.0612 -4.179,-34.1558 5.8252,-48.9075 4.4716,-6.5934 4.9878,-9.3802 1.4682,-7.9276 -9.4407,3.8964 -17.529,3.9021 -26.7605,0.019 -1.502,-0.6319 -2.4014,-0.4086 -2.4014,0.5962 z"
       style="fill:#111111" />
    <circle
       r="4.629539"
       style="opacity:1;fill:#ffffff;fill-opacity:1;stroke:#ffffff;stroke-width:0.740922;stroke-opacity:1"
       id="circle12247"
       cx="4073.0596"
       cy="2854.7" />
    <path
       inkscape:connector-curvature="0"
       id="path12257"
       d="m 3723.1918,2614.0093 c 0,-0.8835 1.7413,-4.1741 3.8696,-7.3124 10.0044,-14.7517 13.3507,-42.8463 5.8253,-48.9075 -1.7255,-1.3898 -3.6923,-2.527 -4.3703,-2.527 -0.6782,0 -3.1071,3.0296 -5.3977,6.7324 -7.2417,11.7066 -19.8365,15.3936 -31.5455,9.2347 -15.6699,-8.2424 -15.3663,-28.6866 0.5399,-36.3457 11.791,-5.6775 23.8908,-1.9503 31.0056,9.5511 2.2906,3.7028 4.7195,6.7324 5.3977,6.7324 3.5796,0 7.3416,-5.2674 8.0168,-11.225 l 0.7184,-6.3397 -6.9367,-4.2454 c -12.024,-7.359 -15.8794,-20.7564 -9.4524,-32.8456 8.2866,-15.5865 28.84,-15.2845 36.5401,0.5371 5.938,12.201 2.044,25.0777 -9.7704,32.3085 l -6.9367,4.2454 0.7184,6.3397 c 0.6751,5.9576 4.4371,11.225 8.0168,11.225 0.6782,0 3.1071,-3.0296 5.3977,-6.7324 7.1147,-11.5014 19.2145,-15.2286 31.0055,-9.5511 11.0592,5.3252 15.2444,16.9423 9.7745,27.1317 -8.6984,16.2038 -30.7505,16.1926 -40.78,-0.021 -2.2906,-3.7028 -4.7195,-6.7324 -5.3977,-6.7324 -0.678,0 -2.6449,1.1372 -4.3704,2.527 -7.5253,6.0612 -4.179,34.1558 5.8252,48.9075 4.4716,6.5934 4.9878,9.3802 1.4682,7.9276 -9.4407,-3.8964 -17.529,-3.9021 -26.7605,-0.019 -1.502,0.6319 -2.4014,0.4086 -2.4014,-0.5961 z"
       style="fill:#111111" />
    <circle
       r="4.629539"
       style="opacity:1;fill:#ffffff;fill-opacity:1;stroke:#ffffff;stroke-width:0.740922;stroke-opacity:1"
       id="circle12259"
       cx="3739.0596"
       cy="-2553.3"
       transform="scale(1,-1)" />
  </g>
</svg>
