<?xml version="1.0" encoding="UTF-8" standalone="no"?>
<!-- Created with Inkscape (http://www.inkscape.org/) -->

<svg
   id="svg10047"
   height="123.1309"
   width="78.987244"
   version="1.1"
   viewBox="0 0 78.987244 123.1309"
   inkscape:version="0.91 r13725"
   sodipodi:docname="dondorf-haupstadte-spiel.svgz"
   xmlns:inkscape="http://www.inkscape.org/namespaces/inkscape"
   xmlns:sodipodi="http://sodipodi.sourceforge.net/DTD/sodipodi-0.dtd"
   xmlns="http://www.w3.org/2000/svg"
   xmlns:svg="http://www.w3.org/2000/svg"
   xmlns:rdf="http://www.w3.org/1999/02/22-rdf-syntax-ns#"
   xmlns:cc="http://creativecommons.org/ns#"
   xmlns:dc="http://purl.org/dc/elements/1.1/">
  <sodipodi:namedview
     pagecolor="#ffffff"
     bordercolor="#666666"
     borderopacity="1"
     objecttolerance="10"
     gridtolerance="10"
     guidetolerance="10"
     inkscape:pageopacity="0"
     inkscape:pageshadow="2"
     inkscape:window-width="1920"
     inkscape:window-height="1016"
     id="namedview1491"
     showgrid="false"
     inkscape:zoom="1.3479675"
     inkscape:cx="513.5"
     inkscape:cy="307.5"
     inkscape:window-x="0"
     inkscape:window-y="0"
     inkscape:window-maximized="1"
     inkscape:current-layer="svg10047"
     showguides="true"
     inkscape:guide-bbox="true"
     inkscape:snap-grids="true"
     inkscape:showpageshadow="2"
     inkscape:pagecheckerboard="0"
     inkscape:deskcolor="#d1d1d1" />
  <metadata
     id="metadata16869">
    <rdf:RDF>
      <cc:Work
         rdf:about="">
        <dc:format>image/svg+xml</dc:format>
        <dc:type
           rdf:resource="http://purl.org/dc/dcmitype/StillImage" />
        <dc:title />
      </cc:Work>
    </rdf:RDF>
  </metadata>
  <defs
     id="defs10049" />
  <g
     transform="matrix(0.12906413,0,0,0.1368121,-193.5962,-150.4933)"
     id="diamond_3"
     inkscape:label="#diamond_3">
    <rect
       width="610.31671"
       height="898.31677"
       rx="50.906204"
       ry="49.905743"
       x="1500.8417"
       y="1100.8416"
       id="rect6334"
       style="fill:#ffffff;stroke:#000000;stroke-width:1.68326" />
    <rect
       width="530.50201"
       height="818.50201"
       rx="44.24889"
       ry="45.471661"
       x="1540.7548"
       y="1140.6489"
       id="rect6336"
       style="fill:none;stroke:#000000;stroke-width:1.498" />
    <rect
       width="49.846199"
       height="103.83645"
       rx="4.1576452"
       ry="5.7686071"
       x="1515.0917"
       y="1164.9525"
       id="rect6340"
       style="fill:#ffffff;stroke:#000000;stroke-width:0.16355;stroke-opacity:1" />
    <rect
       transform="scale(-1)"
       style="fill:#ffffff;stroke:#000000;stroke-width:0.16355;stroke-opacity:1"
       id="rect6342"
       y="-1934.8182"
       x="-2095.9277"
       ry="5.7686071"
       rx="4.1576452"
       height="103.83645"
       width="49.846199" />
    <path
       style="font-style:normal;font-variant:normal;font-weight:normal;font-stretch:normal;font-size:medium;line-height:125%;font-family:'Times New Roman';-inkscape-font-specification:'Times New Roman, ';letter-spacing:0px;word-spacing:0px;fill:#ff3000;fill-opacity:1;stroke:none;stroke-width:1px;stroke-linecap:butt;stroke-linejoin:miter;stroke-opacity:1"
       inkscape:connector-curvature="0"
       id="path6394"
       d="m 1528.6536,1231.3125 q 1.8056,-3.5029 4.5449,-5.3949 2.7704,-1.9176 6.8793,-1.9176 5.074,0 7.7821,2.7103 2.0546,2.0198 2.0546,4.321 0,3.7841 -5.79,7.8238 3.8911,1.2529 5.8833,3.5795 1.9922,2.3268 1.9922,5.4717 0,4.5 -3.4864,7.7982 -4.5448,4.2955 -13.1673,4.2955 -4.2646,0 -5.821,-0.8693 -1.5253,-0.8693 -1.5253,-1.8665 0,-0.7414 0.7159,-1.3039 0.7471,-0.5625 1.7743,-0.5625 0.7782,0 1.5876,0.2045 0.5292,0.1278 2.3969,0.946 1.8677,0.7926 2.5836,0.946 1.1518,0.2813 2.4592,0.2813 3.1751,0 5.5097,-2.0199 2.3658,-2.0199 2.3658,-4.7813 0,-2.0199 -1.0895,-3.9375 -0.8094,-1.4318 -1.7743,-2.1733 -1.3386,-1.0227 -3.6732,-1.8408 -2.3346,-0.8438 -4.7626,-0.8438 h -0.9962 v -0.7671 q 2.4592,-0.2556 4.9183,-1.4574 2.4903,-1.2016 3.611,-2.8891 1.1205,-1.6875 1.1205,-3.7074 0,-2.6336 -2.0232,-4.2444 -1.9923,-1.6363 -4.9806,-1.6363 -4.8249,0 -8.0622,4.2443 z" />
    <path
       d="m 2085.3465,1868.6875 q -1.8056,3.5029 -4.5449,5.3949 -2.7704,1.9176 -6.8793,1.9176 -5.074,0 -7.7821,-2.7103 -2.0546,-2.0198 -2.0546,-4.321 0,-3.7841 5.79,-7.8238 -3.8911,-1.2529 -5.8833,-3.5795 -1.9922,-2.3268 -1.9922,-5.4717 0,-4.5 3.4864,-7.7982 4.5448,-4.2955 13.1673,-4.2955 4.2646,0 5.821,0.8693 1.5253,0.8693 1.5253,1.8665 0,0.7414 -0.7159,1.3039 -0.7471,0.5625 -1.7743,0.5625 -0.7782,0 -1.5876,-0.2045 -0.5292,-0.1278 -2.3969,-0.946 -1.8677,-0.7926 -2.5836,-0.946 -1.1518,-0.2813 -2.4592,-0.2813 -3.1751,0 -5.5097,2.0199 -2.3658,2.0199 -2.3658,4.7813 0,2.0199 1.0895,3.9375 0.8094,1.4318 1.7743,2.1733 1.3386,1.0227 3.6732,1.8408 2.3346,0.8438 4.7626,0.8438 h 0.9962 v 0.7671 q -2.4592,0.2556 -4.9183,1.4574 -2.4903,1.2016 -3.611,2.8891 -1.1205,1.6875 -1.1205,3.7074 0,2.6336 2.0232,4.2444 1.9923,1.6363 4.9806,1.6363 4.8249,0 8.0622,-4.2443 z"
       id="path6414"
       inkscape:connector-curvature="0"
       style="font-style:normal;font-variant:normal;font-weight:normal;font-stretch:normal;font-size:medium;line-height:125%;font-family:'Times New Roman';-inkscape-font-specification:'Times New Roman, ';letter-spacing:0px;word-spacing:0px;fill:#ff3000;fill-opacity:1;stroke:none;stroke-width:1px;stroke-linecap:butt;stroke-linejoin:miter;stroke-opacity:1" />
    <path
       inkscape:connector-curvature="0"
       id="path6834"
       d="m 2072.2602,1887.2692 c 0.1434,0.2248 0.7939,1.259 1.4459,2.2981 2.2535,3.5918 3.6865,5.3642 7.0007,8.6587 3.3142,3.2947 5.0971,4.719 8.7102,6.9591 1.0455,0.648 2.0858,1.2948 2.3119,1.4372 0.3612,0.2275 0.3612,0.2905 0,0.5178 -0.2261,0.1426 -1.2663,0.7896 -2.3113,1.4379 -6.8266,4.2351 -12.3929,9.9217 -16.4805,16.8362 l -0.9373,1.5857 -0.9372,-1.5857 c -4.0877,-6.9145 -9.654,-12.6011 -16.4805,-16.8362 -1.0451,-0.6483 -2.0852,-1.2953 -2.3114,-1.4379 -0.3612,-0.2273 -0.3612,-0.2903 0,-0.5178 0.2262,-0.1424 1.2665,-0.7892 2.312,-1.4372 3.6131,-2.2401 5.396,-3.6644 8.7102,-6.9591 3.3142,-3.2945 4.7471,-5.0669 7.0007,-8.6587 0.6518,-1.0391 1.3025,-2.0733 1.4457,-2.2981 0.2288,-0.3591 0.2922,-0.3591 0.5209,0 z"
       style="fill:#fe3000;fill-opacity:1;image-rendering:auto" />
    <path
       style="fill:#fe3000;fill-opacity:1;image-rendering:auto"
       d="m 1542.2602,1173.2693 c 0.1434,0.2248 0.7939,1.259 1.4459,2.2981 2.2535,3.5918 3.6865,5.3642 7.0007,8.6587 3.3142,3.2947 5.0971,4.719 8.7102,6.9591 1.0455,0.648 2.0858,1.2948 2.3119,1.4372 0.3612,0.2275 0.3612,0.2905 0,0.5178 -0.2261,0.1426 -1.2663,0.7896 -2.3113,1.4379 -6.8266,4.2351 -12.3929,9.9217 -16.4805,16.8362 l -0.9373,1.5857 -0.9372,-1.5857 c -4.0877,-6.9145 -9.654,-12.6011 -16.4805,-16.8362 -1.0451,-0.6483 -2.0852,-1.2953 -2.3114,-1.4379 -0.3612,-0.2273 -0.3612,-0.2903 0,-0.5178 0.2262,-0.1424 1.2665,-0.7892 2.312,-1.4372 3.6131,-2.2401 5.396,-3.6644 8.7102,-6.9591 3.3142,-3.2945 4.7471,-5.0669 7.0007,-8.6587 0.6518,-1.0391 1.3025,-2.0733 1.4457,-2.2981 0.2288,-0.3591 0.2922,-0.3591 0.5209,0 z"
       id="path6854"
       inkscape:connector-curvature="0" />
    <path
       style="fill:#fe3000;fill-opacity:1;image-rendering:auto"
       d="m 1805.1537,1306.1247 c -0.4658,-0.7307 -2.5802,-4.0918 -4.6992,-7.469 -7.3238,-11.6733 -11.9807,-17.4332 -22.7519,-28.1406 -10.7713,-10.7075 -16.5657,-15.3366 -28.3084,-22.6169 -3.3976,-2.1064 -6.7786,-4.2084 -7.5137,-4.6711 -1.1739,-0.7394 -1.1739,-0.9439 0,-1.683 0.7351,-0.463 4.1155,-2.5659 7.512,-4.6729 22.186,-13.764 40.2768,-32.2456 53.5613,-54.7177 l 3.0463,-5.1534 3.0462,5.1534 c 13.2846,22.4721 31.3753,40.9537 53.5614,54.7177 3.3965,2.107 6.7769,4.2099 7.5119,4.6729 1.174,0.7391 1.174,0.9436 0,1.683 -0.735,0.4627 -4.1161,2.5647 -7.5137,4.6711 -11.7428,7.2803 -17.537,11.9094 -28.3083,22.6169 -10.7713,10.7074 -15.4283,16.4673 -22.7521,28.1406 -2.1188,3.3772 -4.2333,6.7383 -4.6991,7.469 -0.7434,1.1671 -0.9493,1.1671 -1.6927,0 z"
       id="path7051"
       inkscape:connector-curvature="0" />
    <path
       style="fill:#fe3000;fill-opacity:1;image-rendering:auto"
       d="m 1805.1537,1614.1247 c -0.4658,-0.7307 -2.5802,-4.0918 -4.6992,-7.469 -7.3238,-11.6733 -11.9807,-17.4332 -22.7519,-28.1406 -10.7713,-10.7075 -16.5657,-15.3366 -28.3084,-22.6169 -3.3976,-2.1064 -6.7786,-4.2084 -7.5137,-4.6711 -1.1739,-0.7394 -1.1739,-0.9439 0,-1.683 0.7351,-0.463 4.1155,-2.5659 7.512,-4.6729 22.186,-13.764 40.2768,-32.2456 53.5613,-54.7177 l 3.0463,-5.1534 3.0462,5.1534 c 13.2846,22.4721 31.3753,40.9537 53.5614,54.7177 3.3965,2.107 6.7769,4.2099 7.5119,4.6729 1.174,0.7391 1.174,0.9436 0,1.683 -0.735,0.4627 -4.1161,2.5647 -7.5137,4.6711 -11.7428,7.2803 -17.537,11.9094 -28.3083,22.6169 -10.7713,10.7074 -15.4283,16.4673 -22.7521,28.1406 -2.1188,3.3772 -4.2333,6.7383 -4.6991,7.469 -0.7434,1.1671 -0.9493,1.1671 -1.6927,0 z"
       id="path7055"
       inkscape:connector-curvature="0" />
    <path
       style="fill:#fe3000;fill-opacity:1;image-rendering:auto"
       d="m 1806.8463,1793.8754 c 0.4658,0.7307 2.5803,4.0918 4.6992,7.469 7.3239,11.6733 11.9808,17.4332 22.752,28.1406 10.7713,10.7075 16.5657,15.3366 28.3084,22.6169 3.3976,2.1064 6.7785,4.2084 7.5137,4.6711 1.1739,0.7394 1.1739,0.9439 0,1.683 -0.7351,0.463 -4.1155,2.5659 -7.512,4.6729 -22.186,13.764 -40.2768,32.2456 -53.5613,54.7177 L 1806,1923 l -3.0462,-5.1534 c -13.2846,-22.4721 -31.3753,-40.9537 -53.5614,-54.7177 -3.3965,-2.107 -6.7769,-4.2099 -7.5119,-4.6729 -1.174,-0.7391 -1.174,-0.9436 0,-1.683 0.735,-0.4627 4.1161,-2.5647 7.5137,-4.6711 11.7428,-7.2803 17.537,-11.9094 28.3083,-22.6169 10.7713,-10.7074 15.4283,-16.4673 22.7521,-28.1406 2.1188,-3.3772 4.2333,-6.7383 4.6991,-7.469 0.7434,-1.1671 0.9493,-1.1671 1.6926,0 z"
       id="path7057"
       inkscape:connector-curvature="0" />
  </g>
</svg>
