<?xml version="1.0" encoding="UTF-8" standalone="no"?>
<!-- Created with Inkscape (http://www.inkscape.org/) -->

<svg
   id="svg10047"
   height="123.1309"
   width="78.987244"
   version="1.1"
   viewBox="0 0 78.987244 123.1309"
   inkscape:version="0.91 r13725"
   sodipodi:docname="dondorf-haupstadte-spiel.svgz"
   xmlns:inkscape="http://www.inkscape.org/namespaces/inkscape"
   xmlns:sodipodi="http://sodipodi.sourceforge.net/DTD/sodipodi-0.dtd"
   xmlns="http://www.w3.org/2000/svg"
   xmlns:svg="http://www.w3.org/2000/svg"
   xmlns:rdf="http://www.w3.org/1999/02/22-rdf-syntax-ns#"
   xmlns:cc="http://creativecommons.org/ns#"
   xmlns:dc="http://purl.org/dc/elements/1.1/">
  <sodipodi:namedview
     pagecolor="#ffffff"
     bordercolor="#666666"
     borderopacity="1"
     objecttolerance="10"
     gridtolerance="10"
     guidetolerance="10"
     inkscape:pageopacity="0"
     inkscape:pageshadow="2"
     inkscape:window-width="1920"
     inkscape:window-height="1016"
     id="namedview1491"
     showgrid="false"
     inkscape:zoom="1.3479675"
     inkscape:cx="513.5"
     inkscape:cy="307.5"
     inkscape:window-x="0"
     inkscape:window-y="0"
     inkscape:window-maximized="1"
     inkscape:current-layer="svg10047"
     showguides="true"
     inkscape:guide-bbox="true"
     inkscape:snap-grids="true"
     inkscape:showpageshadow="2"
     inkscape:pagecheckerboard="0"
     inkscape:deskcolor="#d1d1d1" />
  <metadata
     id="metadata16869">
    <rdf:RDF>
      <cc:Work
         rdf:about="">
        <dc:format>image/svg+xml</dc:format>
        <dc:type
           rdf:resource="http://purl.org/dc/dcmitype/StillImage" />
        <dc:title />
      </cc:Work>
    </rdf:RDF>
  </metadata>
  <defs
     id="defs10049" />
  <g
     transform="matrix(0.12906413,0,0,0.1368121,-103.2513,-150.4933)"
     id="diamond_2"
     inkscape:label="#diamond_2">
    <rect
       style="fill:#ffffff;stroke:#000000;stroke-width:1.68326"
       id="rect6352"
       y="1100.8416"
       x="800.84161"
       ry="49.905743"
       rx="50.906204"
       height="898.31677"
       width="610.31671" />
    <rect
       style="fill:none;stroke:#000000;stroke-width:1.498"
       id="rect6354"
       y="1140.6489"
       x="840.7547"
       ry="45.471661"
       rx="44.24889"
       height="818.50201"
       width="530.50201" />
    <rect
       style="fill:#ffffff;stroke:#000000;stroke-width:0.16355;stroke-opacity:1"
       id="rect6358"
       y="1164.9525"
       x="815.09161"
       ry="5.7686071"
       rx="4.1576452"
       height="103.83645"
       width="49.846199" />
    <rect
       width="49.846199"
       height="103.83645"
       rx="4.1576452"
       ry="5.7686071"
       x="-1395.9277"
       y="-1934.8182"
       id="rect6360"
       style="fill:#ffffff;stroke:#000000;stroke-width:0.16355;stroke-opacity:1"
       transform="scale(-1)" />
    <path
       style="font-style:normal;font-variant:normal;font-weight:normal;font-stretch:normal;font-size:medium;line-height:125%;font-family:'Times New Roman';-inkscape-font-specification:'Times New Roman, ';letter-spacing:0px;word-spacing:0px;fill:#ff3000;fill-opacity:1;stroke:none;stroke-width:1px;stroke-linecap:butt;stroke-linejoin:miter;stroke-opacity:1"
       inkscape:connector-curvature="0"
       id="path6392"
       d="m 851.99998,1253.211 -2.54749,6.789 h -21.45251 v -0.9624 q 9.46592,-8.3758 13.32738,-13.6821 3.86145,-5.3063 3.86145,-9.7023 0,-3.3555 -2.11843,-5.5145 -2.11844,-2.1589 -5.06816,-2.1589 -2.68156,0 -4.82682,1.5347 -2.11843,1.5086 -3.13742,4.448 h -0.99219 q 0.67039,-4.8122 3.4324,-7.3874 2.78883,-2.5751 6.94526,-2.5751 4.42458,0 7.3743,2.7572 2.97654,2.7573 2.97654,6.5029 0,2.6792 -1.28716,5.3584 -1.98435,4.2139 -6.43575,8.922 -6.67709,7.0751 -8.33966,8.5318 h 9.49274 q 2.89608,0 4.04915,-0.2081 1.17989,-0.2081 2.11844,-0.8324 0.93855,-0.6503 1.63575,-1.8208 z" />
    <path
       d="m 1362.0001,1846.789 2.5475,-6.789 h 21.4525 v 0.9624 q -9.4659,8.3758 -13.3274,13.6821 -3.8614,5.3063 -3.8614,9.7023 0,3.3555 2.1184,5.5145 2.1185,2.1589 5.0682,2.1589 2.6815,0 4.8268,-1.5347 2.1184,-1.5086 3.1374,-4.448 h 0.9922 q -0.6704,4.8122 -3.4324,7.3874 -2.7888,2.5751 -6.9453,2.5751 -4.4245,0 -7.3742,-2.7572 -2.9766,-2.7573 -2.9766,-6.5029 0,-2.6792 1.2872,-5.3584 1.9843,-4.2139 6.4357,-8.922 6.6771,-7.0751 8.3397,-8.5318 h -9.4928 q -2.896,0 -4.0491,0.2081 -1.1799,0.2081 -2.1185,0.8324 -0.9385,0.6503 -1.6357,1.8208 z"
       id="path6412"
       inkscape:connector-curvature="0"
       style="font-style:normal;font-variant:normal;font-weight:normal;font-stretch:normal;font-size:medium;line-height:125%;font-family:'Times New Roman';-inkscape-font-specification:'Times New Roman, ';letter-spacing:0px;word-spacing:0px;fill:#ff3000;fill-opacity:1;stroke:none;stroke-width:1px;stroke-linecap:butt;stroke-linejoin:miter;stroke-opacity:1" />
    <path
       style="fill:#fe3000;fill-opacity:1;image-rendering:auto"
       d="m 1372.2604,1887.2692 c 0.1434,0.2248 0.7939,1.259 1.4459,2.2981 2.2535,3.5918 3.6865,5.3642 7.0007,8.6587 3.3142,3.2947 5.0971,4.719 8.7102,6.9591 1.0455,0.648 2.0858,1.2948 2.3119,1.4372 0.3612,0.2275 0.3612,0.2905 0,0.5178 -0.2261,0.1426 -1.2663,0.7896 -2.3113,1.4379 -6.8266,4.2351 -12.3929,9.9217 -16.4805,16.8362 l -0.9373,1.5857 -0.9372,-1.5857 c -4.0877,-6.9145 -9.654,-12.6011 -16.4805,-16.8362 -1.0451,-0.6483 -2.0852,-1.2953 -2.3114,-1.4379 -0.3612,-0.2273 -0.3612,-0.2903 0,-0.5178 0.2262,-0.1424 1.2665,-0.7892 2.312,-1.4372 3.6131,-2.2401 5.396,-3.6644 8.7102,-6.9591 3.3142,-3.2945 4.7471,-5.0669 7.0007,-8.6587 0.6518,-1.0391 1.3025,-2.0733 1.4457,-2.2981 0.2288,-0.3591 0.2922,-0.3591 0.5209,0 z"
       id="path6836"
       inkscape:connector-curvature="0" />
    <path
       inkscape:connector-curvature="0"
       id="path6856"
       d="m 842.2604,1173.2693 c 0.1434,0.2248 0.7939,1.259 1.4459,2.2981 2.2535,3.5918 3.6865,5.3642 7.0007,8.6587 3.3142,3.2947 5.0971,4.719 8.7102,6.9591 1.0455,0.648 2.0858,1.2948 2.3119,1.4372 0.3612,0.2275 0.3612,0.2905 0,0.5178 -0.2261,0.1426 -1.2663,0.7896 -2.3113,1.4379 -6.8266,4.2351 -12.3929,9.9217 -16.4805,16.8362 L 842,1213 l -0.9372,-1.5857 c -4.0877,-6.9145 -9.654,-12.6011 -16.4805,-16.8362 -1.0451,-0.6483 -2.0852,-1.2953 -2.3114,-1.4379 -0.3612,-0.2273 -0.3612,-0.2903 0,-0.5178 0.2262,-0.1424 1.2665,-0.7892 2.312,-1.4372 3.6131,-2.2401 5.396,-3.6644 8.7102,-6.9591 3.3142,-3.2945 4.7471,-5.0669 7.0007,-8.6587 0.6518,-1.0391 1.3025,-2.0733 1.4457,-2.2981 0.2288,-0.3591 0.2922,-0.3591 0.5209,0 z"
       style="fill:#fe3000;fill-opacity:1;image-rendering:auto" />
    <path
       inkscape:connector-curvature="0"
       id="path7061"
       d="m 1105.1537,1306.1247 c -0.4658,-0.7307 -2.5802,-4.0918 -4.6992,-7.469 -7.3238,-11.6733 -11.9807,-17.4332 -22.7519,-28.1406 -10.7713,-10.7075 -16.5657,-15.3366 -28.3084,-22.6169 -3.3976,-2.1064 -6.7786,-4.2084 -7.5137,-4.6711 -1.1739,-0.7394 -1.1739,-0.9439 0,-1.683 0.7351,-0.463 4.1155,-2.5659 7.512,-4.6729 22.186,-13.764 40.2768,-32.2456 53.5613,-54.7177 l 3.0463,-5.1534 3.0462,5.1534 c 13.2846,22.4721 31.3753,40.9537 53.5614,54.7177 3.3965,2.107 6.7769,4.2099 7.5119,4.6729 1.174,0.7391 1.174,0.9436 0,1.683 -0.735,0.4627 -4.1161,2.5647 -7.5137,4.6711 -11.7428,7.2803 -17.537,11.9094 -28.3083,22.6169 -10.7713,10.7074 -15.4283,16.4673 -22.7521,28.1406 -2.1188,3.3772 -4.2333,6.7383 -4.6991,7.469 -0.7434,1.1671 -0.9493,1.1671 -1.6927,0 z"
       style="fill:#fe3000;fill-opacity:1;image-rendering:auto" />
    <path
       inkscape:connector-curvature="0"
       id="path7065"
       d="m 1106.8463,1793.8754 c 0.4658,0.7307 2.5803,4.0918 4.6992,7.469 7.3239,11.6733 11.9808,17.4332 22.752,28.1406 10.7713,10.7075 16.5657,15.3366 28.3084,22.6169 3.3976,2.1064 6.7785,4.2084 7.5137,4.6711 1.1739,0.7394 1.1739,0.9439 0,1.683 -0.7351,0.463 -4.1155,2.5659 -7.512,4.6729 -22.186,13.764 -40.2768,32.2456 -53.5613,54.7177 L 1106,1923 l -3.0462,-5.1534 c -13.2846,-22.4721 -31.3753,-40.9537 -53.5614,-54.7177 -3.3965,-2.107 -6.7769,-4.2099 -7.5119,-4.6729 -1.174,-0.7391 -1.174,-0.9436 0,-1.683 0.735,-0.4627 4.1161,-2.5647 7.5137,-4.6711 11.7428,-7.2803 17.537,-11.9094 28.3083,-22.6169 10.7713,-10.7074 15.4283,-16.4673 22.7521,-28.1406 2.1188,-3.3772 4.2333,-6.7383 4.6991,-7.469 0.7434,-1.1671 0.9493,-1.1671 1.6926,0 z"
       style="fill:#fe3000;fill-opacity:1;image-rendering:auto" />
  </g>
</svg>
