<?xml version="1.0" encoding="UTF-8" standalone="no"?>
<!-- Created with Inkscape (http://www.inkscape.org/) -->

<svg
   id="svg10047"
   height="123.00285"
   width="78.999634"
   version="1.1"
   viewBox="0 0 78.999634 123.00285"
   inkscape:version="0.91 r13725"
   sodipodi:docname="dondorf-haupstadte-spiel.svgz"
   xmlns:inkscape="http://www.inkscape.org/namespaces/inkscape"
   xmlns:sodipodi="http://sodipodi.sourceforge.net/DTD/sodipodi-0.dtd"
   xmlns="http://www.w3.org/2000/svg"
   xmlns:svg="http://www.w3.org/2000/svg"
   xmlns:rdf="http://www.w3.org/1999/02/22-rdf-syntax-ns#"
   xmlns:cc="http://creativecommons.org/ns#"
   xmlns:dc="http://purl.org/dc/elements/1.1/">
  <sodipodi:namedview
     pagecolor="#ffffff"
     bordercolor="#666666"
     borderopacity="1"
     objecttolerance="10"
     gridtolerance="10"
     guidetolerance="10"
     inkscape:pageopacity="0"
     inkscape:pageshadow="2"
     inkscape:window-width="1920"
     inkscape:window-height="1016"
     id="namedview1491"
     showgrid="false"
     inkscape:zoom="1.3479675"
     inkscape:cx="513.5"
     inkscape:cy="307.5"
     inkscape:window-x="0"
     inkscape:window-y="0"
     inkscape:window-maximized="1"
     inkscape:current-layer="svg10047"
     showguides="true"
     inkscape:guide-bbox="true"
     inkscape:snap-grids="true"
     inkscape:showpageshadow="2"
     inkscape:pagecheckerboard="0"
     inkscape:deskcolor="#d1d1d1" />
  <metadata
     id="metadata16869">
    <rdf:RDF>
      <cc:Work
         rdf:about="">
        <dc:format>image/svg+xml</dc:format>
        <dc:type
           rdf:resource="http://purl.org/dc/dcmitype/StillImage" />
        <dc:title />
      </cc:Work>
    </rdf:RDF>
  </metadata>
  <defs
     id="defs10049" />
  <g
     transform="matrix(0.12908438,0,0,0.13666982,-464.70376,-13.666978)"
     id="heart_6"
     inkscape:label="#heart_6">
    <rect
       style="fill:#ffffff;stroke:#000000;stroke-width:1.68326"
       id="rect5176"
       y="100.8416"
       x="3600.8416"
       ry="49.905743"
       rx="50.906204"
       height="898.31677"
       width="610.31671" />
    <rect
       style="fill:none;stroke:#000000;stroke-width:1.498"
       id="rect5178"
       y="140.64899"
       x="3640.7546"
       ry="45.471661"
       rx="44.24889"
       height="818.50201"
       width="530.50201" />
    <path
       inkscape:connector-curvature="0"
       id="path5180-7"
       d="m 3734.1279,298.26306 c -2.3283,-4.80532 -10.1034,-15.1627 -17.2774,-23.01638 -21.4714,-23.50497 -29.2425,-34.53581 -33.9322,-48.16526 -13.666,-39.71558 23.7426,-67.92731 48.2101,-36.35756 l 7.1017,9.16318 8.1615,-9.31235 c 14.5082,-16.55363 30.4811,-18.06066 42.4949,-4.00937 17.9896,21.04042 9.7515,46.74958 -28.3479,88.46828 -7.0653,7.7365 -14.9456,18.09388 -17.5116,23.01641 L 3738.3614,307 Z"
       style="fill:#ff3000;fill-opacity:1" />
    <rect
       style="fill:#ffffff;stroke:#000000;stroke-width:0.16355;stroke-opacity:1"
       id="rect5182"
       y="164.95255"
       x="3615.0916"
       ry="5.7686071"
       rx="4.1576452"
       height="103.83645"
       width="49.846199" />
    <path
       style="fill:#ff3000;fill-opacity:1"
       d="m 4077.8705,801.73689 c 2.3283,4.8054 10.1034,15.1627 17.2774,23.0164 21.4714,23.505 29.2425,34.5358 33.9322,48.1653 13.666,39.7156 -23.7426,67.9273 -48.2101,36.3575 l -7.1017,-9.1631 -8.1615,9.3123 c -14.5082,16.5536 -30.4811,18.0607 -42.4949,4.0094 -17.9896,-21.0404 -9.7515,-46.7496 28.3479,-88.4683 7.0653,-7.7365 14.9456,-18.0939 17.5116,-23.0164 l 4.6656,-8.95 z"
       id="path5185"
       inkscape:connector-curvature="0" />
    <rect
       width="49.846199"
       height="103.83645"
       rx="4.1576452"
       ry="5.7686071"
       x="-4195.9277"
       y="-934.81824"
       id="rect5187"
       style="fill:#ffffff;stroke:#000000;stroke-width:0.16355;stroke-opacity:1"
       transform="scale(-1)" />
    <path
       inkscape:connector-curvature="0"
       id="path5189"
       d="m 3638.6483,210.142 c -0.7164,-1.47856 -3.1087,-4.66544 -5.3161,-7.08196 -6.6066,-7.2323 -8.9977,-10.62641 -10.4407,-14.82008 -4.2049,-12.22018 7.3054,-20.90071 14.8339,-11.18694 l 2.1851,2.81944 2.5113,-2.86534 c 4.464,-5.09342 9.3788,-5.55713 13.0753,-1.23365 5.5353,6.47397 3.0005,14.38448 -8.7224,27.22101 -2.174,2.38046 -4.5987,5.56734 -5.3882,7.08197 l -1.4356,2.75384 z"
       style="fill:#ff3000;fill-opacity:1" />
    <path
       style="fill:#ff3000;fill-opacity:1"
       d="m 4173.3497,889.62876 c 0.7164,1.4786 3.1087,4.6654 5.3161,7.082 6.6066,7.2323 8.9977,10.6264 10.4407,14.82 4.2049,12.2202 -7.3054,20.9007 -14.8339,11.187 l -2.1851,-2.8195 -2.5113,2.8654 c -4.464,5.0934 -9.3788,5.5571 -13.0753,1.2336 -5.5353,-6.4739 -3.0005,-14.3845 8.7224,-27.221 2.174,-2.3804 4.5987,-5.5673 5.3882,-7.082 l 1.4356,-2.7538 z"
       id="path5191"
       inkscape:connector-curvature="0" />
    <path
       inkscape:connector-curvature="0"
       id="path5201"
       d="m 4077.8705,298.2631 c 2.3283,-4.8054 10.1034,-15.1627 17.2774,-23.0164 21.4714,-23.505 29.2425,-34.5358 33.9322,-48.1653 13.666,-39.7156 -23.7426,-67.9273 -48.2101,-36.3575 l -7.1017,9.1631 -8.1615,-9.3123 c -14.5082,-16.5536 -30.4811,-18.0607 -42.4949,-4.0094 -17.9896,21.0404 -9.7515,46.7496 28.3479,88.4683 7.0653,7.7365 14.9456,18.0939 17.5116,23.0164 l 4.6656,8.95 z"
       style="fill:#ff3000;fill-opacity:1" />
    <path
       inkscape:connector-curvature="0"
       id="path5203"
       d="m 3743.8705,801.73689 c 2.3283,4.8054 10.1034,15.1627 17.2774,23.0164 21.4714,23.505 29.2425,34.5358 33.9322,48.1653 13.666,39.7156 -23.7426,67.9273 -48.2101,36.3575 l -7.1017,-9.1631 -8.1615,9.3123 c -14.5082,16.5536 -30.4811,18.0607 -42.4949,4.0094 -17.9896,-21.0404 -9.7515,-46.7496 28.3479,-88.4683 7.0653,-7.7365 14.9456,-18.0939 17.5116,-23.0164 l 4.6656,-8.95 z"
       style="fill:#ff3000;fill-opacity:1" />
    <path
       style="fill:#ff3000;fill-opacity:1"
       d="m 4077.8705,606.2631 c 2.3283,-4.8054 10.1034,-15.1627 17.2774,-23.0164 21.4714,-23.505 29.2425,-34.5358 33.9322,-48.1653 13.666,-39.7156 -23.7426,-67.9273 -48.2101,-36.3575 l -7.1017,9.1631 -8.1615,-9.3123 c -14.5082,-16.5536 -30.4811,-18.0607 -42.4949,-4.0094 -17.9896,21.0404 -9.7515,46.7496 28.3479,88.4683 7.0653,7.7365 14.9456,18.0939 17.5116,23.0164 l 4.6656,8.95 z"
       id="path5205"
       inkscape:connector-curvature="0" />
    <path
       style="fill:#ff3000;fill-opacity:1"
       d="m 3734.1279,606.26306 c -2.3283,-4.80532 -10.1034,-15.1627 -17.2774,-23.01638 -21.4714,-23.50497 -29.2425,-34.53581 -33.9322,-48.16526 -13.666,-39.71558 23.7426,-67.92731 48.2101,-36.35756 l 7.1017,9.16318 8.1615,-9.31235 c 14.5082,-16.55363 30.4811,-18.06066 42.4949,-4.00937 17.9896,21.04042 9.7515,46.74958 -28.3479,88.46828 -7.0653,7.7365 -14.9456,18.09388 -17.5116,23.01641 L 3738.3614,615 Z"
       id="path5217"
       inkscape:connector-curvature="0" />
    <path
       d="m 3651.2438,224 v 0.946 q -3.6966,0.3324 -6.049,1.3551 -2.3243,0.9972 -4.6207,3.0682 -2.2684,2.0711 -3.7807,4.6278 -1.4842,2.5313 -2.4924,6.0341 4.0327,-2.5312 8.0933,-2.5312 3.8927,0 6.7492,2.8636 2.8565,2.8636 2.8565,7.3636 0,4.3467 -2.8845,7.9262 -3.4726,4.3466 -9.1856,4.3466 -3.8925,0 -6.609,-2.3523 Q 3628,253.071 3628,245.7841 q 0,-4.6534 2.0443,-8.8466 2.0443,-4.1932 5.825,-7.4404 3.8086,-3.2471 7.2812,-4.3721 3.4726,-1.125 6.4691,-1.125 z m -17.4188,17.8977 q -0.5041,3.4517 -0.5041,5.5739 0,2.4545 0.9801,5.3438 1.0082,2.8636 2.9685,4.5511 1.4282,1.2017 3.4726,1.2017 2.4364,0 4.3407,-2.0966 1.9323,-2.0966 1.9323,-5.983 0,-4.3721 -1.9042,-7.5681 -1.9044,-3.1961 -5.405,-3.1961 -1.0641,0 -2.2963,0.4091 -1.2043,0.4091 -3.5846,1.7642 z"
       id="path57007"
       inkscape:connector-curvature="0"
       style="font-style:normal;font-variant:normal;font-weight:normal;font-stretch:normal;font-size:medium;line-height:125%;font-family:'Times New Roman';-inkscape-font-specification:'Times New Roman, ';letter-spacing:0px;word-spacing:0px;fill:#ff3000;fill-opacity:1;stroke:none;stroke-width:1px;stroke-linecap:butt;stroke-linejoin:miter;stroke-opacity:1" />
    <path
       style="font-style:normal;font-variant:normal;font-weight:normal;font-stretch:normal;font-size:medium;line-height:125%;font-family:'Times New Roman';-inkscape-font-specification:'Times New Roman, ';letter-spacing:0px;word-spacing:0px;fill:#ff3000;fill-opacity:1;stroke:none;stroke-width:1px;stroke-linecap:butt;stroke-linejoin:miter;stroke-opacity:1"
       inkscape:connector-curvature="0"
       id="path5719"
       d="m 4162.7563,876 v -0.946 q 3.6966,-0.3324 6.049,-1.3551 2.3243,-0.9972 4.6207,-3.0682 2.2684,-2.0711 3.7807,-4.6278 1.4842,-2.5313 2.4924,-6.0341 -4.0327,2.5312 -8.0933,2.5312 -3.8927,0 -6.7492,-2.8636 -2.8565,-2.8636 -2.8565,-7.3636 0,-4.3467 2.8845,-7.9262 3.4726,-4.3466 9.1856,-4.3466 3.8925,0 6.609,2.3523 5.3209,4.5767 5.3209,11.8636 0,4.6534 -2.0443,8.8466 -2.0443,4.1932 -5.825,7.4404 -3.8086,3.2471 -7.2812,4.3721 -3.4726,1.125 -6.4691,1.125 z m 17.4188,-17.8977 q 0.5041,-3.4517 0.5041,-5.5739 0,-2.4545 -0.9801,-5.3438 -1.0082,-2.8636 -2.9685,-4.5511 -1.4282,-1.2017 -3.4726,-1.2017 -2.4364,0 -4.3407,2.0966 -1.9323,2.0966 -1.9323,5.983 0,4.3721 1.9042,7.5681 1.9044,3.1961 5.405,3.1961 1.0641,0 2.2963,-0.4091 1.2043,-0.4091 3.5846,-1.7642 z" />
  </g>
</svg>
