<?xml version="1.0" encoding="UTF-8" standalone="no"?>
<!-- Created with Inkscape (http://www.inkscape.org/) -->

<svg
   id="svg10047"
   height="123.00282"
   width="78.999634"
   version="1.1"
   viewBox="0 0 78.999634 123.00282"
   inkscape:version="0.91 r13725"
   sodipodi:docname="dondorf-haupstadte-spiel.svgz"
   xmlns:inkscape="http://www.inkscape.org/namespaces/inkscape"
   xmlns:sodipodi="http://sodipodi.sourceforge.net/DTD/sodipodi-0.dtd"
   xmlns="http://www.w3.org/2000/svg"
   xmlns:svg="http://www.w3.org/2000/svg"
   xmlns:rdf="http://www.w3.org/1999/02/22-rdf-syntax-ns#"
   xmlns:cc="http://creativecommons.org/ns#"
   xmlns:dc="http://purl.org/dc/elements/1.1/">
  <sodipodi:namedview
     pagecolor="#ffffff"
     bordercolor="#666666"
     borderopacity="1"
     objecttolerance="10"
     gridtolerance="10"
     guidetolerance="10"
     inkscape:pageopacity="0"
     inkscape:pageshadow="2"
     inkscape:window-width="1920"
     inkscape:window-height="1016"
     id="namedview1491"
     showgrid="false"
     inkscape:zoom="1.3479675"
     inkscape:cx="513.5"
     inkscape:cy="307.5"
     inkscape:window-x="0"
     inkscape:window-y="0"
     inkscape:window-maximized="1"
     inkscape:current-layer="svg10047"
     showguides="true"
     inkscape:guide-bbox="true"
     inkscape:snap-grids="true"
     inkscape:showpageshadow="2"
     inkscape:pagecheckerboard="0"
     inkscape:deskcolor="#d1d1d1" />
  <metadata
     id="metadata16869">
    <rdf:RDF>
      <cc:Work
         rdf:about="">
        <dc:format>image/svg+xml</dc:format>
        <dc:type
           rdf:resource="http://purl.org/dc/dcmitype/StillImage" />
        <dc:title />
      </cc:Work>
    </rdf:RDF>
  </metadata>
  <defs
     id="defs10049" />
  <g
     transform="matrix(0.12908438,0,0,0.1366698,-464.70376,-423.67637)"
     id="spade_6"
     inkscape:label="#spade_6">
    <rect
       width="610.31671"
       height="898.31677"
       rx="50.906204"
       ry="49.905743"
       x="3600.8416"
       y="3100.8416"
       id="rect4471"
       style="fill:#ffffff;stroke:#000000;stroke-width:1.68326" />
    <rect
       width="530.50201"
       height="818.50201"
       rx="44.24889"
       ry="45.471661"
       x="3640.7546"
       y="3140.6489"
       id="rect4473"
       style="fill:none;stroke:#000000;stroke-width:1.498" />
    <rect
       width="49.846199"
       height="103.83645"
       rx="4.1576452"
       ry="5.7686071"
       x="3615.0916"
       y="3164.9526"
       id="rect4475"
       style="fill:#ffffff;stroke:#000000;stroke-width:0.16355;stroke-opacity:1" />
    <rect
       transform="scale(-1)"
       style="fill:#ffffff;stroke:#000000;stroke-width:0.16355;stroke-opacity:1"
       id="rect4477"
       y="-3934.8184"
       x="-4195.9277"
       ry="5.7686071"
       rx="4.1576452"
       height="103.83645"
       width="49.846199" />
    <path
       style="font-style:normal;font-variant:normal;font-weight:normal;font-stretch:normal;font-size:medium;line-height:125%;font-family:'Times New Roman';-inkscape-font-specification:'Times New Roman, ';letter-spacing:0px;word-spacing:0px;fill:#000000;fill-opacity:1;stroke:none;stroke-width:1px;stroke-linecap:butt;stroke-linejoin:miter;stroke-opacity:1"
       inkscape:connector-curvature="0"
       id="path4526-0"
       d="m 3651.2438,3223.9999 v 0.946 q -3.6966,0.3324 -6.049,1.3551 -2.3243,0.9972 -4.6207,3.0682 -2.2684,2.0711 -3.7807,4.6278 -1.4842,2.5313 -2.4924,6.0341 4.0327,-2.5312 8.0933,-2.5312 3.8927,0 6.7492,2.8636 2.8565,2.8636 2.8565,7.3636 0,4.3467 -2.8845,7.9262 -3.4726,4.3466 -9.1856,4.3466 -3.8925,0 -6.609,-2.3523 -5.3209,-4.5767 -5.3209,-11.8636 0,-4.6534 2.0443,-8.8466 2.0443,-4.1932 5.825,-7.4404 3.8086,-3.2471 7.2812,-4.3721 3.4726,-1.125 6.4691,-1.125 z m -17.4188,17.8977 q -0.5041,3.4517 -0.5041,5.5739 0,2.4545 0.9801,5.3438 1.0082,2.8636 2.9685,4.5511 1.4282,1.2017 3.4726,1.2017 2.4364,0 4.3407,-2.0966 1.9323,-2.0966 1.9323,-5.983 0,-4.3721 -1.9042,-7.5681 -1.9044,-3.1961 -5.405,-3.1961 -1.0641,0 -2.2963,0.4091 -1.2043,0.4091 -3.5846,1.7642 z" />
    <path
       d="m 4162.7563,3875.9999 v -0.946 q 3.6966,-0.3324 6.049,-1.3551 2.3243,-0.9972 4.6207,-3.0682 2.2684,-2.0711 3.7807,-4.6278 1.4842,-2.5313 2.4924,-6.0341 -4.0327,2.5312 -8.0933,2.5312 -3.8927,0 -6.7492,-2.8636 -2.8565,-2.8636 -2.8565,-7.3636 0,-4.3467 2.8845,-7.9262 3.4726,-4.3466 9.1856,-4.3466 3.8925,0 6.609,2.3523 5.3209,4.5767 5.3209,11.8636 0,4.6534 -2.0443,8.8466 -2.0443,4.1932 -5.825,7.4404 -3.8086,3.2471 -7.2812,4.3721 -3.4726,1.125 -6.4691,1.125 z m 17.4188,-17.8977 q 0.5041,-3.4517 0.5041,-5.5739 0,-2.4545 -0.9801,-5.3438 -1.0082,-2.8636 -2.9685,-4.5511 -1.4282,-1.2017 -3.4726,-1.2017 -2.4364,0 -4.3407,2.0966 -1.9323,2.0966 -1.9323,5.983 0,4.3721 1.9042,7.5681 1.9044,3.1961 5.405,3.1961 1.0641,0 2.2963,-0.4091 1.2043,-0.4091 3.5846,-1.7642 z"
       id="path4542-6"
       inkscape:connector-curvature="0"
       style="font-style:normal;font-variant:normal;font-weight:normal;font-stretch:normal;font-size:medium;line-height:125%;font-family:'Times New Roman';-inkscape-font-specification:'Times New Roman, ';letter-spacing:0px;word-spacing:0px;fill:#000000;fill-opacity:1;stroke:none;stroke-width:1px;stroke-linecap:butt;stroke-linejoin:miter;stroke-opacity:1" />
    <path
       style="fill:#080808"
       d="m 3723.128,3613.5818 c -2.4116,-2.38 -1.8842,-3.6314 3.4173,-8.1103 7.4497,-6.2938 9.124,-10.8644 9.124,-24.9093 0,-6.6273 -0.5585,-12.3903 -1.241,-12.8066 -0.6825,-0.4164 -2.1529,1.3973 -3.2672,4.0304 -5.8632,13.8531 -22.4541,20.66 -34.9816,14.3521 -2.6594,-1.3391 -6.8778,-4.6662 -9.3744,-7.3936 -13.5664,-14.8211 -6.6155,-36.6878 18.7675,-59.0411 20.5758,-18.1198 26.0502,-23.6117 28.9915,-29.0841 1.6611,-3.0906 3.5983,-5.6193 4.3046,-5.6193 0.7061,0 2.6431,2.5287 4.3043,5.6193 2.9414,5.4724 8.4158,10.9643 28.9915,29.0841 12.9889,11.4386 20.2301,21.2624 23.7221,32.1832 2.5051,7.8344 2.6255,9.3872 1.1862,15.3089 -1.8462,7.5958 -8.069,15.1932 -15.5153,18.9426 -12.5274,6.3079 -29.1184,-0.499 -34.9815,-14.3521 -1.1144,-2.6331 -2.5846,-4.4468 -3.2672,-4.0304 -0.6825,0.4163 -1.2409,6.1793 -1.2409,12.8066 0,14.0449 1.6741,18.6155 9.1239,24.9093 5.4277,4.5855 5.9314,5.989 3.0094,8.3826 -1.5845,1.2979 -2.3715,1.2098 -4.2597,-0.4769 -3.1476,-2.8113 -19.6232,-2.9421 -21.9506,-0.1743 -1.9263,2.2909 -2.8527,2.3631 -4.8629,0.3789 z"
       id="path5016-1"
       inkscape:connector-curvature="0" />
    <path
       inkscape:connector-curvature="0"
       id="path5018-5"
       d="m 4057.128,3613.5818 c -2.4116,-2.38 -1.8842,-3.6314 3.4173,-8.1103 7.4497,-6.2938 9.124,-10.8644 9.124,-24.9093 0,-6.6273 -0.5585,-12.3903 -1.241,-12.8066 -0.6825,-0.4164 -2.1529,1.3973 -3.2672,4.0304 -5.8632,13.8531 -22.4541,20.66 -34.9816,14.3521 -2.6594,-1.3391 -6.8778,-4.6662 -9.3744,-7.3936 -13.5664,-14.8211 -6.6155,-36.6878 18.7675,-59.0411 20.5758,-18.1198 26.0502,-23.6117 28.9915,-29.0841 1.6611,-3.0906 3.5983,-5.6193 4.3046,-5.6193 0.7061,0 2.6431,2.5287 4.3043,5.6193 2.9414,5.4724 8.4158,10.9643 28.9915,29.0841 12.9889,11.4386 20.2301,21.2624 23.7221,32.1832 2.5051,7.8344 2.6255,9.3872 1.1862,15.3089 -1.8462,7.5958 -8.069,15.1932 -15.5153,18.9426 -12.5274,6.3079 -29.1184,-0.499 -34.9815,-14.3521 -1.1144,-2.6331 -2.5846,-4.4468 -3.2672,-4.0304 -0.6825,0.4163 -1.2409,6.1793 -1.2409,12.8066 0,14.0449 1.6741,18.6155 9.1239,24.9093 5.4277,4.5855 5.9314,5.989 3.0094,8.3826 -1.5845,1.2979 -2.3715,1.2098 -4.2597,-0.4769 -3.1476,-2.8113 -19.6232,-2.9421 -21.9506,-0.1743 -1.9263,2.2909 -2.8527,2.3631 -4.8629,0.3789 z"
       style="fill:#080808" />
    <path
       inkscape:connector-curvature="0"
       id="path5020-9"
       d="m 3723.128,3305.5818 c -2.4116,-2.38 -1.8842,-3.6314 3.4173,-8.1103 7.4497,-6.2938 9.124,-10.8644 9.124,-24.9093 0,-6.6273 -0.5585,-12.3903 -1.241,-12.8066 -0.6825,-0.4164 -2.1529,1.3973 -3.2672,4.0304 -5.8632,13.8531 -22.4541,20.66 -34.9816,14.3521 -2.6594,-1.3391 -6.8778,-4.6662 -9.3744,-7.3936 -13.5664,-14.8211 -6.6155,-36.6878 18.7675,-59.0411 20.5758,-18.1198 26.0502,-23.6117 28.9915,-29.0841 1.6611,-3.0906 3.5983,-5.6193 4.3046,-5.6193 0.7061,0 2.6431,2.5287 4.3043,5.6193 2.9414,5.4724 8.4158,10.9643 28.9915,29.0841 12.9889,11.4386 20.2301,21.2624 23.7221,32.1832 2.5051,7.8344 2.6255,9.3872 1.1862,15.3089 -1.8462,7.5958 -8.069,15.1932 -15.5153,18.9426 -12.5274,6.3079 -29.1184,-0.499 -34.9815,-14.3521 -1.1144,-2.6331 -2.5846,-4.4468 -3.2672,-4.0304 -0.6825,0.4163 -1.2409,6.1793 -1.2409,12.8066 0,14.0449 1.6741,18.6155 9.1239,24.9093 5.4277,4.5855 5.9314,5.989 3.0094,8.3826 -1.5845,1.2979 -2.3715,1.2098 -4.2597,-0.4769 -3.1476,-2.8113 -19.6232,-2.9421 -21.9506,-0.1743 -1.9263,2.2909 -2.8527,2.3631 -4.8629,0.3789 z"
       style="fill:#080808" />
    <path
       style="fill:#080808"
       d="m 4057.128,3305.5818 c -2.4116,-2.38 -1.8842,-3.6314 3.4173,-8.1103 7.4497,-6.2938 9.124,-10.8644 9.124,-24.9093 0,-6.6273 -0.5585,-12.3903 -1.241,-12.8066 -0.6825,-0.4164 -2.1529,1.3973 -3.2672,4.0304 -5.8632,13.8531 -22.4541,20.66 -34.9816,14.3521 -2.6594,-1.3391 -6.8778,-4.6662 -9.3744,-7.3936 -13.5664,-14.8211 -6.6155,-36.6878 18.7675,-59.0411 20.5758,-18.1198 26.0502,-23.6117 28.9915,-29.0841 1.6611,-3.0906 3.5983,-5.6193 4.3046,-5.6193 0.7061,0 2.6431,2.5287 4.3043,5.6193 2.9414,5.4724 8.4158,10.9643 28.9915,29.0841 12.9889,11.4386 20.2301,21.2624 23.7221,32.1832 2.5051,7.8344 2.6255,9.3872 1.1862,15.3089 -1.8462,7.5958 -8.069,15.1932 -15.5153,18.9426 -12.5274,6.3079 -29.1184,-0.499 -34.9815,-14.3521 -1.1144,-2.6331 -2.5846,-4.4468 -3.2672,-4.0304 -0.6825,0.4163 -1.2409,6.1793 -1.2409,12.8066 0,14.0449 1.6741,18.6155 9.1239,24.9093 5.4277,4.5855 5.9314,5.989 3.0094,8.3826 -1.5845,1.2979 -2.3715,1.2098 -4.2597,-0.4769 -3.1476,-2.8113 -19.6232,-2.9421 -21.9506,-0.1743 -1.9263,2.2909 -2.8527,2.3631 -4.8629,0.3789 z"
       id="path5022-4"
       inkscape:connector-curvature="0" />
    <path
       style="fill:#080808"
       d="m 3723.128,3794.4182 c -2.4116,2.38 -1.8842,3.6314 3.4173,8.1103 7.4497,6.2938 9.124,10.8644 9.124,24.9093 0,6.6273 -0.5585,12.3903 -1.241,12.8066 -0.6825,0.4164 -2.1529,-1.3973 -3.2672,-4.0304 -5.8632,-13.8531 -22.4541,-20.66 -34.9816,-14.3521 -2.6594,1.3391 -6.8778,4.6662 -9.3744,7.3936 -13.5664,14.8211 -6.6155,36.6878 18.7675,59.0411 20.5758,18.1198 26.0502,23.6117 28.9915,29.0841 1.6611,3.0906 3.5983,5.6193 4.3046,5.6193 0.7061,0 2.6431,-2.5287 4.3043,-5.6193 2.9414,-5.4724 8.4158,-10.9643 28.9915,-29.0841 12.9889,-11.4386 20.2301,-21.2624 23.7221,-32.1832 2.5051,-7.8344 2.6255,-9.3872 1.1862,-15.3089 -1.8462,-7.5958 -8.069,-15.1932 -15.5153,-18.9426 -12.5274,-6.3079 -29.1184,0.499 -34.9815,14.3521 -1.1144,2.6331 -2.5846,4.4468 -3.2672,4.0304 -0.6825,-0.4163 -1.2409,-6.1793 -1.2409,-12.8066 0,-14.0449 1.6741,-18.6155 9.1239,-24.9093 5.4277,-4.5855 5.9314,-5.989 3.0094,-8.3826 -1.5845,-1.2979 -2.3715,-1.2098 -4.2597,0.4769 -3.1476,2.8113 -19.6232,2.9421 -21.9506,0.1743 -1.9263,-2.2909 -2.8527,-2.3631 -4.8629,-0.3789 z"
       id="path5024-9"
       inkscape:connector-curvature="0" />
    <path
       inkscape:connector-curvature="0"
       id="path5026-0"
       d="m 4057.128,3794.4182 c -2.4116,2.38 -1.8842,3.6314 3.4173,8.1103 7.4497,6.2938 9.124,10.8644 9.124,24.9093 0,6.6273 -0.5585,12.3903 -1.241,12.8066 -0.6825,0.4164 -2.1529,-1.3973 -3.2672,-4.0304 -5.8632,-13.8531 -22.4541,-20.66 -34.9816,-14.3521 -2.6594,1.3391 -6.8778,4.6662 -9.3744,7.3936 -13.5664,14.8211 -6.6155,36.6878 18.7675,59.0411 20.5758,18.1198 26.0502,23.6117 28.9915,29.0841 1.6611,3.0906 3.5983,5.6193 4.3046,5.6193 0.7061,0 2.6431,-2.5287 4.3043,-5.6193 2.9414,-5.4724 8.4158,-10.9643 28.9915,-29.0841 12.9889,-11.4386 20.2301,-21.2624 23.7221,-32.1832 2.5051,-7.8344 2.6255,-9.3872 1.1862,-15.3089 -1.8462,-7.5958 -8.069,-15.1932 -15.5153,-18.9426 -12.5274,-6.3079 -29.1184,0.499 -34.9815,14.3521 -1.1144,2.6331 -2.5846,4.4468 -3.2672,4.0304 -0.6825,-0.4163 -1.2409,-6.1793 -1.2409,-12.8066 0,-14.0449 1.6741,-18.6155 9.1239,-24.9093 5.4277,-4.5855 5.9314,-5.989 3.0094,-8.3826 -1.5845,-1.2979 -2.3715,-1.2098 -4.2597,0.4769 -3.1476,2.8113 -19.6232,2.9421 -21.9506,0.1743 -1.9263,-2.2909 -2.8527,-2.3631 -4.8629,-0.3789 z"
       style="fill:#080808" />
    <path
       inkscape:connector-curvature="0"
       id="path5097"
       d="m 3635.1577,3212.5641 c -0.7358,-0.7323 -0.5748,-1.1174 1.0425,-2.4955 2.2729,-1.9365 2.7836,-3.3429 2.7836,-7.6644 0,-2.0392 -0.1703,-3.8124 -0.3785,-3.9405 -0.2083,-0.1281 -0.6568,0.43 -0.9968,1.2401 -1.7888,4.2625 -6.8505,6.357 -10.6724,4.4161 -0.8114,-0.4121 -2.0983,-1.4358 -2.8599,-2.275 -4.139,-4.5603 -2.0183,-11.2885 5.7256,-18.1665 6.2774,-5.5753 7.9476,-7.2651 8.8449,-8.9489 0.5068,-0.951 1.0977,-1.7291 1.3133,-1.7291 0.2154,0 0.8063,0.7781 1.3132,1.7291 0.8973,1.6838 2.5674,3.3736 8.8448,8.9489 3.9627,3.5196 6.1719,6.5423 7.2373,9.9025 0.7643,2.4106 0.801,2.8884 0.3619,4.7105 -0.5633,2.3371 -2.4617,4.6748 -4.7335,5.8285 -3.822,1.9409 -8.8836,-0.1536 -10.6724,-4.4161 -0.34,-0.8101 -0.7885,-1.3682 -0.9968,-1.2401 -0.2082,0.1281 -0.3786,1.9013 -0.3786,3.9405 0,4.3215 0.5108,5.7279 2.7837,7.6644 1.6559,1.4109 1.8095,1.8428 0.9181,2.5793 -0.4835,0.3993 -0.7235,0.3722 -1.2996,-0.1468 -0.9603,-0.865 -5.9867,-0.9052 -6.6968,-0.054 -0.5877,0.7049 -0.8703,0.7271 -1.4836,0.1166 z"
       style="fill:#080808" />
    <path
       inkscape:connector-curvature="0"
       id="path5117"
       d="m 4176.8423,3887.4358 c 0.7358,0.7323 0.5748,1.1174 -1.0425,2.4955 -2.2729,1.9365 -2.7836,3.3429 -2.7836,7.6644 0,2.0392 0.1703,3.8124 0.3785,3.9405 0.2083,0.1281 0.6568,-0.43 0.9968,-1.2401 1.7888,-4.2625 6.8505,-6.357 10.6724,-4.4161 0.8114,0.4121 2.0983,1.4358 2.8599,2.275 4.139,4.5603 2.0183,11.2885 -5.7256,18.1665 -6.2774,5.5753 -7.9476,7.2651 -8.8449,8.9489 -0.5068,0.951 -1.0977,1.7291 -1.3133,1.7291 -0.2154,0 -0.8063,-0.7781 -1.3132,-1.7291 -0.8973,-1.6838 -2.5674,-3.3736 -8.8448,-8.9489 -3.9627,-3.5196 -6.1719,-6.5423 -7.2373,-9.9025 -0.7643,-2.4106 -0.801,-2.8884 -0.3619,-4.7105 0.5633,-2.3371 2.4617,-4.6748 4.7335,-5.8285 3.822,-1.9409 8.8836,0.1536 10.6724,4.4161 0.34,0.8101 0.7885,1.3682 0.9968,1.2401 0.2082,-0.1281 0.3786,-1.9013 0.3786,-3.9405 0,-4.3215 -0.5108,-5.7279 -2.7837,-7.6644 -1.6559,-1.4109 -1.8095,-1.8428 -0.9181,-2.5793 0.4835,-0.3993 0.7235,-0.3722 1.2996,0.1468 0.9603,0.865 5.9867,0.9052 6.6968,0.054 0.5877,-0.7049 0.8703,-0.7271 1.4836,-0.1166 z"
       style="fill:#080808" />
  </g>
</svg>
