<?xml version="1.0" encoding="UTF-8" standalone="no"?>
<!-- Created with Inkscape (http://www.inkscape.org/) -->

<svg
   id="svg10047"
   height="122.99628"
   width="78.998039"
   version="1.1"
   viewBox="0 0 78.998039 122.99628"
   inkscape:version="0.91 r13725"
   sodipodi:docname="lombarde-ticinesi.svgz"
   xmlns:inkscape="http://www.inkscape.org/namespaces/inkscape"
   xmlns:sodipodi="http://sodipodi.sourceforge.net/DTD/sodipodi-0.dtd"
   xmlns="http://www.w3.org/2000/svg"
   xmlns:svg="http://www.w3.org/2000/svg"
   xmlns:rdf="http://www.w3.org/1999/02/22-rdf-syntax-ns#"
   xmlns:cc="http://creativecommons.org/ns#"
   xmlns:dc="http://purl.org/dc/elements/1.1/">
  <sodipodi:namedview
     pagecolor="#ffffff"
     bordercolor="#666666"
     borderopacity="1"
     objecttolerance="10"
     gridtolerance="10"
     guidetolerance="10"
     inkscape:pageopacity="0"
     inkscape:pageshadow="2"
     inkscape:window-width="1920"
     inkscape:window-height="1016"
     id="namedview1491"
     showgrid="false"
     inkscape:zoom="1.078374"
     inkscape:cx="427.42201"
     inkscape:cy="310.27924"
     inkscape:window-x="0"
     inkscape:window-y="0"
     inkscape:window-maximized="1"
     inkscape:current-layer="svg10047"
     showguides="false"
     inkscape:guide-bbox="true"
     inkscape:snap-grids="true"
     inkscape:showpageshadow="2"
     inkscape:pagecheckerboard="0"
     inkscape:deskcolor="#d1d1d1">
    <inkscape:grid
       type="xygrid"
       id="grid12910"
       originx="-0.0014937319"
       originy="-6.6706776e-06"
       spacingy="1"
       spacingx="1"
       units="px"
       visible="false" />
  </sodipodi:namedview>
  <metadata
     id="metadata16869">
    <rdf:RDF>
      <cc:Work
         rdf:about="">
        <dc:format>image/svg+xml</dc:format>
        <dc:type
           rdf:resource="http://purl.org/dc/dcmitype/StillImage" />
        <dc:title />
      </cc:Work>
    </rdf:RDF>
  </metadata>
  <defs
     id="defs10049" />
  <g
     transform="matrix(0.15192124,0,0,0.13373235,-15.19213,-280.91378)"
     id="club_1"
     inkscape:label="#club_1">
    <rect
       width="518.42499"
       height="918.15137"
       rx="43.241558"
       ry="51.007648"
       x="-619.20923"
       y="-3019.5027"
       id="rect5294"
       style="fill:#ffffff;stroke:#000000;stroke-width:1.56841"
       transform="scale(-1)" />
    <path
       style="fill:#000000"
       d="m 345.8807,2622.5638 c 4.912,-9.5407 8.9361,-27.4184 10.0396,-44.6005 0.4434,-6.9079 0.5968,-12.8955 0.3411,-13.306 -0.8639,-1.3849 -6.0394,-0.7593 -9.069,1.0962 -1.6547,1.0134 -4.4629,3.8486 -6.2407,6.3007 -6.1769,8.5198 -14.7017,12.4605 -24.7351,11.4344 -5.8927,-0.6026 -13.1925,-4.3439 -16.2655,-8.3365 -3.0598,-3.9751 -5.9512,-11.8471 -5.9512,-16.2026 0,-4.3555 2.8914,-12.2273 5.9512,-16.2026 3.073,-3.9924 10.3728,-7.7338 16.2655,-8.3365 10.0334,-1.0261 18.5582,2.9147 24.7351,11.4346 3.492,4.8165 8.0749,8.1429 11.2186,8.1429 5.2509,0 2.287,-7.3568 -5.1603,-12.8085 -8.9509,-6.5524 -12.8198,-14.6731 -11.7739,-24.7138 0.6083,-5.839 4.3838,-13.0726 8.4128,-16.1178 4.0115,-3.0321 11.9555,-5.8971 16.3509,-5.8971 4.3955,0 12.3395,2.865 16.3509,5.8971 4.0292,3.0452 7.8048,10.2788 8.4131,16.1178 1.0459,10.0407 -2.823,18.1614 -11.7743,24.7138 -7.447,5.4517 -10.411,12.8085 -5.16,12.8085 3.1435,0 7.7266,-3.3264 11.2186,-8.1429 6.1769,-8.5199 14.7017,-12.4607 24.7352,-11.4346 5.8924,0.6027 13.1923,4.3441 16.2656,8.3365 3.0597,3.9753 5.951,11.8471 5.951,16.2026 0,4.3555 -2.8913,12.2275 -5.951,16.2026 -3.0733,3.9926 -10.3732,7.7339 -16.2656,8.3365 -10.0335,1.0261 -18.5583,-2.9146 -24.7352,-11.4344 -1.7778,-2.4521 -4.5862,-5.2873 -6.2407,-6.3007 -3.0296,-1.8555 -8.2053,-2.4811 -9.069,-1.0962 -0.2559,0.4105 -0.1023,6.3981 0.3411,13.306 1.1037,17.1893 5.1274,35.0596 10.0444,44.6101 l 1.975,3.8361 -2.1323,-0.5836 c -8.4394,-2.3099 -18.6045,-2.3436 -27.4736,-0.091 l -2.5824,0.6557 1.9701,-3.8266 z"
       id="path5302-3"
       inkscape:connector-curvature="0"
       inkscape:transform-center-x="557.28146"
       inkscape:transform-center-y="21.557655" />
    <rect
       width="418.00439"
       height="818.00439"
       rx="34.865524"
       ry="45.444023"
       x="149.9978"
       y="2152.2844"
       id="rect5483"
       style="fill:none;fill-opacity:1;stroke:#000000;stroke-width:3.99559;stroke-miterlimit:4;stroke-dasharray:none" />
    <rect
       style="fill:#ffffff;stroke:#000000;stroke-width:0.150384;stroke-opacity:1"
       id="rect5298"
       y="2195.6226"
       x="130.52258"
       ry="6.1007624"
       rx="3.3238332"
       height="109.81533"
       width="39.849594" />
    <path
       inkscape:transform-center-y="5.2261266"
       inkscape:transform-center-x="135.09824"
       inkscape:connector-curvature="0"
       id="path5306"
       d="m 146.9443,2300.5785 c 1.1908,-2.3129 2.1663,-6.6468 2.4338,-10.8122 0.1075,-1.6747 0.1447,-3.1263 0.083,-3.2257 -0.2094,-0.3357 -1.4641,-0.1841 -2.1985,0.2657 -0.4012,0.2457 -1.082,0.933 -1.5129,1.5274 -1.4975,2.0655 -3.5641,3.0208 -5.9964,2.772 -1.4286,-0.146 -3.1982,-1.053 -3.9432,-2.0209 -0.7418,-0.9637 -1.4427,-2.872 -1.4427,-3.9279 0,-1.0559 0.7009,-2.9643 1.4427,-3.928 0.745,-0.9678 2.5146,-1.8748 3.9432,-2.0209 2.4323,-0.2488 4.4989,0.7065 5.9964,2.772 0.8465,1.1676 1.9575,1.9741 2.7196,1.9741 1.273,0 0.5544,-1.7835 -1.251,-3.1052 -2.1699,-1.5884 -3.1078,-3.5571 -2.8542,-5.9912 0.1474,-1.4156 1.0627,-3.1691 2.0394,-3.9074 0.9725,-0.735 2.8983,-1.4295 3.9639,-1.4295 1.0656,0 2.9914,0.6945 3.9638,1.4295 0.9768,0.7383 1.8921,2.4918 2.0396,3.9074 0.2535,2.4341 -0.6844,4.4028 -2.8544,5.9912 -1.8053,1.3217 -2.5239,3.1052 -1.2509,3.1052 0.762,0 1.8731,-0.8065 2.7196,-1.9741 1.4975,-2.0655 3.5641,-3.0208 5.9965,-2.772 1.4284,0.1461 3.1981,1.0531 3.9431,2.0209 0.7418,0.9637 1.4427,2.8721 1.4427,3.928 0,1.0559 -0.7009,2.9642 -1.4427,3.9279 -0.745,0.9679 -2.5147,1.8749 -3.9431,2.0209 -2.4324,0.2488 -4.499,-0.7065 -5.9965,-2.772 -0.4309,-0.5944 -1.1118,-1.2817 -1.5129,-1.5274 -0.7344,-0.4498 -1.9891,-0.6014 -2.1985,-0.2657 -0.062,0.1 -0.025,1.551 0.083,3.2257 0.2676,4.1671 1.243,8.4993 2.435,10.8145 l 0.4788,0.93 -0.5169,-0.1415 c -2.0459,-0.56 -4.5102,-0.5682 -6.6603,-0.022 l -0.626,0.159 0.4776,-0.9276 z"
       style="fill:#090909" />
    <path
       d="m 154.3985,2204.5734 q 1.9698,6.0588 3.8574,12.2791 1.9698,6.1397 3.7754,12.9254 1.8877,6.7859 3.6933,14.3796 1.8877,7.5937 3.7754,16.3991 h -7.3866 q -0.6566,-3.6352 -1.3953,-7.1897 -0.6566,-3.5545 -1.3952,-7.109 h -17.892 q -0.8207,3.5545 -1.4773,7.109 -0.6566,3.5545 -1.3132,7.1897 H 131.5 q 1.8056,-8.8054 3.6933,-16.3991 1.8877,-7.5937 3.6933,-14.3796 1.8877,-6.7857 3.7754,-12.9254 1.9697,-6.2203 3.9395,-12.2791 z m -4.0216,8.2399 q -2.0518,6.7051 -3.9395,13.491 -1.8877,6.7859 -3.6113,13.8948 h 15.0195 q -1.6415,-7.1089 -3.5292,-13.8948 -1.8877,-6.7859 -3.9395,-13.491 z"
       id="path5508-3"
       inkscape:connector-curvature="0"
       style="font-style:normal;font-variant:normal;font-weight:normal;font-stretch:normal;font-size:medium;line-height:125%;font-family:'Ubuntu Condensed';-inkscape-font-specification:'Ubuntu Condensed, ';letter-spacing:0px;word-spacing:0px;fill:#000000;fill-opacity:1;stroke:none;stroke-width:1px;stroke-linecap:butt;stroke-linejoin:miter;stroke-opacity:1" />
    <rect
       width="39.849594"
       height="109.81533"
       rx="3.3238332"
       ry="6.1007624"
       x="-586.58936"
       y="-2925.241"
       id="rect5308"
       style="fill:#ffffff;stroke:#000000;stroke-width:0.150384;stroke-opacity:1"
       transform="scale(-1)" />
    <path
       style="fill:#090909"
       d="m 570.1675,2820.285 c -1.1908,2.3129 -2.1663,6.6469 -2.4338,10.8123 -0.1075,1.6746 -0.1447,3.1261 -0.083,3.2257 0.2094,0.3357 1.4641,0.184 2.1985,-0.2657 0.4012,-0.2458 1.082,-0.933 1.5129,-1.5276 1.4975,-2.0653 3.5641,-3.0207 5.9964,-2.7719 1.4286,0.1461 3.1982,1.0531 3.9432,2.021 0.7418,0.9637 1.4427,2.872 1.4427,3.9279 0,1.0558 -0.7009,2.9641 -1.4427,3.9278 -0.745,0.9679 -2.5146,1.8749 -3.9432,2.021 -2.4323,0.2488 -4.4989,-0.7066 -5.9964,-2.7719 -0.8465,-1.1678 -1.9575,-1.9741 -2.7196,-1.9741 -1.273,0 -0.5544,1.7834 1.251,3.105 2.1699,1.5885 3.1078,3.5572 2.8542,5.9912 -0.1474,1.4156 -1.0627,3.1693 -2.0394,3.9074 -0.9725,0.7351 -2.8983,1.4297 -3.9639,1.4297 -1.0656,0 -2.9914,-0.6946 -3.9638,-1.4297 -0.9768,-0.7381 -1.8921,-2.4918 -2.0396,-3.9074 -0.2535,-2.434 0.6844,-4.4027 2.8544,-5.9912 1.8053,-1.3216 2.5239,-3.105 1.2509,-3.105 -0.762,0 -1.8731,0.8063 -2.7196,1.9741 -1.4975,2.0653 -3.5641,3.0207 -5.9965,2.7719 -1.4284,-0.1461 -3.1981,-1.0531 -3.9431,-2.021 -0.7418,-0.9637 -1.4427,-2.872 -1.4427,-3.9278 0,-1.0559 0.7009,-2.9642 1.4427,-3.9279 0.745,-0.9679 2.5147,-1.8749 3.9431,-2.021 2.4324,-0.2488 4.499,0.7066 5.9965,2.7719 0.4309,0.5946 1.1118,1.2818 1.5129,1.5276 0.7344,0.4497 1.9891,0.6014 2.1985,0.2657 0.062,-0.1 0.025,-1.5511 -0.083,-3.2257 -0.2676,-4.1671 -1.243,-8.4994 -2.435,-10.8146 l -0.4788,-0.9299 0.5169,0.1414 c 2.0459,0.5599 4.5102,0.5681 6.6603,0.022 l 0.626,-0.1589 -0.4776,0.9276 z"
       id="path5310-7"
       inkscape:connector-curvature="0"
       inkscape:transform-center-x="135.09825"
       inkscape:transform-center-y="5.2261373" />
    <path
       d="m 562.6015,2916.2866 q -1.9697,-6.0588 -3.8574,-12.2791 -1.9698,-6.1397 -3.7754,-12.9255 -1.8877,-6.7859 -3.6933,-14.3796 -1.8877,-7.5936 -3.7754,-16.3991 h 7.3866 q 0.6566,3.6352 1.3953,7.1898 0.6566,3.5545 1.3952,7.1089 h 17.892 q 0.8207,-3.5544 1.4773,-7.1089 0.6566,-3.5546 1.3132,-7.1898 H 585.5 q -1.8056,8.8055 -3.6933,16.3991 -1.8877,7.5937 -3.6933,14.3796 -1.8877,6.7858 -3.7754,12.9255 -1.9697,6.2203 -3.9395,12.2791 z m 4.0216,-8.24 q 2.0518,-6.705 3.9395,-13.4909 1.8877,-6.7859 3.6113,-13.8949 h -15.0195 q 1.6415,7.109 3.5292,13.8949 1.8877,6.7859 3.9395,13.4909 z"
       id="path5538-6"
       inkscape:connector-curvature="0"
       style="font-style:normal;font-variant:normal;font-weight:normal;font-stretch:normal;font-size:medium;line-height:125%;font-family:'Ubuntu Condensed';-inkscape-font-specification:'Ubuntu Condensed, ';letter-spacing:0px;word-spacing:0px;fill:#000000;fill-opacity:1;stroke:none;stroke-width:1px;stroke-linecap:butt;stroke-linejoin:miter;stroke-opacity:1" />
  </g>
</svg>
