<?xml version="1.0" encoding="UTF-8" standalone="no"?>
<!-- Created with Inkscape (http://www.inkscape.org/) -->

<svg
   id="svg10047"
   height="122.99628"
   width="78.99884"
   version="1.1"
   viewBox="0 0 78.99884 122.99628"
   inkscape:version="0.91 r13725"
   sodipodi:docname="lombarde-ticinesi.svgz"
   xmlns:inkscape="http://www.inkscape.org/namespaces/inkscape"
   xmlns:sodipodi="http://sodipodi.sourceforge.net/DTD/sodipodi-0.dtd"
   xmlns="http://www.w3.org/2000/svg"
   xmlns:svg="http://www.w3.org/2000/svg"
   xmlns:rdf="http://www.w3.org/1999/02/22-rdf-syntax-ns#"
   xmlns:cc="http://creativecommons.org/ns#"
   xmlns:dc="http://purl.org/dc/elements/1.1/">
  <sodipodi:namedview
     pagecolor="#ffffff"
     bordercolor="#666666"
     borderopacity="1"
     objecttolerance="10"
     gridtolerance="10"
     guidetolerance="10"
     inkscape:pageopacity="0"
     inkscape:pageshadow="2"
     inkscape:window-width="1920"
     inkscape:window-height="1016"
     id="namedview1491"
     showgrid="false"
     inkscape:zoom="1.078374"
     inkscape:cx="427.42201"
     inkscape:cy="310.27924"
     inkscape:window-x="0"
     inkscape:window-y="0"
     inkscape:window-maximized="1"
     inkscape:current-layer="svg10047"
     showguides="false"
     inkscape:guide-bbox="true"
     inkscape:snap-grids="true"
     inkscape:showpageshadow="2"
     inkscape:pagecheckerboard="0"
     inkscape:deskcolor="#d1d1d1">
    <inkscape:grid
       type="xygrid"
       id="grid12910"
       originx="-394.99992"
       originy="-6.6706776e-06"
       spacingy="1"
       spacingx="1"
       units="px"
       visible="false" />
  </sodipodi:namedview>
  <metadata
     id="metadata16869">
    <rdf:RDF>
      <cc:Work
         rdf:about="">
        <dc:format>image/svg+xml</dc:format>
        <dc:type
           rdf:resource="http://purl.org/dc/dcmitype/StillImage" />
        <dc:title />
      </cc:Work>
    </rdf:RDF>
  </metadata>
  <defs
     id="defs10049" />
  <g
     transform="matrix(0.15192277,0,0,0.13373235,-470.96067,-280.91378)"
     id="club_6"
     inkscape:label="#club_6">
    <rect
       transform="scale(-1)"
       style="fill:#ffffff;stroke:#000000;stroke-width:1.56841"
       id="rect142-3-7-5-9-2-7-8-0-6-5-8-9-7-2-0-9"
       y="-3019.5027"
       x="-3619.2097"
       ry="51.007648"
       rx="43.241558"
       height="918.15137"
       width="518.42499" />
    <path
       inkscape:transform-center-y="21.557655"
       inkscape:transform-center-x="557.28141"
       inkscape:connector-curvature="0"
       id="path22522-5-1-2-2-4-4-5-6-1-6-2-8-1-5-3-5-3-9-6-4"
       d="m 3459.8803,2622.5638 c 4.912,-9.5407 8.9361,-27.4184 10.0396,-44.6005 0.4434,-6.9079 0.5968,-12.8955 0.3411,-13.306 -0.8639,-1.3849 -6.0394,-0.7593 -9.069,1.0962 -1.6547,1.0134 -4.4629,3.8486 -6.2407,6.3007 -6.1769,8.5198 -14.7017,12.4605 -24.7351,11.4344 -5.8927,-0.6026 -13.1925,-4.3439 -16.2655,-8.3365 -3.0598,-3.9751 -5.9512,-11.8471 -5.9512,-16.2026 0,-4.3555 2.8914,-12.2273 5.9512,-16.2026 3.073,-3.9924 10.3728,-7.7338 16.2655,-8.3365 10.0334,-1.0261 18.5582,2.9147 24.7351,11.4346 3.492,4.8165 8.0749,8.1429 11.2186,8.1429 5.2509,0 2.287,-7.3568 -5.1603,-12.8085 -8.9509,-6.5524 -12.8198,-14.6731 -11.7739,-24.7138 0.6083,-5.839 4.3838,-13.0726 8.4128,-16.1178 4.0115,-3.0321 11.9555,-5.8971 16.3509,-5.8971 4.3955,0 12.3395,2.865 16.3509,5.8971 4.0292,3.0452 7.8048,10.2788 8.4131,16.1178 1.0459,10.0407 -2.823,18.1614 -11.7743,24.7138 -7.447,5.4517 -10.411,12.8085 -5.16,12.8085 3.1435,0 7.7266,-3.3264 11.2186,-8.1429 6.1769,-8.5199 14.7017,-12.4607 24.7352,-11.4346 5.8924,0.6027 13.1923,4.3441 16.2656,8.3365 3.0597,3.9753 5.951,11.8471 5.951,16.2026 0,4.3555 -2.8913,12.2275 -5.951,16.2026 -3.0733,3.9926 -10.3732,7.7339 -16.2656,8.3365 -10.0335,1.0261 -18.5583,-2.9146 -24.7352,-11.4344 -1.7778,-2.4521 -4.5862,-5.2873 -6.2407,-6.3007 -3.0296,-1.8555 -8.2053,-2.4811 -9.069,-1.0962 -0.2559,0.4105 -0.1023,6.3981 0.3411,13.306 1.1037,17.1893 5.1274,35.0596 10.0444,44.6101 l 1.975,3.8361 -2.1323,-0.5836 c -8.4394,-2.3099 -18.6045,-2.3436 -27.4736,-0.091 l -2.5824,0.6557 1.9701,-3.8266 z"
       style="fill:#090909" />
    <path
       inkscape:transform-center-y="-21.557726"
       inkscape:transform-center-x="-557.28142"
       inkscape:connector-curvature="0"
       id="path22522-5-1-2-2-4-4-5-6-1-6-2-8-1-5-36-2-9-4-0-9"
       d="m 3260.1187,2498.2964 c -4.912,9.5407 -8.9361,27.4185 -10.0396,44.6006 -0.4434,6.9078 -0.5968,12.8955 -0.3411,13.3059 0.8639,1.3848 6.0394,0.7593 9.069,-1.0961 1.6547,-1.0135 4.4629,-3.8486 6.2407,-6.3008 6.1769,-8.5198 14.7017,-12.4605 24.7351,-11.4344 5.8927,0.6026 13.1925,4.344 16.2655,8.3365 3.0598,3.9752 5.9512,11.8471 5.9512,16.2027 0,4.3554 -2.8914,12.2272 -5.9512,16.2025 -3.073,3.9925 -10.3728,7.7339 -16.2655,8.3365 -10.0334,1.0262 -18.5582,-2.9147 -24.7351,-11.4345 -3.492,-4.8165 -8.0749,-8.143 -11.2186,-8.143 -5.2509,0 -2.287,7.3568 5.1603,12.8085 8.9509,6.5525 12.8198,14.6731 11.7739,24.7138 -0.6083,5.8391 -4.3838,13.0726 -8.4128,16.1179 -4.0115,3.032 -11.9555,5.897 -16.3509,5.897 -4.3955,0 -12.3395,-2.865 -16.3509,-5.897 -4.0292,-3.0453 -7.8048,-10.2788 -8.4131,-16.1179 -1.0459,-10.0407 2.823,-18.1613 11.7743,-24.7138 7.447,-5.4517 10.411,-12.8085 5.16,-12.8085 -3.1435,0 -7.7266,3.3265 -11.2186,8.143 -6.1769,8.5198 -14.7017,12.4607 -24.7352,11.4345 -5.8924,-0.6026 -13.1923,-4.344 -16.2656,-8.3365 -3.0597,-3.9753 -5.951,-11.8471 -5.951,-16.2025 0,-4.3556 2.8913,-12.2275 5.951,-16.2027 3.0733,-3.9925 10.3732,-7.7339 16.2656,-8.3365 10.0335,-1.0261 18.5583,2.9146 24.7352,11.4344 1.7778,2.4522 4.5862,5.2873 6.2407,6.3008 3.0296,1.8554 8.2053,2.4809 9.069,1.0961 0.2559,-0.4104 0.1023,-6.3981 -0.3411,-13.3059 -1.1037,-17.1893 -5.1274,-35.0597 -10.0444,-44.6102 l -1.975,-3.8361 2.1323,0.5836 c 8.4394,2.3099 18.6045,2.3437 27.4736,0.091 l 2.5824,-0.6558 -1.9701,3.8266 z"
       style="fill:#090909" />
    <rect
       width="418.00439"
       height="818.00439"
       rx="34.865524"
       ry="45.444023"
       x="3149.9978"
       y="2152.2844"
       id="rect5473"
       style="fill:none;fill-opacity:1;stroke:#000000;stroke-width:3.99559;stroke-miterlimit:4;stroke-dasharray:none" />
    <rect
       width="39.849594"
       height="109.81533"
       rx="3.3238332"
       ry="6.1007624"
       x="3130.5227"
       y="2195.6226"
       id="rect142-3-6-1-0-4-0-2-1-8-9-0-6-2-3-2-9-7-5-9-6-8-2"
       style="fill:#ffffff;stroke:#000000;stroke-width:0.150384;stroke-opacity:1" />
    <path
       inkscape:transform-center-y="21.557692"
       inkscape:transform-center-x="557.28141"
       inkscape:connector-curvature="0"
       id="path22522-5-1-2-2-4-4-5-6-1-6-2-8-1-5-79-3-4-3"
       d="m 3231.8803,2304.6631 c 4.912,-9.5408 8.9361,-27.4184 10.0396,-44.6007 0.4434,-6.9077 0.5968,-12.8955 0.3411,-13.3059 -0.8639,-1.3848 -6.0394,-0.7592 -9.069,1.0961 -1.6547,1.0135 -4.4629,3.8487 -6.2407,6.3008 -6.1769,8.5198 -14.7017,12.4606 -24.7351,11.4344 -5.8927,-0.6025 -13.1925,-4.344 -16.2655,-8.3364 -3.0598,-3.9753 -5.9512,-11.8472 -5.9512,-16.2028 0,-4.3553 2.8914,-12.2272 5.9512,-16.2024 3.073,-3.9926 10.3728,-7.734 16.2655,-8.3365 10.0334,-1.0263 18.5582,2.9146 24.7351,11.4344 3.492,4.8166 8.0749,8.1431 11.2186,8.1431 5.2509,0 2.287,-7.3568 -5.1603,-12.8086 -8.9509,-6.5525 -12.8198,-14.6731 -11.7739,-24.7138 0.6083,-5.8391 4.3838,-13.0726 8.4128,-16.1179 4.0115,-3.032 11.9555,-5.897 16.3509,-5.897 4.3955,0 12.3395,2.865 16.3509,5.897 4.0292,3.0453 7.8048,10.2788 8.4131,16.1179 1.0459,10.0407 -2.823,18.1613 -11.7743,24.7138 -7.447,5.4518 -10.411,12.8086 -5.16,12.8086 3.1435,0 7.7266,-3.3265 11.2186,-8.1431 6.1769,-8.5198 14.7017,-12.4607 24.7352,-11.4344 5.8924,0.6025 13.1923,4.3439 16.2656,8.3365 3.0597,3.9752 5.951,11.8471 5.951,16.2024 0,4.3556 -2.8913,12.2275 -5.951,16.2028 -3.0733,3.9924 -10.3732,7.7339 -16.2656,8.3364 -10.0335,1.0262 -18.5583,-2.9146 -24.7352,-11.4344 -1.7778,-2.4521 -4.5862,-5.2873 -6.2407,-6.3008 -3.0296,-1.8553 -8.2053,-2.4809 -9.069,-1.0961 -0.2559,0.4104 -0.1023,6.3982 0.3411,13.3059 1.1037,17.1895 5.1274,35.0598 10.0444,44.6102 l 1.975,3.8361 -2.1323,-0.5836 c -8.4394,-2.3099 -18.6045,-2.3437 -27.4736,-0.091 l -2.5824,0.6558 1.9701,-3.8265 z"
       style="fill:#090909" />
    <path
       inkscape:transform-center-y="21.557692"
       inkscape:transform-center-x="557.28141"
       inkscape:connector-curvature="0"
       id="path22522-5-1-2-2-4-4-5-6-1-6-2-8-1-5-3-2-2-2-8"
       d="m 3459.8803,2304.6631 c 4.912,-9.5408 8.9361,-27.4184 10.0396,-44.6007 0.4434,-6.9077 0.5968,-12.8955 0.3411,-13.3059 -0.8639,-1.3848 -6.0394,-0.7592 -9.069,1.0961 -1.6547,1.0135 -4.4629,3.8487 -6.2407,6.3008 -6.1769,8.5198 -14.7017,12.4606 -24.7351,11.4344 -5.8927,-0.6025 -13.1925,-4.344 -16.2655,-8.3364 -3.0598,-3.9753 -5.9512,-11.8472 -5.9512,-16.2028 0,-4.3553 2.8914,-12.2272 5.9512,-16.2024 3.073,-3.9926 10.3728,-7.734 16.2655,-8.3365 10.0334,-1.0263 18.5582,2.9146 24.7351,11.4344 3.492,4.8166 8.0749,8.1431 11.2186,8.1431 5.2509,0 2.287,-7.3568 -5.1603,-12.8086 -8.9509,-6.5525 -12.8198,-14.6731 -11.7739,-24.7138 0.6083,-5.8391 4.3838,-13.0726 8.4128,-16.1179 4.0115,-3.032 11.9555,-5.897 16.3509,-5.897 4.3955,0 12.3395,2.865 16.3509,5.897 4.0292,3.0453 7.8048,10.2788 8.4131,16.1179 1.0459,10.0407 -2.823,18.1613 -11.7743,24.7138 -7.447,5.4518 -10.411,12.8086 -5.16,12.8086 3.1435,0 7.7266,-3.3265 11.2186,-8.1431 6.1769,-8.5198 14.7017,-12.4607 24.7352,-11.4344 5.8924,0.6025 13.1923,4.3439 16.2656,8.3365 3.0597,3.9752 5.951,11.8471 5.951,16.2024 0,4.3556 -2.8913,12.2275 -5.951,16.2028 -3.0733,3.9924 -10.3732,7.7339 -16.2656,8.3364 -10.0335,1.0262 -18.5583,-2.9146 -24.7352,-11.4344 -1.7778,-2.4521 -4.5862,-5.2873 -6.2407,-6.3008 -3.0296,-1.8553 -8.2053,-2.4809 -9.069,-1.0961 -0.2559,0.4104 -0.1023,6.3982 0.3411,13.3059 1.1037,17.1895 5.1274,35.0598 10.0444,44.6102 l 1.975,3.8361 -2.1323,-0.5836 c -8.4394,-2.3099 -18.6045,-2.3437 -27.4736,-0.091 l -2.5824,0.6558 1.9701,-3.8265 z"
       style="fill:#090909" />
    <path
       style="fill:#090909"
       d="m 3146.9444,2300.5785 c 1.1908,-2.3129 2.1663,-6.6468 2.4338,-10.8122 0.1075,-1.6747 0.1447,-3.1263 0.083,-3.2257 -0.2094,-0.3357 -1.4641,-0.1841 -2.1985,0.2657 -0.4012,0.2457 -1.082,0.933 -1.5129,1.5274 -1.4975,2.0655 -3.5641,3.0208 -5.9964,2.772 -1.4286,-0.146 -3.1982,-1.053 -3.9432,-2.0209 -0.7418,-0.9637 -1.4427,-2.872 -1.4427,-3.9279 0,-1.0559 0.7009,-2.9643 1.4427,-3.928 0.745,-0.9678 2.5146,-1.8748 3.9432,-2.0209 2.4323,-0.2488 4.4989,0.7065 5.9964,2.772 0.8465,1.1676 1.9575,1.9741 2.7196,1.9741 1.273,0 0.5544,-1.7835 -1.251,-3.1052 -2.1699,-1.5884 -3.1078,-3.5571 -2.8542,-5.9912 0.1474,-1.4156 1.0627,-3.1691 2.0394,-3.9074 0.9725,-0.735 2.8983,-1.4295 3.9639,-1.4295 1.0656,0 2.9914,0.6945 3.9638,1.4295 0.9768,0.7383 1.8921,2.4918 2.0396,3.9074 0.2535,2.4341 -0.6844,4.4028 -2.8544,5.9912 -1.8053,1.3217 -2.5239,3.1052 -1.2509,3.1052 0.762,0 1.8731,-0.8065 2.7196,-1.9741 1.4975,-2.0655 3.5641,-3.0208 5.9965,-2.772 1.4284,0.1461 3.1981,1.0531 3.9431,2.0209 0.7418,0.9637 1.4427,2.8721 1.4427,3.928 0,1.0559 -0.7009,2.9642 -1.4427,3.9279 -0.745,0.9679 -2.5147,1.8749 -3.9431,2.0209 -2.4324,0.2488 -4.499,-0.7065 -5.9965,-2.772 -0.4309,-0.5944 -1.1118,-1.2817 -1.5129,-1.5274 -0.7344,-0.4498 -1.9891,-0.6014 -2.1985,-0.2657 -0.062,0.1 -0.025,1.551 0.083,3.2257 0.2676,4.1671 1.243,8.4993 2.435,10.8145 l 0.4788,0.93 -0.5169,-0.1415 c -2.0459,-0.56 -4.5102,-0.5682 -6.6603,-0.022 l -0.626,0.159 0.4776,-0.9276 z"
       id="path22522-5-1-2-2-4-4-5-6-1-6-2-8-1-5-6-19-7-2-9"
       inkscape:connector-curvature="0"
       inkscape:transform-center-x="135.09819"
       inkscape:transform-center-y="5.2261266" />
    <path
       d="m 3161.0701,2209.1829 q -3.0779,0.315 -5.6698,1.1811 -2.6729,0.9448 -4.6978,2.8345 -2.0249,1.8897 -3.4019,4.9605 -1.4579,3.1495 -2.1059,7.8738 3.1589,-1.2598 5.9127,-1.2598 5.8318,0 9.1527,4.4093 3.2399,4.488 3.2399,12.2831 0,8.3462 -2.9969,13.1492 -3.0779,4.803 -9.6386,4.803 -3.3209,0 -5.8318,-1.2598 -2.5109,-1.2598 -4.1308,-4.1731 -1.701,-2.8345 -2.5109,-7.5588 -0.891,-4.6456 -0.891,-11.417 0,-5.9841 1.215,-11.5745 1.1339,-5.5903 3.8068,-9.9996 2.6729,-4.3306 7.0468,-7.0864 4.3737,-2.6771 10.7725,-2.9133 z m -11.6636,21.1017 q -2.4299,0 -4.7788,1.4174 0,0.9448 0,1.8897 -0.081,1.0236 -0.081,2.1258 0,3.622 0.162,6.8503 0.162,3.3069 0.81,5.7478 0.648,2.5196 1.9439,3.9369 1.215,1.496 3.3208,1.496 3.1589,0 4.4549,-3.307 1.215,-3.2283 1.215,-8.6612 0,-5.9052 -1.7009,-8.7399 -1.782,-2.7558 -5.3459,-2.7558 z"
       id="path4402-4"
       inkscape:connector-curvature="0"
       style="font-style:normal;font-variant:normal;font-weight:normal;font-stretch:normal;font-size:medium;line-height:125%;font-family:'Ubuntu Condensed';-inkscape-font-specification:'Ubuntu Condensed, ';letter-spacing:0px;word-spacing:0px;fill:#000000;fill-opacity:1;stroke:none;stroke-width:1px;stroke-linecap:butt;stroke-linejoin:miter;stroke-opacity:1" />
    <path
       inkscape:transform-center-y="-21.557712"
       inkscape:transform-center-x="-557.28142"
       inkscape:connector-curvature="0"
       id="path22522-5-1-2-2-4-4-5-6-1-6-2-8-1-5-36-0-1-9-0"
       d="m 3260.1187,2816.1973 c -4.912,9.5408 -8.9361,27.4185 -10.0396,44.6006 -0.4434,6.9079 -0.5968,12.8955 -0.3411,13.306 0.8639,1.3847 6.0394,0.7592 9.069,-1.0962 1.6547,-1.0135 4.4629,-3.8486 6.2407,-6.3007 6.1769,-8.5199 14.7017,-12.4605 24.7351,-11.4344 5.8927,0.6026 13.1925,4.3439 16.2655,8.3365 3.0598,3.9751 5.9512,11.8471 5.9512,16.2026 0,4.3554 -2.8914,12.2273 -5.9512,16.2025 -3.073,3.9925 -10.3728,7.7339 -16.2655,8.3365 -10.0334,1.0262 -18.5582,-2.9146 -24.7351,-11.4345 -3.492,-4.8165 -8.0749,-8.143 -11.2186,-8.143 -5.2509,0 -2.287,7.3569 5.1603,12.8086 8.9509,6.5524 12.8198,14.6731 11.7739,24.7137 -0.6083,5.839 -4.3838,13.0726 -8.4128,16.1178 -4.0115,3.0321 -11.9555,5.8971 -16.3509,5.8971 -4.3955,0 -12.3395,-2.865 -16.3509,-5.8971 -4.0292,-3.0452 -7.8048,-10.2788 -8.4131,-16.1178 -1.0459,-10.0406 2.823,-18.1613 11.7743,-24.7137 7.447,-5.4517 10.411,-12.8086 5.16,-12.8086 -3.1435,0 -7.7266,3.3265 -11.2186,8.143 -6.1769,8.5199 -14.7017,12.4607 -24.7352,11.4345 -5.8924,-0.6026 -13.1923,-4.344 -16.2656,-8.3365 -3.0597,-3.9752 -5.951,-11.8471 -5.951,-16.2025 0,-4.3555 2.8913,-12.2275 5.951,-16.2026 3.0733,-3.9926 10.3732,-7.7339 16.2656,-8.3365 10.0335,-1.0261 18.5583,2.9145 24.7352,11.4344 1.7778,2.4521 4.5862,5.2872 6.2407,6.3007 3.0296,1.8554 8.2053,2.4809 9.069,1.0962 0.2559,-0.4105 0.1023,-6.3981 -0.3411,-13.306 -1.1037,-17.1893 -5.1274,-35.0596 -10.0444,-44.6102 l -1.975,-3.8361 2.1323,0.5837 c 8.4394,2.3098 18.6045,2.3436 27.4736,0.091 l 2.5824,-0.6558 -1.9701,3.8266 z"
       style="fill:#090909" />
    <path
       inkscape:transform-center-y="-21.557712"
       inkscape:transform-center-x="-557.28141"
       inkscape:connector-curvature="0"
       id="path22522-5-1-2-2-4-4-5-6-1-6-2-8-1-5-36-6-5-1-1-0"
       d="m 3488.1187,2816.1973 c -4.912,9.5408 -8.9361,27.4185 -10.0396,44.6006 -0.4434,6.9079 -0.5968,12.8955 -0.3411,13.306 0.8639,1.3847 6.0394,0.7592 9.069,-1.0962 1.6547,-1.0135 4.4629,-3.8486 6.2407,-6.3007 6.1769,-8.5199 14.7017,-12.4605 24.7351,-11.4344 5.8927,0.6026 13.1925,4.3439 16.2655,8.3365 3.0598,3.9751 5.9512,11.8471 5.9512,16.2026 0,4.3554 -2.8914,12.2273 -5.9512,16.2025 -3.073,3.9925 -10.3728,7.7339 -16.2655,8.3365 -10.0334,1.0262 -18.5582,-2.9146 -24.7351,-11.4345 -3.492,-4.8165 -8.0749,-8.143 -11.2186,-8.143 -5.2509,0 -2.287,7.3569 5.1603,12.8086 8.9509,6.5524 12.8198,14.6731 11.7739,24.7137 -0.6083,5.839 -4.3838,13.0726 -8.4128,16.1178 -4.0115,3.0321 -11.9555,5.8971 -16.3509,5.8971 -4.3955,0 -12.3395,-2.865 -16.3509,-5.8971 -4.0292,-3.0452 -7.8048,-10.2788 -8.4131,-16.1178 -1.0459,-10.0406 2.823,-18.1613 11.7743,-24.7137 7.447,-5.4517 10.411,-12.8086 5.16,-12.8086 -3.1435,0 -7.7266,3.3265 -11.2186,8.143 -6.1769,8.5199 -14.7017,12.4607 -24.7352,11.4345 -5.8924,-0.6026 -13.1923,-4.344 -16.2656,-8.3365 -3.0597,-3.9752 -5.951,-11.8471 -5.951,-16.2025 0,-4.3555 2.8913,-12.2275 5.951,-16.2026 3.0733,-3.9926 10.3732,-7.7339 16.2656,-8.3365 10.0335,-1.0261 18.5583,2.9145 24.7352,11.4344 1.7778,2.4521 4.5862,5.2872 6.2407,6.3007 3.0296,1.8554 8.2053,2.4809 9.069,1.0962 0.2559,-0.4105 0.1023,-6.3981 -0.3411,-13.306 -1.1037,-17.1893 -5.1274,-35.0596 -10.0444,-44.6102 l -1.975,-3.8361 2.1323,0.5837 c 8.4394,2.3098 18.6045,2.3436 27.4736,0.091 l 2.5824,-0.6558 -1.9701,3.8266 z"
       style="fill:#090909" />
    <rect
       transform="scale(-1)"
       style="fill:#ffffff;stroke:#000000;stroke-width:0.150384;stroke-opacity:1"
       id="rect142-3-6-1-0-4-0-2-1-8-9-0-6-2-3-2-9-7-5-9-6-8-2-9"
       y="-2925.241"
       x="-3586.5896"
       ry="6.1007624"
       rx="3.3238332"
       height="109.81533"
       width="39.849594" />
    <path
       inkscape:transform-center-y="5.2261373"
       inkscape:transform-center-x="135.0982"
       inkscape:connector-curvature="0"
       id="path22522-5-1-2-2-4-4-5-6-1-6-2-8-1-5-6-19-7-2-9-4"
       d="m 3570.168,2820.2851 c -1.1908,2.3129 -2.1663,6.6469 -2.4338,10.8123 -0.1075,1.6746 -0.1447,3.1261 -0.083,3.2257 0.2094,0.3357 1.4641,0.184 2.1985,-0.2657 0.4012,-0.2458 1.082,-0.933 1.5129,-1.5276 1.4975,-2.0653 3.5641,-3.0207 5.9964,-2.7719 1.4286,0.1461 3.1982,1.0531 3.9432,2.021 0.7418,0.9637 1.4427,2.872 1.4427,3.9279 0,1.0558 -0.7009,2.9641 -1.4427,3.9278 -0.745,0.9679 -2.5146,1.8749 -3.9432,2.021 -2.4323,0.2488 -4.4989,-0.7066 -5.9964,-2.7719 -0.8465,-1.1678 -1.9575,-1.9741 -2.7196,-1.9741 -1.273,0 -0.5544,1.7834 1.251,3.105 2.1699,1.5885 3.1078,3.5572 2.8542,5.9912 -0.1474,1.4156 -1.0627,3.1693 -2.0394,3.9074 -0.9725,0.7351 -2.8983,1.4297 -3.9639,1.4297 -1.0656,0 -2.9914,-0.6946 -3.9638,-1.4297 -0.9768,-0.7381 -1.8921,-2.4918 -2.0396,-3.9074 -0.2535,-2.434 0.6844,-4.4027 2.8544,-5.9912 1.8053,-1.3216 2.5239,-3.105 1.2509,-3.105 -0.762,0 -1.8731,0.8063 -2.7196,1.9741 -1.4975,2.0653 -3.5641,3.0207 -5.9965,2.7719 -1.4284,-0.1461 -3.1981,-1.0531 -3.9431,-2.021 -0.7418,-0.9637 -1.4427,-2.872 -1.4427,-3.9278 0,-1.0559 0.7009,-2.9642 1.4427,-3.9279 0.745,-0.9679 2.5147,-1.8749 3.9431,-2.021 2.4324,-0.2488 4.499,0.7066 5.9965,2.7719 0.4309,0.5946 1.1118,1.2818 1.5129,1.5276 0.7344,0.4497 1.9891,0.6014 2.1985,0.2657 0.062,-0.099 0.025,-1.5511 -0.083,-3.2257 -0.2676,-4.1671 -1.243,-8.4994 -2.435,-10.8146 l -0.4788,-0.9299 0.5169,0.1414 c 2.0459,0.5599 4.5102,0.5681 6.6603,0.022 l 0.626,-0.1589 -0.4776,0.9276 z"
       style="fill:#090909" />
    <path
       style="font-style:normal;font-variant:normal;font-weight:normal;font-stretch:normal;font-size:medium;line-height:125%;font-family:'Ubuntu Condensed';-inkscape-font-specification:'Ubuntu Condensed, ';letter-spacing:0px;word-spacing:0px;fill:#000000;fill-opacity:1;stroke:none;stroke-width:1px;stroke-linecap:butt;stroke-linejoin:miter;stroke-opacity:1"
       inkscape:connector-curvature="0"
       id="path4682"
       d="m 3555.9299,2909.4652 q 3.0779,-0.315 5.6698,-1.1811 2.6729,-0.9448 4.6978,-2.8345 2.0249,-1.8897 3.4019,-4.9605 1.4579,-3.1495 2.1059,-7.8738 -3.1589,1.2598 -5.9127,1.2598 -5.8318,0 -9.1527,-4.4093 -3.2399,-4.488 -3.2399,-12.2831 0,-8.3462 2.9969,-13.1492 3.0779,-4.803 9.6386,-4.803 3.3209,0 5.8318,1.2598 2.5109,1.2598 4.1308,4.1731 1.701,2.8345 2.5109,7.5589 0.891,4.6455 0.891,11.4169 0,5.9841 -1.215,11.5745 -1.1339,5.5903 -3.8068,9.9997 -2.6729,4.3305 -7.0468,7.0864 -4.3737,2.677 -10.7725,2.9133 z m 11.6636,-21.1017 q 2.4299,0 4.7788,-1.4173 0,-0.9448 0,-1.8897 0.081,-1.0236 0.081,-2.1259 0,-3.6219 -0.162,-6.8502 -0.162,-3.307 -0.81,-5.7478 -0.648,-2.5197 -1.9439,-3.9369 -1.215,-1.4961 -3.3208,-1.4961 -3.1589,0 -4.4549,3.307 -1.215,3.2283 -1.215,8.6612 0,5.9053 1.7009,8.7399 1.782,2.7558 5.3459,2.7558 z" />
  </g>
</svg>
