<?xml version="1.0" encoding="UTF-8" standalone="no"?>
<!-- Created with Inkscape (http://www.inkscape.org/) -->

<svg
   id="svg10047"
   height="122.99628"
   width="78.998894"
   version="1.1"
   viewBox="0 0 78.998894 122.99628"
   inkscape:version="0.91 r13725"
   sodipodi:docname="lombarde-ticinesi.svgz"
   xmlns:inkscape="http://www.inkscape.org/namespaces/inkscape"
   xmlns:sodipodi="http://sodipodi.sourceforge.net/DTD/sodipodi-0.dtd"
   xmlns="http://www.w3.org/2000/svg"
   xmlns:svg="http://www.w3.org/2000/svg"
   xmlns:rdf="http://www.w3.org/1999/02/22-rdf-syntax-ns#"
   xmlns:cc="http://creativecommons.org/ns#"
   xmlns:dc="http://purl.org/dc/elements/1.1/">
  <sodipodi:namedview
     pagecolor="#ffffff"
     bordercolor="#666666"
     borderopacity="1"
     objecttolerance="10"
     gridtolerance="10"
     guidetolerance="10"
     inkscape:pageopacity="0"
     inkscape:pageshadow="2"
     inkscape:window-width="1920"
     inkscape:window-height="1016"
     id="namedview1491"
     showgrid="false"
     inkscape:zoom="1.078374"
     inkscape:cx="427.42201"
     inkscape:cy="310.27924"
     inkscape:window-x="0"
     inkscape:window-y="0"
     inkscape:window-maximized="1"
     inkscape:current-layer="svg10047"
     showguides="false"
     inkscape:guide-bbox="true"
     inkscape:snap-grids="true"
     inkscape:showpageshadow="2"
     inkscape:pagecheckerboard="0"
     inkscape:deskcolor="#d1d1d1">
    <inkscape:grid
       type="xygrid"
       id="grid12910"
       originx="-474.00056"
       originy="-1.5665007e-05"
       spacingy="1"
       spacingx="1"
       units="px"
       visible="false" />
  </sodipodi:namedview>
  <metadata
     id="metadata16869">
    <rdf:RDF>
      <cc:Work
         rdf:about="">
        <dc:format>image/svg+xml</dc:format>
        <dc:type
           rdf:resource="http://purl.org/dc/dcmitype/StillImage" />
        <dc:title />
      </cc:Work>
    </rdf:RDF>
  </metadata>
  <defs
     id="defs10049" />
  <g
     transform="matrix(0.15192288,0,0,0.13373234,-562.1147,-280.91376)"
     id="club_7"
     inkscape:label="#club_7">
    <rect
       transform="scale(-1)"
       style="fill:#ffffff;stroke:#000000;stroke-width:1.56841"
       id="rect142-3-7-5-9-2-7-8-0-6-5-8-9-7-2-0"
       y="-3019.5027"
       x="-4219.2095"
       ry="51.007648"
       rx="43.241558"
       height="918.15137"
       width="518.42499" />
    <path
       inkscape:transform-center-y="21.557655"
       inkscape:transform-center-x="557.28143"
       inkscape:connector-curvature="0"
       id="path22522-5-1-2-2-4-4-5-6-1-6-2-8-1-5-3-5-3-9-6"
       d="m 4059.8802,2622.5638 c 4.912,-9.5407 8.9361,-27.4184 10.0396,-44.6006 0.4434,-6.9078 0.5968,-12.8954 0.3411,-13.3059 -0.8639,-1.3849 -6.0394,-0.7593 -9.069,1.0962 -1.6547,1.0133 -4.4629,3.8486 -6.2407,6.3006 -6.1769,8.5199 -14.7017,12.4606 -24.7351,11.4345 -5.8927,-0.6026 -13.1925,-4.344 -16.2655,-8.3365 -3.0598,-3.9751 -5.9512,-11.8471 -5.9512,-16.2026 0,-4.3555 2.8914,-12.2274 5.9512,-16.2026 3.073,-3.9924 10.3728,-7.7338 16.2655,-8.3365 10.0334,-1.0262 18.5582,2.9146 24.7351,11.4345 3.492,4.8166 8.0749,8.143 11.2186,8.143 5.2509,0 2.287,-7.3568 -5.1603,-12.8085 -8.9509,-6.5524 -12.8198,-14.6731 -11.7739,-24.7138 0.6083,-5.8391 4.3838,-13.0726 8.4128,-16.1179 4.0115,-3.032 11.9555,-5.8971 16.3509,-5.8971 4.3955,0 12.3395,2.8651 16.3509,5.8971 4.0292,3.0453 7.8048,10.2788 8.4131,16.1179 1.0459,10.0407 -2.823,18.1614 -11.7743,24.7138 -7.447,5.4517 -10.411,12.8085 -5.16,12.8085 3.1435,0 7.7266,-3.3264 11.2186,-8.143 6.1769,-8.5199 14.7017,-12.4607 24.7352,-11.4345 5.8924,0.6027 13.1923,4.3441 16.2656,8.3365 3.0597,3.9752 5.951,11.8471 5.951,16.2026 0,4.3555 -2.8913,12.2275 -5.951,16.2026 -3.0733,3.9925 -10.3732,7.7339 -16.2656,8.3365 -10.0335,1.0261 -18.5583,-2.9146 -24.7352,-11.4345 -1.7778,-2.452 -4.5862,-5.2873 -6.2407,-6.3006 -3.0296,-1.8555 -8.2053,-2.4811 -9.069,-1.0962 -0.2559,0.4105 -0.1023,6.3981 0.3411,13.3059 1.1037,17.1894 5.1274,35.0597 10.0444,44.6101 l 1.975,3.8361 -2.1323,-0.5836 c -8.4394,-2.3099 -18.6045,-2.3435 -27.4736,-0.091 l -2.5824,0.6558 1.9701,-3.8266 z"
       style="fill:#090909" />
    <path
       inkscape:transform-center-y="-21.557726"
       inkscape:transform-center-x="-557.2814"
       inkscape:connector-curvature="0"
       id="path22522-5-1-2-2-4-4-5-6-1-6-2-8-1-5-36-2-9-4-0"
       d="m 3860.1186,2498.2963 c -4.912,9.5407 -8.9361,27.4185 -10.0396,44.6006 -0.4434,6.9078 -0.5968,12.8955 -0.3411,13.3059 0.8639,1.3848 6.0394,0.7593 9.069,-1.0961 1.6547,-1.0135 4.4629,-3.8486 6.2407,-6.3008 6.1769,-8.5198 14.7017,-12.4605 24.7351,-11.4344 5.8927,0.6026 13.1925,4.344 16.2655,8.3365 3.0598,3.9752 5.9512,11.8471 5.9512,16.2027 0,4.3554 -2.8914,12.2272 -5.9512,16.2025 -3.073,3.9925 -10.3728,7.7339 -16.2655,8.3365 -10.0334,1.0262 -18.5582,-2.9147 -24.7351,-11.4345 -3.492,-4.8165 -8.0749,-8.143 -11.2186,-8.143 -5.2509,0 -2.287,7.3568 5.1603,12.8085 8.9509,6.5525 12.8198,14.6731 11.7739,24.7138 -0.6083,5.8391 -4.3838,13.0726 -8.4128,16.1179 -4.0115,3.032 -11.9555,5.897 -16.3509,5.897 -4.3955,0 -12.3395,-2.865 -16.3509,-5.897 -4.0292,-3.0453 -7.8048,-10.2788 -8.4131,-16.1179 -1.0459,-10.0407 2.823,-18.1613 11.7743,-24.7138 7.447,-5.4517 10.411,-12.8085 5.16,-12.8085 -3.1435,0 -7.7266,3.3265 -11.2186,8.143 -6.1769,8.5198 -14.7017,12.4607 -24.7352,11.4345 -5.8924,-0.6026 -13.1923,-4.344 -16.2656,-8.3365 -3.0597,-3.9753 -5.951,-11.8471 -5.951,-16.2025 0,-4.3556 2.8913,-12.2275 5.951,-16.2027 3.0733,-3.9925 10.3732,-7.7339 16.2656,-8.3365 10.0335,-1.0261 18.5583,2.9146 24.7352,11.4344 1.7778,2.4522 4.5862,5.2873 6.2407,6.3008 3.0296,1.8554 8.2053,2.4809 9.069,1.0961 0.2559,-0.4104 0.1023,-6.3981 -0.3411,-13.3059 -1.1037,-17.1893 -5.1274,-35.0597 -10.0444,-44.6102 l -1.975,-3.8361 2.1323,0.5836 c 8.4394,2.3099 18.6045,2.3437 27.4736,0.091 l 2.5824,-0.6558 -1.9701,3.8266 z"
       style="fill:#090909" />
    <path
       inkscape:transform-center-y="21.557673"
       inkscape:transform-center-x="557.28143"
       inkscape:connector-curvature="0"
       id="path22522-5-1-2-2-4-4-5-6-1-6-2-8-1-5-7-2-9-2"
       d="m 3946.8803,2463.6134 c 4.912,-9.5407 8.9361,-27.4184 10.0396,-44.6007 0.4434,-6.9077 0.5968,-12.8953 0.3411,-13.3058 -0.8639,-1.3849 -6.0394,-0.7593 -9.069,1.0961 -1.6547,1.0134 -4.4629,3.8486 -6.2407,6.3007 -6.1769,8.5199 -14.7017,12.4606 -24.7351,11.4345 -5.8927,-0.6026 -13.1925,-4.344 -16.2655,-8.3365 -3.0598,-3.9751 -5.9512,-11.8471 -5.9512,-16.2026 0,-4.3555 2.8914,-12.2274 5.9512,-16.2026 3.073,-3.9924 10.3728,-7.7339 16.2655,-8.3365 10.0334,-1.0263 18.5582,2.9146 24.7351,11.4345 3.492,4.8166 8.0749,8.143 11.2186,8.143 5.2509,0 2.287,-7.3568 -5.1603,-12.8085 -8.9509,-6.5524 -12.8198,-14.6731 -11.7739,-24.7138 0.6083,-5.8392 4.3838,-13.0726 8.4128,-16.118 4.0115,-3.0319 11.9555,-5.897 16.3509,-5.897 4.3955,0 12.3395,2.8651 16.3509,5.897 4.0292,3.0454 7.8048,10.2788 8.4131,16.118 1.0459,10.0407 -2.823,18.1614 -11.7743,24.7138 -7.447,5.4517 -10.411,12.8085 -5.16,12.8085 3.1435,0 7.7266,-3.3264 11.2186,-8.143 6.1769,-8.5199 14.7017,-12.4608 24.7352,-11.4345 5.8924,0.6026 13.1923,4.3441 16.2656,8.3365 3.0597,3.9752 5.951,11.8471 5.951,16.2026 0,4.3555 -2.8913,12.2275 -5.951,16.2026 -3.0733,3.9925 -10.3732,7.7339 -16.2656,8.3365 -10.0335,1.0261 -18.5583,-2.9146 -24.7352,-11.4345 -1.7778,-2.4521 -4.5862,-5.2873 -6.2407,-6.3007 -3.0296,-1.8554 -8.2053,-2.481 -9.069,-1.0961 -0.2559,0.4105 -0.1023,6.3981 0.3411,13.3058 1.1037,17.1895 5.1274,35.0598 10.0444,44.6102 l 1.975,3.8361 -2.1323,-0.5836 c -8.4394,-2.3099 -18.6045,-2.3436 -27.4736,-0.091 l -2.5824,0.6559 1.9701,-3.8266 z"
       style="fill:#090909" />
    <rect
       style="fill:none;fill-opacity:1;stroke:#000000;stroke-width:3.99559;stroke-miterlimit:4;stroke-dasharray:none"
       id="rect5475"
       y="2152.2844"
       x="3749.9983"
       ry="45.444023"
       rx="34.865524"
       height="818.00439"
       width="418.00439" />
    <rect
       width="39.849594"
       height="109.81533"
       rx="3.3238332"
       ry="6.1007624"
       x="3730.5227"
       y="2195.6226"
       id="rect142-3-6-1-0-4-0-2-1-8-9-0-6-2-3-2-9-7-5-9-6-8"
       style="fill:#ffffff;stroke:#000000;stroke-width:0.150384;stroke-opacity:1" />
    <path
       inkscape:transform-center-y="21.557692"
       inkscape:transform-center-x="557.28142"
       inkscape:connector-curvature="0"
       id="path22522-5-1-2-2-4-4-5-6-1-6-2-8-1-5-79-3-4"
       d="m 3831.8802,2304.6631 c 4.912,-9.5408 8.9361,-27.4184 10.0396,-44.6007 0.4434,-6.9077 0.5968,-12.8955 0.3411,-13.3059 -0.8639,-1.3848 -6.0394,-0.7592 -9.069,1.0961 -1.6547,1.0135 -4.4629,3.8487 -6.2407,6.3008 -6.1769,8.5198 -14.7017,12.4606 -24.7351,11.4344 -5.8927,-0.6025 -13.1925,-4.344 -16.2655,-8.3364 -3.0598,-3.9753 -5.9512,-11.8472 -5.9512,-16.2028 0,-4.3553 2.8914,-12.2272 5.9512,-16.2024 3.073,-3.9926 10.3728,-7.734 16.2655,-8.3365 10.0334,-1.0263 18.5582,2.9146 24.7351,11.4344 3.492,4.8166 8.0749,8.1431 11.2186,8.1431 5.2509,0 2.287,-7.3568 -5.1603,-12.8086 -8.9509,-6.5525 -12.8198,-14.6731 -11.7739,-24.7138 0.6083,-5.8391 4.3838,-13.0726 8.4128,-16.1179 4.0115,-3.032 11.9555,-5.897 16.3509,-5.897 4.3955,0 12.3395,2.865 16.3509,5.897 4.0292,3.0453 7.8048,10.2788 8.4131,16.1179 1.0459,10.0407 -2.823,18.1613 -11.7743,24.7138 -7.447,5.4518 -10.411,12.8086 -5.16,12.8086 3.1435,0 7.7266,-3.3265 11.2186,-8.1431 6.1769,-8.5198 14.7017,-12.4607 24.7352,-11.4344 5.8924,0.6025 13.1923,4.3439 16.2656,8.3365 3.0597,3.9752 5.951,11.8471 5.951,16.2024 0,4.3556 -2.8913,12.2275 -5.951,16.2028 -3.0733,3.9924 -10.3732,7.7339 -16.2656,8.3364 -10.0335,1.0262 -18.5583,-2.9146 -24.7352,-11.4344 -1.7778,-2.4521 -4.5862,-5.2873 -6.2407,-6.3008 -3.0296,-1.8553 -8.2053,-2.4809 -9.069,-1.0961 -0.2559,0.4104 -0.1023,6.3982 0.3411,13.3059 1.1037,17.1895 5.1274,35.0598 10.0444,44.6102 l 1.975,3.8361 -2.1323,-0.5836 c -8.4394,-2.3099 -18.6045,-2.3437 -27.4736,-0.091 l -2.5824,0.6558 1.9701,-3.8265 z"
       style="fill:#090909" />
    <path
       inkscape:transform-center-y="21.557692"
       inkscape:transform-center-x="557.28143"
       inkscape:connector-curvature="0"
       id="path22522-5-1-2-2-4-4-5-6-1-6-2-8-1-5-3-2-2-2"
       d="m 4059.8802,2304.6631 c 4.912,-9.5408 8.9361,-27.4184 10.0396,-44.6007 0.4434,-6.9077 0.5968,-12.8955 0.3411,-13.3059 -0.8639,-1.3848 -6.0394,-0.7592 -9.069,1.0961 -1.6547,1.0135 -4.4629,3.8487 -6.2407,6.3008 -6.1769,8.5198 -14.7017,12.4606 -24.7351,11.4344 -5.8927,-0.6025 -13.1925,-4.344 -16.2655,-8.3364 -3.0598,-3.9753 -5.9512,-11.8472 -5.9512,-16.2028 0,-4.3553 2.8914,-12.2272 5.9512,-16.2024 3.073,-3.9926 10.3728,-7.734 16.2655,-8.3365 10.0334,-1.0263 18.5582,2.9146 24.7351,11.4344 3.492,4.8166 8.0749,8.1431 11.2186,8.1431 5.2509,0 2.287,-7.3568 -5.1603,-12.8086 -8.9509,-6.5525 -12.8198,-14.6731 -11.7739,-24.7138 0.6083,-5.8391 4.3838,-13.0726 8.4128,-16.1179 4.0115,-3.032 11.9555,-5.897 16.3509,-5.897 4.3955,0 12.3395,2.865 16.3509,5.897 4.0292,3.0453 7.8048,10.2788 8.4131,16.1179 1.0459,10.0407 -2.823,18.1613 -11.7743,24.7138 -7.447,5.4518 -10.411,12.8086 -5.16,12.8086 3.1435,0 7.7266,-3.3265 11.2186,-8.1431 6.1769,-8.5198 14.7017,-12.4607 24.7352,-11.4344 5.8924,0.6025 13.1923,4.3439 16.2656,8.3365 3.0597,3.9752 5.951,11.8471 5.951,16.2024 0,4.3556 -2.8913,12.2275 -5.951,16.2028 -3.0733,3.9924 -10.3732,7.7339 -16.2656,8.3364 -10.0335,1.0262 -18.5583,-2.9146 -24.7352,-11.4344 -1.7778,-2.4521 -4.5862,-5.2873 -6.2407,-6.3008 -3.0296,-1.8553 -8.2053,-2.4809 -9.069,-1.0961 -0.2559,0.4104 -0.1023,6.3982 0.3411,13.3059 1.1037,17.1895 5.1274,35.0598 10.0444,44.6102 l 1.975,3.8361 -2.1323,-0.5836 c -8.4394,-2.3099 -18.6045,-2.3437 -27.4736,-0.091 l -2.5824,0.6558 1.9701,-3.8265 z"
       style="fill:#090909" />
    <path
       style="fill:#090909"
       d="m 3746.9443,2300.5785 c 1.1908,-2.3129 2.1663,-6.6469 2.4338,-10.8122 0.1075,-1.6747 0.1447,-3.1263 0.083,-3.2257 -0.2094,-0.3357 -1.4641,-0.1841 -2.1985,0.2657 -0.4012,0.2457 -1.082,0.933 -1.5129,1.5274 -1.4975,2.0655 -3.5641,3.0208 -5.9964,2.772 -1.4286,-0.146 -3.1982,-1.053 -3.9432,-2.0209 -0.7418,-0.9637 -1.4427,-2.872 -1.4427,-3.928 0,-1.0559 0.7009,-2.9642 1.4427,-3.9279 0.745,-0.9679 2.5146,-1.8748 3.9432,-2.021 2.4323,-0.2487 4.4989,0.7066 5.9964,2.7721 0.8465,1.1676 1.9575,1.9741 2.7196,1.9741 1.273,0 0.5544,-1.7836 -1.251,-3.1052 -2.1699,-1.5885 -3.1078,-3.5571 -2.8542,-5.9912 0.1474,-1.4156 1.0627,-3.1691 2.0394,-3.9074 0.9725,-0.735 2.8983,-1.4295 3.9639,-1.4295 1.0656,0 2.9914,0.6945 3.9638,1.4295 0.9768,0.7383 1.8921,2.4918 2.0396,3.9074 0.2535,2.4341 -0.6844,4.4027 -2.8544,5.9912 -1.8053,1.3216 -2.5239,3.1052 -1.2509,3.1052 0.762,0 1.8731,-0.8065 2.7196,-1.9741 1.4975,-2.0655 3.5641,-3.0208 5.9965,-2.7721 1.4284,0.1462 3.1981,1.0531 3.9431,2.021 0.7418,0.9637 1.4427,2.872 1.4427,3.9279 0,1.056 -0.7009,2.9643 -1.4427,3.928 -0.745,0.9679 -2.5147,1.8749 -3.9431,2.0209 -2.4324,0.2488 -4.499,-0.7065 -5.9965,-2.772 -0.4309,-0.5944 -1.1118,-1.2817 -1.5129,-1.5274 -0.7344,-0.4498 -1.9891,-0.6014 -2.1985,-0.2657 -0.062,0.1 -0.025,1.551 0.083,3.2257 0.2676,4.1671 1.243,8.4992 2.435,10.8145 l 0.4788,0.93 -0.5169,-0.1415 c -2.0459,-0.56 -4.5102,-0.5682 -6.6603,-0.022 l -0.626,0.159 0.4776,-0.9276 z"
       id="path22522-5-1-2-2-4-4-5-6-1-6-2-8-1-5-6-19-7-2"
       inkscape:connector-curvature="0"
       inkscape:transform-center-x="135.09821"
       inkscape:transform-center-y="5.2261266" />
    <path
       d="m 3742.8771,2260.5234 q 0.1562,-3.8776 0.7808,-8.3207 0.7027,-4.5238 1.7177,-9.1285 1.015,-4.6045 2.1862,-9.2092 1.2493,-4.6854 2.6546,-8.8861 1.4054,-4.2815 2.8109,-7.9168 1.4053,-3.6351 2.8108,-6.3818 h -18.4265 v -6.1395 h 26 v 5.4124 q -1.8738,3.1506 -4.1381,8.6439 -2.2642,5.4124 -4.2942,12.2789 -1.952,6.7858 -3.4355,14.4602 -1.4835,7.6743 -1.7958,15.1872 z"
       id="path4405"
       inkscape:connector-curvature="0"
       style="font-style:normal;font-variant:normal;font-weight:normal;font-stretch:normal;font-size:medium;line-height:125%;font-family:'Ubuntu Condensed';-inkscape-font-specification:'Ubuntu Condensed, ';letter-spacing:0px;word-spacing:0px;fill:#000000;fill-opacity:1;stroke:none;stroke-width:1px;stroke-linecap:butt;stroke-linejoin:miter;stroke-opacity:1" />
    <path
       inkscape:transform-center-y="-21.557712"
       inkscape:transform-center-x="-557.2814"
       inkscape:connector-curvature="0"
       id="path22522-5-1-2-2-4-4-5-6-1-6-2-8-1-5-36-0-1-9"
       d="m 3860.1186,2816.1972 c -4.912,9.5408 -8.9361,27.4185 -10.0396,44.6006 -0.4434,6.9079 -0.5968,12.8955 -0.3411,13.306 0.8639,1.3847 6.0394,0.7592 9.069,-1.0962 1.6547,-1.0135 4.4629,-3.8486 6.2407,-6.3007 6.1769,-8.5199 14.7017,-12.4605 24.7351,-11.4344 5.8927,0.6026 13.1925,4.3439 16.2655,8.3365 3.0598,3.9751 5.9512,11.8471 5.9512,16.2026 0,4.3554 -2.8914,12.2273 -5.9512,16.2025 -3.073,3.9925 -10.3728,7.7339 -16.2655,8.3365 -10.0334,1.0262 -18.5582,-2.9146 -24.7351,-11.4345 -3.492,-4.8165 -8.0749,-8.143 -11.2186,-8.143 -5.2509,0 -2.287,7.3569 5.1603,12.8086 8.9509,6.5524 12.8198,14.6731 11.7739,24.7137 -0.6083,5.8391 -4.3838,13.0727 -8.4128,16.1179 -4.0115,3.0321 -11.9555,5.8971 -16.3509,5.8971 -4.3955,0 -12.3395,-2.865 -16.3509,-5.8971 -4.0292,-3.0452 -7.8048,-10.2788 -8.4131,-16.1179 -1.0459,-10.0406 2.823,-18.1613 11.7743,-24.7137 7.447,-5.4517 10.411,-12.8086 5.16,-12.8086 -3.1435,0 -7.7266,3.3265 -11.2186,8.143 -6.1769,8.5199 -14.7017,12.4607 -24.7352,11.4345 -5.8924,-0.6026 -13.1923,-4.344 -16.2656,-8.3365 -3.0597,-3.9752 -5.951,-11.8471 -5.951,-16.2025 0,-4.3555 2.8913,-12.2275 5.951,-16.2026 3.0733,-3.9926 10.3732,-7.7339 16.2656,-8.3365 10.0335,-1.0261 18.5583,2.9145 24.7352,11.4344 1.7778,2.4521 4.5862,5.2872 6.2407,6.3007 3.0296,1.8554 8.2053,2.4809 9.069,1.0962 0.2559,-0.4105 0.1023,-6.3981 -0.3411,-13.306 -1.1037,-17.1893 -5.1274,-35.0596 -10.0444,-44.6102 l -1.975,-3.8361 2.1323,0.5837 c 8.4394,2.3098 18.6045,2.3436 27.4736,0.091 l 2.5824,-0.6558 -1.9701,3.8266 z"
       style="fill:#090909" />
    <path
       inkscape:transform-center-y="-21.557712"
       inkscape:transform-center-x="-557.28139"
       inkscape:connector-curvature="0"
       id="path22522-5-1-2-2-4-4-5-6-1-6-2-8-1-5-36-6-5-1-1"
       d="m 4088.1186,2816.1972 c -4.912,9.5408 -8.9361,27.4185 -10.0396,44.6006 -0.4434,6.9079 -0.5968,12.8955 -0.3411,13.306 0.8639,1.3847 6.0394,0.7592 9.069,-1.0962 1.6547,-1.0135 4.4629,-3.8486 6.2407,-6.3007 6.1769,-8.5199 14.7017,-12.4605 24.7351,-11.4344 5.8927,0.6026 13.1925,4.3439 16.2655,8.3365 3.0598,3.9751 5.9512,11.8471 5.9512,16.2026 0,4.3554 -2.8914,12.2273 -5.9512,16.2025 -3.073,3.9925 -10.3728,7.7339 -16.2655,8.3365 -10.0334,1.0262 -18.5582,-2.9146 -24.7351,-11.4345 -3.492,-4.8165 -8.0749,-8.143 -11.2186,-8.143 -5.2509,0 -2.287,7.3569 5.1603,12.8086 8.9509,6.5524 12.8198,14.6731 11.7739,24.7137 -0.6083,5.8391 -4.3838,13.0727 -8.4128,16.1179 -4.0115,3.0321 -11.9555,5.8971 -16.3509,5.8971 -4.3955,0 -12.3395,-2.865 -16.3509,-5.8971 -4.0292,-3.0452 -7.8048,-10.2788 -8.4131,-16.1179 -1.0459,-10.0406 2.823,-18.1613 11.7743,-24.7137 7.447,-5.4517 10.411,-12.8086 5.16,-12.8086 -3.1435,0 -7.7266,3.3265 -11.2186,8.143 -6.1769,8.5199 -14.7017,12.4607 -24.7352,11.4345 -5.8924,-0.6026 -13.1923,-4.344 -16.2656,-8.3365 -3.0597,-3.9752 -5.951,-11.8471 -5.951,-16.2025 0,-4.3555 2.8913,-12.2275 5.951,-16.2026 3.0733,-3.9926 10.3732,-7.7339 16.2656,-8.3365 10.0335,-1.0261 18.5583,2.9145 24.7352,11.4344 1.7778,2.4521 4.5862,5.2872 6.2407,6.3007 3.0296,1.8554 8.2053,2.4809 9.069,1.0962 0.2559,-0.4105 0.1023,-6.3981 -0.3411,-13.306 -1.1037,-17.1893 -5.1274,-35.0596 -10.0444,-44.6102 l -1.975,-3.8361 2.1323,0.5837 c 8.4394,2.3098 18.6045,2.3436 27.4736,0.091 l 2.5824,-0.6558 -1.9701,3.8266 z"
       style="fill:#090909" />
    <rect
       transform="scale(-1)"
       style="fill:#ffffff;stroke:#000000;stroke-width:0.150384;stroke-opacity:1"
       id="rect142-3-6-1-0-4-0-2-1-8-9-0-6-2-3-2-9-7-5-9-6-8-4"
       y="-2925.241"
       x="-4186.5898"
       ry="6.1007624"
       rx="3.3238332"
       height="109.81533"
       width="39.849594" />
    <path
       inkscape:transform-center-y="5.2261373"
       inkscape:transform-center-x="135.09822"
       inkscape:connector-curvature="0"
       id="path22522-5-1-2-2-4-4-5-6-1-6-2-8-1-5-6-19-7-2-5"
       d="m 4170.1681,2820.2852 c -1.1908,2.3128 -2.1663,6.6468 -2.4338,10.8122 -0.1075,1.6746 -0.1447,3.1261 -0.083,3.2257 0.2094,0.3357 1.4641,0.184 2.1985,-0.2657 0.4012,-0.2458 1.082,-0.933 1.5129,-1.5275 1.4975,-2.0654 3.5641,-3.0207 5.9964,-2.772 1.4286,0.1461 3.1982,1.0531 3.9432,2.021 0.7418,0.9637 1.4427,2.872 1.4427,3.9279 0,1.0558 -0.7009,2.9642 -1.4427,3.9278 -0.745,0.9679 -2.5146,1.8749 -3.9432,2.021 -2.4323,0.2488 -4.4989,-0.7066 -5.9964,-2.7719 -0.8465,-1.1677 -1.9575,-1.9741 -2.7196,-1.9741 -1.273,0 -0.5544,1.7834 1.251,3.1051 2.1699,1.5884 3.1078,3.5571 2.8542,5.9912 -0.1474,1.4155 -1.0627,3.1692 -2.0394,3.9074 -0.9725,0.735 -2.8983,1.4296 -3.9639,1.4296 -1.0656,0 -2.9914,-0.6946 -3.9638,-1.4296 -0.9768,-0.7382 -1.8921,-2.4919 -2.0396,-3.9074 -0.2535,-2.4341 0.6844,-4.4028 2.8544,-5.9912 1.8053,-1.3217 2.5239,-3.1051 1.2509,-3.1051 -0.762,0 -1.8731,0.8064 -2.7196,1.9741 -1.4975,2.0653 -3.5641,3.0207 -5.9965,2.7719 -1.4284,-0.1461 -3.1981,-1.0531 -3.9431,-2.021 -0.7418,-0.9636 -1.4427,-2.872 -1.4427,-3.9278 0,-1.0559 0.7009,-2.9642 1.4427,-3.9279 0.745,-0.9679 2.5147,-1.8749 3.9431,-2.021 2.4324,-0.2487 4.499,0.7066 5.9965,2.772 0.4309,0.5945 1.1118,1.2817 1.5129,1.5275 0.7344,0.4497 1.9891,0.6014 2.1985,0.2657 0.062,-0.099 0.025,-1.5511 -0.083,-3.2257 -0.2676,-4.1671 -1.243,-8.4994 -2.435,-10.8146 l -0.4788,-0.9299 0.5169,0.1414 c 2.0459,0.56 4.5102,0.5682 6.6603,0.022 l 0.626,-0.1589 -0.4776,0.9276 z"
       style="fill:#090909" />
    <path
       style="font-style:normal;font-variant:normal;font-weight:normal;font-stretch:normal;font-size:medium;line-height:125%;font-family:'Ubuntu Condensed';-inkscape-font-specification:'Ubuntu Condensed, ';letter-spacing:0px;word-spacing:0px;fill:#000000;fill-opacity:1;stroke:none;stroke-width:1px;stroke-linecap:butt;stroke-linejoin:miter;stroke-opacity:1"
       inkscape:connector-curvature="0"
       id="path4680"
       d="m 4173.9461,2860.3363 q -0.1562,3.8776 -0.7808,8.3206 -0.7027,4.5239 -1.7177,9.1285 -1.015,4.6046 -2.1862,9.2093 -1.2493,4.6853 -2.6546,8.8861 -1.4054,4.2814 -2.8109,7.9167 -1.4053,3.6352 -2.8108,6.3818 h 18.4265 v 6.1395 h -26 v -5.4124 q 1.8738,-3.1506 4.1381,-8.6438 2.2642,-5.4124 4.2942,-12.279 1.952,-6.7858 3.4355,-14.4602 1.4835,-7.6743 1.7958,-15.1871 z" />
  </g>
</svg>
