<?xml version="1.0" encoding="UTF-8" standalone="no"?>
<!-- Created with Inkscape (http://www.inkscape.org/) -->

<svg
   id="svg10047"
   height="123.00249"
   width="78.999901"
   version="1.1"
   viewBox="0 0 78.999901 123.00249"
   inkscape:version="0.91 r13725"
   sodipodi:docname="lombarde-ticinesi.svgz"
   xmlns:inkscape="http://www.inkscape.org/namespaces/inkscape"
   xmlns:sodipodi="http://sodipodi.sourceforge.net/DTD/sodipodi-0.dtd"
   xmlns="http://www.w3.org/2000/svg"
   xmlns:svg="http://www.w3.org/2000/svg"
   xmlns:rdf="http://www.w3.org/1999/02/22-rdf-syntax-ns#"
   xmlns:cc="http://creativecommons.org/ns#"
   xmlns:dc="http://purl.org/dc/elements/1.1/">
  <sodipodi:namedview
     pagecolor="#ffffff"
     bordercolor="#666666"
     borderopacity="1"
     objecttolerance="10"
     gridtolerance="10"
     guidetolerance="10"
     inkscape:pageopacity="0"
     inkscape:pageshadow="2"
     inkscape:window-width="1920"
     inkscape:window-height="1016"
     id="namedview1491"
     showgrid="false"
     inkscape:zoom="1.078374"
     inkscape:cx="427.42201"
     inkscape:cy="310.27924"
     inkscape:window-x="0"
     inkscape:window-y="0"
     inkscape:window-maximized="1"
     inkscape:current-layer="svg10047"
     showguides="false"
     inkscape:guide-bbox="true"
     inkscape:snap-grids="true"
     inkscape:showpageshadow="2"
     inkscape:pagecheckerboard="0"
     inkscape:deskcolor="#d1d1d1">
    <inkscape:grid
       type="xygrid"
       id="grid12910"
       originx="-316.00058"
       originy="-245.99876"
       spacingy="1"
       spacingx="1"
       units="px"
       visible="false" />
  </sodipodi:namedview>
  <metadata
     id="metadata16869">
    <rdf:RDF>
      <cc:Work
         rdf:about="">
        <dc:format>image/svg+xml</dc:format>
        <dc:type
           rdf:resource="http://purl.org/dc/dcmitype/StillImage" />
        <dc:title />
      </cc:Work>
    </rdf:RDF>
  </metadata>
  <defs
     id="defs10049" />
  <g
     transform="matrix(0.15192301,0,0,0.13372448,-379.80755,-13.434339)"
     id="heart_5"
     inkscape:label="#heart_5">
    <rect
       style="fill:#ffffff;stroke:#000000;stroke-width:1.5685"
       id="rect142-3-7-5-9-7-8-3-8-6-6-6-3-3-61"
       y="101.24708"
       x="2500.7844"
       ry="51.013237"
       rx="43.242065"
       height="918.25183"
       width="518.43109" />
    <path
       style="fill:#fe0000;fill-opacity:1"
       d="m 2653.4807,822.04724 c 13.833,14.68333 18.634,20.13017 25.333,28.73669 11.119,14.28711 24.932,37.71384 27.462,46.57601 1.318,4.6175 1.928,11.29159 1.663,18.19735 -0.193,5.03921 -0.345,6.00262 -1.356,8.58142 -2.772,7.07132 -10.039,14.71333 -17.192,18.07977 -3.654,1.71967 -7.297,2.22887 -14.339,2.00421 -4.933,-0.15737 -6.053,-0.31814 -8.359,-1.19936 -6.697,-2.55861 -14.777,-9.95516 -17.997,-16.47409 -2.325,-4.70768 -2.935,-4.70778 -5.365,0 -4.154,8.04653 -13.847,16.01677 -21.089,17.33992 -2.941,0.53719 -11.009,0.54669 -14.365,0.016 -8.124,-1.28335 -18.482,-10.25909 -22.344,-19.36392 -1.234,-2.90733 -1.749,-8.1915 -1.45,-14.8544 0.436,-9.68631 1.513,-13.74411 5.926,-22.31714 8.405,-16.32861 19.233,-32.35439 31.581,-46.74388 6.296,-7.33676 23.889,-26.26247 24.412,-26.26247 0.132,0 3.498,3.45782 7.479,7.6842 v 0 z"
       id="path7839-8-6-8-8-2-6-2-8-3-0-6-1-1-6-2-23"
       inkscape:connector-curvature="0" />
    <path
       style="fill:#fe0000;fill-opacity:1"
       d="m 2881.4807,822.04724 c 13.833,14.68333 18.634,20.13017 25.333,28.73669 11.119,14.28711 24.932,37.71384 27.462,46.57601 1.318,4.6175 1.928,11.29159 1.663,18.19735 -0.193,5.03921 -0.345,6.00262 -1.356,8.58142 -2.772,7.07132 -10.039,14.71333 -17.192,18.07977 -3.654,1.71967 -7.297,2.22887 -14.339,2.00421 -4.933,-0.15737 -6.053,-0.31814 -8.359,-1.19936 -6.697,-2.55861 -14.777,-9.95516 -17.997,-16.47409 -2.325,-4.70768 -2.935,-4.70778 -5.365,0 -4.154,8.04653 -13.847,16.01677 -21.089,17.33992 -2.941,0.53719 -11.009,0.54669 -14.365,0.016 -8.124,-1.28335 -18.482,-10.25909 -22.344,-19.36392 -1.234,-2.90733 -1.749,-8.1915 -1.45,-14.8544 0.436,-9.68631 1.513,-13.74411 5.926,-22.31714 8.405,-16.32861 19.233,-32.35439 31.581,-46.74388 6.296,-7.33676 23.889,-26.26247 24.412,-26.26247 0.132,0 3.498,3.45782 7.479,7.6842 v 0 z"
       id="path7839-8-6-8-8-2-6-2-8-3-0-6-1-6-8-1-0-7"
       inkscape:connector-curvature="0" />
    <path
       style="fill:#fe0000;fill-opacity:1"
       d="m 2752.519,617.67633 c -13.8326,-14.68333 -18.6344,-20.13017 -25.3325,-28.73669 -11.1196,-14.28711 -24.9324,-37.71384 -27.4623,-46.57601 -1.318,-4.61749 -1.9282,-11.29159 -1.6635,-18.19734 0.1929,-5.03922 0.3453,-6.00263 1.3562,-8.58143 2.7725,-7.07132 10.0392,-14.71333 17.1921,-18.07977 3.6536,-1.71966 7.2971,-2.22886 14.3386,-2.00421 4.9331,0.15737 6.053,0.31814 8.3597,1.19937 6.6963,2.5586 14.7766,9.95515 17.9964,16.47408 2.3252,4.70768 2.9352,4.70778 5.365,0 4.1539,-8.04653 13.8475,-16.01677 21.0894,-17.33991 2.9405,-0.5372 11.0089,-0.5467 14.3645,-0.016 8.1249,1.28335 18.4823,10.2591 22.3445,19.36392 1.2336,2.90733 1.749,8.1915 1.4498,14.8544 -0.4355,9.68631 -1.5128,13.74412 -5.9259,22.31714 -8.4054,16.32862 -19.2326,32.35439 -31.5808,46.74388 -6.296,7.33677 -23.8888,26.26247 -24.4126,26.26247 -0.1318,0 -3.4971,-3.45782 -7.4786,-7.6842 v 0 z"
       id="path7839-8-6-8-8-2-6-2-8-3-1-7-2-8-4-4-8"
       inkscape:connector-curvature="0" />
    <rect
       width="418.00439"
       height="818.00439"
       rx="34.865524"
       ry="45.444023"
       x="2549.9978"
       y="152.28442"
       id="rect5412"
       style="fill:none;fill-opacity:1;stroke:#000000;stroke-width:3.99559;stroke-miterlimit:4;stroke-dasharray:none" />
    <rect
       style="fill:#ffffff;stroke:#000000;stroke-width:0.150369;stroke-opacity:1"
       id="rect142-3-6-1-0-4-0-2-1-8-9-0-6-2-3-2-9-5-5-1-7"
       y="195.33026"
       x="2530.2756"
       ry="6.0995703"
       rx="3.3238332"
       height="109.79387"
       width="39.849594" />
    <path
       style="fill:#fe0000;fill-opacity:1"
       d="m 2638.5187,298.73839 c -13.8326,-14.68333 -18.6344,-20.13017 -25.3325,-28.73669 -11.1196,-14.28721 -24.9324,-37.71384 -27.4623,-46.57611 -1.318,-4.6174 -1.9282,-11.2916 -1.6635,-18.19725 0.1929,-5.03921 0.3453,-6.00263 1.3562,-8.58142 2.7725,-7.07132 10.0392,-14.71333 17.1921,-18.07987 3.6536,-1.71957 7.2971,-2.22887 14.3386,-2.00411 4.9331,0.15737 6.053,0.31814 8.3597,1.19936 6.6963,2.5586 14.7766,9.95516 17.9964,16.47399 2.3252,4.70778 2.9352,4.70788 5.365,0 4.1539,-8.04653 13.8475,-16.01678 21.0894,-17.33992 2.9405,-0.53719 11.0089,-0.54669 14.3645,-0.016 8.1249,1.28335 18.4825,10.25909 22.3447,19.36392 1.2334,2.90733 1.749,8.1915 1.4496,14.8544 -0.4355,9.68621 -1.5128,13.74411 -5.9259,22.31714 -8.4054,16.32861 -19.2326,32.35438 -31.5808,46.74388 -6.296,7.33666 -23.8888,26.26247 -24.4126,26.26247 -0.1318,0 -3.4971,-3.45783 -7.4786,-7.6842 v 0 z"
       id="path7839-8-6-8-8-2-6-2-8-3-9-2-6-2"
       inkscape:connector-curvature="0" />
    <path
       style="fill:#fe0000;fill-opacity:1"
       d="m 2866.5187,298.73419 c -13.8326,-14.68333 -18.6344,-20.13017 -25.3325,-28.73669 -11.1196,-14.28721 -24.9324,-37.71384 -27.4623,-46.57611 -1.318,-4.6174 -1.9282,-11.29159 -1.6635,-18.19725 0.1929,-5.03921 0.3453,-6.00262 1.3562,-8.58142 2.7725,-7.07132 10.0392,-14.71333 17.1921,-18.07987 3.6536,-1.71957 7.2971,-2.22887 14.3386,-2.00411 4.9331,0.15737 6.053,0.31814 8.3597,1.19936 6.6963,2.55861 14.7766,9.95516 17.9964,16.47399 2.3252,4.70778 2.9352,4.70788 5.365,0 4.1539,-8.04653 13.8475,-16.01677 21.0894,-17.33982 2.9405,-0.53729 11.0089,-0.54679 14.3645,-0.016 8.1249,1.28335 18.4825,10.25909 22.3447,19.36392 1.2334,2.90733 1.749,8.1915 1.4496,14.8544 -0.4355,9.68621 -1.5128,13.74411 -5.9259,22.31714 -8.4054,16.32861 -19.2326,32.35439 -31.5808,46.74388 -6.296,7.33666 -23.8888,26.26247 -24.4126,26.26247 -0.1318,0 -3.4971,-3.45782 -7.4786,-7.6842 v 0 z"
       id="path7839-8-6-8-8-2-6-2-8-3-0-3-2-3-0"
       inkscape:connector-curvature="0" />
    <path
       style="fill:#fe0000;fill-opacity:1"
       d="m 2548.964,298.12741 c -2.9674,-3.16228 -3.9974,-4.33526 -5.4343,-6.18879 -2.3853,-3.077 -5.3484,-8.12212 -5.8911,-10.03065 -0.2828,-0.9945 -0.4136,-2.43182 -0.3569,-3.91903 0.042,-1.08519 0.074,-1.29285 0.291,-1.84824 0.5948,-1.5227 2.1536,-3.16858 3.6879,-3.89364 0.7838,-0.37033 1.5654,-0.47991 3.0759,-0.43142 1.0582,0.034 1.2984,0.068 1.7933,0.25815 1.4364,0.551 3.1698,2.14399 3.8605,3.54791 0.4988,1.0138 0.6297,1.0138 1.1509,0 0.8911,-1.73296 2.9706,-3.44942 4.5241,-3.73447 0.6307,-0.11548 2.3615,-0.11758 3.0813,0 1.7429,0.27635 3.9649,2.20947 4.7933,4.17029 0.2646,0.62617 0.3752,1.76415 0.311,3.19907 -0.094,2.0861 -0.3245,2.95992 -1.2712,4.80626 -1.8031,3.51652 -4.1257,6.96794 -6.7746,10.06684 -1.3505,1.57999 -5.1246,5.6559 -5.2369,5.6559 -0.028,0 -0.7502,-0.74456 -1.6042,-1.65488 v 0 z"
       id="path7839-8-6-8-8-2-6-2-8-3-14-2-9-1-9"
       inkscape:connector-curvature="0" />
    <path
       d="m 2549.25,210.37344 q -0.4166,5.69379 -0.5834,9.48965 -0.1666,3.79595 -0.3333,6.01012 7.8334,1.0281 11.5,5.37755 3.6667,4.34945 3.6667,11.783 0,4.19128 -1.2501,7.43355 -1.2499,3.24237 -3.4999,5.45654 -2.1667,2.21426 -5.1667,3.32145 -3,1.18617 -6.5,1.18617 -2.4167,0 -4.9167,-0.63258 -2.5,-0.63268 -4.6666,-1.81894 l 2,-5.61471 q 3.5833,1.89793 7.3333,1.89793 4,0 6.75,-2.76776 2.75,-2.76786 2.75,-8.46165 0,-6.24738 -3.75,-8.93615 -3.6666,-2.76776 -11.25,-3.0841 0.4167,-3.95403 0.6667,-7.1964 0.25,-3.32135 0.4167,-6.40545 0.1666,-3.16328 0.25,-6.24738 0.1666,-3.16328 0.2499,-6.72188 h 19.5001 v 5.93104 z"
       id="path5616"
       inkscape:connector-curvature="0"
       style="font-style:normal;font-variant:normal;font-weight:normal;font-stretch:normal;font-size:medium;line-height:125%;font-family:'Ubuntu Condensed';-inkscape-font-specification:'Ubuntu Condensed, ';letter-spacing:0px;word-spacing:0px;fill:#ff0000;fill-opacity:1;stroke:none;stroke-width:1px;stroke-linecap:butt;stroke-linejoin:miter;stroke-opacity:1" />
    <path
       style="font-style:normal;font-variant:normal;font-weight:normal;font-stretch:normal;font-size:medium;line-height:125%;font-family:'Ubuntu Condensed';-inkscape-font-specification:'Ubuntu Condensed, ';letter-spacing:0px;word-spacing:0px;fill:#ff0000;fill-opacity:1;stroke:none;stroke-width:1px;stroke-linecap:butt;stroke-linejoin:miter;stroke-opacity:1"
       inkscape:connector-curvature="0"
       id="path5644-2"
       d="m 2549.25,210.37344 q -0.4166,5.69379 -0.5834,9.48965 -0.1666,3.79595 -0.3333,6.01012 7.8334,1.0281 11.5,5.37755 3.6667,4.34945 3.6667,11.783 0,4.19128 -1.2501,7.43355 -1.2499,3.24237 -3.4999,5.45654 -2.1667,2.21426 -5.1667,3.32145 -3,1.18617 -6.5,1.18617 -2.4167,0 -4.9167,-0.63258 -2.5,-0.63268 -4.6666,-1.81894 l 2,-5.61471 q 3.5833,1.89793 7.3333,1.89793 4,0 6.75,-2.76776 2.75,-2.76786 2.75,-8.46165 0,-6.24738 -3.75,-8.93615 -3.6666,-2.76776 -11.25,-3.0841 0.4167,-3.95403 0.6667,-7.1964 0.25,-3.32135 0.4167,-6.40545 0.1666,-3.16328 0.25,-6.24738 0.1666,-3.16328 0.2499,-6.72188 h 19.5001 v 5.93104 z" />
    <rect
       style="fill:#ffffff;stroke:#000000;stroke-width:0.150369;stroke-opacity:1"
       id="rect142-3-6-1-0-4-0-2-1-8-9-0-6-2-31-61-6-9-9-0-9"
       y="-925.22656"
       x="-2989.137"
       ry="6.0995703"
       rx="3.3238332"
       height="109.79387"
       width="39.849594"
       transform="scale(-1)" />
    <path
       style="fill:#fe0000;fill-opacity:1"
       d="m 2970.8184,822.11833 c 2.9674,3.16228 3.9974,4.33535 5.4343,6.18889 2.3853,3.0769 5.3484,8.12211 5.8911,10.03064 0.2828,0.99441 0.4136,2.43183 0.3569,3.91893 -0.042,1.08529 -0.074,1.29285 -0.291,1.84834 -0.5948,1.52271 -2.1536,3.16859 -3.6879,3.89354 -0.7838,0.37033 -1.5654,0.48001 -3.0759,0.43152 -1.0582,-0.034 -1.2984,-0.068 -1.7933,-0.25815 -1.4364,-0.55099 -3.1698,-2.14398 -3.8605,-3.54791 -0.4988,-1.0139 -0.6297,-1.0139 -1.1509,0 -0.8911,1.73296 -2.9706,3.44933 -4.5241,3.73437 -0.6307,0.11558 -2.3615,0.11768 -3.0813,0 -1.7429,-0.27634 -3.9649,-2.20946 -4.7933,-4.17028 -0.2646,-0.62618 -0.3752,-1.76406 -0.311,-3.19908 0.094,-2.08599 0.3245,-2.95982 1.2712,-4.80626 1.8031,-3.51651 4.1257,-6.96784 6.7746,-10.06673 1.3505,-1.58 5.1246,-5.656 5.2369,-5.656 0.028,0 0.7502,0.74465 1.6042,1.65488 v 0 z"
       id="path7839-8-6-8-8-2-6-2-8-3-14-9-0-3-5-2"
       inkscape:connector-curvature="0" />
    <path
       style="font-style:normal;font-variant:normal;font-weight:normal;font-stretch:normal;font-size:medium;line-height:125%;font-family:'Ubuntu Condensed';-inkscape-font-specification:'Ubuntu Condensed, ';letter-spacing:0px;word-spacing:0px;fill:#ff0000;fill-opacity:1;stroke:none;stroke-width:1px;stroke-linecap:butt;stroke-linejoin:miter;stroke-opacity:1"
       inkscape:connector-curvature="0"
       id="path5558-3"
       d="m 2967.75,910.3724 q 0.4166,-5.69379 0.5834,-9.48965 0.1666,-3.79586 0.3333,-6.01013 -7.8334,-1.0281 -11.5,-5.37755 -3.6667,-4.34935 -3.6667,-11.783 0,-4.19128 1.2501,-7.43355 1.2499,-3.24226 3.4999,-5.45653 2.1667,-2.21427 5.1667,-3.32145 3,-1.18617 6.5,-1.18617 2.4167,0 4.9167,0.63268 2.5,0.63257 4.6666,1.81884 l -2,5.61471 q -3.5833,-1.89793 -7.3333,-1.89793 -4,0 -6.75,2.76776 -2.75,2.76786 -2.75,8.46164 0,6.24738 3.75,8.93616 3.6666,2.76776 11.25,3.0841 -0.4167,3.95403 -0.6667,7.19639 -0.25,3.32135 -0.4167,6.40545 -0.1666,3.16329 -0.25,6.24738 -0.1666,3.16329 -0.2499,6.72189 h -19.5001 v -5.93104 z" />
  </g>
</svg>
