<?xml version="1.0" encoding="UTF-8" standalone="no"?>
<!-- Created with Inkscape (http://www.inkscape.org/) -->

<svg
   id="svg10047"
   height="123.00249"
   width="78.999901"
   version="1.1"
   viewBox="0 0 78.999901 123.00249"
   inkscape:version="0.91 r13725"
   sodipodi:docname="lombarde-ticinesi.svgz"
   xmlns:inkscape="http://www.inkscape.org/namespaces/inkscape"
   xmlns:sodipodi="http://sodipodi.sourceforge.net/DTD/sodipodi-0.dtd"
   xmlns="http://www.w3.org/2000/svg"
   xmlns:svg="http://www.w3.org/2000/svg"
   xmlns:rdf="http://www.w3.org/1999/02/22-rdf-syntax-ns#"
   xmlns:cc="http://creativecommons.org/ns#"
   xmlns:dc="http://purl.org/dc/elements/1.1/">
  <sodipodi:namedview
     pagecolor="#ffffff"
     bordercolor="#666666"
     borderopacity="1"
     objecttolerance="10"
     gridtolerance="10"
     guidetolerance="10"
     inkscape:pageopacity="0"
     inkscape:pageshadow="2"
     inkscape:window-width="1920"
     inkscape:window-height="1016"
     id="namedview1491"
     showgrid="false"
     inkscape:zoom="1.078374"
     inkscape:cx="427.42201"
     inkscape:cy="310.27924"
     inkscape:window-x="0"
     inkscape:window-y="0"
     inkscape:window-maximized="1"
     inkscape:current-layer="svg10047"
     showguides="false"
     inkscape:guide-bbox="true"
     inkscape:snap-grids="true"
     inkscape:showpageshadow="2"
     inkscape:pagecheckerboard="0"
     inkscape:deskcolor="#d1d1d1">
    <inkscape:grid
       type="xygrid"
       id="grid12910"
       originx="-474.00012"
       originy="-245.99876"
       spacingy="1"
       spacingx="1"
       units="px"
       visible="false" />
  </sodipodi:namedview>
  <metadata
     id="metadata16869">
    <rdf:RDF>
      <cc:Work
         rdf:about="">
        <dc:format>image/svg+xml</dc:format>
        <dc:type
           rdf:resource="http://purl.org/dc/dcmitype/StillImage" />
        <dc:title />
      </cc:Work>
    </rdf:RDF>
  </metadata>
  <defs
     id="defs10049" />
  <g
     transform="matrix(0.15192301,0,0,0.13372448,-562.11516,-13.434339)"
     id="heart_7"
     inkscape:label="#heart_7">
    <rect
       style="fill:#ffffff;stroke:#000000;stroke-width:1.5685"
       id="rect142-3-7-5-9-7-8-3-8-6-6-6-3-3"
       y="101.24708"
       x="3700.7844"
       ry="51.013237"
       rx="43.242065"
       height="918.25183"
       width="518.43109" />
    <path
       style="fill:#fe0000;fill-opacity:1"
       d="m 3838.5186,298.73839 c -13.8326,-14.68333 -18.6344,-20.13017 -25.3325,-28.73669 -11.1196,-14.28721 -24.9324,-37.71384 -27.4623,-46.57611 -1.318,-4.6174 -1.9282,-11.2916 -1.6635,-18.19725 0.1929,-5.03921 0.3453,-6.00263 1.3562,-8.58142 2.7725,-7.07132 10.0392,-14.71333 17.1921,-18.07987 3.6536,-1.71957 7.2971,-2.22887 14.3386,-2.00411 4.9331,0.15737 6.053,0.31814 8.3597,1.19936 6.6963,2.5586 14.7766,9.95516 17.9964,16.47399 2.3252,4.70778 2.9352,4.70788 5.365,0 4.1539,-8.04653 13.8475,-16.01678 21.0894,-17.33992 2.9405,-0.53719 11.0089,-0.54669 14.3645,-0.016 8.1249,1.28335 18.4825,10.25909 22.3447,19.36392 1.2334,2.90733 1.749,8.1915 1.4496,14.8544 -0.4355,9.68621 -1.5128,13.74411 -5.9259,22.31714 -8.4054,16.32861 -19.2326,32.35438 -31.5808,46.74388 -6.296,7.33666 -23.8888,26.26247 -24.4126,26.26247 -0.1318,0 -3.4971,-3.45783 -7.4786,-7.6842 v 0 z"
       id="path7839-8-6-8-8-2-6-2-8-3-9-2-6"
       inkscape:connector-curvature="0" />
    <path
       style="fill:#fe0000;fill-opacity:1"
       d="m 4066.5186,298.73419 c -13.8326,-14.68333 -18.6344,-20.13017 -25.3325,-28.73669 -11.1196,-14.28721 -24.9324,-37.71384 -27.4623,-46.57611 -1.318,-4.6174 -1.9282,-11.29159 -1.6635,-18.19725 0.1929,-5.03921 0.3453,-6.00262 1.3562,-8.58142 2.7725,-7.07132 10.0392,-14.71333 17.1921,-18.07987 3.6536,-1.71957 7.2971,-2.22887 14.3386,-2.00411 4.9331,0.15737 6.053,0.31814 8.3597,1.19936 6.6963,2.55861 14.7766,9.95516 17.9964,16.47399 2.3252,4.70778 2.9352,4.70788 5.365,0 4.1539,-8.04653 13.8475,-16.01677 21.0894,-17.33982 2.9405,-0.53729 11.0089,-0.54679 14.3645,-0.016 8.1249,1.28335 18.4825,10.25909 22.3447,19.36392 1.2334,2.90733 1.749,8.1915 1.4496,14.8544 -0.4355,9.68621 -1.5128,13.74411 -5.9259,22.31714 -8.4054,16.32861 -19.2326,32.35439 -31.5808,46.74388 -6.296,7.33666 -23.8888,26.26247 -24.4126,26.26247 -0.1318,0 -3.4971,-3.45782 -7.4786,-7.6842 v 0 z"
       id="path7839-8-6-8-8-2-6-2-8-3-0-3-2-3"
       inkscape:connector-curvature="0" />
    <path
       style="fill:#fe0000;fill-opacity:1"
       d="m 3853.4806,822.04724 c 13.833,14.68333 18.634,20.13017 25.333,28.73669 11.119,14.28711 24.932,37.71384 27.462,46.57601 1.318,4.6175 1.928,11.29159 1.663,18.19735 -0.193,5.03921 -0.345,6.00262 -1.356,8.58142 -2.772,7.07132 -10.039,14.71333 -17.192,18.07977 -3.654,1.71967 -7.297,2.22887 -14.339,2.00421 -4.933,-0.15737 -6.053,-0.31814 -8.359,-1.19936 -6.697,-2.55861 -14.777,-9.95516 -17.997,-16.47409 -2.325,-4.70768 -2.935,-4.70778 -5.365,0 -4.154,8.04653 -13.847,16.01677 -21.089,17.33992 -2.941,0.53719 -11.009,0.54669 -14.365,0.016 -8.124,-1.28335 -18.482,-10.25909 -22.344,-19.36392 -1.234,-2.90733 -1.749,-8.1915 -1.45,-14.8544 0.436,-9.68631 1.513,-13.74411 5.926,-22.31714 8.405,-16.32861 19.233,-32.35439 31.581,-46.74388 6.296,-7.33676 23.889,-26.26247 24.412,-26.26247 0.132,0 3.498,3.45782 7.479,7.6842 v 0 z"
       id="path7839-8-6-8-8-2-6-2-8-3-0-6-1-1-6-2"
       inkscape:connector-curvature="0" />
    <path
       style="fill:#fe0000;fill-opacity:1"
       d="m 4081.4806,822.04724 c 13.833,14.68333 18.634,20.13017 25.333,28.73669 11.119,14.28711 24.932,37.71384 27.462,46.57601 1.318,4.6175 1.928,11.29159 1.663,18.19735 -0.193,5.03921 -0.345,6.00262 -1.356,8.58142 -2.772,7.07132 -10.039,14.71333 -17.192,18.07977 -3.654,1.71967 -7.297,2.22887 -14.339,2.00421 -4.933,-0.15737 -6.053,-0.31814 -8.359,-1.19936 -6.697,-2.55861 -14.777,-9.95516 -17.997,-16.47409 -2.325,-4.70768 -2.935,-4.70778 -5.365,0 -4.154,8.04653 -13.847,16.01677 -21.089,17.33992 -2.941,0.53719 -11.009,0.54669 -14.365,0.016 -8.124,-1.28335 -18.482,-10.25909 -22.344,-19.36392 -1.234,-2.90733 -1.749,-8.1915 -1.45,-14.8544 0.436,-9.68631 1.513,-13.74411 5.926,-22.31714 8.405,-16.32861 19.233,-32.35439 31.581,-46.74388 6.296,-7.33676 23.889,-26.26247 24.412,-26.26247 0.132,0 3.498,3.45782 7.479,7.6842 v 0 z"
       id="path7839-8-6-8-8-2-6-2-8-3-0-6-1-6-8-1-0"
       inkscape:connector-curvature="0" />
    <path
       style="fill:#fe0000;fill-opacity:1"
       d="m 3952.5186,458.20746 c -13.8326,-14.68333 -18.6344,-20.13017 -25.3325,-28.73669 -11.1196,-14.28711 -24.9324,-37.71384 -27.4623,-46.57611 -1.318,-4.6174 -1.9282,-11.29149 -1.6635,-18.19725 0.1929,-5.03921 0.3453,-6.00262 1.3562,-8.58142 2.7725,-7.07132 10.0392,-14.71333 17.1921,-18.07987 3.6536,-1.71957 7.2971,-2.22887 14.3386,-2.00411 4.9331,0.15737 6.053,0.31814 8.3597,1.19937 6.6963,2.5586 14.7766,9.95515 17.9964,16.47408 2.3252,4.70768 2.9352,4.70778 5.365,0 4.1539,-8.04653 13.8475,-16.01677 21.0894,-17.33992 2.9405,-0.53729 11.0089,-0.54679 14.3645,-0.016 8.1249,1.28335 18.4825,10.2591 22.3447,19.36392 1.2334,2.90733 1.749,8.1915 1.4496,14.8544 -0.4355,9.68631 -1.5128,13.74412 -5.9259,22.31714 -8.4054,16.32861 -19.2326,32.35439 -31.5808,46.74388 -6.296,7.33667 -23.8888,26.26247 -24.4126,26.26247 -0.1318,0 -3.4971,-3.45782 -7.4786,-7.6842 v 0 z"
       id="path7839-8-6-8-8-2-6-2-8-3-1-7-2-6"
       inkscape:connector-curvature="0" />
    <path
       style="fill:#fe0000;fill-opacity:1"
       d="m 3853.4809,503.1097 c 13.8326,14.68333 18.6344,20.13017 25.3325,28.73669 11.1196,14.28721 24.9324,37.71394 27.4623,46.57611 1.318,4.61749 1.9282,11.29159 1.6635,18.19724 -0.1929,5.03922 -0.3453,6.00263 -1.3562,8.58143 -2.7725,7.07132 -10.0392,14.71333 -17.1921,18.07987 -3.6536,1.71966 -7.2971,2.22886 -14.3386,2.00421 -4.9331,-0.15747 -6.053,-0.31814 -8.3597,-1.19947 -6.6963,-2.5586 -14.7766,-9.95506 -17.9964,-16.47398 -2.3252,-4.70768 -2.9352,-4.70778 -5.365,0 -4.1539,8.04653 -13.8475,16.01677 -21.0894,17.33991 -2.9405,0.5372 -11.0089,0.5467 -14.3645,0.016 -8.1249,-1.28335 -18.4824,-10.2591 -22.3446,-19.36402 -1.2335,-2.90733 -1.749,-8.1914 -1.4497,-14.8543 0.4355,-9.68631 1.5128,-13.74422 5.9259,-22.31724 8.4054,-16.32862 19.2326,-32.35439 31.5808,-46.74388 6.296,-7.33667 23.8888,-26.26247 24.4126,-26.26247 0.1318,0 3.4971,3.45782 7.4786,7.6842 v 0 z"
       id="path7839-8-6-8-8-2-6-2-8-3-1-7-2-8-5"
       inkscape:connector-curvature="0" />
    <path
       style="fill:#fe0000;fill-opacity:1"
       d="m 4066.5189,617.67633 c -13.8326,-14.68333 -18.6344,-20.13017 -25.3325,-28.73669 -11.1196,-14.28711 -24.9324,-37.71384 -27.4623,-46.57601 -1.318,-4.61749 -1.9282,-11.29159 -1.6635,-18.19734 0.1929,-5.03922 0.3453,-6.00263 1.3562,-8.58143 2.7725,-7.07132 10.0392,-14.71333 17.1921,-18.07977 3.6536,-1.71966 7.2971,-2.22886 14.3386,-2.00421 4.9331,0.15737 6.053,0.31814 8.3597,1.19937 6.6963,2.5586 14.7766,9.95515 17.9964,16.47408 2.3252,4.70768 2.9352,4.70778 5.365,0 4.1539,-8.04653 13.8475,-16.01677 21.0894,-17.33991 2.9405,-0.5372 11.0089,-0.5467 14.3645,-0.016 8.1249,1.28335 18.4823,10.2591 22.3445,19.36392 1.2336,2.90733 1.749,8.1915 1.4498,14.8544 -0.4355,9.68631 -1.5128,13.74412 -5.9259,22.31714 -8.4054,16.32862 -19.2326,32.35439 -31.5808,46.74388 -6.296,7.33677 -23.8888,26.26247 -24.4126,26.26247 -0.1318,0 -3.4971,-3.45782 -7.4786,-7.6842 v 0 z"
       id="path7839-8-6-8-8-2-6-2-8-3-1-7-2-8-4-4"
       inkscape:connector-curvature="0" />
    <rect
       style="fill:none;fill-opacity:1;stroke:#000000;stroke-width:3.99559;stroke-miterlimit:4;stroke-dasharray:none"
       id="rect5416"
       y="152.28442"
       x="3749.9983"
       ry="45.444023"
       rx="34.865524"
       height="818.00439"
       width="418.00439" />
    <rect
       style="fill:#ffffff;stroke:#000000;stroke-width:0.150369;stroke-opacity:1"
       id="rect142-3-6-1-0-4-0-2-1-8-9-0-6-2-3-2-9-5-5-1"
       y="195.5536"
       x="3730.2756"
       ry="6.0995703"
       rx="3.3238332"
       height="109.79387"
       width="39.849594" />
    <path
       style="fill:#fe0000;fill-opacity:1"
       d="m 3748.9639,298.35067 c -2.9674,-3.16229 -3.9974,-4.33526 -5.4343,-6.1888 -2.3853,-3.077 -5.3484,-8.12211 -5.8911,-10.03064 -0.2828,-0.9945 -0.4136,-2.43182 -0.3569,-3.91903 0.042,-1.08519 0.074,-1.29285 0.291,-1.84824 0.5948,-1.52271 2.1536,-3.16858 3.6879,-3.89364 0.7838,-0.37033 1.5654,-0.47991 3.0759,-0.43142 1.0582,0.034 1.2984,0.068 1.7933,0.25815 1.4364,0.55099 3.1698,2.14398 3.8605,3.54791 0.4988,1.0138 0.6297,1.0138 1.1509,0 0.8911,-1.73296 2.9706,-3.44943 4.5241,-3.73447 0.6307,-0.11548 2.3615,-0.11758 3.0813,0 1.7429,0.27634 3.9649,2.20947 4.7933,4.17028 0.2646,0.62618 0.3752,1.76416 0.311,3.19908 -0.094,2.08609 -0.3245,2.95992 -1.2712,4.80626 -1.8031,3.51651 -4.1257,6.96794 -6.7746,10.06684 -1.3505,1.57999 -5.1246,5.65589 -5.2369,5.65589 -0.028,0 -0.7502,-0.74455 -1.6042,-1.65488 v 0 z"
       id="path7839-8-6-8-8-2-6-2-8-3-14-2-9-1"
       inkscape:connector-curvature="0" />
    <path
       d="m 3742.8771,260.43147 q 0.1562,-3.87805 0.7808,-8.32158 0.7027,-4.52442 1.7177,-9.12952 1.015,-4.6052 2.1862,-9.2104 1.2493,-4.68588 2.6546,-8.88706 1.4054,-4.28207 2.8109,-7.91766 1.4053,-3.63569 2.8108,-6.38265 h -18.4265 v -6.1402 h 26 v 5.41314 q -1.8738,3.15088 -4.1381,8.64471 -2.2642,5.41315 -4.2942,12.2804 -1.952,6.78658 -3.4355,14.46188 -1.4835,7.6753 -1.7958,15.18894 z"
       id="path5612"
       inkscape:connector-curvature="0"
       style="font-style:normal;font-variant:normal;font-weight:normal;font-stretch:normal;font-size:medium;line-height:125%;font-family:'Ubuntu Condensed';-inkscape-font-specification:'Ubuntu Condensed, ';letter-spacing:0px;word-spacing:0px;fill:#ff0000;fill-opacity:1;stroke:none;stroke-width:1px;stroke-linecap:butt;stroke-linejoin:miter;stroke-opacity:1" />
    <path
       style="font-style:normal;font-variant:normal;font-weight:normal;font-stretch:normal;font-size:medium;line-height:125%;font-family:'Ubuntu Condensed';-inkscape-font-specification:'Ubuntu Condensed, ';letter-spacing:0px;word-spacing:0px;fill:#ff0000;fill-opacity:1;stroke:none;stroke-width:1px;stroke-linecap:butt;stroke-linejoin:miter;stroke-opacity:1"
       inkscape:connector-curvature="0"
       id="path5640-0"
       d="m 3742.8771,260.43147 q 0.1562,-3.87805 0.7808,-8.32158 0.7027,-4.52442 1.7177,-9.12952 1.015,-4.6052 2.1862,-9.2104 1.2493,-4.68588 2.6546,-8.88706 1.4054,-4.28207 2.8109,-7.91766 1.4053,-3.63569 2.8108,-6.38265 h -18.4265 v -6.1402 h 26 v 5.41314 q -1.8738,3.15088 -4.1381,8.64471 -2.2642,5.41315 -4.2942,12.2804 -1.952,6.78658 -3.4355,14.46188 -1.4835,7.6753 -1.7958,15.18894 z" />
    <rect
       style="fill:#ffffff;stroke:#000000;stroke-width:0.150369;stroke-opacity:1"
       id="rect142-3-6-1-0-4-0-2-1-8-9-0-6-2-31-61-6-9-9-0"
       y="-925.22656"
       x="-4189.1367"
       ry="6.0995703"
       rx="3.3238332"
       height="109.79387"
       width="39.849594"
       transform="scale(-1)" />
    <path
       style="fill:#fe0000;fill-opacity:1"
       d="m 4170.8183,822.11833 c 2.9674,3.16228 3.9974,4.33535 5.4343,6.18889 2.3853,3.0769 5.3484,8.12211 5.8911,10.03064 0.2828,0.99441 0.4136,2.43183 0.3569,3.91893 -0.042,1.08529 -0.074,1.29285 -0.291,1.84834 -0.5948,1.52271 -2.1536,3.16859 -3.6879,3.89354 -0.7838,0.37033 -1.5654,0.48001 -3.0759,0.43152 -1.0582,-0.034 -1.2984,-0.068 -1.7933,-0.25815 -1.4364,-0.55099 -3.1698,-2.14398 -3.8605,-3.54791 -0.4988,-1.0139 -0.6297,-1.0139 -1.1509,0 -0.8911,1.73296 -2.9706,3.44933 -4.5241,3.73437 -0.6307,0.11558 -2.3615,0.11768 -3.0813,0 -1.7429,-0.27634 -3.9649,-2.20946 -4.7933,-4.17028 -0.2646,-0.62618 -0.3752,-1.76406 -0.311,-3.19908 0.094,-2.08599 0.3245,-2.95982 1.2712,-4.80626 1.8031,-3.51651 4.1257,-6.96784 6.7746,-10.06673 1.3505,-1.58 5.1246,-5.656 5.2369,-5.656 0.028,0 0.7502,0.74465 1.6042,1.65488 v 0 z"
       id="path7839-8-6-8-8-2-6-2-8-3-14-9-0-3-5"
       inkscape:connector-curvature="0" />
    <path
       style="font-style:normal;font-variant:normal;font-weight:normal;font-stretch:normal;font-size:medium;line-height:125%;font-family:'Ubuntu Condensed';-inkscape-font-specification:'Ubuntu Condensed, ';letter-spacing:0px;word-spacing:0px;fill:#ff0000;fill-opacity:1;stroke:none;stroke-width:1px;stroke-linecap:butt;stroke-linejoin:miter;stroke-opacity:1"
       inkscape:connector-curvature="0"
       id="path5554"
       d="m 4173.9461,860.31437 q -0.1562,3.87804 -0.7808,8.32158 -0.7027,4.52441 -1.7177,9.12961 -1.015,4.6051 -2.1862,9.21031 -1.2493,4.68588 -2.6546,8.88716 -1.4054,4.28197 -2.8109,7.91766 -1.4053,3.63559 -2.8108,6.38255 h 18.4265 v 6.1402 h -26 v -5.41304 q 1.8738,-3.15099 4.1381,-8.64481 2.2642,-5.41305 4.2942,-12.28041 1.952,-6.78657 3.4355,-14.46187 1.4835,-7.67521 1.7958,-15.18894 z" />
  </g>
</svg>
