<?xml version="1.0" encoding="UTF-8" standalone="no"?>
<!-- Created with Inkscape (http://www.inkscape.org/) -->

<svg
   id="svg10047"
   height="122.96671"
   width="78.998962"
   version="1.1"
   viewBox="0 0 78.998962 122.96671"
   inkscape:version="0.91 r13725"
   sodipodi:docname="lombarde-ticinesi.svgz"
   xmlns:inkscape="http://www.inkscape.org/namespaces/inkscape"
   xmlns:sodipodi="http://sodipodi.sourceforge.net/DTD/sodipodi-0.dtd"
   xmlns="http://www.w3.org/2000/svg"
   xmlns:svg="http://www.w3.org/2000/svg"
   xmlns:rdf="http://www.w3.org/1999/02/22-rdf-syntax-ns#"
   xmlns:cc="http://creativecommons.org/ns#"
   xmlns:dc="http://purl.org/dc/elements/1.1/">
  <sodipodi:namedview
     pagecolor="#ffffff"
     bordercolor="#666666"
     borderopacity="1"
     objecttolerance="10"
     gridtolerance="10"
     guidetolerance="10"
     inkscape:pageopacity="0"
     inkscape:pageshadow="2"
     inkscape:window-width="1920"
     inkscape:window-height="1016"
     id="namedview1491"
     showgrid="false"
     inkscape:zoom="1.078374"
     inkscape:cx="427.42201"
     inkscape:cy="310.27924"
     inkscape:window-x="0"
     inkscape:window-y="0"
     inkscape:window-maximized="1"
     inkscape:current-layer="svg10047"
     showguides="false"
     inkscape:guide-bbox="true"
     inkscape:snap-grids="true"
     inkscape:showpageshadow="2"
     inkscape:pagecheckerboard="0"
     inkscape:deskcolor="#d1d1d1">
    <inkscape:grid
       type="xygrid"
       id="grid12910"
       originx="-0.0014829623"
       originy="-369.03458"
       spacingy="1"
       spacingx="1"
       units="px"
       visible="false" />
  </sodipodi:namedview>
  <metadata
     id="metadata16869">
    <rdf:RDF>
      <cc:Work
         rdf:about="">
        <dc:format>image/svg+xml</dc:format>
        <dc:type
           rdf:resource="http://purl.org/dc/dcmitype/StillImage" />
        <dc:title />
      </cc:Work>
    </rdf:RDF>
  </metadata>
  <defs
     id="defs10049" />
  <g
     transform="matrix(0.15192301,0,0,0.13369848,-15.192306,-414.53948)"
     id="spade_1"
     inkscape:label="#spade_1">
    <rect
       transform="scale(-1)"
       style="fill:#ffffff;stroke:#000000;stroke-width:1.56842"
       id="rect142-3-7-5-9-2-7-8-0-6-5-8-6-7-7-8-7"
       y="-4019.5022"
       x="-619.20923"
       ry="51.008301"
       rx="43.241558"
       height="918.16309"
       width="518.42499" />
    <path
       inkscape:connector-curvature="0"
       id="path8747-9-2-8-5-8-4-0-1-3-2-6-2-6-1-0-5"
       d="m 350.38984,3629.2656 c 2.6876,-5.476 5.9689,-16.7641 7.2077,-24.7967 1.3475,-8.7361 1.6085,-20.7192 0.4426,-20.3045 -0.4211,0.15 -2.0548,2.1119 -3.6304,4.3602 -4.2271,6.0314 -10.16,8.796 -19.8484,9.2489 -6.9594,0.3251 -7.7449,0.1877 -13.3353,-2.3306 -6.9937,-3.1508 -11.7579,-7.7872 -14.9419,-14.5412 -3.9293,-8.3356 -2.6816,-22.8112 2.862,-33.2031 4.2325,-7.934 7.4048,-11.5978 23.5326,-27.1777 16.9895,-16.4126 21.0394,-21.0325 24.4713,-27.9155 1.1409,-2.2879 2.4503,-4.1596 2.9103,-4.1596 0.46,0 1.7698,1.8717 2.9103,4.1596 3.432,6.883 7.482,11.5029 24.4715,27.9155 8.9295,8.6264 17.3813,17.3398 18.7809,19.3631 7.0314,10.1626 9.731,18.1795 9.7725,29.0208 0.024,6.2421 -0.3034,8.0606 -2.1589,11.9969 -3.1842,6.754 -7.9481,11.3904 -14.9421,14.5412 -5.5902,2.5183 -6.3757,2.6557 -13.335,2.3306 -9.6886,-0.4529 -15.6214,-3.2174 -19.8485,-9.2489 -1.5755,-2.2481 -3.2092,-4.2101 -3.6303,-4.36 -1.166,-0.4148 -0.905,11.5683 0.4425,20.3044 1.239,8.0325 4.5202,19.3208 7.2078,24.7968 l 1.5395,3.1369 -4.3503,-0.6557 c -2.393,-0.3606 -5.4797,-0.6556 -6.8599,-0.6556 -1.3799,0 -4.4669,0.295 -6.8597,0.6556 l -4.3503,0.6557 1.5395,-3.1369 z"
       style="fill:#000000" />
    <rect
       style="fill:none;fill-opacity:1;stroke:#000000;stroke-width:3.99559;stroke-miterlimit:4;stroke-dasharray:none"
       id="rect5404"
       y="3152.2844"
       x="149.9978"
       ry="45.444023"
       rx="34.865524"
       height="818.00439"
       width="418.00439" />
    <rect
       width="39.849594"
       height="109.81674"
       rx="3.3238332"
       ry="6.1008406"
       x="130.52246"
       y="3195.6089"
       id="rect142-3-6-1-0-4-0-2-1-8-9-0-6-2-3-2-9-7-3-9-1-4-7"
       style="fill:#ffffff;stroke:#000000;stroke-width:0.150385;stroke-opacity:1" />
    <path
       inkscape:connector-curvature="0"
       id="path8747-9-2-4-7-6-5-2-7-6-3-20-3-5-4-3"
       d="m 148.45683,3299.805 c 0.5999,-1.2168 1.3323,-3.7254 1.6088,-5.5105 0.3008,-1.9413 0.3591,-4.6042 0.098,-4.5121 -0.095,0.033 -0.4586,0.4693 -0.8103,0.969 -0.9436,1.3403 -2.2679,1.9547 -4.4306,2.0553 -1.5534,0.072 -1.7287,0.042 -2.9766,-0.518 -1.5611,-0.7001 -2.6244,-1.7303 -3.3353,-3.2313 -0.8771,-1.8523 -0.5986,-5.0691 0.6388,-7.3784 0.9449,-1.7631 1.653,-2.5774 5.2529,-6.0396 3.7923,-3.6472 4.6964,-4.6739 5.4624,-6.2033 0.2547,-0.5085 0.5469,-0.9245 0.6497,-0.9245 0.1031,0 0.395,0.416 0.6497,0.9245 0.7659,1.5294 1.67,2.5561 5.4623,6.2033 1.9933,1.917 3.8799,3.8533 4.1923,4.303 1.5694,2.2585 2.172,4.0399 2.1813,6.449 0,1.3872 -0.068,1.7913 -0.4819,2.666 -0.7107,1.501 -1.7741,2.5312 -3.3354,3.2313 -1.2477,0.5598 -1.4231,0.5903 -2.9765,0.518 -2.1626,-0.1006 -3.4869,-0.7149 -4.4306,-2.0553 -0.3516,-0.4997 -0.7163,-0.9356 -0.8103,-0.9688 -0.2603,-0.093 -0.202,2.5706 0.099,4.5119 0.2765,1.7851 1.009,4.2937 1.609,5.5105 l 0.3436,0.6971 -0.9711,-0.1457 c -0.5341,-0.08 -1.2231,-0.1456 -1.5312,-0.1456 -0.308,0 -0.9971,0.065 -1.5312,0.1456 l -0.9711,0.1457 0.3436,-0.6971 z"
       style="fill:#050505" />
    <path
       inkscape:connector-curvature="0"
       id="path5480-1"
       d="m 154.39836,3204.5304 q 1.96977,6.0588 3.85745,12.2791 1.96977,6.1397 3.77538,12.9254 1.88769,6.7859 3.69331,14.3796 1.88769,7.5937 3.77538,16.3991 h -7.38661 q -0.65658,-3.6352 -1.39525,-7.1897 -0.65659,-3.5545 -1.39525,-7.109 h -17.89201 q -0.82073,3.5545 -1.47732,7.109 -0.65659,3.5545 -1.31317,7.1897 h -7.14039 q 1.80561,-8.8054 3.6933,-16.3991 1.88769,-7.5937 3.6933,-14.3796 1.88769,-6.7857 3.77538,-12.9254 1.96976,-6.2203 3.93953,-12.2791 z m -4.02159,8.2399 q -2.05184,6.7051 -3.93953,13.491 -1.88768,6.7859 -3.61123,13.8948 h 15.01944 q -1.64147,-7.1089 -3.52916,-13.8948 -1.88769,-6.7859 -3.93952,-13.491 z"
       style="font-style:normal;font-variant:normal;font-weight:normal;font-stretch:normal;font-size:medium;line-height:125%;font-family:'Ubuntu Condensed';-inkscape-font-specification:'Ubuntu Condensed, ';letter-spacing:0px;word-spacing:0px;fill:#000000;fill-opacity:1;stroke:none;stroke-width:1px;stroke-linecap:butt;stroke-linejoin:miter;stroke-opacity:1" />
    <path
       d="m 154.39836,3204.5304 q 1.96977,6.0588 3.85745,12.2791 1.96977,6.1397 3.77538,12.9254 1.88769,6.7859 3.69331,14.3796 1.88769,7.5937 3.77538,16.3991 h -7.38661 q -0.65658,-3.6352 -1.39525,-7.1897 -0.65659,-3.5545 -1.39525,-7.109 h -17.89201 q -0.82073,3.5545 -1.47732,7.109 -0.65659,3.5545 -1.31317,7.1897 h -7.14039 q 1.80561,-8.8054 3.6933,-16.3991 1.88769,-7.5937 3.6933,-14.3796 1.88769,-6.7857 3.77538,-12.9254 1.96976,-6.2203 3.93953,-12.2791 z m -4.02159,8.2399 q -2.05184,6.7051 -3.93953,13.491 -1.88768,6.7859 -3.61123,13.8948 h 15.01944 q -1.64147,-7.1089 -3.52916,-13.8948 -1.88769,-6.7859 -3.93952,-13.491 z"
       id="path5508-4"
       inkscape:connector-curvature="0"
       style="font-style:normal;font-variant:normal;font-weight:normal;font-stretch:normal;font-size:medium;line-height:125%;font-family:'Ubuntu Condensed';-inkscape-font-specification:'Ubuntu Condensed, ';letter-spacing:0px;word-spacing:0px;fill:#000000;fill-opacity:1;stroke:none;stroke-width:1px;stroke-linecap:butt;stroke-linejoin:miter;stroke-opacity:1" />
    <rect
       transform="scale(-1)"
       width="39.849594"
       height="109.81674"
       rx="3.3238332"
       ry="6.1008406"
       x="-588.1438"
       y="-3921.2412"
       id="rect142-3-6-1-0-4-0-2-1-8-9-0-6-2-31-61-6-3-6-7-1-4-5"
       style="fill:#ffffff;stroke:#000000;stroke-width:0.150385;stroke-opacity:1" />
    <path
       inkscape:connector-curvature="0"
       id="path8747-9-2-4-7-6-5-2-7-6-3-2-2-6-9-7-88"
       d="m 569.44015,3820.8352 c -0.5999,1.2169 -1.3323,3.7254 -1.6088,5.5105 -0.3008,1.9413 -0.3591,4.6042 -0.098,4.5121 0.095,-0.033 0.4586,-0.4693 0.8103,-0.969 0.9436,-1.3403 2.2679,-1.9547 4.4306,-2.0553 1.5534,-0.072 1.7287,-0.042 2.9766,0.518 1.5611,0.7001 2.6244,1.7304 3.3353,3.2313 0.8771,1.8524 0.5986,5.0691 -0.6388,7.3784 -0.9449,1.7631 -1.653,2.5774 -5.2529,6.0396 -3.7923,3.6472 -4.6964,4.6739 -5.4624,6.2034 -0.2547,0.5084 -0.5469,0.9244 -0.6497,0.9244 -0.1031,0 -0.395,-0.416 -0.6497,-0.9244 -0.7659,-1.5295 -1.67,-2.5562 -5.4623,-6.2034 -1.9933,-1.917 -3.8799,-3.8532 -4.1923,-4.303 -1.5694,-2.2584 -2.172,-4.0399 -2.1813,-6.449 0,-1.3872 0.068,-1.7912 0.4819,-2.666 0.7107,-1.5009 1.7741,-2.5312 3.3354,-3.2313 1.2477,-0.5597 1.4231,-0.5902 2.9765,-0.518 2.1626,0.1006 3.4869,0.7149 4.4306,2.0553 0.3516,0.4997 0.7163,0.9357 0.8103,0.9688 0.2603,0.093 0.202,-2.5706 -0.099,-4.5119 -0.2765,-1.7851 -1.009,-4.2936 -1.609,-5.5105 l -0.3436,-0.6971 0.9711,0.1457 c 0.5341,0.08 1.2231,0.1457 1.5312,0.1457 0.308,0 0.9971,-0.065 1.5312,-0.1457 l 0.9711,-0.1457 -0.3436,0.6971 z"
       style="fill:#050505" />
    <path
       d="m 562.60141,3916.3175 q -1.96976,-6.0588 -3.85745,-12.2791 -1.96976,-6.1397 -3.77538,-12.9255 -1.88769,-6.7859 -3.69331,-14.3796 -1.88769,-7.5936 -3.77537,-16.3991 h 7.38661 q 0.65658,3.6352 1.39525,7.1898 0.65659,3.5545 1.39524,7.1089 h 17.89201 q 0.82073,-3.5544 1.47733,-7.1089 0.65659,-3.5546 1.31317,-7.1898 h 7.14038 q -1.80561,8.8055 -3.6933,16.3991 -1.88769,7.5937 -3.6933,14.3796 -1.88769,6.7858 -3.77537,12.9255 -1.96977,6.2203 -3.93953,12.2791 z m 4.02159,-8.24 q 2.05184,-6.705 3.93953,-13.4909 1.88769,-6.7859 3.61124,-13.8949 h -15.01944 q 1.64147,7.109 3.52916,13.8949 1.88768,6.7859 3.93951,13.4909 z"
       id="path5538"
       inkscape:connector-curvature="0"
       style="font-style:normal;font-variant:normal;font-weight:normal;font-stretch:normal;font-size:medium;line-height:125%;font-family:'Ubuntu Condensed';-inkscape-font-specification:'Ubuntu Condensed, ';letter-spacing:0px;word-spacing:0px;fill:#000000;fill-opacity:1;stroke:none;stroke-width:1px;stroke-linecap:butt;stroke-linejoin:miter;stroke-opacity:1" />
  </g>
</svg>
