<?xml version="1.0" encoding="UTF-8" standalone="no"?>
<!-- Created with Inkscape (http://www.inkscape.org/) -->

<svg
   id="svg10047"
   height="122.96671"
   width="78.998962"
   version="1.1"
   viewBox="0 0 78.998962 122.96671"
   inkscape:version="0.91 r13725"
   sodipodi:docname="lombarde-ticinesi.svgz"
   xmlns:inkscape="http://www.inkscape.org/namespaces/inkscape"
   xmlns:sodipodi="http://sodipodi.sourceforge.net/DTD/sodipodi-0.dtd"
   xmlns="http://www.w3.org/2000/svg"
   xmlns:svg="http://www.w3.org/2000/svg"
   xmlns:rdf="http://www.w3.org/1999/02/22-rdf-syntax-ns#"
   xmlns:cc="http://creativecommons.org/ns#"
   xmlns:dc="http://purl.org/dc/elements/1.1/">
  <sodipodi:namedview
     pagecolor="#ffffff"
     bordercolor="#666666"
     borderopacity="1"
     objecttolerance="10"
     gridtolerance="10"
     guidetolerance="10"
     inkscape:pageopacity="0"
     inkscape:pageshadow="2"
     inkscape:window-width="1920"
     inkscape:window-height="1016"
     id="namedview1491"
     showgrid="false"
     inkscape:zoom="1.078374"
     inkscape:cx="427.42201"
     inkscape:cy="310.27924"
     inkscape:window-x="0"
     inkscape:window-y="0"
     inkscape:window-maximized="1"
     inkscape:current-layer="svg10047"
     showguides="false"
     inkscape:guide-bbox="true"
     inkscape:snap-grids="true"
     inkscape:showpageshadow="2"
     inkscape:pagecheckerboard="0"
     inkscape:deskcolor="#d1d1d1">
    <inkscape:grid
       type="xygrid"
       id="grid12910"
       originx="-237.0008"
       originy="-368.99871"
       spacingy="1"
       spacingx="1"
       units="px"
       visible="false" />
  </sodipodi:namedview>
  <metadata
     id="metadata16869">
    <rdf:RDF>
      <cc:Work
         rdf:about="">
        <dc:format>image/svg+xml</dc:format>
        <dc:type
           rdf:resource="http://purl.org/dc/dcmitype/StillImage" />
        <dc:title />
      </cc:Work>
    </rdf:RDF>
  </metadata>
  <defs
     id="defs10049" />
  <g
     transform="matrix(0.15192301,0,0,0.13369848,-288.61292,-414.50361)"
     id="spade_4"
     inkscape:label="#spade_4">
    <rect
       width="518.42499"
       height="918.16309"
       rx="43.241558"
       ry="51.008301"
       x="-2418.9407"
       y="-4019.2339"
       id="rect142-3-7-5-9-2-7-8-0-6-5-8-6-7-67"
       style="fill:#ffffff;stroke:#000000;stroke-width:1.56842"
       transform="scale(-1)" />
    <path
       style="fill:#050505"
       d="m 2055.3352,3803.4861 c -2.6876,5.4761 -5.9689,16.7641 -7.2077,24.7969 -1.3475,8.736 -1.6086,20.7192 -0.4426,20.3043 0.4211,-0.1498 2.0548,-2.1118 3.6303,-4.3601 4.2272,-6.0314 10.1601,-8.796 19.8485,-9.2488 6.9594,-0.3252 7.7449,-0.1877 13.3353,2.3305 6.9937,3.1508 11.7579,7.7872 14.9419,14.5413 3.9293,8.3356 2.6816,22.811 -2.862,33.203 -4.2325,7.934 -7.4048,11.5978 -23.5327,27.1777 -16.9894,16.4126 -21.0393,21.0326 -24.4712,27.9155 -1.1409,2.2879 -2.4503,4.1597 -2.9103,4.1597 -0.46,0 -1.7698,-1.8718 -2.9103,-4.1597 -3.432,-6.8829 -7.482,-11.5029 -24.4715,-27.9155 -8.9295,-8.6264 -17.3813,-17.3398 -18.7809,-19.363 -7.0314,-10.1628 -9.731,-18.1797 -9.7725,-29.0208 -0.024,-6.2423 0.3034,-8.0606 2.1589,-11.9969 3.1841,-6.7541 7.9481,-11.3905 14.942,-14.5413 5.5903,-2.5182 6.3757,-2.6557 13.335,-2.3305 9.6887,0.4528 15.6215,3.2173 19.8486,9.2488 1.5755,2.2482 3.2092,4.2102 3.6303,4.36 1.166,0.4149 0.9049,-11.5684 -0.4425,-20.3043 -1.239,-8.0327 -4.5202,-19.3208 -7.2078,-24.797 l -1.5395,-3.1368 4.3503,0.6557 c 2.393,0.3606 5.4797,0.6556 6.8599,0.6556 1.3799,0 4.4669,-0.295 6.8597,-0.6556 l 4.3503,-0.6557 -1.5395,3.1368 z"
       id="path8747-9-2-8-5-8-4-0-0-4-5-9-5"
       inkscape:connector-curvature="0" />
    <path
       style="fill:#050505"
       d="m 2283.3352,3803.4894 c -2.6876,5.4761 -5.9689,16.7641 -7.2077,24.7969 -1.3475,8.736 -1.6085,20.7192 -0.4426,20.3043 0.4211,-0.1498 2.0548,-2.1118 3.6304,-4.3602 4.2271,-6.0313 10.16,-8.7959 19.8484,-9.2487 6.9594,-0.3252 7.7449,-0.1877 13.3353,2.3305 6.9938,3.1508 11.758,7.7872 14.942,14.5413 3.9293,8.3356 2.6816,22.811 -2.862,33.2029 -4.2325,7.9341 -7.4048,11.5979 -23.5328,27.1778 -16.9894,16.4126 -21.0393,21.0326 -24.4712,27.9154 -1.1409,2.288 -2.4503,4.1598 -2.9103,4.1598 -0.46,0 -1.7698,-1.8718 -2.9103,-4.1598 -3.432,-6.8828 -7.482,-11.5028 -24.4715,-27.9154 -8.9295,-8.6264 -17.3813,-17.3398 -18.7809,-19.363 -7.0314,-10.1628 -9.731,-18.1797 -9.7725,-29.0209 -0.024,-6.2422 0.3034,-8.0605 2.1589,-11.9968 3.1842,-6.7541 7.9481,-11.3905 14.9421,-14.5413 5.5902,-2.5182 6.3757,-2.6557 13.335,-2.3305 9.6886,0.4528 15.6214,3.2173 19.8485,9.2487 1.5755,2.2483 3.2092,4.2103 3.6303,4.3601 1.166,0.4148 0.905,-11.5684 -0.4425,-20.3043 -1.239,-8.0327 -4.5202,-19.3208 -7.2078,-24.797 l -1.5395,-3.1368 4.3503,0.6557 c 2.393,0.3606 5.4797,0.6556 6.8599,0.6556 1.3799,0 4.4669,-0.295 6.8597,-0.6556 l 4.3503,-0.6557 -1.5395,3.1368 z"
       id="path8747-9-2-8-5-8-4-0-0-3-3-2-6"
       inkscape:connector-curvature="0" />
    <path
       style="fill:#050505"
       d="m 2036.1214,3317.0875 c 2.6875,-5.4759 5.9688,-16.7642 7.2075,-24.7968 1.3475,-8.7361 1.6087,-20.7192 0.4427,-20.3044 -0.4211,0.15 -2.0547,2.1119 -3.6303,4.3601 -4.2271,6.0315 -10.1599,8.7961 -19.8486,9.2488 -6.9594,0.3252 -7.7448,0.1879 -13.3351,-2.3305 -6.9937,-3.1507 -11.7578,-7.7871 -14.9419,-14.5411 -3.9295,-8.3356 -2.6815,-22.8112 2.8619,-33.2031 4.2325,-7.934 7.4049,-11.5978 23.5326,-27.1779 16.9896,-16.4125 21.0393,-21.0324 24.4715,-27.9153 1.1407,-2.2879 2.45,-4.1598 2.9102,-4.1598 0.4601,0 1.7696,1.8719 2.9104,4.1598 3.4319,6.8829 7.4819,11.5028 24.4712,27.9153 8.9298,8.6265 17.3815,17.34 18.7812,19.3633 7.0314,10.1626 9.7309,18.1795 9.7724,29.0207 0.024,6.2422 -0.3035,8.0606 -2.1589,11.997 -3.184,6.754 -7.9481,11.3904 -14.9422,14.5411 -5.5901,2.5184 -6.3756,2.6557 -13.335,2.3305 -9.6884,-0.4527 -15.6213,-3.2172 -19.8485,-9.2488 -1.5754,-2.2481 -3.2092,-4.21 -3.6303,-4.36 -1.166,-0.4148 -0.905,11.5683 0.4425,20.3044 1.239,8.0325 4.5202,19.3209 7.208,24.7968 l 1.5393,3.1369 -4.3503,-0.6556 c -2.3929,-0.3607 -5.4797,-0.6556 -6.8598,-0.6556 -1.38,0 -4.4669,0.2949 -6.8598,0.6556 l -4.3503,0.6556 1.5396,-3.1369 z"
       id="path8747-9-2-4-7-6-5-2-7-6-5-2-3"
       inkscape:connector-curvature="0" />
    <path
       inkscape:connector-curvature="0"
       id="path8747-9-2-4-7-6-5-2-7-7-6-8-9"
       d="m 2264.1214,3317.0875 c 2.6875,-5.4759 5.9689,-16.7642 7.2075,-24.7968 1.3475,-8.7361 1.6087,-20.7192 0.4427,-20.3044 -0.4211,0.15 -2.0547,2.1119 -3.6303,4.3601 -4.2271,6.0315 -10.1599,8.7961 -19.8485,9.2488 -6.9595,0.3252 -7.7449,0.1879 -13.3352,-2.3305 -6.9937,-3.1507 -11.7577,-7.7871 -14.9419,-14.5411 -3.9295,-8.3356 -2.6815,-22.8112 2.8619,-33.2031 4.2325,-7.934 7.4049,-11.5978 23.5326,-27.1779 16.9896,-16.4125 21.0394,-21.0324 24.4715,-27.9153 1.1407,-2.2879 2.4501,-4.1598 2.9102,-4.1598 0.4601,0 1.7696,1.8719 2.9104,4.1598 3.4319,6.8829 7.4819,11.5028 24.4712,27.9153 8.9298,8.6265 17.3816,17.34 18.7813,19.3633 7.0314,10.1626 9.7309,18.1795 9.7724,29.0207 0.024,6.2422 -0.3035,8.0606 -2.1589,11.997 -3.184,6.754 -7.9481,11.3904 -14.9423,14.5411 -5.5901,2.5184 -6.3756,2.6557 -13.335,2.3305 -9.6884,-0.4527 -15.6213,-3.2172 -19.8484,-9.2488 -1.5755,-2.2481 -3.2093,-4.21 -3.6304,-4.36 -1.1659,-0.4148 -0.905,11.5683 0.4425,20.3044 1.2391,8.0325 4.5202,19.3209 7.208,24.7968 l 1.5393,3.1369 -4.3503,-0.6556 c -2.3929,-0.3607 -5.4797,-0.6556 -6.8598,-0.6556 -1.38,0 -4.4669,0.2949 -6.8598,0.6556 l -4.3503,0.6556 1.5396,-3.1369 z"
       style="fill:#050505" />
    <rect
       style="fill:none;fill-opacity:1;stroke:#000000;stroke-width:3.99559;stroke-miterlimit:4;stroke-dasharray:none"
       id="rect5402"
       y="3152.2844"
       x="1949.9983"
       ry="45.444023"
       rx="34.865524"
       height="818.00439"
       width="418.00439" />
    <rect
       style="fill:#ffffff;stroke:#000000;stroke-width:0.150385;stroke-opacity:1"
       id="rect142-3-6-1-0-4-0-2-1-8-9-0-6-2-3-2-9-7-3-9-90"
       y="3195.3403"
       x="1930.254"
       ry="6.1008406"
       rx="3.3238332"
       height="109.81674"
       width="39.849594" />
    <path
       style="fill:#050505"
       d="m 1948.1884,3299.5367 c 0.5999,-1.2169 1.3323,-3.7254 1.6088,-5.5105 0.3008,-1.9413 0.3591,-4.6042 0.098,-4.5121 -0.095,0.033 -0.4586,0.4693 -0.8103,0.969 -0.9436,1.3403 -2.2679,1.9547 -4.4306,2.0553 -1.5534,0.072 -1.7287,0.042 -2.9766,-0.518 -1.5611,-0.7001 -2.6244,-1.7304 -3.3353,-3.2313 -0.8771,-1.8524 -0.5986,-5.0691 0.6388,-7.3784 0.9449,-1.7631 1.653,-2.5774 5.2529,-6.0396 3.7923,-3.6472 4.6964,-4.6739 5.4624,-6.2033 0.2547,-0.5085 0.5469,-0.9245 0.6497,-0.9245 0.1031,0 0.395,0.416 0.6497,0.9245 0.7659,1.5294 1.67,2.5561 5.4623,6.2033 1.9933,1.917 3.8799,3.8532 4.1923,4.303 1.5694,2.2584 2.172,4.0399 2.1813,6.449 0,1.3872 -0.068,1.7912 -0.4819,2.666 -0.7107,1.5009 -1.7741,2.5312 -3.3354,3.2313 -1.2477,0.5597 -1.4231,0.5902 -2.9765,0.518 -2.1626,-0.1006 -3.4869,-0.7149 -4.4306,-2.0553 -0.3516,-0.4997 -0.7163,-0.9356 -0.8103,-0.9688 -0.2603,-0.093 -0.202,2.5706 0.099,4.5119 0.2765,1.7851 1.009,4.2936 1.609,5.5105 l 0.3436,0.6971 -0.9711,-0.1457 c -0.5341,-0.08 -1.2231,-0.1457 -1.5312,-0.1457 -0.308,0 -0.9971,0.065 -1.5312,0.1457 l -0.9711,0.1457 0.3436,-0.6971 z"
       id="path8747-9-2-4-7-6-5-2-7-6-3-20-3-1"
       inkscape:connector-curvature="0" />
    <path
       style="font-style:normal;font-variant:normal;font-weight:normal;font-stretch:normal;font-size:medium;line-height:125%;font-family:'Ubuntu Condensed';-inkscape-font-specification:'Ubuntu Condensed, ';letter-spacing:0px;word-spacing:0px;fill:#000000;fill-opacity:1;stroke:none;stroke-width:1px;stroke-linecap:butt;stroke-linejoin:miter;stroke-opacity:1"
       inkscape:connector-curvature="0"
       id="path5472-8"
       d="m 1936.4999,3241.7717 q 1.3922,-5.0086 3.558,-10.5826 2.1657,-5.5741 4.4861,-10.7443 2.3205,-5.1701 4.4089,-9.3709 2.1657,-4.2008 3.4806,-6.5435 h 6.8066 v 36.5951 h 5.2598 v 5.7356 h -5.2598 v 13.6525 h -6.1104 v -13.6525 h -16.6298 z m 16.6298,-0.6462 v -27.305 q -1.1602,2.5044 -2.7072,5.7357 -1.4696,3.2313 -3.0166,6.8666 -1.4696,3.6354 -2.8619,7.4321 -1.3923,3.7161 -2.3977,7.2706 z" />
    <path
       d="m 1936.4999,3241.7717 q 1.3922,-5.0086 3.558,-10.5826 2.1657,-5.5741 4.4861,-10.7443 2.3205,-5.1701 4.4089,-9.3709 2.1657,-4.2008 3.4806,-6.5435 h 6.8066 v 36.5951 h 5.2598 v 5.7356 h -5.2598 v 13.6525 h -6.1104 v -13.6525 h -16.6298 z m 16.6298,-0.6462 v -27.305 q -1.1602,2.5044 -2.7072,5.7357 -1.4696,3.2313 -3.0166,6.8666 -1.4696,3.6354 -2.8619,7.4321 -1.3923,3.7161 -2.3977,7.2706 z"
       id="path5500-6"
       inkscape:connector-curvature="0"
       style="font-style:normal;font-variant:normal;font-weight:normal;font-stretch:normal;font-size:medium;line-height:125%;font-family:'Ubuntu Condensed';-inkscape-font-specification:'Ubuntu Condensed, ';letter-spacing:0px;word-spacing:0px;fill:#000000;fill-opacity:1;stroke:none;stroke-width:1px;stroke-linecap:butt;stroke-linejoin:miter;stroke-opacity:1" />
    <rect
       style="fill:#ffffff;stroke:#000000;stroke-width:0.150385;stroke-opacity:1"
       id="rect142-3-6-1-0-4-0-2-1-8-9-0-6-2-31-61-6-3-6-7-96"
       y="-3924.9714"
       x="-2386.8752"
       ry="6.1008406"
       rx="3.3238332"
       height="109.81674"
       width="39.849594"
       transform="scale(-1)" />
    <path
       style="fill:#050505"
       d="m 2369.1718,3820.5669 c -0.5999,1.2169 -1.3323,3.7254 -1.6088,5.5105 -0.3008,1.9413 -0.3591,4.6042 -0.098,4.5121 0.095,-0.033 0.4586,-0.4693 0.8103,-0.969 0.9436,-1.3403 2.2679,-1.9547 4.4306,-2.0553 1.5534,-0.072 1.7287,-0.042 2.9766,0.518 1.5611,0.7001 2.6244,1.7304 3.3353,3.2313 0.8771,1.8524 0.5986,5.0691 -0.6388,7.3784 -0.9449,1.7631 -1.653,2.5774 -5.2529,6.0396 -3.7923,3.6472 -4.6964,4.6739 -5.4624,6.2033 -0.2547,0.5085 -0.5469,0.9245 -0.6497,0.9245 -0.1031,0 -0.395,-0.416 -0.6497,-0.9245 -0.7659,-1.5294 -1.67,-2.5561 -5.4623,-6.2033 -1.9933,-1.917 -3.8799,-3.8533 -4.1923,-4.303 -1.5694,-2.2584 -2.172,-4.0399 -2.1813,-6.449 0,-1.3872 0.068,-1.7913 0.4819,-2.666 0.7107,-1.5009 1.7741,-2.5312 3.3354,-3.2313 1.2477,-0.5598 1.4231,-0.5903 2.9765,-0.518 2.1626,0.1006 3.4869,0.7149 4.4306,2.0553 0.3516,0.4997 0.7163,0.9356 0.8103,0.9688 0.2603,0.093 0.202,-2.5706 -0.099,-4.5119 -0.2765,-1.7851 -1.009,-4.2936 -1.609,-5.5105 l -0.3436,-0.6971 0.9711,0.1457 c 0.5341,0.08 1.2231,0.1456 1.5312,0.1456 0.308,0 0.9971,-0.065 1.5312,-0.1456 l 0.9711,-0.1457 -0.3436,0.6971 z"
       id="path8747-9-2-4-7-6-5-2-7-6-3-2-2-6-1"
       inkscape:connector-curvature="0" />
    <path
       d="m 2380.5,3879.0761 q -1.3922,5.0086 -3.558,10.5827 -2.1657,5.5741 -4.4861,10.7442 -2.3205,5.1702 -4.4089,9.3709 -2.1657,4.2009 -3.4806,6.5436 h -6.8066 v -36.5952 H 2352.5 v -5.7356 h 5.2598 v -13.6525 h 6.1104 v 13.6525 H 2380.5 Z m -16.6298,0.6462 v 27.3051 q 1.1602,-2.5044 2.7072,-5.7357 1.4696,-3.2314 3.0166,-6.8667 1.4696,-3.6353 2.8619,-7.432 1.3923,-3.7161 2.3977,-7.2707 z"
       id="path5530-8"
       inkscape:connector-curvature="0"
       style="font-style:normal;font-variant:normal;font-weight:normal;font-stretch:normal;font-size:medium;line-height:125%;font-family:'Ubuntu Condensed';-inkscape-font-specification:'Ubuntu Condensed, ';letter-spacing:0px;word-spacing:0px;fill:#000000;fill-opacity:1;stroke:none;stroke-width:1px;stroke-linecap:butt;stroke-linejoin:miter;stroke-opacity:1" />
  </g>
</svg>
