<?xml version="1.0" encoding="UTF-8" standalone="no"?>
<!-- Created with Inkscape (http://www.inkscape.org/) -->

<svg
   id="svg10047"
   height="122.96671"
   width="78.998962"
   version="1.1"
   viewBox="0 0 78.998962 122.96671"
   inkscape:version="0.91 r13725"
   sodipodi:docname="lombarde-ticinesi.svgz"
   xmlns:inkscape="http://www.inkscape.org/namespaces/inkscape"
   xmlns:sodipodi="http://sodipodi.sourceforge.net/DTD/sodipodi-0.dtd"
   xmlns="http://www.w3.org/2000/svg"
   xmlns:svg="http://www.w3.org/2000/svg"
   xmlns:rdf="http://www.w3.org/1999/02/22-rdf-syntax-ns#"
   xmlns:cc="http://creativecommons.org/ns#"
   xmlns:dc="http://purl.org/dc/elements/1.1/">
  <sodipodi:namedview
     pagecolor="#ffffff"
     bordercolor="#666666"
     borderopacity="1"
     objecttolerance="10"
     gridtolerance="10"
     guidetolerance="10"
     inkscape:pageopacity="0"
     inkscape:pageshadow="2"
     inkscape:window-width="1920"
     inkscape:window-height="1016"
     id="namedview1491"
     showgrid="false"
     inkscape:zoom="1.078374"
     inkscape:cx="427.42201"
     inkscape:cy="310.27924"
     inkscape:window-x="0"
     inkscape:window-y="0"
     inkscape:window-maximized="1"
     inkscape:current-layer="svg10047"
     showguides="false"
     inkscape:guide-bbox="true"
     inkscape:snap-grids="true"
     inkscape:showpageshadow="2"
     inkscape:pagecheckerboard="0"
     inkscape:deskcolor="#d1d1d1">
    <inkscape:grid
       type="xygrid"
       id="grid12910"
       originx="-79.001254"
       originy="-369.03458"
       spacingy="1"
       spacingx="1"
       units="px"
       visible="false" />
  </sodipodi:namedview>
  <metadata
     id="metadata16869">
    <rdf:RDF>
      <cc:Work
         rdf:about="">
        <dc:format>image/svg+xml</dc:format>
        <dc:type
           rdf:resource="http://purl.org/dc/dcmitype/StillImage" />
        <dc:title />
      </cc:Work>
    </rdf:RDF>
  </metadata>
  <defs
     id="defs10049" />
  <g
     transform="matrix(0.15192301,0,0,0.13369848,-106.34661,-414.53948)"
     id="spade_2"
     inkscape:label="#spade_2">
    <rect
       width="518.42499"
       height="918.16309"
       rx="43.241558"
       ry="51.008301"
       x="-1219.2125"
       y="-4019.5022"
       id="rect142-3-7-5-9-2-7-8-0-6-5-8-6-7-7-8-3"
       style="fill:#ffffff;stroke:#000000;stroke-width:1.56842"
       transform="scale(-1)" />
    <path
       style="fill:#000000"
       d="m 969.60691,3803.4894 c -2.6876,5.4761 -5.9689,16.7641 -7.2077,24.7969 -1.3475,8.736 -1.6085,20.7192 -0.4426,20.3043 0.4211,-0.1498 2.0548,-2.1118 3.6304,-4.3602 4.2271,-6.0313 10.16,-8.7959 19.8484,-9.2487 6.9594,-0.3252 7.7449,-0.1877 13.3353,2.3305 6.99359,3.1508 11.75779,7.7872 14.94179,14.5413 3.9293,8.3356 2.6816,22.811 -2.862,33.2029 -4.2325,7.9341 -7.4048,11.5979 -23.53259,27.1778 -16.9894,16.4126 -21.0393,21.0326 -24.4712,27.9154 -1.1409,2.288 -2.4503,4.1598 -2.9103,4.1598 -0.46,0 -1.7698,-1.8718 -2.9103,-4.1598 -3.432,-6.8828 -7.482,-11.5028 -24.4715,-27.9154 -8.9295,-8.6264 -17.3813,-17.3398 -18.7809,-19.363 -7.0314,-10.1628 -9.731,-18.1797 -9.7725,-29.0209 -0.024,-6.2422 0.3034,-8.0605 2.1589,-11.9968 3.1842,-6.7541 7.9481,-11.3905 14.9421,-14.5413 5.5902,-2.5182 6.3757,-2.6557 13.335,-2.3305 9.6886,0.4528 15.6214,3.2173 19.8485,9.2487 1.5755,2.2483 3.2092,4.2103 3.6303,4.3601 1.166,0.4148 0.905,-11.5684 -0.4425,-20.3043 -1.239,-8.0327 -4.5202,-19.3208 -7.2078,-24.797 l -1.5395,-3.1368 4.3503,0.6557 c 2.393,0.3606 5.4797,0.6556 6.8599,0.6556 1.3799,0 4.4669,-0.295 6.8597,-0.6556 l 4.3503,-0.6557 -1.5395,3.1368 z"
       id="path8747-9-2-8-5-8-4-0-0-3-3-2-7-1-7"
       inkscape:connector-curvature="0" />
    <path
       inkscape:connector-curvature="0"
       id="path8747-9-2-4-7-6-5-2-7-7-6-8-2-3-5"
       d="m 950.39311,3317.3558 c 2.6875,-5.4759 5.9689,-16.7641 7.2075,-24.7967 1.3475,-8.7361 1.6087,-20.7192 0.4427,-20.3045 -0.4211,0.15 -2.0547,2.1119 -3.6303,4.3601 -4.2271,6.0315 -10.1599,8.7961 -19.8485,9.2489 -6.9595,0.3252 -7.7449,0.1878 -13.3352,-2.3305 -6.9937,-3.1508 -11.7577,-7.7872 -14.9419,-14.5412 -3.9295,-8.3356 -2.6815,-22.8112 2.8619,-33.2031 4.2325,-7.934 7.4049,-11.5978 23.5326,-27.1778 16.9896,-16.4126 21.0394,-21.0324 24.4715,-27.9154 1.1407,-2.2879 2.4501,-4.1597 2.9102,-4.1597 0.4601,0 1.7696,1.8718 2.9104,4.1597 3.4319,6.883 7.4819,11.5028 24.4712,27.9154 8.9298,8.6264 17.38139,17.3399 18.78109,19.3632 7.0314,10.1626 9.7309,18.1795 9.7724,29.0207 0.024,6.2422 -0.3035,8.0606 -2.1589,11.997 -3.184,6.754 -7.9481,11.3904 -14.94209,14.5412 -5.5901,2.5183 -6.3756,2.6557 -13.335,2.3305 -9.6884,-0.4528 -15.6213,-3.2173 -19.8484,-9.2489 -1.5755,-2.2481 -3.2093,-4.21 -3.6304,-4.36 -1.1659,-0.4147 -0.905,11.5684 0.4425,20.3045 1.2391,8.0325 4.5202,19.3208 7.208,24.7967 l 1.5393,3.1369 -4.3503,-0.6556 c -2.3929,-0.3607 -5.4797,-0.6556 -6.8598,-0.6556 -1.38,0 -4.4669,0.2949 -6.8598,0.6556 l -4.3503,0.6556 1.5396,-3.1369 z"
       style="fill:#000000" />
    <rect
       width="418.00439"
       height="818.00439"
       rx="34.865524"
       ry="45.444023"
       x="749.9978"
       y="3152.2844"
       id="rect5398"
       style="fill:none;fill-opacity:1;stroke:#000000;stroke-width:3.99559;stroke-miterlimit:4;stroke-dasharray:none" />
    <rect
       style="fill:#ffffff;stroke:#000000;stroke-width:0.150385;stroke-opacity:1"
       id="rect142-3-6-1-0-4-0-2-1-8-9-0-6-2-3-2-9-7-3-9-1-4-2"
       y="3195.6089"
       x="730.52563"
       ry="6.1008406"
       rx="3.3238332"
       height="109.81674"
       width="39.849594" />
    <path
       style="fill:#050505"
       d="m 748.46005,3299.805 c 0.5999,-1.2168 1.3323,-3.7254 1.6088,-5.5105 0.3008,-1.9413 0.3591,-4.6042 0.098,-4.5121 -0.095,0.033 -0.4586,0.4693 -0.8103,0.969 -0.9436,1.3403 -2.2679,1.9547 -4.4306,2.0553 -1.5534,0.072 -1.7287,0.042 -2.9766,-0.518 -1.5611,-0.7001 -2.6244,-1.7303 -3.3353,-3.2313 -0.8771,-1.8523 -0.5986,-5.0691 0.6388,-7.3784 0.9449,-1.7631 1.653,-2.5774 5.2529,-6.0396 3.7923,-3.6472 4.6964,-4.6739 5.4624,-6.2033 0.2547,-0.5085 0.5469,-0.9245 0.6497,-0.9245 0.1031,0 0.395,0.416 0.6497,0.9245 0.7659,1.5294 1.67,2.5561 5.4623,6.2033 1.9933,1.917 3.8799,3.8533 4.1923,4.303 1.5694,2.2585 2.172,4.0399 2.1813,6.449 0,1.3872 -0.068,1.7913 -0.4819,2.666 -0.7107,1.501 -1.7741,2.5312 -3.3354,3.2313 -1.2477,0.5598 -1.4231,0.5903 -2.9765,0.518 -2.1626,-0.1006 -3.4869,-0.7149 -4.4306,-2.0553 -0.3516,-0.4997 -0.7163,-0.9356 -0.8103,-0.9688 -0.2603,-0.093 -0.202,2.5706 0.099,4.5119 0.2765,1.7851 1.009,4.2937 1.609,5.5105 l 0.3436,0.6971 -0.9711,-0.1457 c -0.5341,-0.08 -1.2231,-0.1456 -1.5312,-0.1456 -0.308,0 -0.9971,0.065 -1.5312,0.1456 l -0.9711,0.1457 0.3436,-0.6971 z"
       id="path8747-9-2-4-7-6-5-2-7-6-3-20-3-5-4-7"
       inkscape:connector-curvature="0" />
    <path
       style="font-style:normal;font-variant:normal;font-weight:normal;font-stretch:normal;font-size:medium;line-height:125%;font-family:'Ubuntu Condensed';-inkscape-font-specification:'Ubuntu Condensed, ';letter-spacing:0px;word-spacing:0px;fill:#000000;fill-opacity:1;stroke:none;stroke-width:1px;stroke-linecap:butt;stroke-linejoin:miter;stroke-opacity:1"
       inkscape:connector-curvature="0"
       id="path5476-3"
       d="m 737.44214,3209.1891 q 4.72,-4.6587 11.52,-4.6587 6.48,0 9.91999,3.3954 3.44001,3.3163 3.44001,10.4228 0,3.3164 -1.12,6.3169 -1.12,3.0005 -2.8,5.843 -1.68,2.7637 -3.68,5.5273 -2.00001,2.7636 -3.84,5.6852 -1.84,2.8426 -3.2,6.001 -1.36001,3.0794 -1.68,6.6327 h 17.44 v 6.1589 h -24.8 v -1.5002 q 0,-5.2903 1.19999,-9.3963 1.28,-4.106 3.04001,-7.4224 1.84,-3.3163 4,-6.1589 2.16,-2.8426 3.92,-5.5273 1.83999,-2.7636 3.03999,-5.6062 1.28,-2.9215 1.28,-6.3958 0,-4.1849 -1.67999,-6.0011 -1.68,-1.895 -5.04,-1.895 -2.32001,0 -4.24,0.9475 -1.84001,0.8686 -3.36,2.2899 z" />
    <path
       d="m 737.44214,3209.1891 q 4.72,-4.6587 11.52,-4.6587 6.48,0 9.91999,3.3954 3.44001,3.3163 3.44001,10.4228 0,3.3164 -1.12,6.3169 -1.12,3.0005 -2.8,5.843 -1.68,2.7637 -3.68,5.5273 -2.00001,2.7636 -3.84,5.6852 -1.84,2.8426 -3.2,6.001 -1.36001,3.0794 -1.68,6.6327 h 17.44 v 6.1589 h -24.8 v -1.5002 q 0,-5.2903 1.19999,-9.3963 1.28,-4.106 3.04001,-7.4224 1.84,-3.3163 4,-6.1589 2.16,-2.8426 3.92,-5.5273 1.83999,-2.7636 3.03999,-5.6062 1.28,-2.9215 1.28,-6.3958 0,-4.1849 -1.67999,-6.0011 -1.68,-1.895 -5.04,-1.895 -2.32001,0 -4.24,0.9475 -1.84001,0.8686 -3.36,2.2899 z"
       id="path5504"
       inkscape:connector-curvature="0"
       style="font-style:normal;font-variant:normal;font-weight:normal;font-stretch:normal;font-size:medium;line-height:125%;font-family:'Ubuntu Condensed';-inkscape-font-specification:'Ubuntu Condensed, ';letter-spacing:0px;word-spacing:0px;fill:#000000;fill-opacity:1;stroke:none;stroke-width:1px;stroke-linecap:butt;stroke-linejoin:miter;stroke-opacity:1" />
    <rect
       style="fill:#ffffff;stroke:#000000;stroke-width:0.150385;stroke-opacity:1"
       id="rect142-3-6-1-0-4-0-2-1-8-9-0-6-2-31-61-6-3-6-7-1-4-1"
       y="-3920.2415"
       x="-1187.1471"
       ry="6.1008406"
       rx="3.3238332"
       height="109.81674"
       width="39.849594"
       transform="scale(-1)" />
    <path
       style="fill:#050505"
       d="m 1169.4433,3820.8352 c -0.5999,1.2169 -1.3323,3.7254 -1.6088,5.5105 -0.3008,1.9413 -0.3591,4.6042 -0.098,4.5121 0.095,-0.033 0.4586,-0.4693 0.8103,-0.969 0.9436,-1.3403 2.2679,-1.9547 4.4306,-2.0553 1.5534,-0.072 1.7287,-0.042 2.9766,0.518 1.5611,0.7001 2.6244,1.7304 3.3353,3.2313 0.8771,1.8524 0.5986,5.0691 -0.6388,7.3784 -0.9449,1.7631 -1.653,2.5774 -5.2529,6.0396 -3.7923,3.6472 -4.6964,4.6739 -5.4624,6.2034 -0.2547,0.5084 -0.5469,0.9244 -0.6497,0.9244 -0.1031,0 -0.395,-0.416 -0.6497,-0.9244 -0.7659,-1.5295 -1.67,-2.5562 -5.4623,-6.2034 -1.9933,-1.917 -3.8799,-3.8532 -4.1923,-4.303 -1.5694,-2.2584 -2.172,-4.0399 -2.1813,-6.449 0,-1.3872 0.068,-1.7912 0.4819,-2.666 0.7107,-1.5009 1.7741,-2.5312 3.3354,-3.2313 1.2477,-0.5597 1.4231,-0.5902 2.9765,-0.518 2.1626,0.1006 3.4869,0.7149 4.4306,2.0553 0.3516,0.4997 0.7163,0.9357 0.8103,0.9688 0.2603,0.093 0.202,-2.5706 -0.099,-4.5119 -0.2765,-1.7851 -1.009,-4.2936 -1.609,-5.5105 l -0.3436,-0.6971 0.9711,0.1457 c 0.5341,0.08 1.2231,0.1457 1.5312,0.1457 0.308,0 0.9971,-0.065 1.5312,-0.1457 l 0.9711,-0.1457 -0.3436,0.6971 z"
       id="path8747-9-2-4-7-6-5-2-7-6-3-2-2-6-9-7-8"
       inkscape:connector-curvature="0" />
    <path
       d="m 1179.4421,3911.6588 q -4.72,4.6587 -11.52,4.6587 -6.48,0 -9.92,-3.3954 -3.44,-3.3163 -3.44,-10.4228 0,-3.3164 1.12,-6.3169 1.12,-3.0005 2.8,-5.843 1.68,-2.7637 3.68,-5.5273 2,-2.7637 3.84,-5.6852 1.84,-2.8426 3.2,-6.001 1.36,-3.0795 1.68,-6.6327 h -17.44 v -6.159 h 24.8 v 1.5003 q 0,5.2903 -1.2,9.3963 -1.28,4.1059 -3.04,7.4223 -1.84,3.3164 -4,6.159 -2.16,2.8426 -3.92,5.5273 -1.84,2.7635 -3.04,5.6062 -1.28,2.9215 -1.28,6.3958 0,4.1849 1.68,6.0011 1.68,1.895 5.04,1.895 2.32,0 4.24,-0.9475 1.84,-0.8687 3.36,-2.2899 z"
       id="path5534"
       inkscape:connector-curvature="0"
       style="font-style:normal;font-variant:normal;font-weight:normal;font-stretch:normal;font-size:medium;line-height:125%;font-family:'Ubuntu Condensed';-inkscape-font-specification:'Ubuntu Condensed, ';letter-spacing:0px;word-spacing:0px;fill:#000000;fill-opacity:1;stroke:none;stroke-width:1px;stroke-linecap:butt;stroke-linejoin:miter;stroke-opacity:1" />
  </g>
</svg>
