<?xml version="1.0" encoding="UTF-8" standalone="no"?>
<!-- Created with Inkscape (http://www.inkscape.org/) -->

<svg
   id="svg10047"
   height="122.96671"
   width="78.998962"
   version="1.1"
   viewBox="0 0 78.998962 122.96671"
   inkscape:version="0.91 r13725"
   sodipodi:docname="lombarde-ticinesi.svgz"
   xmlns:inkscape="http://www.inkscape.org/namespaces/inkscape"
   xmlns:sodipodi="http://sodipodi.sourceforge.net/DTD/sodipodi-0.dtd"
   xmlns="http://www.w3.org/2000/svg"
   xmlns:svg="http://www.w3.org/2000/svg"
   xmlns:rdf="http://www.w3.org/1999/02/22-rdf-syntax-ns#"
   xmlns:cc="http://creativecommons.org/ns#"
   xmlns:dc="http://purl.org/dc/elements/1.1/">
  <sodipodi:namedview
     pagecolor="#ffffff"
     bordercolor="#666666"
     borderopacity="1"
     objecttolerance="10"
     gridtolerance="10"
     guidetolerance="10"
     inkscape:pageopacity="0"
     inkscape:pageshadow="2"
     inkscape:window-width="1920"
     inkscape:window-height="1016"
     id="namedview1491"
     showgrid="false"
     inkscape:zoom="1.078374"
     inkscape:cx="427.42201"
     inkscape:cy="310.27924"
     inkscape:window-x="0"
     inkscape:window-y="0"
     inkscape:window-maximized="1"
     inkscape:current-layer="svg10047"
     showguides="false"
     inkscape:guide-bbox="true"
     inkscape:snap-grids="true"
     inkscape:showpageshadow="2"
     inkscape:pagecheckerboard="0"
     inkscape:deskcolor="#d1d1d1">
    <inkscape:grid
       type="xygrid"
       id="grid12910"
       originx="-158.00103"
       originy="-369.03458"
       spacingy="1"
       spacingx="1"
       units="px"
       visible="false" />
  </sodipodi:namedview>
  <metadata
     id="metadata16869">
    <rdf:RDF>
      <cc:Work
         rdf:about="">
        <dc:format>image/svg+xml</dc:format>
        <dc:type
           rdf:resource="http://purl.org/dc/dcmitype/StillImage" />
        <dc:title />
      </cc:Work>
    </rdf:RDF>
  </metadata>
  <defs
     id="defs10049" />
  <g
     transform="matrix(0.15192301,0,0,0.13369848,-197.5004,-414.53948)"
     id="spade_3"
     inkscape:label="#spade_3">
    <rect
       width="518.42499"
       height="918.16309"
       rx="43.241558"
       ry="51.008301"
       x="-1819.2124"
       y="-4019.5022"
       id="rect142-3-7-5-9-2-7-8-0-6-5-8-6-7-7-8"
       style="fill:#ffffff;stroke:#000000;stroke-width:1.56842"
       transform="scale(-1)" />
    <path
       style="fill:#050505"
       d="m 1569.6068,3803.4894 c -2.6876,5.4761 -5.9689,16.7641 -7.2077,24.7969 -1.3475,8.736 -1.6085,20.7192 -0.4426,20.3043 0.4211,-0.1498 2.0548,-2.1118 3.6304,-4.3602 4.2271,-6.0313 10.16,-8.7959 19.8484,-9.2487 6.9594,-0.3252 7.7449,-0.1877 13.3353,2.3305 6.9937,3.1508 11.7579,7.7872 14.9419,14.5413 3.9293,8.3356 2.6816,22.811 -2.862,33.2029 -4.2325,7.9341 -7.4048,11.5979 -23.5327,27.1778 -16.9894,16.4126 -21.0393,21.0326 -24.4712,27.9154 -1.1409,2.288 -2.4503,4.1598 -2.9103,4.1598 -0.46,0 -1.7698,-1.8718 -2.9103,-4.1598 -3.432,-6.8828 -7.482,-11.5028 -24.4715,-27.9154 -8.9295,-8.6264 -17.3813,-17.3398 -18.7809,-19.363 -7.0314,-10.1628 -9.731,-18.1797 -9.7725,-29.0209 -0.024,-6.2422 0.3034,-8.0605 2.1589,-11.9968 3.1842,-6.7541 7.9481,-11.3905 14.9421,-14.5413 5.5902,-2.5182 6.3757,-2.6557 13.335,-2.3305 9.6886,0.4528 15.6214,3.2173 19.8485,9.2487 1.5755,2.2483 3.2092,4.2103 3.6303,4.3601 1.166,0.4148 0.905,-11.5684 -0.4425,-20.3043 -1.239,-8.0327 -4.5202,-19.3208 -7.2078,-24.797 l -1.5395,-3.1368 4.3503,0.6557 c 2.393,0.3606 5.4797,0.6556 6.8599,0.6556 1.3799,0 4.4669,-0.295 6.8597,-0.6556 l 4.3503,-0.6557 -1.5395,3.1368 z"
       id="path8747-9-2-8-5-8-4-0-0-3-3-2-7-1"
       inkscape:connector-curvature="0" />
    <path
       inkscape:connector-curvature="0"
       id="path8747-9-2-4-7-6-5-2-7-7-6-8-2-3"
       d="m 1550.393,3317.3558 c 2.6875,-5.4759 5.9689,-16.7641 7.2075,-24.7967 1.3475,-8.7361 1.6087,-20.7192 0.4427,-20.3045 -0.4211,0.15 -2.0547,2.1119 -3.6303,4.3601 -4.2271,6.0315 -10.1599,8.7961 -19.8485,9.2489 -6.9595,0.3252 -7.7449,0.1878 -13.3352,-2.3305 -6.9937,-3.1508 -11.7577,-7.7872 -14.9419,-14.5412 -3.9295,-8.3356 -2.6815,-22.8112 2.8619,-33.2031 4.2325,-7.934 7.4049,-11.5978 23.5326,-27.1778 16.9896,-16.4126 21.0394,-21.0324 24.4715,-27.9154 1.1407,-2.2879 2.4501,-4.1597 2.9102,-4.1597 0.4601,0 1.7696,1.8718 2.9104,4.1597 3.4319,6.883 7.4819,11.5028 24.4712,27.9154 8.9298,8.6264 17.3815,17.3399 18.7812,19.3632 7.0314,10.1626 9.7309,18.1795 9.7724,29.0207 0.024,6.2422 -0.3035,8.0606 -2.1589,11.997 -3.184,6.754 -7.9481,11.3904 -14.9422,14.5412 -5.5901,2.5183 -6.3756,2.6557 -13.335,2.3305 -9.6884,-0.4528 -15.6213,-3.2173 -19.8484,-9.2489 -1.5755,-2.2481 -3.2093,-4.21 -3.6304,-4.36 -1.1659,-0.4147 -0.905,11.5684 0.4425,20.3045 1.2391,8.0325 4.5202,19.3208 7.208,24.7967 l 1.5393,3.1369 -4.3503,-0.6556 c -2.3929,-0.3607 -5.4797,-0.6556 -6.8598,-0.6556 -1.38,0 -4.4669,0.2949 -6.8598,0.6556 l -4.3503,0.6556 1.5396,-3.1369 z"
       style="fill:#050505" />
    <path
       style="fill:#050505"
       d="m 1550.393,3629.2656 c 2.6876,-5.476 5.9689,-16.7641 7.2077,-24.7967 1.3475,-8.7361 1.6085,-20.7192 0.4426,-20.3045 -0.4211,0.15 -2.0548,2.1119 -3.6304,4.3602 -4.2271,6.0314 -10.16,8.796 -19.8484,9.2489 -6.9594,0.3251 -7.7449,0.1877 -13.3353,-2.3306 -6.9937,-3.1508 -11.7579,-7.7872 -14.9419,-14.5412 -3.9293,-8.3356 -2.6816,-22.8112 2.862,-33.2031 4.2325,-7.934 7.4048,-11.5978 23.5326,-27.1777 16.9895,-16.4126 21.0394,-21.0325 24.4713,-27.9155 1.1409,-2.2879 2.4503,-4.1596 2.9103,-4.1596 0.46,0 1.7698,1.8717 2.9103,4.1596 3.432,6.883 7.482,11.5029 24.4715,27.9155 8.9295,8.6264 17.3813,17.3398 18.7809,19.3631 7.0314,10.1626 9.731,18.1795 9.7725,29.0208 0.024,6.2421 -0.3034,8.0606 -2.1589,11.9969 -3.1842,6.754 -7.9481,11.3904 -14.9421,14.5412 -5.5902,2.5183 -6.3757,2.6557 -13.335,2.3306 -9.6886,-0.4529 -15.6214,-3.2174 -19.8485,-9.2489 -1.5755,-2.2481 -3.2092,-4.2101 -3.6303,-4.36 -1.166,-0.4148 -0.905,11.5683 0.4425,20.3044 1.239,8.0325 4.5202,19.3208 7.2078,24.7968 l 1.5395,3.1369 -4.3503,-0.6557 c -2.393,-0.3606 -5.4797,-0.6556 -6.8599,-0.6556 -1.3799,0 -4.4669,0.295 -6.8597,0.6556 l -4.3503,0.6557 1.5395,-3.1369 z"
       id="path8747-9-2-8-5-8-4-0-1-3-2-6-2-6-1-0"
       inkscape:connector-curvature="0" />
    <rect
       width="418.00439"
       height="818.00439"
       rx="34.865524"
       ry="45.444023"
       x="1349.9978"
       y="3152.2844"
       id="rect5400"
       style="fill:none;fill-opacity:1;stroke:#000000;stroke-width:3.99559;stroke-miterlimit:4;stroke-dasharray:none" />
    <rect
       style="fill:#ffffff;stroke:#000000;stroke-width:0.150385;stroke-opacity:1"
       id="rect142-3-6-1-0-4-0-2-1-8-9-0-6-2-3-2-9-7-3-9-1-4"
       y="3195.6089"
       x="1330.5258"
       ry="6.1008406"
       rx="3.3238332"
       height="109.81674"
       width="39.849594" />
    <path
       style="fill:#050505"
       d="m 1348.46,3299.805 c 0.5999,-1.2168 1.3323,-3.7254 1.6088,-5.5105 0.3008,-1.9413 0.3591,-4.6042 0.098,-4.5121 -0.095,0.033 -0.4586,0.4693 -0.8103,0.969 -0.9436,1.3403 -2.2679,1.9547 -4.4306,2.0553 -1.5534,0.072 -1.7287,0.042 -2.9766,-0.518 -1.5611,-0.7001 -2.6244,-1.7303 -3.3353,-3.2313 -0.8771,-1.8523 -0.5986,-5.0691 0.6388,-7.3784 0.9449,-1.7631 1.653,-2.5774 5.2529,-6.0396 3.7923,-3.6472 4.6964,-4.6739 5.4624,-6.2033 0.2547,-0.5085 0.5469,-0.9245 0.6497,-0.9245 0.1031,0 0.395,0.416 0.6497,0.9245 0.7659,1.5294 1.67,2.5561 5.4623,6.2033 1.9933,1.917 3.8799,3.8533 4.1923,4.303 1.5694,2.2585 2.172,4.0399 2.1813,6.449 0,1.3872 -0.068,1.7913 -0.4819,2.666 -0.7107,1.501 -1.7741,2.5312 -3.3354,3.2313 -1.2477,0.5598 -1.4231,0.5903 -2.9765,0.518 -2.1626,-0.1006 -3.4869,-0.7149 -4.4306,-2.0553 -0.3516,-0.4997 -0.7163,-0.9356 -0.8103,-0.9688 -0.2603,-0.093 -0.202,2.5706 0.099,4.5119 0.2765,1.7851 1.009,4.2937 1.609,5.5105 l 0.3436,0.6971 -0.9711,-0.1457 c -0.5341,-0.08 -1.2231,-0.1456 -1.5312,-0.1456 -0.308,0 -0.9971,0.065 -1.5312,0.1456 l -0.9711,0.1457 0.3436,-0.6971 z"
       id="path8747-9-2-4-7-6-5-2-7-6-3-20-3-5-4"
       inkscape:connector-curvature="0" />
    <path
       style="font-style:normal;font-variant:normal;font-weight:normal;font-stretch:normal;font-size:medium;line-height:125%;font-family:'Ubuntu Condensed';-inkscape-font-specification:'Ubuntu Condensed, ';letter-spacing:0px;word-spacing:0px;fill:#000000;fill-opacity:1;stroke:none;stroke-width:1px;stroke-linecap:butt;stroke-linejoin:miter;stroke-opacity:1"
       inkscape:connector-curvature="0"
       id="path5474-8"
       d="m 1354.9687,3230.5116 q 4.0625,1.3918 6.2562,4.9488 2.275,3.4796 2.275,9.047 0,7.4232 -3.8187,11.7534 -3.7375,4.2528 -11.375,4.2528 -3.0063,0 -5.85,-0.8505 -2.8437,-0.8506 -4.9563,-2.2424 l 1.8688,-5.4128 q 1.8687,1.0826 3.9,1.8558 2.1125,0.7733 4.3875,0.7733 4.1437,0 6.4187,-2.3971 2.3563,-2.4744 2.3563,-7.8098 0,-5.3355 -2.6,-8.0418 -2.5188,-2.7064 -8.125,-2.7064 h -2.1125 v -5.6447 h 1.7875 q 4.875,0 7.2312,-2.4744 2.3563,-2.4744 2.3563,-6.8819 0,-4.1756 -1.8688,-6.186 -1.8687,-2.0878 -4.9562,-2.0878 -2.1125,0 -4.0625,0.7733 -1.8688,0.7732 -3.25,1.9331 l -2.7625,-4.8715 q 2.1125,-1.8558 4.9562,-2.7837 2.925,-0.9279 5.7688,-0.9279 6.3375,0 9.75,3.789 3.4125,3.7888 3.4125,10.0521 0,4.4076 -1.8688,7.5006 -1.7875,3.0157 -5.1187,4.6395 z" />
    <path
       d="m 1354.9687,3230.5116 q 4.0625,1.3918 6.2562,4.9488 2.275,3.4796 2.275,9.047 0,7.4232 -3.8187,11.7534 -3.7375,4.2528 -11.375,4.2528 -3.0063,0 -5.85,-0.8505 -2.8437,-0.8506 -4.9563,-2.2424 l 1.8688,-5.4128 q 1.8687,1.0826 3.9,1.8558 2.1125,0.7733 4.3875,0.7733 4.1437,0 6.4187,-2.3971 2.3563,-2.4744 2.3563,-7.8098 0,-5.3355 -2.6,-8.0418 -2.5188,-2.7064 -8.125,-2.7064 h -2.1125 v -5.6447 h 1.7875 q 4.875,0 7.2312,-2.4744 2.3563,-2.4744 2.3563,-6.8819 0,-4.1756 -1.8688,-6.186 -1.8687,-2.0878 -4.9562,-2.0878 -2.1125,0 -4.0625,0.7733 -1.8688,0.7732 -3.25,1.9331 l -2.7625,-4.8715 q 2.1125,-1.8558 4.9562,-2.7837 2.925,-0.9279 5.7688,-0.9279 6.3375,0 9.75,3.789 3.4125,3.7888 3.4125,10.0521 0,4.4076 -1.8688,7.5006 -1.7875,3.0157 -5.1187,4.6395 z"
       id="path5502-4"
       inkscape:connector-curvature="0"
       style="font-style:normal;font-variant:normal;font-weight:normal;font-stretch:normal;font-size:medium;line-height:125%;font-family:'Ubuntu Condensed';-inkscape-font-specification:'Ubuntu Condensed, ';letter-spacing:0px;word-spacing:0px;fill:#000000;fill-opacity:1;stroke:none;stroke-width:1px;stroke-linecap:butt;stroke-linejoin:miter;stroke-opacity:1" />
    <rect
       style="fill:#ffffff;stroke:#000000;stroke-width:0.150385;stroke-opacity:1"
       id="rect142-3-6-1-0-4-0-2-1-8-9-0-6-2-31-61-6-3-6-7-1-4"
       y="-3925.24"
       x="-1787.147"
       ry="6.1008406"
       rx="3.3238332"
       height="109.81674"
       width="39.849594"
       transform="scale(-1)" />
    <path
       style="fill:#050505"
       d="m 1769.4433,3820.8352 c -0.5999,1.2169 -1.3323,3.7254 -1.6088,5.5105 -0.3008,1.9413 -0.3591,4.6042 -0.098,4.5121 0.095,-0.033 0.4586,-0.4693 0.8103,-0.969 0.9436,-1.3403 2.2679,-1.9547 4.4306,-2.0553 1.5534,-0.072 1.7287,-0.042 2.9766,0.518 1.5611,0.7001 2.6244,1.7304 3.3353,3.2313 0.8771,1.8524 0.5986,5.0691 -0.6388,7.3784 -0.9449,1.7631 -1.653,2.5774 -5.2529,6.0396 -3.7923,3.6472 -4.6964,4.6739 -5.4624,6.2034 -0.2547,0.5084 -0.5469,0.9244 -0.6497,0.9244 -0.1031,0 -0.395,-0.416 -0.6497,-0.9244 -0.7659,-1.5295 -1.67,-2.5562 -5.4623,-6.2034 -1.9933,-1.917 -3.8799,-3.8532 -4.1923,-4.303 -1.5694,-2.2584 -2.172,-4.0399 -2.1813,-6.449 0,-1.3872 0.068,-1.7912 0.4819,-2.666 0.7107,-1.5009 1.7741,-2.5312 3.3354,-3.2313 1.2477,-0.5597 1.4231,-0.5902 2.9765,-0.518 2.1626,0.1006 3.4869,0.7149 4.4306,2.0553 0.3516,0.4997 0.7163,0.9357 0.8103,0.9688 0.2603,0.093 0.202,-2.5706 -0.099,-4.5119 -0.2765,-1.7851 -1.009,-4.2936 -1.609,-5.5105 l -0.3436,-0.6971 0.9711,0.1457 c 0.5341,0.08 1.2231,0.1457 1.5312,0.1457 0.308,0 0.9971,-0.065 1.5312,-0.1457 l 0.9711,-0.1457 -0.3436,0.6971 z"
       id="path8747-9-2-4-7-6-5-2-7-6-3-2-2-6-9-7"
       inkscape:connector-curvature="0" />
    <path
       d="m 1762.0311,3890.3364 q -4.0625,-1.3919 -6.2562,-4.9489 -2.275,-3.4796 -2.275,-9.047 0,-7.4232 3.8187,-11.7534 3.7375,-4.2529 11.375,-4.2529 3.0063,0 5.85,0.8506 2.8437,0.8506 4.9563,2.2424 l -1.8688,5.4128 q -1.8687,-1.0826 -3.9,-1.8559 -2.1125,-0.7731 -4.3875,-0.7731 -4.1437,0 -6.4187,2.397 -2.3563,2.4744 -2.3563,7.8098 0,5.3354 2.6,8.0418 2.5188,2.7064 8.125,2.7064 h 2.1125 v 5.6447 h -1.7875 q -4.875,0 -7.2312,2.4744 -2.3563,2.4744 -2.3563,6.8819 0,4.1756 1.8688,6.186 1.8687,2.0877 4.9562,2.0877 2.1125,0 4.0625,-0.7731 1.8688,-0.7733 3.25,-1.9332 l 2.7625,4.8715 q -2.1125,1.8557 -4.9562,2.7837 -2.925,0.9279 -5.7688,0.9279 -6.3375,0 -9.75,-3.789 -3.4125,-3.7889 -3.4125,-10.0522 0,-4.4076 1.8688,-7.5005 1.7875,-3.0156 5.1187,-4.6394 z"
       id="path5532"
       inkscape:connector-curvature="0"
       style="font-style:normal;font-variant:normal;font-weight:normal;font-stretch:normal;font-size:medium;line-height:125%;font-family:'Ubuntu Condensed';-inkscape-font-specification:'Ubuntu Condensed, ';letter-spacing:0px;word-spacing:0px;fill:#000000;fill-opacity:1;stroke:none;stroke-width:1px;stroke-linecap:butt;stroke-linejoin:miter;stroke-opacity:1" />
  </g>
</svg>
