<?xml version="1.0" encoding="UTF-8" standalone="no"?>
<!-- Created with Inkscape (http://www.inkscape.org/) -->

<svg
   id="svg10047"
   height="122.96671"
   width="78.998962"
   version="1.1"
   viewBox="0 0 78.998962 122.96671"
   inkscape:version="0.91 r13725"
   sodipodi:docname="lombarde-ticinesi.svgz"
   xmlns:inkscape="http://www.inkscape.org/namespaces/inkscape"
   xmlns:sodipodi="http://sodipodi.sourceforge.net/DTD/sodipodi-0.dtd"
   xmlns="http://www.w3.org/2000/svg"
   xmlns:svg="http://www.w3.org/2000/svg"
   xmlns:rdf="http://www.w3.org/1999/02/22-rdf-syntax-ns#"
   xmlns:cc="http://creativecommons.org/ns#"
   xmlns:dc="http://purl.org/dc/elements/1.1/">
  <sodipodi:namedview
     pagecolor="#ffffff"
     bordercolor="#666666"
     borderopacity="1"
     objecttolerance="10"
     gridtolerance="10"
     guidetolerance="10"
     inkscape:pageopacity="0"
     inkscape:pageshadow="2"
     inkscape:window-width="1920"
     inkscape:window-height="1016"
     id="namedview1491"
     showgrid="false"
     inkscape:zoom="1.078374"
     inkscape:cx="427.42201"
     inkscape:cy="310.27924"
     inkscape:window-x="0"
     inkscape:window-y="0"
     inkscape:window-maximized="1"
     inkscape:current-layer="svg10047"
     showguides="false"
     inkscape:guide-bbox="true"
     inkscape:snap-grids="true"
     inkscape:showpageshadow="2"
     inkscape:pagecheckerboard="0"
     inkscape:deskcolor="#d1d1d1">
    <inkscape:grid
       type="xygrid"
       id="grid12910"
       originx="-474.00011"
       originy="-369.03458"
       spacingy="1"
       spacingx="1"
       units="px"
       visible="false" />
  </sodipodi:namedview>
  <metadata
     id="metadata16869">
    <rdf:RDF>
      <cc:Work
         rdf:about="">
        <dc:format>image/svg+xml</dc:format>
        <dc:type
           rdf:resource="http://purl.org/dc/dcmitype/StillImage" />
        <dc:title />
      </cc:Work>
    </rdf:RDF>
  </metadata>
  <defs
     id="defs10049" />
  <g
     transform="matrix(0.15192301,0,0,0.13369848,-562.11518,-414.53948)"
     id="spade_7"
     inkscape:label="#spade_7">
    <rect
       width="518.42499"
       height="918.16309"
       rx="43.241558"
       ry="51.008301"
       x="-4219.2095"
       y="-4019.5022"
       id="rect142-3-7-5-9-2-7-8-0-6-5-8-6-7-6"
       style="fill:#ffffff;stroke:#000000;stroke-width:1.56842"
       transform="scale(-1)" />
    <path
       style="fill:#050505"
       d="m 3855.6039,3803.4862 c -2.6876,5.4761 -5.9689,16.7641 -7.2077,24.7969 -1.3475,8.736 -1.6086,20.7192 -0.4426,20.3043 0.4211,-0.1498 2.0548,-2.1118 3.6303,-4.3601 4.2272,-6.0314 10.1601,-8.796 19.8485,-9.2488 6.9594,-0.3252 7.7449,-0.1877 13.3353,2.3305 6.9937,3.1508 11.7579,7.7872 14.9419,14.5413 3.9293,8.3356 2.6816,22.811 -2.862,33.203 -4.2325,7.934 -7.4048,11.5978 -23.5327,27.1777 -16.9894,16.4126 -21.0393,21.0326 -24.4712,27.9155 -1.1409,2.2879 -2.4503,4.1597 -2.9103,4.1597 -0.46,0 -1.7698,-1.8718 -2.9103,-4.1597 -3.432,-6.8829 -7.482,-11.5029 -24.4715,-27.9155 -8.9295,-8.6264 -17.3813,-17.3398 -18.7809,-19.363 -7.0314,-10.1628 -9.731,-18.1797 -9.7725,-29.0208 -0.024,-6.2423 0.3034,-8.0606 2.1589,-11.9969 3.1841,-6.7541 7.9481,-11.3905 14.942,-14.5413 5.5903,-2.5182 6.3757,-2.6557 13.335,-2.3305 9.6887,0.4528 15.6215,3.2173 19.8486,9.2488 1.5755,2.2482 3.2092,4.2102 3.6303,4.36 1.166,0.4149 0.9049,-11.5684 -0.4425,-20.3043 -1.239,-8.0327 -4.5202,-19.3208 -7.2078,-24.797 l -1.5395,-3.1368 4.3503,0.6557 c 2.393,0.3606 5.4797,0.6556 6.8599,0.6556 1.3799,0 4.4669,-0.295 6.8597,-0.6556 l 4.3503,-0.6557 -1.5395,3.1368 z"
       id="path8747-9-2-8-5-8-4-0-0-4-5-9-2"
       inkscape:connector-curvature="0" />
    <path
       style="fill:#050505"
       d="m 4083.6039,3803.4895 c -2.6876,5.4761 -5.9689,16.7641 -7.2077,24.7969 -1.3475,8.736 -1.6085,20.7192 -0.4426,20.3043 0.4211,-0.1498 2.0548,-2.1118 3.6304,-4.3602 4.2271,-6.0313 10.16,-8.7959 19.8484,-9.2487 6.9594,-0.3252 7.7449,-0.1877 13.3353,2.3305 6.9937,3.1508 11.7579,7.7872 14.9419,14.5413 3.9293,8.3356 2.6816,22.811 -2.862,33.2029 -4.2325,7.9341 -7.4048,11.5979 -23.5327,27.1778 -16.9894,16.4126 -21.0393,21.0326 -24.4712,27.9154 -1.1409,2.288 -2.4503,4.1598 -2.9103,4.1598 -0.46,0 -1.7698,-1.8718 -2.9103,-4.1598 -3.432,-6.8828 -7.482,-11.5028 -24.4715,-27.9154 -8.9295,-8.6264 -17.3813,-17.3398 -18.7809,-19.363 -7.0314,-10.1628 -9.731,-18.1797 -9.7725,-29.0209 -0.024,-6.2422 0.3034,-8.0605 2.1589,-11.9968 3.1842,-6.7541 7.9481,-11.3905 14.9421,-14.5413 5.5902,-2.5182 6.3757,-2.6557 13.335,-2.3305 9.6886,0.4528 15.6214,3.2173 19.8485,9.2487 1.5755,2.2483 3.2092,4.2103 3.6303,4.3601 1.166,0.4148 0.905,-11.5684 -0.4425,-20.3043 -1.239,-8.0327 -4.5202,-19.3208 -7.2078,-24.797 l -1.5395,-3.1368 4.3503,0.6557 c 2.393,0.3606 5.4797,0.6556 6.8599,0.6556 1.3799,0 4.4669,-0.295 6.8597,-0.6556 l 4.3503,-0.6557 -1.5395,3.1368 z"
       id="path8747-9-2-8-5-8-4-0-0-3-3-2-0"
       inkscape:connector-curvature="0" />
    <path
       style="fill:#050505"
       d="m 3836.3901,3317.3559 c 2.6875,-5.4759 5.9688,-16.7641 7.2075,-24.7967 1.3475,-8.7361 1.6087,-20.7192 0.4427,-20.3045 -0.4211,0.15 -2.0547,2.1119 -3.6303,4.3601 -4.2271,6.0315 -10.1599,8.7961 -19.8486,9.2489 -6.9594,0.3252 -7.7448,0.1878 -13.3351,-2.3305 -6.9937,-3.1508 -11.7578,-7.7872 -14.9419,-14.5412 -3.9295,-8.3356 -2.6815,-22.8112 2.8619,-33.2031 4.2325,-7.934 7.4049,-11.5978 23.5326,-27.1778 16.9896,-16.4126 21.0393,-21.0324 24.4715,-27.9154 1.1407,-2.2879 2.45,-4.1597 2.9102,-4.1597 0.4601,0 1.7696,1.8718 2.9104,4.1597 3.4319,6.883 7.4819,11.5028 24.4712,27.9154 8.9298,8.6264 17.3815,17.3399 18.7812,19.3632 7.0314,10.1626 9.7309,18.1795 9.7724,29.0207 0.024,6.2422 -0.3035,8.0606 -2.1589,11.997 -3.184,6.754 -7.9481,11.3904 -14.9422,14.5412 -5.5901,2.5183 -6.3756,2.6557 -13.335,2.3305 -9.6884,-0.4528 -15.6213,-3.2173 -19.8485,-9.2489 -1.5754,-2.2481 -3.2092,-4.21 -3.6303,-4.36 -1.166,-0.4147 -0.905,11.5684 0.4425,20.3045 1.239,8.0325 4.5202,19.3208 7.208,24.7967 l 1.5393,3.1369 -4.3503,-0.6556 c -2.3929,-0.3607 -5.4797,-0.6556 -6.8598,-0.6556 -1.38,0 -4.4669,0.2949 -6.8598,0.6556 l -4.3503,0.6556 1.5396,-3.1369 z"
       id="path8747-9-2-4-7-6-5-2-7-6-5-2-6"
       inkscape:connector-curvature="0" />
    <path
       inkscape:connector-curvature="0"
       id="path8747-9-2-4-7-6-5-2-7-7-6-8-1"
       d="m 4064.3901,3317.3559 c 2.6875,-5.4759 5.9689,-16.7641 7.2075,-24.7967 1.3475,-8.7361 1.6087,-20.7192 0.4427,-20.3045 -0.4211,0.15 -2.0547,2.1119 -3.6303,4.3601 -4.2271,6.0315 -10.1599,8.7961 -19.8485,9.2489 -6.9595,0.3252 -7.7449,0.1878 -13.3352,-2.3305 -6.9937,-3.1508 -11.7577,-7.7872 -14.9419,-14.5412 -3.9295,-8.3356 -2.6815,-22.8112 2.8619,-33.2031 4.2325,-7.934 7.4049,-11.5978 23.5326,-27.1778 16.9896,-16.4126 21.0394,-21.0324 24.4715,-27.9154 1.1407,-2.2879 2.4501,-4.1597 2.9102,-4.1597 0.4601,0 1.7696,1.8718 2.9104,4.1597 3.4319,6.883 7.4819,11.5028 24.4712,27.9154 8.9298,8.6264 17.3815,17.3399 18.7812,19.3632 7.0314,10.1626 9.7309,18.1795 9.7724,29.0207 0.024,6.2422 -0.3035,8.0606 -2.1589,11.997 -3.184,6.754 -7.9481,11.3904 -14.9422,14.5412 -5.5901,2.5183 -6.3756,2.6557 -13.335,2.3305 -9.6884,-0.4528 -15.6213,-3.2173 -19.8484,-9.2489 -1.5755,-2.2481 -3.2093,-4.21 -3.6304,-4.36 -1.1659,-0.4147 -0.905,11.5684 0.4425,20.3045 1.2391,8.0325 4.5202,19.3208 7.208,24.7967 l 1.5393,3.1369 -4.3503,-0.6556 c -2.3929,-0.3607 -5.4797,-0.6556 -6.8598,-0.6556 -1.38,0 -4.4669,0.2949 -6.8598,0.6556 l -4.3503,0.6556 1.5396,-3.1369 z"
       style="fill:#050505" />
    <path
       style="fill:#050505"
       d="m 3855.607,3491.5828 c -2.6875,5.4761 -5.9689,16.7642 -7.2075,24.7968 -1.3475,8.7361 -1.6087,20.7192 -0.4427,20.3044 0.4211,-0.1498 2.0547,-2.1118 3.6303,-4.3602 4.2271,-6.0314 10.1599,-8.7959 19.8485,-9.2488 6.9595,-0.3251 7.7449,-0.1877 13.3352,2.3306 6.9937,3.1508 11.7577,7.7872 14.9419,14.5412 3.9295,8.3356 2.6815,22.8111 -2.8619,33.203 -4.2325,7.9341 -7.4049,11.598 -23.5326,27.1778 -16.9896,16.4127 -21.0394,21.0325 -24.4715,27.9154 -1.1407,2.288 -2.4501,4.1598 -2.9102,4.1598 -0.4601,0 -1.7696,-1.8718 -2.9104,-4.1598 -3.4319,-6.8829 -7.4819,-11.5027 -24.4712,-27.9154 -8.9298,-8.6264 -17.3815,-17.3398 -18.7812,-19.363 -7.0314,-10.1628 -9.7309,-18.1797 -9.7724,-29.0209 -0.024,-6.2422 0.3035,-8.0606 2.1589,-11.9969 3.184,-6.754 7.9481,-11.3904 14.9422,-14.5412 5.5901,-2.5183 6.3756,-2.6557 13.335,-2.3306 9.6884,0.4529 15.6213,3.2173 19.8484,9.2488 1.5755,2.2483 3.2093,4.2102 3.6304,4.3601 1.1659,0.4148 0.905,-11.5683 -0.4425,-20.3044 -1.2391,-8.0325 -4.5202,-19.3207 -7.208,-24.7968 l -1.5393,-3.1368 4.3503,0.6556 c 2.3929,0.3606 5.4797,0.6556 6.8598,0.6556 1.38,0 4.4669,-0.295 6.8598,-0.6556 l 4.3503,-0.6556 -1.5396,3.1368 z"
       id="path8747-9-2-4-7-6-5-2-7-1-9-7-5"
       inkscape:connector-curvature="0" />
    <path
       style="fill:#050505"
       d="m 4064.3901,3629.2657 c 2.6876,-5.476 5.9689,-16.7641 7.2077,-24.7967 1.3475,-8.7361 1.6085,-20.7192 0.4426,-20.3045 -0.4211,0.15 -2.0548,2.1119 -3.6304,4.3602 -4.2271,6.0314 -10.16,8.796 -19.8484,9.2489 -6.9594,0.3251 -7.7449,0.1877 -13.3353,-2.3306 -6.9937,-3.1508 -11.7579,-7.7872 -14.9419,-14.5412 -3.9293,-8.3356 -2.6816,-22.8112 2.862,-33.2031 4.2325,-7.934 7.4048,-11.5978 23.5326,-27.1777 16.9895,-16.4126 21.0394,-21.0325 24.4713,-27.9155 1.1409,-2.2879 2.4503,-4.1596 2.9103,-4.1596 0.46,0 1.7698,1.8717 2.9103,4.1596 3.432,6.883 7.482,11.5029 24.4715,27.9155 8.9295,8.6264 17.3813,17.3398 18.7809,19.3631 7.0314,10.1626 9.731,18.1795 9.7725,29.0208 0.024,6.2421 -0.3034,8.0606 -2.1589,11.9969 -3.1842,6.754 -7.9481,11.3904 -14.9421,14.5412 -5.5902,2.5183 -6.3757,2.6557 -13.335,2.3306 -9.6886,-0.4529 -15.6214,-3.2174 -19.8485,-9.2489 -1.5755,-2.2481 -3.2092,-4.2101 -3.6303,-4.36 -1.166,-0.4148 -0.905,11.5683 0.4425,20.3044 1.239,8.0325 4.5202,19.3208 7.2078,24.7968 l 1.5395,3.1369 -4.3503,-0.6557 c -2.393,-0.3606 -5.4797,-0.6556 -6.8599,-0.6556 -1.3799,0 -4.4669,0.295 -6.8597,0.6556 l -4.3503,0.6557 1.5395,-3.1369 z"
       id="path8747-9-2-8-5-8-4-0-1-3-2-6-2-6-5"
       inkscape:connector-curvature="0" />
    <path
       style="fill:#050505"
       d="m 3950.3902,3473.3093 c 2.6874,-5.476 5.9688,-16.7642 7.2075,-24.7968 1.3475,-8.7361 1.6087,-20.7192 0.4427,-20.3044 -0.4212,0.1499 -2.0547,2.1118 -3.6303,4.3601 -4.2271,6.0315 -10.1599,8.796 -19.8486,9.2488 -6.9594,0.3252 -7.7448,0.1879 -13.3351,-2.3305 -6.9937,-3.1507 -11.7578,-7.7872 -14.9419,-14.5411 -3.9295,-8.3356 -2.6815,-22.8112 2.8619,-33.2031 4.2324,-7.9341 7.4049,-11.5979 23.5326,-27.1779 16.9896,-16.4126 21.0393,-21.0324 24.4714,-27.9153 1.1407,-2.2879 2.4501,-4.1598 2.9102,-4.1598 0.4602,0 1.7697,1.8719 2.9105,4.1598 3.4319,6.8829 7.4819,11.5027 24.4712,27.9153 8.9298,8.6264 17.3814,17.3399 18.7812,19.3632 7.0314,10.1627 9.7308,18.1796 9.7724,29.0207 0.024,6.2423 -0.3035,8.0606 -2.1589,11.9971 -3.1841,6.7539 -7.9481,11.3904 -14.9422,14.5411 -5.5902,2.5184 -6.3756,2.6557 -13.335,2.3305 -9.6885,-0.4528 -15.6214,-3.2172 -19.8485,-9.2488 -1.5754,-2.2482 -3.2092,-4.2101 -3.6304,-4.36 -1.1659,-0.4148 -0.9049,11.5683 0.4426,20.3044 1.239,8.0325 4.5201,19.3208 7.208,24.7968 l 1.5392,3.1369 -4.3503,-0.6557 c -2.3928,-0.3606 -5.4796,-0.6557 -6.8598,-0.6557 -1.3799,0 -4.4669,0.2951 -6.8597,0.6557 l -4.3504,0.6557 1.5397,-3.1369 z"
       id="path8747-9-2-4-7-6-5-2-7-1-8-7-1-4"
       inkscape:connector-curvature="0" />
    <rect
       width="418.00439"
       height="818.00439"
       rx="34.865524"
       ry="45.444023"
       x="3749.9983"
       y="3152.2844"
       id="rect5396"
       style="fill:none;fill-opacity:1;stroke:#000000;stroke-width:3.99559;stroke-miterlimit:4;stroke-dasharray:none" />
    <rect
       style="fill:#ffffff;stroke:#000000;stroke-width:0.150385;stroke-opacity:1"
       id="rect142-3-6-1-0-4-0-2-1-8-9-0-6-2-3-2-9-7-3-9-6"
       y="3195.6089"
       x="3730.5227"
       ry="6.1008406"
       rx="3.3238332"
       height="109.81674"
       width="39.849594" />
    <path
       style="fill:#050505"
       d="m 3748.4571,3299.8051 c 0.5999,-1.2168 1.3323,-3.7254 1.6088,-5.5105 0.3008,-1.9413 0.3591,-4.6042 0.098,-4.5121 -0.095,0.033 -0.4586,0.4693 -0.8103,0.969 -0.9436,1.3403 -2.2679,1.9547 -4.4306,2.0553 -1.5534,0.072 -1.7287,0.042 -2.9766,-0.518 -1.5611,-0.7001 -2.6244,-1.7303 -3.3353,-3.2313 -0.8771,-1.8523 -0.5986,-5.0691 0.6388,-7.3784 0.9449,-1.7631 1.653,-2.5774 5.2529,-6.0396 3.7923,-3.6472 4.6964,-4.6739 5.4624,-6.2033 0.2547,-0.5085 0.5469,-0.9245 0.6497,-0.9245 0.1031,0 0.395,0.416 0.6497,0.9245 0.7659,1.5294 1.67,2.5561 5.4623,6.2033 1.9933,1.917 3.8799,3.8533 4.1923,4.303 1.5694,2.2585 2.172,4.0399 2.1813,6.449 0,1.3872 -0.068,1.7913 -0.4819,2.666 -0.7107,1.501 -1.7741,2.5312 -3.3354,3.2313 -1.2477,0.5598 -1.4231,0.5903 -2.9765,0.518 -2.1626,-0.1006 -3.4869,-0.7149 -4.4306,-2.0553 -0.3516,-0.4997 -0.7163,-0.9356 -0.8103,-0.9688 -0.2603,-0.093 -0.202,2.5706 0.099,4.5119 0.2765,1.7851 1.009,4.2937 1.609,5.5105 l 0.3436,0.6971 -0.9711,-0.1457 c -0.5341,-0.08 -1.2231,-0.1456 -1.5312,-0.1456 -0.308,0 -0.9971,0.065 -1.5312,0.1456 l -0.9711,0.1457 0.3436,-0.6971 z"
       id="path8747-9-2-4-7-6-5-2-7-6-3-20-3-4"
       inkscape:connector-curvature="0" />
    <path
       style="font-style:normal;font-variant:normal;font-weight:normal;font-stretch:normal;font-size:medium;line-height:125%;font-family:'Ubuntu Condensed';-inkscape-font-specification:'Ubuntu Condensed, ';letter-spacing:0px;word-spacing:0px;fill:#000000;fill-opacity:1;stroke:none;stroke-width:1px;stroke-linecap:butt;stroke-linejoin:miter;stroke-opacity:1"
       inkscape:connector-curvature="0"
       id="path5466-4"
       d="m 3742.8771,3260.5136 q 0.1562,-3.8776 0.7808,-8.3207 0.7027,-4.5239 1.7177,-9.1285 1.015,-4.6048 2.1862,-9.2095 1.2493,-4.6854 2.6546,-8.8861 1.4054,-4.2816 2.8109,-7.9169 1.4053,-3.6353 2.8108,-6.382 h -18.4265 v -6.1395 h 26 v 5.4126 q -1.8738,3.1505 -4.1381,8.6438 -2.2642,5.4126 -4.2942,12.2791 -1.952,6.7859 -3.4355,14.4604 -1.4835,7.6745 -1.7958,15.1873 z" />
    <path
       d="m 3742.8771,3260.5136 q 0.1562,-3.8776 0.7808,-8.3207 0.7027,-4.5239 1.7177,-9.1285 1.015,-4.6048 2.1862,-9.2095 1.2493,-4.6854 2.6546,-8.8861 1.4054,-4.2816 2.8109,-7.9169 1.4053,-3.6353 2.8108,-6.382 h -18.4265 v -6.1395 h 26 v 5.4126 q -1.8738,3.1505 -4.1381,8.6438 -2.2642,5.4126 -4.2942,12.2791 -1.952,6.7859 -3.4355,14.4604 -1.4835,7.6745 -1.7958,15.1873 z"
       id="path5494-4"
       inkscape:connector-curvature="0"
       style="font-style:normal;font-variant:normal;font-weight:normal;font-stretch:normal;font-size:medium;line-height:125%;font-family:'Ubuntu Condensed';-inkscape-font-specification:'Ubuntu Condensed, ';letter-spacing:0px;word-spacing:0px;fill:#000000;fill-opacity:1;stroke:none;stroke-width:1px;stroke-linecap:butt;stroke-linejoin:miter;stroke-opacity:1" />
    <rect
       style="fill:#ffffff;stroke:#000000;stroke-width:0.150385;stroke-opacity:1"
       id="rect142-3-6-1-0-4-0-2-1-8-9-0-6-2-31-61-6-3-6-7-7"
       y="-3925.24"
       x="-4187.144"
       ry="6.1008406"
       rx="3.3238332"
       height="109.81674"
       width="39.849594"
       transform="scale(-1)" />
    <path
       style="fill:#050505"
       d="m 4169.4404,3820.8353 c -0.5999,1.2169 -1.3323,3.7254 -1.6088,5.5105 -0.3008,1.9413 -0.3591,4.6042 -0.098,4.5121 0.095,-0.033 0.4586,-0.4693 0.8103,-0.969 0.9436,-1.3403 2.2679,-1.9547 4.4306,-2.0553 1.5534,-0.072 1.7287,-0.042 2.9766,0.518 1.5611,0.7001 2.6244,1.7304 3.3353,3.2313 0.8771,1.8524 0.5986,5.0691 -0.6388,7.3784 -0.9449,1.7631 -1.653,2.5774 -5.2529,6.0396 -3.7923,3.6472 -4.6964,4.6739 -5.4624,6.2034 -0.2547,0.5084 -0.5469,0.9244 -0.6497,0.9244 -0.1031,0 -0.395,-0.416 -0.6497,-0.9244 -0.7659,-1.5295 -1.67,-2.5562 -5.4623,-6.2034 -1.9933,-1.917 -3.8799,-3.8532 -4.1923,-4.303 -1.5694,-2.2584 -2.172,-4.0399 -2.1813,-6.449 0,-1.3872 0.068,-1.7912 0.4819,-2.666 0.7107,-1.5009 1.7741,-2.5312 3.3354,-3.2313 1.2477,-0.5597 1.4231,-0.5902 2.9765,-0.518 2.1626,0.1006 3.4869,0.7149 4.4306,2.0553 0.3516,0.4997 0.7163,0.9357 0.8103,0.9688 0.2603,0.093 0.202,-2.5706 -0.099,-4.5119 -0.2765,-1.7851 -1.009,-4.2936 -1.609,-5.5105 l -0.3436,-0.6971 0.9711,0.1457 c 0.5341,0.08 1.2231,0.1457 1.5312,0.1457 0.308,0 0.9971,-0.065 1.5312,-0.1457 l 0.9711,-0.1457 -0.3436,0.6971 z"
       id="path8747-9-2-4-7-6-5-2-7-6-3-2-2-6-7"
       inkscape:connector-curvature="0" />
    <path
       d="m 4173.9461,3860.3342 q -0.1562,3.8777 -0.7808,8.3207 -0.7027,4.524 -1.7177,9.1287 -1.015,4.6046 -2.1862,9.2094 -1.2493,4.6854 -2.6546,8.8862 -1.4054,4.2815 -2.8109,7.9168 -1.4053,3.6352 -2.8108,6.3819 h 18.4265 v 6.1396 h -26 v -5.4125 q 1.8738,-3.1507 4.1381,-8.6439 2.2642,-5.4125 4.2942,-12.2791 1.952,-6.7859 3.4355,-14.4604 1.4835,-7.6744 1.7958,-15.1874 z"
       id="path5524"
       inkscape:connector-curvature="0"
       style="font-style:normal;font-variant:normal;font-weight:normal;font-stretch:normal;font-size:medium;line-height:125%;font-family:'Ubuntu Condensed';-inkscape-font-specification:'Ubuntu Condensed, ';letter-spacing:0px;word-spacing:0px;fill:#000000;fill-opacity:1;stroke:none;stroke-width:1px;stroke-linecap:butt;stroke-linejoin:miter;stroke-opacity:1" />
  </g>
</svg>
